<?xml version="1.0" encoding="utf-8" standalone="no"?>
<!DOCTYPE svg PUBLIC "-//W3C//DTD SVG 1.1//EN"
  "http://www.w3.org/Graphics/SVG/1.1/DTD/svg11.dtd">
<!-- Created with matplotlib (http://matplotlib.org/) -->
<svg height="345pt" version="1.1" viewBox="0 0 460 345" width="460pt" xmlns="http://www.w3.org/2000/svg" xmlns:xlink="http://www.w3.org/1999/xlink">
 <defs>
  <style type="text/css">
*{stroke-linecap:butt;stroke-linejoin:round;}
  </style>
 </defs>
 <g id="figure_1">
  <g id="patch_1">
   <path d="M 0 345.6 
L 460.8 345.6 
L 460.8 0 
L 0 0 
z
" style="fill:#ffffff;"/>
  </g>
  <g id="axes_1">
   <g id="patch_2">
    <path d="M 78.14 96.52 
L 447.48 96.52 
L 447.48 25.44 
L 78.14 25.44 
z
" style="fill:#ffffff;"/>
   </g>
   <g id="matplotlib.axis_1">
    <g id="xtick_1">
     <g id="line2d_1">
      <defs>
       <path d="M 0 0 
L 0 3.5 
" id="md987fe513b" style="stroke:#000000;stroke-width:0.8;"/>
      </defs>
      <g>
       <use style="stroke:#000000;stroke-width:0.8;" x="94.928182" xlink:href="#md987fe513b" y="96.52"/>
      </g>
     </g>
    </g>
    <g id="xtick_2">
     <g id="line2d_2">
      <g>
       <use style="stroke:#000000;stroke-width:0.8;" x="142.894416" xlink:href="#md987fe513b" y="96.52"/>
      </g>
     </g>
    </g>
    <g id="xtick_3">
     <g id="line2d_3">
      <g>
       <use style="stroke:#000000;stroke-width:0.8;" x="190.860649" xlink:href="#md987fe513b" y="96.52"/>
      </g>
     </g>
    </g>
    <g id="xtick_4">
     <g id="line2d_4">
      <g>
       <use style="stroke:#000000;stroke-width:0.8;" x="238.826883" xlink:href="#md987fe513b" y="96.52"/>
      </g>
     </g>
    </g>
    <g id="xtick_5">
     <g id="line2d_5">
      <g>
       <use style="stroke:#000000;stroke-width:0.8;" x="286.793117" xlink:href="#md987fe513b" y="96.52"/>
      </g>
     </g>
    </g>
    <g id="xtick_6">
     <g id="line2d_6">
      <g>
       <use style="stroke:#000000;stroke-width:0.8;" x="334.759351" xlink:href="#md987fe513b" y="96.52"/>
      </g>
     </g>
    </g>
    <g id="xtick_7">
     <g id="line2d_7">
      <g>
       <use style="stroke:#000000;stroke-width:0.8;" x="382.725584" xlink:href="#md987fe513b" y="96.52"/>
      </g>
     </g>
    </g>
    <g id="xtick_8">
     <g id="line2d_8">
      <g>
       <use style="stroke:#000000;stroke-width:0.8;" x="430.691818" xlink:href="#md987fe513b" y="96.52"/>
      </g>
     </g>
    </g>
   </g>
   <g id="matplotlib.axis_2">
    <g id="ytick_1">
     <g id="line2d_9">
      <defs>
       <path d="M 0 0 
L -3.5 0 
" id="mf731668581" style="stroke:#000000;stroke-width:0.8;"/>
      </defs>
      <g>
       <use style="stroke:#000000;stroke-width:0.8;" x="78.14" xlink:href="#mf731668581" y="78.722013"/>
      </g>
     </g>
     <g id="text_1">
      <!-- 0 -->
      <defs>
       <path d="M 31.78125 66.40625 
Q 24.171875 66.40625 20.328125 58.90625 
Q 16.5 51.421875 16.5 36.375 
Q 16.5 21.390625 20.328125 13.890625 
Q 24.171875 6.390625 31.78125 6.390625 
Q 39.453125 6.390625 43.28125 13.890625 
Q 47.125 21.390625 47.125 36.375 
Q 47.125 51.421875 43.28125 58.90625 
Q 39.453125 66.40625 31.78125 66.40625 
z
M 31.78125 74.21875 
Q 44.046875 74.21875 50.515625 64.515625 
Q 56.984375 54.828125 56.984375 36.375 
Q 56.984375 17.96875 50.515625 8.265625 
Q 44.046875 -1.421875 31.78125 -1.421875 
Q 19.53125 -1.421875 13.0625 8.265625 
Q 6.59375 17.96875 6.59375 36.375 
Q 6.59375 54.828125 13.0625 64.515625 
Q 19.53125 74.21875 31.78125 74.21875 
z
" id="DejaVuSans-30"/>
      </defs>
      <g transform="translate(64.7775 82.521232)scale(0.1 -0.1)">
       <use xlink:href="#DejaVuSans-30"/>
      </g>
     </g>
    </g>
    <g id="ytick_2">
     <g id="line2d_10">
      <g>
       <use style="stroke:#000000;stroke-width:0.8;" x="78.14" xlink:href="#mf731668581" y="37.01276"/>
      </g>
     </g>
     <g id="text_2">
      <!-- 100000 -->
      <defs>
       <path d="M 12.40625 8.296875 
L 28.515625 8.296875 
L 28.515625 63.921875 
L 10.984375 60.40625 
L 10.984375 69.390625 
L 28.421875 72.90625 
L 38.28125 72.90625 
L 38.28125 8.296875 
L 54.390625 8.296875 
L 54.390625 0 
L 12.40625 0 
z
" id="DejaVuSans-31"/>
      </defs>
      <g transform="translate(32.965 40.811979)scale(0.1 -0.1)">
       <use xlink:href="#DejaVuSans-31"/>
       <use x="63.623047" xlink:href="#DejaVuSans-30"/>
       <use x="127.246094" xlink:href="#DejaVuSans-30"/>
       <use x="190.869141" xlink:href="#DejaVuSans-30"/>
       <use x="254.492188" xlink:href="#DejaVuSans-30"/>
       <use x="318.115234" xlink:href="#DejaVuSans-30"/>
      </g>
     </g>
    </g>
    <g id="text_3">
     <!-- Heat [W] -->
     <defs>
      <path d="M 9.8125 72.90625 
L 19.671875 72.90625 
L 19.671875 43.015625 
L 55.515625 43.015625 
L 55.515625 72.90625 
L 65.375 72.90625 
L 65.375 0 
L 55.515625 0 
L 55.515625 34.71875 
L 19.671875 34.71875 
L 19.671875 0 
L 9.8125 0 
z
" id="DejaVuSans-48"/>
      <path d="M 56.203125 29.59375 
L 56.203125 25.203125 
L 14.890625 25.203125 
Q 15.484375 15.921875 20.484375 11.0625 
Q 25.484375 6.203125 34.421875 6.203125 
Q 39.59375 6.203125 44.453125 7.46875 
Q 49.3125 8.734375 54.109375 11.28125 
L 54.109375 2.78125 
Q 49.265625 0.734375 44.1875 -0.34375 
Q 39.109375 -1.421875 33.890625 -1.421875 
Q 20.796875 -1.421875 13.15625 6.1875 
Q 5.515625 13.8125 5.515625 26.8125 
Q 5.515625 40.234375 12.765625 48.109375 
Q 20.015625 56 32.328125 56 
Q 43.359375 56 49.78125 48.890625 
Q 56.203125 41.796875 56.203125 29.59375 
z
M 47.21875 32.234375 
Q 47.125 39.59375 43.09375 43.984375 
Q 39.0625 48.390625 32.421875 48.390625 
Q 24.90625 48.390625 20.390625 44.140625 
Q 15.875 39.890625 15.1875 32.171875 
z
" id="DejaVuSans-65"/>
      <path d="M 34.28125 27.484375 
Q 23.390625 27.484375 19.1875 25 
Q 14.984375 22.515625 14.984375 16.5 
Q 14.984375 11.71875 18.140625 8.90625 
Q 21.296875 6.109375 26.703125 6.109375 
Q 34.1875 6.109375 38.703125 11.40625 
Q 43.21875 16.703125 43.21875 25.484375 
L 43.21875 27.484375 
z
M 52.203125 31.203125 
L 52.203125 0 
L 43.21875 0 
L 43.21875 8.296875 
Q 40.140625 3.328125 35.546875 0.953125 
Q 30.953125 -1.421875 24.3125 -1.421875 
Q 15.921875 -1.421875 10.953125 3.296875 
Q 6 8.015625 6 15.921875 
Q 6 25.140625 12.171875 29.828125 
Q 18.359375 34.515625 30.609375 34.515625 
L 43.21875 34.515625 
L 43.21875 35.40625 
Q 43.21875 41.609375 39.140625 45 
Q 35.0625 48.390625 27.6875 48.390625 
Q 23 48.390625 18.546875 47.265625 
Q 14.109375 46.140625 10.015625 43.890625 
L 10.015625 52.203125 
Q 14.9375 54.109375 19.578125 55.046875 
Q 24.21875 56 28.609375 56 
Q 40.484375 56 46.34375 49.84375 
Q 52.203125 43.703125 52.203125 31.203125 
z
" id="DejaVuSans-61"/>
      <path d="M 18.3125 70.21875 
L 18.3125 54.6875 
L 36.8125 54.6875 
L 36.8125 47.703125 
L 18.3125 47.703125 
L 18.3125 18.015625 
Q 18.3125 11.328125 20.140625 9.421875 
Q 21.96875 7.515625 27.59375 7.515625 
L 36.8125 7.515625 
L 36.8125 0 
L 27.59375 0 
Q 17.1875 0 13.234375 3.875 
Q 9.28125 7.765625 9.28125 18.015625 
L 9.28125 47.703125 
L 2.6875 47.703125 
L 2.6875 54.6875 
L 9.28125 54.6875 
L 9.28125 70.21875 
z
" id="DejaVuSans-74"/>
      <path id="DejaVuSans-20"/>
      <path d="M 8.59375 75.984375 
L 29.296875 75.984375 
L 29.296875 69 
L 17.578125 69 
L 17.578125 -6.203125 
L 29.296875 -6.203125 
L 29.296875 -13.1875 
L 8.59375 -13.1875 
z
" id="DejaVuSans-5b"/>
      <path d="M 3.328125 72.90625 
L 13.28125 72.90625 
L 28.609375 11.28125 
L 43.890625 72.90625 
L 54.984375 72.90625 
L 70.3125 11.28125 
L 85.59375 72.90625 
L 95.609375 72.90625 
L 77.296875 0 
L 64.890625 0 
L 49.515625 63.28125 
L 33.984375 0 
L 21.578125 0 
z
" id="DejaVuSans-57"/>
      <path d="M 30.421875 75.984375 
L 30.421875 -13.1875 
L 9.71875 -13.1875 
L 9.71875 -6.203125 
L 21.390625 -6.203125 
L 21.390625 69 
L 9.71875 69 
L 9.71875 75.984375 
z
" id="DejaVuSans-5d"/>
     </defs>
     <g transform="translate(26.885312 83.275312)rotate(-90)scale(0.1 -0.1)">
      <use xlink:href="#DejaVuSans-48"/>
      <use x="75.195312" xlink:href="#DejaVuSans-65"/>
      <use x="136.71875" xlink:href="#DejaVuSans-61"/>
      <use x="197.998047" xlink:href="#DejaVuSans-74"/>
      <use x="237.207031" xlink:href="#DejaVuSans-20"/>
      <use x="268.994141" xlink:href="#DejaVuSans-5b"/>
      <use x="308.007812" xlink:href="#DejaVuSans-57"/>
      <use x="406.884766" xlink:href="#DejaVuSans-5d"/>
     </g>
    </g>
   </g>
   <g id="line2d_11">
    <path clip-path="url(#p1d4fa85452)" d="M 94.928182 78.722013 
L 204.351153 78.722013 
L 204.850801 54.116067 
L 205.350449 63.801701 
L 206.349746 65.066016 
L 206.849394 65.525159 
L 207.349042 66.767126 
L 207.84869 66.256898 
L 208.847987 66.842077 
L 209.347635 62.136243 
L 209.847284 28.670909 
L 211.845877 28.670909 
L 212.345525 29.524837 
L 213.344821 33.599822 
L 214.344118 36.811794 
L 215.343415 39.440302 
L 216.342711 41.638754 
L 217.841656 44.300263 
L 218.840952 45.712121 
L 219.840249 46.815015 
L 220.839545 47.670778 
L 222.33849 48.65339 
L 222.838139 53.459294 
L 223.337787 59.948089 
L 223.837435 72.289267 
L 224.836732 86.689796 
L 225.33638 83.590422 
L 225.836028 82.442212 
L 226.335676 90.507885 
L 226.835325 87.341405 
L 227.834621 85.052126 
L 228.334269 93.175054 
L 228.833918 90.051942 
L 229.833214 87.814477 
L 230.832511 86.030695 
L 231.831807 84.599646 
L 233.330752 82.948894 
L 234.829697 81.728514 
L 235.329345 81.393549 
L 235.828994 80.016722 
L 236.82829 75.112319 
L 237.327938 73.900181 
L 237.827587 71.806973 
L 238.327235 68.070772 
L 238.826883 87.913539 
L 239.82618 88.753986 
L 240.325828 92.457033 
L 240.825476 89.177578 
L 241.824773 88.710432 
L 242.324421 88.120556 
L 242.824069 87.277659 
L 243.823366 86.38477 
L 245.322311 85.368442 
L 245.821959 85.168024 
L 247.820552 85.610973 
L 250.318793 85.948334 
L 251.31809 79.817899 
L 251.817738 83.131482 
L 252.317386 83.447148 
L 252.817035 83.01275 
L 253.316683 78.722013 
L 254.315979 78.722013 
L 254.815628 79.941452 
L 255.315276 80.534152 
L 255.814924 78.722013 
L 270.304724 78.722013 
L 270.804372 87.802863 
L 271.304021 89.486801 
L 271.803669 91.7587 
L 272.802965 93.289091 
L 273.302614 91.118561 
L 273.802262 90.423378 
L 274.30191 90.615358 
L 274.801558 89.354791 
L 276.300503 87.669116 
L 277.799448 86.411606 
L 279.298393 85.450809 
L 281.296986 84.483204 
L 283.295579 83.754965 
L 285.79382 83.061105 
L 286.293469 81.200039 
L 286.793117 82.882993 
L 287.792413 82.710839 
L 288.292062 79.588439 
L 289.291358 79.544111 
L 289.791006 79.927159 
L 290.790303 81.029911 
L 292.289248 82.179135 
L 292.788896 82.516532 
L 298.784675 81.407329 
L 299.284324 80.609679 
L 299.783972 81.183723 
L 300.28362 81.284208 
L 300.783268 81.215016 
L 301.782565 78.722013 
L 302.282213 79.405295 
L 302.781861 79.160892 
L 303.28151 79.157448 
L 303.781158 78.722013 
L 304.280806 78.722013 
L 304.780455 79.122517 
L 305.280103 78.722013 
L 318.270958 78.722013 
L 318.770606 81.801785 
L 319.270254 81.474187 
L 319.769903 81.32623 
L 320.269551 82.939759 
L 320.769199 82.099784 
L 321.268847 81.766109 
L 323.26744 81.20235 
L 325.765682 80.750592 
L 329.26322 80.36823 
L 333.760054 80.076179 
L 334.259702 79.693722 
L 334.759351 80.066839 
L 335.758647 79.99951 
L 336.258295 78.86031 
L 337.75724 78.854676 
L 338.256889 79.157298 
L 339.256185 80.168985 
L 341.254778 79.984055 
L 346.750909 79.72579 
L 348.749502 79.665015 
L 349.24915 79.049732 
L 349.748799 78.722013 
L 350.248447 78.827889 
L 352.24704 78.722013 
L 352.746688 78.88297 
L 353.246337 78.722013 
L 366.237192 78.722013 
L 366.73684 80.218666 
L 367.236488 80.651265 
L 367.736136 80.248959 
L 370.734026 79.86597 
L 374.731212 79.605638 
L 382.225936 79.385552 
L 383.724881 79.357961 
L 384.224529 78.739899 
L 384.724177 78.74834 
L 385.223826 79.437469 
L 387.222419 79.349944 
L 397.215384 79.204416 
L 397.715032 78.722013 
L 398.714329 78.768072 
L 399.213977 79.249268 
L 399.713626 78.722013 
L 414.203425 78.722013 
L 414.703074 79.561073 
L 415.202722 79.717583 
L 415.70237 79.543553 
L 417.201315 79.430592 
L 417.700963 79.596401 
L 418.200611 79.2597 
L 419.199908 79.319522 
L 419.699556 80.269398 
L 420.199205 78.722013 
L 420.698853 79.229617 
L 430.691818 79.092507 
L 430.691818 79.092507 
" style="fill:none;stroke:#1f77b4;stroke-linecap:square;stroke-width:1.5;"/>
   </g>
   <g id="line2d_12">
    <path clip-path="url(#p1d4fa85452)" d="M 94.928182 78.722013 
L 204.351153 78.722013 
L 204.850801 54.116067 
L 205.350449 63.84341 
L 206.349746 65.107725 
L 206.849394 65.566868 
L 207.349042 66.767126 
L 207.84869 66.298607 
L 208.847987 66.883786 
L 209.347635 62.177952 
L 209.847284 28.712618 
L 211.845877 28.712618 
L 212.345525 29.566547 
L 213.344821 33.641531 
L 214.344118 36.853504 
L 215.343415 39.482011 
L 216.342711 41.680464 
L 217.841656 44.341972 
L 218.840952 45.75383 
L 219.840249 46.856725 
L 220.839545 47.712487 
L 222.33849 48.695099 
L 222.838139 53.459294 
L 223.337787 59.948089 
L 223.837435 72.289267 
L 224.836732 86.689796 
L 225.33638 83.590422 
L 225.836028 82.442212 
L 226.335676 90.507885 
L 226.835325 87.341405 
L 227.834621 85.052126 
L 228.334269 93.175054 
L 228.833918 90.051942 
L 229.833214 87.814477 
L 230.832511 86.030695 
L 231.831807 84.599646 
L 233.330752 82.948894 
L 234.829697 81.728514 
L 235.329345 81.393549 
L 235.828994 80.016722 
L 236.82829 75.112319 
L 237.327938 73.900181 
L 237.827587 71.806973 
L 238.327235 68.070772 
L 238.826883 87.87183 
L 239.82618 88.712276 
L 240.325828 92.415324 
L 240.825476 89.135869 
L 241.824773 88.668722 
L 242.324421 88.120556 
L 242.824069 87.277659 
L 243.823366 86.38477 
L 245.322311 85.368442 
L 245.821959 85.168024 
L 247.820552 85.610973 
L 250.318793 85.948334 
L 251.31809 79.77619 
L 251.817738 83.089773 
L 252.317386 83.405438 
L 252.817035 83.01275 
L 253.316683 78.722013 
L 254.315979 78.722013 
L 254.815628 79.899743 
L 255.315276 80.492443 
L 255.814924 78.722013 
L 270.304724 78.722013 
L 270.804372 87.761154 
L 271.304021 89.486801 
L 271.803669 91.7587 
L 272.802965 93.289091 
L 273.302614 91.118561 
L 273.802262 90.423378 
L 274.30191 90.615358 
L 274.801558 89.354791 
L 276.300503 87.669116 
L 277.799448 86.411606 
L 279.298393 85.450809 
L 281.296986 84.483204 
L 283.295579 83.754965 
L 285.79382 83.061105 
L 286.293469 81.200039 
L 286.793117 82.882993 
L 287.792413 82.710839 
L 288.292062 79.588439 
L 289.291358 79.544111 
L 289.791006 79.927159 
L 290.790303 81.029911 
L 292.289248 82.179135 
L 292.788896 82.516532 
L 298.784675 81.407329 
L 299.284324 80.609679 
L 299.783972 81.183723 
L 300.28362 81.284208 
L 300.783268 81.215016 
L 301.782565 78.722013 
L 302.282213 79.405295 
L 302.781861 79.160892 
L 303.28151 79.157448 
L 303.781158 78.722013 
L 304.280806 78.722013 
L 304.780455 79.080808 
L 305.280103 78.722013 
L 318.270958 78.722013 
L 318.770606 81.801785 
L 319.270254 81.474187 
L 319.769903 81.32623 
L 320.269551 82.939759 
L 320.769199 82.099784 
L 321.268847 81.766109 
L 323.26744 81.20235 
L 325.765682 80.750592 
L 329.26322 80.36823 
L 333.760054 80.076179 
L 334.259702 79.693722 
L 334.759351 80.066839 
L 335.758647 79.99951 
L 336.258295 78.86031 
L 337.75724 78.854676 
L 338.256889 79.157298 
L 339.256185 80.168985 
L 341.254778 79.984055 
L 346.750909 79.72579 
L 348.749502 79.665015 
L 349.24915 79.049732 
L 349.748799 78.722013 
L 350.248447 78.827889 
L 352.24704 78.722013 
L 352.746688 78.88297 
L 353.246337 78.722013 
L 366.237192 78.722013 
L 366.73684 80.218666 
L 367.236488 80.651265 
L 367.736136 80.248959 
L 370.734026 79.86597 
L 374.731212 79.605638 
L 382.225936 79.385552 
L 383.724881 79.357961 
L 384.224529 78.739899 
L 384.724177 78.74834 
L 385.223826 79.437469 
L 387.222419 79.349944 
L 397.215384 79.204416 
L 397.715032 78.722013 
L 398.714329 78.768072 
L 399.213977 79.249268 
L 399.713626 78.722013 
L 414.203425 78.722013 
L 414.703074 79.561073 
L 415.202722 79.717583 
L 415.70237 79.543553 
L 417.201315 79.430592 
L 417.700963 79.596401 
L 418.200611 79.2597 
L 419.199908 79.319522 
L 419.699556 80.269398 
L 420.199205 78.722013 
L 420.698853 79.229617 
L 430.691818 79.092507 
L 430.691818 79.092507 
" style="fill:none;stroke:#ff7f0e;stroke-dasharray:1.5,2.475;stroke-dashoffset:0;stroke-width:1.5;"/>
   </g>
   <g id="patch_3">
    <path d="M 78.14 96.52 
L 78.14 25.44 
" style="fill:none;stroke:#000000;stroke-linecap:square;stroke-linejoin:miter;stroke-width:0.8;"/>
   </g>
   <g id="patch_4">
    <path d="M 447.48 96.52 
L 447.48 25.44 
" style="fill:none;stroke:#000000;stroke-linecap:square;stroke-linejoin:miter;stroke-width:0.8;"/>
   </g>
   <g id="patch_5">
    <path d="M 78.14 96.52 
L 447.48 96.52 
" style="fill:none;stroke:#000000;stroke-linecap:square;stroke-linejoin:miter;stroke-width:0.8;"/>
   </g>
   <g id="patch_6">
    <path d="M 78.14 25.44 
L 447.48 25.44 
" style="fill:none;stroke:#000000;stroke-linecap:square;stroke-linejoin:miter;stroke-width:0.8;"/>
   </g>
   <g id="text_4">
    <!-- Old street -->
    <defs>
     <path d="M 39.40625 66.21875 
Q 28.65625 66.21875 22.328125 58.203125 
Q 16.015625 50.203125 16.015625 36.375 
Q 16.015625 22.609375 22.328125 14.59375 
Q 28.65625 6.59375 39.40625 6.59375 
Q 50.140625 6.59375 56.421875 14.59375 
Q 62.703125 22.609375 62.703125 36.375 
Q 62.703125 50.203125 56.421875 58.203125 
Q 50.140625 66.21875 39.40625 66.21875 
z
M 39.40625 74.21875 
Q 54.734375 74.21875 63.90625 63.9375 
Q 73.09375 53.65625 73.09375 36.375 
Q 73.09375 19.140625 63.90625 8.859375 
Q 54.734375 -1.421875 39.40625 -1.421875 
Q 24.03125 -1.421875 14.8125 8.828125 
Q 5.609375 19.09375 5.609375 36.375 
Q 5.609375 53.65625 14.8125 63.9375 
Q 24.03125 74.21875 39.40625 74.21875 
z
" id="DejaVuSans-4f"/>
     <path d="M 9.421875 75.984375 
L 18.40625 75.984375 
L 18.40625 0 
L 9.421875 0 
z
" id="DejaVuSans-6c"/>
     <path d="M 45.40625 46.390625 
L 45.40625 75.984375 
L 54.390625 75.984375 
L 54.390625 0 
L 45.40625 0 
L 45.40625 8.203125 
Q 42.578125 3.328125 38.25 0.953125 
Q 33.9375 -1.421875 27.875 -1.421875 
Q 17.96875 -1.421875 11.734375 6.484375 
Q 5.515625 14.40625 5.515625 27.296875 
Q 5.515625 40.1875 11.734375 48.09375 
Q 17.96875 56 27.875 56 
Q 33.9375 56 38.25 53.625 
Q 42.578125 51.265625 45.40625 46.390625 
z
M 14.796875 27.296875 
Q 14.796875 17.390625 18.875 11.75 
Q 22.953125 6.109375 30.078125 6.109375 
Q 37.203125 6.109375 41.296875 11.75 
Q 45.40625 17.390625 45.40625 27.296875 
Q 45.40625 37.203125 41.296875 42.84375 
Q 37.203125 48.484375 30.078125 48.484375 
Q 22.953125 48.484375 18.875 42.84375 
Q 14.796875 37.203125 14.796875 27.296875 
z
" id="DejaVuSans-64"/>
     <path d="M 44.28125 53.078125 
L 44.28125 44.578125 
Q 40.484375 46.53125 36.375 47.5 
Q 32.28125 48.484375 27.875 48.484375 
Q 21.1875 48.484375 17.84375 46.4375 
Q 14.5 44.390625 14.5 40.28125 
Q 14.5 37.15625 16.890625 35.375 
Q 19.28125 33.59375 26.515625 31.984375 
L 29.59375 31.296875 
Q 39.15625 29.25 43.1875 25.515625 
Q 47.21875 21.78125 47.21875 15.09375 
Q 47.21875 7.46875 41.1875 3.015625 
Q 35.15625 -1.421875 24.609375 -1.421875 
Q 20.21875 -1.421875 15.453125 -0.5625 
Q 10.6875 0.296875 5.421875 2 
L 5.421875 11.28125 
Q 10.40625 8.6875 15.234375 7.390625 
Q 20.0625 6.109375 24.8125 6.109375 
Q 31.15625 6.109375 34.5625 8.28125 
Q 37.984375 10.453125 37.984375 14.40625 
Q 37.984375 18.0625 35.515625 20.015625 
Q 33.0625 21.96875 24.703125 23.78125 
L 21.578125 24.515625 
Q 13.234375 26.265625 9.515625 29.90625 
Q 5.8125 33.546875 5.8125 39.890625 
Q 5.8125 47.609375 11.28125 51.796875 
Q 16.75 56 26.8125 56 
Q 31.78125 56 36.171875 55.265625 
Q 40.578125 54.546875 44.28125 53.078125 
z
" id="DejaVuSans-73"/>
     <path d="M 41.109375 46.296875 
Q 39.59375 47.171875 37.8125 47.578125 
Q 36.03125 48 33.890625 48 
Q 26.265625 48 22.1875 43.046875 
Q 18.109375 38.09375 18.109375 28.8125 
L 18.109375 0 
L 9.078125 0 
L 9.078125 54.6875 
L 18.109375 54.6875 
L 18.109375 46.1875 
Q 20.953125 51.171875 25.484375 53.578125 
Q 30.03125 56 36.53125 56 
Q 37.453125 56 38.578125 55.875 
Q 39.703125 55.765625 41.0625 55.515625 
z
" id="DejaVuSans-72"/>
    </defs>
    <g transform="translate(233.025625 19.44)scale(0.12 -0.12)">
     <use xlink:href="#DejaVuSans-4f"/>
     <use x="78.710938" xlink:href="#DejaVuSans-6c"/>
     <use x="106.494141" xlink:href="#DejaVuSans-64"/>
     <use x="169.970703" xlink:href="#DejaVuSans-20"/>
     <use x="201.757812" xlink:href="#DejaVuSans-73"/>
     <use x="253.857422" xlink:href="#DejaVuSans-74"/>
     <use x="293.066406" xlink:href="#DejaVuSans-72"/>
     <use x="334.148438" xlink:href="#DejaVuSans-65"/>
     <use x="395.671875" xlink:href="#DejaVuSans-65"/>
     <use x="457.195312" xlink:href="#DejaVuSans-74"/>
    </g>
   </g>
   <g id="legend_1">
    <g id="patch_7">
     <path d="M 316.96125 62.79625 
L 440.48 62.79625 
Q 442.48 62.79625 442.48 60.79625 
L 442.48 32.44 
Q 442.48 30.44 440.48 30.44 
L 316.96125 30.44 
Q 314.96125 30.44 314.96125 32.44 
L 314.96125 60.79625 
Q 314.96125 62.79625 316.96125 62.79625 
z
" style="fill:#ffffff;opacity:0.8;stroke:#cccccc;stroke-linejoin:miter;"/>
    </g>
    <g id="line2d_13">
     <path d="M 318.96125 38.538437 
L 338.96125 38.538437 
" style="fill:none;stroke:#1f77b4;stroke-linecap:square;stroke-width:1.5;"/>
    </g>
    <g id="line2d_14"/>
    <g id="text_5">
     <!-- Ideal network -->
     <defs>
      <path d="M 9.8125 72.90625 
L 19.671875 72.90625 
L 19.671875 0 
L 9.8125 0 
z
" id="DejaVuSans-49"/>
      <path d="M 54.890625 33.015625 
L 54.890625 0 
L 45.90625 0 
L 45.90625 32.71875 
Q 45.90625 40.484375 42.875 44.328125 
Q 39.84375 48.1875 33.796875 48.1875 
Q 26.515625 48.1875 22.3125 43.546875 
Q 18.109375 38.921875 18.109375 30.90625 
L 18.109375 0 
L 9.078125 0 
L 9.078125 54.6875 
L 18.109375 54.6875 
L 18.109375 46.1875 
Q 21.34375 51.125 25.703125 53.5625 
Q 30.078125 56 35.796875 56 
Q 45.21875 56 50.046875 50.171875 
Q 54.890625 44.34375 54.890625 33.015625 
z
" id="DejaVuSans-6e"/>
      <path d="M 4.203125 54.6875 
L 13.1875 54.6875 
L 24.421875 12.015625 
L 35.59375 54.6875 
L 46.1875 54.6875 
L 57.421875 12.015625 
L 68.609375 54.6875 
L 77.59375 54.6875 
L 63.28125 0 
L 52.6875 0 
L 40.921875 44.828125 
L 29.109375 0 
L 18.5 0 
z
" id="DejaVuSans-77"/>
      <path d="M 30.609375 48.390625 
Q 23.390625 48.390625 19.1875 42.75 
Q 14.984375 37.109375 14.984375 27.296875 
Q 14.984375 17.484375 19.15625 11.84375 
Q 23.34375 6.203125 30.609375 6.203125 
Q 37.796875 6.203125 41.984375 11.859375 
Q 46.1875 17.53125 46.1875 27.296875 
Q 46.1875 37.015625 41.984375 42.703125 
Q 37.796875 48.390625 30.609375 48.390625 
z
M 30.609375 56 
Q 42.328125 56 49.015625 48.375 
Q 55.71875 40.765625 55.71875 27.296875 
Q 55.71875 13.875 49.015625 6.21875 
Q 42.328125 -1.421875 30.609375 -1.421875 
Q 18.84375 -1.421875 12.171875 6.21875 
Q 5.515625 13.875 5.515625 27.296875 
Q 5.515625 40.765625 12.171875 48.375 
Q 18.84375 56 30.609375 56 
z
" id="DejaVuSans-6f"/>
      <path d="M 9.078125 75.984375 
L 18.109375 75.984375 
L 18.109375 31.109375 
L 44.921875 54.6875 
L 56.390625 54.6875 
L 27.390625 29.109375 
L 57.625 0 
L 45.90625 0 
L 18.109375 26.703125 
L 18.109375 0 
L 9.078125 0 
z
" id="DejaVuSans-6b"/>
     </defs>
     <g transform="translate(346.96125 42.038437)scale(0.1 -0.1)">
      <use xlink:href="#DejaVuSans-49"/>
      <use x="29.492188" xlink:href="#DejaVuSans-64"/>
      <use x="92.96875" xlink:href="#DejaVuSans-65"/>
      <use x="154.492188" xlink:href="#DejaVuSans-61"/>
      <use x="215.771484" xlink:href="#DejaVuSans-6c"/>
      <use x="243.554688" xlink:href="#DejaVuSans-20"/>
      <use x="275.341797" xlink:href="#DejaVuSans-6e"/>
      <use x="338.720703" xlink:href="#DejaVuSans-65"/>
      <use x="400.244141" xlink:href="#DejaVuSans-74"/>
      <use x="439.453125" xlink:href="#DejaVuSans-77"/>
      <use x="521.240234" xlink:href="#DejaVuSans-6f"/>
      <use x="582.421875" xlink:href="#DejaVuSans-72"/>
      <use x="623.535156" xlink:href="#DejaVuSans-6b"/>
     </g>
    </g>
    <g id="line2d_15">
     <path d="M 318.96125 53.216562 
L 338.96125 53.216562 
" style="fill:none;stroke:#ff7f0e;stroke-dasharray:1.5,2.475;stroke-dashoffset:0;stroke-width:1.5;"/>
    </g>
    <g id="line2d_16"/>
    <g id="text_6">
     <!-- Non-ideal network -->
     <defs>
      <path d="M 9.8125 72.90625 
L 23.09375 72.90625 
L 55.421875 11.921875 
L 55.421875 72.90625 
L 64.984375 72.90625 
L 64.984375 0 
L 51.703125 0 
L 19.390625 60.984375 
L 19.390625 0 
L 9.8125 0 
z
" id="DejaVuSans-4e"/>
      <path d="M 4.890625 31.390625 
L 31.203125 31.390625 
L 31.203125 23.390625 
L 4.890625 23.390625 
z
" id="DejaVuSans-2d"/>
      <path d="M 9.421875 54.6875 
L 18.40625 54.6875 
L 18.40625 0 
L 9.421875 0 
z
M 9.421875 75.984375 
L 18.40625 75.984375 
L 18.40625 64.59375 
L 9.421875 64.59375 
z
" id="DejaVuSans-69"/>
     </defs>
     <g transform="translate(346.96125 56.716562)scale(0.1 -0.1)">
      <use xlink:href="#DejaVuSans-4e"/>
      <use x="74.804688" xlink:href="#DejaVuSans-6f"/>
      <use x="135.986328" xlink:href="#DejaVuSans-6e"/>
      <use x="199.365234" xlink:href="#DejaVuSans-2d"/>
      <use x="235.449219" xlink:href="#DejaVuSans-69"/>
      <use x="263.232422" xlink:href="#DejaVuSans-64"/>
      <use x="326.708984" xlink:href="#DejaVuSans-65"/>
      <use x="388.232422" xlink:href="#DejaVuSans-61"/>
      <use x="449.511719" xlink:href="#DejaVuSans-6c"/>
      <use x="477.294922" xlink:href="#DejaVuSans-20"/>
      <use x="509.082031" xlink:href="#DejaVuSans-6e"/>
      <use x="572.460938" xlink:href="#DejaVuSans-65"/>
      <use x="633.984375" xlink:href="#DejaVuSans-74"/>
      <use x="673.193359" xlink:href="#DejaVuSans-77"/>
      <use x="754.980469" xlink:href="#DejaVuSans-6f"/>
      <use x="816.162109" xlink:href="#DejaVuSans-72"/>
      <use x="857.275391" xlink:href="#DejaVuSans-6b"/>
     </g>
    </g>
   </g>
  </g>
  <g id="axes_2">
   <g id="patch_8">
    <path d="M 78.14 207.12 
L 447.48 207.12 
L 447.48 136.04 
L 78.14 136.04 
z
" style="fill:#ffffff;"/>
   </g>
   <g id="matplotlib.axis_3">
    <g id="xtick_9">
     <g id="line2d_17">
      <g>
       <use style="stroke:#000000;stroke-width:0.8;" x="94.928182" xlink:href="#md987fe513b" y="207.12"/>
      </g>
     </g>
    </g>
    <g id="xtick_10">
     <g id="line2d_18">
      <g>
       <use style="stroke:#000000;stroke-width:0.8;" x="142.894416" xlink:href="#md987fe513b" y="207.12"/>
      </g>
     </g>
    </g>
    <g id="xtick_11">
     <g id="line2d_19">
      <g>
       <use style="stroke:#000000;stroke-width:0.8;" x="190.860649" xlink:href="#md987fe513b" y="207.12"/>
      </g>
     </g>
    </g>
    <g id="xtick_12">
     <g id="line2d_20">
      <g>
       <use style="stroke:#000000;stroke-width:0.8;" x="238.826883" xlink:href="#md987fe513b" y="207.12"/>
      </g>
     </g>
    </g>
    <g id="xtick_13">
     <g id="line2d_21">
      <g>
       <use style="stroke:#000000;stroke-width:0.8;" x="286.793117" xlink:href="#md987fe513b" y="207.12"/>
      </g>
     </g>
    </g>
    <g id="xtick_14">
     <g id="line2d_22">
      <g>
       <use style="stroke:#000000;stroke-width:0.8;" x="334.759351" xlink:href="#md987fe513b" y="207.12"/>
      </g>
     </g>
    </g>
    <g id="xtick_15">
     <g id="line2d_23">
      <g>
       <use style="stroke:#000000;stroke-width:0.8;" x="382.725584" xlink:href="#md987fe513b" y="207.12"/>
      </g>
     </g>
    </g>
    <g id="xtick_16">
     <g id="line2d_24">
      <g>
       <use style="stroke:#000000;stroke-width:0.8;" x="430.691818" xlink:href="#md987fe513b" y="207.12"/>
      </g>
     </g>
    </g>
    <g id="text_7">
     <!-- Time -->
     <defs>
      <path d="M -0.296875 72.90625 
L 61.375 72.90625 
L 61.375 64.59375 
L 35.5 64.59375 
L 35.5 0 
L 25.59375 0 
L 25.59375 64.59375 
L -0.296875 64.59375 
z
" id="DejaVuSans-54"/>
      <path d="M 52 44.1875 
Q 55.375 50.25 60.0625 53.125 
Q 64.75 56 71.09375 56 
Q 79.640625 56 84.28125 50.015625 
Q 88.921875 44.046875 88.921875 33.015625 
L 88.921875 0 
L 79.890625 0 
L 79.890625 32.71875 
Q 79.890625 40.578125 77.09375 44.375 
Q 74.3125 48.1875 68.609375 48.1875 
Q 61.625 48.1875 57.5625 43.546875 
Q 53.515625 38.921875 53.515625 30.90625 
L 53.515625 0 
L 44.484375 0 
L 44.484375 32.71875 
Q 44.484375 40.625 41.703125 44.40625 
Q 38.921875 48.1875 33.109375 48.1875 
Q 26.21875 48.1875 22.15625 43.53125 
Q 18.109375 38.875 18.109375 30.90625 
L 18.109375 0 
L 9.078125 0 
L 9.078125 54.6875 
L 18.109375 54.6875 
L 18.109375 46.1875 
Q 21.1875 51.21875 25.484375 53.609375 
Q 29.78125 56 35.6875 56 
Q 41.65625 56 45.828125 52.96875 
Q 50 49.953125 52 44.1875 
z
" id="DejaVuSans-6d"/>
     </defs>
     <g transform="translate(250.4225 218.718437)scale(0.1 -0.1)">
      <use xlink:href="#DejaVuSans-54"/>
      <use x="61.037109" xlink:href="#DejaVuSans-69"/>
      <use x="88.820312" xlink:href="#DejaVuSans-6d"/>
      <use x="186.232422" xlink:href="#DejaVuSans-65"/>
     </g>
    </g>
   </g>
   <g id="matplotlib.axis_4">
    <g id="ytick_3">
     <g id="line2d_25">
      <g>
       <use style="stroke:#000000;stroke-width:0.8;" x="78.14" xlink:href="#mf731668581" y="180.918048"/>
      </g>
     </g>
     <g id="text_8">
      <!-- 0 -->
      <g transform="translate(64.7775 184.717267)scale(0.1 -0.1)">
       <use xlink:href="#DejaVuSans-30"/>
      </g>
     </g>
    </g>
    <g id="ytick_4">
     <g id="line2d_26">
      <g>
       <use style="stroke:#000000;stroke-width:0.8;" x="78.14" xlink:href="#mf731668581" y="143.156948"/>
      </g>
     </g>
     <g id="text_9">
      <!-- 100000 -->
      <g transform="translate(32.965 146.956167)scale(0.1 -0.1)">
       <use xlink:href="#DejaVuSans-31"/>
       <use x="63.623047" xlink:href="#DejaVuSans-30"/>
       <use x="127.246094" xlink:href="#DejaVuSans-30"/>
       <use x="190.869141" xlink:href="#DejaVuSans-30"/>
       <use x="254.492188" xlink:href="#DejaVuSans-30"/>
       <use x="318.115234" xlink:href="#DejaVuSans-30"/>
      </g>
     </g>
    </g>
    <g id="text_10">
     <!-- Heat [W] -->
     <g transform="translate(26.885312 193.875312)rotate(-90)scale(0.1 -0.1)">
      <use xlink:href="#DejaVuSans-48"/>
      <use x="75.195312" xlink:href="#DejaVuSans-65"/>
      <use x="136.71875" xlink:href="#DejaVuSans-61"/>
      <use x="197.998047" xlink:href="#DejaVuSans-74"/>
      <use x="237.207031" xlink:href="#DejaVuSans-20"/>
      <use x="268.994141" xlink:href="#DejaVuSans-5b"/>
      <use x="308.007812" xlink:href="#DejaVuSans-57"/>
      <use x="406.884766" xlink:href="#DejaVuSans-5d"/>
     </g>
    </g>
   </g>
   <g id="line2d_27">
    <path clip-path="url(#pcd4ad192d1)" d="M 94.928182 180.918048 
L 192.859242 180.918048 
L 193.358891 166.132717 
L 193.858539 146.917053 
L 196.35678 146.263184 
L 196.856429 146.380009 
L 197.855725 147.979665 
L 200.353966 151.445612 
L 200.853615 150.42559 
L 203.851504 153.081745 
L 205.850097 154.624764 
L 206.349746 155.00369 
L 206.849394 139.270909 
L 207.349042 144.72703 
L 207.84869 142.41985 
L 210.84658 146.098172 
L 212.845173 148.295239 
L 214.344118 149.67196 
L 216.842359 151.603224 
L 218.840952 152.929279 
L 220.339897 153.649953 
L 223.337787 154.730688 
L 223.837435 172.593197 
L 224.337083 177.048612 
L 225.33638 188.404223 
L 225.836028 186.997138 
L 226.335676 186.756563 
L 226.835325 193.411401 
L 227.334973 191.891071 
L 227.834621 198.429198 
L 228.334269 196.795252 
L 230.832511 194.607937 
L 233.330752 192.696511 
L 233.8304 192.344099 
L 234.330049 188.165772 
L 234.829697 185.565428 
L 235.329345 185.156545 
L 235.828994 183.056121 
L 236.328642 182.704081 
L 236.82829 182.576693 
L 237.327938 180.535412 
L 237.827587 180.241008 
L 238.327235 176.33455 
L 238.826883 199.098897 
L 239.326531 199.122227 
L 239.82618 198.792616 
L 240.325828 189.709991 
L 240.825476 189.448824 
L 246.321607 189.972147 
L 248.3202 190.122276 
L 248.819848 187.946382 
L 249.319497 188.244328 
L 249.819145 186.234247 
L 250.818442 186.548126 
L 251.817738 186.756603 
L 252.317386 185.389472 
L 252.817035 185.693063 
L 253.316683 183.901604 
L 253.816331 185.154286 
L 254.815628 185.335701 
L 255.315276 185.207028 
L 255.814924 180.918048 
L 271.304021 180.918048 
L 271.803669 203.889091 
L 272.303317 202.153862 
L 272.802965 202.102849 
L 273.302614 201.061334 
L 274.801558 199.575972 
L 275.301207 201.751149 
L 275.800855 197.516707 
L 276.300503 198.167352 
L 278.798745 196.119958 
L 281.296986 194.327765 
L 284.294876 192.467758 
L 287.292765 190.878982 
L 287.792413 190.637562 
L 288.292062 184.120466 
L 288.79171 185.460689 
L 290.790303 186.413399 
L 295.287137 187.875662 
L 296.286434 188.151398 
L 296.786082 186.074244 
L 297.285731 186.462372 
L 297.785379 184.407477 
L 298.285027 184.828969 
L 299.783972 185.37476 
L 300.28362 183.346093 
L 300.783268 183.793208 
L 301.282917 181.909258 
L 301.782565 182.234829 
L 302.781861 182.477557 
L 303.28151 182.439615 
L 303.781158 181.107441 
L 304.280806 180.918048 
L 304.780455 181.750036 
L 305.280103 181.898857 
L 305.779751 181.819112 
L 306.279399 180.918048 
L 319.270254 180.918048 
L 319.769903 187.861458 
L 320.269551 186.485494 
L 324.266737 185.492718 
L 328.763571 184.596391 
L 334.259702 183.747602 
L 335.758647 183.554342 
L 336.258295 181.345219 
L 336.757944 182.735743 
L 337.75724 183.331565 
L 338.756537 183.278322 
L 345.251964 182.665225 
L 345.751613 182.384528 
L 346.251261 182.617785 
L 347.750206 182.481529 
L 348.249854 181.487686 
L 348.749502 181.960644 
L 349.24915 181.129321 
L 351.247744 181.109197 
L 351.747392 180.918048 
L 352.24704 180.918048 
L 352.746688 181.212397 
L 354.245633 180.918048 
L 366.237192 180.918048 
L 366.73684 181.263628 
L 367.236488 196.303494 
L 367.736136 200.536356 
L 368.235785 198.060969 
L 368.735433 191.010886 
L 369.235081 180.918048 
L 414.703074 180.893005 
L 415.202722 185.794574 
L 415.70237 180.918048 
L 416.202018 180.087213 
L 416.701667 180.918048 
L 430.691818 180.930337 
L 430.691818 180.930337 
" style="fill:none;stroke:#1f77b4;stroke-linecap:square;stroke-width:1.5;"/>
   </g>
   <g id="line2d_28">
    <path clip-path="url(#pcd4ad192d1)" d="M 94.928182 180.918048 
L 192.859242 180.918048 
L 193.358891 166.132717 
L 193.858539 146.917053 
L 196.35678 146.263184 
L 196.856429 146.380009 
L 197.855725 147.979665 
L 200.353966 151.445612 
L 200.853615 150.42559 
L 203.851504 153.081745 
L 205.850097 154.624764 
L 206.349746 155.00369 
L 206.849394 139.270909 
L 207.349042 144.72703 
L 207.84869 142.457611 
L 210.84658 146.135933 
L 212.845173 148.333 
L 214.344118 149.709721 
L 216.842359 151.640985 
L 218.840952 152.96704 
L 220.339897 153.687714 
L 223.337787 154.768449 
L 223.837435 172.593197 
L 224.337083 177.048612 
L 225.33638 188.404223 
L 225.836028 186.997138 
L 226.335676 186.756563 
L 226.835325 193.411401 
L 227.334973 191.891071 
L 227.834621 198.429198 
L 228.334269 196.795252 
L 230.832511 194.607937 
L 233.330752 192.696511 
L 233.8304 192.344099 
L 234.330049 188.165772 
L 234.829697 185.565428 
L 235.329345 185.156545 
L 235.828994 183.056121 
L 236.328642 182.704081 
L 236.82829 182.576693 
L 237.327938 180.535412 
L 237.827587 180.241008 
L 238.327235 176.33455 
L 238.826883 199.061136 
L 239.326531 199.084466 
L 239.82618 198.792616 
L 240.325828 189.709991 
L 240.825476 189.448824 
L 246.321607 189.972147 
L 248.3202 190.122276 
L 248.819848 187.946382 
L 249.319497 188.244328 
L 249.819145 186.234247 
L 250.818442 186.548126 
L 251.817738 186.756603 
L 252.317386 185.351711 
L 252.817035 185.693063 
L 253.316683 183.863843 
L 253.816331 185.116525 
L 254.815628 185.29794 
L 255.315276 185.207028 
L 255.814924 180.918048 
L 271.304021 180.918048 
L 271.803669 203.85133 
L 272.303317 202.153862 
L 272.802965 202.102849 
L 273.302614 201.061334 
L 274.801558 199.575972 
L 275.301207 201.751149 
L 275.800855 197.516707 
L 276.300503 198.167352 
L 278.798745 196.119958 
L 281.296986 194.327765 
L 284.294876 192.467758 
L 287.292765 190.878982 
L 287.792413 190.637562 
L 288.292062 184.120466 
L 288.79171 185.460689 
L 290.790303 186.413399 
L 295.287137 187.875662 
L 296.286434 188.151398 
L 296.786082 186.074244 
L 297.285731 186.462372 
L 297.785379 184.407477 
L 298.285027 184.828969 
L 299.783972 185.37476 
L 300.28362 183.346093 
L 300.783268 183.793208 
L 301.282917 181.909258 
L 301.782565 182.234829 
L 302.781861 182.477557 
L 303.28151 182.439615 
L 303.781158 181.06968 
L 304.280806 180.918048 
L 304.780455 181.712275 
L 305.280103 181.861096 
L 305.779751 181.819112 
L 306.279399 180.918048 
L 319.270254 180.918048 
L 319.769903 187.861458 
L 320.269551 186.485494 
L 324.266737 185.492718 
L 328.763571 184.596391 
L 334.259702 183.747602 
L 335.758647 183.554342 
L 336.258295 181.345219 
L 336.757944 182.735743 
L 337.75724 183.331565 
L 338.756537 183.278322 
L 345.251964 182.665225 
L 345.751613 182.384528 
L 346.251261 182.617785 
L 347.750206 182.481529 
L 348.249854 181.487686 
L 348.749502 181.960644 
L 349.24915 181.129321 
L 351.247744 181.109197 
L 351.747392 180.918048 
L 352.24704 180.918048 
L 352.746688 181.212397 
L 354.245633 180.918048 
L 366.237192 180.918048 
L 366.73684 181.263628 
L 367.236488 196.303494 
L 367.736136 200.536356 
L 368.235785 198.060969 
L 368.735433 191.010886 
L 369.235081 180.918048 
L 414.703074 180.893005 
L 415.202722 185.794574 
L 415.70237 180.918048 
L 416.202018 180.087213 
L 416.701667 180.918048 
L 430.691818 180.930337 
L 430.691818 180.930337 
" style="fill:none;stroke:#ff7f0e;stroke-dasharray:1.5,2.475;stroke-dashoffset:0;stroke-width:1.5;"/>
   </g>
   <g id="patch_9">
    <path d="M 78.14 207.12 
L 78.14 136.04 
" style="fill:none;stroke:#000000;stroke-linecap:square;stroke-linejoin:miter;stroke-width:0.8;"/>
   </g>
   <g id="patch_10">
    <path d="M 447.48 207.12 
L 447.48 136.04 
" style="fill:none;stroke:#000000;stroke-linecap:square;stroke-linejoin:miter;stroke-width:0.8;"/>
   </g>
   <g id="patch_11">
    <path d="M 78.14 207.12 
L 447.48 207.12 
" style="fill:none;stroke:#000000;stroke-linecap:square;stroke-linejoin:miter;stroke-width:0.8;"/>
   </g>
   <g id="patch_12">
    <path d="M 78.14 136.04 
L 447.48 136.04 
" style="fill:none;stroke:#000000;stroke-linecap:square;stroke-linejoin:miter;stroke-width:0.8;"/>
   </g>
   <g id="text_11">
    <!-- Mixed street -->
    <defs>
     <path d="M 9.8125 72.90625 
L 24.515625 72.90625 
L 43.109375 23.296875 
L 61.8125 72.90625 
L 76.515625 72.90625 
L 76.515625 0 
L 66.890625 0 
L 66.890625 64.015625 
L 48.09375 14.015625 
L 38.1875 14.015625 
L 19.390625 64.015625 
L 19.390625 0 
L 9.8125 0 
z
" id="DejaVuSans-4d"/>
     <path d="M 54.890625 54.6875 
L 35.109375 28.078125 
L 55.90625 0 
L 45.3125 0 
L 29.390625 21.484375 
L 13.484375 0 
L 2.875 0 
L 24.125 28.609375 
L 4.6875 54.6875 
L 15.28125 54.6875 
L 29.78125 35.203125 
L 44.28125 54.6875 
z
" id="DejaVuSans-78"/>
    </defs>
    <g transform="translate(225.331563 130.04)scale(0.12 -0.12)">
     <use xlink:href="#DejaVuSans-4d"/>
     <use x="86.279297" xlink:href="#DejaVuSans-69"/>
     <use x="114.0625" xlink:href="#DejaVuSans-78"/>
     <use x="173.195312" xlink:href="#DejaVuSans-65"/>
     <use x="234.71875" xlink:href="#DejaVuSans-64"/>
     <use x="298.195312" xlink:href="#DejaVuSans-20"/>
     <use x="329.982422" xlink:href="#DejaVuSans-73"/>
     <use x="382.082031" xlink:href="#DejaVuSans-74"/>
     <use x="421.291016" xlink:href="#DejaVuSans-72"/>
     <use x="462.373047" xlink:href="#DejaVuSans-65"/>
     <use x="523.896484" xlink:href="#DejaVuSans-65"/>
     <use x="585.419922" xlink:href="#DejaVuSans-74"/>
    </g>
   </g>
  </g>
  <g id="axes_3">
   <g id="patch_13">
    <path d="M 78.14 317.72 
L 447.48 317.72 
L 447.48 246.64 
L 78.14 246.64 
z
" style="fill:#ffffff;"/>
   </g>
   <g id="matplotlib.axis_5">
    <g id="xtick_17">
     <g id="line2d_29">
      <g>
       <use style="stroke:#000000;stroke-width:0.8;" x="94.928182" xlink:href="#md987fe513b" y="317.72"/>
      </g>
     </g>
     <g id="text_12">
      <!-- Jan 01 -->
      <defs>
       <path d="M 9.8125 72.90625 
L 19.671875 72.90625 
L 19.671875 5.078125 
Q 19.671875 -8.109375 14.671875 -14.0625 
Q 9.671875 -20.015625 -1.421875 -20.015625 
L -5.171875 -20.015625 
L -5.171875 -11.71875 
L -2.09375 -11.71875 
Q 4.4375 -11.71875 7.125 -8.046875 
Q 9.8125 -4.390625 9.8125 5.078125 
z
" id="DejaVuSans-4a"/>
      </defs>
      <g transform="translate(79.268807 332.318437)scale(0.1 -0.1)">
       <use xlink:href="#DejaVuSans-4a"/>
       <use x="29.492188" xlink:href="#DejaVuSans-61"/>
       <use x="90.771484" xlink:href="#DejaVuSans-6e"/>
       <use x="154.150391" xlink:href="#DejaVuSans-20"/>
       <use x="185.9375" xlink:href="#DejaVuSans-30"/>
       <use x="249.560547" xlink:href="#DejaVuSans-31"/>
      </g>
     </g>
    </g>
    <g id="xtick_18">
     <g id="line2d_30">
      <g>
       <use style="stroke:#000000;stroke-width:0.8;" x="142.894416" xlink:href="#md987fe513b" y="317.72"/>
      </g>
     </g>
     <g id="text_13">
      <!-- Jan 02 -->
      <defs>
       <path d="M 19.1875 8.296875 
L 53.609375 8.296875 
L 53.609375 0 
L 7.328125 0 
L 7.328125 8.296875 
Q 12.9375 14.109375 22.625 23.890625 
Q 32.328125 33.6875 34.8125 36.53125 
Q 39.546875 41.84375 41.421875 45.53125 
Q 43.3125 49.21875 43.3125 52.78125 
Q 43.3125 58.59375 39.234375 62.25 
Q 35.15625 65.921875 28.609375 65.921875 
Q 23.96875 65.921875 18.8125 64.3125 
Q 13.671875 62.703125 7.8125 59.421875 
L 7.8125 69.390625 
Q 13.765625 71.78125 18.9375 73 
Q 24.125 74.21875 28.421875 74.21875 
Q 39.75 74.21875 46.484375 68.546875 
Q 53.21875 62.890625 53.21875 53.421875 
Q 53.21875 48.921875 51.53125 44.890625 
Q 49.859375 40.875 45.40625 35.40625 
Q 44.1875 33.984375 37.640625 27.21875 
Q 31.109375 20.453125 19.1875 8.296875 
z
" id="DejaVuSans-32"/>
      </defs>
      <g transform="translate(127.235041 332.318437)scale(0.1 -0.1)">
       <use xlink:href="#DejaVuSans-4a"/>
       <use x="29.492188" xlink:href="#DejaVuSans-61"/>
       <use x="90.771484" xlink:href="#DejaVuSans-6e"/>
       <use x="154.150391" xlink:href="#DejaVuSans-20"/>
       <use x="185.9375" xlink:href="#DejaVuSans-30"/>
       <use x="249.560547" xlink:href="#DejaVuSans-32"/>
      </g>
     </g>
    </g>
    <g id="xtick_19">
     <g id="line2d_31">
      <g>
       <use style="stroke:#000000;stroke-width:0.8;" x="190.860649" xlink:href="#md987fe513b" y="317.72"/>
      </g>
     </g>
     <g id="text_14">
      <!-- Jan 03 -->
      <defs>
       <path d="M 40.578125 39.3125 
Q 47.65625 37.796875 51.625 33 
Q 55.609375 28.21875 55.609375 21.1875 
Q 55.609375 10.40625 48.1875 4.484375 
Q 40.765625 -1.421875 27.09375 -1.421875 
Q 22.515625 -1.421875 17.65625 -0.515625 
Q 12.796875 0.390625 7.625 2.203125 
L 7.625 11.71875 
Q 11.71875 9.328125 16.59375 8.109375 
Q 21.484375 6.890625 26.8125 6.890625 
Q 36.078125 6.890625 40.9375 10.546875 
Q 45.796875 14.203125 45.796875 21.1875 
Q 45.796875 27.640625 41.28125 31.265625 
Q 36.765625 34.90625 28.71875 34.90625 
L 20.21875 34.90625 
L 20.21875 43.015625 
L 29.109375 43.015625 
Q 36.375 43.015625 40.234375 45.921875 
Q 44.09375 48.828125 44.09375 54.296875 
Q 44.09375 59.90625 40.109375 62.90625 
Q 36.140625 65.921875 28.71875 65.921875 
Q 24.65625 65.921875 20.015625 65.03125 
Q 15.375 64.15625 9.8125 62.3125 
L 9.8125 71.09375 
Q 15.4375 72.65625 20.34375 73.4375 
Q 25.25 74.21875 29.59375 74.21875 
Q 40.828125 74.21875 47.359375 69.109375 
Q 53.90625 64.015625 53.90625 55.328125 
Q 53.90625 49.265625 50.4375 45.09375 
Q 46.96875 40.921875 40.578125 39.3125 
z
" id="DejaVuSans-33"/>
      </defs>
      <g transform="translate(175.201274 332.318437)scale(0.1 -0.1)">
       <use xlink:href="#DejaVuSans-4a"/>
       <use x="29.492188" xlink:href="#DejaVuSans-61"/>
       <use x="90.771484" xlink:href="#DejaVuSans-6e"/>
       <use x="154.150391" xlink:href="#DejaVuSans-20"/>
       <use x="185.9375" xlink:href="#DejaVuSans-30"/>
       <use x="249.560547" xlink:href="#DejaVuSans-33"/>
      </g>
     </g>
    </g>
    <g id="xtick_20">
     <g id="line2d_32">
      <g>
       <use style="stroke:#000000;stroke-width:0.8;" x="238.826883" xlink:href="#md987fe513b" y="317.72"/>
      </g>
     </g>
     <g id="text_15">
      <!-- Jan 04 -->
      <defs>
       <path d="M 37.796875 64.3125 
L 12.890625 25.390625 
L 37.796875 25.390625 
z
M 35.203125 72.90625 
L 47.609375 72.90625 
L 47.609375 25.390625 
L 58.015625 25.390625 
L 58.015625 17.1875 
L 47.609375 17.1875 
L 47.609375 0 
L 37.796875 0 
L 37.796875 17.1875 
L 4.890625 17.1875 
L 4.890625 26.703125 
z
" id="DejaVuSans-34"/>
      </defs>
      <g transform="translate(223.167508 332.318437)scale(0.1 -0.1)">
       <use xlink:href="#DejaVuSans-4a"/>
       <use x="29.492188" xlink:href="#DejaVuSans-61"/>
       <use x="90.771484" xlink:href="#DejaVuSans-6e"/>
       <use x="154.150391" xlink:href="#DejaVuSans-20"/>
       <use x="185.9375" xlink:href="#DejaVuSans-30"/>
       <use x="249.560547" xlink:href="#DejaVuSans-34"/>
      </g>
     </g>
    </g>
    <g id="xtick_21">
     <g id="line2d_33">
      <g>
       <use style="stroke:#000000;stroke-width:0.8;" x="286.793117" xlink:href="#md987fe513b" y="317.72"/>
      </g>
     </g>
     <g id="text_16">
      <!-- Jan 05 -->
      <defs>
       <path d="M 10.796875 72.90625 
L 49.515625 72.90625 
L 49.515625 64.59375 
L 19.828125 64.59375 
L 19.828125 46.734375 
Q 21.96875 47.46875 24.109375 47.828125 
Q 26.265625 48.1875 28.421875 48.1875 
Q 40.625 48.1875 47.75 41.5 
Q 54.890625 34.8125 54.890625 23.390625 
Q 54.890625 11.625 47.5625 5.09375 
Q 40.234375 -1.421875 26.90625 -1.421875 
Q 22.3125 -1.421875 17.546875 -0.640625 
Q 12.796875 0.140625 7.71875 1.703125 
L 7.71875 11.625 
Q 12.109375 9.234375 16.796875 8.0625 
Q 21.484375 6.890625 26.703125 6.890625 
Q 35.15625 6.890625 40.078125 11.328125 
Q 45.015625 15.765625 45.015625 23.390625 
Q 45.015625 31 40.078125 35.4375 
Q 35.15625 39.890625 26.703125 39.890625 
Q 22.75 39.890625 18.8125 39.015625 
Q 14.890625 38.140625 10.796875 36.28125 
z
" id="DejaVuSans-35"/>
      </defs>
      <g transform="translate(271.133742 332.318437)scale(0.1 -0.1)">
       <use xlink:href="#DejaVuSans-4a"/>
       <use x="29.492188" xlink:href="#DejaVuSans-61"/>
       <use x="90.771484" xlink:href="#DejaVuSans-6e"/>
       <use x="154.150391" xlink:href="#DejaVuSans-20"/>
       <use x="185.9375" xlink:href="#DejaVuSans-30"/>
       <use x="249.560547" xlink:href="#DejaVuSans-35"/>
      </g>
     </g>
    </g>
    <g id="xtick_22">
     <g id="line2d_34">
      <g>
       <use style="stroke:#000000;stroke-width:0.8;" x="334.759351" xlink:href="#md987fe513b" y="317.72"/>
      </g>
     </g>
     <g id="text_17">
      <!-- Jan 06 -->
      <defs>
       <path d="M 33.015625 40.375 
Q 26.375 40.375 22.484375 35.828125 
Q 18.609375 31.296875 18.609375 23.390625 
Q 18.609375 15.53125 22.484375 10.953125 
Q 26.375 6.390625 33.015625 6.390625 
Q 39.65625 6.390625 43.53125 10.953125 
Q 47.40625 15.53125 47.40625 23.390625 
Q 47.40625 31.296875 43.53125 35.828125 
Q 39.65625 40.375 33.015625 40.375 
z
M 52.59375 71.296875 
L 52.59375 62.3125 
Q 48.875 64.0625 45.09375 64.984375 
Q 41.3125 65.921875 37.59375 65.921875 
Q 27.828125 65.921875 22.671875 59.328125 
Q 17.53125 52.734375 16.796875 39.40625 
Q 19.671875 43.65625 24.015625 45.921875 
Q 28.375 48.1875 33.59375 48.1875 
Q 44.578125 48.1875 50.953125 41.515625 
Q 57.328125 34.859375 57.328125 23.390625 
Q 57.328125 12.15625 50.6875 5.359375 
Q 44.046875 -1.421875 33.015625 -1.421875 
Q 20.359375 -1.421875 13.671875 8.265625 
Q 6.984375 17.96875 6.984375 36.375 
Q 6.984375 53.65625 15.1875 63.9375 
Q 23.390625 74.21875 37.203125 74.21875 
Q 40.921875 74.21875 44.703125 73.484375 
Q 48.484375 72.75 52.59375 71.296875 
z
" id="DejaVuSans-36"/>
      </defs>
      <g transform="translate(319.099976 332.318437)scale(0.1 -0.1)">
       <use xlink:href="#DejaVuSans-4a"/>
       <use x="29.492188" xlink:href="#DejaVuSans-61"/>
       <use x="90.771484" xlink:href="#DejaVuSans-6e"/>
       <use x="154.150391" xlink:href="#DejaVuSans-20"/>
       <use x="185.9375" xlink:href="#DejaVuSans-30"/>
       <use x="249.560547" xlink:href="#DejaVuSans-36"/>
      </g>
     </g>
    </g>
    <g id="xtick_23">
     <g id="line2d_35">
      <g>
       <use style="stroke:#000000;stroke-width:0.8;" x="382.725584" xlink:href="#md987fe513b" y="317.72"/>
      </g>
     </g>
     <g id="text_18">
      <!-- Jan 07 -->
      <defs>
       <path d="M 8.203125 72.90625 
L 55.078125 72.90625 
L 55.078125 68.703125 
L 28.609375 0 
L 18.3125 0 
L 43.21875 64.59375 
L 8.203125 64.59375 
z
" id="DejaVuSans-37"/>
      </defs>
      <g transform="translate(367.066209 332.318437)scale(0.1 -0.1)">
       <use xlink:href="#DejaVuSans-4a"/>
       <use x="29.492188" xlink:href="#DejaVuSans-61"/>
       <use x="90.771484" xlink:href="#DejaVuSans-6e"/>
       <use x="154.150391" xlink:href="#DejaVuSans-20"/>
       <use x="185.9375" xlink:href="#DejaVuSans-30"/>
       <use x="249.560547" xlink:href="#DejaVuSans-37"/>
      </g>
     </g>
    </g>
    <g id="xtick_24">
     <g id="line2d_36">
      <g>
       <use style="stroke:#000000;stroke-width:0.8;" x="430.691818" xlink:href="#md987fe513b" y="317.72"/>
      </g>
     </g>
     <g id="text_19">
      <!-- Jan 08 -->
      <defs>
       <path d="M 31.78125 34.625 
Q 24.75 34.625 20.71875 30.859375 
Q 16.703125 27.09375 16.703125 20.515625 
Q 16.703125 13.921875 20.71875 10.15625 
Q 24.75 6.390625 31.78125 6.390625 
Q 38.8125 6.390625 42.859375 10.171875 
Q 46.921875 13.96875 46.921875 20.515625 
Q 46.921875 27.09375 42.890625 30.859375 
Q 38.875 34.625 31.78125 34.625 
z
M 21.921875 38.8125 
Q 15.578125 40.375 12.03125 44.71875 
Q 8.5 49.078125 8.5 55.328125 
Q 8.5 64.0625 14.71875 69.140625 
Q 20.953125 74.21875 31.78125 74.21875 
Q 42.671875 74.21875 48.875 69.140625 
Q 55.078125 64.0625 55.078125 55.328125 
Q 55.078125 49.078125 51.53125 44.71875 
Q 48 40.375 41.703125 38.8125 
Q 48.828125 37.15625 52.796875 32.3125 
Q 56.78125 27.484375 56.78125 20.515625 
Q 56.78125 9.90625 50.3125 4.234375 
Q 43.84375 -1.421875 31.78125 -1.421875 
Q 19.734375 -1.421875 13.25 4.234375 
Q 6.78125 9.90625 6.78125 20.515625 
Q 6.78125 27.484375 10.78125 32.3125 
Q 14.796875 37.15625 21.921875 38.8125 
z
M 18.3125 54.390625 
Q 18.3125 48.734375 21.84375 45.5625 
Q 25.390625 42.390625 31.78125 42.390625 
Q 38.140625 42.390625 41.71875 45.5625 
Q 45.3125 48.734375 45.3125 54.390625 
Q 45.3125 60.0625 41.71875 63.234375 
Q 38.140625 66.40625 31.78125 66.40625 
Q 25.390625 66.40625 21.84375 63.234375 
Q 18.3125 60.0625 18.3125 54.390625 
z
" id="DejaVuSans-38"/>
      </defs>
      <g transform="translate(415.032443 332.318437)scale(0.1 -0.1)">
       <use xlink:href="#DejaVuSans-4a"/>
       <use x="29.492188" xlink:href="#DejaVuSans-61"/>
       <use x="90.771484" xlink:href="#DejaVuSans-6e"/>
       <use x="154.150391" xlink:href="#DejaVuSans-20"/>
       <use x="185.9375" xlink:href="#DejaVuSans-30"/>
       <use x="249.560547" xlink:href="#DejaVuSans-38"/>
      </g>
     </g>
    </g>
   </g>
   <g id="matplotlib.axis_6">
    <g id="ytick_5">
     <g id="line2d_37">
      <g>
       <use style="stroke:#000000;stroke-width:0.8;" x="78.14" xlink:href="#mf731668581" y="309.104242"/>
      </g>
     </g>
     <g id="text_20">
      <!-- 100000 -->
      <defs>
       <path d="M 10.59375 35.5 
L 73.1875 35.5 
L 73.1875 27.203125 
L 10.59375 27.203125 
z
" id="DejaVuSans-2212"/>
      </defs>
      <g transform="translate(24.585313 312.903461)scale(0.1 -0.1)">
       <use xlink:href="#DejaVuSans-2212"/>
       <use x="83.789062" xlink:href="#DejaVuSans-31"/>
       <use x="147.412109" xlink:href="#DejaVuSans-30"/>
       <use x="211.035156" xlink:href="#DejaVuSans-30"/>
       <use x="274.658203" xlink:href="#DejaVuSans-30"/>
       <use x="338.28125" xlink:href="#DejaVuSans-30"/>
       <use x="401.904297" xlink:href="#DejaVuSans-30"/>
      </g>
     </g>
    </g>
    <g id="ytick_6">
     <g id="line2d_38">
      <g>
       <use style="stroke:#000000;stroke-width:0.8;" x="78.14" xlink:href="#mf731668581" y="282.18"/>
      </g>
     </g>
     <g id="text_21">
      <!-- 0 -->
      <g transform="translate(64.7775 285.979219)scale(0.1 -0.1)">
       <use xlink:href="#DejaVuSans-30"/>
      </g>
     </g>
    </g>
    <g id="ytick_7">
     <g id="line2d_39">
      <g>
       <use style="stroke:#000000;stroke-width:0.8;" x="78.14" xlink:href="#mf731668581" y="255.255758"/>
      </g>
     </g>
     <g id="text_22">
      <!-- 100000 -->
      <g transform="translate(32.965 259.054976)scale(0.1 -0.1)">
       <use xlink:href="#DejaVuSans-31"/>
       <use x="63.623047" xlink:href="#DejaVuSans-30"/>
       <use x="127.246094" xlink:href="#DejaVuSans-30"/>
       <use x="190.869141" xlink:href="#DejaVuSans-30"/>
       <use x="254.492188" xlink:href="#DejaVuSans-30"/>
       <use x="318.115234" xlink:href="#DejaVuSans-30"/>
      </g>
     </g>
    </g>
    <g id="text_23">
     <!-- Heat [W] -->
     <g transform="translate(18.505625 304.475312)rotate(-90)scale(0.1 -0.1)">
      <use xlink:href="#DejaVuSans-48"/>
      <use x="75.195312" xlink:href="#DejaVuSans-65"/>
      <use x="136.71875" xlink:href="#DejaVuSans-61"/>
      <use x="197.998047" xlink:href="#DejaVuSans-74"/>
      <use x="237.207031" xlink:href="#DejaVuSans-20"/>
      <use x="268.994141" xlink:href="#DejaVuSans-5b"/>
      <use x="308.007812" xlink:href="#DejaVuSans-57"/>
      <use x="406.884766" xlink:href="#DejaVuSans-5d"/>
     </g>
    </g>
   </g>
   <g id="line2d_40">
    <path clip-path="url(#pd050025186)" d="M 94.928182 282.18 
L 175.371553 282.18 
L 175.871201 294.775476 
L 176.870498 281.8099 
L 177.370146 281.447737 
L 177.869794 268.915164 
L 178.369443 274.731141 
L 178.869091 282.18 
L 179.368739 282.18 
L 179.868387 282.683271 
L 180.368036 282.18 
L 181.866981 282.164221 
L 189.861353 282.223381 
L 190.361001 282.047257 
L 190.860649 282.055377 
L 191.360298 282.215852 
L 191.859946 282.23699 
L 192.359594 282.076729 
L 196.856429 282.175514 
L 197.855725 282.269771 
L 199.35467 282.263674 
L 199.854318 275.926967 
L 200.353966 259.504369 
L 200.853615 253.85661 
L 201.353263 253.623168 
L 201.852911 249.870909 
L 203.851504 249.870909 
L 204.351153 250.594715 
L 204.850801 249.870909 
L 214.344118 249.870909 
L 217.342008 253.990887 
L 218.840952 255.688162 
L 220.339897 257.000185 
L 222.33849 258.306655 
L 222.838139 258.637415 
L 223.837435 291.591625 
L 225.836028 292.637018 
L 227.334973 293.309903 
L 227.834621 285.059811 
L 228.334269 293.709406 
L 228.833918 293.4854 
L 231.831807 291.411964 
L 233.8304 290.19515 
L 235.329345 284.73632 
L 235.828994 284.625709 
L 236.328642 282.861059 
L 236.82829 279.576215 
L 237.327938 278.024954 
L 237.827587 278.072229 
L 238.327235 275.024869 
L 238.826883 293.387089 
L 239.82618 293.503766 
L 240.325828 293.243057 
L 243.323718 290.92539 
L 246.321607 290.561777 
L 248.3202 290.424777 
L 248.819848 286.693228 
L 249.319497 286.466047 
L 249.819145 282.18 
L 268.805779 282.18 
L 269.305427 305.506845 
L 269.805076 314.489091 
L 274.30191 314.489091 
L 274.801558 309.451142 
L 275.800855 291.688498 
L 276.300503 290.694029 
L 278.798745 289.608659 
L 282.296282 288.296636 
L 285.79382 287.193746 
L 286.293469 283.493832 
L 287.792413 284.467781 
L 288.292062 282.585964 
L 288.79171 282.590685 
L 289.291358 282.796272 
L 290.790303 283.779754 
L 293.788193 285.229079 
L 295.786786 286.003175 
L 296.286434 285.89208 
L 296.786082 282.750542 
L 297.285731 282.953902 
L 297.785379 282.18 
L 318.770606 282.18 
L 319.270254 302.920965 
L 319.769903 312.463773 
L 320.269551 294.522014 
L 320.769199 293.800806 
L 321.768496 295.085224 
L 322.268144 289.89508 
L 322.767792 282.18 
L 323.26744 282.18 
L 323.767089 282.578704 
L 324.266737 282.18 
L 326.26533 282.205076 
L 335.258999 282.309504 
L 335.758647 282.310796 
L 336.258295 282.070668 
L 337.257592 282.081857 
L 338.256889 282.33657 
L 344.252668 282.320783 
L 344.752316 282.136311 
L 362.739654 282.18 
L 363.239302 287.373302 
L 363.73895 283.622313 
L 364.238598 282.18 
L 410.705887 282.18 
L 411.205536 282.776617 
L 411.705184 282.198505 
L 412.704481 282.18 
L 430.691818 282.181146 
L 430.691818 282.181146 
" style="fill:none;stroke:#1f77b4;stroke-linecap:square;stroke-width:1.5;"/>
   </g>
   <g id="line2d_41">
    <path clip-path="url(#pd050025186)" d="M 94.928182 282.18 
L 175.371553 282.18 
L 175.871201 294.748551 
L 176.870498 281.8099 
L 177.370146 281.447737 
L 177.869794 268.915164 
L 178.369443 274.731141 
L 178.869091 282.18 
L 179.368739 282.18 
L 179.868387 282.683271 
L 180.368036 282.18 
L 181.866981 282.164221 
L 189.861353 282.223381 
L 190.361001 282.047257 
L 190.860649 282.055377 
L 191.360298 282.215852 
L 191.859946 282.23699 
L 192.359594 282.076729 
L 196.856429 282.175514 
L 197.855725 282.269771 
L 199.35467 282.263674 
L 199.854318 275.926967 
L 200.353966 259.504369 
L 200.853615 253.85661 
L 201.353263 253.623168 
L 201.852911 249.897833 
L 203.851504 249.897833 
L 204.351153 250.621639 
L 204.850801 249.897833 
L 214.344118 249.897833 
L 217.342008 254.017811 
L 218.840952 255.715087 
L 220.339897 257.02711 
L 222.33849 258.333579 
L 222.838139 258.664339 
L 223.837435 291.591625 
L 225.836028 292.637018 
L 227.334973 293.309903 
L 227.834621 285.059811 
L 228.334269 293.709406 
L 228.833918 293.4854 
L 231.831807 291.411964 
L 233.8304 290.19515 
L 235.329345 284.73632 
L 235.828994 284.625709 
L 236.328642 282.861059 
L 236.82829 279.576215 
L 237.327938 278.024954 
L 237.827587 278.072229 
L 238.327235 275.024869 
L 238.826883 293.360165 
L 239.82618 293.476841 
L 240.325828 293.243057 
L 243.323718 290.92539 
L 246.321607 290.561777 
L 248.3202 290.424777 
L 248.819848 286.666304 
L 249.319497 286.439123 
L 249.819145 282.18 
L 268.805779 282.18 
L 269.305427 305.479921 
L 269.805076 314.462167 
L 274.30191 314.462167 
L 274.801558 309.451142 
L 275.800855 291.688498 
L 276.300503 290.694029 
L 278.798745 289.608659 
L 282.296282 288.296636 
L 285.79382 287.193746 
L 286.293469 283.493832 
L 287.792413 284.467781 
L 288.292062 282.585964 
L 288.79171 282.590685 
L 289.291358 282.796272 
L 290.790303 283.779754 
L 293.788193 285.229079 
L 295.786786 286.003175 
L 296.286434 285.89208 
L 296.786082 282.750542 
L 297.285731 282.953902 
L 297.785379 282.18 
L 318.770606 282.18 
L 319.270254 302.89404 
L 319.769903 312.463773 
L 320.269551 294.522014 
L 320.769199 293.800806 
L 321.768496 295.085224 
L 322.268144 289.89508 
L 322.767792 282.18 
L 323.26744 282.18 
L 323.767089 282.578704 
L 324.266737 282.18 
L 326.26533 282.205076 
L 335.258999 282.309504 
L 335.758647 282.310796 
L 336.258295 282.070668 
L 337.257592 282.081857 
L 338.256889 282.33657 
L 344.252668 282.320783 
L 344.752316 282.136311 
L 362.739654 282.18 
L 363.239302 287.346378 
L 363.73895 283.622313 
L 364.238598 282.18 
L 410.705887 282.18 
L 411.205536 282.776617 
L 411.705184 282.198505 
L 412.704481 282.18 
L 430.691818 282.181146 
L 430.691818 282.181146 
" style="fill:none;stroke:#ff7f0e;stroke-dasharray:1.5,2.475;stroke-dashoffset:0;stroke-width:1.5;"/>
   </g>
   <g id="patch_14">
    <path d="M 78.14 317.72 
L 78.14 246.64 
" style="fill:none;stroke:#000000;stroke-linecap:square;stroke-linejoin:miter;stroke-width:0.8;"/>
   </g>
   <g id="patch_15">
    <path d="M 447.48 317.72 
L 447.48 246.64 
" style="fill:none;stroke:#000000;stroke-linecap:square;stroke-linejoin:miter;stroke-width:0.8;"/>
   </g>
   <g id="patch_16">
    <path d="M 78.14 317.72 
L 447.48 317.72 
" style="fill:none;stroke:#000000;stroke-linecap:square;stroke-linejoin:miter;stroke-width:0.8;"/>
   </g>
   <g id="patch_17">
    <path d="M 78.14 246.64 
L 447.48 246.64 
" style="fill:none;stroke:#000000;stroke-linecap:square;stroke-linejoin:miter;stroke-width:0.8;"/>
   </g>
   <g id="text_24">
    <!-- New street -->
    <g transform="translate(230.137188 240.64)scale(0.12 -0.12)">
     <use xlink:href="#DejaVuSans-4e"/>
     <use x="74.804688" xlink:href="#DejaVuSans-65"/>
     <use x="136.328125" xlink:href="#DejaVuSans-77"/>
     <use x="218.115234" xlink:href="#DejaVuSans-20"/>
     <use x="249.902344" xlink:href="#DejaVuSans-73"/>
     <use x="302.001953" xlink:href="#DejaVuSans-74"/>
     <use x="341.210938" xlink:href="#DejaVuSans-72"/>
     <use x="382.292969" xlink:href="#DejaVuSans-65"/>
     <use x="443.816406" xlink:href="#DejaVuSans-65"/>
     <use x="505.339844" xlink:href="#DejaVuSans-74"/>
    </g>
   </g>
  </g>
 </g>
 <defs>
  <clipPath id="p1d4fa85452">
   <rect height="71.08" width="369.34" x="78.14" y="25.44"/>
  </clipPath>
  <clipPath id="pcd4ad192d1">
   <rect height="71.08" width="369.34" x="78.14" y="136.04"/>
  </clipPath>
  <clipPath id="pd050025186">
   <rect height="71.08" width="369.34" x="78.14" y="246.64"/>
  </clipPath>
 </defs>
</svg>
