<?xml version="1.0" encoding="utf-8" standalone="no"?>
<!DOCTYPE svg PUBLIC "-//W3C//DTD SVG 1.1//EN"
  "http://www.w3.org/Graphics/SVG/1.1/DTD/svg11.dtd">
<!-- Created with matplotlib (http://matplotlib.org/) -->
<svg height="345pt" version="1.1" viewBox="0 0 460 345" width="460pt" xmlns="http://www.w3.org/2000/svg" xmlns:xlink="http://www.w3.org/1999/xlink">
 <defs>
  <style type="text/css">
*{stroke-linecap:butt;stroke-linejoin:round;}
  </style>
 </defs>
 <g id="figure_1">
  <g id="patch_1">
   <path d="M 0 345.6 
L 460.8 345.6 
L 460.8 0 
L 0 0 
z
" style="fill:#ffffff;"/>
  </g>
  <g id="axes_1">
   <g id="patch_2">
    <path d="M 71.84 96.52 
L 447.48 96.52 
L 447.48 25.44 
L 71.84 25.44 
z
" style="fill:#ffffff;"/>
   </g>
   <g id="matplotlib.axis_1">
    <g id="xtick_1">
     <g id="line2d_1">
      <defs>
       <path d="M 0 0 
L 0 3.5 
" id="m74b2bae32e" style="stroke:#000000;stroke-width:0.8;"/>
      </defs>
      <g>
       <use style="stroke:#000000;stroke-width:0.8;" x="88.914545" xlink:href="#m74b2bae32e" y="96.52"/>
      </g>
     </g>
    </g>
    <g id="xtick_2">
     <g id="line2d_2">
      <g>
       <use style="stroke:#000000;stroke-width:0.8;" x="137.698961" xlink:href="#m74b2bae32e" y="96.52"/>
      </g>
     </g>
    </g>
    <g id="xtick_3">
     <g id="line2d_3">
      <g>
       <use style="stroke:#000000;stroke-width:0.8;" x="186.483377" xlink:href="#m74b2bae32e" y="96.52"/>
      </g>
     </g>
    </g>
    <g id="xtick_4">
     <g id="line2d_4">
      <g>
       <use style="stroke:#000000;stroke-width:0.8;" x="235.267792" xlink:href="#m74b2bae32e" y="96.52"/>
      </g>
     </g>
    </g>
    <g id="xtick_5">
     <g id="line2d_5">
      <g>
       <use style="stroke:#000000;stroke-width:0.8;" x="284.052208" xlink:href="#m74b2bae32e" y="96.52"/>
      </g>
     </g>
    </g>
    <g id="xtick_6">
     <g id="line2d_6">
      <g>
       <use style="stroke:#000000;stroke-width:0.8;" x="332.836623" xlink:href="#m74b2bae32e" y="96.52"/>
      </g>
     </g>
    </g>
    <g id="xtick_7">
     <g id="line2d_7">
      <g>
       <use style="stroke:#000000;stroke-width:0.8;" x="381.621039" xlink:href="#m74b2bae32e" y="96.52"/>
      </g>
     </g>
    </g>
    <g id="xtick_8">
     <g id="line2d_8">
      <g>
       <use style="stroke:#000000;stroke-width:0.8;" x="430.405455" xlink:href="#m74b2bae32e" y="96.52"/>
      </g>
     </g>
    </g>
   </g>
   <g id="matplotlib.axis_2">
    <g id="ytick_1">
     <g id="line2d_9">
      <defs>
       <path d="M 0 0 
L -3.5 0 
" id="maae6cfebad" style="stroke:#000000;stroke-width:0.8;"/>
      </defs>
      <g>
       <use style="stroke:#000000;stroke-width:0.8;" x="71.84" xlink:href="#maae6cfebad" y="71.361337"/>
      </g>
     </g>
     <g id="text_1">
      <!-- 0 -->
      <defs>
       <path d="M 31.78125 66.40625 
Q 24.171875 66.40625 20.328125 58.90625 
Q 16.5 51.421875 16.5 36.375 
Q 16.5 21.390625 20.328125 13.890625 
Q 24.171875 6.390625 31.78125 6.390625 
Q 39.453125 6.390625 43.28125 13.890625 
Q 47.125 21.390625 47.125 36.375 
Q 47.125 51.421875 43.28125 58.90625 
Q 39.453125 66.40625 31.78125 66.40625 
z
M 31.78125 74.21875 
Q 44.046875 74.21875 50.515625 64.515625 
Q 56.984375 54.828125 56.984375 36.375 
Q 56.984375 17.96875 50.515625 8.265625 
Q 44.046875 -1.421875 31.78125 -1.421875 
Q 19.53125 -1.421875 13.0625 8.265625 
Q 6.59375 17.96875 6.59375 36.375 
Q 6.59375 54.828125 13.0625 64.515625 
Q 19.53125 74.21875 31.78125 74.21875 
z
" id="DejaVuSans-30"/>
      </defs>
      <g transform="translate(58.4775 75.160555)scale(0.1 -0.1)">
       <use xlink:href="#DejaVuSans-30"/>
      </g>
     </g>
    </g>
    <g id="ytick_2">
     <g id="line2d_10">
      <g>
       <use style="stroke:#000000;stroke-width:0.8;" x="71.84" xlink:href="#maae6cfebad" y="40.868174"/>
      </g>
     </g>
     <g id="text_2">
      <!-- 20000 -->
      <defs>
       <path d="M 19.1875 8.296875 
L 53.609375 8.296875 
L 53.609375 0 
L 7.328125 0 
L 7.328125 8.296875 
Q 12.9375 14.109375 22.625 23.890625 
Q 32.328125 33.6875 34.8125 36.53125 
Q 39.546875 41.84375 41.421875 45.53125 
Q 43.3125 49.21875 43.3125 52.78125 
Q 43.3125 58.59375 39.234375 62.25 
Q 35.15625 65.921875 28.609375 65.921875 
Q 23.96875 65.921875 18.8125 64.3125 
Q 13.671875 62.703125 7.8125 59.421875 
L 7.8125 69.390625 
Q 13.765625 71.78125 18.9375 73 
Q 24.125 74.21875 28.421875 74.21875 
Q 39.75 74.21875 46.484375 68.546875 
Q 53.21875 62.890625 53.21875 53.421875 
Q 53.21875 48.921875 51.53125 44.890625 
Q 49.859375 40.875 45.40625 35.40625 
Q 44.1875 33.984375 37.640625 27.21875 
Q 31.109375 20.453125 19.1875 8.296875 
z
" id="DejaVuSans-32"/>
      </defs>
      <g transform="translate(33.0275 44.667393)scale(0.1 -0.1)">
       <use xlink:href="#DejaVuSans-32"/>
       <use x="63.623047" xlink:href="#DejaVuSans-30"/>
       <use x="127.246094" xlink:href="#DejaVuSans-30"/>
       <use x="190.869141" xlink:href="#DejaVuSans-30"/>
       <use x="254.492188" xlink:href="#DejaVuSans-30"/>
      </g>
     </g>
    </g>
    <g id="text_3">
     <!-- Heat [W] -->
     <defs>
      <path d="M 9.8125 72.90625 
L 19.671875 72.90625 
L 19.671875 43.015625 
L 55.515625 43.015625 
L 55.515625 72.90625 
L 65.375 72.90625 
L 65.375 0 
L 55.515625 0 
L 55.515625 34.71875 
L 19.671875 34.71875 
L 19.671875 0 
L 9.8125 0 
z
" id="DejaVuSans-48"/>
      <path d="M 56.203125 29.59375 
L 56.203125 25.203125 
L 14.890625 25.203125 
Q 15.484375 15.921875 20.484375 11.0625 
Q 25.484375 6.203125 34.421875 6.203125 
Q 39.59375 6.203125 44.453125 7.46875 
Q 49.3125 8.734375 54.109375 11.28125 
L 54.109375 2.78125 
Q 49.265625 0.734375 44.1875 -0.34375 
Q 39.109375 -1.421875 33.890625 -1.421875 
Q 20.796875 -1.421875 13.15625 6.1875 
Q 5.515625 13.8125 5.515625 26.8125 
Q 5.515625 40.234375 12.765625 48.109375 
Q 20.015625 56 32.328125 56 
Q 43.359375 56 49.78125 48.890625 
Q 56.203125 41.796875 56.203125 29.59375 
z
M 47.21875 32.234375 
Q 47.125 39.59375 43.09375 43.984375 
Q 39.0625 48.390625 32.421875 48.390625 
Q 24.90625 48.390625 20.390625 44.140625 
Q 15.875 39.890625 15.1875 32.171875 
z
" id="DejaVuSans-65"/>
      <path d="M 34.28125 27.484375 
Q 23.390625 27.484375 19.1875 25 
Q 14.984375 22.515625 14.984375 16.5 
Q 14.984375 11.71875 18.140625 8.90625 
Q 21.296875 6.109375 26.703125 6.109375 
Q 34.1875 6.109375 38.703125 11.40625 
Q 43.21875 16.703125 43.21875 25.484375 
L 43.21875 27.484375 
z
M 52.203125 31.203125 
L 52.203125 0 
L 43.21875 0 
L 43.21875 8.296875 
Q 40.140625 3.328125 35.546875 0.953125 
Q 30.953125 -1.421875 24.3125 -1.421875 
Q 15.921875 -1.421875 10.953125 3.296875 
Q 6 8.015625 6 15.921875 
Q 6 25.140625 12.171875 29.828125 
Q 18.359375 34.515625 30.609375 34.515625 
L 43.21875 34.515625 
L 43.21875 35.40625 
Q 43.21875 41.609375 39.140625 45 
Q 35.0625 48.390625 27.6875 48.390625 
Q 23 48.390625 18.546875 47.265625 
Q 14.109375 46.140625 10.015625 43.890625 
L 10.015625 52.203125 
Q 14.9375 54.109375 19.578125 55.046875 
Q 24.21875 56 28.609375 56 
Q 40.484375 56 46.34375 49.84375 
Q 52.203125 43.703125 52.203125 31.203125 
z
" id="DejaVuSans-61"/>
      <path d="M 18.3125 70.21875 
L 18.3125 54.6875 
L 36.8125 54.6875 
L 36.8125 47.703125 
L 18.3125 47.703125 
L 18.3125 18.015625 
Q 18.3125 11.328125 20.140625 9.421875 
Q 21.96875 7.515625 27.59375 7.515625 
L 36.8125 7.515625 
L 36.8125 0 
L 27.59375 0 
Q 17.1875 0 13.234375 3.875 
Q 9.28125 7.765625 9.28125 18.015625 
L 9.28125 47.703125 
L 2.6875 47.703125 
L 2.6875 54.6875 
L 9.28125 54.6875 
L 9.28125 70.21875 
z
" id="DejaVuSans-74"/>
      <path id="DejaVuSans-20"/>
      <path d="M 8.59375 75.984375 
L 29.296875 75.984375 
L 29.296875 69 
L 17.578125 69 
L 17.578125 -6.203125 
L 29.296875 -6.203125 
L 29.296875 -13.1875 
L 8.59375 -13.1875 
z
" id="DejaVuSans-5b"/>
      <path d="M 3.328125 72.90625 
L 13.28125 72.90625 
L 28.609375 11.28125 
L 43.890625 72.90625 
L 54.984375 72.90625 
L 70.3125 11.28125 
L 85.59375 72.90625 
L 95.609375 72.90625 
L 77.296875 0 
L 64.890625 0 
L 49.515625 63.28125 
L 33.984375 0 
L 21.578125 0 
z
" id="DejaVuSans-57"/>
      <path d="M 30.421875 75.984375 
L 30.421875 -13.1875 
L 9.71875 -13.1875 
L 9.71875 -6.203125 
L 21.390625 -6.203125 
L 21.390625 69 
L 9.71875 69 
L 9.71875 75.984375 
z
" id="DejaVuSans-5d"/>
     </defs>
     <g transform="translate(26.947813 83.275312)rotate(-90)scale(0.1 -0.1)">
      <use xlink:href="#DejaVuSans-48"/>
      <use x="75.195312" xlink:href="#DejaVuSans-65"/>
      <use x="136.71875" xlink:href="#DejaVuSans-61"/>
      <use x="197.998047" xlink:href="#DejaVuSans-74"/>
      <use x="237.207031" xlink:href="#DejaVuSans-20"/>
      <use x="268.994141" xlink:href="#DejaVuSans-5b"/>
      <use x="308.007812" xlink:href="#DejaVuSans-57"/>
      <use x="406.884766" xlink:href="#DejaVuSans-5d"/>
     </g>
    </g>
   </g>
   <g id="line2d_11">
    <path clip-path="url(#p7ef5ad7222)" d="M 88.914545 71.361337 
L 210.367413 71.361337 
L 210.875584 56.956693 
L 211.383755 45.921847 
L 211.891926 31.15213 
L 212.400097 28.670909 
L 218.498149 28.670909 
L 219.00632 34.417312 
L 219.514491 34.793891 
L 220.530833 47.171629 
L 221.039004 47.362823 
L 222.055346 46.735841 
L 222.563517 53.605374 
L 223.071688 53.61356 
L 224.596201 52.770003 
L 226.120714 52.602525 
L 228.661569 53.065471 
L 229.677911 53.662449 
L 231.202424 54.860479 
L 233.743279 56.588773 
L 234.25145 61.103994 
L 234.759621 67.774774 
L 235.267792 63.072799 
L 236.284134 62.842658 
L 236.792305 66.846939 
L 237.300476 64.325867 
L 238.824989 63.725515 
L 241.365844 63.090059 
L 244.41487 62.584772 
L 246.447554 62.406654 
L 248.480238 62.524473 
L 249.49658 62.736899 
L 250.512922 52.109825 
L 251.529264 52.477503 
L 252.037435 52.747324 
L 252.545606 48.195607 
L 254.57829 49.729109 
L 256.102803 50.750074 
L 256.610974 46.849834 
L 258.643658 48.27137 
L 259.151829 48.581191 
L 259.66 71.361337 
L 267.282565 71.361337 
L 267.790736 76.211965 
L 268.298907 76.549932 
L 268.807078 82.57752 
L 269.315249 86.999098 
L 269.82342 87.086038 
L 270.839762 86.457903 
L 271.347933 92.926034 
L 271.856104 92.43742 
L 273.380617 91.586696 
L 276.429643 90.158486 
L 278.462327 89.370129 
L 281.511353 88.472046 
L 282.527695 88.183577 
L 283.035866 89.021295 
L 283.544037 90.329534 
L 284.052208 88.045088 
L 284.560379 87.627435 
L 285.06855 87.854819 
L 286.084892 85.978764 
L 288.117576 84.336934 
L 289.642089 83.303914 
L 291.166602 82.586386 
L 292.182944 82.405868 
L 296.756483 81.983664 
L 298.280996 81.820755 
L 299.297338 76.210417 
L 300.31368 76.008314 
L 300.821851 75.824817 
L 301.330022 73.485393 
L 304.887219 72.678576 
L 305.39539 71.361337 
L 316.066981 71.361337 
L 316.575152 72.851909 
L 317.083323 72.94185 
L 318.099665 75.982587 
L 318.607836 76.061109 
L 319.624177 75.940802 
L 320.132348 78.174756 
L 323.689545 78.106069 
L 331.31211 78.680698 
L 331.820281 77.781478 
L 332.328452 77.545226 
L 332.836623 76.993051 
L 333.852965 76.670966 
L 334.361136 75.695132 
L 337.918333 74.9144 
L 341.983701 74.242892 
L 344.016385 74.145585 
L 345.032727 74.271243 
L 347.065411 74.773556 
L 348.081753 72.999522 
L 349.606266 73.069931 
L 350.114437 72.232733 
L 353.671634 72.292123 
L 354.179805 71.361337 
L 364.851396 71.361337 
L 365.359567 72.645534 
L 365.867738 72.475374 
L 366.375909 73.905197 
L 366.88408 74.151323 
L 368.408593 74.102299 
L 368.916764 75.576149 
L 369.424935 75.388503 
L 370.441277 75.260334 
L 373.490303 74.641855 
L 378.063842 73.919644 
L 380.096526 73.657065 
L 380.604697 73.278363 
L 381.112868 72.724161 
L 382.12921 72.651069 
L 382.637381 73.377759 
L 383.145552 72.046381 
L 383.653723 72.224773 
L 388.227262 72.086094 
L 390.259946 72.28371 
L 392.800801 72.856874 
L 394.325314 72.864877 
L 395.849827 72.750304 
L 396.866169 71.959993 
L 398.390682 71.914847 
L 398.898853 71.614319 
L 402.45605 71.573138 
L 402.964221 71.361337 
L 413.635812 71.361337 
L 414.143983 71.680834 
L 414.652154 71.649815 
L 415.160325 72.037756 
L 416.176667 72.212193 
L 417.193009 72.140197 
L 417.70118 72.541002 
L 419.733864 72.386727 
L 428.372771 72.012016 
L 428.880942 72.226652 
L 429.389113 71.808971 
L 430.405455 71.696248 
L 430.405455 71.696248 
" style="fill:none;stroke:#1f77b4;stroke-linecap:square;stroke-width:1.5;"/>
   </g>
   <g id="line2d_12">
    <path clip-path="url(#p7ef5ad7222)" d="M 88.914545 71.361337 
L 206.302045 71.361337 
L 206.810216 64.373414 
L 207.318387 63.930776 
L 207.826558 42.947242 
L 208.334729 39.389256 
L 210.367413 39.389256 
L 210.875584 32.082851 
L 211.383755 28.731895 
L 217.481807 28.735939 
L 218.498149 29.07594 
L 219.00632 34.973488 
L 219.514491 35.748296 
L 220.530833 48.693285 
L 221.039004 49.173991 
L 222.055346 49.055558 
L 222.563517 56.150834 
L 223.071688 56.39154 
L 228.661569 57.385284 
L 230.186082 58.2533 
L 233.235108 59.722533 
L 233.743279 59.945068 
L 234.25145 64.360113 
L 234.759621 70.933925 
L 235.267792 66.13808 
L 236.284134 65.729084 
L 236.792305 69.648183 
L 237.300476 67.044632 
L 238.824989 66.212187 
L 240.857673 65.408224 
L 243.398528 64.63996 
L 245.939383 64.090554 
L 247.463896 63.950692 
L 248.480238 63.959231 
L 249.49658 64.093082 
L 250.512922 53.42262 
L 251.529264 53.720812 
L 252.037435 53.957451 
L 252.545606 49.388796 
L 254.57829 50.802894 
L 256.102803 51.743304 
L 256.610974 47.833029 
L 258.643658 49.160657 
L 259.151829 49.448693 
L 259.66 71.361337 
L 267.282565 71.361337 
L 267.790736 76.302536 
L 268.298907 76.646349 
L 268.807078 82.671392 
L 269.315249 87.239003 
L 269.82342 87.332956 
L 270.839762 86.691771 
L 271.347933 93.289091 
L 272.364275 92.467538 
L 275.921472 90.692241 
L 277.954156 89.815947 
L 280.495011 88.996843 
L 282.527695 88.40617 
L 283.035866 89.23933 
L 283.544037 90.738128 
L 284.052208 88.357318 
L 284.560379 87.930773 
L 285.06855 88.149635 
L 285.576721 87.365605 
L 286.084892 86.305232 
L 288.117576 84.626502 
L 289.642089 83.569579 
L 291.166602 82.830844 
L 292.182944 82.637487 
L 296.756483 82.167789 
L 298.280996 81.992054 
L 299.297338 76.314582 
L 300.31368 76.107822 
L 300.821851 75.922102 
L 301.330022 73.520721 
L 304.887219 72.709492 
L 305.39539 71.361337 
L 316.066981 71.361337 
L 316.575152 72.898133 
L 317.083323 72.990908 
L 318.099665 76.100936 
L 318.607836 76.182474 
L 319.624177 76.055082 
L 320.132348 78.352384 
L 323.689545 78.256659 
L 331.31211 78.842368 
L 331.820281 77.939034 
L 332.328452 77.76373 
L 332.836623 77.172626 
L 333.852965 76.840185 
L 334.361136 75.824448 
L 337.918333 75.019654 
L 341.983701 74.327804 
L 344.016385 74.222378 
L 345.032727 74.344385 
L 347.065411 74.840094 
L 348.081753 73.039603 
L 349.606266 73.107406 
L 350.114437 72.246953 
L 353.671634 72.306009 
L 354.179805 71.361337 
L 364.851396 71.361337 
L 365.359567 72.697974 
L 365.867738 72.519916 
L 366.375909 73.948469 
L 366.88408 74.224911 
L 368.408593 74.172283 
L 368.916764 75.708559 
L 369.424935 75.510829 
L 370.441277 75.395945 
L 372.982132 74.848195 
L 377.555671 74.078412 
L 380.096526 73.733878 
L 380.604697 73.353137 
L 381.112868 72.771718 
L 382.12921 72.696071 
L 382.637381 73.421549 
L 383.145552 72.074277 
L 383.653723 72.251912 
L 388.227262 72.107694 
L 390.259946 72.303429 
L 392.800801 72.889406 
L 394.325314 72.918982 
L 395.849827 72.800933 
L 396.866169 71.989715 
L 398.390682 71.942292 
L 398.898853 71.629455 
L 402.45605 71.585768 
L 402.964221 71.361337 
L 413.635812 71.361337 
L 414.143983 71.693863 
L 414.652154 71.661387 
L 415.160325 72.049008 
L 416.176667 72.236672 
L 417.193009 72.162256 
L 417.70118 72.582596 
L 419.225693 72.452305 
L 427.8646 72.052491 
L 428.372771 72.034751 
L 428.880942 72.248805 
L 429.389113 71.830558 
L 430.405455 71.709152 
L 430.405455 71.709152 
" style="fill:none;stroke:#ff7f0e;stroke-dasharray:1.5,2.475;stroke-dashoffset:0;stroke-width:1.5;"/>
   </g>
   <g id="line2d_13">
    <path clip-path="url(#p7ef5ad7222)" d="M 259.66 96.52 
L 259.66 25.44 
" style="fill:none;stroke:#000000;stroke-dasharray:1.5,2.475;stroke-dashoffset:0;stroke-width:1.5;"/>
   </g>
   <g id="patch_3">
    <path d="M 71.84 96.52 
L 71.84 25.44 
" style="fill:none;stroke:#000000;stroke-linecap:square;stroke-linejoin:miter;stroke-width:0.8;"/>
   </g>
   <g id="patch_4">
    <path d="M 447.48 96.52 
L 447.48 25.44 
" style="fill:none;stroke:#000000;stroke-linecap:square;stroke-linejoin:miter;stroke-width:0.8;"/>
   </g>
   <g id="patch_5">
    <path d="M 71.84 96.52 
L 447.48 96.52 
" style="fill:none;stroke:#000000;stroke-linecap:square;stroke-linejoin:miter;stroke-width:0.8;"/>
   </g>
   <g id="patch_6">
    <path d="M 71.84 25.44 
L 447.48 25.44 
" style="fill:none;stroke:#000000;stroke-linecap:square;stroke-linejoin:miter;stroke-width:0.8;"/>
   </g>
   <g id="text_4">
    <!-- New building -->
    <defs>
     <path d="M 9.8125 72.90625 
L 23.09375 72.90625 
L 55.421875 11.921875 
L 55.421875 72.90625 
L 64.984375 72.90625 
L 64.984375 0 
L 51.703125 0 
L 19.390625 60.984375 
L 19.390625 0 
L 9.8125 0 
z
" id="DejaVuSans-4e"/>
     <path d="M 4.203125 54.6875 
L 13.1875 54.6875 
L 24.421875 12.015625 
L 35.59375 54.6875 
L 46.1875 54.6875 
L 57.421875 12.015625 
L 68.609375 54.6875 
L 77.59375 54.6875 
L 63.28125 0 
L 52.6875 0 
L 40.921875 44.828125 
L 29.109375 0 
L 18.5 0 
z
" id="DejaVuSans-77"/>
     <path d="M 48.6875 27.296875 
Q 48.6875 37.203125 44.609375 42.84375 
Q 40.53125 48.484375 33.40625 48.484375 
Q 26.265625 48.484375 22.1875 42.84375 
Q 18.109375 37.203125 18.109375 27.296875 
Q 18.109375 17.390625 22.1875 11.75 
Q 26.265625 6.109375 33.40625 6.109375 
Q 40.53125 6.109375 44.609375 11.75 
Q 48.6875 17.390625 48.6875 27.296875 
z
M 18.109375 46.390625 
Q 20.953125 51.265625 25.265625 53.625 
Q 29.59375 56 35.59375 56 
Q 45.5625 56 51.78125 48.09375 
Q 58.015625 40.1875 58.015625 27.296875 
Q 58.015625 14.40625 51.78125 6.484375 
Q 45.5625 -1.421875 35.59375 -1.421875 
Q 29.59375 -1.421875 25.265625 0.953125 
Q 20.953125 3.328125 18.109375 8.203125 
L 18.109375 0 
L 9.078125 0 
L 9.078125 75.984375 
L 18.109375 75.984375 
z
" id="DejaVuSans-62"/>
     <path d="M 8.5 21.578125 
L 8.5 54.6875 
L 17.484375 54.6875 
L 17.484375 21.921875 
Q 17.484375 14.15625 20.5 10.265625 
Q 23.53125 6.390625 29.59375 6.390625 
Q 36.859375 6.390625 41.078125 11.03125 
Q 45.3125 15.671875 45.3125 23.6875 
L 45.3125 54.6875 
L 54.296875 54.6875 
L 54.296875 0 
L 45.3125 0 
L 45.3125 8.40625 
Q 42.046875 3.421875 37.71875 1 
Q 33.40625 -1.421875 27.6875 -1.421875 
Q 18.265625 -1.421875 13.375 4.4375 
Q 8.5 10.296875 8.5 21.578125 
z
M 31.109375 56 
z
" id="DejaVuSans-75"/>
     <path d="M 9.421875 54.6875 
L 18.40625 54.6875 
L 18.40625 0 
L 9.421875 0 
z
M 9.421875 75.984375 
L 18.40625 75.984375 
L 18.40625 64.59375 
L 9.421875 64.59375 
z
" id="DejaVuSans-69"/>
     <path d="M 9.421875 75.984375 
L 18.40625 75.984375 
L 18.40625 0 
L 9.421875 0 
z
" id="DejaVuSans-6c"/>
     <path d="M 45.40625 46.390625 
L 45.40625 75.984375 
L 54.390625 75.984375 
L 54.390625 0 
L 45.40625 0 
L 45.40625 8.203125 
Q 42.578125 3.328125 38.25 0.953125 
Q 33.9375 -1.421875 27.875 -1.421875 
Q 17.96875 -1.421875 11.734375 6.484375 
Q 5.515625 14.40625 5.515625 27.296875 
Q 5.515625 40.1875 11.734375 48.09375 
Q 17.96875 56 27.875 56 
Q 33.9375 56 38.25 53.625 
Q 42.578125 51.265625 45.40625 46.390625 
z
M 14.796875 27.296875 
Q 14.796875 17.390625 18.875 11.75 
Q 22.953125 6.109375 30.078125 6.109375 
Q 37.203125 6.109375 41.296875 11.75 
Q 45.40625 17.390625 45.40625 27.296875 
Q 45.40625 37.203125 41.296875 42.84375 
Q 37.203125 48.484375 30.078125 48.484375 
Q 22.953125 48.484375 18.875 42.84375 
Q 14.796875 37.203125 14.796875 27.296875 
z
" id="DejaVuSans-64"/>
     <path d="M 54.890625 33.015625 
L 54.890625 0 
L 45.90625 0 
L 45.90625 32.71875 
Q 45.90625 40.484375 42.875 44.328125 
Q 39.84375 48.1875 33.796875 48.1875 
Q 26.515625 48.1875 22.3125 43.546875 
Q 18.109375 38.921875 18.109375 30.90625 
L 18.109375 0 
L 9.078125 0 
L 9.078125 54.6875 
L 18.109375 54.6875 
L 18.109375 46.1875 
Q 21.34375 51.125 25.703125 53.5625 
Q 30.078125 56 35.796875 56 
Q 45.21875 56 50.046875 50.171875 
Q 54.890625 44.34375 54.890625 33.015625 
z
" id="DejaVuSans-6e"/>
     <path d="M 45.40625 27.984375 
Q 45.40625 37.75 41.375 43.109375 
Q 37.359375 48.484375 30.078125 48.484375 
Q 22.859375 48.484375 18.828125 43.109375 
Q 14.796875 37.75 14.796875 27.984375 
Q 14.796875 18.265625 18.828125 12.890625 
Q 22.859375 7.515625 30.078125 7.515625 
Q 37.359375 7.515625 41.375 12.890625 
Q 45.40625 18.265625 45.40625 27.984375 
z
M 54.390625 6.78125 
Q 54.390625 -7.171875 48.1875 -13.984375 
Q 42 -20.796875 29.203125 -20.796875 
Q 24.46875 -20.796875 20.265625 -20.09375 
Q 16.0625 -19.390625 12.109375 -17.921875 
L 12.109375 -9.1875 
Q 16.0625 -11.328125 19.921875 -12.34375 
Q 23.78125 -13.375 27.78125 -13.375 
Q 36.625 -13.375 41.015625 -8.765625 
Q 45.40625 -4.15625 45.40625 5.171875 
L 45.40625 9.625 
Q 42.625 4.78125 38.28125 2.390625 
Q 33.9375 0 27.875 0 
Q 17.828125 0 11.671875 7.65625 
Q 5.515625 15.328125 5.515625 27.984375 
Q 5.515625 40.671875 11.671875 48.328125 
Q 17.828125 56 27.875 56 
Q 33.9375 56 38.28125 53.609375 
Q 42.625 51.21875 45.40625 46.390625 
L 45.40625 54.6875 
L 54.390625 54.6875 
z
" id="DejaVuSans-67"/>
    </defs>
    <g transform="translate(220.632812 19.44)scale(0.12 -0.12)">
     <use xlink:href="#DejaVuSans-4e"/>
     <use x="74.804688" xlink:href="#DejaVuSans-65"/>
     <use x="136.328125" xlink:href="#DejaVuSans-77"/>
     <use x="218.115234" xlink:href="#DejaVuSans-20"/>
     <use x="249.902344" xlink:href="#DejaVuSans-62"/>
     <use x="313.378906" xlink:href="#DejaVuSans-75"/>
     <use x="376.757812" xlink:href="#DejaVuSans-69"/>
     <use x="404.541016" xlink:href="#DejaVuSans-6c"/>
     <use x="432.324219" xlink:href="#DejaVuSans-64"/>
     <use x="495.800781" xlink:href="#DejaVuSans-69"/>
     <use x="523.583984" xlink:href="#DejaVuSans-6e"/>
     <use x="586.962891" xlink:href="#DejaVuSans-67"/>
    </g>
   </g>
   <g id="legend_1">
    <g id="patch_7">
     <path d="M 284.594062 62.79625 
L 440.48 62.79625 
Q 442.48 62.79625 442.48 60.79625 
L 442.48 32.44 
Q 442.48 30.44 440.48 30.44 
L 284.594062 30.44 
Q 282.594062 30.44 282.594062 32.44 
L 282.594062 60.79625 
Q 282.594062 62.79625 284.594062 62.79625 
z
" style="fill:#ffffff;opacity:0.8;stroke:#cccccc;stroke-linejoin:miter;"/>
    </g>
    <g id="line2d_14">
     <path d="M 286.594062 38.538437 
L 306.594062 38.538437 
" style="fill:none;stroke:#1f77b4;stroke-linecap:square;stroke-width:1.5;"/>
    </g>
    <g id="line2d_15"/>
    <g id="text_5">
     <!-- Buildings - Ideal network -->
     <defs>
      <path d="M 19.671875 34.8125 
L 19.671875 8.109375 
L 35.5 8.109375 
Q 43.453125 8.109375 47.28125 11.40625 
Q 51.125 14.703125 51.125 21.484375 
Q 51.125 28.328125 47.28125 31.5625 
Q 43.453125 34.8125 35.5 34.8125 
z
M 19.671875 64.796875 
L 19.671875 42.828125 
L 34.28125 42.828125 
Q 41.5 42.828125 45.03125 45.53125 
Q 48.578125 48.25 48.578125 53.8125 
Q 48.578125 59.328125 45.03125 62.0625 
Q 41.5 64.796875 34.28125 64.796875 
z
M 9.8125 72.90625 
L 35.015625 72.90625 
Q 46.296875 72.90625 52.390625 68.21875 
Q 58.5 63.53125 58.5 54.890625 
Q 58.5 48.1875 55.375 44.234375 
Q 52.25 40.28125 46.1875 39.3125 
Q 53.46875 37.75 57.5 32.78125 
Q 61.53125 27.828125 61.53125 20.40625 
Q 61.53125 10.640625 54.890625 5.3125 
Q 48.25 0 35.984375 0 
L 9.8125 0 
z
" id="DejaVuSans-42"/>
      <path d="M 44.28125 53.078125 
L 44.28125 44.578125 
Q 40.484375 46.53125 36.375 47.5 
Q 32.28125 48.484375 27.875 48.484375 
Q 21.1875 48.484375 17.84375 46.4375 
Q 14.5 44.390625 14.5 40.28125 
Q 14.5 37.15625 16.890625 35.375 
Q 19.28125 33.59375 26.515625 31.984375 
L 29.59375 31.296875 
Q 39.15625 29.25 43.1875 25.515625 
Q 47.21875 21.78125 47.21875 15.09375 
Q 47.21875 7.46875 41.1875 3.015625 
Q 35.15625 -1.421875 24.609375 -1.421875 
Q 20.21875 -1.421875 15.453125 -0.5625 
Q 10.6875 0.296875 5.421875 2 
L 5.421875 11.28125 
Q 10.40625 8.6875 15.234375 7.390625 
Q 20.0625 6.109375 24.8125 6.109375 
Q 31.15625 6.109375 34.5625 8.28125 
Q 37.984375 10.453125 37.984375 14.40625 
Q 37.984375 18.0625 35.515625 20.015625 
Q 33.0625 21.96875 24.703125 23.78125 
L 21.578125 24.515625 
Q 13.234375 26.265625 9.515625 29.90625 
Q 5.8125 33.546875 5.8125 39.890625 
Q 5.8125 47.609375 11.28125 51.796875 
Q 16.75 56 26.8125 56 
Q 31.78125 56 36.171875 55.265625 
Q 40.578125 54.546875 44.28125 53.078125 
z
" id="DejaVuSans-73"/>
      <path d="M 4.890625 31.390625 
L 31.203125 31.390625 
L 31.203125 23.390625 
L 4.890625 23.390625 
z
" id="DejaVuSans-2d"/>
      <path d="M 9.8125 72.90625 
L 19.671875 72.90625 
L 19.671875 0 
L 9.8125 0 
z
" id="DejaVuSans-49"/>
      <path d="M 30.609375 48.390625 
Q 23.390625 48.390625 19.1875 42.75 
Q 14.984375 37.109375 14.984375 27.296875 
Q 14.984375 17.484375 19.15625 11.84375 
Q 23.34375 6.203125 30.609375 6.203125 
Q 37.796875 6.203125 41.984375 11.859375 
Q 46.1875 17.53125 46.1875 27.296875 
Q 46.1875 37.015625 41.984375 42.703125 
Q 37.796875 48.390625 30.609375 48.390625 
z
M 30.609375 56 
Q 42.328125 56 49.015625 48.375 
Q 55.71875 40.765625 55.71875 27.296875 
Q 55.71875 13.875 49.015625 6.21875 
Q 42.328125 -1.421875 30.609375 -1.421875 
Q 18.84375 -1.421875 12.171875 6.21875 
Q 5.515625 13.875 5.515625 27.296875 
Q 5.515625 40.765625 12.171875 48.375 
Q 18.84375 56 30.609375 56 
z
" id="DejaVuSans-6f"/>
      <path d="M 41.109375 46.296875 
Q 39.59375 47.171875 37.8125 47.578125 
Q 36.03125 48 33.890625 48 
Q 26.265625 48 22.1875 43.046875 
Q 18.109375 38.09375 18.109375 28.8125 
L 18.109375 0 
L 9.078125 0 
L 9.078125 54.6875 
L 18.109375 54.6875 
L 18.109375 46.1875 
Q 20.953125 51.171875 25.484375 53.578125 
Q 30.03125 56 36.53125 56 
Q 37.453125 56 38.578125 55.875 
Q 39.703125 55.765625 41.0625 55.515625 
z
" id="DejaVuSans-72"/>
      <path d="M 9.078125 75.984375 
L 18.109375 75.984375 
L 18.109375 31.109375 
L 44.921875 54.6875 
L 56.390625 54.6875 
L 27.390625 29.109375 
L 57.625 0 
L 45.90625 0 
L 18.109375 26.703125 
L 18.109375 0 
L 9.078125 0 
z
" id="DejaVuSans-6b"/>
     </defs>
     <g transform="translate(314.594062 42.038437)scale(0.1 -0.1)">
      <use xlink:href="#DejaVuSans-42"/>
      <use x="68.603516" xlink:href="#DejaVuSans-75"/>
      <use x="131.982422" xlink:href="#DejaVuSans-69"/>
      <use x="159.765625" xlink:href="#DejaVuSans-6c"/>
      <use x="187.548828" xlink:href="#DejaVuSans-64"/>
      <use x="251.025391" xlink:href="#DejaVuSans-69"/>
      <use x="278.808594" xlink:href="#DejaVuSans-6e"/>
      <use x="342.1875" xlink:href="#DejaVuSans-67"/>
      <use x="405.664062" xlink:href="#DejaVuSans-73"/>
      <use x="457.763672" xlink:href="#DejaVuSans-20"/>
      <use x="489.550781" xlink:href="#DejaVuSans-2d"/>
      <use x="525.634766" xlink:href="#DejaVuSans-20"/>
      <use x="557.421875" xlink:href="#DejaVuSans-49"/>
      <use x="586.914062" xlink:href="#DejaVuSans-64"/>
      <use x="650.390625" xlink:href="#DejaVuSans-65"/>
      <use x="711.914062" xlink:href="#DejaVuSans-61"/>
      <use x="773.193359" xlink:href="#DejaVuSans-6c"/>
      <use x="800.976562" xlink:href="#DejaVuSans-20"/>
      <use x="832.763672" xlink:href="#DejaVuSans-6e"/>
      <use x="896.142578" xlink:href="#DejaVuSans-65"/>
      <use x="957.666016" xlink:href="#DejaVuSans-74"/>
      <use x="996.875" xlink:href="#DejaVuSans-77"/>
      <use x="1078.662109" xlink:href="#DejaVuSans-6f"/>
      <use x="1139.84375" xlink:href="#DejaVuSans-72"/>
      <use x="1180.957031" xlink:href="#DejaVuSans-6b"/>
     </g>
    </g>
    <g id="line2d_16">
     <path d="M 286.594062 53.216562 
L 306.594062 53.216562 
" style="fill:none;stroke:#ff7f0e;stroke-dasharray:1.5,2.475;stroke-dashoffset:0;stroke-width:1.5;"/>
    </g>
    <g id="line2d_17"/>
    <g id="text_6">
     <!-- Buildings -->
     <g transform="translate(314.594062 56.716562)scale(0.1 -0.1)">
      <use xlink:href="#DejaVuSans-42"/>
      <use x="68.603516" xlink:href="#DejaVuSans-75"/>
      <use x="131.982422" xlink:href="#DejaVuSans-69"/>
      <use x="159.765625" xlink:href="#DejaVuSans-6c"/>
      <use x="187.548828" xlink:href="#DejaVuSans-64"/>
      <use x="251.025391" xlink:href="#DejaVuSans-69"/>
      <use x="278.808594" xlink:href="#DejaVuSans-6e"/>
      <use x="342.1875" xlink:href="#DejaVuSans-67"/>
      <use x="405.664062" xlink:href="#DejaVuSans-73"/>
     </g>
    </g>
   </g>
  </g>
  <g id="axes_2">
   <g id="patch_8">
    <path d="M 71.84 207.12 
L 447.48 207.12 
L 447.48 136.04 
L 71.84 136.04 
z
" style="fill:#ffffff;"/>
   </g>
   <g id="matplotlib.axis_3">
    <g id="xtick_9">
     <g id="line2d_18">
      <g>
       <use style="stroke:#000000;stroke-width:0.8;" x="88.914545" xlink:href="#m74b2bae32e" y="207.12"/>
      </g>
     </g>
    </g>
    <g id="xtick_10">
     <g id="line2d_19">
      <g>
       <use style="stroke:#000000;stroke-width:0.8;" x="137.698961" xlink:href="#m74b2bae32e" y="207.12"/>
      </g>
     </g>
    </g>
    <g id="xtick_11">
     <g id="line2d_20">
      <g>
       <use style="stroke:#000000;stroke-width:0.8;" x="186.483377" xlink:href="#m74b2bae32e" y="207.12"/>
      </g>
     </g>
    </g>
    <g id="xtick_12">
     <g id="line2d_21">
      <g>
       <use style="stroke:#000000;stroke-width:0.8;" x="235.267792" xlink:href="#m74b2bae32e" y="207.12"/>
      </g>
     </g>
    </g>
    <g id="xtick_13">
     <g id="line2d_22">
      <g>
       <use style="stroke:#000000;stroke-width:0.8;" x="284.052208" xlink:href="#m74b2bae32e" y="207.12"/>
      </g>
     </g>
    </g>
    <g id="xtick_14">
     <g id="line2d_23">
      <g>
       <use style="stroke:#000000;stroke-width:0.8;" x="332.836623" xlink:href="#m74b2bae32e" y="207.12"/>
      </g>
     </g>
    </g>
    <g id="xtick_15">
     <g id="line2d_24">
      <g>
       <use style="stroke:#000000;stroke-width:0.8;" x="381.621039" xlink:href="#m74b2bae32e" y="207.12"/>
      </g>
     </g>
    </g>
    <g id="xtick_16">
     <g id="line2d_25">
      <g>
       <use style="stroke:#000000;stroke-width:0.8;" x="430.405455" xlink:href="#m74b2bae32e" y="207.12"/>
      </g>
     </g>
    </g>
    <g id="text_7">
     <!-- Time -->
     <defs>
      <path d="M -0.296875 72.90625 
L 61.375 72.90625 
L 61.375 64.59375 
L 35.5 64.59375 
L 35.5 0 
L 25.59375 0 
L 25.59375 64.59375 
L -0.296875 64.59375 
z
" id="DejaVuSans-54"/>
      <path d="M 52 44.1875 
Q 55.375 50.25 60.0625 53.125 
Q 64.75 56 71.09375 56 
Q 79.640625 56 84.28125 50.015625 
Q 88.921875 44.046875 88.921875 33.015625 
L 88.921875 0 
L 79.890625 0 
L 79.890625 32.71875 
Q 79.890625 40.578125 77.09375 44.375 
Q 74.3125 48.1875 68.609375 48.1875 
Q 61.625 48.1875 57.5625 43.546875 
Q 53.515625 38.921875 53.515625 30.90625 
L 53.515625 0 
L 44.484375 0 
L 44.484375 32.71875 
Q 44.484375 40.625 41.703125 44.40625 
Q 38.921875 48.1875 33.109375 48.1875 
Q 26.21875 48.1875 22.15625 43.53125 
Q 18.109375 38.875 18.109375 30.90625 
L 18.109375 0 
L 9.078125 0 
L 9.078125 54.6875 
L 18.109375 54.6875 
L 18.109375 46.1875 
Q 21.1875 51.21875 25.484375 53.609375 
Q 29.78125 56 35.6875 56 
Q 41.65625 56 45.828125 52.96875 
Q 50 49.953125 52 44.1875 
z
" id="DejaVuSans-6d"/>
     </defs>
     <g transform="translate(247.2725 218.718437)scale(0.1 -0.1)">
      <use xlink:href="#DejaVuSans-54"/>
      <use x="61.037109" xlink:href="#DejaVuSans-69"/>
      <use x="88.820312" xlink:href="#DejaVuSans-6d"/>
      <use x="186.232422" xlink:href="#DejaVuSans-65"/>
     </g>
    </g>
   </g>
   <g id="matplotlib.axis_4">
    <g id="ytick_3">
     <g id="line2d_26">
      <g>
       <use style="stroke:#000000;stroke-width:0.8;" x="71.84" xlink:href="#maae6cfebad" y="198.172056"/>
      </g>
     </g>
     <g id="text_8">
      <!-- −25000 -->
      <defs>
       <path d="M 10.59375 35.5 
L 73.1875 35.5 
L 73.1875 27.203125 
L 10.59375 27.203125 
z
" id="DejaVuSans-2212"/>
       <path d="M 10.796875 72.90625 
L 49.515625 72.90625 
L 49.515625 64.59375 
L 19.828125 64.59375 
L 19.828125 46.734375 
Q 21.96875 47.46875 24.109375 47.828125 
Q 26.265625 48.1875 28.421875 48.1875 
Q 40.625 48.1875 47.75 41.5 
Q 54.890625 34.8125 54.890625 23.390625 
Q 54.890625 11.625 47.5625 5.09375 
Q 40.234375 -1.421875 26.90625 -1.421875 
Q 22.3125 -1.421875 17.546875 -0.640625 
Q 12.796875 0.140625 7.71875 1.703125 
L 7.71875 11.625 
Q 12.109375 9.234375 16.796875 8.0625 
Q 21.484375 6.890625 26.703125 6.890625 
Q 35.15625 6.890625 40.078125 11.328125 
Q 45.015625 15.765625 45.015625 23.390625 
Q 45.015625 31 40.078125 35.4375 
Q 35.15625 39.890625 26.703125 39.890625 
Q 22.75 39.890625 18.8125 39.015625 
Q 14.890625 38.140625 10.796875 36.28125 
z
" id="DejaVuSans-35"/>
      </defs>
      <g transform="translate(24.647813 201.971275)scale(0.1 -0.1)">
       <use xlink:href="#DejaVuSans-2212"/>
       <use x="83.789062" xlink:href="#DejaVuSans-32"/>
       <use x="147.412109" xlink:href="#DejaVuSans-35"/>
       <use x="211.035156" xlink:href="#DejaVuSans-30"/>
       <use x="274.658203" xlink:href="#DejaVuSans-30"/>
       <use x="338.28125" xlink:href="#DejaVuSans-30"/>
      </g>
     </g>
    </g>
    <g id="ytick_4">
     <g id="line2d_27">
      <g>
       <use style="stroke:#000000;stroke-width:0.8;" x="71.84" xlink:href="#maae6cfebad" y="169.586882"/>
      </g>
     </g>
     <g id="text_9">
      <!-- 0 -->
      <g transform="translate(58.4775 173.386101)scale(0.1 -0.1)">
       <use xlink:href="#DejaVuSans-30"/>
      </g>
     </g>
    </g>
    <g id="ytick_5">
     <g id="line2d_28">
      <g>
       <use style="stroke:#000000;stroke-width:0.8;" x="71.84" xlink:href="#maae6cfebad" y="141.001708"/>
      </g>
     </g>
     <g id="text_10">
      <!-- 25000 -->
      <g transform="translate(33.0275 144.800926)scale(0.1 -0.1)">
       <use xlink:href="#DejaVuSans-32"/>
       <use x="63.623047" xlink:href="#DejaVuSans-35"/>
       <use x="127.246094" xlink:href="#DejaVuSans-30"/>
       <use x="190.869141" xlink:href="#DejaVuSans-30"/>
       <use x="254.492188" xlink:href="#DejaVuSans-30"/>
      </g>
     </g>
    </g>
    <g id="text_11">
     <!-- Heat [W] -->
     <g transform="translate(18.568125 193.875312)rotate(-90)scale(0.1 -0.1)">
      <use xlink:href="#DejaVuSans-48"/>
      <use x="75.195312" xlink:href="#DejaVuSans-65"/>
      <use x="136.71875" xlink:href="#DejaVuSans-61"/>
      <use x="197.998047" xlink:href="#DejaVuSans-74"/>
      <use x="237.207031" xlink:href="#DejaVuSans-20"/>
      <use x="268.994141" xlink:href="#DejaVuSans-5b"/>
      <use x="308.007812" xlink:href="#DejaVuSans-57"/>
      <use x="406.884766" xlink:href="#DejaVuSans-5d"/>
     </g>
    </g>
   </g>
   <g id="line2d_29">
    <path clip-path="url(#pdb70d0cf7f)" d="M 88.914545 169.586882 
L 218.498149 169.586882 
L 219.00632 167.413431 
L 219.514491 157.768901 
L 220.530833 158.151169 
L 221.039004 158.15162 
L 221.547175 156.689047 
L 222.055346 155.848544 
L 222.563517 163.379234 
L 223.071688 165.850506 
L 224.08803 164.759542 
L 224.596201 161.6304 
L 225.612543 159.492101 
L 226.628885 157.769441 
L 227.645227 156.414212 
L 229.677911 154.2374 
L 230.694253 153.315752 
L 231.710595 152.707662 
L 232.218766 152.492432 
L 232.726937 147.744788 
L 233.235108 144.204274 
L 233.743279 139.795813 
L 234.25145 140.732836 
L 234.759621 142.958683 
L 235.267792 139.303957 
L 236.792305 140.686768 
L 238.316818 142.208285 
L 239.841331 143.776305 
L 241.365844 145.059793 
L 242.382186 145.880143 
L 245.431212 148.565736 
L 247.463896 150.072807 
L 247.972067 147.879046 
L 250.004751 148.982643 
L 254.070119 151.082648 
L 254.57829 148.230358 
L 256.102803 149.051208 
L 257.119145 143.426662 
L 259.151829 144.542554 
L 259.66 169.586882 
L 265.249881 169.586882 
L 266.266223 180.579026 
L 266.774394 181.020952 
L 267.282565 189.872074 
L 267.790736 203.889091 
L 268.807078 193.303595 
L 269.315249 193.221225 
L 269.82342 188.765648 
L 270.331591 197.79907 
L 271.856104 195.58596 
L 272.872446 194.316413 
L 273.380617 186.285756 
L 273.888788 186.19291 
L 275.921472 183.958988 
L 277.445985 182.538617 
L 278.970498 181.365617 
L 280.495011 180.401449 
L 281.003182 180.333389 
L 281.511353 177.808534 
L 282.527695 174.748172 
L 283.544037 174.286524 
L 284.052208 173.036631 
L 286.084892 173.158257 
L 287.101234 173.569859 
L 288.117576 174.142476 
L 291.674773 175.788964 
L 293.707457 176.711092 
L 294.215628 176.899345 
L 296.248312 177.077373 
L 296.756483 175.351233 
L 299.297338 174.392906 
L 301.838193 173.699831 
L 302.854535 173.474836 
L 303.362706 172.092095 
L 304.887219 171.85307 
L 305.39539 170.555241 
L 305.903561 169.586882 
L 315.050639 169.586882 
L 315.55881 177.091445 
L 316.066981 181.020952 
L 316.575152 179.784713 
L 317.083323 180.208246 
L 317.591494 179.356723 
L 318.099665 180.534249 
L 318.607836 171.150394 
L 319.116007 171.951293 
L 319.624177 172.00945 
L 320.132348 180.463126 
L 320.640519 183.358046 
L 321.14869 180.946998 
L 321.656861 171.863886 
L 322.673203 171.884107 
L 328.263084 171.806903 
L 329.787597 171.662127 
L 330.295768 170.986388 
L 330.803939 170.61957 
L 331.820281 170.476712 
L 332.328452 169.946251 
L 333.344794 170.048722 
L 334.869307 170.500743 
L 335.885649 170.5163 
L 336.39382 170.647232 
L 337.918333 171.313689 
L 338.426504 171.492793 
L 339.442846 171.497836 
L 343.508214 171.698585 
L 345.032727 171.539946 
L 345.540898 170.912731 
L 351.63895 170.682817 
L 352.147121 170.299249 
L 353.671634 170.273558 
L 354.687976 169.586882 
L 360.786028 169.586882 
L 361.294199 181.020952 
L 361.80237 176.934253 
L 362.310541 164.268584 
L 363.835054 180.793193 
L 364.343225 174.463984 
L 364.851396 175.956547 
L 365.359567 169.586882 
L 365.867738 169.964245 
L 366.375909 180.937284 
L 366.88408 170.091482 
L 367.392251 171.221163 
L 367.900422 169.632913 
L 370.441277 169.916341 
L 376.539329 170.248008 
L 378.063842 170.275941 
L 379.588355 169.764404 
L 380.604697 169.771213 
L 381.112868 169.620698 
L 381.621039 169.790071 
L 383.145552 169.792276 
L 384.670065 170.233989 
L 385.686407 170.256106 
L 387.21092 170.229997 
L 388.227262 170.463083 
L 389.751775 170.445123 
L 393.817143 170.339703 
L 394.325314 170.112306 
L 400.423366 170.065112 
L 400.931537 169.90274 
L 402.45605 169.896697 
L 403.472392 169.586882 
L 409.570444 169.586882 
L 410.078615 174.500274 
L 410.586786 166.822737 
L 411.094957 171.626765 
L 411.603128 174.176955 
L 412.111299 176.016042 
L 412.61947 174.980721 
L 413.127641 170.112878 
L 413.635812 169.586882 
L 414.143983 169.586882 
L 414.652154 171.976882 
L 415.160325 170.215673 
L 415.668496 173.881782 
L 416.176667 169.603771 
L 418.209351 169.69754 
L 424.815574 169.915102 
L 427.356429 169.849912 
L 428.880942 169.673924 
L 430.405455 169.677727 
L 430.405455 169.677727 
" style="fill:none;stroke:#1f77b4;stroke-linecap:square;stroke-width:1.5;"/>
   </g>
   <g id="line2d_30">
    <path clip-path="url(#pdb70d0cf7f)" d="M 88.914545 169.586882 
L 213.416439 169.586882 
L 213.92461 168.138001 
L 214.940952 146.741611 
L 215.449123 146.741611 
L 215.957294 140.021617 
L 216.465465 140.021617 
L 216.973636 144.09662 
L 217.481807 146.741611 
L 217.989978 146.741611 
L 218.498149 158.431247 
L 219.00632 164.658131 
L 219.514491 172.783574 
L 220.022662 172.180925 
L 221.039004 169.111191 
L 222.055346 165.686103 
L 222.563517 172.312558 
L 223.071688 173.962531 
L 224.08803 171.18006 
L 225.104372 168.603608 
L 226.628885 164.53122 
L 227.645227 162.439834 
L 229.677911 158.848293 
L 230.694253 157.643834 
L 231.202424 156.517753 
L 231.710595 157.521991 
L 232.218766 157.912559 
L 232.726937 153.479323 
L 233.235108 150.323624 
L 233.743279 142.780199 
L 234.25145 143.256409 
L 234.759621 143.113007 
L 235.267792 139.270909 
L 235.775963 142.197859 
L 236.792305 141.81624 
L 237.808647 141.225454 
L 238.824989 140.971511 
L 239.33316 142.309487 
L 239.841331 142.377529 
L 240.349502 142.206887 
L 240.857673 142.228218 
L 241.365844 142.868719 
L 241.874015 143.776595 
L 244.41487 146.821906 
L 245.939383 148.258439 
L 247.463896 149.567576 
L 247.972067 147.430836 
L 250.004751 148.6713 
L 254.070119 150.915646 
L 254.57829 148.08596 
L 256.102803 148.934887 
L 257.119145 143.34835 
L 259.151829 144.48843 
L 259.66 169.586882 
L 265.249881 169.586882 
L 266.266223 180.567592 
L 266.774394 181.009517 
L 267.282565 189.837772 
L 267.790736 203.854789 
L 268.807078 193.249383 
L 269.315249 193.161347 
L 269.82342 188.706222 
L 270.331591 197.74015 
L 271.856104 195.52875 
L 272.872446 194.260447 
L 273.380617 186.401644 
L 273.888788 186.292085 
L 275.921472 184.03565 
L 277.445985 182.605486 
L 278.970498 181.425307 
L 280.495011 180.455483 
L 281.003182 180.357258 
L 281.511353 177.713756 
L 282.527695 174.662156 
L 283.035866 174.40061 
L 283.544037 173.844343 
L 284.052208 172.856245 
L 286.084892 173.030367 
L 287.101234 173.45695 
L 288.117576 174.041188 
L 291.674773 175.715214 
L 293.707457 176.648105 
L 294.723799 176.999466 
L 296.248312 177.117056 
L 296.756483 175.534462 
L 299.297338 174.53883 
L 301.838193 173.822197 
L 302.854535 173.59019 
L 303.362706 172.204319 
L 304.887219 171.910104 
L 305.39539 170.557441 
L 305.903561 169.586882 
L 315.050639 169.586882 
L 315.55881 177.080011 
L 316.066981 181.009517 
L 316.575152 179.285572 
L 317.083323 180.196812 
L 317.591494 179.263691 
L 318.099665 180.455441 
L 318.607836 171.077299 
L 319.116007 171.883553 
L 319.624177 171.946659 
L 320.132348 180.393433 
L 320.640519 183.292481 
L 321.14869 182.261932 
L 321.656861 171.81689 
L 322.673203 171.853008 
L 327.754913 171.81262 
L 329.279426 171.780469 
L 329.787597 171.647704 
L 330.295768 170.931538 
L 330.803939 170.569346 
L 331.820281 170.429249 
L 332.328452 169.929523 
L 333.344794 170.033846 
L 334.869307 170.50348 
L 335.885649 170.541837 
L 336.39382 170.671759 
L 337.918333 171.335802 
L 338.934675 171.61463 
L 339.951017 171.594093 
L 342.491872 171.842064 
L 345.032727 171.553352 
L 345.540898 170.967904 
L 351.63895 170.728777 
L 352.147121 170.344647 
L 353.671634 170.317383 
L 354.687976 169.586882 
L 360.277857 169.586882 
L 360.786028 174.016324 
L 361.294199 181.009517 
L 362.310541 164.05313 
L 362.818712 168.576097 
L 363.326883 175.945736 
L 363.835054 180.793193 
L 364.343225 175.141654 
L 364.851396 175.956547 
L 365.359567 169.586882 
L 365.867738 172.377674 
L 366.375909 180.918833 
L 366.88408 173.084771 
L 367.392251 170.933303 
L 367.900422 170.315225 
L 368.408593 170.938348 
L 368.916764 167.600109 
L 369.933106 169.099771 
L 370.441277 169.864392 
L 376.031158 170.211776 
L 378.063842 170.259722 
L 379.588355 169.744118 
L 380.604697 169.752058 
L 381.112868 169.592032 
L 381.621039 169.779546 
L 383.145552 169.783191 
L 385.178236 170.283013 
L 387.21092 170.246151 
L 388.227262 170.478268 
L 391.276288 170.396608 
L 393.817143 170.340912 
L 394.325314 170.128774 
L 400.423366 170.081722 
L 400.931537 169.919346 
L 402.45605 169.913277 
L 403.472392 169.586882 
L 409.570444 169.586882 
L 410.078615 169.718319 
L 410.586786 169.586882 
L 411.094957 173.547261 
L 411.603128 173.668867 
L 412.111299 175.98745 
L 412.61947 175.352797 
L 413.127641 170.112878 
L 413.635812 169.586882 
L 414.143983 172.620391 
L 414.652154 179.500163 
L 415.160325 169.672908 
L 416.176667 170.284668 
L 416.684838 170.777089 
L 417.193009 170.777309 
L 417.70118 168.679825 
L 418.717522 169.350519 
L 419.225693 168.444535 
L 419.733864 169.425364 
L 421.258377 169.619751 
L 425.323745 169.826149 
L 427.356429 169.773781 
L 429.897284 169.62936 
L 430.405455 169.629399 
L 430.405455 169.629399 
" style="fill:none;stroke:#ff7f0e;stroke-dasharray:1.5,2.475;stroke-dashoffset:0;stroke-width:1.5;"/>
   </g>
   <g id="line2d_31">
    <path clip-path="url(#pdb70d0cf7f)" d="M 259.66 207.12 
L 259.66 136.04 
" style="fill:none;stroke:#000000;stroke-dasharray:1.5,2.475;stroke-dashoffset:0;stroke-width:1.5;"/>
   </g>
   <g id="patch_9">
    <path d="M 71.84 207.12 
L 71.84 136.04 
" style="fill:none;stroke:#000000;stroke-linecap:square;stroke-linejoin:miter;stroke-width:0.8;"/>
   </g>
   <g id="patch_10">
    <path d="M 447.48 207.12 
L 447.48 136.04 
" style="fill:none;stroke:#000000;stroke-linecap:square;stroke-linejoin:miter;stroke-width:0.8;"/>
   </g>
   <g id="patch_11">
    <path d="M 71.84 207.12 
L 447.48 207.12 
" style="fill:none;stroke:#000000;stroke-linecap:square;stroke-linejoin:miter;stroke-width:0.8;"/>
   </g>
   <g id="patch_12">
    <path d="M 71.84 136.04 
L 447.48 136.04 
" style="fill:none;stroke:#000000;stroke-linecap:square;stroke-linejoin:miter;stroke-width:0.8;"/>
   </g>
   <g id="text_12">
    <!-- Old building -->
    <defs>
     <path d="M 39.40625 66.21875 
Q 28.65625 66.21875 22.328125 58.203125 
Q 16.015625 50.203125 16.015625 36.375 
Q 16.015625 22.609375 22.328125 14.59375 
Q 28.65625 6.59375 39.40625 6.59375 
Q 50.140625 6.59375 56.421875 14.59375 
Q 62.703125 22.609375 62.703125 36.375 
Q 62.703125 50.203125 56.421875 58.203125 
Q 50.140625 66.21875 39.40625 66.21875 
z
M 39.40625 74.21875 
Q 54.734375 74.21875 63.90625 63.9375 
Q 73.09375 53.65625 73.09375 36.375 
Q 73.09375 19.140625 63.90625 8.859375 
Q 54.734375 -1.421875 39.40625 -1.421875 
Q 24.03125 -1.421875 14.8125 8.828125 
Q 5.609375 19.09375 5.609375 36.375 
Q 5.609375 53.65625 14.8125 63.9375 
Q 24.03125 74.21875 39.40625 74.21875 
z
" id="DejaVuSans-4f"/>
    </defs>
    <g transform="translate(223.52125 130.04)scale(0.12 -0.12)">
     <use xlink:href="#DejaVuSans-4f"/>
     <use x="78.710938" xlink:href="#DejaVuSans-6c"/>
     <use x="106.494141" xlink:href="#DejaVuSans-64"/>
     <use x="169.970703" xlink:href="#DejaVuSans-20"/>
     <use x="201.757812" xlink:href="#DejaVuSans-62"/>
     <use x="265.234375" xlink:href="#DejaVuSans-75"/>
     <use x="328.613281" xlink:href="#DejaVuSans-69"/>
     <use x="356.396484" xlink:href="#DejaVuSans-6c"/>
     <use x="384.179688" xlink:href="#DejaVuSans-64"/>
     <use x="447.65625" xlink:href="#DejaVuSans-69"/>
     <use x="475.439453" xlink:href="#DejaVuSans-6e"/>
     <use x="538.818359" xlink:href="#DejaVuSans-67"/>
    </g>
   </g>
  </g>
  <g id="axes_3">
   <g id="patch_13">
    <path d="M 71.84 317.72 
L 447.48 317.72 
L 447.48 246.64 
L 71.84 246.64 
z
" style="fill:#ffffff;"/>
   </g>
   <g id="matplotlib.axis_5">
    <g id="xtick_17">
     <g id="line2d_32">
      <g>
       <use style="stroke:#000000;stroke-width:0.8;" x="88.914545" xlink:href="#m74b2bae32e" y="317.72"/>
      </g>
     </g>
     <g id="text_13">
      <!-- Jan 01 -->
      <defs>
       <path d="M 9.8125 72.90625 
L 19.671875 72.90625 
L 19.671875 5.078125 
Q 19.671875 -8.109375 14.671875 -14.0625 
Q 9.671875 -20.015625 -1.421875 -20.015625 
L -5.171875 -20.015625 
L -5.171875 -11.71875 
L -2.09375 -11.71875 
Q 4.4375 -11.71875 7.125 -8.046875 
Q 9.8125 -4.390625 9.8125 5.078125 
z
" id="DejaVuSans-4a"/>
       <path d="M 12.40625 8.296875 
L 28.515625 8.296875 
L 28.515625 63.921875 
L 10.984375 60.40625 
L 10.984375 69.390625 
L 28.421875 72.90625 
L 38.28125 72.90625 
L 38.28125 8.296875 
L 54.390625 8.296875 
L 54.390625 0 
L 12.40625 0 
z
" id="DejaVuSans-31"/>
      </defs>
      <g transform="translate(73.25517 332.318437)scale(0.1 -0.1)">
       <use xlink:href="#DejaVuSans-4a"/>
       <use x="29.492188" xlink:href="#DejaVuSans-61"/>
       <use x="90.771484" xlink:href="#DejaVuSans-6e"/>
       <use x="154.150391" xlink:href="#DejaVuSans-20"/>
       <use x="185.9375" xlink:href="#DejaVuSans-30"/>
       <use x="249.560547" xlink:href="#DejaVuSans-31"/>
      </g>
     </g>
    </g>
    <g id="xtick_18">
     <g id="line2d_33">
      <g>
       <use style="stroke:#000000;stroke-width:0.8;" x="137.698961" xlink:href="#m74b2bae32e" y="317.72"/>
      </g>
     </g>
     <g id="text_14">
      <!-- Jan 02 -->
      <g transform="translate(122.039586 332.318437)scale(0.1 -0.1)">
       <use xlink:href="#DejaVuSans-4a"/>
       <use x="29.492188" xlink:href="#DejaVuSans-61"/>
       <use x="90.771484" xlink:href="#DejaVuSans-6e"/>
       <use x="154.150391" xlink:href="#DejaVuSans-20"/>
       <use x="185.9375" xlink:href="#DejaVuSans-30"/>
       <use x="249.560547" xlink:href="#DejaVuSans-32"/>
      </g>
     </g>
    </g>
    <g id="xtick_19">
     <g id="line2d_34">
      <g>
       <use style="stroke:#000000;stroke-width:0.8;" x="186.483377" xlink:href="#m74b2bae32e" y="317.72"/>
      </g>
     </g>
     <g id="text_15">
      <!-- Jan 03 -->
      <defs>
       <path d="M 40.578125 39.3125 
Q 47.65625 37.796875 51.625 33 
Q 55.609375 28.21875 55.609375 21.1875 
Q 55.609375 10.40625 48.1875 4.484375 
Q 40.765625 -1.421875 27.09375 -1.421875 
Q 22.515625 -1.421875 17.65625 -0.515625 
Q 12.796875 0.390625 7.625 2.203125 
L 7.625 11.71875 
Q 11.71875 9.328125 16.59375 8.109375 
Q 21.484375 6.890625 26.8125 6.890625 
Q 36.078125 6.890625 40.9375 10.546875 
Q 45.796875 14.203125 45.796875 21.1875 
Q 45.796875 27.640625 41.28125 31.265625 
Q 36.765625 34.90625 28.71875 34.90625 
L 20.21875 34.90625 
L 20.21875 43.015625 
L 29.109375 43.015625 
Q 36.375 43.015625 40.234375 45.921875 
Q 44.09375 48.828125 44.09375 54.296875 
Q 44.09375 59.90625 40.109375 62.90625 
Q 36.140625 65.921875 28.71875 65.921875 
Q 24.65625 65.921875 20.015625 65.03125 
Q 15.375 64.15625 9.8125 62.3125 
L 9.8125 71.09375 
Q 15.4375 72.65625 20.34375 73.4375 
Q 25.25 74.21875 29.59375 74.21875 
Q 40.828125 74.21875 47.359375 69.109375 
Q 53.90625 64.015625 53.90625 55.328125 
Q 53.90625 49.265625 50.4375 45.09375 
Q 46.96875 40.921875 40.578125 39.3125 
z
" id="DejaVuSans-33"/>
      </defs>
      <g transform="translate(170.824002 332.318437)scale(0.1 -0.1)">
       <use xlink:href="#DejaVuSans-4a"/>
       <use x="29.492188" xlink:href="#DejaVuSans-61"/>
       <use x="90.771484" xlink:href="#DejaVuSans-6e"/>
       <use x="154.150391" xlink:href="#DejaVuSans-20"/>
       <use x="185.9375" xlink:href="#DejaVuSans-30"/>
       <use x="249.560547" xlink:href="#DejaVuSans-33"/>
      </g>
     </g>
    </g>
    <g id="xtick_20">
     <g id="line2d_35">
      <g>
       <use style="stroke:#000000;stroke-width:0.8;" x="235.267792" xlink:href="#m74b2bae32e" y="317.72"/>
      </g>
     </g>
     <g id="text_16">
      <!-- Jan 04 -->
      <defs>
       <path d="M 37.796875 64.3125 
L 12.890625 25.390625 
L 37.796875 25.390625 
z
M 35.203125 72.90625 
L 47.609375 72.90625 
L 47.609375 25.390625 
L 58.015625 25.390625 
L 58.015625 17.1875 
L 47.609375 17.1875 
L 47.609375 0 
L 37.796875 0 
L 37.796875 17.1875 
L 4.890625 17.1875 
L 4.890625 26.703125 
z
" id="DejaVuSans-34"/>
      </defs>
      <g transform="translate(219.608417 332.318437)scale(0.1 -0.1)">
       <use xlink:href="#DejaVuSans-4a"/>
       <use x="29.492188" xlink:href="#DejaVuSans-61"/>
       <use x="90.771484" xlink:href="#DejaVuSans-6e"/>
       <use x="154.150391" xlink:href="#DejaVuSans-20"/>
       <use x="185.9375" xlink:href="#DejaVuSans-30"/>
       <use x="249.560547" xlink:href="#DejaVuSans-34"/>
      </g>
     </g>
    </g>
    <g id="xtick_21">
     <g id="line2d_36">
      <g>
       <use style="stroke:#000000;stroke-width:0.8;" x="284.052208" xlink:href="#m74b2bae32e" y="317.72"/>
      </g>
     </g>
     <g id="text_17">
      <!-- Jan 05 -->
      <g transform="translate(268.392833 332.318437)scale(0.1 -0.1)">
       <use xlink:href="#DejaVuSans-4a"/>
       <use x="29.492188" xlink:href="#DejaVuSans-61"/>
       <use x="90.771484" xlink:href="#DejaVuSans-6e"/>
       <use x="154.150391" xlink:href="#DejaVuSans-20"/>
       <use x="185.9375" xlink:href="#DejaVuSans-30"/>
       <use x="249.560547" xlink:href="#DejaVuSans-35"/>
      </g>
     </g>
    </g>
    <g id="xtick_22">
     <g id="line2d_37">
      <g>
       <use style="stroke:#000000;stroke-width:0.8;" x="332.836623" xlink:href="#m74b2bae32e" y="317.72"/>
      </g>
     </g>
     <g id="text_18">
      <!-- Jan 06 -->
      <defs>
       <path d="M 33.015625 40.375 
Q 26.375 40.375 22.484375 35.828125 
Q 18.609375 31.296875 18.609375 23.390625 
Q 18.609375 15.53125 22.484375 10.953125 
Q 26.375 6.390625 33.015625 6.390625 
Q 39.65625 6.390625 43.53125 10.953125 
Q 47.40625 15.53125 47.40625 23.390625 
Q 47.40625 31.296875 43.53125 35.828125 
Q 39.65625 40.375 33.015625 40.375 
z
M 52.59375 71.296875 
L 52.59375 62.3125 
Q 48.875 64.0625 45.09375 64.984375 
Q 41.3125 65.921875 37.59375 65.921875 
Q 27.828125 65.921875 22.671875 59.328125 
Q 17.53125 52.734375 16.796875 39.40625 
Q 19.671875 43.65625 24.015625 45.921875 
Q 28.375 48.1875 33.59375 48.1875 
Q 44.578125 48.1875 50.953125 41.515625 
Q 57.328125 34.859375 57.328125 23.390625 
Q 57.328125 12.15625 50.6875 5.359375 
Q 44.046875 -1.421875 33.015625 -1.421875 
Q 20.359375 -1.421875 13.671875 8.265625 
Q 6.984375 17.96875 6.984375 36.375 
Q 6.984375 53.65625 15.1875 63.9375 
Q 23.390625 74.21875 37.203125 74.21875 
Q 40.921875 74.21875 44.703125 73.484375 
Q 48.484375 72.75 52.59375 71.296875 
z
" id="DejaVuSans-36"/>
      </defs>
      <g transform="translate(317.177248 332.318437)scale(0.1 -0.1)">
       <use xlink:href="#DejaVuSans-4a"/>
       <use x="29.492188" xlink:href="#DejaVuSans-61"/>
       <use x="90.771484" xlink:href="#DejaVuSans-6e"/>
       <use x="154.150391" xlink:href="#DejaVuSans-20"/>
       <use x="185.9375" xlink:href="#DejaVuSans-30"/>
       <use x="249.560547" xlink:href="#DejaVuSans-36"/>
      </g>
     </g>
    </g>
    <g id="xtick_23">
     <g id="line2d_38">
      <g>
       <use style="stroke:#000000;stroke-width:0.8;" x="381.621039" xlink:href="#m74b2bae32e" y="317.72"/>
      </g>
     </g>
     <g id="text_19">
      <!-- Jan 07 -->
      <defs>
       <path d="M 8.203125 72.90625 
L 55.078125 72.90625 
L 55.078125 68.703125 
L 28.609375 0 
L 18.3125 0 
L 43.21875 64.59375 
L 8.203125 64.59375 
z
" id="DejaVuSans-37"/>
      </defs>
      <g transform="translate(365.961664 332.318437)scale(0.1 -0.1)">
       <use xlink:href="#DejaVuSans-4a"/>
       <use x="29.492188" xlink:href="#DejaVuSans-61"/>
       <use x="90.771484" xlink:href="#DejaVuSans-6e"/>
       <use x="154.150391" xlink:href="#DejaVuSans-20"/>
       <use x="185.9375" xlink:href="#DejaVuSans-30"/>
       <use x="249.560547" xlink:href="#DejaVuSans-37"/>
      </g>
     </g>
    </g>
    <g id="xtick_24">
     <g id="line2d_39">
      <g>
       <use style="stroke:#000000;stroke-width:0.8;" x="430.405455" xlink:href="#m74b2bae32e" y="317.72"/>
      </g>
     </g>
     <g id="text_20">
      <!-- Jan 08 -->
      <defs>
       <path d="M 31.78125 34.625 
Q 24.75 34.625 20.71875 30.859375 
Q 16.703125 27.09375 16.703125 20.515625 
Q 16.703125 13.921875 20.71875 10.15625 
Q 24.75 6.390625 31.78125 6.390625 
Q 38.8125 6.390625 42.859375 10.171875 
Q 46.921875 13.96875 46.921875 20.515625 
Q 46.921875 27.09375 42.890625 30.859375 
Q 38.875 34.625 31.78125 34.625 
z
M 21.921875 38.8125 
Q 15.578125 40.375 12.03125 44.71875 
Q 8.5 49.078125 8.5 55.328125 
Q 8.5 64.0625 14.71875 69.140625 
Q 20.953125 74.21875 31.78125 74.21875 
Q 42.671875 74.21875 48.875 69.140625 
Q 55.078125 64.0625 55.078125 55.328125 
Q 55.078125 49.078125 51.53125 44.71875 
Q 48 40.375 41.703125 38.8125 
Q 48.828125 37.15625 52.796875 32.3125 
Q 56.78125 27.484375 56.78125 20.515625 
Q 56.78125 9.90625 50.3125 4.234375 
Q 43.84375 -1.421875 31.78125 -1.421875 
Q 19.734375 -1.421875 13.25 4.234375 
Q 6.78125 9.90625 6.78125 20.515625 
Q 6.78125 27.484375 10.78125 32.3125 
Q 14.796875 37.15625 21.921875 38.8125 
z
M 18.3125 54.390625 
Q 18.3125 48.734375 21.84375 45.5625 
Q 25.390625 42.390625 31.78125 42.390625 
Q 38.140625 42.390625 41.71875 45.5625 
Q 45.3125 48.734375 45.3125 54.390625 
Q 45.3125 60.0625 41.71875 63.234375 
Q 38.140625 66.40625 31.78125 66.40625 
Q 25.390625 66.40625 21.84375 63.234375 
Q 18.3125 60.0625 18.3125 54.390625 
z
" id="DejaVuSans-38"/>
      </defs>
      <g transform="translate(414.74608 332.318437)scale(0.1 -0.1)">
       <use xlink:href="#DejaVuSans-4a"/>
       <use x="29.492188" xlink:href="#DejaVuSans-61"/>
       <use x="90.771484" xlink:href="#DejaVuSans-6e"/>
       <use x="154.150391" xlink:href="#DejaVuSans-20"/>
       <use x="185.9375" xlink:href="#DejaVuSans-30"/>
       <use x="249.560547" xlink:href="#DejaVuSans-38"/>
      </g>
     </g>
    </g>
   </g>
   <g id="matplotlib.axis_6">
    <g id="ytick_6">
     <g id="line2d_40">
      <g>
       <use style="stroke:#000000;stroke-width:0.8;" x="71.84" xlink:href="#maae6cfebad" y="314.489091"/>
      </g>
     </g>
     <g id="text_21">
      <!-- 0.00 -->
      <defs>
       <path d="M 10.6875 12.40625 
L 21 12.40625 
L 21 0 
L 10.6875 0 
z
" id="DejaVuSans-2e"/>
      </defs>
      <g transform="translate(42.574375 318.28831)scale(0.1 -0.1)">
       <use xlink:href="#DejaVuSans-30"/>
       <use x="63.623047" xlink:href="#DejaVuSans-2e"/>
       <use x="95.410156" xlink:href="#DejaVuSans-30"/>
       <use x="159.033203" xlink:href="#DejaVuSans-30"/>
      </g>
     </g>
    </g>
    <g id="ytick_7">
     <g id="line2d_41">
      <g>
       <use style="stroke:#000000;stroke-width:0.8;" x="71.84" xlink:href="#maae6cfebad" y="290.587616"/>
      </g>
     </g>
     <g id="text_22">
      <!-- 0.25 -->
      <g transform="translate(42.574375 294.386835)scale(0.1 -0.1)">
       <use xlink:href="#DejaVuSans-30"/>
       <use x="63.623047" xlink:href="#DejaVuSans-2e"/>
       <use x="95.410156" xlink:href="#DejaVuSans-32"/>
       <use x="159.033203" xlink:href="#DejaVuSans-35"/>
      </g>
     </g>
    </g>
    <g id="ytick_8">
     <g id="line2d_42">
      <g>
       <use style="stroke:#000000;stroke-width:0.8;" x="71.84" xlink:href="#maae6cfebad" y="266.686141"/>
      </g>
     </g>
     <g id="text_23">
      <!-- 0.50 -->
      <g transform="translate(42.574375 270.48536)scale(0.1 -0.1)">
       <use xlink:href="#DejaVuSans-30"/>
       <use x="63.623047" xlink:href="#DejaVuSans-2e"/>
       <use x="95.410156" xlink:href="#DejaVuSans-35"/>
       <use x="159.033203" xlink:href="#DejaVuSans-30"/>
      </g>
     </g>
    </g>
    <g id="text_24">
     <!-- Mass flow rate [kg/s] -->
     <defs>
      <path d="M 9.8125 72.90625 
L 24.515625 72.90625 
L 43.109375 23.296875 
L 61.8125 72.90625 
L 76.515625 72.90625 
L 76.515625 0 
L 66.890625 0 
L 66.890625 64.015625 
L 48.09375 14.015625 
L 38.1875 14.015625 
L 19.390625 64.015625 
L 19.390625 0 
L 9.8125 0 
z
" id="DejaVuSans-4d"/>
      <path d="M 37.109375 75.984375 
L 37.109375 68.5 
L 28.515625 68.5 
Q 23.6875 68.5 21.796875 66.546875 
Q 19.921875 64.59375 19.921875 59.515625 
L 19.921875 54.6875 
L 34.71875 54.6875 
L 34.71875 47.703125 
L 19.921875 47.703125 
L 19.921875 0 
L 10.890625 0 
L 10.890625 47.703125 
L 2.296875 47.703125 
L 2.296875 54.6875 
L 10.890625 54.6875 
L 10.890625 58.5 
Q 10.890625 67.625 15.140625 71.796875 
Q 19.390625 75.984375 28.609375 75.984375 
z
" id="DejaVuSans-66"/>
      <path d="M 25.390625 72.90625 
L 33.6875 72.90625 
L 8.296875 -9.28125 
L 0 -9.28125 
z
" id="DejaVuSans-2f"/>
     </defs>
     <g transform="translate(36.494687 334.24875)rotate(-90)scale(0.1 -0.1)">
      <use xlink:href="#DejaVuSans-4d"/>
      <use x="86.279297" xlink:href="#DejaVuSans-61"/>
      <use x="147.558594" xlink:href="#DejaVuSans-73"/>
      <use x="199.658203" xlink:href="#DejaVuSans-73"/>
      <use x="251.757812" xlink:href="#DejaVuSans-20"/>
      <use x="283.544922" xlink:href="#DejaVuSans-66"/>
      <use x="318.75" xlink:href="#DejaVuSans-6c"/>
      <use x="346.533203" xlink:href="#DejaVuSans-6f"/>
      <use x="407.714844" xlink:href="#DejaVuSans-77"/>
      <use x="489.501953" xlink:href="#DejaVuSans-20"/>
      <use x="521.289062" xlink:href="#DejaVuSans-72"/>
      <use x="562.402344" xlink:href="#DejaVuSans-61"/>
      <use x="623.681641" xlink:href="#DejaVuSans-74"/>
      <use x="662.890625" xlink:href="#DejaVuSans-65"/>
      <use x="724.414062" xlink:href="#DejaVuSans-20"/>
      <use x="756.201172" xlink:href="#DejaVuSans-5b"/>
      <use x="795.214844" xlink:href="#DejaVuSans-6b"/>
      <use x="853.125" xlink:href="#DejaVuSans-67"/>
      <use x="916.601562" xlink:href="#DejaVuSans-2f"/>
      <use x="950.292969" xlink:href="#DejaVuSans-73"/>
      <use x="1002.392578" xlink:href="#DejaVuSans-5d"/>
     </g>
    </g>
   </g>
   <g id="line2d_43">
    <path clip-path="url(#p0f41241d3c)" d="M 88.914545 307.255149 
L 89.422716 307.106872 
L 89.930887 307.117697 
L 90.439058 307.469096 
L 90.947229 308.088884 
L 98.061623 306.798245 
L 100.602478 306.444299 
L 101.61882 307.432732 
L 103.143333 307.341081 
L 104.159675 309.464097 
L 105.684188 309.452555 
L 106.192359 310.555878 
L 107.208701 310.632567 
L 107.716872 311.701442 
L 108.225043 312.313381 
L 109.749556 312.386841 
L 110.257727 313.923833 
L 110.765898 314.489091 
L 120.929318 314.489091 
L 121.437489 304.322822 
L 121.94566 298.73867 
L 122.453831 291.661058 
L 122.962002 290.440449 
L 123.470173 285.112104 
L 123.978344 286.418504 
L 124.486515 287.281239 
L 124.994686 285.764938 
L 126.011028 286.897143 
L 126.519199 287.467129 
L 127.02737 281.719489 
L 127.535541 282.845043 
L 128.551883 284.195388 
L 130.076396 285.74822 
L 131.600909 286.954534 
L 133.633593 288.21281 
L 134.141764 288.479019 
L 134.649935 289.599952 
L 136.174448 296.484228 
L 136.682619 295.355402 
L 137.19079 295.380368 
L 137.698961 298.96384 
L 138.715303 299.442575 
L 139.223474 295.991468 
L 139.731645 297.971885 
L 142.780671 298.723618 
L 145.829697 299.202062 
L 149.386894 299.553212 
L 150.403236 301.771317 
L 151.927749 301.869332 
L 152.944091 305.779718 
L 154.468604 305.874114 
L 154.976775 307.703666 
L 155.993117 307.793181 
L 156.501288 309.604276 
L 157.009459 310.694627 
L 158.533972 310.708118 
L 159.042143 313.462019 
L 159.550314 314.489091 
L 169.205563 314.489091 
L 169.713734 311.072388 
L 170.221905 297.773651 
L 171.746418 277.904986 
L 172.254589 275.75086 
L 173.270931 278.364931 
L 173.779102 276.327995 
L 174.287273 277.049688 
L 174.795444 271.042679 
L 175.303615 271.103182 
L 176.319957 272.662638 
L 177.336299 274.437527 
L 178.352641 275.855372 
L 179.368983 276.957056 
L 180.385325 277.83514 
L 181.909838 278.814419 
L 183.434351 279.360699 
L 184.958864 288.375103 
L 185.467035 285.896658 
L 185.975206 284.880563 
L 186.483377 290.576929 
L 187.499719 291.676937 
L 188.00789 287.520855 
L 188.516061 290.247848 
L 190.040574 291.390338 
L 192.073258 292.504216 
L 195.122284 293.71283 
L 197.663139 294.491824 
L 198.17131 294.619689 
L 199.187652 297.700211 
L 200.712165 297.812229 
L 201.728506 302.542062 
L 202.744848 302.598201 
L 203.253019 302.683036 
L 203.76119 304.928973 
L 204.777532 305.145498 
L 205.285703 307.348621 
L 205.793874 309.046828 
L 207.318387 309.252399 
L 207.826558 312.929164 
L 208.334729 314.489091 
L 210.367413 314.489091 
L 210.875584 305.214206 
L 211.891926 290.857877 
L 212.400097 289.707149 
L 212.908268 287.843076 
L 217.481807 287.843076 
L 218.498149 272.92897 
L 219.00632 269.49423 
L 219.514491 257.134869 
L 220.022662 250.014195 
L 221.039004 251.744154 
L 221.547175 251.657443 
L 223.071688 252.924075 
L 224.08803 253.574514 
L 225.104372 249.870909 
L 228.153398 251.015331 
L 229.16974 251.496226 
L 231.202424 252.769944 
L 232.726937 253.353453 
L 233.235108 254.053926 
L 233.743279 254.560575 
L 234.25145 256.327161 
L 234.759621 257.688625 
L 236.284134 260.212281 
L 237.300476 261.532618 
L 239.841331 264.264927 
L 241.365844 265.62221 
L 243.398528 267.084667 
L 246.955725 269.16127 
L 249.49658 270.370365 
L 251.021093 271.021557 
L 251.529264 271.356747 
L 252.545606 272.493059 
L 254.57829 275.042433 
L 256.610974 277.223121 
L 258.643658 279.090158 
L 259.151829 279.491469 
L 259.66 314.489091 
L 267.282565 314.489091 
L 267.790736 309.588453 
L 268.298907 306.125613 
L 268.807078 301.843032 
L 269.315249 301.230524 
L 269.82342 297.197571 
L 270.331591 297.55538 
L 270.839762 297.6466 
L 271.347933 296.665137 
L 272.872446 296.497586 
L 273.380617 291.465461 
L 273.888788 291.82676 
L 274.90513 291.917279 
L 277.445985 291.818679 
L 281.003182 291.333588 
L 282.527695 297.379542 
L 283.035866 295.945244 
L 283.544037 295.789413 
L 284.052208 299.339025 
L 285.06855 299.648319 
L 285.576721 296.464435 
L 286.084892 298.025776 
L 290.658431 297.946285 
L 294.215628 297.675546 
L 295.740141 297.371143 
L 296.756483 299.991157 
L 298.280996 299.351331 
L 299.297338 302.995993 
L 299.805509 302.926002 
L 300.31368 303.005016 
L 300.821851 303.249639 
L 301.330022 305.428322 
L 302.346364 306.152219 
L 303.362706 309.957323 
L 304.887219 310.745069 
L 305.39539 313.406856 
L 305.903561 314.489091 
L 315.55881 314.489091 
L 316.066981 313.805665 
L 316.575152 302.272741 
L 317.083323 295.768195 
L 317.591494 287.066369 
L 318.099665 284.892059 
L 318.607836 279.357831 
L 319.116007 280.850338 
L 319.624177 281.85439 
L 320.132348 280.556914 
L 320.640519 281.109184 
L 321.14869 280.214817 
L 321.656861 274.810183 
L 322.673203 276.089406 
L 323.689545 277.476838 
L 325.214058 279.110947 
L 326.738571 280.348649 
L 328.263084 281.296755 
L 329.787597 282.208174 
L 331.31211 290.998331 
L 331.820281 288.14264 
L 332.328452 287.277667 
L 332.836623 292.635204 
L 333.852965 293.439231 
L 334.361136 288.683063 
L 334.869307 291.224281 
L 336.901991 291.790388 
L 338.426504 292.180575 
L 339.442846 292.112772 
L 341.47553 291.922985 
L 342.491872 291.806395 
L 344.524556 291.183072 
L 345.540898 295.086415 
L 347.065411 295.017341 
L 348.081753 299.929235 
L 349.606266 300.03117 
L 350.114437 302.354399 
L 351.130779 302.449985 
L 352.147121 307.228519 
L 353.671634 307.207458 
L 354.179805 311.963528 
L 354.687976 314.489091 
L 360.786028 314.489091 
L 361.294199 314.24484 
L 361.80237 306.031879 
L 362.310541 301.311298 
L 362.818712 305.144544 
L 363.326883 297.225792 
L 363.835054 299.111149 
L 364.343225 290.766077 
L 364.851396 288.277617 
L 365.359567 278.265431 
L 365.867738 277.845812 
L 366.375909 274.480281 
L 366.88408 268.096383 
L 367.392251 266.020384 
L 367.900422 265.750685 
L 368.408593 266.611207 
L 368.916764 263.254718 
L 370.441277 265.411458 
L 371.457619 266.641243 
L 372.982132 268.487351 
L 374.506645 270.074335 
L 376.031158 271.231832 
L 378.063842 272.397344 
L 378.572013 272.675291 
L 379.588355 279.642523 
L 380.096526 282.948052 
L 380.604697 281.225645 
L 381.112868 281.224456 
L 381.621039 286.873835 
L 382.637381 287.702203 
L 383.145552 283.822121 
L 383.653723 286.469131 
L 384.670065 287.019855 
L 386.194578 287.409608 
L 388.227262 287.799072 
L 393.308972 287.475677 
L 394.325314 292.177626 
L 395.849827 292.136508 
L 396.866169 298.011023 
L 397.882511 298.031937 
L 398.390682 298.13728 
L 398.898853 300.972267 
L 399.915195 301.288329 
L 400.931537 306.642954 
L 402.45605 306.960597 
L 402.964221 312.026307 
L 403.472392 314.489091 
L 409.062273 314.489091 
L 409.570444 310.106303 
L 410.078615 302.534281 
L 410.586786 302.665816 
L 411.094957 305.890214 
L 412.111299 299.262797 
L 412.61947 287.874474 
L 413.635812 284.036503 
L 414.143983 277.111483 
L 414.652154 276.821691 
L 415.160325 265.600174 
L 415.668496 265.415736 
L 416.176667 263.029019 
L 417.193009 264.600549 
L 417.70118 260.45818 
L 418.717522 261.835421 
L 420.242035 263.72001 
L 421.766548 265.88231 
L 423.291061 267.485398 
L 424.815574 268.793586 
L 426.340087 269.8158 
L 427.356429 270.470723 
L 428.372771 277.646199 
L 428.880942 280.800902 
L 429.389113 279.473745 
L 429.897284 279.848605 
L 430.405455 285.357098 
L 430.405455 285.357098 
" style="fill:none;stroke:#1f77b4;stroke-linecap:square;stroke-width:1.5;"/>
   </g>
   <g id="line2d_44">
    <path clip-path="url(#p0f41241d3c)" d="M 88.914545 305.304867 
L 89.422716 305.15659 
L 89.930887 305.167415 
L 90.439058 305.518814 
L 90.947229 306.138602 
L 98.061623 304.847963 
L 100.602478 304.494017 
L 101.61882 305.48245 
L 103.143333 305.390799 
L 104.159675 307.513815 
L 105.684188 307.502273 
L 106.192359 308.605596 
L 107.208701 308.682285 
L 107.716872 309.75116 
L 108.225043 310.363099 
L 109.749556 310.43656 
L 110.257727 311.973551 
L 110.765898 312.538809 
L 120.929318 312.538809 
L 121.437489 302.37254 
L 121.94566 296.788388 
L 122.453831 289.710776 
L 122.962002 288.490167 
L 123.470173 283.161822 
L 123.978344 284.468222 
L 124.486515 285.330957 
L 124.994686 283.814656 
L 126.011028 284.946861 
L 126.519199 285.516847 
L 127.02737 279.769207 
L 127.535541 280.894762 
L 128.551883 282.245106 
L 130.076396 283.797938 
L 131.600909 285.004252 
L 133.633593 286.262528 
L 134.141764 286.528737 
L 134.649935 287.64967 
L 136.174448 294.533946 
L 136.682619 293.40512 
L 137.19079 293.430086 
L 137.698961 297.013558 
L 138.715303 297.492293 
L 139.223474 294.041186 
L 139.731645 296.021603 
L 142.780671 296.773336 
L 145.829697 297.25178 
L 149.386894 297.60293 
L 150.403236 299.821035 
L 151.927749 299.91905 
L 152.944091 303.829437 
L 154.468604 303.923832 
L 154.976775 305.753384 
L 155.993117 305.842899 
L 156.501288 307.653994 
L 157.009459 308.744345 
L 158.533972 308.757836 
L 159.042143 311.511737 
L 159.550314 312.538809 
L 169.205563 312.538809 
L 169.713734 309.122106 
L 170.221905 295.823369 
L 171.746418 275.954704 
L 172.254589 273.800578 
L 173.270931 276.414649 
L 173.779102 274.377713 
L 174.287273 275.099406 
L 174.795444 269.092397 
L 175.303615 269.1529 
L 176.319957 270.712356 
L 177.336299 272.487245 
L 178.352641 273.90509 
L 179.368983 275.006774 
L 180.385325 275.884858 
L 181.909838 276.864137 
L 183.434351 277.410417 
L 184.958864 286.424821 
L 185.467035 283.946376 
L 185.975206 282.930281 
L 186.483377 288.626647 
L 187.499719 289.726655 
L 188.00789 285.570573 
L 188.516061 288.297566 
L 190.040574 289.440056 
L 192.073258 290.553934 
L 195.122284 291.762548 
L 197.663139 292.541542 
L 198.17131 292.669407 
L 199.187652 295.749929 
L 200.712165 295.861947 
L 201.728506 300.59178 
L 202.744848 300.647919 
L 203.253019 300.732754 
L 203.76119 302.978691 
L 204.777532 303.195216 
L 205.285703 305.398339 
L 205.793874 307.096546 
L 206.302045 307.16537 
L 206.810216 300.394836 
L 207.318387 300.030284 
L 207.826558 293.311824 
L 208.334729 291.650862 
L 208.8429 291.221997 
L 210.367413 291.221997 
L 210.875584 287.566043 
L 211.383755 285.892794 
L 213.416439 285.892794 
L 213.92461 284.920473 
L 214.940952 270.6665 
L 215.449123 270.6665 
L 215.957294 266.184514 
L 219.00632 266.184514 
L 219.514491 265.928894 
L 220.022662 258.571367 
L 228.661569 258.599675 
L 231.202424 258.976612 
L 234.25145 259.332703 
L 234.759621 259.788877 
L 236.792305 260.518516 
L 239.841331 261.263486 
L 240.857673 261.467102 
L 241.874015 263.169758 
L 243.398528 264.706845 
L 245.431212 266.289723 
L 247.463896 267.619144 
L 249.49658 268.665286 
L 251.529264 269.694106 
L 252.545606 270.838873 
L 254.57829 273.389875 
L 256.610974 275.560207 
L 258.643658 277.411097 
L 259.151829 277.807913 
L 259.66 312.538809 
L 267.282565 312.538809 
L 267.790736 307.574319 
L 268.807078 299.826523 
L 269.315249 299.287694 
L 269.82342 295.262266 
L 270.331591 295.620222 
L 270.839762 295.711331 
L 271.347933 294.797158 
L 272.872446 294.628576 
L 273.380617 289.700504 
L 273.888788 290.047995 
L 275.413301 290.112984 
L 277.954156 289.923924 
L 281.003182 289.475423 
L 282.019524 293.387923 
L 282.527695 295.443532 
L 283.035866 293.846896 
L 283.544037 293.680133 
L 284.052208 297.364142 
L 285.06855 297.69695 
L 285.576721 294.649455 
L 286.084892 296.162583 
L 290.15026 296.110399 
L 294.723799 295.762562 
L 295.740141 295.554046 
L 296.756483 298.296034 
L 298.280996 297.630454 
L 299.297338 301.231154 
L 299.805509 301.155372 
L 300.31368 301.22898 
L 300.821851 301.468544 
L 301.330022 303.61262 
L 302.346364 304.329227 
L 303.362706 308.098087 
L 304.887219 308.848199 
L 305.39539 311.45804 
L 305.903561 312.538809 
L 315.55881 312.538809 
L 316.066981 311.535539 
L 316.575152 300.035311 
L 317.083323 293.762719 
L 317.591494 285.011728 
L 318.099665 282.879843 
L 318.607836 277.355596 
L 319.116007 278.854027 
L 319.624177 279.86337 
L 320.132348 278.603877 
L 320.640519 279.162327 
L 321.14869 279.179631 
L 321.656861 272.868134 
L 322.673203 274.157475 
L 323.689545 275.550513 
L 325.214058 277.190119 
L 326.738571 278.430858 
L 328.263084 279.381198 
L 329.787597 280.278914 
L 331.31211 289.073029 
L 331.820281 286.241937 
L 332.328452 285.42789 
L 332.836623 290.766617 
L 333.852965 291.566358 
L 334.361136 286.819587 
L 334.869307 289.358197 
L 336.39382 289.803169 
L 338.934675 290.342944 
L 341.47553 290.062653 
L 342.491872 289.885302 
L 344.524556 289.26108 
L 345.540898 293.223962 
L 347.065411 293.149389 
L 348.081753 298.046265 
L 349.606266 298.144469 
L 350.114437 300.455339 
L 351.130779 300.54925 
L 352.147121 305.315049 
L 353.671634 305.29329 
L 354.179805 310.027783 
L 354.687976 312.538809 
L 360.786028 312.538809 
L 361.294199 310.635178 
L 361.80237 302.723276 
L 362.310541 299.949041 
L 362.818712 303.739046 
L 363.326883 295.335745 
L 363.835054 297.160867 
L 364.343225 289.267009 
L 364.851396 286.327336 
L 365.359567 276.350672 
L 365.867738 275.93681 
L 366.375909 272.590396 
L 366.88408 266.543275 
L 367.392251 263.946765 
L 368.408593 264.716189 
L 368.916764 261.388461 
L 370.441277 263.541126 
L 371.457619 264.761207 
L 372.982132 266.602141 
L 374.506645 268.184341 
L 376.031158 269.337413 
L 378.063842 270.497549 
L 378.572013 270.766575 
L 380.096526 281.027928 
L 380.604697 279.316087 
L 381.112868 279.310221 
L 381.621039 284.969357 
L 382.637381 285.794934 
L 383.145552 281.902455 
L 383.653723 284.548648 
L 384.670065 285.108497 
L 386.194578 285.495052 
L 388.227262 285.863711 
L 393.308972 285.546863 
L 394.325314 290.272961 
L 395.849827 290.22958 
L 396.866169 296.093332 
L 397.882511 296.113168 
L 398.390682 296.217995 
L 398.898853 299.046692 
L 399.915195 299.365866 
L 400.931537 304.713961 
L 402.45605 305.030833 
L 402.964221 310.082769 
L 403.472392 312.538809 
L 409.062273 312.538809 
L 409.570444 308.191906 
L 410.078615 300.600933 
L 410.586786 300.699532 
L 411.094957 303.49367 
L 412.111299 297.312515 
L 412.61947 286.171932 
L 413.635812 282.086221 
L 414.143983 275.174203 
L 414.652154 273.870549 
L 415.160325 263.231853 
L 415.668496 260.611285 
L 416.176667 261.092947 
L 416.684838 261.852513 
L 417.193009 261.737154 
L 417.70118 260.235279 
L 419.733864 261.087861 
L 421.766548 263.988703 
L 423.291061 265.584343 
L 424.815574 266.886673 
L 426.340087 267.904136 
L 427.356429 268.551737 
L 428.372771 275.704016 
L 428.880942 278.858074 
L 429.389113 277.535219 
L 429.897284 277.934841 
L 430.405455 283.440877 
L 430.405455 283.440877 
" style="fill:none;stroke:#ff7f0e;stroke-dasharray:1.5,2.475;stroke-dashoffset:0;stroke-width:1.5;"/>
   </g>
   <g id="line2d_45">
    <path clip-path="url(#p0f41241d3c)" d="M 259.66 317.72 
L 259.66 246.64 
" style="fill:none;stroke:#000000;stroke-dasharray:1.5,2.475;stroke-dashoffset:0;stroke-width:1.5;"/>
   </g>
   <g id="patch_14">
    <path d="M 71.84 317.72 
L 71.84 246.64 
" style="fill:none;stroke:#000000;stroke-linecap:square;stroke-linejoin:miter;stroke-width:0.8;"/>
   </g>
   <g id="patch_15">
    <path d="M 447.48 317.72 
L 447.48 246.64 
" style="fill:none;stroke:#000000;stroke-linecap:square;stroke-linejoin:miter;stroke-width:0.8;"/>
   </g>
   <g id="patch_16">
    <path d="M 71.84 317.72 
L 447.48 317.72 
" style="fill:none;stroke:#000000;stroke-linecap:square;stroke-linejoin:miter;stroke-width:0.8;"/>
   </g>
   <g id="patch_17">
    <path d="M 71.84 246.64 
L 447.48 246.64 
" style="fill:none;stroke:#000000;stroke-linecap:square;stroke-linejoin:miter;stroke-width:0.8;"/>
   </g>
   <g id="text_25">
    <!-- Mass flow rates -->
    <g transform="translate(213.070937 240.64)scale(0.12 -0.12)">
     <use xlink:href="#DejaVuSans-4d"/>
     <use x="86.279297" xlink:href="#DejaVuSans-61"/>
     <use x="147.558594" xlink:href="#DejaVuSans-73"/>
     <use x="199.658203" xlink:href="#DejaVuSans-73"/>
     <use x="251.757812" xlink:href="#DejaVuSans-20"/>
     <use x="283.544922" xlink:href="#DejaVuSans-66"/>
     <use x="318.75" xlink:href="#DejaVuSans-6c"/>
     <use x="346.533203" xlink:href="#DejaVuSans-6f"/>
     <use x="407.714844" xlink:href="#DejaVuSans-77"/>
     <use x="489.501953" xlink:href="#DejaVuSans-20"/>
     <use x="521.289062" xlink:href="#DejaVuSans-72"/>
     <use x="562.402344" xlink:href="#DejaVuSans-61"/>
     <use x="623.681641" xlink:href="#DejaVuSans-74"/>
     <use x="662.890625" xlink:href="#DejaVuSans-65"/>
     <use x="724.414062" xlink:href="#DejaVuSans-73"/>
    </g>
   </g>
  </g>
 </g>
 <defs>
  <clipPath id="p7ef5ad7222">
   <rect height="71.08" width="375.64" x="71.84" y="25.44"/>
  </clipPath>
  <clipPath id="pdb70d0cf7f">
   <rect height="71.08" width="375.64" x="71.84" y="136.04"/>
  </clipPath>
  <clipPath id="p0f41241d3c">
   <rect height="71.08" width="375.64" x="71.84" y="246.64"/>
  </clipPath>
 </defs>
</svg>
