<?xml version="1.0" encoding="UTF-8" standalone="no"?>
<!-- Created with matplotlib (http://matplotlib.org/) -->

<svg
   xmlns:dc="http://purl.org/dc/elements/1.1/"
   xmlns:cc="http://creativecommons.org/ns#"
   xmlns:rdf="http://www.w3.org/1999/02/22-rdf-syntax-ns#"
   xmlns:svg="http://www.w3.org/2000/svg"
   xmlns="http://www.w3.org/2000/svg"
   xmlns:xlink="http://www.w3.org/1999/xlink"
   xmlns:sodipodi="http://sodipodi.sourceforge.net/DTD/sodipodi-0.dtd"
   xmlns:inkscape="http://www.inkscape.org/namespaces/inkscape"
   height="126.43802pt"
   version="1.1"
   viewBox="0 0 210.33743 126.43802"
   width="210.33743pt"
   id="svg5705"
   sodipodi:docname="radial_district_layout_edit.svg"
   inkscape:version="0.92.2 (5c3e80d, 2017-08-06)">
  <metadata
     id="metadata5709">
    <rdf:RDF>
      <cc:Work
         rdf:about="">
        <dc:format>image/svg+xml</dc:format>
        <dc:type
           rdf:resource="http://purl.org/dc/dcmitype/StillImage" />
        <dc:title></dc:title>
      </cc:Work>
    </rdf:RDF>
  </metadata>
  <sodipodi:namedview
     pagecolor="#ffffff"
     bordercolor="#666666"
     borderopacity="1"
     objecttolerance="10"
     gridtolerance="10"
     guidetolerance="10"
     inkscape:pageopacity="0"
     inkscape:pageshadow="2"
     inkscape:window-width="1920"
     inkscape:window-height="1017"
     id="namedview5707"
     showgrid="false"
     inkscape:zoom="1.4511061"
     inkscape:cx="235.74943"
     inkscape:cy="132.89559"
     inkscape:window-x="-8"
     inkscape:window-y="-8"
     inkscape:window-maximized="1"
     inkscape:current-layer="svg5705"
     fit-margin-top="0"
     fit-margin-left="0"
     fit-margin-right="0"
     fit-margin-bottom="0" />
  <defs
     id="defs5566"
     style="stroke-linecap:butt;stroke-linejoin:round">
    <marker
       inkscape:stockid="DotM"
       orient="auto"
       refY="0"
       refX="0"
       id="marker6531"
       style="overflow:visible"
       inkscape:isstock="true">
      <path
         id="path6529"
         d="m -2.5,-1 c 0,2.76 -2.24,5 -5,5 -2.76,0 -5,-2.24 -5,-5 0,-2.76 2.24,-5 5,-5 2.76,0 5,2.24 5,5 z"
         style="fill:#000000;fill-opacity:1;fill-rule:evenodd;stroke:#000000;stroke-width:1.00000003pt;stroke-linecap:butt;stroke-linejoin:round;stroke-opacity:1"
         transform="matrix(0.4,0,0,0.4,2.96,0.4)"
         inkscape:connector-curvature="0" />
    </marker>
    <marker
       inkscape:stockid="DotM"
       orient="auto"
       refY="0"
       refX="0"
       id="marker6497"
       style="overflow:visible"
       inkscape:isstock="true">
      <path
         id="path6495"
         d="m -2.5,-1 c 0,2.76 -2.24,5 -5,5 -2.76,0 -5,-2.24 -5,-5 0,-2.76 2.24,-5 5,-5 2.76,0 5,2.24 5,5 z"
         style="fill:#000000;fill-opacity:1;fill-rule:evenodd;stroke:#000000;stroke-width:1.00000003pt;stroke-linecap:butt;stroke-linejoin:round;stroke-opacity:1"
         transform="matrix(0.4,0,0,0.4,2.96,0.4)"
         inkscape:connector-curvature="0" />
    </marker>
    <marker
       inkscape:stockid="DotM"
       orient="auto"
       refY="0"
       refX="0"
       id="DotM"
       style="overflow:visible"
       inkscape:isstock="true">
      <path
         id="path4781"
         d="m -2.5,-1 c 0,2.76 -2.24,5 -5,5 -2.76,0 -5,-2.24 -5,-5 0,-2.76 2.24,-5 5,-5 2.76,0 5,2.24 5,5 z"
         style="fill:#000000;fill-opacity:1;fill-rule:evenodd;stroke:#000000;stroke-width:1.00000003pt;stroke-linecap:butt;stroke-linejoin:round;stroke-opacity:1"
         transform="matrix(0.4,0,0,0.4,2.96,0.4)"
         inkscape:connector-curvature="0" />
    </marker>
    <style
       type="text/css"
       id="style5564">
*{stroke-linecap:butt;stroke-linejoin:round;}
  </style>
  </defs>
  <g
     id="text_2"
     style="stroke-linecap:butt;stroke-linejoin:round"
     transform="translate(-16.147006,-27.798812)">
    <g
       clip-path="url(#p9cfd29cbb4)"
       id="g5645"
       style="stroke-linecap:butt;stroke-linejoin:round"
       transform="translate(23.389831,2.9237288)">
      <!-- Street1 -->
      <defs
         id="defs5627">
        <path
           d="m 12.40625,8.296875 h 16.109375 v 55.625 L 10.984375,60.40625 v 8.984375 l 17.4375,3.515625 H 38.28125 V 8.296875 H 54.390625 V 0 H 12.40625 Z"
           id="DejaVuSans-31"
           inkscape:connector-curvature="0"
           style="stroke-linecap:butt;stroke-linejoin:round" />
      </defs>
      <g
         transform="matrix(0.12,0,0,-0.12,17.807402,33.301333)"
         id="g5643"
         style="stroke-linecap:butt;stroke-linejoin:round">
        <path
           style="stroke-linecap:butt;stroke-linejoin:round"
           inkscape:connector-curvature="0"
           id="use5631"
           d="M 81.789062,70.21875 V 54.6875 H 100.28906 V 47.703125 H 81.789062 v -29.6875 q 0,-6.6875 1.828125,-8.59375 1.828125,-1.90625 7.453125,-1.90625 h 9.218748 V 0 H 91.070312 Q 80.664062,0 76.710937,3.875 72.757812,7.765625 72.757812,18.015625 v 29.6875 h -6.59375 V 54.6875 h 6.59375 v 15.53125 z" />
        <path
           style="stroke-linecap:butt;stroke-linejoin:round"
           inkscape:connector-curvature="0"
           id="use5633"
           d="m 143.79492,46.296875 q -1.51562,0.875 -3.29687,1.28125 Q 138.7168,48 136.57617,48 128.95117,48 124.87305,43.046875 120.79492,38.09375 120.79492,28.8125 V 0 h -9.03125 v 54.6875 h 9.03125 v -8.5 q 2.84375,4.984375 7.375,7.390625 Q 132.7168,56 139.2168,56 q 0.92187,0 2.04687,-0.125 1.125,-0.109375 2.48438,-0.359375 z" />
        <path
           style="stroke-linecap:butt;stroke-linejoin:round"
           inkscape:connector-curvature="0"
           id="use5635"
           d="m 199.9707,29.59375 v -4.390625 h -41.3125 q 0.59375,-9.28125 5.59375,-14.140625 5,-4.859375 13.9375,-4.859375 5.17188,0 10.03125,1.265625 4.85938,1.265625 9.65625,3.8125 v -8.5 q -4.84375,-2.046875 -9.92187,-3.125 -5.07813,-1.078125 -10.29688,-1.078125 -13.09375,0 -20.73437,7.609375 -7.64063,7.625 -7.64063,20.625 0,13.421875 7.25,21.296875 Q 163.7832,56 176.0957,56 q 11.03125,0 17.45313,-7.109375 6.42187,-7.09375 6.42187,-19.296875 z m -8.98437,2.640625 q -0.0937,7.359375 -4.125,11.75 -4.03125,4.40625 -10.67188,4.40625 -7.51562,0 -12.03125,-4.25 -4.51562,-4.25 -5.20312,-11.96875 z" />
        <path
           style="stroke-linecap:butt;stroke-linejoin:round"
           inkscape:connector-curvature="0"
           id="use5637"
           d="m 261.49414,29.59375 v -4.390625 h -41.3125 q 0.59375,-9.28125 5.59375,-14.140625 5,-4.859375 13.9375,-4.859375 5.17188,0 10.03125,1.265625 4.85938,1.265625 9.65625,3.8125 v -8.5 q -4.84375,-2.046875 -9.92187,-3.125 -5.07813,-1.078125 -10.29688,-1.078125 -13.09375,0 -20.73437,7.609375 -7.64063,7.625 -7.64063,20.625 0,13.421875 7.25,21.296875 Q 225.30664,56 237.61914,56 q 11.03125,0 17.45313,-7.109375 6.42187,-7.09375 6.42187,-19.296875 z m -8.98437,2.640625 q -0.0937,7.359375 -4.125,11.75 -4.03125,4.40625 -10.67188,4.40625 -7.51562,0 -12.03125,-4.25 -4.51562,-4.25 -5.20312,-11.96875 z" />
        <path
           style="stroke-linecap:butt;stroke-linejoin:round"
           inkscape:connector-curvature="0"
           id="use5639"
           d="M 285.12695,70.21875 V 54.6875 h 18.5 v -6.984375 h -18.5 v -29.6875 q 0,-6.6875 1.82813,-8.59375 1.82812,-1.90625 7.45312,-1.90625 h 9.21875 V 0 h -9.21875 q -10.40625,0 -14.35937,3.875 -3.95313,3.890625 -3.95313,14.140625 v 29.6875 h -6.59375 V 54.6875 h 6.59375 v 15.53125 z" />
      </g>
    </g>
    <text
       xml:space="preserve"
       style="font-style:normal;font-weight:normal;font-size:32px;line-height:1.25;font-family:sans-serif;letter-spacing:0px;word-spacing:0px;fill:#000000;fill-opacity:1;stroke:none;stroke-width:0.75;stroke-linecap:butt;stroke-linejoin:round"
       x="15.072787"
       y="35.888218"
       id="text18540"><tspan
         sodipodi:role="line"
         id="tspan18538"
         style="font-size:11px;stroke-width:0.75;stroke-linecap:butt;stroke-linejoin:round"
         x="15.072787"
         y="35.888218">New s</tspan></text>
  </g>
  <g
     id="text_4"
     style="stroke-linecap:butt;stroke-linejoin:round"
     transform="translate(-71.590812,-124.00822)">
    <g
       clip-path="url(#p9cfd29cbb4)"
       id="g5695"
       style="stroke-linecap:butt;stroke-linejoin:round">
      <!-- Producer -->
      <defs
         id="defs5675">
        <path
           d="M 19.671875,64.796875 V 37.40625 h 12.40625 q 6.890625,0 10.640625,3.5625 3.765625,3.5625 3.765625,10.15625 0,6.546875 -3.765625,10.109375 -3.75,3.5625 -10.640625,3.5625 z M 9.8125,72.90625 h 22.265625 q 12.265625,0 18.53125,-5.546875 6.28125,-5.546875 6.28125,-16.234375 0,-10.796875 -6.28125,-16.3125 -6.265625,-5.515625 -18.53125,-5.515625 H 19.671875 V 0 H 9.8125 Z"
           id="DejaVuSans-50"
           inkscape:connector-curvature="0"
           style="stroke-linecap:butt;stroke-linejoin:round" />
        <path
           d="m 30.609375,48.390625 q -7.21875,0 -11.421875,-5.640625 -4.203125,-5.640625 -4.203125,-15.453125 0,-9.8125 4.171875,-15.453125 4.1875,-5.640625 11.453125,-5.640625 7.1875,0 11.375,5.65625 4.203125,5.671875 4.203125,15.4375 0,9.71875 -4.203125,15.40625 -4.1875,5.6875 -11.375,5.6875 z m 0,7.609375 q 11.71875,0 18.40625,-7.625 6.703125,-7.609375 6.703125,-21.078125 0,-13.421875 -6.703125,-21.078125 -6.6875,-7.640625 -18.40625,-7.640625 -11.765625,0 -18.4375,7.640625 -6.65625,7.65625 -6.65625,21.078125 0,13.46875 6.65625,21.078125 Q 18.84375,56 30.609375,56 Z"
           id="DejaVuSans-6f"
           inkscape:connector-curvature="0"
           style="stroke-linecap:butt;stroke-linejoin:round" />
        <path
           d="m 45.40625,46.390625 v 29.59375 h 8.984375 V 0 H 45.40625 v 8.203125 q -2.828125,-4.875 -7.15625,-7.25 -4.3125,-2.375 -10.375,-2.375 -9.90625,0 -16.140625,7.90625 -6.21875,7.921875 -6.21875,20.8125 0,12.890625 6.21875,20.796875 Q 17.96875,56 27.875,56 q 6.0625,0 10.375,-2.375 4.328125,-2.359375 7.15625,-7.234375 z M 14.796875,27.296875 q 0,-9.90625 4.078125,-15.546875 4.078125,-5.640625 11.203125,-5.640625 7.125,0 11.21875,5.640625 4.109375,5.640625 4.109375,15.546875 0,9.90625 -4.109375,15.546875 -4.09375,5.640625 -11.21875,5.640625 -7.125,0 -11.203125,-5.640625 -4.078125,-5.640625 -4.078125,-15.546875 z"
           id="DejaVuSans-64"
           inkscape:connector-curvature="0"
           style="stroke-linecap:butt;stroke-linejoin:round" />
        <path
           d="M 8.5,21.578125 V 54.6875 h 8.984375 V 21.921875 q 0,-7.765625 3.015625,-11.65625 3.03125,-3.875 9.09375,-3.875 7.265625,0 11.484375,4.640625 4.234375,4.640625 4.234375,12.65625 v 31 h 8.984375 V 0 H 45.3125 V 8.40625 Q 42.046875,3.421875 37.71875,1 33.40625,-1.421875 27.6875,-1.421875 18.265625,-1.421875 13.375,4.4375 8.5,10.296875 8.5,21.578125 Z M 31.109375,56 Z"
           id="DejaVuSans-75"
           inkscape:connector-curvature="0"
           style="stroke-linecap:butt;stroke-linejoin:round" />
        <path
           d="M 48.78125,52.59375 V 44.1875 q -3.8125,2.109375 -7.640625,3.15625 -3.828125,1.046875 -7.734375,1.046875 -8.75,0 -13.59375,-5.546875 -4.828125,-5.53125 -4.828125,-15.546875 0,-10.015625 4.828125,-15.5625 4.84375,-5.53125 13.59375,-5.53125 3.90625,0 7.734375,1.046875 3.828125,1.046875 7.640625,3.15625 v -8.3125 q -3.765625,-1.75 -7.796875,-2.625 -4.015625,-0.890625 -8.5625,-0.890625 -12.359375,0 -19.640625,7.765625 -7.265625,7.765625 -7.265625,20.953125 0,13.375 7.34375,21.03125 Q 20.21875,56 33.015625,56 q 4.140625,0 8.09375,-0.859375 3.953125,-0.84375 7.671875,-2.546875 z"
           id="DejaVuSans-63"
           inkscape:connector-curvature="0"
           style="stroke-linecap:butt;stroke-linejoin:round" />
      </defs>
      <g
         transform="matrix(0.12,0,0,-0.12,140.10705,176.11125)"
         id="g5693"
         style="stroke-linecap:butt;stroke-linejoin:round">
        <use
           xlink:href="#DejaVuSans-50"
           id="use5677"
           style="stroke-linecap:butt;stroke-linejoin:round"
           x="0"
           y="0"
           width="100%"
           height="100%" />
        <path
           style="stroke-linecap:butt;stroke-linejoin:round"
           inkscape:connector-curvature="0"
           id="use5679"
           d="m 101.39648,46.296875 q -1.515621,0.875 -3.296871,1.28125 Q 96.318359,48 94.177734,48 86.552734,48 82.474609,43.046875 78.396484,38.09375 78.396484,28.8125 V 0 h -9.03125 v 54.6875 h 9.03125 v -8.5 q 2.84375,4.984375 7.375,7.390625 Q 90.318359,56 96.818359,56 q 0.921875,0 2.046875,-0.125 1.125,-0.109375 2.484376,-0.359375 z" />
        <use
           x="101.36914"
           xlink:href="#DejaVuSans-6f"
           id="use5681"
           style="stroke-linecap:butt;stroke-linejoin:round"
           y="0"
           width="100%"
           height="100%" />
        <use
           x="162.55078"
           xlink:href="#DejaVuSans-64"
           id="use5683"
           style="stroke-linecap:butt;stroke-linejoin:round"
           y="0"
           width="100%"
           height="100%" />
        <use
           x="226.02734"
           xlink:href="#DejaVuSans-75"
           id="use5685"
           style="stroke-linecap:butt;stroke-linejoin:round"
           y="0"
           width="100%"
           height="100%" />
        <use
           x="289.40625"
           xlink:href="#DejaVuSans-63"
           id="use5687"
           style="stroke-linecap:butt;stroke-linejoin:round"
           y="0"
           width="100%"
           height="100%" />
        <path
           style="stroke-linecap:butt;stroke-linejoin:round"
           inkscape:connector-curvature="0"
           id="use5689"
           d="m 400.58984,29.59375 v -4.390625 h -41.3125 q 0.59375,-9.28125 5.59375,-14.140625 5,-4.859375 13.9375,-4.859375 5.17188,0 10.03125,1.265625 4.85938,1.265625 9.65625,3.8125 v -8.5 q -4.84375,-2.046875 -9.92187,-3.125 -5.07813,-1.078125 -10.29688,-1.078125 -13.09375,0 -20.73437,7.609375 -7.64063,7.625 -7.64063,20.625 0,13.421875 7.25,21.296875 Q 364.40234,56 376.71484,56 q 11.03125,0 17.45313,-7.109375 6.42187,-7.09375 6.42187,-19.296875 z m -8.98437,2.640625 q -0.0937,7.359375 -4.125,11.75 -4.03125,4.40625 -10.67188,4.40625 -7.51562,0 -12.03125,-4.25 -4.51562,-4.25 -5.20312,-11.96875 z" />
        <path
           style="stroke-linecap:butt;stroke-linejoin:round"
           inkscape:connector-curvature="0"
           id="use5691"
           d="m 447.01953,46.296875 q -1.51562,0.875 -3.29687,1.28125 Q 441.94141,48 439.80078,48 432.17578,48 428.09766,43.046875 424.01953,38.09375 424.01953,28.8125 V 0 h -9.03125 v 54.6875 h 9.03125 v -8.5 q 2.84375,4.984375 7.375,7.390625 Q 435.94141,56 442.44141,56 q 0.92187,0 2.04687,-0.125 1.125,-0.109375 2.48438,-0.359375 z" />
      </g>
    </g>
  </g>
  <defs
     id="defs5703">
    <clipPath
       id="p9cfd29cbb4"
       style="stroke-linecap:butt;stroke-linejoin:round">
      <rect
         height="345.60001"
         width="460.79999"
         x="0"
         y="0"
         id="rect5700"
         style="stroke-linecap:butt;stroke-linejoin:round" />
    </clipPath>
  </defs>
  <path
     style="fill:none;stroke:#000000;stroke-width:2.45196843;stroke-linecap:butt;stroke-linejoin:miter;stroke-miterlimit:4;stroke-dasharray:none;stroke-opacity:1;marker-start:url(#DotM);marker-mid:url(#marker6497);marker-end:url(#marker6531)"
     d="M 32.516529,17.506991 70.851887,62.314025 H 127.21624 70.851887 L 31.999679,106.08737"
     id="path6473"
     inkscape:connector-curvature="0"
     sodipodi:nodetypes="ccccc" />
  <g
     transform="translate(-20.79863,90.042335)"
     style="stroke-linecap:butt;stroke-linejoin:round"
     id="g18564">
    <g
       transform="translate(23.389831,2.9237288)"
       style="stroke-linecap:butt;stroke-linejoin:round"
       id="g18558"
       clip-path="url(#p9cfd29cbb4)">
      <!-- Street1 -->
      <defs
         id="defs18544">
        <path
           style="stroke-linecap:butt;stroke-linejoin:round"
           inkscape:connector-curvature="0"
           id="path18542"
           d="m 12.40625,8.296875 h 16.109375 v 55.625 L 10.984375,60.40625 v 8.984375 l 17.4375,3.515625 H 38.28125 V 8.296875 H 54.390625 V 0 H 12.40625 Z" />
      </defs>
      <g
         style="stroke-linecap:butt;stroke-linejoin:round"
         id="g18556"
         transform="matrix(0.12,0,0,-0.12,17.807402,33.301333)">
        <path
           style="stroke-linecap:butt;stroke-linejoin:round"
           inkscape:connector-curvature="0"
           id="use18546"
           d="M 81.789062,70.21875 V 54.6875 H 100.28906 V 47.703125 H 81.789062 v -29.6875 q 0,-6.6875 1.828125,-8.59375 1.828125,-1.90625 7.453125,-1.90625 h 9.218748 V 0 H 91.070312 Q 80.664062,0 76.710937,3.875 72.757812,7.765625 72.757812,18.015625 v 29.6875 h -6.59375 V 54.6875 h 6.59375 v 15.53125 z" />
        <path
           style="stroke-linecap:butt;stroke-linejoin:round"
           inkscape:connector-curvature="0"
           id="use18548"
           d="m 143.79492,46.296875 q -1.51562,0.875 -3.29687,1.28125 Q 138.7168,48 136.57617,48 128.95117,48 124.87305,43.046875 120.79492,38.09375 120.79492,28.8125 V 0 h -9.03125 v 54.6875 h 9.03125 v -8.5 q 2.84375,4.984375 7.375,7.390625 Q 132.7168,56 139.2168,56 q 0.92187,0 2.04687,-0.125 1.125,-0.109375 2.48438,-0.359375 z" />
        <path
           style="stroke-linecap:butt;stroke-linejoin:round"
           inkscape:connector-curvature="0"
           id="use18550"
           d="m 199.9707,29.59375 v -4.390625 h -41.3125 q 0.59375,-9.28125 5.59375,-14.140625 5,-4.859375 13.9375,-4.859375 5.17188,0 10.03125,1.265625 4.85938,1.265625 9.65625,3.8125 v -8.5 q -4.84375,-2.046875 -9.92187,-3.125 -5.07813,-1.078125 -10.29688,-1.078125 -13.09375,0 -20.73437,7.609375 -7.64063,7.625 -7.64063,20.625 0,13.421875 7.25,21.296875 Q 163.7832,56 176.0957,56 q 11.03125,0 17.45313,-7.109375 6.42187,-7.09375 6.42187,-19.296875 z m -8.98437,2.640625 q -0.0937,7.359375 -4.125,11.75 -4.03125,4.40625 -10.67188,4.40625 -7.51562,0 -12.03125,-4.25 -4.51562,-4.25 -5.20312,-11.96875 z" />
        <path
           style="stroke-linecap:butt;stroke-linejoin:round"
           inkscape:connector-curvature="0"
           id="use18552"
           d="m 261.49414,29.59375 v -4.390625 h -41.3125 q 0.59375,-9.28125 5.59375,-14.140625 5,-4.859375 13.9375,-4.859375 5.17188,0 10.03125,1.265625 4.85938,1.265625 9.65625,3.8125 v -8.5 q -4.84375,-2.046875 -9.92187,-3.125 -5.07813,-1.078125 -10.29688,-1.078125 -13.09375,0 -20.73437,7.609375 -7.64063,7.625 -7.64063,20.625 0,13.421875 7.25,21.296875 Q 225.30664,56 237.61914,56 q 11.03125,0 17.45313,-7.109375 6.42187,-7.09375 6.42187,-19.296875 z m -8.98437,2.640625 q -0.0937,7.359375 -4.125,11.75 -4.03125,4.40625 -10.67188,4.40625 -7.51562,0 -12.03125,-4.25 -4.51562,-4.25 -5.20312,-11.96875 z" />
        <path
           style="stroke-linecap:butt;stroke-linejoin:round"
           inkscape:connector-curvature="0"
           id="use18554"
           d="M 285.12695,70.21875 V 54.6875 h 18.5 v -6.984375 h -18.5 v -29.6875 q 0,-6.6875 1.82813,-8.59375 1.82812,-1.90625 7.45312,-1.90625 h 9.21875 V 0 h -9.21875 q -10.40625,0 -14.35937,3.875 -3.95313,3.890625 -3.95313,14.140625 v 29.6875 h -6.59375 V 54.6875 h 6.59375 v 15.53125 z" />
      </g>
    </g>
    <text
       id="text18562"
       y="35.888218"
       x="20.499683"
       style="font-style:normal;font-weight:normal;font-size:32px;line-height:1.25;font-family:sans-serif;letter-spacing:0px;word-spacing:0px;fill:#000000;fill-opacity:1;stroke:none;stroke-width:0.75;stroke-linecap:butt;stroke-linejoin:round"
       xml:space="preserve"><tspan
         y="35.888218"
         x="20.499683"
         style="font-size:11px;stroke-width:0.75;stroke-linecap:butt;stroke-linejoin:round"
         id="tspan18560"
         sodipodi:role="line">Old s</tspan></text>
  </g>
  <g
     id="g18640"
     style="stroke-linecap:butt;stroke-linejoin:round"
     transform="translate(119.00852,29.829645)">
    <g
       clip-path="url(#p9cfd29cbb4)"
       id="g18634"
       style="stroke-linecap:butt;stroke-linejoin:round"
       transform="translate(37.08628,2.9237288)">
      <!-- Street1 -->
      <defs
         id="defs18620">
        <path
           d="m 12.40625,8.296875 h 16.109375 v 55.625 L 10.984375,60.40625 v 8.984375 l 17.4375,3.515625 H 38.28125 V 8.296875 H 54.390625 V 0 H 12.40625 Z"
           id="path18618"
           inkscape:connector-curvature="0"
           style="stroke-linecap:butt;stroke-linejoin:round" />
      </defs>
      <g
         transform="matrix(0.12,0,0,-0.12,17.807402,33.301333)"
         id="g18632"
         style="stroke-linecap:butt;stroke-linejoin:round">
        <path
           d="M 81.789062,70.21875 V 54.6875 H 100.28906 V 47.703125 H 81.789062 v -29.6875 q 0,-6.6875 1.828125,-8.59375 1.828125,-1.90625 7.453125,-1.90625 h 9.218748 V 0 H 91.070312 Q 80.664062,0 76.710937,3.875 72.757812,7.765625 72.757812,18.015625 v 29.6875 h -6.59375 V 54.6875 h 6.59375 v 15.53125 z"
           id="path18622"
           inkscape:connector-curvature="0"
           style="stroke-linecap:butt;stroke-linejoin:round" />
        <path
           d="m 143.79492,46.296875 q -1.51562,0.875 -3.29687,1.28125 Q 138.7168,48 136.57617,48 128.95117,48 124.87305,43.046875 120.79492,38.09375 120.79492,28.8125 V 0 h -9.03125 v 54.6875 h 9.03125 v -8.5 q 2.84375,4.984375 7.375,7.390625 Q 132.7168,56 139.2168,56 q 0.92187,0 2.04687,-0.125 1.125,-0.109375 2.48438,-0.359375 z"
           id="path18624"
           inkscape:connector-curvature="0"
           style="stroke-linecap:butt;stroke-linejoin:round" />
        <path
           d="m 199.9707,29.59375 v -4.390625 h -41.3125 q 0.59375,-9.28125 5.59375,-14.140625 5,-4.859375 13.9375,-4.859375 5.17188,0 10.03125,1.265625 4.85938,1.265625 9.65625,3.8125 v -8.5 q -4.84375,-2.046875 -9.92187,-3.125 -5.07813,-1.078125 -10.29688,-1.078125 -13.09375,0 -20.73437,7.609375 -7.64063,7.625 -7.64063,20.625 0,13.421875 7.25,21.296875 Q 163.7832,56 176.0957,56 q 11.03125,0 17.45313,-7.109375 6.42187,-7.09375 6.42187,-19.296875 z m -8.98437,2.640625 q -0.0937,7.359375 -4.125,11.75 -4.03125,4.40625 -10.67188,4.40625 -7.51562,0 -12.03125,-4.25 -4.51562,-4.25 -5.20312,-11.96875 z"
           id="path18626"
           inkscape:connector-curvature="0"
           style="stroke-linecap:butt;stroke-linejoin:round" />
        <path
           d="m 261.49414,29.59375 v -4.390625 h -41.3125 q 0.59375,-9.28125 5.59375,-14.140625 5,-4.859375 13.9375,-4.859375 5.17188,0 10.03125,1.265625 4.85938,1.265625 9.65625,3.8125 v -8.5 q -4.84375,-2.046875 -9.92187,-3.125 -5.07813,-1.078125 -10.29688,-1.078125 -13.09375,0 -20.73437,7.609375 -7.64063,7.625 -7.64063,20.625 0,13.421875 7.25,21.296875 Q 225.30664,56 237.61914,56 q 11.03125,0 17.45313,-7.109375 6.42187,-7.09375 6.42187,-19.296875 z m -8.98437,2.640625 q -0.0937,7.359375 -4.125,11.75 -4.03125,4.40625 -10.67188,4.40625 -7.51562,0 -12.03125,-4.25 -4.51562,-4.25 -5.20312,-11.96875 z"
           id="path18628"
           inkscape:connector-curvature="0"
           style="stroke-linecap:butt;stroke-linejoin:round" />
        <path
           d="M 285.12695,70.21875 V 54.6875 h 18.5 v -6.984375 h -18.5 v -29.6875 q 0,-6.6875 1.82813,-8.59375 1.82812,-1.90625 7.45312,-1.90625 h 9.21875 V 0 h -9.21875 q -10.40625,0 -14.35937,3.875 -3.95313,3.890625 -3.95313,14.140625 v 29.6875 h -6.59375 V 54.6875 h 6.59375 v 15.53125 z"
           id="path18630"
           inkscape:connector-curvature="0"
           style="stroke-linecap:butt;stroke-linejoin:round" />
      </g>
    </g>
    <text
       xml:space="preserve"
       style="font-style:normal;font-weight:normal;font-size:32px;line-height:1.25;font-family:sans-serif;letter-spacing:0px;word-spacing:0px;fill:#000000;fill-opacity:1;stroke:none;stroke-width:0.75;stroke-linecap:butt;stroke-linejoin:round"
       x="20.499683"
       y="35.888218"
       id="text18638"><tspan
         sodipodi:role="line"
         id="tspan18636"
         style="font-size:11px;stroke-width:0.75;stroke-linecap:butt;stroke-linejoin:round"
         x="20.499683"
         y="35.888218">Mixed s</tspan></text>
  </g>
</svg>
