<?xml version="1.0" encoding="utf-8" standalone="no"?>
<!DOCTYPE svg PUBLIC "-//W3C//DTD SVG 1.1//EN"
  "http://www.w3.org/Graphics/SVG/1.1/DTD/svg11.dtd">
<!-- Created with matplotlib (http://matplotlib.org/) -->
<svg height="345pt" version="1.1" viewBox="0 0 460 345" width="460pt" xmlns="http://www.w3.org/2000/svg" xmlns:xlink="http://www.w3.org/1999/xlink">
 <defs>
  <style type="text/css">
*{stroke-linecap:butt;stroke-linejoin:round;}
  </style>
 </defs>
 <g id="figure_1">
  <g id="patch_1">
   <path d="M 0 345.6 
L 460.8 345.6 
L 460.8 0 
L 0 0 
z
" style="fill:#ffffff;"/>
  </g>
  <g id="axes_1">
   <g id="patch_2">
    <path d="M 48.31 317.72 
L 447.48 317.72 
L 447.48 25.44 
L 48.31 25.44 
z
" style="fill:#ffffff;"/>
   </g>
   <g id="matplotlib.axis_1">
    <g id="xtick_1">
     <g id="line2d_1">
      <defs>
       <path d="M 0 0 
L 0 3.5 
" id="m52a4f0a8da" style="stroke:#000000;stroke-width:0.8;"/>
      </defs>
      <g>
       <use style="stroke:#000000;stroke-width:0.8;" x="55.114034" xlink:href="#m52a4f0a8da" y="317.72"/>
      </g>
     </g>
     <g id="text_1">
      <!-- 12-31 21 -->
      <defs>
       <path d="M 12.40625 8.296875 
L 28.515625 8.296875 
L 28.515625 63.921875 
L 10.984375 60.40625 
L 10.984375 69.390625 
L 28.421875 72.90625 
L 38.28125 72.90625 
L 38.28125 8.296875 
L 54.390625 8.296875 
L 54.390625 0 
L 12.40625 0 
z
" id="DejaVuSans-31"/>
       <path d="M 19.1875 8.296875 
L 53.609375 8.296875 
L 53.609375 0 
L 7.328125 0 
L 7.328125 8.296875 
Q 12.9375 14.109375 22.625 23.890625 
Q 32.328125 33.6875 34.8125 36.53125 
Q 39.546875 41.84375 41.421875 45.53125 
Q 43.3125 49.21875 43.3125 52.78125 
Q 43.3125 58.59375 39.234375 62.25 
Q 35.15625 65.921875 28.609375 65.921875 
Q 23.96875 65.921875 18.8125 64.3125 
Q 13.671875 62.703125 7.8125 59.421875 
L 7.8125 69.390625 
Q 13.765625 71.78125 18.9375 73 
Q 24.125 74.21875 28.421875 74.21875 
Q 39.75 74.21875 46.484375 68.546875 
Q 53.21875 62.890625 53.21875 53.421875 
Q 53.21875 48.921875 51.53125 44.890625 
Q 49.859375 40.875 45.40625 35.40625 
Q 44.1875 33.984375 37.640625 27.21875 
Q 31.109375 20.453125 19.1875 8.296875 
z
" id="DejaVuSans-32"/>
       <path d="M 4.890625 31.390625 
L 31.203125 31.390625 
L 31.203125 23.390625 
L 4.890625 23.390625 
z
" id="DejaVuSans-2d"/>
       <path d="M 40.578125 39.3125 
Q 47.65625 37.796875 51.625 33 
Q 55.609375 28.21875 55.609375 21.1875 
Q 55.609375 10.40625 48.1875 4.484375 
Q 40.765625 -1.421875 27.09375 -1.421875 
Q 22.515625 -1.421875 17.65625 -0.515625 
Q 12.796875 0.390625 7.625 2.203125 
L 7.625 11.71875 
Q 11.71875 9.328125 16.59375 8.109375 
Q 21.484375 6.890625 26.8125 6.890625 
Q 36.078125 6.890625 40.9375 10.546875 
Q 45.796875 14.203125 45.796875 21.1875 
Q 45.796875 27.640625 41.28125 31.265625 
Q 36.765625 34.90625 28.71875 34.90625 
L 20.21875 34.90625 
L 20.21875 43.015625 
L 29.109375 43.015625 
Q 36.375 43.015625 40.234375 45.921875 
Q 44.09375 48.828125 44.09375 54.296875 
Q 44.09375 59.90625 40.109375 62.90625 
Q 36.140625 65.921875 28.71875 65.921875 
Q 24.65625 65.921875 20.015625 65.03125 
Q 15.375 64.15625 9.8125 62.3125 
L 9.8125 71.09375 
Q 15.4375 72.65625 20.34375 73.4375 
Q 25.25 74.21875 29.59375 74.21875 
Q 40.828125 74.21875 47.359375 69.109375 
Q 53.90625 64.015625 53.90625 55.328125 
Q 53.90625 49.265625 50.4375 45.09375 
Q 46.96875 40.921875 40.578125 39.3125 
z
" id="DejaVuSans-33"/>
       <path id="DejaVuSans-20"/>
      </defs>
      <g transform="translate(32.633565 332.318437)scale(0.1 -0.1)">
       <use xlink:href="#DejaVuSans-31"/>
       <use x="63.623047" xlink:href="#DejaVuSans-32"/>
       <use x="127.246094" xlink:href="#DejaVuSans-2d"/>
       <use x="163.330078" xlink:href="#DejaVuSans-33"/>
       <use x="226.953125" xlink:href="#DejaVuSans-31"/>
       <use x="290.576172" xlink:href="#DejaVuSans-20"/>
       <use x="322.363281" xlink:href="#DejaVuSans-32"/>
       <use x="385.986328" xlink:href="#DejaVuSans-31"/>
      </g>
     </g>
    </g>
    <g id="xtick_2">
     <g id="line2d_2">
      <g>
       <use style="stroke:#000000;stroke-width:0.8;" x="100.474261" xlink:href="#m52a4f0a8da" y="317.72"/>
      </g>
     </g>
     <g id="text_2">
      <!-- 01-01 09 -->
      <defs>
       <path d="M 31.78125 66.40625 
Q 24.171875 66.40625 20.328125 58.90625 
Q 16.5 51.421875 16.5 36.375 
Q 16.5 21.390625 20.328125 13.890625 
Q 24.171875 6.390625 31.78125 6.390625 
Q 39.453125 6.390625 43.28125 13.890625 
Q 47.125 21.390625 47.125 36.375 
Q 47.125 51.421875 43.28125 58.90625 
Q 39.453125 66.40625 31.78125 66.40625 
z
M 31.78125 74.21875 
Q 44.046875 74.21875 50.515625 64.515625 
Q 56.984375 54.828125 56.984375 36.375 
Q 56.984375 17.96875 50.515625 8.265625 
Q 44.046875 -1.421875 31.78125 -1.421875 
Q 19.53125 -1.421875 13.0625 8.265625 
Q 6.59375 17.96875 6.59375 36.375 
Q 6.59375 54.828125 13.0625 64.515625 
Q 19.53125 74.21875 31.78125 74.21875 
z
" id="DejaVuSans-30"/>
       <path d="M 10.984375 1.515625 
L 10.984375 10.5 
Q 14.703125 8.734375 18.5 7.8125 
Q 22.3125 6.890625 25.984375 6.890625 
Q 35.75 6.890625 40.890625 13.453125 
Q 46.046875 20.015625 46.78125 33.40625 
Q 43.953125 29.203125 39.59375 26.953125 
Q 35.25 24.703125 29.984375 24.703125 
Q 19.046875 24.703125 12.671875 31.3125 
Q 6.296875 37.9375 6.296875 49.421875 
Q 6.296875 60.640625 12.9375 67.421875 
Q 19.578125 74.21875 30.609375 74.21875 
Q 43.265625 74.21875 49.921875 64.515625 
Q 56.59375 54.828125 56.59375 36.375 
Q 56.59375 19.140625 48.40625 8.859375 
Q 40.234375 -1.421875 26.421875 -1.421875 
Q 22.703125 -1.421875 18.890625 -0.6875 
Q 15.09375 0.046875 10.984375 1.515625 
z
M 30.609375 32.421875 
Q 37.25 32.421875 41.125 36.953125 
Q 45.015625 41.5 45.015625 49.421875 
Q 45.015625 57.28125 41.125 61.84375 
Q 37.25 66.40625 30.609375 66.40625 
Q 23.96875 66.40625 20.09375 61.84375 
Q 16.21875 57.28125 16.21875 49.421875 
Q 16.21875 41.5 20.09375 36.953125 
Q 23.96875 32.421875 30.609375 32.421875 
z
" id="DejaVuSans-39"/>
      </defs>
      <g transform="translate(77.993793 332.318437)scale(0.1 -0.1)">
       <use xlink:href="#DejaVuSans-30"/>
       <use x="63.623047" xlink:href="#DejaVuSans-31"/>
       <use x="127.246094" xlink:href="#DejaVuSans-2d"/>
       <use x="163.330078" xlink:href="#DejaVuSans-30"/>
       <use x="226.953125" xlink:href="#DejaVuSans-31"/>
       <use x="290.576172" xlink:href="#DejaVuSans-20"/>
       <use x="322.363281" xlink:href="#DejaVuSans-30"/>
       <use x="385.986328" xlink:href="#DejaVuSans-39"/>
      </g>
     </g>
    </g>
    <g id="xtick_3">
     <g id="line2d_3">
      <g>
       <use style="stroke:#000000;stroke-width:0.8;" x="145.834489" xlink:href="#m52a4f0a8da" y="317.72"/>
      </g>
     </g>
     <g id="text_3">
      <!-- 01-01 21 -->
      <g transform="translate(123.35402 332.318437)scale(0.1 -0.1)">
       <use xlink:href="#DejaVuSans-30"/>
       <use x="63.623047" xlink:href="#DejaVuSans-31"/>
       <use x="127.246094" xlink:href="#DejaVuSans-2d"/>
       <use x="163.330078" xlink:href="#DejaVuSans-30"/>
       <use x="226.953125" xlink:href="#DejaVuSans-31"/>
       <use x="290.576172" xlink:href="#DejaVuSans-20"/>
       <use x="322.363281" xlink:href="#DejaVuSans-32"/>
       <use x="385.986328" xlink:href="#DejaVuSans-31"/>
      </g>
     </g>
    </g>
    <g id="xtick_4">
     <g id="line2d_4">
      <g>
       <use style="stroke:#000000;stroke-width:0.8;" x="191.194716" xlink:href="#m52a4f0a8da" y="317.72"/>
      </g>
     </g>
     <g id="text_4">
      <!-- 01-02 09 -->
      <g transform="translate(168.714247 332.318437)scale(0.1 -0.1)">
       <use xlink:href="#DejaVuSans-30"/>
       <use x="63.623047" xlink:href="#DejaVuSans-31"/>
       <use x="127.246094" xlink:href="#DejaVuSans-2d"/>
       <use x="163.330078" xlink:href="#DejaVuSans-30"/>
       <use x="226.953125" xlink:href="#DejaVuSans-32"/>
       <use x="290.576172" xlink:href="#DejaVuSans-20"/>
       <use x="322.363281" xlink:href="#DejaVuSans-30"/>
       <use x="385.986328" xlink:href="#DejaVuSans-39"/>
      </g>
     </g>
    </g>
    <g id="xtick_5">
     <g id="line2d_5">
      <g>
       <use style="stroke:#000000;stroke-width:0.8;" x="236.554943" xlink:href="#m52a4f0a8da" y="317.72"/>
      </g>
     </g>
     <g id="text_5">
      <!-- 01-02 21 -->
      <g transform="translate(214.074474 332.318437)scale(0.1 -0.1)">
       <use xlink:href="#DejaVuSans-30"/>
       <use x="63.623047" xlink:href="#DejaVuSans-31"/>
       <use x="127.246094" xlink:href="#DejaVuSans-2d"/>
       <use x="163.330078" xlink:href="#DejaVuSans-30"/>
       <use x="226.953125" xlink:href="#DejaVuSans-32"/>
       <use x="290.576172" xlink:href="#DejaVuSans-20"/>
       <use x="322.363281" xlink:href="#DejaVuSans-32"/>
       <use x="385.986328" xlink:href="#DejaVuSans-31"/>
      </g>
     </g>
    </g>
    <g id="xtick_6">
     <g id="line2d_6">
      <g>
       <use style="stroke:#000000;stroke-width:0.8;" x="281.91517" xlink:href="#m52a4f0a8da" y="317.72"/>
      </g>
     </g>
     <g id="text_6">
      <!-- 01-03 09 -->
      <g transform="translate(259.434702 332.318437)scale(0.1 -0.1)">
       <use xlink:href="#DejaVuSans-30"/>
       <use x="63.623047" xlink:href="#DejaVuSans-31"/>
       <use x="127.246094" xlink:href="#DejaVuSans-2d"/>
       <use x="163.330078" xlink:href="#DejaVuSans-30"/>
       <use x="226.953125" xlink:href="#DejaVuSans-33"/>
       <use x="290.576172" xlink:href="#DejaVuSans-20"/>
       <use x="322.363281" xlink:href="#DejaVuSans-30"/>
       <use x="385.986328" xlink:href="#DejaVuSans-39"/>
      </g>
     </g>
    </g>
    <g id="xtick_7">
     <g id="line2d_7">
      <g>
       <use style="stroke:#000000;stroke-width:0.8;" x="327.275398" xlink:href="#m52a4f0a8da" y="317.72"/>
      </g>
     </g>
     <g id="text_7">
      <!-- 01-03 21 -->
      <g transform="translate(304.794929 332.318437)scale(0.1 -0.1)">
       <use xlink:href="#DejaVuSans-30"/>
       <use x="63.623047" xlink:href="#DejaVuSans-31"/>
       <use x="127.246094" xlink:href="#DejaVuSans-2d"/>
       <use x="163.330078" xlink:href="#DejaVuSans-30"/>
       <use x="226.953125" xlink:href="#DejaVuSans-33"/>
       <use x="290.576172" xlink:href="#DejaVuSans-20"/>
       <use x="322.363281" xlink:href="#DejaVuSans-32"/>
       <use x="385.986328" xlink:href="#DejaVuSans-31"/>
      </g>
     </g>
    </g>
    <g id="xtick_8">
     <g id="line2d_8">
      <g>
       <use style="stroke:#000000;stroke-width:0.8;" x="372.635625" xlink:href="#m52a4f0a8da" y="317.72"/>
      </g>
     </g>
     <g id="text_8">
      <!-- 01-04 09 -->
      <defs>
       <path d="M 37.796875 64.3125 
L 12.890625 25.390625 
L 37.796875 25.390625 
z
M 35.203125 72.90625 
L 47.609375 72.90625 
L 47.609375 25.390625 
L 58.015625 25.390625 
L 58.015625 17.1875 
L 47.609375 17.1875 
L 47.609375 0 
L 37.796875 0 
L 37.796875 17.1875 
L 4.890625 17.1875 
L 4.890625 26.703125 
z
" id="DejaVuSans-34"/>
      </defs>
      <g transform="translate(350.155156 332.318437)scale(0.1 -0.1)">
       <use xlink:href="#DejaVuSans-30"/>
       <use x="63.623047" xlink:href="#DejaVuSans-31"/>
       <use x="127.246094" xlink:href="#DejaVuSans-2d"/>
       <use x="163.330078" xlink:href="#DejaVuSans-30"/>
       <use x="226.953125" xlink:href="#DejaVuSans-34"/>
       <use x="290.576172" xlink:href="#DejaVuSans-20"/>
       <use x="322.363281" xlink:href="#DejaVuSans-30"/>
       <use x="385.986328" xlink:href="#DejaVuSans-39"/>
      </g>
     </g>
    </g>
    <g id="xtick_9">
     <g id="line2d_9">
      <g>
       <use style="stroke:#000000;stroke-width:0.8;" x="417.995852" xlink:href="#m52a4f0a8da" y="317.72"/>
      </g>
     </g>
     <g id="text_9">
      <!-- 01-04 21 -->
      <g transform="translate(395.515384 332.318437)scale(0.1 -0.1)">
       <use xlink:href="#DejaVuSans-30"/>
       <use x="63.623047" xlink:href="#DejaVuSans-31"/>
       <use x="127.246094" xlink:href="#DejaVuSans-2d"/>
       <use x="163.330078" xlink:href="#DejaVuSans-30"/>
       <use x="226.953125" xlink:href="#DejaVuSans-34"/>
       <use x="290.576172" xlink:href="#DejaVuSans-20"/>
       <use x="322.363281" xlink:href="#DejaVuSans-32"/>
       <use x="385.986328" xlink:href="#DejaVuSans-31"/>
      </g>
     </g>
    </g>
   </g>
   <g id="matplotlib.axis_2">
    <g id="ytick_1">
     <g id="line2d_10">
      <defs>
       <path d="M 0 0 
L -3.5 0 
" id="mb2a1090d0d" style="stroke:#000000;stroke-width:0.8;"/>
      </defs>
      <g>
       <use style="stroke:#000000;stroke-width:0.8;" x="48.31" xlink:href="#mb2a1090d0d" y="291.638875"/>
      </g>
     </g>
     <g id="text_10">
      <!-- −0.50 -->
      <defs>
       <path d="M 10.59375 35.5 
L 73.1875 35.5 
L 73.1875 27.203125 
L 10.59375 27.203125 
z
" id="DejaVuSans-2212"/>
       <path d="M 10.6875 12.40625 
L 21 12.40625 
L 21 0 
L 10.6875 0 
z
" id="DejaVuSans-2e"/>
       <path d="M 10.796875 72.90625 
L 49.515625 72.90625 
L 49.515625 64.59375 
L 19.828125 64.59375 
L 19.828125 46.734375 
Q 21.96875 47.46875 24.109375 47.828125 
Q 26.265625 48.1875 28.421875 48.1875 
Q 40.625 48.1875 47.75 41.5 
Q 54.890625 34.8125 54.890625 23.390625 
Q 54.890625 11.625 47.5625 5.09375 
Q 40.234375 -1.421875 26.90625 -1.421875 
Q 22.3125 -1.421875 17.546875 -0.640625 
Q 12.796875 0.140625 7.71875 1.703125 
L 7.71875 11.625 
Q 12.109375 9.234375 16.796875 8.0625 
Q 21.484375 6.890625 26.703125 6.890625 
Q 35.15625 6.890625 40.078125 11.328125 
Q 45.015625 15.765625 45.015625 23.390625 
Q 45.015625 31 40.078125 35.4375 
Q 35.15625 39.890625 26.703125 39.890625 
Q 22.75 39.890625 18.8125 39.015625 
Q 14.890625 38.140625 10.796875 36.28125 
z
" id="DejaVuSans-35"/>
      </defs>
      <g transform="translate(10.664687 295.438094)scale(0.1 -0.1)">
       <use xlink:href="#DejaVuSans-2212"/>
       <use x="83.789062" xlink:href="#DejaVuSans-30"/>
       <use x="147.412109" xlink:href="#DejaVuSans-2e"/>
       <use x="179.199219" xlink:href="#DejaVuSans-35"/>
       <use x="242.822266" xlink:href="#DejaVuSans-30"/>
      </g>
     </g>
    </g>
    <g id="ytick_2">
     <g id="line2d_11">
      <g>
       <use style="stroke:#000000;stroke-width:0.8;" x="48.31" xlink:href="#mb2a1090d0d" y="251.513972"/>
      </g>
     </g>
     <g id="text_11">
      <!-- −0.25 -->
      <g transform="translate(10.664687 255.313191)scale(0.1 -0.1)">
       <use xlink:href="#DejaVuSans-2212"/>
       <use x="83.789062" xlink:href="#DejaVuSans-30"/>
       <use x="147.412109" xlink:href="#DejaVuSans-2e"/>
       <use x="179.199219" xlink:href="#DejaVuSans-32"/>
       <use x="242.822266" xlink:href="#DejaVuSans-35"/>
      </g>
     </g>
    </g>
    <g id="ytick_3">
     <g id="line2d_12">
      <g>
       <use style="stroke:#000000;stroke-width:0.8;" x="48.31" xlink:href="#mb2a1090d0d" y="211.389069"/>
      </g>
     </g>
     <g id="text_12">
      <!-- 0.00 -->
      <g transform="translate(19.044375 215.188288)scale(0.1 -0.1)">
       <use xlink:href="#DejaVuSans-30"/>
       <use x="63.623047" xlink:href="#DejaVuSans-2e"/>
       <use x="95.410156" xlink:href="#DejaVuSans-30"/>
       <use x="159.033203" xlink:href="#DejaVuSans-30"/>
      </g>
     </g>
    </g>
    <g id="ytick_4">
     <g id="line2d_13">
      <g>
       <use style="stroke:#000000;stroke-width:0.8;" x="48.31" xlink:href="#mb2a1090d0d" y="171.264166"/>
      </g>
     </g>
     <g id="text_13">
      <!-- 0.25 -->
      <g transform="translate(19.044375 175.063385)scale(0.1 -0.1)">
       <use xlink:href="#DejaVuSans-30"/>
       <use x="63.623047" xlink:href="#DejaVuSans-2e"/>
       <use x="95.410156" xlink:href="#DejaVuSans-32"/>
       <use x="159.033203" xlink:href="#DejaVuSans-35"/>
      </g>
     </g>
    </g>
    <g id="ytick_5">
     <g id="line2d_14">
      <g>
       <use style="stroke:#000000;stroke-width:0.8;" x="48.31" xlink:href="#mb2a1090d0d" y="131.139263"/>
      </g>
     </g>
     <g id="text_14">
      <!-- 0.50 -->
      <g transform="translate(19.044375 134.938482)scale(0.1 -0.1)">
       <use xlink:href="#DejaVuSans-30"/>
       <use x="63.623047" xlink:href="#DejaVuSans-2e"/>
       <use x="95.410156" xlink:href="#DejaVuSans-35"/>
       <use x="159.033203" xlink:href="#DejaVuSans-30"/>
      </g>
     </g>
    </g>
    <g id="ytick_6">
     <g id="line2d_15">
      <g>
       <use style="stroke:#000000;stroke-width:0.8;" x="48.31" xlink:href="#mb2a1090d0d" y="91.01436"/>
      </g>
     </g>
     <g id="text_15">
      <!-- 0.75 -->
      <defs>
       <path d="M 8.203125 72.90625 
L 55.078125 72.90625 
L 55.078125 68.703125 
L 28.609375 0 
L 18.3125 0 
L 43.21875 64.59375 
L 8.203125 64.59375 
z
" id="DejaVuSans-37"/>
      </defs>
      <g transform="translate(19.044375 94.813579)scale(0.1 -0.1)">
       <use xlink:href="#DejaVuSans-30"/>
       <use x="63.623047" xlink:href="#DejaVuSans-2e"/>
       <use x="95.410156" xlink:href="#DejaVuSans-37"/>
       <use x="159.033203" xlink:href="#DejaVuSans-35"/>
      </g>
     </g>
    </g>
    <g id="ytick_7">
     <g id="line2d_16">
      <g>
       <use style="stroke:#000000;stroke-width:0.8;" x="48.31" xlink:href="#mb2a1090d0d" y="50.889457"/>
      </g>
     </g>
     <g id="text_16">
      <!-- 1.00 -->
      <g transform="translate(19.044375 54.688676)scale(0.1 -0.1)">
       <use xlink:href="#DejaVuSans-31"/>
       <use x="63.623047" xlink:href="#DejaVuSans-2e"/>
       <use x="95.410156" xlink:href="#DejaVuSans-30"/>
       <use x="159.033203" xlink:href="#DejaVuSans-30"/>
      </g>
     </g>
    </g>
    <g id="text_17">
     <!-- 1e8 -->
     <defs>
      <path d="M 56.203125 29.59375 
L 56.203125 25.203125 
L 14.890625 25.203125 
Q 15.484375 15.921875 20.484375 11.0625 
Q 25.484375 6.203125 34.421875 6.203125 
Q 39.59375 6.203125 44.453125 7.46875 
Q 49.3125 8.734375 54.109375 11.28125 
L 54.109375 2.78125 
Q 49.265625 0.734375 44.1875 -0.34375 
Q 39.109375 -1.421875 33.890625 -1.421875 
Q 20.796875 -1.421875 13.15625 6.1875 
Q 5.515625 13.8125 5.515625 26.8125 
Q 5.515625 40.234375 12.765625 48.109375 
Q 20.015625 56 32.328125 56 
Q 43.359375 56 49.78125 48.890625 
Q 56.203125 41.796875 56.203125 29.59375 
z
M 47.21875 32.234375 
Q 47.125 39.59375 43.09375 43.984375 
Q 39.0625 48.390625 32.421875 48.390625 
Q 24.90625 48.390625 20.390625 44.140625 
Q 15.875 39.890625 15.1875 32.171875 
z
" id="DejaVuSans-65"/>
      <path d="M 31.78125 34.625 
Q 24.75 34.625 20.71875 30.859375 
Q 16.703125 27.09375 16.703125 20.515625 
Q 16.703125 13.921875 20.71875 10.15625 
Q 24.75 6.390625 31.78125 6.390625 
Q 38.8125 6.390625 42.859375 10.171875 
Q 46.921875 13.96875 46.921875 20.515625 
Q 46.921875 27.09375 42.890625 30.859375 
Q 38.875 34.625 31.78125 34.625 
z
M 21.921875 38.8125 
Q 15.578125 40.375 12.03125 44.71875 
Q 8.5 49.078125 8.5 55.328125 
Q 8.5 64.0625 14.71875 69.140625 
Q 20.953125 74.21875 31.78125 74.21875 
Q 42.671875 74.21875 48.875 69.140625 
Q 55.078125 64.0625 55.078125 55.328125 
Q 55.078125 49.078125 51.53125 44.71875 
Q 48 40.375 41.703125 38.8125 
Q 48.828125 37.15625 52.796875 32.3125 
Q 56.78125 27.484375 56.78125 20.515625 
Q 56.78125 9.90625 50.3125 4.234375 
Q 43.84375 -1.421875 31.78125 -1.421875 
Q 19.734375 -1.421875 13.25 4.234375 
Q 6.78125 9.90625 6.78125 20.515625 
Q 6.78125 27.484375 10.78125 32.3125 
Q 14.796875 37.15625 21.921875 38.8125 
z
M 18.3125 54.390625 
Q 18.3125 48.734375 21.84375 45.5625 
Q 25.390625 42.390625 31.78125 42.390625 
Q 38.140625 42.390625 41.71875 45.5625 
Q 45.3125 48.734375 45.3125 54.390625 
Q 45.3125 60.0625 41.71875 63.234375 
Q 38.140625 66.40625 31.78125 66.40625 
Q 25.390625 66.40625 21.84375 63.234375 
Q 18.3125 60.0625 18.3125 54.390625 
z
" id="DejaVuSans-38"/>
     </defs>
     <g transform="translate(48.31 22.44)scale(0.1 -0.1)">
      <use xlink:href="#DejaVuSans-31"/>
      <use x="63.623047" xlink:href="#DejaVuSans-65"/>
      <use x="125.146484" xlink:href="#DejaVuSans-38"/>
     </g>
    </g>
   </g>
   <g id="line2d_17">
    <path clip-path="url(#p51af00c1a9)" d="M 66.454091 211.389069 
L 196.864744 211.389069 
L 197.179746 140.104989 
L 197.494747 140.104989 
L 197.809749 140.922438 
L 198.439752 140.922438 
L 198.754754 142.813861 
L 199.384757 142.813861 
L 199.699759 142.608312 
L 200.329762 142.627739 
L 200.644763 144.248809 
L 200.959765 148.60646 
L 201.589768 163.689165 
L 201.90477 166.407322 
L 202.534773 167.848591 
L 204.109781 168.02047 
L 204.424782 168.332208 
L 205.054785 168.332461 
L 205.369787 168.783615 
L 205.99979 168.864979 
L 206.314792 169.318055 
L 206.629793 170.547019 
L 206.944795 173.55421 
L 207.574798 186.571785 
L 208.204801 200.409435 
L 208.519803 204.956322 
L 208.834804 207.794874 
L 209.149806 209.421557 
L 209.464807 210.285885 
L 209.779809 210.728041 
L 210.094811 234.510614 
L 210.724814 234.560387 
L 211.039815 237.465597 
L 211.669819 237.479887 
L 211.98482 236.909517 
L 212.614823 236.911379 
L 212.929825 237.139345 
L 213.559828 237.138916 
L 213.87483 237.487621 
L 214.504833 237.483979 
L 214.819834 238.158515 
L 215.449837 238.153354 
L 215.764839 238.515745 
L 217.339847 238.544405 
L 217.654848 239.142885 
L 218.284852 239.138435 
L 218.599853 239.5896 
L 219.544858 239.596162 
L 219.85986 239.470047 
L 220.174861 238.828447 
L 220.489863 238.48143 
L 221.119866 233.717332 
L 221.749869 231.865484 
L 222.064871 231.498436 
L 222.379872 231.640023 
L 223.009875 231.57149 
L 223.639878 231.669569 
L 224.899885 231.688429 
L 225.214886 231.933403 
L 225.84489 231.930247 
L 226.159891 233.285616 
L 226.789894 233.283004 
L 227.104896 234.384049 
L 228.679904 234.405332 
L 228.994905 233.410411 
L 229.624908 233.409403 
L 229.93991 233.571851 
L 231.514918 233.578196 
L 232.144921 232.948455 
L 232.774924 231.513016 
L 233.089926 229.235971 
L 234.349932 216.436212 
L 234.664934 214.704259 
L 234.979935 213.631503 
L 235.609938 212.532169 
L 236.239942 211.931418 
L 236.869945 211.618349 
L 237.814949 211.440068 
L 240.019961 211.390144 
L 321.920371 211.389069 
L 429.020908 211.389069 
L 429.020908 211.389069 
" style="fill:none;stroke:#1f77b4;stroke-linecap:square;stroke-width:1.5;"/>
   </g>
   <g id="line2d_18">
    <path clip-path="url(#p51af00c1a9)" d="M 66.454091 211.389069 
L 150.559512 211.389069 
L 151.504517 190.60151 
L 152.449522 184.90235 
L 153.394527 98.42107 
L 154.339531 94.16657 
L 155.284536 82.709427 
L 157.174545 76.748114 
L 158.11955 77.710587 
L 159.064555 75.583539 
L 160.00956 87.439568 
L 160.954564 84.927742 
L 161.899569 83.863139 
L 162.844574 79.667443 
L 163.789579 79.383106 
L 164.734583 79.386354 
L 165.679588 60.940725 
L 166.624593 56.996614 
L 167.569598 63.705146 
L 168.514602 51.580939 
L 169.459607 61.962045 
L 170.404612 55.351759 
L 171.349616 46.838441 
L 173.239626 48.112816 
L 175.129635 49.374141 
L 177.96465 51.947694 
L 178.909654 52.814365 
L 179.854659 75.418412 
L 180.799664 72.989351 
L 181.744669 76.63522 
L 182.689673 83.749916 
L 183.634678 94.648745 
L 184.579683 107.95212 
L 185.524688 53.579629 
L 186.469692 81.781392 
L 187.414697 91.228118 
L 188.359702 121.145364 
L 189.304706 125.898813 
L 190.249711 143.077214 
L 191.194716 157.250131 
L 192.139721 165.415476 
L 193.084725 169.733962 
L 194.02973 156.876921 
L 194.974735 162.049829 
L 195.91974 161.886997 
L 196.864744 178.609384 
L 197.809749 184.144943 
L 198.754754 178.36565 
L 199.699759 169.954596 
L 200.644763 171.288662 
L 201.589768 173.30136 
L 202.534773 181.084941 
L 203.479777 187.685593 
L 204.424782 192.940757 
L 205.369787 187.425637 
L 206.314792 181.157073 
L 207.259796 184.152647 
L 208.204801 186.509558 
L 209.149806 185.899 
L 210.094811 304.434545 
L 211.039815 298.601878 
L 211.98482 296.867903 
L 212.929825 294.570922 
L 213.87483 292.923312 
L 214.819834 292.128734 
L 215.764839 290.668265 
L 216.709844 288.673188 
L 217.654848 287.846498 
L 218.599853 286.362596 
L 219.544858 290.005708 
L 220.489863 285.154157 
L 222.379872 282.910192 
L 224.269882 279.729705 
L 225.214886 278.549324 
L 226.159891 277.957425 
L 227.104896 276.420525 
L 228.049901 275.491467 
L 228.994905 274.157189 
L 229.93991 273.609244 
L 230.884915 272.245325 
L 231.82992 271.566432 
L 234.664934 267.9537 
L 235.609938 267.457208 
L 236.554943 265.731077 
L 238.444953 262.849092 
L 241.279967 258.921273 
L 244.114981 255.326921 
L 246.949995 252.029534 
L 249.785009 248.998798 
L 253.565028 245.328784 
L 257.345047 242.036282 
L 258.290052 241.266949 
L 259.235057 237.253175 
L 260.180062 240.056309 
L 261.125066 239.143527 
L 262.070071 218.779726 
L 266.795095 217.906387 
L 267.740099 222.526308 
L 268.685104 225.998628 
L 269.630109 225.363357 
L 270.575114 236.642542 
L 271.520118 235.311267 
L 275.300137 233.009774 
L 279.080156 230.937945 
L 283.80518 228.635313 
L 288.530204 226.613905 
L 293.255227 224.838202 
L 297.980251 223.277306 
L 303.650279 221.650169 
L 309.320308 220.253876 
L 315.935341 218.87175 
L 322.550374 217.712886 
L 330.110412 216.614355 
L 338.615455 215.612851 
L 348.065502 214.731266 
L 358.460554 213.979694 
L 370.745616 213.313358 
L 385.865691 212.730837 
L 403.820781 212.270083 
L 427.4459 211.901649 
L 428.390904 211.890799 
L 429.335909 211.389069 
L 429.335909 211.389069 
" style="fill:none;stroke:#ff7f0e;stroke-linecap:square;stroke-width:1.5;"/>
   </g>
   <g id="line2d_19">
    <path clip-path="url(#p51af00c1a9)" d="M 66.454091 211.389069 
L 194.659733 211.389069 
L 194.974735 155.287393 
L 195.604738 155.287393 
L 195.91974 156.09638 
L 196.549743 156.09638 
L 196.864744 151.03155 
L 197.494747 151.03155 
L 197.809749 150.003813 
L 198.439752 150.003813 
L 198.754754 153.825073 
L 199.069755 154.091066 
L 199.384757 155.960781 
L 200.01476 168.677749 
L 200.329762 172.646039 
L 200.644763 174.847519 
L 200.959765 175.433989 
L 201.274766 175.60066 
L 201.589768 175.894125 
L 202.219771 175.913406 
L 202.534773 174.573697 
L 203.164776 174.570426 
L 203.479777 173.230801 
L 204.109781 173.228475 
L 204.424782 172.386488 
L 205.054785 172.387065 
L 205.369787 174.051805 
L 205.684789 174.103695 
L 205.99979 174.39575 
L 206.629793 178.903935 
L 206.944795 183.134922 
L 207.8898 201.603096 
L 208.204801 205.36507 
L 208.519803 207.771482 
L 208.834804 209.22001 
L 209.149806 210.082877 
L 209.464807 210.568204 
L 209.779809 210.839903 
L 210.094811 265.322794 
L 210.724814 265.438606 
L 211.039815 266.416385 
L 211.669819 266.430049 
L 211.98482 265.27705 
L 212.614823 265.277501 
L 212.929825 264.742695 
L 213.559828 264.742285 
L 213.87483 264.54526 
L 214.504833 264.437118 
L 214.819834 263.566368 
L 215.764839 249.389859 
L 216.079841 247.47031 
L 216.709844 246.155021 
L 217.339847 246.086277 
L 217.654848 246.297546 
L 219.229856 246.26944 
L 219.544858 247.071095 
L 220.174861 247.07064 
L 220.489863 246.886248 
L 221.119866 246.880858 
L 221.434867 247.127529 
L 221.749869 246.866894 
L 222.064871 245.942746 
L 222.379872 243.623944 
L 222.694874 239.291263 
L 223.639878 221.129832 
L 223.95488 217.241501 
L 224.269882 214.754334 
L 224.584883 213.289827 
L 224.899885 212.43817 
L 225.214886 211.954113 
L 225.84489 211.541458 
L 226.789894 211.407308 
L 230.884915 211.38907 
L 429.020908 211.389069 
L 429.020908 211.389069 
" style="fill:none;stroke:#2ca02c;stroke-linecap:square;stroke-width:1.5;"/>
   </g>
   <g id="line2d_20">
    <path clip-path="url(#p51af00c1a9)" d="M 66.454091 211.389069 
L 152.449522 211.389069 
L 153.394527 95.693167 
L 154.339531 93.202372 
L 155.284536 81.77844 
L 157.174545 75.879334 
L 158.11955 76.870947 
L 159.064555 74.771819 
L 160.00956 86.65461 
L 160.954564 84.111672 
L 161.899569 83.083992 
L 162.844574 78.910222 
L 163.789579 78.646542 
L 164.734583 78.669853 
L 165.679588 60.24371 
L 166.624593 56.318527 
L 167.569598 63.045444 
L 168.514602 50.939097 
L 169.459607 61.337553 
L 170.404612 54.744121 
L 171.349616 46.247179 
L 173.239626 47.552924 
L 175.129635 48.843869 
L 177.96465 51.458794 
L 178.909654 52.338488 
L 179.854659 74.955193 
L 180.799664 72.538437 
L 181.744669 76.196267 
L 182.689673 83.32259 
L 183.634678 105.010805 
L 184.579683 119.357165 
L 185.524688 38.725455 
L 186.469692 73.923882 
L 187.414697 85.254794 
L 188.359702 116.254226 
L 189.304706 121.593903 
L 190.249711 139.46369 
L 191.194716 154.277182 
L 192.139721 163.415186 
L 193.084725 168.216101 
L 194.02973 155.818518 
L 194.974735 161.517244 
L 195.91974 161.990815 
L 196.864744 179.050506 
L 197.809749 184.349741 
L 198.754754 178.553839 
L 199.699759 170.127986 
L 200.644763 171.448852 
L 201.589768 173.449757 
L 202.534773 181.222787 
L 203.479777 187.813985 
L 204.424782 193.060663 
L 205.369787 187.537912 
L 206.314792 181.262472 
L 207.259796 184.251836 
L 208.204801 186.603128 
L 209.149806 185.987473 
L 210.094811 304.330525 
L 211.039815 298.502672 
L 211.98482 296.773216 
L 212.929825 294.480516 
L 213.87483 292.836977 
L 214.819834 292.046275 
L 215.764839 290.589499 
L 216.709844 288.597942 
L 217.654848 287.774608 
L 218.599853 286.293908 
L 219.544858 289.940074 
L 220.489863 285.091438 
L 222.379872 282.852914 
L 224.269882 279.67739 
L 225.214886 278.499327 
L 226.159891 277.909644 
L 227.104896 276.374863 
L 228.049901 275.447832 
L 228.994905 274.115494 
L 229.93991 273.569405 
L 230.884915 272.207263 
L 231.82992 271.530072 
L 234.664934 267.922028 
L 235.609938 267.560067 
L 237.499948 264.322548 
L 240.334962 260.265641 
L 243.169976 256.557419 
L 246.004991 253.15855 
L 248.840005 250.036629 
L 252.620024 246.258389 
L 256.400043 242.870453 
L 258.290052 241.308483 
L 259.235057 237.306715 
L 260.180062 240.094481 
L 261.125066 239.181427 
L 262.070071 218.829257 
L 266.795095 217.950055 
L 267.740099 222.568906 
L 268.685104 226.040188 
L 269.630109 225.403908 
L 270.575114 236.668079 
L 271.520118 235.336937 
L 275.300137 233.032731 
L 279.080156 230.958469 
L 283.80518 228.653141 
L 288.530204 226.629378 
L 293.255227 224.851618 
L 297.980251 223.288924 
L 303.650279 221.659928 
L 309.320308 220.262059 
L 315.935341 218.878395 
L 322.550374 217.718265 
L 330.110412 216.618563 
L 338.615455 215.616023 
L 348.065502 214.733563 
L 358.460554 213.981283 
L 370.745616 213.314364 
L 385.865691 212.731383 
L 403.820781 212.270317 
L 427.4459 211.90169 
L 428.390904 211.890836 
L 429.335909 211.389069 
L 429.335909 211.389069 
" style="fill:none;stroke:#d62728;stroke-linecap:square;stroke-width:1.5;"/>
   </g>
   <g id="patch_3">
    <path d="M 48.31 317.72 
L 48.31 25.44 
" style="fill:none;stroke:#000000;stroke-linecap:square;stroke-linejoin:miter;stroke-width:0.8;"/>
   </g>
   <g id="patch_4">
    <path d="M 447.48 317.72 
L 447.48 25.44 
" style="fill:none;stroke:#000000;stroke-linecap:square;stroke-linejoin:miter;stroke-width:0.8;"/>
   </g>
   <g id="patch_5">
    <path d="M 48.31 317.72 
L 447.48 317.72 
" style="fill:none;stroke:#000000;stroke-linecap:square;stroke-linejoin:miter;stroke-width:0.8;"/>
   </g>
   <g id="patch_6">
    <path d="M 48.31 25.44 
L 447.48 25.44 
" style="fill:none;stroke:#000000;stroke-linecap:square;stroke-linejoin:miter;stroke-width:0.8;"/>
   </g>
   <g id="text_18">
    <!-- Genk -->
    <defs>
     <path d="M 59.515625 10.40625 
L 59.515625 29.984375 
L 43.40625 29.984375 
L 43.40625 38.09375 
L 69.28125 38.09375 
L 69.28125 6.78125 
Q 63.578125 2.734375 56.6875 0.65625 
Q 49.8125 -1.421875 42 -1.421875 
Q 24.90625 -1.421875 15.25 8.5625 
Q 5.609375 18.5625 5.609375 36.375 
Q 5.609375 54.25 15.25 64.234375 
Q 24.90625 74.21875 42 74.21875 
Q 49.125 74.21875 55.546875 72.453125 
Q 61.96875 70.703125 67.390625 67.28125 
L 67.390625 56.78125 
Q 61.921875 61.421875 55.765625 63.765625 
Q 49.609375 66.109375 42.828125 66.109375 
Q 29.4375 66.109375 22.71875 58.640625 
Q 16.015625 51.171875 16.015625 36.375 
Q 16.015625 21.625 22.71875 14.15625 
Q 29.4375 6.6875 42.828125 6.6875 
Q 48.046875 6.6875 52.140625 7.59375 
Q 56.25 8.5 59.515625 10.40625 
z
" id="DejaVuSans-47"/>
     <path d="M 54.890625 33.015625 
L 54.890625 0 
L 45.90625 0 
L 45.90625 32.71875 
Q 45.90625 40.484375 42.875 44.328125 
Q 39.84375 48.1875 33.796875 48.1875 
Q 26.515625 48.1875 22.3125 43.546875 
Q 18.109375 38.921875 18.109375 30.90625 
L 18.109375 0 
L 9.078125 0 
L 9.078125 54.6875 
L 18.109375 54.6875 
L 18.109375 46.1875 
Q 21.34375 51.125 25.703125 53.5625 
Q 30.078125 56 35.796875 56 
Q 45.21875 56 50.046875 50.171875 
Q 54.890625 44.34375 54.890625 33.015625 
z
" id="DejaVuSans-6e"/>
     <path d="M 9.078125 75.984375 
L 18.109375 75.984375 
L 18.109375 31.109375 
L 44.921875 54.6875 
L 56.390625 54.6875 
L 27.390625 29.109375 
L 57.625 0 
L 45.90625 0 
L 18.109375 26.703125 
L 18.109375 0 
L 9.078125 0 
z
" id="DejaVuSans-6b"/>
    </defs>
    <g transform="translate(232.277188 19.44)scale(0.12 -0.12)">
     <use xlink:href="#DejaVuSans-47"/>
     <use x="77.490234" xlink:href="#DejaVuSans-65"/>
     <use x="139.013672" xlink:href="#DejaVuSans-6e"/>
     <use x="202.392578" xlink:href="#DejaVuSans-6b"/>
    </g>
   </g>
  </g>
 </g>
 <defs>
  <clipPath id="p51af00c1a9">
   <rect height="292.28" width="399.17" x="48.31" y="25.44"/>
  </clipPath>
 </defs>
</svg>
