<?xml version="1.0" encoding="utf-8" standalone="no"?>
<!DOCTYPE svg PUBLIC "-//W3C//DTD SVG 1.1//EN"
  "http://www.w3.org/Graphics/SVG/1.1/DTD/svg11.dtd">
<!-- Created with matplotlib (http://matplotlib.org/) -->
<svg height="360pt" version="1.1" viewBox="0 0 576 360" width="576pt" xmlns="http://www.w3.org/2000/svg" xmlns:xlink="http://www.w3.org/1999/xlink">
 <defs>
  <style type="text/css">
*{stroke-linecap:butt;stroke-linejoin:round;}
  </style>
 </defs>
 <g id="figure_1">
  <g id="patch_1">
   <path d="M 0 360 
L 576 360 
L 576 0 
L 0 0 
z
" style="fill:#ffffff;"/>
  </g>
  <g id="axes_1">
   <g id="patch_2">
    <path d="M 79.22 90.403652 
L 562.68 90.403652 
L 562.68 25.44 
L 79.22 25.44 
z
" style="fill:#ffffff;"/>
   </g>
   <g id="matplotlib.axis_1">
    <g id="xtick_1">
     <g id="line2d_1">
      <defs>
       <path d="M 0 0 
L 0 3.5 
" id="m10a07e6678" style="stroke:#000000;stroke-width:0.8;"/>
      </defs>
      <g>
       <use style="stroke:#000000;stroke-width:0.8;" x="87.460795" xlink:href="#m10a07e6678" y="90.403652"/>
      </g>
     </g>
    </g>
    <g id="xtick_2">
     <g id="line2d_2">
      <g>
       <use style="stroke:#000000;stroke-width:0.8;" x="142.399432" xlink:href="#m10a07e6678" y="90.403652"/>
      </g>
     </g>
    </g>
    <g id="xtick_3">
     <g id="line2d_3">
      <g>
       <use style="stroke:#000000;stroke-width:0.8;" x="197.338068" xlink:href="#m10a07e6678" y="90.403652"/>
      </g>
     </g>
    </g>
    <g id="xtick_4">
     <g id="line2d_4">
      <g>
       <use style="stroke:#000000;stroke-width:0.8;" x="252.276705" xlink:href="#m10a07e6678" y="90.403652"/>
      </g>
     </g>
    </g>
    <g id="xtick_5">
     <g id="line2d_5">
      <g>
       <use style="stroke:#000000;stroke-width:0.8;" x="307.215341" xlink:href="#m10a07e6678" y="90.403652"/>
      </g>
     </g>
    </g>
    <g id="xtick_6">
     <g id="line2d_6">
      <g>
       <use style="stroke:#000000;stroke-width:0.8;" x="362.153977" xlink:href="#m10a07e6678" y="90.403652"/>
      </g>
     </g>
    </g>
    <g id="xtick_7">
     <g id="line2d_7">
      <g>
       <use style="stroke:#000000;stroke-width:0.8;" x="417.092614" xlink:href="#m10a07e6678" y="90.403652"/>
      </g>
     </g>
    </g>
    <g id="xtick_8">
     <g id="line2d_8">
      <g>
       <use style="stroke:#000000;stroke-width:0.8;" x="472.03125" xlink:href="#m10a07e6678" y="90.403652"/>
      </g>
     </g>
    </g>
    <g id="xtick_9">
     <g id="line2d_9">
      <g>
       <use style="stroke:#000000;stroke-width:0.8;" x="526.969886" xlink:href="#m10a07e6678" y="90.403652"/>
      </g>
     </g>
    </g>
   </g>
   <g id="matplotlib.axis_2">
    <g id="ytick_1">
     <g id="line2d_10">
      <defs>
       <path d="M 0 0 
L -3.5 0 
" id="me1eb7d4440" style="stroke:#000000;stroke-width:0.8;"/>
      </defs>
      <g>
       <use style="stroke:#000000;stroke-width:0.8;" x="79.22" xlink:href="#me1eb7d4440" y="86.306437"/>
      </g>
     </g>
     <g id="text_1">
      <!-- −25000 -->
      <defs>
       <path d="M 10.59375 35.5 
L 73.1875 35.5 
L 73.1875 27.203125 
L 10.59375 27.203125 
z
" id="DejaVuSans-2212"/>
       <path d="M 19.1875 8.296875 
L 53.609375 8.296875 
L 53.609375 0 
L 7.328125 0 
L 7.328125 8.296875 
Q 12.9375 14.109375 22.625 23.890625 
Q 32.328125 33.6875 34.8125 36.53125 
Q 39.546875 41.84375 41.421875 45.53125 
Q 43.3125 49.21875 43.3125 52.78125 
Q 43.3125 58.59375 39.234375 62.25 
Q 35.15625 65.921875 28.609375 65.921875 
Q 23.96875 65.921875 18.8125 64.3125 
Q 13.671875 62.703125 7.8125 59.421875 
L 7.8125 69.390625 
Q 13.765625 71.78125 18.9375 73 
Q 24.125 74.21875 28.421875 74.21875 
Q 39.75 74.21875 46.484375 68.546875 
Q 53.21875 62.890625 53.21875 53.421875 
Q 53.21875 48.921875 51.53125 44.890625 
Q 49.859375 40.875 45.40625 35.40625 
Q 44.1875 33.984375 37.640625 27.21875 
Q 31.109375 20.453125 19.1875 8.296875 
z
" id="DejaVuSans-32"/>
       <path d="M 10.796875 72.90625 
L 49.515625 72.90625 
L 49.515625 64.59375 
L 19.828125 64.59375 
L 19.828125 46.734375 
Q 21.96875 47.46875 24.109375 47.828125 
Q 26.265625 48.1875 28.421875 48.1875 
Q 40.625 48.1875 47.75 41.5 
Q 54.890625 34.8125 54.890625 23.390625 
Q 54.890625 11.625 47.5625 5.09375 
Q 40.234375 -1.421875 26.90625 -1.421875 
Q 22.3125 -1.421875 17.546875 -0.640625 
Q 12.796875 0.140625 7.71875 1.703125 
L 7.71875 11.625 
Q 12.109375 9.234375 16.796875 8.0625 
Q 21.484375 6.890625 26.703125 6.890625 
Q 35.15625 6.890625 40.078125 11.328125 
Q 45.015625 15.765625 45.015625 23.390625 
Q 45.015625 31 40.078125 35.4375 
Q 35.15625 39.890625 26.703125 39.890625 
Q 22.75 39.890625 18.8125 39.015625 
Q 14.890625 38.140625 10.796875 36.28125 
z
" id="DejaVuSans-35"/>
       <path d="M 31.78125 66.40625 
Q 24.171875 66.40625 20.328125 58.90625 
Q 16.5 51.421875 16.5 36.375 
Q 16.5 21.390625 20.328125 13.890625 
Q 24.171875 6.390625 31.78125 6.390625 
Q 39.453125 6.390625 43.28125 13.890625 
Q 47.125 21.390625 47.125 36.375 
Q 47.125 51.421875 43.28125 58.90625 
Q 39.453125 66.40625 31.78125 66.40625 
z
M 31.78125 74.21875 
Q 44.046875 74.21875 50.515625 64.515625 
Q 56.984375 54.828125 56.984375 36.375 
Q 56.984375 17.96875 50.515625 8.265625 
Q 44.046875 -1.421875 31.78125 -1.421875 
Q 19.53125 -1.421875 13.0625 8.265625 
Q 6.59375 17.96875 6.59375 36.375 
Q 6.59375 54.828125 13.0625 64.515625 
Q 19.53125 74.21875 31.78125 74.21875 
z
" id="DejaVuSans-30"/>
      </defs>
      <g transform="translate(32.027813 90.105656)scale(0.1 -0.1)">
       <use xlink:href="#DejaVuSans-2212"/>
       <use x="83.789062" xlink:href="#DejaVuSans-32"/>
       <use x="147.412109" xlink:href="#DejaVuSans-35"/>
       <use x="211.035156" xlink:href="#DejaVuSans-30"/>
       <use x="274.658203" xlink:href="#DejaVuSans-30"/>
       <use x="338.28125" xlink:href="#DejaVuSans-30"/>
      </g>
     </g>
    </g>
    <g id="ytick_2">
     <g id="line2d_11">
      <g>
       <use style="stroke:#000000;stroke-width:0.8;" x="79.22" xlink:href="#me1eb7d4440" y="65.663244"/>
      </g>
     </g>
     <g id="text_2">
      <!-- 0 -->
      <g transform="translate(65.8575 69.462462)scale(0.1 -0.1)">
       <use xlink:href="#DejaVuSans-30"/>
      </g>
     </g>
    </g>
    <g id="ytick_3">
     <g id="line2d_12">
      <g>
       <use style="stroke:#000000;stroke-width:0.8;" x="79.22" xlink:href="#me1eb7d4440" y="45.02005"/>
      </g>
     </g>
     <g id="text_3">
      <!-- 25000 -->
      <g transform="translate(40.4075 48.819269)scale(0.1 -0.1)">
       <use xlink:href="#DejaVuSans-32"/>
       <use x="63.623047" xlink:href="#DejaVuSans-35"/>
       <use x="127.246094" xlink:href="#DejaVuSans-30"/>
       <use x="190.869141" xlink:href="#DejaVuSans-30"/>
       <use x="254.492188" xlink:href="#DejaVuSans-30"/>
      </g>
     </g>
    </g>
    <g id="text_4">
     <!-- Heat [W] -->
     <defs>
      <path d="M 9.8125 72.90625 
L 19.671875 72.90625 
L 19.671875 43.015625 
L 55.515625 43.015625 
L 55.515625 72.90625 
L 65.375 72.90625 
L 65.375 0 
L 55.515625 0 
L 55.515625 34.71875 
L 19.671875 34.71875 
L 19.671875 0 
L 9.8125 0 
z
" id="DejaVuSans-48"/>
      <path d="M 56.203125 29.59375 
L 56.203125 25.203125 
L 14.890625 25.203125 
Q 15.484375 15.921875 20.484375 11.0625 
Q 25.484375 6.203125 34.421875 6.203125 
Q 39.59375 6.203125 44.453125 7.46875 
Q 49.3125 8.734375 54.109375 11.28125 
L 54.109375 2.78125 
Q 49.265625 0.734375 44.1875 -0.34375 
Q 39.109375 -1.421875 33.890625 -1.421875 
Q 20.796875 -1.421875 13.15625 6.1875 
Q 5.515625 13.8125 5.515625 26.8125 
Q 5.515625 40.234375 12.765625 48.109375 
Q 20.015625 56 32.328125 56 
Q 43.359375 56 49.78125 48.890625 
Q 56.203125 41.796875 56.203125 29.59375 
z
M 47.21875 32.234375 
Q 47.125 39.59375 43.09375 43.984375 
Q 39.0625 48.390625 32.421875 48.390625 
Q 24.90625 48.390625 20.390625 44.140625 
Q 15.875 39.890625 15.1875 32.171875 
z
" id="DejaVuSans-65"/>
      <path d="M 34.28125 27.484375 
Q 23.390625 27.484375 19.1875 25 
Q 14.984375 22.515625 14.984375 16.5 
Q 14.984375 11.71875 18.140625 8.90625 
Q 21.296875 6.109375 26.703125 6.109375 
Q 34.1875 6.109375 38.703125 11.40625 
Q 43.21875 16.703125 43.21875 25.484375 
L 43.21875 27.484375 
z
M 52.203125 31.203125 
L 52.203125 0 
L 43.21875 0 
L 43.21875 8.296875 
Q 40.140625 3.328125 35.546875 0.953125 
Q 30.953125 -1.421875 24.3125 -1.421875 
Q 15.921875 -1.421875 10.953125 3.296875 
Q 6 8.015625 6 15.921875 
Q 6 25.140625 12.171875 29.828125 
Q 18.359375 34.515625 30.609375 34.515625 
L 43.21875 34.515625 
L 43.21875 35.40625 
Q 43.21875 41.609375 39.140625 45 
Q 35.0625 48.390625 27.6875 48.390625 
Q 23 48.390625 18.546875 47.265625 
Q 14.109375 46.140625 10.015625 43.890625 
L 10.015625 52.203125 
Q 14.9375 54.109375 19.578125 55.046875 
Q 24.21875 56 28.609375 56 
Q 40.484375 56 46.34375 49.84375 
Q 52.203125 43.703125 52.203125 31.203125 
z
" id="DejaVuSans-61"/>
      <path d="M 18.3125 70.21875 
L 18.3125 54.6875 
L 36.8125 54.6875 
L 36.8125 47.703125 
L 18.3125 47.703125 
L 18.3125 18.015625 
Q 18.3125 11.328125 20.140625 9.421875 
Q 21.96875 7.515625 27.59375 7.515625 
L 36.8125 7.515625 
L 36.8125 0 
L 27.59375 0 
Q 17.1875 0 13.234375 3.875 
Q 9.28125 7.765625 9.28125 18.015625 
L 9.28125 47.703125 
L 2.6875 47.703125 
L 2.6875 54.6875 
L 9.28125 54.6875 
L 9.28125 70.21875 
z
" id="DejaVuSans-74"/>
      <path id="DejaVuSans-20"/>
      <path d="M 8.59375 75.984375 
L 29.296875 75.984375 
L 29.296875 69 
L 17.578125 69 
L 17.578125 -6.203125 
L 29.296875 -6.203125 
L 29.296875 -13.1875 
L 8.59375 -13.1875 
z
" id="DejaVuSans-5b"/>
      <path d="M 3.328125 72.90625 
L 13.28125 72.90625 
L 28.609375 11.28125 
L 43.890625 72.90625 
L 54.984375 72.90625 
L 70.3125 11.28125 
L 85.59375 72.90625 
L 95.609375 72.90625 
L 77.296875 0 
L 64.890625 0 
L 49.515625 63.28125 
L 33.984375 0 
L 21.578125 0 
z
" id="DejaVuSans-57"/>
      <path d="M 30.421875 75.984375 
L 30.421875 -13.1875 
L 9.71875 -13.1875 
L 9.71875 -6.203125 
L 21.390625 -6.203125 
L 21.390625 69 
L 9.71875 69 
L 9.71875 75.984375 
z
" id="DejaVuSans-5d"/>
     </defs>
     <g transform="translate(25.948125 80.217139)rotate(-90)scale(0.1 -0.1)">
      <use xlink:href="#DejaVuSans-48"/>
      <use x="75.195312" xlink:href="#DejaVuSans-65"/>
      <use x="136.71875" xlink:href="#DejaVuSans-61"/>
      <use x="197.998047" xlink:href="#DejaVuSans-74"/>
      <use x="237.207031" xlink:href="#DejaVuSans-20"/>
      <use x="268.994141" xlink:href="#DejaVuSans-5b"/>
      <use x="308.007812" xlink:href="#DejaVuSans-57"/>
      <use x="406.884766" xlink:href="#DejaVuSans-5d"/>
     </g>
    </g>
   </g>
   <g id="line2d_13">
    <path clip-path="url(#p20255124a6)" d="M 275.167803 90.403652 
L 275.167803 25.44 
" style="fill:none;stroke:#000000;stroke-dasharray:2,3.3;stroke-dashoffset:0;stroke-width:2;"/>
   </g>
   <g id="line2d_14">
    <path clip-path="url(#p20255124a6)" d="M 101.195455 65.663244 
L 201.916288 65.663244 
L 203.060843 62.052472 
L 204.205398 62.348664 
L 205.349953 62.420865 
L 206.494508 58.880315 
L 207.639062 59.244804 
L 215.650947 60.139089 
L 216.795502 57.846099 
L 217.940057 58.154643 
L 220.229167 39.108317 
L 221.373722 33.251995 
L 223.662831 33.775631 
L 227.096496 34.41571 
L 228.241051 29.891613 
L 232.819271 30.487892 
L 233.963826 28.392893 
L 235.108381 29.377691 
L 236.252936 29.579454 
L 237.397491 32.703831 
L 238.542045 39.986477 
L 239.6866 33.734735 
L 240.831155 33.384227 
L 241.97571 35.320051 
L 243.120265 36.24989 
L 244.26482 36.176126 
L 245.409375 36.289072 
L 246.55393 44.164563 
L 247.698485 49.551658 
L 248.84304 60.045406 
L 249.987595 59.260448 
L 256.854924 58.687371 
L 259.144034 58.537493 
L 260.288589 53.190861 
L 261.433144 59.067881 
L 262.577699 58.511972 
L 268.300473 57.845987 
L 274.023248 57.395771 
L 275.167803 78.409793 
L 276.312358 77.031455 
L 279.746023 76.258182 
L 280.890578 87.237117 
L 282.035133 86.279525 
L 285.468797 85.276317 
L 286.613352 87.450759 
L 287.757907 75.989195 
L 288.902462 78.103372 
L 296.914347 75.954411 
L 302.637121 74.678216 
L 309.504451 73.38129 
L 317.516335 72.127111 
L 318.66089 71.182306 
L 326.672775 70.199257 
L 327.81733 69.285186 
L 330.106439 69.109192 
L 331.250994 68.591078 
L 332.395549 67.780159 
L 336.973769 67.575323 
L 338.118324 66.187835 
L 346.130208 66.103089 
L 347.274763 66.849913 
L 349.563873 66.886449 
L 351.852983 66.940064 
L 352.997538 70.130585 
L 354.142093 77.892381 
L 355.286648 77.258143 
L 357.575758 66.570623 
L 358.720312 68.023984 
L 362.153977 67.815502 
L 369.021307 67.520915 
L 370.165862 68.608076 
L 371.310417 68.018328 
L 385.045076 67.41962 
L 388.478741 67.358536 
L 391.912405 67.369281 
L 393.05696 75.145835 
L 394.201515 78.180673 
L 395.34607 67.290006 
L 396.490625 67.054329 
L 415.948059 66.625628 
L 427.393608 66.445887 
L 428.538163 66.287546 
L 429.682718 65.890071 
L 435.405492 65.859231 
L 438.839157 66.067416 
L 439.983712 65.968433 
L 441.128267 66.090699 
L 442.272822 65.799464 
L 443.417377 66.893503 
L 444.561932 65.767373 
L 445.706487 65.898641 
L 447.995597 65.864395 
L 452.573816 65.944128 
L 456.007481 65.979897 
L 457.152036 66.124417 
L 462.874811 66.050471 
L 466.308475 66.022415 
L 467.45303 68.61903 
L 468.597585 65.936003 
L 469.74214 66.126947 
L 474.32036 66.285648 
L 475.464915 77.267044 
L 476.60947 69.070133 
L 477.754025 65.965972 
L 483.476799 65.892686 
L 489.199574 65.887027 
L 540.704545 65.663244 
L 540.704545 65.663244 
" style="fill:none;stroke:#1f77b4;stroke-linecap:square;stroke-width:2;"/>
   </g>
   <g id="line2d_15">
    <path clip-path="url(#p20255124a6)" d="M 101.195455 65.663244 
L 201.916288 65.663244 
L 203.060843 62.052472 
L 204.205398 62.348664 
L 205.349953 62.420865 
L 206.494508 58.880315 
L 207.639062 59.244804 
L 215.650947 60.139089 
L 216.795502 57.846099 
L 217.940057 58.154643 
L 220.229167 39.124832 
L 221.373722 33.276767 
L 223.662831 33.800403 
L 227.096496 34.440482 
L 228.241051 29.924642 
L 232.819271 30.520921 
L 233.963826 28.425922 
L 235.108381 29.41072 
L 236.252936 29.612483 
L 237.397491 32.728603 
L 238.542045 40.011249 
L 239.6866 33.759506 
L 240.831155 33.408999 
L 241.97571 35.344823 
L 243.120265 36.274662 
L 244.26482 36.200898 
L 245.409375 36.313844 
L 246.55393 44.181078 
L 247.698485 49.568172 
L 248.84304 60.053663 
L 249.987595 59.268705 
L 256.854924 58.695629 
L 259.144034 58.545751 
L 260.288589 53.190861 
L 261.433144 59.076139 
L 262.577699 58.520229 
L 268.300473 57.854245 
L 274.023248 57.404028 
L 275.167803 78.409793 
L 276.312358 77.023198 
L 279.746023 76.249925 
L 280.890578 87.228859 
L 282.035133 86.271268 
L 285.468797 85.268059 
L 286.613352 87.442501 
L 287.757907 75.989195 
L 288.902462 78.103372 
L 296.914347 75.954411 
L 302.637121 74.678216 
L 309.504451 73.38129 
L 317.516335 72.127111 
L 318.66089 71.182306 
L 326.672775 70.199257 
L 327.81733 69.285186 
L 330.106439 69.109192 
L 331.250994 68.58282 
L 332.395549 67.780159 
L 336.973769 67.575323 
L 338.118324 66.187835 
L 346.130208 66.103089 
L 347.274763 66.849913 
L 349.563873 66.878192 
L 351.852983 66.931807 
L 352.997538 70.122328 
L 354.142093 77.884123 
L 355.286648 77.258143 
L 357.575758 66.570623 
L 358.720312 68.023984 
L 362.153977 67.815502 
L 369.021307 67.520915 
L 370.165862 68.608076 
L 371.310417 68.018328 
L 385.045076 67.41962 
L 388.478741 67.350278 
L 391.912405 67.369281 
L 393.05696 75.145835 
L 394.201515 78.180673 
L 395.34607 67.290006 
L 396.490625 67.054329 
L 415.948059 66.625628 
L 427.393608 66.445887 
L 428.538163 66.287546 
L 429.682718 65.890071 
L 435.405492 65.859231 
L 438.839157 66.059159 
L 439.983712 65.968433 
L 441.128267 66.090699 
L 442.272822 65.791206 
L 443.417377 66.885246 
L 444.561932 65.759116 
L 445.706487 65.898641 
L 449.140152 65.894306 
L 453.718371 65.93259 
L 456.007481 65.971639 
L 457.152036 66.124417 
L 462.874811 66.050471 
L 466.308475 66.022415 
L 467.45303 68.61903 
L 468.597585 65.936003 
L 469.74214 66.126947 
L 474.32036 66.285648 
L 475.464915 77.267044 
L 476.60947 69.070133 
L 477.754025 65.965972 
L 483.476799 65.892686 
L 489.199574 65.887027 
L 540.704545 65.663244 
L 540.704545 65.663244 
" style="fill:none;stroke:#ff7f0e;stroke-dasharray:7.4,3.2;stroke-dashoffset:0;stroke-width:2;"/>
   </g>
   <g id="patch_3">
    <path d="M 79.22 90.403652 
L 79.22 25.44 
" style="fill:none;stroke:#000000;stroke-linecap:square;stroke-linejoin:miter;stroke-width:0.8;"/>
   </g>
   <g id="patch_4">
    <path d="M 562.68 90.403652 
L 562.68 25.44 
" style="fill:none;stroke:#000000;stroke-linecap:square;stroke-linejoin:miter;stroke-width:0.8;"/>
   </g>
   <g id="patch_5">
    <path d="M 79.22 90.403652 
L 562.68 90.403652 
" style="fill:none;stroke:#000000;stroke-linecap:square;stroke-linejoin:miter;stroke-width:0.8;"/>
   </g>
   <g id="patch_6">
    <path d="M 79.22 25.44 
L 562.68 25.44 
" style="fill:none;stroke:#000000;stroke-linecap:square;stroke-linejoin:miter;stroke-width:0.8;"/>
   </g>
   <g id="text_5">
    <!-- SFH_D_3_2zone_TAB -->
    <defs>
     <path d="M 53.515625 70.515625 
L 53.515625 60.890625 
Q 47.90625 63.578125 42.921875 64.890625 
Q 37.9375 66.21875 33.296875 66.21875 
Q 25.25 66.21875 20.875 63.09375 
Q 16.5 59.96875 16.5 54.203125 
Q 16.5 49.359375 19.40625 46.890625 
Q 22.3125 44.4375 30.421875 42.921875 
L 36.375 41.703125 
Q 47.40625 39.59375 52.65625 34.296875 
Q 57.90625 29 57.90625 20.125 
Q 57.90625 9.515625 50.796875 4.046875 
Q 43.703125 -1.421875 29.984375 -1.421875 
Q 24.8125 -1.421875 18.96875 -0.25 
Q 13.140625 0.921875 6.890625 3.21875 
L 6.890625 13.375 
Q 12.890625 10.015625 18.65625 8.296875 
Q 24.421875 6.59375 29.984375 6.59375 
Q 38.421875 6.59375 43.015625 9.90625 
Q 47.609375 13.234375 47.609375 19.390625 
Q 47.609375 24.75 44.3125 27.78125 
Q 41.015625 30.8125 33.5 32.328125 
L 27.484375 33.5 
Q 16.453125 35.6875 11.515625 40.375 
Q 6.59375 45.0625 6.59375 53.421875 
Q 6.59375 63.09375 13.40625 68.65625 
Q 20.21875 74.21875 32.171875 74.21875 
Q 37.3125 74.21875 42.625 73.28125 
Q 47.953125 72.359375 53.515625 70.515625 
z
" id="DejaVuSans-53"/>
     <path d="M 9.8125 72.90625 
L 51.703125 72.90625 
L 51.703125 64.59375 
L 19.671875 64.59375 
L 19.671875 43.109375 
L 48.578125 43.109375 
L 48.578125 34.8125 
L 19.671875 34.8125 
L 19.671875 0 
L 9.8125 0 
z
" id="DejaVuSans-46"/>
     <path d="M 50.984375 -16.609375 
L 50.984375 -23.578125 
L -0.984375 -23.578125 
L -0.984375 -16.609375 
z
" id="DejaVuSans-5f"/>
     <path d="M 19.671875 64.796875 
L 19.671875 8.109375 
L 31.59375 8.109375 
Q 46.6875 8.109375 53.6875 14.9375 
Q 60.6875 21.78125 60.6875 36.53125 
Q 60.6875 51.171875 53.6875 57.984375 
Q 46.6875 64.796875 31.59375 64.796875 
z
M 9.8125 72.90625 
L 30.078125 72.90625 
Q 51.265625 72.90625 61.171875 64.09375 
Q 71.09375 55.28125 71.09375 36.53125 
Q 71.09375 17.671875 61.125 8.828125 
Q 51.171875 0 30.078125 0 
L 9.8125 0 
z
" id="DejaVuSans-44"/>
     <path d="M 40.578125 39.3125 
Q 47.65625 37.796875 51.625 33 
Q 55.609375 28.21875 55.609375 21.1875 
Q 55.609375 10.40625 48.1875 4.484375 
Q 40.765625 -1.421875 27.09375 -1.421875 
Q 22.515625 -1.421875 17.65625 -0.515625 
Q 12.796875 0.390625 7.625 2.203125 
L 7.625 11.71875 
Q 11.71875 9.328125 16.59375 8.109375 
Q 21.484375 6.890625 26.8125 6.890625 
Q 36.078125 6.890625 40.9375 10.546875 
Q 45.796875 14.203125 45.796875 21.1875 
Q 45.796875 27.640625 41.28125 31.265625 
Q 36.765625 34.90625 28.71875 34.90625 
L 20.21875 34.90625 
L 20.21875 43.015625 
L 29.109375 43.015625 
Q 36.375 43.015625 40.234375 45.921875 
Q 44.09375 48.828125 44.09375 54.296875 
Q 44.09375 59.90625 40.109375 62.90625 
Q 36.140625 65.921875 28.71875 65.921875 
Q 24.65625 65.921875 20.015625 65.03125 
Q 15.375 64.15625 9.8125 62.3125 
L 9.8125 71.09375 
Q 15.4375 72.65625 20.34375 73.4375 
Q 25.25 74.21875 29.59375 74.21875 
Q 40.828125 74.21875 47.359375 69.109375 
Q 53.90625 64.015625 53.90625 55.328125 
Q 53.90625 49.265625 50.4375 45.09375 
Q 46.96875 40.921875 40.578125 39.3125 
z
" id="DejaVuSans-33"/>
     <path d="M 5.515625 54.6875 
L 48.1875 54.6875 
L 48.1875 46.484375 
L 14.40625 7.171875 
L 48.1875 7.171875 
L 48.1875 0 
L 4.296875 0 
L 4.296875 8.203125 
L 38.09375 47.515625 
L 5.515625 47.515625 
z
" id="DejaVuSans-7a"/>
     <path d="M 30.609375 48.390625 
Q 23.390625 48.390625 19.1875 42.75 
Q 14.984375 37.109375 14.984375 27.296875 
Q 14.984375 17.484375 19.15625 11.84375 
Q 23.34375 6.203125 30.609375 6.203125 
Q 37.796875 6.203125 41.984375 11.859375 
Q 46.1875 17.53125 46.1875 27.296875 
Q 46.1875 37.015625 41.984375 42.703125 
Q 37.796875 48.390625 30.609375 48.390625 
z
M 30.609375 56 
Q 42.328125 56 49.015625 48.375 
Q 55.71875 40.765625 55.71875 27.296875 
Q 55.71875 13.875 49.015625 6.21875 
Q 42.328125 -1.421875 30.609375 -1.421875 
Q 18.84375 -1.421875 12.171875 6.21875 
Q 5.515625 13.875 5.515625 27.296875 
Q 5.515625 40.765625 12.171875 48.375 
Q 18.84375 56 30.609375 56 
z
" id="DejaVuSans-6f"/>
     <path d="M 54.890625 33.015625 
L 54.890625 0 
L 45.90625 0 
L 45.90625 32.71875 
Q 45.90625 40.484375 42.875 44.328125 
Q 39.84375 48.1875 33.796875 48.1875 
Q 26.515625 48.1875 22.3125 43.546875 
Q 18.109375 38.921875 18.109375 30.90625 
L 18.109375 0 
L 9.078125 0 
L 9.078125 54.6875 
L 18.109375 54.6875 
L 18.109375 46.1875 
Q 21.34375 51.125 25.703125 53.5625 
Q 30.078125 56 35.796875 56 
Q 45.21875 56 50.046875 50.171875 
Q 54.890625 44.34375 54.890625 33.015625 
z
" id="DejaVuSans-6e"/>
     <path d="M -0.296875 72.90625 
L 61.375 72.90625 
L 61.375 64.59375 
L 35.5 64.59375 
L 35.5 0 
L 25.59375 0 
L 25.59375 64.59375 
L -0.296875 64.59375 
z
" id="DejaVuSans-54"/>
     <path d="M 34.1875 63.1875 
L 20.796875 26.90625 
L 47.609375 26.90625 
z
M 28.609375 72.90625 
L 39.796875 72.90625 
L 67.578125 0 
L 57.328125 0 
L 50.6875 18.703125 
L 17.828125 18.703125 
L 11.1875 0 
L 0.78125 0 
z
" id="DejaVuSans-41"/>
     <path d="M 19.671875 34.8125 
L 19.671875 8.109375 
L 35.5 8.109375 
Q 43.453125 8.109375 47.28125 11.40625 
Q 51.125 14.703125 51.125 21.484375 
Q 51.125 28.328125 47.28125 31.5625 
Q 43.453125 34.8125 35.5 34.8125 
z
M 19.671875 64.796875 
L 19.671875 42.828125 
L 34.28125 42.828125 
Q 41.5 42.828125 45.03125 45.53125 
Q 48.578125 48.25 48.578125 53.8125 
Q 48.578125 59.328125 45.03125 62.0625 
Q 41.5 64.796875 34.28125 64.796875 
z
M 9.8125 72.90625 
L 35.015625 72.90625 
Q 46.296875 72.90625 52.390625 68.21875 
Q 58.5 63.53125 58.5 54.890625 
Q 58.5 48.1875 55.375 44.234375 
Q 52.25 40.28125 46.1875 39.3125 
Q 53.46875 37.75 57.5 32.78125 
Q 61.53125 27.828125 61.53125 20.40625 
Q 61.53125 10.640625 54.890625 5.3125 
Q 48.25 0 35.984375 0 
L 9.8125 0 
z
" id="DejaVuSans-42"/>
    </defs>
    <g transform="translate(258.729062 19.44)scale(0.12 -0.12)">
     <use xlink:href="#DejaVuSans-53"/>
     <use x="63.476562" xlink:href="#DejaVuSans-46"/>
     <use x="120.996094" xlink:href="#DejaVuSans-48"/>
     <use x="196.191406" xlink:href="#DejaVuSans-5f"/>
     <use x="246.191406" xlink:href="#DejaVuSans-44"/>
     <use x="323.193359" xlink:href="#DejaVuSans-5f"/>
     <use x="373.193359" xlink:href="#DejaVuSans-33"/>
     <use x="436.816406" xlink:href="#DejaVuSans-5f"/>
     <use x="486.816406" xlink:href="#DejaVuSans-32"/>
     <use x="550.439453" xlink:href="#DejaVuSans-7a"/>
     <use x="602.929688" xlink:href="#DejaVuSans-6f"/>
     <use x="664.111328" xlink:href="#DejaVuSans-6e"/>
     <use x="727.490234" xlink:href="#DejaVuSans-65"/>
     <use x="789.013672" xlink:href="#DejaVuSans-5f"/>
     <use x="839.013672" xlink:href="#DejaVuSans-54"/>
     <use x="899.988281" xlink:href="#DejaVuSans-41"/>
     <use x="968.396484" xlink:href="#DejaVuSans-42"/>
    </g>
   </g>
   <g id="legend_1">
    <g id="patch_7">
     <path d="M 395.296737 59.095523 
L 551.0108 59.095523 
Q 553.0108 59.095523 553.0108 57.095523 
L 553.0108 28.739273 
Q 553.0108 26.739273 551.0108 26.739273 
L 395.296737 26.739273 
Q 393.296737 26.739273 393.296737 28.739273 
L 393.296737 57.095523 
Q 393.296737 59.095523 395.296737 59.095523 
z
" style="fill:#ffffff;opacity:0.8;stroke:#cccccc;stroke-linejoin:miter;"/>
    </g>
    <g id="line2d_16">
     <path d="M 397.296737 34.837711 
L 417.296737 34.837711 
" style="fill:none;stroke:#1f77b4;stroke-linecap:square;stroke-width:2;"/>
    </g>
    <g id="line2d_17"/>
    <g id="text_6">
     <!-- Buildings - ideal network -->
     <defs>
      <path d="M 8.5 21.578125 
L 8.5 54.6875 
L 17.484375 54.6875 
L 17.484375 21.921875 
Q 17.484375 14.15625 20.5 10.265625 
Q 23.53125 6.390625 29.59375 6.390625 
Q 36.859375 6.390625 41.078125 11.03125 
Q 45.3125 15.671875 45.3125 23.6875 
L 45.3125 54.6875 
L 54.296875 54.6875 
L 54.296875 0 
L 45.3125 0 
L 45.3125 8.40625 
Q 42.046875 3.421875 37.71875 1 
Q 33.40625 -1.421875 27.6875 -1.421875 
Q 18.265625 -1.421875 13.375 4.4375 
Q 8.5 10.296875 8.5 21.578125 
z
M 31.109375 56 
z
" id="DejaVuSans-75"/>
      <path d="M 9.421875 54.6875 
L 18.40625 54.6875 
L 18.40625 0 
L 9.421875 0 
z
M 9.421875 75.984375 
L 18.40625 75.984375 
L 18.40625 64.59375 
L 9.421875 64.59375 
z
" id="DejaVuSans-69"/>
      <path d="M 9.421875 75.984375 
L 18.40625 75.984375 
L 18.40625 0 
L 9.421875 0 
z
" id="DejaVuSans-6c"/>
      <path d="M 45.40625 46.390625 
L 45.40625 75.984375 
L 54.390625 75.984375 
L 54.390625 0 
L 45.40625 0 
L 45.40625 8.203125 
Q 42.578125 3.328125 38.25 0.953125 
Q 33.9375 -1.421875 27.875 -1.421875 
Q 17.96875 -1.421875 11.734375 6.484375 
Q 5.515625 14.40625 5.515625 27.296875 
Q 5.515625 40.1875 11.734375 48.09375 
Q 17.96875 56 27.875 56 
Q 33.9375 56 38.25 53.625 
Q 42.578125 51.265625 45.40625 46.390625 
z
M 14.796875 27.296875 
Q 14.796875 17.390625 18.875 11.75 
Q 22.953125 6.109375 30.078125 6.109375 
Q 37.203125 6.109375 41.296875 11.75 
Q 45.40625 17.390625 45.40625 27.296875 
Q 45.40625 37.203125 41.296875 42.84375 
Q 37.203125 48.484375 30.078125 48.484375 
Q 22.953125 48.484375 18.875 42.84375 
Q 14.796875 37.203125 14.796875 27.296875 
z
" id="DejaVuSans-64"/>
      <path d="M 45.40625 27.984375 
Q 45.40625 37.75 41.375 43.109375 
Q 37.359375 48.484375 30.078125 48.484375 
Q 22.859375 48.484375 18.828125 43.109375 
Q 14.796875 37.75 14.796875 27.984375 
Q 14.796875 18.265625 18.828125 12.890625 
Q 22.859375 7.515625 30.078125 7.515625 
Q 37.359375 7.515625 41.375 12.890625 
Q 45.40625 18.265625 45.40625 27.984375 
z
M 54.390625 6.78125 
Q 54.390625 -7.171875 48.1875 -13.984375 
Q 42 -20.796875 29.203125 -20.796875 
Q 24.46875 -20.796875 20.265625 -20.09375 
Q 16.0625 -19.390625 12.109375 -17.921875 
L 12.109375 -9.1875 
Q 16.0625 -11.328125 19.921875 -12.34375 
Q 23.78125 -13.375 27.78125 -13.375 
Q 36.625 -13.375 41.015625 -8.765625 
Q 45.40625 -4.15625 45.40625 5.171875 
L 45.40625 9.625 
Q 42.625 4.78125 38.28125 2.390625 
Q 33.9375 0 27.875 0 
Q 17.828125 0 11.671875 7.65625 
Q 5.515625 15.328125 5.515625 27.984375 
Q 5.515625 40.671875 11.671875 48.328125 
Q 17.828125 56 27.875 56 
Q 33.9375 56 38.28125 53.609375 
Q 42.625 51.21875 45.40625 46.390625 
L 45.40625 54.6875 
L 54.390625 54.6875 
z
" id="DejaVuSans-67"/>
      <path d="M 44.28125 53.078125 
L 44.28125 44.578125 
Q 40.484375 46.53125 36.375 47.5 
Q 32.28125 48.484375 27.875 48.484375 
Q 21.1875 48.484375 17.84375 46.4375 
Q 14.5 44.390625 14.5 40.28125 
Q 14.5 37.15625 16.890625 35.375 
Q 19.28125 33.59375 26.515625 31.984375 
L 29.59375 31.296875 
Q 39.15625 29.25 43.1875 25.515625 
Q 47.21875 21.78125 47.21875 15.09375 
Q 47.21875 7.46875 41.1875 3.015625 
Q 35.15625 -1.421875 24.609375 -1.421875 
Q 20.21875 -1.421875 15.453125 -0.5625 
Q 10.6875 0.296875 5.421875 2 
L 5.421875 11.28125 
Q 10.40625 8.6875 15.234375 7.390625 
Q 20.0625 6.109375 24.8125 6.109375 
Q 31.15625 6.109375 34.5625 8.28125 
Q 37.984375 10.453125 37.984375 14.40625 
Q 37.984375 18.0625 35.515625 20.015625 
Q 33.0625 21.96875 24.703125 23.78125 
L 21.578125 24.515625 
Q 13.234375 26.265625 9.515625 29.90625 
Q 5.8125 33.546875 5.8125 39.890625 
Q 5.8125 47.609375 11.28125 51.796875 
Q 16.75 56 26.8125 56 
Q 31.78125 56 36.171875 55.265625 
Q 40.578125 54.546875 44.28125 53.078125 
z
" id="DejaVuSans-73"/>
      <path d="M 4.890625 31.390625 
L 31.203125 31.390625 
L 31.203125 23.390625 
L 4.890625 23.390625 
z
" id="DejaVuSans-2d"/>
      <path d="M 4.203125 54.6875 
L 13.1875 54.6875 
L 24.421875 12.015625 
L 35.59375 54.6875 
L 46.1875 54.6875 
L 57.421875 12.015625 
L 68.609375 54.6875 
L 77.59375 54.6875 
L 63.28125 0 
L 52.6875 0 
L 40.921875 44.828125 
L 29.109375 0 
L 18.5 0 
z
" id="DejaVuSans-77"/>
      <path d="M 41.109375 46.296875 
Q 39.59375 47.171875 37.8125 47.578125 
Q 36.03125 48 33.890625 48 
Q 26.265625 48 22.1875 43.046875 
Q 18.109375 38.09375 18.109375 28.8125 
L 18.109375 0 
L 9.078125 0 
L 9.078125 54.6875 
L 18.109375 54.6875 
L 18.109375 46.1875 
Q 20.953125 51.171875 25.484375 53.578125 
Q 30.03125 56 36.53125 56 
Q 37.453125 56 38.578125 55.875 
Q 39.703125 55.765625 41.0625 55.515625 
z
" id="DejaVuSans-72"/>
      <path d="M 9.078125 75.984375 
L 18.109375 75.984375 
L 18.109375 31.109375 
L 44.921875 54.6875 
L 56.390625 54.6875 
L 27.390625 29.109375 
L 57.625 0 
L 45.90625 0 
L 18.109375 26.703125 
L 18.109375 0 
L 9.078125 0 
z
" id="DejaVuSans-6b"/>
     </defs>
     <g transform="translate(425.296737 38.337711)scale(0.1 -0.1)">
      <use xlink:href="#DejaVuSans-42"/>
      <use x="68.603516" xlink:href="#DejaVuSans-75"/>
      <use x="131.982422" xlink:href="#DejaVuSans-69"/>
      <use x="159.765625" xlink:href="#DejaVuSans-6c"/>
      <use x="187.548828" xlink:href="#DejaVuSans-64"/>
      <use x="251.025391" xlink:href="#DejaVuSans-69"/>
      <use x="278.808594" xlink:href="#DejaVuSans-6e"/>
      <use x="342.1875" xlink:href="#DejaVuSans-67"/>
      <use x="405.664062" xlink:href="#DejaVuSans-73"/>
      <use x="457.763672" xlink:href="#DejaVuSans-20"/>
      <use x="489.550781" xlink:href="#DejaVuSans-2d"/>
      <use x="525.634766" xlink:href="#DejaVuSans-20"/>
      <use x="557.421875" xlink:href="#DejaVuSans-69"/>
      <use x="585.205078" xlink:href="#DejaVuSans-64"/>
      <use x="648.681641" xlink:href="#DejaVuSans-65"/>
      <use x="710.205078" xlink:href="#DejaVuSans-61"/>
      <use x="771.484375" xlink:href="#DejaVuSans-6c"/>
      <use x="799.267578" xlink:href="#DejaVuSans-20"/>
      <use x="831.054688" xlink:href="#DejaVuSans-6e"/>
      <use x="894.433594" xlink:href="#DejaVuSans-65"/>
      <use x="955.957031" xlink:href="#DejaVuSans-74"/>
      <use x="995.166016" xlink:href="#DejaVuSans-77"/>
      <use x="1076.953125" xlink:href="#DejaVuSans-6f"/>
      <use x="1138.134766" xlink:href="#DejaVuSans-72"/>
      <use x="1179.248047" xlink:href="#DejaVuSans-6b"/>
     </g>
    </g>
    <g id="line2d_18">
     <path d="M 397.296737 49.515836 
L 417.296737 49.515836 
" style="fill:none;stroke:#ff7f0e;stroke-dasharray:7.4,3.2;stroke-dashoffset:0;stroke-width:2;"/>
    </g>
    <g id="line2d_19"/>
    <g id="text_7">
     <!-- Buildings -->
     <g transform="translate(425.296737 53.015836)scale(0.1 -0.1)">
      <use xlink:href="#DejaVuSans-42"/>
      <use x="68.603516" xlink:href="#DejaVuSans-75"/>
      <use x="131.982422" xlink:href="#DejaVuSans-69"/>
      <use x="159.765625" xlink:href="#DejaVuSans-6c"/>
      <use x="187.548828" xlink:href="#DejaVuSans-64"/>
      <use x="251.025391" xlink:href="#DejaVuSans-69"/>
      <use x="278.808594" xlink:href="#DejaVuSans-6e"/>
      <use x="342.1875" xlink:href="#DejaVuSans-67"/>
      <use x="405.664062" xlink:href="#DejaVuSans-73"/>
     </g>
    </g>
   </g>
  </g>
  <g id="axes_2">
   <g id="patch_8">
    <path d="M 79.22 189.201826 
L 562.68 189.201826 
L 562.68 124.238174 
L 79.22 124.238174 
z
" style="fill:#ffffff;"/>
   </g>
   <g id="matplotlib.axis_3">
    <g id="xtick_10">
     <g id="line2d_20">
      <g>
       <use style="stroke:#000000;stroke-width:0.8;" x="87.460795" xlink:href="#m10a07e6678" y="189.201826"/>
      </g>
     </g>
    </g>
    <g id="xtick_11">
     <g id="line2d_21">
      <g>
       <use style="stroke:#000000;stroke-width:0.8;" x="142.399432" xlink:href="#m10a07e6678" y="189.201826"/>
      </g>
     </g>
    </g>
    <g id="xtick_12">
     <g id="line2d_22">
      <g>
       <use style="stroke:#000000;stroke-width:0.8;" x="197.338068" xlink:href="#m10a07e6678" y="189.201826"/>
      </g>
     </g>
    </g>
    <g id="xtick_13">
     <g id="line2d_23">
      <g>
       <use style="stroke:#000000;stroke-width:0.8;" x="252.276705" xlink:href="#m10a07e6678" y="189.201826"/>
      </g>
     </g>
    </g>
    <g id="xtick_14">
     <g id="line2d_24">
      <g>
       <use style="stroke:#000000;stroke-width:0.8;" x="307.215341" xlink:href="#m10a07e6678" y="189.201826"/>
      </g>
     </g>
    </g>
    <g id="xtick_15">
     <g id="line2d_25">
      <g>
       <use style="stroke:#000000;stroke-width:0.8;" x="362.153977" xlink:href="#m10a07e6678" y="189.201826"/>
      </g>
     </g>
    </g>
    <g id="xtick_16">
     <g id="line2d_26">
      <g>
       <use style="stroke:#000000;stroke-width:0.8;" x="417.092614" xlink:href="#m10a07e6678" y="189.201826"/>
      </g>
     </g>
    </g>
    <g id="xtick_17">
     <g id="line2d_27">
      <g>
       <use style="stroke:#000000;stroke-width:0.8;" x="472.03125" xlink:href="#m10a07e6678" y="189.201826"/>
      </g>
     </g>
    </g>
    <g id="xtick_18">
     <g id="line2d_28">
      <g>
       <use style="stroke:#000000;stroke-width:0.8;" x="526.969886" xlink:href="#m10a07e6678" y="189.201826"/>
      </g>
     </g>
    </g>
   </g>
   <g id="matplotlib.axis_4">
    <g id="ytick_4">
     <g id="line2d_29">
      <g>
       <use style="stroke:#000000;stroke-width:0.8;" x="79.22" xlink:href="#me1eb7d4440" y="165.970609"/>
      </g>
     </g>
     <g id="text_8">
      <!-- 0 -->
      <g transform="translate(65.8575 169.769828)scale(0.1 -0.1)">
       <use xlink:href="#DejaVuSans-30"/>
      </g>
     </g>
    </g>
    <g id="ytick_5">
     <g id="line2d_30">
      <g>
       <use style="stroke:#000000;stroke-width:0.8;" x="79.22" xlink:href="#me1eb7d4440" y="140.270193"/>
      </g>
     </g>
     <g id="text_9">
      <!-- 25000 -->
      <g transform="translate(40.4075 144.069412)scale(0.1 -0.1)">
       <use xlink:href="#DejaVuSans-32"/>
       <use x="63.623047" xlink:href="#DejaVuSans-35"/>
       <use x="127.246094" xlink:href="#DejaVuSans-30"/>
       <use x="190.869141" xlink:href="#DejaVuSans-30"/>
       <use x="254.492188" xlink:href="#DejaVuSans-30"/>
      </g>
     </g>
    </g>
    <g id="text_10">
     <!-- Heat [W] -->
     <g transform="translate(34.327813 179.015312)rotate(-90)scale(0.1 -0.1)">
      <use xlink:href="#DejaVuSans-48"/>
      <use x="75.195312" xlink:href="#DejaVuSans-65"/>
      <use x="136.71875" xlink:href="#DejaVuSans-61"/>
      <use x="197.998047" xlink:href="#DejaVuSans-74"/>
      <use x="237.207031" xlink:href="#DejaVuSans-20"/>
      <use x="268.994141" xlink:href="#DejaVuSans-5b"/>
      <use x="308.007812" xlink:href="#DejaVuSans-57"/>
      <use x="406.884766" xlink:href="#DejaVuSans-5d"/>
     </g>
    </g>
   </g>
   <g id="line2d_31">
    <path clip-path="url(#p3ec896059f)" d="M 275.167803 189.201826 
L 275.167803 124.238174 
" style="fill:none;stroke:#000000;stroke-dasharray:2,3.3;stroke-dashoffset:0;stroke-width:2;"/>
   </g>
   <g id="line2d_32">
    <path clip-path="url(#p3ec896059f)" d="M 101.195455 165.970609 
L 180.169744 165.970609 
L 182.458854 159.153753 
L 187.037074 159.894538 
L 188.181629 156.633241 
L 190.470739 157.125919 
L 191.615294 153.941822 
L 201.916288 156.57312 
L 205.349953 157.268786 
L 206.494508 152.968607 
L 208.783617 153.31879 
L 209.928172 153.364077 
L 211.072727 153.543339 
L 213.361837 149.886874 
L 214.506392 146.255263 
L 215.650947 141.178814 
L 216.795502 141.313022 
L 217.940057 136.117319 
L 219.084612 136.330848 
L 220.229167 142.499149 
L 221.373722 131.651765 
L 227.096496 132.422962 
L 228.241051 127.191067 
L 230.530161 127.384471 
L 231.674716 135.010914 
L 232.819271 127.708429 
L 233.963826 127.841788 
L 236.252936 128.38327 
L 237.397491 128.811787 
L 238.542045 136.448622 
L 240.831155 137.034128 
L 241.97571 138.425337 
L 243.120265 145.603773 
L 244.26482 145.849524 
L 246.55393 163.535229 
L 247.698485 162.162761 
L 248.84304 168.404323 
L 251.13215 168.308802 
L 253.421259 168.131705 
L 254.565814 166.294114 
L 255.710369 160.693988 
L 256.854924 168.339282 
L 257.999479 168.454559 
L 259.144034 169.691472 
L 260.288589 169.745997 
L 261.433144 169.409876 
L 264.866809 169.121119 
L 266.011364 169.038609 
L 267.155919 169.128365 
L 268.300473 168.390734 
L 269.445028 168.524046 
L 270.589583 166.885082 
L 271.734138 167.455076 
L 272.878693 168.244985 
L 274.023248 168.229418 
L 275.167803 186.248933 
L 276.312358 185.812901 
L 279.746023 183.937747 
L 283.179687 182.288051 
L 287.757907 180.382843 
L 292.336127 178.757081 
L 296.914347 177.361181 
L 302.637121 175.880556 
L 307.215341 174.870248 
L 308.359896 173.856779 
L 309.504451 174.4146 
L 315.227225 173.401047 
L 316.37178 171.771888 
L 317.516335 171.63233 
L 318.66089 170.409139 
L 326.672775 169.754902 
L 327.81733 168.262029 
L 328.961884 168.211472 
L 330.106439 169.26577 
L 331.250994 167.222337 
L 336.973769 167.100543 
L 338.118324 165.970609 
L 340.407434 165.970609 
L 341.551989 167.450931 
L 342.696544 165.970609 
L 347.274763 165.970609 
L 348.419318 166.920212 
L 350.708428 166.880699 
L 351.852983 167.048968 
L 352.997538 167.906121 
L 354.142093 167.86141 
L 356.431203 170.746592 
L 357.575758 170.628617 
L 358.720312 171.740053 
L 364.443087 171.00454 
L 365.587642 169.769986 
L 366.732197 170.76106 
L 380.466856 169.533591 
L 391.912405 168.818398 
L 405.647064 168.199408 
L 422.815388 167.659824 
L 425.104498 167.601931 
L 426.249053 167.252507 
L 427.393608 167.231417 
L 428.538163 166.995089 
L 429.682718 166.513764 
L 430.827273 166.184849 
L 434.260937 166.172832 
L 435.405492 165.970609 
L 441.128267 165.970609 
L 442.272822 166.318215 
L 443.417377 165.970609 
L 450.284706 165.970609 
L 451.429261 166.322904 
L 452.573816 165.970609 
L 457.152036 165.970609 
L 458.296591 166.240634 
L 459.441146 166.237338 
L 460.585701 168.934196 
L 462.874811 181.84353 
L 464.019366 173.903281 
L 465.16392 166.788213 
L 474.32036 166.725494 
L 475.464915 166.435081 
L 476.60947 166.719491 
L 504.078788 166.562106 
L 537.270881 166.297785 
L 539.559991 166.228544 
L 540.704545 165.970609 
L 540.704545 165.970609 
" style="fill:none;stroke:#1f77b4;stroke-linecap:square;stroke-width:2;"/>
   </g>
   <g id="line2d_33">
    <path clip-path="url(#p3ec896059f)" d="M 101.195455 165.970609 
L 180.169744 165.970609 
L 182.458854 159.153753 
L 187.037074 159.894538 
L 188.181629 156.633241 
L 190.470739 157.125919 
L 191.615294 153.941822 
L 201.916288 156.57312 
L 205.349953 157.268786 
L 206.494508 152.978887 
L 208.783617 153.32907 
L 209.928172 153.374357 
L 211.072727 153.55362 
L 213.361837 149.897154 
L 214.506392 146.275823 
L 215.650947 141.199374 
L 216.795502 141.333583 
L 217.940057 136.148159 
L 219.084612 136.361689 
L 220.229167 142.519709 
L 221.373722 131.692885 
L 227.096496 132.464083 
L 228.241051 127.242468 
L 230.530161 127.435872 
L 231.674716 135.052034 
L 232.819271 127.75983 
L 233.963826 127.893189 
L 236.252936 128.43467 
L 237.397491 128.863188 
L 238.542045 136.489743 
L 240.831155 137.075249 
L 241.97571 138.466458 
L 243.120265 145.634614 
L 244.26482 145.880365 
L 246.55393 163.54551 
L 247.698485 162.173041 
L 248.84304 168.404323 
L 251.13215 168.308802 
L 253.421259 168.131705 
L 254.565814 166.294114 
L 255.710369 160.704268 
L 256.854924 168.339282 
L 257.999479 168.454559 
L 259.144034 169.691472 
L 260.288589 169.745997 
L 261.433144 169.409876 
L 264.866809 169.121119 
L 266.011364 169.038609 
L 267.155919 169.128365 
L 268.300473 168.390734 
L 269.445028 168.524046 
L 270.589583 166.885082 
L 271.734138 167.455076 
L 272.878693 168.244985 
L 274.023248 168.229418 
L 275.167803 186.248933 
L 276.312358 185.812901 
L 279.746023 183.937747 
L 283.179687 182.288051 
L 287.757907 180.382843 
L 292.336127 178.757081 
L 296.914347 177.361181 
L 302.637121 175.880556 
L 307.215341 174.870248 
L 308.359896 173.856779 
L 309.504451 174.4146 
L 315.227225 173.401047 
L 316.37178 171.771888 
L 317.516335 171.63233 
L 318.66089 170.409139 
L 326.672775 169.754902 
L 327.81733 168.262029 
L 328.961884 168.211472 
L 330.106439 169.26577 
L 331.250994 167.222337 
L 336.973769 167.100543 
L 338.118324 165.970609 
L 340.407434 165.970609 
L 341.551989 167.450931 
L 342.696544 165.970609 
L 347.274763 165.970609 
L 348.419318 166.920212 
L 350.708428 166.880699 
L 351.852983 167.048968 
L 352.997538 167.906121 
L 354.142093 167.86141 
L 356.431203 170.746592 
L 357.575758 170.628617 
L 358.720312 171.740053 
L 364.443087 171.00454 
L 365.587642 169.769986 
L 366.732197 170.76106 
L 380.466856 169.533591 
L 391.912405 168.818398 
L 405.647064 168.199408 
L 422.815388 167.659824 
L 425.104498 167.601931 
L 426.249053 167.252507 
L 427.393608 167.231417 
L 428.538163 166.995089 
L 429.682718 166.513764 
L 430.827273 166.184849 
L 434.260937 166.172832 
L 435.405492 165.970609 
L 441.128267 165.970609 
L 442.272822 166.318215 
L 443.417377 165.970609 
L 450.284706 165.970609 
L 451.429261 166.322904 
L 452.573816 165.970609 
L 457.152036 165.970609 
L 458.296591 166.240634 
L 459.441146 166.237338 
L 460.585701 168.923916 
L 462.874811 181.83325 
L 464.019366 173.903281 
L 465.16392 166.788213 
L 474.32036 166.725494 
L 475.464915 166.435081 
L 476.60947 166.719491 
L 504.078788 166.562106 
L 537.270881 166.297785 
L 539.559991 166.228544 
L 540.704545 165.970609 
L 540.704545 165.970609 
" style="fill:none;stroke:#ff7f0e;stroke-dasharray:7.4,3.2;stroke-dashoffset:0;stroke-width:2;"/>
   </g>
   <g id="patch_9">
    <path d="M 79.22 189.201826 
L 79.22 124.238174 
" style="fill:none;stroke:#000000;stroke-linecap:square;stroke-linejoin:miter;stroke-width:0.8;"/>
   </g>
   <g id="patch_10">
    <path d="M 562.68 189.201826 
L 562.68 124.238174 
" style="fill:none;stroke:#000000;stroke-linecap:square;stroke-linejoin:miter;stroke-width:0.8;"/>
   </g>
   <g id="patch_11">
    <path d="M 79.22 189.201826 
L 562.68 189.201826 
" style="fill:none;stroke:#000000;stroke-linecap:square;stroke-linejoin:miter;stroke-width:0.8;"/>
   </g>
   <g id="patch_12">
    <path d="M 79.22 124.238174 
L 562.68 124.238174 
" style="fill:none;stroke:#000000;stroke-linecap:square;stroke-linejoin:miter;stroke-width:0.8;"/>
   </g>
   <g id="text_11">
    <!-- SFH_D_5_ins_TAB -->
    <g transform="translate(268.26625 118.238174)scale(0.12 -0.12)">
     <use xlink:href="#DejaVuSans-53"/>
     <use x="63.476562" xlink:href="#DejaVuSans-46"/>
     <use x="120.996094" xlink:href="#DejaVuSans-48"/>
     <use x="196.191406" xlink:href="#DejaVuSans-5f"/>
     <use x="246.191406" xlink:href="#DejaVuSans-44"/>
     <use x="323.193359" xlink:href="#DejaVuSans-5f"/>
     <use x="373.193359" xlink:href="#DejaVuSans-35"/>
     <use x="436.816406" xlink:href="#DejaVuSans-5f"/>
     <use x="486.816406" xlink:href="#DejaVuSans-69"/>
     <use x="514.599609" xlink:href="#DejaVuSans-6e"/>
     <use x="577.978516" xlink:href="#DejaVuSans-73"/>
     <use x="630.078125" xlink:href="#DejaVuSans-5f"/>
     <use x="680.078125" xlink:href="#DejaVuSans-54"/>
     <use x="741.052734" xlink:href="#DejaVuSans-41"/>
     <use x="809.460938" xlink:href="#DejaVuSans-42"/>
    </g>
   </g>
  </g>
  <g id="axes_3">
   <g id="patch_13">
    <path d="M 79.22 288 
L 562.68 288 
L 562.68 223.036348 
L 79.22 223.036348 
z
" style="fill:#ffffff;"/>
   </g>
   <g id="matplotlib.axis_5">
    <g id="xtick_19">
     <g id="line2d_34">
      <g>
       <use style="stroke:#000000;stroke-width:0.8;" x="87.460795" xlink:href="#m10a07e6678" y="288"/>
      </g>
     </g>
     <g id="text_12">
      <!-- 31-12-2013 -->
      <defs>
       <path d="M 12.40625 8.296875 
L 28.515625 8.296875 
L 28.515625 63.921875 
L 10.984375 60.40625 
L 10.984375 69.390625 
L 28.421875 72.90625 
L 38.28125 72.90625 
L 38.28125 8.296875 
L 54.390625 8.296875 
L 54.390625 0 
L 12.40625 0 
z
" id="DejaVuSans-31"/>
      </defs>
      <g transform="translate(36.091344 330.638252)rotate(-30)scale(0.1 -0.1)">
       <use xlink:href="#DejaVuSans-33"/>
       <use x="63.623047" xlink:href="#DejaVuSans-31"/>
       <use x="127.246094" xlink:href="#DejaVuSans-2d"/>
       <use x="163.330078" xlink:href="#DejaVuSans-31"/>
       <use x="226.953125" xlink:href="#DejaVuSans-32"/>
       <use x="290.576172" xlink:href="#DejaVuSans-2d"/>
       <use x="326.660156" xlink:href="#DejaVuSans-32"/>
       <use x="390.283203" xlink:href="#DejaVuSans-30"/>
       <use x="453.90625" xlink:href="#DejaVuSans-31"/>
       <use x="517.529297" xlink:href="#DejaVuSans-33"/>
      </g>
     </g>
    </g>
    <g id="xtick_20">
     <g id="line2d_35">
      <g>
       <use style="stroke:#000000;stroke-width:0.8;" x="142.399432" xlink:href="#m10a07e6678" y="288"/>
      </g>
     </g>
     <g id="text_13">
      <!-- 01-01-2014 -->
      <defs>
       <path d="M 37.796875 64.3125 
L 12.890625 25.390625 
L 37.796875 25.390625 
z
M 35.203125 72.90625 
L 47.609375 72.90625 
L 47.609375 25.390625 
L 58.015625 25.390625 
L 58.015625 17.1875 
L 47.609375 17.1875 
L 47.609375 0 
L 37.796875 0 
L 37.796875 17.1875 
L 4.890625 17.1875 
L 4.890625 26.703125 
z
" id="DejaVuSans-34"/>
      </defs>
      <g transform="translate(91.02998 330.638252)rotate(-30)scale(0.1 -0.1)">
       <use xlink:href="#DejaVuSans-30"/>
       <use x="63.623047" xlink:href="#DejaVuSans-31"/>
       <use x="127.246094" xlink:href="#DejaVuSans-2d"/>
       <use x="163.330078" xlink:href="#DejaVuSans-30"/>
       <use x="226.953125" xlink:href="#DejaVuSans-31"/>
       <use x="290.576172" xlink:href="#DejaVuSans-2d"/>
       <use x="326.660156" xlink:href="#DejaVuSans-32"/>
       <use x="390.283203" xlink:href="#DejaVuSans-30"/>
       <use x="453.90625" xlink:href="#DejaVuSans-31"/>
       <use x="517.529297" xlink:href="#DejaVuSans-34"/>
      </g>
     </g>
    </g>
    <g id="xtick_21">
     <g id="line2d_36">
      <g>
       <use style="stroke:#000000;stroke-width:0.8;" x="197.338068" xlink:href="#m10a07e6678" y="288"/>
      </g>
     </g>
     <g id="text_14">
      <!-- 01-01-2014 -->
      <g transform="translate(145.968617 330.638252)rotate(-30)scale(0.1 -0.1)">
       <use xlink:href="#DejaVuSans-30"/>
       <use x="63.623047" xlink:href="#DejaVuSans-31"/>
       <use x="127.246094" xlink:href="#DejaVuSans-2d"/>
       <use x="163.330078" xlink:href="#DejaVuSans-30"/>
       <use x="226.953125" xlink:href="#DejaVuSans-31"/>
       <use x="290.576172" xlink:href="#DejaVuSans-2d"/>
       <use x="326.660156" xlink:href="#DejaVuSans-32"/>
       <use x="390.283203" xlink:href="#DejaVuSans-30"/>
       <use x="453.90625" xlink:href="#DejaVuSans-31"/>
       <use x="517.529297" xlink:href="#DejaVuSans-34"/>
      </g>
     </g>
    </g>
    <g id="xtick_22">
     <g id="line2d_37">
      <g>
       <use style="stroke:#000000;stroke-width:0.8;" x="252.276705" xlink:href="#m10a07e6678" y="288"/>
      </g>
     </g>
     <g id="text_15">
      <!-- 02-01-2014 -->
      <g transform="translate(200.907253 330.638252)rotate(-30)scale(0.1 -0.1)">
       <use xlink:href="#DejaVuSans-30"/>
       <use x="63.623047" xlink:href="#DejaVuSans-32"/>
       <use x="127.246094" xlink:href="#DejaVuSans-2d"/>
       <use x="163.330078" xlink:href="#DejaVuSans-30"/>
       <use x="226.953125" xlink:href="#DejaVuSans-31"/>
       <use x="290.576172" xlink:href="#DejaVuSans-2d"/>
       <use x="326.660156" xlink:href="#DejaVuSans-32"/>
       <use x="390.283203" xlink:href="#DejaVuSans-30"/>
       <use x="453.90625" xlink:href="#DejaVuSans-31"/>
       <use x="517.529297" xlink:href="#DejaVuSans-34"/>
      </g>
     </g>
    </g>
    <g id="xtick_23">
     <g id="line2d_38">
      <g>
       <use style="stroke:#000000;stroke-width:0.8;" x="307.215341" xlink:href="#m10a07e6678" y="288"/>
      </g>
     </g>
     <g id="text_16">
      <!-- 02-01-2014 -->
      <g transform="translate(255.84589 330.638252)rotate(-30)scale(0.1 -0.1)">
       <use xlink:href="#DejaVuSans-30"/>
       <use x="63.623047" xlink:href="#DejaVuSans-32"/>
       <use x="127.246094" xlink:href="#DejaVuSans-2d"/>
       <use x="163.330078" xlink:href="#DejaVuSans-30"/>
       <use x="226.953125" xlink:href="#DejaVuSans-31"/>
       <use x="290.576172" xlink:href="#DejaVuSans-2d"/>
       <use x="326.660156" xlink:href="#DejaVuSans-32"/>
       <use x="390.283203" xlink:href="#DejaVuSans-30"/>
       <use x="453.90625" xlink:href="#DejaVuSans-31"/>
       <use x="517.529297" xlink:href="#DejaVuSans-34"/>
      </g>
     </g>
    </g>
    <g id="xtick_24">
     <g id="line2d_39">
      <g>
       <use style="stroke:#000000;stroke-width:0.8;" x="362.153977" xlink:href="#m10a07e6678" y="288"/>
      </g>
     </g>
     <g id="text_17">
      <!-- 03-01-2014 -->
      <g transform="translate(310.784526 330.638252)rotate(-30)scale(0.1 -0.1)">
       <use xlink:href="#DejaVuSans-30"/>
       <use x="63.623047" xlink:href="#DejaVuSans-33"/>
       <use x="127.246094" xlink:href="#DejaVuSans-2d"/>
       <use x="163.330078" xlink:href="#DejaVuSans-30"/>
       <use x="226.953125" xlink:href="#DejaVuSans-31"/>
       <use x="290.576172" xlink:href="#DejaVuSans-2d"/>
       <use x="326.660156" xlink:href="#DejaVuSans-32"/>
       <use x="390.283203" xlink:href="#DejaVuSans-30"/>
       <use x="453.90625" xlink:href="#DejaVuSans-31"/>
       <use x="517.529297" xlink:href="#DejaVuSans-34"/>
      </g>
     </g>
    </g>
    <g id="xtick_25">
     <g id="line2d_40">
      <g>
       <use style="stroke:#000000;stroke-width:0.8;" x="417.092614" xlink:href="#m10a07e6678" y="288"/>
      </g>
     </g>
     <g id="text_18">
      <!-- 03-01-2014 -->
      <g transform="translate(365.723162 330.638252)rotate(-30)scale(0.1 -0.1)">
       <use xlink:href="#DejaVuSans-30"/>
       <use x="63.623047" xlink:href="#DejaVuSans-33"/>
       <use x="127.246094" xlink:href="#DejaVuSans-2d"/>
       <use x="163.330078" xlink:href="#DejaVuSans-30"/>
       <use x="226.953125" xlink:href="#DejaVuSans-31"/>
       <use x="290.576172" xlink:href="#DejaVuSans-2d"/>
       <use x="326.660156" xlink:href="#DejaVuSans-32"/>
       <use x="390.283203" xlink:href="#DejaVuSans-30"/>
       <use x="453.90625" xlink:href="#DejaVuSans-31"/>
       <use x="517.529297" xlink:href="#DejaVuSans-34"/>
      </g>
     </g>
    </g>
    <g id="xtick_26">
     <g id="line2d_41">
      <g>
       <use style="stroke:#000000;stroke-width:0.8;" x="472.03125" xlink:href="#m10a07e6678" y="288"/>
      </g>
     </g>
     <g id="text_19">
      <!-- 04-01-2014 -->
      <g transform="translate(420.661799 330.638252)rotate(-30)scale(0.1 -0.1)">
       <use xlink:href="#DejaVuSans-30"/>
       <use x="63.623047" xlink:href="#DejaVuSans-34"/>
       <use x="127.246094" xlink:href="#DejaVuSans-2d"/>
       <use x="163.330078" xlink:href="#DejaVuSans-30"/>
       <use x="226.953125" xlink:href="#DejaVuSans-31"/>
       <use x="290.576172" xlink:href="#DejaVuSans-2d"/>
       <use x="326.660156" xlink:href="#DejaVuSans-32"/>
       <use x="390.283203" xlink:href="#DejaVuSans-30"/>
       <use x="453.90625" xlink:href="#DejaVuSans-31"/>
       <use x="517.529297" xlink:href="#DejaVuSans-34"/>
      </g>
     </g>
    </g>
    <g id="xtick_27">
     <g id="line2d_42">
      <g>
       <use style="stroke:#000000;stroke-width:0.8;" x="526.969886" xlink:href="#m10a07e6678" y="288"/>
      </g>
     </g>
     <g id="text_20">
      <!-- 04-01-2014 -->
      <g transform="translate(475.600435 330.638252)rotate(-30)scale(0.1 -0.1)">
       <use xlink:href="#DejaVuSans-30"/>
       <use x="63.623047" xlink:href="#DejaVuSans-34"/>
       <use x="127.246094" xlink:href="#DejaVuSans-2d"/>
       <use x="163.330078" xlink:href="#DejaVuSans-30"/>
       <use x="226.953125" xlink:href="#DejaVuSans-31"/>
       <use x="290.576172" xlink:href="#DejaVuSans-2d"/>
       <use x="326.660156" xlink:href="#DejaVuSans-32"/>
       <use x="390.283203" xlink:href="#DejaVuSans-30"/>
       <use x="453.90625" xlink:href="#DejaVuSans-31"/>
       <use x="517.529297" xlink:href="#DejaVuSans-34"/>
      </g>
     </g>
    </g>
   </g>
   <g id="matplotlib.axis_6">
    <g id="ytick_6">
     <g id="line2d_43">
      <g>
       <use style="stroke:#000000;stroke-width:0.8;" x="79.22" xlink:href="#me1eb7d4440" y="285.632215"/>
      </g>
     </g>
     <g id="text_21">
      <!-- 0.0000000 -->
      <defs>
       <path d="M 10.6875 12.40625 
L 21 12.40625 
L 21 0 
L 10.6875 0 
z
" id="DejaVuSans-2e"/>
      </defs>
      <g transform="translate(18.141875 289.431434)scale(0.1 -0.1)">
       <use xlink:href="#DejaVuSans-30"/>
       <use x="63.623047" xlink:href="#DejaVuSans-2e"/>
       <use x="95.410156" xlink:href="#DejaVuSans-30"/>
       <use x="159.033203" xlink:href="#DejaVuSans-30"/>
       <use x="222.65625" xlink:href="#DejaVuSans-30"/>
       <use x="286.279297" xlink:href="#DejaVuSans-30"/>
       <use x="349.902344" xlink:href="#DejaVuSans-30"/>
       <use x="413.525391" xlink:href="#DejaVuSans-30"/>
       <use x="477.148438" xlink:href="#DejaVuSans-30"/>
      </g>
     </g>
    </g>
    <g id="ytick_7">
     <g id="line2d_44">
      <g>
       <use style="stroke:#000000;stroke-width:0.8;" x="79.22" xlink:href="#me1eb7d4440" y="263.522174"/>
      </g>
     </g>
     <g id="text_22">
      <!-- 0.0000025 -->
      <g transform="translate(18.141875 267.321393)scale(0.1 -0.1)">
       <use xlink:href="#DejaVuSans-30"/>
       <use x="63.623047" xlink:href="#DejaVuSans-2e"/>
       <use x="95.410156" xlink:href="#DejaVuSans-30"/>
       <use x="159.033203" xlink:href="#DejaVuSans-30"/>
       <use x="222.65625" xlink:href="#DejaVuSans-30"/>
       <use x="286.279297" xlink:href="#DejaVuSans-30"/>
       <use x="349.902344" xlink:href="#DejaVuSans-30"/>
       <use x="413.525391" xlink:href="#DejaVuSans-32"/>
       <use x="477.148438" xlink:href="#DejaVuSans-35"/>
      </g>
     </g>
    </g>
    <g id="ytick_8">
     <g id="line2d_45">
      <g>
       <use style="stroke:#000000;stroke-width:0.8;" x="79.22" xlink:href="#me1eb7d4440" y="241.412133"/>
      </g>
     </g>
     <g id="text_23">
      <!-- 0.0000050 -->
      <g transform="translate(18.141875 245.211351)scale(0.1 -0.1)">
       <use xlink:href="#DejaVuSans-30"/>
       <use x="63.623047" xlink:href="#DejaVuSans-2e"/>
       <use x="95.410156" xlink:href="#DejaVuSans-30"/>
       <use x="159.033203" xlink:href="#DejaVuSans-30"/>
       <use x="222.65625" xlink:href="#DejaVuSans-30"/>
       <use x="286.279297" xlink:href="#DejaVuSans-30"/>
       <use x="349.902344" xlink:href="#DejaVuSans-30"/>
       <use x="413.525391" xlink:href="#DejaVuSans-35"/>
       <use x="477.148438" xlink:href="#DejaVuSans-30"/>
      </g>
     </g>
    </g>
    <g id="text_24">
     <!-- Mass flow rate [kg/s] -->
     <defs>
      <path d="M 9.8125 72.90625 
L 24.515625 72.90625 
L 43.109375 23.296875 
L 61.8125 72.90625 
L 76.515625 72.90625 
L 76.515625 0 
L 66.890625 0 
L 66.890625 64.015625 
L 48.09375 14.015625 
L 38.1875 14.015625 
L 19.390625 64.015625 
L 19.390625 0 
L 9.8125 0 
z
" id="DejaVuSans-4d"/>
      <path d="M 37.109375 75.984375 
L 37.109375 68.5 
L 28.515625 68.5 
Q 23.6875 68.5 21.796875 66.546875 
Q 19.921875 64.59375 19.921875 59.515625 
L 19.921875 54.6875 
L 34.71875 54.6875 
L 34.71875 47.703125 
L 19.921875 47.703125 
L 19.921875 0 
L 10.890625 0 
L 10.890625 47.703125 
L 2.296875 47.703125 
L 2.296875 54.6875 
L 10.890625 54.6875 
L 10.890625 58.5 
Q 10.890625 67.625 15.140625 71.796875 
Q 19.390625 75.984375 28.609375 75.984375 
z
" id="DejaVuSans-66"/>
      <path d="M 25.390625 72.90625 
L 33.6875 72.90625 
L 8.296875 -9.28125 
L 0 -9.28125 
z
" id="DejaVuSans-2f"/>
     </defs>
     <g transform="translate(12.062188 307.586924)rotate(-90)scale(0.1 -0.1)">
      <use xlink:href="#DejaVuSans-4d"/>
      <use x="86.279297" xlink:href="#DejaVuSans-61"/>
      <use x="147.558594" xlink:href="#DejaVuSans-73"/>
      <use x="199.658203" xlink:href="#DejaVuSans-73"/>
      <use x="251.757812" xlink:href="#DejaVuSans-20"/>
      <use x="283.544922" xlink:href="#DejaVuSans-66"/>
      <use x="318.75" xlink:href="#DejaVuSans-6c"/>
      <use x="346.533203" xlink:href="#DejaVuSans-6f"/>
      <use x="407.714844" xlink:href="#DejaVuSans-77"/>
      <use x="489.501953" xlink:href="#DejaVuSans-20"/>
      <use x="521.289062" xlink:href="#DejaVuSans-72"/>
      <use x="562.402344" xlink:href="#DejaVuSans-61"/>
      <use x="623.681641" xlink:href="#DejaVuSans-74"/>
      <use x="662.890625" xlink:href="#DejaVuSans-65"/>
      <use x="724.414062" xlink:href="#DejaVuSans-20"/>
      <use x="756.201172" xlink:href="#DejaVuSans-5b"/>
      <use x="795.214844" xlink:href="#DejaVuSans-6b"/>
      <use x="853.125" xlink:href="#DejaVuSans-67"/>
      <use x="916.601562" xlink:href="#DejaVuSans-2f"/>
      <use x="950.292969" xlink:href="#DejaVuSans-73"/>
      <use x="1002.392578" xlink:href="#DejaVuSans-5d"/>
     </g>
    </g>
   </g>
   <g id="line2d_46">
    <path clip-path="url(#p40e7a469ff)" d="M 275.167803 288 
L 275.167803 223.036348 
" style="fill:none;stroke:#000000;stroke-dasharray:2,3.3;stroke-dashoffset:0;stroke-width:2;"/>
   </g>
   <g id="line2d_47">
    <path clip-path="url(#p40e7a469ff)" d="M 101.195455 275.462424 
L 102.340009 274.120842 
L 103.484564 273.168398 
L 104.629119 272.468798 
L 105.773674 271.18746 
L 106.918229 274.937782 
L 108.062784 274.283747 
L 109.207339 273.486997 
L 110.351894 275.663767 
L 111.496449 276.492475 
L 112.641004 277.673657 
L 117.219223 276.885708 
L 118.363778 282.445027 
L 120.652888 282.312929 
L 121.797443 278.724394 
L 122.941998 282.208776 
L 124.086553 281.725376 
L 125.231108 282.107284 
L 127.520218 282.021959 
L 128.664773 272.676052 
L 129.809328 272.958599 
L 130.953883 272.93444 
L 132.098437 271.910275 
L 133.242992 267.340456 
L 134.387547 263.448314 
L 135.532102 263.163189 
L 136.676657 257.756748 
L 137.821212 251.700689 
L 138.965767 238.764784 
L 140.110322 234.849058 
L 141.254877 244.040783 
L 142.399432 244.872853 
L 143.543987 246.433975 
L 144.688542 246.721722 
L 145.833097 250.137688 
L 146.977651 246.726537 
L 148.122206 249.169615 
L 149.266761 247.688569 
L 150.411316 253.025812 
L 151.555871 248.268598 
L 152.700426 250.620006 
L 154.989536 250.334269 
L 156.134091 251.977338 
L 157.278646 251.323952 
L 158.423201 250.805412 
L 159.567756 252.056497 
L 160.712311 252.884604 
L 161.856866 252.81061 
L 163.00142 251.632457 
L 164.145975 251.83998 
L 165.29053 253.42098 
L 166.435085 253.343362 
L 168.724195 254.293295 
L 169.86875 254.26967 
L 171.013305 253.136941 
L 172.15786 253.992456 
L 174.44697 254.654329 
L 175.591525 254.77491 
L 176.73608 254.538783 
L 177.880634 245.669725 
L 179.025189 247.246757 
L 180.169744 247.533867 
L 181.314299 245.79782 
L 182.458854 245.272962 
L 183.603409 244.296173 
L 184.747964 245.142899 
L 185.892519 246.731021 
L 187.037074 246.834196 
L 188.181629 245.132073 
L 189.326184 244.705551 
L 190.470739 243.807069 
L 191.615294 243.607239 
L 192.759848 242.121836 
L 193.904403 242.809076 
L 195.048958 242.765593 
L 196.193513 243.267226 
L 197.338068 243.314611 
L 198.482623 244.851228 
L 199.627178 243.960523 
L 200.771733 245.685183 
L 201.916288 245.087423 
L 203.060843 242.946358 
L 204.205398 243.065681 
L 205.349953 243.430132 
L 206.494508 240.756529 
L 207.639062 240.930077 
L 208.783617 247.452873 
L 209.928172 247.783766 
L 211.072727 247.626455 
L 212.217282 246.353697 
L 213.361837 245.313891 
L 215.650947 240.609592 
L 216.795502 242.45512 
L 217.940057 243.367615 
L 219.084612 237.626356 
L 220.229167 231.034538 
L 221.373722 231.587487 
L 222.518276 231.979639 
L 227.096496 232.704494 
L 228.241051 235.133375 
L 232.819271 235.662109 
L 233.963826 234.199309 
L 235.108381 235.05948 
L 238.542045 235.961064 
L 239.6866 232.13674 
L 240.831155 232.199962 
L 241.97571 232.671444 
L 243.120265 233.341004 
L 244.26482 232.616226 
L 245.409375 233.791725 
L 246.55393 233.79768 
L 247.698485 232.97384 
L 248.84304 232.290565 
L 249.987595 232.551868 
L 251.13215 233.544277 
L 252.276705 226.04272 
L 253.421259 233.528897 
L 254.565814 234.616823 
L 255.710369 236.074097 
L 256.854924 236.276039 
L 257.999479 237.717643 
L 259.144034 238.190852 
L 260.288589 229.927921 
L 261.433144 236.571502 
L 262.577699 239.255524 
L 263.722254 229.537963 
L 264.866809 235.636634 
L 266.011364 240.92189 
L 267.155919 241.203464 
L 268.300473 241.018196 
L 269.445028 241.576689 
L 270.589583 242.004189 
L 271.734138 241.189275 
L 272.878693 240.748232 
L 274.023248 241.583229 
L 275.167803 266.456854 
L 276.312358 263.755718 
L 277.456913 265.103921 
L 278.601468 263.912706 
L 279.746023 261.828762 
L 280.890578 263.083569 
L 282.035133 262.232631 
L 283.179687 262.871276 
L 284.324242 262.785638 
L 286.613352 260.957191 
L 287.757907 253.833957 
L 288.902462 255.337233 
L 290.047017 254.733335 
L 291.191572 255.313133 
L 292.336127 255.182562 
L 293.480682 253.395101 
L 294.625237 254.357717 
L 296.914347 254.117223 
L 298.058902 253.353472 
L 299.203456 253.74043 
L 301.492566 253.675447 
L 302.637121 252.417546 
L 306.070786 252.625528 
L 307.215341 250.666392 
L 308.359896 251.899332 
L 309.504451 253.516011 
L 311.793561 251.978801 
L 314.08267 251.634469 
L 315.227225 250.456559 
L 316.37178 252.663004 
L 317.516335 252.699634 
L 318.66089 258.586529 
L 319.805445 259.880603 
L 320.95 259.664402 
L 322.094555 258.976145 
L 323.23911 259.430373 
L 324.383665 255.980789 
L 325.52822 258.94572 
L 326.672775 263.135877 
L 327.81733 265.773074 
L 328.961884 265.747329 
L 330.106439 262.899285 
L 331.250994 272.335511 
L 333.540104 272.293933 
L 336.973769 272.233009 
L 338.118324 280.159013 
L 340.407434 280.132042 
L 341.551989 276.710672 
L 342.696544 280.020929 
L 346.130208 280.058254 
L 347.274763 277.602764 
L 348.419318 269.468231 
L 349.563873 268.810414 
L 350.708428 269.439079 
L 351.852983 268.356858 
L 352.997538 264.986717 
L 354.142093 262.221183 
L 355.286648 248.772159 
L 356.431203 251.922454 
L 357.575758 249.332202 
L 358.720312 238.635342 
L 359.864867 239.102609 
L 361.009422 238.986841 
L 362.153977 240.720057 
L 363.298532 241.956216 
L 364.443087 243.420763 
L 365.587642 246.514853 
L 366.732197 243.402027 
L 367.876752 242.561289 
L 369.021307 243.561187 
L 370.165862 247.997419 
L 371.310417 245.199996 
L 372.454972 245.87638 
L 373.599526 247.217233 
L 374.744081 247.091027 
L 375.888636 246.373266 
L 377.033191 247.298573 
L 378.177746 247.701677 
L 379.322301 248.334271 
L 380.466856 249.810711 
L 382.755966 248.84812 
L 383.900521 249.571445 
L 385.045076 249.321903 
L 386.189631 249.246978 
L 387.334186 248.614469 
L 388.478741 250.142828 
L 389.623295 250.225341 
L 390.76785 250.710467 
L 391.912405 250.172777 
L 393.05696 250.674787 
L 394.201515 250.160831 
L 395.34607 242.302074 
L 396.490625 241.851994 
L 397.63518 241.268935 
L 398.779735 241.548506 
L 399.92429 241.031075 
L 401.068845 241.578739 
L 402.2134 242.687121 
L 403.357955 242.041934 
L 404.502509 243.250314 
L 405.647064 240.728412 
L 406.791619 242.048615 
L 407.936174 243.807535 
L 409.080729 242.544458 
L 410.225284 243.818595 
L 411.369839 243.884109 
L 412.514394 242.948435 
L 413.658949 243.516902 
L 414.803504 243.014712 
L 415.948059 241.713994 
L 418.237169 244.960814 
L 419.381723 245.680181 
L 420.526278 237.974003 
L 422.815388 244.89318 
L 423.959943 244.652112 
L 425.104498 244.199815 
L 426.249053 245.944791 
L 427.393608 247.356779 
L 428.538163 254.901324 
L 429.682718 269.070824 
L 430.827273 272.252234 
L 431.971828 271.810145 
L 433.116383 272.314615 
L 434.260937 272.167025 
L 435.405492 274.29957 
L 436.550047 273.789212 
L 437.694602 274.426982 
L 438.839157 273.104698 
L 439.983712 273.383918 
L 441.128267 276.928566 
L 442.272822 275.779882 
L 443.417377 276.298011 
L 444.561932 271.27957 
L 445.706487 271.661552 
L 450.284706 271.546777 
L 451.429261 267.656508 
L 452.573816 271.487428 
L 453.718371 270.557791 
L 454.862926 271.412168 
L 456.007481 271.401633 
L 457.152036 268.817116 
L 458.296591 259.455969 
L 459.441146 259.838654 
L 460.585701 259.481135 
L 461.730256 257.952055 
L 462.874811 250.53093 
L 465.16392 241.728473 
L 466.308475 237.761062 
L 467.45303 241.091827 
L 468.597585 226.038086 
L 469.74214 225.989241 
L 470.886695 232.880333 
L 472.03125 233.721598 
L 473.175805 234.269992 
L 474.32036 235.533087 
L 475.464915 241.048431 
L 476.60947 230.193484 
L 477.754025 228.553341 
L 478.89858 229.190681 
L 480.043134 236.368973 
L 481.187689 238.731247 
L 482.332244 239.528592 
L 483.476799 237.700746 
L 484.621354 240.218286 
L 486.910464 241.560332 
L 488.055019 241.950012 
L 489.199574 243.434706 
L 490.344129 242.682215 
L 491.488684 243.037503 
L 492.633239 243.007887 
L 493.777794 243.849557 
L 496.066903 243.219175 
L 497.211458 244.195158 
L 498.356013 243.632178 
L 499.500568 237.835152 
L 500.645123 236.059759 
L 501.789678 235.803795 
L 502.934233 235.219415 
L 504.078788 237.196787 
L 505.223343 235.845493 
L 506.367898 236.723253 
L 507.512453 235.645066 
L 508.657008 236.15775 
L 509.801562 234.845945 
L 512.090672 236.51088 
L 513.235227 235.782861 
L 514.379782 236.383326 
L 515.524337 237.840406 
L 516.668892 237.780526 
L 517.813447 237.992521 
L 518.958002 238.584504 
L 520.102557 238.062451 
L 521.247112 236.438474 
L 522.391667 237.466987 
L 523.536222 236.917477 
L 524.680777 237.273863 
L 525.825331 237.352141 
L 526.969886 236.859666 
L 528.114441 236.756801 
L 529.258996 238.060294 
L 530.403551 237.619836 
L 531.548106 235.920657 
L 532.692661 237.181656 
L 533.837216 236.522388 
L 534.981771 237.011224 
L 536.126326 238.860202 
L 537.270881 239.10468 
L 538.415436 248.042915 
L 539.559991 247.692733 
L 540.704545 285.047107 
L 540.704545 285.047107 
" style="fill:none;stroke:#1f77b4;stroke-linecap:square;stroke-width:2;"/>
   </g>
   <g id="line2d_48">
    <path clip-path="url(#p40e7a469ff)" d="M 101.195455 275.462424 
L 102.340009 274.120842 
L 103.484564 273.168398 
L 104.629119 272.468798 
L 105.773674 271.18746 
L 106.918229 274.937782 
L 108.062784 274.283747 
L 109.207339 273.486997 
L 110.351894 275.663767 
L 111.496449 276.492475 
L 112.641004 277.673657 
L 117.219223 276.885708 
L 118.363778 282.445027 
L 120.652888 282.312929 
L 121.797443 278.724394 
L 122.941998 282.208776 
L 124.086553 281.725376 
L 125.231108 282.107284 
L 127.520218 282.021959 
L 128.664773 272.676052 
L 129.809328 272.958599 
L 130.953883 272.93444 
L 132.098437 271.910275 
L 133.242992 267.340456 
L 134.387547 263.448314 
L 135.532102 263.163189 
L 136.676657 257.756748 
L 137.821212 251.700689 
L 138.965767 238.764784 
L 140.110322 234.849058 
L 141.254877 244.040783 
L 142.399432 244.872853 
L 143.543987 246.433975 
L 144.688542 246.721722 
L 145.833097 250.137688 
L 146.977651 246.726537 
L 148.122206 249.169615 
L 149.266761 247.688569 
L 150.411316 253.025812 
L 151.555871 248.268598 
L 152.700426 250.620006 
L 154.989536 250.334269 
L 156.134091 251.977338 
L 157.278646 251.323952 
L 158.423201 250.805412 
L 159.567756 252.056497 
L 160.712311 252.884604 
L 161.856866 252.81061 
L 163.00142 251.632457 
L 164.145975 251.83998 
L 165.29053 253.42098 
L 166.435085 253.343362 
L 168.724195 254.293295 
L 169.86875 254.26967 
L 171.013305 253.136941 
L 172.15786 253.992456 
L 174.44697 254.654329 
L 175.591525 254.77491 
L 176.73608 254.538783 
L 177.880634 245.669725 
L 179.025189 247.246757 
L 180.169744 247.533867 
L 181.314299 245.79782 
L 182.458854 245.272962 
L 183.603409 244.296173 
L 184.747964 245.142899 
L 185.892519 246.731021 
L 187.037074 246.834196 
L 188.181629 245.132073 
L 189.326184 244.705551 
L 190.470739 243.807069 
L 191.615294 243.607239 
L 192.759848 242.121836 
L 193.904403 242.809076 
L 195.048958 242.765593 
L 196.193513 243.267226 
L 197.338068 243.314611 
L 198.482623 244.851228 
L 199.627178 243.960523 
L 200.771733 245.685183 
L 201.916288 245.087423 
L 203.060843 242.946358 
L 204.205398 243.065681 
L 205.349953 243.430132 
L 206.494508 240.756529 
L 207.639062 240.930077 
L 208.783617 247.452873 
L 209.928172 247.783766 
L 211.072727 247.626455 
L 212.217282 246.353697 
L 213.361837 245.313891 
L 215.650947 240.609592 
L 216.795502 242.45512 
L 217.940057 243.367615 
L 219.084612 237.626356 
L 220.229167 231.034538 
L 221.373722 231.587487 
L 222.518276 231.979639 
L 227.096496 232.704494 
L 228.241051 235.133375 
L 232.819271 235.662109 
L 233.963826 234.199309 
L 235.108381 235.05948 
L 238.542045 235.961064 
L 239.6866 232.13674 
L 240.831155 232.199962 
L 241.97571 232.671444 
L 243.120265 233.341004 
L 244.26482 232.616226 
L 245.409375 233.791725 
L 246.55393 233.79768 
L 247.698485 232.97384 
L 248.84304 232.290565 
L 249.987595 232.551868 
L 251.13215 233.544277 
L 252.276705 226.04272 
L 253.421259 233.528897 
L 254.565814 234.616823 
L 255.710369 236.074097 
L 256.854924 236.276039 
L 257.999479 237.717643 
L 259.144034 238.190852 
L 260.288589 229.927921 
L 261.433144 236.571502 
L 262.577699 239.255524 
L 263.722254 229.537963 
L 264.866809 235.636634 
L 266.011364 240.92189 
L 267.155919 241.203464 
L 268.300473 241.018196 
L 269.445028 241.576689 
L 270.589583 242.004189 
L 271.734138 241.189275 
L 272.878693 240.748232 
L 274.023248 241.583229 
L 275.167803 266.456854 
L 276.312358 263.755718 
L 277.456913 265.103921 
L 278.601468 263.912706 
L 279.746023 261.828762 
L 280.890578 263.083569 
L 282.035133 262.232631 
L 283.179687 262.871276 
L 284.324242 262.785638 
L 286.613352 260.957191 
L 287.757907 253.833957 
L 288.902462 255.337233 
L 290.047017 254.733335 
L 291.191572 255.313133 
L 292.336127 255.182562 
L 293.480682 253.395101 
L 294.625237 254.357717 
L 296.914347 254.117223 
L 298.058902 253.353472 
L 299.203456 253.74043 
L 301.492566 253.675447 
L 302.637121 252.417546 
L 306.070786 252.625528 
L 307.215341 250.666392 
L 308.359896 251.899332 
L 309.504451 253.516011 
L 311.793561 251.978801 
L 314.08267 251.634469 
L 315.227225 250.456559 
L 316.37178 252.663004 
L 317.516335 252.699634 
L 318.66089 258.586529 
L 319.805445 259.880603 
L 320.95 259.664402 
L 322.094555 258.976145 
L 323.23911 259.430373 
L 324.383665 255.980789 
L 325.52822 258.94572 
L 326.672775 263.135877 
L 327.81733 265.773074 
L 328.961884 265.747329 
L 330.106439 262.899285 
L 331.250994 272.335511 
L 333.540104 272.293933 
L 336.973769 272.233009 
L 338.118324 280.159013 
L 340.407434 280.132042 
L 341.551989 276.710672 
L 342.696544 280.020929 
L 346.130208 280.058254 
L 347.274763 277.602764 
L 348.419318 269.468231 
L 349.563873 268.810414 
L 350.708428 269.439079 
L 351.852983 268.356858 
L 352.997538 264.986717 
L 354.142093 262.221183 
L 355.286648 248.772159 
L 356.431203 251.922454 
L 357.575758 249.332202 
L 358.720312 238.635342 
L 359.864867 239.102609 
L 361.009422 238.986841 
L 362.153977 240.720057 
L 363.298532 241.956216 
L 364.443087 243.420763 
L 365.587642 246.514853 
L 366.732197 243.402027 
L 367.876752 242.561289 
L 369.021307 243.561187 
L 370.165862 247.997419 
L 371.310417 245.199996 
L 372.454972 245.87638 
L 373.599526 247.217233 
L 374.744081 247.091027 
L 375.888636 246.373266 
L 377.033191 247.298573 
L 378.177746 247.701677 
L 379.322301 248.334271 
L 380.466856 249.810711 
L 382.755966 248.84812 
L 383.900521 249.571445 
L 385.045076 249.321903 
L 386.189631 249.246978 
L 387.334186 248.614469 
L 388.478741 250.142828 
L 389.623295 250.225341 
L 390.76785 250.710467 
L 391.912405 250.172777 
L 393.05696 250.674787 
L 394.201515 250.160831 
L 395.34607 242.302074 
L 396.490625 241.851994 
L 397.63518 241.268935 
L 398.779735 241.548506 
L 399.92429 241.031075 
L 401.068845 241.578739 
L 402.2134 242.687121 
L 403.357955 242.041934 
L 404.502509 243.250314 
L 405.647064 240.728412 
L 406.791619 242.048615 
L 407.936174 243.807535 
L 409.080729 242.544458 
L 410.225284 243.818595 
L 411.369839 243.884109 
L 412.514394 242.948435 
L 413.658949 243.516902 
L 414.803504 243.014712 
L 415.948059 241.713994 
L 418.237169 244.960814 
L 419.381723 245.680181 
L 420.526278 237.974003 
L 422.815388 244.89318 
L 423.959943 244.652112 
L 425.104498 244.199815 
L 426.249053 245.944791 
L 427.393608 247.356779 
L 428.538163 254.901324 
L 429.682718 269.070824 
L 430.827273 272.252234 
L 431.971828 271.810145 
L 433.116383 272.314615 
L 434.260937 272.167025 
L 435.405492 274.29957 
L 436.550047 273.789212 
L 437.694602 274.426982 
L 438.839157 273.104698 
L 439.983712 273.383918 
L 441.128267 276.928566 
L 442.272822 275.779882 
L 443.417377 276.298011 
L 444.561932 271.27957 
L 445.706487 271.661552 
L 450.284706 271.546777 
L 451.429261 267.656508 
L 452.573816 271.487428 
L 453.718371 270.557791 
L 454.862926 271.412168 
L 456.007481 271.401633 
L 457.152036 268.817116 
L 458.296591 259.455969 
L 459.441146 259.838654 
L 460.585701 259.481135 
L 461.730256 257.952055 
L 462.874811 250.53093 
L 465.16392 241.728473 
L 466.308475 237.761062 
L 467.45303 241.091827 
L 468.597585 226.038086 
L 469.74214 225.989241 
L 470.886695 232.880333 
L 472.03125 233.721598 
L 473.175805 234.269992 
L 474.32036 235.533087 
L 475.464915 241.048431 
L 476.60947 230.193484 
L 477.754025 228.553341 
L 478.89858 229.190681 
L 480.043134 236.368973 
L 481.187689 238.731247 
L 482.332244 239.528592 
L 483.476799 237.700746 
L 484.621354 240.218286 
L 486.910464 241.560332 
L 488.055019 241.950012 
L 489.199574 243.434706 
L 490.344129 242.682215 
L 491.488684 243.037503 
L 492.633239 243.007887 
L 493.777794 243.849557 
L 496.066903 243.219175 
L 497.211458 244.195158 
L 498.356013 243.632178 
L 499.500568 237.835152 
L 500.645123 236.059759 
L 501.789678 235.803795 
L 502.934233 235.219415 
L 504.078788 237.196787 
L 505.223343 235.845493 
L 506.367898 236.723253 
L 507.512453 235.645066 
L 508.657008 236.15775 
L 509.801562 234.845945 
L 512.090672 236.51088 
L 513.235227 235.782861 
L 514.379782 236.383326 
L 515.524337 237.840406 
L 516.668892 237.780526 
L 517.813447 237.992521 
L 518.958002 238.584504 
L 520.102557 238.062451 
L 521.247112 236.438474 
L 522.391667 237.466987 
L 523.536222 236.917477 
L 524.680777 237.273863 
L 525.825331 237.352141 
L 526.969886 236.859666 
L 528.114441 236.756801 
L 529.258996 238.060294 
L 530.403551 237.619836 
L 531.548106 235.920657 
L 532.692661 237.181656 
L 533.837216 236.522388 
L 534.981771 237.011224 
L 536.126326 238.860202 
L 537.270881 239.10468 
L 538.415436 248.042915 
L 539.559991 247.692733 
L 540.704545 285.047107 
L 540.704545 285.047107 
" style="fill:none;stroke:#ff7f0e;stroke-dasharray:7.4,3.2;stroke-dashoffset:0;stroke-width:2;"/>
   </g>
   <g id="patch_14">
    <path d="M 79.22 288 
L 79.22 223.036348 
" style="fill:none;stroke:#000000;stroke-linecap:square;stroke-linejoin:miter;stroke-width:0.8;"/>
   </g>
   <g id="patch_15">
    <path d="M 562.68 288 
L 562.68 223.036348 
" style="fill:none;stroke:#000000;stroke-linecap:square;stroke-linejoin:miter;stroke-width:0.8;"/>
   </g>
   <g id="patch_16">
    <path d="M 79.22 288 
L 562.68 288 
" style="fill:none;stroke:#000000;stroke-linecap:square;stroke-linejoin:miter;stroke-width:0.8;"/>
   </g>
   <g id="patch_17">
    <path d="M 79.22 223.036348 
L 562.68 223.036348 
" style="fill:none;stroke:#000000;stroke-linecap:square;stroke-linejoin:miter;stroke-width:0.8;"/>
   </g>
   <g id="text_25">
    <!-- Mass flow rates -->
    <g transform="translate(274.360937 217.036348)scale(0.12 -0.12)">
     <use xlink:href="#DejaVuSans-4d"/>
     <use x="86.279297" xlink:href="#DejaVuSans-61"/>
     <use x="147.558594" xlink:href="#DejaVuSans-73"/>
     <use x="199.658203" xlink:href="#DejaVuSans-73"/>
     <use x="251.757812" xlink:href="#DejaVuSans-20"/>
     <use x="283.544922" xlink:href="#DejaVuSans-66"/>
     <use x="318.75" xlink:href="#DejaVuSans-6c"/>
     <use x="346.533203" xlink:href="#DejaVuSans-6f"/>
     <use x="407.714844" xlink:href="#DejaVuSans-77"/>
     <use x="489.501953" xlink:href="#DejaVuSans-20"/>
     <use x="521.289062" xlink:href="#DejaVuSans-72"/>
     <use x="562.402344" xlink:href="#DejaVuSans-61"/>
     <use x="623.681641" xlink:href="#DejaVuSans-74"/>
     <use x="662.890625" xlink:href="#DejaVuSans-65"/>
     <use x="724.414062" xlink:href="#DejaVuSans-73"/>
    </g>
   </g>
  </g>
 </g>
 <defs>
  <clipPath id="p20255124a6">
   <rect height="64.963652" width="483.46" x="79.22" y="25.44"/>
  </clipPath>
  <clipPath id="p3ec896059f">
   <rect height="64.963652" width="483.46" x="79.22" y="124.238174"/>
  </clipPath>
  <clipPath id="p40e7a469ff">
   <rect height="64.963652" width="483.46" x="79.22" y="223.036348"/>
  </clipPath>
 </defs>
</svg>
