<?xml version="1.0" encoding="utf-8" standalone="no"?>
<!DOCTYPE svg PUBLIC "-//W3C//DTD SVG 1.1//EN"
  "http://www.w3.org/Graphics/SVG/1.1/DTD/svg11.dtd">
<!-- Created with matplotlib (http://matplotlib.org/) -->
<svg height="345pt" version="1.1" viewBox="0 0 460 345" width="460pt" xmlns="http://www.w3.org/2000/svg" xmlns:xlink="http://www.w3.org/1999/xlink">
 <defs>
  <style type="text/css">
*{stroke-linecap:butt;stroke-linejoin:round;}
  </style>
 </defs>
 <g id="figure_1">
  <g id="patch_1">
   <path d="M 0 345.6 
L 460.8 345.6 
L 460.8 0 
L 0 0 
z
" style="fill:#ffffff;"/>
  </g>
  <g id="axes_1">
   <g id="patch_2">
    <path d="M 55.69 93.110059 
L 447.48 93.110059 
L 447.48 25.44 
L 55.69 25.44 
z
" style="fill:#ffffff;"/>
   </g>
   <g id="matplotlib.axis_1">
    <g id="xtick_1">
     <g id="line2d_1">
      <defs>
       <path d="M 0 0 
L 0 3.5 
" id="mf8c50f11c9" style="stroke:#000000;stroke-width:0.8;"/>
      </defs>
      <g>
       <use style="stroke:#000000;stroke-width:0.8;" x="62.368239" xlink:href="#mf8c50f11c9" y="93.110059"/>
      </g>
     </g>
    </g>
    <g id="xtick_2">
     <g id="line2d_2">
      <g>
       <use style="stroke:#000000;stroke-width:0.8;" x="106.88983" xlink:href="#mf8c50f11c9" y="93.110059"/>
      </g>
     </g>
    </g>
    <g id="xtick_3">
     <g id="line2d_3">
      <g>
       <use style="stroke:#000000;stroke-width:0.8;" x="151.41142" xlink:href="#mf8c50f11c9" y="93.110059"/>
      </g>
     </g>
    </g>
    <g id="xtick_4">
     <g id="line2d_4">
      <g>
       <use style="stroke:#000000;stroke-width:0.8;" x="195.933011" xlink:href="#mf8c50f11c9" y="93.110059"/>
      </g>
     </g>
    </g>
    <g id="xtick_5">
     <g id="line2d_5">
      <g>
       <use style="stroke:#000000;stroke-width:0.8;" x="240.454602" xlink:href="#mf8c50f11c9" y="93.110059"/>
      </g>
     </g>
    </g>
    <g id="xtick_6">
     <g id="line2d_6">
      <g>
       <use style="stroke:#000000;stroke-width:0.8;" x="284.976193" xlink:href="#mf8c50f11c9" y="93.110059"/>
      </g>
     </g>
    </g>
    <g id="xtick_7">
     <g id="line2d_7">
      <g>
       <use style="stroke:#000000;stroke-width:0.8;" x="329.497784" xlink:href="#mf8c50f11c9" y="93.110059"/>
      </g>
     </g>
    </g>
    <g id="xtick_8">
     <g id="line2d_8">
      <g>
       <use style="stroke:#000000;stroke-width:0.8;" x="374.019375" xlink:href="#mf8c50f11c9" y="93.110059"/>
      </g>
     </g>
    </g>
    <g id="xtick_9">
     <g id="line2d_9">
      <g>
       <use style="stroke:#000000;stroke-width:0.8;" x="418.540966" xlink:href="#mf8c50f11c9" y="93.110059"/>
      </g>
     </g>
    </g>
   </g>
   <g id="matplotlib.axis_2">
    <g id="ytick_1">
     <g id="line2d_10">
      <defs>
       <path d="M 0 0 
L -3.5 0 
" id="me1ecd299d0" style="stroke:#000000;stroke-width:0.8;"/>
      </defs>
      <g>
       <use style="stroke:#000000;stroke-width:0.8;" x="55.69" xlink:href="#me1ecd299d0" y="72.083654"/>
      </g>
     </g>
     <g id="text_1">
      <!-- 0 -->
      <defs>
       <path d="M 31.78125 66.40625 
Q 24.171875 66.40625 20.328125 58.90625 
Q 16.5 51.421875 16.5 36.375 
Q 16.5 21.390625 20.328125 13.890625 
Q 24.171875 6.390625 31.78125 6.390625 
Q 39.453125 6.390625 43.28125 13.890625 
Q 47.125 21.390625 47.125 36.375 
Q 47.125 51.421875 43.28125 58.90625 
Q 39.453125 66.40625 31.78125 66.40625 
z
M 31.78125 74.21875 
Q 44.046875 74.21875 50.515625 64.515625 
Q 56.984375 54.828125 56.984375 36.375 
Q 56.984375 17.96875 50.515625 8.265625 
Q 44.046875 -1.421875 31.78125 -1.421875 
Q 19.53125 -1.421875 13.0625 8.265625 
Q 6.59375 17.96875 6.59375 36.375 
Q 6.59375 54.828125 13.0625 64.515625 
Q 19.53125 74.21875 31.78125 74.21875 
z
" id="DejaVuSans-30"/>
      </defs>
      <g transform="translate(42.3275 75.882873)scale(0.1 -0.1)">
       <use xlink:href="#DejaVuSans-30"/>
      </g>
     </g>
    </g>
    <g id="ytick_2">
     <g id="line2d_11">
      <g>
       <use style="stroke:#000000;stroke-width:0.8;" x="55.69" xlink:href="#me1ecd299d0" y="49.068757"/>
      </g>
     </g>
     <g id="text_2">
      <!-- 50000 -->
      <defs>
       <path d="M 10.796875 72.90625 
L 49.515625 72.90625 
L 49.515625 64.59375 
L 19.828125 64.59375 
L 19.828125 46.734375 
Q 21.96875 47.46875 24.109375 47.828125 
Q 26.265625 48.1875 28.421875 48.1875 
Q 40.625 48.1875 47.75 41.5 
Q 54.890625 34.8125 54.890625 23.390625 
Q 54.890625 11.625 47.5625 5.09375 
Q 40.234375 -1.421875 26.90625 -1.421875 
Q 22.3125 -1.421875 17.546875 -0.640625 
Q 12.796875 0.140625 7.71875 1.703125 
L 7.71875 11.625 
Q 12.109375 9.234375 16.796875 8.0625 
Q 21.484375 6.890625 26.703125 6.890625 
Q 35.15625 6.890625 40.078125 11.328125 
Q 45.015625 15.765625 45.015625 23.390625 
Q 45.015625 31 40.078125 35.4375 
Q 35.15625 39.890625 26.703125 39.890625 
Q 22.75 39.890625 18.8125 39.015625 
Q 14.890625 38.140625 10.796875 36.28125 
z
" id="DejaVuSans-35"/>
      </defs>
      <g transform="translate(16.8775 52.867976)scale(0.1 -0.1)">
       <use xlink:href="#DejaVuSans-35"/>
       <use x="63.623047" xlink:href="#DejaVuSans-30"/>
       <use x="127.246094" xlink:href="#DejaVuSans-30"/>
       <use x="190.869141" xlink:href="#DejaVuSans-30"/>
       <use x="254.492188" xlink:href="#DejaVuSans-30"/>
      </g>
     </g>
    </g>
    <g id="ytick_3">
     <g id="line2d_12">
      <g>
       <use style="stroke:#000000;stroke-width:0.8;" x="55.69" xlink:href="#me1ecd299d0" y="26.053859"/>
      </g>
     </g>
     <g id="text_3">
      <!-- 100000 -->
      <defs>
       <path d="M 12.40625 8.296875 
L 28.515625 8.296875 
L 28.515625 63.921875 
L 10.984375 60.40625 
L 10.984375 69.390625 
L 28.421875 72.90625 
L 38.28125 72.90625 
L 38.28125 8.296875 
L 54.390625 8.296875 
L 54.390625 0 
L 12.40625 0 
z
" id="DejaVuSans-31"/>
      </defs>
      <g transform="translate(10.515 29.853078)scale(0.1 -0.1)">
       <use xlink:href="#DejaVuSans-31"/>
       <use x="63.623047" xlink:href="#DejaVuSans-30"/>
       <use x="127.246094" xlink:href="#DejaVuSans-30"/>
       <use x="190.869141" xlink:href="#DejaVuSans-30"/>
       <use x="254.492188" xlink:href="#DejaVuSans-30"/>
       <use x="318.115234" xlink:href="#DejaVuSans-30"/>
      </g>
     </g>
    </g>
   </g>
   <g id="line2d_13">
    <path clip-path="url(#p6afb196cf3)" d="M 73.498636 72.083654 
L 155.121553 72.083654 
L 156.049086 70.070847 
L 156.976619 70.235958 
L 157.904152 70.276206 
L 158.831686 68.302543 
L 159.759219 68.505726 
L 166.251951 69.004241 
L 167.179484 61.294412 
L 168.107017 56.587245 
L 169.03455 45.286096 
L 169.962083 44.379996 
L 170.889616 33.87563 
L 173.672216 34.607932 
L 175.527282 35.018268 
L 176.454815 29.006441 
L 177.382348 29.168473 
L 178.309882 30.379531 
L 179.237415 34.194935 
L 180.164948 30.377686 
L 181.092481 28.515912 
L 182.020014 29.160008 
L 182.947547 29.312711 
L 183.87508 31.126362 
L 184.802614 40.217123 
L 185.730147 36.440012 
L 186.65768 36.279397 
L 187.585213 38.604354 
L 188.512746 43.127356 
L 189.440279 42.837255 
L 190.367812 48.392607 
L 191.295346 58.250075 
L 192.222879 60.789832 
L 193.150412 71.915837 
L 194.077945 71.007787 
L 197.788078 70.266784 
L 198.715611 65.486426 
L 199.643144 70.320855 
L 200.570677 69.885808 
L 201.49821 69.739096 
L 202.425743 66.657714 
L 203.353277 69.837039 
L 204.28081 69.434291 
L 208.918475 68.651451 
L 209.846009 68.526358 
L 210.773542 67.728801 
L 212.628608 68.218661 
L 213.556141 68.082352 
L 214.483674 86.445079 
L 215.411207 85.067815 
L 218.193807 84.085217 
L 219.12134 90.034147 
L 220.048873 89.334982 
L 222.831473 88.312439 
L 223.759006 89.380314 
L 224.686539 82.851607 
L 225.614072 83.895183 
L 231.179271 82.129671 
L 235.816937 80.888854 
L 241.382135 79.62916 
L 246.947334 78.572094 
L 247.874867 77.840169 
L 248.802401 77.699002 
L 249.729934 76.632751 
L 256.222666 75.923974 
L 257.150199 74.935729 
L 258.077732 74.894356 
L 259.005265 75.348991 
L 259.932798 74.221672 
L 260.860331 73.785565 
L 264.570464 73.693112 
L 265.497997 72.593718 
L 266.42553 72.602087 
L 267.353063 73.168948 
L 269.20813 73.087986 
L 270.135663 72.562839 
L 271.990729 72.561426 
L 273.845795 73.287996 
L 275.700862 73.28659 
L 276.628395 73.754014 
L 277.555928 75.480611 
L 278.483461 79.7848 
L 279.410994 79.911087 
L 281.266061 74.276138 
L 282.193594 75.384913 
L 284.976193 75.103114 
L 286.831259 74.877387 
L 287.758793 74.439526 
L 288.686326 74.771347 
L 290.541392 74.543162 
L 291.468925 75.114037 
L 292.396458 74.751163 
L 302.599323 74.125151 
L 307.236989 73.96259 
L 309.092055 73.917967 
L 310.019588 78.233064 
L 310.947121 79.905436 
L 311.874654 73.815608 
L 312.802187 73.665843 
L 327.642718 73.199729 
L 337.845582 72.866071 
L 340.628182 72.343411 
L 341.555715 72.407033 
L 343.410781 72.343429 
L 345.265848 72.316644 
L 349.903513 72.338875 
L 350.831046 72.836501 
L 351.75858 72.20677 
L 354.541179 72.322576 
L 358.251312 72.479832 
L 360.106378 72.381873 
L 361.961444 72.470457 
L 363.81651 72.53596 
L 366.59911 72.577446 
L 367.526643 72.564997 
L 368.454176 73.979365 
L 369.381709 72.601751 
L 370.309242 75.203805 
L 371.236776 72.601153 
L 372.164309 72.778648 
L 375.874441 72.809705 
L 376.801974 78.844544 
L 377.729508 74.341824 
L 378.657041 72.598558 
L 387.004839 72.465346 
L 393.497571 72.399274 
L 422.251098 72.290151 
L 428.74383 72.223994 
L 429.671364 72.083654 
L 429.671364 72.083654 
" style="fill:none;stroke:#0000ff;stroke-linecap:square;stroke-width:2;"/>
   </g>
   <g id="line2d_14">
    <path clip-path="url(#p6afb196cf3)" d="M 214.483674 93.110059 
L 214.483674 25.44 
" style="fill:none;stroke:#000000;stroke-dasharray:2,3.3;stroke-dashoffset:0;stroke-width:2;"/>
   </g>
   <g id="line2d_15">
    <path clip-path="url(#p6afb196cf3)" d="M 73.498636 72.083654 
L 155.121553 72.083654 
L 156.049086 70.070847 
L 156.976619 70.235958 
L 157.904152 70.276206 
L 158.831686 68.302543 
L 159.759219 68.505726 
L 166.251951 69.004241 
L 167.179484 61.294412 
L 168.107017 56.587245 
L 169.03455 45.286096 
L 169.962083 44.379996 
L 170.889616 33.87563 
L 173.672216 34.607932 
L 175.527282 35.018268 
L 176.454815 29.006441 
L 177.382348 29.168473 
L 178.309882 30.379531 
L 179.237415 34.194935 
L 180.164948 30.377686 
L 181.092481 28.515912 
L 182.020014 29.160008 
L 182.947547 29.312711 
L 183.87508 31.126362 
L 184.802614 40.217123 
L 185.730147 36.440012 
L 186.65768 36.279397 
L 187.585213 38.604354 
L 188.512746 43.127356 
L 189.440279 42.837255 
L 190.367812 48.392607 
L 191.295346 58.250075 
L 192.222879 60.789832 
L 193.150412 71.915837 
L 194.077945 71.007787 
L 197.788078 70.266784 
L 198.715611 65.486426 
L 199.643144 70.320855 
L 200.570677 69.885808 
L 201.49821 69.739096 
L 202.425743 66.657714 
L 203.353277 69.837039 
L 204.28081 69.434291 
L 208.918475 68.651451 
L 209.846009 68.526358 
L 210.773542 67.728801 
L 212.628608 68.218661 
L 213.556141 68.082352 
L 214.483674 86.445079 
L 215.411207 85.067815 
L 218.193807 84.085217 
L 219.12134 90.034147 
L 220.048873 89.334982 
L 222.831473 88.312439 
L 223.759006 89.380314 
L 224.686539 82.851607 
L 225.614072 83.895183 
L 231.179271 82.129671 
L 235.816937 80.888854 
L 241.382135 79.62916 
L 246.947334 78.572094 
L 247.874867 77.840169 
L 248.802401 77.699002 
L 249.729934 76.632751 
L 256.222666 75.923974 
L 257.150199 74.935729 
L 258.077732 74.894356 
L 259.005265 75.348991 
L 259.932798 74.221672 
L 260.860331 73.785565 
L 264.570464 73.693112 
L 265.497997 72.593718 
L 266.42553 72.602087 
L 267.353063 73.168948 
L 269.20813 73.087986 
L 270.135663 72.562839 
L 271.990729 72.561426 
L 273.845795 73.287996 
L 275.700862 73.28659 
L 276.628395 73.754014 
L 277.555928 75.480611 
L 278.483461 79.7848 
L 279.410994 79.911087 
L 281.266061 74.276138 
L 282.193594 75.384913 
L 284.976193 75.103114 
L 286.831259 74.877387 
L 287.758793 74.439526 
L 288.686326 74.771347 
L 290.541392 74.543162 
L 291.468925 75.114037 
L 292.396458 74.751163 
L 302.599323 74.125151 
L 307.236989 73.96259 
L 309.092055 73.917967 
L 310.019588 78.233064 
L 310.947121 79.905436 
L 311.874654 73.815608 
L 312.802187 73.665843 
L 327.642718 73.199729 
L 337.845582 72.866071 
L 340.628182 72.343411 
L 341.555715 72.407033 
L 343.410781 72.343429 
L 345.265848 72.316644 
L 349.903513 72.338875 
L 350.831046 72.836501 
L 351.75858 72.20677 
L 354.541179 72.322576 
L 358.251312 72.479832 
L 360.106378 72.381873 
L 361.961444 72.470457 
L 363.81651 72.53596 
L 366.59911 72.577446 
L 367.526643 72.564997 
L 368.454176 73.979365 
L 369.381709 72.601751 
L 370.309242 75.203805 
L 371.236776 72.601153 
L 372.164309 72.778648 
L 375.874441 72.809705 
L 376.801974 78.844544 
L 377.729508 74.341824 
L 378.657041 72.598558 
L 387.004839 72.465346 
L 393.497571 72.399274 
L 422.251098 72.290151 
L 428.74383 72.223994 
L 429.671364 72.083654 
L 429.671364 72.083654 
" style="fill:none;stroke:#008000;stroke-dasharray:7.4,3.2;stroke-dashoffset:0;stroke-width:2;"/>
   </g>
   <g id="line2d_16">
    <path clip-path="url(#p6afb196cf3)" d="M 214.483674 93.110059 
L 214.483674 25.44 
" style="fill:none;stroke:#000000;stroke-dasharray:2,3.3;stroke-dashoffset:0;stroke-width:2;"/>
   </g>
   <g id="line2d_17">
    <path clip-path="url(#p6afb196cf3)" d="M 73.498636 72.083654 
L 211.391897 72.083654 
L 211.701075 59.026656 
L 212.010253 60.416421 
L 213.246963 69.260688 
L 213.556141 70.368324 
L 213.865319 71.027196 
L 214.174497 71.404203 
L 214.483674 84.484802 
L 214.792852 83.346959 
L 216.029563 74.550596 
L 216.338741 73.435863 
L 216.647918 72.794434 
L 216.957096 72.422373 
L 217.575451 72.140432 
L 218.812162 72.084278 
L 258.38691 72.083654 
L 429.362186 72.083654 
L 429.362186 72.083654 
" style="fill:none;stroke:#ff0000;stroke-dasharray:12.8,3.2,2,3.2;stroke-dashoffset:0;stroke-width:2;"/>
   </g>
   <g id="line2d_18">
    <path clip-path="url(#p6afb196cf3)" d="M 214.483674 93.110059 
L 214.483674 25.44 
" style="fill:none;stroke:#000000;stroke-dasharray:2,3.3;stroke-dashoffset:0;stroke-width:2;"/>
   </g>
   <g id="line2d_19">
    <path clip-path="url(#p6afb196cf3)" d="M 73.498636 72.083654 
L 211.701075 72.083654 
L 212.010253 57.72675 
L 212.31943 59.322713 
L 213.556141 69.561731 
L 213.865319 70.647625 
L 214.174497 71.238767 
L 214.483674 80.078247 
L 214.792852 80.019563 
L 215.411207 79.131332 
L 216.338741 74.956519 
L 216.957096 73.397128 
L 217.575451 72.51892 
L 218.193807 72.189571 
L 219.12134 72.091397 
L 224.377361 72.084583 
L 225.304894 72.578293 
L 226.232427 72.138636 
L 227.469138 72.083869 
L 429.362186 72.083654 
L 429.362186 72.083654 
" style="fill:none;stroke:#00bfbf;stroke-dasharray:2,3.3;stroke-dashoffset:0;stroke-width:2;"/>
   </g>
   <g id="line2d_20">
    <path clip-path="url(#p6afb196cf3)" d="M 214.483674 93.110059 
L 214.483674 25.44 
" style="fill:none;stroke:#000000;stroke-dasharray:2,3.3;stroke-dashoffset:0;stroke-width:2;"/>
   </g>
   <g id="patch_3">
    <path d="M 55.69 93.110059 
L 55.69 25.44 
" style="fill:none;stroke:#000000;stroke-linecap:square;stroke-linejoin:miter;stroke-width:0.8;"/>
   </g>
   <g id="patch_4">
    <path d="M 447.48 93.110059 
L 447.48 25.44 
" style="fill:none;stroke:#000000;stroke-linecap:square;stroke-linejoin:miter;stroke-width:0.8;"/>
   </g>
   <g id="patch_5">
    <path d="M 55.69 93.110059 
L 447.48 93.110059 
" style="fill:none;stroke:#000000;stroke-linecap:square;stroke-linejoin:miter;stroke-width:0.8;"/>
   </g>
   <g id="patch_6">
    <path d="M 55.69 25.44 
L 447.48 25.44 
" style="fill:none;stroke:#000000;stroke-linecap:square;stroke-linejoin:miter;stroke-width:0.8;"/>
   </g>
   <g id="text_4">
    <!-- Old street -->
    <defs>
     <path d="M 39.40625 66.21875 
Q 28.65625 66.21875 22.328125 58.203125 
Q 16.015625 50.203125 16.015625 36.375 
Q 16.015625 22.609375 22.328125 14.59375 
Q 28.65625 6.59375 39.40625 6.59375 
Q 50.140625 6.59375 56.421875 14.59375 
Q 62.703125 22.609375 62.703125 36.375 
Q 62.703125 50.203125 56.421875 58.203125 
Q 50.140625 66.21875 39.40625 66.21875 
z
M 39.40625 74.21875 
Q 54.734375 74.21875 63.90625 63.9375 
Q 73.09375 53.65625 73.09375 36.375 
Q 73.09375 19.140625 63.90625 8.859375 
Q 54.734375 -1.421875 39.40625 -1.421875 
Q 24.03125 -1.421875 14.8125 8.828125 
Q 5.609375 19.09375 5.609375 36.375 
Q 5.609375 53.65625 14.8125 63.9375 
Q 24.03125 74.21875 39.40625 74.21875 
z
" id="DejaVuSans-4f"/>
     <path d="M 9.421875 75.984375 
L 18.40625 75.984375 
L 18.40625 0 
L 9.421875 0 
z
" id="DejaVuSans-6c"/>
     <path d="M 45.40625 46.390625 
L 45.40625 75.984375 
L 54.390625 75.984375 
L 54.390625 0 
L 45.40625 0 
L 45.40625 8.203125 
Q 42.578125 3.328125 38.25 0.953125 
Q 33.9375 -1.421875 27.875 -1.421875 
Q 17.96875 -1.421875 11.734375 6.484375 
Q 5.515625 14.40625 5.515625 27.296875 
Q 5.515625 40.1875 11.734375 48.09375 
Q 17.96875 56 27.875 56 
Q 33.9375 56 38.25 53.625 
Q 42.578125 51.265625 45.40625 46.390625 
z
M 14.796875 27.296875 
Q 14.796875 17.390625 18.875 11.75 
Q 22.953125 6.109375 30.078125 6.109375 
Q 37.203125 6.109375 41.296875 11.75 
Q 45.40625 17.390625 45.40625 27.296875 
Q 45.40625 37.203125 41.296875 42.84375 
Q 37.203125 48.484375 30.078125 48.484375 
Q 22.953125 48.484375 18.875 42.84375 
Q 14.796875 37.203125 14.796875 27.296875 
z
" id="DejaVuSans-64"/>
     <path id="DejaVuSans-20"/>
     <path d="M 44.28125 53.078125 
L 44.28125 44.578125 
Q 40.484375 46.53125 36.375 47.5 
Q 32.28125 48.484375 27.875 48.484375 
Q 21.1875 48.484375 17.84375 46.4375 
Q 14.5 44.390625 14.5 40.28125 
Q 14.5 37.15625 16.890625 35.375 
Q 19.28125 33.59375 26.515625 31.984375 
L 29.59375 31.296875 
Q 39.15625 29.25 43.1875 25.515625 
Q 47.21875 21.78125 47.21875 15.09375 
Q 47.21875 7.46875 41.1875 3.015625 
Q 35.15625 -1.421875 24.609375 -1.421875 
Q 20.21875 -1.421875 15.453125 -0.5625 
Q 10.6875 0.296875 5.421875 2 
L 5.421875 11.28125 
Q 10.40625 8.6875 15.234375 7.390625 
Q 20.0625 6.109375 24.8125 6.109375 
Q 31.15625 6.109375 34.5625 8.28125 
Q 37.984375 10.453125 37.984375 14.40625 
Q 37.984375 18.0625 35.515625 20.015625 
Q 33.0625 21.96875 24.703125 23.78125 
L 21.578125 24.515625 
Q 13.234375 26.265625 9.515625 29.90625 
Q 5.8125 33.546875 5.8125 39.890625 
Q 5.8125 47.609375 11.28125 51.796875 
Q 16.75 56 26.8125 56 
Q 31.78125 56 36.171875 55.265625 
Q 40.578125 54.546875 44.28125 53.078125 
z
" id="DejaVuSans-73"/>
     <path d="M 18.3125 70.21875 
L 18.3125 54.6875 
L 36.8125 54.6875 
L 36.8125 47.703125 
L 18.3125 47.703125 
L 18.3125 18.015625 
Q 18.3125 11.328125 20.140625 9.421875 
Q 21.96875 7.515625 27.59375 7.515625 
L 36.8125 7.515625 
L 36.8125 0 
L 27.59375 0 
Q 17.1875 0 13.234375 3.875 
Q 9.28125 7.765625 9.28125 18.015625 
L 9.28125 47.703125 
L 2.6875 47.703125 
L 2.6875 54.6875 
L 9.28125 54.6875 
L 9.28125 70.21875 
z
" id="DejaVuSans-74"/>
     <path d="M 41.109375 46.296875 
Q 39.59375 47.171875 37.8125 47.578125 
Q 36.03125 48 33.890625 48 
Q 26.265625 48 22.1875 43.046875 
Q 18.109375 38.09375 18.109375 28.8125 
L 18.109375 0 
L 9.078125 0 
L 9.078125 54.6875 
L 18.109375 54.6875 
L 18.109375 46.1875 
Q 20.953125 51.171875 25.484375 53.578125 
Q 30.03125 56 36.53125 56 
Q 37.453125 56 38.578125 55.875 
Q 39.703125 55.765625 41.0625 55.515625 
z
" id="DejaVuSans-72"/>
     <path d="M 56.203125 29.59375 
L 56.203125 25.203125 
L 14.890625 25.203125 
Q 15.484375 15.921875 20.484375 11.0625 
Q 25.484375 6.203125 34.421875 6.203125 
Q 39.59375 6.203125 44.453125 7.46875 
Q 49.3125 8.734375 54.109375 11.28125 
L 54.109375 2.78125 
Q 49.265625 0.734375 44.1875 -0.34375 
Q 39.109375 -1.421875 33.890625 -1.421875 
Q 20.796875 -1.421875 13.15625 6.1875 
Q 5.515625 13.8125 5.515625 26.8125 
Q 5.515625 40.234375 12.765625 48.109375 
Q 20.015625 56 32.328125 56 
Q 43.359375 56 49.78125 48.890625 
Q 56.203125 41.796875 56.203125 29.59375 
z
M 47.21875 32.234375 
Q 47.125 39.59375 43.09375 43.984375 
Q 39.0625 48.390625 32.421875 48.390625 
Q 24.90625 48.390625 20.390625 44.140625 
Q 15.875 39.890625 15.1875 32.171875 
z
" id="DejaVuSans-65"/>
    </defs>
    <g transform="translate(221.800625 19.44)scale(0.12 -0.12)">
     <use xlink:href="#DejaVuSans-4f"/>
     <use x="78.710938" xlink:href="#DejaVuSans-6c"/>
     <use x="106.494141" xlink:href="#DejaVuSans-64"/>
     <use x="169.970703" xlink:href="#DejaVuSans-20"/>
     <use x="201.757812" xlink:href="#DejaVuSans-73"/>
     <use x="253.857422" xlink:href="#DejaVuSans-74"/>
     <use x="293.066406" xlink:href="#DejaVuSans-72"/>
     <use x="334.148438" xlink:href="#DejaVuSans-65"/>
     <use x="395.671875" xlink:href="#DejaVuSans-65"/>
     <use x="457.195312" xlink:href="#DejaVuSans-74"/>
    </g>
   </g>
  </g>
  <g id="axes_2">
   <g id="patch_7">
    <path d="M 55.69 184.795029 
L 447.48 184.795029 
L 447.48 117.124971 
L 55.69 117.124971 
z
" style="fill:#ffffff;"/>
   </g>
   <g id="matplotlib.axis_3">
    <g id="xtick_10">
     <g id="line2d_21">
      <g>
       <use style="stroke:#000000;stroke-width:0.8;" x="62.368239" xlink:href="#mf8c50f11c9" y="184.795029"/>
      </g>
     </g>
    </g>
    <g id="xtick_11">
     <g id="line2d_22">
      <g>
       <use style="stroke:#000000;stroke-width:0.8;" x="106.88983" xlink:href="#mf8c50f11c9" y="184.795029"/>
      </g>
     </g>
    </g>
    <g id="xtick_12">
     <g id="line2d_23">
      <g>
       <use style="stroke:#000000;stroke-width:0.8;" x="151.41142" xlink:href="#mf8c50f11c9" y="184.795029"/>
      </g>
     </g>
    </g>
    <g id="xtick_13">
     <g id="line2d_24">
      <g>
       <use style="stroke:#000000;stroke-width:0.8;" x="195.933011" xlink:href="#mf8c50f11c9" y="184.795029"/>
      </g>
     </g>
    </g>
    <g id="xtick_14">
     <g id="line2d_25">
      <g>
       <use style="stroke:#000000;stroke-width:0.8;" x="240.454602" xlink:href="#mf8c50f11c9" y="184.795029"/>
      </g>
     </g>
    </g>
    <g id="xtick_15">
     <g id="line2d_26">
      <g>
       <use style="stroke:#000000;stroke-width:0.8;" x="284.976193" xlink:href="#mf8c50f11c9" y="184.795029"/>
      </g>
     </g>
    </g>
    <g id="xtick_16">
     <g id="line2d_27">
      <g>
       <use style="stroke:#000000;stroke-width:0.8;" x="329.497784" xlink:href="#mf8c50f11c9" y="184.795029"/>
      </g>
     </g>
    </g>
    <g id="xtick_17">
     <g id="line2d_28">
      <g>
       <use style="stroke:#000000;stroke-width:0.8;" x="374.019375" xlink:href="#mf8c50f11c9" y="184.795029"/>
      </g>
     </g>
    </g>
    <g id="xtick_18">
     <g id="line2d_29">
      <g>
       <use style="stroke:#000000;stroke-width:0.8;" x="418.540966" xlink:href="#mf8c50f11c9" y="184.795029"/>
      </g>
     </g>
    </g>
   </g>
   <g id="matplotlib.axis_4">
    <g id="ytick_4">
     <g id="line2d_30">
      <g>
       <use style="stroke:#000000;stroke-width:0.8;" x="55.69" xlink:href="#me1ecd299d0" y="185.133542"/>
      </g>
     </g>
     <g id="text_5">
      <!-- −50000 -->
      <defs>
       <path d="M 10.59375 35.5 
L 73.1875 35.5 
L 73.1875 27.203125 
L 10.59375 27.203125 
z
" id="DejaVuSans-2212"/>
      </defs>
      <g transform="translate(8.497813 188.932761)scale(0.1 -0.1)">
       <use xlink:href="#DejaVuSans-2212"/>
       <use x="83.789062" xlink:href="#DejaVuSans-35"/>
       <use x="147.412109" xlink:href="#DejaVuSans-30"/>
       <use x="211.035156" xlink:href="#DejaVuSans-30"/>
       <use x="274.658203" xlink:href="#DejaVuSans-30"/>
       <use x="338.28125" xlink:href="#DejaVuSans-30"/>
      </g>
     </g>
    </g>
    <g id="ytick_5">
     <g id="line2d_31">
      <g>
       <use style="stroke:#000000;stroke-width:0.8;" x="55.69" xlink:href="#me1ecd299d0" y="160.579887"/>
      </g>
     </g>
     <g id="text_6">
      <!-- 0 -->
      <g transform="translate(42.3275 164.379106)scale(0.1 -0.1)">
       <use xlink:href="#DejaVuSans-30"/>
      </g>
     </g>
    </g>
    <g id="ytick_6">
     <g id="line2d_32">
      <g>
       <use style="stroke:#000000;stroke-width:0.8;" x="55.69" xlink:href="#me1ecd299d0" y="136.026233"/>
      </g>
     </g>
     <g id="text_7">
      <!-- 50000 -->
      <g transform="translate(16.8775 139.825452)scale(0.1 -0.1)">
       <use xlink:href="#DejaVuSans-35"/>
       <use x="63.623047" xlink:href="#DejaVuSans-30"/>
       <use x="127.246094" xlink:href="#DejaVuSans-30"/>
       <use x="190.869141" xlink:href="#DejaVuSans-30"/>
       <use x="254.492188" xlink:href="#DejaVuSans-30"/>
      </g>
     </g>
    </g>
   </g>
   <g id="line2d_33">
    <path clip-path="url(#pc1cb9e034b)" d="M 73.498636 160.579887 
L 137.498423 160.579887 
L 139.35349 157.323545 
L 143.063622 157.67741 
L 143.991155 156.119522 
L 145.846222 156.354869 
L 146.773755 154.833858 
L 155.121553 156.090803 
L 156.049086 154.058582 
L 156.976619 154.345431 
L 157.904152 154.494823 
L 158.831686 150.33505 
L 159.759219 150.639667 
L 162.541818 151.066982 
L 164.396884 149.469967 
L 165.324418 147.806954 
L 166.251951 145.451799 
L 167.179484 144.152232 
L 168.107017 141.853793 
L 169.03455 136.388194 
L 169.962083 133.575183 
L 170.889616 124.910653 
L 173.672216 125.578755 
L 175.527282 125.971125 
L 176.454815 120.781351 
L 178.309882 121.060561 
L 179.237415 124.793063 
L 180.164948 121.383106 
L 181.092481 120.200882 
L 182.020014 120.909383 
L 182.947547 121.165208 
L 183.87508 123.228023 
L 184.802614 131.207164 
L 185.730147 127.630391 
L 186.65768 127.560394 
L 187.585213 129.376224 
L 188.512746 133.35828 
L 189.440279 133.431804 
L 190.367812 137.65209 
L 191.295346 146.630933 
L 192.222879 149.179107 
L 193.150412 158.401433 
L 194.077945 157.887221 
L 196.860545 157.620354 
L 197.788078 156.689566 
L 198.715611 153.962705 
L 199.643144 157.562719 
L 200.570677 157.572856 
L 201.49821 158.119512 
L 202.425743 154.965833 
L 203.353277 158.300426 
L 204.28081 157.90674 
L 207.990942 157.490307 
L 208.918475 157.086913 
L 209.846009 157.094919 
L 210.773542 156.251707 
L 212.628608 156.805638 
L 213.556141 156.742103 
L 214.483674 177.847207 
L 215.411207 176.8192 
L 218.193807 175.463581 
L 219.12134 181.719118 
L 220.048873 180.887137 
L 222.831473 179.565314 
L 223.759006 180.635794 
L 224.686539 173.605468 
L 225.614072 174.657158 
L 230.251738 172.801118 
L 234.889403 171.232458 
L 239.527069 169.904233 
L 240.454602 169.663279 
L 241.382135 169.05635 
L 242.309669 169.203538 
L 246.947334 168.171762 
L 247.874867 167.293009 
L 248.802401 167.128596 
L 249.729934 165.9824 
L 256.222666 165.085243 
L 257.150199 163.828501 
L 258.077732 163.751315 
L 259.005265 164.203311 
L 259.932798 162.919053 
L 260.860331 162.424506 
L 264.570464 162.256788 
L 265.497997 160.89187 
L 267.353063 160.876514 
L 268.280597 161.576268 
L 269.20813 160.861943 
L 271.990729 160.84147 
L 273.845795 161.728159 
L 276.628395 161.854354 
L 277.555928 164.161259 
L 278.483461 168.755961 
L 279.410994 169.03615 
L 280.338527 166.418638 
L 281.266061 163.344603 
L 282.193594 164.739861 
L 286.831259 164.202756 
L 287.758793 163.583447 
L 288.686326 164.02813 
L 290.541392 163.862948 
L 291.468925 164.453899 
L 292.396458 164.049567 
L 300.744257 163.364934 
L 307.236989 163.018343 
L 309.092055 162.954854 
L 310.019588 167.550966 
L 310.947121 169.327944 
L 311.874654 162.824015 
L 312.802187 162.65755 
L 325.787652 162.139106 
L 337.845582 161.647612 
L 338.773116 161.440554 
L 339.700649 160.974245 
L 340.628182 160.809174 
L 349.903513 160.826947 
L 350.831046 161.311542 
L 351.75858 160.641815 
L 353.613646 160.698004 
L 356.396245 160.742339 
L 357.323778 160.923706 
L 358.251312 160.746934 
L 361.033911 160.768206 
L 363.81651 160.955066 
L 364.744044 162.236993 
L 366.59911 168.39251 
L 368.454176 161.189401 
L 369.381709 161.176129 
L 370.309242 162.714585 
L 371.236776 161.113308 
L 373.091842 161.242906 
L 375.874441 161.310642 
L 376.801974 167.702721 
L 377.729508 162.963751 
L 378.657041 161.116671 
L 386.077306 161.049318 
L 428.74383 160.766435 
L 429.671364 160.579887 
L 429.671364 160.579887 
" style="fill:none;stroke:#0000ff;stroke-linecap:square;stroke-width:2;"/>
   </g>
   <g id="line2d_34">
    <path clip-path="url(#pc1cb9e034b)" d="M 214.483674 184.795029 
L 214.483674 117.124971 
" style="fill:none;stroke:#000000;stroke-dasharray:2,3.3;stroke-dashoffset:0;stroke-width:2;"/>
   </g>
   <g id="line2d_35">
    <path clip-path="url(#pc1cb9e034b)" d="M 73.498636 160.579887 
L 137.498423 160.579887 
L 139.35349 157.323545 
L 143.063622 157.67741 
L 143.991155 156.119522 
L 145.846222 156.354869 
L 146.773755 154.833858 
L 155.121553 156.090803 
L 156.049086 154.058582 
L 156.976619 154.345431 
L 157.904152 154.494823 
L 158.831686 150.33505 
L 159.759219 150.639667 
L 162.541818 151.066982 
L 164.396884 149.469967 
L 165.324418 147.806954 
L 166.251951 145.451799 
L 167.179484 144.152232 
L 168.107017 141.853793 
L 169.03455 136.388194 
L 169.962083 133.575183 
L 170.889616 124.910653 
L 173.672216 125.578755 
L 175.527282 125.971125 
L 176.454815 120.781351 
L 178.309882 121.060561 
L 179.237415 124.793063 
L 180.164948 121.383106 
L 181.092481 120.200882 
L 182.020014 120.909383 
L 182.947547 121.165208 
L 183.87508 123.228023 
L 184.802614 131.207164 
L 185.730147 127.630391 
L 186.65768 127.560394 
L 187.585213 129.376224 
L 188.512746 133.35828 
L 189.440279 133.431804 
L 190.367812 137.65209 
L 191.295346 146.630933 
L 192.222879 149.179107 
L 193.150412 158.401433 
L 194.077945 157.887221 
L 196.860545 157.620354 
L 197.788078 156.689566 
L 198.715611 153.962705 
L 199.643144 157.562719 
L 200.570677 157.572856 
L 201.49821 158.119512 
L 202.425743 154.965833 
L 203.353277 158.300426 
L 204.28081 157.90674 
L 207.990942 157.490307 
L 208.918475 157.086913 
L 209.846009 157.094919 
L 210.773542 156.251707 
L 212.628608 156.805638 
L 213.556141 156.742103 
L 214.483674 177.847207 
L 215.411207 176.8192 
L 218.193807 175.463581 
L 219.12134 181.719118 
L 220.048873 180.887137 
L 222.831473 179.565314 
L 223.759006 180.635794 
L 224.686539 173.605468 
L 225.614072 174.657158 
L 230.251738 172.801118 
L 234.889403 171.232458 
L 239.527069 169.904233 
L 240.454602 169.663279 
L 241.382135 169.05635 
L 242.309669 169.203538 
L 246.947334 168.171762 
L 247.874867 167.293009 
L 248.802401 167.128596 
L 249.729934 165.9824 
L 256.222666 165.085243 
L 257.150199 163.828501 
L 258.077732 163.751315 
L 259.005265 164.203311 
L 259.932798 162.919053 
L 260.860331 162.424506 
L 264.570464 162.256788 
L 265.497997 160.89187 
L 267.353063 160.876514 
L 268.280597 161.576268 
L 269.20813 160.861943 
L 271.990729 160.84147 
L 273.845795 161.728159 
L 276.628395 161.854354 
L 277.555928 164.161259 
L 278.483461 168.755961 
L 279.410994 169.03615 
L 280.338527 166.418638 
L 281.266061 163.344603 
L 282.193594 164.739861 
L 286.831259 164.202756 
L 287.758793 163.583447 
L 288.686326 164.02813 
L 290.541392 163.862948 
L 291.468925 164.453899 
L 292.396458 164.049567 
L 300.744257 163.364934 
L 307.236989 163.018343 
L 309.092055 162.954854 
L 310.019588 167.550966 
L 310.947121 169.327944 
L 311.874654 162.824015 
L 312.802187 162.65755 
L 325.787652 162.139106 
L 337.845582 161.647612 
L 338.773116 161.440554 
L 339.700649 160.974245 
L 340.628182 160.809174 
L 349.903513 160.826947 
L 350.831046 161.311542 
L 351.75858 160.641815 
L 353.613646 160.698004 
L 356.396245 160.742339 
L 357.323778 160.923706 
L 358.251312 160.746934 
L 361.033911 160.768206 
L 363.81651 160.955066 
L 364.744044 162.236993 
L 366.59911 168.39251 
L 368.454176 161.189401 
L 369.381709 161.176129 
L 370.309242 162.714585 
L 371.236776 161.113308 
L 373.091842 161.242906 
L 375.874441 161.310642 
L 376.801974 167.702721 
L 377.729508 162.963751 
L 378.657041 161.116671 
L 386.077306 161.049318 
L 428.74383 160.766435 
L 429.671364 160.579887 
L 429.671364 160.579887 
" style="fill:none;stroke:#008000;stroke-dasharray:7.4,3.2;stroke-dashoffset:0;stroke-width:2;"/>
   </g>
   <g id="line2d_36">
    <path clip-path="url(#pc1cb9e034b)" d="M 214.483674 184.795029 
L 214.483674 117.124971 
" style="fill:none;stroke:#000000;stroke-dasharray:2,3.3;stroke-dashoffset:0;stroke-width:2;"/>
   </g>
   <g id="line2d_37">
    <path clip-path="url(#pc1cb9e034b)" d="M 73.498636 160.579887 
L 211.082719 160.579887 
L 211.391897 149.431265 
L 211.701075 149.808556 
L 212.31943 153.258942 
L 212.937786 156.583925 
L 213.556141 158.762213 
L 214.174497 159.764873 
L 214.483674 171.22392 
L 214.792852 170.764026 
L 215.411207 167.784464 
L 216.029563 164.137373 
L 216.647918 162.019503 
L 217.266274 161.034411 
L 217.884629 160.679317 
L 218.812162 160.586293 
L 231.488449 160.579887 
L 429.362186 160.579887 
L 429.362186 160.579887 
" style="fill:none;stroke:#ff0000;stroke-dasharray:12.8,3.2,2,3.2;stroke-dashoffset:0;stroke-width:2;"/>
   </g>
   <g id="line2d_38">
    <path clip-path="url(#pc1cb9e034b)" d="M 214.483674 184.795029 
L 214.483674 117.124971 
" style="fill:none;stroke:#000000;stroke-dasharray:2,3.3;stroke-dashoffset:0;stroke-width:2;"/>
   </g>
   <g id="line2d_39">
    <path clip-path="url(#pc1cb9e034b)" d="M 73.498636 160.579887 
L 211.391897 160.579887 
L 211.701075 147.814176 
L 212.010253 148.63952 
L 212.628608 152.623251 
L 213.246963 156.873794 
L 213.556141 158.286539 
L 213.865319 159.161377 
L 214.174497 159.678287 
L 214.483674 165.839937 
L 215.10203 165.809286 
L 215.411207 166.139391 
L 216.338741 164.073416 
L 218.812162 161.183256 
L 219.430518 160.877377 
L 220.667229 160.644504 
L 222.522295 160.58305 
L 224.686539 160.660128 
L 225.304894 161.073497 
L 225.92325 160.845036 
L 226.541605 160.621813 
L 228.087494 160.579931 
L 429.362186 160.579887 
L 429.362186 160.579887 
" style="fill:none;stroke:#00bfbf;stroke-dasharray:2,3.3;stroke-dashoffset:0;stroke-width:2;"/>
   </g>
   <g id="line2d_40">
    <path clip-path="url(#pc1cb9e034b)" d="M 214.483674 184.795029 
L 214.483674 117.124971 
" style="fill:none;stroke:#000000;stroke-dasharray:2,3.3;stroke-dashoffset:0;stroke-width:2;"/>
   </g>
   <g id="patch_8">
    <path d="M 55.69 184.795029 
L 55.69 117.124971 
" style="fill:none;stroke:#000000;stroke-linecap:square;stroke-linejoin:miter;stroke-width:0.8;"/>
   </g>
   <g id="patch_9">
    <path d="M 447.48 184.795029 
L 447.48 117.124971 
" style="fill:none;stroke:#000000;stroke-linecap:square;stroke-linejoin:miter;stroke-width:0.8;"/>
   </g>
   <g id="patch_10">
    <path d="M 55.69 184.795029 
L 447.48 184.795029 
" style="fill:none;stroke:#000000;stroke-linecap:square;stroke-linejoin:miter;stroke-width:0.8;"/>
   </g>
   <g id="patch_11">
    <path d="M 55.69 117.124971 
L 447.48 117.124971 
" style="fill:none;stroke:#000000;stroke-linecap:square;stroke-linejoin:miter;stroke-width:0.8;"/>
   </g>
   <g id="text_8">
    <!-- Mixed street -->
    <defs>
     <path d="M 9.8125 72.90625 
L 24.515625 72.90625 
L 43.109375 23.296875 
L 61.8125 72.90625 
L 76.515625 72.90625 
L 76.515625 0 
L 66.890625 0 
L 66.890625 64.015625 
L 48.09375 14.015625 
L 38.1875 14.015625 
L 19.390625 64.015625 
L 19.390625 0 
L 9.8125 0 
z
" id="DejaVuSans-4d"/>
     <path d="M 9.421875 54.6875 
L 18.40625 54.6875 
L 18.40625 0 
L 9.421875 0 
z
M 9.421875 75.984375 
L 18.40625 75.984375 
L 18.40625 64.59375 
L 9.421875 64.59375 
z
" id="DejaVuSans-69"/>
     <path d="M 54.890625 54.6875 
L 35.109375 28.078125 
L 55.90625 0 
L 45.3125 0 
L 29.390625 21.484375 
L 13.484375 0 
L 2.875 0 
L 24.125 28.609375 
L 4.6875 54.6875 
L 15.28125 54.6875 
L 29.78125 35.203125 
L 44.28125 54.6875 
z
" id="DejaVuSans-78"/>
    </defs>
    <g transform="translate(214.106562 111.124971)scale(0.12 -0.12)">
     <use xlink:href="#DejaVuSans-4d"/>
     <use x="86.279297" xlink:href="#DejaVuSans-69"/>
     <use x="114.0625" xlink:href="#DejaVuSans-78"/>
     <use x="173.195312" xlink:href="#DejaVuSans-65"/>
     <use x="234.71875" xlink:href="#DejaVuSans-64"/>
     <use x="298.195312" xlink:href="#DejaVuSans-20"/>
     <use x="329.982422" xlink:href="#DejaVuSans-73"/>
     <use x="382.082031" xlink:href="#DejaVuSans-74"/>
     <use x="421.291016" xlink:href="#DejaVuSans-72"/>
     <use x="462.373047" xlink:href="#DejaVuSans-65"/>
     <use x="523.896484" xlink:href="#DejaVuSans-65"/>
     <use x="585.419922" xlink:href="#DejaVuSans-74"/>
    </g>
   </g>
  </g>
  <g id="axes_3">
   <g id="patch_12">
    <path d="M 55.69 276.48 
L 447.48 276.48 
L 447.48 208.809941 
L 55.69 208.809941 
z
" style="fill:#ffffff;"/>
   </g>
   <g id="matplotlib.axis_5">
    <g id="xtick_19">
     <g id="line2d_41">
      <g>
       <use style="stroke:#000000;stroke-width:0.8;" x="62.368239" xlink:href="#mf8c50f11c9" y="276.48"/>
      </g>
     </g>
     <g id="text_9">
      <!-- 31-12-2013 -->
      <defs>
       <path d="M 40.578125 39.3125 
Q 47.65625 37.796875 51.625 33 
Q 55.609375 28.21875 55.609375 21.1875 
Q 55.609375 10.40625 48.1875 4.484375 
Q 40.765625 -1.421875 27.09375 -1.421875 
Q 22.515625 -1.421875 17.65625 -0.515625 
Q 12.796875 0.390625 7.625 2.203125 
L 7.625 11.71875 
Q 11.71875 9.328125 16.59375 8.109375 
Q 21.484375 6.890625 26.8125 6.890625 
Q 36.078125 6.890625 40.9375 10.546875 
Q 45.796875 14.203125 45.796875 21.1875 
Q 45.796875 27.640625 41.28125 31.265625 
Q 36.765625 34.90625 28.71875 34.90625 
L 20.21875 34.90625 
L 20.21875 43.015625 
L 29.109375 43.015625 
Q 36.375 43.015625 40.234375 45.921875 
Q 44.09375 48.828125 44.09375 54.296875 
Q 44.09375 59.90625 40.109375 62.90625 
Q 36.140625 65.921875 28.71875 65.921875 
Q 24.65625 65.921875 20.015625 65.03125 
Q 15.375 64.15625 9.8125 62.3125 
L 9.8125 71.09375 
Q 15.4375 72.65625 20.34375 73.4375 
Q 25.25 74.21875 29.59375 74.21875 
Q 40.828125 74.21875 47.359375 69.109375 
Q 53.90625 64.015625 53.90625 55.328125 
Q 53.90625 49.265625 50.4375 45.09375 
Q 46.96875 40.921875 40.578125 39.3125 
z
" id="DejaVuSans-33"/>
       <path d="M 4.890625 31.390625 
L 31.203125 31.390625 
L 31.203125 23.390625 
L 4.890625 23.390625 
z
" id="DejaVuSans-2d"/>
       <path d="M 19.1875 8.296875 
L 53.609375 8.296875 
L 53.609375 0 
L 7.328125 0 
L 7.328125 8.296875 
Q 12.9375 14.109375 22.625 23.890625 
Q 32.328125 33.6875 34.8125 36.53125 
Q 39.546875 41.84375 41.421875 45.53125 
Q 43.3125 49.21875 43.3125 52.78125 
Q 43.3125 58.59375 39.234375 62.25 
Q 35.15625 65.921875 28.609375 65.921875 
Q 23.96875 65.921875 18.8125 64.3125 
Q 13.671875 62.703125 7.8125 59.421875 
L 7.8125 69.390625 
Q 13.765625 71.78125 18.9375 73 
Q 24.125 74.21875 28.421875 74.21875 
Q 39.75 74.21875 46.484375 68.546875 
Q 53.21875 62.890625 53.21875 53.421875 
Q 53.21875 48.921875 51.53125 44.890625 
Q 49.859375 40.875 45.40625 35.40625 
Q 44.1875 33.984375 37.640625 27.21875 
Q 31.109375 20.453125 19.1875 8.296875 
z
" id="DejaVuSans-32"/>
      </defs>
      <g transform="translate(10.998787 319.118252)rotate(-30)scale(0.1 -0.1)">
       <use xlink:href="#DejaVuSans-33"/>
       <use x="63.623047" xlink:href="#DejaVuSans-31"/>
       <use x="127.246094" xlink:href="#DejaVuSans-2d"/>
       <use x="163.330078" xlink:href="#DejaVuSans-31"/>
       <use x="226.953125" xlink:href="#DejaVuSans-32"/>
       <use x="290.576172" xlink:href="#DejaVuSans-2d"/>
       <use x="326.660156" xlink:href="#DejaVuSans-32"/>
       <use x="390.283203" xlink:href="#DejaVuSans-30"/>
       <use x="453.90625" xlink:href="#DejaVuSans-31"/>
       <use x="517.529297" xlink:href="#DejaVuSans-33"/>
      </g>
     </g>
    </g>
    <g id="xtick_20">
     <g id="line2d_42">
      <g>
       <use style="stroke:#000000;stroke-width:0.8;" x="106.88983" xlink:href="#mf8c50f11c9" y="276.48"/>
      </g>
     </g>
     <g id="text_10">
      <!-- 01-01-2014 -->
      <defs>
       <path d="M 37.796875 64.3125 
L 12.890625 25.390625 
L 37.796875 25.390625 
z
M 35.203125 72.90625 
L 47.609375 72.90625 
L 47.609375 25.390625 
L 58.015625 25.390625 
L 58.015625 17.1875 
L 47.609375 17.1875 
L 47.609375 0 
L 37.796875 0 
L 37.796875 17.1875 
L 4.890625 17.1875 
L 4.890625 26.703125 
z
" id="DejaVuSans-34"/>
      </defs>
      <g transform="translate(55.520378 319.118252)rotate(-30)scale(0.1 -0.1)">
       <use xlink:href="#DejaVuSans-30"/>
       <use x="63.623047" xlink:href="#DejaVuSans-31"/>
       <use x="127.246094" xlink:href="#DejaVuSans-2d"/>
       <use x="163.330078" xlink:href="#DejaVuSans-30"/>
       <use x="226.953125" xlink:href="#DejaVuSans-31"/>
       <use x="290.576172" xlink:href="#DejaVuSans-2d"/>
       <use x="326.660156" xlink:href="#DejaVuSans-32"/>
       <use x="390.283203" xlink:href="#DejaVuSans-30"/>
       <use x="453.90625" xlink:href="#DejaVuSans-31"/>
       <use x="517.529297" xlink:href="#DejaVuSans-34"/>
      </g>
     </g>
    </g>
    <g id="xtick_21">
     <g id="line2d_43">
      <g>
       <use style="stroke:#000000;stroke-width:0.8;" x="151.41142" xlink:href="#mf8c50f11c9" y="276.48"/>
      </g>
     </g>
     <g id="text_11">
      <!-- 01-01-2014 -->
      <g transform="translate(100.041969 319.118252)rotate(-30)scale(0.1 -0.1)">
       <use xlink:href="#DejaVuSans-30"/>
       <use x="63.623047" xlink:href="#DejaVuSans-31"/>
       <use x="127.246094" xlink:href="#DejaVuSans-2d"/>
       <use x="163.330078" xlink:href="#DejaVuSans-30"/>
       <use x="226.953125" xlink:href="#DejaVuSans-31"/>
       <use x="290.576172" xlink:href="#DejaVuSans-2d"/>
       <use x="326.660156" xlink:href="#DejaVuSans-32"/>
       <use x="390.283203" xlink:href="#DejaVuSans-30"/>
       <use x="453.90625" xlink:href="#DejaVuSans-31"/>
       <use x="517.529297" xlink:href="#DejaVuSans-34"/>
      </g>
     </g>
    </g>
    <g id="xtick_22">
     <g id="line2d_44">
      <g>
       <use style="stroke:#000000;stroke-width:0.8;" x="195.933011" xlink:href="#mf8c50f11c9" y="276.48"/>
      </g>
     </g>
     <g id="text_12">
      <!-- 02-01-2014 -->
      <g transform="translate(144.56356 319.118252)rotate(-30)scale(0.1 -0.1)">
       <use xlink:href="#DejaVuSans-30"/>
       <use x="63.623047" xlink:href="#DejaVuSans-32"/>
       <use x="127.246094" xlink:href="#DejaVuSans-2d"/>
       <use x="163.330078" xlink:href="#DejaVuSans-30"/>
       <use x="226.953125" xlink:href="#DejaVuSans-31"/>
       <use x="290.576172" xlink:href="#DejaVuSans-2d"/>
       <use x="326.660156" xlink:href="#DejaVuSans-32"/>
       <use x="390.283203" xlink:href="#DejaVuSans-30"/>
       <use x="453.90625" xlink:href="#DejaVuSans-31"/>
       <use x="517.529297" xlink:href="#DejaVuSans-34"/>
      </g>
     </g>
    </g>
    <g id="xtick_23">
     <g id="line2d_45">
      <g>
       <use style="stroke:#000000;stroke-width:0.8;" x="240.454602" xlink:href="#mf8c50f11c9" y="276.48"/>
      </g>
     </g>
     <g id="text_13">
      <!-- 02-01-2014 -->
      <g transform="translate(189.085151 319.118252)rotate(-30)scale(0.1 -0.1)">
       <use xlink:href="#DejaVuSans-30"/>
       <use x="63.623047" xlink:href="#DejaVuSans-32"/>
       <use x="127.246094" xlink:href="#DejaVuSans-2d"/>
       <use x="163.330078" xlink:href="#DejaVuSans-30"/>
       <use x="226.953125" xlink:href="#DejaVuSans-31"/>
       <use x="290.576172" xlink:href="#DejaVuSans-2d"/>
       <use x="326.660156" xlink:href="#DejaVuSans-32"/>
       <use x="390.283203" xlink:href="#DejaVuSans-30"/>
       <use x="453.90625" xlink:href="#DejaVuSans-31"/>
       <use x="517.529297" xlink:href="#DejaVuSans-34"/>
      </g>
     </g>
    </g>
    <g id="xtick_24">
     <g id="line2d_46">
      <g>
       <use style="stroke:#000000;stroke-width:0.8;" x="284.976193" xlink:href="#mf8c50f11c9" y="276.48"/>
      </g>
     </g>
     <g id="text_14">
      <!-- 03-01-2014 -->
      <g transform="translate(233.606742 319.118252)rotate(-30)scale(0.1 -0.1)">
       <use xlink:href="#DejaVuSans-30"/>
       <use x="63.623047" xlink:href="#DejaVuSans-33"/>
       <use x="127.246094" xlink:href="#DejaVuSans-2d"/>
       <use x="163.330078" xlink:href="#DejaVuSans-30"/>
       <use x="226.953125" xlink:href="#DejaVuSans-31"/>
       <use x="290.576172" xlink:href="#DejaVuSans-2d"/>
       <use x="326.660156" xlink:href="#DejaVuSans-32"/>
       <use x="390.283203" xlink:href="#DejaVuSans-30"/>
       <use x="453.90625" xlink:href="#DejaVuSans-31"/>
       <use x="517.529297" xlink:href="#DejaVuSans-34"/>
      </g>
     </g>
    </g>
    <g id="xtick_25">
     <g id="line2d_47">
      <g>
       <use style="stroke:#000000;stroke-width:0.8;" x="329.497784" xlink:href="#mf8c50f11c9" y="276.48"/>
      </g>
     </g>
     <g id="text_15">
      <!-- 03-01-2014 -->
      <g transform="translate(278.128333 319.118252)rotate(-30)scale(0.1 -0.1)">
       <use xlink:href="#DejaVuSans-30"/>
       <use x="63.623047" xlink:href="#DejaVuSans-33"/>
       <use x="127.246094" xlink:href="#DejaVuSans-2d"/>
       <use x="163.330078" xlink:href="#DejaVuSans-30"/>
       <use x="226.953125" xlink:href="#DejaVuSans-31"/>
       <use x="290.576172" xlink:href="#DejaVuSans-2d"/>
       <use x="326.660156" xlink:href="#DejaVuSans-32"/>
       <use x="390.283203" xlink:href="#DejaVuSans-30"/>
       <use x="453.90625" xlink:href="#DejaVuSans-31"/>
       <use x="517.529297" xlink:href="#DejaVuSans-34"/>
      </g>
     </g>
    </g>
    <g id="xtick_26">
     <g id="line2d_48">
      <g>
       <use style="stroke:#000000;stroke-width:0.8;" x="374.019375" xlink:href="#mf8c50f11c9" y="276.48"/>
      </g>
     </g>
     <g id="text_16">
      <!-- 04-01-2014 -->
      <g transform="translate(322.649924 319.118252)rotate(-30)scale(0.1 -0.1)">
       <use xlink:href="#DejaVuSans-30"/>
       <use x="63.623047" xlink:href="#DejaVuSans-34"/>
       <use x="127.246094" xlink:href="#DejaVuSans-2d"/>
       <use x="163.330078" xlink:href="#DejaVuSans-30"/>
       <use x="226.953125" xlink:href="#DejaVuSans-31"/>
       <use x="290.576172" xlink:href="#DejaVuSans-2d"/>
       <use x="326.660156" xlink:href="#DejaVuSans-32"/>
       <use x="390.283203" xlink:href="#DejaVuSans-30"/>
       <use x="453.90625" xlink:href="#DejaVuSans-31"/>
       <use x="517.529297" xlink:href="#DejaVuSans-34"/>
      </g>
     </g>
    </g>
    <g id="xtick_27">
     <g id="line2d_49">
      <g>
       <use style="stroke:#000000;stroke-width:0.8;" x="418.540966" xlink:href="#mf8c50f11c9" y="276.48"/>
      </g>
     </g>
     <g id="text_17">
      <!-- 04-01-2014 -->
      <g transform="translate(367.171515 319.118252)rotate(-30)scale(0.1 -0.1)">
       <use xlink:href="#DejaVuSans-30"/>
       <use x="63.623047" xlink:href="#DejaVuSans-34"/>
       <use x="127.246094" xlink:href="#DejaVuSans-2d"/>
       <use x="163.330078" xlink:href="#DejaVuSans-30"/>
       <use x="226.953125" xlink:href="#DejaVuSans-31"/>
       <use x="290.576172" xlink:href="#DejaVuSans-2d"/>
       <use x="326.660156" xlink:href="#DejaVuSans-32"/>
       <use x="390.283203" xlink:href="#DejaVuSans-30"/>
       <use x="453.90625" xlink:href="#DejaVuSans-31"/>
       <use x="517.529297" xlink:href="#DejaVuSans-34"/>
      </g>
     </g>
    </g>
   </g>
   <g id="matplotlib.axis_6">
    <g id="ytick_7">
     <g id="line2d_50">
      <g>
       <use style="stroke:#000000;stroke-width:0.8;" x="55.69" xlink:href="#me1ecd299d0" y="250.978381"/>
      </g>
     </g>
     <g id="text_18">
      <!-- 0 -->
      <g transform="translate(42.3275 254.7776)scale(0.1 -0.1)">
       <use xlink:href="#DejaVuSans-30"/>
      </g>
     </g>
    </g>
    <g id="ytick_8">
     <g id="line2d_51">
      <g>
       <use style="stroke:#000000;stroke-width:0.8;" x="55.69" xlink:href="#me1ecd299d0" y="223.883552"/>
      </g>
     </g>
     <g id="text_19">
      <!-- 50000 -->
      <g transform="translate(16.8775 227.682771)scale(0.1 -0.1)">
       <use xlink:href="#DejaVuSans-35"/>
       <use x="63.623047" xlink:href="#DejaVuSans-30"/>
       <use x="127.246094" xlink:href="#DejaVuSans-30"/>
       <use x="190.869141" xlink:href="#DejaVuSans-30"/>
       <use x="254.492188" xlink:href="#DejaVuSans-30"/>
      </g>
     </g>
    </g>
   </g>
   <g id="line2d_52">
    <path clip-path="url(#p454032ac64)" d="M 73.498636 250.978381 
L 134.715824 250.978381 
L 135.643357 249.166228 
L 136.57089 248.116253 
L 137.498423 248.097444 
L 138.425956 244.825954 
L 140.281023 241.271091 
L 141.208556 240.699134 
L 142.136089 240.485532 
L 143.063622 240.718375 
L 144.918688 237.622064 
L 145.846222 237.989496 
L 146.773755 236.555533 
L 148.628821 237.352559 
L 149.556354 235.774025 
L 151.41142 236.408841 
L 153.266487 235.625961 
L 157.904152 237.308908 
L 158.831686 235.235248 
L 159.759219 235.541828 
L 160.686752 233.296746 
L 161.614285 233.456635 
L 162.541818 232.93374 
L 163.469351 232.158136 
L 164.396884 229.449277 
L 165.324418 230.514057 
L 166.251951 225.972028 
L 168.107017 220.844721 
L 169.03455 221.09859 
L 169.962083 224.473497 
L 170.889616 215.852567 
L 175.527282 216.876522 
L 176.454815 211.885853 
L 178.309882 212.162264 
L 179.237415 216.268413 
L 180.164948 212.493325 
L 182.020014 212.881006 
L 183.87508 213.558002 
L 184.802614 222.392944 
L 186.65768 222.902645 
L 187.585213 224.491443 
L 188.512746 230.196616 
L 189.440279 230.935437 
L 190.367812 235.526026 
L 191.295346 241.017367 
L 192.222879 241.463024 
L 193.150412 249.709584 
L 194.077945 249.841388 
L 196.860545 249.733706 
L 197.788078 248.895685 
L 198.715611 249.131571 
L 199.643144 254.645822 
L 200.570677 254.724611 
L 201.49821 255.385075 
L 202.425743 246.822635 
L 203.353277 251.798188 
L 204.28081 252.643703 
L 205.208343 252.718041 
L 206.135876 252.107635 
L 207.063409 251.953632 
L 207.990942 251.912742 
L 208.918475 251.481487 
L 209.846009 251.505616 
L 210.773542 250.58358 
L 212.628608 251.427265 
L 213.556141 251.155548 
L 214.483674 272.16664 
L 215.411207 271.760483 
L 216.338741 271.138597 
L 217.266274 273.404088 
L 218.193807 272.909388 
L 220.976406 270.917256 
L 222.831473 269.724474 
L 223.759006 267.507606 
L 224.686539 270.080985 
L 230.251738 266.860877 
L 231.179271 266.106004 
L 233.96187 265.065077 
L 237.672003 263.499414 
L 240.454602 262.462908 
L 241.382135 261.728818 
L 242.309669 261.829926 
L 246.947334 260.425739 
L 247.874867 259.410259 
L 248.802401 259.185241 
L 249.729934 257.658575 
L 255.295133 256.67371 
L 257.150199 254.875057 
L 258.077732 254.769999 
L 259.005265 255.249899 
L 259.932798 253.263736 
L 264.570464 252.952613 
L 265.497997 251.412051 
L 267.353063 251.384637 
L 268.280597 252.151946 
L 269.20813 251.359057 
L 272.918262 251.312885 
L 273.845795 253.243969 
L 274.773329 255.535819 
L 276.628395 255.537627 
L 277.555928 255.87984 
L 278.483461 255.747251 
L 279.410994 256.373094 
L 280.338527 255.683248 
L 281.266061 254.528206 
L 282.193594 255.884514 
L 286.831259 255.303954 
L 287.758793 254.615132 
L 289.613859 259.829358 
L 290.541392 259.73041 
L 291.468925 254.646045 
L 292.396458 255.150723 
L 303.526856 254.12676 
L 307.236989 253.861327 
L 308.164522 256.382109 
L 309.092055 256.686296 
L 310.019588 254.596095 
L 310.947121 253.322607 
L 311.874654 253.209374 
L 312.802187 253.517939 
L 323.005052 253.048337 
L 337.845582 252.389309 
L 338.773116 252.08224 
L 339.700649 251.472981 
L 340.628182 251.297976 
L 346.193381 251.162747 
L 347.120914 254.1521 
L 348.048447 251.310392 
L 348.97598 250.832033 
L 349.903513 251.025109 
L 350.831046 250.851053 
L 356.396245 250.894532 
L 357.323778 251.085893 
L 358.251312 250.905472 
L 361.961444 250.923373 
L 362.888977 251.246486 
L 363.81651 252.263222 
L 364.744044 252.729067 
L 366.59911 259.525096 
L 367.526643 259.63188 
L 368.454176 256.40369 
L 369.381709 252.01014 
L 370.309242 251.558045 
L 371.236776 251.820181 
L 372.164309 256.371226 
L 373.091842 256.3709 
L 374.019375 253.248366 
L 374.946908 251.545991 
L 375.874441 251.544368 
L 376.801974 251.392112 
L 377.729508 251.542658 
L 390.714972 251.512551 
L 391.642505 252.209299 
L 392.570038 251.508333 
L 394.425104 251.449963 
L 425.033698 251.376687 
L 429.671364 250.978381 
L 429.671364 250.978381 
" style="fill:none;stroke:#0000ff;stroke-linecap:square;stroke-width:2;"/>
   </g>
   <g id="line2d_53">
    <path clip-path="url(#p454032ac64)" d="M 214.483674 276.48 
L 214.483674 208.809941 
" style="fill:none;stroke:#000000;stroke-dasharray:2,3.3;stroke-dashoffset:0;stroke-width:2;"/>
   </g>
   <g id="line2d_54">
    <path clip-path="url(#p454032ac64)" d="M 73.498636 250.978381 
L 134.715824 250.978381 
L 135.643357 249.166228 
L 136.57089 248.116253 
L 137.498423 248.097444 
L 138.425956 244.825954 
L 140.281023 241.271091 
L 141.208556 240.699134 
L 142.136089 240.485532 
L 143.063622 240.718375 
L 144.918688 237.622064 
L 145.846222 237.989496 
L 146.773755 236.555533 
L 148.628821 237.352559 
L 149.556354 235.774025 
L 151.41142 236.408841 
L 153.266487 235.625961 
L 157.904152 237.308908 
L 158.831686 235.235248 
L 159.759219 235.541828 
L 160.686752 233.296746 
L 161.614285 233.456635 
L 162.541818 232.93374 
L 164.396884 231.377899 
L 166.251951 225.946802 
L 168.107017 220.846628 
L 169.03455 221.100388 
L 169.962083 224.475193 
L 170.889616 215.854167 
L 175.527282 216.87773 
L 176.454815 211.886997 
L 178.309882 212.163291 
L 179.237415 216.269387 
L 180.164948 212.49425 
L 182.020014 212.88184 
L 183.87508 213.558756 
L 184.802614 222.393661 
L 186.65768 222.903295 
L 187.585213 224.492062 
L 188.512746 230.667793 
L 189.440279 230.936 
L 190.367812 235.526563 
L 191.295346 241.017879 
L 192.222879 241.463514 
L 193.150412 249.692116 
L 194.077945 249.823396 
L 196.860545 249.718217 
L 197.788078 248.880943 
L 198.715611 249.117536 
L 199.643144 254.632457 
L 200.570677 254.71188 
L 201.49821 255.372945 
L 202.425743 246.811075 
L 203.353277 251.559706 
L 204.28081 252.642231 
L 205.208343 252.716565 
L 206.135876 252.106267 
L 207.063409 251.952356 
L 207.990942 251.911551 
L 208.918475 251.480375 
L 209.846009 251.504577 
L 210.773542 250.58261 
L 212.628608 251.426417 
L 213.556141 251.154754 
L 214.483674 272.165896 
L 215.411207 271.759786 
L 216.338741 271.137944 
L 217.266274 273.403476 
L 218.193807 272.908813 
L 220.976406 270.916779 
L 222.831473 269.724051 
L 223.759006 267.507207 
L 224.686539 270.080608 
L 230.251738 266.860607 
L 231.179271 266.105747 
L 233.96187 265.064856 
L 237.672003 263.499231 
L 240.454602 262.462747 
L 241.382135 261.728663 
L 242.309669 261.829777 
L 246.947334 260.425614 
L 247.874867 259.410139 
L 248.802401 259.185124 
L 249.729934 257.658575 
L 255.295133 256.67371 
L 257.150199 254.875057 
L 258.077732 254.769999 
L 259.005265 255.249945 
L 259.932798 253.263736 
L 264.570464 252.952613 
L 265.497997 251.412051 
L 267.353063 251.384637 
L 268.280597 252.151946 
L 269.20813 251.359057 
L 272.918262 251.312885 
L 273.845795 253.2438 
L 274.773329 255.535653 
L 276.628395 255.537511 
L 277.555928 255.879727 
L 278.483461 255.747141 
L 279.410994 256.372986 
L 280.338527 255.683142 
L 281.266061 254.528103 
L 282.193594 255.884414 
L 286.831259 255.303862 
L 287.758793 254.615042 
L 289.613859 259.829271 
L 290.541392 259.730324 
L 291.468925 254.645961 
L 292.396458 255.150641 
L 303.526856 254.126691 
L 307.236989 253.861262 
L 308.164522 256.382044 
L 309.092055 256.686232 
L 310.019588 254.596032 
L 310.947121 253.322544 
L 311.874654 253.209313 
L 312.802187 253.517878 
L 323.005052 253.048283 
L 337.845582 252.389264 
L 338.773116 252.08224 
L 339.700649 251.472935 
L 340.628182 251.297931 
L 346.193381 251.162699 
L 347.120914 254.1521 
L 348.048447 251.310392 
L 348.97598 250.832033 
L 349.903513 251.025109 
L 350.831046 250.851053 
L 356.396245 250.894532 
L 357.323778 251.085893 
L 358.251312 250.905472 
L 361.961444 250.923373 
L 362.888977 251.246427 
L 363.81651 252.263164 
L 364.744044 252.72901 
L 366.59911 259.525047 
L 367.526643 259.631832 
L 368.454176 256.403642 
L 369.381709 252.010094 
L 370.309242 251.557999 
L 371.236776 251.820136 
L 372.164309 256.371182 
L 373.091842 256.370857 
L 374.019375 253.248324 
L 374.946908 251.545949 
L 375.874441 251.544327 
L 376.801974 251.392071 
L 377.729508 251.542618 
L 390.714972 251.512518 
L 391.642505 252.209267 
L 392.570038 251.508302 
L 394.425104 251.449932 
L 425.033698 251.376666 
L 429.671364 250.978381 
L 429.671364 250.978381 
" style="fill:none;stroke:#008000;stroke-dasharray:7.4,3.2;stroke-dashoffset:0;stroke-width:2;"/>
   </g>
   <g id="line2d_55">
    <path clip-path="url(#p454032ac64)" d="M 214.483674 276.48 
L 214.483674 208.809941 
" style="fill:none;stroke:#000000;stroke-dasharray:2,3.3;stroke-dashoffset:0;stroke-width:2;"/>
   </g>
   <g id="line2d_56">
    <path clip-path="url(#p454032ac64)" d="M 73.498636 250.978381 
L 210.464364 250.978381 
L 210.773542 241.554664 
L 211.082719 241.633108 
L 211.391897 242.044672 
L 211.701075 242.891446 
L 212.31943 245.889793 
L 213.246963 248.712131 
L 213.865319 249.79457 
L 214.174497 250.108784 
L 214.483674 259.818942 
L 214.792852 259.864221 
L 215.10203 259.522713 
L 215.411207 258.781682 
L 216.338741 254.283046 
L 216.957096 252.791908 
L 217.884629 251.453971 
L 218.502985 251.097422 
L 219.430518 250.988526 
L 225.614072 250.978381 
L 429.362186 250.978381 
L 429.362186 250.978381 
" style="fill:none;stroke:#ff0000;stroke-dasharray:12.8,3.2,2,3.2;stroke-dashoffset:0;stroke-width:2;"/>
   </g>
   <g id="line2d_57">
    <path clip-path="url(#p454032ac64)" d="M 214.483674 276.48 
L 214.483674 208.809941 
" style="fill:none;stroke:#000000;stroke-dasharray:2,3.3;stroke-dashoffset:0;stroke-width:2;"/>
   </g>
   <g id="line2d_58">
    <path clip-path="url(#p454032ac64)" d="M 73.498636 250.978381 
L 210.464364 250.978381 
L 210.773542 241.419013 
L 211.082719 241.448731 
L 211.391897 241.735756 
L 211.701075 242.528055 
L 212.628608 246.626328 
L 213.246963 248.583541 
L 213.865319 249.796893 
L 214.174497 250.12606 
L 214.483674 253.226393 
L 215.10203 253.235138 
L 215.411207 253.799177 
L 216.029563 253.793532 
L 216.338741 253.394653 
L 216.957096 253.310832 
L 217.266274 253.606577 
L 217.884629 253.448419 
L 218.193807 253.679349 
L 218.812162 252.801251 
L 219.12134 252.395956 
L 219.739695 252.047334 
L 220.667229 252.072769 
L 221.903939 251.6577 
L 223.449828 251.454019 
L 224.686539 251.262962 
L 225.92325 251.155196 
L 228.396671 251.12994 
L 229.94256 250.992343 
L 235.816937 250.978386 
L 429.362186 250.978381 
L 429.362186 250.978381 
" style="fill:none;stroke:#00bfbf;stroke-dasharray:2,3.3;stroke-dashoffset:0;stroke-width:2;"/>
   </g>
   <g id="line2d_59">
    <path clip-path="url(#p454032ac64)" d="M 214.483674 276.48 
L 214.483674 208.809941 
" style="fill:none;stroke:#000000;stroke-dasharray:2,3.3;stroke-dashoffset:0;stroke-width:2;"/>
   </g>
   <g id="patch_13">
    <path d="M 55.69 276.48 
L 55.69 208.809941 
" style="fill:none;stroke:#000000;stroke-linecap:square;stroke-linejoin:miter;stroke-width:0.8;"/>
   </g>
   <g id="patch_14">
    <path d="M 447.48 276.48 
L 447.48 208.809941 
" style="fill:none;stroke:#000000;stroke-linecap:square;stroke-linejoin:miter;stroke-width:0.8;"/>
   </g>
   <g id="patch_15">
    <path d="M 55.69 276.48 
L 447.48 276.48 
" style="fill:none;stroke:#000000;stroke-linecap:square;stroke-linejoin:miter;stroke-width:0.8;"/>
   </g>
   <g id="patch_16">
    <path d="M 55.69 208.809941 
L 447.48 208.809941 
" style="fill:none;stroke:#000000;stroke-linecap:square;stroke-linejoin:miter;stroke-width:0.8;"/>
   </g>
   <g id="text_20">
    <!-- New street -->
    <defs>
     <path d="M 9.8125 72.90625 
L 23.09375 72.90625 
L 55.421875 11.921875 
L 55.421875 72.90625 
L 64.984375 72.90625 
L 64.984375 0 
L 51.703125 0 
L 19.390625 60.984375 
L 19.390625 0 
L 9.8125 0 
z
" id="DejaVuSans-4e"/>
     <path d="M 4.203125 54.6875 
L 13.1875 54.6875 
L 24.421875 12.015625 
L 35.59375 54.6875 
L 46.1875 54.6875 
L 57.421875 12.015625 
L 68.609375 54.6875 
L 77.59375 54.6875 
L 63.28125 0 
L 52.6875 0 
L 40.921875 44.828125 
L 29.109375 0 
L 18.5 0 
z
" id="DejaVuSans-77"/>
    </defs>
    <g transform="translate(218.912188 202.809941)scale(0.12 -0.12)">
     <use xlink:href="#DejaVuSans-4e"/>
     <use x="74.804688" xlink:href="#DejaVuSans-65"/>
     <use x="136.328125" xlink:href="#DejaVuSans-77"/>
     <use x="218.115234" xlink:href="#DejaVuSans-20"/>
     <use x="249.902344" xlink:href="#DejaVuSans-73"/>
     <use x="302.001953" xlink:href="#DejaVuSans-74"/>
     <use x="341.210938" xlink:href="#DejaVuSans-72"/>
     <use x="382.292969" xlink:href="#DejaVuSans-65"/>
     <use x="443.816406" xlink:href="#DejaVuSans-65"/>
     <use x="505.339844" xlink:href="#DejaVuSans-74"/>
    </g>
   </g>
  </g>
  <g id="legend_1">
   <g id="patch_17">
    <path d="M 298.085938 66.7125 
L 453.8 66.7125 
Q 455.8 66.7125 455.8 64.7125 
L 455.8 7 
Q 455.8 5 453.8 5 
L 298.085938 5 
Q 296.085938 5 296.085938 7 
L 296.085938 64.7125 
Q 296.085938 66.7125 298.085938 66.7125 
z
" style="fill:#ffffff;opacity:0.8;stroke:#cccccc;stroke-linejoin:miter;"/>
   </g>
   <g id="line2d_60">
    <path d="M 300.085938 13.098438 
L 320.085938 13.098438 
" style="fill:none;stroke:#0000ff;stroke-linecap:square;stroke-width:2;"/>
   </g>
   <g id="line2d_61"/>
   <g id="text_21">
    <!-- Buildings - ideal network -->
    <defs>
     <path d="M 19.671875 34.8125 
L 19.671875 8.109375 
L 35.5 8.109375 
Q 43.453125 8.109375 47.28125 11.40625 
Q 51.125 14.703125 51.125 21.484375 
Q 51.125 28.328125 47.28125 31.5625 
Q 43.453125 34.8125 35.5 34.8125 
z
M 19.671875 64.796875 
L 19.671875 42.828125 
L 34.28125 42.828125 
Q 41.5 42.828125 45.03125 45.53125 
Q 48.578125 48.25 48.578125 53.8125 
Q 48.578125 59.328125 45.03125 62.0625 
Q 41.5 64.796875 34.28125 64.796875 
z
M 9.8125 72.90625 
L 35.015625 72.90625 
Q 46.296875 72.90625 52.390625 68.21875 
Q 58.5 63.53125 58.5 54.890625 
Q 58.5 48.1875 55.375 44.234375 
Q 52.25 40.28125 46.1875 39.3125 
Q 53.46875 37.75 57.5 32.78125 
Q 61.53125 27.828125 61.53125 20.40625 
Q 61.53125 10.640625 54.890625 5.3125 
Q 48.25 0 35.984375 0 
L 9.8125 0 
z
" id="DejaVuSans-42"/>
     <path d="M 8.5 21.578125 
L 8.5 54.6875 
L 17.484375 54.6875 
L 17.484375 21.921875 
Q 17.484375 14.15625 20.5 10.265625 
Q 23.53125 6.390625 29.59375 6.390625 
Q 36.859375 6.390625 41.078125 11.03125 
Q 45.3125 15.671875 45.3125 23.6875 
L 45.3125 54.6875 
L 54.296875 54.6875 
L 54.296875 0 
L 45.3125 0 
L 45.3125 8.40625 
Q 42.046875 3.421875 37.71875 1 
Q 33.40625 -1.421875 27.6875 -1.421875 
Q 18.265625 -1.421875 13.375 4.4375 
Q 8.5 10.296875 8.5 21.578125 
z
M 31.109375 56 
z
" id="DejaVuSans-75"/>
     <path d="M 54.890625 33.015625 
L 54.890625 0 
L 45.90625 0 
L 45.90625 32.71875 
Q 45.90625 40.484375 42.875 44.328125 
Q 39.84375 48.1875 33.796875 48.1875 
Q 26.515625 48.1875 22.3125 43.546875 
Q 18.109375 38.921875 18.109375 30.90625 
L 18.109375 0 
L 9.078125 0 
L 9.078125 54.6875 
L 18.109375 54.6875 
L 18.109375 46.1875 
Q 21.34375 51.125 25.703125 53.5625 
Q 30.078125 56 35.796875 56 
Q 45.21875 56 50.046875 50.171875 
Q 54.890625 44.34375 54.890625 33.015625 
z
" id="DejaVuSans-6e"/>
     <path d="M 45.40625 27.984375 
Q 45.40625 37.75 41.375 43.109375 
Q 37.359375 48.484375 30.078125 48.484375 
Q 22.859375 48.484375 18.828125 43.109375 
Q 14.796875 37.75 14.796875 27.984375 
Q 14.796875 18.265625 18.828125 12.890625 
Q 22.859375 7.515625 30.078125 7.515625 
Q 37.359375 7.515625 41.375 12.890625 
Q 45.40625 18.265625 45.40625 27.984375 
z
M 54.390625 6.78125 
Q 54.390625 -7.171875 48.1875 -13.984375 
Q 42 -20.796875 29.203125 -20.796875 
Q 24.46875 -20.796875 20.265625 -20.09375 
Q 16.0625 -19.390625 12.109375 -17.921875 
L 12.109375 -9.1875 
Q 16.0625 -11.328125 19.921875 -12.34375 
Q 23.78125 -13.375 27.78125 -13.375 
Q 36.625 -13.375 41.015625 -8.765625 
Q 45.40625 -4.15625 45.40625 5.171875 
L 45.40625 9.625 
Q 42.625 4.78125 38.28125 2.390625 
Q 33.9375 0 27.875 0 
Q 17.828125 0 11.671875 7.65625 
Q 5.515625 15.328125 5.515625 27.984375 
Q 5.515625 40.671875 11.671875 48.328125 
Q 17.828125 56 27.875 56 
Q 33.9375 56 38.28125 53.609375 
Q 42.625 51.21875 45.40625 46.390625 
L 45.40625 54.6875 
L 54.390625 54.6875 
z
" id="DejaVuSans-67"/>
     <path d="M 34.28125 27.484375 
Q 23.390625 27.484375 19.1875 25 
Q 14.984375 22.515625 14.984375 16.5 
Q 14.984375 11.71875 18.140625 8.90625 
Q 21.296875 6.109375 26.703125 6.109375 
Q 34.1875 6.109375 38.703125 11.40625 
Q 43.21875 16.703125 43.21875 25.484375 
L 43.21875 27.484375 
z
M 52.203125 31.203125 
L 52.203125 0 
L 43.21875 0 
L 43.21875 8.296875 
Q 40.140625 3.328125 35.546875 0.953125 
Q 30.953125 -1.421875 24.3125 -1.421875 
Q 15.921875 -1.421875 10.953125 3.296875 
Q 6 8.015625 6 15.921875 
Q 6 25.140625 12.171875 29.828125 
Q 18.359375 34.515625 30.609375 34.515625 
L 43.21875 34.515625 
L 43.21875 35.40625 
Q 43.21875 41.609375 39.140625 45 
Q 35.0625 48.390625 27.6875 48.390625 
Q 23 48.390625 18.546875 47.265625 
Q 14.109375 46.140625 10.015625 43.890625 
L 10.015625 52.203125 
Q 14.9375 54.109375 19.578125 55.046875 
Q 24.21875 56 28.609375 56 
Q 40.484375 56 46.34375 49.84375 
Q 52.203125 43.703125 52.203125 31.203125 
z
" id="DejaVuSans-61"/>
     <path d="M 30.609375 48.390625 
Q 23.390625 48.390625 19.1875 42.75 
Q 14.984375 37.109375 14.984375 27.296875 
Q 14.984375 17.484375 19.15625 11.84375 
Q 23.34375 6.203125 30.609375 6.203125 
Q 37.796875 6.203125 41.984375 11.859375 
Q 46.1875 17.53125 46.1875 27.296875 
Q 46.1875 37.015625 41.984375 42.703125 
Q 37.796875 48.390625 30.609375 48.390625 
z
M 30.609375 56 
Q 42.328125 56 49.015625 48.375 
Q 55.71875 40.765625 55.71875 27.296875 
Q 55.71875 13.875 49.015625 6.21875 
Q 42.328125 -1.421875 30.609375 -1.421875 
Q 18.84375 -1.421875 12.171875 6.21875 
Q 5.515625 13.875 5.515625 27.296875 
Q 5.515625 40.765625 12.171875 48.375 
Q 18.84375 56 30.609375 56 
z
" id="DejaVuSans-6f"/>
     <path d="M 9.078125 75.984375 
L 18.109375 75.984375 
L 18.109375 31.109375 
L 44.921875 54.6875 
L 56.390625 54.6875 
L 27.390625 29.109375 
L 57.625 0 
L 45.90625 0 
L 18.109375 26.703125 
L 18.109375 0 
L 9.078125 0 
z
" id="DejaVuSans-6b"/>
    </defs>
    <g transform="translate(328.085938 16.598438)scale(0.1 -0.1)">
     <use xlink:href="#DejaVuSans-42"/>
     <use x="68.603516" xlink:href="#DejaVuSans-75"/>
     <use x="131.982422" xlink:href="#DejaVuSans-69"/>
     <use x="159.765625" xlink:href="#DejaVuSans-6c"/>
     <use x="187.548828" xlink:href="#DejaVuSans-64"/>
     <use x="251.025391" xlink:href="#DejaVuSans-69"/>
     <use x="278.808594" xlink:href="#DejaVuSans-6e"/>
     <use x="342.1875" xlink:href="#DejaVuSans-67"/>
     <use x="405.664062" xlink:href="#DejaVuSans-73"/>
     <use x="457.763672" xlink:href="#DejaVuSans-20"/>
     <use x="489.550781" xlink:href="#DejaVuSans-2d"/>
     <use x="525.634766" xlink:href="#DejaVuSans-20"/>
     <use x="557.421875" xlink:href="#DejaVuSans-69"/>
     <use x="585.205078" xlink:href="#DejaVuSans-64"/>
     <use x="648.681641" xlink:href="#DejaVuSans-65"/>
     <use x="710.205078" xlink:href="#DejaVuSans-61"/>
     <use x="771.484375" xlink:href="#DejaVuSans-6c"/>
     <use x="799.267578" xlink:href="#DejaVuSans-20"/>
     <use x="831.054688" xlink:href="#DejaVuSans-6e"/>
     <use x="894.433594" xlink:href="#DejaVuSans-65"/>
     <use x="955.957031" xlink:href="#DejaVuSans-74"/>
     <use x="995.166016" xlink:href="#DejaVuSans-77"/>
     <use x="1076.953125" xlink:href="#DejaVuSans-6f"/>
     <use x="1138.134766" xlink:href="#DejaVuSans-72"/>
     <use x="1179.248047" xlink:href="#DejaVuSans-6b"/>
    </g>
   </g>
   <g id="line2d_62">
    <path d="M 300.085938 27.776563 
L 320.085938 27.776563 
" style="fill:none;stroke:#008000;stroke-dasharray:7.4,3.2;stroke-dashoffset:0;stroke-width:2;"/>
   </g>
   <g id="line2d_63"/>
   <g id="text_22">
    <!-- Buildings -->
    <g transform="translate(328.085938 31.276563)scale(0.1 -0.1)">
     <use xlink:href="#DejaVuSans-42"/>
     <use x="68.603516" xlink:href="#DejaVuSans-75"/>
     <use x="131.982422" xlink:href="#DejaVuSans-69"/>
     <use x="159.765625" xlink:href="#DejaVuSans-6c"/>
     <use x="187.548828" xlink:href="#DejaVuSans-64"/>
     <use x="251.025391" xlink:href="#DejaVuSans-69"/>
     <use x="278.808594" xlink:href="#DejaVuSans-6e"/>
     <use x="342.1875" xlink:href="#DejaVuSans-67"/>
     <use x="405.664062" xlink:href="#DejaVuSans-73"/>
    </g>
   </g>
   <g id="line2d_64">
    <path d="M 300.085938 42.454688 
L 320.085938 42.454688 
" style="fill:none;stroke:#ff0000;stroke-dasharray:12.8,3.2,2,3.2;stroke-dashoffset:0;stroke-width:2;"/>
   </g>
   <g id="line2d_65"/>
   <g id="text_23">
    <!-- Network -->
    <g transform="translate(328.085938 45.954688)scale(0.1 -0.1)">
     <use xlink:href="#DejaVuSans-4e"/>
     <use x="74.804688" xlink:href="#DejaVuSans-65"/>
     <use x="136.328125" xlink:href="#DejaVuSans-74"/>
     <use x="175.537109" xlink:href="#DejaVuSans-77"/>
     <use x="257.324219" xlink:href="#DejaVuSans-6f"/>
     <use x="318.505859" xlink:href="#DejaVuSans-72"/>
     <use x="359.619141" xlink:href="#DejaVuSans-6b"/>
    </g>
   </g>
   <g id="line2d_66">
    <path d="M 300.085938 57.132813 
L 320.085938 57.132813 
" style="fill:none;stroke:#00bfbf;stroke-dasharray:2,3.3;stroke-dashoffset:0;stroke-width:2;"/>
   </g>
   <g id="line2d_67"/>
   <g id="text_24">
    <!-- Combined - LP -->
    <defs>
     <path d="M 64.40625 67.28125 
L 64.40625 56.890625 
Q 59.421875 61.53125 53.78125 63.8125 
Q 48.140625 66.109375 41.796875 66.109375 
Q 29.296875 66.109375 22.65625 58.46875 
Q 16.015625 50.828125 16.015625 36.375 
Q 16.015625 21.96875 22.65625 14.328125 
Q 29.296875 6.6875 41.796875 6.6875 
Q 48.140625 6.6875 53.78125 8.984375 
Q 59.421875 11.28125 64.40625 15.921875 
L 64.40625 5.609375 
Q 59.234375 2.09375 53.4375 0.328125 
Q 47.65625 -1.421875 41.21875 -1.421875 
Q 24.65625 -1.421875 15.125 8.703125 
Q 5.609375 18.84375 5.609375 36.375 
Q 5.609375 53.953125 15.125 64.078125 
Q 24.65625 74.21875 41.21875 74.21875 
Q 47.75 74.21875 53.53125 72.484375 
Q 59.328125 70.75 64.40625 67.28125 
z
" id="DejaVuSans-43"/>
     <path d="M 52 44.1875 
Q 55.375 50.25 60.0625 53.125 
Q 64.75 56 71.09375 56 
Q 79.640625 56 84.28125 50.015625 
Q 88.921875 44.046875 88.921875 33.015625 
L 88.921875 0 
L 79.890625 0 
L 79.890625 32.71875 
Q 79.890625 40.578125 77.09375 44.375 
Q 74.3125 48.1875 68.609375 48.1875 
Q 61.625 48.1875 57.5625 43.546875 
Q 53.515625 38.921875 53.515625 30.90625 
L 53.515625 0 
L 44.484375 0 
L 44.484375 32.71875 
Q 44.484375 40.625 41.703125 44.40625 
Q 38.921875 48.1875 33.109375 48.1875 
Q 26.21875 48.1875 22.15625 43.53125 
Q 18.109375 38.875 18.109375 30.90625 
L 18.109375 0 
L 9.078125 0 
L 9.078125 54.6875 
L 18.109375 54.6875 
L 18.109375 46.1875 
Q 21.1875 51.21875 25.484375 53.609375 
Q 29.78125 56 35.6875 56 
Q 41.65625 56 45.828125 52.96875 
Q 50 49.953125 52 44.1875 
z
" id="DejaVuSans-6d"/>
     <path d="M 48.6875 27.296875 
Q 48.6875 37.203125 44.609375 42.84375 
Q 40.53125 48.484375 33.40625 48.484375 
Q 26.265625 48.484375 22.1875 42.84375 
Q 18.109375 37.203125 18.109375 27.296875 
Q 18.109375 17.390625 22.1875 11.75 
Q 26.265625 6.109375 33.40625 6.109375 
Q 40.53125 6.109375 44.609375 11.75 
Q 48.6875 17.390625 48.6875 27.296875 
z
M 18.109375 46.390625 
Q 20.953125 51.265625 25.265625 53.625 
Q 29.59375 56 35.59375 56 
Q 45.5625 56 51.78125 48.09375 
Q 58.015625 40.1875 58.015625 27.296875 
Q 58.015625 14.40625 51.78125 6.484375 
Q 45.5625 -1.421875 35.59375 -1.421875 
Q 29.59375 -1.421875 25.265625 0.953125 
Q 20.953125 3.328125 18.109375 8.203125 
L 18.109375 0 
L 9.078125 0 
L 9.078125 75.984375 
L 18.109375 75.984375 
z
" id="DejaVuSans-62"/>
     <path d="M 9.8125 72.90625 
L 19.671875 72.90625 
L 19.671875 8.296875 
L 55.171875 8.296875 
L 55.171875 0 
L 9.8125 0 
z
" id="DejaVuSans-4c"/>
     <path d="M 19.671875 64.796875 
L 19.671875 37.40625 
L 32.078125 37.40625 
Q 38.96875 37.40625 42.71875 40.96875 
Q 46.484375 44.53125 46.484375 51.125 
Q 46.484375 57.671875 42.71875 61.234375 
Q 38.96875 64.796875 32.078125 64.796875 
z
M 9.8125 72.90625 
L 32.078125 72.90625 
Q 44.34375 72.90625 50.609375 67.359375 
Q 56.890625 61.8125 56.890625 51.125 
Q 56.890625 40.328125 50.609375 34.8125 
Q 44.34375 29.296875 32.078125 29.296875 
L 19.671875 29.296875 
L 19.671875 0 
L 9.8125 0 
z
" id="DejaVuSans-50"/>
    </defs>
    <g transform="translate(328.085938 60.632813)scale(0.1 -0.1)">
     <use xlink:href="#DejaVuSans-43"/>
     <use x="69.824219" xlink:href="#DejaVuSans-6f"/>
     <use x="131.005859" xlink:href="#DejaVuSans-6d"/>
     <use x="228.417969" xlink:href="#DejaVuSans-62"/>
     <use x="291.894531" xlink:href="#DejaVuSans-69"/>
     <use x="319.677734" xlink:href="#DejaVuSans-6e"/>
     <use x="383.056641" xlink:href="#DejaVuSans-65"/>
     <use x="444.580078" xlink:href="#DejaVuSans-64"/>
     <use x="508.056641" xlink:href="#DejaVuSans-20"/>
     <use x="539.84375" xlink:href="#DejaVuSans-2d"/>
     <use x="575.927734" xlink:href="#DejaVuSans-20"/>
     <use x="607.714844" xlink:href="#DejaVuSans-4c"/>
     <use x="663.427734" xlink:href="#DejaVuSans-50"/>
    </g>
   </g>
  </g>
 </g>
 <defs>
  <clipPath id="p6afb196cf3">
   <rect height="67.670059" width="391.79" x="55.69" y="25.44"/>
  </clipPath>
  <clipPath id="pc1cb9e034b">
   <rect height="67.670059" width="391.79" x="55.69" y="117.124971"/>
  </clipPath>
  <clipPath id="p454032ac64">
   <rect height="67.670059" width="391.79" x="55.69" y="208.809941"/>
  </clipPath>
 </defs>
</svg>
