<?xml version="1.0" encoding="utf-8" standalone="no"?>
<!DOCTYPE svg PUBLIC "-//W3C//DTD SVG 1.1//EN"
  "http://www.w3.org/Graphics/SVG/1.1/DTD/svg11.dtd">
<!-- Created with matplotlib (http://matplotlib.org/) -->
<svg height="345pt" version="1.1" viewBox="0 0 460 345" width="460pt" xmlns="http://www.w3.org/2000/svg" xmlns:xlink="http://www.w3.org/1999/xlink">
 <defs>
  <style type="text/css">
*{stroke-linecap:butt;stroke-linejoin:round;}
  </style>
 </defs>
 <g id="figure_1">
  <g id="patch_1">
   <path d="M 0 345.6 
L 460.8 345.6 
L 460.8 0 
L 0 0 
z
" style="fill:#ffffff;"/>
  </g>
  <g id="axes_1">
   <g id="patch_2">
    <path d="M 64.06 138.952544 
L 447.48 138.952544 
L 447.48 25.44 
L 64.06 25.44 
z
" style="fill:#ffffff;"/>
   </g>
   <g id="matplotlib.axis_1">
    <g id="xtick_1">
     <g id="line2d_1">
      <defs>
       <path d="M 0 0 
L 0 3.5 
" id="m12d231745e" style="stroke:#000000;stroke-width:0.8;"/>
      </defs>
      <g>
       <use style="stroke:#000000;stroke-width:0.8;" x="70.595568" xlink:href="#m12d231745e" y="138.952544"/>
      </g>
     </g>
    </g>
    <g id="xtick_2">
     <g id="line2d_2">
      <g>
       <use style="stroke:#000000;stroke-width:0.8;" x="114.166023" xlink:href="#m12d231745e" y="138.952544"/>
      </g>
     </g>
    </g>
    <g id="xtick_3">
     <g id="line2d_3">
      <g>
       <use style="stroke:#000000;stroke-width:0.8;" x="157.736477" xlink:href="#m12d231745e" y="138.952544"/>
      </g>
     </g>
    </g>
    <g id="xtick_4">
     <g id="line2d_4">
      <g>
       <use style="stroke:#000000;stroke-width:0.8;" x="201.306932" xlink:href="#m12d231745e" y="138.952544"/>
      </g>
     </g>
    </g>
    <g id="xtick_5">
     <g id="line2d_5">
      <g>
       <use style="stroke:#000000;stroke-width:0.8;" x="244.877386" xlink:href="#m12d231745e" y="138.952544"/>
      </g>
     </g>
    </g>
    <g id="xtick_6">
     <g id="line2d_6">
      <g>
       <use style="stroke:#000000;stroke-width:0.8;" x="288.447841" xlink:href="#m12d231745e" y="138.952544"/>
      </g>
     </g>
    </g>
    <g id="xtick_7">
     <g id="line2d_7">
      <g>
       <use style="stroke:#000000;stroke-width:0.8;" x="332.018295" xlink:href="#m12d231745e" y="138.952544"/>
      </g>
     </g>
    </g>
    <g id="xtick_8">
     <g id="line2d_8">
      <g>
       <use style="stroke:#000000;stroke-width:0.8;" x="375.58875" xlink:href="#m12d231745e" y="138.952544"/>
      </g>
     </g>
    </g>
    <g id="xtick_9">
     <g id="line2d_9">
      <g>
       <use style="stroke:#000000;stroke-width:0.8;" x="419.159205" xlink:href="#m12d231745e" y="138.952544"/>
      </g>
     </g>
    </g>
   </g>
   <g id="matplotlib.axis_2">
    <g id="ytick_1">
     <g id="line2d_10">
      <defs>
       <path d="M 0 0 
L -3.5 0 
" id="mbd59658236" style="stroke:#000000;stroke-width:0.8;"/>
      </defs>
      <g>
       <use style="stroke:#000000;stroke-width:0.8;" x="64.06" xlink:href="#mbd59658236" y="115.882752"/>
      </g>
     </g>
     <g id="text_1">
      <!-- −100000 -->
      <defs>
       <path d="M 10.59375 35.5 
L 73.1875 35.5 
L 73.1875 27.203125 
L 10.59375 27.203125 
z
" id="DejaVuSans-2212"/>
       <path d="M 12.40625 8.296875 
L 28.515625 8.296875 
L 28.515625 63.921875 
L 10.984375 60.40625 
L 10.984375 69.390625 
L 28.421875 72.90625 
L 38.28125 72.90625 
L 38.28125 8.296875 
L 54.390625 8.296875 
L 54.390625 0 
L 12.40625 0 
z
" id="DejaVuSans-31"/>
       <path d="M 31.78125 66.40625 
Q 24.171875 66.40625 20.328125 58.90625 
Q 16.5 51.421875 16.5 36.375 
Q 16.5 21.390625 20.328125 13.890625 
Q 24.171875 6.390625 31.78125 6.390625 
Q 39.453125 6.390625 43.28125 13.890625 
Q 47.125 21.390625 47.125 36.375 
Q 47.125 51.421875 43.28125 58.90625 
Q 39.453125 66.40625 31.78125 66.40625 
z
M 31.78125 74.21875 
Q 44.046875 74.21875 50.515625 64.515625 
Q 56.984375 54.828125 56.984375 36.375 
Q 56.984375 17.96875 50.515625 8.265625 
Q 44.046875 -1.421875 31.78125 -1.421875 
Q 19.53125 -1.421875 13.0625 8.265625 
Q 6.59375 17.96875 6.59375 36.375 
Q 6.59375 54.828125 13.0625 64.515625 
Q 19.53125 74.21875 31.78125 74.21875 
z
" id="DejaVuSans-30"/>
      </defs>
      <g transform="translate(10.505313 119.681971)scale(0.1 -0.1)">
       <use xlink:href="#DejaVuSans-2212"/>
       <use x="83.789062" xlink:href="#DejaVuSans-31"/>
       <use x="147.412109" xlink:href="#DejaVuSans-30"/>
       <use x="211.035156" xlink:href="#DejaVuSans-30"/>
       <use x="274.658203" xlink:href="#DejaVuSans-30"/>
       <use x="338.28125" xlink:href="#DejaVuSans-30"/>
       <use x="401.904297" xlink:href="#DejaVuSans-30"/>
      </g>
     </g>
    </g>
    <g id="ytick_2">
     <g id="line2d_11">
      <g>
       <use style="stroke:#000000;stroke-width:0.8;" x="64.06" xlink:href="#mbd59658236" y="92.28175"/>
      </g>
     </g>
     <g id="text_2">
      <!-- 0 -->
      <g transform="translate(50.6975 96.080968)scale(0.1 -0.1)">
       <use xlink:href="#DejaVuSans-30"/>
      </g>
     </g>
    </g>
    <g id="ytick_3">
     <g id="line2d_12">
      <g>
       <use style="stroke:#000000;stroke-width:0.8;" x="64.06" xlink:href="#mbd59658236" y="68.680747"/>
      </g>
     </g>
     <g id="text_3">
      <!-- 100000 -->
      <g transform="translate(18.885 72.479966)scale(0.1 -0.1)">
       <use xlink:href="#DejaVuSans-31"/>
       <use x="63.623047" xlink:href="#DejaVuSans-30"/>
       <use x="127.246094" xlink:href="#DejaVuSans-30"/>
       <use x="190.869141" xlink:href="#DejaVuSans-30"/>
       <use x="254.492188" xlink:href="#DejaVuSans-30"/>
       <use x="318.115234" xlink:href="#DejaVuSans-30"/>
      </g>
     </g>
    </g>
    <g id="ytick_4">
     <g id="line2d_13">
      <g>
       <use style="stroke:#000000;stroke-width:0.8;" x="64.06" xlink:href="#mbd59658236" y="45.079745"/>
      </g>
     </g>
     <g id="text_4">
      <!-- 200000 -->
      <defs>
       <path d="M 19.1875 8.296875 
L 53.609375 8.296875 
L 53.609375 0 
L 7.328125 0 
L 7.328125 8.296875 
Q 12.9375 14.109375 22.625 23.890625 
Q 32.328125 33.6875 34.8125 36.53125 
Q 39.546875 41.84375 41.421875 45.53125 
Q 43.3125 49.21875 43.3125 52.78125 
Q 43.3125 58.59375 39.234375 62.25 
Q 35.15625 65.921875 28.609375 65.921875 
Q 23.96875 65.921875 18.8125 64.3125 
Q 13.671875 62.703125 7.8125 59.421875 
L 7.8125 69.390625 
Q 13.765625 71.78125 18.9375 73 
Q 24.125 74.21875 28.421875 74.21875 
Q 39.75 74.21875 46.484375 68.546875 
Q 53.21875 62.890625 53.21875 53.421875 
Q 53.21875 48.921875 51.53125 44.890625 
Q 49.859375 40.875 45.40625 35.40625 
Q 44.1875 33.984375 37.640625 27.21875 
Q 31.109375 20.453125 19.1875 8.296875 
z
" id="DejaVuSans-32"/>
      </defs>
      <g transform="translate(18.885 48.878964)scale(0.1 -0.1)">
       <use xlink:href="#DejaVuSans-32"/>
       <use x="63.623047" xlink:href="#DejaVuSans-30"/>
       <use x="127.246094" xlink:href="#DejaVuSans-30"/>
       <use x="190.869141" xlink:href="#DejaVuSans-30"/>
       <use x="254.492188" xlink:href="#DejaVuSans-30"/>
       <use x="318.115234" xlink:href="#DejaVuSans-30"/>
      </g>
     </g>
    </g>
   </g>
   <g id="line2d_14">
    <path clip-path="url(#p80d678bed9)" d="M 81.488182 92.28175 
L 102.365691 92.28175 
L 103.273409 92.42209 
L 104.181127 92.28175 
L 114.166023 92.28175 
L 115.073741 92.065429 
L 115.981458 92.28175 
L 148.659299 92.282388 
L 149.567017 84.772755 
L 150.474735 84.435413 
L 151.382453 84.471283 
L 152.29017 84.268128 
L 153.197888 83.83661 
L 154.105606 83.962811 
L 155.921042 84.424191 
L 157.736477 84.766964 
L 158.644195 84.611279 
L 159.551913 84.792561 
L 160.459631 74.517455 
L 161.367348 73.427341 
L 162.275066 72.14589 
L 163.182784 72.192989 
L 164.090502 71.106615 
L 164.99822 52.963656 
L 165.905937 50.53688 
L 166.813655 46.844349 
L 167.721373 45.695206 
L 168.629091 44.754842 
L 169.536809 45.027741 
L 170.444527 44.10593 
L 171.352244 49.000939 
L 172.259962 47.538621 
L 173.16768 46.897087 
L 174.075398 45.528059 
L 175.890833 45.535404 
L 177.706269 33.2967 
L 178.613987 35.378627 
L 179.521705 31.597145 
L 180.429422 33.846955 
L 181.33714 32.010487 
L 182.244858 30.599661 
L 184.060294 30.914341 
L 184.968011 31.400505 
L 186.783447 35.312284 
L 187.691165 35.86954 
L 188.598883 35.820051 
L 189.5066 35.463497 
L 190.414318 43.277948 
L 191.322036 42.313839 
L 193.137472 42.520989 
L 194.045189 50.729034 
L 194.952907 54.485995 
L 195.860625 51.22721 
L 196.768343 54.574976 
L 197.676061 58.863947 
L 198.583778 68.625528 
L 199.491496 70.405561 
L 200.399214 74.240427 
L 201.306932 82.485702 
L 202.21465 88.517908 
L 203.122367 88.561577 
L 204.030085 83.943981 
L 204.937803 86.241112 
L 205.845521 85.964362 
L 206.753239 89.993915 
L 207.660956 93.332257 
L 208.568674 90.945951 
L 209.476392 87.296282 
L 210.38411 87.415828 
L 211.291828 83.525276 
L 212.199545 85.693726 
L 213.107263 89.686831 
L 214.014981 91.880526 
L 214.922699 93.603711 
L 215.830417 91.235179 
L 216.738134 92.490707 
L 217.645852 93.325916 
L 218.55357 92.878417 
L 219.461288 128.628166 
L 220.369006 126.320498 
L 223.092159 123.587083 
L 224.907595 122.097344 
L 225.815312 121.267403 
L 227.630748 119.898762 
L 228.538466 119.899089 
L 229.446184 118.756755 
L 233.984773 115.701732 
L 235.800208 114.651015 
L 242.154233 111.350538 
L 251.231411 107.165251 
L 253.046847 106.376627 
L 253.954564 104.801172 
L 254.862282 104.07244 
L 255.77 103.554924 
L 256.677718 103.364035 
L 257.585436 102.807174 
L 258.493153 104.240581 
L 261.216307 102.253561 
L 263.031742 101.701021 
L 263.93946 99.506235 
L 265.754896 99.166372 
L 266.662614 97.967048 
L 267.570331 98.954673 
L 268.478049 98.305779 
L 269.385767 93.298438 
L 273.924356 93.178296 
L 274.832074 93.809454 
L 275.739792 94.907598 
L 276.647509 94.257586 
L 277.555227 98.601738 
L 278.462945 98.066842 
L 280.278381 97.79124 
L 282.093816 100.669842 
L 283.001534 101.314249 
L 289.355559 99.835086 
L 294.801866 98.799015 
L 301.15589 97.805976 
L 308.417633 96.890488 
L 317.494811 95.99351 
L 327.479706 95.240331 
L 339.280038 94.575651 
L 342.910909 94.408716 
L 343.818627 93.443967 
L 347.449498 93.353474 
L 348.357216 93.484255 
L 349.264934 93.373031 
L 350.172652 93.391771 
L 351.988087 93.251295 
L 355.618958 93.177419 
L 356.526676 92.951474 
L 361.065265 93.085081 
L 363.788419 93.039516 
L 364.696136 94.139624 
L 401.912566 93.124138 
L 429.1441 92.810064 
L 430.051818 92.28175 
L 430.051818 92.28175 
" style="fill:none;stroke:#0000ff;stroke-linecap:square;stroke-width:2;"/>
   </g>
   <g id="line2d_15">
    <path clip-path="url(#p80d678bed9)" d="M 219.461288 138.952544 
L 219.461288 25.44 
" style="fill:none;stroke:#000000;stroke-dasharray:2,3.3;stroke-dashoffset:0;stroke-width:2;"/>
   </g>
   <g id="line2d_16">
    <path clip-path="url(#p80d678bed9)" d="M 81.488182 92.28175 
L 102.365691 92.28175 
L 103.273409 92.42209 
L 104.181127 92.28175 
L 114.166023 92.28175 
L 115.073741 92.065429 
L 115.981458 92.28175 
L 148.659299 92.282388 
L 149.567017 84.772755 
L 150.474735 84.435413 
L 151.382453 84.471283 
L 152.29017 84.268128 
L 153.197888 83.83661 
L 154.105606 83.962811 
L 155.921042 84.424191 
L 157.736477 84.766964 
L 158.644195 84.611279 
L 159.551913 84.792561 
L 160.459631 74.517455 
L 161.367348 73.427341 
L 162.275066 72.14589 
L 163.182784 72.192989 
L 164.090502 71.106615 
L 164.99822 52.963656 
L 165.905937 50.53688 
L 166.813655 46.844349 
L 167.721373 45.695206 
L 168.629091 44.754842 
L 169.536809 45.027741 
L 170.444527 44.10593 
L 171.352244 49.000939 
L 172.259962 47.538621 
L 173.16768 46.897087 
L 174.075398 45.528059 
L 175.890833 45.535404 
L 177.706269 33.2967 
L 178.613987 35.378627 
L 179.521705 31.597145 
L 180.429422 33.846955 
L 181.33714 32.010487 
L 182.244858 30.599661 
L 184.060294 30.914341 
L 184.968011 31.400505 
L 186.783447 35.312284 
L 187.691165 35.86954 
L 188.598883 35.820051 
L 189.5066 35.463497 
L 190.414318 43.277948 
L 191.322036 42.313839 
L 193.137472 42.520989 
L 194.045189 50.729034 
L 194.952907 54.485995 
L 195.860625 51.22721 
L 196.768343 54.574976 
L 197.676061 58.863947 
L 198.583778 68.625528 
L 199.491496 70.405561 
L 200.399214 74.240427 
L 201.306932 82.485702 
L 202.21465 88.517908 
L 203.122367 88.561577 
L 204.030085 83.943981 
L 204.937803 86.241112 
L 205.845521 85.964362 
L 206.753239 89.993915 
L 207.660956 93.332257 
L 208.568674 90.945951 
L 209.476392 87.296282 
L 210.38411 87.415828 
L 211.291828 83.525276 
L 212.199545 85.693726 
L 213.107263 89.686831 
L 214.014981 91.880526 
L 214.922699 93.603711 
L 215.830417 91.235179 
L 216.738134 92.490707 
L 217.645852 93.325916 
L 218.55357 92.878417 
L 219.461288 128.628166 
L 220.369006 126.320498 
L 223.092159 123.587083 
L 224.907595 122.097344 
L 225.815312 121.267403 
L 227.630748 119.898762 
L 228.538466 119.899089 
L 229.446184 118.756755 
L 233.984773 115.701732 
L 235.800208 114.651015 
L 242.154233 111.350538 
L 251.231411 107.165251 
L 253.046847 106.376627 
L 253.954564 104.801172 
L 254.862282 104.07244 
L 255.77 103.554924 
L 256.677718 103.364035 
L 257.585436 102.807174 
L 258.493153 104.240581 
L 261.216307 102.253561 
L 263.031742 101.701021 
L 263.93946 99.506235 
L 265.754896 99.166372 
L 266.662614 97.967048 
L 267.570331 98.954673 
L 268.478049 98.305779 
L 269.385767 93.298438 
L 273.924356 93.178296 
L 274.832074 93.809454 
L 275.739792 94.907598 
L 276.647509 94.257586 
L 277.555227 98.601738 
L 278.462945 98.066842 
L 280.278381 97.79124 
L 282.093816 100.669842 
L 283.001534 101.314249 
L 289.355559 99.835086 
L 294.801866 98.799015 
L 301.15589 97.805976 
L 308.417633 96.890488 
L 317.494811 95.99351 
L 327.479706 95.240331 
L 339.280038 94.575651 
L 342.910909 94.408716 
L 343.818627 93.443967 
L 347.449498 93.353474 
L 348.357216 93.484255 
L 349.264934 93.373031 
L 350.172652 93.391771 
L 351.988087 93.251295 
L 355.618958 93.177419 
L 356.526676 92.951474 
L 361.065265 93.085081 
L 363.788419 93.039516 
L 364.696136 94.139624 
L 401.912566 93.124138 
L 429.1441 92.810064 
L 430.051818 92.28175 
L 430.051818 92.28175 
" style="fill:none;stroke:#008000;stroke-dasharray:7.4,3.2;stroke-dashoffset:0;stroke-width:2;"/>
   </g>
   <g id="line2d_17">
    <path clip-path="url(#p80d678bed9)" d="M 219.461288 138.952544 
L 219.461288 25.44 
" style="fill:none;stroke:#000000;stroke-dasharray:2,3.3;stroke-dashoffset:0;stroke-width:2;"/>
   </g>
   <g id="line2d_18">
    <path clip-path="url(#p80d678bed9)" d="M 81.488182 92.28175 
L 214.014981 92.28175 
L 214.317554 73.024115 
L 214.620126 73.024115 
L 215.527844 81.068633 
L 216.738134 86.438271 
L 217.34328 87.701911 
L 217.645852 88.209455 
L 218.856143 91.288379 
L 219.158715 91.63149 
L 219.461288 109.2635 
L 219.76386 109.357309 
L 220.066433 108.205635 
L 220.671578 103.116465 
L 220.974151 102.243005 
L 221.579296 99.491717 
L 222.184441 97.047992 
L 223.092159 95.589802 
L 223.999877 93.300763 
L 224.605022 92.574509 
L 225.210167 92.349502 
L 226.420458 92.284319 
L 249.718548 92.28175 
L 429.749246 92.28175 
L 429.749246 92.28175 
" style="fill:none;stroke:#ff0000;stroke-dasharray:12.8,3.2,2,3.2;stroke-dashoffset:0;stroke-width:2;"/>
   </g>
   <g id="line2d_19">
    <path clip-path="url(#p80d678bed9)" d="M 219.461288 138.952544 
L 219.461288 25.44 
" style="fill:none;stroke:#000000;stroke-dasharray:2,3.3;stroke-dashoffset:0;stroke-width:2;"/>
   </g>
   <g id="line2d_20">
    <path clip-path="url(#p80d678bed9)" d="M 81.488182 92.28175 
L 102.970836 92.28175 
L 103.273409 92.42209 
L 103.878554 92.42209 
L 104.181127 92.28175 
L 114.771168 92.28175 
L 115.073741 92.065429 
L 115.678886 92.065429 
L 115.981458 92.28175 
L 149.264444 92.282388 
L 149.567017 84.772755 
L 150.172162 84.772755 
L 150.474735 84.435413 
L 151.987598 84.471283 
L 152.29017 84.268128 
L 152.895316 84.268128 
L 153.197888 83.83661 
L 153.803033 83.83661 
L 154.105606 83.962811 
L 154.710751 83.962811 
L 155.013324 84.239915 
L 155.618469 84.239915 
L 155.921042 84.424191 
L 156.526187 84.424191 
L 156.828759 84.639532 
L 157.433905 84.639532 
L 157.736477 84.766964 
L 158.341622 84.766964 
L 158.644195 84.611279 
L 159.24934 84.611279 
L 159.551913 84.792561 
L 160.157058 84.792561 
L 160.459631 74.517455 
L 161.064776 74.517455 
L 161.367348 73.427341 
L 161.972494 73.427341 
L 162.275066 72.14589 
L 163.787929 72.192989 
L 164.090502 71.106615 
L 164.695647 71.106615 
L 164.99822 52.963656 
L 165.603365 52.963656 
L 165.905937 50.53688 
L 166.511083 50.53688 
L 166.813655 46.844349 
L 167.418801 46.844349 
L 167.721373 45.695206 
L 168.326518 45.695206 
L 168.629091 44.754842 
L 169.234236 44.754842 
L 169.536809 45.027741 
L 170.141954 45.027741 
L 170.444527 44.10593 
L 171.049672 44.10593 
L 171.352244 49.000939 
L 171.95739 49.000939 
L 172.259962 47.538621 
L 172.865107 47.538621 
L 173.16768 46.897087 
L 173.772825 46.897087 
L 174.075398 45.528059 
L 176.495979 45.535404 
L 176.798551 39.202507 
L 177.403696 39.202507 
L 177.706269 33.2967 
L 178.311414 33.2967 
L 178.613987 35.378627 
L 179.219132 35.378627 
L 179.521705 31.597145 
L 180.12685 31.597145 
L 180.429422 33.846955 
L 181.034568 33.846955 
L 181.33714 32.010487 
L 181.942285 32.010487 
L 182.244858 30.599661 
L 182.850003 30.599661 
L 183.152576 30.771769 
L 183.757721 30.771769 
L 184.060294 30.914341 
L 184.665439 30.914341 
L 184.968011 31.400505 
L 185.573157 31.400505 
L 185.875729 33.26857 
L 186.480874 33.26857 
L 186.783447 35.312284 
L 187.388592 35.312284 
L 187.691165 35.86954 
L 189.204028 35.820051 
L 189.5066 35.463497 
L 190.111746 35.463497 
L 190.414318 43.277948 
L 191.019463 43.277948 
L 191.322036 42.313839 
L 191.927181 42.313839 
L 192.229754 42.451263 
L 193.742617 42.520989 
L 194.045189 50.729034 
L 194.650335 50.729034 
L 194.952907 54.485995 
L 195.558052 54.485995 
L 195.860625 51.22721 
L 196.46577 51.22721 
L 196.768343 54.574976 
L 197.373488 54.574976 
L 197.676061 58.863947 
L 198.281206 58.863947 
L 198.583778 68.625528 
L 199.188924 68.625528 
L 199.491496 70.405561 
L 200.096641 70.405561 
L 200.399214 74.240427 
L 201.004359 74.240427 
L 201.306932 82.485702 
L 201.912077 82.485702 
L 202.21465 88.517908 
L 203.727513 88.561577 
L 204.030085 83.943981 
L 204.63523 83.943981 
L 204.937803 86.241112 
L 205.542948 86.241112 
L 205.845521 85.964362 
L 206.450666 85.964362 
L 206.753239 89.993915 
L 207.358384 89.993915 
L 207.660956 93.332257 
L 208.266102 93.332257 
L 208.568674 90.945951 
L 209.173819 90.945951 
L 209.476392 87.296282 
L 210.081537 87.296282 
L 210.38411 87.415828 
L 210.989255 87.415828 
L 211.291828 83.525276 
L 211.896973 83.525276 
L 212.199545 85.693726 
L 212.804691 85.693726 
L 213.107263 89.686831 
L 213.712408 89.686831 
L 214.014981 72.489151 
L 214.317554 72.489151 
L 214.620126 75.060733 
L 214.922699 81.419599 
L 215.225271 83.502711 
L 215.527844 84.491566 
L 215.830417 82.998007 
L 216.435562 85.644325 
L 216.738134 87.78252 
L 217.34328 88.484575 
L 217.645852 89.697042 
L 218.250997 91.049658 
L 218.55357 91.29128 
L 219.158715 92.158148 
L 219.461288 133.758225 
L 220.066433 133.792883 
L 220.369006 132.487925 
L 220.974151 132.50486 
L 221.276723 131.357016 
L 221.579296 131.350709 
L 221.881869 130.972539 
L 222.184441 129.100549 
L 222.487014 128.123461 
L 222.789586 127.535017 
L 223.092159 126.521385 
L 223.697304 126.349454 
L 223.999877 125.708383 
L 224.605022 125.760543 
L 224.907595 125.090505 
L 225.51274 125.097816 
L 225.815312 124.148365 
L 226.117885 123.891049 
L 226.420458 123.436441 
L 226.72303 122.414333 
L 227.328176 121.65464 
L 227.630748 120.784908 
L 228.538466 120.669203 
L 229.143611 120.696566 
L 229.446184 119.690476 
L 230.051329 119.784667 
L 230.353902 119.189452 
L 230.959047 119.320614 
L 231.261619 118.834003 
L 231.866765 118.769155 
L 232.169337 118.088947 
L 232.774482 118.049522 
L 233.077055 117.337389 
L 233.6822 117.063053 
L 233.984773 116.350299 
L 234.589918 116.073364 
L 234.892491 115.525365 
L 235.497636 115.372483 
L 235.800208 114.749651 
L 236.405354 114.690952 
L 236.707926 114.18851 
L 237.313071 114.172879 
L 237.615644 113.638022 
L 238.220789 113.634494 
L 238.523362 113.221859 
L 239.128507 113.221074 
L 239.43108 112.708704 
L 240.036225 112.708553 
L 240.338797 112.300601 
L 240.943943 112.300574 
L 241.246515 111.82591 
L 241.85166 111.825904 
L 242.154233 111.35054 
L 242.759378 111.350539 
L 243.061951 110.921272 
L 243.667096 110.921272 
L 243.969669 110.595053 
L 244.574814 110.595053 
L 244.877386 110.090996 
L 245.482532 110.090996 
L 245.785104 109.624979 
L 246.390249 109.624979 
L 246.692822 109.182942 
L 247.297967 109.182942 
L 247.60054 108.754424 
L 248.205685 108.754424 
L 248.508258 108.338888 
L 249.113403 108.338888 
L 249.415975 107.935827 
L 250.021121 107.935827 
L 250.323693 107.544766 
L 250.928838 107.544766 
L 251.231411 107.165251 
L 251.836556 107.165251 
L 252.139129 106.796856 
L 252.744274 106.796856 
L 253.046847 106.376627 
L 253.651992 106.376627 
L 253.954564 104.801172 
L 254.55971 104.801172 
L 254.862282 104.07244 
L 255.467427 104.07244 
L 255.77 103.554924 
L 256.375145 103.554924 
L 256.677718 103.364035 
L 257.282863 103.364035 
L 257.585436 102.807174 
L 258.190581 102.807174 
L 258.493153 104.240581 
L 259.098299 104.240581 
L 259.400871 103.551849 
L 260.006016 103.551849 
L 260.308589 102.897862 
L 260.913734 102.897862 
L 261.216307 102.253561 
L 261.821452 102.253561 
L 262.124025 101.997732 
L 262.72917 101.997732 
L 263.031742 101.701021 
L 263.636888 101.701021 
L 263.93946 99.506235 
L 264.544605 99.506235 
L 264.847178 99.333851 
L 265.452323 99.333851 
L 265.754896 99.166372 
L 266.360041 99.166372 
L 266.662614 97.967048 
L 267.267759 97.967048 
L 267.570331 98.954673 
L 268.175477 98.954673 
L 268.478049 98.305779 
L 269.083194 98.305779 
L 269.385767 93.298438 
L 273.621783 93.200332 
L 274.529501 93.178296 
L 274.832074 93.809454 
L 275.437219 93.809454 
L 275.739792 94.907598 
L 276.344937 94.907598 
L 276.647509 94.257586 
L 277.252655 94.257586 
L 277.555227 98.601738 
L 278.160372 98.601738 
L 278.462945 98.066842 
L 279.06809 98.066842 
L 279.370663 97.927149 
L 279.975808 97.927149 
L 280.278381 97.79124 
L 280.883526 97.79124 
L 281.186098 99.323232 
L 281.791244 99.323232 
L 282.093816 100.669842 
L 282.698961 100.669842 
L 283.001534 101.314249 
L 283.606679 101.314249 
L 283.909252 101.09124 
L 284.514397 101.09124 
L 284.81697 100.864091 
L 285.422115 100.864091 
L 285.724688 100.644475 
L 286.329833 100.644475 
L 286.632405 100.432066 
L 287.237551 100.432066 
L 287.540123 100.226555 
L 288.145268 100.226555 
L 288.447841 100.027654 
L 289.052986 100.027654 
L 289.355559 99.835086 
L 289.960704 99.835086 
L 290.263277 99.648591 
L 290.868422 99.648591 
L 291.170994 99.467922 
L 291.77614 99.467922 
L 292.078712 99.292847 
L 292.683857 99.292847 
L 292.98643 99.123142 
L 293.591575 99.123142 
L 293.894148 98.958598 
L 294.499293 98.958598 
L 294.801866 98.799015 
L 295.407011 98.799015 
L 295.709583 98.644202 
L 296.314729 98.644202 
L 296.617301 98.493979 
L 297.222446 98.493979 
L 297.525019 98.348175 
L 298.130164 98.348175 
L 298.432737 98.206624 
L 299.037882 98.206624 
L 299.340455 98.069172 
L 299.9456 98.069172 
L 300.248172 97.93567 
L 300.853318 97.93567 
L 301.15589 97.805976 
L 301.761035 97.805976 
L 302.063608 97.679955 
L 302.668753 97.679955 
L 302.971326 97.557478 
L 303.576471 97.557478 
L 304.181616 97.438421 
L 304.484189 97.438421 
L 305.089334 97.322667 
L 305.391907 97.322667 
L 305.997052 97.210102 
L 307.207342 97.100619 
L 307.812487 96.994114 
L 309.022778 96.890488 
L 309.627923 96.789647 
L 310.838213 96.6915 
L 311.443359 96.595958 
L 312.653649 96.50294 
L 313.258794 96.412363 
L 314.469085 96.324151 
L 315.07423 96.23823 
L 316.28452 96.154528 
L 316.889665 96.072977 
L 318.099956 95.99351 
L 318.705101 95.916065 
L 319.915391 95.840579 
L 320.520537 95.766994 
L 321.730827 95.695253 
L 322.335972 95.625301 
L 323.546263 95.557085 
L 324.151408 95.490555 
L 325.361698 95.425661 
L 325.966843 95.362357 
L 327.177134 95.300595 
L 327.782279 95.240331 
L 328.992569 95.181524 
L 329.597715 95.124132 
L 331.715723 95.013433 
L 332.926013 94.90793 
L 335.346594 94.80734 
L 336.556884 94.711397 
L 338.977465 94.619849 
L 340.187756 94.532465 
L 342.608336 94.449023 
L 343.516054 94.408716 
L 343.818627 93.443967 
L 350.777797 93.391771 
L 351.080369 93.270821 
L 356.224104 93.177419 
L 356.526676 92.951474 
L 358.039539 92.998524 
L 358.342112 93.151987 
L 363.485846 93.054368 
L 364.393564 93.039516 
L 364.696136 94.139624 
L 368.024435 94.030208 
L 369.234725 93.953557 
L 372.563024 93.847649 
L 374.075887 93.782462 
L 377.101613 93.691888 
L 378.614476 93.635845 
L 382.54792 93.532952 
L 384.665928 93.462915 
L 389.809662 93.357858 
L 392.230243 93.300954 
L 397.979122 93.198895 
L 401.004848 93.138417 
L 408.871736 93.032557 
L 413.107753 92.975066 
L 423.395221 92.867464 
L 429.1441 92.810064 
L 429.749246 92.810064 
L 429.749246 92.810064 
" style="fill:none;stroke:#00bfbf;stroke-dasharray:2,3.3;stroke-dashoffset:0;stroke-width:2;"/>
   </g>
   <g id="line2d_21">
    <path clip-path="url(#p80d678bed9)" d="M 219.461288 138.952544 
L 219.461288 25.44 
" style="fill:none;stroke:#000000;stroke-dasharray:2,3.3;stroke-dashoffset:0;stroke-width:2;"/>
   </g>
   <g id="patch_3">
    <path d="M 64.06 138.952544 
L 64.06 25.44 
" style="fill:none;stroke:#000000;stroke-linecap:square;stroke-linejoin:miter;stroke-width:0.8;"/>
   </g>
   <g id="patch_4">
    <path d="M 447.48 138.952544 
L 447.48 25.44 
" style="fill:none;stroke:#000000;stroke-linecap:square;stroke-linejoin:miter;stroke-width:0.8;"/>
   </g>
   <g id="patch_5">
    <path d="M 64.06 138.952544 
L 447.48 138.952544 
" style="fill:none;stroke:#000000;stroke-linecap:square;stroke-linejoin:miter;stroke-width:0.8;"/>
   </g>
   <g id="patch_6">
    <path d="M 64.06 25.44 
L 447.48 25.44 
" style="fill:none;stroke:#000000;stroke-linecap:square;stroke-linejoin:miter;stroke-width:0.8;"/>
   </g>
   <g id="text_5">
    <!-- Series district -->
    <defs>
     <path d="M 53.515625 70.515625 
L 53.515625 60.890625 
Q 47.90625 63.578125 42.921875 64.890625 
Q 37.9375 66.21875 33.296875 66.21875 
Q 25.25 66.21875 20.875 63.09375 
Q 16.5 59.96875 16.5 54.203125 
Q 16.5 49.359375 19.40625 46.890625 
Q 22.3125 44.4375 30.421875 42.921875 
L 36.375 41.703125 
Q 47.40625 39.59375 52.65625 34.296875 
Q 57.90625 29 57.90625 20.125 
Q 57.90625 9.515625 50.796875 4.046875 
Q 43.703125 -1.421875 29.984375 -1.421875 
Q 24.8125 -1.421875 18.96875 -0.25 
Q 13.140625 0.921875 6.890625 3.21875 
L 6.890625 13.375 
Q 12.890625 10.015625 18.65625 8.296875 
Q 24.421875 6.59375 29.984375 6.59375 
Q 38.421875 6.59375 43.015625 9.90625 
Q 47.609375 13.234375 47.609375 19.390625 
Q 47.609375 24.75 44.3125 27.78125 
Q 41.015625 30.8125 33.5 32.328125 
L 27.484375 33.5 
Q 16.453125 35.6875 11.515625 40.375 
Q 6.59375 45.0625 6.59375 53.421875 
Q 6.59375 63.09375 13.40625 68.65625 
Q 20.21875 74.21875 32.171875 74.21875 
Q 37.3125 74.21875 42.625 73.28125 
Q 47.953125 72.359375 53.515625 70.515625 
z
" id="DejaVuSans-53"/>
     <path d="M 56.203125 29.59375 
L 56.203125 25.203125 
L 14.890625 25.203125 
Q 15.484375 15.921875 20.484375 11.0625 
Q 25.484375 6.203125 34.421875 6.203125 
Q 39.59375 6.203125 44.453125 7.46875 
Q 49.3125 8.734375 54.109375 11.28125 
L 54.109375 2.78125 
Q 49.265625 0.734375 44.1875 -0.34375 
Q 39.109375 -1.421875 33.890625 -1.421875 
Q 20.796875 -1.421875 13.15625 6.1875 
Q 5.515625 13.8125 5.515625 26.8125 
Q 5.515625 40.234375 12.765625 48.109375 
Q 20.015625 56 32.328125 56 
Q 43.359375 56 49.78125 48.890625 
Q 56.203125 41.796875 56.203125 29.59375 
z
M 47.21875 32.234375 
Q 47.125 39.59375 43.09375 43.984375 
Q 39.0625 48.390625 32.421875 48.390625 
Q 24.90625 48.390625 20.390625 44.140625 
Q 15.875 39.890625 15.1875 32.171875 
z
" id="DejaVuSans-65"/>
     <path d="M 41.109375 46.296875 
Q 39.59375 47.171875 37.8125 47.578125 
Q 36.03125 48 33.890625 48 
Q 26.265625 48 22.1875 43.046875 
Q 18.109375 38.09375 18.109375 28.8125 
L 18.109375 0 
L 9.078125 0 
L 9.078125 54.6875 
L 18.109375 54.6875 
L 18.109375 46.1875 
Q 20.953125 51.171875 25.484375 53.578125 
Q 30.03125 56 36.53125 56 
Q 37.453125 56 38.578125 55.875 
Q 39.703125 55.765625 41.0625 55.515625 
z
" id="DejaVuSans-72"/>
     <path d="M 9.421875 54.6875 
L 18.40625 54.6875 
L 18.40625 0 
L 9.421875 0 
z
M 9.421875 75.984375 
L 18.40625 75.984375 
L 18.40625 64.59375 
L 9.421875 64.59375 
z
" id="DejaVuSans-69"/>
     <path d="M 44.28125 53.078125 
L 44.28125 44.578125 
Q 40.484375 46.53125 36.375 47.5 
Q 32.28125 48.484375 27.875 48.484375 
Q 21.1875 48.484375 17.84375 46.4375 
Q 14.5 44.390625 14.5 40.28125 
Q 14.5 37.15625 16.890625 35.375 
Q 19.28125 33.59375 26.515625 31.984375 
L 29.59375 31.296875 
Q 39.15625 29.25 43.1875 25.515625 
Q 47.21875 21.78125 47.21875 15.09375 
Q 47.21875 7.46875 41.1875 3.015625 
Q 35.15625 -1.421875 24.609375 -1.421875 
Q 20.21875 -1.421875 15.453125 -0.5625 
Q 10.6875 0.296875 5.421875 2 
L 5.421875 11.28125 
Q 10.40625 8.6875 15.234375 7.390625 
Q 20.0625 6.109375 24.8125 6.109375 
Q 31.15625 6.109375 34.5625 8.28125 
Q 37.984375 10.453125 37.984375 14.40625 
Q 37.984375 18.0625 35.515625 20.015625 
Q 33.0625 21.96875 24.703125 23.78125 
L 21.578125 24.515625 
Q 13.234375 26.265625 9.515625 29.90625 
Q 5.8125 33.546875 5.8125 39.890625 
Q 5.8125 47.609375 11.28125 51.796875 
Q 16.75 56 26.8125 56 
Q 31.78125 56 36.171875 55.265625 
Q 40.578125 54.546875 44.28125 53.078125 
z
" id="DejaVuSans-73"/>
     <path id="DejaVuSans-20"/>
     <path d="M 45.40625 46.390625 
L 45.40625 75.984375 
L 54.390625 75.984375 
L 54.390625 0 
L 45.40625 0 
L 45.40625 8.203125 
Q 42.578125 3.328125 38.25 0.953125 
Q 33.9375 -1.421875 27.875 -1.421875 
Q 17.96875 -1.421875 11.734375 6.484375 
Q 5.515625 14.40625 5.515625 27.296875 
Q 5.515625 40.1875 11.734375 48.09375 
Q 17.96875 56 27.875 56 
Q 33.9375 56 38.25 53.625 
Q 42.578125 51.265625 45.40625 46.390625 
z
M 14.796875 27.296875 
Q 14.796875 17.390625 18.875 11.75 
Q 22.953125 6.109375 30.078125 6.109375 
Q 37.203125 6.109375 41.296875 11.75 
Q 45.40625 17.390625 45.40625 27.296875 
Q 45.40625 37.203125 41.296875 42.84375 
Q 37.203125 48.484375 30.078125 48.484375 
Q 22.953125 48.484375 18.875 42.84375 
Q 14.796875 37.203125 14.796875 27.296875 
z
" id="DejaVuSans-64"/>
     <path d="M 18.3125 70.21875 
L 18.3125 54.6875 
L 36.8125 54.6875 
L 36.8125 47.703125 
L 18.3125 47.703125 
L 18.3125 18.015625 
Q 18.3125 11.328125 20.140625 9.421875 
Q 21.96875 7.515625 27.59375 7.515625 
L 36.8125 7.515625 
L 36.8125 0 
L 27.59375 0 
Q 17.1875 0 13.234375 3.875 
Q 9.28125 7.765625 9.28125 18.015625 
L 9.28125 47.703125 
L 2.6875 47.703125 
L 2.6875 54.6875 
L 9.28125 54.6875 
L 9.28125 70.21875 
z
" id="DejaVuSans-74"/>
     <path d="M 48.78125 52.59375 
L 48.78125 44.1875 
Q 44.96875 46.296875 41.140625 47.34375 
Q 37.3125 48.390625 33.40625 48.390625 
Q 24.65625 48.390625 19.8125 42.84375 
Q 14.984375 37.3125 14.984375 27.296875 
Q 14.984375 17.28125 19.8125 11.734375 
Q 24.65625 6.203125 33.40625 6.203125 
Q 37.3125 6.203125 41.140625 7.25 
Q 44.96875 8.296875 48.78125 10.40625 
L 48.78125 2.09375 
Q 45.015625 0.34375 40.984375 -0.53125 
Q 36.96875 -1.421875 32.421875 -1.421875 
Q 20.0625 -1.421875 12.78125 6.34375 
Q 5.515625 14.109375 5.515625 27.296875 
Q 5.515625 40.671875 12.859375 48.328125 
Q 20.21875 56 33.015625 56 
Q 37.15625 56 41.109375 55.140625 
Q 45.0625 54.296875 48.78125 52.59375 
z
" id="DejaVuSans-63"/>
    </defs>
    <g transform="translate(214.672813 19.44)scale(0.12 -0.12)">
     <use xlink:href="#DejaVuSans-53"/>
     <use x="63.476562" xlink:href="#DejaVuSans-65"/>
     <use x="125" xlink:href="#DejaVuSans-72"/>
     <use x="166.113281" xlink:href="#DejaVuSans-69"/>
     <use x="193.896484" xlink:href="#DejaVuSans-65"/>
     <use x="255.419922" xlink:href="#DejaVuSans-73"/>
     <use x="307.519531" xlink:href="#DejaVuSans-20"/>
     <use x="339.306641" xlink:href="#DejaVuSans-64"/>
     <use x="402.783203" xlink:href="#DejaVuSans-69"/>
     <use x="430.566406" xlink:href="#DejaVuSans-73"/>
     <use x="482.666016" xlink:href="#DejaVuSans-74"/>
     <use x="521.875" xlink:href="#DejaVuSans-72"/>
     <use x="562.988281" xlink:href="#DejaVuSans-69"/>
     <use x="590.771484" xlink:href="#DejaVuSans-63"/>
     <use x="645.751953" xlink:href="#DejaVuSans-74"/>
    </g>
   </g>
  </g>
  <g id="axes_2">
   <g id="patch_7">
    <path d="M 64.06 276.48 
L 447.48 276.48 
L 447.48 162.967456 
L 64.06 162.967456 
z
" style="fill:#ffffff;"/>
   </g>
   <g id="matplotlib.axis_3">
    <g id="xtick_10">
     <g id="line2d_22">
      <g>
       <use style="stroke:#000000;stroke-width:0.8;" x="70.595568" xlink:href="#m12d231745e" y="276.48"/>
      </g>
     </g>
     <g id="text_6">
      <!-- 31-12-2013 -->
      <defs>
       <path d="M 40.578125 39.3125 
Q 47.65625 37.796875 51.625 33 
Q 55.609375 28.21875 55.609375 21.1875 
Q 55.609375 10.40625 48.1875 4.484375 
Q 40.765625 -1.421875 27.09375 -1.421875 
Q 22.515625 -1.421875 17.65625 -0.515625 
Q 12.796875 0.390625 7.625 2.203125 
L 7.625 11.71875 
Q 11.71875 9.328125 16.59375 8.109375 
Q 21.484375 6.890625 26.8125 6.890625 
Q 36.078125 6.890625 40.9375 10.546875 
Q 45.796875 14.203125 45.796875 21.1875 
Q 45.796875 27.640625 41.28125 31.265625 
Q 36.765625 34.90625 28.71875 34.90625 
L 20.21875 34.90625 
L 20.21875 43.015625 
L 29.109375 43.015625 
Q 36.375 43.015625 40.234375 45.921875 
Q 44.09375 48.828125 44.09375 54.296875 
Q 44.09375 59.90625 40.109375 62.90625 
Q 36.140625 65.921875 28.71875 65.921875 
Q 24.65625 65.921875 20.015625 65.03125 
Q 15.375 64.15625 9.8125 62.3125 
L 9.8125 71.09375 
Q 15.4375 72.65625 20.34375 73.4375 
Q 25.25 74.21875 29.59375 74.21875 
Q 40.828125 74.21875 47.359375 69.109375 
Q 53.90625 64.015625 53.90625 55.328125 
Q 53.90625 49.265625 50.4375 45.09375 
Q 46.96875 40.921875 40.578125 39.3125 
z
" id="DejaVuSans-33"/>
       <path d="M 4.890625 31.390625 
L 31.203125 31.390625 
L 31.203125 23.390625 
L 4.890625 23.390625 
z
" id="DejaVuSans-2d"/>
      </defs>
      <g transform="translate(19.226117 319.118252)rotate(-30)scale(0.1 -0.1)">
       <use xlink:href="#DejaVuSans-33"/>
       <use x="63.623047" xlink:href="#DejaVuSans-31"/>
       <use x="127.246094" xlink:href="#DejaVuSans-2d"/>
       <use x="163.330078" xlink:href="#DejaVuSans-31"/>
       <use x="226.953125" xlink:href="#DejaVuSans-32"/>
       <use x="290.576172" xlink:href="#DejaVuSans-2d"/>
       <use x="326.660156" xlink:href="#DejaVuSans-32"/>
       <use x="390.283203" xlink:href="#DejaVuSans-30"/>
       <use x="453.90625" xlink:href="#DejaVuSans-31"/>
       <use x="517.529297" xlink:href="#DejaVuSans-33"/>
      </g>
     </g>
    </g>
    <g id="xtick_11">
     <g id="line2d_23">
      <g>
       <use style="stroke:#000000;stroke-width:0.8;" x="114.166023" xlink:href="#m12d231745e" y="276.48"/>
      </g>
     </g>
     <g id="text_7">
      <!-- 01-01-2014 -->
      <defs>
       <path d="M 37.796875 64.3125 
L 12.890625 25.390625 
L 37.796875 25.390625 
z
M 35.203125 72.90625 
L 47.609375 72.90625 
L 47.609375 25.390625 
L 58.015625 25.390625 
L 58.015625 17.1875 
L 47.609375 17.1875 
L 47.609375 0 
L 37.796875 0 
L 37.796875 17.1875 
L 4.890625 17.1875 
L 4.890625 26.703125 
z
" id="DejaVuSans-34"/>
      </defs>
      <g transform="translate(62.796571 319.118252)rotate(-30)scale(0.1 -0.1)">
       <use xlink:href="#DejaVuSans-30"/>
       <use x="63.623047" xlink:href="#DejaVuSans-31"/>
       <use x="127.246094" xlink:href="#DejaVuSans-2d"/>
       <use x="163.330078" xlink:href="#DejaVuSans-30"/>
       <use x="226.953125" xlink:href="#DejaVuSans-31"/>
       <use x="290.576172" xlink:href="#DejaVuSans-2d"/>
       <use x="326.660156" xlink:href="#DejaVuSans-32"/>
       <use x="390.283203" xlink:href="#DejaVuSans-30"/>
       <use x="453.90625" xlink:href="#DejaVuSans-31"/>
       <use x="517.529297" xlink:href="#DejaVuSans-34"/>
      </g>
     </g>
    </g>
    <g id="xtick_12">
     <g id="line2d_24">
      <g>
       <use style="stroke:#000000;stroke-width:0.8;" x="157.736477" xlink:href="#m12d231745e" y="276.48"/>
      </g>
     </g>
     <g id="text_8">
      <!-- 01-01-2014 -->
      <g transform="translate(106.367026 319.118252)rotate(-30)scale(0.1 -0.1)">
       <use xlink:href="#DejaVuSans-30"/>
       <use x="63.623047" xlink:href="#DejaVuSans-31"/>
       <use x="127.246094" xlink:href="#DejaVuSans-2d"/>
       <use x="163.330078" xlink:href="#DejaVuSans-30"/>
       <use x="226.953125" xlink:href="#DejaVuSans-31"/>
       <use x="290.576172" xlink:href="#DejaVuSans-2d"/>
       <use x="326.660156" xlink:href="#DejaVuSans-32"/>
       <use x="390.283203" xlink:href="#DejaVuSans-30"/>
       <use x="453.90625" xlink:href="#DejaVuSans-31"/>
       <use x="517.529297" xlink:href="#DejaVuSans-34"/>
      </g>
     </g>
    </g>
    <g id="xtick_13">
     <g id="line2d_25">
      <g>
       <use style="stroke:#000000;stroke-width:0.8;" x="201.306932" xlink:href="#m12d231745e" y="276.48"/>
      </g>
     </g>
     <g id="text_9">
      <!-- 02-01-2014 -->
      <g transform="translate(149.93748 319.118252)rotate(-30)scale(0.1 -0.1)">
       <use xlink:href="#DejaVuSans-30"/>
       <use x="63.623047" xlink:href="#DejaVuSans-32"/>
       <use x="127.246094" xlink:href="#DejaVuSans-2d"/>
       <use x="163.330078" xlink:href="#DejaVuSans-30"/>
       <use x="226.953125" xlink:href="#DejaVuSans-31"/>
       <use x="290.576172" xlink:href="#DejaVuSans-2d"/>
       <use x="326.660156" xlink:href="#DejaVuSans-32"/>
       <use x="390.283203" xlink:href="#DejaVuSans-30"/>
       <use x="453.90625" xlink:href="#DejaVuSans-31"/>
       <use x="517.529297" xlink:href="#DejaVuSans-34"/>
      </g>
     </g>
    </g>
    <g id="xtick_14">
     <g id="line2d_26">
      <g>
       <use style="stroke:#000000;stroke-width:0.8;" x="244.877386" xlink:href="#m12d231745e" y="276.48"/>
      </g>
     </g>
     <g id="text_10">
      <!-- 02-01-2014 -->
      <g transform="translate(193.507935 319.118252)rotate(-30)scale(0.1 -0.1)">
       <use xlink:href="#DejaVuSans-30"/>
       <use x="63.623047" xlink:href="#DejaVuSans-32"/>
       <use x="127.246094" xlink:href="#DejaVuSans-2d"/>
       <use x="163.330078" xlink:href="#DejaVuSans-30"/>
       <use x="226.953125" xlink:href="#DejaVuSans-31"/>
       <use x="290.576172" xlink:href="#DejaVuSans-2d"/>
       <use x="326.660156" xlink:href="#DejaVuSans-32"/>
       <use x="390.283203" xlink:href="#DejaVuSans-30"/>
       <use x="453.90625" xlink:href="#DejaVuSans-31"/>
       <use x="517.529297" xlink:href="#DejaVuSans-34"/>
      </g>
     </g>
    </g>
    <g id="xtick_15">
     <g id="line2d_27">
      <g>
       <use style="stroke:#000000;stroke-width:0.8;" x="288.447841" xlink:href="#m12d231745e" y="276.48"/>
      </g>
     </g>
     <g id="text_11">
      <!-- 03-01-2014 -->
      <g transform="translate(237.07839 319.118252)rotate(-30)scale(0.1 -0.1)">
       <use xlink:href="#DejaVuSans-30"/>
       <use x="63.623047" xlink:href="#DejaVuSans-33"/>
       <use x="127.246094" xlink:href="#DejaVuSans-2d"/>
       <use x="163.330078" xlink:href="#DejaVuSans-30"/>
       <use x="226.953125" xlink:href="#DejaVuSans-31"/>
       <use x="290.576172" xlink:href="#DejaVuSans-2d"/>
       <use x="326.660156" xlink:href="#DejaVuSans-32"/>
       <use x="390.283203" xlink:href="#DejaVuSans-30"/>
       <use x="453.90625" xlink:href="#DejaVuSans-31"/>
       <use x="517.529297" xlink:href="#DejaVuSans-34"/>
      </g>
     </g>
    </g>
    <g id="xtick_16">
     <g id="line2d_28">
      <g>
       <use style="stroke:#000000;stroke-width:0.8;" x="332.018295" xlink:href="#m12d231745e" y="276.48"/>
      </g>
     </g>
     <g id="text_12">
      <!-- 03-01-2014 -->
      <g transform="translate(280.648844 319.118252)rotate(-30)scale(0.1 -0.1)">
       <use xlink:href="#DejaVuSans-30"/>
       <use x="63.623047" xlink:href="#DejaVuSans-33"/>
       <use x="127.246094" xlink:href="#DejaVuSans-2d"/>
       <use x="163.330078" xlink:href="#DejaVuSans-30"/>
       <use x="226.953125" xlink:href="#DejaVuSans-31"/>
       <use x="290.576172" xlink:href="#DejaVuSans-2d"/>
       <use x="326.660156" xlink:href="#DejaVuSans-32"/>
       <use x="390.283203" xlink:href="#DejaVuSans-30"/>
       <use x="453.90625" xlink:href="#DejaVuSans-31"/>
       <use x="517.529297" xlink:href="#DejaVuSans-34"/>
      </g>
     </g>
    </g>
    <g id="xtick_17">
     <g id="line2d_29">
      <g>
       <use style="stroke:#000000;stroke-width:0.8;" x="375.58875" xlink:href="#m12d231745e" y="276.48"/>
      </g>
     </g>
     <g id="text_13">
      <!-- 04-01-2014 -->
      <g transform="translate(324.219299 319.118252)rotate(-30)scale(0.1 -0.1)">
       <use xlink:href="#DejaVuSans-30"/>
       <use x="63.623047" xlink:href="#DejaVuSans-34"/>
       <use x="127.246094" xlink:href="#DejaVuSans-2d"/>
       <use x="163.330078" xlink:href="#DejaVuSans-30"/>
       <use x="226.953125" xlink:href="#DejaVuSans-31"/>
       <use x="290.576172" xlink:href="#DejaVuSans-2d"/>
       <use x="326.660156" xlink:href="#DejaVuSans-32"/>
       <use x="390.283203" xlink:href="#DejaVuSans-30"/>
       <use x="453.90625" xlink:href="#DejaVuSans-31"/>
       <use x="517.529297" xlink:href="#DejaVuSans-34"/>
      </g>
     </g>
    </g>
    <g id="xtick_18">
     <g id="line2d_30">
      <g>
       <use style="stroke:#000000;stroke-width:0.8;" x="419.159205" xlink:href="#m12d231745e" y="276.48"/>
      </g>
     </g>
     <g id="text_14">
      <!-- 04-01-2014 -->
      <g transform="translate(367.789753 319.118252)rotate(-30)scale(0.1 -0.1)">
       <use xlink:href="#DejaVuSans-30"/>
       <use x="63.623047" xlink:href="#DejaVuSans-34"/>
       <use x="127.246094" xlink:href="#DejaVuSans-2d"/>
       <use x="163.330078" xlink:href="#DejaVuSans-30"/>
       <use x="226.953125" xlink:href="#DejaVuSans-31"/>
       <use x="290.576172" xlink:href="#DejaVuSans-2d"/>
       <use x="326.660156" xlink:href="#DejaVuSans-32"/>
       <use x="390.283203" xlink:href="#DejaVuSans-30"/>
       <use x="453.90625" xlink:href="#DejaVuSans-31"/>
       <use x="517.529297" xlink:href="#DejaVuSans-34"/>
      </g>
     </g>
    </g>
   </g>
   <g id="matplotlib.axis_4">
    <g id="ytick_5">
     <g id="line2d_31">
      <g>
       <use style="stroke:#000000;stroke-width:0.8;" x="64.06" xlink:href="#mbd59658236" y="276.950182"/>
      </g>
     </g>
     <g id="text_15">
      <!-- −200000 -->
      <g transform="translate(10.505313 280.749401)scale(0.1 -0.1)">
       <use xlink:href="#DejaVuSans-2212"/>
       <use x="83.789062" xlink:href="#DejaVuSans-32"/>
       <use x="147.412109" xlink:href="#DejaVuSans-30"/>
       <use x="211.035156" xlink:href="#DejaVuSans-30"/>
       <use x="274.658203" xlink:href="#DejaVuSans-30"/>
       <use x="338.28125" xlink:href="#DejaVuSans-30"/>
       <use x="401.904297" xlink:href="#DejaVuSans-30"/>
      </g>
     </g>
    </g>
    <g id="ytick_6">
     <g id="line2d_32">
      <g>
       <use style="stroke:#000000;stroke-width:0.8;" x="64.06" xlink:href="#mbd59658236" y="253.362408"/>
      </g>
     </g>
     <g id="text_16">
      <!-- −100000 -->
      <g transform="translate(10.505313 257.161627)scale(0.1 -0.1)">
       <use xlink:href="#DejaVuSans-2212"/>
       <use x="83.789062" xlink:href="#DejaVuSans-31"/>
       <use x="147.412109" xlink:href="#DejaVuSans-30"/>
       <use x="211.035156" xlink:href="#DejaVuSans-30"/>
       <use x="274.658203" xlink:href="#DejaVuSans-30"/>
       <use x="338.28125" xlink:href="#DejaVuSans-30"/>
       <use x="401.904297" xlink:href="#DejaVuSans-30"/>
      </g>
     </g>
    </g>
    <g id="ytick_7">
     <g id="line2d_33">
      <g>
       <use style="stroke:#000000;stroke-width:0.8;" x="64.06" xlink:href="#mbd59658236" y="229.774634"/>
      </g>
     </g>
     <g id="text_17">
      <!-- 0 -->
      <g transform="translate(50.6975 233.573852)scale(0.1 -0.1)">
       <use xlink:href="#DejaVuSans-30"/>
      </g>
     </g>
    </g>
    <g id="ytick_8">
     <g id="line2d_34">
      <g>
       <use style="stroke:#000000;stroke-width:0.8;" x="64.06" xlink:href="#mbd59658236" y="206.186859"/>
      </g>
     </g>
     <g id="text_18">
      <!-- 100000 -->
      <g transform="translate(18.885 209.986078)scale(0.1 -0.1)">
       <use xlink:href="#DejaVuSans-31"/>
       <use x="63.623047" xlink:href="#DejaVuSans-30"/>
       <use x="127.246094" xlink:href="#DejaVuSans-30"/>
       <use x="190.869141" xlink:href="#DejaVuSans-30"/>
       <use x="254.492188" xlink:href="#DejaVuSans-30"/>
       <use x="318.115234" xlink:href="#DejaVuSans-30"/>
      </g>
     </g>
    </g>
    <g id="ytick_9">
     <g id="line2d_35">
      <g>
       <use style="stroke:#000000;stroke-width:0.8;" x="64.06" xlink:href="#mbd59658236" y="182.599085"/>
      </g>
     </g>
     <g id="text_19">
      <!-- 200000 -->
      <g transform="translate(18.885 186.398304)scale(0.1 -0.1)">
       <use xlink:href="#DejaVuSans-32"/>
       <use x="63.623047" xlink:href="#DejaVuSans-30"/>
       <use x="127.246094" xlink:href="#DejaVuSans-30"/>
       <use x="190.869141" xlink:href="#DejaVuSans-30"/>
       <use x="254.492188" xlink:href="#DejaVuSans-30"/>
       <use x="318.115234" xlink:href="#DejaVuSans-30"/>
      </g>
     </g>
    </g>
   </g>
   <g id="line2d_36">
    <path clip-path="url(#pd5032f6963)" d="M 81.488182 229.774634 
L 102.365691 229.774634 
L 103.273409 229.914895 
L 104.181127 229.774634 
L 114.166023 229.774634 
L 115.073741 229.558434 
L 115.981458 229.774634 
L 148.659299 229.775272 
L 149.567017 222.269847 
L 150.474735 221.932695 
L 151.382453 221.968545 
L 152.29017 221.765503 
L 153.197888 221.334227 
L 154.105606 221.460357 
L 155.921042 221.921478 
L 157.736477 222.26406 
L 158.644195 222.108462 
L 159.551913 222.289643 
L 160.459631 212.020296 
L 161.367348 210.930793 
L 162.275066 209.65006 
L 163.182784 209.697132 
L 164.090502 208.611367 
L 164.99822 190.478577 
L 165.905937 188.053161 
L 166.813655 184.3627 
L 167.721373 183.214201 
L 168.629091 182.274364 
L 169.536809 182.54711 
L 170.444527 181.625815 
L 171.352244 186.518081 
L 172.259962 185.056582 
L 173.16768 184.415409 
L 174.075398 183.047148 
L 175.890833 183.054489 
L 177.706269 170.822644 
L 178.613987 172.903404 
L 179.521705 169.124042 
L 180.429422 171.372591 
L 181.33714 169.537152 
L 182.244858 168.127117 
L 184.060294 168.44162 
L 184.968011 168.927512 
L 186.783447 172.837098 
L 187.691165 173.394043 
L 188.598883 173.344581 
L 189.5066 172.988227 
L 190.414318 180.798297 
L 191.322036 179.83473 
L 193.137472 180.041763 
L 194.045189 188.245208 
L 194.952907 192.000063 
L 195.860625 188.743104 
L 196.768343 192.088994 
L 197.676061 196.375561 
L 198.583778 206.131671 
L 199.491496 207.910706 
L 200.399214 211.743423 
L 201.306932 219.984077 
L 202.21465 226.012902 
L 203.122367 226.056546 
L 204.030085 221.441539 
L 204.937803 223.737382 
L 205.845521 223.460787 
L 206.753239 227.488081 
L 207.660956 230.824552 
L 208.568674 228.439584 
L 209.476392 224.79196 
L 210.38411 224.911439 
L 211.291828 221.023067 
L 212.199545 223.190302 
L 213.107263 227.181169 
L 214.014981 229.373635 
L 214.922699 231.095854 
L 215.830417 228.728649 
L 216.738134 229.983474 
L 217.645852 230.818215 
L 218.55357 230.370966 
L 219.461288 266.100678 
L 220.369006 263.794304 
L 223.092159 261.06242 
L 224.907595 259.573517 
L 225.815312 258.744041 
L 227.630748 257.376166 
L 228.538466 257.376494 
L 229.446184 256.2348 
L 233.984773 253.181489 
L 235.800208 252.131361 
L 242.154233 248.832734 
L 251.231411 244.649793 
L 253.046847 243.861611 
L 253.954564 242.287039 
L 254.862282 241.558716 
L 255.77 241.04149 
L 256.677718 240.850708 
L 257.585436 240.294158 
L 258.493153 241.726762 
L 261.216307 239.740856 
L 263.031742 239.188625 
L 263.93946 236.99507 
L 265.754896 236.655397 
L 266.662614 235.456745 
L 267.570331 236.443817 
L 268.478049 235.795287 
L 269.385767 230.790752 
L 273.924356 230.670678 
L 274.832074 231.301482 
L 275.739792 232.39901 
L 276.647509 231.749363 
L 277.555227 236.091079 
L 278.462945 235.556484 
L 280.278381 235.281036 
L 282.093816 238.158025 
L 283.001534 238.80207 
L 289.355559 237.323736 
L 294.801866 236.288246 
L 301.15589 235.295764 
L 308.417633 234.380789 
L 317.494811 233.484314 
L 327.479706 232.731557 
L 339.280038 232.067249 
L 342.910909 231.900408 
L 343.818627 230.9362 
L 347.449498 230.845757 
L 348.357216 230.976465 
L 349.264934 230.865304 
L 350.172652 230.884033 
L 351.988087 230.743635 
L 355.618958 230.6698 
L 356.526676 230.443982 
L 361.065265 230.577515 
L 363.788419 230.531975 
L 364.696136 231.631467 
L 401.912566 230.61655 
L 429.1441 230.302652 
L 430.051818 229.774634 
L 430.051818 229.774634 
" style="fill:none;stroke:#0000ff;stroke-linecap:square;stroke-width:2;"/>
   </g>
   <g id="line2d_37">
    <path clip-path="url(#pd5032f6963)" d="M 219.461288 276.48 
L 219.461288 162.967456 
" style="fill:none;stroke:#000000;stroke-dasharray:2,3.3;stroke-dashoffset:0;stroke-width:2;"/>
   </g>
   <g id="line2d_38">
    <path clip-path="url(#pd5032f6963)" d="M 81.488182 229.774634 
L 102.365691 229.774634 
L 103.273409 229.914895 
L 104.181127 229.774634 
L 114.166023 229.774634 
L 115.073741 229.558434 
L 115.981458 229.774634 
L 148.659299 229.775272 
L 149.567017 222.269847 
L 150.474735 221.932695 
L 151.382453 221.968545 
L 152.29017 221.765503 
L 153.197888 221.334227 
L 154.105606 221.460357 
L 155.921042 221.921478 
L 157.736477 222.26406 
L 158.644195 222.108462 
L 159.551913 222.289643 
L 160.459631 212.020296 
L 161.367348 210.930793 
L 162.275066 209.65006 
L 163.182784 209.697132 
L 164.090502 208.611367 
L 164.99822 190.478577 
L 165.905937 188.053161 
L 166.813655 184.3627 
L 167.721373 183.214201 
L 168.629091 182.274364 
L 169.536809 182.54711 
L 170.444527 181.625815 
L 171.352244 186.518081 
L 172.259962 185.056582 
L 173.16768 184.415409 
L 174.075398 183.047148 
L 175.890833 183.054489 
L 177.706269 170.822644 
L 178.613987 172.903404 
L 179.521705 169.124042 
L 180.429422 171.372591 
L 181.33714 169.537152 
L 182.244858 168.127117 
L 184.060294 168.44162 
L 184.968011 168.927512 
L 186.783447 172.837098 
L 187.691165 173.394043 
L 188.598883 173.344581 
L 189.5066 172.988227 
L 190.414318 180.798297 
L 191.322036 179.83473 
L 193.137472 180.041763 
L 194.045189 188.245208 
L 194.952907 192.000063 
L 195.860625 188.743104 
L 196.768343 192.088994 
L 197.676061 196.375561 
L 198.583778 206.131671 
L 199.491496 207.910706 
L 200.399214 211.743423 
L 201.306932 219.984077 
L 202.21465 226.012902 
L 203.122367 226.056546 
L 204.030085 221.441539 
L 204.937803 223.737382 
L 205.845521 223.460787 
L 206.753239 227.488081 
L 207.660956 230.824552 
L 208.568674 228.439584 
L 209.476392 224.79196 
L 210.38411 224.911439 
L 211.291828 221.023067 
L 212.199545 223.190302 
L 213.107263 227.181169 
L 214.014981 229.373635 
L 214.922699 231.095854 
L 215.830417 228.728649 
L 216.738134 229.983474 
L 217.645852 230.818215 
L 218.55357 230.370966 
L 219.461288 266.100678 
L 220.369006 263.794304 
L 223.092159 261.06242 
L 224.907595 259.573517 
L 225.815312 258.744041 
L 227.630748 257.376166 
L 228.538466 257.376494 
L 229.446184 256.2348 
L 233.984773 253.181489 
L 235.800208 252.131361 
L 242.154233 248.832734 
L 251.231411 244.649793 
L 253.046847 243.861611 
L 253.954564 242.287039 
L 254.862282 241.558716 
L 255.77 241.04149 
L 256.677718 240.850708 
L 257.585436 240.294158 
L 258.493153 241.726762 
L 261.216307 239.740856 
L 263.031742 239.188625 
L 263.93946 236.99507 
L 265.754896 236.655397 
L 266.662614 235.456745 
L 267.570331 236.443817 
L 268.478049 235.795287 
L 269.385767 230.790752 
L 273.924356 230.670678 
L 274.832074 231.301482 
L 275.739792 232.39901 
L 276.647509 231.749363 
L 277.555227 236.091079 
L 278.462945 235.556484 
L 280.278381 235.281036 
L 282.093816 238.158025 
L 283.001534 238.80207 
L 289.355559 237.323736 
L 294.801866 236.288246 
L 301.15589 235.295764 
L 308.417633 234.380789 
L 317.494811 233.484314 
L 327.479706 232.731557 
L 339.280038 232.067249 
L 342.910909 231.900408 
L 343.818627 230.9362 
L 347.449498 230.845757 
L 348.357216 230.976465 
L 349.264934 230.865304 
L 350.172652 230.884033 
L 351.988087 230.743635 
L 355.618958 230.6698 
L 356.526676 230.443982 
L 361.065265 230.577515 
L 363.788419 230.531975 
L 364.696136 231.631467 
L 401.912566 230.61655 
L 429.1441 230.302652 
L 430.051818 229.774634 
L 430.051818 229.774634 
" style="fill:none;stroke:#008000;stroke-dasharray:7.4,3.2;stroke-dashoffset:0;stroke-width:2;"/>
   </g>
   <g id="line2d_39">
    <path clip-path="url(#pd5032f6963)" d="M 219.461288 276.48 
L 219.461288 162.967456 
" style="fill:none;stroke:#000000;stroke-dasharray:2,3.3;stroke-dashoffset:0;stroke-width:2;"/>
   </g>
   <g id="line2d_40">
    <path clip-path="url(#pd5032f6963)" d="M 81.488182 229.774634 
L 216.435562 229.774634 
L 216.738134 212.164582 
L 217.040707 212.164582 
L 217.34328 213.251024 
L 217.645852 215.705216 
L 218.250997 225.136055 
L 218.55357 227.552617 
L 218.856143 228.678617 
L 219.158715 229.17843 
L 219.461288 246.820281 
L 219.76386 246.905243 
L 220.066433 245.966932 
L 220.369006 243.580736 
L 220.974151 234.307266 
L 221.276723 231.838609 
L 221.579296 230.695175 
L 221.881869 230.170857 
L 222.487014 229.842975 
L 223.697304 229.776433 
L 254.862282 229.774634 
L 429.749246 229.774634 
L 429.749246 229.774634 
" style="fill:none;stroke:#ff0000;stroke-dasharray:12.8,3.2,2,3.2;stroke-dashoffset:0;stroke-width:2;"/>
   </g>
   <g id="line2d_41">
    <path clip-path="url(#pd5032f6963)" d="M 219.461288 276.48 
L 219.461288 162.967456 
" style="fill:none;stroke:#000000;stroke-dasharray:2,3.3;stroke-dashoffset:0;stroke-width:2;"/>
   </g>
   <g id="line2d_42">
    <path clip-path="url(#pd5032f6963)" d="M 81.488182 229.774634 
L 102.970836 229.774634 
L 103.273409 229.914895 
L 103.878554 229.914895 
L 104.181127 229.774634 
L 114.771168 229.774634 
L 115.073741 229.558434 
L 115.678886 229.558434 
L 115.981458 229.774634 
L 149.264444 229.775272 
L 149.567017 222.269847 
L 150.172162 222.269847 
L 150.474735 221.932695 
L 151.987598 221.968545 
L 152.29017 221.765503 
L 152.895316 221.765503 
L 153.197888 221.334227 
L 153.803033 221.334227 
L 154.105606 221.460357 
L 154.710751 221.460357 
L 155.013324 221.737307 
L 155.618469 221.737307 
L 155.921042 221.921478 
L 156.526187 221.921478 
L 156.828759 222.1367 
L 157.433905 222.1367 
L 157.736477 222.26406 
L 158.341622 222.26406 
L 158.644195 222.108462 
L 159.24934 222.108462 
L 159.551913 222.289643 
L 160.157058 222.289643 
L 160.459631 212.020296 
L 161.064776 212.020296 
L 161.367348 210.930793 
L 161.972494 210.930793 
L 162.275066 209.65006 
L 163.787929 209.697132 
L 164.090502 208.611367 
L 164.695647 208.611367 
L 164.99822 190.478577 
L 165.603365 190.478577 
L 165.905937 188.053161 
L 166.511083 188.053161 
L 166.813655 184.3627 
L 167.418801 184.3627 
L 167.721373 183.214201 
L 168.326518 183.214201 
L 168.629091 182.274364 
L 169.234236 182.274364 
L 169.536809 182.54711 
L 170.141954 182.54711 
L 170.444527 181.625815 
L 171.049672 181.625815 
L 171.352244 186.518081 
L 171.95739 186.518081 
L 172.259962 185.056582 
L 172.865107 185.056582 
L 173.16768 184.415409 
L 173.772825 184.415409 
L 174.075398 183.047148 
L 176.495979 183.054489 
L 176.798551 176.725141 
L 177.403696 176.725141 
L 177.706269 170.822644 
L 178.311414 170.822644 
L 178.613987 172.903404 
L 179.219132 172.903404 
L 179.521705 169.124042 
L 180.12685 169.124042 
L 180.429422 171.372591 
L 181.034568 171.372591 
L 181.33714 169.537152 
L 181.942285 169.537152 
L 182.244858 168.127117 
L 182.850003 168.127117 
L 183.152576 168.299129 
L 183.757721 168.299129 
L 184.060294 168.44162 
L 184.665439 168.44162 
L 184.968011 168.927512 
L 185.573157 168.927512 
L 185.875729 170.79453 
L 186.480874 170.79453 
L 186.783447 172.837098 
L 187.388592 172.837098 
L 187.691165 173.394043 
L 189.204028 173.344581 
L 189.5066 172.988227 
L 190.111746 172.988227 
L 190.414318 180.798297 
L 191.019463 180.798297 
L 191.322036 179.83473 
L 191.927181 179.83473 
L 192.229754 179.972076 
L 193.742617 180.041763 
L 194.045189 188.245208 
L 194.650335 188.245208 
L 194.952907 192.000063 
L 195.558052 192.000063 
L 195.860625 188.743104 
L 196.46577 188.743104 
L 196.768343 192.088994 
L 197.373488 192.088994 
L 197.676061 196.375561 
L 198.281206 196.375561 
L 198.583778 206.131671 
L 199.188924 206.131671 
L 199.491496 207.910706 
L 200.096641 207.910706 
L 200.399214 211.743423 
L 201.004359 211.743423 
L 201.306932 219.984077 
L 201.912077 219.984077 
L 202.21465 226.012902 
L 203.727513 226.056546 
L 204.030085 221.441539 
L 204.63523 221.441539 
L 204.937803 223.737382 
L 205.542948 223.737382 
L 205.845521 223.460787 
L 206.450666 223.460787 
L 206.753239 227.488081 
L 207.358384 227.488081 
L 207.660956 230.824552 
L 208.266102 230.824552 
L 208.568674 228.439584 
L 209.173819 228.439584 
L 209.476392 224.79196 
L 210.081537 224.79196 
L 210.38411 224.911439 
L 210.989255 224.911439 
L 211.291828 221.023067 
L 211.896973 221.023067 
L 212.199545 223.190302 
L 212.804691 223.190302 
L 213.107263 227.181169 
L 213.712408 227.181169 
L 214.014981 229.373635 
L 214.620126 229.373635 
L 214.922699 231.095854 
L 215.527844 231.095854 
L 215.830417 228.728649 
L 216.132989 228.728649 
L 216.435562 210.916388 
L 216.738134 212.443036 
L 217.34328 218.533265 
L 217.948425 224.717305 
L 218.250997 227.367112 
L 218.856143 229.392126 
L 219.158715 229.795438 
L 219.461288 271.319042 
L 220.066433 271.305673 
L 220.369006 269.99446 
L 220.974151 269.979453 
L 221.276723 268.271023 
L 223.092159 262.330419 
L 223.697304 261.7828 
L 223.999877 261.00408 
L 224.605022 260.887304 
L 224.907595 260.237874 
L 225.51274 260.217947 
L 225.815312 259.342667 
L 226.420458 259.336484 
L 226.72303 259.082742 
L 227.328176 259.093693 
L 227.630748 258.281128 
L 228.235893 258.276675 
L 228.538466 258.710078 
L 229.143611 258.70093 
L 229.446184 257.310921 
L 230.051329 257.088764 
L 230.353902 256.371459 
L 230.959047 256.056644 
L 231.261619 255.362463 
L 231.866765 255.190598 
L 232.169337 254.493345 
L 232.774482 254.431588 
L 233.077055 253.780437 
L 233.6822 253.7597 
L 233.984773 253.193043 
L 234.589918 253.186453 
L 234.892491 252.718033 
L 235.497636 252.715701 
L 235.800208 252.132239 
L 236.405354 252.131638 
L 236.707926 251.644167 
L 237.313071 251.64406 
L 237.615644 251.11345 
L 238.220789 251.113433 
L 238.523362 250.701833 
L 239.128507 250.70183 
L 239.43108 250.189915 
L 240.036225 250.189915 
L 240.338797 249.782224 
L 240.943943 249.782224 
L 241.246515 249.307831 
L 241.85166 249.307831 
L 242.154233 248.832734 
L 242.759378 248.832734 
L 243.061951 248.403708 
L 243.667096 248.403708 
L 243.969669 248.077672 
L 244.574814 248.077672 
L 244.877386 247.573898 
L 245.482532 247.573898 
L 245.785104 247.108142 
L 246.390249 247.108142 
L 246.692822 246.666353 
L 247.297967 246.666353 
L 247.60054 246.238075 
L 248.205685 246.238075 
L 248.508258 245.822772 
L 249.113403 245.822772 
L 249.415975 245.419938 
L 250.021121 245.419938 
L 250.323693 245.029095 
L 250.928838 245.029095 
L 251.231411 244.649793 
L 251.836556 244.649793 
L 252.139129 244.281605 
L 252.744274 244.281605 
L 253.046847 243.861611 
L 253.651992 243.861611 
L 253.954564 242.287039 
L 254.55971 242.287039 
L 254.862282 241.558716 
L 255.467427 241.558716 
L 255.77 241.04149 
L 256.375145 241.04149 
L 256.677718 240.850708 
L 257.282863 240.850708 
L 257.585436 240.294158 
L 258.190581 240.294158 
L 258.493153 241.726762 
L 259.098299 241.726762 
L 259.400871 241.038416 
L 260.006016 241.038416 
L 260.308589 240.384796 
L 260.913734 240.384796 
L 261.216307 239.740856 
L 261.821452 239.740856 
L 262.124025 239.48517 
L 262.72917 239.48517 
L 263.031742 239.188625 
L 263.636888 239.188625 
L 263.93946 236.99507 
L 264.544605 236.99507 
L 264.847178 236.822782 
L 265.452323 236.822782 
L 265.754896 236.655397 
L 266.360041 236.655397 
L 266.662614 235.456745 
L 267.267759 235.456745 
L 267.570331 236.443817 
L 268.175477 236.443817 
L 268.478049 235.795287 
L 269.083194 235.795287 
L 269.385767 230.790752 
L 273.621783 230.692701 
L 274.529501 230.670678 
L 274.832074 231.301482 
L 275.437219 231.301482 
L 275.739792 232.39901 
L 276.344937 232.39901 
L 276.647509 231.749363 
L 277.252655 231.749363 
L 277.555227 236.091079 
L 278.160372 236.091079 
L 278.462945 235.556484 
L 279.06809 235.556484 
L 279.370663 235.416869 
L 279.975808 235.416869 
L 280.278381 235.281036 
L 280.883526 235.281036 
L 281.186098 236.81217 
L 281.791244 236.81217 
L 282.093816 238.158025 
L 282.698961 238.158025 
L 283.001534 238.80207 
L 283.606679 238.80207 
L 283.909252 238.579186 
L 284.514397 238.579186 
L 284.81697 238.352165 
L 285.422115 238.352165 
L 285.724688 238.132672 
L 286.329833 238.132672 
L 286.632405 237.920381 
L 287.237551 237.920381 
L 287.540123 237.714986 
L 288.145268 237.714986 
L 288.447841 237.516196 
L 289.052986 237.516196 
L 289.355559 237.323736 
L 289.960704 237.323736 
L 290.263277 237.137346 
L 290.868422 237.137346 
L 291.170994 236.956779 
L 291.77614 236.956779 
L 292.078712 236.781801 
L 292.683857 236.781801 
L 292.98643 236.612192 
L 293.591575 236.612192 
L 293.894148 236.44774 
L 294.499293 236.44774 
L 294.801866 236.288246 
L 295.407011 236.288246 
L 295.709583 236.13352 
L 296.314729 236.13352 
L 296.617301 235.983382 
L 297.222446 235.983382 
L 297.525019 235.837658 
L 298.130164 235.837658 
L 298.432737 235.696187 
L 299.037882 235.696187 
L 299.340455 235.558812 
L 299.9456 235.558812 
L 300.248172 235.425385 
L 300.853318 235.425385 
L 301.15589 235.295764 
L 301.761035 235.295764 
L 302.063608 235.169814 
L 302.668753 235.169814 
L 302.971326 235.047405 
L 303.576471 235.047405 
L 304.181616 234.928415 
L 304.484189 234.928415 
L 305.089334 234.812725 
L 305.391907 234.812725 
L 305.997052 234.700223 
L 307.207342 234.590802 
L 307.812487 234.484356 
L 309.022778 234.380789 
L 309.627923 234.280004 
L 310.838213 234.181912 
L 311.443359 234.086424 
L 312.653649 233.993458 
L 313.258794 233.902932 
L 314.469085 233.81477 
L 315.07423 233.728897 
L 316.28452 233.645242 
L 316.889665 233.563736 
L 318.099956 233.484314 
L 318.705101 233.406912 
L 319.915391 233.331468 
L 320.520537 233.257924 
L 321.730827 233.186223 
L 322.335972 233.116311 
L 323.546263 233.048133 
L 324.151408 232.981641 
L 325.361698 232.916783 
L 325.966843 232.853514 
L 327.177134 232.791787 
L 327.782279 232.731557 
L 328.992569 232.672783 
L 329.597715 232.615423 
L 331.715723 232.504786 
L 332.926013 232.399342 
L 335.346594 232.298809 
L 336.556884 232.202919 
L 338.977465 232.111423 
L 340.187756 232.024087 
L 342.608336 231.940692 
L 343.516054 231.900408 
L 343.818627 230.9362 
L 350.777797 230.884033 
L 351.080369 230.76315 
L 356.224104 230.6698 
L 356.526676 230.443982 
L 358.039539 230.491006 
L 358.342112 230.644383 
L 363.485846 230.546819 
L 364.393564 230.531975 
L 364.696136 231.631467 
L 368.024435 231.522112 
L 369.234725 231.445504 
L 372.563024 231.339655 
L 374.075887 231.274505 
L 377.101613 231.183982 
L 378.614476 231.12797 
L 382.54792 231.025134 
L 384.665928 230.955137 
L 389.809662 230.850139 
L 392.230243 230.793266 
L 397.979122 230.691265 
L 401.004848 230.63082 
L 408.871736 230.52502 
L 413.107753 230.467561 
L 423.395221 230.36002 
L 429.1441 230.302652 
L 429.749246 230.302652 
L 429.749246 230.302652 
" style="fill:none;stroke:#00bfbf;stroke-dasharray:2,3.3;stroke-dashoffset:0;stroke-width:2;"/>
   </g>
   <g id="line2d_43">
    <path clip-path="url(#pd5032f6963)" d="M 219.461288 276.48 
L 219.461288 162.967456 
" style="fill:none;stroke:#000000;stroke-dasharray:2,3.3;stroke-dashoffset:0;stroke-width:2;"/>
   </g>
   <g id="patch_8">
    <path d="M 64.06 276.48 
L 64.06 162.967456 
" style="fill:none;stroke:#000000;stroke-linecap:square;stroke-linejoin:miter;stroke-width:0.8;"/>
   </g>
   <g id="patch_9">
    <path d="M 447.48 276.48 
L 447.48 162.967456 
" style="fill:none;stroke:#000000;stroke-linecap:square;stroke-linejoin:miter;stroke-width:0.8;"/>
   </g>
   <g id="patch_10">
    <path d="M 64.06 276.48 
L 447.48 276.48 
" style="fill:none;stroke:#000000;stroke-linecap:square;stroke-linejoin:miter;stroke-width:0.8;"/>
   </g>
   <g id="patch_11">
    <path d="M 64.06 162.967456 
L 447.48 162.967456 
" style="fill:none;stroke:#000000;stroke-linecap:square;stroke-linejoin:miter;stroke-width:0.8;"/>
   </g>
   <g id="text_20">
    <!-- Parallel district -->
    <defs>
     <path d="M 19.671875 64.796875 
L 19.671875 37.40625 
L 32.078125 37.40625 
Q 38.96875 37.40625 42.71875 40.96875 
Q 46.484375 44.53125 46.484375 51.125 
Q 46.484375 57.671875 42.71875 61.234375 
Q 38.96875 64.796875 32.078125 64.796875 
z
M 9.8125 72.90625 
L 32.078125 72.90625 
Q 44.34375 72.90625 50.609375 67.359375 
Q 56.890625 61.8125 56.890625 51.125 
Q 56.890625 40.328125 50.609375 34.8125 
Q 44.34375 29.296875 32.078125 29.296875 
L 19.671875 29.296875 
L 19.671875 0 
L 9.8125 0 
z
" id="DejaVuSans-50"/>
     <path d="M 34.28125 27.484375 
Q 23.390625 27.484375 19.1875 25 
Q 14.984375 22.515625 14.984375 16.5 
Q 14.984375 11.71875 18.140625 8.90625 
Q 21.296875 6.109375 26.703125 6.109375 
Q 34.1875 6.109375 38.703125 11.40625 
Q 43.21875 16.703125 43.21875 25.484375 
L 43.21875 27.484375 
z
M 52.203125 31.203125 
L 52.203125 0 
L 43.21875 0 
L 43.21875 8.296875 
Q 40.140625 3.328125 35.546875 0.953125 
Q 30.953125 -1.421875 24.3125 -1.421875 
Q 15.921875 -1.421875 10.953125 3.296875 
Q 6 8.015625 6 15.921875 
Q 6 25.140625 12.171875 29.828125 
Q 18.359375 34.515625 30.609375 34.515625 
L 43.21875 34.515625 
L 43.21875 35.40625 
Q 43.21875 41.609375 39.140625 45 
Q 35.0625 48.390625 27.6875 48.390625 
Q 23 48.390625 18.546875 47.265625 
Q 14.109375 46.140625 10.015625 43.890625 
L 10.015625 52.203125 
Q 14.9375 54.109375 19.578125 55.046875 
Q 24.21875 56 28.609375 56 
Q 40.484375 56 46.34375 49.84375 
Q 52.203125 43.703125 52.203125 31.203125 
z
" id="DejaVuSans-61"/>
     <path d="M 9.421875 75.984375 
L 18.40625 75.984375 
L 18.40625 0 
L 9.421875 0 
z
" id="DejaVuSans-6c"/>
    </defs>
    <g transform="translate(210.997813 156.967456)scale(0.12 -0.12)">
     <use xlink:href="#DejaVuSans-50"/>
     <use x="60.240234" xlink:href="#DejaVuSans-61"/>
     <use x="121.519531" xlink:href="#DejaVuSans-72"/>
     <use x="162.632812" xlink:href="#DejaVuSans-61"/>
     <use x="223.912109" xlink:href="#DejaVuSans-6c"/>
     <use x="251.695312" xlink:href="#DejaVuSans-6c"/>
     <use x="279.478516" xlink:href="#DejaVuSans-65"/>
     <use x="341.001953" xlink:href="#DejaVuSans-6c"/>
     <use x="368.785156" xlink:href="#DejaVuSans-20"/>
     <use x="400.572266" xlink:href="#DejaVuSans-64"/>
     <use x="464.048828" xlink:href="#DejaVuSans-69"/>
     <use x="491.832031" xlink:href="#DejaVuSans-73"/>
     <use x="543.931641" xlink:href="#DejaVuSans-74"/>
     <use x="583.140625" xlink:href="#DejaVuSans-72"/>
     <use x="624.253906" xlink:href="#DejaVuSans-69"/>
     <use x="652.037109" xlink:href="#DejaVuSans-63"/>
     <use x="707.017578" xlink:href="#DejaVuSans-74"/>
    </g>
   </g>
  </g>
  <g id="legend_1">
   <g id="patch_12">
    <path d="M 298.085938 66.7125 
L 453.8 66.7125 
Q 455.8 66.7125 455.8 64.7125 
L 455.8 7 
Q 455.8 5 453.8 5 
L 298.085938 5 
Q 296.085938 5 296.085938 7 
L 296.085938 64.7125 
Q 296.085938 66.7125 298.085938 66.7125 
z
" style="fill:#ffffff;opacity:0.8;stroke:#cccccc;stroke-linejoin:miter;"/>
   </g>
   <g id="line2d_44">
    <path d="M 300.085938 13.098438 
L 320.085938 13.098438 
" style="fill:none;stroke:#0000ff;stroke-linecap:square;stroke-width:2;"/>
   </g>
   <g id="line2d_45"/>
   <g id="text_21">
    <!-- Buildings - ideal network -->
    <defs>
     <path d="M 19.671875 34.8125 
L 19.671875 8.109375 
L 35.5 8.109375 
Q 43.453125 8.109375 47.28125 11.40625 
Q 51.125 14.703125 51.125 21.484375 
Q 51.125 28.328125 47.28125 31.5625 
Q 43.453125 34.8125 35.5 34.8125 
z
M 19.671875 64.796875 
L 19.671875 42.828125 
L 34.28125 42.828125 
Q 41.5 42.828125 45.03125 45.53125 
Q 48.578125 48.25 48.578125 53.8125 
Q 48.578125 59.328125 45.03125 62.0625 
Q 41.5 64.796875 34.28125 64.796875 
z
M 9.8125 72.90625 
L 35.015625 72.90625 
Q 46.296875 72.90625 52.390625 68.21875 
Q 58.5 63.53125 58.5 54.890625 
Q 58.5 48.1875 55.375 44.234375 
Q 52.25 40.28125 46.1875 39.3125 
Q 53.46875 37.75 57.5 32.78125 
Q 61.53125 27.828125 61.53125 20.40625 
Q 61.53125 10.640625 54.890625 5.3125 
Q 48.25 0 35.984375 0 
L 9.8125 0 
z
" id="DejaVuSans-42"/>
     <path d="M 8.5 21.578125 
L 8.5 54.6875 
L 17.484375 54.6875 
L 17.484375 21.921875 
Q 17.484375 14.15625 20.5 10.265625 
Q 23.53125 6.390625 29.59375 6.390625 
Q 36.859375 6.390625 41.078125 11.03125 
Q 45.3125 15.671875 45.3125 23.6875 
L 45.3125 54.6875 
L 54.296875 54.6875 
L 54.296875 0 
L 45.3125 0 
L 45.3125 8.40625 
Q 42.046875 3.421875 37.71875 1 
Q 33.40625 -1.421875 27.6875 -1.421875 
Q 18.265625 -1.421875 13.375 4.4375 
Q 8.5 10.296875 8.5 21.578125 
z
M 31.109375 56 
z
" id="DejaVuSans-75"/>
     <path d="M 54.890625 33.015625 
L 54.890625 0 
L 45.90625 0 
L 45.90625 32.71875 
Q 45.90625 40.484375 42.875 44.328125 
Q 39.84375 48.1875 33.796875 48.1875 
Q 26.515625 48.1875 22.3125 43.546875 
Q 18.109375 38.921875 18.109375 30.90625 
L 18.109375 0 
L 9.078125 0 
L 9.078125 54.6875 
L 18.109375 54.6875 
L 18.109375 46.1875 
Q 21.34375 51.125 25.703125 53.5625 
Q 30.078125 56 35.796875 56 
Q 45.21875 56 50.046875 50.171875 
Q 54.890625 44.34375 54.890625 33.015625 
z
" id="DejaVuSans-6e"/>
     <path d="M 45.40625 27.984375 
Q 45.40625 37.75 41.375 43.109375 
Q 37.359375 48.484375 30.078125 48.484375 
Q 22.859375 48.484375 18.828125 43.109375 
Q 14.796875 37.75 14.796875 27.984375 
Q 14.796875 18.265625 18.828125 12.890625 
Q 22.859375 7.515625 30.078125 7.515625 
Q 37.359375 7.515625 41.375 12.890625 
Q 45.40625 18.265625 45.40625 27.984375 
z
M 54.390625 6.78125 
Q 54.390625 -7.171875 48.1875 -13.984375 
Q 42 -20.796875 29.203125 -20.796875 
Q 24.46875 -20.796875 20.265625 -20.09375 
Q 16.0625 -19.390625 12.109375 -17.921875 
L 12.109375 -9.1875 
Q 16.0625 -11.328125 19.921875 -12.34375 
Q 23.78125 -13.375 27.78125 -13.375 
Q 36.625 -13.375 41.015625 -8.765625 
Q 45.40625 -4.15625 45.40625 5.171875 
L 45.40625 9.625 
Q 42.625 4.78125 38.28125 2.390625 
Q 33.9375 0 27.875 0 
Q 17.828125 0 11.671875 7.65625 
Q 5.515625 15.328125 5.515625 27.984375 
Q 5.515625 40.671875 11.671875 48.328125 
Q 17.828125 56 27.875 56 
Q 33.9375 56 38.28125 53.609375 
Q 42.625 51.21875 45.40625 46.390625 
L 45.40625 54.6875 
L 54.390625 54.6875 
z
" id="DejaVuSans-67"/>
     <path d="M 4.203125 54.6875 
L 13.1875 54.6875 
L 24.421875 12.015625 
L 35.59375 54.6875 
L 46.1875 54.6875 
L 57.421875 12.015625 
L 68.609375 54.6875 
L 77.59375 54.6875 
L 63.28125 0 
L 52.6875 0 
L 40.921875 44.828125 
L 29.109375 0 
L 18.5 0 
z
" id="DejaVuSans-77"/>
     <path d="M 30.609375 48.390625 
Q 23.390625 48.390625 19.1875 42.75 
Q 14.984375 37.109375 14.984375 27.296875 
Q 14.984375 17.484375 19.15625 11.84375 
Q 23.34375 6.203125 30.609375 6.203125 
Q 37.796875 6.203125 41.984375 11.859375 
Q 46.1875 17.53125 46.1875 27.296875 
Q 46.1875 37.015625 41.984375 42.703125 
Q 37.796875 48.390625 30.609375 48.390625 
z
M 30.609375 56 
Q 42.328125 56 49.015625 48.375 
Q 55.71875 40.765625 55.71875 27.296875 
Q 55.71875 13.875 49.015625 6.21875 
Q 42.328125 -1.421875 30.609375 -1.421875 
Q 18.84375 -1.421875 12.171875 6.21875 
Q 5.515625 13.875 5.515625 27.296875 
Q 5.515625 40.765625 12.171875 48.375 
Q 18.84375 56 30.609375 56 
z
" id="DejaVuSans-6f"/>
     <path d="M 9.078125 75.984375 
L 18.109375 75.984375 
L 18.109375 31.109375 
L 44.921875 54.6875 
L 56.390625 54.6875 
L 27.390625 29.109375 
L 57.625 0 
L 45.90625 0 
L 18.109375 26.703125 
L 18.109375 0 
L 9.078125 0 
z
" id="DejaVuSans-6b"/>
    </defs>
    <g transform="translate(328.085938 16.598438)scale(0.1 -0.1)">
     <use xlink:href="#DejaVuSans-42"/>
     <use x="68.603516" xlink:href="#DejaVuSans-75"/>
     <use x="131.982422" xlink:href="#DejaVuSans-69"/>
     <use x="159.765625" xlink:href="#DejaVuSans-6c"/>
     <use x="187.548828" xlink:href="#DejaVuSans-64"/>
     <use x="251.025391" xlink:href="#DejaVuSans-69"/>
     <use x="278.808594" xlink:href="#DejaVuSans-6e"/>
     <use x="342.1875" xlink:href="#DejaVuSans-67"/>
     <use x="405.664062" xlink:href="#DejaVuSans-73"/>
     <use x="457.763672" xlink:href="#DejaVuSans-20"/>
     <use x="489.550781" xlink:href="#DejaVuSans-2d"/>
     <use x="525.634766" xlink:href="#DejaVuSans-20"/>
     <use x="557.421875" xlink:href="#DejaVuSans-69"/>
     <use x="585.205078" xlink:href="#DejaVuSans-64"/>
     <use x="648.681641" xlink:href="#DejaVuSans-65"/>
     <use x="710.205078" xlink:href="#DejaVuSans-61"/>
     <use x="771.484375" xlink:href="#DejaVuSans-6c"/>
     <use x="799.267578" xlink:href="#DejaVuSans-20"/>
     <use x="831.054688" xlink:href="#DejaVuSans-6e"/>
     <use x="894.433594" xlink:href="#DejaVuSans-65"/>
     <use x="955.957031" xlink:href="#DejaVuSans-74"/>
     <use x="995.166016" xlink:href="#DejaVuSans-77"/>
     <use x="1076.953125" xlink:href="#DejaVuSans-6f"/>
     <use x="1138.134766" xlink:href="#DejaVuSans-72"/>
     <use x="1179.248047" xlink:href="#DejaVuSans-6b"/>
    </g>
   </g>
   <g id="line2d_46">
    <path d="M 300.085938 27.776563 
L 320.085938 27.776563 
" style="fill:none;stroke:#008000;stroke-dasharray:7.4,3.2;stroke-dashoffset:0;stroke-width:2;"/>
   </g>
   <g id="line2d_47"/>
   <g id="text_22">
    <!-- Buildings -->
    <g transform="translate(328.085938 31.276563)scale(0.1 -0.1)">
     <use xlink:href="#DejaVuSans-42"/>
     <use x="68.603516" xlink:href="#DejaVuSans-75"/>
     <use x="131.982422" xlink:href="#DejaVuSans-69"/>
     <use x="159.765625" xlink:href="#DejaVuSans-6c"/>
     <use x="187.548828" xlink:href="#DejaVuSans-64"/>
     <use x="251.025391" xlink:href="#DejaVuSans-69"/>
     <use x="278.808594" xlink:href="#DejaVuSans-6e"/>
     <use x="342.1875" xlink:href="#DejaVuSans-67"/>
     <use x="405.664062" xlink:href="#DejaVuSans-73"/>
    </g>
   </g>
   <g id="line2d_48">
    <path d="M 300.085938 42.454688 
L 320.085938 42.454688 
" style="fill:none;stroke:#ff0000;stroke-dasharray:12.8,3.2,2,3.2;stroke-dashoffset:0;stroke-width:2;"/>
   </g>
   <g id="line2d_49"/>
   <g id="text_23">
    <!-- Network -->
    <defs>
     <path d="M 9.8125 72.90625 
L 23.09375 72.90625 
L 55.421875 11.921875 
L 55.421875 72.90625 
L 64.984375 72.90625 
L 64.984375 0 
L 51.703125 0 
L 19.390625 60.984375 
L 19.390625 0 
L 9.8125 0 
z
" id="DejaVuSans-4e"/>
    </defs>
    <g transform="translate(328.085938 45.954688)scale(0.1 -0.1)">
     <use xlink:href="#DejaVuSans-4e"/>
     <use x="74.804688" xlink:href="#DejaVuSans-65"/>
     <use x="136.328125" xlink:href="#DejaVuSans-74"/>
     <use x="175.537109" xlink:href="#DejaVuSans-77"/>
     <use x="257.324219" xlink:href="#DejaVuSans-6f"/>
     <use x="318.505859" xlink:href="#DejaVuSans-72"/>
     <use x="359.619141" xlink:href="#DejaVuSans-6b"/>
    </g>
   </g>
   <g id="line2d_50">
    <path d="M 300.085938 57.132813 
L 320.085938 57.132813 
" style="fill:none;stroke:#00bfbf;stroke-dasharray:2,3.3;stroke-dashoffset:0;stroke-width:2;"/>
   </g>
   <g id="line2d_51"/>
   <g id="text_24">
    <!-- Combined - LP -->
    <defs>
     <path d="M 64.40625 67.28125 
L 64.40625 56.890625 
Q 59.421875 61.53125 53.78125 63.8125 
Q 48.140625 66.109375 41.796875 66.109375 
Q 29.296875 66.109375 22.65625 58.46875 
Q 16.015625 50.828125 16.015625 36.375 
Q 16.015625 21.96875 22.65625 14.328125 
Q 29.296875 6.6875 41.796875 6.6875 
Q 48.140625 6.6875 53.78125 8.984375 
Q 59.421875 11.28125 64.40625 15.921875 
L 64.40625 5.609375 
Q 59.234375 2.09375 53.4375 0.328125 
Q 47.65625 -1.421875 41.21875 -1.421875 
Q 24.65625 -1.421875 15.125 8.703125 
Q 5.609375 18.84375 5.609375 36.375 
Q 5.609375 53.953125 15.125 64.078125 
Q 24.65625 74.21875 41.21875 74.21875 
Q 47.75 74.21875 53.53125 72.484375 
Q 59.328125 70.75 64.40625 67.28125 
z
" id="DejaVuSans-43"/>
     <path d="M 52 44.1875 
Q 55.375 50.25 60.0625 53.125 
Q 64.75 56 71.09375 56 
Q 79.640625 56 84.28125 50.015625 
Q 88.921875 44.046875 88.921875 33.015625 
L 88.921875 0 
L 79.890625 0 
L 79.890625 32.71875 
Q 79.890625 40.578125 77.09375 44.375 
Q 74.3125 48.1875 68.609375 48.1875 
Q 61.625 48.1875 57.5625 43.546875 
Q 53.515625 38.921875 53.515625 30.90625 
L 53.515625 0 
L 44.484375 0 
L 44.484375 32.71875 
Q 44.484375 40.625 41.703125 44.40625 
Q 38.921875 48.1875 33.109375 48.1875 
Q 26.21875 48.1875 22.15625 43.53125 
Q 18.109375 38.875 18.109375 30.90625 
L 18.109375 0 
L 9.078125 0 
L 9.078125 54.6875 
L 18.109375 54.6875 
L 18.109375 46.1875 
Q 21.1875 51.21875 25.484375 53.609375 
Q 29.78125 56 35.6875 56 
Q 41.65625 56 45.828125 52.96875 
Q 50 49.953125 52 44.1875 
z
" id="DejaVuSans-6d"/>
     <path d="M 48.6875 27.296875 
Q 48.6875 37.203125 44.609375 42.84375 
Q 40.53125 48.484375 33.40625 48.484375 
Q 26.265625 48.484375 22.1875 42.84375 
Q 18.109375 37.203125 18.109375 27.296875 
Q 18.109375 17.390625 22.1875 11.75 
Q 26.265625 6.109375 33.40625 6.109375 
Q 40.53125 6.109375 44.609375 11.75 
Q 48.6875 17.390625 48.6875 27.296875 
z
M 18.109375 46.390625 
Q 20.953125 51.265625 25.265625 53.625 
Q 29.59375 56 35.59375 56 
Q 45.5625 56 51.78125 48.09375 
Q 58.015625 40.1875 58.015625 27.296875 
Q 58.015625 14.40625 51.78125 6.484375 
Q 45.5625 -1.421875 35.59375 -1.421875 
Q 29.59375 -1.421875 25.265625 0.953125 
Q 20.953125 3.328125 18.109375 8.203125 
L 18.109375 0 
L 9.078125 0 
L 9.078125 75.984375 
L 18.109375 75.984375 
z
" id="DejaVuSans-62"/>
     <path d="M 9.8125 72.90625 
L 19.671875 72.90625 
L 19.671875 8.296875 
L 55.171875 8.296875 
L 55.171875 0 
L 9.8125 0 
z
" id="DejaVuSans-4c"/>
    </defs>
    <g transform="translate(328.085938 60.632813)scale(0.1 -0.1)">
     <use xlink:href="#DejaVuSans-43"/>
     <use x="69.824219" xlink:href="#DejaVuSans-6f"/>
     <use x="131.005859" xlink:href="#DejaVuSans-6d"/>
     <use x="228.417969" xlink:href="#DejaVuSans-62"/>
     <use x="291.894531" xlink:href="#DejaVuSans-69"/>
     <use x="319.677734" xlink:href="#DejaVuSans-6e"/>
     <use x="383.056641" xlink:href="#DejaVuSans-65"/>
     <use x="444.580078" xlink:href="#DejaVuSans-64"/>
     <use x="508.056641" xlink:href="#DejaVuSans-20"/>
     <use x="539.84375" xlink:href="#DejaVuSans-2d"/>
     <use x="575.927734" xlink:href="#DejaVuSans-20"/>
     <use x="607.714844" xlink:href="#DejaVuSans-4c"/>
     <use x="663.427734" xlink:href="#DejaVuSans-50"/>
    </g>
   </g>
  </g>
 </g>
 <defs>
  <clipPath id="p80d678bed9">
   <rect height="113.512544" width="383.42" x="64.06" y="25.44"/>
  </clipPath>
  <clipPath id="pd5032f6963">
   <rect height="113.512544" width="383.42" x="64.06" y="162.967456"/>
  </clipPath>
 </defs>
</svg>
