<?xml version="1.0" encoding="utf-8" standalone="no"?>
<!DOCTYPE svg PUBLIC "-//W3C//DTD SVG 1.1//EN"
  "http://www.w3.org/Graphics/SVG/1.1/DTD/svg11.dtd">
<!-- Created with matplotlib (http://matplotlib.org/) -->
<svg height="345pt" version="1.1" viewBox="0 0 460 345" width="460pt" xmlns="http://www.w3.org/2000/svg" xmlns:xlink="http://www.w3.org/1999/xlink">
 <defs>
  <style type="text/css">
*{stroke-linecap:butt;stroke-linejoin:round;}
  </style>
 </defs>
 <g id="figure_1">
  <g id="patch_1">
   <path d="M 0 345.6 
L 460.8 345.6 
L 460.8 0 
L 0 0 
z
" style="fill:#ffffff;"/>
  </g>
  <g id="axes_1">
   <g id="patch_2">
    <path d="M 64.06 138.952544 
L 447.48 138.952544 
L 447.48 25.44 
L 64.06 25.44 
z
" style="fill:#ffffff;"/>
   </g>
   <g id="matplotlib.axis_1">
    <g id="xtick_1">
     <g id="line2d_1">
      <defs>
       <path d="M 0 0 
L 0 3.5 
" id="mb54d6b064d" style="stroke:#000000;stroke-width:0.8;"/>
      </defs>
      <g>
       <use style="stroke:#000000;stroke-width:0.8;" x="70.595568" xlink:href="#mb54d6b064d" y="138.952544"/>
      </g>
     </g>
    </g>
    <g id="xtick_2">
     <g id="line2d_2">
      <g>
       <use style="stroke:#000000;stroke-width:0.8;" x="114.166023" xlink:href="#mb54d6b064d" y="138.952544"/>
      </g>
     </g>
    </g>
    <g id="xtick_3">
     <g id="line2d_3">
      <g>
       <use style="stroke:#000000;stroke-width:0.8;" x="157.736477" xlink:href="#mb54d6b064d" y="138.952544"/>
      </g>
     </g>
    </g>
    <g id="xtick_4">
     <g id="line2d_4">
      <g>
       <use style="stroke:#000000;stroke-width:0.8;" x="201.306932" xlink:href="#mb54d6b064d" y="138.952544"/>
      </g>
     </g>
    </g>
    <g id="xtick_5">
     <g id="line2d_5">
      <g>
       <use style="stroke:#000000;stroke-width:0.8;" x="244.877386" xlink:href="#mb54d6b064d" y="138.952544"/>
      </g>
     </g>
    </g>
    <g id="xtick_6">
     <g id="line2d_6">
      <g>
       <use style="stroke:#000000;stroke-width:0.8;" x="288.447841" xlink:href="#mb54d6b064d" y="138.952544"/>
      </g>
     </g>
    </g>
    <g id="xtick_7">
     <g id="line2d_7">
      <g>
       <use style="stroke:#000000;stroke-width:0.8;" x="332.018295" xlink:href="#mb54d6b064d" y="138.952544"/>
      </g>
     </g>
    </g>
    <g id="xtick_8">
     <g id="line2d_8">
      <g>
       <use style="stroke:#000000;stroke-width:0.8;" x="375.58875" xlink:href="#mb54d6b064d" y="138.952544"/>
      </g>
     </g>
    </g>
    <g id="xtick_9">
     <g id="line2d_9">
      <g>
       <use style="stroke:#000000;stroke-width:0.8;" x="419.159205" xlink:href="#mb54d6b064d" y="138.952544"/>
      </g>
     </g>
    </g>
   </g>
   <g id="matplotlib.axis_2">
    <g id="ytick_1">
     <g id="line2d_10">
      <defs>
       <path d="M 0 0 
L -3.5 0 
" id="md35f948e3b" style="stroke:#000000;stroke-width:0.8;"/>
      </defs>
      <g>
       <use style="stroke:#000000;stroke-width:0.8;" x="64.06" xlink:href="#md35f948e3b" y="120.375966"/>
      </g>
     </g>
     <g id="text_1">
      <!-- −100000 -->
      <defs>
       <path d="M 10.59375 35.5 
L 73.1875 35.5 
L 73.1875 27.203125 
L 10.59375 27.203125 
z
" id="DejaVuSans-2212"/>
       <path d="M 12.40625 8.296875 
L 28.515625 8.296875 
L 28.515625 63.921875 
L 10.984375 60.40625 
L 10.984375 69.390625 
L 28.421875 72.90625 
L 38.28125 72.90625 
L 38.28125 8.296875 
L 54.390625 8.296875 
L 54.390625 0 
L 12.40625 0 
z
" id="DejaVuSans-31"/>
       <path d="M 31.78125 66.40625 
Q 24.171875 66.40625 20.328125 58.90625 
Q 16.5 51.421875 16.5 36.375 
Q 16.5 21.390625 20.328125 13.890625 
Q 24.171875 6.390625 31.78125 6.390625 
Q 39.453125 6.390625 43.28125 13.890625 
Q 47.125 21.390625 47.125 36.375 
Q 47.125 51.421875 43.28125 58.90625 
Q 39.453125 66.40625 31.78125 66.40625 
z
M 31.78125 74.21875 
Q 44.046875 74.21875 50.515625 64.515625 
Q 56.984375 54.828125 56.984375 36.375 
Q 56.984375 17.96875 50.515625 8.265625 
Q 44.046875 -1.421875 31.78125 -1.421875 
Q 19.53125 -1.421875 13.0625 8.265625 
Q 6.59375 17.96875 6.59375 36.375 
Q 6.59375 54.828125 13.0625 64.515625 
Q 19.53125 74.21875 31.78125 74.21875 
z
" id="DejaVuSans-30"/>
      </defs>
      <g transform="translate(10.505313 124.175185)scale(0.1 -0.1)">
       <use xlink:href="#DejaVuSans-2212"/>
       <use x="83.789062" xlink:href="#DejaVuSans-31"/>
       <use x="147.412109" xlink:href="#DejaVuSans-30"/>
       <use x="211.035156" xlink:href="#DejaVuSans-30"/>
       <use x="274.658203" xlink:href="#DejaVuSans-30"/>
       <use x="338.28125" xlink:href="#DejaVuSans-30"/>
       <use x="401.904297" xlink:href="#DejaVuSans-30"/>
      </g>
     </g>
    </g>
    <g id="ytick_2">
     <g id="line2d_11">
      <g>
       <use style="stroke:#000000;stroke-width:0.8;" x="64.06" xlink:href="#md35f948e3b" y="95.531524"/>
      </g>
     </g>
     <g id="text_2">
      <!-- 0 -->
      <g transform="translate(50.6975 99.330743)scale(0.1 -0.1)">
       <use xlink:href="#DejaVuSans-30"/>
      </g>
     </g>
    </g>
    <g id="ytick_3">
     <g id="line2d_12">
      <g>
       <use style="stroke:#000000;stroke-width:0.8;" x="64.06" xlink:href="#md35f948e3b" y="70.687083"/>
      </g>
     </g>
     <g id="text_3">
      <!-- 100000 -->
      <g transform="translate(18.885 74.486301)scale(0.1 -0.1)">
       <use xlink:href="#DejaVuSans-31"/>
       <use x="63.623047" xlink:href="#DejaVuSans-30"/>
       <use x="127.246094" xlink:href="#DejaVuSans-30"/>
       <use x="190.869141" xlink:href="#DejaVuSans-30"/>
       <use x="254.492188" xlink:href="#DejaVuSans-30"/>
       <use x="318.115234" xlink:href="#DejaVuSans-30"/>
      </g>
     </g>
    </g>
    <g id="ytick_4">
     <g id="line2d_13">
      <g>
       <use style="stroke:#000000;stroke-width:0.8;" x="64.06" xlink:href="#md35f948e3b" y="45.842641"/>
      </g>
     </g>
     <g id="text_4">
      <!-- 200000 -->
      <defs>
       <path d="M 19.1875 8.296875 
L 53.609375 8.296875 
L 53.609375 0 
L 7.328125 0 
L 7.328125 8.296875 
Q 12.9375 14.109375 22.625 23.890625 
Q 32.328125 33.6875 34.8125 36.53125 
Q 39.546875 41.84375 41.421875 45.53125 
Q 43.3125 49.21875 43.3125 52.78125 
Q 43.3125 58.59375 39.234375 62.25 
Q 35.15625 65.921875 28.609375 65.921875 
Q 23.96875 65.921875 18.8125 64.3125 
Q 13.671875 62.703125 7.8125 59.421875 
L 7.8125 69.390625 
Q 13.765625 71.78125 18.9375 73 
Q 24.125 74.21875 28.421875 74.21875 
Q 39.75 74.21875 46.484375 68.546875 
Q 53.21875 62.890625 53.21875 53.421875 
Q 53.21875 48.921875 51.53125 44.890625 
Q 49.859375 40.875 45.40625 35.40625 
Q 44.1875 33.984375 37.640625 27.21875 
Q 31.109375 20.453125 19.1875 8.296875 
z
" id="DejaVuSans-32"/>
      </defs>
      <g transform="translate(18.885 49.64186)scale(0.1 -0.1)">
       <use xlink:href="#DejaVuSans-32"/>
       <use x="63.623047" xlink:href="#DejaVuSans-30"/>
       <use x="127.246094" xlink:href="#DejaVuSans-30"/>
       <use x="190.869141" xlink:href="#DejaVuSans-30"/>
       <use x="254.492188" xlink:href="#DejaVuSans-30"/>
       <use x="318.115234" xlink:href="#DejaVuSans-30"/>
      </g>
     </g>
    </g>
   </g>
   <g id="line2d_14">
    <path clip-path="url(#p9c78158c6e)" d="M 81.488182 95.531524 
L 102.365691 95.531524 
L 103.273409 95.679259 
L 104.181127 95.531524 
L 114.166023 95.531524 
L 115.073741 95.303807 
L 115.981458 95.531524 
L 148.659299 95.532197 
L 149.567017 87.626912 
L 150.474735 87.271797 
L 151.382453 87.309557 
L 152.29017 87.095698 
L 153.197888 86.641445 
L 154.105606 86.774295 
L 155.921042 87.259983 
L 157.736477 87.620815 
L 158.644195 87.456928 
L 159.551913 87.647762 
L 160.459631 76.831302 
L 161.367348 75.683755 
L 162.275066 74.33479 
L 163.182784 74.38437 
L 164.090502 73.240759 
L 164.99822 54.141922 
L 165.905937 51.58729 
L 166.813655 47.700214 
L 167.721373 46.490528 
L 168.629091 45.50062 
L 169.536809 45.787897 
L 170.444527 44.817519 
L 171.352244 49.970426 
L 172.259962 48.431065 
L 173.16768 47.755732 
L 174.075398 46.314575 
L 175.890833 46.322307 
L 177.706269 33.438796 
L 178.613987 35.630411 
L 179.521705 31.649698 
L 180.429422 34.018042 
L 181.33714 32.084817 
L 182.244858 30.599661 
L 184.060294 30.93092 
L 184.968011 31.442698 
L 186.783447 35.560572 
L 187.691165 36.147189 
L 188.598883 36.095092 
L 189.5066 35.719752 
L 190.414318 43.945914 
L 191.322036 42.931011 
L 193.137472 43.149075 
L 194.045189 51.789568 
L 194.952907 55.744467 
L 195.860625 52.31399 
L 196.768343 55.838137 
L 197.676061 60.353075 
L 198.583778 70.628954 
L 199.491496 72.502769 
L 200.399214 76.539679 
L 201.306932 85.219364 
L 202.21465 91.569382 
L 203.122367 91.615351 
L 204.030085 86.754474 
L 204.937803 89.172631 
L 205.845521 88.8813 
L 206.753239 93.123153 
L 207.660956 96.637379 
L 208.568674 94.125348 
L 209.476392 90.283393 
L 210.38411 90.409237 
L 211.291828 86.313708 
L 212.199545 88.596405 
L 213.107263 92.79989 
L 214.014981 95.109162 
L 214.922699 96.923134 
L 215.830417 94.429814 
L 216.738134 95.751491 
L 217.645852 96.630703 
L 218.55357 96.159627 
L 219.461288 133.792883 
L 220.369006 131.363634 
L 223.092159 128.486206 
L 224.907595 126.91798 
L 225.815312 126.044312 
L 227.630748 124.603563 
L 228.538466 124.603908 
L 229.446184 123.401389 
L 233.984773 120.185409 
L 235.800208 119.079334 
L 242.154233 115.604969 
L 251.231411 111.199177 
L 253.046847 110.369003 
L 253.954564 108.710544 
L 254.862282 107.943418 
L 255.77 107.398636 
L 256.677718 107.19769 
L 257.585436 106.611489 
L 258.493153 108.120417 
L 261.216307 106.028709 
L 263.031742 105.447058 
L 263.93946 103.136638 
L 265.754896 102.778869 
L 266.662614 101.516358 
L 267.570331 102.556016 
L 268.478049 101.872935 
L 269.385767 96.601778 
L 273.924356 96.475306 
L 274.832074 97.139717 
L 275.739792 98.295718 
L 276.647509 97.61146 
L 277.555227 102.184486 
L 278.462945 101.62141 
L 280.278381 101.331288 
L 282.093816 104.361551 
L 283.001534 105.039909 
L 289.355559 103.482814 
L 294.801866 102.392158 
L 301.15589 101.3468 
L 308.417633 100.383078 
L 316.587093 99.522496 
L 326.571989 98.70942 
L 338.37232 97.992809 
L 342.910909 97.770552 
L 343.818627 96.754974 
L 347.449498 96.659713 
L 348.357216 96.797385 
L 349.264934 96.680301 
L 350.172652 96.700028 
L 351.988087 96.552151 
L 355.618958 96.474382 
L 356.526676 96.236534 
L 357.434394 96.286063 
L 358.342112 96.447611 
L 363.788419 96.329215 
L 364.696136 97.487283 
L 401.004848 96.433326 
L 427.328665 96.104128 
L 429.1441 96.087674 
L 430.051818 95.531524 
L 430.051818 95.531524 
" style="fill:none;stroke:#0000ff;stroke-linecap:square;stroke-width:2;"/>
   </g>
   <g id="line2d_15">
    <path clip-path="url(#p9c78158c6e)" d="M 219.461288 138.952544 
L 219.461288 25.44 
" style="fill:none;stroke:#000000;stroke-dasharray:2,3.3;stroke-dashoffset:0;stroke-width:2;"/>
   </g>
   <g id="line2d_16">
    <path clip-path="url(#p9c78158c6e)" d="M 81.488182 95.531524 
L 102.365691 95.531524 
L 103.273409 95.679259 
L 104.181127 95.531524 
L 114.166023 95.531524 
L 115.073741 95.303807 
L 115.981458 95.531524 
L 148.659299 95.532197 
L 149.567017 87.626912 
L 150.474735 87.271797 
L 151.382453 87.309557 
L 152.29017 87.095698 
L 153.197888 86.641445 
L 154.105606 86.774295 
L 155.921042 87.259983 
L 157.736477 87.620815 
L 158.644195 87.456928 
L 159.551913 87.647762 
L 160.459631 76.831302 
L 161.367348 75.683755 
L 162.275066 74.33479 
L 163.182784 74.38437 
L 164.090502 73.240759 
L 164.99822 54.141922 
L 165.905937 51.58729 
L 166.813655 47.700214 
L 167.721373 46.490528 
L 168.629091 45.50062 
L 169.536809 45.787897 
L 170.444527 44.817519 
L 171.352244 49.970426 
L 172.259962 48.431065 
L 173.16768 47.755732 
L 174.075398 46.314575 
L 175.890833 46.322307 
L 177.706269 33.438796 
L 178.613987 35.630411 
L 179.521705 31.649698 
L 180.429422 34.018042 
L 181.33714 32.084817 
L 182.244858 30.599661 
L 184.060294 30.93092 
L 184.968011 31.442698 
L 186.783447 35.560572 
L 187.691165 36.147189 
L 188.598883 36.095092 
L 189.5066 35.719752 
L 190.414318 43.945914 
L 191.322036 42.931011 
L 193.137472 43.149075 
L 194.045189 51.789568 
L 194.952907 55.744467 
L 195.860625 52.31399 
L 196.768343 55.838137 
L 197.676061 60.353075 
L 198.583778 70.628954 
L 199.491496 72.502769 
L 200.399214 76.539679 
L 201.306932 85.219364 
L 202.21465 91.569382 
L 203.122367 91.615351 
L 204.030085 86.754474 
L 204.937803 89.172631 
L 205.845521 88.8813 
L 206.753239 93.123153 
L 207.660956 96.637379 
L 208.568674 94.125348 
L 209.476392 90.283393 
L 210.38411 90.409237 
L 211.291828 86.313708 
L 212.199545 88.596405 
L 213.107263 92.79989 
L 214.014981 95.109162 
L 214.922699 96.923134 
L 215.830417 94.429814 
L 216.738134 95.751491 
L 217.645852 96.630703 
L 218.55357 96.159627 
L 219.461288 133.792883 
L 220.369006 131.363634 
L 223.092159 128.486206 
L 224.907595 126.91798 
L 225.815312 126.044312 
L 227.630748 124.603563 
L 228.538466 124.603908 
L 229.446184 123.401389 
L 233.984773 120.185409 
L 235.800208 119.079334 
L 242.154233 115.604969 
L 251.231411 111.199177 
L 253.046847 110.369003 
L 253.954564 108.710544 
L 254.862282 107.943418 
L 255.77 107.398636 
L 256.677718 107.19769 
L 257.585436 106.611489 
L 258.493153 108.120417 
L 261.216307 106.028709 
L 263.031742 105.447058 
L 263.93946 103.136638 
L 265.754896 102.778869 
L 266.662614 101.516358 
L 267.570331 102.556016 
L 268.478049 101.872935 
L 269.385767 96.601778 
L 273.924356 96.475306 
L 274.832074 97.139717 
L 275.739792 98.295718 
L 276.647509 97.61146 
L 277.555227 102.184486 
L 278.462945 101.62141 
L 280.278381 101.331288 
L 282.093816 104.361551 
L 283.001534 105.039909 
L 289.355559 103.482814 
L 294.801866 102.392158 
L 301.15589 101.3468 
L 308.417633 100.383078 
L 316.587093 99.522496 
L 326.571989 98.70942 
L 338.37232 97.992809 
L 342.910909 97.770552 
L 343.818627 96.754974 
L 347.449498 96.659713 
L 348.357216 96.797385 
L 349.264934 96.680301 
L 350.172652 96.700028 
L 351.988087 96.552151 
L 355.618958 96.474382 
L 356.526676 96.236534 
L 357.434394 96.286063 
L 358.342112 96.447611 
L 363.788419 96.329215 
L 364.696136 97.487283 
L 401.004848 96.433326 
L 427.328665 96.104128 
L 429.1441 96.087674 
L 430.051818 95.531524 
L 430.051818 95.531524 
" style="fill:none;stroke:#008000;stroke-dasharray:7.4,3.2;stroke-dashoffset:0;stroke-width:2;"/>
   </g>
   <g id="line2d_17">
    <path clip-path="url(#p9c78158c6e)" d="M 219.461288 138.952544 
L 219.461288 25.44 
" style="fill:none;stroke:#000000;stroke-dasharray:2,3.3;stroke-dashoffset:0;stroke-width:2;"/>
   </g>
   <g id="line2d_18">
    <path clip-path="url(#p9c78158c6e)" d="M 81.488182 95.531524 
L 214.014981 95.531524 
L 214.317554 75.259285 
L 214.620126 75.259285 
L 215.527844 83.727635 
L 216.738134 89.380177 
L 217.34328 90.710393 
L 217.645852 91.244678 
L 218.856143 94.485817 
L 219.158715 94.847005 
L 219.461288 113.407974 
L 219.76386 113.506725 
L 220.066433 112.294374 
L 220.671578 106.937077 
L 220.974151 106.017597 
L 221.579296 103.121355 
L 222.184441 100.54888 
L 223.092159 99.013864 
L 223.999877 96.604226 
L 224.605022 95.839708 
L 225.210167 95.602846 
L 226.420458 95.534229 
L 248.508258 95.531524 
L 429.749246 95.531524 
L 429.749246 95.531524 
" style="fill:none;stroke:#ff0000;stroke-dasharray:12.8,3.2,2,3.2;stroke-dashoffset:0;stroke-width:2;"/>
   </g>
   <g id="line2d_19">
    <path clip-path="url(#p9c78158c6e)" d="M 219.461288 138.952544 
L 219.461288 25.44 
" style="fill:none;stroke:#000000;stroke-dasharray:2,3.3;stroke-dashoffset:0;stroke-width:2;"/>
   </g>
   <g id="line2d_20">
    <path clip-path="url(#p9c78158c6e)" d="M 81.488182 95.531524 
L 213.712408 95.531524 
L 214.014981 75.118497 
L 214.317554 75.118497 
L 214.620126 77.825566 
L 214.922699 82.705483 
L 215.225271 84.898344 
L 216.132989 88.275457 
L 216.738134 90.575282 
L 217.948425 92.359613 
L 218.856143 94.408508 
L 219.158715 94.773308 
L 219.461288 100.931866 
L 220.066433 100.96835 
L 220.369006 102.023887 
L 220.974151 102.041715 
L 221.276723 101.797437 
L 221.579296 101.790797 
L 221.881869 101.392704 
L 222.789586 98.790886 
L 223.394732 98.493869 
L 223.697304 98.439434 
L 225.210167 98.699686 
L 225.51274 98.690079 
L 225.815312 98.564273 
L 226.117885 98.2934 
L 227.025603 96.948801 
L 227.328176 96.622754 
L 227.933321 96.391839 
L 228.841039 96.306029 
L 231.564192 96.887657 
L 232.47191 96.773322 
L 233.077055 96.662168 
L 235.497636 95.676947 
L 237.010499 95.54793 
L 242.759378 95.531525 
L 429.749246 95.531524 
L 429.749246 95.531524 
" style="fill:none;stroke:#00bfbf;stroke-dasharray:2,3.3;stroke-dashoffset:0;stroke-width:2;"/>
   </g>
   <g id="line2d_21">
    <path clip-path="url(#p9c78158c6e)" d="M 219.461288 138.952544 
L 219.461288 25.44 
" style="fill:none;stroke:#000000;stroke-dasharray:2,3.3;stroke-dashoffset:0;stroke-width:2;"/>
   </g>
   <g id="patch_3">
    <path d="M 64.06 138.952544 
L 64.06 25.44 
" style="fill:none;stroke:#000000;stroke-linecap:square;stroke-linejoin:miter;stroke-width:0.8;"/>
   </g>
   <g id="patch_4">
    <path d="M 447.48 138.952544 
L 447.48 25.44 
" style="fill:none;stroke:#000000;stroke-linecap:square;stroke-linejoin:miter;stroke-width:0.8;"/>
   </g>
   <g id="patch_5">
    <path d="M 64.06 138.952544 
L 447.48 138.952544 
" style="fill:none;stroke:#000000;stroke-linecap:square;stroke-linejoin:miter;stroke-width:0.8;"/>
   </g>
   <g id="patch_6">
    <path d="M 64.06 25.44 
L 447.48 25.44 
" style="fill:none;stroke:#000000;stroke-linecap:square;stroke-linejoin:miter;stroke-width:0.8;"/>
   </g>
   <g id="text_5">
    <!-- Series district -->
    <defs>
     <path d="M 53.515625 70.515625 
L 53.515625 60.890625 
Q 47.90625 63.578125 42.921875 64.890625 
Q 37.9375 66.21875 33.296875 66.21875 
Q 25.25 66.21875 20.875 63.09375 
Q 16.5 59.96875 16.5 54.203125 
Q 16.5 49.359375 19.40625 46.890625 
Q 22.3125 44.4375 30.421875 42.921875 
L 36.375 41.703125 
Q 47.40625 39.59375 52.65625 34.296875 
Q 57.90625 29 57.90625 20.125 
Q 57.90625 9.515625 50.796875 4.046875 
Q 43.703125 -1.421875 29.984375 -1.421875 
Q 24.8125 -1.421875 18.96875 -0.25 
Q 13.140625 0.921875 6.890625 3.21875 
L 6.890625 13.375 
Q 12.890625 10.015625 18.65625 8.296875 
Q 24.421875 6.59375 29.984375 6.59375 
Q 38.421875 6.59375 43.015625 9.90625 
Q 47.609375 13.234375 47.609375 19.390625 
Q 47.609375 24.75 44.3125 27.78125 
Q 41.015625 30.8125 33.5 32.328125 
L 27.484375 33.5 
Q 16.453125 35.6875 11.515625 40.375 
Q 6.59375 45.0625 6.59375 53.421875 
Q 6.59375 63.09375 13.40625 68.65625 
Q 20.21875 74.21875 32.171875 74.21875 
Q 37.3125 74.21875 42.625 73.28125 
Q 47.953125 72.359375 53.515625 70.515625 
z
" id="DejaVuSans-53"/>
     <path d="M 56.203125 29.59375 
L 56.203125 25.203125 
L 14.890625 25.203125 
Q 15.484375 15.921875 20.484375 11.0625 
Q 25.484375 6.203125 34.421875 6.203125 
Q 39.59375 6.203125 44.453125 7.46875 
Q 49.3125 8.734375 54.109375 11.28125 
L 54.109375 2.78125 
Q 49.265625 0.734375 44.1875 -0.34375 
Q 39.109375 -1.421875 33.890625 -1.421875 
Q 20.796875 -1.421875 13.15625 6.1875 
Q 5.515625 13.8125 5.515625 26.8125 
Q 5.515625 40.234375 12.765625 48.109375 
Q 20.015625 56 32.328125 56 
Q 43.359375 56 49.78125 48.890625 
Q 56.203125 41.796875 56.203125 29.59375 
z
M 47.21875 32.234375 
Q 47.125 39.59375 43.09375 43.984375 
Q 39.0625 48.390625 32.421875 48.390625 
Q 24.90625 48.390625 20.390625 44.140625 
Q 15.875 39.890625 15.1875 32.171875 
z
" id="DejaVuSans-65"/>
     <path d="M 41.109375 46.296875 
Q 39.59375 47.171875 37.8125 47.578125 
Q 36.03125 48 33.890625 48 
Q 26.265625 48 22.1875 43.046875 
Q 18.109375 38.09375 18.109375 28.8125 
L 18.109375 0 
L 9.078125 0 
L 9.078125 54.6875 
L 18.109375 54.6875 
L 18.109375 46.1875 
Q 20.953125 51.171875 25.484375 53.578125 
Q 30.03125 56 36.53125 56 
Q 37.453125 56 38.578125 55.875 
Q 39.703125 55.765625 41.0625 55.515625 
z
" id="DejaVuSans-72"/>
     <path d="M 9.421875 54.6875 
L 18.40625 54.6875 
L 18.40625 0 
L 9.421875 0 
z
M 9.421875 75.984375 
L 18.40625 75.984375 
L 18.40625 64.59375 
L 9.421875 64.59375 
z
" id="DejaVuSans-69"/>
     <path d="M 44.28125 53.078125 
L 44.28125 44.578125 
Q 40.484375 46.53125 36.375 47.5 
Q 32.28125 48.484375 27.875 48.484375 
Q 21.1875 48.484375 17.84375 46.4375 
Q 14.5 44.390625 14.5 40.28125 
Q 14.5 37.15625 16.890625 35.375 
Q 19.28125 33.59375 26.515625 31.984375 
L 29.59375 31.296875 
Q 39.15625 29.25 43.1875 25.515625 
Q 47.21875 21.78125 47.21875 15.09375 
Q 47.21875 7.46875 41.1875 3.015625 
Q 35.15625 -1.421875 24.609375 -1.421875 
Q 20.21875 -1.421875 15.453125 -0.5625 
Q 10.6875 0.296875 5.421875 2 
L 5.421875 11.28125 
Q 10.40625 8.6875 15.234375 7.390625 
Q 20.0625 6.109375 24.8125 6.109375 
Q 31.15625 6.109375 34.5625 8.28125 
Q 37.984375 10.453125 37.984375 14.40625 
Q 37.984375 18.0625 35.515625 20.015625 
Q 33.0625 21.96875 24.703125 23.78125 
L 21.578125 24.515625 
Q 13.234375 26.265625 9.515625 29.90625 
Q 5.8125 33.546875 5.8125 39.890625 
Q 5.8125 47.609375 11.28125 51.796875 
Q 16.75 56 26.8125 56 
Q 31.78125 56 36.171875 55.265625 
Q 40.578125 54.546875 44.28125 53.078125 
z
" id="DejaVuSans-73"/>
     <path id="DejaVuSans-20"/>
     <path d="M 45.40625 46.390625 
L 45.40625 75.984375 
L 54.390625 75.984375 
L 54.390625 0 
L 45.40625 0 
L 45.40625 8.203125 
Q 42.578125 3.328125 38.25 0.953125 
Q 33.9375 -1.421875 27.875 -1.421875 
Q 17.96875 -1.421875 11.734375 6.484375 
Q 5.515625 14.40625 5.515625 27.296875 
Q 5.515625 40.1875 11.734375 48.09375 
Q 17.96875 56 27.875 56 
Q 33.9375 56 38.25 53.625 
Q 42.578125 51.265625 45.40625 46.390625 
z
M 14.796875 27.296875 
Q 14.796875 17.390625 18.875 11.75 
Q 22.953125 6.109375 30.078125 6.109375 
Q 37.203125 6.109375 41.296875 11.75 
Q 45.40625 17.390625 45.40625 27.296875 
Q 45.40625 37.203125 41.296875 42.84375 
Q 37.203125 48.484375 30.078125 48.484375 
Q 22.953125 48.484375 18.875 42.84375 
Q 14.796875 37.203125 14.796875 27.296875 
z
" id="DejaVuSans-64"/>
     <path d="M 18.3125 70.21875 
L 18.3125 54.6875 
L 36.8125 54.6875 
L 36.8125 47.703125 
L 18.3125 47.703125 
L 18.3125 18.015625 
Q 18.3125 11.328125 20.140625 9.421875 
Q 21.96875 7.515625 27.59375 7.515625 
L 36.8125 7.515625 
L 36.8125 0 
L 27.59375 0 
Q 17.1875 0 13.234375 3.875 
Q 9.28125 7.765625 9.28125 18.015625 
L 9.28125 47.703125 
L 2.6875 47.703125 
L 2.6875 54.6875 
L 9.28125 54.6875 
L 9.28125 70.21875 
z
" id="DejaVuSans-74"/>
     <path d="M 48.78125 52.59375 
L 48.78125 44.1875 
Q 44.96875 46.296875 41.140625 47.34375 
Q 37.3125 48.390625 33.40625 48.390625 
Q 24.65625 48.390625 19.8125 42.84375 
Q 14.984375 37.3125 14.984375 27.296875 
Q 14.984375 17.28125 19.8125 11.734375 
Q 24.65625 6.203125 33.40625 6.203125 
Q 37.3125 6.203125 41.140625 7.25 
Q 44.96875 8.296875 48.78125 10.40625 
L 48.78125 2.09375 
Q 45.015625 0.34375 40.984375 -0.53125 
Q 36.96875 -1.421875 32.421875 -1.421875 
Q 20.0625 -1.421875 12.78125 6.34375 
Q 5.515625 14.109375 5.515625 27.296875 
Q 5.515625 40.671875 12.859375 48.328125 
Q 20.21875 56 33.015625 56 
Q 37.15625 56 41.109375 55.140625 
Q 45.0625 54.296875 48.78125 52.59375 
z
" id="DejaVuSans-63"/>
    </defs>
    <g transform="translate(214.672813 19.44)scale(0.12 -0.12)">
     <use xlink:href="#DejaVuSans-53"/>
     <use x="63.476562" xlink:href="#DejaVuSans-65"/>
     <use x="125" xlink:href="#DejaVuSans-72"/>
     <use x="166.113281" xlink:href="#DejaVuSans-69"/>
     <use x="193.896484" xlink:href="#DejaVuSans-65"/>
     <use x="255.419922" xlink:href="#DejaVuSans-73"/>
     <use x="307.519531" xlink:href="#DejaVuSans-20"/>
     <use x="339.306641" xlink:href="#DejaVuSans-64"/>
     <use x="402.783203" xlink:href="#DejaVuSans-69"/>
     <use x="430.566406" xlink:href="#DejaVuSans-73"/>
     <use x="482.666016" xlink:href="#DejaVuSans-74"/>
     <use x="521.875" xlink:href="#DejaVuSans-72"/>
     <use x="562.988281" xlink:href="#DejaVuSans-69"/>
     <use x="590.771484" xlink:href="#DejaVuSans-63"/>
     <use x="645.751953" xlink:href="#DejaVuSans-74"/>
    </g>
   </g>
  </g>
  <g id="axes_2">
   <g id="patch_7">
    <path d="M 64.06 276.48 
L 447.48 276.48 
L 447.48 162.967456 
L 64.06 162.967456 
z
" style="fill:#ffffff;"/>
   </g>
   <g id="matplotlib.axis_3">
    <g id="xtick_10">
     <g id="line2d_22">
      <g>
       <use style="stroke:#000000;stroke-width:0.8;" x="70.595568" xlink:href="#mb54d6b064d" y="276.48"/>
      </g>
     </g>
     <g id="text_6">
      <!-- 31-12-2013 -->
      <defs>
       <path d="M 40.578125 39.3125 
Q 47.65625 37.796875 51.625 33 
Q 55.609375 28.21875 55.609375 21.1875 
Q 55.609375 10.40625 48.1875 4.484375 
Q 40.765625 -1.421875 27.09375 -1.421875 
Q 22.515625 -1.421875 17.65625 -0.515625 
Q 12.796875 0.390625 7.625 2.203125 
L 7.625 11.71875 
Q 11.71875 9.328125 16.59375 8.109375 
Q 21.484375 6.890625 26.8125 6.890625 
Q 36.078125 6.890625 40.9375 10.546875 
Q 45.796875 14.203125 45.796875 21.1875 
Q 45.796875 27.640625 41.28125 31.265625 
Q 36.765625 34.90625 28.71875 34.90625 
L 20.21875 34.90625 
L 20.21875 43.015625 
L 29.109375 43.015625 
Q 36.375 43.015625 40.234375 45.921875 
Q 44.09375 48.828125 44.09375 54.296875 
Q 44.09375 59.90625 40.109375 62.90625 
Q 36.140625 65.921875 28.71875 65.921875 
Q 24.65625 65.921875 20.015625 65.03125 
Q 15.375 64.15625 9.8125 62.3125 
L 9.8125 71.09375 
Q 15.4375 72.65625 20.34375 73.4375 
Q 25.25 74.21875 29.59375 74.21875 
Q 40.828125 74.21875 47.359375 69.109375 
Q 53.90625 64.015625 53.90625 55.328125 
Q 53.90625 49.265625 50.4375 45.09375 
Q 46.96875 40.921875 40.578125 39.3125 
z
" id="DejaVuSans-33"/>
       <path d="M 4.890625 31.390625 
L 31.203125 31.390625 
L 31.203125 23.390625 
L 4.890625 23.390625 
z
" id="DejaVuSans-2d"/>
      </defs>
      <g transform="translate(19.226117 319.118252)rotate(-30)scale(0.1 -0.1)">
       <use xlink:href="#DejaVuSans-33"/>
       <use x="63.623047" xlink:href="#DejaVuSans-31"/>
       <use x="127.246094" xlink:href="#DejaVuSans-2d"/>
       <use x="163.330078" xlink:href="#DejaVuSans-31"/>
       <use x="226.953125" xlink:href="#DejaVuSans-32"/>
       <use x="290.576172" xlink:href="#DejaVuSans-2d"/>
       <use x="326.660156" xlink:href="#DejaVuSans-32"/>
       <use x="390.283203" xlink:href="#DejaVuSans-30"/>
       <use x="453.90625" xlink:href="#DejaVuSans-31"/>
       <use x="517.529297" xlink:href="#DejaVuSans-33"/>
      </g>
     </g>
    </g>
    <g id="xtick_11">
     <g id="line2d_23">
      <g>
       <use style="stroke:#000000;stroke-width:0.8;" x="114.166023" xlink:href="#mb54d6b064d" y="276.48"/>
      </g>
     </g>
     <g id="text_7">
      <!-- 01-01-2014 -->
      <defs>
       <path d="M 37.796875 64.3125 
L 12.890625 25.390625 
L 37.796875 25.390625 
z
M 35.203125 72.90625 
L 47.609375 72.90625 
L 47.609375 25.390625 
L 58.015625 25.390625 
L 58.015625 17.1875 
L 47.609375 17.1875 
L 47.609375 0 
L 37.796875 0 
L 37.796875 17.1875 
L 4.890625 17.1875 
L 4.890625 26.703125 
z
" id="DejaVuSans-34"/>
      </defs>
      <g transform="translate(62.796571 319.118252)rotate(-30)scale(0.1 -0.1)">
       <use xlink:href="#DejaVuSans-30"/>
       <use x="63.623047" xlink:href="#DejaVuSans-31"/>
       <use x="127.246094" xlink:href="#DejaVuSans-2d"/>
       <use x="163.330078" xlink:href="#DejaVuSans-30"/>
       <use x="226.953125" xlink:href="#DejaVuSans-31"/>
       <use x="290.576172" xlink:href="#DejaVuSans-2d"/>
       <use x="326.660156" xlink:href="#DejaVuSans-32"/>
       <use x="390.283203" xlink:href="#DejaVuSans-30"/>
       <use x="453.90625" xlink:href="#DejaVuSans-31"/>
       <use x="517.529297" xlink:href="#DejaVuSans-34"/>
      </g>
     </g>
    </g>
    <g id="xtick_12">
     <g id="line2d_24">
      <g>
       <use style="stroke:#000000;stroke-width:0.8;" x="157.736477" xlink:href="#mb54d6b064d" y="276.48"/>
      </g>
     </g>
     <g id="text_8">
      <!-- 01-01-2014 -->
      <g transform="translate(106.367026 319.118252)rotate(-30)scale(0.1 -0.1)">
       <use xlink:href="#DejaVuSans-30"/>
       <use x="63.623047" xlink:href="#DejaVuSans-31"/>
       <use x="127.246094" xlink:href="#DejaVuSans-2d"/>
       <use x="163.330078" xlink:href="#DejaVuSans-30"/>
       <use x="226.953125" xlink:href="#DejaVuSans-31"/>
       <use x="290.576172" xlink:href="#DejaVuSans-2d"/>
       <use x="326.660156" xlink:href="#DejaVuSans-32"/>
       <use x="390.283203" xlink:href="#DejaVuSans-30"/>
       <use x="453.90625" xlink:href="#DejaVuSans-31"/>
       <use x="517.529297" xlink:href="#DejaVuSans-34"/>
      </g>
     </g>
    </g>
    <g id="xtick_13">
     <g id="line2d_25">
      <g>
       <use style="stroke:#000000;stroke-width:0.8;" x="201.306932" xlink:href="#mb54d6b064d" y="276.48"/>
      </g>
     </g>
     <g id="text_9">
      <!-- 02-01-2014 -->
      <g transform="translate(149.93748 319.118252)rotate(-30)scale(0.1 -0.1)">
       <use xlink:href="#DejaVuSans-30"/>
       <use x="63.623047" xlink:href="#DejaVuSans-32"/>
       <use x="127.246094" xlink:href="#DejaVuSans-2d"/>
       <use x="163.330078" xlink:href="#DejaVuSans-30"/>
       <use x="226.953125" xlink:href="#DejaVuSans-31"/>
       <use x="290.576172" xlink:href="#DejaVuSans-2d"/>
       <use x="326.660156" xlink:href="#DejaVuSans-32"/>
       <use x="390.283203" xlink:href="#DejaVuSans-30"/>
       <use x="453.90625" xlink:href="#DejaVuSans-31"/>
       <use x="517.529297" xlink:href="#DejaVuSans-34"/>
      </g>
     </g>
    </g>
    <g id="xtick_14">
     <g id="line2d_26">
      <g>
       <use style="stroke:#000000;stroke-width:0.8;" x="244.877386" xlink:href="#mb54d6b064d" y="276.48"/>
      </g>
     </g>
     <g id="text_10">
      <!-- 02-01-2014 -->
      <g transform="translate(193.507935 319.118252)rotate(-30)scale(0.1 -0.1)">
       <use xlink:href="#DejaVuSans-30"/>
       <use x="63.623047" xlink:href="#DejaVuSans-32"/>
       <use x="127.246094" xlink:href="#DejaVuSans-2d"/>
       <use x="163.330078" xlink:href="#DejaVuSans-30"/>
       <use x="226.953125" xlink:href="#DejaVuSans-31"/>
       <use x="290.576172" xlink:href="#DejaVuSans-2d"/>
       <use x="326.660156" xlink:href="#DejaVuSans-32"/>
       <use x="390.283203" xlink:href="#DejaVuSans-30"/>
       <use x="453.90625" xlink:href="#DejaVuSans-31"/>
       <use x="517.529297" xlink:href="#DejaVuSans-34"/>
      </g>
     </g>
    </g>
    <g id="xtick_15">
     <g id="line2d_27">
      <g>
       <use style="stroke:#000000;stroke-width:0.8;" x="288.447841" xlink:href="#mb54d6b064d" y="276.48"/>
      </g>
     </g>
     <g id="text_11">
      <!-- 03-01-2014 -->
      <g transform="translate(237.07839 319.118252)rotate(-30)scale(0.1 -0.1)">
       <use xlink:href="#DejaVuSans-30"/>
       <use x="63.623047" xlink:href="#DejaVuSans-33"/>
       <use x="127.246094" xlink:href="#DejaVuSans-2d"/>
       <use x="163.330078" xlink:href="#DejaVuSans-30"/>
       <use x="226.953125" xlink:href="#DejaVuSans-31"/>
       <use x="290.576172" xlink:href="#DejaVuSans-2d"/>
       <use x="326.660156" xlink:href="#DejaVuSans-32"/>
       <use x="390.283203" xlink:href="#DejaVuSans-30"/>
       <use x="453.90625" xlink:href="#DejaVuSans-31"/>
       <use x="517.529297" xlink:href="#DejaVuSans-34"/>
      </g>
     </g>
    </g>
    <g id="xtick_16">
     <g id="line2d_28">
      <g>
       <use style="stroke:#000000;stroke-width:0.8;" x="332.018295" xlink:href="#mb54d6b064d" y="276.48"/>
      </g>
     </g>
     <g id="text_12">
      <!-- 03-01-2014 -->
      <g transform="translate(280.648844 319.118252)rotate(-30)scale(0.1 -0.1)">
       <use xlink:href="#DejaVuSans-30"/>
       <use x="63.623047" xlink:href="#DejaVuSans-33"/>
       <use x="127.246094" xlink:href="#DejaVuSans-2d"/>
       <use x="163.330078" xlink:href="#DejaVuSans-30"/>
       <use x="226.953125" xlink:href="#DejaVuSans-31"/>
       <use x="290.576172" xlink:href="#DejaVuSans-2d"/>
       <use x="326.660156" xlink:href="#DejaVuSans-32"/>
       <use x="390.283203" xlink:href="#DejaVuSans-30"/>
       <use x="453.90625" xlink:href="#DejaVuSans-31"/>
       <use x="517.529297" xlink:href="#DejaVuSans-34"/>
      </g>
     </g>
    </g>
    <g id="xtick_17">
     <g id="line2d_29">
      <g>
       <use style="stroke:#000000;stroke-width:0.8;" x="375.58875" xlink:href="#mb54d6b064d" y="276.48"/>
      </g>
     </g>
     <g id="text_13">
      <!-- 04-01-2014 -->
      <g transform="translate(324.219299 319.118252)rotate(-30)scale(0.1 -0.1)">
       <use xlink:href="#DejaVuSans-30"/>
       <use x="63.623047" xlink:href="#DejaVuSans-34"/>
       <use x="127.246094" xlink:href="#DejaVuSans-2d"/>
       <use x="163.330078" xlink:href="#DejaVuSans-30"/>
       <use x="226.953125" xlink:href="#DejaVuSans-31"/>
       <use x="290.576172" xlink:href="#DejaVuSans-2d"/>
       <use x="326.660156" xlink:href="#DejaVuSans-32"/>
       <use x="390.283203" xlink:href="#DejaVuSans-30"/>
       <use x="453.90625" xlink:href="#DejaVuSans-31"/>
       <use x="517.529297" xlink:href="#DejaVuSans-34"/>
      </g>
     </g>
    </g>
    <g id="xtick_18">
     <g id="line2d_30">
      <g>
       <use style="stroke:#000000;stroke-width:0.8;" x="419.159205" xlink:href="#mb54d6b064d" y="276.48"/>
      </g>
     </g>
     <g id="text_14">
      <!-- 04-01-2014 -->
      <g transform="translate(367.789753 319.118252)rotate(-30)scale(0.1 -0.1)">
       <use xlink:href="#DejaVuSans-30"/>
       <use x="63.623047" xlink:href="#DejaVuSans-34"/>
       <use x="127.246094" xlink:href="#DejaVuSans-2d"/>
       <use x="163.330078" xlink:href="#DejaVuSans-30"/>
       <use x="226.953125" xlink:href="#DejaVuSans-31"/>
       <use x="290.576172" xlink:href="#DejaVuSans-2d"/>
       <use x="326.660156" xlink:href="#DejaVuSans-32"/>
       <use x="390.283203" xlink:href="#DejaVuSans-30"/>
       <use x="453.90625" xlink:href="#DejaVuSans-31"/>
       <use x="517.529297" xlink:href="#DejaVuSans-34"/>
      </g>
     </g>
    </g>
   </g>
   <g id="matplotlib.axis_4">
    <g id="ytick_5">
     <g id="line2d_31">
      <g>
       <use style="stroke:#000000;stroke-width:0.8;" x="64.06" xlink:href="#md35f948e3b" y="257.903422"/>
      </g>
     </g>
     <g id="text_15">
      <!-- −100000 -->
      <g transform="translate(10.505313 261.702641)scale(0.1 -0.1)">
       <use xlink:href="#DejaVuSans-2212"/>
       <use x="83.789062" xlink:href="#DejaVuSans-31"/>
       <use x="147.412109" xlink:href="#DejaVuSans-30"/>
       <use x="211.035156" xlink:href="#DejaVuSans-30"/>
       <use x="274.658203" xlink:href="#DejaVuSans-30"/>
       <use x="338.28125" xlink:href="#DejaVuSans-30"/>
       <use x="401.904297" xlink:href="#DejaVuSans-30"/>
      </g>
     </g>
    </g>
    <g id="ytick_6">
     <g id="line2d_32">
      <g>
       <use style="stroke:#000000;stroke-width:0.8;" x="64.06" xlink:href="#md35f948e3b" y="233.05898"/>
      </g>
     </g>
     <g id="text_16">
      <!-- 0 -->
      <g transform="translate(50.6975 236.858199)scale(0.1 -0.1)">
       <use xlink:href="#DejaVuSans-30"/>
      </g>
     </g>
    </g>
    <g id="ytick_7">
     <g id="line2d_33">
      <g>
       <use style="stroke:#000000;stroke-width:0.8;" x="64.06" xlink:href="#md35f948e3b" y="208.214539"/>
      </g>
     </g>
     <g id="text_17">
      <!-- 100000 -->
      <g transform="translate(18.885 212.013757)scale(0.1 -0.1)">
       <use xlink:href="#DejaVuSans-31"/>
       <use x="63.623047" xlink:href="#DejaVuSans-30"/>
       <use x="127.246094" xlink:href="#DejaVuSans-30"/>
       <use x="190.869141" xlink:href="#DejaVuSans-30"/>
       <use x="254.492188" xlink:href="#DejaVuSans-30"/>
       <use x="318.115234" xlink:href="#DejaVuSans-30"/>
      </g>
     </g>
    </g>
    <g id="ytick_8">
     <g id="line2d_34">
      <g>
       <use style="stroke:#000000;stroke-width:0.8;" x="64.06" xlink:href="#md35f948e3b" y="183.370097"/>
      </g>
     </g>
     <g id="text_18">
      <!-- 200000 -->
      <g transform="translate(18.885 187.169316)scale(0.1 -0.1)">
       <use xlink:href="#DejaVuSans-32"/>
       <use x="63.623047" xlink:href="#DejaVuSans-30"/>
       <use x="127.246094" xlink:href="#DejaVuSans-30"/>
       <use x="190.869141" xlink:href="#DejaVuSans-30"/>
       <use x="254.492188" xlink:href="#DejaVuSans-30"/>
       <use x="318.115234" xlink:href="#DejaVuSans-30"/>
      </g>
     </g>
    </g>
   </g>
   <g id="line2d_35">
    <path clip-path="url(#p11516afca2)" d="M 81.488182 233.05898 
L 102.365691 233.05898 
L 103.273409 233.206715 
L 104.181127 233.05898 
L 114.166023 233.05898 
L 115.073741 232.831263 
L 115.981458 233.05898 
L 148.659299 233.059653 
L 149.567017 225.154368 
L 150.474735 224.799253 
L 151.382453 224.837013 
L 152.29017 224.623154 
L 153.197888 224.168901 
L 154.105606 224.301751 
L 155.921042 224.787439 
L 157.736477 225.148271 
L 158.644195 224.984384 
L 159.551913 225.175217 
L 160.459631 214.358758 
L 161.367348 213.211211 
L 162.275066 211.862246 
L 163.182784 211.911825 
L 164.090502 210.768215 
L 164.99822 191.669378 
L 165.905937 189.114745 
L 166.813655 185.22767 
L 167.721373 184.017984 
L 168.629091 183.028076 
L 169.536809 183.315353 
L 170.444527 182.344975 
L 171.352244 187.497882 
L 172.259962 185.95852 
L 173.16768 185.283188 
L 174.075398 183.842031 
L 175.890833 183.849763 
L 177.706269 170.966252 
L 178.613987 173.157867 
L 179.521705 169.177154 
L 180.429422 171.545497 
L 181.33714 169.612273 
L 182.244858 168.127117 
L 184.060294 168.458376 
L 184.968011 168.970154 
L 186.783447 173.088028 
L 187.691165 173.674644 
L 188.598883 173.622547 
L 189.5066 173.247208 
L 190.414318 181.47337 
L 191.322036 180.458467 
L 193.137472 180.676531 
L 194.045189 189.317023 
L 194.952907 193.271923 
L 195.860625 189.841446 
L 196.768343 193.365593 
L 197.676061 197.880531 
L 198.583778 208.15641 
L 199.491496 210.030225 
L 200.399214 214.067135 
L 201.306932 222.74682 
L 202.21465 229.096838 
L 203.122367 229.142807 
L 204.030085 224.281929 
L 204.937803 226.700087 
L 205.845521 226.408756 
L 206.753239 230.650609 
L 207.660956 234.164835 
L 208.568674 231.652804 
L 209.476392 227.810849 
L 210.38411 227.936693 
L 211.291828 223.841164 
L 212.199545 226.123861 
L 213.107263 230.327346 
L 214.014981 232.636618 
L 214.922699 234.45059 
L 215.830417 231.95727 
L 216.738134 233.278947 
L 217.645852 234.158159 
L 218.55357 233.687083 
L 219.461288 271.320339 
L 220.369006 268.89109 
L 223.092159 266.013662 
L 224.907595 264.445436 
L 225.815312 263.571768 
L 227.630748 262.131019 
L 228.538466 262.131363 
L 229.446184 260.928845 
L 233.984773 257.712865 
L 235.800208 256.60679 
L 242.154233 253.132425 
L 251.231411 248.726632 
L 253.046847 247.896459 
L 253.954564 246.237999 
L 254.862282 245.470874 
L 255.77 244.926092 
L 256.677718 244.725146 
L 257.585436 244.138945 
L 258.493153 245.647873 
L 261.216307 243.556165 
L 263.031742 242.974514 
L 263.93946 240.664094 
L 265.754896 240.306325 
L 266.662614 239.043814 
L 267.570331 240.083472 
L 268.478049 239.400391 
L 269.385767 234.129233 
L 273.924356 234.002762 
L 274.832074 234.667173 
L 275.739792 235.823174 
L 276.647509 235.138915 
L 277.555227 239.711942 
L 278.462945 239.148865 
L 280.278381 238.858743 
L 282.093816 241.889007 
L 283.001534 242.567365 
L 289.355559 241.01027 
L 294.801866 239.919614 
L 301.15589 238.874256 
L 308.417633 237.910534 
L 316.587093 237.049952 
L 326.571989 236.236876 
L 338.37232 235.520265 
L 342.910909 235.298008 
L 343.818627 234.28243 
L 347.449498 234.187169 
L 348.357216 234.324841 
L 349.264934 234.207757 
L 350.172652 234.227484 
L 351.988087 234.079607 
L 355.618958 234.001838 
L 356.526676 233.763989 
L 357.434394 233.813519 
L 358.342112 233.975066 
L 363.788419 233.85667 
L 364.696136 235.014739 
L 401.004848 233.960781 
L 427.328665 233.631583 
L 429.1441 233.61513 
L 430.051818 233.05898 
L 430.051818 233.05898 
" style="fill:none;stroke:#0000ff;stroke-linecap:square;stroke-width:2;"/>
   </g>
   <g id="line2d_36">
    <path clip-path="url(#p11516afca2)" d="M 219.461288 276.48 
L 219.461288 162.967456 
" style="fill:none;stroke:#000000;stroke-dasharray:2,3.3;stroke-dashoffset:0;stroke-width:2;"/>
   </g>
   <g id="line2d_37">
    <path clip-path="url(#p11516afca2)" d="M 81.488182 233.05898 
L 102.365691 233.05898 
L 103.273409 233.206715 
L 104.181127 233.05898 
L 114.166023 233.05898 
L 115.073741 232.831263 
L 115.981458 233.05898 
L 148.659299 233.059653 
L 149.567017 225.154368 
L 150.474735 224.799253 
L 151.382453 224.837013 
L 152.29017 224.623154 
L 153.197888 224.168901 
L 154.105606 224.301751 
L 155.921042 224.787439 
L 157.736477 225.148271 
L 158.644195 224.984384 
L 159.551913 225.175217 
L 160.459631 214.358758 
L 161.367348 213.211211 
L 162.275066 211.862246 
L 163.182784 211.911825 
L 164.090502 210.768215 
L 164.99822 191.669378 
L 165.905937 189.114745 
L 166.813655 185.22767 
L 167.721373 184.017984 
L 168.629091 183.028076 
L 169.536809 183.315353 
L 170.444527 182.344975 
L 171.352244 187.497882 
L 172.259962 185.95852 
L 173.16768 185.283188 
L 174.075398 183.842031 
L 175.890833 183.849763 
L 177.706269 170.966252 
L 178.613987 173.157867 
L 179.521705 169.177154 
L 180.429422 171.545497 
L 181.33714 169.612273 
L 182.244858 168.127117 
L 184.060294 168.458376 
L 184.968011 168.970154 
L 186.783447 173.088028 
L 187.691165 173.674644 
L 188.598883 173.622547 
L 189.5066 173.247208 
L 190.414318 181.47337 
L 191.322036 180.458467 
L 193.137472 180.676531 
L 194.045189 189.317023 
L 194.952907 193.271923 
L 195.860625 189.841446 
L 196.768343 193.365593 
L 197.676061 197.880531 
L 198.583778 208.15641 
L 199.491496 210.030225 
L 200.399214 214.067135 
L 201.306932 222.74682 
L 202.21465 229.096838 
L 203.122367 229.142807 
L 204.030085 224.281929 
L 204.937803 226.700087 
L 205.845521 226.408756 
L 206.753239 230.650609 
L 207.660956 234.164835 
L 208.568674 231.652804 
L 209.476392 227.810849 
L 210.38411 227.936693 
L 211.291828 223.841164 
L 212.199545 226.123861 
L 213.107263 230.327346 
L 214.014981 232.636618 
L 214.922699 234.45059 
L 215.830417 231.95727 
L 216.738134 233.278947 
L 217.645852 234.158159 
L 218.55357 233.687083 
L 219.461288 271.320339 
L 220.369006 268.89109 
L 223.092159 266.013662 
L 224.907595 264.445436 
L 225.815312 263.571768 
L 227.630748 262.131019 
L 228.538466 262.131363 
L 229.446184 260.928845 
L 233.984773 257.712865 
L 235.800208 256.60679 
L 242.154233 253.132425 
L 251.231411 248.726632 
L 253.046847 247.896459 
L 253.954564 246.237999 
L 254.862282 245.470874 
L 255.77 244.926092 
L 256.677718 244.725146 
L 257.585436 244.138945 
L 258.493153 245.647873 
L 261.216307 243.556165 
L 263.031742 242.974514 
L 263.93946 240.664094 
L 265.754896 240.306325 
L 266.662614 239.043814 
L 267.570331 240.083472 
L 268.478049 239.400391 
L 269.385767 234.129233 
L 273.924356 234.002762 
L 274.832074 234.667173 
L 275.739792 235.823174 
L 276.647509 235.138915 
L 277.555227 239.711942 
L 278.462945 239.148865 
L 280.278381 238.858743 
L 282.093816 241.889007 
L 283.001534 242.567365 
L 289.355559 241.01027 
L 294.801866 239.919614 
L 301.15589 238.874256 
L 308.417633 237.910534 
L 316.587093 237.049952 
L 326.571989 236.236876 
L 338.37232 235.520265 
L 342.910909 235.298008 
L 343.818627 234.28243 
L 347.449498 234.187169 
L 348.357216 234.324841 
L 349.264934 234.207757 
L 350.172652 234.227484 
L 351.988087 234.079607 
L 355.618958 234.001838 
L 356.526676 233.763989 
L 357.434394 233.813519 
L 358.342112 233.975066 
L 363.788419 233.85667 
L 364.696136 235.014739 
L 401.004848 233.960781 
L 427.328665 233.631583 
L 429.1441 233.61513 
L 430.051818 233.05898 
L 430.051818 233.05898 
" style="fill:none;stroke:#008000;stroke-dasharray:7.4,3.2;stroke-dashoffset:0;stroke-width:2;"/>
   </g>
   <g id="line2d_38">
    <path clip-path="url(#p11516afca2)" d="M 219.461288 276.48 
L 219.461288 162.967456 
" style="fill:none;stroke:#000000;stroke-dasharray:2,3.3;stroke-dashoffset:0;stroke-width:2;"/>
   </g>
   <g id="line2d_39">
    <path clip-path="url(#p11516afca2)" d="M 81.488182 233.05898 
L 216.435562 233.05898 
L 216.738134 214.510732 
L 217.040707 214.510732 
L 217.34328 215.655055 
L 217.645852 218.239997 
L 218.250997 228.173276 
L 218.55357 230.718583 
L 218.856143 231.904572 
L 219.158715 232.431014 
L 219.461288 251.012755 
L 219.76386 251.102244 
L 220.066433 250.113943 
L 220.369006 247.600619 
L 220.974151 237.833094 
L 221.276723 235.232916 
L 221.579296 234.028565 
L 221.881869 233.476313 
L 222.487014 233.130963 
L 223.697304 233.060875 
L 253.349419 233.05898 
L 429.749246 233.05898 
L 429.749246 233.05898 
" style="fill:none;stroke:#ff0000;stroke-dasharray:12.8,3.2,2,3.2;stroke-dashoffset:0;stroke-width:2;"/>
   </g>
   <g id="line2d_40">
    <path clip-path="url(#p11516afca2)" d="M 219.461288 276.48 
L 219.461288 162.967456 
" style="fill:none;stroke:#000000;stroke-dasharray:2,3.3;stroke-dashoffset:0;stroke-width:2;"/>
   </g>
   <g id="line2d_41">
    <path clip-path="url(#p11516afca2)" d="M 81.488182 233.05898 
L 216.132989 233.05898 
L 216.435562 214.297749 
L 216.738134 214.584054 
L 218.55357 231.150126 
L 218.856143 232.027992 
L 219.158715 232.45279 
L 219.461288 238.555359 
L 220.066433 238.541278 
L 220.369006 239.589457 
L 220.974151 239.573651 
L 222.789586 234.758858 
L 223.697304 233.817739 
L 224.605022 233.62289 
L 224.907595 233.758731 
L 226.420458 233.682986 
L 226.72303 234.099317 
L 227.630748 234.012154 
L 228.235893 234.007465 
L 228.538466 234.463612 
L 229.143611 234.453978 
L 229.446184 234.192433 
L 230.353902 233.844844 
L 231.261619 233.418438 
L 232.169337 233.18208 
L 233.6822 233.076806 
L 240.338797 233.05898 
L 429.749246 233.05898 
L 429.749246 233.05898 
" style="fill:none;stroke:#00bfbf;stroke-dasharray:2,3.3;stroke-dashoffset:0;stroke-width:2;"/>
   </g>
   <g id="line2d_42">
    <path clip-path="url(#p11516afca2)" d="M 219.461288 276.48 
L 219.461288 162.967456 
" style="fill:none;stroke:#000000;stroke-dasharray:2,3.3;stroke-dashoffset:0;stroke-width:2;"/>
   </g>
   <g id="patch_8">
    <path d="M 64.06 276.48 
L 64.06 162.967456 
" style="fill:none;stroke:#000000;stroke-linecap:square;stroke-linejoin:miter;stroke-width:0.8;"/>
   </g>
   <g id="patch_9">
    <path d="M 447.48 276.48 
L 447.48 162.967456 
" style="fill:none;stroke:#000000;stroke-linecap:square;stroke-linejoin:miter;stroke-width:0.8;"/>
   </g>
   <g id="patch_10">
    <path d="M 64.06 276.48 
L 447.48 276.48 
" style="fill:none;stroke:#000000;stroke-linecap:square;stroke-linejoin:miter;stroke-width:0.8;"/>
   </g>
   <g id="patch_11">
    <path d="M 64.06 162.967456 
L 447.48 162.967456 
" style="fill:none;stroke:#000000;stroke-linecap:square;stroke-linejoin:miter;stroke-width:0.8;"/>
   </g>
   <g id="text_19">
    <!-- Parallel district -->
    <defs>
     <path d="M 19.671875 64.796875 
L 19.671875 37.40625 
L 32.078125 37.40625 
Q 38.96875 37.40625 42.71875 40.96875 
Q 46.484375 44.53125 46.484375 51.125 
Q 46.484375 57.671875 42.71875 61.234375 
Q 38.96875 64.796875 32.078125 64.796875 
z
M 9.8125 72.90625 
L 32.078125 72.90625 
Q 44.34375 72.90625 50.609375 67.359375 
Q 56.890625 61.8125 56.890625 51.125 
Q 56.890625 40.328125 50.609375 34.8125 
Q 44.34375 29.296875 32.078125 29.296875 
L 19.671875 29.296875 
L 19.671875 0 
L 9.8125 0 
z
" id="DejaVuSans-50"/>
     <path d="M 34.28125 27.484375 
Q 23.390625 27.484375 19.1875 25 
Q 14.984375 22.515625 14.984375 16.5 
Q 14.984375 11.71875 18.140625 8.90625 
Q 21.296875 6.109375 26.703125 6.109375 
Q 34.1875 6.109375 38.703125 11.40625 
Q 43.21875 16.703125 43.21875 25.484375 
L 43.21875 27.484375 
z
M 52.203125 31.203125 
L 52.203125 0 
L 43.21875 0 
L 43.21875 8.296875 
Q 40.140625 3.328125 35.546875 0.953125 
Q 30.953125 -1.421875 24.3125 -1.421875 
Q 15.921875 -1.421875 10.953125 3.296875 
Q 6 8.015625 6 15.921875 
Q 6 25.140625 12.171875 29.828125 
Q 18.359375 34.515625 30.609375 34.515625 
L 43.21875 34.515625 
L 43.21875 35.40625 
Q 43.21875 41.609375 39.140625 45 
Q 35.0625 48.390625 27.6875 48.390625 
Q 23 48.390625 18.546875 47.265625 
Q 14.109375 46.140625 10.015625 43.890625 
L 10.015625 52.203125 
Q 14.9375 54.109375 19.578125 55.046875 
Q 24.21875 56 28.609375 56 
Q 40.484375 56 46.34375 49.84375 
Q 52.203125 43.703125 52.203125 31.203125 
z
" id="DejaVuSans-61"/>
     <path d="M 9.421875 75.984375 
L 18.40625 75.984375 
L 18.40625 0 
L 9.421875 0 
z
" id="DejaVuSans-6c"/>
    </defs>
    <g transform="translate(210.997813 156.967456)scale(0.12 -0.12)">
     <use xlink:href="#DejaVuSans-50"/>
     <use x="60.240234" xlink:href="#DejaVuSans-61"/>
     <use x="121.519531" xlink:href="#DejaVuSans-72"/>
     <use x="162.632812" xlink:href="#DejaVuSans-61"/>
     <use x="223.912109" xlink:href="#DejaVuSans-6c"/>
     <use x="251.695312" xlink:href="#DejaVuSans-6c"/>
     <use x="279.478516" xlink:href="#DejaVuSans-65"/>
     <use x="341.001953" xlink:href="#DejaVuSans-6c"/>
     <use x="368.785156" xlink:href="#DejaVuSans-20"/>
     <use x="400.572266" xlink:href="#DejaVuSans-64"/>
     <use x="464.048828" xlink:href="#DejaVuSans-69"/>
     <use x="491.832031" xlink:href="#DejaVuSans-73"/>
     <use x="543.931641" xlink:href="#DejaVuSans-74"/>
     <use x="583.140625" xlink:href="#DejaVuSans-72"/>
     <use x="624.253906" xlink:href="#DejaVuSans-69"/>
     <use x="652.037109" xlink:href="#DejaVuSans-63"/>
     <use x="707.017578" xlink:href="#DejaVuSans-74"/>
    </g>
   </g>
  </g>
  <g id="legend_1">
   <g id="patch_12">
    <path d="M 298.085938 66.7125 
L 453.8 66.7125 
Q 455.8 66.7125 455.8 64.7125 
L 455.8 7 
Q 455.8 5 453.8 5 
L 298.085938 5 
Q 296.085938 5 296.085938 7 
L 296.085938 64.7125 
Q 296.085938 66.7125 298.085938 66.7125 
z
" style="fill:#ffffff;opacity:0.8;stroke:#cccccc;stroke-linejoin:miter;"/>
   </g>
   <g id="line2d_43">
    <path d="M 300.085938 13.098438 
L 320.085938 13.098438 
" style="fill:none;stroke:#0000ff;stroke-linecap:square;stroke-width:2;"/>
   </g>
   <g id="line2d_44"/>
   <g id="text_20">
    <!-- Buildings - ideal network -->
    <defs>
     <path d="M 19.671875 34.8125 
L 19.671875 8.109375 
L 35.5 8.109375 
Q 43.453125 8.109375 47.28125 11.40625 
Q 51.125 14.703125 51.125 21.484375 
Q 51.125 28.328125 47.28125 31.5625 
Q 43.453125 34.8125 35.5 34.8125 
z
M 19.671875 64.796875 
L 19.671875 42.828125 
L 34.28125 42.828125 
Q 41.5 42.828125 45.03125 45.53125 
Q 48.578125 48.25 48.578125 53.8125 
Q 48.578125 59.328125 45.03125 62.0625 
Q 41.5 64.796875 34.28125 64.796875 
z
M 9.8125 72.90625 
L 35.015625 72.90625 
Q 46.296875 72.90625 52.390625 68.21875 
Q 58.5 63.53125 58.5 54.890625 
Q 58.5 48.1875 55.375 44.234375 
Q 52.25 40.28125 46.1875 39.3125 
Q 53.46875 37.75 57.5 32.78125 
Q 61.53125 27.828125 61.53125 20.40625 
Q 61.53125 10.640625 54.890625 5.3125 
Q 48.25 0 35.984375 0 
L 9.8125 0 
z
" id="DejaVuSans-42"/>
     <path d="M 8.5 21.578125 
L 8.5 54.6875 
L 17.484375 54.6875 
L 17.484375 21.921875 
Q 17.484375 14.15625 20.5 10.265625 
Q 23.53125 6.390625 29.59375 6.390625 
Q 36.859375 6.390625 41.078125 11.03125 
Q 45.3125 15.671875 45.3125 23.6875 
L 45.3125 54.6875 
L 54.296875 54.6875 
L 54.296875 0 
L 45.3125 0 
L 45.3125 8.40625 
Q 42.046875 3.421875 37.71875 1 
Q 33.40625 -1.421875 27.6875 -1.421875 
Q 18.265625 -1.421875 13.375 4.4375 
Q 8.5 10.296875 8.5 21.578125 
z
M 31.109375 56 
z
" id="DejaVuSans-75"/>
     <path d="M 54.890625 33.015625 
L 54.890625 0 
L 45.90625 0 
L 45.90625 32.71875 
Q 45.90625 40.484375 42.875 44.328125 
Q 39.84375 48.1875 33.796875 48.1875 
Q 26.515625 48.1875 22.3125 43.546875 
Q 18.109375 38.921875 18.109375 30.90625 
L 18.109375 0 
L 9.078125 0 
L 9.078125 54.6875 
L 18.109375 54.6875 
L 18.109375 46.1875 
Q 21.34375 51.125 25.703125 53.5625 
Q 30.078125 56 35.796875 56 
Q 45.21875 56 50.046875 50.171875 
Q 54.890625 44.34375 54.890625 33.015625 
z
" id="DejaVuSans-6e"/>
     <path d="M 45.40625 27.984375 
Q 45.40625 37.75 41.375 43.109375 
Q 37.359375 48.484375 30.078125 48.484375 
Q 22.859375 48.484375 18.828125 43.109375 
Q 14.796875 37.75 14.796875 27.984375 
Q 14.796875 18.265625 18.828125 12.890625 
Q 22.859375 7.515625 30.078125 7.515625 
Q 37.359375 7.515625 41.375 12.890625 
Q 45.40625 18.265625 45.40625 27.984375 
z
M 54.390625 6.78125 
Q 54.390625 -7.171875 48.1875 -13.984375 
Q 42 -20.796875 29.203125 -20.796875 
Q 24.46875 -20.796875 20.265625 -20.09375 
Q 16.0625 -19.390625 12.109375 -17.921875 
L 12.109375 -9.1875 
Q 16.0625 -11.328125 19.921875 -12.34375 
Q 23.78125 -13.375 27.78125 -13.375 
Q 36.625 -13.375 41.015625 -8.765625 
Q 45.40625 -4.15625 45.40625 5.171875 
L 45.40625 9.625 
Q 42.625 4.78125 38.28125 2.390625 
Q 33.9375 0 27.875 0 
Q 17.828125 0 11.671875 7.65625 
Q 5.515625 15.328125 5.515625 27.984375 
Q 5.515625 40.671875 11.671875 48.328125 
Q 17.828125 56 27.875 56 
Q 33.9375 56 38.28125 53.609375 
Q 42.625 51.21875 45.40625 46.390625 
L 45.40625 54.6875 
L 54.390625 54.6875 
z
" id="DejaVuSans-67"/>
     <path d="M 4.203125 54.6875 
L 13.1875 54.6875 
L 24.421875 12.015625 
L 35.59375 54.6875 
L 46.1875 54.6875 
L 57.421875 12.015625 
L 68.609375 54.6875 
L 77.59375 54.6875 
L 63.28125 0 
L 52.6875 0 
L 40.921875 44.828125 
L 29.109375 0 
L 18.5 0 
z
" id="DejaVuSans-77"/>
     <path d="M 30.609375 48.390625 
Q 23.390625 48.390625 19.1875 42.75 
Q 14.984375 37.109375 14.984375 27.296875 
Q 14.984375 17.484375 19.15625 11.84375 
Q 23.34375 6.203125 30.609375 6.203125 
Q 37.796875 6.203125 41.984375 11.859375 
Q 46.1875 17.53125 46.1875 27.296875 
Q 46.1875 37.015625 41.984375 42.703125 
Q 37.796875 48.390625 30.609375 48.390625 
z
M 30.609375 56 
Q 42.328125 56 49.015625 48.375 
Q 55.71875 40.765625 55.71875 27.296875 
Q 55.71875 13.875 49.015625 6.21875 
Q 42.328125 -1.421875 30.609375 -1.421875 
Q 18.84375 -1.421875 12.171875 6.21875 
Q 5.515625 13.875 5.515625 27.296875 
Q 5.515625 40.765625 12.171875 48.375 
Q 18.84375 56 30.609375 56 
z
" id="DejaVuSans-6f"/>
     <path d="M 9.078125 75.984375 
L 18.109375 75.984375 
L 18.109375 31.109375 
L 44.921875 54.6875 
L 56.390625 54.6875 
L 27.390625 29.109375 
L 57.625 0 
L 45.90625 0 
L 18.109375 26.703125 
L 18.109375 0 
L 9.078125 0 
z
" id="DejaVuSans-6b"/>
    </defs>
    <g transform="translate(328.085938 16.598438)scale(0.1 -0.1)">
     <use xlink:href="#DejaVuSans-42"/>
     <use x="68.603516" xlink:href="#DejaVuSans-75"/>
     <use x="131.982422" xlink:href="#DejaVuSans-69"/>
     <use x="159.765625" xlink:href="#DejaVuSans-6c"/>
     <use x="187.548828" xlink:href="#DejaVuSans-64"/>
     <use x="251.025391" xlink:href="#DejaVuSans-69"/>
     <use x="278.808594" xlink:href="#DejaVuSans-6e"/>
     <use x="342.1875" xlink:href="#DejaVuSans-67"/>
     <use x="405.664062" xlink:href="#DejaVuSans-73"/>
     <use x="457.763672" xlink:href="#DejaVuSans-20"/>
     <use x="489.550781" xlink:href="#DejaVuSans-2d"/>
     <use x="525.634766" xlink:href="#DejaVuSans-20"/>
     <use x="557.421875" xlink:href="#DejaVuSans-69"/>
     <use x="585.205078" xlink:href="#DejaVuSans-64"/>
     <use x="648.681641" xlink:href="#DejaVuSans-65"/>
     <use x="710.205078" xlink:href="#DejaVuSans-61"/>
     <use x="771.484375" xlink:href="#DejaVuSans-6c"/>
     <use x="799.267578" xlink:href="#DejaVuSans-20"/>
     <use x="831.054688" xlink:href="#DejaVuSans-6e"/>
     <use x="894.433594" xlink:href="#DejaVuSans-65"/>
     <use x="955.957031" xlink:href="#DejaVuSans-74"/>
     <use x="995.166016" xlink:href="#DejaVuSans-77"/>
     <use x="1076.953125" xlink:href="#DejaVuSans-6f"/>
     <use x="1138.134766" xlink:href="#DejaVuSans-72"/>
     <use x="1179.248047" xlink:href="#DejaVuSans-6b"/>
    </g>
   </g>
   <g id="line2d_45">
    <path d="M 300.085938 27.776563 
L 320.085938 27.776563 
" style="fill:none;stroke:#008000;stroke-dasharray:7.4,3.2;stroke-dashoffset:0;stroke-width:2;"/>
   </g>
   <g id="line2d_46"/>
   <g id="text_21">
    <!-- Buildings -->
    <g transform="translate(328.085938 31.276563)scale(0.1 -0.1)">
     <use xlink:href="#DejaVuSans-42"/>
     <use x="68.603516" xlink:href="#DejaVuSans-75"/>
     <use x="131.982422" xlink:href="#DejaVuSans-69"/>
     <use x="159.765625" xlink:href="#DejaVuSans-6c"/>
     <use x="187.548828" xlink:href="#DejaVuSans-64"/>
     <use x="251.025391" xlink:href="#DejaVuSans-69"/>
     <use x="278.808594" xlink:href="#DejaVuSans-6e"/>
     <use x="342.1875" xlink:href="#DejaVuSans-67"/>
     <use x="405.664062" xlink:href="#DejaVuSans-73"/>
    </g>
   </g>
   <g id="line2d_47">
    <path d="M 300.085938 42.454688 
L 320.085938 42.454688 
" style="fill:none;stroke:#ff0000;stroke-dasharray:12.8,3.2,2,3.2;stroke-dashoffset:0;stroke-width:2;"/>
   </g>
   <g id="line2d_48"/>
   <g id="text_22">
    <!-- Network -->
    <defs>
     <path d="M 9.8125 72.90625 
L 23.09375 72.90625 
L 55.421875 11.921875 
L 55.421875 72.90625 
L 64.984375 72.90625 
L 64.984375 0 
L 51.703125 0 
L 19.390625 60.984375 
L 19.390625 0 
L 9.8125 0 
z
" id="DejaVuSans-4e"/>
    </defs>
    <g transform="translate(328.085938 45.954688)scale(0.1 -0.1)">
     <use xlink:href="#DejaVuSans-4e"/>
     <use x="74.804688" xlink:href="#DejaVuSans-65"/>
     <use x="136.328125" xlink:href="#DejaVuSans-74"/>
     <use x="175.537109" xlink:href="#DejaVuSans-77"/>
     <use x="257.324219" xlink:href="#DejaVuSans-6f"/>
     <use x="318.505859" xlink:href="#DejaVuSans-72"/>
     <use x="359.619141" xlink:href="#DejaVuSans-6b"/>
    </g>
   </g>
   <g id="line2d_49">
    <path d="M 300.085938 57.132813 
L 320.085938 57.132813 
" style="fill:none;stroke:#00bfbf;stroke-dasharray:2,3.3;stroke-dashoffset:0;stroke-width:2;"/>
   </g>
   <g id="line2d_50"/>
   <g id="text_23">
    <!-- Combined - LP -->
    <defs>
     <path d="M 64.40625 67.28125 
L 64.40625 56.890625 
Q 59.421875 61.53125 53.78125 63.8125 
Q 48.140625 66.109375 41.796875 66.109375 
Q 29.296875 66.109375 22.65625 58.46875 
Q 16.015625 50.828125 16.015625 36.375 
Q 16.015625 21.96875 22.65625 14.328125 
Q 29.296875 6.6875 41.796875 6.6875 
Q 48.140625 6.6875 53.78125 8.984375 
Q 59.421875 11.28125 64.40625 15.921875 
L 64.40625 5.609375 
Q 59.234375 2.09375 53.4375 0.328125 
Q 47.65625 -1.421875 41.21875 -1.421875 
Q 24.65625 -1.421875 15.125 8.703125 
Q 5.609375 18.84375 5.609375 36.375 
Q 5.609375 53.953125 15.125 64.078125 
Q 24.65625 74.21875 41.21875 74.21875 
Q 47.75 74.21875 53.53125 72.484375 
Q 59.328125 70.75 64.40625 67.28125 
z
" id="DejaVuSans-43"/>
     <path d="M 52 44.1875 
Q 55.375 50.25 60.0625 53.125 
Q 64.75 56 71.09375 56 
Q 79.640625 56 84.28125 50.015625 
Q 88.921875 44.046875 88.921875 33.015625 
L 88.921875 0 
L 79.890625 0 
L 79.890625 32.71875 
Q 79.890625 40.578125 77.09375 44.375 
Q 74.3125 48.1875 68.609375 48.1875 
Q 61.625 48.1875 57.5625 43.546875 
Q 53.515625 38.921875 53.515625 30.90625 
L 53.515625 0 
L 44.484375 0 
L 44.484375 32.71875 
Q 44.484375 40.625 41.703125 44.40625 
Q 38.921875 48.1875 33.109375 48.1875 
Q 26.21875 48.1875 22.15625 43.53125 
Q 18.109375 38.875 18.109375 30.90625 
L 18.109375 0 
L 9.078125 0 
L 9.078125 54.6875 
L 18.109375 54.6875 
L 18.109375 46.1875 
Q 21.1875 51.21875 25.484375 53.609375 
Q 29.78125 56 35.6875 56 
Q 41.65625 56 45.828125 52.96875 
Q 50 49.953125 52 44.1875 
z
" id="DejaVuSans-6d"/>
     <path d="M 48.6875 27.296875 
Q 48.6875 37.203125 44.609375 42.84375 
Q 40.53125 48.484375 33.40625 48.484375 
Q 26.265625 48.484375 22.1875 42.84375 
Q 18.109375 37.203125 18.109375 27.296875 
Q 18.109375 17.390625 22.1875 11.75 
Q 26.265625 6.109375 33.40625 6.109375 
Q 40.53125 6.109375 44.609375 11.75 
Q 48.6875 17.390625 48.6875 27.296875 
z
M 18.109375 46.390625 
Q 20.953125 51.265625 25.265625 53.625 
Q 29.59375 56 35.59375 56 
Q 45.5625 56 51.78125 48.09375 
Q 58.015625 40.1875 58.015625 27.296875 
Q 58.015625 14.40625 51.78125 6.484375 
Q 45.5625 -1.421875 35.59375 -1.421875 
Q 29.59375 -1.421875 25.265625 0.953125 
Q 20.953125 3.328125 18.109375 8.203125 
L 18.109375 0 
L 9.078125 0 
L 9.078125 75.984375 
L 18.109375 75.984375 
z
" id="DejaVuSans-62"/>
     <path d="M 9.8125 72.90625 
L 19.671875 72.90625 
L 19.671875 8.296875 
L 55.171875 8.296875 
L 55.171875 0 
L 9.8125 0 
z
" id="DejaVuSans-4c"/>
    </defs>
    <g transform="translate(328.085938 60.632813)scale(0.1 -0.1)">
     <use xlink:href="#DejaVuSans-43"/>
     <use x="69.824219" xlink:href="#DejaVuSans-6f"/>
     <use x="131.005859" xlink:href="#DejaVuSans-6d"/>
     <use x="228.417969" xlink:href="#DejaVuSans-62"/>
     <use x="291.894531" xlink:href="#DejaVuSans-69"/>
     <use x="319.677734" xlink:href="#DejaVuSans-6e"/>
     <use x="383.056641" xlink:href="#DejaVuSans-65"/>
     <use x="444.580078" xlink:href="#DejaVuSans-64"/>
     <use x="508.056641" xlink:href="#DejaVuSans-20"/>
     <use x="539.84375" xlink:href="#DejaVuSans-2d"/>
     <use x="575.927734" xlink:href="#DejaVuSans-20"/>
     <use x="607.714844" xlink:href="#DejaVuSans-4c"/>
     <use x="663.427734" xlink:href="#DejaVuSans-50"/>
    </g>
   </g>
  </g>
 </g>
 <defs>
  <clipPath id="p9c78158c6e">
   <rect height="113.512544" width="383.42" x="64.06" y="25.44"/>
  </clipPath>
  <clipPath id="p11516afca2">
   <rect height="113.512544" width="383.42" x="64.06" y="162.967456"/>
  </clipPath>
 </defs>
</svg>
