<?xml version="1.0" encoding="utf-8" standalone="no"?>
<!DOCTYPE svg PUBLIC "-//W3C//DTD SVG 1.1//EN"
  "http://www.w3.org/Graphics/SVG/1.1/DTD/svg11.dtd">
<!-- Created with matplotlib (http://matplotlib.org/) -->
<svg height="345pt" version="1.1" viewBox="0 0 460 345" width="460pt" xmlns="http://www.w3.org/2000/svg" xmlns:xlink="http://www.w3.org/1999/xlink">
 <defs>
  <style type="text/css">
*{stroke-linecap:butt;stroke-linejoin:round;}
  </style>
 </defs>
 <g id="figure_1">
  <g id="patch_1">
   <path d="M 0 345.6 
L 460.8 345.6 
L 460.8 0 
L 0 0 
z
" style="fill:#ffffff;"/>
  </g>
  <g id="axes_1">
   <g id="patch_2">
    <path d="M 48.31 276.48 
L 447.48 276.48 
L 447.48 25.44 
L 48.31 25.44 
z
" style="fill:#ffffff;"/>
   </g>
   <g id="matplotlib.axis_1">
    <g id="xtick_1">
     <g id="line2d_1">
      <defs>
       <path d="M 0 0 
L 0 3.5 
" id="m0547a2e2d4" style="stroke:#000000;stroke-width:0.8;"/>
      </defs>
      <g>
       <use style="stroke:#000000;stroke-width:0.8;" x="55.114034" xlink:href="#m0547a2e2d4" y="276.48"/>
      </g>
     </g>
     <g id="text_1">
      <!-- 31-12-2013 -->
      <defs>
       <path d="M 40.578125 39.3125 
Q 47.65625 37.796875 51.625 33 
Q 55.609375 28.21875 55.609375 21.1875 
Q 55.609375 10.40625 48.1875 4.484375 
Q 40.765625 -1.421875 27.09375 -1.421875 
Q 22.515625 -1.421875 17.65625 -0.515625 
Q 12.796875 0.390625 7.625 2.203125 
L 7.625 11.71875 
Q 11.71875 9.328125 16.59375 8.109375 
Q 21.484375 6.890625 26.8125 6.890625 
Q 36.078125 6.890625 40.9375 10.546875 
Q 45.796875 14.203125 45.796875 21.1875 
Q 45.796875 27.640625 41.28125 31.265625 
Q 36.765625 34.90625 28.71875 34.90625 
L 20.21875 34.90625 
L 20.21875 43.015625 
L 29.109375 43.015625 
Q 36.375 43.015625 40.234375 45.921875 
Q 44.09375 48.828125 44.09375 54.296875 
Q 44.09375 59.90625 40.109375 62.90625 
Q 36.140625 65.921875 28.71875 65.921875 
Q 24.65625 65.921875 20.015625 65.03125 
Q 15.375 64.15625 9.8125 62.3125 
L 9.8125 71.09375 
Q 15.4375 72.65625 20.34375 73.4375 
Q 25.25 74.21875 29.59375 74.21875 
Q 40.828125 74.21875 47.359375 69.109375 
Q 53.90625 64.015625 53.90625 55.328125 
Q 53.90625 49.265625 50.4375 45.09375 
Q 46.96875 40.921875 40.578125 39.3125 
z
" id="DejaVuSans-33"/>
       <path d="M 12.40625 8.296875 
L 28.515625 8.296875 
L 28.515625 63.921875 
L 10.984375 60.40625 
L 10.984375 69.390625 
L 28.421875 72.90625 
L 38.28125 72.90625 
L 38.28125 8.296875 
L 54.390625 8.296875 
L 54.390625 0 
L 12.40625 0 
z
" id="DejaVuSans-31"/>
       <path d="M 4.890625 31.390625 
L 31.203125 31.390625 
L 31.203125 23.390625 
L 4.890625 23.390625 
z
" id="DejaVuSans-2d"/>
       <path d="M 19.1875 8.296875 
L 53.609375 8.296875 
L 53.609375 0 
L 7.328125 0 
L 7.328125 8.296875 
Q 12.9375 14.109375 22.625 23.890625 
Q 32.328125 33.6875 34.8125 36.53125 
Q 39.546875 41.84375 41.421875 45.53125 
Q 43.3125 49.21875 43.3125 52.78125 
Q 43.3125 58.59375 39.234375 62.25 
Q 35.15625 65.921875 28.609375 65.921875 
Q 23.96875 65.921875 18.8125 64.3125 
Q 13.671875 62.703125 7.8125 59.421875 
L 7.8125 69.390625 
Q 13.765625 71.78125 18.9375 73 
Q 24.125 74.21875 28.421875 74.21875 
Q 39.75 74.21875 46.484375 68.546875 
Q 53.21875 62.890625 53.21875 53.421875 
Q 53.21875 48.921875 51.53125 44.890625 
Q 49.859375 40.875 45.40625 35.40625 
Q 44.1875 33.984375 37.640625 27.21875 
Q 31.109375 20.453125 19.1875 8.296875 
z
" id="DejaVuSans-32"/>
       <path d="M 31.78125 66.40625 
Q 24.171875 66.40625 20.328125 58.90625 
Q 16.5 51.421875 16.5 36.375 
Q 16.5 21.390625 20.328125 13.890625 
Q 24.171875 6.390625 31.78125 6.390625 
Q 39.453125 6.390625 43.28125 13.890625 
Q 47.125 21.390625 47.125 36.375 
Q 47.125 51.421875 43.28125 58.90625 
Q 39.453125 66.40625 31.78125 66.40625 
z
M 31.78125 74.21875 
Q 44.046875 74.21875 50.515625 64.515625 
Q 56.984375 54.828125 56.984375 36.375 
Q 56.984375 17.96875 50.515625 8.265625 
Q 44.046875 -1.421875 31.78125 -1.421875 
Q 19.53125 -1.421875 13.0625 8.265625 
Q 6.59375 17.96875 6.59375 36.375 
Q 6.59375 54.828125 13.0625 64.515625 
Q 19.53125 74.21875 31.78125 74.21875 
z
" id="DejaVuSans-30"/>
      </defs>
      <g transform="translate(3.744583 319.118252)rotate(-30)scale(0.1 -0.1)">
       <use xlink:href="#DejaVuSans-33"/>
       <use x="63.623047" xlink:href="#DejaVuSans-31"/>
       <use x="127.246094" xlink:href="#DejaVuSans-2d"/>
       <use x="163.330078" xlink:href="#DejaVuSans-31"/>
       <use x="226.953125" xlink:href="#DejaVuSans-32"/>
       <use x="290.576172" xlink:href="#DejaVuSans-2d"/>
       <use x="326.660156" xlink:href="#DejaVuSans-32"/>
       <use x="390.283203" xlink:href="#DejaVuSans-30"/>
       <use x="453.90625" xlink:href="#DejaVuSans-31"/>
       <use x="517.529297" xlink:href="#DejaVuSans-33"/>
      </g>
     </g>
    </g>
    <g id="xtick_2">
     <g id="line2d_2">
      <g>
       <use style="stroke:#000000;stroke-width:0.8;" x="100.474261" xlink:href="#m0547a2e2d4" y="276.48"/>
      </g>
     </g>
     <g id="text_2">
      <!-- 01-01-2014 -->
      <defs>
       <path d="M 37.796875 64.3125 
L 12.890625 25.390625 
L 37.796875 25.390625 
z
M 35.203125 72.90625 
L 47.609375 72.90625 
L 47.609375 25.390625 
L 58.015625 25.390625 
L 58.015625 17.1875 
L 47.609375 17.1875 
L 47.609375 0 
L 37.796875 0 
L 37.796875 17.1875 
L 4.890625 17.1875 
L 4.890625 26.703125 
z
" id="DejaVuSans-34"/>
      </defs>
      <g transform="translate(49.10481 319.118252)rotate(-30)scale(0.1 -0.1)">
       <use xlink:href="#DejaVuSans-30"/>
       <use x="63.623047" xlink:href="#DejaVuSans-31"/>
       <use x="127.246094" xlink:href="#DejaVuSans-2d"/>
       <use x="163.330078" xlink:href="#DejaVuSans-30"/>
       <use x="226.953125" xlink:href="#DejaVuSans-31"/>
       <use x="290.576172" xlink:href="#DejaVuSans-2d"/>
       <use x="326.660156" xlink:href="#DejaVuSans-32"/>
       <use x="390.283203" xlink:href="#DejaVuSans-30"/>
       <use x="453.90625" xlink:href="#DejaVuSans-31"/>
       <use x="517.529297" xlink:href="#DejaVuSans-34"/>
      </g>
     </g>
    </g>
    <g id="xtick_3">
     <g id="line2d_3">
      <g>
       <use style="stroke:#000000;stroke-width:0.8;" x="145.834489" xlink:href="#m0547a2e2d4" y="276.48"/>
      </g>
     </g>
     <g id="text_3">
      <!-- 01-01-2014 -->
      <g transform="translate(94.465037 319.118252)rotate(-30)scale(0.1 -0.1)">
       <use xlink:href="#DejaVuSans-30"/>
       <use x="63.623047" xlink:href="#DejaVuSans-31"/>
       <use x="127.246094" xlink:href="#DejaVuSans-2d"/>
       <use x="163.330078" xlink:href="#DejaVuSans-30"/>
       <use x="226.953125" xlink:href="#DejaVuSans-31"/>
       <use x="290.576172" xlink:href="#DejaVuSans-2d"/>
       <use x="326.660156" xlink:href="#DejaVuSans-32"/>
       <use x="390.283203" xlink:href="#DejaVuSans-30"/>
       <use x="453.90625" xlink:href="#DejaVuSans-31"/>
       <use x="517.529297" xlink:href="#DejaVuSans-34"/>
      </g>
     </g>
    </g>
    <g id="xtick_4">
     <g id="line2d_4">
      <g>
       <use style="stroke:#000000;stroke-width:0.8;" x="191.194716" xlink:href="#m0547a2e2d4" y="276.48"/>
      </g>
     </g>
     <g id="text_4">
      <!-- 02-01-2014 -->
      <g transform="translate(139.825265 319.118252)rotate(-30)scale(0.1 -0.1)">
       <use xlink:href="#DejaVuSans-30"/>
       <use x="63.623047" xlink:href="#DejaVuSans-32"/>
       <use x="127.246094" xlink:href="#DejaVuSans-2d"/>
       <use x="163.330078" xlink:href="#DejaVuSans-30"/>
       <use x="226.953125" xlink:href="#DejaVuSans-31"/>
       <use x="290.576172" xlink:href="#DejaVuSans-2d"/>
       <use x="326.660156" xlink:href="#DejaVuSans-32"/>
       <use x="390.283203" xlink:href="#DejaVuSans-30"/>
       <use x="453.90625" xlink:href="#DejaVuSans-31"/>
       <use x="517.529297" xlink:href="#DejaVuSans-34"/>
      </g>
     </g>
    </g>
    <g id="xtick_5">
     <g id="line2d_5">
      <g>
       <use style="stroke:#000000;stroke-width:0.8;" x="236.554943" xlink:href="#m0547a2e2d4" y="276.48"/>
      </g>
     </g>
     <g id="text_5">
      <!-- 02-01-2014 -->
      <g transform="translate(185.185492 319.118252)rotate(-30)scale(0.1 -0.1)">
       <use xlink:href="#DejaVuSans-30"/>
       <use x="63.623047" xlink:href="#DejaVuSans-32"/>
       <use x="127.246094" xlink:href="#DejaVuSans-2d"/>
       <use x="163.330078" xlink:href="#DejaVuSans-30"/>
       <use x="226.953125" xlink:href="#DejaVuSans-31"/>
       <use x="290.576172" xlink:href="#DejaVuSans-2d"/>
       <use x="326.660156" xlink:href="#DejaVuSans-32"/>
       <use x="390.283203" xlink:href="#DejaVuSans-30"/>
       <use x="453.90625" xlink:href="#DejaVuSans-31"/>
       <use x="517.529297" xlink:href="#DejaVuSans-34"/>
      </g>
     </g>
    </g>
    <g id="xtick_6">
     <g id="line2d_6">
      <g>
       <use style="stroke:#000000;stroke-width:0.8;" x="281.91517" xlink:href="#m0547a2e2d4" y="276.48"/>
      </g>
     </g>
     <g id="text_6">
      <!-- 03-01-2014 -->
      <g transform="translate(230.545719 319.118252)rotate(-30)scale(0.1 -0.1)">
       <use xlink:href="#DejaVuSans-30"/>
       <use x="63.623047" xlink:href="#DejaVuSans-33"/>
       <use x="127.246094" xlink:href="#DejaVuSans-2d"/>
       <use x="163.330078" xlink:href="#DejaVuSans-30"/>
       <use x="226.953125" xlink:href="#DejaVuSans-31"/>
       <use x="290.576172" xlink:href="#DejaVuSans-2d"/>
       <use x="326.660156" xlink:href="#DejaVuSans-32"/>
       <use x="390.283203" xlink:href="#DejaVuSans-30"/>
       <use x="453.90625" xlink:href="#DejaVuSans-31"/>
       <use x="517.529297" xlink:href="#DejaVuSans-34"/>
      </g>
     </g>
    </g>
    <g id="xtick_7">
     <g id="line2d_7">
      <g>
       <use style="stroke:#000000;stroke-width:0.8;" x="327.275398" xlink:href="#m0547a2e2d4" y="276.48"/>
      </g>
     </g>
     <g id="text_7">
      <!-- 03-01-2014 -->
      <g transform="translate(275.905946 319.118252)rotate(-30)scale(0.1 -0.1)">
       <use xlink:href="#DejaVuSans-30"/>
       <use x="63.623047" xlink:href="#DejaVuSans-33"/>
       <use x="127.246094" xlink:href="#DejaVuSans-2d"/>
       <use x="163.330078" xlink:href="#DejaVuSans-30"/>
       <use x="226.953125" xlink:href="#DejaVuSans-31"/>
       <use x="290.576172" xlink:href="#DejaVuSans-2d"/>
       <use x="326.660156" xlink:href="#DejaVuSans-32"/>
       <use x="390.283203" xlink:href="#DejaVuSans-30"/>
       <use x="453.90625" xlink:href="#DejaVuSans-31"/>
       <use x="517.529297" xlink:href="#DejaVuSans-34"/>
      </g>
     </g>
    </g>
    <g id="xtick_8">
     <g id="line2d_8">
      <g>
       <use style="stroke:#000000;stroke-width:0.8;" x="372.635625" xlink:href="#m0547a2e2d4" y="276.48"/>
      </g>
     </g>
     <g id="text_8">
      <!-- 04-01-2014 -->
      <g transform="translate(321.266174 319.118252)rotate(-30)scale(0.1 -0.1)">
       <use xlink:href="#DejaVuSans-30"/>
       <use x="63.623047" xlink:href="#DejaVuSans-34"/>
       <use x="127.246094" xlink:href="#DejaVuSans-2d"/>
       <use x="163.330078" xlink:href="#DejaVuSans-30"/>
       <use x="226.953125" xlink:href="#DejaVuSans-31"/>
       <use x="290.576172" xlink:href="#DejaVuSans-2d"/>
       <use x="326.660156" xlink:href="#DejaVuSans-32"/>
       <use x="390.283203" xlink:href="#DejaVuSans-30"/>
       <use x="453.90625" xlink:href="#DejaVuSans-31"/>
       <use x="517.529297" xlink:href="#DejaVuSans-34"/>
      </g>
     </g>
    </g>
    <g id="xtick_9">
     <g id="line2d_9">
      <g>
       <use style="stroke:#000000;stroke-width:0.8;" x="417.995852" xlink:href="#m0547a2e2d4" y="276.48"/>
      </g>
     </g>
     <g id="text_9">
      <!-- 04-01-2014 -->
      <g transform="translate(366.626401 319.118252)rotate(-30)scale(0.1 -0.1)">
       <use xlink:href="#DejaVuSans-30"/>
       <use x="63.623047" xlink:href="#DejaVuSans-34"/>
       <use x="127.246094" xlink:href="#DejaVuSans-2d"/>
       <use x="163.330078" xlink:href="#DejaVuSans-30"/>
       <use x="226.953125" xlink:href="#DejaVuSans-31"/>
       <use x="290.576172" xlink:href="#DejaVuSans-2d"/>
       <use x="326.660156" xlink:href="#DejaVuSans-32"/>
       <use x="390.283203" xlink:href="#DejaVuSans-30"/>
       <use x="453.90625" xlink:href="#DejaVuSans-31"/>
       <use x="517.529297" xlink:href="#DejaVuSans-34"/>
      </g>
     </g>
    </g>
   </g>
   <g id="matplotlib.axis_2">
    <g id="ytick_1">
     <g id="line2d_10">
      <defs>
       <path d="M 0 0 
L -3.5 0 
" id="m844d3fcabb" style="stroke:#000000;stroke-width:0.8;"/>
      </defs>
      <g>
       <use style="stroke:#000000;stroke-width:0.8;" x="48.31" xlink:href="#m844d3fcabb" y="268.353882"/>
      </g>
     </g>
     <g id="text_10">
      <!-- −0.75 -->
      <defs>
       <path d="M 10.59375 35.5 
L 73.1875 35.5 
L 73.1875 27.203125 
L 10.59375 27.203125 
z
" id="DejaVuSans-2212"/>
       <path d="M 10.6875 12.40625 
L 21 12.40625 
L 21 0 
L 10.6875 0 
z
" id="DejaVuSans-2e"/>
       <path d="M 8.203125 72.90625 
L 55.078125 72.90625 
L 55.078125 68.703125 
L 28.609375 0 
L 18.3125 0 
L 43.21875 64.59375 
L 8.203125 64.59375 
z
" id="DejaVuSans-37"/>
       <path d="M 10.796875 72.90625 
L 49.515625 72.90625 
L 49.515625 64.59375 
L 19.828125 64.59375 
L 19.828125 46.734375 
Q 21.96875 47.46875 24.109375 47.828125 
Q 26.265625 48.1875 28.421875 48.1875 
Q 40.625 48.1875 47.75 41.5 
Q 54.890625 34.8125 54.890625 23.390625 
Q 54.890625 11.625 47.5625 5.09375 
Q 40.234375 -1.421875 26.90625 -1.421875 
Q 22.3125 -1.421875 17.546875 -0.640625 
Q 12.796875 0.140625 7.71875 1.703125 
L 7.71875 11.625 
Q 12.109375 9.234375 16.796875 8.0625 
Q 21.484375 6.890625 26.703125 6.890625 
Q 35.15625 6.890625 40.078125 11.328125 
Q 45.015625 15.765625 45.015625 23.390625 
Q 45.015625 31 40.078125 35.4375 
Q 35.15625 39.890625 26.703125 39.890625 
Q 22.75 39.890625 18.8125 39.015625 
Q 14.890625 38.140625 10.796875 36.28125 
z
" id="DejaVuSans-35"/>
      </defs>
      <g transform="translate(10.664687 272.153101)scale(0.1 -0.1)">
       <use xlink:href="#DejaVuSans-2212"/>
       <use x="83.789062" xlink:href="#DejaVuSans-30"/>
       <use x="147.412109" xlink:href="#DejaVuSans-2e"/>
       <use x="179.199219" xlink:href="#DejaVuSans-37"/>
       <use x="242.822266" xlink:href="#DejaVuSans-35"/>
      </g>
     </g>
    </g>
    <g id="ytick_2">
     <g id="line2d_11">
      <g>
       <use style="stroke:#000000;stroke-width:0.8;" x="48.31" xlink:href="#m844d3fcabb" y="236.654839"/>
      </g>
     </g>
     <g id="text_11">
      <!-- −0.50 -->
      <g transform="translate(10.664687 240.454058)scale(0.1 -0.1)">
       <use xlink:href="#DejaVuSans-2212"/>
       <use x="83.789062" xlink:href="#DejaVuSans-30"/>
       <use x="147.412109" xlink:href="#DejaVuSans-2e"/>
       <use x="179.199219" xlink:href="#DejaVuSans-35"/>
       <use x="242.822266" xlink:href="#DejaVuSans-30"/>
      </g>
     </g>
    </g>
    <g id="ytick_3">
     <g id="line2d_12">
      <g>
       <use style="stroke:#000000;stroke-width:0.8;" x="48.31" xlink:href="#m844d3fcabb" y="204.955797"/>
      </g>
     </g>
     <g id="text_12">
      <!-- −0.25 -->
      <g transform="translate(10.664687 208.755015)scale(0.1 -0.1)">
       <use xlink:href="#DejaVuSans-2212"/>
       <use x="83.789062" xlink:href="#DejaVuSans-30"/>
       <use x="147.412109" xlink:href="#DejaVuSans-2e"/>
       <use x="179.199219" xlink:href="#DejaVuSans-32"/>
       <use x="242.822266" xlink:href="#DejaVuSans-35"/>
      </g>
     </g>
    </g>
    <g id="ytick_4">
     <g id="line2d_13">
      <g>
       <use style="stroke:#000000;stroke-width:0.8;" x="48.31" xlink:href="#m844d3fcabb" y="173.256754"/>
      </g>
     </g>
     <g id="text_13">
      <!-- 0.00 -->
      <g transform="translate(19.044375 177.055973)scale(0.1 -0.1)">
       <use xlink:href="#DejaVuSans-30"/>
       <use x="63.623047" xlink:href="#DejaVuSans-2e"/>
       <use x="95.410156" xlink:href="#DejaVuSans-30"/>
       <use x="159.033203" xlink:href="#DejaVuSans-30"/>
      </g>
     </g>
    </g>
    <g id="ytick_5">
     <g id="line2d_14">
      <g>
       <use style="stroke:#000000;stroke-width:0.8;" x="48.31" xlink:href="#m844d3fcabb" y="141.557711"/>
      </g>
     </g>
     <g id="text_14">
      <!-- 0.25 -->
      <g transform="translate(19.044375 145.35693)scale(0.1 -0.1)">
       <use xlink:href="#DejaVuSans-30"/>
       <use x="63.623047" xlink:href="#DejaVuSans-2e"/>
       <use x="95.410156" xlink:href="#DejaVuSans-32"/>
       <use x="159.033203" xlink:href="#DejaVuSans-35"/>
      </g>
     </g>
    </g>
    <g id="ytick_6">
     <g id="line2d_15">
      <g>
       <use style="stroke:#000000;stroke-width:0.8;" x="48.31" xlink:href="#m844d3fcabb" y="109.858669"/>
      </g>
     </g>
     <g id="text_15">
      <!-- 0.50 -->
      <g transform="translate(19.044375 113.657887)scale(0.1 -0.1)">
       <use xlink:href="#DejaVuSans-30"/>
       <use x="63.623047" xlink:href="#DejaVuSans-2e"/>
       <use x="95.410156" xlink:href="#DejaVuSans-35"/>
       <use x="159.033203" xlink:href="#DejaVuSans-30"/>
      </g>
     </g>
    </g>
    <g id="ytick_7">
     <g id="line2d_16">
      <g>
       <use style="stroke:#000000;stroke-width:0.8;" x="48.31" xlink:href="#m844d3fcabb" y="78.159626"/>
      </g>
     </g>
     <g id="text_16">
      <!-- 0.75 -->
      <g transform="translate(19.044375 81.958845)scale(0.1 -0.1)">
       <use xlink:href="#DejaVuSans-30"/>
       <use x="63.623047" xlink:href="#DejaVuSans-2e"/>
       <use x="95.410156" xlink:href="#DejaVuSans-37"/>
       <use x="159.033203" xlink:href="#DejaVuSans-35"/>
      </g>
     </g>
    </g>
    <g id="ytick_8">
     <g id="line2d_17">
      <g>
       <use style="stroke:#000000;stroke-width:0.8;" x="48.31" xlink:href="#m844d3fcabb" y="46.460583"/>
      </g>
     </g>
     <g id="text_17">
      <!-- 1.00 -->
      <g transform="translate(19.044375 50.259802)scale(0.1 -0.1)">
       <use xlink:href="#DejaVuSans-31"/>
       <use x="63.623047" xlink:href="#DejaVuSans-2e"/>
       <use x="95.410156" xlink:href="#DejaVuSans-30"/>
       <use x="159.033203" xlink:href="#DejaVuSans-30"/>
      </g>
     </g>
    </g>
    <g id="text_18">
     <!-- 1e8 -->
     <defs>
      <path d="M 56.203125 29.59375 
L 56.203125 25.203125 
L 14.890625 25.203125 
Q 15.484375 15.921875 20.484375 11.0625 
Q 25.484375 6.203125 34.421875 6.203125 
Q 39.59375 6.203125 44.453125 7.46875 
Q 49.3125 8.734375 54.109375 11.28125 
L 54.109375 2.78125 
Q 49.265625 0.734375 44.1875 -0.34375 
Q 39.109375 -1.421875 33.890625 -1.421875 
Q 20.796875 -1.421875 13.15625 6.1875 
Q 5.515625 13.8125 5.515625 26.8125 
Q 5.515625 40.234375 12.765625 48.109375 
Q 20.015625 56 32.328125 56 
Q 43.359375 56 49.78125 48.890625 
Q 56.203125 41.796875 56.203125 29.59375 
z
M 47.21875 32.234375 
Q 47.125 39.59375 43.09375 43.984375 
Q 39.0625 48.390625 32.421875 48.390625 
Q 24.90625 48.390625 20.390625 44.140625 
Q 15.875 39.890625 15.1875 32.171875 
z
" id="DejaVuSans-65"/>
      <path d="M 31.78125 34.625 
Q 24.75 34.625 20.71875 30.859375 
Q 16.703125 27.09375 16.703125 20.515625 
Q 16.703125 13.921875 20.71875 10.15625 
Q 24.75 6.390625 31.78125 6.390625 
Q 38.8125 6.390625 42.859375 10.171875 
Q 46.921875 13.96875 46.921875 20.515625 
Q 46.921875 27.09375 42.890625 30.859375 
Q 38.875 34.625 31.78125 34.625 
z
M 21.921875 38.8125 
Q 15.578125 40.375 12.03125 44.71875 
Q 8.5 49.078125 8.5 55.328125 
Q 8.5 64.0625 14.71875 69.140625 
Q 20.953125 74.21875 31.78125 74.21875 
Q 42.671875 74.21875 48.875 69.140625 
Q 55.078125 64.0625 55.078125 55.328125 
Q 55.078125 49.078125 51.53125 44.71875 
Q 48 40.375 41.703125 38.8125 
Q 48.828125 37.15625 52.796875 32.3125 
Q 56.78125 27.484375 56.78125 20.515625 
Q 56.78125 9.90625 50.3125 4.234375 
Q 43.84375 -1.421875 31.78125 -1.421875 
Q 19.734375 -1.421875 13.25 4.234375 
Q 6.78125 9.90625 6.78125 20.515625 
Q 6.78125 27.484375 10.78125 32.3125 
Q 14.796875 37.15625 21.921875 38.8125 
z
M 18.3125 54.390625 
Q 18.3125 48.734375 21.84375 45.5625 
Q 25.390625 42.390625 31.78125 42.390625 
Q 38.140625 42.390625 41.71875 45.5625 
Q 45.3125 48.734375 45.3125 54.390625 
Q 45.3125 60.0625 41.71875 63.234375 
Q 38.140625 66.40625 31.78125 66.40625 
Q 25.390625 66.40625 21.84375 63.234375 
Q 18.3125 60.0625 18.3125 54.390625 
z
" id="DejaVuSans-38"/>
     </defs>
     <g transform="translate(48.31 22.44)scale(0.1 -0.1)">
      <use xlink:href="#DejaVuSans-31"/>
      <use x="63.623047" xlink:href="#DejaVuSans-65"/>
      <use x="125.146484" xlink:href="#DejaVuSans-38"/>
     </g>
    </g>
   </g>
   <g id="line2d_18">
    <path clip-path="url(#p4ac0b28c1f)" d="M 66.454091 173.256754 
L 152.449522 173.256754 
L 153.394527 81.855926 
L 154.339531 79.888175 
L 155.284536 70.863164 
L 157.174545 66.202816 
L 158.11955 66.986199 
L 159.064555 65.327869 
L 160.00956 74.715383 
L 160.954564 72.706438 
L 161.899569 71.894562 
L 162.844574 68.597245 
L 163.789579 68.388936 
L 164.734583 68.407352 
L 165.679588 53.850529 
L 166.624593 50.749598 
L 167.569598 56.063925 
L 168.514602 46.499799 
L 169.459607 54.714675 
L 170.404612 49.505803 
L 171.349616 42.793141 
L 173.239626 43.824691 
L 175.129635 44.84455 
L 178.909654 47.60533 
L 179.854659 65.472736 
L 180.799664 63.563476 
L 181.744669 66.453196 
L 182.689673 72.083057 
L 183.634678 89.216946 
L 184.579683 100.550703 
L 185.524688 36.850909 
L 186.469692 64.657991 
L 187.414697 73.609515 
L 188.359702 98.099352 
L 189.304706 102.317746 
L 190.249711 116.435042 
L 191.194716 128.137838 
L 192.139721 135.356945 
L 193.084725 139.149712 
L 194.02973 129.355507 
L 194.974735 133.857553 
L 195.91974 134.231678 
L 196.864744 147.708991 
L 197.809749 151.895436 
L 198.754754 147.31662 
L 199.699759 140.660119 
L 200.644763 141.703615 
L 201.589768 143.284348 
L 202.534773 149.425114 
L 203.479777 154.632221 
L 204.424782 158.777145 
L 205.369787 154.41412 
L 206.314792 149.456465 
L 207.259796 151.81809 
L 208.204801 153.675632 
L 209.149806 153.189259 
L 210.094811 246.68136 
L 211.039815 242.077302 
L 211.98482 240.711016 
L 212.929825 238.899762 
L 213.87483 237.601351 
L 214.819834 236.976689 
L 215.764839 235.825823 
L 216.709844 234.252474 
L 217.654848 233.602033 
L 218.599853 232.432266 
L 219.544858 235.312771 
L 220.489863 231.482304 
L 222.379872 229.713849 
L 224.269882 227.205156 
L 225.214886 226.274476 
L 226.159891 225.808621 
L 227.104896 224.596129 
L 228.049901 223.863767 
L 228.994905 222.811207 
L 229.93991 222.379792 
L 230.884915 221.303687 
L 231.82992 220.7687 
L 234.664934 217.918312 
L 235.609938 217.63236 
L 237.499948 215.074689 
L 240.334962 211.869696 
L 243.169976 208.940167 
L 246.949995 205.409739 
L 250.730014 202.255241 
L 254.510033 199.429412 
L 258.290052 196.893366 
L 259.235057 193.731933 
L 260.180062 195.934294 
L 261.125066 195.212973 
L 262.070071 179.134571 
L 266.795095 178.439993 
L 267.740099 182.088928 
L 268.685104 184.831273 
L 269.630109 184.328606 
L 270.575114 193.227404 
L 271.520118 192.17579 
L 276.245142 189.929511 
L 280.970166 187.959609 
L 285.695189 186.230982 
L 290.420213 184.713083 
L 296.090241 183.132604 
L 301.76027 181.77806 
L 308.375303 180.439063 
L 314.990336 179.317978 
L 322.550374 178.256877 
L 331.055417 177.291154 
L 340.505464 176.442682 
L 351.845521 175.664315 
L 365.075587 175.000703 
L 380.195663 174.469944 
L 399.095758 174.033873 
L 423.665881 173.698014 
L 428.390904 173.653155 
L 429.335909 173.256754 
L 429.335909 173.256754 
" style="fill:none;stroke:#0000ff;stroke-linecap:square;stroke-width:2;"/>
   </g>
   <g id="line2d_19">
    <path clip-path="url(#p4ac0b28c1f)" d="M 210.094811 276.48 
L 210.094811 25.44 
" style="fill:none;stroke:#000000;stroke-dasharray:2,3.3;stroke-dashoffset:0;stroke-width:2;"/>
   </g>
   <g id="line2d_20">
    <path clip-path="url(#p4ac0b28c1f)" d="M 66.454091 173.256754 
L 150.559512 173.256754 
L 151.504517 156.834391 
L 152.449522 152.332002 
L 153.394527 84.010995 
L 154.339531 80.649901 
L 155.284536 71.598652 
L 157.174545 66.88916 
L 158.11955 67.649523 
L 159.064555 65.969135 
L 160.00956 75.335507 
L 160.954564 73.351141 
L 161.899569 72.510095 
L 162.844574 69.195457 
L 163.789579 68.970828 
L 164.734583 68.973394 
L 165.679588 54.401177 
L 166.624593 51.285293 
L 167.569598 56.585095 
L 168.514602 47.00686 
L 169.459607 55.20803 
L 170.404612 49.985842 
L 171.349616 43.260243 
L 173.239626 44.267011 
L 175.129635 45.26347 
L 178.909654 47.981278 
L 179.854659 65.838683 
L 180.799664 63.919703 
L 181.744669 66.799973 
L 182.689673 72.420648 
L 183.634678 81.030824 
L 184.579683 91.540612 
L 185.524688 48.585843 
L 186.469692 70.865496 
L 187.414697 78.328496 
L 188.359702 101.963396 
L 189.304706 105.718665 
L 190.249711 119.28976 
L 191.194716 130.486495 
L 192.139721 136.937192 
L 193.084725 140.348836 
L 194.02973 130.191655 
L 194.974735 134.2783 
L 195.91974 134.149661 
L 196.864744 147.360501 
L 197.809749 151.733644 
L 198.754754 147.167949 
L 199.699759 140.523139 
L 200.644763 141.577063 
L 201.589768 143.167113 
L 202.534773 149.316214 
L 203.479777 154.53079 
L 204.424782 158.682418 
L 205.369787 154.325422 
L 206.314792 149.373199 
L 207.259796 151.73973 
L 208.204801 153.601711 
L 209.149806 153.119365 
L 210.094811 246.763537 
L 211.039815 242.155676 
L 211.98482 240.78582 
L 212.929825 238.971184 
L 213.87483 237.669556 
L 214.819834 237.041833 
L 215.764839 235.888049 
L 216.709844 234.311919 
L 217.654848 233.658826 
L 218.599853 232.48653 
L 219.544858 235.364622 
L 220.489863 231.531852 
L 222.379872 229.7591 
L 224.269882 227.246485 
L 225.214886 226.313974 
L 226.159891 225.846368 
L 227.104896 224.632203 
L 228.049901 223.898239 
L 228.994905 222.844146 
L 229.93991 222.411265 
L 230.884915 221.333756 
L 231.82992 220.797425 
L 234.664934 217.943333 
L 235.609938 217.5511 
L 237.499948 215.009421 
L 240.334962 211.811104 
L 243.169976 208.887208 
L 246.949995 205.363095 
L 250.730014 202.213904 
L 254.510033 199.39263 
L 258.290052 196.860554 
L 259.235057 193.689636 
L 260.180062 195.904137 
L 261.125066 195.183031 
L 262.070071 179.095441 
L 266.795095 178.405495 
L 267.740099 182.055275 
L 268.685104 184.79844 
L 269.630109 184.29657 
L 270.575114 193.20723 
L 271.520118 192.155511 
L 276.245142 189.911875 
L 280.970166 187.944282 
L 285.695189 186.217672 
L 290.420213 184.701536 
L 296.090241 183.122881 
L 301.76027 181.769887 
L 308.375303 180.432405 
L 314.990336 179.312569 
L 322.550374 178.252627 
L 331.055417 177.287931 
L 340.505464 176.440331 
L 351.845521 175.662725 
L 365.075587 174.999718 
L 380.195663 174.469397 
L 399.095758 174.033638 
L 423.665881 173.697966 
L 428.390904 173.653126 
L 429.335909 173.256754 
L 429.335909 173.256754 
" style="fill:none;stroke:#008000;stroke-dasharray:7.4,3.2;stroke-dashoffset:0;stroke-width:2;"/>
   </g>
   <g id="line2d_21">
    <path clip-path="url(#p4ac0b28c1f)" d="M 210.094811 276.48 
L 210.094811 25.44 
" style="fill:none;stroke:#000000;stroke-dasharray:2,3.3;stroke-dashoffset:0;stroke-width:2;"/>
   </g>
   <g id="line2d_22">
    <path clip-path="url(#p4ac0b28c1f)" d="M 66.454091 173.256754 
L 194.659733 173.256754 
L 194.974735 128.935914 
L 195.604738 128.935914 
L 195.91974 129.57502 
L 196.549743 129.57502 
L 196.864744 125.573759 
L 197.494747 125.573759 
L 197.809749 124.761837 
L 198.439752 124.761837 
L 198.754754 127.780667 
L 199.069755 127.990804 
L 199.384757 129.467896 
L 200.01476 139.514418 
L 200.329762 142.649403 
L 200.644763 144.388593 
L 200.959765 144.85191 
L 201.90477 145.22822 
L 202.219771 145.230654 
L 202.534773 144.172271 
L 203.164776 144.169687 
L 203.479777 143.111371 
L 204.109781 143.109534 
L 204.424782 142.444356 
L 205.054785 142.444812 
L 205.369787 143.759972 
L 205.684789 143.800965 
L 205.99979 144.031691 
L 206.629793 147.593199 
L 206.944795 150.935718 
L 207.8898 165.525745 
L 208.204801 168.497739 
L 208.519803 170.398827 
L 208.834804 171.543177 
L 209.149806 172.22485 
L 209.779809 172.822908 
L 210.094811 215.864893 
L 210.724814 215.956386 
L 211.039815 216.72884 
L 211.669819 216.739635 
L 211.98482 215.828755 
L 212.614823 215.829111 
L 212.929825 215.406609 
L 213.559828 215.406286 
L 213.87483 215.250634 
L 214.504833 215.165201 
L 214.819834 214.4773 
L 215.764839 203.277728 
L 216.079841 201.761267 
L 216.709844 200.722176 
L 217.339847 200.667868 
L 217.654848 200.834772 
L 219.229856 200.812568 
L 219.544858 201.445883 
L 220.174861 201.445523 
L 220.489863 201.299852 
L 221.119866 201.295594 
L 221.434867 201.490466 
L 221.749869 201.284562 
L 222.064871 200.554476 
L 222.379872 198.722602 
L 222.694874 195.299744 
L 223.639878 180.952047 
L 223.95488 177.880229 
L 224.269882 175.915344 
L 224.584883 174.75837 
L 224.899885 174.085553 
L 225.529888 173.491085 
L 226.159891 173.318584 
L 227.734899 173.258194 
L 271.83512 173.256754 
L 429.020908 173.256754 
L 429.020908 173.256754 
" style="fill:none;stroke:#ff0000;stroke-dasharray:12.8,3.2,2,3.2;stroke-dashoffset:0;stroke-width:2;"/>
   </g>
   <g id="line2d_23">
    <path clip-path="url(#p4ac0b28c1f)" d="M 210.094811 276.48 
L 210.094811 25.44 
" style="fill:none;stroke:#000000;stroke-dasharray:2,3.3;stroke-dashoffset:0;stroke-width:2;"/>
   </g>
   <g id="line2d_24">
    <path clip-path="url(#p4ac0b28c1f)" d="M 66.454091 173.256754 
L 151.189515 173.256754 
L 151.504517 156.834391 
L 152.13452 156.834391 
L 152.449522 152.332002 
L 153.079525 152.332002 
L 153.394527 84.010995 
L 154.02453 84.010995 
L 154.339531 80.649901 
L 154.969534 80.649901 
L 155.284536 71.598652 
L 155.914539 71.598652 
L 156.229541 69.235187 
L 156.859544 69.235187 
L 157.174545 66.88916 
L 157.804549 66.88916 
L 158.11955 67.649523 
L 158.749553 67.649523 
L 159.064555 65.969135 
L 159.694558 65.969135 
L 160.00956 75.335507 
L 160.639563 75.335507 
L 160.954564 73.351141 
L 161.584568 73.351141 
L 161.899569 72.510095 
L 162.529572 72.510095 
L 162.844574 69.195457 
L 163.474577 69.195457 
L 163.789579 68.970828 
L 165.364586 68.973394 
L 165.679588 54.401177 
L 166.309591 54.401177 
L 166.624593 51.285293 
L 167.254596 51.285293 
L 167.569598 56.585095 
L 168.199601 56.585095 
L 168.514602 47.00686 
L 169.144605 47.00686 
L 169.459607 55.20803 
L 170.08961 55.20803 
L 170.404612 49.985842 
L 171.034615 49.985842 
L 171.349616 43.260243 
L 171.97962 43.260243 
L 172.294621 43.814104 
L 172.924624 43.814104 
L 173.239626 44.267011 
L 173.869629 44.267011 
L 174.184631 44.729578 
L 174.814634 44.729578 
L 175.129635 45.26347 
L 175.759639 45.26347 
L 176.07464 45.909608 
L 176.704643 45.909608 
L 177.019645 46.601779 
L 177.649648 46.601779 
L 177.96465 47.2966 
L 178.594653 47.2966 
L 178.909654 47.981278 
L 179.539658 47.981278 
L 179.854659 65.838683 
L 180.484662 65.838683 
L 180.799664 63.919703 
L 181.429667 63.919703 
L 181.744669 66.799973 
L 182.374672 66.799973 
L 182.689673 72.420648 
L 183.319676 72.420648 
L 183.634678 81.030824 
L 184.264681 81.030824 
L 184.579683 91.540612 
L 185.209686 91.540612 
L 185.524688 48.585843 
L 186.154691 48.585843 
L 186.469692 70.865496 
L 187.099695 70.865496 
L 187.414697 78.328496 
L 188.0447 78.328496 
L 188.359702 101.963396 
L 188.989705 101.963396 
L 189.304706 105.718665 
L 189.93471 105.718665 
L 190.249711 119.28976 
L 190.879714 119.28976 
L 191.194716 130.486495 
L 191.824719 130.486495 
L 192.139721 136.937192 
L 192.769724 136.937192 
L 193.084725 140.348836 
L 193.714729 140.348836 
L 194.02973 130.191655 
L 194.659733 130.191655 
L 194.974735 134.2783 
L 195.604738 134.2783 
L 195.91974 134.149661 
L 196.549743 134.149661 
L 196.864744 147.360501 
L 197.179746 91.045421 
L 197.494747 91.045421 
L 197.809749 96.064357 
L 198.439752 96.064357 
L 198.754754 92.992904 
L 199.384757 92.992904 
L 199.699759 86.185708 
L 200.329762 86.201055 
L 200.644763 88.53564 
L 200.959765 91.978225 
L 201.589768 105.48375 
L 201.90477 107.631119 
L 202.219771 108.305349 
L 202.534773 114.918835 
L 203.164776 114.967555 
L 203.479777 120.269279 
L 204.109781 120.269197 
L 204.424782 124.667101 
L 205.054785 124.667301 
L 205.369787 120.666721 
L 205.99979 120.730999 
L 206.314792 116.136711 
L 206.629793 117.107604 
L 206.944795 119.483312 
L 207.8898 138.061326 
L 208.204801 144.9277 
L 208.519803 148.519782 
L 208.834804 150.762264 
L 209.464807 152.247839 
L 209.779809 152.597147 
L 210.094811 265.029771 
L 210.724814 265.069091 
L 211.039815 262.756373 
L 211.669819 262.767662 
L 211.98482 260.947209 
L 212.614823 260.948679 
L 212.929825 259.314138 
L 213.559828 259.313799 
L 213.87483 258.287652 
L 215.449837 258.185864 
L 215.764839 257.318372 
L 216.394842 257.314261 
L 216.709844 255.768135 
L 217.339847 255.764884 
L 217.654848 255.584596 
L 218.284852 255.581081 
L 218.599853 254.765209 
L 219.229856 254.762175 
L 219.544858 257.648485 
L 219.85986 257.548854 
L 220.174861 257.041983 
L 220.489863 252.935067 
L 221.434867 247.52401 
L 221.749869 246.854443 
L 222.064871 246.564471 
L 222.379872 245.75754 
L 223.009875 245.703398 
L 223.324877 244.540407 
L 223.95488 244.533383 
L 224.269882 243.286846 
L 224.899885 243.283167 
L 225.214886 242.544187 
L 225.84489 242.541693 
L 226.159891 243.144842 
L 226.789894 243.142778 
L 227.104896 242.798448 
L 227.734899 242.796655 
L 228.049901 242.082779 
L 228.679904 242.081298 
L 228.994905 240.241209 
L 229.624908 240.240413 
L 229.93991 239.935867 
L 230.569913 239.935067 
L 230.884915 238.865799 
L 231.514918 238.863371 
L 231.82992 238.033955 
L 232.144921 237.829538 
L 232.459923 237.275064 
L 233.089926 233.915252 
L 233.404927 231.434587 
L 234.034931 224.86998 
L 234.664934 220.562364 
L 234.979935 219.714876 
L 235.294937 219.194801 
L 235.609938 218.454159 
L 236.239942 217.979561 
L 236.554943 216.472609 
L 237.184946 216.299443 
L 237.499948 215.076957 
L 238.129951 215.033103 
L 238.444953 213.924422 
L 239.074956 213.915219 
L 239.389957 212.847365 
L 240.019961 212.845857 
L 240.334962 211.811613 
L 240.964965 211.811315 
L 241.279967 210.807756 
L 241.90997 210.807683 
L 242.224972 209.83341 
L 242.854975 209.833391 
L 243.169976 208.887216 
L 243.799979 208.887212 
L 244.114981 207.968063 
L 244.744984 207.968062 
L 245.059986 207.074942 
L 245.689989 207.074942 
L 246.004991 206.206914 
L 246.634994 206.206914 
L 246.949995 205.363095 
L 247.579998 205.363095 
L 247.895 204.542653 
L 248.525003 204.542653 
L 248.840005 203.744799 
L 249.470008 203.744799 
L 249.785009 202.968786 
L 250.415013 202.968786 
L 250.730014 202.213904 
L 251.360017 202.213904 
L 251.675019 201.479477 
L 252.305022 201.479477 
L 252.620024 200.764861 
L 253.250027 200.764861 
L 253.565028 200.069441 
L 254.195032 200.069441 
L 254.510033 199.39263 
L 255.140036 199.39263 
L 255.455038 198.733864 
L 256.085041 198.733864 
L 256.400043 198.092605 
L 257.030046 198.092605 
L 257.345047 197.468334 
L 257.975051 197.468334 
L 258.290052 196.860554 
L 258.920055 196.860554 
L 259.235057 193.689636 
L 259.86506 193.689636 
L 260.180062 195.904137 
L 260.810065 195.904137 
L 261.125066 195.183031 
L 261.755069 195.183031 
L 262.070071 179.095441 
L 262.700074 179.095441 
L 263.015076 178.946672 
L 263.645079 178.946672 
L 263.96008 178.802311 
L 264.590084 178.802311 
L 264.905085 178.664177 
L 265.535088 178.664177 
L 265.85009 178.532022 
L 266.480093 178.532022 
L 266.795095 178.405495 
L 267.425098 178.405495 
L 267.740099 182.055275 
L 268.370103 182.055275 
L 268.685104 184.79844 
L 269.315107 184.79844 
L 269.630109 184.29657 
L 270.260112 184.29657 
L 270.575114 193.20723 
L 271.205117 193.20723 
L 271.520118 192.155511 
L 272.150122 192.155511 
L 272.465123 191.682849 
L 273.095126 191.682849 
L 273.410128 191.22248 
L 274.040131 191.22248 
L 274.355133 190.774074 
L 274.985136 190.774074 
L 275.300137 190.33731 
L 275.93014 190.33731 
L 276.245142 189.911875 
L 276.875145 189.911875 
L 277.190147 189.497466 
L 277.82015 189.497466 
L 278.135152 189.093785 
L 278.765155 189.093785 
L 279.080156 188.700546 
L 279.710159 188.700546 
L 280.025161 188.317469 
L 280.655164 188.317469 
L 280.970166 187.944282 
L 281.600169 187.944282 
L 281.91517 187.580719 
L 282.545174 187.580719 
L 282.860175 187.226524 
L 283.490178 187.226524 
L 283.80518 186.881445 
L 284.435183 186.881445 
L 284.750185 186.54524 
L 285.380188 186.54524 
L 285.695189 186.217672 
L 286.325193 186.217672 
L 286.640194 185.898509 
L 287.270197 185.898509 
L 287.585199 185.58753 
L 288.215202 185.58753 
L 288.530204 185.284514 
L 289.160207 185.284514 
L 289.475208 184.989252 
L 290.105211 184.989252 
L 290.420213 184.701536 
L 291.050216 184.701536 
L 291.365218 184.421166 
L 291.995221 184.421166 
L 292.310223 184.147948 
L 292.940226 184.147948 
L 293.255227 183.881693 
L 293.88523 183.881693 
L 294.200232 183.622215 
L 294.830235 183.622215 
L 295.145237 183.369336 
L 295.77524 183.369336 
L 296.090241 183.122881 
L 296.720245 183.122881 
L 297.035246 182.882681 
L 297.665249 182.882681 
L 297.980251 182.648571 
L 298.610254 182.648571 
L 298.925256 182.42039 
L 299.555259 182.42039 
L 299.87026 182.197983 
L 300.500264 182.197983 
L 300.815265 181.981198 
L 301.445268 181.981198 
L 301.76027 181.769887 
L 302.390273 181.769887 
L 302.705275 181.563907 
L 303.335278 181.563907 
L 303.650279 181.363117 
L 304.280283 181.363117 
L 304.595284 181.167383 
L 305.225287 181.167383 
L 305.540289 180.976571 
L 306.170292 180.976571 
L 306.485294 180.790554 
L 307.115297 180.790554 
L 307.430298 180.609206 
L 308.060301 180.609206 
L 308.375303 180.432405 
L 309.005306 180.432405 
L 309.320308 180.260033 
L 309.950311 180.260033 
L 310.265313 180.091975 
L 310.895316 180.091975 
L 311.210317 179.928118 
L 311.84032 179.928118 
L 312.155322 179.768354 
L 312.785325 179.768354 
L 313.100327 179.612576 
L 313.73033 179.612576 
L 314.045331 179.460681 
L 314.675335 179.460681 
L 314.990336 179.312569 
L 315.620339 179.312569 
L 315.935341 179.168141 
L 316.565344 179.168141 
L 316.880346 179.027302 
L 317.510349 179.027302 
L 317.82535 178.88996 
L 318.455354 178.88996 
L 318.770355 178.756025 
L 319.400358 178.756025 
L 319.71536 178.625408 
L 320.345363 178.625408 
L 320.660365 178.498025 
L 321.290368 178.498025 
L 321.605369 178.373792 
L 322.235372 178.373792 
L 322.550374 178.252627 
L 323.180377 178.252627 
L 323.81038 178.134454 
L 324.125382 178.134454 
L 324.755385 178.019194 
L 325.070387 178.019194 
L 325.70039 177.906773 
L 326.960396 177.797118 
L 327.590399 177.69016 
L 328.850406 177.585828 
L 329.480409 177.484056 
L 330.740415 177.384778 
L 331.370418 177.287931 
L 332.630425 177.193454 
L 333.260428 177.101285 
L 334.520434 177.011366 
L 335.150437 176.923641 
L 336.410444 176.838053 
L 337.040447 176.754549 
L 338.300453 176.673075 
L 338.930456 176.59358 
L 340.190462 176.516015 
L 340.820466 176.440331 
L 342.080472 176.366479 
L 342.710475 176.294415 
L 343.970481 176.224093 
L 344.600485 176.155469 
L 345.860491 176.088501 
L 346.490494 176.023147 
L 347.7505 175.959366 
L 348.380503 175.89712 
L 349.64051 175.83637 
L 350.270513 175.777078 
L 351.530519 175.719208 
L 352.160522 175.662725 
L 354.365533 175.55378 
L 355.62554 175.449979 
L 358.145552 175.351068 
L 359.405559 175.256808 
L 361.925571 175.166972 
L 363.185578 175.081344 
L 365.70559 174.999718 
L 366.965597 174.9219 
L 370.430614 174.811913 
L 372.005622 174.742828 
L 375.155638 174.645153 
L 376.730646 174.583784 
L 379.880661 174.496992 
L 381.770671 174.442444 
L 383.975682 174.365277 
L 388.385704 174.270464 
L 390.590715 174.20494 
L 395.945742 174.105389 
L 398.465754 174.05096 
L 404.450784 173.952763 
L 407.915802 173.894418 
L 415.790841 173.792543 
L 420.200863 173.737642 
L 429.020908 173.653126 
L 429.020908 173.653126 
" style="fill:none;stroke:#00bfbf;stroke-dasharray:2,3.3;stroke-dashoffset:0;stroke-width:2;"/>
   </g>
   <g id="line2d_25">
    <path clip-path="url(#p4ac0b28c1f)" d="M 210.094811 276.48 
L 210.094811 25.44 
" style="fill:none;stroke:#000000;stroke-dasharray:2,3.3;stroke-dashoffset:0;stroke-width:2;"/>
   </g>
   <g id="patch_3">
    <path d="M 48.31 276.48 
L 48.31 25.44 
" style="fill:none;stroke:#000000;stroke-linecap:square;stroke-linejoin:miter;stroke-width:0.8;"/>
   </g>
   <g id="patch_4">
    <path d="M 447.48 276.48 
L 447.48 25.44 
" style="fill:none;stroke:#000000;stroke-linecap:square;stroke-linejoin:miter;stroke-width:0.8;"/>
   </g>
   <g id="patch_5">
    <path d="M 48.31 276.48 
L 447.48 276.48 
" style="fill:none;stroke:#000000;stroke-linecap:square;stroke-linejoin:miter;stroke-width:0.8;"/>
   </g>
   <g id="patch_6">
    <path d="M 48.31 25.44 
L 447.48 25.44 
" style="fill:none;stroke:#000000;stroke-linecap:square;stroke-linejoin:miter;stroke-width:0.8;"/>
   </g>
   <g id="text_19">
    <!-- Genk -->
    <defs>
     <path d="M 59.515625 10.40625 
L 59.515625 29.984375 
L 43.40625 29.984375 
L 43.40625 38.09375 
L 69.28125 38.09375 
L 69.28125 6.78125 
Q 63.578125 2.734375 56.6875 0.65625 
Q 49.8125 -1.421875 42 -1.421875 
Q 24.90625 -1.421875 15.25 8.5625 
Q 5.609375 18.5625 5.609375 36.375 
Q 5.609375 54.25 15.25 64.234375 
Q 24.90625 74.21875 42 74.21875 
Q 49.125 74.21875 55.546875 72.453125 
Q 61.96875 70.703125 67.390625 67.28125 
L 67.390625 56.78125 
Q 61.921875 61.421875 55.765625 63.765625 
Q 49.609375 66.109375 42.828125 66.109375 
Q 29.4375 66.109375 22.71875 58.640625 
Q 16.015625 51.171875 16.015625 36.375 
Q 16.015625 21.625 22.71875 14.15625 
Q 29.4375 6.6875 42.828125 6.6875 
Q 48.046875 6.6875 52.140625 7.59375 
Q 56.25 8.5 59.515625 10.40625 
z
" id="DejaVuSans-47"/>
     <path d="M 54.890625 33.015625 
L 54.890625 0 
L 45.90625 0 
L 45.90625 32.71875 
Q 45.90625 40.484375 42.875 44.328125 
Q 39.84375 48.1875 33.796875 48.1875 
Q 26.515625 48.1875 22.3125 43.546875 
Q 18.109375 38.921875 18.109375 30.90625 
L 18.109375 0 
L 9.078125 0 
L 9.078125 54.6875 
L 18.109375 54.6875 
L 18.109375 46.1875 
Q 21.34375 51.125 25.703125 53.5625 
Q 30.078125 56 35.796875 56 
Q 45.21875 56 50.046875 50.171875 
Q 54.890625 44.34375 54.890625 33.015625 
z
" id="DejaVuSans-6e"/>
     <path d="M 9.078125 75.984375 
L 18.109375 75.984375 
L 18.109375 31.109375 
L 44.921875 54.6875 
L 56.390625 54.6875 
L 27.390625 29.109375 
L 57.625 0 
L 45.90625 0 
L 18.109375 26.703125 
L 18.109375 0 
L 9.078125 0 
z
" id="DejaVuSans-6b"/>
    </defs>
    <g transform="translate(232.277188 19.44)scale(0.12 -0.12)">
     <use xlink:href="#DejaVuSans-47"/>
     <use x="77.490234" xlink:href="#DejaVuSans-65"/>
     <use x="139.013672" xlink:href="#DejaVuSans-6e"/>
     <use x="202.392578" xlink:href="#DejaVuSans-6b"/>
    </g>
   </g>
  </g>
  <g id="legend_1">
   <g id="patch_7">
    <path d="M 298.085938 66.7125 
L 453.8 66.7125 
Q 455.8 66.7125 455.8 64.7125 
L 455.8 7 
Q 455.8 5 453.8 5 
L 298.085938 5 
Q 296.085938 5 296.085938 7 
L 296.085938 64.7125 
Q 296.085938 66.7125 298.085938 66.7125 
z
" style="fill:#ffffff;opacity:0.8;stroke:#cccccc;stroke-linejoin:miter;"/>
   </g>
   <g id="line2d_26">
    <path d="M 300.085938 13.098438 
L 320.085938 13.098438 
" style="fill:none;stroke:#0000ff;stroke-linecap:square;stroke-width:2;"/>
   </g>
   <g id="line2d_27"/>
   <g id="text_20">
    <!-- Buildings - ideal network -->
    <defs>
     <path d="M 19.671875 34.8125 
L 19.671875 8.109375 
L 35.5 8.109375 
Q 43.453125 8.109375 47.28125 11.40625 
Q 51.125 14.703125 51.125 21.484375 
Q 51.125 28.328125 47.28125 31.5625 
Q 43.453125 34.8125 35.5 34.8125 
z
M 19.671875 64.796875 
L 19.671875 42.828125 
L 34.28125 42.828125 
Q 41.5 42.828125 45.03125 45.53125 
Q 48.578125 48.25 48.578125 53.8125 
Q 48.578125 59.328125 45.03125 62.0625 
Q 41.5 64.796875 34.28125 64.796875 
z
M 9.8125 72.90625 
L 35.015625 72.90625 
Q 46.296875 72.90625 52.390625 68.21875 
Q 58.5 63.53125 58.5 54.890625 
Q 58.5 48.1875 55.375 44.234375 
Q 52.25 40.28125 46.1875 39.3125 
Q 53.46875 37.75 57.5 32.78125 
Q 61.53125 27.828125 61.53125 20.40625 
Q 61.53125 10.640625 54.890625 5.3125 
Q 48.25 0 35.984375 0 
L 9.8125 0 
z
" id="DejaVuSans-42"/>
     <path d="M 8.5 21.578125 
L 8.5 54.6875 
L 17.484375 54.6875 
L 17.484375 21.921875 
Q 17.484375 14.15625 20.5 10.265625 
Q 23.53125 6.390625 29.59375 6.390625 
Q 36.859375 6.390625 41.078125 11.03125 
Q 45.3125 15.671875 45.3125 23.6875 
L 45.3125 54.6875 
L 54.296875 54.6875 
L 54.296875 0 
L 45.3125 0 
L 45.3125 8.40625 
Q 42.046875 3.421875 37.71875 1 
Q 33.40625 -1.421875 27.6875 -1.421875 
Q 18.265625 -1.421875 13.375 4.4375 
Q 8.5 10.296875 8.5 21.578125 
z
M 31.109375 56 
z
" id="DejaVuSans-75"/>
     <path d="M 9.421875 54.6875 
L 18.40625 54.6875 
L 18.40625 0 
L 9.421875 0 
z
M 9.421875 75.984375 
L 18.40625 75.984375 
L 18.40625 64.59375 
L 9.421875 64.59375 
z
" id="DejaVuSans-69"/>
     <path d="M 9.421875 75.984375 
L 18.40625 75.984375 
L 18.40625 0 
L 9.421875 0 
z
" id="DejaVuSans-6c"/>
     <path d="M 45.40625 46.390625 
L 45.40625 75.984375 
L 54.390625 75.984375 
L 54.390625 0 
L 45.40625 0 
L 45.40625 8.203125 
Q 42.578125 3.328125 38.25 0.953125 
Q 33.9375 -1.421875 27.875 -1.421875 
Q 17.96875 -1.421875 11.734375 6.484375 
Q 5.515625 14.40625 5.515625 27.296875 
Q 5.515625 40.1875 11.734375 48.09375 
Q 17.96875 56 27.875 56 
Q 33.9375 56 38.25 53.625 
Q 42.578125 51.265625 45.40625 46.390625 
z
M 14.796875 27.296875 
Q 14.796875 17.390625 18.875 11.75 
Q 22.953125 6.109375 30.078125 6.109375 
Q 37.203125 6.109375 41.296875 11.75 
Q 45.40625 17.390625 45.40625 27.296875 
Q 45.40625 37.203125 41.296875 42.84375 
Q 37.203125 48.484375 30.078125 48.484375 
Q 22.953125 48.484375 18.875 42.84375 
Q 14.796875 37.203125 14.796875 27.296875 
z
" id="DejaVuSans-64"/>
     <path d="M 45.40625 27.984375 
Q 45.40625 37.75 41.375 43.109375 
Q 37.359375 48.484375 30.078125 48.484375 
Q 22.859375 48.484375 18.828125 43.109375 
Q 14.796875 37.75 14.796875 27.984375 
Q 14.796875 18.265625 18.828125 12.890625 
Q 22.859375 7.515625 30.078125 7.515625 
Q 37.359375 7.515625 41.375 12.890625 
Q 45.40625 18.265625 45.40625 27.984375 
z
M 54.390625 6.78125 
Q 54.390625 -7.171875 48.1875 -13.984375 
Q 42 -20.796875 29.203125 -20.796875 
Q 24.46875 -20.796875 20.265625 -20.09375 
Q 16.0625 -19.390625 12.109375 -17.921875 
L 12.109375 -9.1875 
Q 16.0625 -11.328125 19.921875 -12.34375 
Q 23.78125 -13.375 27.78125 -13.375 
Q 36.625 -13.375 41.015625 -8.765625 
Q 45.40625 -4.15625 45.40625 5.171875 
L 45.40625 9.625 
Q 42.625 4.78125 38.28125 2.390625 
Q 33.9375 0 27.875 0 
Q 17.828125 0 11.671875 7.65625 
Q 5.515625 15.328125 5.515625 27.984375 
Q 5.515625 40.671875 11.671875 48.328125 
Q 17.828125 56 27.875 56 
Q 33.9375 56 38.28125 53.609375 
Q 42.625 51.21875 45.40625 46.390625 
L 45.40625 54.6875 
L 54.390625 54.6875 
z
" id="DejaVuSans-67"/>
     <path d="M 44.28125 53.078125 
L 44.28125 44.578125 
Q 40.484375 46.53125 36.375 47.5 
Q 32.28125 48.484375 27.875 48.484375 
Q 21.1875 48.484375 17.84375 46.4375 
Q 14.5 44.390625 14.5 40.28125 
Q 14.5 37.15625 16.890625 35.375 
Q 19.28125 33.59375 26.515625 31.984375 
L 29.59375 31.296875 
Q 39.15625 29.25 43.1875 25.515625 
Q 47.21875 21.78125 47.21875 15.09375 
Q 47.21875 7.46875 41.1875 3.015625 
Q 35.15625 -1.421875 24.609375 -1.421875 
Q 20.21875 -1.421875 15.453125 -0.5625 
Q 10.6875 0.296875 5.421875 2 
L 5.421875 11.28125 
Q 10.40625 8.6875 15.234375 7.390625 
Q 20.0625 6.109375 24.8125 6.109375 
Q 31.15625 6.109375 34.5625 8.28125 
Q 37.984375 10.453125 37.984375 14.40625 
Q 37.984375 18.0625 35.515625 20.015625 
Q 33.0625 21.96875 24.703125 23.78125 
L 21.578125 24.515625 
Q 13.234375 26.265625 9.515625 29.90625 
Q 5.8125 33.546875 5.8125 39.890625 
Q 5.8125 47.609375 11.28125 51.796875 
Q 16.75 56 26.8125 56 
Q 31.78125 56 36.171875 55.265625 
Q 40.578125 54.546875 44.28125 53.078125 
z
" id="DejaVuSans-73"/>
     <path id="DejaVuSans-20"/>
     <path d="M 34.28125 27.484375 
Q 23.390625 27.484375 19.1875 25 
Q 14.984375 22.515625 14.984375 16.5 
Q 14.984375 11.71875 18.140625 8.90625 
Q 21.296875 6.109375 26.703125 6.109375 
Q 34.1875 6.109375 38.703125 11.40625 
Q 43.21875 16.703125 43.21875 25.484375 
L 43.21875 27.484375 
z
M 52.203125 31.203125 
L 52.203125 0 
L 43.21875 0 
L 43.21875 8.296875 
Q 40.140625 3.328125 35.546875 0.953125 
Q 30.953125 -1.421875 24.3125 -1.421875 
Q 15.921875 -1.421875 10.953125 3.296875 
Q 6 8.015625 6 15.921875 
Q 6 25.140625 12.171875 29.828125 
Q 18.359375 34.515625 30.609375 34.515625 
L 43.21875 34.515625 
L 43.21875 35.40625 
Q 43.21875 41.609375 39.140625 45 
Q 35.0625 48.390625 27.6875 48.390625 
Q 23 48.390625 18.546875 47.265625 
Q 14.109375 46.140625 10.015625 43.890625 
L 10.015625 52.203125 
Q 14.9375 54.109375 19.578125 55.046875 
Q 24.21875 56 28.609375 56 
Q 40.484375 56 46.34375 49.84375 
Q 52.203125 43.703125 52.203125 31.203125 
z
" id="DejaVuSans-61"/>
     <path d="M 18.3125 70.21875 
L 18.3125 54.6875 
L 36.8125 54.6875 
L 36.8125 47.703125 
L 18.3125 47.703125 
L 18.3125 18.015625 
Q 18.3125 11.328125 20.140625 9.421875 
Q 21.96875 7.515625 27.59375 7.515625 
L 36.8125 7.515625 
L 36.8125 0 
L 27.59375 0 
Q 17.1875 0 13.234375 3.875 
Q 9.28125 7.765625 9.28125 18.015625 
L 9.28125 47.703125 
L 2.6875 47.703125 
L 2.6875 54.6875 
L 9.28125 54.6875 
L 9.28125 70.21875 
z
" id="DejaVuSans-74"/>
     <path d="M 4.203125 54.6875 
L 13.1875 54.6875 
L 24.421875 12.015625 
L 35.59375 54.6875 
L 46.1875 54.6875 
L 57.421875 12.015625 
L 68.609375 54.6875 
L 77.59375 54.6875 
L 63.28125 0 
L 52.6875 0 
L 40.921875 44.828125 
L 29.109375 0 
L 18.5 0 
z
" id="DejaVuSans-77"/>
     <path d="M 30.609375 48.390625 
Q 23.390625 48.390625 19.1875 42.75 
Q 14.984375 37.109375 14.984375 27.296875 
Q 14.984375 17.484375 19.15625 11.84375 
Q 23.34375 6.203125 30.609375 6.203125 
Q 37.796875 6.203125 41.984375 11.859375 
Q 46.1875 17.53125 46.1875 27.296875 
Q 46.1875 37.015625 41.984375 42.703125 
Q 37.796875 48.390625 30.609375 48.390625 
z
M 30.609375 56 
Q 42.328125 56 49.015625 48.375 
Q 55.71875 40.765625 55.71875 27.296875 
Q 55.71875 13.875 49.015625 6.21875 
Q 42.328125 -1.421875 30.609375 -1.421875 
Q 18.84375 -1.421875 12.171875 6.21875 
Q 5.515625 13.875 5.515625 27.296875 
Q 5.515625 40.765625 12.171875 48.375 
Q 18.84375 56 30.609375 56 
z
" id="DejaVuSans-6f"/>
     <path d="M 41.109375 46.296875 
Q 39.59375 47.171875 37.8125 47.578125 
Q 36.03125 48 33.890625 48 
Q 26.265625 48 22.1875 43.046875 
Q 18.109375 38.09375 18.109375 28.8125 
L 18.109375 0 
L 9.078125 0 
L 9.078125 54.6875 
L 18.109375 54.6875 
L 18.109375 46.1875 
Q 20.953125 51.171875 25.484375 53.578125 
Q 30.03125 56 36.53125 56 
Q 37.453125 56 38.578125 55.875 
Q 39.703125 55.765625 41.0625 55.515625 
z
" id="DejaVuSans-72"/>
    </defs>
    <g transform="translate(328.085938 16.598438)scale(0.1 -0.1)">
     <use xlink:href="#DejaVuSans-42"/>
     <use x="68.603516" xlink:href="#DejaVuSans-75"/>
     <use x="131.982422" xlink:href="#DejaVuSans-69"/>
     <use x="159.765625" xlink:href="#DejaVuSans-6c"/>
     <use x="187.548828" xlink:href="#DejaVuSans-64"/>
     <use x="251.025391" xlink:href="#DejaVuSans-69"/>
     <use x="278.808594" xlink:href="#DejaVuSans-6e"/>
     <use x="342.1875" xlink:href="#DejaVuSans-67"/>
     <use x="405.664062" xlink:href="#DejaVuSans-73"/>
     <use x="457.763672" xlink:href="#DejaVuSans-20"/>
     <use x="489.550781" xlink:href="#DejaVuSans-2d"/>
     <use x="525.634766" xlink:href="#DejaVuSans-20"/>
     <use x="557.421875" xlink:href="#DejaVuSans-69"/>
     <use x="585.205078" xlink:href="#DejaVuSans-64"/>
     <use x="648.681641" xlink:href="#DejaVuSans-65"/>
     <use x="710.205078" xlink:href="#DejaVuSans-61"/>
     <use x="771.484375" xlink:href="#DejaVuSans-6c"/>
     <use x="799.267578" xlink:href="#DejaVuSans-20"/>
     <use x="831.054688" xlink:href="#DejaVuSans-6e"/>
     <use x="894.433594" xlink:href="#DejaVuSans-65"/>
     <use x="955.957031" xlink:href="#DejaVuSans-74"/>
     <use x="995.166016" xlink:href="#DejaVuSans-77"/>
     <use x="1076.953125" xlink:href="#DejaVuSans-6f"/>
     <use x="1138.134766" xlink:href="#DejaVuSans-72"/>
     <use x="1179.248047" xlink:href="#DejaVuSans-6b"/>
    </g>
   </g>
   <g id="line2d_28">
    <path d="M 300.085938 27.776563 
L 320.085938 27.776563 
" style="fill:none;stroke:#008000;stroke-dasharray:7.4,3.2;stroke-dashoffset:0;stroke-width:2;"/>
   </g>
   <g id="line2d_29"/>
   <g id="text_21">
    <!-- Buildings -->
    <g transform="translate(328.085938 31.276563)scale(0.1 -0.1)">
     <use xlink:href="#DejaVuSans-42"/>
     <use x="68.603516" xlink:href="#DejaVuSans-75"/>
     <use x="131.982422" xlink:href="#DejaVuSans-69"/>
     <use x="159.765625" xlink:href="#DejaVuSans-6c"/>
     <use x="187.548828" xlink:href="#DejaVuSans-64"/>
     <use x="251.025391" xlink:href="#DejaVuSans-69"/>
     <use x="278.808594" xlink:href="#DejaVuSans-6e"/>
     <use x="342.1875" xlink:href="#DejaVuSans-67"/>
     <use x="405.664062" xlink:href="#DejaVuSans-73"/>
    </g>
   </g>
   <g id="line2d_30">
    <path d="M 300.085938 42.454688 
L 320.085938 42.454688 
" style="fill:none;stroke:#ff0000;stroke-dasharray:12.8,3.2,2,3.2;stroke-dashoffset:0;stroke-width:2;"/>
   </g>
   <g id="line2d_31"/>
   <g id="text_22">
    <!-- Network -->
    <defs>
     <path d="M 9.8125 72.90625 
L 23.09375 72.90625 
L 55.421875 11.921875 
L 55.421875 72.90625 
L 64.984375 72.90625 
L 64.984375 0 
L 51.703125 0 
L 19.390625 60.984375 
L 19.390625 0 
L 9.8125 0 
z
" id="DejaVuSans-4e"/>
    </defs>
    <g transform="translate(328.085938 45.954688)scale(0.1 -0.1)">
     <use xlink:href="#DejaVuSans-4e"/>
     <use x="74.804688" xlink:href="#DejaVuSans-65"/>
     <use x="136.328125" xlink:href="#DejaVuSans-74"/>
     <use x="175.537109" xlink:href="#DejaVuSans-77"/>
     <use x="257.324219" xlink:href="#DejaVuSans-6f"/>
     <use x="318.505859" xlink:href="#DejaVuSans-72"/>
     <use x="359.619141" xlink:href="#DejaVuSans-6b"/>
    </g>
   </g>
   <g id="line2d_32">
    <path d="M 300.085938 57.132813 
L 320.085938 57.132813 
" style="fill:none;stroke:#00bfbf;stroke-dasharray:2,3.3;stroke-dashoffset:0;stroke-width:2;"/>
   </g>
   <g id="line2d_33"/>
   <g id="text_23">
    <!-- Combined - LP -->
    <defs>
     <path d="M 64.40625 67.28125 
L 64.40625 56.890625 
Q 59.421875 61.53125 53.78125 63.8125 
Q 48.140625 66.109375 41.796875 66.109375 
Q 29.296875 66.109375 22.65625 58.46875 
Q 16.015625 50.828125 16.015625 36.375 
Q 16.015625 21.96875 22.65625 14.328125 
Q 29.296875 6.6875 41.796875 6.6875 
Q 48.140625 6.6875 53.78125 8.984375 
Q 59.421875 11.28125 64.40625 15.921875 
L 64.40625 5.609375 
Q 59.234375 2.09375 53.4375 0.328125 
Q 47.65625 -1.421875 41.21875 -1.421875 
Q 24.65625 -1.421875 15.125 8.703125 
Q 5.609375 18.84375 5.609375 36.375 
Q 5.609375 53.953125 15.125 64.078125 
Q 24.65625 74.21875 41.21875 74.21875 
Q 47.75 74.21875 53.53125 72.484375 
Q 59.328125 70.75 64.40625 67.28125 
z
" id="DejaVuSans-43"/>
     <path d="M 52 44.1875 
Q 55.375 50.25 60.0625 53.125 
Q 64.75 56 71.09375 56 
Q 79.640625 56 84.28125 50.015625 
Q 88.921875 44.046875 88.921875 33.015625 
L 88.921875 0 
L 79.890625 0 
L 79.890625 32.71875 
Q 79.890625 40.578125 77.09375 44.375 
Q 74.3125 48.1875 68.609375 48.1875 
Q 61.625 48.1875 57.5625 43.546875 
Q 53.515625 38.921875 53.515625 30.90625 
L 53.515625 0 
L 44.484375 0 
L 44.484375 32.71875 
Q 44.484375 40.625 41.703125 44.40625 
Q 38.921875 48.1875 33.109375 48.1875 
Q 26.21875 48.1875 22.15625 43.53125 
Q 18.109375 38.875 18.109375 30.90625 
L 18.109375 0 
L 9.078125 0 
L 9.078125 54.6875 
L 18.109375 54.6875 
L 18.109375 46.1875 
Q 21.1875 51.21875 25.484375 53.609375 
Q 29.78125 56 35.6875 56 
Q 41.65625 56 45.828125 52.96875 
Q 50 49.953125 52 44.1875 
z
" id="DejaVuSans-6d"/>
     <path d="M 48.6875 27.296875 
Q 48.6875 37.203125 44.609375 42.84375 
Q 40.53125 48.484375 33.40625 48.484375 
Q 26.265625 48.484375 22.1875 42.84375 
Q 18.109375 37.203125 18.109375 27.296875 
Q 18.109375 17.390625 22.1875 11.75 
Q 26.265625 6.109375 33.40625 6.109375 
Q 40.53125 6.109375 44.609375 11.75 
Q 48.6875 17.390625 48.6875 27.296875 
z
M 18.109375 46.390625 
Q 20.953125 51.265625 25.265625 53.625 
Q 29.59375 56 35.59375 56 
Q 45.5625 56 51.78125 48.09375 
Q 58.015625 40.1875 58.015625 27.296875 
Q 58.015625 14.40625 51.78125 6.484375 
Q 45.5625 -1.421875 35.59375 -1.421875 
Q 29.59375 -1.421875 25.265625 0.953125 
Q 20.953125 3.328125 18.109375 8.203125 
L 18.109375 0 
L 9.078125 0 
L 9.078125 75.984375 
L 18.109375 75.984375 
z
" id="DejaVuSans-62"/>
     <path d="M 9.8125 72.90625 
L 19.671875 72.90625 
L 19.671875 8.296875 
L 55.171875 8.296875 
L 55.171875 0 
L 9.8125 0 
z
" id="DejaVuSans-4c"/>
     <path d="M 19.671875 64.796875 
L 19.671875 37.40625 
L 32.078125 37.40625 
Q 38.96875 37.40625 42.71875 40.96875 
Q 46.484375 44.53125 46.484375 51.125 
Q 46.484375 57.671875 42.71875 61.234375 
Q 38.96875 64.796875 32.078125 64.796875 
z
M 9.8125 72.90625 
L 32.078125 72.90625 
Q 44.34375 72.90625 50.609375 67.359375 
Q 56.890625 61.8125 56.890625 51.125 
Q 56.890625 40.328125 50.609375 34.8125 
Q 44.34375 29.296875 32.078125 29.296875 
L 19.671875 29.296875 
L 19.671875 0 
L 9.8125 0 
z
" id="DejaVuSans-50"/>
    </defs>
    <g transform="translate(328.085938 60.632813)scale(0.1 -0.1)">
     <use xlink:href="#DejaVuSans-43"/>
     <use x="69.824219" xlink:href="#DejaVuSans-6f"/>
     <use x="131.005859" xlink:href="#DejaVuSans-6d"/>
     <use x="228.417969" xlink:href="#DejaVuSans-62"/>
     <use x="291.894531" xlink:href="#DejaVuSans-69"/>
     <use x="319.677734" xlink:href="#DejaVuSans-6e"/>
     <use x="383.056641" xlink:href="#DejaVuSans-65"/>
     <use x="444.580078" xlink:href="#DejaVuSans-64"/>
     <use x="508.056641" xlink:href="#DejaVuSans-20"/>
     <use x="539.84375" xlink:href="#DejaVuSans-2d"/>
     <use x="575.927734" xlink:href="#DejaVuSans-20"/>
     <use x="607.714844" xlink:href="#DejaVuSans-4c"/>
     <use x="663.427734" xlink:href="#DejaVuSans-50"/>
    </g>
   </g>
  </g>
 </g>
 <defs>
  <clipPath id="p4ac0b28c1f">
   <rect height="251.04" width="399.17" x="48.31" y="25.44"/>
  </clipPath>
 </defs>
</svg>
