<?xml version="1.0" encoding="utf-8" standalone="no"?>
<!DOCTYPE svg PUBLIC "-//W3C//DTD SVG 1.1//EN"
  "http://www.w3.org/Graphics/SVG/1.1/DTD/svg11.dtd">
<!-- Created with matplotlib (http://matplotlib.org/) -->
<svg height="345pt" version="1.1" viewBox="0 0 460 345" width="460pt" xmlns="http://www.w3.org/2000/svg" xmlns:xlink="http://www.w3.org/1999/xlink">
 <defs>
  <style type="text/css">
*{stroke-linecap:butt;stroke-linejoin:round;}
  </style>
 </defs>
 <g id="figure_1">
  <g id="patch_1">
   <path d="M 0 345.6 
L 460.8 345.6 
L 460.8 0 
L 0 0 
z
" style="fill:#ffffff;"/>
  </g>
  <g id="axes_1">
   <g id="patch_2">
    <path d="M 57.76 91.794287 
L 447.48 91.794287 
L 447.48 25.44 
L 57.76 25.44 
z
" style="fill:#ffffff;"/>
   </g>
   <g id="matplotlib.axis_1">
    <g id="xtick_1">
     <g id="line2d_1">
      <defs>
       <path d="M 0 0 
L 0 3.5 
" id="m7a0873ccef" style="stroke:#000000;stroke-width:0.8;"/>
      </defs>
      <g>
       <use style="stroke:#000000;stroke-width:0.8;" x="64.402955" xlink:href="#m7a0873ccef" y="91.794287"/>
      </g>
     </g>
    </g>
    <g id="xtick_2">
     <g id="line2d_2">
      <g>
       <use style="stroke:#000000;stroke-width:0.8;" x="108.689318" xlink:href="#m7a0873ccef" y="91.794287"/>
      </g>
     </g>
    </g>
    <g id="xtick_3">
     <g id="line2d_3">
      <g>
       <use style="stroke:#000000;stroke-width:0.8;" x="152.975682" xlink:href="#m7a0873ccef" y="91.794287"/>
      </g>
     </g>
    </g>
    <g id="xtick_4">
     <g id="line2d_4">
      <g>
       <use style="stroke:#000000;stroke-width:0.8;" x="197.262045" xlink:href="#m7a0873ccef" y="91.794287"/>
      </g>
     </g>
    </g>
    <g id="xtick_5">
     <g id="line2d_5">
      <g>
       <use style="stroke:#000000;stroke-width:0.8;" x="241.548409" xlink:href="#m7a0873ccef" y="91.794287"/>
      </g>
     </g>
    </g>
    <g id="xtick_6">
     <g id="line2d_6">
      <g>
       <use style="stroke:#000000;stroke-width:0.8;" x="285.834773" xlink:href="#m7a0873ccef" y="91.794287"/>
      </g>
     </g>
    </g>
    <g id="xtick_7">
     <g id="line2d_7">
      <g>
       <use style="stroke:#000000;stroke-width:0.8;" x="330.121136" xlink:href="#m7a0873ccef" y="91.794287"/>
      </g>
     </g>
    </g>
    <g id="xtick_8">
     <g id="line2d_8">
      <g>
       <use style="stroke:#000000;stroke-width:0.8;" x="374.4075" xlink:href="#m7a0873ccef" y="91.794287"/>
      </g>
     </g>
    </g>
    <g id="xtick_9">
     <g id="line2d_9">
      <g>
       <use style="stroke:#000000;stroke-width:0.8;" x="418.693864" xlink:href="#m7a0873ccef" y="91.794287"/>
      </g>
     </g>
    </g>
   </g>
   <g id="matplotlib.axis_2">
    <g id="ytick_1">
     <g id="line2d_10">
      <defs>
       <path d="M 0 0 
L -3.5 0 
" id="m7e25a7fb17" style="stroke:#000000;stroke-width:0.8;"/>
      </defs>
      <g>
       <use style="stroke:#000000;stroke-width:0.8;" x="57.76" xlink:href="#m7e25a7fb17" y="68.321804"/>
      </g>
     </g>
     <g id="text_1">
      <!-- 0 -->
      <defs>
       <path d="M 31.78125 66.40625 
Q 24.171875 66.40625 20.328125 58.90625 
Q 16.5 51.421875 16.5 36.375 
Q 16.5 21.390625 20.328125 13.890625 
Q 24.171875 6.390625 31.78125 6.390625 
Q 39.453125 6.390625 43.28125 13.890625 
Q 47.125 21.390625 47.125 36.375 
Q 47.125 51.421875 43.28125 58.90625 
Q 39.453125 66.40625 31.78125 66.40625 
z
M 31.78125 74.21875 
Q 44.046875 74.21875 50.515625 64.515625 
Q 56.984375 54.828125 56.984375 36.375 
Q 56.984375 17.96875 50.515625 8.265625 
Q 44.046875 -1.421875 31.78125 -1.421875 
Q 19.53125 -1.421875 13.0625 8.265625 
Q 6.59375 17.96875 6.59375 36.375 
Q 6.59375 54.828125 13.0625 64.515625 
Q 19.53125 74.21875 31.78125 74.21875 
z
" id="DejaVuSans-30"/>
      </defs>
      <g transform="translate(44.3975 72.121022)scale(0.1 -0.1)">
       <use xlink:href="#DejaVuSans-30"/>
      </g>
     </g>
    </g>
    <g id="ytick_2">
     <g id="line2d_11">
      <g>
       <use style="stroke:#000000;stroke-width:0.8;" x="57.76" xlink:href="#m7e25a7fb17" y="26.203257"/>
      </g>
     </g>
     <g id="text_2">
      <!-- 100000 -->
      <defs>
       <path d="M 12.40625 8.296875 
L 28.515625 8.296875 
L 28.515625 63.921875 
L 10.984375 60.40625 
L 10.984375 69.390625 
L 28.421875 72.90625 
L 38.28125 72.90625 
L 38.28125 8.296875 
L 54.390625 8.296875 
L 54.390625 0 
L 12.40625 0 
z
" id="DejaVuSans-31"/>
      </defs>
      <g transform="translate(12.585 30.002476)scale(0.1 -0.1)">
       <use xlink:href="#DejaVuSans-31"/>
       <use x="63.623047" xlink:href="#DejaVuSans-30"/>
       <use x="127.246094" xlink:href="#DejaVuSans-30"/>
       <use x="190.869141" xlink:href="#DejaVuSans-30"/>
       <use x="254.492188" xlink:href="#DejaVuSans-30"/>
       <use x="318.115234" xlink:href="#DejaVuSans-30"/>
      </g>
     </g>
    </g>
   </g>
   <g id="line2d_12">
    <path clip-path="url(#p723071a3fe)" d="M 75.474545 68.321804 
L 156.666212 68.321804 
L 157.588845 66.480029 
L 158.511477 66.63111 
L 159.43411 66.667938 
L 160.356742 64.861982 
L 161.279375 65.0479 
L 167.737803 65.504055 
L 168.660436 58.449346 
L 169.583068 54.142157 
L 170.505701 43.801291 
L 171.428333 42.972183 
L 172.350966 33.360396 
L 175.118864 34.030472 
L 176.964129 34.405941 
L 177.886761 28.904952 
L 178.809394 29.053215 
L 179.732027 30.161368 
L 180.654659 33.652568 
L 181.577292 30.15968 
L 182.499924 28.456104 
L 183.422557 29.04547 
L 184.345189 29.185197 
L 185.267822 30.844738 
L 186.190455 39.163039 
L 187.113087 35.706877 
L 188.03572 35.559909 
L 188.958352 37.68731 
L 189.880985 41.825983 
L 190.803617 41.560533 
L 191.72625 46.643835 
L 192.648883 55.663693 
L 193.571515 57.987642 
L 194.494148 68.168246 
L 195.41678 67.337355 
L 199.107311 66.659317 
L 200.029943 62.285156 
L 200.952576 66.708793 
L 201.875208 66.310713 
L 202.797841 66.176468 
L 203.720473 63.356917 
L 204.643106 66.266088 
L 205.565739 65.897563 
L 210.178902 65.181242 
L 211.101534 65.066779 
L 212.024167 64.336992 
L 213.869432 64.785227 
L 214.792064 64.660501 
L 215.714697 81.462907 
L 216.63733 80.202673 
L 219.405227 79.303569 
L 220.32786 84.747005 
L 221.250492 84.10725 
L 224.01839 83.171595 
L 224.941023 84.14873 
L 225.863655 78.17478 
L 226.786288 79.129682 
L 232.322083 77.514189 
L 237.857879 76.172023 
L 243.393674 75.053131 
L 248.006837 74.258907 
L 248.92947 73.589175 
L 249.852102 73.460003 
L 250.774735 72.484354 
L 257.233163 71.835803 
L 258.155795 70.931532 
L 259.078428 70.893675 
L 260.001061 71.309678 
L 260.923693 70.278149 
L 261.846326 69.879099 
L 265.536856 69.794503 
L 266.459489 68.788526 
L 267.382121 68.796184 
L 268.304754 69.314877 
L 270.150019 69.240795 
L 271.072652 68.760271 
L 272.917917 68.758978 
L 274.763182 69.42381 
L 276.608447 69.422523 
L 277.53108 69.85023 
L 278.453712 71.430114 
L 279.376345 75.368566 
L 280.298977 75.484123 
L 282.144242 70.327987 
L 283.066875 71.342548 
L 285.834773 71.084693 
L 287.680038 70.878147 
L 288.60267 70.477492 
L 289.525303 70.781118 
L 291.370568 70.572321 
L 292.293201 71.094689 
L 293.215833 70.762648 
L 304.287424 70.146182 
L 309.82322 70.000251 
L 310.745852 73.948685 
L 311.668485 75.478952 
L 312.591117 69.90659 
L 314.436383 69.737134 
L 330.121136 69.30079 
L 338.42483 69.037737 
L 341.192727 68.559488 
L 342.11536 68.617705 
L 343.960625 68.559505 
L 345.80589 68.534996 
L 350.419053 68.555338 
L 351.341686 69.010679 
L 352.264318 68.434458 
L 356.877481 68.708383 
L 365.181174 68.716236 
L 367.026439 68.773637 
L 367.949072 68.762246 
L 368.871705 70.056432 
L 369.794337 68.795877 
L 370.71697 71.176829 
L 371.639602 68.795329 
L 372.562235 68.957742 
L 376.252765 68.986161 
L 377.175398 74.508207 
L 378.09803 70.388092 
L 379.020663 68.792955 
L 387.324356 68.671062 
L 396.550682 68.648244 
L 399.31858 68.584672 
L 420.539129 68.507667 
L 426.074924 68.488487 
L 428.842822 68.450218 
L 429.765455 68.321804 
L 429.765455 68.321804 
" style="fill:none;stroke:#0000ff;stroke-linecap:square;stroke-width:2;"/>
   </g>
   <g id="line2d_13">
    <path clip-path="url(#p723071a3fe)" d="M 215.714697 91.794287 
L 215.714697 25.44 
" style="fill:none;stroke:#000000;stroke-dasharray:2,3.3;stroke-dashoffset:0;stroke-width:2;"/>
   </g>
   <g id="line2d_14">
    <path clip-path="url(#p723071a3fe)" d="M 75.474545 68.321804 
L 156.666212 68.321804 
L 157.588845 66.480029 
L 158.511477 66.63111 
L 159.43411 66.667938 
L 160.356742 64.861982 
L 161.279375 65.0479 
L 167.737803 65.504055 
L 168.660436 58.449346 
L 169.583068 54.142157 
L 170.505701 43.801291 
L 171.428333 42.972183 
L 172.350966 33.360396 
L 175.118864 34.030472 
L 176.964129 34.405941 
L 177.886761 28.904952 
L 178.809394 29.053215 
L 179.732027 30.161368 
L 180.654659 33.652568 
L 181.577292 30.15968 
L 182.499924 28.456104 
L 183.422557 29.04547 
L 184.345189 29.185197 
L 185.267822 30.844738 
L 186.190455 39.163039 
L 187.113087 35.706877 
L 188.03572 35.559909 
L 188.958352 37.68731 
L 189.880985 41.825983 
L 190.803617 41.560533 
L 191.72625 46.643835 
L 192.648883 55.663693 
L 193.571515 57.987642 
L 194.494148 68.168246 
L 195.41678 67.337355 
L 199.107311 66.659317 
L 200.029943 62.285156 
L 200.952576 66.708793 
L 201.875208 66.310713 
L 202.797841 66.176468 
L 203.720473 63.356917 
L 204.643106 66.266088 
L 205.565739 65.897563 
L 210.178902 65.181242 
L 211.101534 65.066779 
L 212.024167 64.336992 
L 213.869432 64.785227 
L 214.792064 64.660501 
L 215.714697 81.462907 
L 216.63733 80.202673 
L 219.405227 79.303569 
L 220.32786 84.747005 
L 221.250492 84.10725 
L 224.01839 83.171595 
L 224.941023 84.14873 
L 225.863655 78.17478 
L 226.786288 79.129682 
L 232.322083 77.514189 
L 237.857879 76.172023 
L 243.393674 75.053131 
L 248.006837 74.258907 
L 248.92947 73.589175 
L 249.852102 73.460003 
L 250.774735 72.484354 
L 257.233163 71.835803 
L 258.155795 70.931532 
L 259.078428 70.893675 
L 260.001061 71.309678 
L 260.923693 70.278149 
L 261.846326 69.879099 
L 265.536856 69.794503 
L 266.459489 68.788526 
L 267.382121 68.796184 
L 268.304754 69.314877 
L 270.150019 69.240795 
L 271.072652 68.760271 
L 272.917917 68.758978 
L 274.763182 69.42381 
L 276.608447 69.422523 
L 277.53108 69.85023 
L 278.453712 71.430114 
L 279.376345 75.368566 
L 280.298977 75.484123 
L 282.144242 70.327987 
L 283.066875 71.342548 
L 285.834773 71.084693 
L 287.680038 70.878147 
L 288.60267 70.477492 
L 289.525303 70.781118 
L 291.370568 70.572321 
L 292.293201 71.094689 
L 293.215833 70.762648 
L 304.287424 70.146182 
L 309.82322 70.000251 
L 310.745852 73.948685 
L 311.668485 75.478952 
L 312.591117 69.90659 
L 314.436383 69.737134 
L 330.121136 69.30079 
L 338.42483 69.037737 
L 341.192727 68.559488 
L 342.11536 68.617705 
L 343.960625 68.559505 
L 345.80589 68.534996 
L 350.419053 68.555338 
L 351.341686 69.010679 
L 352.264318 68.434458 
L 356.877481 68.708383 
L 365.181174 68.716236 
L 367.026439 68.773637 
L 367.949072 68.762246 
L 368.871705 70.056432 
L 369.794337 68.795877 
L 370.71697 71.176829 
L 371.639602 68.795329 
L 372.562235 68.957742 
L 376.252765 68.986161 
L 377.175398 74.508207 
L 378.09803 70.388092 
L 379.020663 68.792955 
L 387.324356 68.671062 
L 396.550682 68.648244 
L 399.31858 68.584672 
L 420.539129 68.507667 
L 426.074924 68.488487 
L 428.842822 68.450218 
L 429.765455 68.321804 
L 429.765455 68.321804 
" style="fill:none;stroke:#008000;stroke-dasharray:7.4,3.2;stroke-dashoffset:0;stroke-width:2;"/>
   </g>
   <g id="line2d_15">
    <path clip-path="url(#p723071a3fe)" d="M 215.714697 91.794287 
L 215.714697 25.44 
" style="fill:none;stroke:#000000;stroke-dasharray:2,3.3;stroke-dashoffset:0;stroke-width:2;"/>
   </g>
   <g id="line2d_16">
    <path clip-path="url(#p723071a3fe)" d="M 75.474545 68.321804 
L 212.639255 68.321804 
L 212.946799 56.374286 
L 213.254343 57.64596 
L 214.48452 65.738711 
L 214.792064 66.752228 
L 215.099609 67.355114 
L 215.407153 67.700087 
L 215.714697 79.6692 
L 216.022241 78.628042 
L 217.252418 70.579124 
L 217.559962 69.559112 
L 217.867506 68.972187 
L 218.482595 68.455932 
L 219.097683 68.34048 
L 222.173125 68.32188 
L 429.45791 68.321804 
L 429.45791 68.321804 
" style="fill:none;stroke:#ff0000;stroke-dasharray:12.8,3.2,2,3.2;stroke-dashoffset:0;stroke-width:2;"/>
   </g>
   <g id="line2d_17">
    <path clip-path="url(#p723071a3fe)" d="M 215.714697 91.794287 
L 215.714697 25.44 
" style="fill:none;stroke:#000000;stroke-dasharray:2,3.3;stroke-dashoffset:0;stroke-width:2;"/>
   </g>
   <g id="line2d_18">
    <path clip-path="url(#p723071a3fe)" d="M 75.474545 68.321804 
L 157.281301 68.321804 
L 157.588845 66.480029 
L 158.203933 66.480029 
L 158.511477 66.63111 
L 160.049198 66.667938 
L 160.356742 64.861982 
L 160.971831 64.861982 
L 161.279375 65.0479 
L 162.817096 65.11861 
L 163.432184 65.187384 
L 164.662361 65.254275 
L 165.277449 65.319337 
L 166.507626 65.382621 
L 167.122715 65.444177 
L 168.352891 65.504055 
L 168.660436 58.449346 
L 169.275524 58.449346 
L 169.583068 54.142157 
L 170.198157 54.142157 
L 170.505701 43.801291 
L 171.120789 43.801291 
L 171.428333 42.972183 
L 172.043422 42.972183 
L 172.350966 33.360396 
L 172.966054 33.360396 
L 173.273598 33.610245 
L 173.888687 33.610245 
L 174.196231 33.802156 
L 174.811319 33.802156 
L 175.118864 34.030472 
L 175.733952 34.030472 
L 176.041496 34.218896 
L 176.656585 34.218896 
L 176.964129 34.405941 
L 177.579217 34.405941 
L 177.886761 28.904952 
L 178.50185 28.904952 
L 178.809394 29.053215 
L 179.424482 29.053215 
L 179.732027 30.161368 
L 180.347115 30.161368 
L 180.654659 33.652568 
L 181.269747 33.652568 
L 181.577292 30.15968 
L 182.19238 30.15968 
L 182.499924 28.456104 
L 183.115013 28.456104 
L 183.422557 29.04547 
L 184.037645 29.04547 
L 184.345189 29.185197 
L 184.960278 29.185197 
L 185.267822 30.844738 
L 185.88291 30.844738 
L 186.190455 39.163039 
L 186.805543 39.163039 
L 187.113087 35.706877 
L 187.728175 35.706877 
L 188.03572 35.559909 
L 188.650808 35.559909 
L 188.958352 37.68731 
L 189.573441 37.68731 
L 189.880985 41.825983 
L 190.496073 41.825983 
L 190.803617 41.560533 
L 191.418706 41.560533 
L 191.72625 46.643835 
L 192.341338 46.643835 
L 192.648883 55.663693 
L 193.263971 55.663693 
L 193.571515 57.987642 
L 194.186604 57.987642 
L 194.494148 68.168246 
L 195.109236 68.168246 
L 195.41678 67.337355 
L 196.031869 67.337355 
L 196.339413 67.153513 
L 196.954501 67.153513 
L 197.262045 66.977956 
L 197.877134 66.977956 
L 198.184678 66.815713 
L 198.799766 66.815713 
L 199.107311 66.659317 
L 199.722399 66.659317 
L 200.029943 62.285156 
L 200.645032 62.285156 
L 200.952576 66.708793 
L 201.567664 66.708793 
L 201.875208 66.310713 
L 202.490297 66.310713 
L 202.797841 66.176468 
L 203.412929 66.176468 
L 203.720473 63.356917 
L 204.335562 63.356917 
L 204.643106 66.266088 
L 205.258194 66.266088 
L 205.565739 65.897563 
L 206.180827 65.897563 
L 206.488371 65.736912 
L 207.10346 65.736912 
L 207.411004 65.59082 
L 208.026092 65.59082 
L 208.333636 65.437843 
L 208.948725 65.437843 
L 209.256269 65.294413 
L 209.871357 65.294413 
L 210.486446 65.181242 
L 210.79399 65.181242 
L 211.409078 65.066779 
L 211.716622 65.066779 
L 212.024167 64.336992 
L 212.639255 64.336992 
L 212.946799 64.593919 
L 213.254343 51.456951 
L 213.561888 52.917303 
L 214.48452 60.801517 
L 215.099609 63.346494 
L 215.407153 63.887406 
L 215.714697 88.778183 
L 216.022241 88.724485 
L 216.329785 88.32251 
L 216.944874 85.25448 
L 217.867506 81.734165 
L 218.790139 79.990903 
L 219.097683 79.792002 
L 219.405227 79.400486 
L 220.020316 79.320892 
L 220.32786 84.75409 
L 220.942948 84.748879 
L 221.250492 84.108604 
L 221.865581 84.108304 
L 222.173125 83.78945 
L 222.788213 83.789425 
L 223.095758 83.472761 
L 223.710846 83.472733 
L 224.01839 83.172535 
L 224.633479 83.172491 
L 224.941023 84.149624 
L 225.556111 84.14958 
L 225.863655 78.3256 
L 226.171199 78.569672 
L 226.478744 78.627388 
L 226.786288 79.429306 
L 228.016465 78.850598 
L 228.324009 78.847674 
L 228.631553 78.562543 
L 229.246641 78.562354 
L 229.554186 78.287275 
L 230.169274 78.287274 
L 230.476818 78.021145 
L 231.091907 78.021145 
L 231.399451 77.763572 
L 232.014539 77.763572 
L 232.322083 77.514189 
L 232.937172 77.514189 
L 233.244716 77.272653 
L 233.859804 77.272653 
L 234.167348 77.038643 
L 234.782437 77.038643 
L 235.089981 76.811853 
L 235.705069 76.811853 
L 236.012614 76.591998 
L 236.627702 76.591998 
L 236.935246 76.378807 
L 237.550335 76.378807 
L 237.857879 76.172023 
L 238.472967 76.172023 
L 238.780511 75.971405 
L 239.3956 75.971405 
L 239.703144 75.776721 
L 240.318232 75.776721 
L 240.625777 75.587754 
L 241.240865 75.587754 
L 241.548409 75.404297 
L 242.163497 75.404297 
L 242.471042 75.226152 
L 243.08613 75.226152 
L 243.393674 75.053131 
L 244.008763 75.053131 
L 244.316307 74.885056 
L 244.931395 74.885056 
L 245.238939 74.721755 
L 245.854028 74.721755 
L 246.161572 74.563066 
L 246.77666 74.563066 
L 247.084205 74.408833 
L 247.699293 74.408833 
L 248.006837 74.258907 
L 248.621926 74.258907 
L 248.92947 73.589175 
L 249.544558 73.589175 
L 249.852102 73.460003 
L 250.467191 73.460003 
L 250.774735 72.484354 
L 252.312456 72.382401 
L 252.927544 72.283225 
L 254.157721 72.199488 
L 254.772809 72.125817 
L 256.002986 72.038887 
L 256.618074 71.958246 
L 256.925619 71.958246 
L 257.233163 71.835803 
L 257.848251 71.835803 
L 258.155795 70.931532 
L 259.693516 70.893675 
L 260.001061 71.309678 
L 260.616149 71.309678 
L 260.923693 70.278149 
L 261.538782 70.278149 
L 261.846326 69.879099 
L 266.151944 69.794503 
L 266.459489 68.788526 
L 267.99721 68.796184 
L 268.304754 69.314877 
L 270.765107 69.240795 
L 271.072652 68.760271 
L 273.533005 68.758978 
L 273.840549 69.136896 
L 274.455638 69.136896 
L 274.763182 69.42381 
L 277.223535 69.422523 
L 277.53108 69.85023 
L 278.146168 69.85023 
L 278.453712 71.430114 
L 279.068801 71.430114 
L 279.376345 75.368566 
L 279.991433 75.368566 
L 280.606521 75.484123 
L 280.914066 75.484123 
L 281.22161 72.982452 
L 281.836698 72.982452 
L 282.144242 70.327987 
L 282.759331 70.327987 
L 283.066875 71.342548 
L 283.681963 71.342548 
L 284.297052 71.227766 
L 285.527229 71.155182 
L 286.142317 71.084693 
L 287.372494 71.016224 
L 287.680038 70.878147 
L 288.295126 70.878147 
L 288.60267 70.477492 
L 289.217759 70.477492 
L 289.525303 70.781118 
L 291.063024 70.679894 
L 291.678112 70.572321 
L 291.985657 70.572321 
L 292.293201 71.094689 
L 292.908289 71.094689 
L 293.215833 70.762648 
L 294.753554 70.702566 
L 295.368643 70.644264 
L 296.598819 70.587679 
L 297.828996 70.479411 
L 300.28935 70.377294 
L 301.519527 70.280898 
L 303.97988 70.18983 
L 305.210057 70.103733 
L 310.438308 70.000251 
L 310.745852 73.948685 
L 311.360941 73.948685 
L 311.668485 75.478952 
L 312.283573 75.478952 
L 312.591117 69.90659 
L 313.206206 69.90659 
L 313.51375 69.76955 
L 316.896736 69.674784 
L 318.434457 69.616422 
L 322.432532 69.508211 
L 324.585341 69.433929 
L 328.89096 69.343043 
L 331.351313 69.280408 
L 336.27202 69.185401 
L 339.039918 69.037737 
L 339.347462 68.869905 
L 339.96255 68.869905 
L 340.270095 68.627321 
L 344.575713 68.559505 
L 345.498346 68.50968 
L 347.036067 68.537464 
L 351.034141 68.555338 
L 351.341686 69.010679 
L 351.956774 69.010679 
L 352.264318 68.434458 
L 355.647304 68.540424 
L 357.185025 68.708383 
L 359.337835 68.684317 
L 359.952923 68.588456 
L 363.028365 68.675739 
L 363.950997 68.729546 
L 368.56416 68.762246 
L 368.871705 70.056432 
L 369.486793 70.056432 
L 369.794337 68.795877 
L 370.409426 68.795877 
L 370.71697 71.176829 
L 371.332058 71.176829 
L 371.639602 68.795329 
L 372.254691 68.795329 
L 372.562235 68.957742 
L 376.867854 68.986161 
L 377.175398 74.508207 
L 377.790486 74.508207 
L 378.09803 70.388092 
L 378.713119 70.388092 
L 379.020663 68.792955 
L 386.094179 68.696344 
L 387.939444 68.671062 
L 392.552607 68.628744 
L 395.935593 68.604134 
L 425.76738 68.517322 
L 427.305101 68.48451 
L 429.45791 68.450218 
L 429.45791 68.450218 
" style="fill:none;stroke:#00bfbf;stroke-dasharray:2,3.3;stroke-dashoffset:0;stroke-width:2;"/>
   </g>
   <g id="line2d_19">
    <path clip-path="url(#p723071a3fe)" d="M 215.714697 91.794287 
L 215.714697 25.44 
" style="fill:none;stroke:#000000;stroke-dasharray:2,3.3;stroke-dashoffset:0;stroke-width:2;"/>
   </g>
   <g id="patch_3">
    <path d="M 57.76 91.794287 
L 57.76 25.44 
" style="fill:none;stroke:#000000;stroke-linecap:square;stroke-linejoin:miter;stroke-width:0.8;"/>
   </g>
   <g id="patch_4">
    <path d="M 447.48 91.794287 
L 447.48 25.44 
" style="fill:none;stroke:#000000;stroke-linecap:square;stroke-linejoin:miter;stroke-width:0.8;"/>
   </g>
   <g id="patch_5">
    <path d="M 57.76 91.794287 
L 447.48 91.794287 
" style="fill:none;stroke:#000000;stroke-linecap:square;stroke-linejoin:miter;stroke-width:0.8;"/>
   </g>
   <g id="patch_6">
    <path d="M 57.76 25.44 
L 447.48 25.44 
" style="fill:none;stroke:#000000;stroke-linecap:square;stroke-linejoin:miter;stroke-width:0.8;"/>
   </g>
   <g id="text_3">
    <!-- Old street -->
    <defs>
     <path d="M 39.40625 66.21875 
Q 28.65625 66.21875 22.328125 58.203125 
Q 16.015625 50.203125 16.015625 36.375 
Q 16.015625 22.609375 22.328125 14.59375 
Q 28.65625 6.59375 39.40625 6.59375 
Q 50.140625 6.59375 56.421875 14.59375 
Q 62.703125 22.609375 62.703125 36.375 
Q 62.703125 50.203125 56.421875 58.203125 
Q 50.140625 66.21875 39.40625 66.21875 
z
M 39.40625 74.21875 
Q 54.734375 74.21875 63.90625 63.9375 
Q 73.09375 53.65625 73.09375 36.375 
Q 73.09375 19.140625 63.90625 8.859375 
Q 54.734375 -1.421875 39.40625 -1.421875 
Q 24.03125 -1.421875 14.8125 8.828125 
Q 5.609375 19.09375 5.609375 36.375 
Q 5.609375 53.65625 14.8125 63.9375 
Q 24.03125 74.21875 39.40625 74.21875 
z
" id="DejaVuSans-4f"/>
     <path d="M 9.421875 75.984375 
L 18.40625 75.984375 
L 18.40625 0 
L 9.421875 0 
z
" id="DejaVuSans-6c"/>
     <path d="M 45.40625 46.390625 
L 45.40625 75.984375 
L 54.390625 75.984375 
L 54.390625 0 
L 45.40625 0 
L 45.40625 8.203125 
Q 42.578125 3.328125 38.25 0.953125 
Q 33.9375 -1.421875 27.875 -1.421875 
Q 17.96875 -1.421875 11.734375 6.484375 
Q 5.515625 14.40625 5.515625 27.296875 
Q 5.515625 40.1875 11.734375 48.09375 
Q 17.96875 56 27.875 56 
Q 33.9375 56 38.25 53.625 
Q 42.578125 51.265625 45.40625 46.390625 
z
M 14.796875 27.296875 
Q 14.796875 17.390625 18.875 11.75 
Q 22.953125 6.109375 30.078125 6.109375 
Q 37.203125 6.109375 41.296875 11.75 
Q 45.40625 17.390625 45.40625 27.296875 
Q 45.40625 37.203125 41.296875 42.84375 
Q 37.203125 48.484375 30.078125 48.484375 
Q 22.953125 48.484375 18.875 42.84375 
Q 14.796875 37.203125 14.796875 27.296875 
z
" id="DejaVuSans-64"/>
     <path id="DejaVuSans-20"/>
     <path d="M 44.28125 53.078125 
L 44.28125 44.578125 
Q 40.484375 46.53125 36.375 47.5 
Q 32.28125 48.484375 27.875 48.484375 
Q 21.1875 48.484375 17.84375 46.4375 
Q 14.5 44.390625 14.5 40.28125 
Q 14.5 37.15625 16.890625 35.375 
Q 19.28125 33.59375 26.515625 31.984375 
L 29.59375 31.296875 
Q 39.15625 29.25 43.1875 25.515625 
Q 47.21875 21.78125 47.21875 15.09375 
Q 47.21875 7.46875 41.1875 3.015625 
Q 35.15625 -1.421875 24.609375 -1.421875 
Q 20.21875 -1.421875 15.453125 -0.5625 
Q 10.6875 0.296875 5.421875 2 
L 5.421875 11.28125 
Q 10.40625 8.6875 15.234375 7.390625 
Q 20.0625 6.109375 24.8125 6.109375 
Q 31.15625 6.109375 34.5625 8.28125 
Q 37.984375 10.453125 37.984375 14.40625 
Q 37.984375 18.0625 35.515625 20.015625 
Q 33.0625 21.96875 24.703125 23.78125 
L 21.578125 24.515625 
Q 13.234375 26.265625 9.515625 29.90625 
Q 5.8125 33.546875 5.8125 39.890625 
Q 5.8125 47.609375 11.28125 51.796875 
Q 16.75 56 26.8125 56 
Q 31.78125 56 36.171875 55.265625 
Q 40.578125 54.546875 44.28125 53.078125 
z
" id="DejaVuSans-73"/>
     <path d="M 18.3125 70.21875 
L 18.3125 54.6875 
L 36.8125 54.6875 
L 36.8125 47.703125 
L 18.3125 47.703125 
L 18.3125 18.015625 
Q 18.3125 11.328125 20.140625 9.421875 
Q 21.96875 7.515625 27.59375 7.515625 
L 36.8125 7.515625 
L 36.8125 0 
L 27.59375 0 
Q 17.1875 0 13.234375 3.875 
Q 9.28125 7.765625 9.28125 18.015625 
L 9.28125 47.703125 
L 2.6875 47.703125 
L 2.6875 54.6875 
L 9.28125 54.6875 
L 9.28125 70.21875 
z
" id="DejaVuSans-74"/>
     <path d="M 41.109375 46.296875 
Q 39.59375 47.171875 37.8125 47.578125 
Q 36.03125 48 33.890625 48 
Q 26.265625 48 22.1875 43.046875 
Q 18.109375 38.09375 18.109375 28.8125 
L 18.109375 0 
L 9.078125 0 
L 9.078125 54.6875 
L 18.109375 54.6875 
L 18.109375 46.1875 
Q 20.953125 51.171875 25.484375 53.578125 
Q 30.03125 56 36.53125 56 
Q 37.453125 56 38.578125 55.875 
Q 39.703125 55.765625 41.0625 55.515625 
z
" id="DejaVuSans-72"/>
     <path d="M 56.203125 29.59375 
L 56.203125 25.203125 
L 14.890625 25.203125 
Q 15.484375 15.921875 20.484375 11.0625 
Q 25.484375 6.203125 34.421875 6.203125 
Q 39.59375 6.203125 44.453125 7.46875 
Q 49.3125 8.734375 54.109375 11.28125 
L 54.109375 2.78125 
Q 49.265625 0.734375 44.1875 -0.34375 
Q 39.109375 -1.421875 33.890625 -1.421875 
Q 20.796875 -1.421875 13.15625 6.1875 
Q 5.515625 13.8125 5.515625 26.8125 
Q 5.515625 40.234375 12.765625 48.109375 
Q 20.015625 56 32.328125 56 
Q 43.359375 56 49.78125 48.890625 
Q 56.203125 41.796875 56.203125 29.59375 
z
M 47.21875 32.234375 
Q 47.125 39.59375 43.09375 43.984375 
Q 39.0625 48.390625 32.421875 48.390625 
Q 24.90625 48.390625 20.390625 44.140625 
Q 15.875 39.890625 15.1875 32.171875 
z
" id="DejaVuSans-65"/>
    </defs>
    <g transform="translate(222.835625 19.44)scale(0.12 -0.12)">
     <use xlink:href="#DejaVuSans-4f"/>
     <use x="78.710938" xlink:href="#DejaVuSans-6c"/>
     <use x="106.494141" xlink:href="#DejaVuSans-64"/>
     <use x="169.970703" xlink:href="#DejaVuSans-20"/>
     <use x="201.757812" xlink:href="#DejaVuSans-73"/>
     <use x="253.857422" xlink:href="#DejaVuSans-74"/>
     <use x="293.066406" xlink:href="#DejaVuSans-72"/>
     <use x="334.148438" xlink:href="#DejaVuSans-65"/>
     <use x="395.671875" xlink:href="#DejaVuSans-65"/>
     <use x="457.195312" xlink:href="#DejaVuSans-74"/>
    </g>
   </g>
  </g>
  <g id="axes_2">
   <g id="patch_7">
    <path d="M 57.76 184.137143 
L 447.48 184.137143 
L 447.48 117.782857 
L 57.76 117.782857 
z
" style="fill:#ffffff;"/>
   </g>
   <g id="matplotlib.axis_3">
    <g id="xtick_10">
     <g id="line2d_20">
      <g>
       <use style="stroke:#000000;stroke-width:0.8;" x="64.402955" xlink:href="#m7a0873ccef" y="184.137143"/>
      </g>
     </g>
    </g>
    <g id="xtick_11">
     <g id="line2d_21">
      <g>
       <use style="stroke:#000000;stroke-width:0.8;" x="108.689318" xlink:href="#m7a0873ccef" y="184.137143"/>
      </g>
     </g>
    </g>
    <g id="xtick_12">
     <g id="line2d_22">
      <g>
       <use style="stroke:#000000;stroke-width:0.8;" x="152.975682" xlink:href="#m7a0873ccef" y="184.137143"/>
      </g>
     </g>
    </g>
    <g id="xtick_13">
     <g id="line2d_23">
      <g>
       <use style="stroke:#000000;stroke-width:0.8;" x="197.262045" xlink:href="#m7a0873ccef" y="184.137143"/>
      </g>
     </g>
    </g>
    <g id="xtick_14">
     <g id="line2d_24">
      <g>
       <use style="stroke:#000000;stroke-width:0.8;" x="241.548409" xlink:href="#m7a0873ccef" y="184.137143"/>
      </g>
     </g>
    </g>
    <g id="xtick_15">
     <g id="line2d_25">
      <g>
       <use style="stroke:#000000;stroke-width:0.8;" x="285.834773" xlink:href="#m7a0873ccef" y="184.137143"/>
      </g>
     </g>
    </g>
    <g id="xtick_16">
     <g id="line2d_26">
      <g>
       <use style="stroke:#000000;stroke-width:0.8;" x="330.121136" xlink:href="#m7a0873ccef" y="184.137143"/>
      </g>
     </g>
    </g>
    <g id="xtick_17">
     <g id="line2d_27">
      <g>
       <use style="stroke:#000000;stroke-width:0.8;" x="374.4075" xlink:href="#m7a0873ccef" y="184.137143"/>
      </g>
     </g>
    </g>
    <g id="xtick_18">
     <g id="line2d_28">
      <g>
       <use style="stroke:#000000;stroke-width:0.8;" x="418.693864" xlink:href="#m7a0873ccef" y="184.137143"/>
      </g>
     </g>
    </g>
   </g>
   <g id="matplotlib.axis_4">
    <g id="ytick_3">
     <g id="line2d_29">
      <g>
       <use style="stroke:#000000;stroke-width:0.8;" x="57.76" xlink:href="#m7e25a7fb17" y="183.033235"/>
      </g>
     </g>
     <g id="text_4">
      <!-- −50000 -->
      <defs>
       <path d="M 10.59375 35.5 
L 73.1875 35.5 
L 73.1875 27.203125 
L 10.59375 27.203125 
z
" id="DejaVuSans-2212"/>
       <path d="M 10.796875 72.90625 
L 49.515625 72.90625 
L 49.515625 64.59375 
L 19.828125 64.59375 
L 19.828125 46.734375 
Q 21.96875 47.46875 24.109375 47.828125 
Q 26.265625 48.1875 28.421875 48.1875 
Q 40.625 48.1875 47.75 41.5 
Q 54.890625 34.8125 54.890625 23.390625 
Q 54.890625 11.625 47.5625 5.09375 
Q 40.234375 -1.421875 26.90625 -1.421875 
Q 22.3125 -1.421875 17.546875 -0.640625 
Q 12.796875 0.140625 7.71875 1.703125 
L 7.71875 11.625 
Q 12.109375 9.234375 16.796875 8.0625 
Q 21.484375 6.890625 26.703125 6.890625 
Q 35.15625 6.890625 40.078125 11.328125 
Q 45.015625 15.765625 45.015625 23.390625 
Q 45.015625 31 40.078125 35.4375 
Q 35.15625 39.890625 26.703125 39.890625 
Q 22.75 39.890625 18.8125 39.015625 
Q 14.890625 38.140625 10.796875 36.28125 
z
" id="DejaVuSans-35"/>
      </defs>
      <g transform="translate(10.567813 186.832454)scale(0.1 -0.1)">
       <use xlink:href="#DejaVuSans-2212"/>
       <use x="83.789062" xlink:href="#DejaVuSans-35"/>
       <use x="147.412109" xlink:href="#DejaVuSans-30"/>
       <use x="211.035156" xlink:href="#DejaVuSans-30"/>
       <use x="274.658203" xlink:href="#DejaVuSans-30"/>
       <use x="338.28125" xlink:href="#DejaVuSans-30"/>
      </g>
     </g>
    </g>
    <g id="ytick_4">
     <g id="line2d_30">
      <g>
       <use style="stroke:#000000;stroke-width:0.8;" x="57.76" xlink:href="#m7e25a7fb17" y="159.499949"/>
      </g>
     </g>
     <g id="text_5">
      <!-- 0 -->
      <g transform="translate(44.3975 163.299167)scale(0.1 -0.1)">
       <use xlink:href="#DejaVuSans-30"/>
      </g>
     </g>
    </g>
    <g id="ytick_5">
     <g id="line2d_31">
      <g>
       <use style="stroke:#000000;stroke-width:0.8;" x="57.76" xlink:href="#m7e25a7fb17" y="135.966662"/>
      </g>
     </g>
     <g id="text_6">
      <!-- 50000 -->
      <g transform="translate(18.9475 139.765881)scale(0.1 -0.1)">
       <use xlink:href="#DejaVuSans-35"/>
       <use x="63.623047" xlink:href="#DejaVuSans-30"/>
       <use x="127.246094" xlink:href="#DejaVuSans-30"/>
       <use x="190.869141" xlink:href="#DejaVuSans-30"/>
       <use x="254.492188" xlink:href="#DejaVuSans-30"/>
      </g>
     </g>
    </g>
   </g>
   <g id="line2d_32">
    <path clip-path="url(#p92828ea8df)" d="M 75.474545 159.499949 
L 139.136193 159.499949 
L 140.981458 156.378929 
L 144.671989 156.718088 
L 145.594621 155.224941 
L 147.439886 155.450508 
L 148.362519 153.992705 
L 156.666212 155.197415 
L 157.588845 153.249647 
L 158.511477 153.524576 
L 159.43411 153.667759 
L 160.356742 149.680853 
L 161.279375 149.972811 
L 164.047273 150.382368 
L 165.892538 148.85172 
L 166.81517 147.257816 
L 167.737803 145.000533 
L 168.660436 143.754972 
L 169.583068 141.552049 
L 170.505701 136.313581 
L 171.428333 133.61747 
L 172.350966 125.313009 
L 175.118864 125.953347 
L 176.964129 126.329412 
L 177.886761 121.355307 
L 179.732027 121.622914 
L 180.654659 125.200305 
L 181.577292 121.932055 
L 182.499924 120.798961 
L 183.422557 121.478019 
L 184.345189 121.723213 
L 185.267822 123.700303 
L 186.190455 131.347857 
L 187.113087 127.919724 
L 188.03572 127.852635 
L 188.958352 129.593006 
L 189.880985 133.409581 
L 190.803617 133.480049 
L 191.72625 137.524954 
L 192.648883 146.130666 
L 193.571515 148.572947 
L 194.494148 157.412024 
L 195.41678 156.919181 
L 198.184678 156.663404 
L 199.107311 155.771297 
L 200.029943 153.157754 
L 200.952576 156.608164 
L 201.875208 156.61788 
L 202.797841 157.141818 
L 203.720473 154.119195 
L 204.643106 157.315214 
L 205.565739 156.937889 
L 209.256269 156.538761 
L 210.178902 156.152131 
L 211.101534 156.159803 
L 212.024167 155.351633 
L 213.869432 155.882544 
L 214.792064 155.82165 
L 215.714697 176.049696 
L 216.63733 175.064409 
L 219.405227 173.765125 
L 220.32786 179.760703 
L 221.250492 178.963296 
L 224.01839 177.696404 
L 224.941023 178.722399 
L 225.863655 171.98423 
L 226.786288 172.992215 
L 231.399451 171.213306 
L 236.012614 169.709834 
L 240.625777 168.436806 
L 241.548409 168.205864 
L 242.471042 167.624157 
L 243.393674 167.765229 
L 248.006837 166.77633 
L 248.92947 165.934096 
L 249.852102 165.776515 
L 250.774735 164.677951 
L 257.233163 163.818077 
L 258.155795 162.61356 
L 259.078428 162.539582 
L 260.001061 162.972795 
L 260.923693 161.741907 
L 261.846326 161.267911 
L 265.536856 161.107163 
L 266.459489 159.798967 
L 268.304754 159.784248 
L 269.227386 160.454923 
L 270.150019 159.770283 
L 272.917917 159.750661 
L 274.763182 160.600502 
L 277.53108 160.721453 
L 278.453712 162.93249 
L 279.376345 167.336252 
L 280.298977 167.604797 
L 281.22161 165.09606 
L 282.144242 162.149772 
L 283.066875 163.487048 
L 287.680038 162.972263 
L 288.60267 162.37869 
L 289.525303 162.804894 
L 291.370568 162.646576 
L 292.293201 163.212969 
L 293.215833 162.82544 
L 302.442159 162.107285 
L 307.977955 161.83707 
L 309.82322 161.77622 
L 310.745852 166.181332 
L 311.668485 167.884465 
L 312.591117 161.650817 
L 313.51375 161.49127 
L 327.353239 160.965412 
L 336.579564 160.711587 
L 337.502197 160.542177 
L 338.42483 160.523303 
L 339.347462 160.324848 
L 340.270095 159.877918 
L 341.192727 159.719706 
L 350.419053 159.736742 
L 351.341686 160.201198 
L 352.264318 159.559303 
L 354.109583 159.613157 
L 356.877481 159.655649 
L 357.800114 159.829479 
L 358.722746 159.660053 
L 361.490644 159.680441 
L 364.258542 159.859537 
L 365.181174 161.088191 
L 367.026439 166.987905 
L 368.871705 160.084132 
L 369.794337 160.071413 
L 370.71697 161.545936 
L 371.639602 160.011202 
L 373.484867 160.135414 
L 376.252765 160.200335 
L 377.175398 166.326781 
L 378.09803 161.784746 
L 379.020663 160.014426 
L 386.401723 159.949871 
L 428.842822 159.678744 
L 429.765455 159.499949 
L 429.765455 159.499949 
" style="fill:none;stroke:#0000ff;stroke-linecap:square;stroke-width:2;"/>
   </g>
   <g id="line2d_33">
    <path clip-path="url(#p92828ea8df)" d="M 215.714697 184.137143 
L 215.714697 117.782857 
" style="fill:none;stroke:#000000;stroke-dasharray:2,3.3;stroke-dashoffset:0;stroke-width:2;"/>
   </g>
   <g id="line2d_34">
    <path clip-path="url(#p92828ea8df)" d="M 75.474545 159.499949 
L 139.136193 159.499949 
L 140.981458 156.378929 
L 144.671989 156.718088 
L 145.594621 155.224941 
L 147.439886 155.450508 
L 148.362519 153.992705 
L 156.666212 155.197415 
L 157.588845 153.249647 
L 158.511477 153.524576 
L 159.43411 153.667759 
L 160.356742 149.680853 
L 161.279375 149.972811 
L 164.047273 150.382368 
L 165.892538 148.85172 
L 166.81517 147.257816 
L 167.737803 145.000533 
L 168.660436 143.754972 
L 169.583068 141.552049 
L 170.505701 136.313581 
L 171.428333 133.61747 
L 172.350966 125.313009 
L 175.118864 125.953347 
L 176.964129 126.329412 
L 177.886761 121.355307 
L 179.732027 121.622914 
L 180.654659 125.200305 
L 181.577292 121.932055 
L 182.499924 120.798961 
L 183.422557 121.478019 
L 184.345189 121.723213 
L 185.267822 123.700303 
L 186.190455 131.347857 
L 187.113087 127.919724 
L 188.03572 127.852635 
L 188.958352 129.593006 
L 189.880985 133.409581 
L 190.803617 133.480049 
L 191.72625 137.524954 
L 192.648883 146.130666 
L 193.571515 148.572947 
L 194.494148 157.412024 
L 195.41678 156.919181 
L 198.184678 156.663404 
L 199.107311 155.771297 
L 200.029943 153.157754 
L 200.952576 156.608164 
L 201.875208 156.61788 
L 202.797841 157.141818 
L 203.720473 154.119195 
L 204.643106 157.315214 
L 205.565739 156.937889 
L 209.256269 156.538761 
L 210.178902 156.152131 
L 211.101534 156.159803 
L 212.024167 155.351633 
L 213.869432 155.882544 
L 214.792064 155.82165 
L 215.714697 176.049696 
L 216.63733 175.064409 
L 219.405227 173.765125 
L 220.32786 179.760703 
L 221.250492 178.963296 
L 224.01839 177.696404 
L 224.941023 178.722399 
L 225.863655 171.98423 
L 226.786288 172.992215 
L 231.399451 171.213306 
L 236.012614 169.709834 
L 240.625777 168.436806 
L 241.548409 168.205864 
L 242.471042 167.624157 
L 243.393674 167.765229 
L 248.006837 166.77633 
L 248.92947 165.934096 
L 249.852102 165.776515 
L 250.774735 164.677951 
L 257.233163 163.818077 
L 258.155795 162.61356 
L 259.078428 162.539582 
L 260.001061 162.972795 
L 260.923693 161.741907 
L 261.846326 161.267911 
L 265.536856 161.107163 
L 266.459489 159.798967 
L 268.304754 159.784248 
L 269.227386 160.454923 
L 270.150019 159.770283 
L 272.917917 159.750661 
L 274.763182 160.600502 
L 277.53108 160.721453 
L 278.453712 162.93249 
L 279.376345 167.336252 
L 280.298977 167.604797 
L 281.22161 165.09606 
L 282.144242 162.149772 
L 283.066875 163.487048 
L 287.680038 162.972263 
L 288.60267 162.37869 
L 289.525303 162.804894 
L 291.370568 162.646576 
L 292.293201 163.212969 
L 293.215833 162.82544 
L 302.442159 162.107285 
L 307.977955 161.83707 
L 309.82322 161.77622 
L 310.745852 166.181332 
L 311.668485 167.884465 
L 312.591117 161.650817 
L 313.51375 161.49127 
L 327.353239 160.965412 
L 336.579564 160.711587 
L 337.502197 160.542177 
L 338.42483 160.523303 
L 339.347462 160.324848 
L 340.270095 159.877918 
L 341.192727 159.719706 
L 350.419053 159.736742 
L 351.341686 160.201198 
L 352.264318 159.559303 
L 354.109583 159.613157 
L 356.877481 159.655649 
L 357.800114 159.829479 
L 358.722746 159.660053 
L 361.490644 159.680441 
L 364.258542 159.859537 
L 365.181174 161.088191 
L 367.026439 166.987905 
L 368.871705 160.084132 
L 369.794337 160.071413 
L 370.71697 161.545936 
L 371.639602 160.011202 
L 373.484867 160.135414 
L 376.252765 160.200335 
L 377.175398 166.326781 
L 378.09803 161.784746 
L 379.020663 160.014426 
L 386.401723 159.949871 
L 428.842822 159.678744 
L 429.765455 159.499949 
L 429.765455 159.499949 
" style="fill:none;stroke:#008000;stroke-dasharray:7.4,3.2;stroke-dashoffset:0;stroke-width:2;"/>
   </g>
   <g id="line2d_35">
    <path clip-path="url(#p92828ea8df)" d="M 215.714697 184.137143 
L 215.714697 117.782857 
" style="fill:none;stroke:#000000;stroke-dasharray:2,3.3;stroke-dashoffset:0;stroke-width:2;"/>
   </g>
   <g id="line2d_36">
    <path clip-path="url(#p92828ea8df)" d="M 75.474545 159.499949 
L 212.331711 159.499949 
L 212.639255 148.814626 
L 212.946799 149.176238 
L 213.561888 152.483237 
L 214.176976 155.670045 
L 214.792064 157.757811 
L 215.407153 158.718804 
L 215.714697 169.70165 
L 216.022241 169.260869 
L 216.63733 166.405127 
L 217.252418 162.909597 
L 217.867506 160.879738 
L 218.482595 159.935584 
L 219.097683 159.595246 
L 220.020316 159.506088 
L 233.244716 159.499949 
L 429.45791 159.499949 
L 429.45791 159.499949 
" style="fill:none;stroke:#ff0000;stroke-dasharray:12.8,3.2,2,3.2;stroke-dashoffset:0;stroke-width:2;"/>
   </g>
   <g id="line2d_37">
    <path clip-path="url(#p92828ea8df)" d="M 215.714697 184.137143 
L 215.714697 117.782857 
" style="fill:none;stroke:#000000;stroke-dasharray:2,3.3;stroke-dashoffset:0;stroke-width:2;"/>
   </g>
   <g id="line2d_38">
    <path clip-path="url(#p92828ea8df)" d="M 75.474545 159.499949 
L 139.751282 159.499949 
L 140.058826 157.925998 
L 140.673914 157.925998 
L 140.981458 156.378929 
L 142.519179 156.453027 
L 143.134268 156.545372 
L 144.364444 156.633652 
L 144.979533 156.718088 
L 145.287077 156.718088 
L 145.594621 155.224941 
L 147.132342 155.329184 
L 147.439886 155.450508 
L 148.054975 155.450508 
L 148.362519 153.992705 
L 148.977607 153.992705 
L 149.285152 154.130833 
L 149.90024 154.130833 
L 150.207784 154.284656 
L 150.822872 154.284656 
L 151.130417 154.431988 
L 151.745505 154.431988 
L 152.053049 154.573172 
L 152.668138 154.573172 
L 152.975682 154.708527 
L 153.59077 154.708527 
L 153.898314 154.838356 
L 154.513403 154.838356 
L 154.820947 154.962939 
L 155.436035 154.962939 
L 155.74358 155.082543 
L 156.358668 155.082543 
L 156.973756 155.197415 
L 157.281301 155.197415 
L 157.588845 153.249647 
L 158.203933 153.249647 
L 158.511477 153.524576 
L 159.126566 153.524576 
L 159.43411 153.667759 
L 160.049198 153.667759 
L 160.356742 149.680853 
L 160.971831 149.680853 
L 161.279375 149.972811 
L 161.894463 149.972811 
L 162.202008 150.127958 
L 163.739729 150.225545 
L 164.047273 150.382368 
L 164.662361 150.382368 
L 164.969905 149.616717 
L 165.584994 149.616717 
L 165.892538 148.85172 
L 166.507626 148.85172 
L 166.81517 147.257816 
L 167.430259 147.257816 
L 167.737803 145.000533 
L 168.352891 145.000533 
L 168.660436 143.754972 
L 169.275524 143.754972 
L 169.583068 141.552049 
L 170.198157 141.552049 
L 170.505701 136.313581 
L 171.120789 136.313581 
L 171.428333 133.61747 
L 172.043422 133.61747 
L 172.350966 125.313009 
L 172.966054 125.313009 
L 173.273598 125.558023 
L 173.888687 125.558023 
L 174.196231 125.746187 
L 174.811319 125.746187 
L 175.118864 125.953347 
L 175.733952 125.953347 
L 176.041496 126.143891 
L 176.656585 126.143891 
L 176.964129 126.329412 
L 177.579217 126.329412 
L 177.886761 121.355307 
L 178.50185 121.355307 
L 178.809394 121.51125 
L 179.424482 121.51125 
L 180.039571 121.622914 
L 180.347115 121.622914 
L 180.654659 125.200305 
L 181.269747 125.200305 
L 181.577292 121.932055 
L 182.19238 121.932055 
L 182.499924 120.798961 
L 183.115013 120.798961 
L 183.422557 121.478019 
L 184.037645 121.478019 
L 184.345189 121.723213 
L 184.960278 121.723213 
L 185.267822 123.700303 
L 185.88291 123.700303 
L 186.190455 131.347857 
L 186.805543 131.347857 
L 187.113087 127.919724 
L 188.650808 127.852635 
L 188.958352 129.593006 
L 189.573441 129.593006 
L 189.880985 133.409581 
L 191.418706 133.480049 
L 191.72625 137.524954 
L 192.341338 137.524954 
L 192.648883 146.130666 
L 193.263971 146.130666 
L 193.571515 148.572947 
L 194.186604 148.572947 
L 194.494148 157.412024 
L 195.109236 157.412024 
L 195.41678 156.919181 
L 196.954501 156.857014 
L 197.56959 156.758725 
L 198.799766 156.663404 
L 199.107311 155.771297 
L 199.722399 155.771297 
L 200.029943 153.157754 
L 200.645032 153.157754 
L 200.952576 156.608164 
L 202.490297 156.61788 
L 202.797841 157.141818 
L 203.412929 157.141818 
L 203.720473 154.119195 
L 204.335562 154.119195 
L 204.643106 157.315214 
L 205.258194 157.315214 
L 205.565739 156.937889 
L 206.180827 156.937889 
L 206.795915 156.826522 
L 207.10346 156.826522 
L 207.411004 156.701963 
L 208.026092 156.701963 
L 208.333636 156.577245 
L 209.871357 156.538761 
L 210.178902 156.152131 
L 211.716622 156.159803 
L 212.024167 155.351633 
L 212.639255 155.351633 
L 212.946799 143.334149 
L 213.254343 144.125194 
L 213.561888 145.797718 
L 214.48452 152.330463 
L 215.099609 154.462088 
L 215.407153 154.957518 
L 215.714697 181.091156 
L 216.329785 181.061778 
L 217.252418 179.130988 
L 217.559962 177.966139 
L 218.17505 177.254553 
L 218.790139 176.186191 
L 219.097683 175.707521 
L 219.405227 174.947263 
L 220.020316 174.34342 
L 220.32786 180.152429 
L 220.942948 179.97305 
L 221.250492 179.11756 
L 221.865581 179.025228 
L 222.173125 178.564863 
L 222.788213 178.541534 
L 223.095758 178.109094 
L 223.710846 178.104596 
L 224.01839 177.698577 
L 224.633479 177.69774 
L 224.941023 178.723595 
L 225.556111 178.723412 
L 225.863655 172.061136 
L 226.478744 172.457327 
L 226.786288 173.409868 
L 227.401376 173.104818 
L 227.70892 172.660274 
L 228.324009 172.623319 
L 228.631553 172.249983 
L 229.246641 172.249231 
L 229.554186 171.891509 
L 230.169274 171.891501 
L 230.476818 171.546401 
L 231.091907 171.546401 
L 231.399451 171.213306 
L 232.014539 171.213306 
L 232.322083 170.891667 
L 232.937172 170.891667 
L 233.244716 170.580969 
L 233.859804 170.580969 
L 234.167348 170.28073 
L 234.782437 170.28073 
L 235.089981 169.990494 
L 235.705069 169.990494 
L 236.012614 169.709834 
L 236.627702 169.709834 
L 236.935246 169.438346 
L 237.550335 169.438346 
L 237.857879 169.17565 
L 238.472967 169.17565 
L 238.780511 168.921385 
L 239.3956 168.921385 
L 239.703144 168.675211 
L 240.318232 168.675211 
L 240.625777 168.436806 
L 241.240865 168.436806 
L 241.548409 168.205864 
L 242.163497 168.205864 
L 242.471042 167.624157 
L 243.08613 167.624157 
L 243.393674 167.765229 
L 244.008763 167.765229 
L 244.316307 167.555024 
L 244.931395 167.555024 
L 245.238939 167.351374 
L 245.854028 167.351374 
L 246.161572 167.15385 
L 246.77666 167.15385 
L 247.084205 166.96224 
L 247.699293 166.96224 
L 248.006837 166.77633 
L 248.621926 166.77633 
L 248.92947 165.934096 
L 249.544558 165.934096 
L 249.852102 165.776515 
L 250.467191 165.776515 
L 250.774735 164.677951 
L 251.389823 164.677951 
L 251.697367 164.553242 
L 252.312456 164.553242 
L 252.62 164.432051 
L 253.235088 164.432051 
L 253.850177 164.31426 
L 254.157721 164.31426 
L 254.772809 164.199758 
L 255.080354 164.199758 
L 255.695442 164.088436 
L 256.925619 163.980192 
L 257.233163 163.818077 
L 257.848251 163.818077 
L 258.155795 162.61356 
L 259.693516 162.539582 
L 260.001061 162.972795 
L 260.616149 162.972795 
L 260.923693 161.741907 
L 261.538782 161.741907 
L 261.846326 161.267911 
L 264.306679 161.185391 
L 265.536856 161.107163 
L 266.151944 161.107163 
L 266.459489 159.798967 
L 268.919842 159.784248 
L 269.227386 160.454923 
L 269.842475 160.454923 
L 270.150019 159.770283 
L 273.533005 159.750661 
L 273.840549 160.176351 
L 274.455638 160.176351 
L 274.763182 160.600502 
L 277.223535 160.628141 
L 277.838624 160.721453 
L 278.146168 160.721453 
L 278.453712 162.93249 
L 279.068801 162.93249 
L 279.376345 167.336252 
L 279.991433 167.336252 
L 280.298977 167.604797 
L 280.914066 167.604797 
L 281.22161 165.09606 
L 281.836698 165.09606 
L 282.144242 162.149772 
L 282.759331 162.149772 
L 283.066875 163.487048 
L 283.681963 163.487048 
L 283.989508 163.364481 
L 285.527229 163.260975 
L 286.142317 163.161222 
L 287.372494 163.065041 
L 287.987582 162.972263 
L 288.295126 162.972263 
L 288.60267 162.37869 
L 289.217759 162.37869 
L 289.525303 162.804894 
L 291.063024 162.727917 
L 291.678112 162.646576 
L 291.985657 162.646576 
L 292.293201 163.212969 
L 292.908289 163.212969 
L 293.215833 162.82544 
L 294.753554 162.742611 
L 295.368643 162.662516 
L 296.598819 162.585036 
L 297.213908 162.51006 
L 298.444085 162.437484 
L 299.059173 162.367207 
L 300.28935 162.299136 
L 300.904438 162.233181 
L 302.134615 162.169258 
L 302.749703 162.107285 
L 303.97988 162.047186 
L 304.594968 161.988889 
L 305.825145 161.932323 
L 306.747778 161.877424 
L 309.208131 161.818263 
L 310.438308 161.77622 
L 310.745852 166.181332 
L 311.360941 166.181332 
L 311.668485 167.884465 
L 312.283573 167.884465 
L 312.591117 161.650817 
L 313.206206 161.650817 
L 313.51375 161.49127 
L 315.974104 161.40762 
L 317.20428 161.328951 
L 320.587266 161.219168 
L 322.124987 161.150723 
L 325.200429 161.054524 
L 326.73815 160.994372 
L 329.813592 160.909607 
L 331.966402 160.830866 
L 336.27202 160.734329 
L 339.039918 160.523303 
L 339.347462 160.324848 
L 339.96255 160.324848 
L 340.270095 159.877918 
L 340.885183 159.877918 
L 341.192727 159.719706 
L 351.034141 159.736742 
L 351.341686 160.201198 
L 351.956774 160.201198 
L 352.264318 159.559303 
L 357.492569 159.655649 
L 357.800114 159.829479 
L 358.415202 159.829479 
L 358.722746 159.660053 
L 363.028365 159.762818 
L 363.643453 159.867392 
L 364.87363 159.859537 
L 365.181174 161.088191 
L 365.796263 161.088191 
L 366.103807 164.050467 
L 366.718895 164.050467 
L 367.026439 166.987905 
L 367.641528 166.987905 
L 367.949072 163.347011 
L 368.56416 163.347011 
L 368.871705 160.084132 
L 370.409426 160.071413 
L 370.71697 161.545936 
L 371.332058 161.545936 
L 371.639602 160.011202 
L 373.177323 160.118297 
L 376.560309 160.200335 
L 376.867854 160.200335 
L 377.175398 166.326781 
L 377.790486 166.326781 
L 378.09803 161.784746 
L 378.713119 161.784746 
L 379.020663 160.014426 
L 394.397872 159.90643 
L 402.701566 159.855369 
L 403.931742 159.872206 
L 425.76738 159.782873 
L 426.690013 159.732061 
L 429.45791 159.678744 
L 429.45791 159.678744 
" style="fill:none;stroke:#00bfbf;stroke-dasharray:2,3.3;stroke-dashoffset:0;stroke-width:2;"/>
   </g>
   <g id="line2d_39">
    <path clip-path="url(#p92828ea8df)" d="M 215.714697 184.137143 
L 215.714697 117.782857 
" style="fill:none;stroke:#000000;stroke-dasharray:2,3.3;stroke-dashoffset:0;stroke-width:2;"/>
   </g>
   <g id="patch_8">
    <path d="M 57.76 184.137143 
L 57.76 117.782857 
" style="fill:none;stroke:#000000;stroke-linecap:square;stroke-linejoin:miter;stroke-width:0.8;"/>
   </g>
   <g id="patch_9">
    <path d="M 447.48 184.137143 
L 447.48 117.782857 
" style="fill:none;stroke:#000000;stroke-linecap:square;stroke-linejoin:miter;stroke-width:0.8;"/>
   </g>
   <g id="patch_10">
    <path d="M 57.76 184.137143 
L 447.48 184.137143 
" style="fill:none;stroke:#000000;stroke-linecap:square;stroke-linejoin:miter;stroke-width:0.8;"/>
   </g>
   <g id="patch_11">
    <path d="M 57.76 117.782857 
L 447.48 117.782857 
" style="fill:none;stroke:#000000;stroke-linecap:square;stroke-linejoin:miter;stroke-width:0.8;"/>
   </g>
   <g id="text_7">
    <!-- Mixed street -->
    <defs>
     <path d="M 9.8125 72.90625 
L 24.515625 72.90625 
L 43.109375 23.296875 
L 61.8125 72.90625 
L 76.515625 72.90625 
L 76.515625 0 
L 66.890625 0 
L 66.890625 64.015625 
L 48.09375 14.015625 
L 38.1875 14.015625 
L 19.390625 64.015625 
L 19.390625 0 
L 9.8125 0 
z
" id="DejaVuSans-4d"/>
     <path d="M 9.421875 54.6875 
L 18.40625 54.6875 
L 18.40625 0 
L 9.421875 0 
z
M 9.421875 75.984375 
L 18.40625 75.984375 
L 18.40625 64.59375 
L 9.421875 64.59375 
z
" id="DejaVuSans-69"/>
     <path d="M 54.890625 54.6875 
L 35.109375 28.078125 
L 55.90625 0 
L 45.3125 0 
L 29.390625 21.484375 
L 13.484375 0 
L 2.875 0 
L 24.125 28.609375 
L 4.6875 54.6875 
L 15.28125 54.6875 
L 29.78125 35.203125 
L 44.28125 54.6875 
z
" id="DejaVuSans-78"/>
    </defs>
    <g transform="translate(215.141563 111.782857)scale(0.12 -0.12)">
     <use xlink:href="#DejaVuSans-4d"/>
     <use x="86.279297" xlink:href="#DejaVuSans-69"/>
     <use x="114.0625" xlink:href="#DejaVuSans-78"/>
     <use x="173.195312" xlink:href="#DejaVuSans-65"/>
     <use x="234.71875" xlink:href="#DejaVuSans-64"/>
     <use x="298.195312" xlink:href="#DejaVuSans-20"/>
     <use x="329.982422" xlink:href="#DejaVuSans-73"/>
     <use x="382.082031" xlink:href="#DejaVuSans-74"/>
     <use x="421.291016" xlink:href="#DejaVuSans-72"/>
     <use x="462.373047" xlink:href="#DejaVuSans-65"/>
     <use x="523.896484" xlink:href="#DejaVuSans-65"/>
     <use x="585.419922" xlink:href="#DejaVuSans-74"/>
    </g>
   </g>
  </g>
  <g id="axes_3">
   <g id="patch_12">
    <path d="M 57.76 276.48 
L 447.48 276.48 
L 447.48 210.125713 
L 57.76 210.125713 
z
" style="fill:#ffffff;"/>
   </g>
   <g id="matplotlib.axis_5">
    <g id="xtick_19">
     <g id="line2d_40">
      <g>
       <use style="stroke:#000000;stroke-width:0.8;" x="64.402955" xlink:href="#m7a0873ccef" y="276.48"/>
      </g>
     </g>
     <g id="text_8">
      <!-- 31-12-2013 -->
      <defs>
       <path d="M 40.578125 39.3125 
Q 47.65625 37.796875 51.625 33 
Q 55.609375 28.21875 55.609375 21.1875 
Q 55.609375 10.40625 48.1875 4.484375 
Q 40.765625 -1.421875 27.09375 -1.421875 
Q 22.515625 -1.421875 17.65625 -0.515625 
Q 12.796875 0.390625 7.625 2.203125 
L 7.625 11.71875 
Q 11.71875 9.328125 16.59375 8.109375 
Q 21.484375 6.890625 26.8125 6.890625 
Q 36.078125 6.890625 40.9375 10.546875 
Q 45.796875 14.203125 45.796875 21.1875 
Q 45.796875 27.640625 41.28125 31.265625 
Q 36.765625 34.90625 28.71875 34.90625 
L 20.21875 34.90625 
L 20.21875 43.015625 
L 29.109375 43.015625 
Q 36.375 43.015625 40.234375 45.921875 
Q 44.09375 48.828125 44.09375 54.296875 
Q 44.09375 59.90625 40.109375 62.90625 
Q 36.140625 65.921875 28.71875 65.921875 
Q 24.65625 65.921875 20.015625 65.03125 
Q 15.375 64.15625 9.8125 62.3125 
L 9.8125 71.09375 
Q 15.4375 72.65625 20.34375 73.4375 
Q 25.25 74.21875 29.59375 74.21875 
Q 40.828125 74.21875 47.359375 69.109375 
Q 53.90625 64.015625 53.90625 55.328125 
Q 53.90625 49.265625 50.4375 45.09375 
Q 46.96875 40.921875 40.578125 39.3125 
z
" id="DejaVuSans-33"/>
       <path d="M 4.890625 31.390625 
L 31.203125 31.390625 
L 31.203125 23.390625 
L 4.890625 23.390625 
z
" id="DejaVuSans-2d"/>
       <path d="M 19.1875 8.296875 
L 53.609375 8.296875 
L 53.609375 0 
L 7.328125 0 
L 7.328125 8.296875 
Q 12.9375 14.109375 22.625 23.890625 
Q 32.328125 33.6875 34.8125 36.53125 
Q 39.546875 41.84375 41.421875 45.53125 
Q 43.3125 49.21875 43.3125 52.78125 
Q 43.3125 58.59375 39.234375 62.25 
Q 35.15625 65.921875 28.609375 65.921875 
Q 23.96875 65.921875 18.8125 64.3125 
Q 13.671875 62.703125 7.8125 59.421875 
L 7.8125 69.390625 
Q 13.765625 71.78125 18.9375 73 
Q 24.125 74.21875 28.421875 74.21875 
Q 39.75 74.21875 46.484375 68.546875 
Q 53.21875 62.890625 53.21875 53.421875 
Q 53.21875 48.921875 51.53125 44.890625 
Q 49.859375 40.875 45.40625 35.40625 
Q 44.1875 33.984375 37.640625 27.21875 
Q 31.109375 20.453125 19.1875 8.296875 
z
" id="DejaVuSans-32"/>
      </defs>
      <g transform="translate(13.033503 319.118252)rotate(-30)scale(0.1 -0.1)">
       <use xlink:href="#DejaVuSans-33"/>
       <use x="63.623047" xlink:href="#DejaVuSans-31"/>
       <use x="127.246094" xlink:href="#DejaVuSans-2d"/>
       <use x="163.330078" xlink:href="#DejaVuSans-31"/>
       <use x="226.953125" xlink:href="#DejaVuSans-32"/>
       <use x="290.576172" xlink:href="#DejaVuSans-2d"/>
       <use x="326.660156" xlink:href="#DejaVuSans-32"/>
       <use x="390.283203" xlink:href="#DejaVuSans-30"/>
       <use x="453.90625" xlink:href="#DejaVuSans-31"/>
       <use x="517.529297" xlink:href="#DejaVuSans-33"/>
      </g>
     </g>
    </g>
    <g id="xtick_20">
     <g id="line2d_41">
      <g>
       <use style="stroke:#000000;stroke-width:0.8;" x="108.689318" xlink:href="#m7a0873ccef" y="276.48"/>
      </g>
     </g>
     <g id="text_9">
      <!-- 01-01-2014 -->
      <defs>
       <path d="M 37.796875 64.3125 
L 12.890625 25.390625 
L 37.796875 25.390625 
z
M 35.203125 72.90625 
L 47.609375 72.90625 
L 47.609375 25.390625 
L 58.015625 25.390625 
L 58.015625 17.1875 
L 47.609375 17.1875 
L 47.609375 0 
L 37.796875 0 
L 37.796875 17.1875 
L 4.890625 17.1875 
L 4.890625 26.703125 
z
" id="DejaVuSans-34"/>
      </defs>
      <g transform="translate(57.319867 319.118252)rotate(-30)scale(0.1 -0.1)">
       <use xlink:href="#DejaVuSans-30"/>
       <use x="63.623047" xlink:href="#DejaVuSans-31"/>
       <use x="127.246094" xlink:href="#DejaVuSans-2d"/>
       <use x="163.330078" xlink:href="#DejaVuSans-30"/>
       <use x="226.953125" xlink:href="#DejaVuSans-31"/>
       <use x="290.576172" xlink:href="#DejaVuSans-2d"/>
       <use x="326.660156" xlink:href="#DejaVuSans-32"/>
       <use x="390.283203" xlink:href="#DejaVuSans-30"/>
       <use x="453.90625" xlink:href="#DejaVuSans-31"/>
       <use x="517.529297" xlink:href="#DejaVuSans-34"/>
      </g>
     </g>
    </g>
    <g id="xtick_21">
     <g id="line2d_42">
      <g>
       <use style="stroke:#000000;stroke-width:0.8;" x="152.975682" xlink:href="#m7a0873ccef" y="276.48"/>
      </g>
     </g>
     <g id="text_10">
      <!-- 01-01-2014 -->
      <g transform="translate(101.60623 319.118252)rotate(-30)scale(0.1 -0.1)">
       <use xlink:href="#DejaVuSans-30"/>
       <use x="63.623047" xlink:href="#DejaVuSans-31"/>
       <use x="127.246094" xlink:href="#DejaVuSans-2d"/>
       <use x="163.330078" xlink:href="#DejaVuSans-30"/>
       <use x="226.953125" xlink:href="#DejaVuSans-31"/>
       <use x="290.576172" xlink:href="#DejaVuSans-2d"/>
       <use x="326.660156" xlink:href="#DejaVuSans-32"/>
       <use x="390.283203" xlink:href="#DejaVuSans-30"/>
       <use x="453.90625" xlink:href="#DejaVuSans-31"/>
       <use x="517.529297" xlink:href="#DejaVuSans-34"/>
      </g>
     </g>
    </g>
    <g id="xtick_22">
     <g id="line2d_43">
      <g>
       <use style="stroke:#000000;stroke-width:0.8;" x="197.262045" xlink:href="#m7a0873ccef" y="276.48"/>
      </g>
     </g>
     <g id="text_11">
      <!-- 02-01-2014 -->
      <g transform="translate(145.892594 319.118252)rotate(-30)scale(0.1 -0.1)">
       <use xlink:href="#DejaVuSans-30"/>
       <use x="63.623047" xlink:href="#DejaVuSans-32"/>
       <use x="127.246094" xlink:href="#DejaVuSans-2d"/>
       <use x="163.330078" xlink:href="#DejaVuSans-30"/>
       <use x="226.953125" xlink:href="#DejaVuSans-31"/>
       <use x="290.576172" xlink:href="#DejaVuSans-2d"/>
       <use x="326.660156" xlink:href="#DejaVuSans-32"/>
       <use x="390.283203" xlink:href="#DejaVuSans-30"/>
       <use x="453.90625" xlink:href="#DejaVuSans-31"/>
       <use x="517.529297" xlink:href="#DejaVuSans-34"/>
      </g>
     </g>
    </g>
    <g id="xtick_23">
     <g id="line2d_44">
      <g>
       <use style="stroke:#000000;stroke-width:0.8;" x="241.548409" xlink:href="#m7a0873ccef" y="276.48"/>
      </g>
     </g>
     <g id="text_12">
      <!-- 02-01-2014 -->
      <g transform="translate(190.178958 319.118252)rotate(-30)scale(0.1 -0.1)">
       <use xlink:href="#DejaVuSans-30"/>
       <use x="63.623047" xlink:href="#DejaVuSans-32"/>
       <use x="127.246094" xlink:href="#DejaVuSans-2d"/>
       <use x="163.330078" xlink:href="#DejaVuSans-30"/>
       <use x="226.953125" xlink:href="#DejaVuSans-31"/>
       <use x="290.576172" xlink:href="#DejaVuSans-2d"/>
       <use x="326.660156" xlink:href="#DejaVuSans-32"/>
       <use x="390.283203" xlink:href="#DejaVuSans-30"/>
       <use x="453.90625" xlink:href="#DejaVuSans-31"/>
       <use x="517.529297" xlink:href="#DejaVuSans-34"/>
      </g>
     </g>
    </g>
    <g id="xtick_24">
     <g id="line2d_45">
      <g>
       <use style="stroke:#000000;stroke-width:0.8;" x="285.834773" xlink:href="#m7a0873ccef" y="276.48"/>
      </g>
     </g>
     <g id="text_13">
      <!-- 03-01-2014 -->
      <g transform="translate(234.465321 319.118252)rotate(-30)scale(0.1 -0.1)">
       <use xlink:href="#DejaVuSans-30"/>
       <use x="63.623047" xlink:href="#DejaVuSans-33"/>
       <use x="127.246094" xlink:href="#DejaVuSans-2d"/>
       <use x="163.330078" xlink:href="#DejaVuSans-30"/>
       <use x="226.953125" xlink:href="#DejaVuSans-31"/>
       <use x="290.576172" xlink:href="#DejaVuSans-2d"/>
       <use x="326.660156" xlink:href="#DejaVuSans-32"/>
       <use x="390.283203" xlink:href="#DejaVuSans-30"/>
       <use x="453.90625" xlink:href="#DejaVuSans-31"/>
       <use x="517.529297" xlink:href="#DejaVuSans-34"/>
      </g>
     </g>
    </g>
    <g id="xtick_25">
     <g id="line2d_46">
      <g>
       <use style="stroke:#000000;stroke-width:0.8;" x="330.121136" xlink:href="#m7a0873ccef" y="276.48"/>
      </g>
     </g>
     <g id="text_14">
      <!-- 03-01-2014 -->
      <g transform="translate(278.751685 319.118252)rotate(-30)scale(0.1 -0.1)">
       <use xlink:href="#DejaVuSans-30"/>
       <use x="63.623047" xlink:href="#DejaVuSans-33"/>
       <use x="127.246094" xlink:href="#DejaVuSans-2d"/>
       <use x="163.330078" xlink:href="#DejaVuSans-30"/>
       <use x="226.953125" xlink:href="#DejaVuSans-31"/>
       <use x="290.576172" xlink:href="#DejaVuSans-2d"/>
       <use x="326.660156" xlink:href="#DejaVuSans-32"/>
       <use x="390.283203" xlink:href="#DejaVuSans-30"/>
       <use x="453.90625" xlink:href="#DejaVuSans-31"/>
       <use x="517.529297" xlink:href="#DejaVuSans-34"/>
      </g>
     </g>
    </g>
    <g id="xtick_26">
     <g id="line2d_47">
      <g>
       <use style="stroke:#000000;stroke-width:0.8;" x="374.4075" xlink:href="#m7a0873ccef" y="276.48"/>
      </g>
     </g>
     <g id="text_15">
      <!-- 04-01-2014 -->
      <g transform="translate(323.038049 319.118252)rotate(-30)scale(0.1 -0.1)">
       <use xlink:href="#DejaVuSans-30"/>
       <use x="63.623047" xlink:href="#DejaVuSans-34"/>
       <use x="127.246094" xlink:href="#DejaVuSans-2d"/>
       <use x="163.330078" xlink:href="#DejaVuSans-30"/>
       <use x="226.953125" xlink:href="#DejaVuSans-31"/>
       <use x="290.576172" xlink:href="#DejaVuSans-2d"/>
       <use x="326.660156" xlink:href="#DejaVuSans-32"/>
       <use x="390.283203" xlink:href="#DejaVuSans-30"/>
       <use x="453.90625" xlink:href="#DejaVuSans-31"/>
       <use x="517.529297" xlink:href="#DejaVuSans-34"/>
      </g>
     </g>
    </g>
    <g id="xtick_27">
     <g id="line2d_48">
      <g>
       <use style="stroke:#000000;stroke-width:0.8;" x="418.693864" xlink:href="#m7a0873ccef" y="276.48"/>
      </g>
     </g>
     <g id="text_16">
      <!-- 04-01-2014 -->
      <g transform="translate(367.324412 319.118252)rotate(-30)scale(0.1 -0.1)">
       <use xlink:href="#DejaVuSans-30"/>
       <use x="63.623047" xlink:href="#DejaVuSans-34"/>
       <use x="127.246094" xlink:href="#DejaVuSans-2d"/>
       <use x="163.330078" xlink:href="#DejaVuSans-30"/>
       <use x="226.953125" xlink:href="#DejaVuSans-31"/>
       <use x="290.576172" xlink:href="#DejaVuSans-2d"/>
       <use x="326.660156" xlink:href="#DejaVuSans-32"/>
       <use x="390.283203" xlink:href="#DejaVuSans-30"/>
       <use x="453.90625" xlink:href="#DejaVuSans-31"/>
       <use x="517.529297" xlink:href="#DejaVuSans-34"/>
      </g>
     </g>
    </g>
   </g>
   <g id="matplotlib.axis_6">
    <g id="ytick_6">
     <g id="line2d_49">
      <g>
       <use style="stroke:#000000;stroke-width:0.8;" x="57.76" xlink:href="#m7e25a7fb17" y="275.383737"/>
      </g>
     </g>
     <g id="text_17">
      <!-- −50000 -->
      <g transform="translate(10.567813 279.182956)scale(0.1 -0.1)">
       <use xlink:href="#DejaVuSans-2212"/>
       <use x="83.789062" xlink:href="#DejaVuSans-35"/>
       <use x="147.412109" xlink:href="#DejaVuSans-30"/>
       <use x="211.035156" xlink:href="#DejaVuSans-30"/>
       <use x="274.658203" xlink:href="#DejaVuSans-30"/>
       <use x="338.28125" xlink:href="#DejaVuSans-30"/>
      </g>
     </g>
    </g>
    <g id="ytick_7">
     <g id="line2d_50">
      <g>
       <use style="stroke:#000000;stroke-width:0.8;" x="57.76" xlink:href="#m7e25a7fb17" y="249.904035"/>
      </g>
     </g>
     <g id="text_18">
      <!-- 0 -->
      <g transform="translate(44.3975 253.703254)scale(0.1 -0.1)">
       <use xlink:href="#DejaVuSans-30"/>
      </g>
     </g>
    </g>
    <g id="ytick_8">
     <g id="line2d_51">
      <g>
       <use style="stroke:#000000;stroke-width:0.8;" x="57.76" xlink:href="#m7e25a7fb17" y="224.424332"/>
      </g>
     </g>
     <g id="text_19">
      <!-- 50000 -->
      <g transform="translate(18.9475 228.223551)scale(0.1 -0.1)">
       <use xlink:href="#DejaVuSans-35"/>
       <use x="63.623047" xlink:href="#DejaVuSans-30"/>
       <use x="127.246094" xlink:href="#DejaVuSans-30"/>
       <use x="190.869141" xlink:href="#DejaVuSans-30"/>
       <use x="254.492188" xlink:href="#DejaVuSans-30"/>
      </g>
     </g>
    </g>
   </g>
   <g id="line2d_52">
    <path clip-path="url(#p9f8a115d4a)" d="M 75.474545 249.904035 
L 136.368295 249.904035 
L 137.290928 248.199905 
L 138.213561 247.212519 
L 139.136193 247.194831 
L 140.058826 244.118355 
L 141.904091 240.775397 
L 142.826723 240.237535 
L 143.749356 240.036666 
L 144.671989 240.255629 
L 146.517254 237.343889 
L 147.439886 237.689419 
L 148.362519 236.340934 
L 150.207784 237.09045 
L 151.130417 235.606012 
L 152.975682 236.202987 
L 154.820947 235.466775 
L 159.43411 237.0494 
L 160.356742 235.099352 
L 161.279375 235.387656 
L 162.202008 233.276404 
L 163.12464 233.426763 
L 164.047273 232.935037 
L 164.969905 232.205667 
L 165.892538 229.658283 
L 166.81517 230.659592 
L 167.737803 226.388314 
L 169.583068 221.566646 
L 170.505701 221.805382 
L 171.428333 224.97911 
L 172.350966 216.872075 
L 176.964129 217.834992 
L 177.886761 213.141817 
L 179.732027 213.401751 
L 180.654659 217.263132 
L 181.577292 213.713078 
L 183.422557 214.077649 
L 185.267822 214.71429 
L 186.190455 223.022579 
L 188.03572 223.501897 
L 188.958352 224.995987 
L 189.880985 230.361074 
L 190.803617 231.055854 
L 191.72625 235.372797 
L 192.648883 240.536798 
L 193.571515 240.95589 
L 194.494148 248.710871 
L 195.41678 248.834818 
L 198.184678 248.733555 
L 199.107311 247.945489 
L 200.029943 248.167314 
L 200.952576 253.352859 
L 201.875208 253.426951 
L 202.797841 254.048045 
L 203.720473 245.996014 
L 204.643106 250.674973 
L 205.565739 251.470087 
L 206.488371 251.539994 
L 207.411004 250.965973 
L 209.256269 250.782698 
L 210.178902 250.37715 
L 211.101534 250.399841 
L 212.024167 249.532768 
L 213.869432 250.326161 
L 214.792064 250.070641 
L 215.714697 269.829259 
L 216.63733 269.447313 
L 217.559962 268.862498 
L 218.482595 270.992943 
L 219.405227 270.527732 
L 222.173125 268.654351 
L 224.01839 267.532671 
L 224.941023 265.44795 
L 225.863655 267.86793 
L 231.399451 264.839774 
L 232.322083 264.129898 
L 235.089981 263.151021 
L 238.780511 261.678688 
L 241.548409 260.703968 
L 242.471042 260.013637 
L 243.393674 260.108718 
L 248.006837 258.788234 
L 248.92947 257.833288 
L 249.852102 257.621683 
L 250.774735 256.186022 
L 256.31053 255.259864 
L 258.155795 253.56843 
L 259.078428 253.469634 
L 260.001061 253.920927 
L 260.923693 252.053159 
L 265.536856 251.760582 
L 266.459489 250.311854 
L 268.304754 250.286074 
L 269.227386 251.007643 
L 270.150019 250.262019 
L 273.840549 250.218599 
L 274.763182 252.034571 
L 275.685814 254.189804 
L 277.53108 254.191503 
L 278.453712 254.513317 
L 279.376345 254.388632 
L 280.298977 254.977168 
L 281.22161 254.328444 
L 282.144242 253.242254 
L 283.066875 254.517713 
L 287.680038 253.971759 
L 288.60267 253.323998 
L 290.447936 258.227404 
L 291.370568 258.134354 
L 292.293201 253.353069 
L 293.215833 253.827663 
L 304.287424 252.864739 
L 307.977955 252.615128 
L 308.900587 254.985646 
L 309.82322 255.2717 
L 310.745852 253.306096 
L 311.668485 252.108521 
L 312.591117 252.002038 
L 313.51375 252.29221 
L 324.585341 251.817144 
L 338.42483 251.230857 
L 339.347462 250.942093 
L 340.270095 250.369152 
L 341.192727 250.204579 
L 346.728523 250.07741 
L 347.651155 252.888568 
L 348.573788 250.216254 
L 349.49642 249.766411 
L 350.419053 249.947978 
L 351.341686 249.784297 
L 356.877481 249.825184 
L 357.800114 250.005138 
L 358.722746 249.835472 
L 362.413277 249.852305 
L 363.335909 250.156158 
L 364.258542 251.112286 
L 365.181174 251.550362 
L 367.026439 257.941279 
L 367.949072 258.041698 
L 368.871705 255.00594 
L 369.794337 250.874291 
L 370.71697 250.449145 
L 371.639602 250.695655 
L 372.562235 254.975412 
L 373.484867 254.975105 
L 374.4075 252.038706 
L 375.330133 250.437809 
L 376.252765 250.436284 
L 377.175398 250.293103 
L 378.09803 250.434675 
L 391.014886 250.406363 
L 391.937519 251.061578 
L 392.860152 250.402397 
L 395.628049 250.34714 
L 426.997557 250.22171 
L 429.765455 249.904035 
L 429.765455 249.904035 
" style="fill:none;stroke:#0000ff;stroke-linecap:square;stroke-width:2;"/>
   </g>
   <g id="line2d_53">
    <path clip-path="url(#p9f8a115d4a)" d="M 215.714697 276.48 
L 215.714697 210.125713 
" style="fill:none;stroke:#000000;stroke-dasharray:2,3.3;stroke-dashoffset:0;stroke-width:2;"/>
   </g>
   <g id="line2d_54">
    <path clip-path="url(#p9f8a115d4a)" d="M 75.474545 249.904035 
L 136.368295 249.904035 
L 137.290928 248.199905 
L 138.213561 247.212519 
L 139.136193 247.194831 
L 140.058826 244.118355 
L 141.904091 240.775397 
L 142.826723 240.237535 
L 143.749356 240.036666 
L 144.671989 240.255629 
L 146.517254 237.343889 
L 147.439886 237.689419 
L 148.362519 236.340934 
L 150.207784 237.09045 
L 151.130417 235.606012 
L 152.975682 236.202987 
L 154.820947 235.466775 
L 159.43411 237.0494 
L 160.356742 235.099352 
L 161.279375 235.387656 
L 162.202008 233.276404 
L 163.12464 233.426763 
L 164.047273 232.935037 
L 165.892538 231.47194 
L 167.737803 226.364592 
L 169.583068 221.56844 
L 170.505701 221.807073 
L 171.428333 224.980705 
L 172.350966 216.87358 
L 176.964129 217.836128 
L 177.886761 213.142893 
L 179.732027 213.402717 
L 180.654659 217.264049 
L 181.577292 213.713948 
L 183.422557 214.078433 
L 185.267822 214.714998 
L 186.190455 223.023253 
L 188.03572 223.502508 
L 188.958352 224.996569 
L 189.880985 230.804163 
L 190.803617 231.056383 
L 191.72625 235.373302 
L 192.648883 240.53728 
L 193.571515 240.95635 
L 194.494148 248.694444 
L 195.41678 248.817898 
L 198.184678 248.71899 
L 199.107311 247.931625 
L 200.029943 248.154115 
L 200.952576 253.340291 
L 201.875208 253.414979 
L 202.797841 254.036638 
L 203.720473 245.985143 
L 204.643106 250.450707 
L 205.565739 251.468703 
L 206.488371 251.538606 
L 207.411004 250.964687 
L 209.256269 250.781578 
L 210.178902 250.376105 
L 211.101534 250.398865 
L 212.024167 249.531856 
L 213.869432 250.325363 
L 214.792064 250.069894 
L 215.714697 269.828559 
L 216.63733 269.446658 
L 217.559962 268.861884 
L 218.482595 270.992367 
L 219.405227 270.527191 
L 222.173125 268.653902 
L 224.01839 267.532273 
L 224.941023 265.447575 
L 225.863655 267.867576 
L 231.399451 264.839519 
L 232.322083 264.129657 
L 235.089981 263.150814 
L 238.780511 261.678515 
L 241.548409 260.703816 
L 242.471042 260.013491 
L 243.393674 260.108578 
L 248.006837 258.788117 
L 248.92947 257.833175 
L 249.852102 257.621573 
L 250.774735 256.186022 
L 256.31053 255.259864 
L 258.155795 253.56843 
L 259.078428 253.469634 
L 260.001061 253.92097 
L 260.923693 252.053159 
L 265.536856 251.760582 
L 266.459489 250.311854 
L 268.304754 250.286074 
L 269.227386 251.007643 
L 270.150019 250.262019 
L 273.840549 250.218599 
L 274.763182 252.034412 
L 275.685814 254.189647 
L 277.53108 254.191395 
L 278.453712 254.513211 
L 279.376345 254.388528 
L 280.298977 254.977067 
L 281.22161 254.328345 
L 282.144242 253.242157 
L 283.066875 254.517618 
L 287.680038 253.971673 
L 288.60267 253.323914 
L 290.447936 258.227322 
L 291.370568 258.134274 
L 292.293201 253.35299 
L 293.215833 253.827586 
L 304.287424 252.864674 
L 307.977955 252.615067 
L 308.900587 254.985585 
L 309.82322 255.27164 
L 310.745852 253.306037 
L 311.668485 252.108462 
L 312.591117 252.001981 
L 313.51375 252.292152 
L 324.585341 251.817094 
L 338.42483 251.230815 
L 339.347462 250.942093 
L 340.270095 250.369109 
L 341.192727 250.204536 
L 346.728523 250.077366 
L 347.651155 252.888568 
L 348.573788 250.216254 
L 349.49642 249.766411 
L 350.419053 249.947978 
L 351.341686 249.784297 
L 356.877481 249.825184 
L 357.800114 250.005138 
L 358.722746 249.835472 
L 362.413277 249.852305 
L 363.335909 250.156103 
L 364.258542 251.112231 
L 365.181174 251.550309 
L 367.026439 257.941233 
L 367.949072 258.041652 
L 368.871705 255.005896 
L 369.794337 250.874247 
L 370.71697 250.449102 
L 371.639602 250.695612 
L 372.562235 254.97537 
L 373.484867 254.975064 
L 374.4075 252.038666 
L 375.330133 250.43777 
L 376.252765 250.436245 
L 377.175398 250.293065 
L 378.09803 250.434637 
L 391.014886 250.406332 
L 391.937519 251.061548 
L 392.860152 250.402367 
L 395.628049 250.347112 
L 426.997557 250.221691 
L 429.765455 249.904035 
L 429.765455 249.904035 
" style="fill:none;stroke:#008000;stroke-dasharray:7.4,3.2;stroke-dashoffset:0;stroke-width:2;"/>
   </g>
   <g id="line2d_55">
    <path clip-path="url(#p9f8a115d4a)" d="M 215.714697 276.48 
L 215.714697 210.125713 
" style="fill:none;stroke:#000000;stroke-dasharray:2,3.3;stroke-dashoffset:0;stroke-width:2;"/>
   </g>
   <g id="line2d_56">
    <path clip-path="url(#p9f8a115d4a)" d="M 75.474545 249.904035 
L 211.716622 249.904035 
L 212.024167 241.042066 
L 212.331711 241.115835 
L 212.639255 241.502866 
L 212.946799 242.299163 
L 213.561888 245.118778 
L 214.48452 247.772876 
L 215.099609 248.790791 
L 215.407153 249.086274 
L 215.714697 258.217609 
L 216.022241 258.260189 
L 216.329785 257.939038 
L 216.63733 257.24218 
L 217.559962 253.011708 
L 218.17505 251.609458 
L 219.097683 250.351275 
L 219.712771 250.01598 
L 220.635404 249.913575 
L 227.093832 249.904035 
L 429.45791 249.904035 
L 429.45791 249.904035 
" style="fill:none;stroke:#ff0000;stroke-dasharray:12.8,3.2,2,3.2;stroke-dashoffset:0;stroke-width:2;"/>
   </g>
   <g id="line2d_57">
    <path clip-path="url(#p9f8a115d4a)" d="M 215.714697 276.48 
L 215.714697 210.125713 
" style="fill:none;stroke:#000000;stroke-dasharray:2,3.3;stroke-dashoffset:0;stroke-width:2;"/>
   </g>
   <g id="line2d_58">
    <path clip-path="url(#p9f8a115d4a)" d="M 75.474545 249.904035 
L 136.983384 249.904035 
L 137.290928 248.199905 
L 137.906016 248.199905 
L 138.213561 247.212519 
L 139.751282 247.194831 
L 140.058826 244.118355 
L 140.673914 244.118355 
L 140.981458 242.372483 
L 141.596547 242.372483 
L 141.904091 240.775397 
L 142.519179 240.775397 
L 142.826723 240.237535 
L 143.441812 240.237535 
L 143.749356 240.036666 
L 144.364444 240.036666 
L 144.671989 240.255629 
L 145.287077 240.255629 
L 145.594621 238.790646 
L 146.20971 238.790646 
L 146.517254 237.343889 
L 147.132342 237.343889 
L 147.439886 237.689419 
L 148.054975 237.689419 
L 148.362519 236.340934 
L 148.977607 236.340934 
L 149.285152 236.711452 
L 149.90024 236.711452 
L 150.207784 237.09045 
L 150.822872 237.09045 
L 151.130417 235.606012 
L 151.745505 235.606012 
L 152.053049 235.86642 
L 152.668138 235.86642 
L 152.975682 236.202987 
L 153.59077 236.202987 
L 153.898314 235.849152 
L 154.513403 235.849152 
L 154.820947 235.466775 
L 155.436035 235.466775 
L 155.74358 235.787587 
L 156.358668 235.787587 
L 156.666212 236.128754 
L 157.281301 236.128754 
L 157.588845 236.44293 
L 158.203933 236.44293 
L 158.511477 236.759063 
L 159.126566 236.759063 
L 159.43411 237.0494 
L 160.049198 237.0494 
L 160.356742 235.099352 
L 160.971831 235.099352 
L 161.279375 235.387656 
L 161.894463 235.387656 
L 162.202008 233.276404 
L 162.817096 233.276404 
L 163.12464 233.426763 
L 163.739729 233.426763 
L 164.047273 232.935037 
L 164.662361 232.935037 
L 164.969905 232.205667 
L 165.584994 232.205667 
L 165.892538 231.47194 
L 166.507626 231.47194 
L 166.81517 228.831779 
L 167.430259 228.831779 
L 167.737803 226.364592 
L 168.352891 226.364592 
L 168.660436 223.995207 
L 169.275524 223.995207 
L 169.583068 221.56844 
L 170.198157 221.56844 
L 170.505701 221.807073 
L 171.120789 221.807073 
L 171.428333 224.980705 
L 172.043422 224.980705 
L 172.350966 216.87358 
L 172.966054 216.87358 
L 173.273598 217.080086 
L 173.888687 217.080086 
L 174.196231 217.268816 
L 174.811319 217.268816 
L 175.118864 217.471143 
L 175.733952 217.471143 
L 176.041496 217.666022 
L 176.656585 217.666022 
L 176.964129 217.836128 
L 177.579217 217.836128 
L 177.886761 213.142893 
L 178.50185 213.142893 
L 178.809394 213.298133 
L 180.347115 213.402717 
L 180.654659 217.264049 
L 181.269747 217.264049 
L 181.577292 213.713948 
L 182.19238 213.713948 
L 182.499924 213.859362 
L 183.115013 213.859362 
L 183.422557 214.078433 
L 184.037645 214.078433 
L 184.345189 214.359764 
L 184.960278 214.359764 
L 185.267822 214.714998 
L 185.88291 214.714998 
L 186.190455 223.023253 
L 186.805543 223.023253 
L 187.113087 223.272621 
L 187.728175 223.272621 
L 188.03572 223.502508 
L 188.650808 223.502508 
L 188.958352 224.996569 
L 189.573441 224.996569 
L 189.880985 230.804163 
L 190.496073 230.804163 
L 190.803617 231.056383 
L 191.418706 231.056383 
L 191.72625 235.373302 
L 192.341338 235.373302 
L 192.648883 240.53728 
L 193.263971 240.53728 
L 193.571515 240.95635 
L 194.186604 240.95635 
L 194.494148 248.694444 
L 195.109236 248.694444 
L 195.41678 248.817898 
L 198.799766 248.71899 
L 199.107311 247.931625 
L 199.722399 247.931625 
L 200.029943 248.154115 
L 200.645032 248.154115 
L 200.952576 253.340291 
L 202.490297 253.414979 
L 202.797841 254.036638 
L 203.412929 254.036638 
L 203.720473 245.985143 
L 204.335562 245.985143 
L 204.643106 250.450707 
L 205.258194 250.450707 
L 205.565739 251.468703 
L 207.10346 251.538606 
L 207.411004 250.964687 
L 208.026092 250.964687 
L 208.333636 250.819951 
L 209.871357 250.781578 
L 210.178902 250.376105 
L 211.716622 250.398865 
L 212.024167 240.542323 
L 212.331711 240.57027 
L 212.639255 240.840184 
L 213.254343 243.331107 
L 214.176976 247.228782 
L 214.48452 248.07328 
L 215.407153 249.268381 
L 215.714697 271.942568 
L 216.329785 271.950791 
L 216.63733 272.099305 
L 217.252418 272.093997 
L 217.559962 271.134122 
L 218.17505 271.055297 
L 218.482595 273.463896 
L 219.097683 273.315166 
L 219.405227 273.067154 
L 220.020316 272.2414 
L 220.32786 271.20948 
L 220.942948 270.88164 
L 221.250492 270.28977 
L 221.865581 270.276976 
L 222.173125 269.566797 
L 222.788213 269.356108 
L 223.095758 268.717797 
L 223.710846 268.612782 
L 224.01839 268.061551 
L 224.633479 267.979558 
L 224.941023 265.874995 
L 225.556111 265.757283 
L 225.863655 268.135193 
L 226.478744 268.061797 
L 226.786288 267.537568 
L 227.401376 267.536789 
L 227.70892 267.015931 
L 228.324009 267.044999 
L 228.631553 266.515149 
L 229.246641 266.474477 
L 229.554186 265.933442 
L 230.169274 265.854837 
L 230.476818 265.349768 
L 231.091907 265.319359 
L 231.399451 264.846503 
L 232.014539 264.841748 
L 232.322083 264.130848 
L 232.937172 264.129939 
L 233.244716 263.822412 
L 233.859804 263.822305 
L 234.167348 263.508715 
L 234.782437 263.508705 
L 235.089981 263.150815 
L 235.705069 263.150815 
L 236.012614 262.762991 
L 236.627702 262.762993 
L 236.935246 262.388431 
L 237.550335 262.388433 
L 237.857879 262.027126 
L 238.472967 262.027125 
L 238.780511 261.678521 
L 239.3956 261.67852 
L 239.703144 261.342097 
L 240.318232 261.342096 
L 240.625777 261.017354 
L 241.240865 261.017352 
L 241.548409 260.703817 
L 242.163497 260.703817 
L 242.471042 260.013492 
L 244.008763 260.108578 
L 244.316307 259.826059 
L 244.931395 259.826059 
L 245.238939 259.553241 
L 245.854028 259.553241 
L 246.161572 259.289538 
L 246.77666 259.289538 
L 247.084205 259.03461 
L 247.699293 259.03461 
L 248.006837 258.788117 
L 248.621926 258.788117 
L 248.92947 257.833175 
L 249.544558 257.833175 
L 249.852102 257.621573 
L 250.467191 257.621573 
L 250.774735 256.186022 
L 251.389823 256.186022 
L 251.697367 256.018786 
L 252.312456 256.018786 
L 252.62 255.856961 
L 253.235088 255.856961 
L 253.542633 255.700345 
L 254.157721 255.700345 
L 254.465265 255.548746 
L 255.080354 255.548746 
L 255.387898 255.401978 
L 256.002986 255.401978 
L 256.31053 255.259864 
L 256.925619 255.259864 
L 257.233163 254.384733 
L 257.848251 254.384733 
L 258.155795 253.56843 
L 259.693516 253.469634 
L 260.001061 253.92097 
L 260.616149 253.92097 
L 260.923693 252.053159 
L 262.461414 251.990665 
L 263.076503 251.930233 
L 264.306679 251.87179 
L 264.921768 251.815263 
L 266.151944 251.760582 
L 266.459489 250.311854 
L 268.919842 250.286074 
L 269.227386 251.007643 
L 269.842475 251.007643 
L 270.150019 250.262019 
L 274.455638 250.218599 
L 274.763182 252.034412 
L 275.37827 252.034412 
L 275.685814 254.189647 
L 278.146168 254.191395 
L 278.453712 254.513211 
L 279.068801 254.513211 
L 279.376345 254.388528 
L 279.991433 254.388528 
L 280.298977 254.977067 
L 280.914066 254.977067 
L 281.22161 254.328345 
L 281.836698 254.328345 
L 282.144242 253.242157 
L 282.759331 253.242157 
L 283.066875 254.517618 
L 284.604596 254.416797 
L 285.219684 254.299623 
L 285.527229 254.299623 
L 286.142317 254.186498 
L 287.372494 254.077239 
L 287.987582 253.971673 
L 288.295126 253.971673 
L 288.60267 253.323914 
L 289.217759 253.323914 
L 289.525303 255.895764 
L 290.140391 255.895764 
L 290.447936 258.227322 
L 291.985657 258.134274 
L 292.293201 253.35299 
L 292.908289 253.35299 
L 293.215833 253.827586 
L 294.753554 253.73971 
L 295.368643 253.646281 
L 296.598819 253.556 
L 297.213908 253.468731 
L 298.444085 253.384342 
L 299.059173 253.30271 
L 300.28935 253.223718 
L 300.904438 253.147254 
L 302.134615 253.073215 
L 302.749703 253.001501 
L 303.97988 252.932017 
L 304.594968 252.864674 
L 305.825145 252.799386 
L 306.440234 252.736073 
L 307.67041 252.674658 
L 308.285499 252.615067 
L 308.593043 252.615067 
L 308.900587 254.985585 
L 309.515676 254.985585 
L 309.82322 255.27164 
L 310.438308 255.27164 
L 310.745852 253.306037 
L 311.360941 253.306037 
L 311.668485 252.108462 
L 313.206206 252.001981 
L 313.51375 252.292152 
L 315.974104 252.181782 
L 317.20428 252.103377 
L 319.664634 252.027746 
L 321.202355 251.954855 
L 324.277797 251.85055 
L 325.815518 251.78428 
L 328.89096 251.689608 
L 330.428681 251.629539 
L 333.504122 251.543812 
L 335.656932 251.463094 
L 337.194653 251.437254 
L 337.502197 251.252564 
L 339.039918 251.230815 
L 339.347462 250.942093 
L 339.96255 250.942093 
L 340.270095 250.369109 
L 340.885183 250.369109 
L 341.192727 250.204536 
L 344.575713 250.187686 
L 345.190802 250.083997 
L 347.343611 250.077366 
L 347.651155 252.888568 
L 348.266244 252.888568 
L 348.573788 250.216254 
L 349.188876 250.216254 
L 349.49642 249.766411 
L 350.111509 249.766411 
L 350.419053 249.947978 
L 351.034141 249.947978 
L 351.341686 249.784297 
L 357.492569 249.825184 
L 357.800114 250.005138 
L 358.415202 250.005138 
L 358.722746 249.835472 
L 363.028365 249.852305 
L 363.335909 250.156103 
L 363.950997 250.156103 
L 364.258542 251.112231 
L 364.87363 251.112231 
L 365.181174 251.550309 
L 365.796263 251.550309 
L 366.103807 254.758671 
L 366.718895 254.758671 
L 367.026439 257.941233 
L 368.56416 258.041652 
L 368.871705 255.005896 
L 369.486793 255.005896 
L 369.794337 250.874247 
L 370.409426 250.874247 
L 370.71697 250.449102 
L 371.332058 250.449102 
L 371.639602 250.695612 
L 372.254691 250.695612 
L 372.562235 254.97537 
L 374.099956 254.975064 
L 374.4075 252.038666 
L 375.022588 252.038666 
L 375.330133 250.43777 
L 376.867854 250.436245 
L 377.175398 250.293065 
L 377.790486 250.293065 
L 378.09803 250.434637 
L 391.629975 250.406332 
L 391.937519 251.061548 
L 392.552607 251.061548 
L 392.860152 250.402367 
L 422.07685 250.293045 
L 429.45791 250.135175 
L 429.45791 250.135175 
" style="fill:none;stroke:#00bfbf;stroke-dasharray:2,3.3;stroke-dashoffset:0;stroke-width:2;"/>
   </g>
   <g id="line2d_59">
    <path clip-path="url(#p9f8a115d4a)" d="M 215.714697 276.48 
L 215.714697 210.125713 
" style="fill:none;stroke:#000000;stroke-dasharray:2,3.3;stroke-dashoffset:0;stroke-width:2;"/>
   </g>
   <g id="patch_13">
    <path d="M 57.76 276.48 
L 57.76 210.125713 
" style="fill:none;stroke:#000000;stroke-linecap:square;stroke-linejoin:miter;stroke-width:0.8;"/>
   </g>
   <g id="patch_14">
    <path d="M 447.48 276.48 
L 447.48 210.125713 
" style="fill:none;stroke:#000000;stroke-linecap:square;stroke-linejoin:miter;stroke-width:0.8;"/>
   </g>
   <g id="patch_15">
    <path d="M 57.76 276.48 
L 447.48 276.48 
" style="fill:none;stroke:#000000;stroke-linecap:square;stroke-linejoin:miter;stroke-width:0.8;"/>
   </g>
   <g id="patch_16">
    <path d="M 57.76 210.125713 
L 447.48 210.125713 
" style="fill:none;stroke:#000000;stroke-linecap:square;stroke-linejoin:miter;stroke-width:0.8;"/>
   </g>
   <g id="text_20">
    <!-- New street -->
    <defs>
     <path d="M 9.8125 72.90625 
L 23.09375 72.90625 
L 55.421875 11.921875 
L 55.421875 72.90625 
L 64.984375 72.90625 
L 64.984375 0 
L 51.703125 0 
L 19.390625 60.984375 
L 19.390625 0 
L 9.8125 0 
z
" id="DejaVuSans-4e"/>
     <path d="M 4.203125 54.6875 
L 13.1875 54.6875 
L 24.421875 12.015625 
L 35.59375 54.6875 
L 46.1875 54.6875 
L 57.421875 12.015625 
L 68.609375 54.6875 
L 77.59375 54.6875 
L 63.28125 0 
L 52.6875 0 
L 40.921875 44.828125 
L 29.109375 0 
L 18.5 0 
z
" id="DejaVuSans-77"/>
    </defs>
    <g transform="translate(219.947188 204.125713)scale(0.12 -0.12)">
     <use xlink:href="#DejaVuSans-4e"/>
     <use x="74.804688" xlink:href="#DejaVuSans-65"/>
     <use x="136.328125" xlink:href="#DejaVuSans-77"/>
     <use x="218.115234" xlink:href="#DejaVuSans-20"/>
     <use x="249.902344" xlink:href="#DejaVuSans-73"/>
     <use x="302.001953" xlink:href="#DejaVuSans-74"/>
     <use x="341.210938" xlink:href="#DejaVuSans-72"/>
     <use x="382.292969" xlink:href="#DejaVuSans-65"/>
     <use x="443.816406" xlink:href="#DejaVuSans-65"/>
     <use x="505.339844" xlink:href="#DejaVuSans-74"/>
    </g>
   </g>
  </g>
  <g id="legend_1">
   <g id="patch_17">
    <path d="M 298.085938 66.7125 
L 453.8 66.7125 
Q 455.8 66.7125 455.8 64.7125 
L 455.8 7 
Q 455.8 5 453.8 5 
L 298.085938 5 
Q 296.085938 5 296.085938 7 
L 296.085938 64.7125 
Q 296.085938 66.7125 298.085938 66.7125 
z
" style="fill:#ffffff;opacity:0.8;stroke:#cccccc;stroke-linejoin:miter;"/>
   </g>
   <g id="line2d_60">
    <path d="M 300.085938 13.098438 
L 320.085938 13.098438 
" style="fill:none;stroke:#0000ff;stroke-linecap:square;stroke-width:2;"/>
   </g>
   <g id="line2d_61"/>
   <g id="text_21">
    <!-- Buildings - ideal network -->
    <defs>
     <path d="M 19.671875 34.8125 
L 19.671875 8.109375 
L 35.5 8.109375 
Q 43.453125 8.109375 47.28125 11.40625 
Q 51.125 14.703125 51.125 21.484375 
Q 51.125 28.328125 47.28125 31.5625 
Q 43.453125 34.8125 35.5 34.8125 
z
M 19.671875 64.796875 
L 19.671875 42.828125 
L 34.28125 42.828125 
Q 41.5 42.828125 45.03125 45.53125 
Q 48.578125 48.25 48.578125 53.8125 
Q 48.578125 59.328125 45.03125 62.0625 
Q 41.5 64.796875 34.28125 64.796875 
z
M 9.8125 72.90625 
L 35.015625 72.90625 
Q 46.296875 72.90625 52.390625 68.21875 
Q 58.5 63.53125 58.5 54.890625 
Q 58.5 48.1875 55.375 44.234375 
Q 52.25 40.28125 46.1875 39.3125 
Q 53.46875 37.75 57.5 32.78125 
Q 61.53125 27.828125 61.53125 20.40625 
Q 61.53125 10.640625 54.890625 5.3125 
Q 48.25 0 35.984375 0 
L 9.8125 0 
z
" id="DejaVuSans-42"/>
     <path d="M 8.5 21.578125 
L 8.5 54.6875 
L 17.484375 54.6875 
L 17.484375 21.921875 
Q 17.484375 14.15625 20.5 10.265625 
Q 23.53125 6.390625 29.59375 6.390625 
Q 36.859375 6.390625 41.078125 11.03125 
Q 45.3125 15.671875 45.3125 23.6875 
L 45.3125 54.6875 
L 54.296875 54.6875 
L 54.296875 0 
L 45.3125 0 
L 45.3125 8.40625 
Q 42.046875 3.421875 37.71875 1 
Q 33.40625 -1.421875 27.6875 -1.421875 
Q 18.265625 -1.421875 13.375 4.4375 
Q 8.5 10.296875 8.5 21.578125 
z
M 31.109375 56 
z
" id="DejaVuSans-75"/>
     <path d="M 54.890625 33.015625 
L 54.890625 0 
L 45.90625 0 
L 45.90625 32.71875 
Q 45.90625 40.484375 42.875 44.328125 
Q 39.84375 48.1875 33.796875 48.1875 
Q 26.515625 48.1875 22.3125 43.546875 
Q 18.109375 38.921875 18.109375 30.90625 
L 18.109375 0 
L 9.078125 0 
L 9.078125 54.6875 
L 18.109375 54.6875 
L 18.109375 46.1875 
Q 21.34375 51.125 25.703125 53.5625 
Q 30.078125 56 35.796875 56 
Q 45.21875 56 50.046875 50.171875 
Q 54.890625 44.34375 54.890625 33.015625 
z
" id="DejaVuSans-6e"/>
     <path d="M 45.40625 27.984375 
Q 45.40625 37.75 41.375 43.109375 
Q 37.359375 48.484375 30.078125 48.484375 
Q 22.859375 48.484375 18.828125 43.109375 
Q 14.796875 37.75 14.796875 27.984375 
Q 14.796875 18.265625 18.828125 12.890625 
Q 22.859375 7.515625 30.078125 7.515625 
Q 37.359375 7.515625 41.375 12.890625 
Q 45.40625 18.265625 45.40625 27.984375 
z
M 54.390625 6.78125 
Q 54.390625 -7.171875 48.1875 -13.984375 
Q 42 -20.796875 29.203125 -20.796875 
Q 24.46875 -20.796875 20.265625 -20.09375 
Q 16.0625 -19.390625 12.109375 -17.921875 
L 12.109375 -9.1875 
Q 16.0625 -11.328125 19.921875 -12.34375 
Q 23.78125 -13.375 27.78125 -13.375 
Q 36.625 -13.375 41.015625 -8.765625 
Q 45.40625 -4.15625 45.40625 5.171875 
L 45.40625 9.625 
Q 42.625 4.78125 38.28125 2.390625 
Q 33.9375 0 27.875 0 
Q 17.828125 0 11.671875 7.65625 
Q 5.515625 15.328125 5.515625 27.984375 
Q 5.515625 40.671875 11.671875 48.328125 
Q 17.828125 56 27.875 56 
Q 33.9375 56 38.28125 53.609375 
Q 42.625 51.21875 45.40625 46.390625 
L 45.40625 54.6875 
L 54.390625 54.6875 
z
" id="DejaVuSans-67"/>
     <path d="M 34.28125 27.484375 
Q 23.390625 27.484375 19.1875 25 
Q 14.984375 22.515625 14.984375 16.5 
Q 14.984375 11.71875 18.140625 8.90625 
Q 21.296875 6.109375 26.703125 6.109375 
Q 34.1875 6.109375 38.703125 11.40625 
Q 43.21875 16.703125 43.21875 25.484375 
L 43.21875 27.484375 
z
M 52.203125 31.203125 
L 52.203125 0 
L 43.21875 0 
L 43.21875 8.296875 
Q 40.140625 3.328125 35.546875 0.953125 
Q 30.953125 -1.421875 24.3125 -1.421875 
Q 15.921875 -1.421875 10.953125 3.296875 
Q 6 8.015625 6 15.921875 
Q 6 25.140625 12.171875 29.828125 
Q 18.359375 34.515625 30.609375 34.515625 
L 43.21875 34.515625 
L 43.21875 35.40625 
Q 43.21875 41.609375 39.140625 45 
Q 35.0625 48.390625 27.6875 48.390625 
Q 23 48.390625 18.546875 47.265625 
Q 14.109375 46.140625 10.015625 43.890625 
L 10.015625 52.203125 
Q 14.9375 54.109375 19.578125 55.046875 
Q 24.21875 56 28.609375 56 
Q 40.484375 56 46.34375 49.84375 
Q 52.203125 43.703125 52.203125 31.203125 
z
" id="DejaVuSans-61"/>
     <path d="M 30.609375 48.390625 
Q 23.390625 48.390625 19.1875 42.75 
Q 14.984375 37.109375 14.984375 27.296875 
Q 14.984375 17.484375 19.15625 11.84375 
Q 23.34375 6.203125 30.609375 6.203125 
Q 37.796875 6.203125 41.984375 11.859375 
Q 46.1875 17.53125 46.1875 27.296875 
Q 46.1875 37.015625 41.984375 42.703125 
Q 37.796875 48.390625 30.609375 48.390625 
z
M 30.609375 56 
Q 42.328125 56 49.015625 48.375 
Q 55.71875 40.765625 55.71875 27.296875 
Q 55.71875 13.875 49.015625 6.21875 
Q 42.328125 -1.421875 30.609375 -1.421875 
Q 18.84375 -1.421875 12.171875 6.21875 
Q 5.515625 13.875 5.515625 27.296875 
Q 5.515625 40.765625 12.171875 48.375 
Q 18.84375 56 30.609375 56 
z
" id="DejaVuSans-6f"/>
     <path d="M 9.078125 75.984375 
L 18.109375 75.984375 
L 18.109375 31.109375 
L 44.921875 54.6875 
L 56.390625 54.6875 
L 27.390625 29.109375 
L 57.625 0 
L 45.90625 0 
L 18.109375 26.703125 
L 18.109375 0 
L 9.078125 0 
z
" id="DejaVuSans-6b"/>
    </defs>
    <g transform="translate(328.085938 16.598438)scale(0.1 -0.1)">
     <use xlink:href="#DejaVuSans-42"/>
     <use x="68.603516" xlink:href="#DejaVuSans-75"/>
     <use x="131.982422" xlink:href="#DejaVuSans-69"/>
     <use x="159.765625" xlink:href="#DejaVuSans-6c"/>
     <use x="187.548828" xlink:href="#DejaVuSans-64"/>
     <use x="251.025391" xlink:href="#DejaVuSans-69"/>
     <use x="278.808594" xlink:href="#DejaVuSans-6e"/>
     <use x="342.1875" xlink:href="#DejaVuSans-67"/>
     <use x="405.664062" xlink:href="#DejaVuSans-73"/>
     <use x="457.763672" xlink:href="#DejaVuSans-20"/>
     <use x="489.550781" xlink:href="#DejaVuSans-2d"/>
     <use x="525.634766" xlink:href="#DejaVuSans-20"/>
     <use x="557.421875" xlink:href="#DejaVuSans-69"/>
     <use x="585.205078" xlink:href="#DejaVuSans-64"/>
     <use x="648.681641" xlink:href="#DejaVuSans-65"/>
     <use x="710.205078" xlink:href="#DejaVuSans-61"/>
     <use x="771.484375" xlink:href="#DejaVuSans-6c"/>
     <use x="799.267578" xlink:href="#DejaVuSans-20"/>
     <use x="831.054688" xlink:href="#DejaVuSans-6e"/>
     <use x="894.433594" xlink:href="#DejaVuSans-65"/>
     <use x="955.957031" xlink:href="#DejaVuSans-74"/>
     <use x="995.166016" xlink:href="#DejaVuSans-77"/>
     <use x="1076.953125" xlink:href="#DejaVuSans-6f"/>
     <use x="1138.134766" xlink:href="#DejaVuSans-72"/>
     <use x="1179.248047" xlink:href="#DejaVuSans-6b"/>
    </g>
   </g>
   <g id="line2d_62">
    <path d="M 300.085938 27.776563 
L 320.085938 27.776563 
" style="fill:none;stroke:#008000;stroke-dasharray:7.4,3.2;stroke-dashoffset:0;stroke-width:2;"/>
   </g>
   <g id="line2d_63"/>
   <g id="text_22">
    <!-- Buildings -->
    <g transform="translate(328.085938 31.276563)scale(0.1 -0.1)">
     <use xlink:href="#DejaVuSans-42"/>
     <use x="68.603516" xlink:href="#DejaVuSans-75"/>
     <use x="131.982422" xlink:href="#DejaVuSans-69"/>
     <use x="159.765625" xlink:href="#DejaVuSans-6c"/>
     <use x="187.548828" xlink:href="#DejaVuSans-64"/>
     <use x="251.025391" xlink:href="#DejaVuSans-69"/>
     <use x="278.808594" xlink:href="#DejaVuSans-6e"/>
     <use x="342.1875" xlink:href="#DejaVuSans-67"/>
     <use x="405.664062" xlink:href="#DejaVuSans-73"/>
    </g>
   </g>
   <g id="line2d_64">
    <path d="M 300.085938 42.454688 
L 320.085938 42.454688 
" style="fill:none;stroke:#ff0000;stroke-dasharray:12.8,3.2,2,3.2;stroke-dashoffset:0;stroke-width:2;"/>
   </g>
   <g id="line2d_65"/>
   <g id="text_23">
    <!-- Network -->
    <g transform="translate(328.085938 45.954688)scale(0.1 -0.1)">
     <use xlink:href="#DejaVuSans-4e"/>
     <use x="74.804688" xlink:href="#DejaVuSans-65"/>
     <use x="136.328125" xlink:href="#DejaVuSans-74"/>
     <use x="175.537109" xlink:href="#DejaVuSans-77"/>
     <use x="257.324219" xlink:href="#DejaVuSans-6f"/>
     <use x="318.505859" xlink:href="#DejaVuSans-72"/>
     <use x="359.619141" xlink:href="#DejaVuSans-6b"/>
    </g>
   </g>
   <g id="line2d_66">
    <path d="M 300.085938 57.132813 
L 320.085938 57.132813 
" style="fill:none;stroke:#00bfbf;stroke-dasharray:2,3.3;stroke-dashoffset:0;stroke-width:2;"/>
   </g>
   <g id="line2d_67"/>
   <g id="text_24">
    <!-- Combined - LP -->
    <defs>
     <path d="M 64.40625 67.28125 
L 64.40625 56.890625 
Q 59.421875 61.53125 53.78125 63.8125 
Q 48.140625 66.109375 41.796875 66.109375 
Q 29.296875 66.109375 22.65625 58.46875 
Q 16.015625 50.828125 16.015625 36.375 
Q 16.015625 21.96875 22.65625 14.328125 
Q 29.296875 6.6875 41.796875 6.6875 
Q 48.140625 6.6875 53.78125 8.984375 
Q 59.421875 11.28125 64.40625 15.921875 
L 64.40625 5.609375 
Q 59.234375 2.09375 53.4375 0.328125 
Q 47.65625 -1.421875 41.21875 -1.421875 
Q 24.65625 -1.421875 15.125 8.703125 
Q 5.609375 18.84375 5.609375 36.375 
Q 5.609375 53.953125 15.125 64.078125 
Q 24.65625 74.21875 41.21875 74.21875 
Q 47.75 74.21875 53.53125 72.484375 
Q 59.328125 70.75 64.40625 67.28125 
z
" id="DejaVuSans-43"/>
     <path d="M 52 44.1875 
Q 55.375 50.25 60.0625 53.125 
Q 64.75 56 71.09375 56 
Q 79.640625 56 84.28125 50.015625 
Q 88.921875 44.046875 88.921875 33.015625 
L 88.921875 0 
L 79.890625 0 
L 79.890625 32.71875 
Q 79.890625 40.578125 77.09375 44.375 
Q 74.3125 48.1875 68.609375 48.1875 
Q 61.625 48.1875 57.5625 43.546875 
Q 53.515625 38.921875 53.515625 30.90625 
L 53.515625 0 
L 44.484375 0 
L 44.484375 32.71875 
Q 44.484375 40.625 41.703125 44.40625 
Q 38.921875 48.1875 33.109375 48.1875 
Q 26.21875 48.1875 22.15625 43.53125 
Q 18.109375 38.875 18.109375 30.90625 
L 18.109375 0 
L 9.078125 0 
L 9.078125 54.6875 
L 18.109375 54.6875 
L 18.109375 46.1875 
Q 21.1875 51.21875 25.484375 53.609375 
Q 29.78125 56 35.6875 56 
Q 41.65625 56 45.828125 52.96875 
Q 50 49.953125 52 44.1875 
z
" id="DejaVuSans-6d"/>
     <path d="M 48.6875 27.296875 
Q 48.6875 37.203125 44.609375 42.84375 
Q 40.53125 48.484375 33.40625 48.484375 
Q 26.265625 48.484375 22.1875 42.84375 
Q 18.109375 37.203125 18.109375 27.296875 
Q 18.109375 17.390625 22.1875 11.75 
Q 26.265625 6.109375 33.40625 6.109375 
Q 40.53125 6.109375 44.609375 11.75 
Q 48.6875 17.390625 48.6875 27.296875 
z
M 18.109375 46.390625 
Q 20.953125 51.265625 25.265625 53.625 
Q 29.59375 56 35.59375 56 
Q 45.5625 56 51.78125 48.09375 
Q 58.015625 40.1875 58.015625 27.296875 
Q 58.015625 14.40625 51.78125 6.484375 
Q 45.5625 -1.421875 35.59375 -1.421875 
Q 29.59375 -1.421875 25.265625 0.953125 
Q 20.953125 3.328125 18.109375 8.203125 
L 18.109375 0 
L 9.078125 0 
L 9.078125 75.984375 
L 18.109375 75.984375 
z
" id="DejaVuSans-62"/>
     <path d="M 9.8125 72.90625 
L 19.671875 72.90625 
L 19.671875 8.296875 
L 55.171875 8.296875 
L 55.171875 0 
L 9.8125 0 
z
" id="DejaVuSans-4c"/>
     <path d="M 19.671875 64.796875 
L 19.671875 37.40625 
L 32.078125 37.40625 
Q 38.96875 37.40625 42.71875 40.96875 
Q 46.484375 44.53125 46.484375 51.125 
Q 46.484375 57.671875 42.71875 61.234375 
Q 38.96875 64.796875 32.078125 64.796875 
z
M 9.8125 72.90625 
L 32.078125 72.90625 
Q 44.34375 72.90625 50.609375 67.359375 
Q 56.890625 61.8125 56.890625 51.125 
Q 56.890625 40.328125 50.609375 34.8125 
Q 44.34375 29.296875 32.078125 29.296875 
L 19.671875 29.296875 
L 19.671875 0 
L 9.8125 0 
z
" id="DejaVuSans-50"/>
    </defs>
    <g transform="translate(328.085938 60.632813)scale(0.1 -0.1)">
     <use xlink:href="#DejaVuSans-43"/>
     <use x="69.824219" xlink:href="#DejaVuSans-6f"/>
     <use x="131.005859" xlink:href="#DejaVuSans-6d"/>
     <use x="228.417969" xlink:href="#DejaVuSans-62"/>
     <use x="291.894531" xlink:href="#DejaVuSans-69"/>
     <use x="319.677734" xlink:href="#DejaVuSans-6e"/>
     <use x="383.056641" xlink:href="#DejaVuSans-65"/>
     <use x="444.580078" xlink:href="#DejaVuSans-64"/>
     <use x="508.056641" xlink:href="#DejaVuSans-20"/>
     <use x="539.84375" xlink:href="#DejaVuSans-2d"/>
     <use x="575.927734" xlink:href="#DejaVuSans-20"/>
     <use x="607.714844" xlink:href="#DejaVuSans-4c"/>
     <use x="663.427734" xlink:href="#DejaVuSans-50"/>
    </g>
   </g>
  </g>
 </g>
 <defs>
  <clipPath id="p723071a3fe">
   <rect height="66.354287" width="389.72" x="57.76" y="25.44"/>
  </clipPath>
  <clipPath id="p92828ea8df">
   <rect height="66.354287" width="389.72" x="57.76" y="117.782857"/>
  </clipPath>
  <clipPath id="p9f8a115d4a">
   <rect height="66.354287" width="389.72" x="57.76" y="210.125713"/>
  </clipPath>
 </defs>
</svg>
