<?xml version="1.0" encoding="utf-8" standalone="no"?>
<!DOCTYPE svg PUBLIC "-//W3C//DTD SVG 1.1//EN"
  "http://www.w3.org/Graphics/SVG/1.1/DTD/svg11.dtd">
<!-- Created with matplotlib (https://matplotlib.org/) -->
<svg height="396pt" version="1.1" viewBox="0 0 576 396" width="576pt" xmlns="http://www.w3.org/2000/svg" xmlns:xlink="http://www.w3.org/1999/xlink">
 <defs>
  <style type="text/css">
*{stroke-linecap:butt;stroke-linejoin:round;}
  </style>
 </defs>
 <g id="figure_1">
  <g id="patch_1">
   <path d="M 0 396 
L 576 396 
L 576 0 
L 0 0 
z
" style="fill:#ffffff;"/>
  </g>
  <g id="axes_1">
   <g id="patch_2">
    <path d="M 72 352.44 
L 518.4 352.44 
L 518.4 47.52 
L 72 47.52 
z
" style="fill:#eaeaf2;"/>
   </g>
   <g id="matplotlib.axis_1">
    <g id="xtick_1">
     <g id="line2d_1">
      <path clip-path="url(#p7e7ebce9b4)" d="M 92.290909 352.44 
L 92.290909 47.52 
" style="fill:none;stroke:#ffffff;stroke-linecap:round;"/>
     </g>
     <g id="line2d_2"/>
     <g id="text_1">
      <!-- 01-01 00 -->
      <defs>
       <path d="M 4.15625 35.296875 
Q 4.15625 48 6.765625 55.734375 
Q 9.375 63.484375 14.515625 67.671875 
Q 19.671875 71.875 27.484375 71.875 
Q 33.25 71.875 37.59375 69.546875 
Q 41.9375 67.234375 44.765625 62.859375 
Q 47.609375 58.5 49.21875 52.21875 
Q 50.828125 45.953125 50.828125 35.296875 
Q 50.828125 22.703125 48.234375 14.96875 
Q 45.65625 7.234375 40.5 3 
Q 35.359375 -1.21875 27.484375 -1.21875 
Q 17.140625 -1.21875 11.234375 6.203125 
Q 4.15625 15.140625 4.15625 35.296875 
z
M 13.1875 35.296875 
Q 13.1875 17.671875 17.3125 11.828125 
Q 21.4375 6 27.484375 6 
Q 33.546875 6 37.671875 11.859375 
Q 41.796875 17.71875 41.796875 35.296875 
Q 41.796875 52.984375 37.671875 58.78125 
Q 33.546875 64.59375 27.390625 64.59375 
Q 21.34375 64.59375 17.71875 59.46875 
Q 13.1875 52.9375 13.1875 35.296875 
z
" id="ArialMT-48"/>
       <path d="M 37.25 0 
L 28.46875 0 
L 28.46875 56 
Q 25.296875 52.984375 20.140625 49.953125 
Q 14.984375 46.921875 10.890625 45.40625 
L 10.890625 53.90625 
Q 18.265625 57.375 23.78125 62.296875 
Q 29.296875 67.234375 31.59375 71.875 
L 37.25 71.875 
z
" id="ArialMT-49"/>
       <path d="M 3.171875 21.484375 
L 3.171875 30.328125 
L 30.171875 30.328125 
L 30.171875 21.484375 
z
" id="ArialMT-45"/>
       <path id="ArialMT-32"/>
      </defs>
      <g style="fill:#262626;" transform="translate(72.55419 366.597813)scale(0.1 -0.1)">
       <use xlink:href="#ArialMT-48"/>
       <use x="55.615234" xlink:href="#ArialMT-49"/>
       <use x="111.230469" xlink:href="#ArialMT-45"/>
       <use x="144.53125" xlink:href="#ArialMT-48"/>
       <use x="200.146484" xlink:href="#ArialMT-49"/>
       <use x="255.761719" xlink:href="#ArialMT-32"/>
       <use x="283.544922" xlink:href="#ArialMT-48"/>
       <use x="339.160156" xlink:href="#ArialMT-48"/>
      </g>
     </g>
    </g>
    <g id="xtick_2">
     <g id="line2d_3">
      <path clip-path="url(#p7e7ebce9b4)" d="M 143.106403 352.44 
L 143.106403 47.52 
" style="fill:none;stroke:#ffffff;stroke-linecap:round;"/>
     </g>
     <g id="line2d_4"/>
     <g id="text_2">
      <!-- 01-01 06 -->
      <defs>
       <path d="M 49.75 54.046875 
L 41.015625 53.375 
Q 39.84375 58.546875 37.703125 60.890625 
Q 34.125 64.65625 28.90625 64.65625 
Q 24.703125 64.65625 21.53125 62.3125 
Q 17.390625 59.28125 14.984375 53.46875 
Q 12.59375 47.65625 12.5 36.921875 
Q 15.671875 41.75 20.265625 44.09375 
Q 24.859375 46.4375 29.890625 46.4375 
Q 38.671875 46.4375 44.84375 39.96875 
Q 51.03125 33.5 51.03125 23.25 
Q 51.03125 16.5 48.125 10.71875 
Q 45.21875 4.9375 40.140625 1.859375 
Q 35.0625 -1.21875 28.609375 -1.21875 
Q 17.625 -1.21875 10.6875 6.859375 
Q 3.765625 14.9375 3.765625 33.5 
Q 3.765625 54.25 11.421875 63.671875 
Q 18.109375 71.875 29.4375 71.875 
Q 37.890625 71.875 43.28125 67.140625 
Q 48.6875 62.40625 49.75 54.046875 
z
M 13.875 23.1875 
Q 13.875 18.65625 15.796875 14.5 
Q 17.71875 10.359375 21.1875 8.171875 
Q 24.65625 6 28.46875 6 
Q 34.03125 6 38.03125 10.484375 
Q 42.046875 14.984375 42.046875 22.703125 
Q 42.046875 30.125 38.078125 34.390625 
Q 34.125 38.671875 28.125 38.671875 
Q 22.171875 38.671875 18.015625 34.390625 
Q 13.875 30.125 13.875 23.1875 
z
" id="ArialMT-54"/>
      </defs>
      <g style="fill:#262626;" transform="translate(123.369684 366.597813)scale(0.1 -0.1)">
       <use xlink:href="#ArialMT-48"/>
       <use x="55.615234" xlink:href="#ArialMT-49"/>
       <use x="111.230469" xlink:href="#ArialMT-45"/>
       <use x="144.53125" xlink:href="#ArialMT-48"/>
       <use x="200.146484" xlink:href="#ArialMT-49"/>
       <use x="255.761719" xlink:href="#ArialMT-32"/>
       <use x="283.544922" xlink:href="#ArialMT-48"/>
       <use x="339.160156" xlink:href="#ArialMT-54"/>
      </g>
     </g>
    </g>
    <g id="xtick_3">
     <g id="line2d_5">
      <path clip-path="url(#p7e7ebce9b4)" d="M 193.921897 352.44 
L 193.921897 47.52 
" style="fill:none;stroke:#ffffff;stroke-linecap:round;"/>
     </g>
     <g id="line2d_6"/>
     <g id="text_3">
      <!-- 01-01 12 -->
      <defs>
       <path d="M 50.34375 8.453125 
L 50.34375 0 
L 3.03125 0 
Q 2.9375 3.171875 4.046875 6.109375 
Q 5.859375 10.9375 9.828125 15.625 
Q 13.8125 20.3125 21.34375 26.46875 
Q 33.015625 36.03125 37.109375 41.625 
Q 41.21875 47.21875 41.21875 52.203125 
Q 41.21875 57.421875 37.46875 61 
Q 33.734375 64.59375 27.734375 64.59375 
Q 21.390625 64.59375 17.578125 60.78125 
Q 13.765625 56.984375 13.71875 50.25 
L 4.6875 51.171875 
Q 5.609375 61.28125 11.65625 66.578125 
Q 17.71875 71.875 27.9375 71.875 
Q 38.234375 71.875 44.234375 66.15625 
Q 50.25 60.453125 50.25 52 
Q 50.25 47.703125 48.484375 43.546875 
Q 46.734375 39.40625 42.65625 34.8125 
Q 38.578125 30.21875 29.109375 22.21875 
Q 21.1875 15.578125 18.9375 13.203125 
Q 16.703125 10.84375 15.234375 8.453125 
z
" id="ArialMT-50"/>
      </defs>
      <g style="fill:#262626;" transform="translate(174.185178 366.597813)scale(0.1 -0.1)">
       <use xlink:href="#ArialMT-48"/>
       <use x="55.615234" xlink:href="#ArialMT-49"/>
       <use x="111.230469" xlink:href="#ArialMT-45"/>
       <use x="144.53125" xlink:href="#ArialMT-48"/>
       <use x="200.146484" xlink:href="#ArialMT-49"/>
       <use x="255.761719" xlink:href="#ArialMT-32"/>
       <use x="283.544922" xlink:href="#ArialMT-49"/>
       <use x="339.160156" xlink:href="#ArialMT-50"/>
      </g>
     </g>
    </g>
    <g id="xtick_4">
     <g id="line2d_7">
      <path clip-path="url(#p7e7ebce9b4)" d="M 244.737391 352.44 
L 244.737391 47.52 
" style="fill:none;stroke:#ffffff;stroke-linecap:round;"/>
     </g>
     <g id="line2d_8"/>
     <g id="text_4">
      <!-- 01-01 18 -->
      <defs>
       <path d="M 17.671875 38.8125 
Q 12.203125 40.828125 9.5625 44.53125 
Q 6.9375 48.25 6.9375 53.421875 
Q 6.9375 61.234375 12.546875 66.546875 
Q 18.171875 71.875 27.484375 71.875 
Q 36.859375 71.875 42.578125 66.421875 
Q 48.296875 60.984375 48.296875 53.171875 
Q 48.296875 48.1875 45.671875 44.5 
Q 43.0625 40.828125 37.75 38.8125 
Q 44.34375 36.671875 47.78125 31.875 
Q 51.21875 27.09375 51.21875 20.453125 
Q 51.21875 11.28125 44.71875 5.03125 
Q 38.234375 -1.21875 27.640625 -1.21875 
Q 17.046875 -1.21875 10.546875 5.046875 
Q 4.046875 11.328125 4.046875 20.703125 
Q 4.046875 27.6875 7.59375 32.390625 
Q 11.140625 37.109375 17.671875 38.8125 
z
M 15.921875 53.71875 
Q 15.921875 48.640625 19.1875 45.40625 
Q 22.46875 42.1875 27.6875 42.1875 
Q 32.765625 42.1875 36.015625 45.375 
Q 39.265625 48.578125 39.265625 53.21875 
Q 39.265625 58.0625 35.90625 61.359375 
Q 32.5625 64.65625 27.59375 64.65625 
Q 22.5625 64.65625 19.234375 61.421875 
Q 15.921875 58.203125 15.921875 53.71875 
z
M 13.09375 20.65625 
Q 13.09375 16.890625 14.875 13.375 
Q 16.65625 9.859375 20.171875 7.921875 
Q 23.6875 6 27.734375 6 
Q 34.03125 6 38.125 10.046875 
Q 42.234375 14.109375 42.234375 20.359375 
Q 42.234375 26.703125 38.015625 30.859375 
Q 33.796875 35.015625 27.4375 35.015625 
Q 21.234375 35.015625 17.15625 30.90625 
Q 13.09375 26.8125 13.09375 20.65625 
z
" id="ArialMT-56"/>
      </defs>
      <g style="fill:#262626;" transform="translate(225.000673 366.597813)scale(0.1 -0.1)">
       <use xlink:href="#ArialMT-48"/>
       <use x="55.615234" xlink:href="#ArialMT-49"/>
       <use x="111.230469" xlink:href="#ArialMT-45"/>
       <use x="144.53125" xlink:href="#ArialMT-48"/>
       <use x="200.146484" xlink:href="#ArialMT-49"/>
       <use x="255.761719" xlink:href="#ArialMT-32"/>
       <use x="283.544922" xlink:href="#ArialMT-49"/>
       <use x="339.160156" xlink:href="#ArialMT-56"/>
      </g>
     </g>
    </g>
    <g id="xtick_5">
     <g id="line2d_9">
      <path clip-path="url(#p7e7ebce9b4)" d="M 295.552885 352.44 
L 295.552885 47.52 
" style="fill:none;stroke:#ffffff;stroke-linecap:round;"/>
     </g>
     <g id="line2d_10"/>
     <g id="text_5">
      <!-- 01-02 00 -->
      <g style="fill:#262626;" transform="translate(275.816167 366.597813)scale(0.1 -0.1)">
       <use xlink:href="#ArialMT-48"/>
       <use x="55.615234" xlink:href="#ArialMT-49"/>
       <use x="111.230469" xlink:href="#ArialMT-45"/>
       <use x="144.53125" xlink:href="#ArialMT-48"/>
       <use x="200.146484" xlink:href="#ArialMT-50"/>
       <use x="255.761719" xlink:href="#ArialMT-32"/>
       <use x="283.544922" xlink:href="#ArialMT-48"/>
       <use x="339.160156" xlink:href="#ArialMT-48"/>
      </g>
     </g>
    </g>
    <g id="xtick_6">
     <g id="line2d_11">
      <path clip-path="url(#p7e7ebce9b4)" d="M 346.368379 352.44 
L 346.368379 47.52 
" style="fill:none;stroke:#ffffff;stroke-linecap:round;"/>
     </g>
     <g id="line2d_12"/>
     <g id="text_6">
      <!-- 01-02 06 -->
      <g style="fill:#262626;" transform="translate(326.631661 366.597813)scale(0.1 -0.1)">
       <use xlink:href="#ArialMT-48"/>
       <use x="55.615234" xlink:href="#ArialMT-49"/>
       <use x="111.230469" xlink:href="#ArialMT-45"/>
       <use x="144.53125" xlink:href="#ArialMT-48"/>
       <use x="200.146484" xlink:href="#ArialMT-50"/>
       <use x="255.761719" xlink:href="#ArialMT-32"/>
       <use x="283.544922" xlink:href="#ArialMT-48"/>
       <use x="339.160156" xlink:href="#ArialMT-54"/>
      </g>
     </g>
    </g>
    <g id="xtick_7">
     <g id="line2d_13">
      <path clip-path="url(#p7e7ebce9b4)" d="M 397.183874 352.44 
L 397.183874 47.52 
" style="fill:none;stroke:#ffffff;stroke-linecap:round;"/>
     </g>
     <g id="line2d_14"/>
     <g id="text_7">
      <!-- 01-02 12 -->
      <g style="fill:#262626;" transform="translate(377.447155 366.597813)scale(0.1 -0.1)">
       <use xlink:href="#ArialMT-48"/>
       <use x="55.615234" xlink:href="#ArialMT-49"/>
       <use x="111.230469" xlink:href="#ArialMT-45"/>
       <use x="144.53125" xlink:href="#ArialMT-48"/>
       <use x="200.146484" xlink:href="#ArialMT-50"/>
       <use x="255.761719" xlink:href="#ArialMT-32"/>
       <use x="283.544922" xlink:href="#ArialMT-49"/>
       <use x="339.160156" xlink:href="#ArialMT-50"/>
      </g>
     </g>
    </g>
    <g id="xtick_8">
     <g id="line2d_15">
      <path clip-path="url(#p7e7ebce9b4)" d="M 447.999368 352.44 
L 447.999368 47.52 
" style="fill:none;stroke:#ffffff;stroke-linecap:round;"/>
     </g>
     <g id="line2d_16"/>
     <g id="text_8">
      <!-- 01-02 18 -->
      <g style="fill:#262626;" transform="translate(428.262649 366.597813)scale(0.1 -0.1)">
       <use xlink:href="#ArialMT-48"/>
       <use x="55.615234" xlink:href="#ArialMT-49"/>
       <use x="111.230469" xlink:href="#ArialMT-45"/>
       <use x="144.53125" xlink:href="#ArialMT-48"/>
       <use x="200.146484" xlink:href="#ArialMT-50"/>
       <use x="255.761719" xlink:href="#ArialMT-32"/>
       <use x="283.544922" xlink:href="#ArialMT-49"/>
       <use x="339.160156" xlink:href="#ArialMT-56"/>
      </g>
     </g>
    </g>
    <g id="xtick_9">
     <g id="line2d_17">
      <path clip-path="url(#p7e7ebce9b4)" d="M 498.814862 352.44 
L 498.814862 47.52 
" style="fill:none;stroke:#ffffff;stroke-linecap:round;"/>
     </g>
     <g id="line2d_18"/>
     <g id="text_9">
      <!-- 01-03 00 -->
      <defs>
       <path d="M 4.203125 18.890625 
L 12.984375 20.0625 
Q 14.5 12.59375 18.140625 9.296875 
Q 21.78125 6 27 6 
Q 33.203125 6 37.46875 10.296875 
Q 41.75 14.59375 41.75 20.953125 
Q 41.75 27 37.796875 30.921875 
Q 33.84375 34.859375 27.734375 34.859375 
Q 25.25 34.859375 21.53125 33.890625 
L 22.515625 41.609375 
Q 23.390625 41.5 23.921875 41.5 
Q 29.546875 41.5 34.03125 44.421875 
Q 38.53125 47.359375 38.53125 53.46875 
Q 38.53125 58.296875 35.25 61.46875 
Q 31.984375 64.65625 26.8125 64.65625 
Q 21.6875 64.65625 18.265625 61.421875 
Q 14.84375 58.203125 13.875 51.765625 
L 5.078125 53.328125 
Q 6.6875 62.15625 12.390625 67.015625 
Q 18.109375 71.875 26.609375 71.875 
Q 32.46875 71.875 37.390625 69.359375 
Q 42.328125 66.84375 44.9375 62.5 
Q 47.5625 58.15625 47.5625 53.265625 
Q 47.5625 48.640625 45.0625 44.828125 
Q 42.578125 41.015625 37.703125 38.765625 
Q 44.046875 37.3125 47.5625 32.6875 
Q 51.078125 28.078125 51.078125 21.140625 
Q 51.078125 11.765625 44.234375 5.25 
Q 37.40625 -1.265625 26.953125 -1.265625 
Q 17.53125 -1.265625 11.296875 4.34375 
Q 5.078125 9.96875 4.203125 18.890625 
z
" id="ArialMT-51"/>
      </defs>
      <g style="fill:#262626;" transform="translate(479.078143 366.597813)scale(0.1 -0.1)">
       <use xlink:href="#ArialMT-48"/>
       <use x="55.615234" xlink:href="#ArialMT-49"/>
       <use x="111.230469" xlink:href="#ArialMT-45"/>
       <use x="144.53125" xlink:href="#ArialMT-48"/>
       <use x="200.146484" xlink:href="#ArialMT-51"/>
       <use x="255.761719" xlink:href="#ArialMT-32"/>
       <use x="283.544922" xlink:href="#ArialMT-48"/>
       <use x="339.160156" xlink:href="#ArialMT-48"/>
      </g>
     </g>
    </g>
   </g>
   <g id="matplotlib.axis_2">
    <g id="ytick_1">
     <g id="line2d_19">
      <path clip-path="url(#p7e7ebce9b4)" d="M 72 346.456171 
L 518.4 346.456171 
" style="fill:none;stroke:#ffffff;stroke-linecap:round;"/>
     </g>
     <g id="line2d_20"/>
     <g id="text_10">
      <!-- 0 -->
      <g style="fill:#262626;" transform="translate(59.439062 350.035077)scale(0.1 -0.1)">
       <use xlink:href="#ArialMT-48"/>
      </g>
     </g>
    </g>
    <g id="ytick_2">
     <g id="line2d_21">
      <path clip-path="url(#p7e7ebce9b4)" d="M 72 308.36423 
L 518.4 308.36423 
" style="fill:none;stroke:#ffffff;stroke-linecap:round;"/>
     </g>
     <g id="line2d_22"/>
     <g id="text_11">
      <!-- 50 -->
      <defs>
       <path d="M 4.15625 18.75 
L 13.375 19.53125 
Q 14.40625 12.796875 18.140625 9.390625 
Q 21.875 6 27.15625 6 
Q 33.5 6 37.890625 10.78125 
Q 42.28125 15.578125 42.28125 23.484375 
Q 42.28125 31 38.0625 35.34375 
Q 33.84375 39.703125 27 39.703125 
Q 22.75 39.703125 19.328125 37.765625 
Q 15.921875 35.84375 13.96875 32.765625 
L 5.71875 33.84375 
L 12.640625 70.609375 
L 48.25 70.609375 
L 48.25 62.203125 
L 19.671875 62.203125 
L 15.828125 42.96875 
Q 22.265625 47.46875 29.34375 47.46875 
Q 38.71875 47.46875 45.15625 40.96875 
Q 51.609375 34.46875 51.609375 24.265625 
Q 51.609375 14.546875 45.953125 7.46875 
Q 39.0625 -1.21875 27.15625 -1.21875 
Q 17.390625 -1.21875 11.203125 4.25 
Q 5.03125 9.71875 4.15625 18.75 
z
" id="ArialMT-53"/>
      </defs>
      <g style="fill:#262626;" transform="translate(53.878125 311.943136)scale(0.1 -0.1)">
       <use xlink:href="#ArialMT-53"/>
       <use x="55.615234" xlink:href="#ArialMT-48"/>
      </g>
     </g>
    </g>
    <g id="ytick_3">
     <g id="line2d_23">
      <path clip-path="url(#p7e7ebce9b4)" d="M 72 270.272288 
L 518.4 270.272288 
" style="fill:none;stroke:#ffffff;stroke-linecap:round;"/>
     </g>
     <g id="line2d_24"/>
     <g id="text_12">
      <!-- 100 -->
      <g style="fill:#262626;" transform="translate(48.317188 273.851194)scale(0.1 -0.1)">
       <use xlink:href="#ArialMT-49"/>
       <use x="55.615234" xlink:href="#ArialMT-48"/>
       <use x="111.230469" xlink:href="#ArialMT-48"/>
      </g>
     </g>
    </g>
    <g id="ytick_4">
     <g id="line2d_25">
      <path clip-path="url(#p7e7ebce9b4)" d="M 72 232.180347 
L 518.4 232.180347 
" style="fill:none;stroke:#ffffff;stroke-linecap:round;"/>
     </g>
     <g id="line2d_26"/>
     <g id="text_13">
      <!-- 150 -->
      <g style="fill:#262626;" transform="translate(48.317188 235.759253)scale(0.1 -0.1)">
       <use xlink:href="#ArialMT-49"/>
       <use x="55.615234" xlink:href="#ArialMT-53"/>
       <use x="111.230469" xlink:href="#ArialMT-48"/>
      </g>
     </g>
    </g>
    <g id="ytick_5">
     <g id="line2d_27">
      <path clip-path="url(#p7e7ebce9b4)" d="M 72 194.088406 
L 518.4 194.088406 
" style="fill:none;stroke:#ffffff;stroke-linecap:round;"/>
     </g>
     <g id="line2d_28"/>
     <g id="text_14">
      <!-- 200 -->
      <g style="fill:#262626;" transform="translate(48.317188 197.667312)scale(0.1 -0.1)">
       <use xlink:href="#ArialMT-50"/>
       <use x="55.615234" xlink:href="#ArialMT-48"/>
       <use x="111.230469" xlink:href="#ArialMT-48"/>
      </g>
     </g>
    </g>
    <g id="ytick_6">
     <g id="line2d_29">
      <path clip-path="url(#p7e7ebce9b4)" d="M 72 155.996464 
L 518.4 155.996464 
" style="fill:none;stroke:#ffffff;stroke-linecap:round;"/>
     </g>
     <g id="line2d_30"/>
     <g id="text_15">
      <!-- 250 -->
      <g style="fill:#262626;" transform="translate(48.317188 159.575371)scale(0.1 -0.1)">
       <use xlink:href="#ArialMT-50"/>
       <use x="55.615234" xlink:href="#ArialMT-53"/>
       <use x="111.230469" xlink:href="#ArialMT-48"/>
      </g>
     </g>
    </g>
    <g id="ytick_7">
     <g id="line2d_31">
      <path clip-path="url(#p7e7ebce9b4)" d="M 72 117.904523 
L 518.4 117.904523 
" style="fill:none;stroke:#ffffff;stroke-linecap:round;"/>
     </g>
     <g id="line2d_32"/>
     <g id="text_16">
      <!-- 300 -->
      <g style="fill:#262626;" transform="translate(48.317188 121.483429)scale(0.1 -0.1)">
       <use xlink:href="#ArialMT-51"/>
       <use x="55.615234" xlink:href="#ArialMT-48"/>
       <use x="111.230469" xlink:href="#ArialMT-48"/>
      </g>
     </g>
    </g>
    <g id="ytick_8">
     <g id="line2d_33">
      <path clip-path="url(#p7e7ebce9b4)" d="M 72 79.812582 
L 518.4 79.812582 
" style="fill:none;stroke:#ffffff;stroke-linecap:round;"/>
     </g>
     <g id="line2d_34"/>
     <g id="text_17">
      <!-- 350 -->
      <g style="fill:#262626;" transform="translate(48.317188 83.391488)scale(0.1 -0.1)">
       <use xlink:href="#ArialMT-51"/>
       <use x="55.615234" xlink:href="#ArialMT-53"/>
       <use x="111.230469" xlink:href="#ArialMT-48"/>
      </g>
     </g>
    </g>
   </g>
   <g id="line2d_35">
    <path clip-path="url(#p7e7ebce9b4)" d="M 92.290909 185.261149 
L 93.702451 185.034952 
L 94.408221 190.004137 
L 95.819763 189.87224 
L 96.525534 193.316618 
L 97.937075 193.247992 
L 98.642846 204.927255 
L 100.054387 204.885366 
L 100.760158 207.913032 
L 102.1717 207.888725 
L 102.87747 212.472697 
L 104.289012 212.455362 
L 104.994783 217.519449 
L 106.406324 217.504506 
L 107.112095 221.784113 
L 108.523636 221.77069 
L 109.229407 222.372365 
L 110.640949 222.363628 
L 111.346719 224.801641 
L 112.758261 224.793124 
L 113.464032 230.93251 
L 114.875573 230.920017 
L 115.581344 234.673098 
L 116.992885 234.661067 
L 117.698656 234.443818 
L 119.110198 234.436338 
L 119.815968 234.787971 
L 121.22751 234.783447 
L 121.933281 233.114716 
L 123.344822 233.11397 
L 124.050593 275.941885 
L 125.462134 275.906474 
L 126.167905 269.347744 
L 127.579447 269.323482 
L 128.285217 264.183665 
L 129.696759 264.17074 
L 130.40253 259.375684 
L 131.814071 259.373491 
L 132.519842 247.011285 
L 133.931383 247.030648 
L 134.637154 244.048233 
L 136.048696 244.068528 
L 136.754466 239.67042 
L 138.166008 239.690463 
L 138.871779 236.216227 
L 140.28332 236.23471 
L 140.989091 220.253522 
L 142.400632 220.293921 
L 143.106403 204.711127 
L 144.517945 204.76331 
L 145.223715 186.93189 
L 146.635257 186.990553 
L 147.341028 167.447116 
L 148.752569 167.50728 
L 149.45834 151.003733 
L 150.869881 151.056133 
L 151.575652 134.058455 
L 152.987194 134.102405 
L 153.692964 134.552764 
L 155.104506 134.569476 
L 155.810277 118.925769 
L 157.221818 118.950051 
L 157.927589 106.382736 
L 159.33913 106.405143 
L 160.044901 84.77714 
L 161.456443 84.80948 
L 162.162213 103.446812 
L 163.573755 103.438476 
L 164.279526 102.087656 
L 165.691067 102.085083 
L 166.396838 98.285218 
L 167.808379 98.288965 
L 168.51415 93.98364 
L 169.925692 93.989149 
L 170.631462 97.758077 
L 172.043004 97.755995 
L 172.748775 103.929278 
L 174.160316 103.922759 
L 174.866087 101.154433 
L 176.277628 101.154519 
L 176.983399 100.730199 
L 178.394941 100.730555 
L 179.100711 106.134031 
L 180.512253 106.129114 
L 181.218024 107.190066 
L 182.629565 107.187271 
L 183.335336 109.761384 
L 184.746877 109.758379 
L 185.452648 111.198715 
L 186.86419 111.19593 
L 187.56996 118.875048 
L 188.981502 118.866265 
L 189.687273 118.551355 
L 191.098814 118.547932 
L 191.804585 117.496393 
L 193.216126 117.496421 
L 193.921897 119.990221 
L 195.333439 119.987579 
L 196.039209 125.3098 
L 197.450751 125.302926 
L 198.156522 124.349683 
L 199.568063 124.347869 
L 200.273834 130.478061 
L 201.685375 130.471273 
L 202.391146 131.270888 
L 203.802688 131.267055 
L 204.508458 133.558459 
L 205.92 133.554841 
L 206.625771 134.586985 
L 208.037312 134.584555 
L 208.743083 138.248755 
L 210.154624 138.24372 
L 210.860395 137.578278 
L 212.271937 137.576802 
L 212.977708 138.982454 
L 214.389249 138.980654 
L 215.09502 138.429508 
L 216.506561 138.429327 
L 217.212332 134.980723 
L 218.623874 134.984954 
L 219.329644 134.658067 
L 220.741186 134.6599 
L 221.446957 137.486868 
L 222.858498 137.484373 
L 223.564269 136.93393 
L 224.97581 136.93346 
L 225.681581 135.72967 
L 227.093123 135.730914 
L 227.798893 136.174536 
L 229.210435 136.174619 
L 229.916206 137.494695 
L 231.327747 137.492918 
L 232.033518 136.076982 
L 233.445059 136.078162 
L 234.15083 136.541133 
L 235.562372 136.540923 
L 236.268142 134.815071 
L 237.679684 134.816586 
L 238.385455 136.236448 
L 239.796996 136.235694 
L 240.502767 135.331968 
L 241.914308 135.332349 
L 242.620079 136.780557 
L 244.031621 136.779047 
L 244.737391 136.47234 
L 246.148933 136.472052 
L 246.854704 135.327866 
L 248.266245 135.329165 
L 248.972016 133.138666 
L 252.50087 133.106208 
L 253.20664 132.656259 
L 254.618182 132.657224 
L 255.323953 133.990997 
L 256.735494 133.990091 
L 257.441265 133.39879 
L 260.970119 133.294436 
L 261.675889 134.107815 
L 263.087431 134.10709 
L 263.793202 134.691083 
L 265.204743 134.690033 
L 265.910514 135.241688 
L 266.616285 135.241011 
L 267.322055 157.342876 
L 268.027826 183.007192 
L 268.733597 202.960037 
L 269.439368 217.753047 
L 270.145138 228.223092 
L 270.850909 236.516396 
L 272.262451 249.515984 
L 272.968221 253.325682 
L 274.379763 259.226614 
L 275.085534 261.258358 
L 275.791304 262.937244 
L 276.497075 267.19982 
L 277.908617 269.214193 
L 278.614387 270.784343 
L 280.025929 271.977706 
L 280.7317 275.690949 
L 282.143241 276.36734 
L 282.849012 278.081169 
L 284.260553 278.4899 
L 284.966324 286.623179 
L 286.377866 286.826107 
L 287.083636 289.993103 
L 288.495178 290.113403 
L 289.200949 295.98205 
L 290.61249 296.04348 
L 291.318261 297.822034 
L 292.729802 297.859696 
L 293.435573 303.024875 
L 295.552885 303.0685 
L 296.258656 302.928976 
L 296.964427 302.676037 
L 297.670198 302.6815 
L 298.375968 302.172548 
L 299.081739 301.522104 
L 299.78751 299.416982 
L 301.199051 297.207343 
L 301.904822 297.442091 
L 304.022134 293.139348 
L 305.433676 288.970822 
L 306.139447 288.219635 
L 307.550988 283.16663 
L 308.96253 276.818101 
L 309.6683 273.719693 
L 310.374071 274.148796 
L 311.785613 268.286778 
L 312.491383 264.25735 
L 314.608696 255.675053 
L 316.020237 251.271144 
L 316.726008 249.940478 
L 318.137549 247.016412 
L 318.84332 251.935857 
L 320.254862 250.312997 
L 320.960632 247.962222 
L 322.372174 246.959188 
L 323.077945 245.110875 
L 324.489486 244.501504 
L 325.195257 240.903306 
L 326.606798 240.54577 
L 327.312569 281.561363 
L 328.724111 281.431825 
L 329.429881 273.62404 
L 330.841423 273.513083 
L 331.547194 266.226933 
L 332.958735 266.151609 
L 333.664506 259.101942 
L 335.076047 259.058025 
L 335.781818 245.141619 
L 337.19336 245.128861 
L 337.89913 240.426219 
L 339.310672 240.429661 
L 340.016443 234.532132 
L 341.427984 234.546249 
L 342.133755 229.408719 
L 343.545296 229.426098 
L 344.251067 211.882203 
L 345.662609 211.923102 
L 346.368379 194.218996 
L 347.779921 194.273834 
L 348.485692 174.293004 
L 349.897233 174.354499 
L 350.603004 153.243606 
L 352.014545 153.304628 
L 352.720316 134.787835 
L 354.131858 134.840528 
L 354.837628 116.299907 
L 356.24917 116.343394 
L 356.954941 114.687224 
L 358.366482 114.705044 
L 359.072253 96.794003 
L 360.483794 96.819876 
L 361.189565 82.102231 
L 362.601107 82.126253 
L 363.306877 61.38 
L 364.718419 61.409731 
L 365.42419 77.727901 
L 366.835731 77.720859 
L 367.541502 73.139114 
L 368.953043 73.140577 
L 369.658814 67.213755 
L 371.070356 67.220682 
L 371.776126 62.562139 
L 373.187668 62.568499 
L 373.893439 63.062712 
L 375.30498 63.063984 
L 376.010751 67.849493 
L 377.422292 67.845813 
L 378.128063 63.058535 
L 379.539605 63.06147 
L 380.245375 61.441419 
L 381.656917 61.443874 
L 382.362688 65.087378 
L 385.891542 65.07102 
L 386.597312 65.454745 
L 390.126166 65.413545 
L 390.831937 71.38534 
L 392.243478 71.379687 
L 392.949249 67.101869 
L 394.360791 67.103788 
L 395.066561 65.599522 
L 396.478103 65.601725 
L 397.183874 67.151524 
L 398.595415 67.150544 
L 399.301186 70.655179 
L 400.712727 70.651324 
L 401.418498 69.298301 
L 402.83004 69.298359 
L 403.53581 74.023238 
L 404.947352 74.018955 
L 405.653123 73.435123 
L 407.064664 73.434201 
L 407.770435 74.637909 
L 409.181976 74.636736 
L 409.887747 75.109648 
L 411.299289 75.108805 
L 412.005059 78.368602 
L 413.416601 78.365084 
L 414.122372 77.389362 
L 415.533913 77.389163 
L 416.239684 77.880489 
L 417.651225 77.880198 
L 418.356996 76.637316 
L 419.768538 76.638399 
L 420.474308 72.088434 
L 421.88585 72.093568 
L 422.591621 72.47736 
L 424.003162 72.478367 
L 424.708933 74.80885 
L 426.120474 74.806782 
L 426.826245 72.87911 
L 428.237787 72.880333 
L 428.943557 72.45826 
L 430.355099 72.459155 
L 431.06087 72.837801 
L 432.472411 72.837705 
L 433.178182 73.134264 
L 434.589723 73.133685 
L 435.295494 71.8137 
L 436.707036 71.815165 
L 437.412806 70.649073 
L 438.824348 70.650273 
L 439.530119 69.250862 
L 440.94166 69.252478 
L 441.647431 71.424934 
L 443.058972 71.423473 
L 443.764743 70.434334 
L 445.176285 70.434621 
L 445.882055 71.307784 
L 447.293597 71.306954 
L 447.999368 70.167306 
L 449.410909 70.16812 
L 450.11668 68.611986 
L 451.528221 68.613855 
L 452.233992 66.256255 
L 455.762846 66.273039 
L 456.468617 67.042891 
L 457.880158 67.042411 
L 458.585929 67.984064 
L 459.99747 67.983133 
L 460.703241 67.550287 
L 462.114783 67.550353 
L 462.820553 67.995654 
L 464.232095 67.995443 
L 464.937866 68.720991 
L 466.349407 68.720172 
L 467.055178 69.259232 
L 468.466719 69.258343 
L 469.17249 70.234671 
L 470.584032 70.233372 
L 471.289802 71.02477 
L 472.701344 71.023776 
L 473.407115 70.085146 
L 474.818656 70.085775 
L 475.524427 74.874869 
L 476.935968 74.870702 
L 477.641739 76.222001 
L 479.053281 76.21923 
L 479.759051 85.756311 
L 481.170593 85.746311 
L 481.876364 89.058068 
L 483.287905 158.661366 
L 483.993676 188.818383 
L 484.699447 205.249402 
L 485.405217 213.758928 
L 486.110988 219.5482 
L 486.816759 218.863352 
L 487.52253 215.279355 
L 488.2283 224.506952 
L 488.934071 218.213373 
L 489.639842 210.489668 
L 490.345613 209.194227 
L 491.757154 191.390274 
L 492.462925 197.694053 
L 493.874466 184.38027 
L 494.580237 184.498899 
L 495.286008 180.277112 
L 495.991779 176.893994 
L 496.697549 189.291771 
L 497.40332 187.56119 
L 498.109091 186.240819 
L 498.109091 186.240819 
" style="fill:none;stroke:#4c72b0;stroke-linecap:round;stroke-width:1.75;"/>
   </g>
   <g id="line2d_36">
    <path clip-path="url(#p7e7ebce9b4)" d="M 92.290909 214.778953 
L 93.702451 214.606718 
L 94.408221 216.465259 
L 95.819763 216.363868 
L 96.525534 219.635306 
L 97.937075 219.584061 
L 98.642846 228.816207 
L 100.054387 228.78564 
L 100.760158 231.219385 
L 102.1717 231.202062 
L 102.87747 234.62646 
L 104.289012 234.614364 
L 104.994783 238.658764 
L 106.406324 238.648143 
L 107.112095 241.932866 
L 108.523636 241.92331 
L 109.229407 242.087572 
L 110.640949 242.081717 
L 111.346719 242.68319 
L 112.758261 242.678517 
L 113.464032 247.349919 
L 114.875573 247.341589 
L 115.581344 251.077881 
L 116.992885 251.068756 
L 117.698656 250.663335 
L 119.110198 250.65804 
L 119.815968 251.409238 
L 121.22751 251.405636 
L 121.933281 249.480815 
L 123.344822 249.480937 
L 124.050593 287.401492 
L 125.462134 287.372736 
L 126.167905 282.551547 
L 127.579447 282.531267 
L 128.285217 277.701176 
L 129.696759 277.6909 
L 130.40253 273.378028 
L 131.814071 273.376862 
L 132.519842 263.775444 
L 133.931383 263.790096 
L 134.637154 261.771239 
L 136.048696 261.786064 
L 136.754466 257.079913 
L 138.166008 257.096477 
L 138.871779 254.686596 
L 140.28332 254.700559 
L 140.989091 244.08172 
L 142.400632 244.107615 
L 143.106403 232.442556 
L 144.517945 232.477362 
L 145.223715 218.260364 
L 146.635257 218.30157 
L 147.341028 202.682112 
L 148.752569 202.725266 
L 149.45834 191.438437 
L 150.869881 191.473736 
L 151.575652 177.567292 
L 152.987194 177.598687 
L 153.692964 179.169853 
L 155.104506 179.180483 
L 155.810277 167.426977 
L 157.221818 167.443637 
L 157.927589 155.151079 
L 159.33913 155.169103 
L 160.044901 138.352754 
L 161.456443 138.376609 
L 162.162213 153.179337 
L 163.573755 153.172973 
L 164.279526 152.027318 
L 165.691067 152.025395 
L 166.396838 150.444857 
L 167.808379 150.446629 
L 168.51415 146.093649 
L 169.925692 146.098136 
L 170.631462 148.678662 
L 172.043004 148.677461 
L 172.748775 154.972023 
L 174.160316 154.966358 
L 174.866087 152.003826 
L 176.277628 152.004237 
L 176.983399 150.922452 
L 178.394941 150.923322 
L 179.100711 156.232198 
L 180.512253 156.228014 
L 181.218024 157.5271 
L 182.629565 157.524606 
L 183.335336 160.999682 
L 184.746877 160.9964 
L 185.452648 161.667317 
L 186.86419 161.665346 
L 187.56996 167.890634 
L 188.981502 167.884102 
L 189.687273 166.862946 
L 191.098814 166.860966 
L 191.804585 166.049907 
L 193.216126 166.050078 
L 193.921897 167.665949 
L 195.333439 167.664297 
L 196.039209 171.250318 
L 197.450751 171.245758 
L 198.156522 170.33061 
L 199.568063 170.329551 
L 200.273834 175.705955 
L 201.685375 175.700666 
L 202.391146 175.949038 
L 203.802688 175.946437 
L 204.508458 178.345369 
L 205.92 178.342356 
L 206.625771 179.422487 
L 208.037312 179.420424 
L 208.743083 181.973614 
L 210.154624 181.970098 
L 210.860395 181.232379 
L 212.271937 181.231523 
L 212.977708 182.819498 
L 214.389249 182.81789 
L 215.09502 182.262968 
L 216.506561 182.262856 
L 217.212332 180.400434 
L 218.623874 180.402878 
L 219.329644 179.33375 
L 220.741186 179.335532 
L 221.446957 181.398417 
L 222.858498 181.39681 
L 223.564269 181.157179 
L 224.97581 181.156749 
L 225.681581 180.311647 
L 227.093123 180.312464 
L 227.798893 180.689145 
L 229.210435 180.689158 
L 229.916206 180.969935 
L 231.327747 180.969182 
L 232.033518 180.715799 
L 233.445059 180.71616 
L 234.15083 180.506693 
L 235.562372 180.506839 
L 236.268142 178.488809 
L 237.679684 178.490513 
L 238.385455 179.925361 
L 239.796996 179.924725 
L 240.502767 178.68221 
L 241.914308 178.682872 
L 242.620079 179.576537 
L 244.031621 179.57572 
L 244.737391 179.418547 
L 246.148933 179.418357 
L 246.854704 178.754631 
L 248.266245 178.755412 
L 248.972016 176.622233 
L 252.50087 176.681136 
L 253.20664 176.378067 
L 254.618182 176.378726 
L 255.323953 177.8572 
L 256.735494 177.856185 
L 257.441265 177.323817 
L 260.970119 177.347443 
L 261.675889 178.113881 
L 263.087431 178.113225 
L 263.793202 178.38114 
L 266.616285 178.46005 
L 268.733597 233.916958 
L 269.439368 245.651701 
L 270.145138 253.985881 
L 270.850909 260.474425 
L 272.262451 270.727413 
L 272.968221 273.665078 
L 274.379763 278.178285 
L 275.085534 279.730902 
L 275.791304 281.009372 
L 276.497075 284.300178 
L 278.614387 286.868153 
L 280.025929 287.762168 
L 280.7317 290.446638 
L 282.143241 290.949661 
L 282.849012 292.129384 
L 284.260553 292.429609 
L 284.966324 298.606181 
L 286.377866 298.754312 
L 287.083636 301.421251 
L 288.495178 301.506083 
L 289.200949 305.737005 
L 290.61249 305.780694 
L 291.318261 307.083795 
L 292.729802 307.109952 
L 293.435573 311.116712 
L 296.258656 311.078287 
L 297.670198 310.557671 
L 299.081739 309.54465 
L 299.78751 307.580298 
L 301.199051 305.641397 
L 301.904822 305.726286 
L 304.022134 301.678416 
L 305.433676 297.988708 
L 306.139447 297.112079 
L 307.550988 292.626297 
L 308.96253 287.032412 
L 309.6683 284.29923 
L 310.374071 284.378379 
L 311.785613 279.233336 
L 312.491383 275.471368 
L 313.902925 270.674511 
L 314.608696 267.387303 
L 316.726008 261.487821 
L 318.137549 259.080763 
L 318.84332 263.747035 
L 320.254862 262.530476 
L 320.960632 260.630229 
L 322.372174 259.962513 
L 323.077945 258.909668 
L 324.489486 258.571101 
L 325.195257 255.164803 
L 326.606798 254.997243 
L 327.312569 291.465206 
L 328.724111 291.404886 
L 329.429881 285.54823 
L 330.841423 285.505601 
L 331.547194 278.962035 
L 332.958735 278.938506 
L 333.664506 272.870495 
L 335.076047 272.864423 
L 335.781818 262.009734 
L 337.19336 262.025151 
L 337.89913 258.602859 
L 339.310672 258.621813 
L 340.016443 252.695692 
L 341.427984 252.717415 
L 342.133755 249.027547 
L 343.545296 249.046632 
L 344.251067 237.16785 
L 345.662609 237.198778 
L 346.368379 223.885391 
L 347.779921 223.92482 
L 348.485692 207.977619 
L 349.897233 208.022259 
L 350.603004 191.158233 
L 352.014545 191.202579 
L 352.720316 178.324332 
L 354.131858 178.360204 
L 354.837628 163.175962 
L 358.366482 163.185252 
L 359.072253 149.180615 
L 360.483794 149.198938 
L 361.189565 135.577406 
L 362.601107 135.596337 
L 363.306877 119.597937 
L 364.718419 119.619664 
L 365.42419 132.443777 
L 366.835731 132.438421 
L 367.541502 128.767939 
L 368.953043 128.769003 
L 369.658814 125.288437 
L 371.070356 125.29275 
L 371.776126 120.662666 
L 375.30498 120.740119 
L 376.010751 126.020722 
L 377.422292 126.01713 
L 378.128063 121.101968 
L 379.539605 121.104671 
L 380.245375 119.533715 
L 381.656917 119.535809 
L 382.362688 122.993136 
L 383.774229 122.990973 
L 384.48 123.8222 
L 385.891542 123.821241 
L 386.597312 125.149055 
L 388.008854 125.148237 
L 388.714624 124.967936 
L 390.126166 124.967842 
L 390.831937 129.702104 
L 392.243478 129.697923 
L 392.949249 125.332311 
L 394.360791 125.334352 
L 395.066561 124.155454 
L 396.478103 124.157198 
L 397.183874 124.933801 
L 398.595415 124.933365 
L 399.301186 127.274048 
L 400.712727 127.271522 
L 401.418498 126.173795 
L 402.83004 126.173941 
L 403.53581 130.269172 
L 404.947352 130.265817 
L 405.653123 129.624834 
L 407.064664 129.624244 
L 407.770435 131.09797 
L 409.181976 131.096806 
L 409.887747 131.437135 
L 411.299289 131.436479 
L 412.005059 133.72829 
L 413.416601 133.72587 
L 414.122372 132.976485 
L 415.533913 132.976378 
L 416.239684 133.81678 
L 417.651225 133.816291 
L 418.356996 132.727709 
L 419.768538 132.728519 
L 420.474308 129.834604 
L 421.88585 129.837928 
L 422.591621 129.437972 
L 424.003162 129.439042 
L 424.708933 131.163117 
L 426.120474 131.16172 
L 426.826245 129.789492 
L 428.237787 129.790332 
L 428.943557 129.562206 
L 430.355099 129.562784 
L 431.06087 129.870657 
L 432.472411 129.870559 
L 433.178182 129.474259 
L 436.707036 129.366853 
L 437.412806 127.360046 
L 438.824348 127.361502 
L 439.530119 125.960379 
L 440.94166 125.96187 
L 441.647431 128.018183 
L 443.058972 128.016946 
L 443.764743 126.8414 
L 445.176285 126.84183 
L 445.882055 127.240024 
L 447.293597 127.239641 
L 447.999368 126.293935 
L 449.410909 126.294617 
L 450.11668 125.260906 
L 451.528221 125.262175 
L 452.233992 123.007197 
L 453.645534 123.009418 
L 454.351304 123.148542 
L 455.762846 123.149132 
L 456.468617 123.855354 
L 457.880158 123.854919 
L 458.585929 124.971914 
L 459.99747 124.970979 
L 460.703241 124.487762 
L 462.114783 124.487852 
L 462.820553 125.285783 
L 464.232095 125.285359 
L 464.937866 125.730106 
L 466.349407 125.729527 
L 467.055178 125.862137 
L 468.466719 125.861672 
L 469.17249 126.396202 
L 470.584032 126.395437 
L 471.289802 127.44882 
L 472.701344 127.447865 
L 473.407115 126.763336 
L 474.818656 126.763724 
L 475.524427 131.066069 
L 476.935968 131.062659 
L 477.641739 131.962905 
L 479.053281 131.960912 
L 479.759051 139.403051 
L 481.170593 139.395757 
L 481.876364 141.749717 
L 483.287905 198.702886 
L 483.993676 221.943487 
L 484.699447 235.06022 
L 485.405217 241.710455 
L 486.110988 245.714029 
L 486.816759 244.922824 
L 487.52253 241.759068 
L 488.2283 248.45603 
L 488.934071 243.076369 
L 489.639842 236.512197 
L 490.345613 235.498044 
L 491.757154 220.621898 
L 492.462925 224.337185 
L 493.874466 213.331034 
L 494.580237 213.374746 
L 495.286008 210.021583 
L 495.991779 207.391134 
L 496.697549 217.488436 
L 497.40332 216.198672 
L 498.109091 215.23937 
L 498.109091 215.23937 
" style="fill:none;stroke:#55a868;stroke-linecap:round;stroke-width:1.75;"/>
   </g>
   <g id="line2d_37">
    <path clip-path="url(#p7e7ebce9b4)" d="M 92.290909 316.938367 
L 93.702451 316.884404 
L 94.408221 319.995049 
L 95.819763 319.964543 
L 96.525534 320.137483 
L 97.937075 320.120102 
L 98.642846 322.567219 
L 100.054387 322.555897 
L 100.760158 323.149818 
L 102.1717 323.142834 
L 102.87747 324.302407 
L 104.289012 324.297169 
L 104.994783 325.316856 
L 106.406324 325.312533 
L 107.112095 326.307418 
L 108.523636 326.303551 
L 109.229407 326.740964 
L 110.640949 326.738082 
L 111.346719 328.574622 
L 112.758261 328.570778 
L 113.464032 330.038762 
L 116.992885 330.048482 
L 117.698656 330.236653 
L 119.110198 330.234469 
L 119.815968 329.834903 
L 121.22751 329.833982 
L 121.933281 330.090072 
L 123.344822 330.089204 
L 124.050593 334.996565 
L 125.462134 334.989909 
L 126.167905 333.252368 
L 127.579447 333.248386 
L 128.285217 332.93866 
L 129.696759 332.936011 
L 130.40253 332.453826 
L 131.814071 332.4528 
L 132.519842 329.692012 
L 133.931383 329.696723 
L 134.637154 328.733165 
L 136.048696 328.738635 
L 136.754466 329.046677 
L 138.166008 329.050156 
L 138.871779 327.985802 
L 140.28332 327.990322 
L 140.989091 322.627973 
L 142.400632 322.642477 
L 143.106403 318.724743 
L 144.517945 318.742119 
L 145.223715 315.127697 
L 146.635257 315.145154 
L 147.341028 311.221175 
L 148.752569 311.238186 
L 149.45834 306.021467 
L 150.869881 306.038568 
L 151.575652 302.947334 
L 152.987194 302.959889 
L 153.692964 301.839082 
L 155.104506 301.845163 
L 155.810277 297.954963 
L 157.221818 297.962585 
L 157.927589 297.687828 
L 159.33913 297.692211 
L 160.044901 292.880557 
L 161.456443 292.889043 
L 162.162213 296.723646 
L 163.573755 296.721674 
L 164.279526 296.516509 
L 165.691067 296.515859 
L 166.396838 294.296532 
L 169.925692 294.347184 
L 170.631462 295.535585 
L 172.043004 295.534705 
L 172.748775 295.413425 
L 174.160316 295.412572 
L 174.866087 295.606778 
L 176.277628 295.606454 
L 176.983399 296.263918 
L 180.512253 296.357272 
L 181.218024 296.119137 
L 182.629565 296.118836 
L 183.335336 295.217874 
L 184.746877 295.21815 
L 185.452648 295.987569 
L 186.86419 295.986755 
L 187.56996 297.440585 
L 188.981502 297.438335 
L 189.687273 298.14458 
L 191.098814 298.143137 
L 191.804585 297.902657 
L 193.216126 297.902514 
L 193.921897 298.780443 
L 195.333439 298.779452 
L 196.039209 300.515653 
L 199.568063 300.474489 
L 200.273834 301.228277 
L 201.685375 301.226779 
L 202.391146 301.778021 
L 205.92 301.668656 
L 208.037312 301.620301 
L 208.743083 302.731311 
L 216.506561 302.622642 
L 217.212332 301.036461 
L 218.623874 301.038248 
L 219.329644 301.780487 
L 220.741186 301.780539 
L 221.446957 302.544622 
L 222.858498 302.543734 
L 223.564269 302.232921 
L 224.97581 302.232882 
L 225.681581 301.874193 
L 229.210435 301.941631 
L 229.916206 302.980931 
L 231.327747 302.979907 
L 232.033518 301.817354 
L 233.445059 301.818173 
L 234.15083 302.490611 
L 235.562372 302.490255 
L 236.268142 302.782432 
L 239.796996 302.76714 
L 240.502767 303.105929 
L 241.914308 303.105647 
L 242.620079 303.660191 
L 244.031621 303.659498 
L 244.737391 303.509964 
L 246.148933 303.509866 
L 246.854704 303.029406 
L 250.383557 302.973081 
L 251.795099 302.8811 
L 252.50087 302.881242 
L 253.20664 302.734363 
L 254.618182 302.734669 
L 255.323953 302.589968 
L 258.852806 302.531239 
L 259.558577 302.403001 
L 263.087431 302.450036 
L 263.793202 302.766114 
L 265.204743 302.765724 
L 265.910514 303.237494 
L 266.616285 303.237132 
L 267.322055 307.008786 
L 268.733597 315.49925 
L 269.439368 318.557517 
L 270.850909 322.498143 
L 272.262451 325.244743 
L 273.673992 326.826132 
L 274.379763 327.5045 
L 275.791304 328.384044 
L 276.497075 329.355813 
L 277.908617 329.84939 
L 278.614387 330.372362 
L 280.025929 330.671709 
L 280.7317 331.700481 
L 282.143241 331.87385 
L 282.849012 332.407955 
L 284.260553 332.516462 
L 284.966324 334.473169 
L 286.377866 334.527966 
L 287.083636 335.028023 
L 288.495178 335.063491 
L 289.200949 336.701215 
L 290.61249 336.718957 
L 291.318261 337.194411 
L 292.729802 337.205915 
L 293.435573 338.364334 
L 296.964427 338.274111 
L 297.670198 338.58 
L 299.78751 338.292855 
L 301.199051 338.022117 
L 301.904822 338.171976 
L 303.316364 337.794514 
L 304.022134 337.917102 
L 305.433676 337.438284 
L 306.139447 337.563727 
L 307.550988 336.996505 
L 309.6683 335.876634 
L 310.374071 336.226588 
L 313.902925 334.483825 
L 314.608696 334.74392 
L 316.020237 334.06403 
L 316.726008 334.908828 
L 318.137549 334.39182 
L 318.84332 334.644993 
L 320.254862 334.238692 
L 320.960632 333.788164 
L 322.372174 333.452846 
L 323.077945 332.657378 
L 326.606798 332.004698 
L 327.312569 336.552328 
L 328.724111 336.48311 
L 329.429881 334.531981 
L 330.841423 334.463653 
L 331.547194 333.721069 
L 332.958735 333.669274 
L 333.664506 332.687618 
L 335.076047 332.649772 
L 335.781818 329.588056 
L 337.19336 329.559881 
L 337.89913 328.279532 
L 341.427984 328.285005 
L 342.133755 326.837343 
L 343.545296 326.835637 
L 344.251067 321.170523 
L 345.662609 321.180495 
L 346.368379 316.789776 
L 347.779921 316.805185 
L 348.485692 312.771555 
L 349.897233 312.78841 
L 350.603004 308.541544 
L 352.014545 308.55822 
L 352.720316 302.919674 
L 354.131858 302.936495 
L 354.837628 299.580115 
L 356.24917 299.592346 
L 356.954941 297.969666 
L 358.366482 297.975963 
L 359.072253 294.069559 
L 360.483794 294.077109 
L 361.189565 292.980996 
L 362.601107 292.986087 
L 363.306877 288.238234 
L 364.718419 288.246237 
L 365.42419 291.740295 
L 366.835731 291.738609 
L 367.541502 290.827346 
L 368.953043 290.827745 
L 369.658814 288.381488 
L 373.187668 288.3569 
L 373.893439 288.779945 
L 375.30498 288.780036 
L 376.010751 288.284942 
L 377.422292 288.284855 
L 378.128063 288.412738 
L 381.656917 288.364237 
L 382.362688 288.550413 
L 383.774229 288.550066 
L 384.48 287.705513 
L 385.891542 287.70595 
L 386.597312 286.761861 
L 388.008854 286.762568 
L 388.714624 286.901835 
L 390.126166 286.901874 
L 390.831937 288.139407 
L 394.360791 288.225607 
L 395.066561 287.900239 
L 396.478103 287.900698 
L 397.183874 288.673894 
L 398.595415 288.67335 
L 399.301186 289.837302 
L 400.712727 289.835973 
L 401.418498 289.580677 
L 402.83004 289.58059 
L 403.53581 290.210237 
L 407.064664 290.266128 
L 407.770435 289.99611 
L 409.181976 289.996101 
L 409.887747 290.128684 
L 411.299289 290.128498 
L 412.005059 291.096483 
L 413.416601 291.095385 
L 414.122372 290.869049 
L 415.533913 290.868956 
L 416.239684 290.51988 
L 417.651225 290.520077 
L 418.356996 290.365778 
L 419.768538 290.366051 
L 420.474308 288.710001 
L 421.88585 288.711811 
L 422.591621 289.495559 
L 424.003162 289.495496 
L 424.708933 290.101904 
L 426.120474 290.101232 
L 426.826245 289.545789 
L 428.237787 289.546172 
L 428.943557 289.352225 
L 432.472411 289.423317 
L 433.178182 290.116175 
L 434.589723 290.115636 
L 435.295494 288.903588 
L 436.707036 288.904484 
L 437.412806 289.745198 
L 440.94166 289.746779 
L 441.647431 289.862921 
L 443.058972 289.862698 
L 443.764743 290.049105 
L 445.176285 290.048962 
L 445.882055 290.523931 
L 447.293597 290.523484 
L 447.999368 290.329541 
L 449.410909 290.329674 
L 450.11668 289.80725 
L 453.645534 289.705724 
L 454.351304 289.579797 
L 457.880158 289.643663 
L 458.585929 289.468321 
L 462.114783 289.518672 
L 462.820553 289.166041 
L 464.232095 289.166255 
L 464.937866 289.447056 
L 466.349407 289.446816 
L 467.055178 289.853267 
L 468.466719 289.852842 
L 469.17249 290.294639 
L 470.584032 290.294107 
L 471.289802 290.032121 
L 472.701344 290.032082 
L 473.407115 289.777981 
L 474.818656 289.778222 
L 475.524427 290.264972 
L 476.935968 290.264214 
L 477.641739 290.715266 
L 479.053281 290.714489 
L 479.759051 292.809431 
L 481.170593 292.806725 
L 481.876364 293.764522 
L 483.287905 306.414652 
L 483.993676 313.331067 
L 484.699447 316.645353 
L 486.110988 320.290341 
L 486.816759 320.396699 
L 487.52253 319.976458 
L 488.2283 322.507093 
L 488.934071 321.593174 
L 489.639842 320.433642 
L 490.345613 320.152354 
L 491.757154 317.224547 
L 492.462925 319.813039 
L 493.874466 317.505407 
L 494.580237 317.580324 
L 495.991779 315.95903 
L 496.697549 318.259506 
L 498.109091 317.457619 
L 498.109091 317.457619 
" style="fill:none;stroke:#c44e52;stroke-linecap:round;stroke-width:1.75;"/>
   </g>
   <g id="line2d_38">
    <path clip-path="url(#p7e7ebce9b4)" d="M 92.290909 185.261149 
L 93.702451 185.034952 
L 94.408221 190.004137 
L 95.819763 189.87224 
L 96.525534 193.316618 
L 97.937075 193.247992 
L 98.642846 204.927255 
L 100.054387 204.885366 
L 100.760158 207.913032 
L 102.1717 207.888725 
L 102.87747 212.472697 
L 104.289012 212.455362 
L 104.994783 217.519449 
L 106.406324 217.504506 
L 107.112095 221.784113 
L 108.523636 221.77069 
L 109.229407 222.372365 
L 110.640949 222.363628 
L 111.346719 224.801641 
L 112.758261 224.793124 
L 113.464032 230.93251 
L 114.875573 230.920017 
L 115.581344 234.673098 
L 116.992885 234.661067 
L 117.698656 234.443818 
L 119.110198 234.436338 
L 119.815968 234.787971 
L 121.22751 234.783447 
L 121.933281 233.114716 
L 123.344822 233.11397 
L 124.050593 275.941885 
L 125.462134 275.906474 
L 126.167905 269.347744 
L 127.579447 269.323482 
L 128.285217 264.183665 
L 129.696759 264.17074 
L 130.40253 259.375684 
L 131.814071 259.373491 
L 132.519842 247.011285 
L 133.931383 247.030648 
L 134.637154 244.048233 
L 136.048696 244.068528 
L 136.754466 239.67042 
L 138.166008 239.690463 
L 138.871779 236.216227 
L 140.28332 236.23471 
L 140.989091 220.253522 
L 142.400632 220.293921 
L 143.106403 204.711127 
L 144.517945 204.76331 
L 145.223715 186.93189 
L 146.635257 186.990553 
L 147.341028 167.447116 
L 148.752569 167.50728 
L 149.45834 151.003733 
L 150.869881 151.056133 
L 151.575652 134.058455 
L 152.987194 134.102405 
L 153.692964 134.552764 
L 155.104506 134.569476 
L 155.810277 118.925769 
L 157.221818 118.950051 
L 157.927589 106.382736 
L 159.33913 106.405143 
L 160.044901 84.77714 
L 161.456443 84.80948 
L 162.162213 103.446812 
L 163.573755 103.438476 
L 164.279526 102.087656 
L 165.691067 102.085083 
L 166.396838 98.285218 
L 167.808379 98.288965 
L 168.51415 93.98364 
L 169.925692 93.989149 
L 170.631462 97.758077 
L 172.043004 97.755995 
L 172.748775 103.929278 
L 174.160316 103.922759 
L 174.866087 101.154433 
L 176.277628 101.154519 
L 176.983399 100.730199 
L 178.394941 100.730555 
L 179.100711 106.134031 
L 180.512253 106.129114 
L 181.218024 107.190066 
L 182.629565 107.187271 
L 183.335336 109.761384 
L 184.746877 109.758379 
L 185.452648 111.198715 
L 186.86419 111.19593 
L 187.56996 118.875048 
L 188.981502 118.866265 
L 189.687273 118.551355 
L 191.098814 118.547932 
L 191.804585 117.496393 
L 193.216126 117.496421 
L 193.921897 119.990221 
L 195.333439 119.987579 
L 196.039209 125.3098 
L 197.450751 125.302926 
L 198.156522 124.349683 
L 199.568063 124.347869 
L 200.273834 130.478061 
L 201.685375 130.471273 
L 202.391146 131.270888 
L 203.802688 131.267055 
L 204.508458 133.558459 
L 205.92 133.554841 
L 206.625771 134.586985 
L 208.037312 134.584555 
L 208.743083 138.248755 
L 210.154624 138.24372 
L 210.860395 137.578278 
L 212.271937 137.576802 
L 212.977708 138.982454 
L 214.389249 138.980654 
L 215.09502 138.429508 
L 216.506561 138.429327 
L 217.212332 134.980723 
L 218.623874 134.984954 
L 219.329644 134.658067 
L 220.741186 134.6599 
L 221.446957 137.486868 
L 222.858498 137.484373 
L 223.564269 136.93393 
L 224.97581 136.93346 
L 225.681581 135.72967 
L 227.093123 135.730914 
L 227.798893 136.174536 
L 229.210435 136.174619 
L 229.916206 137.494695 
L 231.327747 137.492918 
L 232.033518 136.076982 
L 233.445059 136.078162 
L 234.15083 136.541133 
L 235.562372 136.540923 
L 236.268142 134.815071 
L 237.679684 134.816586 
L 238.385455 136.236448 
L 239.796996 136.235694 
L 240.502767 135.331968 
L 241.914308 135.332349 
L 242.620079 136.780557 
L 244.031621 136.779047 
L 244.737391 136.47234 
L 246.148933 136.472052 
L 246.854704 135.327866 
L 248.266245 135.329165 
L 248.972016 133.138666 
L 252.50087 133.106208 
L 253.20664 132.656259 
L 254.618182 132.657224 
L 255.323953 133.990997 
L 256.735494 133.990091 
L 257.441265 133.39879 
L 260.970119 133.294436 
L 261.675889 134.107815 
L 263.087431 134.10709 
L 263.793202 134.691083 
L 265.204743 134.690033 
L 265.910514 135.241688 
L 266.616285 135.241011 
L 267.322055 157.342876 
L 268.027826 183.007192 
L 268.733597 202.960037 
L 269.439368 217.753047 
L 270.145138 228.223092 
L 270.850909 236.516396 
L 272.262451 249.515984 
L 272.968221 253.325682 
L 274.379763 259.226614 
L 275.085534 261.258358 
L 275.791304 262.937244 
L 276.497075 267.19982 
L 277.908617 269.214193 
L 278.614387 270.784343 
L 280.025929 271.977706 
L 280.7317 275.690949 
L 282.143241 276.36734 
L 282.849012 278.081169 
L 284.260553 278.4899 
L 284.966324 286.623179 
L 286.377866 286.826107 
L 287.083636 289.993103 
L 288.495178 290.113403 
L 289.200949 295.98205 
L 290.61249 296.04348 
L 291.318261 297.822034 
L 292.729802 297.859696 
L 293.435573 303.024875 
L 295.552885 303.0685 
L 296.258656 302.928976 
L 296.964427 302.676037 
L 297.670198 302.6815 
L 298.375968 302.172548 
L 299.081739 301.522104 
L 299.78751 299.416982 
L 301.199051 297.207343 
L 301.904822 297.442091 
L 304.022134 293.139348 
L 305.433676 288.970822 
L 306.139447 288.219635 
L 307.550988 283.16663 
L 308.96253 276.818101 
L 309.6683 273.719693 
L 310.374071 274.148796 
L 311.785613 268.286778 
L 312.491383 264.25735 
L 314.608696 255.675053 
L 316.020237 251.271144 
L 316.726008 249.940478 
L 318.137549 247.016412 
L 318.84332 251.935857 
L 320.254862 250.312997 
L 320.960632 247.962222 
L 322.372174 246.959188 
L 323.077945 245.110875 
L 324.489486 244.501504 
L 325.195257 240.903306 
L 326.606798 240.54577 
L 327.312569 281.561363 
L 328.724111 281.431825 
L 329.429881 273.62404 
L 330.841423 273.513083 
L 331.547194 266.226933 
L 332.958735 266.151609 
L 333.664506 259.101942 
L 335.076047 259.058025 
L 335.781818 245.141619 
L 337.19336 245.128861 
L 337.89913 240.426219 
L 339.310672 240.429661 
L 340.016443 234.532132 
L 341.427984 234.546249 
L 342.133755 229.408719 
L 343.545296 229.426098 
L 344.251067 211.882203 
L 345.662609 211.923102 
L 346.368379 194.218996 
L 347.779921 194.273834 
L 348.485692 174.293004 
L 349.897233 174.354499 
L 350.603004 153.243606 
L 352.014545 153.304628 
L 352.720316 134.787835 
L 354.131858 134.840528 
L 354.837628 116.299907 
L 356.24917 116.343394 
L 356.954941 114.687224 
L 358.366482 114.705044 
L 359.072253 96.794003 
L 360.483794 96.819876 
L 361.189565 82.102231 
L 362.601107 82.126253 
L 363.306877 61.38 
L 364.718419 61.409731 
L 365.42419 77.727901 
L 366.835731 77.720859 
L 367.541502 73.139114 
L 368.953043 73.140577 
L 369.658814 67.213755 
L 371.070356 67.220682 
L 371.776126 62.562139 
L 373.187668 62.568499 
L 373.893439 63.062712 
L 375.30498 63.063984 
L 376.010751 67.849493 
L 377.422292 67.845813 
L 378.128063 63.058535 
L 379.539605 63.06147 
L 380.245375 61.441419 
L 381.656917 61.443874 
L 382.362688 65.087378 
L 385.891542 65.07102 
L 386.597312 65.454745 
L 390.126166 65.413545 
L 390.831937 71.38534 
L 392.243478 71.379687 
L 392.949249 67.101869 
L 394.360791 67.103788 
L 395.066561 65.599522 
L 396.478103 65.601725 
L 397.183874 67.151524 
L 398.595415 67.150544 
L 399.301186 70.655179 
L 400.712727 70.651324 
L 401.418498 69.298301 
L 402.83004 69.298359 
L 403.53581 74.023238 
L 404.947352 74.018955 
L 405.653123 73.435123 
L 407.064664 73.434201 
L 407.770435 74.637909 
L 409.181976 74.636736 
L 409.887747 75.109648 
L 411.299289 75.108805 
L 412.005059 78.368602 
L 413.416601 78.365084 
L 414.122372 77.389362 
L 415.533913 77.389163 
L 416.239684 77.880489 
L 417.651225 77.880198 
L 418.356996 76.637316 
L 419.768538 76.638399 
L 420.474308 72.088434 
L 421.88585 72.093568 
L 422.591621 72.47736 
L 424.003162 72.478367 
L 424.708933 74.80885 
L 426.120474 74.806782 
L 426.826245 72.87911 
L 428.237787 72.880333 
L 428.943557 72.45826 
L 430.355099 72.459155 
L 431.06087 72.837801 
L 432.472411 72.837705 
L 433.178182 73.134264 
L 434.589723 73.133685 
L 435.295494 71.8137 
L 436.707036 71.815165 
L 437.412806 70.649073 
L 438.824348 70.650273 
L 439.530119 69.250862 
L 440.94166 69.252478 
L 441.647431 71.424934 
L 443.058972 71.423473 
L 443.764743 70.434334 
L 445.176285 70.434621 
L 445.882055 71.307784 
L 447.293597 71.306954 
L 447.999368 70.167306 
L 449.410909 70.16812 
L 450.11668 68.611986 
L 451.528221 68.613855 
L 452.233992 66.256255 
L 455.762846 66.273039 
L 456.468617 67.042891 
L 457.880158 67.042411 
L 458.585929 67.984064 
L 459.99747 67.983133 
L 460.703241 67.550287 
L 462.114783 67.550353 
L 462.820553 67.995654 
L 464.232095 67.995443 
L 464.937866 68.720991 
L 466.349407 68.720172 
L 467.055178 69.259232 
L 468.466719 69.258343 
L 469.17249 70.234671 
L 470.584032 70.233372 
L 471.289802 71.02477 
L 472.701344 71.023776 
L 473.407115 70.085146 
L 474.818656 70.085775 
L 475.524427 74.874869 
L 476.935968 74.870702 
L 477.641739 76.222001 
L 479.053281 76.21923 
L 479.759051 85.756311 
L 481.170593 85.746311 
L 481.876364 89.058068 
L 483.287905 158.661366 
L 483.993676 188.818383 
L 484.699447 205.249402 
L 485.405217 213.758928 
L 486.110988 219.5482 
L 486.816759 218.863352 
L 487.52253 215.279355 
L 488.2283 224.506952 
L 488.934071 218.213373 
L 489.639842 210.489668 
L 490.345613 209.194227 
L 491.757154 191.390274 
L 492.462925 197.694053 
L 493.874466 184.38027 
L 494.580237 184.498899 
L 495.286008 180.277112 
L 495.991779 176.893994 
L 496.697549 189.291771 
L 497.40332 187.56119 
L 498.109091 186.240819 
L 498.109091 186.240819 
" style="fill:none;stroke:#8172b2;stroke-linecap:round;stroke-width:1.75;"/>
   </g>
   <g id="patch_3">
    <path d="M 72 352.44 
L 72 47.52 
" style="fill:none;"/>
   </g>
   <g id="patch_4">
    <path d="M 518.4 352.44 
L 518.4 47.52 
" style="fill:none;"/>
   </g>
   <g id="patch_5">
    <path d="M 72 352.44 
L 518.4 352.44 
" style="fill:none;"/>
   </g>
   <g id="patch_6">
    <path d="M 72 47.52 
L 518.4 47.52 
" style="fill:none;"/>
   </g>
   <g id="text_18">
    <!-- Mass flows network -->
    <defs>
     <path d="M 7.421875 0 
L 7.421875 71.578125 
L 21.6875 71.578125 
L 38.625 20.90625 
Q 40.96875 13.8125 42.046875 10.296875 
Q 43.265625 14.203125 45.84375 21.78125 
L 62.984375 71.578125 
L 75.734375 71.578125 
L 75.734375 0 
L 66.609375 0 
L 66.609375 59.90625 
L 45.796875 0 
L 37.25 0 
L 16.546875 60.9375 
L 16.546875 0 
z
" id="ArialMT-77"/>
     <path d="M 40.4375 6.390625 
Q 35.546875 2.25 31.03125 0.53125 
Q 26.515625 -1.171875 21.34375 -1.171875 
Q 12.796875 -1.171875 8.203125 3 
Q 3.609375 7.171875 3.609375 13.671875 
Q 3.609375 17.484375 5.34375 20.625 
Q 7.078125 23.78125 9.890625 25.6875 
Q 12.703125 27.59375 16.21875 28.5625 
Q 18.796875 29.25 24.03125 29.890625 
Q 34.671875 31.15625 39.703125 32.90625 
Q 39.75 34.71875 39.75 35.203125 
Q 39.75 40.578125 37.25 42.78125 
Q 33.890625 45.75 27.25 45.75 
Q 21.046875 45.75 18.09375 43.578125 
Q 15.140625 41.40625 13.71875 35.890625 
L 5.125 37.0625 
Q 6.296875 42.578125 8.984375 45.96875 
Q 11.671875 49.359375 16.75 51.1875 
Q 21.828125 53.03125 28.515625 53.03125 
Q 35.15625 53.03125 39.296875 51.46875 
Q 43.453125 49.90625 45.40625 47.53125 
Q 47.359375 45.171875 48.140625 41.546875 
Q 48.578125 39.3125 48.578125 33.453125 
L 48.578125 21.734375 
Q 48.578125 9.46875 49.140625 6.21875 
Q 49.703125 2.984375 51.375 0 
L 42.1875 0 
Q 40.828125 2.734375 40.4375 6.390625 
z
M 39.703125 26.03125 
Q 34.90625 24.078125 25.34375 22.703125 
Q 19.921875 21.921875 17.671875 20.9375 
Q 15.4375 19.96875 14.203125 18.09375 
Q 12.984375 16.21875 12.984375 13.921875 
Q 12.984375 10.40625 15.640625 8.0625 
Q 18.3125 5.71875 23.4375 5.71875 
Q 28.515625 5.71875 32.46875 7.9375 
Q 36.421875 10.15625 38.28125 14.015625 
Q 39.703125 17 39.703125 22.796875 
z
" id="ArialMT-97"/>
     <path d="M 3.078125 15.484375 
L 11.765625 16.84375 
Q 12.5 11.625 15.84375 8.84375 
Q 19.1875 6.0625 25.203125 6.0625 
Q 31.25 6.0625 34.171875 8.515625 
Q 37.109375 10.984375 37.109375 14.3125 
Q 37.109375 17.28125 34.515625 19 
Q 32.71875 20.171875 25.53125 21.96875 
Q 15.875 24.421875 12.140625 26.203125 
Q 8.40625 27.984375 6.46875 31.125 
Q 4.546875 34.28125 4.546875 38.09375 
Q 4.546875 41.546875 6.125 44.5 
Q 7.71875 47.46875 10.453125 49.421875 
Q 12.5 50.921875 16.03125 51.96875 
Q 19.578125 53.03125 23.640625 53.03125 
Q 29.734375 53.03125 34.34375 51.265625 
Q 38.96875 49.515625 41.15625 46.5 
Q 43.359375 43.5 44.1875 38.484375 
L 35.59375 37.3125 
Q 35.015625 41.3125 32.203125 43.546875 
Q 29.390625 45.796875 24.265625 45.796875 
Q 18.21875 45.796875 15.625 43.796875 
Q 13.03125 41.796875 13.03125 39.109375 
Q 13.03125 37.40625 14.109375 36.03125 
Q 15.1875 34.625 17.484375 33.6875 
Q 18.796875 33.203125 25.25 31.453125 
Q 34.578125 28.953125 38.25 27.359375 
Q 41.9375 25.78125 44.03125 22.75 
Q 46.140625 19.734375 46.140625 15.234375 
Q 46.140625 10.84375 43.578125 6.953125 
Q 41.015625 3.078125 36.171875 0.953125 
Q 31.34375 -1.171875 25.25 -1.171875 
Q 15.140625 -1.171875 9.84375 3.03125 
Q 4.546875 7.234375 3.078125 15.484375 
z
" id="ArialMT-115"/>
     <path d="M 8.6875 0 
L 8.6875 45.015625 
L 0.921875 45.015625 
L 0.921875 51.859375 
L 8.6875 51.859375 
L 8.6875 57.375 
Q 8.6875 62.59375 9.625 65.140625 
Q 10.890625 68.5625 14.078125 70.671875 
Q 17.28125 72.796875 23.046875 72.796875 
Q 26.765625 72.796875 31.25 71.921875 
L 29.9375 64.265625 
Q 27.203125 64.75 24.75 64.75 
Q 20.75 64.75 19.09375 63.03125 
Q 17.4375 61.328125 17.4375 56.640625 
L 17.4375 51.859375 
L 27.546875 51.859375 
L 27.546875 45.015625 
L 17.4375 45.015625 
L 17.4375 0 
z
" id="ArialMT-102"/>
     <path d="M 6.390625 0 
L 6.390625 71.578125 
L 15.1875 71.578125 
L 15.1875 0 
z
" id="ArialMT-108"/>
     <path d="M 3.328125 25.921875 
Q 3.328125 40.328125 11.328125 47.265625 
Q 18.015625 53.03125 27.640625 53.03125 
Q 38.328125 53.03125 45.109375 46.015625 
Q 51.90625 39.015625 51.90625 26.65625 
Q 51.90625 16.65625 48.90625 10.90625 
Q 45.90625 5.171875 40.15625 2 
Q 34.421875 -1.171875 27.640625 -1.171875 
Q 16.75 -1.171875 10.03125 5.8125 
Q 3.328125 12.796875 3.328125 25.921875 
z
M 12.359375 25.921875 
Q 12.359375 15.96875 16.703125 11.015625 
Q 21.046875 6.0625 27.640625 6.0625 
Q 34.1875 6.0625 38.53125 11.03125 
Q 42.875 16.015625 42.875 26.21875 
Q 42.875 35.84375 38.5 40.796875 
Q 34.125 45.75 27.640625 45.75 
Q 21.046875 45.75 16.703125 40.8125 
Q 12.359375 35.890625 12.359375 25.921875 
z
" id="ArialMT-111"/>
     <path d="M 16.15625 0 
L 0.296875 51.859375 
L 9.375 51.859375 
L 17.625 21.921875 
L 20.703125 10.796875 
Q 20.90625 11.625 23.390625 21.484375 
L 31.640625 51.859375 
L 40.671875 51.859375 
L 48.4375 21.78125 
L 51.03125 11.859375 
L 54 21.875 
L 62.890625 51.859375 
L 71.4375 51.859375 
L 55.21875 0 
L 46.09375 0 
L 37.84375 31.0625 
L 35.84375 39.890625 
L 25.34375 0 
z
" id="ArialMT-119"/>
     <path d="M 6.59375 0 
L 6.59375 51.859375 
L 14.5 51.859375 
L 14.5 44.484375 
Q 20.21875 53.03125 31 53.03125 
Q 35.6875 53.03125 39.625 51.34375 
Q 43.5625 49.65625 45.515625 46.921875 
Q 47.46875 44.1875 48.25 40.4375 
Q 48.734375 37.984375 48.734375 31.890625 
L 48.734375 0 
L 39.9375 0 
L 39.9375 31.546875 
Q 39.9375 36.921875 38.90625 39.578125 
Q 37.890625 42.234375 35.28125 43.8125 
Q 32.671875 45.40625 29.15625 45.40625 
Q 23.53125 45.40625 19.453125 41.84375 
Q 15.375 38.28125 15.375 28.328125 
L 15.375 0 
z
" id="ArialMT-110"/>
     <path d="M 42.09375 16.703125 
L 51.171875 15.578125 
Q 49.03125 7.625 43.21875 3.21875 
Q 37.40625 -1.171875 28.375 -1.171875 
Q 17 -1.171875 10.328125 5.828125 
Q 3.65625 12.84375 3.65625 25.484375 
Q 3.65625 38.578125 10.390625 45.796875 
Q 17.140625 53.03125 27.875 53.03125 
Q 38.28125 53.03125 44.875 45.953125 
Q 51.46875 38.875 51.46875 26.03125 
Q 51.46875 25.25 51.421875 23.6875 
L 12.75 23.6875 
Q 13.234375 15.140625 17.578125 10.59375 
Q 21.921875 6.0625 28.421875 6.0625 
Q 33.25 6.0625 36.671875 8.59375 
Q 40.09375 11.140625 42.09375 16.703125 
z
M 13.234375 30.90625 
L 42.1875 30.90625 
Q 41.609375 37.453125 38.875 40.71875 
Q 34.671875 45.796875 27.984375 45.796875 
Q 21.921875 45.796875 17.796875 41.75 
Q 13.671875 37.703125 13.234375 30.90625 
z
" id="ArialMT-101"/>
     <path d="M 25.78125 7.859375 
L 27.046875 0.09375 
Q 23.34375 -0.6875 20.40625 -0.6875 
Q 15.625 -0.6875 12.984375 0.828125 
Q 10.359375 2.34375 9.28125 4.8125 
Q 8.203125 7.28125 8.203125 15.1875 
L 8.203125 45.015625 
L 1.765625 45.015625 
L 1.765625 51.859375 
L 8.203125 51.859375 
L 8.203125 64.703125 
L 16.9375 69.96875 
L 16.9375 51.859375 
L 25.78125 51.859375 
L 25.78125 45.015625 
L 16.9375 45.015625 
L 16.9375 14.703125 
Q 16.9375 10.9375 17.40625 9.859375 
Q 17.875 8.796875 18.921875 8.15625 
Q 19.96875 7.515625 21.921875 7.515625 
Q 23.390625 7.515625 25.78125 7.859375 
z
" id="ArialMT-116"/>
     <path d="M 6.5 0 
L 6.5 51.859375 
L 14.40625 51.859375 
L 14.40625 44 
Q 17.4375 49.515625 20 51.265625 
Q 22.5625 53.03125 25.640625 53.03125 
Q 30.078125 53.03125 34.671875 50.203125 
L 31.640625 42.046875 
Q 28.421875 43.953125 25.203125 43.953125 
Q 22.3125 43.953125 20.015625 42.21875 
Q 17.71875 40.484375 16.75 37.40625 
Q 15.28125 32.71875 15.28125 27.15625 
L 15.28125 0 
z
" id="ArialMT-114"/>
     <path d="M 6.640625 0 
L 6.640625 71.578125 
L 15.4375 71.578125 
L 15.4375 30.765625 
L 36.234375 51.859375 
L 47.609375 51.859375 
L 27.78125 32.625 
L 49.609375 0 
L 38.765625 0 
L 21.625 26.515625 
L 15.4375 20.5625 
L 15.4375 0 
z
" id="ArialMT-107"/>
    </defs>
    <g style="fill:#262626;" transform="translate(242.854687 41.52)scale(0.12 -0.12)">
     <use xlink:href="#ArialMT-77"/>
     <use x="83.300781" xlink:href="#ArialMT-97"/>
     <use x="138.916016" xlink:href="#ArialMT-115"/>
     <use x="188.916016" xlink:href="#ArialMT-115"/>
     <use x="238.916016" xlink:href="#ArialMT-32"/>
     <use x="266.699219" xlink:href="#ArialMT-102"/>
     <use x="294.482422" xlink:href="#ArialMT-108"/>
     <use x="316.699219" xlink:href="#ArialMT-111"/>
     <use x="372.314453" xlink:href="#ArialMT-119"/>
     <use x="444.53125" xlink:href="#ArialMT-115"/>
     <use x="494.53125" xlink:href="#ArialMT-32"/>
     <use x="522.314453" xlink:href="#ArialMT-110"/>
     <use x="577.929688" xlink:href="#ArialMT-101"/>
     <use x="633.544922" xlink:href="#ArialMT-116"/>
     <use x="661.328125" xlink:href="#ArialMT-119"/>
     <use x="733.544922" xlink:href="#ArialMT-111"/>
     <use x="789.160156" xlink:href="#ArialMT-114"/>
     <use x="822.460938" xlink:href="#ArialMT-107"/>
    </g>
   </g>
   <g id="legend_1">
    <g id="line2d_39">
     <path d="M 239.520312 60.177812 
L 259.520312 60.177812 
" style="fill:none;stroke:#4c72b0;stroke-linecap:round;stroke-width:1.75;"/>
    </g>
    <g id="line2d_40"/>
    <g id="text_19">
     <!-- Producer -->
     <defs>
      <path d="M 7.71875 0 
L 7.71875 71.578125 
L 34.71875 71.578125 
Q 41.84375 71.578125 45.609375 70.90625 
Q 50.875 70.015625 54.4375 67.546875 
Q 58.015625 65.09375 60.1875 60.640625 
Q 62.359375 56.203125 62.359375 50.875 
Q 62.359375 41.75 56.546875 35.421875 
Q 50.734375 29.109375 35.546875 29.109375 
L 17.1875 29.109375 
L 17.1875 0 
z
M 17.1875 37.546875 
L 35.6875 37.546875 
Q 44.875 37.546875 48.734375 40.96875 
Q 52.59375 44.390625 52.59375 50.59375 
Q 52.59375 55.078125 50.3125 58.265625 
Q 48.046875 61.46875 44.34375 62.5 
Q 41.9375 63.140625 35.5 63.140625 
L 17.1875 63.140625 
z
" id="ArialMT-80"/>
      <path d="M 40.234375 0 
L 40.234375 6.546875 
Q 35.296875 -1.171875 25.734375 -1.171875 
Q 19.53125 -1.171875 14.328125 2.25 
Q 9.125 5.671875 6.265625 11.796875 
Q 3.421875 17.921875 3.421875 25.875 
Q 3.421875 33.640625 6 39.96875 
Q 8.59375 46.296875 13.765625 49.65625 
Q 18.953125 53.03125 25.34375 53.03125 
Q 30.03125 53.03125 33.6875 51.046875 
Q 37.359375 49.078125 39.65625 45.90625 
L 39.65625 71.578125 
L 48.390625 71.578125 
L 48.390625 0 
z
M 12.453125 25.875 
Q 12.453125 15.921875 16.640625 10.984375 
Q 20.84375 6.0625 26.5625 6.0625 
Q 32.328125 6.0625 36.34375 10.765625 
Q 40.375 15.484375 40.375 25.140625 
Q 40.375 35.796875 36.265625 40.765625 
Q 32.171875 45.75 26.171875 45.75 
Q 20.3125 45.75 16.375 40.96875 
Q 12.453125 36.1875 12.453125 25.875 
z
" id="ArialMT-100"/>
      <path d="M 40.578125 0 
L 40.578125 7.625 
Q 34.515625 -1.171875 24.125 -1.171875 
Q 19.53125 -1.171875 15.546875 0.578125 
Q 11.578125 2.34375 9.640625 5 
Q 7.71875 7.671875 6.9375 11.53125 
Q 6.390625 14.109375 6.390625 19.734375 
L 6.390625 51.859375 
L 15.1875 51.859375 
L 15.1875 23.09375 
Q 15.1875 16.21875 15.71875 13.8125 
Q 16.546875 10.359375 19.234375 8.375 
Q 21.921875 6.390625 25.875 6.390625 
Q 29.828125 6.390625 33.296875 8.421875 
Q 36.765625 10.453125 38.203125 13.9375 
Q 39.65625 17.4375 39.65625 24.078125 
L 39.65625 51.859375 
L 48.4375 51.859375 
L 48.4375 0 
z
" id="ArialMT-117"/>
      <path d="M 40.4375 19 
L 49.078125 17.875 
Q 47.65625 8.9375 41.8125 3.875 
Q 35.984375 -1.171875 27.484375 -1.171875 
Q 16.84375 -1.171875 10.375 5.78125 
Q 3.90625 12.75 3.90625 25.734375 
Q 3.90625 34.125 6.6875 40.421875 
Q 9.46875 46.734375 15.15625 49.875 
Q 20.84375 53.03125 27.546875 53.03125 
Q 35.984375 53.03125 41.359375 48.75 
Q 46.734375 44.484375 48.25 36.625 
L 39.703125 35.296875 
Q 38.484375 40.53125 35.375 43.15625 
Q 32.28125 45.796875 27.875 45.796875 
Q 21.234375 45.796875 17.078125 41.03125 
Q 12.9375 36.28125 12.9375 25.984375 
Q 12.9375 15.53125 16.9375 10.796875 
Q 20.953125 6.0625 27.390625 6.0625 
Q 32.5625 6.0625 36.03125 9.234375 
Q 39.5 12.40625 40.4375 19 
z
" id="ArialMT-99"/>
     </defs>
     <g style="fill:#262626;" transform="translate(267.520312 63.677812)scale(0.1 -0.1)">
      <use xlink:href="#ArialMT-80"/>
      <use x="66.699219" xlink:href="#ArialMT-114"/>
      <use x="100" xlink:href="#ArialMT-111"/>
      <use x="155.615234" xlink:href="#ArialMT-100"/>
      <use x="211.230469" xlink:href="#ArialMT-117"/>
      <use x="266.845703" xlink:href="#ArialMT-99"/>
      <use x="316.845703" xlink:href="#ArialMT-101"/>
      <use x="372.460938" xlink:href="#ArialMT-114"/>
     </g>
    </g>
    <g id="line2d_41">
     <path d="M 239.520312 74.323125 
L 259.520312 74.323125 
" style="fill:none;stroke:#55a868;stroke-linecap:round;stroke-width:1.75;"/>
    </g>
    <g id="line2d_42"/>
    <g id="text_20">
     <!-- WaterscheiGarden -->
     <defs>
      <path d="M 20.21875 0 
L 1.21875 71.578125 
L 10.9375 71.578125 
L 21.828125 24.65625 
Q 23.578125 17.28125 24.859375 10.015625 
Q 27.59375 21.484375 28.078125 23.25 
L 41.703125 71.578125 
L 53.125 71.578125 
L 63.375 35.359375 
Q 67.234375 21.875 68.953125 10.015625 
Q 70.3125 16.796875 72.515625 25.59375 
L 83.734375 71.578125 
L 93.265625 71.578125 
L 73.640625 0 
L 64.5 0 
L 49.421875 54.546875 
Q 47.515625 61.375 47.171875 62.9375 
Q 46.046875 58.015625 45.0625 54.546875 
L 29.890625 0 
z
" id="ArialMT-87"/>
      <path d="M 6.59375 0 
L 6.59375 71.578125 
L 15.375 71.578125 
L 15.375 45.90625 
Q 21.53125 53.03125 30.90625 53.03125 
Q 36.671875 53.03125 40.921875 50.75 
Q 45.171875 48.484375 47 44.484375 
Q 48.828125 40.484375 48.828125 32.859375 
L 48.828125 0 
L 40.046875 0 
L 40.046875 32.859375 
Q 40.046875 39.453125 37.1875 42.453125 
Q 34.328125 45.453125 29.109375 45.453125 
Q 25.203125 45.453125 21.75 43.421875 
Q 18.3125 41.40625 16.84375 37.9375 
Q 15.375 34.46875 15.375 28.375 
L 15.375 0 
z
" id="ArialMT-104"/>
      <path d="M 6.640625 61.46875 
L 6.640625 71.578125 
L 15.4375 71.578125 
L 15.4375 61.46875 
z
M 6.640625 0 
L 6.640625 51.859375 
L 15.4375 51.859375 
L 15.4375 0 
z
" id="ArialMT-105"/>
      <path d="M 41.21875 28.078125 
L 41.21875 36.46875 
L 71.53125 36.53125 
L 71.53125 9.96875 
Q 64.546875 4.390625 57.125 1.578125 
Q 49.703125 -1.21875 41.890625 -1.21875 
Q 31.34375 -1.21875 22.71875 3.296875 
Q 14.109375 7.8125 9.71875 16.359375 
Q 5.328125 24.90625 5.328125 35.453125 
Q 5.328125 45.90625 9.6875 54.953125 
Q 14.0625 64.015625 22.265625 68.40625 
Q 30.46875 72.796875 41.15625 72.796875 
Q 48.921875 72.796875 55.1875 70.28125 
Q 61.46875 67.78125 65.03125 63.28125 
Q 68.609375 58.796875 70.453125 51.5625 
L 61.921875 49.21875 
Q 60.296875 54.6875 57.90625 57.8125 
Q 55.515625 60.9375 51.0625 62.8125 
Q 46.625 64.703125 41.21875 64.703125 
Q 34.71875 64.703125 29.984375 62.71875 
Q 25.25 60.75 22.34375 57.515625 
Q 19.4375 54.296875 17.828125 50.4375 
Q 15.09375 43.796875 15.09375 36.03125 
Q 15.09375 26.46875 18.390625 20.015625 
Q 21.6875 13.578125 27.984375 10.453125 
Q 34.28125 7.328125 41.359375 7.328125 
Q 47.515625 7.328125 53.375 9.6875 
Q 59.234375 12.0625 62.25 14.75 
L 62.25 28.078125 
z
" id="ArialMT-71"/>
     </defs>
     <g style="fill:#262626;" transform="translate(267.520312 77.823125)scale(0.1 -0.1)">
      <use xlink:href="#ArialMT-87"/>
      <use x="94.337891" xlink:href="#ArialMT-97"/>
      <use x="149.953125" xlink:href="#ArialMT-116"/>
      <use x="177.736328" xlink:href="#ArialMT-101"/>
      <use x="233.351562" xlink:href="#ArialMT-114"/>
      <use x="266.652344" xlink:href="#ArialMT-115"/>
      <use x="316.652344" xlink:href="#ArialMT-99"/>
      <use x="366.652344" xlink:href="#ArialMT-104"/>
      <use x="422.267578" xlink:href="#ArialMT-101"/>
      <use x="477.882812" xlink:href="#ArialMT-105"/>
      <use x="500.099609" xlink:href="#ArialMT-71"/>
      <use x="577.882812" xlink:href="#ArialMT-97"/>
      <use x="633.498047" xlink:href="#ArialMT-114"/>
      <use x="666.798828" xlink:href="#ArialMT-100"/>
      <use x="722.414062" xlink:href="#ArialMT-101"/>
      <use x="778.029297" xlink:href="#ArialMT-110"/>
     </g>
    </g>
    <g id="line2d_43">
     <path d="M 239.520312 88.468437 
L 259.520312 88.468437 
" style="fill:none;stroke:#c44e52;stroke-linecap:round;stroke-width:1.75;"/>
    </g>
    <g id="line2d_44"/>
    <g id="text_21">
     <!-- ZwartbergNEast -->
     <defs>
      <path d="M 2 0 
L 2 8.796875 
L 38.671875 54.640625 
Q 42.578125 59.515625 46.09375 63.140625 
L 6.15625 63.140625 
L 6.15625 71.578125 
L 57.421875 71.578125 
L 57.421875 63.140625 
L 17.234375 13.484375 
L 12.890625 8.453125 
L 58.59375 8.453125 
L 58.59375 0 
z
" id="ArialMT-90"/>
      <path d="M 14.703125 0 
L 6.546875 0 
L 6.546875 71.578125 
L 15.328125 71.578125 
L 15.328125 46.046875 
Q 20.90625 53.03125 29.546875 53.03125 
Q 34.328125 53.03125 38.59375 51.09375 
Q 42.875 49.171875 45.625 45.671875 
Q 48.390625 42.1875 49.953125 37.25 
Q 51.515625 32.328125 51.515625 26.703125 
Q 51.515625 13.375 44.921875 6.09375 
Q 38.328125 -1.171875 29.109375 -1.171875 
Q 19.921875 -1.171875 14.703125 6.5 
z
M 14.59375 26.3125 
Q 14.59375 17 17.140625 12.84375 
Q 21.296875 6.0625 28.375 6.0625 
Q 34.125 6.0625 38.328125 11.0625 
Q 42.53125 16.0625 42.53125 25.984375 
Q 42.53125 36.140625 38.5 40.96875 
Q 34.46875 45.796875 28.765625 45.796875 
Q 23 45.796875 18.796875 40.796875 
Q 14.59375 35.796875 14.59375 26.3125 
z
" id="ArialMT-98"/>
      <path d="M 4.984375 -4.296875 
L 13.53125 -5.5625 
Q 14.0625 -9.515625 16.5 -11.328125 
Q 19.78125 -13.765625 25.4375 -13.765625 
Q 31.546875 -13.765625 34.859375 -11.328125 
Q 38.1875 -8.890625 39.359375 -4.5 
Q 40.046875 -1.8125 39.984375 6.78125 
Q 34.234375 0 25.640625 0 
Q 14.9375 0 9.078125 7.71875 
Q 3.21875 15.4375 3.21875 26.21875 
Q 3.21875 33.640625 5.90625 39.90625 
Q 8.59375 46.1875 13.6875 49.609375 
Q 18.796875 53.03125 25.6875 53.03125 
Q 34.859375 53.03125 40.828125 45.609375 
L 40.828125 51.859375 
L 48.921875 51.859375 
L 48.921875 7.03125 
Q 48.921875 -5.078125 46.453125 -10.125 
Q 44 -15.1875 38.640625 -18.109375 
Q 33.296875 -21.046875 25.484375 -21.046875 
Q 16.21875 -21.046875 10.5 -16.875 
Q 4.78125 -12.703125 4.984375 -4.296875 
z
M 12.25 26.859375 
Q 12.25 16.65625 16.296875 11.96875 
Q 20.359375 7.28125 26.46875 7.28125 
Q 32.515625 7.28125 36.609375 11.9375 
Q 40.71875 16.609375 40.71875 26.5625 
Q 40.71875 36.078125 36.5 40.90625 
Q 32.28125 45.75 26.3125 45.75 
Q 20.453125 45.75 16.34375 40.984375 
Q 12.25 36.234375 12.25 26.859375 
z
" id="ArialMT-103"/>
      <path d="M 7.625 0 
L 7.625 71.578125 
L 17.328125 71.578125 
L 54.9375 15.375 
L 54.9375 71.578125 
L 64.015625 71.578125 
L 64.015625 0 
L 54.296875 0 
L 16.703125 56.25 
L 16.703125 0 
z
" id="ArialMT-78"/>
      <path d="M 7.90625 0 
L 7.90625 71.578125 
L 59.671875 71.578125 
L 59.671875 63.140625 
L 17.390625 63.140625 
L 17.390625 41.21875 
L 56.984375 41.21875 
L 56.984375 32.8125 
L 17.390625 32.8125 
L 17.390625 8.453125 
L 61.328125 8.453125 
L 61.328125 0 
z
" id="ArialMT-69"/>
     </defs>
     <g style="fill:#262626;" transform="translate(267.520312 91.968437)scale(0.1 -0.1)">
      <use xlink:href="#ArialMT-90"/>
      <use x="61.083984" xlink:href="#ArialMT-119"/>
      <use x="133.300781" xlink:href="#ArialMT-97"/>
      <use x="188.916016" xlink:href="#ArialMT-114"/>
      <use x="222.216797" xlink:href="#ArialMT-116"/>
      <use x="250" xlink:href="#ArialMT-98"/>
      <use x="305.615234" xlink:href="#ArialMT-101"/>
      <use x="361.230469" xlink:href="#ArialMT-114"/>
      <use x="394.53125" xlink:href="#ArialMT-103"/>
      <use x="450.146484" xlink:href="#ArialMT-78"/>
      <use x="522.363281" xlink:href="#ArialMT-69"/>
      <use x="589.0625" xlink:href="#ArialMT-97"/>
      <use x="644.677734" xlink:href="#ArialMT-115"/>
      <use x="694.677734" xlink:href="#ArialMT-116"/>
     </g>
    </g>
    <g id="line2d_45">
     <path d="M 239.520312 102.730937 
L 259.520312 102.730937 
" style="fill:none;stroke:#8172b2;stroke-linecap:round;stroke-width:1.75;"/>
    </g>
    <g id="line2d_46"/>
    <g id="text_22">
     <!-- all users -->
     <g style="fill:#262626;" transform="translate(267.520312 106.230937)scale(0.1 -0.1)">
      <use xlink:href="#ArialMT-97"/>
      <use x="55.615234" xlink:href="#ArialMT-108"/>
      <use x="77.832031" xlink:href="#ArialMT-108"/>
      <use x="100.048828" xlink:href="#ArialMT-32"/>
      <use x="127.832031" xlink:href="#ArialMT-117"/>
      <use x="183.447266" xlink:href="#ArialMT-115"/>
      <use x="233.447266" xlink:href="#ArialMT-101"/>
      <use x="289.0625" xlink:href="#ArialMT-114"/>
      <use x="322.363281" xlink:href="#ArialMT-115"/>
     </g>
    </g>
   </g>
  </g>
  <g id="text_23">
   <!-- Horizon: 48.0h, Time step: 300, Neighbourhoods: 2, case: cost -->
   <defs>
    <path d="M 8.015625 0 
L 8.015625 71.578125 
L 17.484375 71.578125 
L 17.484375 42.1875 
L 54.6875 42.1875 
L 54.6875 71.578125 
L 64.15625 71.578125 
L 64.15625 0 
L 54.6875 0 
L 54.6875 33.734375 
L 17.484375 33.734375 
L 17.484375 0 
z
" id="ArialMT-72"/>
    <path d="M 1.953125 0 
L 1.953125 7.125 
L 34.96875 45.015625 
Q 29.34375 44.734375 25.046875 44.734375 
L 3.90625 44.734375 
L 3.90625 51.859375 
L 46.296875 51.859375 
L 46.296875 46.046875 
L 18.21875 13.140625 
L 12.796875 7.125 
Q 18.703125 7.5625 23.875 7.5625 
L 47.859375 7.5625 
L 47.859375 0 
z
" id="ArialMT-122"/>
    <path d="M 9.03125 41.84375 
L 9.03125 51.859375 
L 19.046875 51.859375 
L 19.046875 41.84375 
z
M 9.03125 0 
L 9.03125 10.015625 
L 19.046875 10.015625 
L 19.046875 0 
z
" id="ArialMT-58"/>
    <path d="M 32.328125 0 
L 32.328125 17.140625 
L 1.265625 17.140625 
L 1.265625 25.203125 
L 33.9375 71.578125 
L 41.109375 71.578125 
L 41.109375 25.203125 
L 50.78125 25.203125 
L 50.78125 17.140625 
L 41.109375 17.140625 
L 41.109375 0 
z
M 32.328125 25.203125 
L 32.328125 57.46875 
L 9.90625 25.203125 
z
" id="ArialMT-52"/>
    <path d="M 9.078125 0 
L 9.078125 10.015625 
L 19.09375 10.015625 
L 19.09375 0 
z
" id="ArialMT-46"/>
    <path d="M 8.890625 0 
L 8.890625 10.015625 
L 18.890625 10.015625 
L 18.890625 0 
Q 18.890625 -5.515625 16.9375 -8.90625 
Q 14.984375 -12.3125 10.75 -14.15625 
L 8.296875 -10.40625 
Q 11.078125 -9.1875 12.390625 -6.8125 
Q 13.71875 -4.4375 13.875 0 
z
" id="ArialMT-44"/>
    <path d="M 25.921875 0 
L 25.921875 63.140625 
L 2.34375 63.140625 
L 2.34375 71.578125 
L 59.078125 71.578125 
L 59.078125 63.140625 
L 35.40625 63.140625 
L 35.40625 0 
z
" id="ArialMT-84"/>
    <path d="M 6.59375 0 
L 6.59375 51.859375 
L 14.453125 51.859375 
L 14.453125 44.578125 
Q 16.890625 48.390625 20.9375 50.703125 
Q 25 53.03125 30.171875 53.03125 
Q 35.9375 53.03125 39.625 50.640625 
Q 43.3125 48.25 44.828125 43.953125 
Q 50.984375 53.03125 60.84375 53.03125 
Q 68.5625 53.03125 72.703125 48.75 
Q 76.859375 44.484375 76.859375 35.59375 
L 76.859375 0 
L 68.109375 0 
L 68.109375 32.671875 
Q 68.109375 37.9375 67.25 40.25 
Q 66.40625 42.578125 64.15625 43.984375 
Q 61.921875 45.40625 58.890625 45.40625 
Q 53.421875 45.40625 49.796875 41.765625 
Q 46.1875 38.140625 46.1875 30.125 
L 46.1875 0 
L 37.40625 0 
L 37.40625 33.6875 
Q 37.40625 39.546875 35.25 42.46875 
Q 33.109375 45.40625 28.21875 45.40625 
Q 24.515625 45.40625 21.359375 43.453125 
Q 18.21875 41.5 16.796875 37.734375 
Q 15.375 33.984375 15.375 26.90625 
L 15.375 0 
z
" id="ArialMT-109"/>
    <path d="M 6.59375 -19.875 
L 6.59375 51.859375 
L 14.59375 51.859375 
L 14.59375 45.125 
Q 17.4375 49.078125 21 51.046875 
Q 24.5625 53.03125 29.640625 53.03125 
Q 36.28125 53.03125 41.359375 49.609375 
Q 46.4375 46.1875 49.015625 39.953125 
Q 51.609375 33.734375 51.609375 26.3125 
Q 51.609375 18.359375 48.75 11.984375 
Q 45.90625 5.609375 40.453125 2.21875 
Q 35.015625 -1.171875 29 -1.171875 
Q 24.609375 -1.171875 21.109375 0.6875 
Q 17.625 2.546875 15.375 5.375 
L 15.375 -19.875 
z
M 14.546875 25.640625 
Q 14.546875 15.625 18.59375 10.84375 
Q 22.65625 6.0625 28.421875 6.0625 
Q 34.28125 6.0625 38.453125 11.015625 
Q 42.625 15.96875 42.625 26.375 
Q 42.625 36.28125 38.546875 41.203125 
Q 34.46875 46.140625 28.8125 46.140625 
Q 23.1875 46.140625 18.859375 40.890625 
Q 14.546875 35.640625 14.546875 25.640625 
z
" id="ArialMT-112"/>
   </defs>
   <g style="fill:#262626;" transform="translate(121.589063 16.545)scale(0.12 -0.12)">
    <use xlink:href="#ArialMT-72"/>
    <use x="72.216797" xlink:href="#ArialMT-111"/>
    <use x="127.832031" xlink:href="#ArialMT-114"/>
    <use x="161.132812" xlink:href="#ArialMT-105"/>
    <use x="183.349609" xlink:href="#ArialMT-122"/>
    <use x="233.349609" xlink:href="#ArialMT-111"/>
    <use x="288.964844" xlink:href="#ArialMT-110"/>
    <use x="344.580078" xlink:href="#ArialMT-58"/>
    <use x="372.363281" xlink:href="#ArialMT-32"/>
    <use x="400.146484" xlink:href="#ArialMT-52"/>
    <use x="455.761719" xlink:href="#ArialMT-56"/>
    <use x="511.376953" xlink:href="#ArialMT-46"/>
    <use x="539.160156" xlink:href="#ArialMT-48"/>
    <use x="594.775391" xlink:href="#ArialMT-104"/>
    <use x="650.390625" xlink:href="#ArialMT-44"/>
    <use x="678.173828" xlink:href="#ArialMT-32"/>
    <use x="705.941406" xlink:href="#ArialMT-84"/>
    <use x="766.978516" xlink:href="#ArialMT-105"/>
    <use x="789.195312" xlink:href="#ArialMT-109"/>
    <use x="872.496094" xlink:href="#ArialMT-101"/>
    <use x="928.111328" xlink:href="#ArialMT-32"/>
    <use x="955.894531" xlink:href="#ArialMT-115"/>
    <use x="1005.894531" xlink:href="#ArialMT-116"/>
    <use x="1033.677734" xlink:href="#ArialMT-101"/>
    <use x="1089.292969" xlink:href="#ArialMT-112"/>
    <use x="1144.908203" xlink:href="#ArialMT-58"/>
    <use x="1172.691406" xlink:href="#ArialMT-32"/>
    <use x="1200.474609" xlink:href="#ArialMT-51"/>
    <use x="1256.089844" xlink:href="#ArialMT-48"/>
    <use x="1311.705078" xlink:href="#ArialMT-48"/>
    <use x="1367.320312" xlink:href="#ArialMT-44"/>
    <use x="1395.103516" xlink:href="#ArialMT-32"/>
    <use x="1422.886719" xlink:href="#ArialMT-78"/>
    <use x="1495.103516" xlink:href="#ArialMT-101"/>
    <use x="1550.71875" xlink:href="#ArialMT-105"/>
    <use x="1572.935547" xlink:href="#ArialMT-103"/>
    <use x="1628.550781" xlink:href="#ArialMT-104"/>
    <use x="1684.166016" xlink:href="#ArialMT-98"/>
    <use x="1739.78125" xlink:href="#ArialMT-111"/>
    <use x="1795.396484" xlink:href="#ArialMT-117"/>
    <use x="1851.011719" xlink:href="#ArialMT-114"/>
    <use x="1884.3125" xlink:href="#ArialMT-104"/>
    <use x="1939.927734" xlink:href="#ArialMT-111"/>
    <use x="1995.542969" xlink:href="#ArialMT-111"/>
    <use x="2051.158203" xlink:href="#ArialMT-100"/>
    <use x="2106.773438" xlink:href="#ArialMT-115"/>
    <use x="2156.773438" xlink:href="#ArialMT-58"/>
    <use x="2184.556641" xlink:href="#ArialMT-32"/>
    <use x="2212.339844" xlink:href="#ArialMT-50"/>
    <use x="2267.955078" xlink:href="#ArialMT-44"/>
    <use x="2295.738281" xlink:href="#ArialMT-32"/>
    <use x="2323.521484" xlink:href="#ArialMT-99"/>
    <use x="2373.521484" xlink:href="#ArialMT-97"/>
    <use x="2429.136719" xlink:href="#ArialMT-115"/>
    <use x="2479.136719" xlink:href="#ArialMT-101"/>
    <use x="2534.751953" xlink:href="#ArialMT-58"/>
    <use x="2562.535156" xlink:href="#ArialMT-32"/>
    <use x="2590.318359" xlink:href="#ArialMT-99"/>
    <use x="2640.318359" xlink:href="#ArialMT-111"/>
    <use x="2695.933594" xlink:href="#ArialMT-115"/>
    <use x="2745.933594" xlink:href="#ArialMT-116"/>
   </g>
  </g>
 </g>
 <defs>
  <clipPath id="p7e7ebce9b4">
   <rect height="304.92" width="446.4" x="72" y="47.52"/>
  </clipPath>
 </defs>
</svg>
