<?xml version="1.0" encoding="utf-8" standalone="no"?>
<!DOCTYPE svg PUBLIC "-//W3C//DTD SVG 1.1//EN"
  "http://www.w3.org/Graphics/SVG/1.1/DTD/svg11.dtd">
<!-- Created with matplotlib (https://matplotlib.org/) -->
<svg height="396pt" version="1.1" viewBox="0 0 576 396" width="576pt" xmlns="http://www.w3.org/2000/svg" xmlns:xlink="http://www.w3.org/1999/xlink">
 <defs>
  <style type="text/css">
*{stroke-linecap:butt;stroke-linejoin:round;}
  </style>
 </defs>
 <g id="figure_1">
  <g id="patch_1">
   <path d="M 0 396 
L 576 396 
L 576 0 
L 0 0 
z
" style="fill:#ffffff;"/>
  </g>
  <g id="axes_1">
   <g id="patch_2">
    <path d="M 72 352.44 
L 518.4 352.44 
L 518.4 47.52 
L 72 47.52 
z
" style="fill:#eaeaf2;"/>
   </g>
   <g id="matplotlib.axis_1">
    <g id="xtick_1">
     <g id="line2d_1">
      <path clip-path="url(#p394b02196e)" d="M 92.290909 352.44 
L 92.290909 47.52 
" style="fill:none;stroke:#ffffff;stroke-linecap:round;"/>
     </g>
     <g id="line2d_2"/>
     <g id="text_1">
      <!-- 01-01 00 -->
      <defs>
       <path d="M 4.15625 35.296875 
Q 4.15625 48 6.765625 55.734375 
Q 9.375 63.484375 14.515625 67.671875 
Q 19.671875 71.875 27.484375 71.875 
Q 33.25 71.875 37.59375 69.546875 
Q 41.9375 67.234375 44.765625 62.859375 
Q 47.609375 58.5 49.21875 52.21875 
Q 50.828125 45.953125 50.828125 35.296875 
Q 50.828125 22.703125 48.234375 14.96875 
Q 45.65625 7.234375 40.5 3 
Q 35.359375 -1.21875 27.484375 -1.21875 
Q 17.140625 -1.21875 11.234375 6.203125 
Q 4.15625 15.140625 4.15625 35.296875 
z
M 13.1875 35.296875 
Q 13.1875 17.671875 17.3125 11.828125 
Q 21.4375 6 27.484375 6 
Q 33.546875 6 37.671875 11.859375 
Q 41.796875 17.71875 41.796875 35.296875 
Q 41.796875 52.984375 37.671875 58.78125 
Q 33.546875 64.59375 27.390625 64.59375 
Q 21.34375 64.59375 17.71875 59.46875 
Q 13.1875 52.9375 13.1875 35.296875 
z
" id="ArialMT-48"/>
       <path d="M 37.25 0 
L 28.46875 0 
L 28.46875 56 
Q 25.296875 52.984375 20.140625 49.953125 
Q 14.984375 46.921875 10.890625 45.40625 
L 10.890625 53.90625 
Q 18.265625 57.375 23.78125 62.296875 
Q 29.296875 67.234375 31.59375 71.875 
L 37.25 71.875 
z
" id="ArialMT-49"/>
       <path d="M 3.171875 21.484375 
L 3.171875 30.328125 
L 30.171875 30.328125 
L 30.171875 21.484375 
z
" id="ArialMT-45"/>
       <path id="ArialMT-32"/>
      </defs>
      <g style="fill:#262626;" transform="translate(72.55419 366.597813)scale(0.1 -0.1)">
       <use xlink:href="#ArialMT-48"/>
       <use x="55.615234" xlink:href="#ArialMT-49"/>
       <use x="111.230469" xlink:href="#ArialMT-45"/>
       <use x="144.53125" xlink:href="#ArialMT-48"/>
       <use x="200.146484" xlink:href="#ArialMT-49"/>
       <use x="255.761719" xlink:href="#ArialMT-32"/>
       <use x="283.544922" xlink:href="#ArialMT-48"/>
       <use x="339.160156" xlink:href="#ArialMT-48"/>
      </g>
     </g>
    </g>
    <g id="xtick_2">
     <g id="line2d_3">
      <path clip-path="url(#p394b02196e)" d="M 143.106403 352.44 
L 143.106403 47.52 
" style="fill:none;stroke:#ffffff;stroke-linecap:round;"/>
     </g>
     <g id="line2d_4"/>
     <g id="text_2">
      <!-- 01-01 06 -->
      <defs>
       <path d="M 49.75 54.046875 
L 41.015625 53.375 
Q 39.84375 58.546875 37.703125 60.890625 
Q 34.125 64.65625 28.90625 64.65625 
Q 24.703125 64.65625 21.53125 62.3125 
Q 17.390625 59.28125 14.984375 53.46875 
Q 12.59375 47.65625 12.5 36.921875 
Q 15.671875 41.75 20.265625 44.09375 
Q 24.859375 46.4375 29.890625 46.4375 
Q 38.671875 46.4375 44.84375 39.96875 
Q 51.03125 33.5 51.03125 23.25 
Q 51.03125 16.5 48.125 10.71875 
Q 45.21875 4.9375 40.140625 1.859375 
Q 35.0625 -1.21875 28.609375 -1.21875 
Q 17.625 -1.21875 10.6875 6.859375 
Q 3.765625 14.9375 3.765625 33.5 
Q 3.765625 54.25 11.421875 63.671875 
Q 18.109375 71.875 29.4375 71.875 
Q 37.890625 71.875 43.28125 67.140625 
Q 48.6875 62.40625 49.75 54.046875 
z
M 13.875 23.1875 
Q 13.875 18.65625 15.796875 14.5 
Q 17.71875 10.359375 21.1875 8.171875 
Q 24.65625 6 28.46875 6 
Q 34.03125 6 38.03125 10.484375 
Q 42.046875 14.984375 42.046875 22.703125 
Q 42.046875 30.125 38.078125 34.390625 
Q 34.125 38.671875 28.125 38.671875 
Q 22.171875 38.671875 18.015625 34.390625 
Q 13.875 30.125 13.875 23.1875 
z
" id="ArialMT-54"/>
      </defs>
      <g style="fill:#262626;" transform="translate(123.369684 366.597813)scale(0.1 -0.1)">
       <use xlink:href="#ArialMT-48"/>
       <use x="55.615234" xlink:href="#ArialMT-49"/>
       <use x="111.230469" xlink:href="#ArialMT-45"/>
       <use x="144.53125" xlink:href="#ArialMT-48"/>
       <use x="200.146484" xlink:href="#ArialMT-49"/>
       <use x="255.761719" xlink:href="#ArialMT-32"/>
       <use x="283.544922" xlink:href="#ArialMT-48"/>
       <use x="339.160156" xlink:href="#ArialMT-54"/>
      </g>
     </g>
    </g>
    <g id="xtick_3">
     <g id="line2d_5">
      <path clip-path="url(#p394b02196e)" d="M 193.921897 352.44 
L 193.921897 47.52 
" style="fill:none;stroke:#ffffff;stroke-linecap:round;"/>
     </g>
     <g id="line2d_6"/>
     <g id="text_3">
      <!-- 01-01 12 -->
      <defs>
       <path d="M 50.34375 8.453125 
L 50.34375 0 
L 3.03125 0 
Q 2.9375 3.171875 4.046875 6.109375 
Q 5.859375 10.9375 9.828125 15.625 
Q 13.8125 20.3125 21.34375 26.46875 
Q 33.015625 36.03125 37.109375 41.625 
Q 41.21875 47.21875 41.21875 52.203125 
Q 41.21875 57.421875 37.46875 61 
Q 33.734375 64.59375 27.734375 64.59375 
Q 21.390625 64.59375 17.578125 60.78125 
Q 13.765625 56.984375 13.71875 50.25 
L 4.6875 51.171875 
Q 5.609375 61.28125 11.65625 66.578125 
Q 17.71875 71.875 27.9375 71.875 
Q 38.234375 71.875 44.234375 66.15625 
Q 50.25 60.453125 50.25 52 
Q 50.25 47.703125 48.484375 43.546875 
Q 46.734375 39.40625 42.65625 34.8125 
Q 38.578125 30.21875 29.109375 22.21875 
Q 21.1875 15.578125 18.9375 13.203125 
Q 16.703125 10.84375 15.234375 8.453125 
z
" id="ArialMT-50"/>
      </defs>
      <g style="fill:#262626;" transform="translate(174.185178 366.597813)scale(0.1 -0.1)">
       <use xlink:href="#ArialMT-48"/>
       <use x="55.615234" xlink:href="#ArialMT-49"/>
       <use x="111.230469" xlink:href="#ArialMT-45"/>
       <use x="144.53125" xlink:href="#ArialMT-48"/>
       <use x="200.146484" xlink:href="#ArialMT-49"/>
       <use x="255.761719" xlink:href="#ArialMT-32"/>
       <use x="283.544922" xlink:href="#ArialMT-49"/>
       <use x="339.160156" xlink:href="#ArialMT-50"/>
      </g>
     </g>
    </g>
    <g id="xtick_4">
     <g id="line2d_7">
      <path clip-path="url(#p394b02196e)" d="M 244.737391 352.44 
L 244.737391 47.52 
" style="fill:none;stroke:#ffffff;stroke-linecap:round;"/>
     </g>
     <g id="line2d_8"/>
     <g id="text_4">
      <!-- 01-01 18 -->
      <defs>
       <path d="M 17.671875 38.8125 
Q 12.203125 40.828125 9.5625 44.53125 
Q 6.9375 48.25 6.9375 53.421875 
Q 6.9375 61.234375 12.546875 66.546875 
Q 18.171875 71.875 27.484375 71.875 
Q 36.859375 71.875 42.578125 66.421875 
Q 48.296875 60.984375 48.296875 53.171875 
Q 48.296875 48.1875 45.671875 44.5 
Q 43.0625 40.828125 37.75 38.8125 
Q 44.34375 36.671875 47.78125 31.875 
Q 51.21875 27.09375 51.21875 20.453125 
Q 51.21875 11.28125 44.71875 5.03125 
Q 38.234375 -1.21875 27.640625 -1.21875 
Q 17.046875 -1.21875 10.546875 5.046875 
Q 4.046875 11.328125 4.046875 20.703125 
Q 4.046875 27.6875 7.59375 32.390625 
Q 11.140625 37.109375 17.671875 38.8125 
z
M 15.921875 53.71875 
Q 15.921875 48.640625 19.1875 45.40625 
Q 22.46875 42.1875 27.6875 42.1875 
Q 32.765625 42.1875 36.015625 45.375 
Q 39.265625 48.578125 39.265625 53.21875 
Q 39.265625 58.0625 35.90625 61.359375 
Q 32.5625 64.65625 27.59375 64.65625 
Q 22.5625 64.65625 19.234375 61.421875 
Q 15.921875 58.203125 15.921875 53.71875 
z
M 13.09375 20.65625 
Q 13.09375 16.890625 14.875 13.375 
Q 16.65625 9.859375 20.171875 7.921875 
Q 23.6875 6 27.734375 6 
Q 34.03125 6 38.125 10.046875 
Q 42.234375 14.109375 42.234375 20.359375 
Q 42.234375 26.703125 38.015625 30.859375 
Q 33.796875 35.015625 27.4375 35.015625 
Q 21.234375 35.015625 17.15625 30.90625 
Q 13.09375 26.8125 13.09375 20.65625 
z
" id="ArialMT-56"/>
      </defs>
      <g style="fill:#262626;" transform="translate(225.000673 366.597813)scale(0.1 -0.1)">
       <use xlink:href="#ArialMT-48"/>
       <use x="55.615234" xlink:href="#ArialMT-49"/>
       <use x="111.230469" xlink:href="#ArialMT-45"/>
       <use x="144.53125" xlink:href="#ArialMT-48"/>
       <use x="200.146484" xlink:href="#ArialMT-49"/>
       <use x="255.761719" xlink:href="#ArialMT-32"/>
       <use x="283.544922" xlink:href="#ArialMT-49"/>
       <use x="339.160156" xlink:href="#ArialMT-56"/>
      </g>
     </g>
    </g>
    <g id="xtick_5">
     <g id="line2d_9">
      <path clip-path="url(#p394b02196e)" d="M 295.552885 352.44 
L 295.552885 47.52 
" style="fill:none;stroke:#ffffff;stroke-linecap:round;"/>
     </g>
     <g id="line2d_10"/>
     <g id="text_5">
      <!-- 01-02 00 -->
      <g style="fill:#262626;" transform="translate(275.816167 366.597813)scale(0.1 -0.1)">
       <use xlink:href="#ArialMT-48"/>
       <use x="55.615234" xlink:href="#ArialMT-49"/>
       <use x="111.230469" xlink:href="#ArialMT-45"/>
       <use x="144.53125" xlink:href="#ArialMT-48"/>
       <use x="200.146484" xlink:href="#ArialMT-50"/>
       <use x="255.761719" xlink:href="#ArialMT-32"/>
       <use x="283.544922" xlink:href="#ArialMT-48"/>
       <use x="339.160156" xlink:href="#ArialMT-48"/>
      </g>
     </g>
    </g>
    <g id="xtick_6">
     <g id="line2d_11">
      <path clip-path="url(#p394b02196e)" d="M 346.368379 352.44 
L 346.368379 47.52 
" style="fill:none;stroke:#ffffff;stroke-linecap:round;"/>
     </g>
     <g id="line2d_12"/>
     <g id="text_6">
      <!-- 01-02 06 -->
      <g style="fill:#262626;" transform="translate(326.631661 366.597813)scale(0.1 -0.1)">
       <use xlink:href="#ArialMT-48"/>
       <use x="55.615234" xlink:href="#ArialMT-49"/>
       <use x="111.230469" xlink:href="#ArialMT-45"/>
       <use x="144.53125" xlink:href="#ArialMT-48"/>
       <use x="200.146484" xlink:href="#ArialMT-50"/>
       <use x="255.761719" xlink:href="#ArialMT-32"/>
       <use x="283.544922" xlink:href="#ArialMT-48"/>
       <use x="339.160156" xlink:href="#ArialMT-54"/>
      </g>
     </g>
    </g>
    <g id="xtick_7">
     <g id="line2d_13">
      <path clip-path="url(#p394b02196e)" d="M 397.183874 352.44 
L 397.183874 47.52 
" style="fill:none;stroke:#ffffff;stroke-linecap:round;"/>
     </g>
     <g id="line2d_14"/>
     <g id="text_7">
      <!-- 01-02 12 -->
      <g style="fill:#262626;" transform="translate(377.447155 366.597813)scale(0.1 -0.1)">
       <use xlink:href="#ArialMT-48"/>
       <use x="55.615234" xlink:href="#ArialMT-49"/>
       <use x="111.230469" xlink:href="#ArialMT-45"/>
       <use x="144.53125" xlink:href="#ArialMT-48"/>
       <use x="200.146484" xlink:href="#ArialMT-50"/>
       <use x="255.761719" xlink:href="#ArialMT-32"/>
       <use x="283.544922" xlink:href="#ArialMT-49"/>
       <use x="339.160156" xlink:href="#ArialMT-50"/>
      </g>
     </g>
    </g>
    <g id="xtick_8">
     <g id="line2d_15">
      <path clip-path="url(#p394b02196e)" d="M 447.999368 352.44 
L 447.999368 47.52 
" style="fill:none;stroke:#ffffff;stroke-linecap:round;"/>
     </g>
     <g id="line2d_16"/>
     <g id="text_8">
      <!-- 01-02 18 -->
      <g style="fill:#262626;" transform="translate(428.262649 366.597813)scale(0.1 -0.1)">
       <use xlink:href="#ArialMT-48"/>
       <use x="55.615234" xlink:href="#ArialMT-49"/>
       <use x="111.230469" xlink:href="#ArialMT-45"/>
       <use x="144.53125" xlink:href="#ArialMT-48"/>
       <use x="200.146484" xlink:href="#ArialMT-50"/>
       <use x="255.761719" xlink:href="#ArialMT-32"/>
       <use x="283.544922" xlink:href="#ArialMT-49"/>
       <use x="339.160156" xlink:href="#ArialMT-56"/>
      </g>
     </g>
    </g>
    <g id="xtick_9">
     <g id="line2d_17">
      <path clip-path="url(#p394b02196e)" d="M 498.814862 352.44 
L 498.814862 47.52 
" style="fill:none;stroke:#ffffff;stroke-linecap:round;"/>
     </g>
     <g id="line2d_18"/>
     <g id="text_9">
      <!-- 01-03 00 -->
      <defs>
       <path d="M 4.203125 18.890625 
L 12.984375 20.0625 
Q 14.5 12.59375 18.140625 9.296875 
Q 21.78125 6 27 6 
Q 33.203125 6 37.46875 10.296875 
Q 41.75 14.59375 41.75 20.953125 
Q 41.75 27 37.796875 30.921875 
Q 33.84375 34.859375 27.734375 34.859375 
Q 25.25 34.859375 21.53125 33.890625 
L 22.515625 41.609375 
Q 23.390625 41.5 23.921875 41.5 
Q 29.546875 41.5 34.03125 44.421875 
Q 38.53125 47.359375 38.53125 53.46875 
Q 38.53125 58.296875 35.25 61.46875 
Q 31.984375 64.65625 26.8125 64.65625 
Q 21.6875 64.65625 18.265625 61.421875 
Q 14.84375 58.203125 13.875 51.765625 
L 5.078125 53.328125 
Q 6.6875 62.15625 12.390625 67.015625 
Q 18.109375 71.875 26.609375 71.875 
Q 32.46875 71.875 37.390625 69.359375 
Q 42.328125 66.84375 44.9375 62.5 
Q 47.5625 58.15625 47.5625 53.265625 
Q 47.5625 48.640625 45.0625 44.828125 
Q 42.578125 41.015625 37.703125 38.765625 
Q 44.046875 37.3125 47.5625 32.6875 
Q 51.078125 28.078125 51.078125 21.140625 
Q 51.078125 11.765625 44.234375 5.25 
Q 37.40625 -1.265625 26.953125 -1.265625 
Q 17.53125 -1.265625 11.296875 4.34375 
Q 5.078125 9.96875 4.203125 18.890625 
z
" id="ArialMT-51"/>
      </defs>
      <g style="fill:#262626;" transform="translate(479.078143 366.597813)scale(0.1 -0.1)">
       <use xlink:href="#ArialMT-48"/>
       <use x="55.615234" xlink:href="#ArialMT-49"/>
       <use x="111.230469" xlink:href="#ArialMT-45"/>
       <use x="144.53125" xlink:href="#ArialMT-48"/>
       <use x="200.146484" xlink:href="#ArialMT-51"/>
       <use x="255.761719" xlink:href="#ArialMT-32"/>
       <use x="283.544922" xlink:href="#ArialMT-48"/>
       <use x="339.160156" xlink:href="#ArialMT-48"/>
      </g>
     </g>
    </g>
   </g>
   <g id="matplotlib.axis_2">
    <g id="ytick_1">
     <g id="line2d_19">
      <path clip-path="url(#p394b02196e)" d="M 72 346.101697 
L 518.4 346.101697 
" style="fill:none;stroke:#ffffff;stroke-linecap:round;"/>
     </g>
     <g id="line2d_20"/>
     <g id="text_10">
      <!-- 0 -->
      <g style="fill:#262626;" transform="translate(59.439062 349.680603)scale(0.1 -0.1)">
       <use xlink:href="#ArialMT-48"/>
      </g>
     </g>
    </g>
    <g id="ytick_2">
     <g id="line2d_21">
      <path clip-path="url(#p394b02196e)" d="M 72 304.655385 
L 518.4 304.655385 
" style="fill:none;stroke:#ffffff;stroke-linecap:round;"/>
     </g>
     <g id="line2d_22"/>
     <g id="text_11">
      <!-- 50 -->
      <defs>
       <path d="M 4.15625 18.75 
L 13.375 19.53125 
Q 14.40625 12.796875 18.140625 9.390625 
Q 21.875 6 27.15625 6 
Q 33.5 6 37.890625 10.78125 
Q 42.28125 15.578125 42.28125 23.484375 
Q 42.28125 31 38.0625 35.34375 
Q 33.84375 39.703125 27 39.703125 
Q 22.75 39.703125 19.328125 37.765625 
Q 15.921875 35.84375 13.96875 32.765625 
L 5.71875 33.84375 
L 12.640625 70.609375 
L 48.25 70.609375 
L 48.25 62.203125 
L 19.671875 62.203125 
L 15.828125 42.96875 
Q 22.265625 47.46875 29.34375 47.46875 
Q 38.71875 47.46875 45.15625 40.96875 
Q 51.609375 34.46875 51.609375 24.265625 
Q 51.609375 14.546875 45.953125 7.46875 
Q 39.0625 -1.21875 27.15625 -1.21875 
Q 17.390625 -1.21875 11.203125 4.25 
Q 5.03125 9.71875 4.15625 18.75 
z
" id="ArialMT-53"/>
      </defs>
      <g style="fill:#262626;" transform="translate(53.878125 308.234291)scale(0.1 -0.1)">
       <use xlink:href="#ArialMT-53"/>
       <use x="55.615234" xlink:href="#ArialMT-48"/>
      </g>
     </g>
    </g>
    <g id="ytick_3">
     <g id="line2d_23">
      <path clip-path="url(#p394b02196e)" d="M 72 263.209073 
L 518.4 263.209073 
" style="fill:none;stroke:#ffffff;stroke-linecap:round;"/>
     </g>
     <g id="line2d_24"/>
     <g id="text_12">
      <!-- 100 -->
      <g style="fill:#262626;" transform="translate(48.317188 266.787979)scale(0.1 -0.1)">
       <use xlink:href="#ArialMT-49"/>
       <use x="55.615234" xlink:href="#ArialMT-48"/>
       <use x="111.230469" xlink:href="#ArialMT-48"/>
      </g>
     </g>
    </g>
    <g id="ytick_4">
     <g id="line2d_25">
      <path clip-path="url(#p394b02196e)" d="M 72 221.762761 
L 518.4 221.762761 
" style="fill:none;stroke:#ffffff;stroke-linecap:round;"/>
     </g>
     <g id="line2d_26"/>
     <g id="text_13">
      <!-- 150 -->
      <g style="fill:#262626;" transform="translate(48.317188 225.341668)scale(0.1 -0.1)">
       <use xlink:href="#ArialMT-49"/>
       <use x="55.615234" xlink:href="#ArialMT-53"/>
       <use x="111.230469" xlink:href="#ArialMT-48"/>
      </g>
     </g>
    </g>
    <g id="ytick_5">
     <g id="line2d_27">
      <path clip-path="url(#p394b02196e)" d="M 72 180.316449 
L 518.4 180.316449 
" style="fill:none;stroke:#ffffff;stroke-linecap:round;"/>
     </g>
     <g id="line2d_28"/>
     <g id="text_14">
      <!-- 200 -->
      <g style="fill:#262626;" transform="translate(48.317188 183.895356)scale(0.1 -0.1)">
       <use xlink:href="#ArialMT-50"/>
       <use x="55.615234" xlink:href="#ArialMT-48"/>
       <use x="111.230469" xlink:href="#ArialMT-48"/>
      </g>
     </g>
    </g>
    <g id="ytick_6">
     <g id="line2d_29">
      <path clip-path="url(#p394b02196e)" d="M 72 138.870138 
L 518.4 138.870138 
" style="fill:none;stroke:#ffffff;stroke-linecap:round;"/>
     </g>
     <g id="line2d_30"/>
     <g id="text_15">
      <!-- 250 -->
      <g style="fill:#262626;" transform="translate(48.317188 142.449044)scale(0.1 -0.1)">
       <use xlink:href="#ArialMT-50"/>
       <use x="55.615234" xlink:href="#ArialMT-53"/>
       <use x="111.230469" xlink:href="#ArialMT-48"/>
      </g>
     </g>
    </g>
    <g id="ytick_7">
     <g id="line2d_31">
      <path clip-path="url(#p394b02196e)" d="M 72 97.423826 
L 518.4 97.423826 
" style="fill:none;stroke:#ffffff;stroke-linecap:round;"/>
     </g>
     <g id="line2d_32"/>
     <g id="text_16">
      <!-- 300 -->
      <g style="fill:#262626;" transform="translate(48.317188 101.002732)scale(0.1 -0.1)">
       <use xlink:href="#ArialMT-51"/>
       <use x="55.615234" xlink:href="#ArialMT-48"/>
       <use x="111.230469" xlink:href="#ArialMT-48"/>
      </g>
     </g>
    </g>
    <g id="ytick_8">
     <g id="line2d_33">
      <path clip-path="url(#p394b02196e)" d="M 72 55.977514 
L 518.4 55.977514 
" style="fill:none;stroke:#ffffff;stroke-linecap:round;"/>
     </g>
     <g id="line2d_34"/>
     <g id="text_17">
      <!-- 350 -->
      <g style="fill:#262626;" transform="translate(48.317188 59.55642)scale(0.1 -0.1)">
       <use xlink:href="#ArialMT-51"/>
       <use x="55.615234" xlink:href="#ArialMT-53"/>
       <use x="111.230469" xlink:href="#ArialMT-48"/>
      </g>
     </g>
    </g>
   </g>
   <g id="line2d_35">
    <path clip-path="url(#p394b02196e)" d="M 92.290909 170.711866 
L 93.702451 170.465806 
L 94.408221 175.87262 
L 95.819763 175.729204 
L 96.525534 179.476929 
L 97.937075 179.402327 
L 98.642846 192.110061 
L 100.054387 192.064514 
L 100.760158 195.358799 
L 102.1717 195.332367 
L 102.87747 200.319995 
L 104.289012 200.30114 
L 104.994783 205.811157 
L 106.406324 205.794901 
L 107.112095 210.451359 
L 108.523636 210.436755 
L 109.229407 211.091412 
L 110.640949 211.081907 
L 111.346719 213.734604 
L 112.758261 213.725337 
L 113.464032 220.405339 
L 114.875573 220.391746 
L 115.581344 224.475312 
L 116.992885 224.462222 
L 117.698656 224.225842 
L 119.110198 224.217704 
L 119.815968 224.6003 
L 121.22751 224.595378 
L 121.933281 222.779704 
L 123.344822 222.778892 
L 124.050593 269.378107 
L 125.462134 269.339577 
L 126.167905 262.203304 
L 127.579447 262.176905 
L 128.285217 256.584492 
L 129.696759 256.570429 
L 130.40253 251.353133 
L 131.814071 251.350747 
L 132.519842 237.899962 
L 133.931383 237.921031 
L 134.637154 234.675992 
L 136.048696 234.698075 
L 136.754466 229.912683 
L 138.166008 229.93449 
L 138.871779 226.154324 
L 140.28332 226.174434 
L 140.989091 208.785991 
L 142.400632 208.829948 
L 143.106403 191.874981 
L 144.517945 191.931759 
L 145.223715 172.53016 
L 146.635257 172.593989 
L 147.341028 151.329619 
L 148.752569 151.395081 
L 149.45834 133.438285 
L 150.869881 133.495299 
L 151.575652 115.000861 
L 152.987194 115.048682 
L 153.692964 115.538698 
L 155.104506 115.556881 
L 155.810277 98.535642 
L 157.221818 98.562061 
L 157.927589 84.888111 
L 159.33913 84.912491 
L 160.044901 61.38 
L 161.456443 61.415188 
L 162.162213 81.69366 
L 163.573755 81.68459 
L 164.279526 80.214821 
L 165.691067 80.212022 
L 166.396838 76.077553 
L 167.808379 76.08163 
L 168.51415 71.397193 
L 169.925692 71.403187 
L 170.631462 75.503994 
L 172.043004 75.501729 
L 172.748775 82.218609 
L 174.160316 82.211517 
L 174.866087 79.199421 
L 176.277628 79.199515 
L 176.983399 78.737831 
L 178.394941 78.738218 
L 179.100711 84.617506 
L 180.512253 84.612157 
L 181.218024 85.766532 
L 182.629565 85.763491 
L 183.335336 88.564272 
L 184.746877 88.561002 
L 185.452648 90.128169 
L 186.86419 90.125139 
L 187.56996 98.480454 
L 188.981502 98.470898 
L 189.687273 98.128258 
L 191.098814 98.124534 
L 191.804585 96.9804 
L 193.216126 96.98043 
L 193.921897 99.693826 
L 195.333439 99.690951 
L 196.039209 105.481829 
L 197.450751 105.47435 
L 198.156522 104.437168 
L 199.568063 104.435194 
L 200.273834 111.10519 
L 201.685375 111.097805 
L 202.391146 111.96783 
L 203.802688 111.96366 
L 204.508458 114.456838 
L 205.92 114.452902 
L 206.625771 115.575932 
L 208.037312 115.573288 
L 208.743083 119.560146 
L 210.154624 119.554668 
L 210.860395 118.830629 
L 212.271937 118.829023 
L 212.977708 120.358452 
L 214.389249 120.356493 
L 215.09502 119.756815 
L 216.506561 119.756618 
L 217.212332 116.004342 
L 218.623874 116.008946 
L 219.329644 115.653273 
L 220.741186 115.655268 
L 221.446957 118.731169 
L 222.858498 118.728455 
L 223.564269 118.129541 
L 224.97581 118.12903 
L 225.681581 116.819238 
L 227.093123 116.820592 
L 227.798893 117.303278 
L 229.210435 117.303368 
L 229.916206 118.739685 
L 231.327747 118.737752 
L 232.033518 117.197133 
L 233.445059 117.198417 
L 234.15083 117.702157 
L 235.562372 117.701928 
L 236.268142 115.824103 
L 237.679684 115.825752 
L 238.385455 117.370642 
L 239.796996 117.369821 
L 240.502767 116.386516 
L 241.914308 116.386931 
L 242.620079 117.962663 
L 244.031621 117.96102 
L 244.737391 117.627306 
L 246.148933 117.626992 
L 246.854704 116.382053 
L 248.266245 116.383467 
L 248.972016 114.000079 
L 252.50087 113.964763 
L 253.20664 113.475194 
L 254.618182 113.476243 
L 255.323953 114.927463 
L 256.735494 114.926478 
L 257.441265 114.283109 
L 258.852806 114.283311 
L 259.558577 114.169274 
L 260.970119 114.169566 
L 261.675889 115.054569 
L 263.087431 115.05378 
L 263.793202 115.689197 
L 265.204743 115.688055 
L 265.910514 116.288286 
L 267.322055 116.286992 
L 268.027826 117.123301 
L 269.439368 117.122044 
L 270.145138 116.074356 
L 271.55668 116.075081 
L 272.262451 120.470383 
L 273.673992 120.466098 
L 274.379763 121.418364 
L 275.791304 121.415381 
L 276.497075 129.906644 
L 277.908617 129.896296 
L 278.614387 132.286586 
L 280.025929 132.279147 
L 280.7317 142.313287 
L 282.143241 142.299125 
L 282.849012 146.795669 
L 284.260553 146.784017 
L 284.966324 171.668887 
L 286.377866 171.637977 
L 287.083636 181.245014 
L 288.495178 181.218979 
L 289.200949 199.1955 
L 290.61249 199.163501 
L 291.318261 204.546047 
L 292.729802 204.521864 
L 293.435573 220.301803 
L 294.847115 220.272262 
L 295.552885 222.02551 
L 296.258656 225.064319 
L 296.964427 228.99567 
L 297.670198 234.182812 
L 299.081739 241.829803 
L 299.78751 242.264862 
L 301.199051 247.814656 
L 301.904822 252.997394 
L 303.316364 256.27195 
L 304.022134 258.627768 
L 305.433676 260.630373 
L 306.139447 263.677017 
L 307.550988 264.873362 
L 308.256759 264.651767 
L 309.6683 265.422744 
L 310.374071 269.439474 
L 311.785613 269.882349 
L 312.491383 269.081227 
L 313.902925 269.37004 
L 314.608696 269.20419 
L 316.020237 269.385579 
L 316.726008 270.019656 
L 318.137549 270.128545 
L 318.84332 274.551117 
L 320.254862 274.60918 
L 320.960632 273.402574 
L 322.372174 273.441764 
L 323.077945 272.394035 
L 324.489486 272.421502 
L 325.195257 270.11433 
L 326.606798 270.135037 
L 327.312569 298.845018 
L 328.724111 298.833166 
L 329.429881 293.342691 
L 330.841423 293.335327 
L 331.547194 288.275907 
L 332.958735 288.27293 
L 333.664506 283.387456 
L 335.076047 283.389875 
L 335.781818 273.752921 
L 337.19336 273.76809 
L 337.89913 270.528567 
L 339.310672 270.54629 
L 340.016443 266.520537 
L 341.427984 266.53961 
L 342.133755 263.012995 
L 343.545296 263.032645 
L 344.251067 251.031055 
L 345.662609 251.064804 
L 346.368379 239.060892 
L 347.779921 239.103958 
L 348.485692 225.660835 
L 349.897233 225.709989 
L 350.603004 211.604902 
L 352.014545 211.65581 
L 352.720316 199.339292 
L 354.131858 199.385906 
L 354.837628 187.145718 
L 356.24917 187.185371 
L 356.954941 186.086305 
L 358.366482 186.107796 
L 359.072253 174.338903 
L 360.483794 174.361115 
L 361.189565 164.752795 
L 362.601107 164.772592 
L 363.306877 151.250849 
L 364.718419 151.273473 
L 365.42419 161.90479 
L 366.835731 161.905635 
L 367.541502 158.919551 
L 368.953043 158.921564 
L 369.658814 155.04824 
L 371.070356 155.052759 
L 371.776126 152.032577 
L 373.187668 152.037158 
L 373.893439 152.362592 
L 375.30498 152.364365 
L 376.010751 155.462205 
L 377.422292 155.460659 
L 378.128063 152.357987 
L 379.539605 152.359435 
L 380.245375 151.309393 
L 381.656917 151.311008 
L 382.362688 153.674107 
L 385.891542 153.655163 
L 386.597312 153.894834 
L 390.126166 153.869228 
L 390.831937 157.75731 
L 392.243478 157.754052 
L 392.949249 154.977722 
L 394.360791 154.978164 
L 395.066561 153.998922 
L 396.478103 154.000127 
L 397.183874 155.013425 
L 398.595415 155.013088 
L 399.301186 157.299883 
L 400.712727 157.297663 
L 401.418498 156.416627 
L 402.83004 156.416228 
L 403.53581 159.490852 
L 404.947352 159.48825 
L 405.653123 159.109448 
L 407.064664 159.108396 
L 407.770435 159.887437 
L 409.181976 159.886465 
L 409.887747 160.195077 
L 411.299289 160.194354 
L 412.005059 162.323876 
L 413.416601 162.321687 
L 414.122372 161.68462 
L 415.533913 161.684053 
L 416.239684 161.999798 
L 417.651225 161.999433 
L 418.356996 161.189515 
L 419.768538 161.190023 
L 420.474308 158.216329 
L 421.88585 158.219354 
L 422.591621 158.476631 
L 424.003162 158.477783 
L 424.708933 159.998473 
L 426.120474 159.997637 
L 426.826245 158.739432 
L 428.237787 158.740038 
L 428.943557 158.463854 
L 430.355099 158.464451 
L 431.06087 158.711194 
L 432.472411 158.711274 
L 433.178182 158.911212 
L 434.589723 158.910912 
L 435.295494 158.040988 
L 436.707036 158.041793 
L 437.412806 157.293351 
L 438.824348 157.294155 
L 439.530119 156.385998 
L 440.94166 156.387101 
L 441.647431 157.798571 
L 443.058972 157.797989 
L 443.764743 157.157989 
L 445.176285 157.158086 
L 445.882055 157.730215 
L 447.293597 157.729732 
L 447.999368 156.987812 
L 449.410909 156.988185 
L 450.11668 155.972504 
L 451.528221 155.973628 
L 452.233992 154.443536 
L 455.762846 154.453417 
L 456.468617 154.953474 
L 457.880158 154.953448 
L 458.585929 155.562262 
L 459.99747 155.561776 
L 460.703241 155.281573 
L 462.114783 155.281517 
L 462.820553 155.566426 
L 464.232095 155.566282 
L 464.937866 156.040073 
L 466.349407 156.03957 
L 467.055178 156.393835 
L 468.466719 156.393218 
L 469.17249 157.031739 
L 470.584032 157.030854 
L 471.289802 157.541494 
L 472.701344 157.54074 
L 473.407115 156.928582 
L 474.818656 156.928759 
L 475.524427 160.044268 
L 476.935968 160.0419 
L 477.641739 160.924918 
L 479.053281 160.922895 
L 479.759051 167.151863 
L 481.170593 167.145729 
L 481.876364 169.314391 
L 483.287905 169.309332 
L 483.993676 175.742515 
L 485.405217 175.734456 
L 486.110988 179.321325 
L 487.52253 179.313955 
L 488.2283 197.1431 
L 489.639842 197.125291 
L 490.345613 204.456853 
L 491.757154 204.440826 
L 492.462925 216.893054 
L 493.874466 216.874029 
L 494.580237 220.912929 
L 495.991779 220.897986 
L 496.697549 231.336463 
L 498.109091 231.319398 
L 498.109091 231.319398 
" style="fill:none;stroke:#4c72b0;stroke-linecap:round;stroke-width:1.75;"/>
   </g>
   <g id="line2d_36">
    <path clip-path="url(#p394b02196e)" d="M 92.290909 202.829003 
L 93.702451 202.64165 
L 94.408221 204.663892 
L 95.819763 204.553655 
L 96.525534 208.113206 
L 97.937075 208.057505 
L 98.642846 218.102628 
L 100.054387 218.069395 
L 100.760158 220.717457 
L 102.1717 220.698621 
L 102.87747 224.424565 
L 104.289012 224.411409 
L 104.994783 228.811947 
L 106.406324 228.800394 
L 107.112095 232.37436 
L 108.523636 232.363963 
L 109.229407 232.54269 
L 110.640949 232.536319 
L 111.346719 233.190757 
L 112.758261 233.185672 
L 113.464032 238.268423 
L 114.875573 238.25936 
L 115.581344 242.324658 
L 116.992885 242.31473 
L 117.698656 241.873609 
L 119.110198 241.867847 
L 119.815968 242.685194 
L 121.22751 242.681274 
L 121.933281 240.586959 
L 123.344822 240.587092 
L 124.050593 281.846817 
L 125.462134 281.815529 
L 126.167905 276.569801 
L 127.579447 276.547735 
L 128.285217 271.29232 
L 129.696759 271.281139 
L 130.40253 266.588489 
L 131.814071 266.58722 
L 132.519842 256.14033 
L 133.931383 256.156272 
L 134.637154 253.95964 
L 136.048696 253.975771 
L 136.754466 248.855211 
L 138.166008 248.873233 
L 138.871779 246.251146 
L 140.28332 246.266338 
L 140.989091 234.712437 
L 142.400632 234.740612 
L 143.106403 222.048364 
L 144.517945 222.086235 
L 145.223715 206.617334 
L 146.635257 206.662168 
L 147.341028 189.66731 
L 148.752569 189.714264 
L 149.45834 177.433555 
L 150.869881 177.471962 
L 151.575652 162.340962 
L 152.987194 162.375122 
L 153.692964 164.084639 
L 155.104506 164.096206 
L 155.810277 151.307726 
L 157.221818 151.325852 
L 157.927589 137.950853 
L 159.33913 137.970464 
L 160.044901 119.673325 
L 161.456443 119.69928 
L 162.162213 135.805487 
L 163.573755 135.798562 
L 164.279526 134.552024 
L 165.691067 134.549932 
L 166.396838 132.830217 
L 167.808379 132.832145 
L 168.51415 128.095857 
L 169.925692 128.100739 
L 170.631462 130.908497 
L 172.043004 130.907191 
L 172.748775 137.756031 
L 174.160316 137.749866 
L 174.866087 134.526463 
L 176.277628 134.52691 
L 176.983399 133.349867 
L 178.394941 133.350814 
L 179.100711 139.127172 
L 180.512253 139.122619 
L 181.218024 140.536098 
L 182.629565 140.533385 
L 183.335336 144.314464 
L 184.746877 144.310894 
L 185.452648 145.040889 
L 186.86419 145.038744 
L 187.56996 151.81221 
L 188.981502 151.805103 
L 189.687273 150.694027 
L 191.098814 150.691873 
L 191.804585 149.809395 
L 193.216126 149.809581 
L 193.921897 151.567741 
L 195.333439 151.565943 
L 196.039209 155.467736 
L 197.450751 155.462775 
L 198.156522 154.467043 
L 199.568063 154.46589 
L 200.273834 160.315723 
L 201.685375 160.309967 
L 202.391146 160.58021 
L 203.802688 160.57738 
L 204.508458 163.187554 
L 205.92 163.184277 
L 206.625771 164.359519 
L 208.037312 164.357275 
L 208.743083 167.135291 
L 210.154624 167.131465 
L 210.860395 166.328785 
L 212.271937 166.327854 
L 212.977708 168.05566 
L 214.389249 168.053911 
L 215.09502 167.450124 
L 216.506561 167.450002 
L 217.212332 165.423581 
L 218.623874 165.426241 
L 219.329644 164.262969 
L 220.741186 164.264908 
L 221.446957 166.509444 
L 222.858498 166.507695 
L 223.564269 166.246963 
L 224.97581 166.246495 
L 225.681581 165.326976 
L 227.093123 165.327866 
L 227.798893 165.737716 
L 229.210435 165.73773 
L 229.916206 166.043231 
L 231.327747 166.042412 
L 232.033518 165.766717 
L 233.445059 165.76711 
L 234.15083 165.539198 
L 235.562372 165.539356 
L 236.268142 163.343626 
L 237.679684 163.34548 
L 238.385455 164.906675 
L 239.796996 164.905983 
L 240.502767 163.554056 
L 241.914308 163.554777 
L 242.620079 164.527135 
L 244.031621 164.526246 
L 244.737391 164.355233 
L 246.148933 164.355026 
L 246.854704 163.632855 
L 248.266245 163.633705 
L 248.972016 161.312685 
L 252.50087 161.376775 
L 253.20664 161.047019 
L 254.618182 161.047735 
L 255.323953 162.656398 
L 256.735494 162.655295 
L 257.441265 162.076048 
L 260.970119 162.101754 
L 261.675889 162.935682 
L 263.087431 162.934969 
L 263.793202 163.226475 
L 267.322055 163.312055 
L 268.027826 164.36154 
L 269.439368 164.360416 
L 270.145138 163.703989 
L 271.55668 163.704341 
L 272.262451 167.526298 
L 273.673992 167.52283 
L 274.379763 168.218924 
L 275.791304 168.216689 
L 276.497075 174.900892 
L 277.908617 174.89329 
L 278.614387 176.318113 
L 280.025929 176.313011 
L 280.7317 183.621797 
L 282.143241 183.611942 
L 282.849012 186.705235 
L 284.260553 186.697211 
L 284.966324 205.780702 
L 286.377866 205.758398 
L 287.083636 213.924663 
L 288.495178 213.905253 
L 289.200949 226.991037 
L 290.61249 226.96807 
L 291.318261 230.95125 
L 292.729802 230.933913 
L 293.435573 243.274726 
L 294.847115 243.253171 
L 295.552885 244.932507 
L 296.258656 247.556114 
L 299.081739 261.008503 
L 299.78751 260.992923 
L 301.199051 265.61093 
L 301.904822 269.771554 
L 304.022134 273.945676 
L 305.433676 275.564987 
L 306.139447 277.833325 
L 307.550988 278.785477 
L 308.256759 278.591525 
L 309.6683 279.188975 
L 310.374071 282.243696 
L 311.785613 282.580638 
L 312.491383 281.617523 
L 313.902925 281.832506 
L 314.608696 281.010217 
L 316.020237 281.144432 
L 316.726008 280.708836 
L 318.137549 280.790116 
L 318.84332 284.786235 
L 320.254862 284.82589 
L 320.960632 283.825445 
L 322.372174 283.850197 
L 323.077945 283.295209 
L 324.489486 283.310474 
L 325.195257 281.056606 
L 326.606798 281.068242 
L 327.312569 306.366718 
L 328.724111 306.354932 
L 329.429881 302.27252 
L 330.841423 302.263531 
L 331.547194 297.720234 
L 332.958735 297.715407 
L 333.664506 293.518502 
L 335.076047 293.518424 
L 335.781818 286.046106 
L 337.19336 286.05513 
L 337.89913 283.70809 
L 339.310672 283.719272 
L 340.016443 279.666752 
L 341.427984 279.680825 
L 342.133755 277.164681 
L 343.545296 277.178604 
L 344.251067 269.111467 
L 345.662609 269.132845 
L 346.368379 260.147496 
L 347.779921 260.175556 
L 348.485692 249.484904 
L 349.897233 249.518537 
L 350.603004 238.292299 
L 352.014545 238.327978 
L 352.720316 229.80664 
L 354.131858 229.837896 
L 354.837628 219.84221 
L 358.366482 219.86586 
L 359.072253 210.692943 
L 360.483794 210.708243 
L 361.189565 201.825744 
L 362.601107 201.840822 
L 363.306877 191.455529 
L 364.718419 191.47197 
L 365.42419 199.795629 
L 366.835731 199.796145 
L 367.541502 197.412138 
L 368.953043 197.413512 
L 369.658814 195.154417 
L 371.070356 195.157148 
L 371.776126 192.155646 
L 375.30498 192.207136 
L 376.010751 195.631166 
L 377.422292 195.62947 
L 378.128063 192.442514 
L 379.539605 192.443841 
L 380.245375 191.42618 
L 381.656917 191.427575 
L 382.362688 193.667916 
L 383.774229 193.666959 
L 384.48 194.205901 
L 385.891542 194.205197 
L 386.597312 195.066261 
L 388.008854 195.065603 
L 388.714624 194.948576 
L 390.126166 194.948395 
L 390.831937 198.02158 
L 392.243478 198.019156 
L 392.949249 195.185051 
L 394.360791 195.185759 
L 395.066561 194.420956 
L 396.478103 194.421973 
L 397.183874 194.925767 
L 398.595415 194.925744 
L 399.301186 196.444723 
L 400.712727 196.443336 
L 401.418498 195.730841 
L 402.83004 195.730643 
L 403.53581 198.389641 
L 404.947352 198.387629 
L 405.653123 197.971124 
L 407.064664 197.970394 
L 407.770435 198.927755 
L 409.181976 198.926852 
L 409.887747 199.147946 
L 411.299289 199.14737 
L 412.005059 200.637411 
L 413.416601 200.635912 
L 414.122372 200.148471 
L 415.533913 200.148086 
L 416.239684 200.694497 
L 417.651225 200.69406 
L 418.356996 199.986079 
L 419.768538 199.986441 
L 420.474308 198.105537 
L 421.88585 198.107449 
L 422.591621 197.847761 
L 424.003162 197.848794 
L 424.708933 198.96916 
L 426.120474 198.968649 
L 426.826245 198.07707 
L 428.237787 198.077481 
L 428.943557 197.929269 
L 430.355099 197.929652 
L 431.06087 198.129684 
L 432.472411 198.129719 
L 433.178182 197.87235 
L 436.707036 197.802502 
L 437.412806 196.499448 
L 438.824348 196.500383 
L 439.530119 195.591112 
L 440.94166 195.592157 
L 441.647431 196.926945 
L 443.058972 196.926455 
L 443.764743 196.1634 
L 445.176285 196.163608 
L 445.882055 196.422082 
L 447.293597 196.421896 
L 447.999368 195.808101 
L 449.410909 195.808451 
L 450.11668 195.137718 
L 451.528221 195.138487 
L 452.233992 193.676138 
L 455.762846 193.768519 
L 456.468617 194.226542 
L 457.880158 194.226472 
L 458.585929 194.950953 
L 459.99747 194.950423 
L 460.703241 194.636977 
L 462.114783 194.636935 
L 462.820553 195.154471 
L 464.232095 195.154184 
L 464.937866 195.44272 
L 468.466719 195.528046 
L 469.17249 195.874891 
L 470.584032 195.874381 
L 471.289802 196.558027 
L 472.701344 196.557349 
L 473.407115 196.112951 
L 474.818656 196.113018 
L 475.524427 198.907134 
L 476.935968 198.905173 
L 477.641739 199.490246 
L 479.053281 199.488756 
L 479.759051 204.331963 
L 481.170593 204.327513 
L 481.876364 205.861598 
L 483.287905 205.85802 
L 483.993676 210.092422 
L 485.405217 210.087069 
L 486.110988 212.435416 
L 487.52253 212.43052 
L 488.2283 226.269165 
L 489.639842 226.256377 
L 490.345613 232.491182 
L 491.757154 232.479275 
L 492.462925 241.345005 
L 493.874466 241.331495 
L 494.580237 244.506356 
L 495.991779 244.495627 
L 496.697549 252.805077 
L 498.109091 252.792634 
L 498.109091 252.792634 
" style="fill:none;stroke:#55a868;stroke-linecap:round;stroke-width:1.75;"/>
   </g>
   <g id="line2d_37">
    <path clip-path="url(#p394b02196e)" d="M 92.290909 313.98456 
L 93.702451 313.925853 
L 94.408221 317.310425 
L 95.819763 317.277245 
L 96.525534 317.46542 
L 97.937075 317.44652 
L 98.642846 320.109129 
L 100.054387 320.096816 
L 100.760158 320.743039 
L 102.1717 320.735443 
L 102.87747 321.997127 
L 104.289012 321.991428 
L 104.994783 323.100907 
L 106.406324 323.096204 
L 107.112095 324.178697 
L 108.523636 324.174489 
L 109.229407 324.650419 
L 110.640949 324.647285 
L 111.346719 326.645545 
L 112.758261 326.641362 
L 113.464032 328.238613 
L 116.992885 328.249189 
L 117.698656 328.45393 
L 119.110198 328.451554 
L 119.815968 328.016803 
L 121.22751 328.015801 
L 121.933281 328.294442 
L 123.344822 328.293497 
L 124.050593 333.632986 
L 125.462134 333.625744 
L 126.167905 331.7352 
L 127.579447 331.730868 
L 128.285217 331.393868 
L 129.696759 331.390986 
L 130.40253 330.866342 
L 131.814071 330.865224 
L 132.519842 327.861329 
L 133.931383 327.866455 
L 134.637154 326.818049 
L 136.048696 326.824001 
L 136.754466 327.159168 
L 138.166008 327.162954 
L 138.871779 326.004875 
L 140.28332 326.009793 
L 140.989091 320.175251 
L 142.400632 320.191033 
L 143.106403 315.928314 
L 144.517945 315.947221 
L 145.223715 312.014523 
L 146.635257 312.033518 
L 147.341028 307.764005 
L 148.752569 307.782514 
L 149.45834 302.106428 
L 150.869881 302.125034 
L 151.575652 298.761596 
L 152.987194 298.775257 
L 153.692964 297.555755 
L 155.104506 297.562372 
L 155.810277 293.329613 
L 157.221818 293.337906 
L 157.927589 293.038955 
L 159.33913 293.043724 
L 160.044901 287.808372 
L 161.456443 287.817605 
L 162.162213 291.98987 
L 163.573755 291.987724 
L 164.279526 291.764494 
L 165.691067 291.763787 
L 166.396838 289.349033 
L 169.925692 289.404145 
L 170.631462 290.697193 
L 172.043004 290.696235 
L 172.748775 290.564276 
L 174.160316 290.563347 
L 174.866087 290.774655 
L 176.277628 290.774302 
L 176.983399 291.48966 
L 180.512253 291.591234 
L 181.218024 291.332131 
L 182.629565 291.331803 
L 183.335336 290.351505 
L 184.746877 290.351806 
L 185.452648 291.188977 
L 186.86419 291.188091 
L 187.56996 292.769941 
L 188.981502 292.767492 
L 189.687273 293.535927 
L 191.098814 293.534357 
L 191.804585 293.272701 
L 193.216126 293.272545 
L 193.921897 294.227782 
L 195.333439 294.226704 
L 196.039209 296.11579 
L 199.568063 296.071 
L 200.273834 296.891165 
L 201.685375 296.889534 
L 202.391146 297.489317 
L 203.802688 297.487977 
L 204.508458 297.370981 
L 208.037312 297.31771 
L 208.743083 298.526551 
L 212.271937 298.602866 
L 212.977708 298.404488 
L 216.506561 298.408313 
L 217.212332 296.682458 
L 218.623874 296.684402 
L 219.329644 297.492001 
L 220.741186 297.492057 
L 221.446957 298.323423 
L 222.858498 298.322457 
L 223.564269 297.984275 
L 224.97581 297.984232 
L 225.681581 297.593958 
L 229.210435 297.667335 
L 229.916206 298.798151 
L 231.327747 298.797037 
L 232.033518 297.532113 
L 233.445059 297.533005 
L 234.15083 298.264656 
L 235.562372 298.264269 
L 236.268142 298.582174 
L 239.796996 298.565536 
L 240.502767 298.934156 
L 241.914308 298.93385 
L 242.620079 299.537225 
L 244.031621 299.536471 
L 244.737391 299.37377 
L 246.148933 299.373663 
L 246.854704 298.850896 
L 250.383557 298.789611 
L 251.795099 298.68953 
L 252.50087 298.689685 
L 253.20664 298.529872 
L 254.618182 298.530204 
L 255.323953 298.372762 
L 258.852806 298.308862 
L 259.558577 298.169331 
L 263.087431 298.220508 
L 263.793202 298.564419 
L 265.204743 298.563994 
L 265.910514 299.077307 
L 267.322055 299.076634 
L 268.027826 298.863458 
L 269.439368 298.863325 
L 270.145138 298.472064 
L 271.55668 298.472437 
L 272.262451 299.045782 
L 273.673992 299.044965 
L 274.379763 299.301137 
L 275.791304 299.300389 
L 276.497075 301.107449 
L 277.908617 301.104703 
L 278.614387 302.07017 
L 280.025929 302.067832 
L 280.7317 304.793187 
L 282.143241 304.78888 
L 282.849012 306.192132 
L 284.260553 306.188503 
L 284.966324 311.989882 
L 286.377866 311.981276 
L 287.083636 313.422048 
L 288.495178 313.415423 
L 289.200949 318.30616 
L 290.61249 318.297128 
L 291.318261 319.696494 
L 292.729802 319.689648 
L 293.435573 323.128774 
L 295.552885 323.1947 
L 296.258656 323.609901 
L 296.964427 324.178503 
L 297.670198 325.745034 
L 299.081739 326.922997 
L 301.199051 328.305423 
L 301.904822 329.327537 
L 303.316364 329.929157 
L 304.022134 330.783789 
L 305.433676 331.167083 
L 306.139447 331.945389 
L 307.550988 332.189582 
L 308.256759 332.161939 
L 309.6683 332.335467 
L 310.374071 333.297475 
L 313.902925 333.639231 
L 314.608696 334.295669 
L 316.020237 334.342844 
L 316.726008 335.412517 
L 318.137549 335.440125 
L 318.84332 335.866579 
L 320.254862 335.884987 
L 320.960632 335.678826 
L 322.372174 335.693265 
L 323.077945 335.200522 
L 326.606798 335.168492 
L 327.312569 338.579996 
L 328.724111 338.579931 
L 329.429881 337.171868 
L 330.841423 337.173492 
L 331.547194 336.65737 
L 332.958735 336.659219 
L 333.664506 335.970651 
L 335.076047 335.973148 
L 335.781818 333.808512 
L 337.19336 333.814657 
L 337.89913 332.922174 
L 341.427984 332.960482 
L 342.133755 331.950011 
L 343.545296 331.955738 
L 344.251067 328.021285 
L 345.662609 328.033656 
L 346.368379 325.015093 
L 347.779921 325.030099 
L 348.485692 322.277628 
L 349.897233 322.293149 
L 350.603004 319.4143 
L 352.014545 319.429528 
L 352.720316 315.634349 
L 354.131858 315.649706 
L 354.837628 313.405205 
L 356.24917 313.417083 
L 356.954941 312.336314 
L 358.366482 312.343634 
L 359.072253 309.747657 
L 360.483794 309.754569 
L 361.189565 309.028748 
L 362.601107 309.033466 
L 363.306877 305.897017 
L 364.718419 305.903199 
L 365.42419 308.210858 
L 366.835731 308.211187 
L 367.541502 307.609109 
L 368.953043 307.609749 
L 369.658814 305.99552 
L 373.187668 305.979654 
L 373.893439 306.25863 
L 375.30498 306.258926 
L 376.010751 305.932736 
L 381.656917 305.98513 
L 382.362688 306.107888 
L 383.774229 306.10777 
L 384.48 305.551371 
L 385.891542 305.551663 
L 386.597312 304.93027 
L 390.126166 305.02253 
L 390.831937 305.837426 
L 394.360791 305.894102 
L 395.066561 305.679663 
L 396.478103 305.679851 
L 397.183874 306.189355 
L 398.595415 306.189041 
L 399.301186 306.956857 
L 400.712727 306.956023 
L 401.418498 306.787483 
L 402.83004 306.787281 
L 403.53581 307.202908 
L 407.064664 307.239699 
L 407.770435 307.061379 
L 411.299289 307.148681 
L 412.005059 307.788162 
L 413.416601 307.787472 
L 414.122372 307.637846 
L 415.533913 307.637664 
L 416.239684 307.406998 
L 419.768538 307.305279 
L 420.474308 306.212489 
L 421.88585 306.213602 
L 422.591621 306.730567 
L 424.003162 306.730686 
L 424.708933 307.13101 
L 426.120474 307.130685 
L 426.826245 306.764058 
L 428.237787 306.764254 
L 428.943557 306.636282 
L 432.472411 306.683251 
L 433.178182 307.140559 
L 434.589723 307.14023 
L 435.295494 306.340467 
L 436.707036 306.340988 
L 437.412806 306.8956 
L 443.058972 306.973231 
L 443.764743 307.096286 
L 445.176285 307.096175 
L 445.882055 307.409829 
L 447.293597 307.409533 
L 447.999368 307.281408 
L 449.410909 307.281431 
L 450.11668 306.936483 
L 453.645534 306.869426 
L 455.057075 306.786487 
L 462.114783 306.746279 
L 462.820553 306.513652 
L 464.232095 306.513795 
L 464.937866 306.69905 
L 466.349407 306.698923 
L 467.055178 306.967152 
L 468.466719 306.966869 
L 469.17249 307.258545 
L 470.584032 307.25817 
L 471.289802 307.085164 
L 472.701344 307.085088 
L 473.407115 306.917328 
L 474.818656 306.917438 
L 475.524427 307.23883 
L 476.935968 307.238424 
L 477.641739 307.536369 
L 479.053281 307.535836 
L 479.759051 308.921596 
L 481.170593 308.919913 
L 481.876364 309.55449 
L 483.287905 309.553009 
L 483.993676 311.751789 
L 485.405217 311.749084 
L 486.110988 312.987606 
L 487.52253 312.985132 
L 488.2283 316.975632 
L 489.639842 316.970611 
L 490.345613 318.067368 
L 491.757154 318.063248 
L 492.462925 321.649745 
L 493.874466 321.64423 
L 494.580237 322.508269 
L 495.991779 322.504055 
L 496.697549 324.633083 
L 498.109091 324.628461 
L 498.109091 324.628461 
" style="fill:none;stroke:#c44e52;stroke-linecap:round;stroke-width:1.75;"/>
   </g>
   <g id="line2d_38">
    <path clip-path="url(#p394b02196e)" d="M 92.290909 170.711866 
L 93.702451 170.465806 
L 94.408221 175.87262 
L 95.819763 175.729204 
L 96.525534 179.476929 
L 97.937075 179.402327 
L 98.642846 192.110061 
L 100.054387 192.064514 
L 100.760158 195.358799 
L 102.1717 195.332367 
L 102.87747 200.319995 
L 104.289012 200.30114 
L 104.994783 205.811157 
L 106.406324 205.794901 
L 107.112095 210.451359 
L 108.523636 210.436755 
L 109.229407 211.091412 
L 110.640949 211.081907 
L 111.346719 213.734604 
L 112.758261 213.725337 
L 113.464032 220.405339 
L 114.875573 220.391746 
L 115.581344 224.475312 
L 116.992885 224.462222 
L 117.698656 224.225842 
L 119.110198 224.217704 
L 119.815968 224.6003 
L 121.22751 224.595378 
L 121.933281 222.779704 
L 123.344822 222.778892 
L 124.050593 269.378107 
L 125.462134 269.339577 
L 126.167905 262.203304 
L 127.579447 262.176905 
L 128.285217 256.584492 
L 129.696759 256.570429 
L 130.40253 251.353133 
L 131.814071 251.350747 
L 132.519842 237.899962 
L 133.931383 237.921031 
L 134.637154 234.675992 
L 136.048696 234.698075 
L 136.754466 229.912683 
L 138.166008 229.93449 
L 138.871779 226.154324 
L 140.28332 226.174434 
L 140.989091 208.785991 
L 142.400632 208.829948 
L 143.106403 191.874981 
L 144.517945 191.931759 
L 145.223715 172.53016 
L 146.635257 172.593989 
L 147.341028 151.329619 
L 148.752569 151.395081 
L 149.45834 133.438285 
L 150.869881 133.495299 
L 151.575652 115.000861 
L 152.987194 115.048682 
L 153.692964 115.538698 
L 155.104506 115.556881 
L 155.810277 98.535642 
L 157.221818 98.562061 
L 157.927589 84.888111 
L 159.33913 84.912491 
L 160.044901 61.38 
L 161.456443 61.415188 
L 162.162213 81.69366 
L 163.573755 81.68459 
L 164.279526 80.214821 
L 165.691067 80.212022 
L 166.396838 76.077553 
L 167.808379 76.08163 
L 168.51415 71.397193 
L 169.925692 71.403187 
L 170.631462 75.503994 
L 172.043004 75.501729 
L 172.748775 82.218609 
L 174.160316 82.211517 
L 174.866087 79.199421 
L 176.277628 79.199515 
L 176.983399 78.737831 
L 178.394941 78.738218 
L 179.100711 84.617506 
L 180.512253 84.612157 
L 181.218024 85.766532 
L 182.629565 85.763491 
L 183.335336 88.564272 
L 184.746877 88.561002 
L 185.452648 90.128169 
L 186.86419 90.125139 
L 187.56996 98.480454 
L 188.981502 98.470898 
L 189.687273 98.128258 
L 191.098814 98.124534 
L 191.804585 96.9804 
L 193.216126 96.98043 
L 193.921897 99.693826 
L 195.333439 99.690951 
L 196.039209 105.481829 
L 197.450751 105.47435 
L 198.156522 104.437168 
L 199.568063 104.435194 
L 200.273834 111.10519 
L 201.685375 111.097805 
L 202.391146 111.96783 
L 203.802688 111.96366 
L 204.508458 114.456838 
L 205.92 114.452902 
L 206.625771 115.575932 
L 208.037312 115.573288 
L 208.743083 119.560146 
L 210.154624 119.554668 
L 210.860395 118.830629 
L 212.271937 118.829023 
L 212.977708 120.358452 
L 214.389249 120.356493 
L 215.09502 119.756815 
L 216.506561 119.756618 
L 217.212332 116.004342 
L 218.623874 116.008946 
L 219.329644 115.653273 
L 220.741186 115.655268 
L 221.446957 118.731169 
L 222.858498 118.728455 
L 223.564269 118.129541 
L 224.97581 118.12903 
L 225.681581 116.819238 
L 227.093123 116.820592 
L 227.798893 117.303278 
L 229.210435 117.303368 
L 229.916206 118.739685 
L 231.327747 118.737752 
L 232.033518 117.197133 
L 233.445059 117.198417 
L 234.15083 117.702157 
L 235.562372 117.701928 
L 236.268142 115.824103 
L 237.679684 115.825752 
L 238.385455 117.370642 
L 239.796996 117.369821 
L 240.502767 116.386516 
L 241.914308 116.386931 
L 242.620079 117.962663 
L 244.031621 117.96102 
L 244.737391 117.627306 
L 246.148933 117.626992 
L 246.854704 116.382053 
L 248.266245 116.383467 
L 248.972016 114.000079 
L 252.50087 113.964763 
L 253.20664 113.475194 
L 254.618182 113.476243 
L 255.323953 114.927463 
L 256.735494 114.926478 
L 257.441265 114.283109 
L 258.852806 114.283311 
L 259.558577 114.169274 
L 260.970119 114.169566 
L 261.675889 115.054569 
L 263.087431 115.05378 
L 263.793202 115.689197 
L 265.204743 115.688055 
L 265.910514 116.288286 
L 267.322055 116.286992 
L 268.027826 117.123301 
L 269.439368 117.122044 
L 270.145138 116.074356 
L 271.55668 116.075081 
L 272.262451 120.470383 
L 273.673992 120.466098 
L 274.379763 121.418364 
L 275.791304 121.415381 
L 276.497075 129.906644 
L 277.908617 129.896296 
L 278.614387 132.286586 
L 280.025929 132.279147 
L 280.7317 142.313287 
L 282.143241 142.299125 
L 282.849012 146.795669 
L 284.260553 146.784017 
L 284.966324 171.668887 
L 286.377866 171.637977 
L 287.083636 181.245014 
L 288.495178 181.218979 
L 289.200949 199.1955 
L 290.61249 199.163501 
L 291.318261 204.546047 
L 292.729802 204.521864 
L 293.435573 220.301803 
L 294.847115 220.272262 
L 295.552885 222.02551 
L 296.258656 225.064319 
L 296.964427 228.99567 
L 297.670198 234.182812 
L 299.081739 241.829803 
L 299.78751 242.264862 
L 301.199051 247.814656 
L 301.904822 252.997394 
L 303.316364 256.27195 
L 304.022134 258.627768 
L 305.433676 260.630373 
L 306.139447 263.677017 
L 307.550988 264.873362 
L 308.256759 264.651767 
L 309.6683 265.422744 
L 310.374071 269.439474 
L 311.785613 269.882349 
L 312.491383 269.081227 
L 313.902925 269.37004 
L 314.608696 269.20419 
L 316.020237 269.385579 
L 316.726008 270.019656 
L 318.137549 270.128545 
L 318.84332 274.551117 
L 320.254862 274.60918 
L 320.960632 273.402574 
L 322.372174 273.441764 
L 323.077945 272.394035 
L 324.489486 272.421502 
L 325.195257 270.11433 
L 326.606798 270.135037 
L 327.312569 298.845018 
L 328.724111 298.833166 
L 329.429881 293.342691 
L 330.841423 293.335327 
L 331.547194 288.275907 
L 332.958735 288.27293 
L 333.664506 283.387456 
L 335.076047 283.389875 
L 335.781818 273.752921 
L 337.19336 273.76809 
L 337.89913 270.528567 
L 339.310672 270.54629 
L 340.016443 266.520537 
L 341.427984 266.53961 
L 342.133755 263.012995 
L 343.545296 263.032645 
L 344.251067 251.031055 
L 345.662609 251.064804 
L 346.368379 239.060892 
L 347.779921 239.103958 
L 348.485692 225.660835 
L 349.897233 225.709989 
L 350.603004 211.604902 
L 352.014545 211.65581 
L 352.720316 199.339292 
L 354.131858 199.385906 
L 354.837628 187.145718 
L 356.24917 187.185371 
L 356.954941 186.086305 
L 358.366482 186.107796 
L 359.072253 174.338903 
L 360.483794 174.361115 
L 361.189565 164.752795 
L 362.601107 164.772592 
L 363.306877 151.250849 
L 364.718419 151.273473 
L 365.42419 161.90479 
L 366.835731 161.905635 
L 367.541502 158.919551 
L 368.953043 158.921564 
L 369.658814 155.04824 
L 371.070356 155.052759 
L 371.776126 152.032577 
L 373.187668 152.037158 
L 373.893439 152.362592 
L 375.30498 152.364365 
L 376.010751 155.462205 
L 377.422292 155.460659 
L 378.128063 152.357987 
L 379.539605 152.359435 
L 380.245375 151.309393 
L 381.656917 151.311008 
L 382.362688 153.674107 
L 385.891542 153.655163 
L 386.597312 153.894834 
L 390.126166 153.869228 
L 390.831937 157.75731 
L 392.243478 157.754052 
L 392.949249 154.977722 
L 394.360791 154.978164 
L 395.066561 153.998922 
L 396.478103 154.000127 
L 397.183874 155.013425 
L 398.595415 155.013088 
L 399.301186 157.299883 
L 400.712727 157.297663 
L 401.418498 156.416627 
L 402.83004 156.416228 
L 403.53581 159.490852 
L 404.947352 159.48825 
L 405.653123 159.109448 
L 407.064664 159.108396 
L 407.770435 159.887437 
L 409.181976 159.886465 
L 409.887747 160.195077 
L 411.299289 160.194354 
L 412.005059 162.323876 
L 413.416601 162.321687 
L 414.122372 161.68462 
L 415.533913 161.684053 
L 416.239684 161.999798 
L 417.651225 161.999433 
L 418.356996 161.189515 
L 419.768538 161.190023 
L 420.474308 158.216329 
L 421.88585 158.219354 
L 422.591621 158.476631 
L 424.003162 158.477783 
L 424.708933 159.998473 
L 426.120474 159.997637 
L 426.826245 158.739432 
L 428.237787 158.740038 
L 428.943557 158.463854 
L 430.355099 158.464451 
L 431.06087 158.711194 
L 432.472411 158.711274 
L 433.178182 158.911212 
L 434.589723 158.910912 
L 435.295494 158.040988 
L 436.707036 158.041793 
L 437.412806 157.293351 
L 438.824348 157.294155 
L 439.530119 156.385998 
L 440.94166 156.387101 
L 441.647431 157.798571 
L 443.058972 157.797989 
L 443.764743 157.157989 
L 445.176285 157.158086 
L 445.882055 157.730215 
L 447.293597 157.729732 
L 447.999368 156.987812 
L 449.410909 156.988185 
L 450.11668 155.972504 
L 451.528221 155.973628 
L 452.233992 154.443536 
L 455.762846 154.453417 
L 456.468617 154.953474 
L 457.880158 154.953448 
L 458.585929 155.562262 
L 459.99747 155.561776 
L 460.703241 155.281573 
L 462.114783 155.281517 
L 462.820553 155.566426 
L 464.232095 155.566282 
L 464.937866 156.040073 
L 466.349407 156.03957 
L 467.055178 156.393835 
L 468.466719 156.393218 
L 469.17249 157.031739 
L 470.584032 157.030854 
L 471.289802 157.541494 
L 472.701344 157.54074 
L 473.407115 156.928582 
L 474.818656 156.928759 
L 475.524427 160.044268 
L 476.935968 160.0419 
L 477.641739 160.924918 
L 479.053281 160.922895 
L 479.759051 167.151863 
L 481.170593 167.145729 
L 481.876364 169.314391 
L 483.287905 169.309332 
L 483.993676 175.742515 
L 485.405217 175.734456 
L 486.110988 179.321325 
L 487.52253 179.313955 
L 488.2283 197.1431 
L 489.639842 197.125291 
L 490.345613 204.456853 
L 491.757154 204.440826 
L 492.462925 216.893054 
L 493.874466 216.874029 
L 494.580237 220.912929 
L 495.991779 220.897986 
L 496.697549 231.336463 
L 498.109091 231.319398 
L 498.109091 231.319398 
" style="fill:none;stroke:#8172b2;stroke-linecap:round;stroke-width:1.75;"/>
   </g>
   <g id="patch_3">
    <path d="M 72 352.44 
L 72 47.52 
" style="fill:none;"/>
   </g>
   <g id="patch_4">
    <path d="M 518.4 352.44 
L 518.4 47.52 
" style="fill:none;"/>
   </g>
   <g id="patch_5">
    <path d="M 72 352.44 
L 518.4 352.44 
" style="fill:none;"/>
   </g>
   <g id="patch_6">
    <path d="M 72 47.52 
L 518.4 47.52 
" style="fill:none;"/>
   </g>
   <g id="text_18">
    <!-- Mass flows network -->
    <defs>
     <path d="M 7.421875 0 
L 7.421875 71.578125 
L 21.6875 71.578125 
L 38.625 20.90625 
Q 40.96875 13.8125 42.046875 10.296875 
Q 43.265625 14.203125 45.84375 21.78125 
L 62.984375 71.578125 
L 75.734375 71.578125 
L 75.734375 0 
L 66.609375 0 
L 66.609375 59.90625 
L 45.796875 0 
L 37.25 0 
L 16.546875 60.9375 
L 16.546875 0 
z
" id="ArialMT-77"/>
     <path d="M 40.4375 6.390625 
Q 35.546875 2.25 31.03125 0.53125 
Q 26.515625 -1.171875 21.34375 -1.171875 
Q 12.796875 -1.171875 8.203125 3 
Q 3.609375 7.171875 3.609375 13.671875 
Q 3.609375 17.484375 5.34375 20.625 
Q 7.078125 23.78125 9.890625 25.6875 
Q 12.703125 27.59375 16.21875 28.5625 
Q 18.796875 29.25 24.03125 29.890625 
Q 34.671875 31.15625 39.703125 32.90625 
Q 39.75 34.71875 39.75 35.203125 
Q 39.75 40.578125 37.25 42.78125 
Q 33.890625 45.75 27.25 45.75 
Q 21.046875 45.75 18.09375 43.578125 
Q 15.140625 41.40625 13.71875 35.890625 
L 5.125 37.0625 
Q 6.296875 42.578125 8.984375 45.96875 
Q 11.671875 49.359375 16.75 51.1875 
Q 21.828125 53.03125 28.515625 53.03125 
Q 35.15625 53.03125 39.296875 51.46875 
Q 43.453125 49.90625 45.40625 47.53125 
Q 47.359375 45.171875 48.140625 41.546875 
Q 48.578125 39.3125 48.578125 33.453125 
L 48.578125 21.734375 
Q 48.578125 9.46875 49.140625 6.21875 
Q 49.703125 2.984375 51.375 0 
L 42.1875 0 
Q 40.828125 2.734375 40.4375 6.390625 
z
M 39.703125 26.03125 
Q 34.90625 24.078125 25.34375 22.703125 
Q 19.921875 21.921875 17.671875 20.9375 
Q 15.4375 19.96875 14.203125 18.09375 
Q 12.984375 16.21875 12.984375 13.921875 
Q 12.984375 10.40625 15.640625 8.0625 
Q 18.3125 5.71875 23.4375 5.71875 
Q 28.515625 5.71875 32.46875 7.9375 
Q 36.421875 10.15625 38.28125 14.015625 
Q 39.703125 17 39.703125 22.796875 
z
" id="ArialMT-97"/>
     <path d="M 3.078125 15.484375 
L 11.765625 16.84375 
Q 12.5 11.625 15.84375 8.84375 
Q 19.1875 6.0625 25.203125 6.0625 
Q 31.25 6.0625 34.171875 8.515625 
Q 37.109375 10.984375 37.109375 14.3125 
Q 37.109375 17.28125 34.515625 19 
Q 32.71875 20.171875 25.53125 21.96875 
Q 15.875 24.421875 12.140625 26.203125 
Q 8.40625 27.984375 6.46875 31.125 
Q 4.546875 34.28125 4.546875 38.09375 
Q 4.546875 41.546875 6.125 44.5 
Q 7.71875 47.46875 10.453125 49.421875 
Q 12.5 50.921875 16.03125 51.96875 
Q 19.578125 53.03125 23.640625 53.03125 
Q 29.734375 53.03125 34.34375 51.265625 
Q 38.96875 49.515625 41.15625 46.5 
Q 43.359375 43.5 44.1875 38.484375 
L 35.59375 37.3125 
Q 35.015625 41.3125 32.203125 43.546875 
Q 29.390625 45.796875 24.265625 45.796875 
Q 18.21875 45.796875 15.625 43.796875 
Q 13.03125 41.796875 13.03125 39.109375 
Q 13.03125 37.40625 14.109375 36.03125 
Q 15.1875 34.625 17.484375 33.6875 
Q 18.796875 33.203125 25.25 31.453125 
Q 34.578125 28.953125 38.25 27.359375 
Q 41.9375 25.78125 44.03125 22.75 
Q 46.140625 19.734375 46.140625 15.234375 
Q 46.140625 10.84375 43.578125 6.953125 
Q 41.015625 3.078125 36.171875 0.953125 
Q 31.34375 -1.171875 25.25 -1.171875 
Q 15.140625 -1.171875 9.84375 3.03125 
Q 4.546875 7.234375 3.078125 15.484375 
z
" id="ArialMT-115"/>
     <path d="M 8.6875 0 
L 8.6875 45.015625 
L 0.921875 45.015625 
L 0.921875 51.859375 
L 8.6875 51.859375 
L 8.6875 57.375 
Q 8.6875 62.59375 9.625 65.140625 
Q 10.890625 68.5625 14.078125 70.671875 
Q 17.28125 72.796875 23.046875 72.796875 
Q 26.765625 72.796875 31.25 71.921875 
L 29.9375 64.265625 
Q 27.203125 64.75 24.75 64.75 
Q 20.75 64.75 19.09375 63.03125 
Q 17.4375 61.328125 17.4375 56.640625 
L 17.4375 51.859375 
L 27.546875 51.859375 
L 27.546875 45.015625 
L 17.4375 45.015625 
L 17.4375 0 
z
" id="ArialMT-102"/>
     <path d="M 6.390625 0 
L 6.390625 71.578125 
L 15.1875 71.578125 
L 15.1875 0 
z
" id="ArialMT-108"/>
     <path d="M 3.328125 25.921875 
Q 3.328125 40.328125 11.328125 47.265625 
Q 18.015625 53.03125 27.640625 53.03125 
Q 38.328125 53.03125 45.109375 46.015625 
Q 51.90625 39.015625 51.90625 26.65625 
Q 51.90625 16.65625 48.90625 10.90625 
Q 45.90625 5.171875 40.15625 2 
Q 34.421875 -1.171875 27.640625 -1.171875 
Q 16.75 -1.171875 10.03125 5.8125 
Q 3.328125 12.796875 3.328125 25.921875 
z
M 12.359375 25.921875 
Q 12.359375 15.96875 16.703125 11.015625 
Q 21.046875 6.0625 27.640625 6.0625 
Q 34.1875 6.0625 38.53125 11.03125 
Q 42.875 16.015625 42.875 26.21875 
Q 42.875 35.84375 38.5 40.796875 
Q 34.125 45.75 27.640625 45.75 
Q 21.046875 45.75 16.703125 40.8125 
Q 12.359375 35.890625 12.359375 25.921875 
z
" id="ArialMT-111"/>
     <path d="M 16.15625 0 
L 0.296875 51.859375 
L 9.375 51.859375 
L 17.625 21.921875 
L 20.703125 10.796875 
Q 20.90625 11.625 23.390625 21.484375 
L 31.640625 51.859375 
L 40.671875 51.859375 
L 48.4375 21.78125 
L 51.03125 11.859375 
L 54 21.875 
L 62.890625 51.859375 
L 71.4375 51.859375 
L 55.21875 0 
L 46.09375 0 
L 37.84375 31.0625 
L 35.84375 39.890625 
L 25.34375 0 
z
" id="ArialMT-119"/>
     <path d="M 6.59375 0 
L 6.59375 51.859375 
L 14.5 51.859375 
L 14.5 44.484375 
Q 20.21875 53.03125 31 53.03125 
Q 35.6875 53.03125 39.625 51.34375 
Q 43.5625 49.65625 45.515625 46.921875 
Q 47.46875 44.1875 48.25 40.4375 
Q 48.734375 37.984375 48.734375 31.890625 
L 48.734375 0 
L 39.9375 0 
L 39.9375 31.546875 
Q 39.9375 36.921875 38.90625 39.578125 
Q 37.890625 42.234375 35.28125 43.8125 
Q 32.671875 45.40625 29.15625 45.40625 
Q 23.53125 45.40625 19.453125 41.84375 
Q 15.375 38.28125 15.375 28.328125 
L 15.375 0 
z
" id="ArialMT-110"/>
     <path d="M 42.09375 16.703125 
L 51.171875 15.578125 
Q 49.03125 7.625 43.21875 3.21875 
Q 37.40625 -1.171875 28.375 -1.171875 
Q 17 -1.171875 10.328125 5.828125 
Q 3.65625 12.84375 3.65625 25.484375 
Q 3.65625 38.578125 10.390625 45.796875 
Q 17.140625 53.03125 27.875 53.03125 
Q 38.28125 53.03125 44.875 45.953125 
Q 51.46875 38.875 51.46875 26.03125 
Q 51.46875 25.25 51.421875 23.6875 
L 12.75 23.6875 
Q 13.234375 15.140625 17.578125 10.59375 
Q 21.921875 6.0625 28.421875 6.0625 
Q 33.25 6.0625 36.671875 8.59375 
Q 40.09375 11.140625 42.09375 16.703125 
z
M 13.234375 30.90625 
L 42.1875 30.90625 
Q 41.609375 37.453125 38.875 40.71875 
Q 34.671875 45.796875 27.984375 45.796875 
Q 21.921875 45.796875 17.796875 41.75 
Q 13.671875 37.703125 13.234375 30.90625 
z
" id="ArialMT-101"/>
     <path d="M 25.78125 7.859375 
L 27.046875 0.09375 
Q 23.34375 -0.6875 20.40625 -0.6875 
Q 15.625 -0.6875 12.984375 0.828125 
Q 10.359375 2.34375 9.28125 4.8125 
Q 8.203125 7.28125 8.203125 15.1875 
L 8.203125 45.015625 
L 1.765625 45.015625 
L 1.765625 51.859375 
L 8.203125 51.859375 
L 8.203125 64.703125 
L 16.9375 69.96875 
L 16.9375 51.859375 
L 25.78125 51.859375 
L 25.78125 45.015625 
L 16.9375 45.015625 
L 16.9375 14.703125 
Q 16.9375 10.9375 17.40625 9.859375 
Q 17.875 8.796875 18.921875 8.15625 
Q 19.96875 7.515625 21.921875 7.515625 
Q 23.390625 7.515625 25.78125 7.859375 
z
" id="ArialMT-116"/>
     <path d="M 6.5 0 
L 6.5 51.859375 
L 14.40625 51.859375 
L 14.40625 44 
Q 17.4375 49.515625 20 51.265625 
Q 22.5625 53.03125 25.640625 53.03125 
Q 30.078125 53.03125 34.671875 50.203125 
L 31.640625 42.046875 
Q 28.421875 43.953125 25.203125 43.953125 
Q 22.3125 43.953125 20.015625 42.21875 
Q 17.71875 40.484375 16.75 37.40625 
Q 15.28125 32.71875 15.28125 27.15625 
L 15.28125 0 
z
" id="ArialMT-114"/>
     <path d="M 6.640625 0 
L 6.640625 71.578125 
L 15.4375 71.578125 
L 15.4375 30.765625 
L 36.234375 51.859375 
L 47.609375 51.859375 
L 27.78125 32.625 
L 49.609375 0 
L 38.765625 0 
L 21.625 26.515625 
L 15.4375 20.5625 
L 15.4375 0 
z
" id="ArialMT-107"/>
    </defs>
    <g style="fill:#262626;" transform="translate(242.854687 41.52)scale(0.12 -0.12)">
     <use xlink:href="#ArialMT-77"/>
     <use x="83.300781" xlink:href="#ArialMT-97"/>
     <use x="138.916016" xlink:href="#ArialMT-115"/>
     <use x="188.916016" xlink:href="#ArialMT-115"/>
     <use x="238.916016" xlink:href="#ArialMT-32"/>
     <use x="266.699219" xlink:href="#ArialMT-102"/>
     <use x="294.482422" xlink:href="#ArialMT-108"/>
     <use x="316.699219" xlink:href="#ArialMT-111"/>
     <use x="372.314453" xlink:href="#ArialMT-119"/>
     <use x="444.53125" xlink:href="#ArialMT-115"/>
     <use x="494.53125" xlink:href="#ArialMT-32"/>
     <use x="522.314453" xlink:href="#ArialMT-110"/>
     <use x="577.929688" xlink:href="#ArialMT-101"/>
     <use x="633.544922" xlink:href="#ArialMT-116"/>
     <use x="661.328125" xlink:href="#ArialMT-119"/>
     <use x="733.544922" xlink:href="#ArialMT-111"/>
     <use x="789.160156" xlink:href="#ArialMT-114"/>
     <use x="822.460938" xlink:href="#ArialMT-107"/>
    </g>
   </g>
   <g id="legend_1">
    <g id="line2d_39">
     <path d="M 398.040625 60.177812 
L 418.040625 60.177812 
" style="fill:none;stroke:#4c72b0;stroke-linecap:round;stroke-width:1.75;"/>
    </g>
    <g id="line2d_40"/>
    <g id="text_19">
     <!-- Producer -->
     <defs>
      <path d="M 7.71875 0 
L 7.71875 71.578125 
L 34.71875 71.578125 
Q 41.84375 71.578125 45.609375 70.90625 
Q 50.875 70.015625 54.4375 67.546875 
Q 58.015625 65.09375 60.1875 60.640625 
Q 62.359375 56.203125 62.359375 50.875 
Q 62.359375 41.75 56.546875 35.421875 
Q 50.734375 29.109375 35.546875 29.109375 
L 17.1875 29.109375 
L 17.1875 0 
z
M 17.1875 37.546875 
L 35.6875 37.546875 
Q 44.875 37.546875 48.734375 40.96875 
Q 52.59375 44.390625 52.59375 50.59375 
Q 52.59375 55.078125 50.3125 58.265625 
Q 48.046875 61.46875 44.34375 62.5 
Q 41.9375 63.140625 35.5 63.140625 
L 17.1875 63.140625 
z
" id="ArialMT-80"/>
      <path d="M 40.234375 0 
L 40.234375 6.546875 
Q 35.296875 -1.171875 25.734375 -1.171875 
Q 19.53125 -1.171875 14.328125 2.25 
Q 9.125 5.671875 6.265625 11.796875 
Q 3.421875 17.921875 3.421875 25.875 
Q 3.421875 33.640625 6 39.96875 
Q 8.59375 46.296875 13.765625 49.65625 
Q 18.953125 53.03125 25.34375 53.03125 
Q 30.03125 53.03125 33.6875 51.046875 
Q 37.359375 49.078125 39.65625 45.90625 
L 39.65625 71.578125 
L 48.390625 71.578125 
L 48.390625 0 
z
M 12.453125 25.875 
Q 12.453125 15.921875 16.640625 10.984375 
Q 20.84375 6.0625 26.5625 6.0625 
Q 32.328125 6.0625 36.34375 10.765625 
Q 40.375 15.484375 40.375 25.140625 
Q 40.375 35.796875 36.265625 40.765625 
Q 32.171875 45.75 26.171875 45.75 
Q 20.3125 45.75 16.375 40.96875 
Q 12.453125 36.1875 12.453125 25.875 
z
" id="ArialMT-100"/>
      <path d="M 40.578125 0 
L 40.578125 7.625 
Q 34.515625 -1.171875 24.125 -1.171875 
Q 19.53125 -1.171875 15.546875 0.578125 
Q 11.578125 2.34375 9.640625 5 
Q 7.71875 7.671875 6.9375 11.53125 
Q 6.390625 14.109375 6.390625 19.734375 
L 6.390625 51.859375 
L 15.1875 51.859375 
L 15.1875 23.09375 
Q 15.1875 16.21875 15.71875 13.8125 
Q 16.546875 10.359375 19.234375 8.375 
Q 21.921875 6.390625 25.875 6.390625 
Q 29.828125 6.390625 33.296875 8.421875 
Q 36.765625 10.453125 38.203125 13.9375 
Q 39.65625 17.4375 39.65625 24.078125 
L 39.65625 51.859375 
L 48.4375 51.859375 
L 48.4375 0 
z
" id="ArialMT-117"/>
      <path d="M 40.4375 19 
L 49.078125 17.875 
Q 47.65625 8.9375 41.8125 3.875 
Q 35.984375 -1.171875 27.484375 -1.171875 
Q 16.84375 -1.171875 10.375 5.78125 
Q 3.90625 12.75 3.90625 25.734375 
Q 3.90625 34.125 6.6875 40.421875 
Q 9.46875 46.734375 15.15625 49.875 
Q 20.84375 53.03125 27.546875 53.03125 
Q 35.984375 53.03125 41.359375 48.75 
Q 46.734375 44.484375 48.25 36.625 
L 39.703125 35.296875 
Q 38.484375 40.53125 35.375 43.15625 
Q 32.28125 45.796875 27.875 45.796875 
Q 21.234375 45.796875 17.078125 41.03125 
Q 12.9375 36.28125 12.9375 25.984375 
Q 12.9375 15.53125 16.9375 10.796875 
Q 20.953125 6.0625 27.390625 6.0625 
Q 32.5625 6.0625 36.03125 9.234375 
Q 39.5 12.40625 40.4375 19 
z
" id="ArialMT-99"/>
     </defs>
     <g style="fill:#262626;" transform="translate(426.040625 63.677812)scale(0.1 -0.1)">
      <use xlink:href="#ArialMT-80"/>
      <use x="66.699219" xlink:href="#ArialMT-114"/>
      <use x="100" xlink:href="#ArialMT-111"/>
      <use x="155.615234" xlink:href="#ArialMT-100"/>
      <use x="211.230469" xlink:href="#ArialMT-117"/>
      <use x="266.845703" xlink:href="#ArialMT-99"/>
      <use x="316.845703" xlink:href="#ArialMT-101"/>
      <use x="372.460938" xlink:href="#ArialMT-114"/>
     </g>
    </g>
    <g id="line2d_41">
     <path d="M 398.040625 74.323125 
L 418.040625 74.323125 
" style="fill:none;stroke:#55a868;stroke-linecap:round;stroke-width:1.75;"/>
    </g>
    <g id="line2d_42"/>
    <g id="text_20">
     <!-- WaterscheiGarden -->
     <defs>
      <path d="M 20.21875 0 
L 1.21875 71.578125 
L 10.9375 71.578125 
L 21.828125 24.65625 
Q 23.578125 17.28125 24.859375 10.015625 
Q 27.59375 21.484375 28.078125 23.25 
L 41.703125 71.578125 
L 53.125 71.578125 
L 63.375 35.359375 
Q 67.234375 21.875 68.953125 10.015625 
Q 70.3125 16.796875 72.515625 25.59375 
L 83.734375 71.578125 
L 93.265625 71.578125 
L 73.640625 0 
L 64.5 0 
L 49.421875 54.546875 
Q 47.515625 61.375 47.171875 62.9375 
Q 46.046875 58.015625 45.0625 54.546875 
L 29.890625 0 
z
" id="ArialMT-87"/>
      <path d="M 6.59375 0 
L 6.59375 71.578125 
L 15.375 71.578125 
L 15.375 45.90625 
Q 21.53125 53.03125 30.90625 53.03125 
Q 36.671875 53.03125 40.921875 50.75 
Q 45.171875 48.484375 47 44.484375 
Q 48.828125 40.484375 48.828125 32.859375 
L 48.828125 0 
L 40.046875 0 
L 40.046875 32.859375 
Q 40.046875 39.453125 37.1875 42.453125 
Q 34.328125 45.453125 29.109375 45.453125 
Q 25.203125 45.453125 21.75 43.421875 
Q 18.3125 41.40625 16.84375 37.9375 
Q 15.375 34.46875 15.375 28.375 
L 15.375 0 
z
" id="ArialMT-104"/>
      <path d="M 6.640625 61.46875 
L 6.640625 71.578125 
L 15.4375 71.578125 
L 15.4375 61.46875 
z
M 6.640625 0 
L 6.640625 51.859375 
L 15.4375 51.859375 
L 15.4375 0 
z
" id="ArialMT-105"/>
      <path d="M 41.21875 28.078125 
L 41.21875 36.46875 
L 71.53125 36.53125 
L 71.53125 9.96875 
Q 64.546875 4.390625 57.125 1.578125 
Q 49.703125 -1.21875 41.890625 -1.21875 
Q 31.34375 -1.21875 22.71875 3.296875 
Q 14.109375 7.8125 9.71875 16.359375 
Q 5.328125 24.90625 5.328125 35.453125 
Q 5.328125 45.90625 9.6875 54.953125 
Q 14.0625 64.015625 22.265625 68.40625 
Q 30.46875 72.796875 41.15625 72.796875 
Q 48.921875 72.796875 55.1875 70.28125 
Q 61.46875 67.78125 65.03125 63.28125 
Q 68.609375 58.796875 70.453125 51.5625 
L 61.921875 49.21875 
Q 60.296875 54.6875 57.90625 57.8125 
Q 55.515625 60.9375 51.0625 62.8125 
Q 46.625 64.703125 41.21875 64.703125 
Q 34.71875 64.703125 29.984375 62.71875 
Q 25.25 60.75 22.34375 57.515625 
Q 19.4375 54.296875 17.828125 50.4375 
Q 15.09375 43.796875 15.09375 36.03125 
Q 15.09375 26.46875 18.390625 20.015625 
Q 21.6875 13.578125 27.984375 10.453125 
Q 34.28125 7.328125 41.359375 7.328125 
Q 47.515625 7.328125 53.375 9.6875 
Q 59.234375 12.0625 62.25 14.75 
L 62.25 28.078125 
z
" id="ArialMT-71"/>
     </defs>
     <g style="fill:#262626;" transform="translate(426.040625 77.823125)scale(0.1 -0.1)">
      <use xlink:href="#ArialMT-87"/>
      <use x="94.337891" xlink:href="#ArialMT-97"/>
      <use x="149.953125" xlink:href="#ArialMT-116"/>
      <use x="177.736328" xlink:href="#ArialMT-101"/>
      <use x="233.351562" xlink:href="#ArialMT-114"/>
      <use x="266.652344" xlink:href="#ArialMT-115"/>
      <use x="316.652344" xlink:href="#ArialMT-99"/>
      <use x="366.652344" xlink:href="#ArialMT-104"/>
      <use x="422.267578" xlink:href="#ArialMT-101"/>
      <use x="477.882812" xlink:href="#ArialMT-105"/>
      <use x="500.099609" xlink:href="#ArialMT-71"/>
      <use x="577.882812" xlink:href="#ArialMT-97"/>
      <use x="633.498047" xlink:href="#ArialMT-114"/>
      <use x="666.798828" xlink:href="#ArialMT-100"/>
      <use x="722.414062" xlink:href="#ArialMT-101"/>
      <use x="778.029297" xlink:href="#ArialMT-110"/>
     </g>
    </g>
    <g id="line2d_43">
     <path d="M 398.040625 88.468437 
L 418.040625 88.468437 
" style="fill:none;stroke:#c44e52;stroke-linecap:round;stroke-width:1.75;"/>
    </g>
    <g id="line2d_44"/>
    <g id="text_21">
     <!-- ZwartbergNEast -->
     <defs>
      <path d="M 2 0 
L 2 8.796875 
L 38.671875 54.640625 
Q 42.578125 59.515625 46.09375 63.140625 
L 6.15625 63.140625 
L 6.15625 71.578125 
L 57.421875 71.578125 
L 57.421875 63.140625 
L 17.234375 13.484375 
L 12.890625 8.453125 
L 58.59375 8.453125 
L 58.59375 0 
z
" id="ArialMT-90"/>
      <path d="M 14.703125 0 
L 6.546875 0 
L 6.546875 71.578125 
L 15.328125 71.578125 
L 15.328125 46.046875 
Q 20.90625 53.03125 29.546875 53.03125 
Q 34.328125 53.03125 38.59375 51.09375 
Q 42.875 49.171875 45.625 45.671875 
Q 48.390625 42.1875 49.953125 37.25 
Q 51.515625 32.328125 51.515625 26.703125 
Q 51.515625 13.375 44.921875 6.09375 
Q 38.328125 -1.171875 29.109375 -1.171875 
Q 19.921875 -1.171875 14.703125 6.5 
z
M 14.59375 26.3125 
Q 14.59375 17 17.140625 12.84375 
Q 21.296875 6.0625 28.375 6.0625 
Q 34.125 6.0625 38.328125 11.0625 
Q 42.53125 16.0625 42.53125 25.984375 
Q 42.53125 36.140625 38.5 40.96875 
Q 34.46875 45.796875 28.765625 45.796875 
Q 23 45.796875 18.796875 40.796875 
Q 14.59375 35.796875 14.59375 26.3125 
z
" id="ArialMT-98"/>
      <path d="M 4.984375 -4.296875 
L 13.53125 -5.5625 
Q 14.0625 -9.515625 16.5 -11.328125 
Q 19.78125 -13.765625 25.4375 -13.765625 
Q 31.546875 -13.765625 34.859375 -11.328125 
Q 38.1875 -8.890625 39.359375 -4.5 
Q 40.046875 -1.8125 39.984375 6.78125 
Q 34.234375 0 25.640625 0 
Q 14.9375 0 9.078125 7.71875 
Q 3.21875 15.4375 3.21875 26.21875 
Q 3.21875 33.640625 5.90625 39.90625 
Q 8.59375 46.1875 13.6875 49.609375 
Q 18.796875 53.03125 25.6875 53.03125 
Q 34.859375 53.03125 40.828125 45.609375 
L 40.828125 51.859375 
L 48.921875 51.859375 
L 48.921875 7.03125 
Q 48.921875 -5.078125 46.453125 -10.125 
Q 44 -15.1875 38.640625 -18.109375 
Q 33.296875 -21.046875 25.484375 -21.046875 
Q 16.21875 -21.046875 10.5 -16.875 
Q 4.78125 -12.703125 4.984375 -4.296875 
z
M 12.25 26.859375 
Q 12.25 16.65625 16.296875 11.96875 
Q 20.359375 7.28125 26.46875 7.28125 
Q 32.515625 7.28125 36.609375 11.9375 
Q 40.71875 16.609375 40.71875 26.5625 
Q 40.71875 36.078125 36.5 40.90625 
Q 32.28125 45.75 26.3125 45.75 
Q 20.453125 45.75 16.34375 40.984375 
Q 12.25 36.234375 12.25 26.859375 
z
" id="ArialMT-103"/>
      <path d="M 7.625 0 
L 7.625 71.578125 
L 17.328125 71.578125 
L 54.9375 15.375 
L 54.9375 71.578125 
L 64.015625 71.578125 
L 64.015625 0 
L 54.296875 0 
L 16.703125 56.25 
L 16.703125 0 
z
" id="ArialMT-78"/>
      <path d="M 7.90625 0 
L 7.90625 71.578125 
L 59.671875 71.578125 
L 59.671875 63.140625 
L 17.390625 63.140625 
L 17.390625 41.21875 
L 56.984375 41.21875 
L 56.984375 32.8125 
L 17.390625 32.8125 
L 17.390625 8.453125 
L 61.328125 8.453125 
L 61.328125 0 
z
" id="ArialMT-69"/>
     </defs>
     <g style="fill:#262626;" transform="translate(426.040625 91.968437)scale(0.1 -0.1)">
      <use xlink:href="#ArialMT-90"/>
      <use x="61.083984" xlink:href="#ArialMT-119"/>
      <use x="133.300781" xlink:href="#ArialMT-97"/>
      <use x="188.916016" xlink:href="#ArialMT-114"/>
      <use x="222.216797" xlink:href="#ArialMT-116"/>
      <use x="250" xlink:href="#ArialMT-98"/>
      <use x="305.615234" xlink:href="#ArialMT-101"/>
      <use x="361.230469" xlink:href="#ArialMT-114"/>
      <use x="394.53125" xlink:href="#ArialMT-103"/>
      <use x="450.146484" xlink:href="#ArialMT-78"/>
      <use x="522.363281" xlink:href="#ArialMT-69"/>
      <use x="589.0625" xlink:href="#ArialMT-97"/>
      <use x="644.677734" xlink:href="#ArialMT-115"/>
      <use x="694.677734" xlink:href="#ArialMT-116"/>
     </g>
    </g>
    <g id="line2d_45">
     <path d="M 398.040625 102.730937 
L 418.040625 102.730937 
" style="fill:none;stroke:#8172b2;stroke-linecap:round;stroke-width:1.75;"/>
    </g>
    <g id="line2d_46"/>
    <g id="text_22">
     <!-- all users -->
     <g style="fill:#262626;" transform="translate(426.040625 106.230937)scale(0.1 -0.1)">
      <use xlink:href="#ArialMT-97"/>
      <use x="55.615234" xlink:href="#ArialMT-108"/>
      <use x="77.832031" xlink:href="#ArialMT-108"/>
      <use x="100.048828" xlink:href="#ArialMT-32"/>
      <use x="127.832031" xlink:href="#ArialMT-117"/>
      <use x="183.447266" xlink:href="#ArialMT-115"/>
      <use x="233.447266" xlink:href="#ArialMT-101"/>
      <use x="289.0625" xlink:href="#ArialMT-114"/>
      <use x="322.363281" xlink:href="#ArialMT-115"/>
     </g>
    </g>
   </g>
  </g>
  <g id="text_23">
   <!-- Horizon: 48.0h, Time step: 300, Neighbourhoods: 2, case: step_up -->
   <defs>
    <path d="M 8.015625 0 
L 8.015625 71.578125 
L 17.484375 71.578125 
L 17.484375 42.1875 
L 54.6875 42.1875 
L 54.6875 71.578125 
L 64.15625 71.578125 
L 64.15625 0 
L 54.6875 0 
L 54.6875 33.734375 
L 17.484375 33.734375 
L 17.484375 0 
z
" id="ArialMT-72"/>
    <path d="M 1.953125 0 
L 1.953125 7.125 
L 34.96875 45.015625 
Q 29.34375 44.734375 25.046875 44.734375 
L 3.90625 44.734375 
L 3.90625 51.859375 
L 46.296875 51.859375 
L 46.296875 46.046875 
L 18.21875 13.140625 
L 12.796875 7.125 
Q 18.703125 7.5625 23.875 7.5625 
L 47.859375 7.5625 
L 47.859375 0 
z
" id="ArialMT-122"/>
    <path d="M 9.03125 41.84375 
L 9.03125 51.859375 
L 19.046875 51.859375 
L 19.046875 41.84375 
z
M 9.03125 0 
L 9.03125 10.015625 
L 19.046875 10.015625 
L 19.046875 0 
z
" id="ArialMT-58"/>
    <path d="M 32.328125 0 
L 32.328125 17.140625 
L 1.265625 17.140625 
L 1.265625 25.203125 
L 33.9375 71.578125 
L 41.109375 71.578125 
L 41.109375 25.203125 
L 50.78125 25.203125 
L 50.78125 17.140625 
L 41.109375 17.140625 
L 41.109375 0 
z
M 32.328125 25.203125 
L 32.328125 57.46875 
L 9.90625 25.203125 
z
" id="ArialMT-52"/>
    <path d="M 9.078125 0 
L 9.078125 10.015625 
L 19.09375 10.015625 
L 19.09375 0 
z
" id="ArialMT-46"/>
    <path d="M 8.890625 0 
L 8.890625 10.015625 
L 18.890625 10.015625 
L 18.890625 0 
Q 18.890625 -5.515625 16.9375 -8.90625 
Q 14.984375 -12.3125 10.75 -14.15625 
L 8.296875 -10.40625 
Q 11.078125 -9.1875 12.390625 -6.8125 
Q 13.71875 -4.4375 13.875 0 
z
" id="ArialMT-44"/>
    <path d="M 25.921875 0 
L 25.921875 63.140625 
L 2.34375 63.140625 
L 2.34375 71.578125 
L 59.078125 71.578125 
L 59.078125 63.140625 
L 35.40625 63.140625 
L 35.40625 0 
z
" id="ArialMT-84"/>
    <path d="M 6.59375 0 
L 6.59375 51.859375 
L 14.453125 51.859375 
L 14.453125 44.578125 
Q 16.890625 48.390625 20.9375 50.703125 
Q 25 53.03125 30.171875 53.03125 
Q 35.9375 53.03125 39.625 50.640625 
Q 43.3125 48.25 44.828125 43.953125 
Q 50.984375 53.03125 60.84375 53.03125 
Q 68.5625 53.03125 72.703125 48.75 
Q 76.859375 44.484375 76.859375 35.59375 
L 76.859375 0 
L 68.109375 0 
L 68.109375 32.671875 
Q 68.109375 37.9375 67.25 40.25 
Q 66.40625 42.578125 64.15625 43.984375 
Q 61.921875 45.40625 58.890625 45.40625 
Q 53.421875 45.40625 49.796875 41.765625 
Q 46.1875 38.140625 46.1875 30.125 
L 46.1875 0 
L 37.40625 0 
L 37.40625 33.6875 
Q 37.40625 39.546875 35.25 42.46875 
Q 33.109375 45.40625 28.21875 45.40625 
Q 24.515625 45.40625 21.359375 43.453125 
Q 18.21875 41.5 16.796875 37.734375 
Q 15.375 33.984375 15.375 26.90625 
L 15.375 0 
z
" id="ArialMT-109"/>
    <path d="M 6.59375 -19.875 
L 6.59375 51.859375 
L 14.59375 51.859375 
L 14.59375 45.125 
Q 17.4375 49.078125 21 51.046875 
Q 24.5625 53.03125 29.640625 53.03125 
Q 36.28125 53.03125 41.359375 49.609375 
Q 46.4375 46.1875 49.015625 39.953125 
Q 51.609375 33.734375 51.609375 26.3125 
Q 51.609375 18.359375 48.75 11.984375 
Q 45.90625 5.609375 40.453125 2.21875 
Q 35.015625 -1.171875 29 -1.171875 
Q 24.609375 -1.171875 21.109375 0.6875 
Q 17.625 2.546875 15.375 5.375 
L 15.375 -19.875 
z
M 14.546875 25.640625 
Q 14.546875 15.625 18.59375 10.84375 
Q 22.65625 6.0625 28.421875 6.0625 
Q 34.28125 6.0625 38.453125 11.015625 
Q 42.625 15.96875 42.625 26.375 
Q 42.625 36.28125 38.546875 41.203125 
Q 34.46875 46.140625 28.8125 46.140625 
Q 23.1875 46.140625 18.859375 40.890625 
Q 14.546875 35.640625 14.546875 25.640625 
z
" id="ArialMT-112"/>
    <path d="M -1.515625 -19.875 
L -1.515625 -13.53125 
L 56.734375 -13.53125 
L 56.734375 -19.875 
z
" id="ArialMT-95"/>
   </defs>
   <g style="fill:#262626;" transform="translate(111.242813 16.545)scale(0.12 -0.12)">
    <use xlink:href="#ArialMT-72"/>
    <use x="72.216797" xlink:href="#ArialMT-111"/>
    <use x="127.832031" xlink:href="#ArialMT-114"/>
    <use x="161.132812" xlink:href="#ArialMT-105"/>
    <use x="183.349609" xlink:href="#ArialMT-122"/>
    <use x="233.349609" xlink:href="#ArialMT-111"/>
    <use x="288.964844" xlink:href="#ArialMT-110"/>
    <use x="344.580078" xlink:href="#ArialMT-58"/>
    <use x="372.363281" xlink:href="#ArialMT-32"/>
    <use x="400.146484" xlink:href="#ArialMT-52"/>
    <use x="455.761719" xlink:href="#ArialMT-56"/>
    <use x="511.376953" xlink:href="#ArialMT-46"/>
    <use x="539.160156" xlink:href="#ArialMT-48"/>
    <use x="594.775391" xlink:href="#ArialMT-104"/>
    <use x="650.390625" xlink:href="#ArialMT-44"/>
    <use x="678.173828" xlink:href="#ArialMT-32"/>
    <use x="705.941406" xlink:href="#ArialMT-84"/>
    <use x="766.978516" xlink:href="#ArialMT-105"/>
    <use x="789.195312" xlink:href="#ArialMT-109"/>
    <use x="872.496094" xlink:href="#ArialMT-101"/>
    <use x="928.111328" xlink:href="#ArialMT-32"/>
    <use x="955.894531" xlink:href="#ArialMT-115"/>
    <use x="1005.894531" xlink:href="#ArialMT-116"/>
    <use x="1033.677734" xlink:href="#ArialMT-101"/>
    <use x="1089.292969" xlink:href="#ArialMT-112"/>
    <use x="1144.908203" xlink:href="#ArialMT-58"/>
    <use x="1172.691406" xlink:href="#ArialMT-32"/>
    <use x="1200.474609" xlink:href="#ArialMT-51"/>
    <use x="1256.089844" xlink:href="#ArialMT-48"/>
    <use x="1311.705078" xlink:href="#ArialMT-48"/>
    <use x="1367.320312" xlink:href="#ArialMT-44"/>
    <use x="1395.103516" xlink:href="#ArialMT-32"/>
    <use x="1422.886719" xlink:href="#ArialMT-78"/>
    <use x="1495.103516" xlink:href="#ArialMT-101"/>
    <use x="1550.71875" xlink:href="#ArialMT-105"/>
    <use x="1572.935547" xlink:href="#ArialMT-103"/>
    <use x="1628.550781" xlink:href="#ArialMT-104"/>
    <use x="1684.166016" xlink:href="#ArialMT-98"/>
    <use x="1739.78125" xlink:href="#ArialMT-111"/>
    <use x="1795.396484" xlink:href="#ArialMT-117"/>
    <use x="1851.011719" xlink:href="#ArialMT-114"/>
    <use x="1884.3125" xlink:href="#ArialMT-104"/>
    <use x="1939.927734" xlink:href="#ArialMT-111"/>
    <use x="1995.542969" xlink:href="#ArialMT-111"/>
    <use x="2051.158203" xlink:href="#ArialMT-100"/>
    <use x="2106.773438" xlink:href="#ArialMT-115"/>
    <use x="2156.773438" xlink:href="#ArialMT-58"/>
    <use x="2184.556641" xlink:href="#ArialMT-32"/>
    <use x="2212.339844" xlink:href="#ArialMT-50"/>
    <use x="2267.955078" xlink:href="#ArialMT-44"/>
    <use x="2295.738281" xlink:href="#ArialMT-32"/>
    <use x="2323.521484" xlink:href="#ArialMT-99"/>
    <use x="2373.521484" xlink:href="#ArialMT-97"/>
    <use x="2429.136719" xlink:href="#ArialMT-115"/>
    <use x="2479.136719" xlink:href="#ArialMT-101"/>
    <use x="2534.751953" xlink:href="#ArialMT-58"/>
    <use x="2562.535156" xlink:href="#ArialMT-32"/>
    <use x="2590.318359" xlink:href="#ArialMT-115"/>
    <use x="2640.318359" xlink:href="#ArialMT-116"/>
    <use x="2668.101562" xlink:href="#ArialMT-101"/>
    <use x="2723.716797" xlink:href="#ArialMT-112"/>
    <use x="2779.332031" xlink:href="#ArialMT-95"/>
    <use x="2834.947266" xlink:href="#ArialMT-117"/>
    <use x="2890.5625" xlink:href="#ArialMT-112"/>
   </g>
  </g>
 </g>
 <defs>
  <clipPath id="p394b02196e">
   <rect height="304.92" width="446.4" x="72" y="47.52"/>
  </clipPath>
 </defs>
</svg>
