<?xml version="1.0" encoding="utf-8" standalone="no"?>
<!DOCTYPE svg PUBLIC "-//W3C//DTD SVG 1.1//EN"
  "http://www.w3.org/Graphics/SVG/1.1/DTD/svg11.dtd">
<!-- Created with matplotlib (https://matplotlib.org/) -->
<svg height="396pt" version="1.1" viewBox="0 0 576 396" width="576pt" xmlns="http://www.w3.org/2000/svg" xmlns:xlink="http://www.w3.org/1999/xlink">
 <defs>
  <style type="text/css">
*{stroke-linecap:butt;stroke-linejoin:round;}
  </style>
 </defs>
 <g id="figure_1">
  <g id="patch_1">
   <path d="M 0 396 
L 576 396 
L 576 0 
L 0 0 
z
" style="fill:#ffffff;"/>
  </g>
  <g id="axes_1">
   <g id="patch_2">
    <path d="M 72 186.12 
L 518.4 186.12 
L 518.4 47.52 
L 72 47.52 
z
" style="fill:#eaeaf2;"/>
   </g>
   <g id="matplotlib.axis_1">
    <g id="xtick_1">
     <g id="line2d_1">
      <path clip-path="url(#pcb6279015f)" d="M 92.290909 186.12 
L 92.290909 47.52 
" style="fill:none;stroke:#ffffff;stroke-linecap:round;"/>
     </g>
     <g id="line2d_2"/>
     <g id="text_1">
      <!-- 01-01 00 -->
      <defs>
       <path d="M 4.15625 35.296875 
Q 4.15625 48 6.765625 55.734375 
Q 9.375 63.484375 14.515625 67.671875 
Q 19.671875 71.875 27.484375 71.875 
Q 33.25 71.875 37.59375 69.546875 
Q 41.9375 67.234375 44.765625 62.859375 
Q 47.609375 58.5 49.21875 52.21875 
Q 50.828125 45.953125 50.828125 35.296875 
Q 50.828125 22.703125 48.234375 14.96875 
Q 45.65625 7.234375 40.5 3 
Q 35.359375 -1.21875 27.484375 -1.21875 
Q 17.140625 -1.21875 11.234375 6.203125 
Q 4.15625 15.140625 4.15625 35.296875 
z
M 13.1875 35.296875 
Q 13.1875 17.671875 17.3125 11.828125 
Q 21.4375 6 27.484375 6 
Q 33.546875 6 37.671875 11.859375 
Q 41.796875 17.71875 41.796875 35.296875 
Q 41.796875 52.984375 37.671875 58.78125 
Q 33.546875 64.59375 27.390625 64.59375 
Q 21.34375 64.59375 17.71875 59.46875 
Q 13.1875 52.9375 13.1875 35.296875 
z
" id="ArialMT-48"/>
       <path d="M 37.25 0 
L 28.46875 0 
L 28.46875 56 
Q 25.296875 52.984375 20.140625 49.953125 
Q 14.984375 46.921875 10.890625 45.40625 
L 10.890625 53.90625 
Q 18.265625 57.375 23.78125 62.296875 
Q 29.296875 67.234375 31.59375 71.875 
L 37.25 71.875 
z
" id="ArialMT-49"/>
       <path d="M 3.171875 21.484375 
L 3.171875 30.328125 
L 30.171875 30.328125 
L 30.171875 21.484375 
z
" id="ArialMT-45"/>
       <path id="ArialMT-32"/>
      </defs>
      <g style="fill:#262626;" transform="translate(72.55419 200.277812)scale(0.1 -0.1)">
       <use xlink:href="#ArialMT-48"/>
       <use x="55.615234" xlink:href="#ArialMT-49"/>
       <use x="111.230469" xlink:href="#ArialMT-45"/>
       <use x="144.53125" xlink:href="#ArialMT-48"/>
       <use x="200.146484" xlink:href="#ArialMT-49"/>
       <use x="255.761719" xlink:href="#ArialMT-32"/>
       <use x="283.544922" xlink:href="#ArialMT-48"/>
       <use x="339.160156" xlink:href="#ArialMT-48"/>
      </g>
     </g>
    </g>
    <g id="xtick_2">
     <g id="line2d_3">
      <path clip-path="url(#pcb6279015f)" d="M 137.486437 186.12 
L 137.486437 47.52 
" style="fill:none;stroke:#ffffff;stroke-linecap:round;"/>
     </g>
     <g id="line2d_4"/>
     <g id="text_2">
      <!-- 01-01 04 -->
      <defs>
       <path d="M 32.328125 0 
L 32.328125 17.140625 
L 1.265625 17.140625 
L 1.265625 25.203125 
L 33.9375 71.578125 
L 41.109375 71.578125 
L 41.109375 25.203125 
L 50.78125 25.203125 
L 50.78125 17.140625 
L 41.109375 17.140625 
L 41.109375 0 
z
M 32.328125 25.203125 
L 32.328125 57.46875 
L 9.90625 25.203125 
z
" id="ArialMT-52"/>
      </defs>
      <g style="fill:#262626;" transform="translate(117.749719 200.277812)scale(0.1 -0.1)">
       <use xlink:href="#ArialMT-48"/>
       <use x="55.615234" xlink:href="#ArialMT-49"/>
       <use x="111.230469" xlink:href="#ArialMT-45"/>
       <use x="144.53125" xlink:href="#ArialMT-48"/>
       <use x="200.146484" xlink:href="#ArialMT-49"/>
       <use x="255.761719" xlink:href="#ArialMT-32"/>
       <use x="283.544922" xlink:href="#ArialMT-48"/>
       <use x="339.160156" xlink:href="#ArialMT-52"/>
      </g>
     </g>
    </g>
    <g id="xtick_3">
     <g id="line2d_5">
      <path clip-path="url(#pcb6279015f)" d="M 182.681966 186.12 
L 182.681966 47.52 
" style="fill:none;stroke:#ffffff;stroke-linecap:round;"/>
     </g>
     <g id="line2d_6"/>
     <g id="text_3">
      <!-- 01-01 08 -->
      <defs>
       <path d="M 17.671875 38.8125 
Q 12.203125 40.828125 9.5625 44.53125 
Q 6.9375 48.25 6.9375 53.421875 
Q 6.9375 61.234375 12.546875 66.546875 
Q 18.171875 71.875 27.484375 71.875 
Q 36.859375 71.875 42.578125 66.421875 
Q 48.296875 60.984375 48.296875 53.171875 
Q 48.296875 48.1875 45.671875 44.5 
Q 43.0625 40.828125 37.75 38.8125 
Q 44.34375 36.671875 47.78125 31.875 
Q 51.21875 27.09375 51.21875 20.453125 
Q 51.21875 11.28125 44.71875 5.03125 
Q 38.234375 -1.21875 27.640625 -1.21875 
Q 17.046875 -1.21875 10.546875 5.046875 
Q 4.046875 11.328125 4.046875 20.703125 
Q 4.046875 27.6875 7.59375 32.390625 
Q 11.140625 37.109375 17.671875 38.8125 
z
M 15.921875 53.71875 
Q 15.921875 48.640625 19.1875 45.40625 
Q 22.46875 42.1875 27.6875 42.1875 
Q 32.765625 42.1875 36.015625 45.375 
Q 39.265625 48.578125 39.265625 53.21875 
Q 39.265625 58.0625 35.90625 61.359375 
Q 32.5625 64.65625 27.59375 64.65625 
Q 22.5625 64.65625 19.234375 61.421875 
Q 15.921875 58.203125 15.921875 53.71875 
z
M 13.09375 20.65625 
Q 13.09375 16.890625 14.875 13.375 
Q 16.65625 9.859375 20.171875 7.921875 
Q 23.6875 6 27.734375 6 
Q 34.03125 6 38.125 10.046875 
Q 42.234375 14.109375 42.234375 20.359375 
Q 42.234375 26.703125 38.015625 30.859375 
Q 33.796875 35.015625 27.4375 35.015625 
Q 21.234375 35.015625 17.15625 30.90625 
Q 13.09375 26.8125 13.09375 20.65625 
z
" id="ArialMT-56"/>
      </defs>
      <g style="fill:#262626;" transform="translate(162.945247 200.277812)scale(0.1 -0.1)">
       <use xlink:href="#ArialMT-48"/>
       <use x="55.615234" xlink:href="#ArialMT-49"/>
       <use x="111.230469" xlink:href="#ArialMT-45"/>
       <use x="144.53125" xlink:href="#ArialMT-48"/>
       <use x="200.146484" xlink:href="#ArialMT-49"/>
       <use x="255.761719" xlink:href="#ArialMT-32"/>
       <use x="283.544922" xlink:href="#ArialMT-48"/>
       <use x="339.160156" xlink:href="#ArialMT-56"/>
      </g>
     </g>
    </g>
    <g id="xtick_4">
     <g id="line2d_7">
      <path clip-path="url(#pcb6279015f)" d="M 227.877494 186.12 
L 227.877494 47.52 
" style="fill:none;stroke:#ffffff;stroke-linecap:round;"/>
     </g>
     <g id="line2d_8"/>
     <g id="text_4">
      <!-- 01-01 12 -->
      <defs>
       <path d="M 50.34375 8.453125 
L 50.34375 0 
L 3.03125 0 
Q 2.9375 3.171875 4.046875 6.109375 
Q 5.859375 10.9375 9.828125 15.625 
Q 13.8125 20.3125 21.34375 26.46875 
Q 33.015625 36.03125 37.109375 41.625 
Q 41.21875 47.21875 41.21875 52.203125 
Q 41.21875 57.421875 37.46875 61 
Q 33.734375 64.59375 27.734375 64.59375 
Q 21.390625 64.59375 17.578125 60.78125 
Q 13.765625 56.984375 13.71875 50.25 
L 4.6875 51.171875 
Q 5.609375 61.28125 11.65625 66.578125 
Q 17.71875 71.875 27.9375 71.875 
Q 38.234375 71.875 44.234375 66.15625 
Q 50.25 60.453125 50.25 52 
Q 50.25 47.703125 48.484375 43.546875 
Q 46.734375 39.40625 42.65625 34.8125 
Q 38.578125 30.21875 29.109375 22.21875 
Q 21.1875 15.578125 18.9375 13.203125 
Q 16.703125 10.84375 15.234375 8.453125 
z
" id="ArialMT-50"/>
      </defs>
      <g style="fill:#262626;" transform="translate(208.140775 200.277812)scale(0.1 -0.1)">
       <use xlink:href="#ArialMT-48"/>
       <use x="55.615234" xlink:href="#ArialMT-49"/>
       <use x="111.230469" xlink:href="#ArialMT-45"/>
       <use x="144.53125" xlink:href="#ArialMT-48"/>
       <use x="200.146484" xlink:href="#ArialMT-49"/>
       <use x="255.761719" xlink:href="#ArialMT-32"/>
       <use x="283.544922" xlink:href="#ArialMT-49"/>
       <use x="339.160156" xlink:href="#ArialMT-50"/>
      </g>
     </g>
    </g>
    <g id="xtick_5">
     <g id="line2d_9">
      <path clip-path="url(#pcb6279015f)" d="M 273.073023 186.12 
L 273.073023 47.52 
" style="fill:none;stroke:#ffffff;stroke-linecap:round;"/>
     </g>
     <g id="line2d_10"/>
     <g id="text_5">
      <!-- 01-01 16 -->
      <defs>
       <path d="M 49.75 54.046875 
L 41.015625 53.375 
Q 39.84375 58.546875 37.703125 60.890625 
Q 34.125 64.65625 28.90625 64.65625 
Q 24.703125 64.65625 21.53125 62.3125 
Q 17.390625 59.28125 14.984375 53.46875 
Q 12.59375 47.65625 12.5 36.921875 
Q 15.671875 41.75 20.265625 44.09375 
Q 24.859375 46.4375 29.890625 46.4375 
Q 38.671875 46.4375 44.84375 39.96875 
Q 51.03125 33.5 51.03125 23.25 
Q 51.03125 16.5 48.125 10.71875 
Q 45.21875 4.9375 40.140625 1.859375 
Q 35.0625 -1.21875 28.609375 -1.21875 
Q 17.625 -1.21875 10.6875 6.859375 
Q 3.765625 14.9375 3.765625 33.5 
Q 3.765625 54.25 11.421875 63.671875 
Q 18.109375 71.875 29.4375 71.875 
Q 37.890625 71.875 43.28125 67.140625 
Q 48.6875 62.40625 49.75 54.046875 
z
M 13.875 23.1875 
Q 13.875 18.65625 15.796875 14.5 
Q 17.71875 10.359375 21.1875 8.171875 
Q 24.65625 6 28.46875 6 
Q 34.03125 6 38.03125 10.484375 
Q 42.046875 14.984375 42.046875 22.703125 
Q 42.046875 30.125 38.078125 34.390625 
Q 34.125 38.671875 28.125 38.671875 
Q 22.171875 38.671875 18.015625 34.390625 
Q 13.875 30.125 13.875 23.1875 
z
" id="ArialMT-54"/>
      </defs>
      <g style="fill:#262626;" transform="translate(253.336304 200.277812)scale(0.1 -0.1)">
       <use xlink:href="#ArialMT-48"/>
       <use x="55.615234" xlink:href="#ArialMT-49"/>
       <use x="111.230469" xlink:href="#ArialMT-45"/>
       <use x="144.53125" xlink:href="#ArialMT-48"/>
       <use x="200.146484" xlink:href="#ArialMT-49"/>
       <use x="255.761719" xlink:href="#ArialMT-32"/>
       <use x="283.544922" xlink:href="#ArialMT-49"/>
       <use x="339.160156" xlink:href="#ArialMT-54"/>
      </g>
     </g>
    </g>
    <g id="xtick_6">
     <g id="line2d_11">
      <path clip-path="url(#pcb6279015f)" d="M 318.268551 186.12 
L 318.268551 47.52 
" style="fill:none;stroke:#ffffff;stroke-linecap:round;"/>
     </g>
     <g id="line2d_12"/>
     <g id="text_6">
      <!-- 01-01 20 -->
      <g style="fill:#262626;" transform="translate(298.531832 200.277812)scale(0.1 -0.1)">
       <use xlink:href="#ArialMT-48"/>
       <use x="55.615234" xlink:href="#ArialMT-49"/>
       <use x="111.230469" xlink:href="#ArialMT-45"/>
       <use x="144.53125" xlink:href="#ArialMT-48"/>
       <use x="200.146484" xlink:href="#ArialMT-49"/>
       <use x="255.761719" xlink:href="#ArialMT-32"/>
       <use x="283.544922" xlink:href="#ArialMT-50"/>
       <use x="339.160156" xlink:href="#ArialMT-48"/>
      </g>
     </g>
    </g>
    <g id="xtick_7">
     <g id="line2d_13">
      <path clip-path="url(#pcb6279015f)" d="M 363.464079 186.12 
L 363.464079 47.52 
" style="fill:none;stroke:#ffffff;stroke-linecap:round;"/>
     </g>
     <g id="line2d_14"/>
     <g id="text_7">
      <!-- 01-02 00 -->
      <g style="fill:#262626;" transform="translate(343.727361 200.277812)scale(0.1 -0.1)">
       <use xlink:href="#ArialMT-48"/>
       <use x="55.615234" xlink:href="#ArialMT-49"/>
       <use x="111.230469" xlink:href="#ArialMT-45"/>
       <use x="144.53125" xlink:href="#ArialMT-48"/>
       <use x="200.146484" xlink:href="#ArialMT-50"/>
       <use x="255.761719" xlink:href="#ArialMT-32"/>
       <use x="283.544922" xlink:href="#ArialMT-48"/>
       <use x="339.160156" xlink:href="#ArialMT-48"/>
      </g>
     </g>
    </g>
    <g id="xtick_8">
     <g id="line2d_15">
      <path clip-path="url(#pcb6279015f)" d="M 408.659608 186.12 
L 408.659608 47.52 
" style="fill:none;stroke:#ffffff;stroke-linecap:round;"/>
     </g>
     <g id="line2d_16"/>
     <g id="text_8">
      <!-- 01-02 04 -->
      <g style="fill:#262626;" transform="translate(388.922889 200.277812)scale(0.1 -0.1)">
       <use xlink:href="#ArialMT-48"/>
       <use x="55.615234" xlink:href="#ArialMT-49"/>
       <use x="111.230469" xlink:href="#ArialMT-45"/>
       <use x="144.53125" xlink:href="#ArialMT-48"/>
       <use x="200.146484" xlink:href="#ArialMT-50"/>
       <use x="255.761719" xlink:href="#ArialMT-32"/>
       <use x="283.544922" xlink:href="#ArialMT-48"/>
       <use x="339.160156" xlink:href="#ArialMT-52"/>
      </g>
     </g>
    </g>
    <g id="xtick_9">
     <g id="line2d_17">
      <path clip-path="url(#pcb6279015f)" d="M 453.855136 186.12 
L 453.855136 47.52 
" style="fill:none;stroke:#ffffff;stroke-linecap:round;"/>
     </g>
     <g id="line2d_18"/>
     <g id="text_9">
      <!-- 01-02 08 -->
      <g style="fill:#262626;" transform="translate(434.118417 200.277812)scale(0.1 -0.1)">
       <use xlink:href="#ArialMT-48"/>
       <use x="55.615234" xlink:href="#ArialMT-49"/>
       <use x="111.230469" xlink:href="#ArialMT-45"/>
       <use x="144.53125" xlink:href="#ArialMT-48"/>
       <use x="200.146484" xlink:href="#ArialMT-50"/>
       <use x="255.761719" xlink:href="#ArialMT-32"/>
       <use x="283.544922" xlink:href="#ArialMT-48"/>
       <use x="339.160156" xlink:href="#ArialMT-56"/>
      </g>
     </g>
    </g>
    <g id="xtick_10">
     <g id="line2d_19">
      <path clip-path="url(#pcb6279015f)" d="M 499.050664 186.12 
L 499.050664 47.52 
" style="fill:none;stroke:#ffffff;stroke-linecap:round;"/>
     </g>
     <g id="line2d_20"/>
     <g id="text_10">
      <!-- 01-02 12 -->
      <g style="fill:#262626;" transform="translate(479.313946 200.277812)scale(0.1 -0.1)">
       <use xlink:href="#ArialMT-48"/>
       <use x="55.615234" xlink:href="#ArialMT-49"/>
       <use x="111.230469" xlink:href="#ArialMT-45"/>
       <use x="144.53125" xlink:href="#ArialMT-48"/>
       <use x="200.146484" xlink:href="#ArialMT-50"/>
       <use x="255.761719" xlink:href="#ArialMT-32"/>
       <use x="283.544922" xlink:href="#ArialMT-49"/>
       <use x="339.160156" xlink:href="#ArialMT-50"/>
      </g>
     </g>
    </g>
   </g>
   <g id="matplotlib.axis_2">
    <g id="ytick_1">
     <g id="line2d_21">
      <path clip-path="url(#pcb6279015f)" d="M 72 147.677323 
L 518.4 147.677323 
" style="fill:none;stroke:#ffffff;stroke-linecap:round;"/>
     </g>
     <g id="line2d_22"/>
     <g id="text_11">
      <!-- 1 -->
      <g style="fill:#262626;" transform="translate(59.439062 151.256229)scale(0.1 -0.1)">
       <use xlink:href="#ArialMT-49"/>
      </g>
     </g>
    </g>
    <g id="ytick_2">
     <g id="line2d_23">
      <path clip-path="url(#pcb6279015f)" d="M 72 104.964601 
L 518.4 104.964601 
" style="fill:none;stroke:#ffffff;stroke-linecap:round;"/>
     </g>
     <g id="line2d_24"/>
     <g id="text_12">
      <!-- 2 -->
      <g style="fill:#262626;" transform="translate(59.439062 108.543507)scale(0.1 -0.1)">
       <use xlink:href="#ArialMT-50"/>
      </g>
     </g>
    </g>
    <g id="ytick_3">
     <g id="line2d_25">
      <path clip-path="url(#pcb6279015f)" d="M 72 62.25188 
L 518.4 62.25188 
" style="fill:none;stroke:#ffffff;stroke-linecap:round;"/>
     </g>
     <g id="line2d_26"/>
     <g id="text_13">
      <!-- 3 -->
      <defs>
       <path d="M 4.203125 18.890625 
L 12.984375 20.0625 
Q 14.5 12.59375 18.140625 9.296875 
Q 21.78125 6 27 6 
Q 33.203125 6 37.46875 10.296875 
Q 41.75 14.59375 41.75 20.953125 
Q 41.75 27 37.796875 30.921875 
Q 33.84375 34.859375 27.734375 34.859375 
Q 25.25 34.859375 21.53125 33.890625 
L 22.515625 41.609375 
Q 23.390625 41.5 23.921875 41.5 
Q 29.546875 41.5 34.03125 44.421875 
Q 38.53125 47.359375 38.53125 53.46875 
Q 38.53125 58.296875 35.25 61.46875 
Q 31.984375 64.65625 26.8125 64.65625 
Q 21.6875 64.65625 18.265625 61.421875 
Q 14.84375 58.203125 13.875 51.765625 
L 5.078125 53.328125 
Q 6.6875 62.15625 12.390625 67.015625 
Q 18.109375 71.875 26.609375 71.875 
Q 32.46875 71.875 37.390625 69.359375 
Q 42.328125 66.84375 44.9375 62.5 
Q 47.5625 58.15625 47.5625 53.265625 
Q 47.5625 48.640625 45.0625 44.828125 
Q 42.578125 41.015625 37.703125 38.765625 
Q 44.046875 37.3125 47.5625 32.6875 
Q 51.078125 28.078125 51.078125 21.140625 
Q 51.078125 11.765625 44.234375 5.25 
Q 37.40625 -1.265625 26.953125 -1.265625 
Q 17.53125 -1.265625 11.296875 4.34375 
Q 5.078125 9.96875 4.203125 18.890625 
z
" id="ArialMT-51"/>
      </defs>
      <g style="fill:#262626;" transform="translate(59.439062 65.830786)scale(0.1 -0.1)">
       <use xlink:href="#ArialMT-51"/>
      </g>
     </g>
    </g>
   </g>
   <g id="line2d_27">
    <path clip-path="url(#pcb6279015f)" d="M 92.290909 116.189949 
L 94.174056 116.085828 
L 95.11563 118.373206 
L 96.998777 118.312492 
L 97.94035 119.897982 
L 99.823497 119.866393 
L 100.765071 125.242505 
L 102.648218 125.223223 
L 103.589791 126.616895 
L 105.472938 126.605707 
L 106.414512 128.715766 
L 108.297659 128.707787 
L 109.239232 131.03885 
L 111.122379 131.031971 
L 112.063953 133.001929 
L 113.9471 132.99575 
L 114.888673 133.272708 
L 116.77182 133.268687 
L 117.713394 134.390934 
L 119.596541 134.387014 
L 120.538114 137.21305 
L 122.421261 137.2073 
L 123.362835 138.93489 
L 130.895423 138.985685 
L 131.836996 138.217547 
L 133.720143 138.217204 
L 134.661717 157.931432 
L 136.544864 157.915131 
L 137.486437 154.896065 
L 139.369584 154.884897 
L 140.311158 152.518975 
L 142.194305 152.513026 
L 143.135879 150.305801 
L 145.019026 150.304791 
L 145.960599 144.614313 
L 147.843746 144.623226 
L 148.78532 143.250383 
L 150.668467 143.259725 
L 151.61004 141.23522 
L 153.493187 141.244446 
L 154.434761 139.645212 
L 156.317908 139.65372 
L 157.259481 132.297378 
L 159.142628 132.315974 
L 160.084202 125.143018 
L 161.967349 125.167039 
L 162.908922 116.959012 
L 164.792069 116.986015 
L 165.733643 107.989925 
L 167.61679 108.01762 
L 168.558363 100.42083 
L 170.44151 100.44495 
L 171.383084 92.620705 
L 173.266231 92.640936 
L 174.207804 92.848242 
L 176.090951 92.855934 
L 177.032525 85.65494 
L 178.915672 85.666117 
L 179.857245 79.881224 
L 181.740392 79.891538 
L 182.681966 69.935897 
L 184.565113 69.950783 
L 185.506686 78.529781 
L 187.389833 78.525944 
L 188.331407 77.904144 
L 190.214554 77.90296 
L 191.156127 76.153834 
L 193.039274 76.155559 
L 193.980848 74.173764 
L 195.863995 74.1763 
L 196.805568 75.911185 
L 198.688715 75.910227 
L 199.630289 78.751866 
L 201.513436 78.748865 
L 202.455009 77.47457 
L 204.338157 77.47461 
L 205.27973 77.27929 
L 207.162877 77.279454 
L 208.104451 79.766742 
L 209.987598 79.764479 
L 210.929171 80.252848 
L 212.812318 80.251561 
L 213.753892 81.436458 
L 215.637039 81.435075 
L 216.578612 82.098079 
L 218.461759 82.096797 
L 219.403333 85.631592 
L 221.28648 85.627549 
L 222.228053 85.482592 
L 224.1112 85.481017 
L 225.052774 84.99698 
L 226.935921 84.996993 
L 227.877494 86.14492 
L 229.760641 86.143704 
L 230.702215 88.593589 
L 232.585362 88.590425 
L 233.526935 88.151636 
L 235.410082 88.1508 
L 236.351656 90.972605 
L 238.234803 90.96948 
L 239.176376 91.337553 
L 241.059523 91.335789 
L 242.001097 92.390551 
L 243.884244 92.388886 
L 244.825817 92.863994 
L 246.708964 92.862875 
L 247.650538 94.549553 
L 249.533685 94.547235 
L 250.475258 94.240924 
L 252.358405 94.240245 
L 253.299979 94.887284 
L 255.183126 94.886455 
L 256.124699 94.632756 
L 258.007846 94.632672 
L 258.94942 93.045237 
L 260.832567 93.047185 
L 261.77414 92.896714 
L 263.657288 92.897558 
L 264.598861 94.198847 
L 266.482008 94.197698 
L 267.423582 93.944322 
L 269.306729 93.944106 
L 270.248302 93.389986 
L 272.131449 93.390559 
L 273.073023 93.594764 
L 274.95617 93.594802 
L 275.897743 94.202449 
L 277.78089 94.201632 
L 278.722464 93.549858 
L 280.605611 93.550402 
L 281.547184 93.763513 
L 283.430331 93.763417 
L 284.371905 92.968985 
L 286.255052 92.969683 
L 287.196625 93.623263 
L 289.079772 93.622916 
L 290.021346 93.206919 
L 291.904493 93.207095 
L 292.846066 93.873723 
L 294.729213 93.873028 
L 295.670787 93.731847 
L 297.553934 93.731714 
L 298.495507 93.205031 
L 300.378654 93.205629 
L 301.320228 92.197315 
L 306.028095 92.182374 
L 306.969669 91.975257 
L 308.852816 91.975701 
L 309.794389 92.589653 
L 311.677536 92.589236 
L 312.61911 92.317053 
L 317.326977 92.269018 
L 318.268551 92.643426 
L 320.151698 92.643093 
L 321.093271 92.911912 
L 322.976418 92.911429 
L 323.917992 93.165362 
L 325.801139 93.164815 
L 326.742713 93.518623 
L 328.62586 93.518091 
L 329.567433 93.074857 
L 331.45058 93.075164 
L 332.392154 94.934637 
L 334.275301 94.932825 
L 335.216874 95.33569 
L 337.100021 95.334428 
L 338.041595 98.926736 
L 339.924742 98.922358 
L 340.866315 99.933592 
L 342.749462 99.930445 
L 343.691036 104.175482 
L 345.574183 104.169491 
L 346.515756 106.071796 
L 348.398903 106.066866 
L 349.340477 116.594642 
L 351.223624 116.581565 
L 352.165197 120.645912 
L 354.048344 120.634898 
L 354.989918 128.240032 
L 356.873065 128.226494 
L 357.814638 130.50363 
L 359.697785 130.4934 
L 360.639359 137.169249 
L 365.347226 137.243075 
L 366.2888 137.715101 
L 368.171947 137.709766 
L 369.11352 136.150682 
L 370.996667 136.149438 
L 371.938241 137.913228 
L 373.821388 137.910601 
L 374.762961 138.552852 
L 376.646108 138.550297 
L 377.587682 139.978452 
L 379.470829 139.975037 
L 380.412402 139.521689 
L 382.295549 139.520023 
L 383.237123 141.947979 
L 385.12027 141.943994 
L 386.061844 141.288188 
L 387.944991 141.286179 
L 388.886564 141.080581 
L 390.769711 141.079396 
L 391.711285 141.42691 
L 393.594432 141.425443 
L 394.536005 144.353057 
L 396.419152 144.348595 
L 397.360726 143.527144 
L 399.243873 143.524968 
L 400.185446 142.821945 
L 402.068593 142.821666 
L 403.010167 141.26334 
L 404.893314 141.265296 
L 405.834887 160.309327 
L 407.718034 160.294398 
L 408.659608 156.694526 
L 410.542755 156.684632 
L 411.484328 153.34021 
L 413.367475 153.336227 
L 414.309049 150.097801 
L 416.192196 150.099917 
L 417.133769 143.692614 
L 419.016916 143.705847 
L 419.95849 141.545981 
L 421.841637 141.559732 
L 422.78321 138.849481 
L 424.666357 138.862695 
L 425.607931 136.499483 
L 427.491078 136.511649 
L 428.432651 128.435833 
L 430.315798 128.457957 
L 431.257372 120.309081 
L 433.140519 120.336245 
L 434.082092 111.139224 
L 435.965239 111.168476 
L 436.906813 101.451075 
L 438.78996 101.479577 
L 439.731533 92.95615 
L 441.61468 92.980572 
L 442.556254 84.446129 
L 444.439401 84.466201 
L 445.380975 83.703858 
L 447.264122 83.712076 
L 448.205695 75.467402 
L 450.088842 75.479317 
L 451.030416 68.7046 
L 452.913563 68.715659 
L 453.855136 59.165898 
L 455.738283 59.179584 
L 456.679857 66.691043 
L 458.563004 66.687802 
L 459.504577 64.578767 
L 461.387724 64.57944 
L 462.329298 61.851249 
L 464.212445 61.854438 
L 465.154018 59.710052 
L 467.037165 59.71298 
L 467.978739 59.940472 
L 469.861886 59.941058 
L 470.803459 62.143888 
L 472.686606 62.142194 
L 473.62818 59.93855 
L 475.511327 59.9399 
L 476.4529 59.194171 
L 478.336047 59.195301 
L 479.277621 60.872452 
L 480.219194 68.858379 
L 481.160768 78.59344 
L 482.102341 86.753729 
L 483.043915 92.913058 
L 483.985488 97.404915 
L 484.927062 100.757293 
L 485.868635 103.099768 
L 486.810209 104.791715 
L 487.751782 106.002417 
L 488.693356 105.720053 
L 490.576503 101.484914 
L 491.518076 96.506521 
L 492.45965 90.817959 
L 493.401223 83.307355 
L 494.342797 77.756637 
L 496.225944 68.770452 
L 497.167517 66.104556 
L 498.109091 64.27588 
L 498.109091 64.27588 
" style="fill:none;stroke:#4c72b0;stroke-linecap:round;stroke-width:1.75;"/>
   </g>
   <g id="line2d_28">
    <path clip-path="url(#pcb6279015f)" d="M 92.290909 111.141988 
L 94.174056 111.038331 
L 95.11563 112.156867 
L 96.998777 112.095847 
L 97.94035 114.064715 
L 99.823497 114.033874 
L 100.765071 119.590109 
L 102.648218 119.571713 
L 103.589791 121.036427 
L 105.472938 121.026002 
L 106.414512 123.086927 
L 108.297659 123.079648 
L 109.239232 125.513712 
L 111.122379 125.50732 
L 112.063953 127.484184 
L 116.77182 127.573767 
L 117.713394 127.935755 
L 119.596541 127.932943 
L 120.538114 130.744359 
L 122.421261 130.739346 
L 123.362835 132.987981 
L 125.245982 132.982489 
L 126.187555 132.738492 
L 128.070702 132.735305 
L 129.012276 133.187403 
L 130.895423 133.185235 
L 131.836996 132.026809 
L 133.720143 132.026882 
L 134.661717 154.848827 
L 136.544864 154.831521 
L 137.486437 151.929957 
L 139.369584 151.917752 
L 140.311158 149.010831 
L 142.194305 149.004646 
L 143.135879 146.409006 
L 145.019026 146.408304 
L 145.960599 140.629828 
L 147.843746 140.638646 
L 148.78532 139.423625 
L 150.668467 139.432547 
L 151.61004 136.600218 
L 153.493187 136.610187 
L 154.434761 135.159834 
L 156.317908 135.168238 
L 157.259481 128.777441 
L 159.142628 128.793025 
L 160.084202 121.772575 
L 161.967349 121.793523 
L 162.908922 113.237226 
L 164.792069 113.262025 
L 165.733643 103.861677 
L 167.61679 103.887648 
L 168.558363 97.094832 
L 170.44151 97.116076 
L 171.383084 88.74668 
L 173.266231 88.765575 
L 174.207804 89.711159 
L 176.090951 89.717557 
L 177.032525 82.643877 
L 178.915672 82.653903 
L 179.857245 75.255803 
L 181.740392 75.26665 
L 182.681966 65.145971 
L 184.565113 65.160327 
L 185.506686 74.069138 
L 187.389833 74.065308 
L 188.331407 73.375811 
L 190.214554 73.374654 
L 191.156127 72.42343 
L 193.039274 72.424496 
L 193.980848 69.804718 
L 195.863995 69.807418 
L 196.805568 71.360471 
L 198.688715 71.359748 
L 199.630289 75.148041 
L 201.513436 75.144631 
L 202.455009 73.361673 
L 204.338157 73.36192 
L 205.27973 72.710864 
L 207.162877 72.711387 
L 208.104451 75.906459 
L 209.987598 75.90394 
L 210.929171 76.685777 
L 212.812318 76.684276 
L 213.753892 78.775701 
L 215.637039 78.773726 
L 216.578612 79.177508 
L 218.461759 79.176321 
L 219.403333 82.922922 
L 221.28648 82.918991 
L 222.228053 82.304423 
L 224.1112 82.303231 
L 225.052774 81.815107 
L 226.935921 81.81521 
L 227.877494 82.787699 
L 229.760641 82.786705 
L 230.702215 84.9449 
L 232.585362 84.942156 
L 233.526935 84.391387 
L 235.410082 84.390749 
L 236.351656 87.626462 
L 238.234803 87.623278 
L 239.176376 87.772758 
L 241.059523 87.771192 
L 242.001097 89.214955 
L 243.884244 89.213142 
L 244.825817 89.863203 
L 246.708964 89.861962 
L 247.650538 91.398563 
L 249.533685 91.396447 
L 250.475258 90.952461 
L 252.358405 90.951946 
L 253.299979 91.907646 
L 255.183126 91.906678 
L 256.124699 91.572706 
L 258.007846 91.572639 
L 258.94942 90.451767 
L 260.832567 90.453238 
L 261.77414 89.809798 
L 263.657288 89.810871 
L 264.598861 91.052389 
L 266.482008 91.051421 
L 267.423582 90.907203 
L 269.306729 90.906944 
L 270.248302 90.398332 
L 272.131449 90.398824 
L 273.073023 90.625524 
L 274.95617 90.625531 
L 275.897743 90.794513 
L 277.78089 90.79406 
L 278.722464 90.641565 
L 280.605611 90.641782 
L 281.547184 90.515718 
L 283.430331 90.515805 
L 284.371905 89.301283 
L 286.255052 89.302308 
L 287.196625 90.165851 
L 289.079772 90.165468 
L 290.021346 89.417678 
L 291.904493 89.418077 
L 292.846066 89.955916 
L 297.553934 89.860718 
L 298.495507 89.461264 
L 300.378654 89.461734 
L 301.320228 88.177911 
L 306.028095 88.213361 
L 306.969669 88.030963 
L 308.852816 88.031359 
L 309.794389 88.921157 
L 311.677536 88.920547 
L 312.61911 88.600149 
L 317.326977 88.614368 
L 318.268551 89.075637 
L 320.151698 89.075243 
L 321.093271 89.236483 
L 325.801139 89.28382 
L 326.742713 89.864321 
L 328.62586 89.863699 
L 329.567433 89.50061 
L 331.45058 89.500805 
L 332.392154 91.61484 
L 334.275301 91.612922 
L 335.216874 91.997952 
L 337.100021 91.996716 
L 338.041595 95.693942 
L 339.924742 95.689737 
L 340.866315 96.477848 
L 342.749462 96.475026 
L 343.691036 100.517728 
L 345.574183 100.512277 
L 346.515756 102.223267 
L 348.398903 102.218828 
L 349.340477 112.77446 
L 351.223624 112.762124 
L 352.165197 117.279121 
L 354.048344 117.268385 
L 354.989918 124.506511 
L 356.873065 124.493807 
L 357.814638 126.697019 
L 359.697785 126.68743 
L 360.639359 133.51349 
L 362.522506 133.501568 
L 363.464079 133.694126 
L 368.171947 133.725865 
L 369.11352 131.747612 
L 370.996667 131.74716 
L 371.938241 133.589198 
L 373.821388 133.587054 
L 374.762961 133.960887 
L 376.646108 133.958927 
L 377.587682 135.334517 
L 379.470829 135.331577 
L 380.412402 134.84474 
L 382.295549 134.843373 
L 383.237123 137.28362 
L 385.12027 137.27996 
L 386.061844 136.325301 
L 387.944991 136.323789 
L 388.886564 135.530817 
L 390.769711 135.530588 
L 391.711285 135.102825 
L 393.594432 135.102763 
L 394.536005 138.582284 
L 396.419152 138.578186 
L 397.360726 137.685501 
L 399.243873 137.683619 
L 400.185446 137.187181 
L 402.068593 137.186839 
L 403.010167 135.199042 
L 404.893314 135.201437 
L 405.834887 157.224998 
L 407.718034 157.209036 
L 408.659608 153.688105 
L 410.542755 153.677065 
L 411.484328 149.741925 
L 413.367475 149.73759 
L 414.309049 146.088043 
L 416.192196 146.090356 
L 417.133769 139.55874 
L 419.016916 139.571666 
L 419.95849 137.513084 
L 421.841637 137.526187 
L 422.78321 133.960095 
L 424.666357 133.973936 
L 425.607931 131.753457 
L 427.491078 131.765246 
L 428.432651 124.616244 
L 430.315798 124.634977 
L 431.257372 116.622533 
L 433.140519 116.646297 
L 434.082092 107.048709 
L 435.965239 107.075579 
L 436.906813 96.926205 
L 438.78996 96.952891 
L 439.731533 89.202301 
L 441.61468 89.223887 
L 442.556254 80.085467 
L 447.264122 80.091055 
L 448.205695 71.662564 
L 450.088842 71.673592 
L 451.030416 63.475667 
L 452.913563 63.48706 
L 453.855136 53.858651 
L 455.738283 53.871727 
L 456.679857 61.589737 
L 458.563004 61.586513 
L 459.504577 59.377486 
L 461.387724 59.378127 
L 462.329298 57.283398 
L 464.212445 57.285993 
L 465.154018 54.499443 
L 469.861886 54.546057 
L 470.803459 57.724113 
L 472.686606 57.721951 
L 473.62818 54.763831 
L 475.511327 54.765458 
L 476.4529 53.82 
L 478.336047 53.82126 
L 479.277621 55.902004 
L 480.219194 64.535922 
L 481.160768 74.906215 
L 482.102341 83.87269 
L 483.043915 90.248349 
L 483.985488 94.858536 
L 484.927062 98.681321 
L 485.868635 101.03164 
L 486.810209 102.717227 
L 487.751782 103.858027 
L 488.693356 103.479684 
L 490.576503 98.808119 
L 491.518076 93.488791 
L 492.45965 87.449338 
L 493.401223 79.068723 
L 494.342797 73.242515 
L 496.225944 64.000888 
L 497.167517 61.333245 
L 498.109091 59.539034 
L 498.109091 59.539034 
" style="fill:none;stroke:#55a868;stroke-linecap:round;stroke-width:1.75;"/>
   </g>
   <g id="line2d_29">
    <path clip-path="url(#pcb6279015f)" d="M 92.290909 159.926754 
L 94.174056 159.871063 
L 95.11563 163.081345 
L 96.998777 163.049861 
L 97.94035 163.228341 
L 99.823497 163.210403 
L 100.765071 165.735904 
L 102.648218 165.724219 
L 103.589791 166.337164 
L 105.472938 166.329956 
L 106.414512 167.526672 
L 108.297659 167.521266 
L 109.239232 168.573614 
L 111.122379 168.569153 
L 112.063953 169.595906 
L 113.9471 169.591914 
L 114.888673 170.043338 
L 116.77182 170.040364 
L 117.713394 171.93573 
L 119.596541 171.931763 
L 120.538114 173.446768 
L 125.245982 173.456799 
L 126.187555 173.650998 
L 128.070702 173.648744 
L 129.012276 173.23638 
L 130.895423 173.235429 
L 131.836996 173.499722 
L 133.720143 173.498826 
L 134.661717 178.563375 
L 136.544864 178.556505 
L 137.486437 176.763309 
L 139.369584 176.7592 
L 140.311158 176.439553 
L 142.194305 176.436819 
L 143.135879 175.93919 
L 145.019026 175.93813 
L 145.960599 173.088911 
L 147.843746 173.093773 
L 148.78532 172.099351 
L 150.668467 172.104997 
L 151.61004 172.422906 
L 153.493187 172.426497 
L 154.434761 171.32805 
L 156.317908 171.332714 
L 157.259481 165.798603 
L 159.142628 165.813573 
L 160.084202 161.770349 
L 161.967349 161.788282 
L 162.908922 158.058086 
L 164.792069 158.076102 
L 165.733643 154.026434 
L 167.61679 154.04399 
L 168.558363 148.660174 
L 170.44151 148.677823 
L 171.383084 145.487573 
L 173.266231 145.50053 
L 174.207804 144.343823 
L 176.090951 144.350099 
L 177.032525 140.335291 
L 178.915672 140.343158 
L 179.857245 140.0596 
L 181.740392 140.064123 
L 182.681966 135.098347 
L 184.565113 135.107104 
L 185.506686 139.064534 
L 187.389833 139.062499 
L 188.331407 138.850762 
L 190.214554 138.850092 
L 191.156127 136.559677 
L 195.863995 136.611951 
L 196.805568 137.838418 
L 198.688715 137.83751 
L 199.630289 137.712345 
L 201.513436 137.711465 
L 202.455009 137.911892 
L 204.338157 137.911557 
L 205.27973 138.59008 
L 209.987598 138.686424 
L 210.929171 138.440663 
L 212.812318 138.440352 
L 213.753892 137.51053 
L 215.637039 137.510816 
L 216.578612 138.304879 
L 218.461759 138.30404 
L 219.403333 139.804437 
L 221.28648 139.802115 
L 222.228053 140.530982 
L 224.1112 140.529493 
L 225.052774 140.28131 
L 226.935921 140.281162 
L 227.877494 141.187212 
L 229.760641 141.18619 
L 230.702215 142.978004 
L 235.410082 142.93552 
L 236.351656 143.713453 
L 238.234803 143.711907 
L 239.176376 144.280806 
L 243.884244 144.167938 
L 246.708964 144.118035 
L 247.650538 145.264631 
L 258.007846 145.152481 
L 258.94942 143.515493 
L 260.832567 143.517337 
L 261.77414 144.283352 
L 263.657288 144.283405 
L 264.598861 145.071962 
L 266.482008 145.071046 
L 267.423582 144.750277 
L 269.306729 144.750236 
L 270.248302 144.380059 
L 274.95617 144.449657 
L 275.897743 145.522246 
L 277.78089 145.521189 
L 278.722464 144.321399 
L 280.605611 144.322244 
L 281.547184 145.016221 
L 283.430331 145.015854 
L 284.371905 145.31739 
L 289.079772 145.301608 
L 290.021346 145.651248 
L 291.904493 145.650958 
L 292.846066 146.223264 
L 294.729213 146.222548 
L 295.670787 146.068225 
L 297.553934 146.068124 
L 298.495507 145.572275 
L 303.203375 145.514146 
L 305.086522 145.419218 
L 306.028095 145.419365 
L 306.969669 145.267781 
L 308.852816 145.268096 
L 309.794389 145.11876 
L 314.502257 145.058151 
L 315.44383 144.925805 
L 320.151698 144.974346 
L 321.093271 145.300549 
L 322.976418 145.300146 
L 323.917992 145.787028 
L 325.801139 145.786389 
L 326.742713 145.58419 
L 328.62586 145.584064 
L 329.567433 145.21295 
L 331.45058 145.213303 
L 332.392154 145.757126 
L 334.275301 145.756351 
L 335.216874 145.999332 
L 337.100021 145.998623 
L 338.041595 147.712634 
L 339.924742 147.71003 
L 340.866315 148.625783 
L 342.749462 148.623566 
L 343.691036 151.208588 
L 345.574183 151.204503 
L 346.515756 152.535498 
L 348.398903 152.532057 
L 349.340477 158.034714 
L 351.223624 158.02655 
L 352.165197 159.393135 
L 354.048344 159.386851 
L 354.989918 164.025755 
L 356.873065 164.017188 
L 357.814638 165.344499 
L 359.697785 165.338005 
L 360.639359 168.600044 
L 362.522506 168.592469 
L 363.464079 168.473653 
L 365.347226 168.468916 
L 366.2888 169.451705 
L 370.996667 169.342518 
L 371.938241 170.138238 
L 373.821388 170.136026 
L 374.762961 170.934915 
L 376.646108 170.932546 
L 377.587682 171.775634 
L 379.470829 171.773019 
L 380.412402 171.591435 
L 382.295549 171.590043 
L 383.237123 172.849026 
L 385.12027 172.846368 
L 386.061844 173.01309 
L 387.944991 173.01118 
L 388.886564 173.910015 
L 390.769711 173.907752 
L 391.711285 175.420416 
L 393.594432 175.417232 
L 394.536005 176.014309 
L 396.419152 176.011332 
L 397.360726 175.700401 
L 399.243873 175.698749 
L 400.185446 174.973852 
L 404.893314 174.888974 
L 405.834887 179.82 
L 407.718034 179.813899 
L 408.659608 177.780617 
L 410.542755 177.777366 
L 411.484328 177.027097 
L 413.367475 177.0256 
L 414.309049 176.023237 
L 416.192196 176.024016 
L 417.133769 172.859148 
L 419.016916 172.866652 
L 419.95849 171.55425 
L 424.666357 171.607214 
L 425.607931 170.116526 
L 427.491078 170.123589 
L 428.432651 164.276576 
L 430.315798 164.294055 
L 431.257372 159.763874 
L 433.140519 159.784025 
L 434.082092 155.622091 
L 435.965239 155.641599 
L 436.906813 151.259168 
L 438.78996 151.277309 
L 439.731533 145.458349 
L 441.61468 145.476087 
L 442.556254 142.012287 
L 444.439401 142.025032 
L 445.380975 140.350406 
L 447.264122 140.35694 
L 448.205695 136.325417 
L 450.088842 136.33322 
L 451.030416 135.201999 
L 452.913563 135.207256 
L 453.855136 130.307325 
L 455.738283 130.315585 
L 456.679857 133.921561 
L 458.563004 133.919821 
L 459.504577 132.979369 
L 461.387724 132.979781 
L 462.329298 130.455168 
L 467.037165 130.429793 
L 467.978739 130.866388 
L 469.861886 130.866482 
L 470.803459 130.35553 
L 472.686606 130.35544 
L 473.62818 130.487419 
L 478.336047 130.437364 
L 479.277621 130.629504 
L 480.219194 133.728642 
L 481.160768 137.771834 
L 483.043915 143.567967 
L 483.985488 145.733236 
L 484.927062 146.694011 
L 485.868635 147.915554 
L 487.751782 149.576655 
L 488.693356 149.592373 
L 489.634929 148.76945 
L 490.576503 148.107922 
L 491.518076 146.067863 
L 495.28437 136.565166 
L 496.225944 134.448988 
L 497.167517 133.046478 
L 498.109091 132.023269 
L 498.109091 132.023269 
" style="fill:none;stroke:#c44e52;stroke-linecap:round;stroke-width:1.75;"/>
   </g>
   <g id="patch_3">
    <path d="M 72 186.12 
L 72 47.52 
" style="fill:none;"/>
   </g>
   <g id="patch_4">
    <path d="M 518.4 186.12 
L 518.4 47.52 
" style="fill:none;"/>
   </g>
   <g id="patch_5">
    <path d="M 72 186.12 
L 518.4 186.12 
" style="fill:none;"/>
   </g>
   <g id="patch_6">
    <path d="M 72 47.52 
L 518.4 47.52 
" style="fill:none;"/>
   </g>
   <g id="text_14">
    <!-- Water speed -->
    <defs>
     <path d="M 20.21875 0 
L 1.21875 71.578125 
L 10.9375 71.578125 
L 21.828125 24.65625 
Q 23.578125 17.28125 24.859375 10.015625 
Q 27.59375 21.484375 28.078125 23.25 
L 41.703125 71.578125 
L 53.125 71.578125 
L 63.375 35.359375 
Q 67.234375 21.875 68.953125 10.015625 
Q 70.3125 16.796875 72.515625 25.59375 
L 83.734375 71.578125 
L 93.265625 71.578125 
L 73.640625 0 
L 64.5 0 
L 49.421875 54.546875 
Q 47.515625 61.375 47.171875 62.9375 
Q 46.046875 58.015625 45.0625 54.546875 
L 29.890625 0 
z
" id="ArialMT-87"/>
     <path d="M 40.4375 6.390625 
Q 35.546875 2.25 31.03125 0.53125 
Q 26.515625 -1.171875 21.34375 -1.171875 
Q 12.796875 -1.171875 8.203125 3 
Q 3.609375 7.171875 3.609375 13.671875 
Q 3.609375 17.484375 5.34375 20.625 
Q 7.078125 23.78125 9.890625 25.6875 
Q 12.703125 27.59375 16.21875 28.5625 
Q 18.796875 29.25 24.03125 29.890625 
Q 34.671875 31.15625 39.703125 32.90625 
Q 39.75 34.71875 39.75 35.203125 
Q 39.75 40.578125 37.25 42.78125 
Q 33.890625 45.75 27.25 45.75 
Q 21.046875 45.75 18.09375 43.578125 
Q 15.140625 41.40625 13.71875 35.890625 
L 5.125 37.0625 
Q 6.296875 42.578125 8.984375 45.96875 
Q 11.671875 49.359375 16.75 51.1875 
Q 21.828125 53.03125 28.515625 53.03125 
Q 35.15625 53.03125 39.296875 51.46875 
Q 43.453125 49.90625 45.40625 47.53125 
Q 47.359375 45.171875 48.140625 41.546875 
Q 48.578125 39.3125 48.578125 33.453125 
L 48.578125 21.734375 
Q 48.578125 9.46875 49.140625 6.21875 
Q 49.703125 2.984375 51.375 0 
L 42.1875 0 
Q 40.828125 2.734375 40.4375 6.390625 
z
M 39.703125 26.03125 
Q 34.90625 24.078125 25.34375 22.703125 
Q 19.921875 21.921875 17.671875 20.9375 
Q 15.4375 19.96875 14.203125 18.09375 
Q 12.984375 16.21875 12.984375 13.921875 
Q 12.984375 10.40625 15.640625 8.0625 
Q 18.3125 5.71875 23.4375 5.71875 
Q 28.515625 5.71875 32.46875 7.9375 
Q 36.421875 10.15625 38.28125 14.015625 
Q 39.703125 17 39.703125 22.796875 
z
" id="ArialMT-97"/>
     <path d="M 25.78125 7.859375 
L 27.046875 0.09375 
Q 23.34375 -0.6875 20.40625 -0.6875 
Q 15.625 -0.6875 12.984375 0.828125 
Q 10.359375 2.34375 9.28125 4.8125 
Q 8.203125 7.28125 8.203125 15.1875 
L 8.203125 45.015625 
L 1.765625 45.015625 
L 1.765625 51.859375 
L 8.203125 51.859375 
L 8.203125 64.703125 
L 16.9375 69.96875 
L 16.9375 51.859375 
L 25.78125 51.859375 
L 25.78125 45.015625 
L 16.9375 45.015625 
L 16.9375 14.703125 
Q 16.9375 10.9375 17.40625 9.859375 
Q 17.875 8.796875 18.921875 8.15625 
Q 19.96875 7.515625 21.921875 7.515625 
Q 23.390625 7.515625 25.78125 7.859375 
z
" id="ArialMT-116"/>
     <path d="M 42.09375 16.703125 
L 51.171875 15.578125 
Q 49.03125 7.625 43.21875 3.21875 
Q 37.40625 -1.171875 28.375 -1.171875 
Q 17 -1.171875 10.328125 5.828125 
Q 3.65625 12.84375 3.65625 25.484375 
Q 3.65625 38.578125 10.390625 45.796875 
Q 17.140625 53.03125 27.875 53.03125 
Q 38.28125 53.03125 44.875 45.953125 
Q 51.46875 38.875 51.46875 26.03125 
Q 51.46875 25.25 51.421875 23.6875 
L 12.75 23.6875 
Q 13.234375 15.140625 17.578125 10.59375 
Q 21.921875 6.0625 28.421875 6.0625 
Q 33.25 6.0625 36.671875 8.59375 
Q 40.09375 11.140625 42.09375 16.703125 
z
M 13.234375 30.90625 
L 42.1875 30.90625 
Q 41.609375 37.453125 38.875 40.71875 
Q 34.671875 45.796875 27.984375 45.796875 
Q 21.921875 45.796875 17.796875 41.75 
Q 13.671875 37.703125 13.234375 30.90625 
z
" id="ArialMT-101"/>
     <path d="M 6.5 0 
L 6.5 51.859375 
L 14.40625 51.859375 
L 14.40625 44 
Q 17.4375 49.515625 20 51.265625 
Q 22.5625 53.03125 25.640625 53.03125 
Q 30.078125 53.03125 34.671875 50.203125 
L 31.640625 42.046875 
Q 28.421875 43.953125 25.203125 43.953125 
Q 22.3125 43.953125 20.015625 42.21875 
Q 17.71875 40.484375 16.75 37.40625 
Q 15.28125 32.71875 15.28125 27.15625 
L 15.28125 0 
z
" id="ArialMT-114"/>
     <path d="M 3.078125 15.484375 
L 11.765625 16.84375 
Q 12.5 11.625 15.84375 8.84375 
Q 19.1875 6.0625 25.203125 6.0625 
Q 31.25 6.0625 34.171875 8.515625 
Q 37.109375 10.984375 37.109375 14.3125 
Q 37.109375 17.28125 34.515625 19 
Q 32.71875 20.171875 25.53125 21.96875 
Q 15.875 24.421875 12.140625 26.203125 
Q 8.40625 27.984375 6.46875 31.125 
Q 4.546875 34.28125 4.546875 38.09375 
Q 4.546875 41.546875 6.125 44.5 
Q 7.71875 47.46875 10.453125 49.421875 
Q 12.5 50.921875 16.03125 51.96875 
Q 19.578125 53.03125 23.640625 53.03125 
Q 29.734375 53.03125 34.34375 51.265625 
Q 38.96875 49.515625 41.15625 46.5 
Q 43.359375 43.5 44.1875 38.484375 
L 35.59375 37.3125 
Q 35.015625 41.3125 32.203125 43.546875 
Q 29.390625 45.796875 24.265625 45.796875 
Q 18.21875 45.796875 15.625 43.796875 
Q 13.03125 41.796875 13.03125 39.109375 
Q 13.03125 37.40625 14.109375 36.03125 
Q 15.1875 34.625 17.484375 33.6875 
Q 18.796875 33.203125 25.25 31.453125 
Q 34.578125 28.953125 38.25 27.359375 
Q 41.9375 25.78125 44.03125 22.75 
Q 46.140625 19.734375 46.140625 15.234375 
Q 46.140625 10.84375 43.578125 6.953125 
Q 41.015625 3.078125 36.171875 0.953125 
Q 31.34375 -1.171875 25.25 -1.171875 
Q 15.140625 -1.171875 9.84375 3.03125 
Q 4.546875 7.234375 3.078125 15.484375 
z
" id="ArialMT-115"/>
     <path d="M 6.59375 -19.875 
L 6.59375 51.859375 
L 14.59375 51.859375 
L 14.59375 45.125 
Q 17.4375 49.078125 21 51.046875 
Q 24.5625 53.03125 29.640625 53.03125 
Q 36.28125 53.03125 41.359375 49.609375 
Q 46.4375 46.1875 49.015625 39.953125 
Q 51.609375 33.734375 51.609375 26.3125 
Q 51.609375 18.359375 48.75 11.984375 
Q 45.90625 5.609375 40.453125 2.21875 
Q 35.015625 -1.171875 29 -1.171875 
Q 24.609375 -1.171875 21.109375 0.6875 
Q 17.625 2.546875 15.375 5.375 
L 15.375 -19.875 
z
M 14.546875 25.640625 
Q 14.546875 15.625 18.59375 10.84375 
Q 22.65625 6.0625 28.421875 6.0625 
Q 34.28125 6.0625 38.453125 11.015625 
Q 42.625 15.96875 42.625 26.375 
Q 42.625 36.28125 38.546875 41.203125 
Q 34.46875 46.140625 28.8125 46.140625 
Q 23.1875 46.140625 18.859375 40.890625 
Q 14.546875 35.640625 14.546875 25.640625 
z
" id="ArialMT-112"/>
     <path d="M 40.234375 0 
L 40.234375 6.546875 
Q 35.296875 -1.171875 25.734375 -1.171875 
Q 19.53125 -1.171875 14.328125 2.25 
Q 9.125 5.671875 6.265625 11.796875 
Q 3.421875 17.921875 3.421875 25.875 
Q 3.421875 33.640625 6 39.96875 
Q 8.59375 46.296875 13.765625 49.65625 
Q 18.953125 53.03125 25.34375 53.03125 
Q 30.03125 53.03125 33.6875 51.046875 
Q 37.359375 49.078125 39.65625 45.90625 
L 39.65625 71.578125 
L 48.390625 71.578125 
L 48.390625 0 
z
M 12.453125 25.875 
Q 12.453125 15.921875 16.640625 10.984375 
Q 20.84375 6.0625 26.5625 6.0625 
Q 32.328125 6.0625 36.34375 10.765625 
Q 40.375 15.484375 40.375 25.140625 
Q 40.375 35.796875 36.265625 40.765625 
Q 32.171875 45.75 26.171875 45.75 
Q 20.3125 45.75 16.375 40.96875 
Q 12.453125 36.1875 12.453125 25.875 
z
" id="ArialMT-100"/>
    </defs>
    <g style="fill:#262626;" transform="translate(261.188437 41.52)scale(0.12 -0.12)">
     <use xlink:href="#ArialMT-87"/>
     <use x="94.337891" xlink:href="#ArialMT-97"/>
     <use x="149.953125" xlink:href="#ArialMT-116"/>
     <use x="177.736328" xlink:href="#ArialMT-101"/>
     <use x="233.351562" xlink:href="#ArialMT-114"/>
     <use x="266.652344" xlink:href="#ArialMT-32"/>
     <use x="294.435547" xlink:href="#ArialMT-115"/>
     <use x="344.435547" xlink:href="#ArialMT-112"/>
     <use x="400.050781" xlink:href="#ArialMT-101"/>
     <use x="455.666016" xlink:href="#ArialMT-101"/>
     <use x="511.28125" xlink:href="#ArialMT-100"/>
    </g>
   </g>
   <g id="legend_1">
    <g id="line2d_30">
     <path d="M 81 60.2075 
L 101 60.2075 
" style="fill:none;stroke:#4c72b0;stroke-linecap:round;stroke-width:1.75;"/>
    </g>
    <g id="line2d_31"/>
    <g id="text_15">
     <!-- dist_pipe0 -->
     <defs>
      <path d="M 6.640625 61.46875 
L 6.640625 71.578125 
L 15.4375 71.578125 
L 15.4375 61.46875 
z
M 6.640625 0 
L 6.640625 51.859375 
L 15.4375 51.859375 
L 15.4375 0 
z
" id="ArialMT-105"/>
      <path d="M -1.515625 -19.875 
L -1.515625 -13.53125 
L 56.734375 -13.53125 
L 56.734375 -19.875 
z
" id="ArialMT-95"/>
     </defs>
     <g style="fill:#262626;" transform="translate(109 63.7075)scale(0.1 -0.1)">
      <use xlink:href="#ArialMT-100"/>
      <use x="55.615234" xlink:href="#ArialMT-105"/>
      <use x="77.832031" xlink:href="#ArialMT-115"/>
      <use x="127.832031" xlink:href="#ArialMT-116"/>
      <use x="155.615234" xlink:href="#ArialMT-95"/>
      <use x="211.230469" xlink:href="#ArialMT-112"/>
      <use x="266.845703" xlink:href="#ArialMT-105"/>
      <use x="289.0625" xlink:href="#ArialMT-112"/>
      <use x="344.677734" xlink:href="#ArialMT-101"/>
      <use x="400.292969" xlink:href="#ArialMT-48"/>
     </g>
    </g>
    <g id="line2d_32">
     <path d="M 81 74.3825 
L 101 74.3825 
" style="fill:none;stroke:#55a868;stroke-linecap:round;stroke-width:1.75;"/>
    </g>
    <g id="line2d_33"/>
    <g id="text_16">
     <!-- dist_pipe2 -->
     <g style="fill:#262626;" transform="translate(109 77.8825)scale(0.1 -0.1)">
      <use xlink:href="#ArialMT-100"/>
      <use x="55.615234" xlink:href="#ArialMT-105"/>
      <use x="77.832031" xlink:href="#ArialMT-115"/>
      <use x="127.832031" xlink:href="#ArialMT-116"/>
      <use x="155.615234" xlink:href="#ArialMT-95"/>
      <use x="211.230469" xlink:href="#ArialMT-112"/>
      <use x="266.845703" xlink:href="#ArialMT-105"/>
      <use x="289.0625" xlink:href="#ArialMT-112"/>
      <use x="344.677734" xlink:href="#ArialMT-101"/>
      <use x="400.292969" xlink:href="#ArialMT-50"/>
     </g>
    </g>
    <g id="line2d_34">
     <path d="M 81 88.5575 
L 101 88.5575 
" style="fill:none;stroke:#c44e52;stroke-linecap:round;stroke-width:1.75;"/>
    </g>
    <g id="line2d_35"/>
    <g id="text_17">
     <!-- dist_pipe1 -->
     <g style="fill:#262626;" transform="translate(109 92.0575)scale(0.1 -0.1)">
      <use xlink:href="#ArialMT-100"/>
      <use x="55.615234" xlink:href="#ArialMT-105"/>
      <use x="77.832031" xlink:href="#ArialMT-115"/>
      <use x="127.832031" xlink:href="#ArialMT-116"/>
      <use x="155.615234" xlink:href="#ArialMT-95"/>
      <use x="211.230469" xlink:href="#ArialMT-112"/>
      <use x="266.845703" xlink:href="#ArialMT-105"/>
      <use x="289.0625" xlink:href="#ArialMT-112"/>
      <use x="344.677734" xlink:href="#ArialMT-101"/>
      <use x="400.292969" xlink:href="#ArialMT-49"/>
     </g>
    </g>
   </g>
  </g>
  <g id="axes_2">
   <g id="patch_7">
    <path d="M 72 352.44 
L 518.4 352.44 
L 518.4 213.84 
L 72 213.84 
z
" style="fill:#eaeaf2;"/>
   </g>
   <g id="matplotlib.axis_3">
    <g id="xtick_11">
     <g id="line2d_36">
      <path clip-path="url(#p2c4ab51ae6)" d="M 92.290909 352.44 
L 92.290909 213.84 
" style="fill:none;stroke:#ffffff;stroke-linecap:round;"/>
     </g>
     <g id="line2d_37"/>
     <g id="text_18">
      <!-- 01-01 00 -->
      <g style="fill:#262626;" transform="translate(72.55419 366.597813)scale(0.1 -0.1)">
       <use xlink:href="#ArialMT-48"/>
       <use x="55.615234" xlink:href="#ArialMT-49"/>
       <use x="111.230469" xlink:href="#ArialMT-45"/>
       <use x="144.53125" xlink:href="#ArialMT-48"/>
       <use x="200.146484" xlink:href="#ArialMT-49"/>
       <use x="255.761719" xlink:href="#ArialMT-32"/>
       <use x="283.544922" xlink:href="#ArialMT-48"/>
       <use x="339.160156" xlink:href="#ArialMT-48"/>
      </g>
     </g>
    </g>
    <g id="xtick_12">
     <g id="line2d_38">
      <path clip-path="url(#p2c4ab51ae6)" d="M 137.486437 352.44 
L 137.486437 213.84 
" style="fill:none;stroke:#ffffff;stroke-linecap:round;"/>
     </g>
     <g id="line2d_39"/>
     <g id="text_19">
      <!-- 01-01 04 -->
      <g style="fill:#262626;" transform="translate(117.749719 366.597813)scale(0.1 -0.1)">
       <use xlink:href="#ArialMT-48"/>
       <use x="55.615234" xlink:href="#ArialMT-49"/>
       <use x="111.230469" xlink:href="#ArialMT-45"/>
       <use x="144.53125" xlink:href="#ArialMT-48"/>
       <use x="200.146484" xlink:href="#ArialMT-49"/>
       <use x="255.761719" xlink:href="#ArialMT-32"/>
       <use x="283.544922" xlink:href="#ArialMT-48"/>
       <use x="339.160156" xlink:href="#ArialMT-52"/>
      </g>
     </g>
    </g>
    <g id="xtick_13">
     <g id="line2d_40">
      <path clip-path="url(#p2c4ab51ae6)" d="M 182.681966 352.44 
L 182.681966 213.84 
" style="fill:none;stroke:#ffffff;stroke-linecap:round;"/>
     </g>
     <g id="line2d_41"/>
     <g id="text_20">
      <!-- 01-01 08 -->
      <g style="fill:#262626;" transform="translate(162.945247 366.597813)scale(0.1 -0.1)">
       <use xlink:href="#ArialMT-48"/>
       <use x="55.615234" xlink:href="#ArialMT-49"/>
       <use x="111.230469" xlink:href="#ArialMT-45"/>
       <use x="144.53125" xlink:href="#ArialMT-48"/>
       <use x="200.146484" xlink:href="#ArialMT-49"/>
       <use x="255.761719" xlink:href="#ArialMT-32"/>
       <use x="283.544922" xlink:href="#ArialMT-48"/>
       <use x="339.160156" xlink:href="#ArialMT-56"/>
      </g>
     </g>
    </g>
    <g id="xtick_14">
     <g id="line2d_42">
      <path clip-path="url(#p2c4ab51ae6)" d="M 227.877494 352.44 
L 227.877494 213.84 
" style="fill:none;stroke:#ffffff;stroke-linecap:round;"/>
     </g>
     <g id="line2d_43"/>
     <g id="text_21">
      <!-- 01-01 12 -->
      <g style="fill:#262626;" transform="translate(208.140775 366.597813)scale(0.1 -0.1)">
       <use xlink:href="#ArialMT-48"/>
       <use x="55.615234" xlink:href="#ArialMT-49"/>
       <use x="111.230469" xlink:href="#ArialMT-45"/>
       <use x="144.53125" xlink:href="#ArialMT-48"/>
       <use x="200.146484" xlink:href="#ArialMT-49"/>
       <use x="255.761719" xlink:href="#ArialMT-32"/>
       <use x="283.544922" xlink:href="#ArialMT-49"/>
       <use x="339.160156" xlink:href="#ArialMT-50"/>
      </g>
     </g>
    </g>
    <g id="xtick_15">
     <g id="line2d_44">
      <path clip-path="url(#p2c4ab51ae6)" d="M 273.073023 352.44 
L 273.073023 213.84 
" style="fill:none;stroke:#ffffff;stroke-linecap:round;"/>
     </g>
     <g id="line2d_45"/>
     <g id="text_22">
      <!-- 01-01 16 -->
      <g style="fill:#262626;" transform="translate(253.336304 366.597813)scale(0.1 -0.1)">
       <use xlink:href="#ArialMT-48"/>
       <use x="55.615234" xlink:href="#ArialMT-49"/>
       <use x="111.230469" xlink:href="#ArialMT-45"/>
       <use x="144.53125" xlink:href="#ArialMT-48"/>
       <use x="200.146484" xlink:href="#ArialMT-49"/>
       <use x="255.761719" xlink:href="#ArialMT-32"/>
       <use x="283.544922" xlink:href="#ArialMT-49"/>
       <use x="339.160156" xlink:href="#ArialMT-54"/>
      </g>
     </g>
    </g>
    <g id="xtick_16">
     <g id="line2d_46">
      <path clip-path="url(#p2c4ab51ae6)" d="M 318.268551 352.44 
L 318.268551 213.84 
" style="fill:none;stroke:#ffffff;stroke-linecap:round;"/>
     </g>
     <g id="line2d_47"/>
     <g id="text_23">
      <!-- 01-01 20 -->
      <g style="fill:#262626;" transform="translate(298.531832 366.597813)scale(0.1 -0.1)">
       <use xlink:href="#ArialMT-48"/>
       <use x="55.615234" xlink:href="#ArialMT-49"/>
       <use x="111.230469" xlink:href="#ArialMT-45"/>
       <use x="144.53125" xlink:href="#ArialMT-48"/>
       <use x="200.146484" xlink:href="#ArialMT-49"/>
       <use x="255.761719" xlink:href="#ArialMT-32"/>
       <use x="283.544922" xlink:href="#ArialMT-50"/>
       <use x="339.160156" xlink:href="#ArialMT-48"/>
      </g>
     </g>
    </g>
    <g id="xtick_17">
     <g id="line2d_48">
      <path clip-path="url(#p2c4ab51ae6)" d="M 363.464079 352.44 
L 363.464079 213.84 
" style="fill:none;stroke:#ffffff;stroke-linecap:round;"/>
     </g>
     <g id="line2d_49"/>
     <g id="text_24">
      <!-- 01-02 00 -->
      <g style="fill:#262626;" transform="translate(343.727361 366.597813)scale(0.1 -0.1)">
       <use xlink:href="#ArialMT-48"/>
       <use x="55.615234" xlink:href="#ArialMT-49"/>
       <use x="111.230469" xlink:href="#ArialMT-45"/>
       <use x="144.53125" xlink:href="#ArialMT-48"/>
       <use x="200.146484" xlink:href="#ArialMT-50"/>
       <use x="255.761719" xlink:href="#ArialMT-32"/>
       <use x="283.544922" xlink:href="#ArialMT-48"/>
       <use x="339.160156" xlink:href="#ArialMT-48"/>
      </g>
     </g>
    </g>
    <g id="xtick_18">
     <g id="line2d_50">
      <path clip-path="url(#p2c4ab51ae6)" d="M 408.659608 352.44 
L 408.659608 213.84 
" style="fill:none;stroke:#ffffff;stroke-linecap:round;"/>
     </g>
     <g id="line2d_51"/>
     <g id="text_25">
      <!-- 01-02 04 -->
      <g style="fill:#262626;" transform="translate(388.922889 366.597813)scale(0.1 -0.1)">
       <use xlink:href="#ArialMT-48"/>
       <use x="55.615234" xlink:href="#ArialMT-49"/>
       <use x="111.230469" xlink:href="#ArialMT-45"/>
       <use x="144.53125" xlink:href="#ArialMT-48"/>
       <use x="200.146484" xlink:href="#ArialMT-50"/>
       <use x="255.761719" xlink:href="#ArialMT-32"/>
       <use x="283.544922" xlink:href="#ArialMT-48"/>
       <use x="339.160156" xlink:href="#ArialMT-52"/>
      </g>
     </g>
    </g>
    <g id="xtick_19">
     <g id="line2d_52">
      <path clip-path="url(#p2c4ab51ae6)" d="M 453.855136 352.44 
L 453.855136 213.84 
" style="fill:none;stroke:#ffffff;stroke-linecap:round;"/>
     </g>
     <g id="line2d_53"/>
     <g id="text_26">
      <!-- 01-02 08 -->
      <g style="fill:#262626;" transform="translate(434.118417 366.597813)scale(0.1 -0.1)">
       <use xlink:href="#ArialMT-48"/>
       <use x="55.615234" xlink:href="#ArialMT-49"/>
       <use x="111.230469" xlink:href="#ArialMT-45"/>
       <use x="144.53125" xlink:href="#ArialMT-48"/>
       <use x="200.146484" xlink:href="#ArialMT-50"/>
       <use x="255.761719" xlink:href="#ArialMT-32"/>
       <use x="283.544922" xlink:href="#ArialMT-48"/>
       <use x="339.160156" xlink:href="#ArialMT-56"/>
      </g>
     </g>
    </g>
    <g id="xtick_20">
     <g id="line2d_54">
      <path clip-path="url(#p2c4ab51ae6)" d="M 499.050664 352.44 
L 499.050664 213.84 
" style="fill:none;stroke:#ffffff;stroke-linecap:round;"/>
     </g>
     <g id="line2d_55"/>
     <g id="text_27">
      <!-- 01-02 12 -->
      <g style="fill:#262626;" transform="translate(479.313946 366.597813)scale(0.1 -0.1)">
       <use xlink:href="#ArialMT-48"/>
       <use x="55.615234" xlink:href="#ArialMT-49"/>
       <use x="111.230469" xlink:href="#ArialMT-45"/>
       <use x="144.53125" xlink:href="#ArialMT-48"/>
       <use x="200.146484" xlink:href="#ArialMT-50"/>
       <use x="255.761719" xlink:href="#ArialMT-32"/>
       <use x="283.544922" xlink:href="#ArialMT-49"/>
       <use x="339.160156" xlink:href="#ArialMT-50"/>
      </g>
     </g>
    </g>
   </g>
   <g id="matplotlib.axis_4">
    <g id="ytick_4">
     <g id="line2d_56">
      <path clip-path="url(#p2c4ab51ae6)" d="M 72 334.346018 
L 518.4 334.346018 
" style="fill:none;stroke:#ffffff;stroke-linecap:round;"/>
     </g>
     <g id="line2d_57"/>
     <g id="text_28">
      <!-- 0.2 -->
      <defs>
       <path d="M 9.078125 0 
L 9.078125 10.015625 
L 19.09375 10.015625 
L 19.09375 0 
z
" id="ArialMT-46"/>
      </defs>
      <g style="fill:#262626;" transform="translate(51.1 337.924924)scale(0.1 -0.1)">
       <use xlink:href="#ArialMT-48"/>
       <use x="55.615234" xlink:href="#ArialMT-46"/>
       <use x="83.398438" xlink:href="#ArialMT-50"/>
      </g>
     </g>
    </g>
    <g id="ytick_5">
     <g id="line2d_58">
      <path clip-path="url(#p2c4ab51ae6)" d="M 72 305.794513 
L 518.4 305.794513 
" style="fill:none;stroke:#ffffff;stroke-linecap:round;"/>
     </g>
     <g id="line2d_59"/>
     <g id="text_29">
      <!-- 0.4 -->
      <g style="fill:#262626;" transform="translate(51.1 309.37342)scale(0.1 -0.1)">
       <use xlink:href="#ArialMT-48"/>
       <use x="55.615234" xlink:href="#ArialMT-46"/>
       <use x="83.398438" xlink:href="#ArialMT-52"/>
      </g>
     </g>
    </g>
    <g id="ytick_6">
     <g id="line2d_60">
      <path clip-path="url(#p2c4ab51ae6)" d="M 72 277.243009 
L 518.4 277.243009 
" style="fill:none;stroke:#ffffff;stroke-linecap:round;"/>
     </g>
     <g id="line2d_61"/>
     <g id="text_30">
      <!-- 0.6 -->
      <g style="fill:#262626;" transform="translate(51.1 280.821915)scale(0.1 -0.1)">
       <use xlink:href="#ArialMT-48"/>
       <use x="55.615234" xlink:href="#ArialMT-46"/>
       <use x="83.398438" xlink:href="#ArialMT-54"/>
      </g>
     </g>
    </g>
    <g id="ytick_7">
     <g id="line2d_62">
      <path clip-path="url(#p2c4ab51ae6)" d="M 72 248.691504 
L 518.4 248.691504 
" style="fill:none;stroke:#ffffff;stroke-linecap:round;"/>
     </g>
     <g id="line2d_63"/>
     <g id="text_31">
      <!-- 0.8 -->
      <g style="fill:#262626;" transform="translate(51.1 252.270411)scale(0.1 -0.1)">
       <use xlink:href="#ArialMT-48"/>
       <use x="55.615234" xlink:href="#ArialMT-46"/>
       <use x="83.398438" xlink:href="#ArialMT-56"/>
      </g>
     </g>
    </g>
    <g id="ytick_8">
     <g id="line2d_64">
      <path clip-path="url(#p2c4ab51ae6)" d="M 72 220.14 
L 518.4 220.14 
" style="fill:none;stroke:#ffffff;stroke-linecap:round;"/>
     </g>
     <g id="line2d_65"/>
     <g id="text_32">
      <!-- 1.0 -->
      <g style="fill:#262626;" transform="translate(51.1 223.718906)scale(0.1 -0.1)">
       <use xlink:href="#ArialMT-49"/>
       <use x="55.615234" xlink:href="#ArialMT-46"/>
       <use x="83.398438" xlink:href="#ArialMT-48"/>
      </g>
     </g>
    </g>
   </g>
   <g id="line2d_66">
    <path clip-path="url(#p2c4ab51ae6)" d="M 92.290909 220.14 
L 498.109091 220.14 
" style="fill:none;stroke:#000000;stroke-dasharray:1.75,2.8875;stroke-dashoffset:0;stroke-width:1.75;"/>
    <defs>
     <path d="M 0 3.5 
C 0.928211 3.5 1.81853 3.131218 2.474874 2.474874 
C 3.131218 1.81853 3.5 0.928211 3.5 0 
C 3.5 -0.928211 3.131218 -1.81853 2.474874 -2.474874 
C 1.81853 -3.131218 0.928211 -3.5 0 -3.5 
C -0.928211 -3.5 -1.81853 -3.131218 -2.474874 -2.474874 
C -3.131218 -1.81853 -3.5 -0.928211 -3.5 0 
C -3.5 0.928211 -3.131218 1.81853 -2.474874 2.474874 
C -1.81853 3.131218 -0.928211 3.5 0 3.5 
z
" id="m9269433780"/>
    </defs>
    <g clip-path="url(#p2c4ab51ae6)">
     <use x="92.290909" xlink:href="#m9269433780" y="220.14"/>
     <use x="498.109091" xlink:href="#m9269433780" y="220.14"/>
    </g>
   </g>
   <g id="line2d_67">
    <path clip-path="url(#p2c4ab51ae6)" d="M 92.290909 282.903153 
L 94.174056 282.7909 
L 95.11563 285.2569 
L 96.998777 285.191445 
L 97.94035 286.900746 
L 99.823497 286.86669 
L 100.765071 292.662621 
L 102.648218 292.641833 
L 103.589791 294.144338 
L 105.472938 294.132275 
L 106.414512 296.407109 
L 108.297659 296.398507 
L 109.239232 298.911602 
L 111.122379 298.904186 
L 112.063953 301.027977 
L 113.9471 301.021316 
L 114.888673 301.319902 
L 116.77182 301.315566 
L 117.713394 302.52545 
L 119.596541 302.521224 
L 120.538114 305.567945 
L 122.421261 305.561745 
L 123.362835 307.424243 
L 130.895423 307.479004 
L 131.836996 306.650883 
L 133.720143 306.650513 
L 134.661717 327.904222 
L 136.544864 327.886648 
L 137.486437 324.631824 
L 139.369584 324.619784 
L 140.311158 322.069107 
L 142.194305 322.062693 
L 143.135879 319.683106 
L 145.019026 319.682018 
L 145.960599 313.547171 
L 147.843746 313.55678 
L 148.78532 312.076732 
L 150.668467 312.086803 
L 151.61004 309.904206 
L 153.493187 309.914152 
L 154.434761 308.190034 
L 156.317908 308.199206 
L 157.259481 300.268409 
L 159.142628 300.288457 
L 160.084202 292.555366 
L 161.967349 292.581262 
L 162.908922 283.732272 
L 164.792069 283.761384 
L 165.733643 274.06279 
L 167.61679 274.092647 
L 168.558363 265.902625 
L 170.44151 265.928629 
L 171.383084 257.49339 
L 173.266231 257.5152 
L 174.207804 257.738695 
L 176.090951 257.746988 
L 177.032525 249.983669 
L 178.915672 249.995719 
L 179.857245 243.759084 
L 181.740392 243.770204 
L 182.681966 233.037128 
L 184.565113 233.053177 
L 185.506686 242.302108 
L 187.389833 242.297971 
L 188.331407 241.627615 
L 190.214554 241.626338 
L 191.156127 239.740624 
L 193.039274 239.742483 
L 193.980848 237.60593 
L 195.863995 237.608664 
L 196.805568 239.479025 
L 198.688715 239.477992 
L 199.630289 242.541535 
L 201.513436 242.5383 
L 202.455009 241.164495 
L 204.338157 241.164538 
L 205.27973 240.953966 
L 207.162877 240.954142 
L 208.104451 243.635662 
L 209.987598 243.633222 
L 210.929171 244.159729 
L 212.812318 244.158341 
L 213.753892 245.435767 
L 215.637039 245.434275 
L 216.578612 246.149054 
L 218.461759 246.147672 
L 219.403333 249.958498 
L 221.28648 249.954139 
L 222.228053 249.797862 
L 224.1112 249.796164 
L 225.052774 249.274329 
L 226.935921 249.274343 
L 227.877494 250.511912 
L 229.760641 250.510601 
L 230.702215 253.151797 
L 232.585362 253.148386 
L 233.526935 252.675331 
L 235.410082 252.674431 
L 236.351656 255.71659 
L 238.234803 255.713221 
L 239.176376 256.110036 
L 241.059523 256.108134 
L 242.001097 257.245263 
L 243.884244 257.243467 
L 244.825817 257.755677 
L 246.708964 257.754471 
L 247.650538 259.572861 
L 249.533685 259.570362 
L 250.475258 259.240131 
L 252.358405 259.239399 
L 253.299979 259.936965 
L 255.183126 259.936072 
L 256.124699 259.662561 
L 258.007846 259.662471 
L 258.94942 257.951073 
L 260.832567 257.953173 
L 261.77414 257.790952 
L 263.657288 257.791862 
L 264.598861 259.194768 
L 266.482008 259.19353 
L 267.423582 258.920368 
L 269.306729 258.920135 
L 270.248302 258.322744 
L 272.131449 258.323361 
L 273.073023 258.543513 
L 274.95617 258.543554 
L 275.897743 259.198652 
L 277.78089 259.197771 
L 278.722464 258.4951 
L 280.605611 258.495686 
L 281.547184 258.72544 
L 283.430331 258.725335 
L 284.371905 257.868867 
L 286.255052 257.869619 
L 287.196625 258.574237 
L 289.079772 258.573863 
L 290.021346 258.125381 
L 291.904493 258.12557 
L 292.846066 258.844256 
L 294.729213 258.843506 
L 295.670787 258.6913 
L 297.553934 258.691157 
L 298.495507 258.123346 
L 300.378654 258.12399 
L 301.320228 257.036937 
L 306.028095 257.020829 
L 306.969669 256.797539 
L 308.852816 256.798017 
L 309.794389 257.459913 
L 311.677536 257.459464 
L 312.61911 257.166026 
L 317.326977 257.114239 
L 318.268551 257.517885 
L 320.151698 257.517526 
L 321.093271 257.807337 
L 322.976418 257.806816 
L 323.917992 258.080579 
L 325.801139 258.079989 
L 326.742713 258.461426 
L 328.62586 258.460853 
L 329.567433 257.983006 
L 331.45058 257.983337 
L 332.392154 259.988017 
L 334.275301 259.986062 
L 335.216874 260.420387 
L 337.100021 260.419026 
L 338.041595 264.291857 
L 339.924742 264.287138 
L 340.866315 265.377339 
L 342.749462 265.373946 
L 343.691036 269.950477 
L 345.574183 269.944018 
L 346.515756 271.994874 
L 348.398903 271.989559 
L 349.340477 283.339448 
L 351.223624 283.32535 
L 352.165197 287.707081 
L 354.048344 287.695207 
L 354.989918 295.894225 
L 356.873065 295.87963 
L 357.814638 298.334587 
L 359.697785 298.323558 
L 360.639359 305.520723 
L 363.464079 305.608895 
L 365.347226 305.600314 
L 366.2888 306.109201 
L 368.171947 306.103449 
L 369.11352 304.422617 
L 370.996667 304.421276 
L 371.938241 306.322799 
L 373.821388 306.319968 
L 374.762961 307.012372 
L 376.646108 307.009617 
L 377.587682 308.549296 
L 379.470829 308.545615 
L 380.412402 308.056865 
L 382.295549 308.055069 
L 383.237123 310.672624 
L 385.12027 310.668327 
L 386.061844 309.96131 
L 387.944991 309.959144 
L 388.886564 309.737491 
L 390.769711 309.736213 
L 391.711285 310.110865 
L 393.594432 310.109282 
L 394.536005 313.265514 
L 396.419152 313.260703 
L 397.360726 312.375105 
L 399.243873 312.372759 
L 400.185446 311.614837 
L 402.068593 311.614537 
L 403.010167 309.934521 
L 404.893314 309.93663 
L 405.834887 330.467807 
L 407.718034 330.451712 
L 408.659608 326.570726 
L 410.542755 326.56006 
L 411.484328 322.954473 
L 413.367475 322.950178 
L 414.309049 319.458864 
L 416.192196 319.461145 
L 417.133769 312.553496 
L 419.016916 312.567764 
L 419.95849 310.239233 
L 421.841637 310.254059 
L 422.78321 307.332164 
L 424.666357 307.34641 
L 425.607931 304.798655 
L 427.491078 304.811771 
L 428.432651 296.105316 
L 430.315798 296.129168 
L 431.257372 287.343947 
L 433.140519 287.373232 
L 434.082092 277.458017 
L 435.965239 277.489553 
L 436.906813 267.013322 
L 438.78996 267.04405 
L 439.731533 257.855029 
L 441.61468 257.881358 
L 442.556254 248.680463 
L 444.439401 248.702102 
L 445.380975 247.880227 
L 447.264122 247.889087 
L 448.205695 239.000588 
L 450.088842 239.013433 
L 451.030416 231.70968 
L 452.913563 231.721602 
L 453.855136 221.426102 
L 455.738283 221.440856 
L 456.679857 229.538884 
L 458.563004 229.53539 
L 459.504577 227.26166 
L 461.387724 227.262387 
L 462.329298 224.321152 
L 464.212445 224.324589 
L 465.154018 222.012749 
L 467.037165 222.015905 
L 467.978739 222.261162 
L 469.861886 222.261793 
L 470.803459 224.636642 
L 472.686606 224.634816 
L 473.62818 222.259089 
L 475.511327 222.260546 
L 476.4529 221.456582 
L 478.336047 221.457801 
L 479.277621 223.26592 
L 480.219194 231.875467 
L 481.160768 242.370737 
L 482.102341 251.168263 
L 483.043915 257.808573 
L 483.985488 262.651198 
L 484.927062 266.265363 
L 485.868635 268.790761 
L 486.810209 270.614832 
L 487.751782 271.920078 
L 488.693356 271.615664 
L 490.576503 267.049804 
L 491.518076 261.682648 
L 492.45965 255.549868 
L 493.401223 247.452762 
L 494.342797 241.468589 
L 496.225944 231.780674 
L 497.167517 228.906599 
L 498.109091 226.935122 
L 498.109091 226.935122 
" style="fill:none;stroke:#4c72b0;stroke-linecap:round;stroke-width:1.75;"/>
   </g>
   <g id="line2d_68">
    <path clip-path="url(#p2c4ab51ae6)" d="M 92.290909 283.436961 
L 94.174056 283.333026 
L 95.11563 284.454561 
L 96.998777 284.393377 
L 97.94035 286.367525 
L 99.823497 286.336601 
L 100.765071 291.907736 
L 102.648218 291.88929 
L 103.589791 293.357932 
L 105.472938 293.347479 
L 106.414512 295.413931 
L 108.297659 295.406631 
L 109.239232 297.847222 
L 111.122379 297.840814 
L 112.063953 299.822978 
L 116.77182 299.912802 
L 117.713394 300.275761 
L 119.596541 300.272941 
L 120.538114 303.091896 
L 122.421261 303.08687 
L 123.362835 305.341534 
L 125.245982 305.336027 
L 126.187555 305.091376 
L 128.070702 305.08818 
L 129.012276 305.541491 
L 130.895423 305.539317 
L 131.836996 304.377785 
L 133.720143 304.377858 
L 134.661717 327.261001 
L 136.544864 327.243648 
L 137.486437 324.334304 
L 139.369584 324.322066 
L 140.311158 321.40735 
L 142.194305 321.401148 
L 143.135879 318.798548 
L 145.019026 318.797844 
L 145.960599 313.003873 
L 147.843746 313.012715 
L 148.78532 311.794436 
L 150.668467 311.803382 
L 151.61004 308.963458 
L 153.493187 308.973453 
L 154.434761 307.519211 
L 156.317908 307.527637 
L 157.259481 301.119703 
L 159.142628 301.135329 
L 160.084202 294.096054 
L 161.967349 294.117058 
L 162.908922 285.537817 
L 164.792069 285.562683 
L 165.733643 276.137127 
L 167.61679 276.163168 
L 168.558363 269.352136 
L 170.44151 269.373438 
L 171.383084 260.981599 
L 173.266231 261.000545 
L 174.207804 261.948664 
L 176.090951 261.955079 
L 177.032525 254.862431 
L 178.915672 254.872484 
L 179.857245 247.454545 
L 181.740392 247.465422 
L 182.681966 237.317603 
L 184.565113 237.331998 
L 185.506686 246.264699 
L 187.389833 246.260858 
L 188.331407 245.569513 
L 190.214554 245.568352 
L 191.156127 244.614577 
L 193.039274 244.615647 
L 193.980848 241.988843 
L 195.863995 241.991551 
L 196.805568 243.548768 
L 198.688715 243.548043 
L 199.630289 247.346494 
L 201.513436 247.343075 
L 202.455009 245.555337 
L 204.338157 245.555585 
L 205.27973 244.902782 
L 207.162877 244.903307 
L 208.104451 248.106946 
L 209.987598 248.104421 
L 210.929171 248.888354 
L 212.812318 248.886849 
L 213.753892 250.983882 
L 215.637039 250.981902 
L 216.578612 251.386767 
L 218.461759 251.385577 
L 219.403333 255.142224 
L 221.28648 255.138282 
L 222.228053 254.522066 
L 224.1112 254.520872 
L 225.052774 254.031439 
L 226.935921 254.031542 
L 227.877494 255.006639 
L 229.760641 255.005642 
L 230.702215 257.169624 
L 232.585362 257.166873 
L 233.526935 256.614627 
L 235.410082 256.613988 
L 236.351656 259.858377 
L 238.234803 259.855185 
L 239.176376 260.005065 
L 241.059523 260.003495 
L 242.001097 261.45113 
L 243.884244 261.449312 
L 244.825817 262.101116 
L 246.708964 262.099871 
L 247.650538 263.640593 
L 249.533685 263.638471 
L 250.475258 263.193295 
L 252.358405 263.192778 
L 253.299979 264.151041 
L 255.183126 264.150071 
L 256.124699 263.815203 
L 258.007846 263.815135 
L 258.94942 262.691258 
L 260.832567 262.692733 
L 261.77414 262.047568 
L 263.657288 262.048644 
L 264.598861 263.29349 
L 266.482008 263.292521 
L 267.423582 263.147916 
L 269.306729 263.147656 
L 270.248302 262.63768 
L 272.131449 262.638173 
L 273.073023 262.865481 
L 274.95617 262.865489 
L 275.897743 263.034923 
L 277.78089 263.034469 
L 278.722464 262.881565 
L 280.605611 262.881783 
L 281.547184 262.75538 
L 283.430331 262.755468 
L 284.371905 261.537689 
L 286.255052 261.538717 
L 287.196625 262.404575 
L 289.079772 262.404191 
L 290.021346 261.654396 
L 291.904493 261.654796 
L 292.846066 262.194078 
L 297.553934 262.098624 
L 298.495507 261.698099 
L 300.378654 261.69857 
L 301.320228 260.411304 
L 306.028095 260.446849 
L 306.969669 260.263963 
L 308.852816 260.26436 
L 309.794389 261.156544 
L 311.677536 261.155932 
L 312.61911 260.834675 
L 317.326977 260.848932 
L 318.268551 261.311438 
L 320.151698 261.311043 
L 321.093271 261.472716 
L 325.801139 261.520179 
L 326.742713 262.102237 
L 328.62586 262.101613 
L 329.567433 261.737551 
L 331.45058 261.737746 
L 332.392154 263.85745 
L 334.275301 263.855527 
L 335.216874 264.241589 
L 337.100021 264.24035 
L 338.041595 267.947491 
L 339.924742 267.943274 
L 340.866315 268.733498 
L 342.749462 268.730669 
L 343.691036 272.784211 
L 345.574183 272.778745 
L 346.515756 274.494323 
L 348.398903 274.489873 
L 349.340477 285.07381 
L 351.223624 285.061441 
L 352.165197 289.590551 
L 354.048344 289.579786 
L 354.989918 296.837321 
L 356.873065 296.824583 
L 357.814638 299.033703 
L 359.697785 299.024088 
L 360.639359 305.868453 
L 362.522506 305.856498 
L 363.464079 306.049573 
L 368.171947 306.081397 
L 369.11352 304.097839 
L 370.996667 304.097386 
L 371.938241 305.944363 
L 373.821388 305.942213 
L 374.762961 306.317049 
L 376.646108 306.315084 
L 377.587682 307.694363 
L 379.470829 307.691414 
L 380.412402 307.203272 
L 382.295549 307.201901 
L 383.237123 309.648692 
L 385.12027 309.645022 
L 386.061844 308.687804 
L 387.944991 308.686287 
L 388.886564 307.891189 
L 390.769711 307.890959 
L 391.711285 307.46205 
L 393.594432 307.461987 
L 394.536005 310.950838 
L 396.419152 310.946729 
L 397.360726 310.05165 
L 399.243873 310.049764 
L 400.185446 309.551994 
L 402.068593 309.551651 
L 403.010167 307.558524 
L 404.893314 307.560925 
L 405.834887 329.643543 
L 407.718034 329.627539 
L 408.659608 326.097166 
L 410.542755 326.086096 
L 411.484328 322.140404 
L 413.367475 322.136057 
L 414.309049 318.476725 
L 416.192196 318.479043 
L 417.133769 311.929913 
L 419.016916 311.942874 
L 419.95849 309.878772 
L 421.841637 309.89191 
L 422.78321 306.316255 
L 424.666357 306.330133 
L 425.607931 304.1037 
L 427.491078 304.115521 
L 428.432651 296.947348 
L 430.315798 296.966131 
L 431.257372 288.932201 
L 433.140519 288.956029 
L 434.082092 279.332706 
L 435.965239 279.359647 
L 436.906813 269.183058 
L 438.78996 269.209815 
L 439.731533 261.438441 
L 441.61468 261.460086 
L 442.556254 252.29716 
L 447.264122 252.302764 
L 448.205695 243.851672 
L 450.088842 243.862728 
L 451.030416 235.642821 
L 452.913563 235.654245 
L 453.855136 226.000017 
L 455.738283 226.013128 
L 456.679857 233.751834 
L 458.563004 233.748602 
L 459.504577 231.533651 
L 461.387724 231.534293 
L 462.329298 229.433947 
L 464.212445 229.43655 
L 465.154018 226.642527 
L 469.861886 226.689266 
L 470.803459 229.875844 
L 472.686606 229.873676 
L 473.62818 226.907624 
L 475.511327 226.909255 
L 476.4529 225.961262 
L 478.336047 225.962526 
L 479.277621 228.048849 
L 480.219194 236.705919 
L 481.160768 247.10402 
L 482.102341 256.094539 
L 483.043915 262.487295 
L 483.985488 267.109845 
L 484.927062 270.94288 
L 485.868635 273.299501 
L 486.810209 274.989608 
L 487.751782 276.133467 
L 488.693356 275.75411 
L 490.576503 271.070018 
L 491.518076 265.736426 
L 492.45965 259.680778 
L 493.401223 251.277691 
L 494.342797 245.435859 
L 496.225944 236.16945 
L 497.167517 233.494654 
L 498.109091 231.695631 
L 498.109091 231.695631 
" style="fill:none;stroke:#55a868;stroke-linecap:round;stroke-width:1.75;"/>
   </g>
   <g id="line2d_69">
    <path clip-path="url(#p2c4ab51ae6)" d="M 92.290909 314.601672 
L 94.174056 314.51338 
L 95.11563 319.602893 
L 96.998777 319.552979 
L 97.94035 319.835937 
L 99.823497 319.807499 
L 100.765071 323.811374 
L 102.648218 323.79285 
L 103.589791 324.764599 
L 105.472938 324.753172 
L 106.414512 326.65042 
L 108.297659 326.641848 
L 109.239232 328.31022 
L 111.122379 328.303147 
L 112.063953 329.930938 
L 113.9471 329.924611 
L 114.888673 330.640288 
L 116.77182 330.635574 
L 117.713394 333.640446 
L 119.596541 333.634157 
L 120.538114 336.036014 
L 125.245982 336.051917 
L 126.187555 336.359796 
L 128.070702 336.356222 
L 129.012276 335.702468 
L 130.895423 335.700961 
L 131.836996 336.119966 
L 133.720143 336.118545 
L 134.661717 344.147773 
L 136.544864 344.136882 
L 137.486437 341.293987 
L 139.369584 341.287472 
L 140.311158 340.780711 
L 142.194305 340.776378 
L 143.135879 339.987446 
L 145.019026 339.985766 
L 145.960599 335.468676 
L 147.843746 335.476383 
L 148.78532 333.899848 
L 150.668467 333.908799 
L 151.61004 334.412805 
L 153.493187 334.418497 
L 154.434761 332.677043 
L 156.317908 332.684438 
L 157.259481 323.910777 
L 159.142628 323.934509 
L 160.084202 317.524468 
L 161.967349 317.552898 
L 162.908922 311.639125 
L 164.792069 311.667688 
L 165.733643 305.24743 
L 167.61679 305.275262 
L 168.558363 296.739876 
L 170.44151 296.767855 
L 171.383084 291.710102 
L 173.266231 291.730644 
L 174.207804 289.896825 
L 176.090951 289.906774 
L 177.032525 283.541784 
L 178.915672 283.554255 
L 179.857245 283.104708 
L 181.740392 283.111879 
L 182.681966 275.239244 
L 184.565113 275.253128 
L 185.506686 281.527152 
L 187.389833 281.523925 
L 188.331407 281.188243 
L 190.214554 281.187181 
L 191.156127 277.556006 
L 195.863995 277.63888 
L 196.805568 279.583295 
L 198.688715 279.581855 
L 199.630289 279.383421 
L 201.513436 279.382025 
L 202.455009 279.699778 
L 204.338157 279.699247 
L 205.27973 280.774964 
L 207.162877 280.774122 
L 208.104451 280.928903 
L 209.987598 280.927706 
L 210.929171 280.53808 
L 212.812318 280.537587 
L 213.753892 279.063468 
L 215.637039 279.06392 
L 216.578612 280.322812 
L 218.461759 280.321481 
L 219.403333 282.700179 
L 221.28648 282.696497 
L 222.228053 283.852028 
L 224.1112 283.849667 
L 225.052774 283.456203 
L 226.935921 283.455969 
L 227.877494 284.892401 
L 229.760641 284.890781 
L 230.702215 287.731484 
L 235.410082 287.664132 
L 236.351656 288.89745 
L 238.234803 288.894998 
L 239.176376 289.796918 
L 241.059523 289.794903 
L 242.001097 289.618971 
L 246.708964 289.538865 
L 247.650538 291.356655 
L 249.533685 291.354171 
L 250.475258 291.472428 
L 252.358405 291.471412 
L 253.299979 291.173103 
L 258.007846 291.178854 
L 258.94942 288.583608 
L 260.832567 288.586531 
L 261.77414 289.800954 
L 263.657288 289.801039 
L 264.598861 291.0512 
L 266.482008 291.049748 
L 267.423582 290.541209 
L 269.306729 290.541144 
L 270.248302 289.954272 
L 274.95617 290.064612 
L 275.897743 291.765071 
L 277.78089 291.763396 
L 278.722464 289.861273 
L 280.605611 289.862613 
L 281.547184 290.96283 
L 283.430331 290.962248 
L 284.371905 291.440296 
L 289.079772 291.415277 
L 290.021346 291.969589 
L 291.904493 291.969128 
L 292.846066 292.87645 
L 294.729213 292.875316 
L 295.670787 292.630655 
L 297.553934 292.630495 
L 298.495507 291.844386 
L 303.203375 291.752229 
L 304.144948 291.60142 
L 306.028095 291.601965 
L 306.969669 291.361647 
L 308.852816 291.362148 
L 309.794389 291.125394 
L 314.502257 291.029305 
L 315.44383 290.819486 
L 320.151698 290.896443 
L 321.093271 291.413597 
L 322.976418 291.412959 
L 323.917992 292.184851 
L 325.801139 292.183838 
L 326.742713 291.863276 
L 328.62586 291.863077 
L 329.567433 291.27472 
L 331.45058 291.27528 
L 332.392154 292.137445 
L 334.275301 292.136217 
L 335.216874 292.521434 
L 337.100021 292.520309 
L 338.041595 295.237666 
L 339.924742 295.233537 
L 340.866315 296.685353 
L 342.749462 296.681838 
L 343.691036 300.780077 
L 345.574183 300.7736 
L 346.515756 302.883732 
L 348.398903 302.878276 
L 349.340477 311.602071 
L 351.223624 311.589129 
L 352.165197 313.755683 
L 354.048344 313.74572 
L 354.989918 321.10014 
L 356.873065 321.086558 
L 357.814638 323.190848 
L 359.697785 323.180553 
L 360.639359 328.352121 
L 362.522506 328.340111 
L 363.464079 328.151744 
L 365.347226 328.144232 
L 366.2888 329.702326 
L 368.171947 329.696 
L 369.11352 329.532418 
L 370.996667 329.529224 
L 371.938241 330.790741 
L 373.821388 330.787234 
L 374.762961 332.053776 
L 376.646108 332.05002 
L 377.587682 333.386633 
L 379.470829 333.382488 
L 380.412402 333.094608 
L 382.295549 333.092401 
L 383.237123 335.088367 
L 385.12027 335.084152 
L 386.061844 335.348469 
L 387.944991 335.345441 
L 388.886564 336.770436 
L 390.769711 336.766848 
L 391.711285 339.164993 
L 393.594432 339.159946 
L 394.536005 340.106538 
L 396.419152 340.101818 
L 397.360726 339.608875 
L 399.243873 339.606257 
L 400.185446 338.45702 
L 402.068593 338.456959 
L 403.010167 338.322014 
L 404.893314 338.322456 
L 405.834887 346.14 
L 407.718034 346.130328 
L 408.659608 342.906805 
L 410.542755 342.901652 
L 411.484328 341.712191 
L 413.367475 341.709817 
L 414.309049 340.120693 
L 416.192196 340.121928 
L 417.133769 335.104414 
L 419.016916 335.116311 
L 419.95849 333.035656 
L 424.666357 333.119624 
L 425.607931 330.75632 
L 427.491078 330.767516 
L 428.432651 321.497786 
L 430.315798 321.525497 
L 431.257372 314.343444 
L 433.140519 314.375392 
L 434.082092 307.77715 
L 435.965239 307.808078 
L 436.906813 300.860265 
L 438.78996 300.889026 
L 439.731533 291.66377 
L 441.61468 291.691891 
L 442.556254 286.200457 
L 444.439401 286.220663 
L 445.380975 283.565747 
L 447.264122 283.576105 
L 448.205695 277.184615 
L 450.088842 277.196985 
L 451.030416 275.403572 
L 452.913563 275.411906 
L 453.855136 267.643659 
L 455.738283 267.656755 
L 456.679857 273.373592 
L 458.563004 273.370834 
L 459.504577 271.879862 
L 461.387724 271.880515 
L 462.329298 267.878047 
L 467.037165 267.837817 
L 467.978739 268.529986 
L 469.861886 268.530135 
L 470.803459 267.720082 
L 472.686606 267.71994 
L 473.62818 267.929177 
L 478.336047 267.849821 
L 479.277621 268.154435 
L 480.219194 273.067743 
L 481.160768 279.477733 
L 483.043915 288.666799 
L 483.985488 292.099571 
L 484.927062 293.622763 
L 485.868635 295.559371 
L 486.810209 296.990856 
L 487.751782 298.192846 
L 488.693356 298.217764 
L 489.634929 296.91312 
L 490.576503 295.864347 
L 491.518076 292.63008 
L 495.28437 277.564708 
L 496.225944 274.209764 
L 497.167517 271.986255 
L 498.109091 270.36408 
L 498.109091 270.36408 
" style="fill:none;stroke:#c44e52;stroke-linecap:round;stroke-width:1.75;"/>
   </g>
   <g id="patch_8">
    <path d="M 72 352.44 
L 72 213.84 
" style="fill:none;"/>
   </g>
   <g id="patch_9">
    <path d="M 518.4 352.44 
L 518.4 213.84 
" style="fill:none;"/>
   </g>
   <g id="patch_10">
    <path d="M 72 352.44 
L 518.4 352.44 
" style="fill:none;"/>
   </g>
   <g id="patch_11">
    <path d="M 72 213.84 
L 518.4 213.84 
" style="fill:none;"/>
   </g>
   <g id="text_33">
    <!-- Courant numbers -->
    <defs>
     <path d="M 58.796875 25.09375 
L 68.265625 22.703125 
Q 65.28125 11.03125 57.546875 4.90625 
Q 49.8125 -1.21875 38.625 -1.21875 
Q 27.046875 -1.21875 19.796875 3.484375 
Q 12.546875 8.203125 8.765625 17.140625 
Q 4.984375 26.078125 4.984375 36.328125 
Q 4.984375 47.515625 9.25 55.828125 
Q 13.53125 64.15625 21.40625 68.46875 
Q 29.296875 72.796875 38.765625 72.796875 
Q 49.515625 72.796875 56.828125 67.328125 
Q 64.15625 61.859375 67.046875 51.953125 
L 57.71875 49.75 
Q 55.21875 57.5625 50.484375 61.125 
Q 45.75 64.703125 38.578125 64.703125 
Q 30.328125 64.703125 24.78125 60.734375 
Q 19.234375 56.78125 16.984375 50.109375 
Q 14.75 43.453125 14.75 36.375 
Q 14.75 27.25 17.40625 20.4375 
Q 20.0625 13.625 25.671875 10.25 
Q 31.296875 6.890625 37.84375 6.890625 
Q 45.796875 6.890625 51.3125 11.46875 
Q 56.84375 16.0625 58.796875 25.09375 
z
" id="ArialMT-67"/>
     <path d="M 3.328125 25.921875 
Q 3.328125 40.328125 11.328125 47.265625 
Q 18.015625 53.03125 27.640625 53.03125 
Q 38.328125 53.03125 45.109375 46.015625 
Q 51.90625 39.015625 51.90625 26.65625 
Q 51.90625 16.65625 48.90625 10.90625 
Q 45.90625 5.171875 40.15625 2 
Q 34.421875 -1.171875 27.640625 -1.171875 
Q 16.75 -1.171875 10.03125 5.8125 
Q 3.328125 12.796875 3.328125 25.921875 
z
M 12.359375 25.921875 
Q 12.359375 15.96875 16.703125 11.015625 
Q 21.046875 6.0625 27.640625 6.0625 
Q 34.1875 6.0625 38.53125 11.03125 
Q 42.875 16.015625 42.875 26.21875 
Q 42.875 35.84375 38.5 40.796875 
Q 34.125 45.75 27.640625 45.75 
Q 21.046875 45.75 16.703125 40.8125 
Q 12.359375 35.890625 12.359375 25.921875 
z
" id="ArialMT-111"/>
     <path d="M 40.578125 0 
L 40.578125 7.625 
Q 34.515625 -1.171875 24.125 -1.171875 
Q 19.53125 -1.171875 15.546875 0.578125 
Q 11.578125 2.34375 9.640625 5 
Q 7.71875 7.671875 6.9375 11.53125 
Q 6.390625 14.109375 6.390625 19.734375 
L 6.390625 51.859375 
L 15.1875 51.859375 
L 15.1875 23.09375 
Q 15.1875 16.21875 15.71875 13.8125 
Q 16.546875 10.359375 19.234375 8.375 
Q 21.921875 6.390625 25.875 6.390625 
Q 29.828125 6.390625 33.296875 8.421875 
Q 36.765625 10.453125 38.203125 13.9375 
Q 39.65625 17.4375 39.65625 24.078125 
L 39.65625 51.859375 
L 48.4375 51.859375 
L 48.4375 0 
z
" id="ArialMT-117"/>
     <path d="M 6.59375 0 
L 6.59375 51.859375 
L 14.5 51.859375 
L 14.5 44.484375 
Q 20.21875 53.03125 31 53.03125 
Q 35.6875 53.03125 39.625 51.34375 
Q 43.5625 49.65625 45.515625 46.921875 
Q 47.46875 44.1875 48.25 40.4375 
Q 48.734375 37.984375 48.734375 31.890625 
L 48.734375 0 
L 39.9375 0 
L 39.9375 31.546875 
Q 39.9375 36.921875 38.90625 39.578125 
Q 37.890625 42.234375 35.28125 43.8125 
Q 32.671875 45.40625 29.15625 45.40625 
Q 23.53125 45.40625 19.453125 41.84375 
Q 15.375 38.28125 15.375 28.328125 
L 15.375 0 
z
" id="ArialMT-110"/>
     <path d="M 6.59375 0 
L 6.59375 51.859375 
L 14.453125 51.859375 
L 14.453125 44.578125 
Q 16.890625 48.390625 20.9375 50.703125 
Q 25 53.03125 30.171875 53.03125 
Q 35.9375 53.03125 39.625 50.640625 
Q 43.3125 48.25 44.828125 43.953125 
Q 50.984375 53.03125 60.84375 53.03125 
Q 68.5625 53.03125 72.703125 48.75 
Q 76.859375 44.484375 76.859375 35.59375 
L 76.859375 0 
L 68.109375 0 
L 68.109375 32.671875 
Q 68.109375 37.9375 67.25 40.25 
Q 66.40625 42.578125 64.15625 43.984375 
Q 61.921875 45.40625 58.890625 45.40625 
Q 53.421875 45.40625 49.796875 41.765625 
Q 46.1875 38.140625 46.1875 30.125 
L 46.1875 0 
L 37.40625 0 
L 37.40625 33.6875 
Q 37.40625 39.546875 35.25 42.46875 
Q 33.109375 45.40625 28.21875 45.40625 
Q 24.515625 45.40625 21.359375 43.453125 
Q 18.21875 41.5 16.796875 37.734375 
Q 15.375 33.984375 15.375 26.90625 
L 15.375 0 
z
" id="ArialMT-109"/>
     <path d="M 14.703125 0 
L 6.546875 0 
L 6.546875 71.578125 
L 15.328125 71.578125 
L 15.328125 46.046875 
Q 20.90625 53.03125 29.546875 53.03125 
Q 34.328125 53.03125 38.59375 51.09375 
Q 42.875 49.171875 45.625 45.671875 
Q 48.390625 42.1875 49.953125 37.25 
Q 51.515625 32.328125 51.515625 26.703125 
Q 51.515625 13.375 44.921875 6.09375 
Q 38.328125 -1.171875 29.109375 -1.171875 
Q 19.921875 -1.171875 14.703125 6.5 
z
M 14.59375 26.3125 
Q 14.59375 17 17.140625 12.84375 
Q 21.296875 6.0625 28.375 6.0625 
Q 34.125 6.0625 38.328125 11.0625 
Q 42.53125 16.0625 42.53125 25.984375 
Q 42.53125 36.140625 38.5 40.96875 
Q 34.46875 45.796875 28.765625 45.796875 
Q 23 45.796875 18.796875 40.796875 
Q 14.59375 35.796875 14.59375 26.3125 
z
" id="ArialMT-98"/>
    </defs>
    <g style="fill:#262626;" transform="translate(248.847187 207.84)scale(0.12 -0.12)">
     <use xlink:href="#ArialMT-67"/>
     <use x="72.216797" xlink:href="#ArialMT-111"/>
     <use x="127.832031" xlink:href="#ArialMT-117"/>
     <use x="183.447266" xlink:href="#ArialMT-114"/>
     <use x="216.748047" xlink:href="#ArialMT-97"/>
     <use x="272.363281" xlink:href="#ArialMT-110"/>
     <use x="327.978516" xlink:href="#ArialMT-116"/>
     <use x="355.761719" xlink:href="#ArialMT-32"/>
     <use x="383.544922" xlink:href="#ArialMT-110"/>
     <use x="439.160156" xlink:href="#ArialMT-117"/>
     <use x="494.775391" xlink:href="#ArialMT-109"/>
     <use x="578.076172" xlink:href="#ArialMT-98"/>
     <use x="633.691406" xlink:href="#ArialMT-101"/>
     <use x="689.306641" xlink:href="#ArialMT-114"/>
     <use x="722.607422" xlink:href="#ArialMT-115"/>
    </g>
   </g>
  </g>
  <g id="text_34">
   <!-- Horizon: 36.0h, Time step: 300, Neighbourhoods: 2, case: energy -->
   <defs>
    <path d="M 8.015625 0 
L 8.015625 71.578125 
L 17.484375 71.578125 
L 17.484375 42.1875 
L 54.6875 42.1875 
L 54.6875 71.578125 
L 64.15625 71.578125 
L 64.15625 0 
L 54.6875 0 
L 54.6875 33.734375 
L 17.484375 33.734375 
L 17.484375 0 
z
" id="ArialMT-72"/>
    <path d="M 1.953125 0 
L 1.953125 7.125 
L 34.96875 45.015625 
Q 29.34375 44.734375 25.046875 44.734375 
L 3.90625 44.734375 
L 3.90625 51.859375 
L 46.296875 51.859375 
L 46.296875 46.046875 
L 18.21875 13.140625 
L 12.796875 7.125 
Q 18.703125 7.5625 23.875 7.5625 
L 47.859375 7.5625 
L 47.859375 0 
z
" id="ArialMT-122"/>
    <path d="M 9.03125 41.84375 
L 9.03125 51.859375 
L 19.046875 51.859375 
L 19.046875 41.84375 
z
M 9.03125 0 
L 9.03125 10.015625 
L 19.046875 10.015625 
L 19.046875 0 
z
" id="ArialMT-58"/>
    <path d="M 6.59375 0 
L 6.59375 71.578125 
L 15.375 71.578125 
L 15.375 45.90625 
Q 21.53125 53.03125 30.90625 53.03125 
Q 36.671875 53.03125 40.921875 50.75 
Q 45.171875 48.484375 47 44.484375 
Q 48.828125 40.484375 48.828125 32.859375 
L 48.828125 0 
L 40.046875 0 
L 40.046875 32.859375 
Q 40.046875 39.453125 37.1875 42.453125 
Q 34.328125 45.453125 29.109375 45.453125 
Q 25.203125 45.453125 21.75 43.421875 
Q 18.3125 41.40625 16.84375 37.9375 
Q 15.375 34.46875 15.375 28.375 
L 15.375 0 
z
" id="ArialMT-104"/>
    <path d="M 8.890625 0 
L 8.890625 10.015625 
L 18.890625 10.015625 
L 18.890625 0 
Q 18.890625 -5.515625 16.9375 -8.90625 
Q 14.984375 -12.3125 10.75 -14.15625 
L 8.296875 -10.40625 
Q 11.078125 -9.1875 12.390625 -6.8125 
Q 13.71875 -4.4375 13.875 0 
z
" id="ArialMT-44"/>
    <path d="M 25.921875 0 
L 25.921875 63.140625 
L 2.34375 63.140625 
L 2.34375 71.578125 
L 59.078125 71.578125 
L 59.078125 63.140625 
L 35.40625 63.140625 
L 35.40625 0 
z
" id="ArialMT-84"/>
    <path d="M 7.625 0 
L 7.625 71.578125 
L 17.328125 71.578125 
L 54.9375 15.375 
L 54.9375 71.578125 
L 64.015625 71.578125 
L 64.015625 0 
L 54.296875 0 
L 16.703125 56.25 
L 16.703125 0 
z
" id="ArialMT-78"/>
    <path d="M 4.984375 -4.296875 
L 13.53125 -5.5625 
Q 14.0625 -9.515625 16.5 -11.328125 
Q 19.78125 -13.765625 25.4375 -13.765625 
Q 31.546875 -13.765625 34.859375 -11.328125 
Q 38.1875 -8.890625 39.359375 -4.5 
Q 40.046875 -1.8125 39.984375 6.78125 
Q 34.234375 0 25.640625 0 
Q 14.9375 0 9.078125 7.71875 
Q 3.21875 15.4375 3.21875 26.21875 
Q 3.21875 33.640625 5.90625 39.90625 
Q 8.59375 46.1875 13.6875 49.609375 
Q 18.796875 53.03125 25.6875 53.03125 
Q 34.859375 53.03125 40.828125 45.609375 
L 40.828125 51.859375 
L 48.921875 51.859375 
L 48.921875 7.03125 
Q 48.921875 -5.078125 46.453125 -10.125 
Q 44 -15.1875 38.640625 -18.109375 
Q 33.296875 -21.046875 25.484375 -21.046875 
Q 16.21875 -21.046875 10.5 -16.875 
Q 4.78125 -12.703125 4.984375 -4.296875 
z
M 12.25 26.859375 
Q 12.25 16.65625 16.296875 11.96875 
Q 20.359375 7.28125 26.46875 7.28125 
Q 32.515625 7.28125 36.609375 11.9375 
Q 40.71875 16.609375 40.71875 26.5625 
Q 40.71875 36.078125 36.5 40.90625 
Q 32.28125 45.75 26.3125 45.75 
Q 20.453125 45.75 16.34375 40.984375 
Q 12.25 36.234375 12.25 26.859375 
z
" id="ArialMT-103"/>
    <path d="M 40.4375 19 
L 49.078125 17.875 
Q 47.65625 8.9375 41.8125 3.875 
Q 35.984375 -1.171875 27.484375 -1.171875 
Q 16.84375 -1.171875 10.375 5.78125 
Q 3.90625 12.75 3.90625 25.734375 
Q 3.90625 34.125 6.6875 40.421875 
Q 9.46875 46.734375 15.15625 49.875 
Q 20.84375 53.03125 27.546875 53.03125 
Q 35.984375 53.03125 41.359375 48.75 
Q 46.734375 44.484375 48.25 36.625 
L 39.703125 35.296875 
Q 38.484375 40.53125 35.375 43.15625 
Q 32.28125 45.796875 27.875 45.796875 
Q 21.234375 45.796875 17.078125 41.03125 
Q 12.9375 36.28125 12.9375 25.984375 
Q 12.9375 15.53125 16.9375 10.796875 
Q 20.953125 6.0625 27.390625 6.0625 
Q 32.5625 6.0625 36.03125 9.234375 
Q 39.5 12.40625 40.4375 19 
z
" id="ArialMT-99"/>
    <path d="M 6.203125 -19.96875 
L 5.21875 -11.71875 
Q 8.109375 -12.5 10.25 -12.5 
Q 13.1875 -12.5 14.9375 -11.515625 
Q 16.703125 -10.546875 17.828125 -8.796875 
Q 18.65625 -7.46875 20.515625 -2.25 
Q 20.75 -1.515625 21.296875 -0.09375 
L 1.609375 51.859375 
L 11.078125 51.859375 
L 21.875 21.828125 
Q 23.96875 16.109375 25.640625 9.8125 
Q 27.15625 15.875 29.25 21.625 
L 40.328125 51.859375 
L 49.125 51.859375 
L 29.390625 -0.875 
Q 26.21875 -9.421875 24.46875 -12.640625 
Q 22.125 -17 19.09375 -19.015625 
Q 16.0625 -21.046875 11.859375 -21.046875 
Q 9.328125 -21.046875 6.203125 -19.96875 
z
" id="ArialMT-121"/>
   </defs>
   <g style="fill:#262626;" transform="translate(114.248437 16.545)scale(0.12 -0.12)">
    <use xlink:href="#ArialMT-72"/>
    <use x="72.216797" xlink:href="#ArialMT-111"/>
    <use x="127.832031" xlink:href="#ArialMT-114"/>
    <use x="161.132812" xlink:href="#ArialMT-105"/>
    <use x="183.349609" xlink:href="#ArialMT-122"/>
    <use x="233.349609" xlink:href="#ArialMT-111"/>
    <use x="288.964844" xlink:href="#ArialMT-110"/>
    <use x="344.580078" xlink:href="#ArialMT-58"/>
    <use x="372.363281" xlink:href="#ArialMT-32"/>
    <use x="400.146484" xlink:href="#ArialMT-51"/>
    <use x="455.761719" xlink:href="#ArialMT-54"/>
    <use x="511.376953" xlink:href="#ArialMT-46"/>
    <use x="539.160156" xlink:href="#ArialMT-48"/>
    <use x="594.775391" xlink:href="#ArialMT-104"/>
    <use x="650.390625" xlink:href="#ArialMT-44"/>
    <use x="678.173828" xlink:href="#ArialMT-32"/>
    <use x="705.941406" xlink:href="#ArialMT-84"/>
    <use x="766.978516" xlink:href="#ArialMT-105"/>
    <use x="789.195312" xlink:href="#ArialMT-109"/>
    <use x="872.496094" xlink:href="#ArialMT-101"/>
    <use x="928.111328" xlink:href="#ArialMT-32"/>
    <use x="955.894531" xlink:href="#ArialMT-115"/>
    <use x="1005.894531" xlink:href="#ArialMT-116"/>
    <use x="1033.677734" xlink:href="#ArialMT-101"/>
    <use x="1089.292969" xlink:href="#ArialMT-112"/>
    <use x="1144.908203" xlink:href="#ArialMT-58"/>
    <use x="1172.691406" xlink:href="#ArialMT-32"/>
    <use x="1200.474609" xlink:href="#ArialMT-51"/>
    <use x="1256.089844" xlink:href="#ArialMT-48"/>
    <use x="1311.705078" xlink:href="#ArialMT-48"/>
    <use x="1367.320312" xlink:href="#ArialMT-44"/>
    <use x="1395.103516" xlink:href="#ArialMT-32"/>
    <use x="1422.886719" xlink:href="#ArialMT-78"/>
    <use x="1495.103516" xlink:href="#ArialMT-101"/>
    <use x="1550.71875" xlink:href="#ArialMT-105"/>
    <use x="1572.935547" xlink:href="#ArialMT-103"/>
    <use x="1628.550781" xlink:href="#ArialMT-104"/>
    <use x="1684.166016" xlink:href="#ArialMT-98"/>
    <use x="1739.78125" xlink:href="#ArialMT-111"/>
    <use x="1795.396484" xlink:href="#ArialMT-117"/>
    <use x="1851.011719" xlink:href="#ArialMT-114"/>
    <use x="1884.3125" xlink:href="#ArialMT-104"/>
    <use x="1939.927734" xlink:href="#ArialMT-111"/>
    <use x="1995.542969" xlink:href="#ArialMT-111"/>
    <use x="2051.158203" xlink:href="#ArialMT-100"/>
    <use x="2106.773438" xlink:href="#ArialMT-115"/>
    <use x="2156.773438" xlink:href="#ArialMT-58"/>
    <use x="2184.556641" xlink:href="#ArialMT-32"/>
    <use x="2212.339844" xlink:href="#ArialMT-50"/>
    <use x="2267.955078" xlink:href="#ArialMT-44"/>
    <use x="2295.738281" xlink:href="#ArialMT-32"/>
    <use x="2323.521484" xlink:href="#ArialMT-99"/>
    <use x="2373.521484" xlink:href="#ArialMT-97"/>
    <use x="2429.136719" xlink:href="#ArialMT-115"/>
    <use x="2479.136719" xlink:href="#ArialMT-101"/>
    <use x="2534.751953" xlink:href="#ArialMT-58"/>
    <use x="2562.535156" xlink:href="#ArialMT-32"/>
    <use x="2590.318359" xlink:href="#ArialMT-101"/>
    <use x="2645.933594" xlink:href="#ArialMT-110"/>
    <use x="2701.548828" xlink:href="#ArialMT-101"/>
    <use x="2757.164062" xlink:href="#ArialMT-114"/>
    <use x="2790.464844" xlink:href="#ArialMT-103"/>
    <use x="2846.080078" xlink:href="#ArialMT-121"/>
   </g>
  </g>
 </g>
 <defs>
  <clipPath id="pcb6279015f">
   <rect height="138.6" width="446.4" x="72" y="47.52"/>
  </clipPath>
  <clipPath id="p2c4ab51ae6">
   <rect height="138.6" width="446.4" x="72" y="213.84"/>
  </clipPath>
 </defs>
</svg>
