<?xml version="1.0" encoding="utf-8" standalone="no"?>
<!DOCTYPE svg PUBLIC "-//W3C//DTD SVG 1.1//EN"
  "http://www.w3.org/Graphics/SVG/1.1/DTD/svg11.dtd">
<!-- Created with matplotlib (https://matplotlib.org/) -->
<svg height="396pt" version="1.1" viewBox="0 0 576 396" width="576pt" xmlns="http://www.w3.org/2000/svg" xmlns:xlink="http://www.w3.org/1999/xlink">
 <defs>
  <style type="text/css">
*{stroke-linecap:butt;stroke-linejoin:round;}
  </style>
 </defs>
 <g id="figure_1">
  <g id="patch_1">
   <path d="M 0 396 
L 576 396 
L 576 0 
L 0 0 
z
" style="fill:#ffffff;"/>
  </g>
  <g id="axes_1">
   <g id="patch_2">
    <path d="M 72 352.44 
L 518.4 352.44 
L 518.4 47.52 
L 72 47.52 
z
" style="fill:#eaeaf2;"/>
   </g>
   <g id="matplotlib.axis_1">
    <g id="xtick_1">
     <g id="line2d_1">
      <path clip-path="url(#p9b0f9863e2)" d="M 92.290909 352.44 
L 92.290909 47.52 
" style="fill:none;stroke:#ffffff;stroke-linecap:round;"/>
     </g>
     <g id="line2d_2"/>
     <g id="text_1">
      <!-- 01-01 00 -->
      <defs>
       <path d="M 4.15625 35.296875 
Q 4.15625 48 6.765625 55.734375 
Q 9.375 63.484375 14.515625 67.671875 
Q 19.671875 71.875 27.484375 71.875 
Q 33.25 71.875 37.59375 69.546875 
Q 41.9375 67.234375 44.765625 62.859375 
Q 47.609375 58.5 49.21875 52.21875 
Q 50.828125 45.953125 50.828125 35.296875 
Q 50.828125 22.703125 48.234375 14.96875 
Q 45.65625 7.234375 40.5 3 
Q 35.359375 -1.21875 27.484375 -1.21875 
Q 17.140625 -1.21875 11.234375 6.203125 
Q 4.15625 15.140625 4.15625 35.296875 
z
M 13.1875 35.296875 
Q 13.1875 17.671875 17.3125 11.828125 
Q 21.4375 6 27.484375 6 
Q 33.546875 6 37.671875 11.859375 
Q 41.796875 17.71875 41.796875 35.296875 
Q 41.796875 52.984375 37.671875 58.78125 
Q 33.546875 64.59375 27.390625 64.59375 
Q 21.34375 64.59375 17.71875 59.46875 
Q 13.1875 52.9375 13.1875 35.296875 
z
" id="ArialMT-48"/>
       <path d="M 37.25 0 
L 28.46875 0 
L 28.46875 56 
Q 25.296875 52.984375 20.140625 49.953125 
Q 14.984375 46.921875 10.890625 45.40625 
L 10.890625 53.90625 
Q 18.265625 57.375 23.78125 62.296875 
Q 29.296875 67.234375 31.59375 71.875 
L 37.25 71.875 
z
" id="ArialMT-49"/>
       <path d="M 3.171875 21.484375 
L 3.171875 30.328125 
L 30.171875 30.328125 
L 30.171875 21.484375 
z
" id="ArialMT-45"/>
       <path id="ArialMT-32"/>
      </defs>
      <g style="fill:#262626;" transform="translate(72.55419 366.597813)scale(0.1 -0.1)">
       <use xlink:href="#ArialMT-48"/>
       <use x="55.615234" xlink:href="#ArialMT-49"/>
       <use x="111.230469" xlink:href="#ArialMT-45"/>
       <use x="144.53125" xlink:href="#ArialMT-48"/>
       <use x="200.146484" xlink:href="#ArialMT-49"/>
       <use x="255.761719" xlink:href="#ArialMT-32"/>
       <use x="283.544922" xlink:href="#ArialMT-48"/>
       <use x="339.160156" xlink:href="#ArialMT-48"/>
      </g>
     </g>
    </g>
    <g id="xtick_2">
     <g id="line2d_3">
      <path clip-path="url(#p9b0f9863e2)" d="M 143.106403 352.44 
L 143.106403 47.52 
" style="fill:none;stroke:#ffffff;stroke-linecap:round;"/>
     </g>
     <g id="line2d_4"/>
     <g id="text_2">
      <!-- 01-01 06 -->
      <defs>
       <path d="M 49.75 54.046875 
L 41.015625 53.375 
Q 39.84375 58.546875 37.703125 60.890625 
Q 34.125 64.65625 28.90625 64.65625 
Q 24.703125 64.65625 21.53125 62.3125 
Q 17.390625 59.28125 14.984375 53.46875 
Q 12.59375 47.65625 12.5 36.921875 
Q 15.671875 41.75 20.265625 44.09375 
Q 24.859375 46.4375 29.890625 46.4375 
Q 38.671875 46.4375 44.84375 39.96875 
Q 51.03125 33.5 51.03125 23.25 
Q 51.03125 16.5 48.125 10.71875 
Q 45.21875 4.9375 40.140625 1.859375 
Q 35.0625 -1.21875 28.609375 -1.21875 
Q 17.625 -1.21875 10.6875 6.859375 
Q 3.765625 14.9375 3.765625 33.5 
Q 3.765625 54.25 11.421875 63.671875 
Q 18.109375 71.875 29.4375 71.875 
Q 37.890625 71.875 43.28125 67.140625 
Q 48.6875 62.40625 49.75 54.046875 
z
M 13.875 23.1875 
Q 13.875 18.65625 15.796875 14.5 
Q 17.71875 10.359375 21.1875 8.171875 
Q 24.65625 6 28.46875 6 
Q 34.03125 6 38.03125 10.484375 
Q 42.046875 14.984375 42.046875 22.703125 
Q 42.046875 30.125 38.078125 34.390625 
Q 34.125 38.671875 28.125 38.671875 
Q 22.171875 38.671875 18.015625 34.390625 
Q 13.875 30.125 13.875 23.1875 
z
" id="ArialMT-54"/>
      </defs>
      <g style="fill:#262626;" transform="translate(123.369684 366.597813)scale(0.1 -0.1)">
       <use xlink:href="#ArialMT-48"/>
       <use x="55.615234" xlink:href="#ArialMT-49"/>
       <use x="111.230469" xlink:href="#ArialMT-45"/>
       <use x="144.53125" xlink:href="#ArialMT-48"/>
       <use x="200.146484" xlink:href="#ArialMT-49"/>
       <use x="255.761719" xlink:href="#ArialMT-32"/>
       <use x="283.544922" xlink:href="#ArialMT-48"/>
       <use x="339.160156" xlink:href="#ArialMT-54"/>
      </g>
     </g>
    </g>
    <g id="xtick_3">
     <g id="line2d_5">
      <path clip-path="url(#p9b0f9863e2)" d="M 193.921897 352.44 
L 193.921897 47.52 
" style="fill:none;stroke:#ffffff;stroke-linecap:round;"/>
     </g>
     <g id="line2d_6"/>
     <g id="text_3">
      <!-- 01-01 12 -->
      <defs>
       <path d="M 50.34375 8.453125 
L 50.34375 0 
L 3.03125 0 
Q 2.9375 3.171875 4.046875 6.109375 
Q 5.859375 10.9375 9.828125 15.625 
Q 13.8125 20.3125 21.34375 26.46875 
Q 33.015625 36.03125 37.109375 41.625 
Q 41.21875 47.21875 41.21875 52.203125 
Q 41.21875 57.421875 37.46875 61 
Q 33.734375 64.59375 27.734375 64.59375 
Q 21.390625 64.59375 17.578125 60.78125 
Q 13.765625 56.984375 13.71875 50.25 
L 4.6875 51.171875 
Q 5.609375 61.28125 11.65625 66.578125 
Q 17.71875 71.875 27.9375 71.875 
Q 38.234375 71.875 44.234375 66.15625 
Q 50.25 60.453125 50.25 52 
Q 50.25 47.703125 48.484375 43.546875 
Q 46.734375 39.40625 42.65625 34.8125 
Q 38.578125 30.21875 29.109375 22.21875 
Q 21.1875 15.578125 18.9375 13.203125 
Q 16.703125 10.84375 15.234375 8.453125 
z
" id="ArialMT-50"/>
      </defs>
      <g style="fill:#262626;" transform="translate(174.185178 366.597813)scale(0.1 -0.1)">
       <use xlink:href="#ArialMT-48"/>
       <use x="55.615234" xlink:href="#ArialMT-49"/>
       <use x="111.230469" xlink:href="#ArialMT-45"/>
       <use x="144.53125" xlink:href="#ArialMT-48"/>
       <use x="200.146484" xlink:href="#ArialMT-49"/>
       <use x="255.761719" xlink:href="#ArialMT-32"/>
       <use x="283.544922" xlink:href="#ArialMT-49"/>
       <use x="339.160156" xlink:href="#ArialMT-50"/>
      </g>
     </g>
    </g>
    <g id="xtick_4">
     <g id="line2d_7">
      <path clip-path="url(#p9b0f9863e2)" d="M 244.737391 352.44 
L 244.737391 47.52 
" style="fill:none;stroke:#ffffff;stroke-linecap:round;"/>
     </g>
     <g id="line2d_8"/>
     <g id="text_4">
      <!-- 01-01 18 -->
      <defs>
       <path d="M 17.671875 38.8125 
Q 12.203125 40.828125 9.5625 44.53125 
Q 6.9375 48.25 6.9375 53.421875 
Q 6.9375 61.234375 12.546875 66.546875 
Q 18.171875 71.875 27.484375 71.875 
Q 36.859375 71.875 42.578125 66.421875 
Q 48.296875 60.984375 48.296875 53.171875 
Q 48.296875 48.1875 45.671875 44.5 
Q 43.0625 40.828125 37.75 38.8125 
Q 44.34375 36.671875 47.78125 31.875 
Q 51.21875 27.09375 51.21875 20.453125 
Q 51.21875 11.28125 44.71875 5.03125 
Q 38.234375 -1.21875 27.640625 -1.21875 
Q 17.046875 -1.21875 10.546875 5.046875 
Q 4.046875 11.328125 4.046875 20.703125 
Q 4.046875 27.6875 7.59375 32.390625 
Q 11.140625 37.109375 17.671875 38.8125 
z
M 15.921875 53.71875 
Q 15.921875 48.640625 19.1875 45.40625 
Q 22.46875 42.1875 27.6875 42.1875 
Q 32.765625 42.1875 36.015625 45.375 
Q 39.265625 48.578125 39.265625 53.21875 
Q 39.265625 58.0625 35.90625 61.359375 
Q 32.5625 64.65625 27.59375 64.65625 
Q 22.5625 64.65625 19.234375 61.421875 
Q 15.921875 58.203125 15.921875 53.71875 
z
M 13.09375 20.65625 
Q 13.09375 16.890625 14.875 13.375 
Q 16.65625 9.859375 20.171875 7.921875 
Q 23.6875 6 27.734375 6 
Q 34.03125 6 38.125 10.046875 
Q 42.234375 14.109375 42.234375 20.359375 
Q 42.234375 26.703125 38.015625 30.859375 
Q 33.796875 35.015625 27.4375 35.015625 
Q 21.234375 35.015625 17.15625 30.90625 
Q 13.09375 26.8125 13.09375 20.65625 
z
" id="ArialMT-56"/>
      </defs>
      <g style="fill:#262626;" transform="translate(225.000673 366.597813)scale(0.1 -0.1)">
       <use xlink:href="#ArialMT-48"/>
       <use x="55.615234" xlink:href="#ArialMT-49"/>
       <use x="111.230469" xlink:href="#ArialMT-45"/>
       <use x="144.53125" xlink:href="#ArialMT-48"/>
       <use x="200.146484" xlink:href="#ArialMT-49"/>
       <use x="255.761719" xlink:href="#ArialMT-32"/>
       <use x="283.544922" xlink:href="#ArialMT-49"/>
       <use x="339.160156" xlink:href="#ArialMT-56"/>
      </g>
     </g>
    </g>
    <g id="xtick_5">
     <g id="line2d_9">
      <path clip-path="url(#p9b0f9863e2)" d="M 295.552885 352.44 
L 295.552885 47.52 
" style="fill:none;stroke:#ffffff;stroke-linecap:round;"/>
     </g>
     <g id="line2d_10"/>
     <g id="text_5">
      <!-- 01-02 00 -->
      <g style="fill:#262626;" transform="translate(275.816167 366.597813)scale(0.1 -0.1)">
       <use xlink:href="#ArialMT-48"/>
       <use x="55.615234" xlink:href="#ArialMT-49"/>
       <use x="111.230469" xlink:href="#ArialMT-45"/>
       <use x="144.53125" xlink:href="#ArialMT-48"/>
       <use x="200.146484" xlink:href="#ArialMT-50"/>
       <use x="255.761719" xlink:href="#ArialMT-32"/>
       <use x="283.544922" xlink:href="#ArialMT-48"/>
       <use x="339.160156" xlink:href="#ArialMT-48"/>
      </g>
     </g>
    </g>
    <g id="xtick_6">
     <g id="line2d_11">
      <path clip-path="url(#p9b0f9863e2)" d="M 346.368379 352.44 
L 346.368379 47.52 
" style="fill:none;stroke:#ffffff;stroke-linecap:round;"/>
     </g>
     <g id="line2d_12"/>
     <g id="text_6">
      <!-- 01-02 06 -->
      <g style="fill:#262626;" transform="translate(326.631661 366.597813)scale(0.1 -0.1)">
       <use xlink:href="#ArialMT-48"/>
       <use x="55.615234" xlink:href="#ArialMT-49"/>
       <use x="111.230469" xlink:href="#ArialMT-45"/>
       <use x="144.53125" xlink:href="#ArialMT-48"/>
       <use x="200.146484" xlink:href="#ArialMT-50"/>
       <use x="255.761719" xlink:href="#ArialMT-32"/>
       <use x="283.544922" xlink:href="#ArialMT-48"/>
       <use x="339.160156" xlink:href="#ArialMT-54"/>
      </g>
     </g>
    </g>
    <g id="xtick_7">
     <g id="line2d_13">
      <path clip-path="url(#p9b0f9863e2)" d="M 397.183874 352.44 
L 397.183874 47.52 
" style="fill:none;stroke:#ffffff;stroke-linecap:round;"/>
     </g>
     <g id="line2d_14"/>
     <g id="text_7">
      <!-- 01-02 12 -->
      <g style="fill:#262626;" transform="translate(377.447155 366.597813)scale(0.1 -0.1)">
       <use xlink:href="#ArialMT-48"/>
       <use x="55.615234" xlink:href="#ArialMT-49"/>
       <use x="111.230469" xlink:href="#ArialMT-45"/>
       <use x="144.53125" xlink:href="#ArialMT-48"/>
       <use x="200.146484" xlink:href="#ArialMT-50"/>
       <use x="255.761719" xlink:href="#ArialMT-32"/>
       <use x="283.544922" xlink:href="#ArialMT-49"/>
       <use x="339.160156" xlink:href="#ArialMT-50"/>
      </g>
     </g>
    </g>
    <g id="xtick_8">
     <g id="line2d_15">
      <path clip-path="url(#p9b0f9863e2)" d="M 447.999368 352.44 
L 447.999368 47.52 
" style="fill:none;stroke:#ffffff;stroke-linecap:round;"/>
     </g>
     <g id="line2d_16"/>
     <g id="text_8">
      <!-- 01-02 18 -->
      <g style="fill:#262626;" transform="translate(428.262649 366.597813)scale(0.1 -0.1)">
       <use xlink:href="#ArialMT-48"/>
       <use x="55.615234" xlink:href="#ArialMT-49"/>
       <use x="111.230469" xlink:href="#ArialMT-45"/>
       <use x="144.53125" xlink:href="#ArialMT-48"/>
       <use x="200.146484" xlink:href="#ArialMT-50"/>
       <use x="255.761719" xlink:href="#ArialMT-32"/>
       <use x="283.544922" xlink:href="#ArialMT-49"/>
       <use x="339.160156" xlink:href="#ArialMT-56"/>
      </g>
     </g>
    </g>
    <g id="xtick_9">
     <g id="line2d_17">
      <path clip-path="url(#p9b0f9863e2)" d="M 498.814862 352.44 
L 498.814862 47.52 
" style="fill:none;stroke:#ffffff;stroke-linecap:round;"/>
     </g>
     <g id="line2d_18"/>
     <g id="text_9">
      <!-- 01-03 00 -->
      <defs>
       <path d="M 4.203125 18.890625 
L 12.984375 20.0625 
Q 14.5 12.59375 18.140625 9.296875 
Q 21.78125 6 27 6 
Q 33.203125 6 37.46875 10.296875 
Q 41.75 14.59375 41.75 20.953125 
Q 41.75 27 37.796875 30.921875 
Q 33.84375 34.859375 27.734375 34.859375 
Q 25.25 34.859375 21.53125 33.890625 
L 22.515625 41.609375 
Q 23.390625 41.5 23.921875 41.5 
Q 29.546875 41.5 34.03125 44.421875 
Q 38.53125 47.359375 38.53125 53.46875 
Q 38.53125 58.296875 35.25 61.46875 
Q 31.984375 64.65625 26.8125 64.65625 
Q 21.6875 64.65625 18.265625 61.421875 
Q 14.84375 58.203125 13.875 51.765625 
L 5.078125 53.328125 
Q 6.6875 62.15625 12.390625 67.015625 
Q 18.109375 71.875 26.609375 71.875 
Q 32.46875 71.875 37.390625 69.359375 
Q 42.328125 66.84375 44.9375 62.5 
Q 47.5625 58.15625 47.5625 53.265625 
Q 47.5625 48.640625 45.0625 44.828125 
Q 42.578125 41.015625 37.703125 38.765625 
Q 44.046875 37.3125 47.5625 32.6875 
Q 51.078125 28.078125 51.078125 21.140625 
Q 51.078125 11.765625 44.234375 5.25 
Q 37.40625 -1.265625 26.953125 -1.265625 
Q 17.53125 -1.265625 11.296875 4.34375 
Q 5.078125 9.96875 4.203125 18.890625 
z
" id="ArialMT-51"/>
      </defs>
      <g style="fill:#262626;" transform="translate(479.078143 366.597813)scale(0.1 -0.1)">
       <use xlink:href="#ArialMT-48"/>
       <use x="55.615234" xlink:href="#ArialMT-49"/>
       <use x="111.230469" xlink:href="#ArialMT-45"/>
       <use x="144.53125" xlink:href="#ArialMT-48"/>
       <use x="200.146484" xlink:href="#ArialMT-51"/>
       <use x="255.761719" xlink:href="#ArialMT-32"/>
       <use x="283.544922" xlink:href="#ArialMT-48"/>
       <use x="339.160156" xlink:href="#ArialMT-48"/>
      </g>
     </g>
    </g>
   </g>
   <g id="matplotlib.axis_2">
    <g id="ytick_1">
     <g id="line2d_19">
      <path clip-path="url(#p9b0f9863e2)" d="M 72 349.885455 
L 518.4 349.885455 
" style="fill:none;stroke:#ffffff;stroke-linecap:round;"/>
     </g>
     <g id="line2d_20"/>
     <g id="text_10">
      <!-- 0.0 -->
      <defs>
       <path d="M 9.078125 0 
L 9.078125 10.015625 
L 19.09375 10.015625 
L 19.09375 0 
z
" id="ArialMT-46"/>
      </defs>
      <g style="fill:#262626;" transform="translate(51.1 353.464361)scale(0.1 -0.1)">
       <use xlink:href="#ArialMT-48"/>
       <use x="55.615234" xlink:href="#ArialMT-46"/>
       <use x="83.398438" xlink:href="#ArialMT-48"/>
      </g>
     </g>
    </g>
    <g id="ytick_2">
     <g id="line2d_21">
      <path clip-path="url(#p9b0f9863e2)" d="M 72 302.494528 
L 518.4 302.494528 
" style="fill:none;stroke:#ffffff;stroke-linecap:round;"/>
     </g>
     <g id="line2d_22"/>
     <g id="text_11">
      <!-- 0.5 -->
      <defs>
       <path d="M 4.15625 18.75 
L 13.375 19.53125 
Q 14.40625 12.796875 18.140625 9.390625 
Q 21.875 6 27.15625 6 
Q 33.5 6 37.890625 10.78125 
Q 42.28125 15.578125 42.28125 23.484375 
Q 42.28125 31 38.0625 35.34375 
Q 33.84375 39.703125 27 39.703125 
Q 22.75 39.703125 19.328125 37.765625 
Q 15.921875 35.84375 13.96875 32.765625 
L 5.71875 33.84375 
L 12.640625 70.609375 
L 48.25 70.609375 
L 48.25 62.203125 
L 19.671875 62.203125 
L 15.828125 42.96875 
Q 22.265625 47.46875 29.34375 47.46875 
Q 38.71875 47.46875 45.15625 40.96875 
Q 51.609375 34.46875 51.609375 24.265625 
Q 51.609375 14.546875 45.953125 7.46875 
Q 39.0625 -1.21875 27.15625 -1.21875 
Q 17.390625 -1.21875 11.203125 4.25 
Q 5.03125 9.71875 4.15625 18.75 
z
" id="ArialMT-53"/>
      </defs>
      <g style="fill:#262626;" transform="translate(51.1 306.073434)scale(0.1 -0.1)">
       <use xlink:href="#ArialMT-48"/>
       <use x="55.615234" xlink:href="#ArialMT-46"/>
       <use x="83.398438" xlink:href="#ArialMT-53"/>
      </g>
     </g>
    </g>
    <g id="ytick_3">
     <g id="line2d_23">
      <path clip-path="url(#p9b0f9863e2)" d="M 72 255.103601 
L 518.4 255.103601 
" style="fill:none;stroke:#ffffff;stroke-linecap:round;"/>
     </g>
     <g id="line2d_24"/>
     <g id="text_12">
      <!-- 1.0 -->
      <g style="fill:#262626;" transform="translate(51.1 258.682507)scale(0.1 -0.1)">
       <use xlink:href="#ArialMT-49"/>
       <use x="55.615234" xlink:href="#ArialMT-46"/>
       <use x="83.398438" xlink:href="#ArialMT-48"/>
      </g>
     </g>
    </g>
    <g id="ytick_4">
     <g id="line2d_25">
      <path clip-path="url(#p9b0f9863e2)" d="M 72 207.712674 
L 518.4 207.712674 
" style="fill:none;stroke:#ffffff;stroke-linecap:round;"/>
     </g>
     <g id="line2d_26"/>
     <g id="text_13">
      <!-- 1.5 -->
      <g style="fill:#262626;" transform="translate(51.1 211.291581)scale(0.1 -0.1)">
       <use xlink:href="#ArialMT-49"/>
       <use x="55.615234" xlink:href="#ArialMT-46"/>
       <use x="83.398438" xlink:href="#ArialMT-53"/>
      </g>
     </g>
    </g>
    <g id="ytick_5">
     <g id="line2d_27">
      <path clip-path="url(#p9b0f9863e2)" d="M 72 160.321748 
L 518.4 160.321748 
" style="fill:none;stroke:#ffffff;stroke-linecap:round;"/>
     </g>
     <g id="line2d_28"/>
     <g id="text_14">
      <!-- 2.0 -->
      <g style="fill:#262626;" transform="translate(51.1 163.900654)scale(0.1 -0.1)">
       <use xlink:href="#ArialMT-50"/>
       <use x="55.615234" xlink:href="#ArialMT-46"/>
       <use x="83.398438" xlink:href="#ArialMT-48"/>
      </g>
     </g>
    </g>
    <g id="ytick_6">
     <g id="line2d_29">
      <path clip-path="url(#p9b0f9863e2)" d="M 72 112.930821 
L 518.4 112.930821 
" style="fill:none;stroke:#ffffff;stroke-linecap:round;"/>
     </g>
     <g id="line2d_30"/>
     <g id="text_15">
      <!-- 2.5 -->
      <g style="fill:#262626;" transform="translate(51.1 116.509727)scale(0.1 -0.1)">
       <use xlink:href="#ArialMT-50"/>
       <use x="55.615234" xlink:href="#ArialMT-46"/>
       <use x="83.398438" xlink:href="#ArialMT-53"/>
      </g>
     </g>
    </g>
    <g id="ytick_7">
     <g id="line2d_31">
      <path clip-path="url(#p9b0f9863e2)" d="M 72 65.539894 
L 518.4 65.539894 
" style="fill:none;stroke:#ffffff;stroke-linecap:round;"/>
     </g>
     <g id="line2d_32"/>
     <g id="text_16">
      <!-- 3.0 -->
      <g style="fill:#262626;" transform="translate(51.1 69.1188)scale(0.1 -0.1)">
       <use xlink:href="#ArialMT-51"/>
       <use x="55.615234" xlink:href="#ArialMT-46"/>
       <use x="83.398438" xlink:href="#ArialMT-48"/>
      </g>
     </g>
    </g>
    <g id="text_17">
     <!-- 1e7 -->
     <defs>
      <path d="M 42.09375 16.703125 
L 51.171875 15.578125 
Q 49.03125 7.625 43.21875 3.21875 
Q 37.40625 -1.171875 28.375 -1.171875 
Q 17 -1.171875 10.328125 5.828125 
Q 3.65625 12.84375 3.65625 25.484375 
Q 3.65625 38.578125 10.390625 45.796875 
Q 17.140625 53.03125 27.875 53.03125 
Q 38.28125 53.03125 44.875 45.953125 
Q 51.46875 38.875 51.46875 26.03125 
Q 51.46875 25.25 51.421875 23.6875 
L 12.75 23.6875 
Q 13.234375 15.140625 17.578125 10.59375 
Q 21.921875 6.0625 28.421875 6.0625 
Q 33.25 6.0625 36.671875 8.59375 
Q 40.09375 11.140625 42.09375 16.703125 
z
M 13.234375 30.90625 
L 42.1875 30.90625 
Q 41.609375 37.453125 38.875 40.71875 
Q 34.671875 45.796875 27.984375 45.796875 
Q 21.921875 45.796875 17.796875 41.75 
Q 13.671875 37.703125 13.234375 30.90625 
z
" id="ArialMT-101"/>
      <path d="M 4.734375 62.203125 
L 4.734375 70.65625 
L 51.078125 70.65625 
L 51.078125 63.8125 
Q 44.234375 56.546875 37.515625 44.484375 
Q 30.8125 32.421875 27.15625 19.671875 
Q 24.515625 10.6875 23.78125 0 
L 14.75 0 
Q 14.890625 8.453125 18.0625 20.40625 
Q 21.234375 32.375 27.171875 43.484375 
Q 33.109375 54.59375 39.796875 62.203125 
z
" id="ArialMT-55"/>
     </defs>
     <g style="fill:#262626;" transform="translate(72 44.52)scale(0.1 -0.1)">
      <use xlink:href="#ArialMT-49"/>
      <use x="55.615234" xlink:href="#ArialMT-101"/>
      <use x="111.230469" xlink:href="#ArialMT-55"/>
     </g>
    </g>
   </g>
   <g id="line2d_33">
    <path clip-path="url(#p9b0f9863e2)" d="M 92.290909 241.929712 
L 92.99668 240.768897 
L 93.702451 238.322972 
L 94.408221 238.371149 
L 95.819763 229.720141 
L 96.525534 227.756305 
L 97.937075 218.946517 
L 98.642846 225.091989 
L 100.054387 218.936323 
L 100.760158 219.114531 
L 102.1717 214.872733 
L 102.87747 217.550351 
L 104.289012 214.871128 
L 104.994783 218.78933 
L 106.406324 217.158945 
L 107.112095 220.802391 
L 108.523636 219.809038 
L 109.229407 220.035265 
L 110.640949 219.405679 
L 111.346719 221.683094 
L 112.758261 221.295947 
L 113.464032 227.43583 
L 114.875573 227.197199 
L 115.581344 230.93622 
L 116.992885 230.772181 
L 117.698656 230.491035 
L 119.110198 230.37169 
L 119.815968 230.671257 
L 121.22751 230.584888 
L 121.933281 228.847691 
L 123.344822 228.789789 
L 124.050593 273.333045 
L 125.462134 273.265719 
L 126.167905 266.324633 
L 127.579447 266.244383 
L 128.285217 260.826166 
L 129.696759 260.741918 
L 130.40253 255.684865 
L 131.814071 255.610962 
L 132.519842 242.637281 
L 133.931383 242.595136 
L 134.637154 239.453762 
L 136.048696 239.447718 
L 136.754466 234.892701 
L 138.166008 234.920832 
L 138.871779 231.310739 
L 140.28332 231.362348 
L 140.989091 214.806217 
L 142.400632 214.919239 
L 143.106403 198.954913 
L 144.517945 199.149858 
L 145.223715 181.077865 
L 146.635257 181.380968 
L 147.341028 161.797127 
L 148.752569 162.219246 
L 149.45834 145.86941 
L 150.869881 146.353901 
L 151.575652 129.713866 
L 152.987194 130.232121 
L 153.692964 130.868483 
L 155.104506 131.229146 
L 155.810277 116.000319 
L 157.221818 116.335578 
L 157.927589 104.249404 
L 159.33913 104.601995 
L 160.044901 83.786873 
L 161.456443 84.246371 
L 162.162213 102.452297 
L 163.573755 102.611134 
L 164.279526 101.340346 
L 165.691067 101.367274 
L 166.396838 97.66917 
L 167.808379 97.686999 
L 168.51415 93.550788 
L 169.925692 93.608554 
L 170.631462 97.284744 
L 172.043004 97.308801 
L 172.748775 103.262114 
L 174.160316 103.212625 
L 174.866087 100.516397 
L 176.277628 100.482218 
L 176.983399 100.073884 
L 178.394941 100.068343 
L 179.100711 105.284232 
L 180.512253 105.244044 
L 181.218024 106.243838 
L 182.629565 106.191915 
L 183.335336 108.647523 
L 184.746877 108.588749 
L 185.452648 109.96849 
L 186.86419 109.917552 
L 187.56996 117.366085 
L 188.981502 117.283926 
L 189.687273 116.948318 
L 191.098814 116.877787 
L 191.804585 115.825385 
L 193.216126 115.789065 
L 193.921897 118.21392 
L 195.333439 118.18457 
L 196.039209 123.377171 
L 197.450751 123.323963 
L 198.156522 122.36932 
L 199.568063 122.324805 
L 200.273834 128.295883 
L 201.685375 128.232336 
L 202.391146 128.991448 
L 203.802688 128.930381 
L 204.508458 131.142886 
L 205.92 131.086214 
L 206.625771 132.071241 
L 208.037312 132.023491 
L 208.743083 135.608099 
L 210.154624 135.557114 
L 210.860395 134.883676 
L 212.271937 134.845978 
L 212.977708 136.206946 
L 214.389249 136.176089 
L 215.09502 135.622913 
L 216.506561 135.604419 
L 217.212332 132.195852 
L 218.623874 132.204753 
L 219.329644 131.901571 
L 220.741186 131.924155 
L 221.446957 134.715128 
L 222.858498 134.718219 
L 223.564269 134.173077 
L 224.97581 134.16815 
L 225.681581 132.981069 
L 227.093123 132.983162 
L 227.798893 133.420568 
L 229.210435 133.423273 
L 229.916206 134.733034 
L 231.327747 134.729018 
L 232.033518 133.322103 
L 233.445059 133.321096 
L 234.15083 133.784496 
L 235.562372 133.785598 
L 236.268142 132.100697 
L 237.679684 132.11365 
L 238.385455 133.510513 
L 239.796996 133.515211 
L 240.502767 132.636491 
L 241.914308 132.642104 
L 242.620079 134.07197 
L 244.031621 134.069707 
L 244.737391 133.764893 
L 246.148933 133.760448 
L 246.854704 132.630344 
L 248.266245 132.632939 
L 248.972016 130.490649 
L 252.50087 130.504718 
L 253.20664 130.070929 
L 254.618182 130.087822 
L 255.323953 131.396385 
L 256.735494 131.398062 
L 257.441265 130.817723 
L 260.970119 130.712721 
L 261.675889 131.509405 
L 263.087431 131.505205 
L 263.793202 132.079236 
L 265.204743 132.07126 
L 265.910514 132.615125 
L 267.322055 132.605857 
L 268.027826 133.35092 
L 269.439368 133.337745 
L 270.145138 132.383318 
L 271.55668 132.377109 
L 272.262451 136.340371 
L 273.673992 136.315822 
L 274.379763 137.164578 
L 275.791304 137.132438 
L 276.497075 144.807566 
L 277.908617 144.743036 
L 278.614387 146.886853 
L 280.025929 146.812367 
L 280.7317 155.915053 
L 282.143241 155.818505 
L 282.849012 159.882499 
L 284.260553 159.778159 
L 284.966324 182.559873 
L 286.377866 182.411285 
L 287.083636 191.200909 
L 288.495178 191.026504 
L 289.200949 207.666904 
L 290.61249 207.491452 
L 291.318261 212.449338 
L 292.729802 212.280586 
L 293.435573 227.037449 
L 294.847115 226.886577 
L 295.552885 265.960718 
L 296.258656 265.31846 
L 296.964427 264.306673 
L 297.670198 263.697125 
L 298.375968 262.006459 
L 299.081739 260.014662 
L 299.78751 255.047699 
L 301.199051 249.664568 
L 301.904822 250.162516 
L 303.316364 244.820348 
L 304.022134 243.581954 
L 305.433676 239.140304 
L 306.139447 240.343866 
L 307.550988 237.410437 
L 308.256759 235.24947 
L 309.6683 233.522474 
L 310.374071 238.480262 
L 311.785613 237.680813 
L 312.491383 235.881452 
L 313.902925 235.528443 
L 314.608696 234.931358 
L 316.020237 234.834362 
L 316.726008 235.615357 
L 318.137549 235.635071 
L 318.84332 242.476214 
L 320.254862 242.464968 
L 320.960632 240.541762 
L 322.372174 240.517134 
L 323.077945 238.868713 
L 324.489486 238.852574 
L 325.195257 235.215793 
L 326.606798 235.244146 
L 327.312569 279.675273 
L 328.724111 279.57091 
L 329.429881 271.093341 
L 330.841423 270.901891 
L 331.547194 262.960529 
L 332.958735 262.762231 
L 333.664506 255.060331 
L 335.076047 254.945259 
L 335.781818 239.818041 
L 337.19336 239.885248 
L 337.89913 234.858603 
L 339.310672 235.065448 
L 340.016443 228.813468 
L 341.427984 229.106764 
L 342.133755 223.714169 
L 343.545296 224.024257 
L 344.251067 205.35609 
L 345.662609 205.833338 
L 346.368379 187.19564 
L 347.779921 187.937644 
L 348.485692 167.159098 
L 349.897233 168.200905 
L 350.603004 146.552865 
L 352.014545 147.827847 
L 352.720316 129.147454 
L 354.131858 130.424597 
L 354.837628 111.883954 
L 356.24917 113.143417 
L 356.954941 111.9093 
L 358.366482 112.576659 
L 359.072253 94.616635 
L 360.483794 95.407972 
L 361.189565 80.891935 
L 362.601107 81.822593 
L 363.306877 61.38 
L 364.718419 62.535832 
L 365.42419 79.20741 
L 366.835731 79.199409 
L 367.541502 74.549057 
L 368.953043 74.544237 
L 369.658814 68.635387 
L 371.070356 68.831679 
L 371.776126 64.284306 
L 373.187668 64.567389 
L 373.893439 65.162013 
L 375.30498 65.275828 
L 376.010751 70.050062 
L 377.422292 69.90402 
L 378.128063 65.085378 
L 379.539605 65.170041 
L 380.245375 63.607583 
L 381.656917 63.729979 
L 382.362688 67.387679 
L 385.891542 67.188867 
L 386.597312 67.544312 
L 390.126166 67.435265 
L 390.831937 73.377548 
L 392.243478 73.190827 
L 392.949249 68.856594 
L 394.360791 68.896766 
L 395.066561 67.429341 
L 396.478103 67.523993 
L 397.183874 69.103811 
L 398.595415 69.103572 
L 399.301186 72.588762 
L 400.712727 72.471704 
L 401.418498 71.074475 
L 402.83004 71.049127 
L 403.53581 75.753609 
L 404.947352 75.605476 
L 405.653123 74.962123 
L 407.064664 74.897794 
L 407.770435 76.079175 
L 409.181976 76.018752 
L 409.887747 76.469385 
L 411.299289 76.428219 
L 412.005059 79.672297 
L 413.416601 79.56183 
L 414.122372 78.540973 
L 415.533913 78.50717 
L 416.239684 78.989263 
L 417.651225 78.96473 
L 418.356996 77.714856 
L 419.768538 77.744173 
L 420.474308 73.208795 
L 421.88585 73.362665 
L 422.591621 73.81469 
L 424.003162 73.900345 
L 424.708933 76.249608 
L 426.120474 76.203613 
L 426.826245 74.253902 
L 428.237787 74.274539 
L 428.943557 73.866393 
L 430.355099 73.899749 
L 431.06087 74.289344 
L 432.472411 74.292739 
L 433.178182 74.592414 
L 434.589723 74.590038 
L 435.295494 73.264264 
L 436.707036 73.287876 
L 437.412806 72.14507 
L 438.824348 72.216153 
L 439.530119 70.849698 
L 440.94166 70.930593 
L 441.647431 73.121116 
L 443.058972 73.083049 
L 443.764743 72.079114 
L 445.176285 72.085177 
L 445.882055 72.963575 
L 447.293597 72.949854 
L 447.999368 71.806726 
L 449.410909 71.831381 
L 450.11668 70.290832 
L 451.528221 70.353431 
L 452.233992 68.033488 
L 455.762846 68.255096 
L 456.468617 69.03438 
L 457.880158 69.023524 
L 458.585929 69.950647 
L 459.99747 69.904558 
L 460.703241 69.457411 
L 462.114783 69.451428 
L 462.820553 69.89175 
L 464.232095 69.873047 
L 464.937866 70.589482 
L 466.349407 70.560049 
L 467.055178 71.088016 
L 468.466719 71.060776 
L 469.17249 72.025289 
L 470.584032 71.985143 
L 471.289802 72.754617 
L 472.701344 72.702161 
L 473.407115 71.747667 
L 474.818656 71.753374 
L 475.524427 76.530025 
L 476.935968 76.386196 
L 477.641739 77.674394 
L 479.053281 77.551528 
L 479.759051 87.041991 
L 481.170593 86.717891 
L 481.876364 89.902718 
L 483.287905 89.62674 
L 483.993676 99.376193 
L 485.405217 99.01112 
L 486.110988 104.356032 
L 487.52253 104.017918 
L 488.2283 131.216122 
L 489.639842 130.480445 
L 490.345613 141.408565 
L 491.757154 140.679343 
L 492.462925 159.513997 
L 493.874466 158.831781 
L 494.580237 164.762354 
L 495.991779 164.213526 
L 496.697549 180.097317 
L 498.109091 179.585383 
L 498.109091 179.585383 
" style="fill:none;stroke:#4c72b0;stroke-linecap:round;stroke-width:1.75;"/>
   </g>
   <g id="line2d_34">
    <path clip-path="url(#p9b0f9863e2)" d="M 92.290909 181.261863 
L 93.702451 181.261863 
L 94.408221 186.296312 
L 95.819763 186.296312 
L 96.525534 189.693852 
L 97.937075 189.693852 
L 98.642846 201.211494 
L 100.054387 201.211494 
L 100.760158 204.217816 
L 102.1717 204.217816 
L 102.87747 208.777541 
L 104.289012 208.777541 
L 104.994783 213.81628 
L 106.406324 213.81628 
L 107.112095 218.09395 
L 108.523636 218.09395 
L 109.229407 218.714055 
L 110.640949 218.714055 
L 111.346719 221.219526 
L 112.758261 221.219526 
L 113.464032 227.390172 
L 114.875573 227.390172 
L 115.581344 231.133305 
L 116.992885 231.133305 
L 117.698656 230.930946 
L 119.110198 230.930946 
L 119.815968 231.264835 
L 121.22751 231.264835 
L 121.933281 229.616041 
L 123.344822 229.616041 
L 124.050593 273.297292 
L 125.462134 273.297292 
L 126.167905 266.487904 
L 127.579447 266.487904 
L 128.285217 261.212934 
L 129.696759 261.212934 
L 130.40253 256.305237 
L 131.814071 256.305237 
L 132.519842 243.678342 
L 133.931383 243.678342 
L 134.637154 240.631126 
L 136.048696 240.631126 
L 136.754466 236.215392 
L 138.166008 236.215392 
L 138.871779 232.687338 
L 140.28332 232.687338 
L 140.989091 216.594923 
L 142.400632 216.594923 
L 143.106403 201.108854 
L 144.517945 201.108854 
L 145.223715 183.598256 
L 146.635257 183.598256 
L 147.341028 164.62253 
L 148.752569 164.62253 
L 149.45834 148.706606 
L 150.869881 148.706606 
L 151.575652 132.526528 
L 152.987194 132.526528 
L 153.692964 132.909798 
L 155.104506 132.909798 
L 155.810277 118.124214 
L 157.221818 118.124214 
L 157.927589 106.400143 
L 159.33913 106.400143 
L 160.044901 86.28501 
L 161.456443 86.28501 
L 162.162213 103.585239 
L 163.573755 103.585239 
L 164.279526 102.330385 
L 165.691067 102.330385 
L 166.396838 98.753085 
L 167.808379 98.753085 
L 168.51415 94.774338 
L 169.925692 94.774338 
L 170.631462 98.287621 
L 172.043004 98.287621 
L 172.748775 104.00316 
L 174.160316 104.00316 
L 174.866087 101.443236 
L 176.277628 101.443236 
L 176.983399 101.068516 
L 178.394941 101.068516 
L 179.100711 106.081519 
L 180.512253 106.081519 
L 181.218024 107.062816 
L 182.629565 107.062816 
L 183.335336 109.438754 
L 184.746877 109.438754 
L 185.452648 110.798218 
L 186.86419 110.798218 
L 187.56996 118.002441 
L 188.981502 118.002441 
L 189.687273 117.726119 
L 191.098814 117.726119 
L 191.804585 116.738287 
L 193.216126 116.738287 
L 193.921897 119.09125 
L 195.333439 119.09125 
L 196.039209 124.121294 
L 197.450751 124.121294 
L 198.156522 123.228601 
L 199.568063 123.228601 
L 200.273834 129.004725 
L 201.685375 129.004725 
L 202.391146 129.772861 
L 203.802688 129.772861 
L 204.508458 131.929075 
L 205.92 131.929075 
L 206.625771 132.902134 
L 208.037312 132.902134 
L 208.743083 136.387522 
L 210.154624 136.387522 
L 210.860395 135.762305 
L 212.271937 135.762305 
L 212.977708 137.086471 
L 214.389249 137.086471 
L 215.09502 136.566203 
L 216.506561 136.566203 
L 217.212332 133.27465 
L 218.623874 133.27465 
L 219.329644 132.981281 
L 220.741186 132.981281 
L 221.446957 135.666547 
L 222.858498 135.666547 
L 223.564269 135.140337 
L 224.97581 135.140337 
L 225.681581 133.995905 
L 227.093123 133.995905 
L 227.798893 134.415714 
L 229.210435 134.415714 
L 229.916206 135.686629 
L 231.327747 135.686629 
L 232.033518 134.323039 
L 233.445059 134.323039 
L 234.15083 134.775259 
L 235.562372 134.775259 
L 236.268142 133.154924 
L 237.679684 133.154924 
L 238.385455 134.49294 
L 239.796996 134.49294 
L 240.502767 133.649735 
L 241.914308 133.649735 
L 242.620079 135.030127 
L 244.031621 135.030127 
L 244.737391 134.737272 
L 246.148933 134.737272 
L 246.854704 133.645646 
L 248.266245 133.645646 
L 248.972016 131.58027 
L 252.50087 131.542448 
L 253.20664 131.114558 
L 254.618182 131.114558 
L 255.323953 132.366337 
L 256.735494 132.366337 
L 257.441265 131.808141 
L 260.970119 131.70602 
L 261.675889 132.473366 
L 263.087431 132.473366 
L 263.793202 133.032091 
L 265.204743 133.032091 
L 265.910514 133.564882 
L 267.322055 133.564882 
L 268.027826 134.284699 
L 269.439368 134.284699 
L 270.145138 133.36784 
L 271.55668 133.36784 
L 272.262451 137.193654 
L 273.673992 137.193654 
L 274.379763 138.027972 
L 275.791304 138.027972 
L 276.497075 145.463618 
L 277.908617 145.463618 
L 278.614387 147.575765 
L 280.025929 147.575765 
L 280.7317 156.429482 
L 282.143241 156.429482 
L 282.849012 160.420127 
L 284.260553 160.420127 
L 284.966324 182.610442 
L 286.377866 182.610442 
L 287.083636 191.247249 
L 288.495178 191.247249 
L 289.200949 207.586162 
L 290.61249 207.586162 
L 291.318261 212.519949 
L 292.729802 212.519949 
L 293.435573 227.037171 
L 294.847115 227.037171 
L 295.552885 227.249074 
L 296.964427 227.249074 
L 297.670198 228.310819 
L 299.081739 228.310819 
L 299.78751 224.934818 
L 301.199051 224.934818 
L 301.904822 228.783765 
L 303.316364 228.783765 
L 304.022134 230.208532 
L 305.433676 230.208532 
L 306.139447 233.345164 
L 307.550988 233.345164 
L 308.256759 232.355846 
L 309.6683 232.355846 
L 310.374071 237.691693 
L 311.785613 237.691693 
L 312.491383 236.27279 
L 313.902925 236.27279 
L 314.608696 235.866132 
L 316.020237 235.866132 
L 316.726008 236.696677 
L 318.137549 236.696677 
L 318.84332 243.108767 
L 320.254862 243.108767 
L 320.960632 241.303942 
L 322.372174 241.303942 
L 323.077945 239.737835 
L 324.489486 239.737835 
L 325.195257 236.341683 
L 326.606798 236.341683 
L 327.312569 278.732108 
L 328.724111 278.732108 
L 329.429881 270.579798 
L 330.841423 270.579798 
L 331.547194 263.092547 
L 332.958735 263.092547 
L 333.664506 255.876721 
L 335.076047 255.876721 
L 335.781818 241.674468 
L 337.19336 241.674468 
L 337.89913 236.900644 
L 339.310672 236.900644 
L 340.016443 230.996185 
L 341.427984 230.996185 
L 342.133755 225.810702 
L 343.545296 225.810702 
L 344.251067 208.23997 
L 345.662609 208.23997 
L 346.368379 190.754951 
L 347.779921 190.754951 
L 348.485692 171.274028 
L 349.897233 171.274028 
L 350.603004 150.935426 
L 352.014545 150.935426 
L 352.720316 133.231525 
L 354.131858 133.231525 
L 354.837628 115.742362 
L 356.24917 115.742362 
L 356.954941 114.141637 
L 358.366482 114.141637 
L 359.072253 97.403714 
L 360.483794 97.403714 
L 361.189565 83.813749 
L 362.601107 83.813749 
L 363.306877 64.727259 
L 364.718419 64.727259 
L 365.42419 79.706431 
L 366.835731 79.706431 
L 367.541502 75.491711 
L 368.953043 75.491711 
L 369.658814 70.012568 
L 371.070356 70.012568 
L 371.776126 65.769352 
L 373.187668 65.769352 
L 373.893439 66.229894 
L 375.30498 66.229894 
L 376.010751 70.5726 
L 377.422292 70.5726 
L 378.128063 66.217966 
L 379.539605 66.217966 
L 380.245375 64.743221 
L 381.656917 64.743221 
L 382.362688 68.061551 
L 385.891542 68.026368 
L 386.597312 68.351682 
L 390.126166 68.317766 
L 390.831937 73.798573 
L 392.243478 73.798573 
L 392.949249 69.897989 
L 394.360791 69.897989 
L 395.066561 68.517811 
L 396.478103 68.517811 
L 397.183874 69.95081 
L 398.595415 69.95081 
L 399.301186 73.180714 
L 400.712727 73.180714 
L 401.418498 71.939915 
L 402.83004 71.939915 
L 403.53581 76.272282 
L 404.947352 76.272282 
L 405.653123 75.741451 
L 407.064664 75.741451 
L 407.770435 76.834508 
L 409.181976 76.834508 
L 409.887747 77.271054 
L 411.299289 77.271054 
L 412.005059 80.282439 
L 413.416601 80.282439 
L 414.122372 79.383391 
L 415.533913 79.383391 
L 416.239684 79.823758 
L 417.651225 79.823758 
L 418.356996 78.681397 
L 419.768538 78.681397 
L 420.474308 74.475192 
L 421.88585 74.475192 
L 422.591621 74.845407 
L 424.003162 74.845407 
L 424.708933 76.992454 
L 426.120474 76.992454 
L 426.826245 75.215281 
L 428.237787 75.215281 
L 428.943557 74.823927 
L 430.355099 74.823927 
L 431.06087 75.171656 
L 432.472411 75.171656 
L 433.178182 75.46202 
L 434.589723 75.46202 
L 435.295494 74.222736 
L 436.707036 74.222736 
L 437.412806 73.180834 
L 438.824348 73.180834 
L 439.530119 71.903979 
L 440.94166 71.903979 
L 441.647431 73.889167 
L 443.058972 73.889167 
L 443.764743 72.99233 
L 445.176285 72.99233 
L 445.882055 73.803341 
L 447.293597 73.803341 
L 447.999368 72.757915 
L 449.410909 72.757915 
L 450.11668 71.322897 
L 451.528221 71.322897 
L 452.233992 69.171724 
L 455.762846 69.17911 
L 456.468617 69.881876 
L 457.880158 69.881876 
L 458.585929 70.734595 
L 459.99747 70.734595 
L 460.703241 70.341936 
L 462.114783 70.341936 
L 462.820553 70.73726 
L 464.232095 70.73726 
L 464.937866 71.40696 
L 466.349407 71.40696 
L 467.055178 71.910771 
L 468.466719 71.910771 
L 469.17249 72.814792 
L 470.584032 72.814792 
L 471.289802 73.529297 
L 472.701344 73.529297 
L 473.407115 72.665571 
L 474.818656 72.665571 
L 475.524427 77.054037 
L 476.935968 77.054037 
L 477.641739 78.304173 
L 479.053281 78.304173 
L 479.759051 87.111447 
L 481.170593 87.111447 
L 481.876364 90.188072 
L 483.287905 90.188072 
L 483.993676 99.328528 
L 485.405217 99.328528 
L 486.110988 104.437379 
L 487.52253 104.437379 
L 488.2283 129.862497 
L 489.639842 129.862497 
L 490.345613 140.361495 
L 491.757154 140.361495 
L 492.462925 158.28935 
L 493.874466 158.28935 
L 494.580237 164.123269 
L 495.991779 164.123269 
L 496.697549 179.220416 
L 498.109091 179.220416 
L 498.109091 179.220416 
" style="fill:none;stroke:#55a868;stroke-linecap:round;stroke-width:1.75;"/>
   </g>
   <g id="line2d_35">
    <path clip-path="url(#p9b0f9863e2)" d="M 92.290909 212.767048 
L 93.702451 212.767048 
L 94.408221 214.635015 
L 95.819763 214.635015 
L 96.525534 217.845331 
L 97.937075 217.845331 
L 98.642846 226.865078 
L 100.054387 226.865078 
L 100.760158 229.259787 
L 102.1717 229.259787 
L 102.87747 232.628217 
L 104.289012 232.628217 
L 104.994783 236.616138 
L 106.406324 236.616138 
L 107.112095 239.865535 
L 108.523636 239.865535 
L 109.229407 240.031737 
L 110.640949 240.031737 
L 111.346719 240.629408 
L 112.758261 240.629408 
L 113.464032 245.26545 
L 114.875573 245.26545 
L 115.581344 248.989201 
L 116.992885 248.989201 
L 117.698656 248.588565 
L 119.110198 248.588565 
L 119.815968 249.339645 
L 121.22751 249.339645 
L 121.933281 247.422595 
L 123.344822 247.422595 
L 124.050593 285.91595 
L 125.462134 285.91595 
L 126.167905 280.950565 
L 127.579447 280.950565 
L 128.285217 276.001416 
L 129.696759 276.001416 
L 130.40253 271.601734 
L 131.814071 271.601734 
L 132.519842 261.870404 
L 133.931383 261.870404 
L 134.637154 259.829144 
L 136.048696 259.829144 
L 136.754466 255.095205 
L 138.166008 255.095205 
L 138.871779 252.675398 
L 140.28332 252.675398 
L 140.989091 242.099365 
L 142.400632 242.099365 
L 143.106403 230.590069 
L 144.517945 230.590069 
L 145.223715 216.711192 
L 146.635257 216.711192 
L 147.341028 201.63851 
L 148.752569 201.63851 
L 149.45834 190.849433 
L 150.869881 190.849433 
L 151.575652 177.67962 
L 152.987194 177.67962 
L 153.692964 179.150869 
L 155.104506 179.150869 
L 155.810277 168.109346 
L 157.221818 168.109346 
L 157.927589 156.651034 
L 159.33913 156.651034 
L 160.044901 141.120058 
L 161.456443 141.120058 
L 162.162213 154.773694 
L 163.573755 154.773694 
L 164.279526 153.714167 
L 165.691067 153.714167 
L 166.396838 152.250916 
L 167.808379 152.250916 
L 168.51415 148.227557 
L 169.925692 148.227557 
L 170.631462 150.610056 
L 172.043004 150.610056 
L 172.748775 156.440669 
L 174.160316 156.440669 
L 174.866087 153.695485 
L 176.277628 153.695485 
L 176.983399 152.693707 
L 178.394941 152.693707 
L 179.100711 157.616114 
L 180.512253 157.616114 
L 181.218024 158.824356 
L 182.629565 158.824356 
L 183.335336 162.058783 
L 184.746877 162.058783 
L 185.452648 162.684974 
L 186.86419 162.684974 
L 187.56996 168.499875 
L 188.981502 168.499875 
L 189.687273 167.546628 
L 191.098814 167.546628 
L 191.804585 166.78883 
L 193.216126 166.78883 
L 193.921897 168.300035 
L 195.333439 168.300035 
L 196.039209 171.660244 
L 197.450751 171.660244 
L 198.156522 170.803594 
L 199.568063 170.803594 
L 200.273834 175.852572 
L 201.685375 175.852572 
L 202.391146 176.087941 
L 203.802688 176.087941 
L 204.508458 178.347584 
L 205.92 178.347584 
L 206.625771 179.366739 
L 208.037312 179.366739 
L 208.743083 181.77752 
L 210.154624 181.77752 
L 210.860395 181.081865 
L 212.271937 181.081865 
L 212.977708 182.582331 
L 214.389249 182.582331 
L 215.09502 182.058346 
L 216.506561 182.058346 
L 217.212332 180.299403 
L 218.623874 180.299403 
L 219.329644 179.29013 
L 220.741186 179.29013 
L 221.446957 181.236501 
L 222.858498 181.236501 
L 223.564269 181.010729 
L 224.97581 181.010729 
L 225.681581 180.213064 
L 227.093123 180.213064 
L 227.798893 180.568301 
L 229.210435 180.568301 
L 229.916206 180.833528 
L 231.327747 180.833528 
L 232.033518 180.594425 
L 233.445059 180.594425 
L 234.15083 180.396663 
L 235.562372 180.396663 
L 236.268142 178.493462 
L 237.679684 178.493462 
L 238.385455 179.845925 
L 239.796996 179.845925 
L 240.502767 178.674515 
L 241.914308 178.674515 
L 242.620079 179.517036 
L 244.031621 179.517036 
L 244.737391 179.369062 
L 246.148933 179.369062 
L 246.854704 178.743234 
L 248.266245 178.743234 
L 248.972016 176.733624 
L 252.50087 176.785262 
L 253.20664 176.49973 
L 254.618182 176.49973 
L 255.323953 177.891639 
L 256.735494 177.891639 
L 257.441265 177.390506 
L 260.970119 177.412508 
L 261.675889 178.134453 
L 263.087431 178.134453 
L 263.793202 178.38717 
L 267.322055 178.462741 
L 268.027826 179.37224 
L 269.439368 179.37224 
L 270.145138 178.803642 
L 271.55668 178.803642 
L 272.262451 182.118952 
L 273.673992 182.118952 
L 274.379763 182.72469 
L 275.791304 182.72469 
L 276.497075 188.545898 
L 277.908617 188.545898 
L 278.614387 189.792215 
L 280.025929 189.792215 
L 280.7317 196.193232 
L 282.143241 196.193232 
L 282.849012 198.914103 
L 284.260553 198.914103 
L 284.966324 215.813112 
L 286.377866 215.813112 
L 287.083636 223.121355 
L 288.495178 223.121355 
L 289.200949 234.920647 
L 290.61249 234.920647 
L 291.318261 238.541874 
L 292.729802 238.541874 
L 293.435573 249.816341 
L 294.847115 249.816341 
L 295.552885 250.143777 
L 299.081739 250.221775 
L 299.78751 246.947514 
L 301.199051 246.947514 
L 301.904822 249.998859 
L 303.316364 249.998859 
L 304.022134 250.620647 
L 305.433676 250.620647 
L 306.139447 252.907511 
L 307.550988 252.907511 
L 308.256759 252.100149 
L 309.6683 252.100149 
L 310.374071 256.164253 
L 311.785613 256.164253 
L 312.491383 254.575532 
L 313.902925 254.575532 
L 314.608696 253.256749 
L 316.020237 253.256749 
L 316.726008 252.545808 
L 318.137549 252.545808 
L 318.84332 258.346087 
L 320.254862 258.346087 
L 320.960632 256.857983 
L 322.372174 256.857983 
L 323.077945 256.03091 
L 324.489486 256.03091 
L 325.195257 252.72151 
L 326.606798 252.72151 
L 327.312569 290.037563 
L 328.724111 290.037563 
L 329.429881 283.985635 
L 330.841423 283.985635 
L 331.547194 277.268053 
L 332.958735 277.268053 
L 333.664506 271.078024 
L 335.076047 271.078024 
L 335.781818 260.090809 
L 337.19336 260.090809 
L 337.89913 256.642902 
L 339.310672 256.642902 
L 340.016443 250.703046 
L 341.427984 250.703046 
L 342.133755 247.016687 
L 343.545296 247.016687 
L 344.251067 235.250441 
L 345.662609 235.250441 
L 346.368379 222.199387 
L 347.779921 222.199387 
L 348.485692 206.746896 
L 349.897233 206.746896 
L 350.603004 190.604716 
L 352.014545 190.604716 
L 352.720316 178.403115 
L 354.131858 178.403115 
L 354.837628 164.15756 
L 358.366482 164.117396 
L 359.072253 151.107513 
L 360.483794 151.107513 
L 361.189565 138.560146 
L 362.601107 138.560146 
L 363.306877 123.953449 
L 364.718419 123.953449 
L 365.42419 135.64282 
L 366.835731 135.64282 
L 367.541502 132.288359 
L 368.953043 132.288359 
L 369.658814 129.111949 
L 371.070356 129.111949 
L 371.776126 124.896289 
L 375.30498 124.959824 
L 376.010751 129.767365 
L 377.422292 129.767365 
L 378.128063 125.292761 
L 379.539605 125.292761 
L 380.245375 123.864283 
L 381.656917 123.864283 
L 382.362688 127.007758 
L 383.774229 127.007758 
L 384.48 127.764998 
L 385.891542 127.764998 
L 386.597312 128.974742 
L 388.008854 128.974742 
L 388.714624 128.810613 
L 390.126166 128.810613 
L 390.831937 133.131272 
L 392.243478 133.131272 
L 392.949249 129.148052 
L 394.360791 129.148052 
L 395.066561 128.073247 
L 396.478103 128.073247 
L 397.183874 128.780501 
L 398.595415 128.780501 
L 399.301186 130.915368 
L 400.712727 130.915368 
L 401.418498 129.914614 
L 402.83004 129.914614 
L 403.53581 133.653807 
L 404.947352 133.653807 
L 405.653123 133.068863 
L 407.064664 133.068863 
L 407.770435 134.416211 
L 409.181976 134.416211 
L 409.887747 134.727813 
L 411.299289 134.727813 
L 412.005059 136.826077 
L 413.416601 136.826077 
L 414.122372 136.140395 
L 415.533913 136.140395 
L 416.239684 136.910005 
L 417.651225 136.910005 
L 418.356996 135.913199 
L 419.768538 135.913199 
L 420.474308 133.265666 
L 421.88585 133.265666 
L 422.591621 132.899424 
L 424.003162 132.899424 
L 424.708933 134.4754 
L 426.120474 134.4754 
L 426.826245 133.221131 
L 428.237787 133.221131 
L 428.943557 133.012384 
L 430.355099 133.012384 
L 431.06087 133.293597 
L 432.472411 133.293597 
L 433.178182 132.931606 
L 436.707036 132.832801 
L 437.412806 131.000322 
L 438.824348 131.000322 
L 439.530119 129.721877 
L 440.94166 129.721877 
L 441.647431 131.597678 
L 443.058972 131.597678 
L 443.764743 130.525227 
L 445.176285 130.525227 
L 445.882055 130.888513 
L 447.293597 130.888513 
L 447.999368 130.025869 
L 449.410909 130.025869 
L 450.11668 129.083129 
L 451.528221 129.083129 
L 452.233992 127.02882 
L 453.645534 127.02882 
L 454.351304 127.15489 
L 455.762846 127.15489 
L 456.468617 127.797803 
L 457.880158 127.797803 
L 458.585929 128.815485 
L 459.99747 128.815485 
L 460.703241 128.375427 
L 462.114783 128.375427 
L 462.820553 129.102457 
L 464.232095 129.102457 
L 464.937866 129.508033 
L 466.349407 129.508033 
L 467.055178 129.629164 
L 468.466719 129.629164 
L 469.17249 130.116819 
L 470.584032 130.116819 
L 471.289802 131.078026 
L 472.701344 131.078026 
L 473.407115 130.453618 
L 474.818656 130.453618 
L 475.524427 134.383444 
L 476.935968 134.383444 
L 477.641739 135.20799 
L 479.053281 135.20799 
L 479.759051 142.034152 
L 481.170593 142.034152 
L 481.876364 144.201521 
L 483.287905 144.201521 
L 483.993676 150.187162 
L 485.405217 150.187162 
L 486.110988 153.513489 
L 487.52253 153.513489 
L 488.2283 173.175197 
L 489.639842 173.175197 
L 490.345613 182.081512 
L 491.757154 182.081512 
L 492.462925 194.788969 
L 493.874466 194.788969 
L 494.580237 199.358197 
L 495.991779 199.358197 
L 496.697549 211.337106 
L 498.109091 211.337106 
L 498.109091 211.337106 
" style="fill:none;stroke:#c44e52;stroke-linecap:round;stroke-width:1.75;"/>
   </g>
   <g id="line2d_36">
    <path clip-path="url(#p9b0f9863e2)" d="M 92.290909 318.38027 
L 93.702451 318.38027 
L 94.408221 321.546752 
L 95.819763 321.546752 
L 96.525534 321.733976 
L 97.937075 321.733976 
L 98.642846 324.231871 
L 100.054387 324.231871 
L 100.760158 324.843484 
L 102.1717 324.843484 
L 102.87747 326.034778 
L 104.289012 326.034778 
L 104.994783 327.085598 
L 106.406324 327.085598 
L 107.112095 328.11387 
L 108.523636 328.11387 
L 109.229407 328.567772 
L 110.640949 328.567772 
L 111.346719 330.475573 
L 112.758261 330.475573 
L 113.464032 332.010176 
L 116.992885 332.029559 
L 117.698656 332.227835 
L 119.110198 332.227835 
L 119.815968 331.810646 
L 121.22751 331.810646 
L 121.933281 332.078901 
L 123.344822 332.078901 
L 124.050593 337.266797 
L 125.462134 337.266797 
L 126.167905 335.422794 
L 127.579447 335.422794 
L 128.285217 335.096973 
L 129.696759 335.096973 
L 130.40253 334.588957 
L 131.814071 334.588957 
L 132.519842 331.693393 
L 133.931383 331.693393 
L 134.637154 330.687436 
L 136.048696 330.687436 
L 136.754466 331.005641 
L 138.166008 331.005641 
L 138.871779 329.897394 
L 140.28332 329.897394 
L 140.989091 324.381013 
L 142.400632 324.381013 
L 143.106403 320.404239 
L 144.517945 320.404239 
L 145.223715 316.772518 
L 146.635257 316.772518 
L 147.341028 312.869475 
L 148.752569 312.869475 
L 149.45834 307.742627 
L 150.869881 307.742627 
L 151.575652 304.732363 
L 152.987194 304.732363 
L 153.692964 303.644384 
L 155.104506 303.644384 
L 155.810277 299.900323 
L 157.221818 299.900323 
L 157.927589 299.634563 
L 159.33913 299.634563 
L 160.044901 295.050406 
L 161.456443 295.050406 
L 162.162213 298.697 
L 163.573755 298.697 
L 164.279526 298.501673 
L 165.691067 298.501673 
L 166.396838 296.387624 
L 169.925692 296.432236 
L 170.631462 297.56302 
L 172.043004 297.56302 
L 172.748775 297.447946 
L 174.160316 297.447946 
L 174.866087 297.633205 
L 176.277628 297.633205 
L 176.983399 298.260263 
L 180.512253 298.35086 
L 181.218024 298.123915 
L 182.629565 298.123915 
L 183.335336 297.265426 
L 184.746877 297.265426 
L 185.452648 297.998699 
L 186.86419 297.998699 
L 187.56996 299.388021 
L 188.981502 299.388021 
L 189.687273 300.064945 
L 191.098814 300.064945 
L 191.804585 299.834912 
L 193.216126 299.834912 
L 193.921897 300.67667 
L 195.333439 300.67667 
L 196.039209 302.346504 
L 199.568063 302.310462 
L 200.273834 303.037608 
L 201.685375 303.037608 
L 202.391146 303.570374 
L 205.92 303.466946 
L 208.037312 303.420849 
L 208.743083 304.495457 
L 216.506561 304.393311 
L 217.212332 302.860701 
L 218.623874 302.860701 
L 219.329644 303.576606 
L 220.741186 303.576606 
L 221.446957 304.3155 
L 222.858498 304.3155 
L 223.564269 304.015063 
L 224.97581 304.015063 
L 225.681581 303.668296 
L 229.210435 303.732869 
L 229.916206 304.738555 
L 231.327747 304.738555 
L 232.033518 303.614069 
L 233.445059 303.614069 
L 234.15083 304.264051 
L 235.562372 304.264051 
L 236.268142 304.546917 
L 239.796996 304.53247 
L 240.502767 304.860674 
L 241.914308 304.860674 
L 242.620079 305.398546 
L 244.031621 305.398546 
L 244.737391 305.253665 
L 246.148933 305.253665 
L 246.854704 304.787868 
L 250.383557 304.732101 
L 251.795099 304.64264 
L 252.50087 304.64264 
L 253.20664 304.500282 
L 254.618182 304.500282 
L 255.323953 304.360153 
L 258.852806 304.303089 
L 259.558577 304.178966 
L 263.087431 304.224368 
L 263.793202 304.530376 
L 265.204743 304.530376 
L 265.910514 304.987595 
L 267.322055 304.987595 
L 268.027826 304.797914 
L 269.439368 304.797914 
L 270.145138 304.449653 
L 271.55668 304.449653 
L 272.262451 304.960156 
L 273.673992 304.960156 
L 274.379763 305.188737 
L 275.791304 305.188737 
L 276.497075 306.803175 
L 277.908617 306.803175 
L 278.614387 307.669004 
L 280.025929 307.669004 
L 280.7317 310.121705 
L 282.143241 310.121705 
L 282.849012 311.391479 
L 284.260553 311.391479 
L 284.966324 316.682784 
L 286.377866 316.682784 
L 287.083636 318.011349 
L 288.495178 318.011349 
L 289.200949 322.55097 
L 290.61249 322.55097 
L 291.318261 323.86353 
L 292.729802 323.86353 
L 293.435573 327.106284 
L 294.847115 327.106284 
L 295.552885 326.990752 
L 296.964427 326.990752 
L 297.670198 327.974499 
L 301.199051 327.872759 
L 301.904822 328.670361 
L 303.316364 328.670361 
L 304.022134 329.47334 
L 305.433676 329.47334 
L 306.139447 330.323107 
L 307.550988 330.323107 
L 308.256759 330.141152 
L 309.6683 330.141152 
L 310.374071 331.412895 
L 311.785613 331.412895 
L 312.491383 331.582713 
L 313.902925 331.582713 
L 314.608696 332.494838 
L 316.020237 332.494838 
L 316.726008 334.036323 
L 318.137549 334.036323 
L 318.84332 334.648135 
L 320.254862 334.648135 
L 320.960632 334.331413 
L 322.372174 334.331413 
L 323.077945 333.592379 
L 326.606798 333.505628 
L 327.312569 338.58 
L 328.724111 338.58 
L 329.429881 336.479618 
L 330.841423 336.479618 
L 331.547194 335.709949 
L 332.958735 335.709949 
L 333.664506 334.684152 
L 335.076047 334.684152 
L 335.781818 331.469114 
L 337.19336 331.469114 
L 337.89913 330.143196 
L 341.427984 330.178593 
L 342.133755 328.679469 
L 343.545296 328.679469 
L 344.251067 322.874984 
L 345.662609 322.874984 
L 346.368379 318.441019 
L 347.779921 318.441019 
L 348.485692 314.412587 
L 349.897233 314.412587 
L 350.603004 310.216165 
L 352.014545 310.216165 
L 352.720316 304.713864 
L 354.131858 304.713864 
L 354.837628 301.470257 
L 356.24917 301.470257 
L 356.954941 299.909695 
L 358.366482 299.909695 
L 359.072253 296.181656 
L 360.483794 296.181656 
L 361.189565 295.139058 
L 362.601107 295.139058 
L 363.306877 290.659265 
L 364.718419 290.659265 
L 365.42419 293.949067 
L 366.835731 293.949067 
L 367.541502 293.088806 
L 368.953043 293.088806 
L 369.658814 290.786074 
L 373.187668 290.758517 
L 373.893439 291.155525 
L 375.30498 291.155525 
L 376.010751 290.69069 
L 377.422292 290.69069 
L 378.128063 290.81066 
L 381.656917 290.764393 
L 382.362688 290.939247 
L 383.774229 290.939247 
L 384.48 290.146825 
L 385.891542 290.146825 
L 386.597312 289.262395 
L 388.008854 289.262395 
L 388.714624 289.392608 
L 390.126166 289.392608 
L 390.831937 290.552756 
L 394.360791 290.635391 
L 395.066561 290.330019 
L 396.478103 290.330019 
L 397.183874 291.055764 
L 398.595415 291.055764 
L 399.301186 292.150801 
L 400.712727 292.150801 
L 401.418498 291.910756 
L 402.83004 291.910756 
L 403.53581 292.503929 
L 407.064664 292.558042 
L 407.770435 292.303752 
L 409.181976 292.303752 
L 409.887747 292.428696 
L 411.299289 292.428696 
L 412.005059 293.341817 
L 413.416601 293.341817 
L 414.122372 293.12845 
L 415.533913 293.12845 
L 416.239684 292.799208 
L 417.651225 292.799208 
L 418.356996 292.653653 
L 419.768538 292.653653 
L 420.474308 291.094981 
L 421.88585 291.094981 
L 422.591621 291.831438 
L 424.003162 291.831438 
L 424.708933 292.402508 
L 426.120474 292.402508 
L 426.826245 291.879604 
L 428.237787 291.879604 
L 428.943557 291.696997 
L 432.472411 291.763514 
L 433.178182 292.415868 
L 434.589723 292.415868 
L 435.295494 291.27539 
L 436.707036 291.27539 
L 437.412806 292.065966 
L 443.058972 292.176944 
L 443.764743 292.352558 
L 445.176285 292.352558 
L 445.882055 292.800282 
L 447.293597 292.800282 
L 447.999368 292.617501 
L 449.410909 292.617501 
L 450.11668 292.125223 
L 453.645534 292.028359 
L 454.351304 291.909676 
L 462.114783 291.851964 
L 462.820553 291.520258 
L 464.232095 291.520258 
L 464.937866 291.784382 
L 466.349407 291.784382 
L 467.055178 292.167062 
L 468.466719 292.167062 
L 469.17249 292.583428 
L 470.584032 292.583428 
L 471.289802 292.336726 
L 472.701344 292.336726 
L 473.407115 292.097407 
L 474.818656 292.097407 
L 475.524427 292.556048 
L 476.935968 292.556048 
L 477.641739 292.981639 
L 479.053281 292.981639 
L 479.759051 294.96275 
L 481.170593 294.96275 
L 481.876364 295.872006 
L 483.287905 295.872006 
L 483.993676 299.026821 
L 485.405217 299.026821 
L 486.110988 300.809345 
L 487.52253 300.809345 
L 488.2283 306.572755 
L 489.639842 306.572755 
L 490.345613 308.165438 
L 491.757154 308.165438 
L 492.462925 313.385836 
L 493.874466 313.385836 
L 494.580237 314.650527 
L 495.991779 314.650527 
L 496.697549 317.768765 
L 498.109091 317.768765 
L 498.109091 317.768765 
" style="fill:none;stroke:#8172b2;stroke-linecap:round;stroke-width:1.75;"/>
   </g>
   <g id="line2d_37">
    <path clip-path="url(#p9b0f9863e2)" d="M 72 349.885455 
L 518.4 349.885455 
" style="fill:none;stroke:#000000;stroke-dasharray:7.4,3.2;stroke-dashoffset:0;stroke-width:2;"/>
   </g>
   <g id="patch_3">
    <path d="M 72 352.44 
L 72 47.52 
" style="fill:none;"/>
   </g>
   <g id="patch_4">
    <path d="M 518.4 352.44 
L 518.4 47.52 
" style="fill:none;"/>
   </g>
   <g id="patch_5">
    <path d="M 72 352.44 
L 518.4 352.44 
" style="fill:none;"/>
   </g>
   <g id="patch_6">
    <path d="M 72 47.52 
L 518.4 47.52 
" style="fill:none;"/>
   </g>
   <g id="text_18">
    <!-- Heat flows [W] -->
    <defs>
     <path d="M 8.015625 0 
L 8.015625 71.578125 
L 17.484375 71.578125 
L 17.484375 42.1875 
L 54.6875 42.1875 
L 54.6875 71.578125 
L 64.15625 71.578125 
L 64.15625 0 
L 54.6875 0 
L 54.6875 33.734375 
L 17.484375 33.734375 
L 17.484375 0 
z
" id="ArialMT-72"/>
     <path d="M 40.4375 6.390625 
Q 35.546875 2.25 31.03125 0.53125 
Q 26.515625 -1.171875 21.34375 -1.171875 
Q 12.796875 -1.171875 8.203125 3 
Q 3.609375 7.171875 3.609375 13.671875 
Q 3.609375 17.484375 5.34375 20.625 
Q 7.078125 23.78125 9.890625 25.6875 
Q 12.703125 27.59375 16.21875 28.5625 
Q 18.796875 29.25 24.03125 29.890625 
Q 34.671875 31.15625 39.703125 32.90625 
Q 39.75 34.71875 39.75 35.203125 
Q 39.75 40.578125 37.25 42.78125 
Q 33.890625 45.75 27.25 45.75 
Q 21.046875 45.75 18.09375 43.578125 
Q 15.140625 41.40625 13.71875 35.890625 
L 5.125 37.0625 
Q 6.296875 42.578125 8.984375 45.96875 
Q 11.671875 49.359375 16.75 51.1875 
Q 21.828125 53.03125 28.515625 53.03125 
Q 35.15625 53.03125 39.296875 51.46875 
Q 43.453125 49.90625 45.40625 47.53125 
Q 47.359375 45.171875 48.140625 41.546875 
Q 48.578125 39.3125 48.578125 33.453125 
L 48.578125 21.734375 
Q 48.578125 9.46875 49.140625 6.21875 
Q 49.703125 2.984375 51.375 0 
L 42.1875 0 
Q 40.828125 2.734375 40.4375 6.390625 
z
M 39.703125 26.03125 
Q 34.90625 24.078125 25.34375 22.703125 
Q 19.921875 21.921875 17.671875 20.9375 
Q 15.4375 19.96875 14.203125 18.09375 
Q 12.984375 16.21875 12.984375 13.921875 
Q 12.984375 10.40625 15.640625 8.0625 
Q 18.3125 5.71875 23.4375 5.71875 
Q 28.515625 5.71875 32.46875 7.9375 
Q 36.421875 10.15625 38.28125 14.015625 
Q 39.703125 17 39.703125 22.796875 
z
" id="ArialMT-97"/>
     <path d="M 25.78125 7.859375 
L 27.046875 0.09375 
Q 23.34375 -0.6875 20.40625 -0.6875 
Q 15.625 -0.6875 12.984375 0.828125 
Q 10.359375 2.34375 9.28125 4.8125 
Q 8.203125 7.28125 8.203125 15.1875 
L 8.203125 45.015625 
L 1.765625 45.015625 
L 1.765625 51.859375 
L 8.203125 51.859375 
L 8.203125 64.703125 
L 16.9375 69.96875 
L 16.9375 51.859375 
L 25.78125 51.859375 
L 25.78125 45.015625 
L 16.9375 45.015625 
L 16.9375 14.703125 
Q 16.9375 10.9375 17.40625 9.859375 
Q 17.875 8.796875 18.921875 8.15625 
Q 19.96875 7.515625 21.921875 7.515625 
Q 23.390625 7.515625 25.78125 7.859375 
z
" id="ArialMT-116"/>
     <path d="M 8.6875 0 
L 8.6875 45.015625 
L 0.921875 45.015625 
L 0.921875 51.859375 
L 8.6875 51.859375 
L 8.6875 57.375 
Q 8.6875 62.59375 9.625 65.140625 
Q 10.890625 68.5625 14.078125 70.671875 
Q 17.28125 72.796875 23.046875 72.796875 
Q 26.765625 72.796875 31.25 71.921875 
L 29.9375 64.265625 
Q 27.203125 64.75 24.75 64.75 
Q 20.75 64.75 19.09375 63.03125 
Q 17.4375 61.328125 17.4375 56.640625 
L 17.4375 51.859375 
L 27.546875 51.859375 
L 27.546875 45.015625 
L 17.4375 45.015625 
L 17.4375 0 
z
" id="ArialMT-102"/>
     <path d="M 6.390625 0 
L 6.390625 71.578125 
L 15.1875 71.578125 
L 15.1875 0 
z
" id="ArialMT-108"/>
     <path d="M 3.328125 25.921875 
Q 3.328125 40.328125 11.328125 47.265625 
Q 18.015625 53.03125 27.640625 53.03125 
Q 38.328125 53.03125 45.109375 46.015625 
Q 51.90625 39.015625 51.90625 26.65625 
Q 51.90625 16.65625 48.90625 10.90625 
Q 45.90625 5.171875 40.15625 2 
Q 34.421875 -1.171875 27.640625 -1.171875 
Q 16.75 -1.171875 10.03125 5.8125 
Q 3.328125 12.796875 3.328125 25.921875 
z
M 12.359375 25.921875 
Q 12.359375 15.96875 16.703125 11.015625 
Q 21.046875 6.0625 27.640625 6.0625 
Q 34.1875 6.0625 38.53125 11.03125 
Q 42.875 16.015625 42.875 26.21875 
Q 42.875 35.84375 38.5 40.796875 
Q 34.125 45.75 27.640625 45.75 
Q 21.046875 45.75 16.703125 40.8125 
Q 12.359375 35.890625 12.359375 25.921875 
z
" id="ArialMT-111"/>
     <path d="M 16.15625 0 
L 0.296875 51.859375 
L 9.375 51.859375 
L 17.625 21.921875 
L 20.703125 10.796875 
Q 20.90625 11.625 23.390625 21.484375 
L 31.640625 51.859375 
L 40.671875 51.859375 
L 48.4375 21.78125 
L 51.03125 11.859375 
L 54 21.875 
L 62.890625 51.859375 
L 71.4375 51.859375 
L 55.21875 0 
L 46.09375 0 
L 37.84375 31.0625 
L 35.84375 39.890625 
L 25.34375 0 
z
" id="ArialMT-119"/>
     <path d="M 3.078125 15.484375 
L 11.765625 16.84375 
Q 12.5 11.625 15.84375 8.84375 
Q 19.1875 6.0625 25.203125 6.0625 
Q 31.25 6.0625 34.171875 8.515625 
Q 37.109375 10.984375 37.109375 14.3125 
Q 37.109375 17.28125 34.515625 19 
Q 32.71875 20.171875 25.53125 21.96875 
Q 15.875 24.421875 12.140625 26.203125 
Q 8.40625 27.984375 6.46875 31.125 
Q 4.546875 34.28125 4.546875 38.09375 
Q 4.546875 41.546875 6.125 44.5 
Q 7.71875 47.46875 10.453125 49.421875 
Q 12.5 50.921875 16.03125 51.96875 
Q 19.578125 53.03125 23.640625 53.03125 
Q 29.734375 53.03125 34.34375 51.265625 
Q 38.96875 49.515625 41.15625 46.5 
Q 43.359375 43.5 44.1875 38.484375 
L 35.59375 37.3125 
Q 35.015625 41.3125 32.203125 43.546875 
Q 29.390625 45.796875 24.265625 45.796875 
Q 18.21875 45.796875 15.625 43.796875 
Q 13.03125 41.796875 13.03125 39.109375 
Q 13.03125 37.40625 14.109375 36.03125 
Q 15.1875 34.625 17.484375 33.6875 
Q 18.796875 33.203125 25.25 31.453125 
Q 34.578125 28.953125 38.25 27.359375 
Q 41.9375 25.78125 44.03125 22.75 
Q 46.140625 19.734375 46.140625 15.234375 
Q 46.140625 10.84375 43.578125 6.953125 
Q 41.015625 3.078125 36.171875 0.953125 
Q 31.34375 -1.171875 25.25 -1.171875 
Q 15.140625 -1.171875 9.84375 3.03125 
Q 4.546875 7.234375 3.078125 15.484375 
z
" id="ArialMT-115"/>
     <path d="M 6.78125 -19.875 
L 6.78125 71.578125 
L 26.171875 71.578125 
L 26.171875 64.3125 
L 15.578125 64.3125 
L 15.578125 -12.59375 
L 26.171875 -12.59375 
L 26.171875 -19.875 
z
" id="ArialMT-91"/>
     <path d="M 20.21875 0 
L 1.21875 71.578125 
L 10.9375 71.578125 
L 21.828125 24.65625 
Q 23.578125 17.28125 24.859375 10.015625 
Q 27.59375 21.484375 28.078125 23.25 
L 41.703125 71.578125 
L 53.125 71.578125 
L 63.375 35.359375 
Q 67.234375 21.875 68.953125 10.015625 
Q 70.3125 16.796875 72.515625 25.59375 
L 83.734375 71.578125 
L 93.265625 71.578125 
L 73.640625 0 
L 64.5 0 
L 49.421875 54.546875 
Q 47.515625 61.375 47.171875 62.9375 
Q 46.046875 58.015625 45.0625 54.546875 
L 29.890625 0 
z
" id="ArialMT-87"/>
     <path d="M 21.296875 -19.875 
L 1.90625 -19.875 
L 1.90625 -12.59375 
L 12.5 -12.59375 
L 12.5 64.3125 
L 1.90625 64.3125 
L 1.90625 71.578125 
L 21.296875 71.578125 
z
" id="ArialMT-93"/>
    </defs>
    <g style="fill:#262626;" transform="translate(256.52625 41.52)scale(0.12 -0.12)">
     <use xlink:href="#ArialMT-72"/>
     <use x="72.216797" xlink:href="#ArialMT-101"/>
     <use x="127.832031" xlink:href="#ArialMT-97"/>
     <use x="183.447266" xlink:href="#ArialMT-116"/>
     <use x="211.230469" xlink:href="#ArialMT-32"/>
     <use x="239.013672" xlink:href="#ArialMT-102"/>
     <use x="266.796875" xlink:href="#ArialMT-108"/>
     <use x="289.013672" xlink:href="#ArialMT-111"/>
     <use x="344.628906" xlink:href="#ArialMT-119"/>
     <use x="416.845703" xlink:href="#ArialMT-115"/>
     <use x="466.845703" xlink:href="#ArialMT-32"/>
     <use x="494.628906" xlink:href="#ArialMT-91"/>
     <use x="522.412109" xlink:href="#ArialMT-87"/>
     <use x="616.796875" xlink:href="#ArialMT-93"/>
    </g>
   </g>
   <g id="legend_1">
    <g id="line2d_38">
     <path d="M 239.520312 60.177812 
L 259.520312 60.177812 
" style="fill:none;stroke:#4c72b0;stroke-linecap:round;stroke-width:1.75;"/>
    </g>
    <g id="line2d_39"/>
    <g id="text_19">
     <!-- Producer -->
     <defs>
      <path d="M 7.71875 0 
L 7.71875 71.578125 
L 34.71875 71.578125 
Q 41.84375 71.578125 45.609375 70.90625 
Q 50.875 70.015625 54.4375 67.546875 
Q 58.015625 65.09375 60.1875 60.640625 
Q 62.359375 56.203125 62.359375 50.875 
Q 62.359375 41.75 56.546875 35.421875 
Q 50.734375 29.109375 35.546875 29.109375 
L 17.1875 29.109375 
L 17.1875 0 
z
M 17.1875 37.546875 
L 35.6875 37.546875 
Q 44.875 37.546875 48.734375 40.96875 
Q 52.59375 44.390625 52.59375 50.59375 
Q 52.59375 55.078125 50.3125 58.265625 
Q 48.046875 61.46875 44.34375 62.5 
Q 41.9375 63.140625 35.5 63.140625 
L 17.1875 63.140625 
z
" id="ArialMT-80"/>
      <path d="M 6.5 0 
L 6.5 51.859375 
L 14.40625 51.859375 
L 14.40625 44 
Q 17.4375 49.515625 20 51.265625 
Q 22.5625 53.03125 25.640625 53.03125 
Q 30.078125 53.03125 34.671875 50.203125 
L 31.640625 42.046875 
Q 28.421875 43.953125 25.203125 43.953125 
Q 22.3125 43.953125 20.015625 42.21875 
Q 17.71875 40.484375 16.75 37.40625 
Q 15.28125 32.71875 15.28125 27.15625 
L 15.28125 0 
z
" id="ArialMT-114"/>
      <path d="M 40.234375 0 
L 40.234375 6.546875 
Q 35.296875 -1.171875 25.734375 -1.171875 
Q 19.53125 -1.171875 14.328125 2.25 
Q 9.125 5.671875 6.265625 11.796875 
Q 3.421875 17.921875 3.421875 25.875 
Q 3.421875 33.640625 6 39.96875 
Q 8.59375 46.296875 13.765625 49.65625 
Q 18.953125 53.03125 25.34375 53.03125 
Q 30.03125 53.03125 33.6875 51.046875 
Q 37.359375 49.078125 39.65625 45.90625 
L 39.65625 71.578125 
L 48.390625 71.578125 
L 48.390625 0 
z
M 12.453125 25.875 
Q 12.453125 15.921875 16.640625 10.984375 
Q 20.84375 6.0625 26.5625 6.0625 
Q 32.328125 6.0625 36.34375 10.765625 
Q 40.375 15.484375 40.375 25.140625 
Q 40.375 35.796875 36.265625 40.765625 
Q 32.171875 45.75 26.171875 45.75 
Q 20.3125 45.75 16.375 40.96875 
Q 12.453125 36.1875 12.453125 25.875 
z
" id="ArialMT-100"/>
      <path d="M 40.578125 0 
L 40.578125 7.625 
Q 34.515625 -1.171875 24.125 -1.171875 
Q 19.53125 -1.171875 15.546875 0.578125 
Q 11.578125 2.34375 9.640625 5 
Q 7.71875 7.671875 6.9375 11.53125 
Q 6.390625 14.109375 6.390625 19.734375 
L 6.390625 51.859375 
L 15.1875 51.859375 
L 15.1875 23.09375 
Q 15.1875 16.21875 15.71875 13.8125 
Q 16.546875 10.359375 19.234375 8.375 
Q 21.921875 6.390625 25.875 6.390625 
Q 29.828125 6.390625 33.296875 8.421875 
Q 36.765625 10.453125 38.203125 13.9375 
Q 39.65625 17.4375 39.65625 24.078125 
L 39.65625 51.859375 
L 48.4375 51.859375 
L 48.4375 0 
z
" id="ArialMT-117"/>
      <path d="M 40.4375 19 
L 49.078125 17.875 
Q 47.65625 8.9375 41.8125 3.875 
Q 35.984375 -1.171875 27.484375 -1.171875 
Q 16.84375 -1.171875 10.375 5.78125 
Q 3.90625 12.75 3.90625 25.734375 
Q 3.90625 34.125 6.6875 40.421875 
Q 9.46875 46.734375 15.15625 49.875 
Q 20.84375 53.03125 27.546875 53.03125 
Q 35.984375 53.03125 41.359375 48.75 
Q 46.734375 44.484375 48.25 36.625 
L 39.703125 35.296875 
Q 38.484375 40.53125 35.375 43.15625 
Q 32.28125 45.796875 27.875 45.796875 
Q 21.234375 45.796875 17.078125 41.03125 
Q 12.9375 36.28125 12.9375 25.984375 
Q 12.9375 15.53125 16.9375 10.796875 
Q 20.953125 6.0625 27.390625 6.0625 
Q 32.5625 6.0625 36.03125 9.234375 
Q 39.5 12.40625 40.4375 19 
z
" id="ArialMT-99"/>
     </defs>
     <g style="fill:#262626;" transform="translate(267.520312 63.677812)scale(0.1 -0.1)">
      <use xlink:href="#ArialMT-80"/>
      <use x="66.699219" xlink:href="#ArialMT-114"/>
      <use x="100" xlink:href="#ArialMT-111"/>
      <use x="155.615234" xlink:href="#ArialMT-100"/>
      <use x="211.230469" xlink:href="#ArialMT-117"/>
      <use x="266.845703" xlink:href="#ArialMT-99"/>
      <use x="316.845703" xlink:href="#ArialMT-101"/>
      <use x="372.460938" xlink:href="#ArialMT-114"/>
     </g>
    </g>
    <g id="line2d_40">
     <path d="M 239.520312 74.323125 
L 259.520312 74.323125 
" style="fill:none;stroke:#55a868;stroke-linecap:round;stroke-width:1.75;"/>
    </g>
    <g id="line2d_41"/>
    <g id="text_20">
     <!-- All users -->
     <defs>
      <path d="M -0.140625 0 
L 27.34375 71.578125 
L 37.546875 71.578125 
L 66.84375 0 
L 56.0625 0 
L 47.703125 21.6875 
L 17.78125 21.6875 
L 9.90625 0 
z
M 20.515625 29.390625 
L 44.78125 29.390625 
L 37.3125 49.21875 
Q 33.890625 58.25 32.234375 64.0625 
Q 30.859375 57.171875 28.375 50.390625 
z
" id="ArialMT-65"/>
     </defs>
     <g style="fill:#262626;" transform="translate(267.520312 77.823125)scale(0.1 -0.1)">
      <use xlink:href="#ArialMT-65"/>
      <use x="66.699219" xlink:href="#ArialMT-108"/>
      <use x="88.916016" xlink:href="#ArialMT-108"/>
      <use x="111.132812" xlink:href="#ArialMT-32"/>
      <use x="138.916016" xlink:href="#ArialMT-117"/>
      <use x="194.53125" xlink:href="#ArialMT-115"/>
      <use x="244.53125" xlink:href="#ArialMT-101"/>
      <use x="300.146484" xlink:href="#ArialMT-114"/>
      <use x="333.447266" xlink:href="#ArialMT-115"/>
     </g>
    </g>
    <g id="line2d_42">
     <path d="M 239.520312 88.468437 
L 259.520312 88.468437 
" style="fill:none;stroke:#c44e52;stroke-linecap:round;stroke-width:1.75;"/>
    </g>
    <g id="line2d_43"/>
    <g id="text_21">
     <!-- WaterscheiGarden -->
     <defs>
      <path d="M 6.59375 0 
L 6.59375 71.578125 
L 15.375 71.578125 
L 15.375 45.90625 
Q 21.53125 53.03125 30.90625 53.03125 
Q 36.671875 53.03125 40.921875 50.75 
Q 45.171875 48.484375 47 44.484375 
Q 48.828125 40.484375 48.828125 32.859375 
L 48.828125 0 
L 40.046875 0 
L 40.046875 32.859375 
Q 40.046875 39.453125 37.1875 42.453125 
Q 34.328125 45.453125 29.109375 45.453125 
Q 25.203125 45.453125 21.75 43.421875 
Q 18.3125 41.40625 16.84375 37.9375 
Q 15.375 34.46875 15.375 28.375 
L 15.375 0 
z
" id="ArialMT-104"/>
      <path d="M 6.640625 61.46875 
L 6.640625 71.578125 
L 15.4375 71.578125 
L 15.4375 61.46875 
z
M 6.640625 0 
L 6.640625 51.859375 
L 15.4375 51.859375 
L 15.4375 0 
z
" id="ArialMT-105"/>
      <path d="M 41.21875 28.078125 
L 41.21875 36.46875 
L 71.53125 36.53125 
L 71.53125 9.96875 
Q 64.546875 4.390625 57.125 1.578125 
Q 49.703125 -1.21875 41.890625 -1.21875 
Q 31.34375 -1.21875 22.71875 3.296875 
Q 14.109375 7.8125 9.71875 16.359375 
Q 5.328125 24.90625 5.328125 35.453125 
Q 5.328125 45.90625 9.6875 54.953125 
Q 14.0625 64.015625 22.265625 68.40625 
Q 30.46875 72.796875 41.15625 72.796875 
Q 48.921875 72.796875 55.1875 70.28125 
Q 61.46875 67.78125 65.03125 63.28125 
Q 68.609375 58.796875 70.453125 51.5625 
L 61.921875 49.21875 
Q 60.296875 54.6875 57.90625 57.8125 
Q 55.515625 60.9375 51.0625 62.8125 
Q 46.625 64.703125 41.21875 64.703125 
Q 34.71875 64.703125 29.984375 62.71875 
Q 25.25 60.75 22.34375 57.515625 
Q 19.4375 54.296875 17.828125 50.4375 
Q 15.09375 43.796875 15.09375 36.03125 
Q 15.09375 26.46875 18.390625 20.015625 
Q 21.6875 13.578125 27.984375 10.453125 
Q 34.28125 7.328125 41.359375 7.328125 
Q 47.515625 7.328125 53.375 9.6875 
Q 59.234375 12.0625 62.25 14.75 
L 62.25 28.078125 
z
" id="ArialMT-71"/>
      <path d="M 6.59375 0 
L 6.59375 51.859375 
L 14.5 51.859375 
L 14.5 44.484375 
Q 20.21875 53.03125 31 53.03125 
Q 35.6875 53.03125 39.625 51.34375 
Q 43.5625 49.65625 45.515625 46.921875 
Q 47.46875 44.1875 48.25 40.4375 
Q 48.734375 37.984375 48.734375 31.890625 
L 48.734375 0 
L 39.9375 0 
L 39.9375 31.546875 
Q 39.9375 36.921875 38.90625 39.578125 
Q 37.890625 42.234375 35.28125 43.8125 
Q 32.671875 45.40625 29.15625 45.40625 
Q 23.53125 45.40625 19.453125 41.84375 
Q 15.375 38.28125 15.375 28.328125 
L 15.375 0 
z
" id="ArialMT-110"/>
     </defs>
     <g style="fill:#262626;" transform="translate(267.520312 91.968437)scale(0.1 -0.1)">
      <use xlink:href="#ArialMT-87"/>
      <use x="94.337891" xlink:href="#ArialMT-97"/>
      <use x="149.953125" xlink:href="#ArialMT-116"/>
      <use x="177.736328" xlink:href="#ArialMT-101"/>
      <use x="233.351562" xlink:href="#ArialMT-114"/>
      <use x="266.652344" xlink:href="#ArialMT-115"/>
      <use x="316.652344" xlink:href="#ArialMT-99"/>
      <use x="366.652344" xlink:href="#ArialMT-104"/>
      <use x="422.267578" xlink:href="#ArialMT-101"/>
      <use x="477.882812" xlink:href="#ArialMT-105"/>
      <use x="500.099609" xlink:href="#ArialMT-71"/>
      <use x="577.882812" xlink:href="#ArialMT-97"/>
      <use x="633.498047" xlink:href="#ArialMT-114"/>
      <use x="666.798828" xlink:href="#ArialMT-100"/>
      <use x="722.414062" xlink:href="#ArialMT-101"/>
      <use x="778.029297" xlink:href="#ArialMT-110"/>
     </g>
    </g>
    <g id="line2d_44">
     <path d="M 239.520312 102.61375 
L 259.520312 102.61375 
" style="fill:none;stroke:#8172b2;stroke-linecap:round;stroke-width:1.75;"/>
    </g>
    <g id="line2d_45"/>
    <g id="text_22">
     <!-- ZwartbergNEast -->
     <defs>
      <path d="M 2 0 
L 2 8.796875 
L 38.671875 54.640625 
Q 42.578125 59.515625 46.09375 63.140625 
L 6.15625 63.140625 
L 6.15625 71.578125 
L 57.421875 71.578125 
L 57.421875 63.140625 
L 17.234375 13.484375 
L 12.890625 8.453125 
L 58.59375 8.453125 
L 58.59375 0 
z
" id="ArialMT-90"/>
      <path d="M 14.703125 0 
L 6.546875 0 
L 6.546875 71.578125 
L 15.328125 71.578125 
L 15.328125 46.046875 
Q 20.90625 53.03125 29.546875 53.03125 
Q 34.328125 53.03125 38.59375 51.09375 
Q 42.875 49.171875 45.625 45.671875 
Q 48.390625 42.1875 49.953125 37.25 
Q 51.515625 32.328125 51.515625 26.703125 
Q 51.515625 13.375 44.921875 6.09375 
Q 38.328125 -1.171875 29.109375 -1.171875 
Q 19.921875 -1.171875 14.703125 6.5 
z
M 14.59375 26.3125 
Q 14.59375 17 17.140625 12.84375 
Q 21.296875 6.0625 28.375 6.0625 
Q 34.125 6.0625 38.328125 11.0625 
Q 42.53125 16.0625 42.53125 25.984375 
Q 42.53125 36.140625 38.5 40.96875 
Q 34.46875 45.796875 28.765625 45.796875 
Q 23 45.796875 18.796875 40.796875 
Q 14.59375 35.796875 14.59375 26.3125 
z
" id="ArialMT-98"/>
      <path d="M 4.984375 -4.296875 
L 13.53125 -5.5625 
Q 14.0625 -9.515625 16.5 -11.328125 
Q 19.78125 -13.765625 25.4375 -13.765625 
Q 31.546875 -13.765625 34.859375 -11.328125 
Q 38.1875 -8.890625 39.359375 -4.5 
Q 40.046875 -1.8125 39.984375 6.78125 
Q 34.234375 0 25.640625 0 
Q 14.9375 0 9.078125 7.71875 
Q 3.21875 15.4375 3.21875 26.21875 
Q 3.21875 33.640625 5.90625 39.90625 
Q 8.59375 46.1875 13.6875 49.609375 
Q 18.796875 53.03125 25.6875 53.03125 
Q 34.859375 53.03125 40.828125 45.609375 
L 40.828125 51.859375 
L 48.921875 51.859375 
L 48.921875 7.03125 
Q 48.921875 -5.078125 46.453125 -10.125 
Q 44 -15.1875 38.640625 -18.109375 
Q 33.296875 -21.046875 25.484375 -21.046875 
Q 16.21875 -21.046875 10.5 -16.875 
Q 4.78125 -12.703125 4.984375 -4.296875 
z
M 12.25 26.859375 
Q 12.25 16.65625 16.296875 11.96875 
Q 20.359375 7.28125 26.46875 7.28125 
Q 32.515625 7.28125 36.609375 11.9375 
Q 40.71875 16.609375 40.71875 26.5625 
Q 40.71875 36.078125 36.5 40.90625 
Q 32.28125 45.75 26.3125 45.75 
Q 20.453125 45.75 16.34375 40.984375 
Q 12.25 36.234375 12.25 26.859375 
z
" id="ArialMT-103"/>
      <path d="M 7.625 0 
L 7.625 71.578125 
L 17.328125 71.578125 
L 54.9375 15.375 
L 54.9375 71.578125 
L 64.015625 71.578125 
L 64.015625 0 
L 54.296875 0 
L 16.703125 56.25 
L 16.703125 0 
z
" id="ArialMT-78"/>
      <path d="M 7.90625 0 
L 7.90625 71.578125 
L 59.671875 71.578125 
L 59.671875 63.140625 
L 17.390625 63.140625 
L 17.390625 41.21875 
L 56.984375 41.21875 
L 56.984375 32.8125 
L 17.390625 32.8125 
L 17.390625 8.453125 
L 61.328125 8.453125 
L 61.328125 0 
z
" id="ArialMT-69"/>
     </defs>
     <g style="fill:#262626;" transform="translate(267.520312 106.11375)scale(0.1 -0.1)">
      <use xlink:href="#ArialMT-90"/>
      <use x="61.083984" xlink:href="#ArialMT-119"/>
      <use x="133.300781" xlink:href="#ArialMT-97"/>
      <use x="188.916016" xlink:href="#ArialMT-114"/>
      <use x="222.216797" xlink:href="#ArialMT-116"/>
      <use x="250" xlink:href="#ArialMT-98"/>
      <use x="305.615234" xlink:href="#ArialMT-101"/>
      <use x="361.230469" xlink:href="#ArialMT-114"/>
      <use x="394.53125" xlink:href="#ArialMT-103"/>
      <use x="450.146484" xlink:href="#ArialMT-78"/>
      <use x="522.363281" xlink:href="#ArialMT-69"/>
      <use x="589.0625" xlink:href="#ArialMT-97"/>
      <use x="644.677734" xlink:href="#ArialMT-115"/>
      <use x="694.677734" xlink:href="#ArialMT-116"/>
     </g>
    </g>
   </g>
  </g>
  <g id="text_23">
   <!-- Horizon: 48.0h, Time step: 300, Neighbourhoods: 2, case: step_down -->
   <defs>
    <path d="M 1.953125 0 
L 1.953125 7.125 
L 34.96875 45.015625 
Q 29.34375 44.734375 25.046875 44.734375 
L 3.90625 44.734375 
L 3.90625 51.859375 
L 46.296875 51.859375 
L 46.296875 46.046875 
L 18.21875 13.140625 
L 12.796875 7.125 
Q 18.703125 7.5625 23.875 7.5625 
L 47.859375 7.5625 
L 47.859375 0 
z
" id="ArialMT-122"/>
    <path d="M 9.03125 41.84375 
L 9.03125 51.859375 
L 19.046875 51.859375 
L 19.046875 41.84375 
z
M 9.03125 0 
L 9.03125 10.015625 
L 19.046875 10.015625 
L 19.046875 0 
z
" id="ArialMT-58"/>
    <path d="M 32.328125 0 
L 32.328125 17.140625 
L 1.265625 17.140625 
L 1.265625 25.203125 
L 33.9375 71.578125 
L 41.109375 71.578125 
L 41.109375 25.203125 
L 50.78125 25.203125 
L 50.78125 17.140625 
L 41.109375 17.140625 
L 41.109375 0 
z
M 32.328125 25.203125 
L 32.328125 57.46875 
L 9.90625 25.203125 
z
" id="ArialMT-52"/>
    <path d="M 8.890625 0 
L 8.890625 10.015625 
L 18.890625 10.015625 
L 18.890625 0 
Q 18.890625 -5.515625 16.9375 -8.90625 
Q 14.984375 -12.3125 10.75 -14.15625 
L 8.296875 -10.40625 
Q 11.078125 -9.1875 12.390625 -6.8125 
Q 13.71875 -4.4375 13.875 0 
z
" id="ArialMT-44"/>
    <path d="M 25.921875 0 
L 25.921875 63.140625 
L 2.34375 63.140625 
L 2.34375 71.578125 
L 59.078125 71.578125 
L 59.078125 63.140625 
L 35.40625 63.140625 
L 35.40625 0 
z
" id="ArialMT-84"/>
    <path d="M 6.59375 0 
L 6.59375 51.859375 
L 14.453125 51.859375 
L 14.453125 44.578125 
Q 16.890625 48.390625 20.9375 50.703125 
Q 25 53.03125 30.171875 53.03125 
Q 35.9375 53.03125 39.625 50.640625 
Q 43.3125 48.25 44.828125 43.953125 
Q 50.984375 53.03125 60.84375 53.03125 
Q 68.5625 53.03125 72.703125 48.75 
Q 76.859375 44.484375 76.859375 35.59375 
L 76.859375 0 
L 68.109375 0 
L 68.109375 32.671875 
Q 68.109375 37.9375 67.25 40.25 
Q 66.40625 42.578125 64.15625 43.984375 
Q 61.921875 45.40625 58.890625 45.40625 
Q 53.421875 45.40625 49.796875 41.765625 
Q 46.1875 38.140625 46.1875 30.125 
L 46.1875 0 
L 37.40625 0 
L 37.40625 33.6875 
Q 37.40625 39.546875 35.25 42.46875 
Q 33.109375 45.40625 28.21875 45.40625 
Q 24.515625 45.40625 21.359375 43.453125 
Q 18.21875 41.5 16.796875 37.734375 
Q 15.375 33.984375 15.375 26.90625 
L 15.375 0 
z
" id="ArialMT-109"/>
    <path d="M 6.59375 -19.875 
L 6.59375 51.859375 
L 14.59375 51.859375 
L 14.59375 45.125 
Q 17.4375 49.078125 21 51.046875 
Q 24.5625 53.03125 29.640625 53.03125 
Q 36.28125 53.03125 41.359375 49.609375 
Q 46.4375 46.1875 49.015625 39.953125 
Q 51.609375 33.734375 51.609375 26.3125 
Q 51.609375 18.359375 48.75 11.984375 
Q 45.90625 5.609375 40.453125 2.21875 
Q 35.015625 -1.171875 29 -1.171875 
Q 24.609375 -1.171875 21.109375 0.6875 
Q 17.625 2.546875 15.375 5.375 
L 15.375 -19.875 
z
M 14.546875 25.640625 
Q 14.546875 15.625 18.59375 10.84375 
Q 22.65625 6.0625 28.421875 6.0625 
Q 34.28125 6.0625 38.453125 11.015625 
Q 42.625 15.96875 42.625 26.375 
Q 42.625 36.28125 38.546875 41.203125 
Q 34.46875 46.140625 28.8125 46.140625 
Q 23.1875 46.140625 18.859375 40.890625 
Q 14.546875 35.640625 14.546875 25.640625 
z
" id="ArialMT-112"/>
    <path d="M -1.515625 -19.875 
L -1.515625 -13.53125 
L 56.734375 -13.53125 
L 56.734375 -19.875 
z
" id="ArialMT-95"/>
   </defs>
   <g style="fill:#262626;" transform="translate(103.573125 16.545)scale(0.12 -0.12)">
    <use xlink:href="#ArialMT-72"/>
    <use x="72.216797" xlink:href="#ArialMT-111"/>
    <use x="127.832031" xlink:href="#ArialMT-114"/>
    <use x="161.132812" xlink:href="#ArialMT-105"/>
    <use x="183.349609" xlink:href="#ArialMT-122"/>
    <use x="233.349609" xlink:href="#ArialMT-111"/>
    <use x="288.964844" xlink:href="#ArialMT-110"/>
    <use x="344.580078" xlink:href="#ArialMT-58"/>
    <use x="372.363281" xlink:href="#ArialMT-32"/>
    <use x="400.146484" xlink:href="#ArialMT-52"/>
    <use x="455.761719" xlink:href="#ArialMT-56"/>
    <use x="511.376953" xlink:href="#ArialMT-46"/>
    <use x="539.160156" xlink:href="#ArialMT-48"/>
    <use x="594.775391" xlink:href="#ArialMT-104"/>
    <use x="650.390625" xlink:href="#ArialMT-44"/>
    <use x="678.173828" xlink:href="#ArialMT-32"/>
    <use x="705.941406" xlink:href="#ArialMT-84"/>
    <use x="766.978516" xlink:href="#ArialMT-105"/>
    <use x="789.195312" xlink:href="#ArialMT-109"/>
    <use x="872.496094" xlink:href="#ArialMT-101"/>
    <use x="928.111328" xlink:href="#ArialMT-32"/>
    <use x="955.894531" xlink:href="#ArialMT-115"/>
    <use x="1005.894531" xlink:href="#ArialMT-116"/>
    <use x="1033.677734" xlink:href="#ArialMT-101"/>
    <use x="1089.292969" xlink:href="#ArialMT-112"/>
    <use x="1144.908203" xlink:href="#ArialMT-58"/>
    <use x="1172.691406" xlink:href="#ArialMT-32"/>
    <use x="1200.474609" xlink:href="#ArialMT-51"/>
    <use x="1256.089844" xlink:href="#ArialMT-48"/>
    <use x="1311.705078" xlink:href="#ArialMT-48"/>
    <use x="1367.320312" xlink:href="#ArialMT-44"/>
    <use x="1395.103516" xlink:href="#ArialMT-32"/>
    <use x="1422.886719" xlink:href="#ArialMT-78"/>
    <use x="1495.103516" xlink:href="#ArialMT-101"/>
    <use x="1550.71875" xlink:href="#ArialMT-105"/>
    <use x="1572.935547" xlink:href="#ArialMT-103"/>
    <use x="1628.550781" xlink:href="#ArialMT-104"/>
    <use x="1684.166016" xlink:href="#ArialMT-98"/>
    <use x="1739.78125" xlink:href="#ArialMT-111"/>
    <use x="1795.396484" xlink:href="#ArialMT-117"/>
    <use x="1851.011719" xlink:href="#ArialMT-114"/>
    <use x="1884.3125" xlink:href="#ArialMT-104"/>
    <use x="1939.927734" xlink:href="#ArialMT-111"/>
    <use x="1995.542969" xlink:href="#ArialMT-111"/>
    <use x="2051.158203" xlink:href="#ArialMT-100"/>
    <use x="2106.773438" xlink:href="#ArialMT-115"/>
    <use x="2156.773438" xlink:href="#ArialMT-58"/>
    <use x="2184.556641" xlink:href="#ArialMT-32"/>
    <use x="2212.339844" xlink:href="#ArialMT-50"/>
    <use x="2267.955078" xlink:href="#ArialMT-44"/>
    <use x="2295.738281" xlink:href="#ArialMT-32"/>
    <use x="2323.521484" xlink:href="#ArialMT-99"/>
    <use x="2373.521484" xlink:href="#ArialMT-97"/>
    <use x="2429.136719" xlink:href="#ArialMT-115"/>
    <use x="2479.136719" xlink:href="#ArialMT-101"/>
    <use x="2534.751953" xlink:href="#ArialMT-58"/>
    <use x="2562.535156" xlink:href="#ArialMT-32"/>
    <use x="2590.318359" xlink:href="#ArialMT-115"/>
    <use x="2640.318359" xlink:href="#ArialMT-116"/>
    <use x="2668.101562" xlink:href="#ArialMT-101"/>
    <use x="2723.716797" xlink:href="#ArialMT-112"/>
    <use x="2779.332031" xlink:href="#ArialMT-95"/>
    <use x="2834.947266" xlink:href="#ArialMT-100"/>
    <use x="2890.5625" xlink:href="#ArialMT-111"/>
    <use x="2946.177734" xlink:href="#ArialMT-119"/>
    <use x="3018.394531" xlink:href="#ArialMT-110"/>
   </g>
  </g>
 </g>
 <defs>
  <clipPath id="p9b0f9863e2">
   <rect height="304.92" width="446.4" x="72" y="47.52"/>
  </clipPath>
 </defs>
</svg>
