<?xml version="1.0" encoding="utf-8" standalone="no"?>
<!DOCTYPE svg PUBLIC "-//W3C//DTD SVG 1.1//EN"
  "http://www.w3.org/Graphics/SVG/1.1/DTD/svg11.dtd">
<!-- Created with matplotlib (https://matplotlib.org/) -->
<svg height="396pt" version="1.1" viewBox="0 0 576 396" width="576pt" xmlns="http://www.w3.org/2000/svg" xmlns:xlink="http://www.w3.org/1999/xlink">
 <defs>
  <style type="text/css">
*{stroke-linecap:butt;stroke-linejoin:round;}
  </style>
 </defs>
 <g id="figure_1">
  <g id="patch_1">
   <path d="M 0 396 
L 576 396 
L 576 0 
L 0 0 
z
" style="fill:#ffffff;"/>
  </g>
  <g id="axes_1">
   <g id="patch_2">
    <path d="M 72 352.44 
L 518.4 352.44 
L 518.4 47.52 
L 72 47.52 
z
" style="fill:#eaeaf2;"/>
   </g>
   <g id="matplotlib.axis_1">
    <g id="xtick_1">
     <g id="line2d_1">
      <path clip-path="url(#pd9a85e4457)" d="M 92.290909 352.44 
L 92.290909 47.52 
" style="fill:none;stroke:#ffffff;stroke-linecap:round;"/>
     </g>
     <g id="line2d_2"/>
     <g id="text_1">
      <!-- 01-01 00 -->
      <defs>
       <path d="M 4.15625 35.296875 
Q 4.15625 48 6.765625 55.734375 
Q 9.375 63.484375 14.515625 67.671875 
Q 19.671875 71.875 27.484375 71.875 
Q 33.25 71.875 37.59375 69.546875 
Q 41.9375 67.234375 44.765625 62.859375 
Q 47.609375 58.5 49.21875 52.21875 
Q 50.828125 45.953125 50.828125 35.296875 
Q 50.828125 22.703125 48.234375 14.96875 
Q 45.65625 7.234375 40.5 3 
Q 35.359375 -1.21875 27.484375 -1.21875 
Q 17.140625 -1.21875 11.234375 6.203125 
Q 4.15625 15.140625 4.15625 35.296875 
z
M 13.1875 35.296875 
Q 13.1875 17.671875 17.3125 11.828125 
Q 21.4375 6 27.484375 6 
Q 33.546875 6 37.671875 11.859375 
Q 41.796875 17.71875 41.796875 35.296875 
Q 41.796875 52.984375 37.671875 58.78125 
Q 33.546875 64.59375 27.390625 64.59375 
Q 21.34375 64.59375 17.71875 59.46875 
Q 13.1875 52.9375 13.1875 35.296875 
z
" id="ArialMT-48"/>
       <path d="M 37.25 0 
L 28.46875 0 
L 28.46875 56 
Q 25.296875 52.984375 20.140625 49.953125 
Q 14.984375 46.921875 10.890625 45.40625 
L 10.890625 53.90625 
Q 18.265625 57.375 23.78125 62.296875 
Q 29.296875 67.234375 31.59375 71.875 
L 37.25 71.875 
z
" id="ArialMT-49"/>
       <path d="M 3.171875 21.484375 
L 3.171875 30.328125 
L 30.171875 30.328125 
L 30.171875 21.484375 
z
" id="ArialMT-45"/>
       <path id="ArialMT-32"/>
      </defs>
      <g style="fill:#262626;" transform="translate(72.55419 366.597813)scale(0.1 -0.1)">
       <use xlink:href="#ArialMT-48"/>
       <use x="55.615234" xlink:href="#ArialMT-49"/>
       <use x="111.230469" xlink:href="#ArialMT-45"/>
       <use x="144.53125" xlink:href="#ArialMT-48"/>
       <use x="200.146484" xlink:href="#ArialMT-49"/>
       <use x="255.761719" xlink:href="#ArialMT-32"/>
       <use x="283.544922" xlink:href="#ArialMT-48"/>
       <use x="339.160156" xlink:href="#ArialMT-48"/>
      </g>
     </g>
    </g>
    <g id="xtick_2">
     <g id="line2d_3">
      <path clip-path="url(#pd9a85e4457)" d="M 143.106403 352.44 
L 143.106403 47.52 
" style="fill:none;stroke:#ffffff;stroke-linecap:round;"/>
     </g>
     <g id="line2d_4"/>
     <g id="text_2">
      <!-- 01-01 06 -->
      <defs>
       <path d="M 49.75 54.046875 
L 41.015625 53.375 
Q 39.84375 58.546875 37.703125 60.890625 
Q 34.125 64.65625 28.90625 64.65625 
Q 24.703125 64.65625 21.53125 62.3125 
Q 17.390625 59.28125 14.984375 53.46875 
Q 12.59375 47.65625 12.5 36.921875 
Q 15.671875 41.75 20.265625 44.09375 
Q 24.859375 46.4375 29.890625 46.4375 
Q 38.671875 46.4375 44.84375 39.96875 
Q 51.03125 33.5 51.03125 23.25 
Q 51.03125 16.5 48.125 10.71875 
Q 45.21875 4.9375 40.140625 1.859375 
Q 35.0625 -1.21875 28.609375 -1.21875 
Q 17.625 -1.21875 10.6875 6.859375 
Q 3.765625 14.9375 3.765625 33.5 
Q 3.765625 54.25 11.421875 63.671875 
Q 18.109375 71.875 29.4375 71.875 
Q 37.890625 71.875 43.28125 67.140625 
Q 48.6875 62.40625 49.75 54.046875 
z
M 13.875 23.1875 
Q 13.875 18.65625 15.796875 14.5 
Q 17.71875 10.359375 21.1875 8.171875 
Q 24.65625 6 28.46875 6 
Q 34.03125 6 38.03125 10.484375 
Q 42.046875 14.984375 42.046875 22.703125 
Q 42.046875 30.125 38.078125 34.390625 
Q 34.125 38.671875 28.125 38.671875 
Q 22.171875 38.671875 18.015625 34.390625 
Q 13.875 30.125 13.875 23.1875 
z
" id="ArialMT-54"/>
      </defs>
      <g style="fill:#262626;" transform="translate(123.369684 366.597813)scale(0.1 -0.1)">
       <use xlink:href="#ArialMT-48"/>
       <use x="55.615234" xlink:href="#ArialMT-49"/>
       <use x="111.230469" xlink:href="#ArialMT-45"/>
       <use x="144.53125" xlink:href="#ArialMT-48"/>
       <use x="200.146484" xlink:href="#ArialMT-49"/>
       <use x="255.761719" xlink:href="#ArialMT-32"/>
       <use x="283.544922" xlink:href="#ArialMT-48"/>
       <use x="339.160156" xlink:href="#ArialMT-54"/>
      </g>
     </g>
    </g>
    <g id="xtick_3">
     <g id="line2d_5">
      <path clip-path="url(#pd9a85e4457)" d="M 193.921897 352.44 
L 193.921897 47.52 
" style="fill:none;stroke:#ffffff;stroke-linecap:round;"/>
     </g>
     <g id="line2d_6"/>
     <g id="text_3">
      <!-- 01-01 12 -->
      <defs>
       <path d="M 50.34375 8.453125 
L 50.34375 0 
L 3.03125 0 
Q 2.9375 3.171875 4.046875 6.109375 
Q 5.859375 10.9375 9.828125 15.625 
Q 13.8125 20.3125 21.34375 26.46875 
Q 33.015625 36.03125 37.109375 41.625 
Q 41.21875 47.21875 41.21875 52.203125 
Q 41.21875 57.421875 37.46875 61 
Q 33.734375 64.59375 27.734375 64.59375 
Q 21.390625 64.59375 17.578125 60.78125 
Q 13.765625 56.984375 13.71875 50.25 
L 4.6875 51.171875 
Q 5.609375 61.28125 11.65625 66.578125 
Q 17.71875 71.875 27.9375 71.875 
Q 38.234375 71.875 44.234375 66.15625 
Q 50.25 60.453125 50.25 52 
Q 50.25 47.703125 48.484375 43.546875 
Q 46.734375 39.40625 42.65625 34.8125 
Q 38.578125 30.21875 29.109375 22.21875 
Q 21.1875 15.578125 18.9375 13.203125 
Q 16.703125 10.84375 15.234375 8.453125 
z
" id="ArialMT-50"/>
      </defs>
      <g style="fill:#262626;" transform="translate(174.185178 366.597813)scale(0.1 -0.1)">
       <use xlink:href="#ArialMT-48"/>
       <use x="55.615234" xlink:href="#ArialMT-49"/>
       <use x="111.230469" xlink:href="#ArialMT-45"/>
       <use x="144.53125" xlink:href="#ArialMT-48"/>
       <use x="200.146484" xlink:href="#ArialMT-49"/>
       <use x="255.761719" xlink:href="#ArialMT-32"/>
       <use x="283.544922" xlink:href="#ArialMT-49"/>
       <use x="339.160156" xlink:href="#ArialMT-50"/>
      </g>
     </g>
    </g>
    <g id="xtick_4">
     <g id="line2d_7">
      <path clip-path="url(#pd9a85e4457)" d="M 244.737391 352.44 
L 244.737391 47.52 
" style="fill:none;stroke:#ffffff;stroke-linecap:round;"/>
     </g>
     <g id="line2d_8"/>
     <g id="text_4">
      <!-- 01-01 18 -->
      <defs>
       <path d="M 17.671875 38.8125 
Q 12.203125 40.828125 9.5625 44.53125 
Q 6.9375 48.25 6.9375 53.421875 
Q 6.9375 61.234375 12.546875 66.546875 
Q 18.171875 71.875 27.484375 71.875 
Q 36.859375 71.875 42.578125 66.421875 
Q 48.296875 60.984375 48.296875 53.171875 
Q 48.296875 48.1875 45.671875 44.5 
Q 43.0625 40.828125 37.75 38.8125 
Q 44.34375 36.671875 47.78125 31.875 
Q 51.21875 27.09375 51.21875 20.453125 
Q 51.21875 11.28125 44.71875 5.03125 
Q 38.234375 -1.21875 27.640625 -1.21875 
Q 17.046875 -1.21875 10.546875 5.046875 
Q 4.046875 11.328125 4.046875 20.703125 
Q 4.046875 27.6875 7.59375 32.390625 
Q 11.140625 37.109375 17.671875 38.8125 
z
M 15.921875 53.71875 
Q 15.921875 48.640625 19.1875 45.40625 
Q 22.46875 42.1875 27.6875 42.1875 
Q 32.765625 42.1875 36.015625 45.375 
Q 39.265625 48.578125 39.265625 53.21875 
Q 39.265625 58.0625 35.90625 61.359375 
Q 32.5625 64.65625 27.59375 64.65625 
Q 22.5625 64.65625 19.234375 61.421875 
Q 15.921875 58.203125 15.921875 53.71875 
z
M 13.09375 20.65625 
Q 13.09375 16.890625 14.875 13.375 
Q 16.65625 9.859375 20.171875 7.921875 
Q 23.6875 6 27.734375 6 
Q 34.03125 6 38.125 10.046875 
Q 42.234375 14.109375 42.234375 20.359375 
Q 42.234375 26.703125 38.015625 30.859375 
Q 33.796875 35.015625 27.4375 35.015625 
Q 21.234375 35.015625 17.15625 30.90625 
Q 13.09375 26.8125 13.09375 20.65625 
z
" id="ArialMT-56"/>
      </defs>
      <g style="fill:#262626;" transform="translate(225.000673 366.597813)scale(0.1 -0.1)">
       <use xlink:href="#ArialMT-48"/>
       <use x="55.615234" xlink:href="#ArialMT-49"/>
       <use x="111.230469" xlink:href="#ArialMT-45"/>
       <use x="144.53125" xlink:href="#ArialMT-48"/>
       <use x="200.146484" xlink:href="#ArialMT-49"/>
       <use x="255.761719" xlink:href="#ArialMT-32"/>
       <use x="283.544922" xlink:href="#ArialMT-49"/>
       <use x="339.160156" xlink:href="#ArialMT-56"/>
      </g>
     </g>
    </g>
    <g id="xtick_5">
     <g id="line2d_9">
      <path clip-path="url(#pd9a85e4457)" d="M 295.552885 352.44 
L 295.552885 47.52 
" style="fill:none;stroke:#ffffff;stroke-linecap:round;"/>
     </g>
     <g id="line2d_10"/>
     <g id="text_5">
      <!-- 01-02 00 -->
      <g style="fill:#262626;" transform="translate(275.816167 366.597813)scale(0.1 -0.1)">
       <use xlink:href="#ArialMT-48"/>
       <use x="55.615234" xlink:href="#ArialMT-49"/>
       <use x="111.230469" xlink:href="#ArialMT-45"/>
       <use x="144.53125" xlink:href="#ArialMT-48"/>
       <use x="200.146484" xlink:href="#ArialMT-50"/>
       <use x="255.761719" xlink:href="#ArialMT-32"/>
       <use x="283.544922" xlink:href="#ArialMT-48"/>
       <use x="339.160156" xlink:href="#ArialMT-48"/>
      </g>
     </g>
    </g>
    <g id="xtick_6">
     <g id="line2d_11">
      <path clip-path="url(#pd9a85e4457)" d="M 346.368379 352.44 
L 346.368379 47.52 
" style="fill:none;stroke:#ffffff;stroke-linecap:round;"/>
     </g>
     <g id="line2d_12"/>
     <g id="text_6">
      <!-- 01-02 06 -->
      <g style="fill:#262626;" transform="translate(326.631661 366.597813)scale(0.1 -0.1)">
       <use xlink:href="#ArialMT-48"/>
       <use x="55.615234" xlink:href="#ArialMT-49"/>
       <use x="111.230469" xlink:href="#ArialMT-45"/>
       <use x="144.53125" xlink:href="#ArialMT-48"/>
       <use x="200.146484" xlink:href="#ArialMT-50"/>
       <use x="255.761719" xlink:href="#ArialMT-32"/>
       <use x="283.544922" xlink:href="#ArialMT-48"/>
       <use x="339.160156" xlink:href="#ArialMT-54"/>
      </g>
     </g>
    </g>
    <g id="xtick_7">
     <g id="line2d_13">
      <path clip-path="url(#pd9a85e4457)" d="M 397.183874 352.44 
L 397.183874 47.52 
" style="fill:none;stroke:#ffffff;stroke-linecap:round;"/>
     </g>
     <g id="line2d_14"/>
     <g id="text_7">
      <!-- 01-02 12 -->
      <g style="fill:#262626;" transform="translate(377.447155 366.597813)scale(0.1 -0.1)">
       <use xlink:href="#ArialMT-48"/>
       <use x="55.615234" xlink:href="#ArialMT-49"/>
       <use x="111.230469" xlink:href="#ArialMT-45"/>
       <use x="144.53125" xlink:href="#ArialMT-48"/>
       <use x="200.146484" xlink:href="#ArialMT-50"/>
       <use x="255.761719" xlink:href="#ArialMT-32"/>
       <use x="283.544922" xlink:href="#ArialMT-49"/>
       <use x="339.160156" xlink:href="#ArialMT-50"/>
      </g>
     </g>
    </g>
    <g id="xtick_8">
     <g id="line2d_15">
      <path clip-path="url(#pd9a85e4457)" d="M 447.999368 352.44 
L 447.999368 47.52 
" style="fill:none;stroke:#ffffff;stroke-linecap:round;"/>
     </g>
     <g id="line2d_16"/>
     <g id="text_8">
      <!-- 01-02 18 -->
      <g style="fill:#262626;" transform="translate(428.262649 366.597813)scale(0.1 -0.1)">
       <use xlink:href="#ArialMT-48"/>
       <use x="55.615234" xlink:href="#ArialMT-49"/>
       <use x="111.230469" xlink:href="#ArialMT-45"/>
       <use x="144.53125" xlink:href="#ArialMT-48"/>
       <use x="200.146484" xlink:href="#ArialMT-50"/>
       <use x="255.761719" xlink:href="#ArialMT-32"/>
       <use x="283.544922" xlink:href="#ArialMT-49"/>
       <use x="339.160156" xlink:href="#ArialMT-56"/>
      </g>
     </g>
    </g>
    <g id="xtick_9">
     <g id="line2d_17">
      <path clip-path="url(#pd9a85e4457)" d="M 498.814862 352.44 
L 498.814862 47.52 
" style="fill:none;stroke:#ffffff;stroke-linecap:round;"/>
     </g>
     <g id="line2d_18"/>
     <g id="text_9">
      <!-- 01-03 00 -->
      <defs>
       <path d="M 4.203125 18.890625 
L 12.984375 20.0625 
Q 14.5 12.59375 18.140625 9.296875 
Q 21.78125 6 27 6 
Q 33.203125 6 37.46875 10.296875 
Q 41.75 14.59375 41.75 20.953125 
Q 41.75 27 37.796875 30.921875 
Q 33.84375 34.859375 27.734375 34.859375 
Q 25.25 34.859375 21.53125 33.890625 
L 22.515625 41.609375 
Q 23.390625 41.5 23.921875 41.5 
Q 29.546875 41.5 34.03125 44.421875 
Q 38.53125 47.359375 38.53125 53.46875 
Q 38.53125 58.296875 35.25 61.46875 
Q 31.984375 64.65625 26.8125 64.65625 
Q 21.6875 64.65625 18.265625 61.421875 
Q 14.84375 58.203125 13.875 51.765625 
L 5.078125 53.328125 
Q 6.6875 62.15625 12.390625 67.015625 
Q 18.109375 71.875 26.609375 71.875 
Q 32.46875 71.875 37.390625 69.359375 
Q 42.328125 66.84375 44.9375 62.5 
Q 47.5625 58.15625 47.5625 53.265625 
Q 47.5625 48.640625 45.0625 44.828125 
Q 42.578125 41.015625 37.703125 38.765625 
Q 44.046875 37.3125 47.5625 32.6875 
Q 51.078125 28.078125 51.078125 21.140625 
Q 51.078125 11.765625 44.234375 5.25 
Q 37.40625 -1.265625 26.953125 -1.265625 
Q 17.53125 -1.265625 11.296875 4.34375 
Q 5.078125 9.96875 4.203125 18.890625 
z
" id="ArialMT-51"/>
      </defs>
      <g style="fill:#262626;" transform="translate(479.078143 366.597813)scale(0.1 -0.1)">
       <use xlink:href="#ArialMT-48"/>
       <use x="55.615234" xlink:href="#ArialMT-49"/>
       <use x="111.230469" xlink:href="#ArialMT-45"/>
       <use x="144.53125" xlink:href="#ArialMT-48"/>
       <use x="200.146484" xlink:href="#ArialMT-51"/>
       <use x="255.761719" xlink:href="#ArialMT-32"/>
       <use x="283.544922" xlink:href="#ArialMT-48"/>
       <use x="339.160156" xlink:href="#ArialMT-48"/>
      </g>
     </g>
    </g>
   </g>
   <g id="matplotlib.axis_2">
    <g id="ytick_1">
     <g id="line2d_19">
      <path clip-path="url(#pd9a85e4457)" d="M 72 349.918835 
L 518.4 349.918835 
" style="fill:none;stroke:#ffffff;stroke-linecap:round;"/>
     </g>
     <g id="line2d_20"/>
     <g id="text_10">
      <!-- 0.0 -->
      <defs>
       <path d="M 9.078125 0 
L 9.078125 10.015625 
L 19.09375 10.015625 
L 19.09375 0 
z
" id="ArialMT-46"/>
      </defs>
      <g style="fill:#262626;" transform="translate(51.1 353.497741)scale(0.1 -0.1)">
       <use xlink:href="#ArialMT-48"/>
       <use x="55.615234" xlink:href="#ArialMT-46"/>
       <use x="83.398438" xlink:href="#ArialMT-48"/>
      </g>
     </g>
    </g>
    <g id="ytick_2">
     <g id="line2d_21">
      <path clip-path="url(#pd9a85e4457)" d="M 72 302.387983 
L 518.4 302.387983 
" style="fill:none;stroke:#ffffff;stroke-linecap:round;"/>
     </g>
     <g id="line2d_22"/>
     <g id="text_11">
      <!-- 0.5 -->
      <defs>
       <path d="M 4.15625 18.75 
L 13.375 19.53125 
Q 14.40625 12.796875 18.140625 9.390625 
Q 21.875 6 27.15625 6 
Q 33.5 6 37.890625 10.78125 
Q 42.28125 15.578125 42.28125 23.484375 
Q 42.28125 31 38.0625 35.34375 
Q 33.84375 39.703125 27 39.703125 
Q 22.75 39.703125 19.328125 37.765625 
Q 15.921875 35.84375 13.96875 32.765625 
L 5.71875 33.84375 
L 12.640625 70.609375 
L 48.25 70.609375 
L 48.25 62.203125 
L 19.671875 62.203125 
L 15.828125 42.96875 
Q 22.265625 47.46875 29.34375 47.46875 
Q 38.71875 47.46875 45.15625 40.96875 
Q 51.609375 34.46875 51.609375 24.265625 
Q 51.609375 14.546875 45.953125 7.46875 
Q 39.0625 -1.21875 27.15625 -1.21875 
Q 17.390625 -1.21875 11.203125 4.25 
Q 5.03125 9.71875 4.15625 18.75 
z
" id="ArialMT-53"/>
      </defs>
      <g style="fill:#262626;" transform="translate(51.1 305.96689)scale(0.1 -0.1)">
       <use xlink:href="#ArialMT-48"/>
       <use x="55.615234" xlink:href="#ArialMT-46"/>
       <use x="83.398438" xlink:href="#ArialMT-53"/>
      </g>
     </g>
    </g>
    <g id="ytick_3">
     <g id="line2d_23">
      <path clip-path="url(#pd9a85e4457)" d="M 72 254.857132 
L 518.4 254.857132 
" style="fill:none;stroke:#ffffff;stroke-linecap:round;"/>
     </g>
     <g id="line2d_24"/>
     <g id="text_12">
      <!-- 1.0 -->
      <g style="fill:#262626;" transform="translate(51.1 258.436038)scale(0.1 -0.1)">
       <use xlink:href="#ArialMT-49"/>
       <use x="55.615234" xlink:href="#ArialMT-46"/>
       <use x="83.398438" xlink:href="#ArialMT-48"/>
      </g>
     </g>
    </g>
    <g id="ytick_4">
     <g id="line2d_25">
      <path clip-path="url(#pd9a85e4457)" d="M 72 207.32628 
L 518.4 207.32628 
" style="fill:none;stroke:#ffffff;stroke-linecap:round;"/>
     </g>
     <g id="line2d_26"/>
     <g id="text_13">
      <!-- 1.5 -->
      <g style="fill:#262626;" transform="translate(51.1 210.905186)scale(0.1 -0.1)">
       <use xlink:href="#ArialMT-49"/>
       <use x="55.615234" xlink:href="#ArialMT-46"/>
       <use x="83.398438" xlink:href="#ArialMT-53"/>
      </g>
     </g>
    </g>
    <g id="ytick_5">
     <g id="line2d_27">
      <path clip-path="url(#pd9a85e4457)" d="M 72 159.795429 
L 518.4 159.795429 
" style="fill:none;stroke:#ffffff;stroke-linecap:round;"/>
     </g>
     <g id="line2d_28"/>
     <g id="text_14">
      <!-- 2.0 -->
      <g style="fill:#262626;" transform="translate(51.1 163.374335)scale(0.1 -0.1)">
       <use xlink:href="#ArialMT-50"/>
       <use x="55.615234" xlink:href="#ArialMT-46"/>
       <use x="83.398438" xlink:href="#ArialMT-48"/>
      </g>
     </g>
    </g>
    <g id="ytick_6">
     <g id="line2d_29">
      <path clip-path="url(#pd9a85e4457)" d="M 72 112.264577 
L 518.4 112.264577 
" style="fill:none;stroke:#ffffff;stroke-linecap:round;"/>
     </g>
     <g id="line2d_30"/>
     <g id="text_15">
      <!-- 2.5 -->
      <g style="fill:#262626;" transform="translate(51.1 115.843483)scale(0.1 -0.1)">
       <use xlink:href="#ArialMT-50"/>
       <use x="55.615234" xlink:href="#ArialMT-46"/>
       <use x="83.398438" xlink:href="#ArialMT-53"/>
      </g>
     </g>
    </g>
    <g id="ytick_7">
     <g id="line2d_31">
      <path clip-path="url(#pd9a85e4457)" d="M 72 64.733725 
L 518.4 64.733725 
" style="fill:none;stroke:#ffffff;stroke-linecap:round;"/>
     </g>
     <g id="line2d_32"/>
     <g id="text_16">
      <!-- 3.0 -->
      <g style="fill:#262626;" transform="translate(51.1 68.312632)scale(0.1 -0.1)">
       <use xlink:href="#ArialMT-51"/>
       <use x="55.615234" xlink:href="#ArialMT-46"/>
       <use x="83.398438" xlink:href="#ArialMT-48"/>
      </g>
     </g>
    </g>
    <g id="text_17">
     <!-- 1e7 -->
     <defs>
      <path d="M 42.09375 16.703125 
L 51.171875 15.578125 
Q 49.03125 7.625 43.21875 3.21875 
Q 37.40625 -1.171875 28.375 -1.171875 
Q 17 -1.171875 10.328125 5.828125 
Q 3.65625 12.84375 3.65625 25.484375 
Q 3.65625 38.578125 10.390625 45.796875 
Q 17.140625 53.03125 27.875 53.03125 
Q 38.28125 53.03125 44.875 45.953125 
Q 51.46875 38.875 51.46875 26.03125 
Q 51.46875 25.25 51.421875 23.6875 
L 12.75 23.6875 
Q 13.234375 15.140625 17.578125 10.59375 
Q 21.921875 6.0625 28.421875 6.0625 
Q 33.25 6.0625 36.671875 8.59375 
Q 40.09375 11.140625 42.09375 16.703125 
z
M 13.234375 30.90625 
L 42.1875 30.90625 
Q 41.609375 37.453125 38.875 40.71875 
Q 34.671875 45.796875 27.984375 45.796875 
Q 21.921875 45.796875 17.796875 41.75 
Q 13.671875 37.703125 13.234375 30.90625 
z
" id="ArialMT-101"/>
      <path d="M 4.734375 62.203125 
L 4.734375 70.65625 
L 51.078125 70.65625 
L 51.078125 63.8125 
Q 44.234375 56.546875 37.515625 44.484375 
Q 30.8125 32.421875 27.15625 19.671875 
Q 24.515625 10.6875 23.78125 0 
L 14.75 0 
Q 14.890625 8.453125 18.0625 20.40625 
Q 21.234375 32.375 27.171875 43.484375 
Q 33.109375 54.59375 39.796875 62.203125 
z
" id="ArialMT-55"/>
     </defs>
     <g style="fill:#262626;" transform="translate(72 44.52)scale(0.1 -0.1)">
      <use xlink:href="#ArialMT-49"/>
      <use x="55.615234" xlink:href="#ArialMT-101"/>
      <use x="111.230469" xlink:href="#ArialMT-55"/>
     </g>
    </g>
   </g>
   <g id="line2d_33">
    <path clip-path="url(#pd9a85e4457)" d="M 92.290909 181.767151 
L 93.702451 181.338332 
L 94.408221 186.40036 
L 95.819763 185.982492 
L 96.525534 189.44905 
L 97.937075 189.110438 
L 98.642846 201.242131 
L 100.054387 200.913469 
L 100.760158 203.957999 
L 102.1717 203.662774 
L 102.87747 208.381705 
L 104.289012 208.141101 
L 104.994783 213.398456 
L 106.406324 213.186374 
L 107.112095 217.632778 
L 108.523636 217.440013 
L 109.229407 217.998104 
L 110.640949 217.84811 
L 111.346719 220.387723 
L 112.758261 220.286881 
L 113.464032 226.785602 
L 114.875573 226.674809 
L 115.581344 230.622399 
L 116.992885 230.483765 
L 117.698656 230.188792 
L 119.110198 230.067347 
L 119.815968 230.393179 
L 121.22751 230.301224 
L 121.933281 228.481177 
L 123.344822 228.439816 
L 124.050593 274.31463 
L 125.462134 274.166371 
L 126.167905 267.030227 
L 127.579447 266.784137 
L 128.285217 261.11757 
L 129.696759 260.870899 
L 130.40253 255.573966 
L 131.814071 255.407036 
L 132.519842 241.929238 
L 133.931383 241.916905 
L 134.637154 238.698181 
L 136.048696 238.810099 
L 136.754466 234.109163 
L 138.166008 234.298636 
L 138.871779 230.631533 
L 140.28332 230.838666 
L 140.989091 213.708652 
L 142.400632 214.060136 
L 143.106403 197.516426 
L 144.517945 198.100401 
L 145.223715 179.378027 
L 146.635257 180.236462 
L 147.341028 159.974538 
L 148.752569 161.078384 
L 149.45834 144.259816 
L 150.869881 145.388898 
L 151.575652 128.20239 
L 152.987194 129.333376 
L 153.692964 130.214885 
L 155.104506 130.799842 
L 155.810277 114.930428 
L 157.221818 115.571895 
L 157.927589 103.017608 
L 159.33913 103.788983 
L 160.044901 82.144044 
L 161.456443 83.237322 
L 162.162213 102.452766 
L 163.573755 102.45526 
L 164.279526 101.01064 
L 165.691067 100.884412 
L 166.396838 96.9897 
L 167.808379 97.023195 
L 168.51415 92.706183 
L 169.925692 92.89221 
L 170.631462 96.776155 
L 172.043004 96.781101 
L 172.748775 102.99509 
L 174.160316 102.781183 
L 174.866087 99.891396 
L 176.277628 99.841115 
L 176.983399 99.413517 
L 178.394941 99.441291 
L 179.100711 104.914462 
L 180.512253 104.773813 
L 181.218024 105.779838 
L 182.629565 105.648021 
L 183.335336 108.204844 
L 184.746877 108.063934 
L 185.452648 109.475085 
L 186.86419 109.372083 
L 187.56996 117.137458 
L 188.981502 116.90022 
L 189.687273 116.478784 
L 191.098814 116.337079 
L 191.804585 115.222387 
L 193.216126 115.19383 
L 193.921897 117.732806 
L 195.333439 117.676837 
L 196.039209 123.079048 
L 197.450751 122.919545 
L 198.156522 121.875551 
L 199.568063 121.787966 
L 200.273834 128.020921 
L 201.685375 127.845682 
L 202.391146 128.586667 
L 203.802688 128.451329 
L 204.508458 130.746843 
L 205.92 130.624847 
L 206.625771 131.633829 
L 208.037312 131.540124 
L 208.743083 135.26508 
L 210.154624 135.142874 
L 210.860395 134.408332 
L 212.271937 134.343328 
L 212.977708 135.765235 
L 214.389249 135.706721 
L 215.09502 135.117695 
L 216.506561 135.096282 
L 217.212332 131.546571 
L 218.623874 131.612163 
L 219.329644 131.315032 
L 220.741186 131.39025 
L 221.446957 134.318892 
L 222.858498 134.29541 
L 223.564269 133.710493 
L 224.97581 133.683856 
L 225.681581 132.439516 
L 227.093123 132.455324 
L 227.798893 132.920687 
L 229.210435 132.928951 
L 229.916206 134.288753 
L 231.327747 134.268793 
L 232.033518 132.800196 
L 233.445059 132.801716 
L 234.15083 133.283998 
L 235.562372 133.290856 
L 236.268142 131.524899 
L 237.679684 131.572563 
L 238.385455 133.049591 
L 239.796996 133.048002 
L 240.502767 132.117467 
L 241.914308 132.130738 
L 242.620079 133.624894 
L 244.031621 133.607405 
L 244.737391 133.281388 
L 246.148933 133.267168 
L 246.854704 132.087648 
L 248.266245 132.105243 
L 248.972016 129.870903 
L 252.50087 129.990049 
L 253.20664 129.545353 
L 254.618182 129.576725 
L 255.323953 130.952271 
L 256.735494 130.932296 
L 257.441265 130.314522 
L 260.970119 130.20339 
L 261.675889 131.038165 
L 263.087431 131.021481 
L 263.793202 131.612626 
L 265.204743 131.588048 
L 265.910514 132.145238 
L 267.322055 132.121498 
L 268.027826 132.898267 
L 269.439368 132.861896 
L 270.145138 131.85828 
L 271.55668 131.855506 
L 272.262451 136.000962 
L 273.673992 135.916796 
L 274.379763 136.773559 
L 275.791304 136.686256 
L 276.497075 144.674675 
L 277.908617 144.471394 
L 278.614387 146.640506 
L 280.025929 146.447574 
L 280.7317 155.889582 
L 282.143241 155.62205 
L 282.849012 159.777071 
L 284.260553 159.513411 
L 284.966324 183.134218 
L 286.377866 182.681002 
L 287.083636 191.661531 
L 288.495178 191.163158 
L 289.200949 208.266106 
L 290.61249 207.79394 
L 291.318261 212.791593 
L 292.729802 212.373436 
L 293.435573 227.543051 
L 294.847115 227.177278 
L 295.552885 169.242573 
L 296.258656 173.500278 
L 296.964427 179.058319 
L 297.670198 186.448505 
L 299.081739 197.234268 
L 299.78751 197.65182 
L 301.199051 205.344035 
L 301.904822 212.75256 
L 303.316364 217.15392 
L 304.022134 220.432786 
L 305.433676 223.011511 
L 306.139447 227.361002 
L 307.550988 228.815232 
L 308.256759 228.332081 
L 309.6683 229.205691 
L 310.374071 235.099961 
L 311.785613 235.553156 
L 312.491383 234.254195 
L 313.902925 234.515737 
L 314.608696 234.190469 
L 316.020237 234.332399 
L 316.726008 235.232745 
L 318.137549 235.303991 
L 318.84332 241.939088 
L 320.254862 241.959692 
L 320.960632 240.106389 
L 322.372174 240.109394 
L 323.077945 238.500498 
L 324.489486 238.497566 
L 325.195257 234.989732 
L 326.606798 234.992235 
L 327.312569 278.415827 
L 328.724111 278.372199 
L 329.429881 270.043614 
L 330.841423 269.990037 
L 331.547194 262.299807 
L 332.958735 262.241657 
L 333.664506 254.805779 
L 335.076047 254.75839 
L 335.781818 240.110821 
L 337.19336 240.103422 
L 337.89913 235.179455 
L 339.310672 235.212288 
L 340.016443 229.114198 
L 341.427984 229.185578 
L 342.133755 223.864274 
L 343.545296 223.962286 
L 344.251067 205.817907 
L 345.662609 205.988926 
L 346.368379 187.900075 
L 347.779921 188.167349 
L 348.485692 167.992493 
L 349.897233 168.383231 
L 350.603004 147.32945 
L 352.014545 147.844446 
L 352.720316 129.595841 
L 354.131858 130.169151 
L 354.837628 112.123603 
L 356.24917 112.721085 
L 356.954941 111.317893 
L 358.366482 111.735261 
L 359.072253 94.412948 
L 360.483794 94.813935 
L 361.189565 80.748907 
L 362.601107 81.178144 
L 363.306877 61.38 
L 364.718419 61.893662 
L 365.42419 77.768414 
L 366.835731 77.941226 
L 367.541502 73.577145 
L 368.953043 73.636698 
L 369.658814 67.94896 
L 371.070356 68.025409 
L 371.776126 63.616687 
L 373.187668 63.728484 
L 373.893439 64.255719 
L 375.30498 64.331134 
L 376.010751 68.909862 
L 377.422292 68.893573 
L 378.128063 64.31619 
L 379.539605 64.332905 
L 380.245375 62.801931 
L 381.656917 62.845027 
L 382.362688 66.337499 
L 385.891542 66.273074 
L 386.597312 66.614068 
L 390.126166 66.534508 
L 390.831937 72.251126 
L 392.243478 72.194315 
L 392.949249 68.081254 
L 394.360791 68.070368 
L 395.066561 66.631848 
L 396.478103 66.656297 
L 397.183874 68.160405 
L 398.595415 68.170266 
L 399.301186 71.537309 
L 400.712727 71.507369 
L 401.418498 70.194345 
L 402.83004 70.174712 
L 403.53581 74.693767 
L 404.947352 74.644352 
L 405.653123 74.062669 
L 407.064664 74.024725 
L 407.770435 75.157831 
L 409.181976 75.126348 
L 409.887747 75.568414 
L 411.299289 75.544834 
L 412.005059 78.673477 
L 413.416601 78.633858 
L 414.122372 77.676633 
L 415.533913 77.651516 
L 416.239684 78.108081 
L 417.651225 78.091641 
L 418.356996 76.892172 
L 419.768538 76.894271 
L 420.474308 72.514415 
L 421.88585 72.559048 
L 422.591621 72.962144 
L 424.003162 73.004737 
L 424.708933 75.26036 
L 426.120474 75.263389 
L 426.826245 73.40685 
L 428.237787 73.413003 
L 428.943557 73.010101 
L 430.355099 73.021954 
L 431.06087 73.390498 
L 432.472411 73.39598 
L 433.178182 73.692928 
L 434.589723 73.694585 
L 435.295494 72.412098 
L 436.707036 72.418837 
L 437.412806 71.32248 
L 438.824348 71.346022 
L 439.530119 70.020643 
L 440.94166 70.053373 
L 441.647431 72.144328 
L 443.058972 72.145575 
L 443.764743 71.200941 
L 445.176285 71.202545 
L 445.882055 72.046836 
L 447.293597 72.043771 
L 447.999368 70.949612 
L 449.410909 70.955292 
L 450.11668 69.463397 
L 451.528221 69.483458 
L 452.233992 67.242045 
L 455.762846 67.342885 
L 456.468617 68.089175 
L 457.880158 68.097159 
L 458.585929 68.993106 
L 459.99747 68.982117 
L 460.703241 68.564097 
L 462.114783 68.557928 
L 462.820553 68.974667 
L 464.232095 68.966881 
L 464.937866 69.660861 
L 466.349407 69.649566 
L 467.055178 70.166475 
L 468.466719 70.154645 
L 469.17249 71.08994 
L 470.584032 71.07423 
L 471.289802 71.818031 
L 472.701344 71.796735 
L 473.407115 70.886447 
L 474.818656 70.879732 
L 475.524427 75.464243 
L 476.935968 75.420958 
L 477.641739 76.699172 
L 479.053281 76.647286 
L 479.759051 85.803015 
L 481.170593 85.693626 
L 481.876364 88.838979 
L 483.287905 88.719601 
L 483.993676 98.165207 
L 485.405217 98.021399 
L 486.110988 103.256367 
L 487.52253 103.10913 
L 488.2283 129.413027 
L 489.639842 129.170015 
L 490.345613 139.913509 
L 491.757154 139.63275 
L 492.462925 158.000516 
L 493.874466 157.725941 
L 494.580237 163.61481 
L 495.991779 163.36634 
L 496.697549 178.822964 
L 498.109091 178.601522 
L 498.109091 178.601522 
" style="fill:none;stroke:#4c72b0;stroke-linecap:round;stroke-width:1.75;"/>
   </g>
   <g id="line2d_34">
    <path clip-path="url(#pd9a85e4457)" d="M 92.290909 180.797371 
L 93.702451 180.797371 
L 94.408221 185.846685 
L 95.819763 185.846685 
L 96.525534 189.254256 
L 97.937075 189.254256 
L 98.642846 200.805904 
L 100.054387 200.805904 
L 100.760158 203.821103 
L 102.1717 203.821103 
L 102.87747 208.39429 
L 104.289012 208.39429 
L 104.994783 213.447908 
L 106.406324 213.447908 
L 107.112095 217.738207 
L 108.523636 217.738207 
L 109.229407 218.360143 
L 110.640949 218.360143 
L 111.346719 220.873012 
L 112.758261 220.873012 
L 113.464032 227.061877 
L 114.875573 227.061877 
L 115.581344 230.816062 
L 116.992885 230.816062 
L 117.698656 230.613105 
L 119.110198 230.613105 
L 119.815968 230.94798 
L 121.22751 230.94798 
L 121.933281 229.294318 
L 123.344822 229.294318 
L 124.050593 273.104541 
L 125.462134 273.104541 
L 126.167905 266.275047 
L 127.579447 266.275047 
L 128.285217 260.984503 
L 129.696759 260.984503 
L 130.40253 256.062315 
L 131.814071 256.062315 
L 132.519842 243.398139 
L 133.931383 243.398139 
L 134.637154 240.341926 
L 136.048696 240.341926 
L 136.754466 235.913153 
L 138.166008 235.913153 
L 138.871779 232.374683 
L 140.28332 232.374683 
L 140.989091 216.234754 
L 142.400632 216.234754 
L 143.106403 200.702962 
L 144.517945 200.702962 
L 145.223715 183.140662 
L 146.635257 183.140662 
L 147.341028 164.10891 
L 148.752569 164.10891 
L 149.45834 148.145993 
L 150.869881 148.145993 
L 151.575652 131.918142 
L 152.987194 131.918142 
L 153.692964 132.302544 
L 155.104506 132.302544 
L 155.810277 117.473304 
L 157.221818 117.473304 
L 157.927589 105.714617 
L 159.33913 105.714617 
L 160.044901 85.540092 
L 161.456443 85.540092 
L 162.162213 102.891402 
L 163.573755 102.891402 
L 164.279526 101.632843 
L 165.691067 101.632843 
L 166.396838 98.044981 
L 167.808379 98.044981 
L 168.51415 94.054487 
L 169.925692 94.054487 
L 170.631462 97.578142 
L 172.043004 97.578142 
L 172.748775 103.310557 
L 174.160316 103.310557 
L 174.866087 100.743074 
L 176.277628 100.743074 
L 176.983399 100.367248 
L 178.394941 100.367248 
L 179.100711 105.395052 
L 180.512253 105.395052 
L 181.218024 106.379247 
L 182.629565 106.379247 
L 183.335336 108.762199 
L 184.746877 108.762199 
L 185.452648 110.125678 
L 186.86419 110.125678 
L 187.56996 117.351172 
L 188.981502 117.351172 
L 189.687273 117.074033 
L 191.098814 117.074033 
L 191.804585 116.083285 
L 193.216126 116.083285 
L 193.921897 118.443195 
L 195.333439 118.443195 
L 196.039209 123.488091 
L 197.450751 123.488091 
L 198.156522 122.592762 
L 199.568063 122.592762 
L 200.273834 128.385941 
L 201.685375 128.385941 
L 202.391146 129.156345 
L 203.802688 129.156345 
L 204.508458 131.318925 
L 205.92 131.318925 
L 206.625771 132.294857 
L 208.037312 132.294857 
L 208.743083 135.790535 
L 210.154624 135.790535 
L 210.860395 135.163473 
L 212.271937 135.163473 
L 212.977708 136.491548 
L 214.389249 136.491548 
L 215.09502 135.969744 
L 216.506561 135.969744 
L 217.212332 132.668473 
L 218.623874 132.668473 
L 219.329644 132.374238 
L 220.741186 132.374238 
L 221.446957 135.067432 
L 222.858498 135.067432 
L 223.564269 134.539669 
L 224.97581 134.539669 
L 225.681581 133.391857 
L 227.093123 133.391857 
L 227.798893 133.812906 
L 229.210435 133.812906 
L 229.916206 135.087573 
L 231.327747 135.087573 
L 232.033518 133.719957 
L 233.445059 133.719957 
L 234.15083 134.173512 
L 235.562372 134.173512 
L 236.268142 132.548393 
L 237.679684 132.548393 
L 238.385455 133.89036 
L 239.796996 133.89036 
L 240.502767 133.044665 
L 241.914308 133.044665 
L 242.620079 134.429133 
L 244.031621 134.429133 
L 244.737391 134.135413 
L 246.148933 134.135413 
L 246.854704 133.040565 
L 248.266245 133.040565 
L 248.972016 130.96909 
L 252.50087 130.931156 
L 253.20664 130.502003 
L 254.618182 130.502003 
L 255.323953 131.757478 
L 256.735494 131.757478 
L 257.441265 131.197633 
L 260.970119 131.095211 
L 261.675889 131.864823 
L 263.087431 131.864823 
L 263.793202 132.425197 
L 265.204743 132.425197 
L 265.910514 132.959561 
L 267.322055 132.959561 
L 268.027826 133.681504 
L 269.439368 133.681504 
L 270.145138 132.761938 
L 271.55668 132.761938 
L 272.262451 136.599047 
L 273.673992 136.599047 
L 274.379763 137.435829 
L 275.791304 137.435829 
L 276.497075 144.89343 
L 277.908617 144.89343 
L 278.614387 147.011812 
L 280.025929 147.011812 
L 280.7317 155.891671 
L 282.143241 155.891671 
L 282.849012 159.894098 
L 284.260553 159.894098 
L 284.966324 182.149931 
L 286.377866 182.149931 
L 287.083636 190.812239 
L 288.495178 190.812239 
L 289.200949 207.199394 
L 290.61249 207.199394 
L 291.318261 212.147749 
L 292.729802 212.147749 
L 293.435573 226.707834 
L 294.847115 226.707834 
L 295.552885 226.920362 
L 296.964427 226.920362 
L 297.670198 227.985242 
L 299.081739 227.985242 
L 299.78751 224.599273 
L 301.199051 224.599273 
L 301.904822 228.459584 
L 303.316364 228.459584 
L 304.022134 229.888558 
L 305.433676 229.888558 
L 306.139447 233.034451 
L 307.550988 233.034451 
L 308.256759 232.042212 
L 309.6683 232.042212 
L 310.374071 237.393814 
L 311.785613 237.393814 
L 312.491383 235.970721 
L 313.902925 235.970721 
L 314.608696 235.562863 
L 316.020237 235.562863 
L 316.726008 236.39586 
L 318.137549 236.39586 
L 318.84332 242.826882 
L 320.254862 242.826882 
L 320.960632 241.016728 
L 322.372174 241.016728 
L 323.077945 239.445997 
L 324.489486 239.445997 
L 325.195257 236.039817 
L 326.606798 236.039817 
L 327.312569 278.555403 
L 328.724111 278.555403 
L 329.429881 270.379023 
L 330.841423 270.379023 
L 331.547194 262.869665 
L 332.958735 262.869665 
L 333.664506 255.632534 
L 335.076047 255.632534 
L 335.781818 241.388348 
L 337.19336 241.388348 
L 337.89913 236.600429 
L 339.310672 236.600429 
L 340.016443 230.678537 
L 341.427984 230.678537 
L 342.133755 225.477743 
L 343.545296 225.477743 
L 344.251067 207.855132 
L 345.662609 207.855132 
L 346.368379 190.318488 
L 347.779921 190.318488 
L 348.485692 170.780046 
L 349.897233 170.780046 
L 350.603004 150.381393 
L 352.014545 150.381393 
L 352.720316 132.62522 
L 354.131858 132.62522 
L 354.837628 115.08442 
L 356.24917 115.08442 
L 356.954941 113.478968 
L 358.366482 113.478968 
L 359.072253 96.691626 
L 360.483794 96.691626 
L 361.189565 83.061535 
L 362.601107 83.061535 
L 363.306877 63.918691 
L 364.718419 63.918691 
L 365.42419 78.942091 
L 366.835731 78.942091 
L 367.541502 74.714926 
L 368.953043 74.714926 
L 369.658814 69.219606 
L 371.070356 69.219606 
L 371.776126 64.963861 
L 373.187668 64.963861 
L 373.893439 65.425762 
L 375.30498 65.425762 
L 376.010751 69.781291 
L 377.422292 69.781291 
L 378.128063 65.4138 
L 379.539605 65.4138 
L 380.245375 63.934701 
L 381.656917 63.934701 
L 382.362688 67.262828 
L 385.891542 67.227541 
L 386.597312 67.553815 
L 390.126166 67.519799 
L 390.831937 73.016789 
L 392.243478 73.016789 
L 392.949249 69.104688 
L 394.360791 69.104688 
L 395.066561 67.720435 
L 396.478103 67.720435 
L 397.183874 69.157665 
L 398.595415 69.157665 
L 399.301186 72.397106 
L 400.712727 72.397106 
L 401.418498 71.152643 
L 402.83004 71.152643 
L 403.53581 75.497801 
L 404.947352 75.497801 
L 405.653123 74.965403 
L 407.064664 74.965403 
L 407.770435 76.061688 
L 409.181976 76.061688 
L 409.887747 76.499522 
L 411.299289 76.499522 
L 412.005059 79.519799 
L 413.416601 79.519799 
L 414.122372 78.618096 
L 415.533913 78.618096 
L 416.239684 79.059764 
L 417.651225 79.059764 
L 418.356996 77.91403 
L 419.768538 77.91403 
L 420.474308 73.695406 
L 421.88585 73.695406 
L 422.591621 74.066713 
L 424.003162 74.066713 
L 424.708933 76.2201 
L 426.120474 76.2201 
L 426.826245 74.43768 
L 428.237787 74.43768 
L 428.943557 74.04517 
L 430.355099 74.04517 
L 431.06087 74.393926 
L 432.472411 74.393926 
L 433.178182 74.685147 
L 434.589723 74.685147 
L 435.295494 73.442204 
L 436.707036 73.442204 
L 437.412806 72.397226 
L 438.824348 72.397226 
L 439.530119 71.1166 
L 440.94166 71.1166 
L 441.647431 73.10765 
L 443.058972 73.10765 
L 443.764743 72.208166 
L 445.176285 72.208166 
L 445.882055 73.02157 
L 447.293597 73.02157 
L 447.999368 71.973058 
L 449.410909 71.973058 
L 450.11668 70.533803 
L 451.528221 70.533803 
L 452.233992 68.376279 
L 455.762846 68.383687 
L 456.468617 69.088528 
L 457.880158 69.088528 
L 458.585929 69.943764 
L 459.99747 69.943764 
L 460.703241 69.549946 
L 462.114783 69.549946 
L 462.820553 69.946437 
L 464.232095 69.946437 
L 464.937866 70.618114 
L 466.349407 70.618114 
L 467.055178 71.123413 
L 468.466719 71.123413 
L 469.17249 72.030103 
L 470.584032 72.030103 
L 471.289802 72.746718 
L 472.701344 72.746718 
L 473.407115 71.880441 
L 474.818656 71.880441 
L 475.524427 76.281865 
L 476.935968 76.281865 
L 477.641739 77.535692 
L 479.053281 77.535692 
L 479.759051 86.368969 
L 481.170593 86.368969 
L 481.876364 89.454679 
L 483.287905 89.454679 
L 483.993676 98.622123 
L 485.405217 98.622123 
L 486.110988 103.746057 
L 487.52253 103.746057 
L 488.2283 129.246245 
L 489.639842 129.246245 
L 490.345613 139.776242 
L 491.757154 139.776242 
L 492.462925 157.757031 
L 493.874466 157.757031 
L 494.580237 163.608174 
L 495.991779 163.608174 
L 496.697549 178.749897 
L 498.109091 178.749897 
L 498.109091 178.749897 
" style="fill:none;stroke:#55a868;stroke-linecap:round;stroke-width:1.75;"/>
   </g>
   <g id="line2d_35">
    <path clip-path="url(#pd9a85e4457)" d="M 92.290909 212.395577 
L 93.702451 212.395577 
L 94.408221 214.26906 
L 95.819763 214.26906 
L 96.525534 217.488854 
L 97.937075 217.488854 
L 98.642846 226.535232 
L 100.054387 226.535232 
L 100.760158 228.937012 
L 102.1717 228.937012 
L 102.87747 232.315388 
L 104.289012 232.315388 
L 104.994783 236.315083 
L 106.406324 236.315083 
L 107.112095 239.574074 
L 108.523636 239.574074 
L 109.229407 239.740767 
L 110.640949 239.740767 
L 111.346719 240.340202 
L 112.758261 240.340202 
L 113.464032 244.989933 
L 114.875573 244.989933 
L 115.581344 248.724679 
L 116.992885 248.724679 
L 117.698656 248.32286 
L 119.110198 248.32286 
L 119.815968 249.076157 
L 121.22751 249.076157 
L 121.933281 247.153447 
L 123.344822 247.153447 
L 124.050593 285.760456 
L 125.462134 285.760456 
L 126.167905 280.78041 
L 127.579447 280.78041 
L 128.285217 275.816649 
L 129.696759 275.816649 
L 130.40253 271.403977 
L 131.814071 271.403977 
L 132.519842 261.643914 
L 133.931383 261.643914 
L 134.637154 259.596627 
L 136.048696 259.596627 
L 136.754466 254.848711 
L 138.166008 254.848711 
L 138.871779 252.421759 
L 140.28332 252.421759 
L 140.989091 241.814499 
L 142.400632 241.814499 
L 143.106403 230.271222 
L 144.517945 230.271222 
L 145.223715 216.351367 
L 146.635257 216.351367 
L 147.341028 201.234181 
L 148.752569 201.234181 
L 149.45834 190.413249 
L 150.869881 190.413249 
L 151.575652 177.204551 
L 152.987194 177.204551 
L 153.692964 178.680144 
L 155.104506 178.680144 
L 155.810277 167.606021 
L 157.221818 167.606021 
L 157.927589 156.113877 
L 159.33913 156.113877 
L 160.044901 140.537045 
L 161.456443 140.537045 
L 162.162213 154.230994 
L 163.573755 154.230994 
L 164.279526 153.168339 
L 165.691067 153.168339 
L 166.396838 151.700767 
L 167.808379 151.700767 
L 168.51415 147.665529 
L 169.925692 147.665529 
L 170.631462 150.055063 
L 172.043004 150.055063 
L 172.748775 155.902891 
L 174.160316 155.902891 
L 174.866087 153.149602 
L 176.277628 153.149602 
L 176.983399 152.144866 
L 178.394941 152.144866 
L 179.100711 157.081807 
L 180.512253 157.081807 
L 181.218024 158.293616 
L 182.629565 158.293616 
L 183.335336 161.537592 
L 184.746877 161.537592 
L 185.452648 162.165632 
L 186.86419 162.165632 
L 187.56996 167.997703 
L 188.981502 167.997703 
L 189.687273 167.041641 
L 191.098814 167.041641 
L 191.804585 166.281605 
L 193.216126 166.281605 
L 193.921897 167.797272 
L 195.333439 167.797272 
L 196.039209 171.167403 
L 197.450751 171.167403 
L 198.156522 170.308223 
L 199.568063 170.308223 
L 200.273834 175.372109 
L 201.685375 175.372109 
L 202.391146 175.608173 
L 203.802688 175.608173 
L 204.508458 177.874487 
L 205.92 177.874487 
L 206.625771 178.896652 
L 208.037312 178.896652 
L 208.743083 181.31455 
L 210.154624 181.31455 
L 210.860395 180.616842 
L 212.271937 180.616842 
L 212.977708 182.121738 
L 214.389249 182.121738 
L 215.09502 181.596206 
L 216.506561 181.596206 
L 217.212332 179.83207 
L 218.623874 179.83207 
L 219.329644 178.819816 
L 220.741186 178.819816 
L 221.446957 180.771934 
L 222.858498 180.771934 
L 223.564269 180.545495 
L 224.97581 180.545495 
L 225.681581 179.745475 
L 227.093123 179.745475 
L 227.798893 180.101761 
L 229.210435 180.101761 
L 229.916206 180.367772 
L 231.327747 180.367772 
L 232.033518 180.127962 
L 233.445059 180.127962 
L 234.15083 179.929616 
L 235.562372 179.929616 
L 236.268142 178.020796 
L 237.679684 178.020796 
L 238.385455 179.377252 
L 239.796996 179.377252 
L 240.502767 178.202384 
L 241.914308 178.202384 
L 242.620079 179.047392 
L 244.031621 179.047392 
L 244.737391 178.898981 
L 246.148933 178.898981 
L 246.854704 178.271305 
L 248.266245 178.271305 
L 248.972016 176.255762 
L 252.50087 176.307553 
L 253.20664 176.021178 
L 254.618182 176.021178 
L 255.323953 177.417196 
L 256.735494 177.417196 
L 257.441265 176.914584 
L 260.970119 176.936651 
L 261.675889 177.660727 
L 263.087431 177.660727 
L 263.793202 177.91419 
L 267.322055 177.989985 
L 268.027826 178.902169 
L 269.439368 178.902169 
L 270.145138 178.331892 
L 271.55668 178.331892 
L 272.262451 181.656991 
L 273.673992 181.656991 
L 274.379763 182.264517 
L 275.791304 182.264517 
L 276.497075 188.102912 
L 277.908617 188.102912 
L 278.614387 189.35291 
L 280.025929 189.35291 
L 280.7317 195.772826 
L 282.143241 195.772826 
L 282.849012 198.501731 
L 284.260553 198.501731 
L 284.966324 215.450635 
L 286.377866 215.450635 
L 287.083636 222.780456 
L 288.495178 222.780456 
L 289.200949 234.614586 
L 290.61249 234.614586 
L 291.318261 238.246505 
L 292.729802 238.246505 
L 293.435573 249.554261 
L 294.847115 249.554261 
L 295.552885 249.882663 
L 299.081739 249.960892 
L 299.78751 246.676963 
L 301.199051 246.676963 
L 301.904822 249.737317 
L 303.316364 249.737317 
L 304.022134 250.360942 
L 305.433676 250.360942 
L 306.139447 252.654558 
L 307.550988 252.654558 
L 308.256759 251.844811 
L 309.6683 251.844811 
L 310.374071 255.920916 
L 311.785613 255.920916 
L 312.491383 254.327503 
L 313.902925 254.327503 
L 314.608696 253.004826 
L 316.020237 253.004826 
L 316.726008 252.291787 
L 318.137549 252.291787 
L 318.84332 258.109191 
L 320.254862 258.109191 
L 320.960632 256.616694 
L 322.372174 256.616694 
L 323.077945 255.787179 
L 324.489486 255.787179 
L 325.195257 252.468007 
L 326.606798 252.468007 
L 327.312569 289.894238 
L 328.724111 289.894238 
L 329.429881 283.824442 
L 330.841423 283.824442 
L 331.547194 277.087025 
L 332.958735 277.087025 
L 333.664506 270.87872 
L 335.076047 270.87872 
L 335.781818 259.859065 
L 337.19336 259.859065 
L 337.89913 256.400978 
L 339.310672 256.400978 
L 340.016443 250.443584 
L 341.427984 250.443584 
L 342.133755 246.746341 
L 343.545296 246.746341 
L 344.251067 234.945353 
L 345.662609 234.945353 
L 346.368379 221.855766 
L 347.779921 221.855766 
L 348.485692 206.35765 
L 349.897233 206.35765 
L 350.603004 190.167809 
L 352.014545 190.167809 
L 352.720316 177.930183 
L 354.131858 177.930183 
L 354.837628 163.642566 
L 358.366482 163.602284 
L 359.072253 150.553989 
L 360.483794 150.553989 
L 361.189565 137.969575 
L 362.601107 137.969575 
L 363.306877 123.31975 
L 364.718419 123.31975 
L 365.42419 135.043634 
L 366.835731 135.043634 
L 367.541502 131.67927 
L 368.953043 131.67927 
L 369.658814 128.493481 
L 371.070356 128.493481 
L 371.776126 124.265374 
L 375.30498 124.329096 
L 376.010751 129.150832 
L 377.422292 129.150832 
L 378.128063 124.663016 
L 379.539605 124.663016 
L 380.245375 123.230321 
L 381.656917 123.230321 
L 382.362688 126.383077 
L 383.774229 126.383077 
L 384.48 127.142553 
L 385.891542 127.142553 
L 386.597312 128.355869 
L 388.008854 128.355869 
L 388.714624 128.191255 
L 390.126166 128.191255 
L 390.831937 132.524671 
L 392.243478 132.524671 
L 392.949249 128.529691 
L 394.360791 128.529691 
L 395.066561 127.451712 
L 396.478103 127.451712 
L 397.183874 128.161055 
L 398.595415 128.161055 
L 399.301186 130.302225 
L 400.712727 130.302225 
L 401.418498 129.298516 
L 402.83004 129.298516 
L 403.53581 133.048749 
L 404.947352 133.048749 
L 405.653123 132.462078 
L 407.064664 132.462078 
L 407.770435 133.813404 
L 409.181976 133.813404 
L 409.887747 134.125926 
L 411.299289 134.125926 
L 412.005059 136.230386 
L 413.416601 136.230386 
L 414.122372 135.542679 
L 415.533913 135.542679 
L 416.239684 136.314561 
L 417.651225 136.314561 
L 418.356996 135.314812 
L 419.768538 135.314812 
L 420.474308 132.659463 
L 421.88585 132.659463 
L 422.591621 132.292139 
L 424.003162 132.292139 
L 424.708933 133.872768 
L 426.120474 133.872768 
L 426.826245 132.614796 
L 428.237787 132.614796 
L 428.943557 132.405433 
L 430.355099 132.405433 
L 431.06087 132.687475 
L 432.472411 132.687475 
L 433.178182 132.324416 
L 436.707036 132.225319 
L 437.412806 130.38743 
L 438.824348 130.38743 
L 439.530119 129.10521 
L 440.94166 129.10521 
L 441.647431 130.986549 
L 443.058972 130.986549 
L 443.764743 129.910932 
L 445.176285 129.910932 
L 445.882055 130.275291 
L 447.293597 130.275291 
L 447.999368 129.410099 
L 449.410909 129.410099 
L 450.11668 128.464576 
L 451.528221 128.464576 
L 452.233992 126.404202 
L 453.645534 126.404202 
L 454.351304 126.530643 
L 455.762846 126.530643 
L 456.468617 127.175455 
L 457.880158 127.175455 
L 458.585929 128.196142 
L 459.99747 128.196142 
L 460.703241 127.754784 
L 462.114783 127.754784 
L 462.820553 128.483961 
L 464.232095 128.483961 
L 464.937866 128.890735 
L 466.349407 128.890735 
L 467.055178 129.012223 
L 468.466719 129.012223 
L 469.17249 129.501318 
L 470.584032 129.501318 
L 471.289802 130.465363 
L 472.701344 130.465363 
L 473.407115 129.839111 
L 474.818656 129.839111 
L 475.524427 133.78054 
L 476.935968 133.78054 
L 477.641739 134.607521 
L 479.053281 134.607521 
L 479.759051 141.453837 
L 481.170593 141.453837 
L 481.876364 143.627606 
L 483.287905 143.627606 
L 483.993676 149.63092 
L 485.405217 149.63092 
L 486.110988 152.967068 
L 487.52253 152.967068 
L 488.2283 172.686829 
L 489.639842 172.686829 
L 490.345613 181.61944 
L 491.757154 181.61944 
L 492.462925 194.364416 
L 493.874466 194.364416 
L 494.580237 198.947136 
L 495.991779 198.947136 
L 496.697549 210.961413 
L 498.109091 210.961413 
L 498.109091 210.961413 
" style="fill:none;stroke:#c44e52;stroke-linecap:round;stroke-width:1.75;"/>
   </g>
   <g id="line2d_36">
    <path clip-path="url(#pd9a85e4457)" d="M 92.290909 318.320629 
L 93.702451 318.320629 
L 94.408221 321.49646 
L 95.819763 321.49646 
L 96.525534 321.684237 
L 97.937075 321.684237 
L 98.642846 324.189507 
L 100.054387 324.189507 
L 100.760158 324.802926 
L 102.1717 324.802926 
L 102.87747 325.997738 
L 104.289012 325.997738 
L 104.994783 327.05166 
L 106.406324 327.05166 
L 107.112095 328.082968 
L 108.523636 328.082968 
L 109.229407 328.538211 
L 110.640949 328.538211 
L 111.346719 330.451644 
L 112.758261 330.451644 
L 113.464032 331.990779 
L 116.992885 332.010218 
L 117.698656 332.20908 
L 119.110198 332.20908 
L 119.815968 331.790659 
L 121.22751 331.790659 
L 121.933281 332.059706 
L 123.344822 332.059706 
L 124.050593 337.262919 
L 125.462134 337.262919 
L 126.167905 335.413472 
L 127.579447 335.413472 
L 128.285217 335.086689 
L 129.696759 335.086689 
L 130.40253 334.577174 
L 131.814071 334.577174 
L 132.519842 331.67306 
L 133.931383 331.67306 
L 134.637154 330.664133 
L 136.048696 330.664133 
L 136.754466 330.983277 
L 138.166008 330.983277 
L 138.871779 329.871758 
L 140.28332 329.871758 
L 140.989091 324.33909 
L 142.400632 324.33909 
L 143.106403 320.350574 
L 144.517945 320.350574 
L 145.223715 316.70813 
L 146.635257 316.70813 
L 147.341028 312.793563 
L 148.752569 312.793563 
L 149.45834 307.651578 
L 150.869881 307.651578 
L 151.575652 304.632426 
L 152.987194 304.632426 
L 153.692964 303.541235 
L 155.104506 303.541235 
L 155.810277 299.786118 
L 157.221818 299.786118 
L 157.927589 299.519574 
L 159.33913 299.519574 
L 160.044901 294.921882 
L 161.456443 294.921882 
L 162.162213 298.579243 
L 163.573755 298.579243 
L 164.279526 298.383339 
L 165.691067 298.383339 
L 166.396838 296.263049 
L 169.925692 296.307792 
L 170.631462 297.441914 
L 172.043004 297.441914 
L 172.748775 297.326501 
L 174.160316 297.326501 
L 174.866087 297.512307 
L 176.277628 297.512307 
L 176.983399 298.141216 
L 180.512253 298.23208 
L 181.218024 298.004466 
L 182.629565 298.004466 
L 183.335336 297.143442 
L 184.746877 297.143442 
L 185.452648 297.87888 
L 186.86419 297.87888 
L 187.56996 299.272304 
L 188.981502 299.272304 
L 189.687273 299.951227 
L 191.098814 299.951227 
L 191.804585 299.720515 
L 193.216126 299.720515 
L 193.921897 300.564758 
L 195.333439 300.564758 
L 196.039209 302.239522 
L 199.568063 302.203374 
L 200.273834 302.932667 
L 201.685375 302.932667 
L 202.391146 303.467006 
L 205.92 303.363272 
L 208.037312 303.31704 
L 208.743083 304.39482 
L 216.506561 304.292373 
L 217.212332 302.755238 
L 218.623874 302.755238 
L 219.329644 303.473256 
L 220.741186 303.473256 
L 221.446957 304.214332 
L 222.858498 304.214332 
L 223.564269 303.913008 
L 224.97581 303.913008 
L 225.681581 303.565217 
L 229.210435 303.62998 
L 229.916206 304.638636 
L 231.327747 304.638636 
L 232.033518 303.51083 
L 233.445059 303.51083 
L 234.15083 304.162731 
L 235.562372 304.162731 
L 236.268142 304.446432 
L 239.796996 304.431942 
L 240.502767 304.761116 
L 241.914308 304.761116 
L 242.620079 305.300575 
L 244.031621 305.300575 
L 244.737391 305.155267 
L 246.148933 305.155267 
L 246.854704 304.688094 
L 250.383557 304.632163 
L 251.795099 304.542438 
L 252.50087 304.542438 
L 253.20664 304.39966 
L 254.618182 304.39966 
L 255.323953 304.259117 
L 258.852806 304.201884 
L 259.558577 304.077395 
L 263.087431 304.12293 
L 263.793202 304.429842 
L 265.204743 304.429842 
L 265.910514 304.888412 
L 267.322055 304.888412 
L 268.027826 304.69817 
L 269.439368 304.69817 
L 270.145138 304.34888 
L 271.55668 304.34888 
L 272.262451 304.860891 
L 273.673992 304.860891 
L 274.379763 305.090147 
L 275.791304 305.090147 
L 276.497075 306.709352 
L 277.908617 306.709352 
L 278.614387 307.577738 
L 280.025929 307.577738 
L 280.7317 310.03768 
L 282.143241 310.03768 
L 282.849012 311.311203 
L 284.260553 311.311203 
L 284.966324 316.618131 
L 286.377866 316.618131 
L 287.083636 317.950618 
L 288.495178 317.950618 
L 289.200949 322.503643 
L 290.61249 322.503643 
L 291.318261 323.820078 
L 292.729802 323.820078 
L 293.435573 327.072407 
L 294.847115 327.072407 
L 295.552885 326.956534 
L 296.964427 326.956534 
L 297.670198 327.943185 
L 301.199051 327.841145 
L 301.904822 328.641102 
L 303.316364 328.641102 
L 304.022134 329.446452 
L 305.433676 329.446452 
L 306.139447 330.298728 
L 307.550988 330.298728 
L 308.256759 330.116236 
L 309.6683 330.116236 
L 310.374071 331.391733 
L 311.785613 331.391733 
L 312.491383 331.562053 
L 313.902925 331.562053 
L 314.608696 332.476871 
L 316.020237 332.476871 
L 316.726008 334.022908 
L 318.137549 334.022908 
L 318.84332 334.636526 
L 320.254862 334.636526 
L 320.960632 334.318869 
L 322.372174 334.318869 
L 323.077945 333.577652 
L 326.606798 333.490645 
L 327.312569 338.58 
L 328.724111 338.58 
L 329.429881 336.473416 
L 330.841423 336.473416 
L 331.547194 335.701475 
L 332.958735 335.701475 
L 333.664506 334.672649 
L 335.076047 334.672649 
L 335.781818 331.448118 
L 337.19336 331.448118 
L 337.89913 330.118286 
L 341.427984 330.153788 
L 342.133755 328.650237 
L 343.545296 328.650237 
L 344.251067 322.828614 
L 345.662609 322.828614 
L 346.368379 318.381557 
L 347.779921 318.381557 
L 348.485692 314.341231 
L 349.897233 314.341231 
L 350.603004 310.132419 
L 352.014545 310.132419 
L 352.720316 304.613872 
L 354.131858 304.613872 
L 354.837628 301.360688 
L 356.24917 301.360688 
L 356.954941 299.795519 
L 358.366482 299.795519 
L 359.072253 296.056472 
L 360.483794 296.056472 
L 361.189565 295.010796 
L 362.601107 295.010796 
L 363.306877 290.517776 
L 364.718419 290.517776 
L 365.42419 293.817291 
L 366.835731 293.817291 
L 367.541502 292.954491 
L 368.953043 292.954491 
L 369.658814 290.644959 
L 373.187668 290.617321 
L 373.893439 291.015501 
L 375.30498 291.015501 
L 376.010751 290.549294 
L 377.422292 290.549294 
L 378.128063 290.669618 
L 381.656917 290.623214 
L 382.362688 290.798585 
L 383.774229 290.798585 
L 384.48 290.003823 
L 385.891542 290.003823 
L 386.597312 289.116781 
L 388.008854 289.116781 
L 388.714624 289.247379 
L 390.126166 289.247379 
L 390.831937 290.410952 
L 394.360791 290.493832 
L 395.066561 290.187558 
L 396.478103 290.187558 
L 397.183874 290.915445 
L 398.595415 290.915445 
L 399.301186 292.013715 
L 400.712727 292.013715 
L 401.418498 291.772962 
L 402.83004 291.772962 
L 403.53581 292.367887 
L 407.064664 292.42216 
L 407.770435 292.167119 
L 409.181976 292.167119 
L 409.887747 292.292431 
L 411.299289 292.292431 
L 412.005059 293.208248 
L 413.416601 293.208248 
L 414.122372 292.994252 
L 415.533913 292.994252 
L 416.239684 292.664037 
L 417.651225 292.664037 
L 418.356996 292.518052 
L 419.768538 292.518052 
L 420.474308 290.954778 
L 421.88585 290.954778 
L 422.591621 291.69341 
L 424.003162 291.69341 
L 424.708933 292.266166 
L 426.120474 292.266166 
L 426.826245 291.741718 
L 428.237787 291.741718 
L 428.943557 291.558572 
L 432.472411 291.625286 
L 433.178182 292.279566 
L 434.589723 292.279566 
L 435.295494 291.13572 
L 436.707036 291.13572 
L 437.412806 291.92863 
L 440.94166 291.930226 
L 442.353202 292.039936 
L 443.058972 292.039936 
L 443.764743 292.216069 
L 445.176285 292.216069 
L 445.882055 292.665114 
L 447.293597 292.665114 
L 447.999368 292.481794 
L 449.410909 292.481794 
L 450.11668 291.988063 
L 453.645534 291.890912 
L 454.351304 291.771879 
L 462.114783 291.713997 
L 462.820553 291.381311 
L 464.232095 291.381311 
L 464.937866 291.646215 
L 466.349407 291.646215 
L 467.055178 292.030025 
L 468.466719 292.030025 
L 469.17249 292.44762 
L 470.584032 292.44762 
L 471.289802 292.200189 
L 472.701344 292.200189 
L 473.407115 291.960165 
L 474.818656 291.960165 
L 475.524427 292.420159 
L 476.935968 292.420159 
L 477.641739 292.847006 
L 479.053281 292.847006 
L 479.759051 294.833967 
L 481.170593 294.833967 
L 481.876364 295.745908 
L 483.287905 295.745908 
L 483.993676 298.910038 
L 485.405217 298.910038 
L 486.110988 300.697824 
L 487.52253 300.697824 
L 488.2283 306.478251 
L 489.639842 306.478251 
L 490.345613 308.075637 
L 491.757154 308.075637 
L 492.462925 313.311449 
L 493.874466 313.311449 
L 494.580237 314.579873 
L 495.991779 314.579873 
L 496.697549 317.707318 
L 498.109091 317.707318 
L 498.109091 317.707318 
" style="fill:none;stroke:#8172b2;stroke-linecap:round;stroke-width:1.75;"/>
   </g>
   <g id="line2d_37">
    <path clip-path="url(#pd9a85e4457)" d="M 72 349.918835 
L 518.4 349.918835 
" style="fill:none;stroke:#000000;stroke-dasharray:7.4,3.2;stroke-dashoffset:0;stroke-width:2;"/>
   </g>
   <g id="patch_3">
    <path d="M 72 352.44 
L 72 47.52 
" style="fill:none;"/>
   </g>
   <g id="patch_4">
    <path d="M 518.4 352.44 
L 518.4 47.52 
" style="fill:none;"/>
   </g>
   <g id="patch_5">
    <path d="M 72 352.44 
L 518.4 352.44 
" style="fill:none;"/>
   </g>
   <g id="patch_6">
    <path d="M 72 47.52 
L 518.4 47.52 
" style="fill:none;"/>
   </g>
   <g id="text_18">
    <!-- Heat flows [W] -->
    <defs>
     <path d="M 8.015625 0 
L 8.015625 71.578125 
L 17.484375 71.578125 
L 17.484375 42.1875 
L 54.6875 42.1875 
L 54.6875 71.578125 
L 64.15625 71.578125 
L 64.15625 0 
L 54.6875 0 
L 54.6875 33.734375 
L 17.484375 33.734375 
L 17.484375 0 
z
" id="ArialMT-72"/>
     <path d="M 40.4375 6.390625 
Q 35.546875 2.25 31.03125 0.53125 
Q 26.515625 -1.171875 21.34375 -1.171875 
Q 12.796875 -1.171875 8.203125 3 
Q 3.609375 7.171875 3.609375 13.671875 
Q 3.609375 17.484375 5.34375 20.625 
Q 7.078125 23.78125 9.890625 25.6875 
Q 12.703125 27.59375 16.21875 28.5625 
Q 18.796875 29.25 24.03125 29.890625 
Q 34.671875 31.15625 39.703125 32.90625 
Q 39.75 34.71875 39.75 35.203125 
Q 39.75 40.578125 37.25 42.78125 
Q 33.890625 45.75 27.25 45.75 
Q 21.046875 45.75 18.09375 43.578125 
Q 15.140625 41.40625 13.71875 35.890625 
L 5.125 37.0625 
Q 6.296875 42.578125 8.984375 45.96875 
Q 11.671875 49.359375 16.75 51.1875 
Q 21.828125 53.03125 28.515625 53.03125 
Q 35.15625 53.03125 39.296875 51.46875 
Q 43.453125 49.90625 45.40625 47.53125 
Q 47.359375 45.171875 48.140625 41.546875 
Q 48.578125 39.3125 48.578125 33.453125 
L 48.578125 21.734375 
Q 48.578125 9.46875 49.140625 6.21875 
Q 49.703125 2.984375 51.375 0 
L 42.1875 0 
Q 40.828125 2.734375 40.4375 6.390625 
z
M 39.703125 26.03125 
Q 34.90625 24.078125 25.34375 22.703125 
Q 19.921875 21.921875 17.671875 20.9375 
Q 15.4375 19.96875 14.203125 18.09375 
Q 12.984375 16.21875 12.984375 13.921875 
Q 12.984375 10.40625 15.640625 8.0625 
Q 18.3125 5.71875 23.4375 5.71875 
Q 28.515625 5.71875 32.46875 7.9375 
Q 36.421875 10.15625 38.28125 14.015625 
Q 39.703125 17 39.703125 22.796875 
z
" id="ArialMT-97"/>
     <path d="M 25.78125 7.859375 
L 27.046875 0.09375 
Q 23.34375 -0.6875 20.40625 -0.6875 
Q 15.625 -0.6875 12.984375 0.828125 
Q 10.359375 2.34375 9.28125 4.8125 
Q 8.203125 7.28125 8.203125 15.1875 
L 8.203125 45.015625 
L 1.765625 45.015625 
L 1.765625 51.859375 
L 8.203125 51.859375 
L 8.203125 64.703125 
L 16.9375 69.96875 
L 16.9375 51.859375 
L 25.78125 51.859375 
L 25.78125 45.015625 
L 16.9375 45.015625 
L 16.9375 14.703125 
Q 16.9375 10.9375 17.40625 9.859375 
Q 17.875 8.796875 18.921875 8.15625 
Q 19.96875 7.515625 21.921875 7.515625 
Q 23.390625 7.515625 25.78125 7.859375 
z
" id="ArialMT-116"/>
     <path d="M 8.6875 0 
L 8.6875 45.015625 
L 0.921875 45.015625 
L 0.921875 51.859375 
L 8.6875 51.859375 
L 8.6875 57.375 
Q 8.6875 62.59375 9.625 65.140625 
Q 10.890625 68.5625 14.078125 70.671875 
Q 17.28125 72.796875 23.046875 72.796875 
Q 26.765625 72.796875 31.25 71.921875 
L 29.9375 64.265625 
Q 27.203125 64.75 24.75 64.75 
Q 20.75 64.75 19.09375 63.03125 
Q 17.4375 61.328125 17.4375 56.640625 
L 17.4375 51.859375 
L 27.546875 51.859375 
L 27.546875 45.015625 
L 17.4375 45.015625 
L 17.4375 0 
z
" id="ArialMT-102"/>
     <path d="M 6.390625 0 
L 6.390625 71.578125 
L 15.1875 71.578125 
L 15.1875 0 
z
" id="ArialMT-108"/>
     <path d="M 3.328125 25.921875 
Q 3.328125 40.328125 11.328125 47.265625 
Q 18.015625 53.03125 27.640625 53.03125 
Q 38.328125 53.03125 45.109375 46.015625 
Q 51.90625 39.015625 51.90625 26.65625 
Q 51.90625 16.65625 48.90625 10.90625 
Q 45.90625 5.171875 40.15625 2 
Q 34.421875 -1.171875 27.640625 -1.171875 
Q 16.75 -1.171875 10.03125 5.8125 
Q 3.328125 12.796875 3.328125 25.921875 
z
M 12.359375 25.921875 
Q 12.359375 15.96875 16.703125 11.015625 
Q 21.046875 6.0625 27.640625 6.0625 
Q 34.1875 6.0625 38.53125 11.03125 
Q 42.875 16.015625 42.875 26.21875 
Q 42.875 35.84375 38.5 40.796875 
Q 34.125 45.75 27.640625 45.75 
Q 21.046875 45.75 16.703125 40.8125 
Q 12.359375 35.890625 12.359375 25.921875 
z
" id="ArialMT-111"/>
     <path d="M 16.15625 0 
L 0.296875 51.859375 
L 9.375 51.859375 
L 17.625 21.921875 
L 20.703125 10.796875 
Q 20.90625 11.625 23.390625 21.484375 
L 31.640625 51.859375 
L 40.671875 51.859375 
L 48.4375 21.78125 
L 51.03125 11.859375 
L 54 21.875 
L 62.890625 51.859375 
L 71.4375 51.859375 
L 55.21875 0 
L 46.09375 0 
L 37.84375 31.0625 
L 35.84375 39.890625 
L 25.34375 0 
z
" id="ArialMT-119"/>
     <path d="M 3.078125 15.484375 
L 11.765625 16.84375 
Q 12.5 11.625 15.84375 8.84375 
Q 19.1875 6.0625 25.203125 6.0625 
Q 31.25 6.0625 34.171875 8.515625 
Q 37.109375 10.984375 37.109375 14.3125 
Q 37.109375 17.28125 34.515625 19 
Q 32.71875 20.171875 25.53125 21.96875 
Q 15.875 24.421875 12.140625 26.203125 
Q 8.40625 27.984375 6.46875 31.125 
Q 4.546875 34.28125 4.546875 38.09375 
Q 4.546875 41.546875 6.125 44.5 
Q 7.71875 47.46875 10.453125 49.421875 
Q 12.5 50.921875 16.03125 51.96875 
Q 19.578125 53.03125 23.640625 53.03125 
Q 29.734375 53.03125 34.34375 51.265625 
Q 38.96875 49.515625 41.15625 46.5 
Q 43.359375 43.5 44.1875 38.484375 
L 35.59375 37.3125 
Q 35.015625 41.3125 32.203125 43.546875 
Q 29.390625 45.796875 24.265625 45.796875 
Q 18.21875 45.796875 15.625 43.796875 
Q 13.03125 41.796875 13.03125 39.109375 
Q 13.03125 37.40625 14.109375 36.03125 
Q 15.1875 34.625 17.484375 33.6875 
Q 18.796875 33.203125 25.25 31.453125 
Q 34.578125 28.953125 38.25 27.359375 
Q 41.9375 25.78125 44.03125 22.75 
Q 46.140625 19.734375 46.140625 15.234375 
Q 46.140625 10.84375 43.578125 6.953125 
Q 41.015625 3.078125 36.171875 0.953125 
Q 31.34375 -1.171875 25.25 -1.171875 
Q 15.140625 -1.171875 9.84375 3.03125 
Q 4.546875 7.234375 3.078125 15.484375 
z
" id="ArialMT-115"/>
     <path d="M 6.78125 -19.875 
L 6.78125 71.578125 
L 26.171875 71.578125 
L 26.171875 64.3125 
L 15.578125 64.3125 
L 15.578125 -12.59375 
L 26.171875 -12.59375 
L 26.171875 -19.875 
z
" id="ArialMT-91"/>
     <path d="M 20.21875 0 
L 1.21875 71.578125 
L 10.9375 71.578125 
L 21.828125 24.65625 
Q 23.578125 17.28125 24.859375 10.015625 
Q 27.59375 21.484375 28.078125 23.25 
L 41.703125 71.578125 
L 53.125 71.578125 
L 63.375 35.359375 
Q 67.234375 21.875 68.953125 10.015625 
Q 70.3125 16.796875 72.515625 25.59375 
L 83.734375 71.578125 
L 93.265625 71.578125 
L 73.640625 0 
L 64.5 0 
L 49.421875 54.546875 
Q 47.515625 61.375 47.171875 62.9375 
Q 46.046875 58.015625 45.0625 54.546875 
L 29.890625 0 
z
" id="ArialMT-87"/>
     <path d="M 21.296875 -19.875 
L 1.90625 -19.875 
L 1.90625 -12.59375 
L 12.5 -12.59375 
L 12.5 64.3125 
L 1.90625 64.3125 
L 1.90625 71.578125 
L 21.296875 71.578125 
z
" id="ArialMT-93"/>
    </defs>
    <g style="fill:#262626;" transform="translate(256.52625 41.52)scale(0.12 -0.12)">
     <use xlink:href="#ArialMT-72"/>
     <use x="72.216797" xlink:href="#ArialMT-101"/>
     <use x="127.832031" xlink:href="#ArialMT-97"/>
     <use x="183.447266" xlink:href="#ArialMT-116"/>
     <use x="211.230469" xlink:href="#ArialMT-32"/>
     <use x="239.013672" xlink:href="#ArialMT-102"/>
     <use x="266.796875" xlink:href="#ArialMT-108"/>
     <use x="289.013672" xlink:href="#ArialMT-111"/>
     <use x="344.628906" xlink:href="#ArialMT-119"/>
     <use x="416.845703" xlink:href="#ArialMT-115"/>
     <use x="466.845703" xlink:href="#ArialMT-32"/>
     <use x="494.628906" xlink:href="#ArialMT-91"/>
     <use x="522.412109" xlink:href="#ArialMT-87"/>
     <use x="616.796875" xlink:href="#ArialMT-93"/>
    </g>
   </g>
   <g id="legend_1">
    <g id="line2d_38">
     <path d="M 239.520312 60.177812 
L 259.520312 60.177812 
" style="fill:none;stroke:#4c72b0;stroke-linecap:round;stroke-width:1.75;"/>
    </g>
    <g id="line2d_39"/>
    <g id="text_19">
     <!-- Producer -->
     <defs>
      <path d="M 7.71875 0 
L 7.71875 71.578125 
L 34.71875 71.578125 
Q 41.84375 71.578125 45.609375 70.90625 
Q 50.875 70.015625 54.4375 67.546875 
Q 58.015625 65.09375 60.1875 60.640625 
Q 62.359375 56.203125 62.359375 50.875 
Q 62.359375 41.75 56.546875 35.421875 
Q 50.734375 29.109375 35.546875 29.109375 
L 17.1875 29.109375 
L 17.1875 0 
z
M 17.1875 37.546875 
L 35.6875 37.546875 
Q 44.875 37.546875 48.734375 40.96875 
Q 52.59375 44.390625 52.59375 50.59375 
Q 52.59375 55.078125 50.3125 58.265625 
Q 48.046875 61.46875 44.34375 62.5 
Q 41.9375 63.140625 35.5 63.140625 
L 17.1875 63.140625 
z
" id="ArialMT-80"/>
      <path d="M 6.5 0 
L 6.5 51.859375 
L 14.40625 51.859375 
L 14.40625 44 
Q 17.4375 49.515625 20 51.265625 
Q 22.5625 53.03125 25.640625 53.03125 
Q 30.078125 53.03125 34.671875 50.203125 
L 31.640625 42.046875 
Q 28.421875 43.953125 25.203125 43.953125 
Q 22.3125 43.953125 20.015625 42.21875 
Q 17.71875 40.484375 16.75 37.40625 
Q 15.28125 32.71875 15.28125 27.15625 
L 15.28125 0 
z
" id="ArialMT-114"/>
      <path d="M 40.234375 0 
L 40.234375 6.546875 
Q 35.296875 -1.171875 25.734375 -1.171875 
Q 19.53125 -1.171875 14.328125 2.25 
Q 9.125 5.671875 6.265625 11.796875 
Q 3.421875 17.921875 3.421875 25.875 
Q 3.421875 33.640625 6 39.96875 
Q 8.59375 46.296875 13.765625 49.65625 
Q 18.953125 53.03125 25.34375 53.03125 
Q 30.03125 53.03125 33.6875 51.046875 
Q 37.359375 49.078125 39.65625 45.90625 
L 39.65625 71.578125 
L 48.390625 71.578125 
L 48.390625 0 
z
M 12.453125 25.875 
Q 12.453125 15.921875 16.640625 10.984375 
Q 20.84375 6.0625 26.5625 6.0625 
Q 32.328125 6.0625 36.34375 10.765625 
Q 40.375 15.484375 40.375 25.140625 
Q 40.375 35.796875 36.265625 40.765625 
Q 32.171875 45.75 26.171875 45.75 
Q 20.3125 45.75 16.375 40.96875 
Q 12.453125 36.1875 12.453125 25.875 
z
" id="ArialMT-100"/>
      <path d="M 40.578125 0 
L 40.578125 7.625 
Q 34.515625 -1.171875 24.125 -1.171875 
Q 19.53125 -1.171875 15.546875 0.578125 
Q 11.578125 2.34375 9.640625 5 
Q 7.71875 7.671875 6.9375 11.53125 
Q 6.390625 14.109375 6.390625 19.734375 
L 6.390625 51.859375 
L 15.1875 51.859375 
L 15.1875 23.09375 
Q 15.1875 16.21875 15.71875 13.8125 
Q 16.546875 10.359375 19.234375 8.375 
Q 21.921875 6.390625 25.875 6.390625 
Q 29.828125 6.390625 33.296875 8.421875 
Q 36.765625 10.453125 38.203125 13.9375 
Q 39.65625 17.4375 39.65625 24.078125 
L 39.65625 51.859375 
L 48.4375 51.859375 
L 48.4375 0 
z
" id="ArialMT-117"/>
      <path d="M 40.4375 19 
L 49.078125 17.875 
Q 47.65625 8.9375 41.8125 3.875 
Q 35.984375 -1.171875 27.484375 -1.171875 
Q 16.84375 -1.171875 10.375 5.78125 
Q 3.90625 12.75 3.90625 25.734375 
Q 3.90625 34.125 6.6875 40.421875 
Q 9.46875 46.734375 15.15625 49.875 
Q 20.84375 53.03125 27.546875 53.03125 
Q 35.984375 53.03125 41.359375 48.75 
Q 46.734375 44.484375 48.25 36.625 
L 39.703125 35.296875 
Q 38.484375 40.53125 35.375 43.15625 
Q 32.28125 45.796875 27.875 45.796875 
Q 21.234375 45.796875 17.078125 41.03125 
Q 12.9375 36.28125 12.9375 25.984375 
Q 12.9375 15.53125 16.9375 10.796875 
Q 20.953125 6.0625 27.390625 6.0625 
Q 32.5625 6.0625 36.03125 9.234375 
Q 39.5 12.40625 40.4375 19 
z
" id="ArialMT-99"/>
     </defs>
     <g style="fill:#262626;" transform="translate(267.520312 63.677812)scale(0.1 -0.1)">
      <use xlink:href="#ArialMT-80"/>
      <use x="66.699219" xlink:href="#ArialMT-114"/>
      <use x="100" xlink:href="#ArialMT-111"/>
      <use x="155.615234" xlink:href="#ArialMT-100"/>
      <use x="211.230469" xlink:href="#ArialMT-117"/>
      <use x="266.845703" xlink:href="#ArialMT-99"/>
      <use x="316.845703" xlink:href="#ArialMT-101"/>
      <use x="372.460938" xlink:href="#ArialMT-114"/>
     </g>
    </g>
    <g id="line2d_40">
     <path d="M 239.520312 74.323125 
L 259.520312 74.323125 
" style="fill:none;stroke:#55a868;stroke-linecap:round;stroke-width:1.75;"/>
    </g>
    <g id="line2d_41"/>
    <g id="text_20">
     <!-- All users -->
     <defs>
      <path d="M -0.140625 0 
L 27.34375 71.578125 
L 37.546875 71.578125 
L 66.84375 0 
L 56.0625 0 
L 47.703125 21.6875 
L 17.78125 21.6875 
L 9.90625 0 
z
M 20.515625 29.390625 
L 44.78125 29.390625 
L 37.3125 49.21875 
Q 33.890625 58.25 32.234375 64.0625 
Q 30.859375 57.171875 28.375 50.390625 
z
" id="ArialMT-65"/>
     </defs>
     <g style="fill:#262626;" transform="translate(267.520312 77.823125)scale(0.1 -0.1)">
      <use xlink:href="#ArialMT-65"/>
      <use x="66.699219" xlink:href="#ArialMT-108"/>
      <use x="88.916016" xlink:href="#ArialMT-108"/>
      <use x="111.132812" xlink:href="#ArialMT-32"/>
      <use x="138.916016" xlink:href="#ArialMT-117"/>
      <use x="194.53125" xlink:href="#ArialMT-115"/>
      <use x="244.53125" xlink:href="#ArialMT-101"/>
      <use x="300.146484" xlink:href="#ArialMT-114"/>
      <use x="333.447266" xlink:href="#ArialMT-115"/>
     </g>
    </g>
    <g id="line2d_42">
     <path d="M 239.520312 88.468437 
L 259.520312 88.468437 
" style="fill:none;stroke:#c44e52;stroke-linecap:round;stroke-width:1.75;"/>
    </g>
    <g id="line2d_43"/>
    <g id="text_21">
     <!-- WaterscheiGarden -->
     <defs>
      <path d="M 6.59375 0 
L 6.59375 71.578125 
L 15.375 71.578125 
L 15.375 45.90625 
Q 21.53125 53.03125 30.90625 53.03125 
Q 36.671875 53.03125 40.921875 50.75 
Q 45.171875 48.484375 47 44.484375 
Q 48.828125 40.484375 48.828125 32.859375 
L 48.828125 0 
L 40.046875 0 
L 40.046875 32.859375 
Q 40.046875 39.453125 37.1875 42.453125 
Q 34.328125 45.453125 29.109375 45.453125 
Q 25.203125 45.453125 21.75 43.421875 
Q 18.3125 41.40625 16.84375 37.9375 
Q 15.375 34.46875 15.375 28.375 
L 15.375 0 
z
" id="ArialMT-104"/>
      <path d="M 6.640625 61.46875 
L 6.640625 71.578125 
L 15.4375 71.578125 
L 15.4375 61.46875 
z
M 6.640625 0 
L 6.640625 51.859375 
L 15.4375 51.859375 
L 15.4375 0 
z
" id="ArialMT-105"/>
      <path d="M 41.21875 28.078125 
L 41.21875 36.46875 
L 71.53125 36.53125 
L 71.53125 9.96875 
Q 64.546875 4.390625 57.125 1.578125 
Q 49.703125 -1.21875 41.890625 -1.21875 
Q 31.34375 -1.21875 22.71875 3.296875 
Q 14.109375 7.8125 9.71875 16.359375 
Q 5.328125 24.90625 5.328125 35.453125 
Q 5.328125 45.90625 9.6875 54.953125 
Q 14.0625 64.015625 22.265625 68.40625 
Q 30.46875 72.796875 41.15625 72.796875 
Q 48.921875 72.796875 55.1875 70.28125 
Q 61.46875 67.78125 65.03125 63.28125 
Q 68.609375 58.796875 70.453125 51.5625 
L 61.921875 49.21875 
Q 60.296875 54.6875 57.90625 57.8125 
Q 55.515625 60.9375 51.0625 62.8125 
Q 46.625 64.703125 41.21875 64.703125 
Q 34.71875 64.703125 29.984375 62.71875 
Q 25.25 60.75 22.34375 57.515625 
Q 19.4375 54.296875 17.828125 50.4375 
Q 15.09375 43.796875 15.09375 36.03125 
Q 15.09375 26.46875 18.390625 20.015625 
Q 21.6875 13.578125 27.984375 10.453125 
Q 34.28125 7.328125 41.359375 7.328125 
Q 47.515625 7.328125 53.375 9.6875 
Q 59.234375 12.0625 62.25 14.75 
L 62.25 28.078125 
z
" id="ArialMT-71"/>
      <path d="M 6.59375 0 
L 6.59375 51.859375 
L 14.5 51.859375 
L 14.5 44.484375 
Q 20.21875 53.03125 31 53.03125 
Q 35.6875 53.03125 39.625 51.34375 
Q 43.5625 49.65625 45.515625 46.921875 
Q 47.46875 44.1875 48.25 40.4375 
Q 48.734375 37.984375 48.734375 31.890625 
L 48.734375 0 
L 39.9375 0 
L 39.9375 31.546875 
Q 39.9375 36.921875 38.90625 39.578125 
Q 37.890625 42.234375 35.28125 43.8125 
Q 32.671875 45.40625 29.15625 45.40625 
Q 23.53125 45.40625 19.453125 41.84375 
Q 15.375 38.28125 15.375 28.328125 
L 15.375 0 
z
" id="ArialMT-110"/>
     </defs>
     <g style="fill:#262626;" transform="translate(267.520312 91.968437)scale(0.1 -0.1)">
      <use xlink:href="#ArialMT-87"/>
      <use x="94.337891" xlink:href="#ArialMT-97"/>
      <use x="149.953125" xlink:href="#ArialMT-116"/>
      <use x="177.736328" xlink:href="#ArialMT-101"/>
      <use x="233.351562" xlink:href="#ArialMT-114"/>
      <use x="266.652344" xlink:href="#ArialMT-115"/>
      <use x="316.652344" xlink:href="#ArialMT-99"/>
      <use x="366.652344" xlink:href="#ArialMT-104"/>
      <use x="422.267578" xlink:href="#ArialMT-101"/>
      <use x="477.882812" xlink:href="#ArialMT-105"/>
      <use x="500.099609" xlink:href="#ArialMT-71"/>
      <use x="577.882812" xlink:href="#ArialMT-97"/>
      <use x="633.498047" xlink:href="#ArialMT-114"/>
      <use x="666.798828" xlink:href="#ArialMT-100"/>
      <use x="722.414062" xlink:href="#ArialMT-101"/>
      <use x="778.029297" xlink:href="#ArialMT-110"/>
     </g>
    </g>
    <g id="line2d_44">
     <path d="M 239.520312 102.61375 
L 259.520312 102.61375 
" style="fill:none;stroke:#8172b2;stroke-linecap:round;stroke-width:1.75;"/>
    </g>
    <g id="line2d_45"/>
    <g id="text_22">
     <!-- ZwartbergNEast -->
     <defs>
      <path d="M 2 0 
L 2 8.796875 
L 38.671875 54.640625 
Q 42.578125 59.515625 46.09375 63.140625 
L 6.15625 63.140625 
L 6.15625 71.578125 
L 57.421875 71.578125 
L 57.421875 63.140625 
L 17.234375 13.484375 
L 12.890625 8.453125 
L 58.59375 8.453125 
L 58.59375 0 
z
" id="ArialMT-90"/>
      <path d="M 14.703125 0 
L 6.546875 0 
L 6.546875 71.578125 
L 15.328125 71.578125 
L 15.328125 46.046875 
Q 20.90625 53.03125 29.546875 53.03125 
Q 34.328125 53.03125 38.59375 51.09375 
Q 42.875 49.171875 45.625 45.671875 
Q 48.390625 42.1875 49.953125 37.25 
Q 51.515625 32.328125 51.515625 26.703125 
Q 51.515625 13.375 44.921875 6.09375 
Q 38.328125 -1.171875 29.109375 -1.171875 
Q 19.921875 -1.171875 14.703125 6.5 
z
M 14.59375 26.3125 
Q 14.59375 17 17.140625 12.84375 
Q 21.296875 6.0625 28.375 6.0625 
Q 34.125 6.0625 38.328125 11.0625 
Q 42.53125 16.0625 42.53125 25.984375 
Q 42.53125 36.140625 38.5 40.96875 
Q 34.46875 45.796875 28.765625 45.796875 
Q 23 45.796875 18.796875 40.796875 
Q 14.59375 35.796875 14.59375 26.3125 
z
" id="ArialMT-98"/>
      <path d="M 4.984375 -4.296875 
L 13.53125 -5.5625 
Q 14.0625 -9.515625 16.5 -11.328125 
Q 19.78125 -13.765625 25.4375 -13.765625 
Q 31.546875 -13.765625 34.859375 -11.328125 
Q 38.1875 -8.890625 39.359375 -4.5 
Q 40.046875 -1.8125 39.984375 6.78125 
Q 34.234375 0 25.640625 0 
Q 14.9375 0 9.078125 7.71875 
Q 3.21875 15.4375 3.21875 26.21875 
Q 3.21875 33.640625 5.90625 39.90625 
Q 8.59375 46.1875 13.6875 49.609375 
Q 18.796875 53.03125 25.6875 53.03125 
Q 34.859375 53.03125 40.828125 45.609375 
L 40.828125 51.859375 
L 48.921875 51.859375 
L 48.921875 7.03125 
Q 48.921875 -5.078125 46.453125 -10.125 
Q 44 -15.1875 38.640625 -18.109375 
Q 33.296875 -21.046875 25.484375 -21.046875 
Q 16.21875 -21.046875 10.5 -16.875 
Q 4.78125 -12.703125 4.984375 -4.296875 
z
M 12.25 26.859375 
Q 12.25 16.65625 16.296875 11.96875 
Q 20.359375 7.28125 26.46875 7.28125 
Q 32.515625 7.28125 36.609375 11.9375 
Q 40.71875 16.609375 40.71875 26.5625 
Q 40.71875 36.078125 36.5 40.90625 
Q 32.28125 45.75 26.3125 45.75 
Q 20.453125 45.75 16.34375 40.984375 
Q 12.25 36.234375 12.25 26.859375 
z
" id="ArialMT-103"/>
      <path d="M 7.625 0 
L 7.625 71.578125 
L 17.328125 71.578125 
L 54.9375 15.375 
L 54.9375 71.578125 
L 64.015625 71.578125 
L 64.015625 0 
L 54.296875 0 
L 16.703125 56.25 
L 16.703125 0 
z
" id="ArialMT-78"/>
      <path d="M 7.90625 0 
L 7.90625 71.578125 
L 59.671875 71.578125 
L 59.671875 63.140625 
L 17.390625 63.140625 
L 17.390625 41.21875 
L 56.984375 41.21875 
L 56.984375 32.8125 
L 17.390625 32.8125 
L 17.390625 8.453125 
L 61.328125 8.453125 
L 61.328125 0 
z
" id="ArialMT-69"/>
     </defs>
     <g style="fill:#262626;" transform="translate(267.520312 106.11375)scale(0.1 -0.1)">
      <use xlink:href="#ArialMT-90"/>
      <use x="61.083984" xlink:href="#ArialMT-119"/>
      <use x="133.300781" xlink:href="#ArialMT-97"/>
      <use x="188.916016" xlink:href="#ArialMT-114"/>
      <use x="222.216797" xlink:href="#ArialMT-116"/>
      <use x="250" xlink:href="#ArialMT-98"/>
      <use x="305.615234" xlink:href="#ArialMT-101"/>
      <use x="361.230469" xlink:href="#ArialMT-114"/>
      <use x="394.53125" xlink:href="#ArialMT-103"/>
      <use x="450.146484" xlink:href="#ArialMT-78"/>
      <use x="522.363281" xlink:href="#ArialMT-69"/>
      <use x="589.0625" xlink:href="#ArialMT-97"/>
      <use x="644.677734" xlink:href="#ArialMT-115"/>
      <use x="694.677734" xlink:href="#ArialMT-116"/>
     </g>
    </g>
   </g>
  </g>
  <g id="text_23">
   <!-- Horizon: 48.0h, Time step: 300, Neighbourhoods: 2, case: step_up -->
   <defs>
    <path d="M 1.953125 0 
L 1.953125 7.125 
L 34.96875 45.015625 
Q 29.34375 44.734375 25.046875 44.734375 
L 3.90625 44.734375 
L 3.90625 51.859375 
L 46.296875 51.859375 
L 46.296875 46.046875 
L 18.21875 13.140625 
L 12.796875 7.125 
Q 18.703125 7.5625 23.875 7.5625 
L 47.859375 7.5625 
L 47.859375 0 
z
" id="ArialMT-122"/>
    <path d="M 9.03125 41.84375 
L 9.03125 51.859375 
L 19.046875 51.859375 
L 19.046875 41.84375 
z
M 9.03125 0 
L 9.03125 10.015625 
L 19.046875 10.015625 
L 19.046875 0 
z
" id="ArialMT-58"/>
    <path d="M 32.328125 0 
L 32.328125 17.140625 
L 1.265625 17.140625 
L 1.265625 25.203125 
L 33.9375 71.578125 
L 41.109375 71.578125 
L 41.109375 25.203125 
L 50.78125 25.203125 
L 50.78125 17.140625 
L 41.109375 17.140625 
L 41.109375 0 
z
M 32.328125 25.203125 
L 32.328125 57.46875 
L 9.90625 25.203125 
z
" id="ArialMT-52"/>
    <path d="M 8.890625 0 
L 8.890625 10.015625 
L 18.890625 10.015625 
L 18.890625 0 
Q 18.890625 -5.515625 16.9375 -8.90625 
Q 14.984375 -12.3125 10.75 -14.15625 
L 8.296875 -10.40625 
Q 11.078125 -9.1875 12.390625 -6.8125 
Q 13.71875 -4.4375 13.875 0 
z
" id="ArialMT-44"/>
    <path d="M 25.921875 0 
L 25.921875 63.140625 
L 2.34375 63.140625 
L 2.34375 71.578125 
L 59.078125 71.578125 
L 59.078125 63.140625 
L 35.40625 63.140625 
L 35.40625 0 
z
" id="ArialMT-84"/>
    <path d="M 6.59375 0 
L 6.59375 51.859375 
L 14.453125 51.859375 
L 14.453125 44.578125 
Q 16.890625 48.390625 20.9375 50.703125 
Q 25 53.03125 30.171875 53.03125 
Q 35.9375 53.03125 39.625 50.640625 
Q 43.3125 48.25 44.828125 43.953125 
Q 50.984375 53.03125 60.84375 53.03125 
Q 68.5625 53.03125 72.703125 48.75 
Q 76.859375 44.484375 76.859375 35.59375 
L 76.859375 0 
L 68.109375 0 
L 68.109375 32.671875 
Q 68.109375 37.9375 67.25 40.25 
Q 66.40625 42.578125 64.15625 43.984375 
Q 61.921875 45.40625 58.890625 45.40625 
Q 53.421875 45.40625 49.796875 41.765625 
Q 46.1875 38.140625 46.1875 30.125 
L 46.1875 0 
L 37.40625 0 
L 37.40625 33.6875 
Q 37.40625 39.546875 35.25 42.46875 
Q 33.109375 45.40625 28.21875 45.40625 
Q 24.515625 45.40625 21.359375 43.453125 
Q 18.21875 41.5 16.796875 37.734375 
Q 15.375 33.984375 15.375 26.90625 
L 15.375 0 
z
" id="ArialMT-109"/>
    <path d="M 6.59375 -19.875 
L 6.59375 51.859375 
L 14.59375 51.859375 
L 14.59375 45.125 
Q 17.4375 49.078125 21 51.046875 
Q 24.5625 53.03125 29.640625 53.03125 
Q 36.28125 53.03125 41.359375 49.609375 
Q 46.4375 46.1875 49.015625 39.953125 
Q 51.609375 33.734375 51.609375 26.3125 
Q 51.609375 18.359375 48.75 11.984375 
Q 45.90625 5.609375 40.453125 2.21875 
Q 35.015625 -1.171875 29 -1.171875 
Q 24.609375 -1.171875 21.109375 0.6875 
Q 17.625 2.546875 15.375 5.375 
L 15.375 -19.875 
z
M 14.546875 25.640625 
Q 14.546875 15.625 18.59375 10.84375 
Q 22.65625 6.0625 28.421875 6.0625 
Q 34.28125 6.0625 38.453125 11.015625 
Q 42.625 15.96875 42.625 26.375 
Q 42.625 36.28125 38.546875 41.203125 
Q 34.46875 46.140625 28.8125 46.140625 
Q 23.1875 46.140625 18.859375 40.890625 
Q 14.546875 35.640625 14.546875 25.640625 
z
" id="ArialMT-112"/>
    <path d="M -1.515625 -19.875 
L -1.515625 -13.53125 
L 56.734375 -13.53125 
L 56.734375 -19.875 
z
" id="ArialMT-95"/>
   </defs>
   <g style="fill:#262626;" transform="translate(111.242813 16.545)scale(0.12 -0.12)">
    <use xlink:href="#ArialMT-72"/>
    <use x="72.216797" xlink:href="#ArialMT-111"/>
    <use x="127.832031" xlink:href="#ArialMT-114"/>
    <use x="161.132812" xlink:href="#ArialMT-105"/>
    <use x="183.349609" xlink:href="#ArialMT-122"/>
    <use x="233.349609" xlink:href="#ArialMT-111"/>
    <use x="288.964844" xlink:href="#ArialMT-110"/>
    <use x="344.580078" xlink:href="#ArialMT-58"/>
    <use x="372.363281" xlink:href="#ArialMT-32"/>
    <use x="400.146484" xlink:href="#ArialMT-52"/>
    <use x="455.761719" xlink:href="#ArialMT-56"/>
    <use x="511.376953" xlink:href="#ArialMT-46"/>
    <use x="539.160156" xlink:href="#ArialMT-48"/>
    <use x="594.775391" xlink:href="#ArialMT-104"/>
    <use x="650.390625" xlink:href="#ArialMT-44"/>
    <use x="678.173828" xlink:href="#ArialMT-32"/>
    <use x="705.941406" xlink:href="#ArialMT-84"/>
    <use x="766.978516" xlink:href="#ArialMT-105"/>
    <use x="789.195312" xlink:href="#ArialMT-109"/>
    <use x="872.496094" xlink:href="#ArialMT-101"/>
    <use x="928.111328" xlink:href="#ArialMT-32"/>
    <use x="955.894531" xlink:href="#ArialMT-115"/>
    <use x="1005.894531" xlink:href="#ArialMT-116"/>
    <use x="1033.677734" xlink:href="#ArialMT-101"/>
    <use x="1089.292969" xlink:href="#ArialMT-112"/>
    <use x="1144.908203" xlink:href="#ArialMT-58"/>
    <use x="1172.691406" xlink:href="#ArialMT-32"/>
    <use x="1200.474609" xlink:href="#ArialMT-51"/>
    <use x="1256.089844" xlink:href="#ArialMT-48"/>
    <use x="1311.705078" xlink:href="#ArialMT-48"/>
    <use x="1367.320312" xlink:href="#ArialMT-44"/>
    <use x="1395.103516" xlink:href="#ArialMT-32"/>
    <use x="1422.886719" xlink:href="#ArialMT-78"/>
    <use x="1495.103516" xlink:href="#ArialMT-101"/>
    <use x="1550.71875" xlink:href="#ArialMT-105"/>
    <use x="1572.935547" xlink:href="#ArialMT-103"/>
    <use x="1628.550781" xlink:href="#ArialMT-104"/>
    <use x="1684.166016" xlink:href="#ArialMT-98"/>
    <use x="1739.78125" xlink:href="#ArialMT-111"/>
    <use x="1795.396484" xlink:href="#ArialMT-117"/>
    <use x="1851.011719" xlink:href="#ArialMT-114"/>
    <use x="1884.3125" xlink:href="#ArialMT-104"/>
    <use x="1939.927734" xlink:href="#ArialMT-111"/>
    <use x="1995.542969" xlink:href="#ArialMT-111"/>
    <use x="2051.158203" xlink:href="#ArialMT-100"/>
    <use x="2106.773438" xlink:href="#ArialMT-115"/>
    <use x="2156.773438" xlink:href="#ArialMT-58"/>
    <use x="2184.556641" xlink:href="#ArialMT-32"/>
    <use x="2212.339844" xlink:href="#ArialMT-50"/>
    <use x="2267.955078" xlink:href="#ArialMT-44"/>
    <use x="2295.738281" xlink:href="#ArialMT-32"/>
    <use x="2323.521484" xlink:href="#ArialMT-99"/>
    <use x="2373.521484" xlink:href="#ArialMT-97"/>
    <use x="2429.136719" xlink:href="#ArialMT-115"/>
    <use x="2479.136719" xlink:href="#ArialMT-101"/>
    <use x="2534.751953" xlink:href="#ArialMT-58"/>
    <use x="2562.535156" xlink:href="#ArialMT-32"/>
    <use x="2590.318359" xlink:href="#ArialMT-115"/>
    <use x="2640.318359" xlink:href="#ArialMT-116"/>
    <use x="2668.101562" xlink:href="#ArialMT-101"/>
    <use x="2723.716797" xlink:href="#ArialMT-112"/>
    <use x="2779.332031" xlink:href="#ArialMT-95"/>
    <use x="2834.947266" xlink:href="#ArialMT-117"/>
    <use x="2890.5625" xlink:href="#ArialMT-112"/>
   </g>
  </g>
 </g>
 <defs>
  <clipPath id="pd9a85e4457">
   <rect height="304.92" width="446.4" x="72" y="47.52"/>
  </clipPath>
 </defs>
</svg>
