<?xml version="1.0" encoding="utf-8" standalone="no"?>
<!DOCTYPE svg PUBLIC "-//W3C//DTD SVG 1.1//EN"
  "http://www.w3.org/Graphics/SVG/1.1/DTD/svg11.dtd">
<!-- Created with matplotlib (https://matplotlib.org/) -->
<svg height="396pt" version="1.1" viewBox="0 0 576 396" width="576pt" xmlns="http://www.w3.org/2000/svg" xmlns:xlink="http://www.w3.org/1999/xlink">
 <defs>
  <style type="text/css">
*{stroke-linecap:butt;stroke-linejoin:round;}
  </style>
 </defs>
 <g id="figure_1">
  <g id="patch_1">
   <path d="M 0 396 
L 576 396 
L 576 0 
L 0 0 
z
" style="fill:#ffffff;"/>
  </g>
  <g id="axes_1">
   <g id="patch_2">
    <path d="M 72 352.44 
L 518.4 352.44 
L 518.4 47.52 
L 72 47.52 
z
" style="fill:#eaeaf2;"/>
   </g>
   <g id="matplotlib.axis_1">
    <g id="xtick_1">
     <g id="line2d_1">
      <path clip-path="url(#p6e5edfa2b1)" d="M 92.290909 352.44 
L 92.290909 47.52 
" style="fill:none;stroke:#ffffff;stroke-linecap:round;"/>
     </g>
     <g id="line2d_2"/>
     <g id="text_1">
      <!-- 01-01 00 -->
      <defs>
       <path d="M 4.15625 35.296875 
Q 4.15625 48 6.765625 55.734375 
Q 9.375 63.484375 14.515625 67.671875 
Q 19.671875 71.875 27.484375 71.875 
Q 33.25 71.875 37.59375 69.546875 
Q 41.9375 67.234375 44.765625 62.859375 
Q 47.609375 58.5 49.21875 52.21875 
Q 50.828125 45.953125 50.828125 35.296875 
Q 50.828125 22.703125 48.234375 14.96875 
Q 45.65625 7.234375 40.5 3 
Q 35.359375 -1.21875 27.484375 -1.21875 
Q 17.140625 -1.21875 11.234375 6.203125 
Q 4.15625 15.140625 4.15625 35.296875 
z
M 13.1875 35.296875 
Q 13.1875 17.671875 17.3125 11.828125 
Q 21.4375 6 27.484375 6 
Q 33.546875 6 37.671875 11.859375 
Q 41.796875 17.71875 41.796875 35.296875 
Q 41.796875 52.984375 37.671875 58.78125 
Q 33.546875 64.59375 27.390625 64.59375 
Q 21.34375 64.59375 17.71875 59.46875 
Q 13.1875 52.9375 13.1875 35.296875 
z
" id="ArialMT-48"/>
       <path d="M 37.25 0 
L 28.46875 0 
L 28.46875 56 
Q 25.296875 52.984375 20.140625 49.953125 
Q 14.984375 46.921875 10.890625 45.40625 
L 10.890625 53.90625 
Q 18.265625 57.375 23.78125 62.296875 
Q 29.296875 67.234375 31.59375 71.875 
L 37.25 71.875 
z
" id="ArialMT-49"/>
       <path d="M 3.171875 21.484375 
L 3.171875 30.328125 
L 30.171875 30.328125 
L 30.171875 21.484375 
z
" id="ArialMT-45"/>
       <path id="ArialMT-32"/>
      </defs>
      <g style="fill:#262626;" transform="translate(72.55419 366.597813)scale(0.1 -0.1)">
       <use xlink:href="#ArialMT-48"/>
       <use x="55.615234" xlink:href="#ArialMT-49"/>
       <use x="111.230469" xlink:href="#ArialMT-45"/>
       <use x="144.53125" xlink:href="#ArialMT-48"/>
       <use x="200.146484" xlink:href="#ArialMT-49"/>
       <use x="255.761719" xlink:href="#ArialMT-32"/>
       <use x="283.544922" xlink:href="#ArialMT-48"/>
       <use x="339.160156" xlink:href="#ArialMT-48"/>
      </g>
     </g>
    </g>
    <g id="xtick_2">
     <g id="line2d_3">
      <path clip-path="url(#p6e5edfa2b1)" d="M 143.106403 352.44 
L 143.106403 47.52 
" style="fill:none;stroke:#ffffff;stroke-linecap:round;"/>
     </g>
     <g id="line2d_4"/>
     <g id="text_2">
      <!-- 01-01 06 -->
      <defs>
       <path d="M 49.75 54.046875 
L 41.015625 53.375 
Q 39.84375 58.546875 37.703125 60.890625 
Q 34.125 64.65625 28.90625 64.65625 
Q 24.703125 64.65625 21.53125 62.3125 
Q 17.390625 59.28125 14.984375 53.46875 
Q 12.59375 47.65625 12.5 36.921875 
Q 15.671875 41.75 20.265625 44.09375 
Q 24.859375 46.4375 29.890625 46.4375 
Q 38.671875 46.4375 44.84375 39.96875 
Q 51.03125 33.5 51.03125 23.25 
Q 51.03125 16.5 48.125 10.71875 
Q 45.21875 4.9375 40.140625 1.859375 
Q 35.0625 -1.21875 28.609375 -1.21875 
Q 17.625 -1.21875 10.6875 6.859375 
Q 3.765625 14.9375 3.765625 33.5 
Q 3.765625 54.25 11.421875 63.671875 
Q 18.109375 71.875 29.4375 71.875 
Q 37.890625 71.875 43.28125 67.140625 
Q 48.6875 62.40625 49.75 54.046875 
z
M 13.875 23.1875 
Q 13.875 18.65625 15.796875 14.5 
Q 17.71875 10.359375 21.1875 8.171875 
Q 24.65625 6 28.46875 6 
Q 34.03125 6 38.03125 10.484375 
Q 42.046875 14.984375 42.046875 22.703125 
Q 42.046875 30.125 38.078125 34.390625 
Q 34.125 38.671875 28.125 38.671875 
Q 22.171875 38.671875 18.015625 34.390625 
Q 13.875 30.125 13.875 23.1875 
z
" id="ArialMT-54"/>
      </defs>
      <g style="fill:#262626;" transform="translate(123.369684 366.597813)scale(0.1 -0.1)">
       <use xlink:href="#ArialMT-48"/>
       <use x="55.615234" xlink:href="#ArialMT-49"/>
       <use x="111.230469" xlink:href="#ArialMT-45"/>
       <use x="144.53125" xlink:href="#ArialMT-48"/>
       <use x="200.146484" xlink:href="#ArialMT-49"/>
       <use x="255.761719" xlink:href="#ArialMT-32"/>
       <use x="283.544922" xlink:href="#ArialMT-48"/>
       <use x="339.160156" xlink:href="#ArialMT-54"/>
      </g>
     </g>
    </g>
    <g id="xtick_3">
     <g id="line2d_5">
      <path clip-path="url(#p6e5edfa2b1)" d="M 193.921897 352.44 
L 193.921897 47.52 
" style="fill:none;stroke:#ffffff;stroke-linecap:round;"/>
     </g>
     <g id="line2d_6"/>
     <g id="text_3">
      <!-- 01-01 12 -->
      <defs>
       <path d="M 50.34375 8.453125 
L 50.34375 0 
L 3.03125 0 
Q 2.9375 3.171875 4.046875 6.109375 
Q 5.859375 10.9375 9.828125 15.625 
Q 13.8125 20.3125 21.34375 26.46875 
Q 33.015625 36.03125 37.109375 41.625 
Q 41.21875 47.21875 41.21875 52.203125 
Q 41.21875 57.421875 37.46875 61 
Q 33.734375 64.59375 27.734375 64.59375 
Q 21.390625 64.59375 17.578125 60.78125 
Q 13.765625 56.984375 13.71875 50.25 
L 4.6875 51.171875 
Q 5.609375 61.28125 11.65625 66.578125 
Q 17.71875 71.875 27.9375 71.875 
Q 38.234375 71.875 44.234375 66.15625 
Q 50.25 60.453125 50.25 52 
Q 50.25 47.703125 48.484375 43.546875 
Q 46.734375 39.40625 42.65625 34.8125 
Q 38.578125 30.21875 29.109375 22.21875 
Q 21.1875 15.578125 18.9375 13.203125 
Q 16.703125 10.84375 15.234375 8.453125 
z
" id="ArialMT-50"/>
      </defs>
      <g style="fill:#262626;" transform="translate(174.185178 366.597813)scale(0.1 -0.1)">
       <use xlink:href="#ArialMT-48"/>
       <use x="55.615234" xlink:href="#ArialMT-49"/>
       <use x="111.230469" xlink:href="#ArialMT-45"/>
       <use x="144.53125" xlink:href="#ArialMT-48"/>
       <use x="200.146484" xlink:href="#ArialMT-49"/>
       <use x="255.761719" xlink:href="#ArialMT-32"/>
       <use x="283.544922" xlink:href="#ArialMT-49"/>
       <use x="339.160156" xlink:href="#ArialMT-50"/>
      </g>
     </g>
    </g>
    <g id="xtick_4">
     <g id="line2d_7">
      <path clip-path="url(#p6e5edfa2b1)" d="M 244.737391 352.44 
L 244.737391 47.52 
" style="fill:none;stroke:#ffffff;stroke-linecap:round;"/>
     </g>
     <g id="line2d_8"/>
     <g id="text_4">
      <!-- 01-01 18 -->
      <defs>
       <path d="M 17.671875 38.8125 
Q 12.203125 40.828125 9.5625 44.53125 
Q 6.9375 48.25 6.9375 53.421875 
Q 6.9375 61.234375 12.546875 66.546875 
Q 18.171875 71.875 27.484375 71.875 
Q 36.859375 71.875 42.578125 66.421875 
Q 48.296875 60.984375 48.296875 53.171875 
Q 48.296875 48.1875 45.671875 44.5 
Q 43.0625 40.828125 37.75 38.8125 
Q 44.34375 36.671875 47.78125 31.875 
Q 51.21875 27.09375 51.21875 20.453125 
Q 51.21875 11.28125 44.71875 5.03125 
Q 38.234375 -1.21875 27.640625 -1.21875 
Q 17.046875 -1.21875 10.546875 5.046875 
Q 4.046875 11.328125 4.046875 20.703125 
Q 4.046875 27.6875 7.59375 32.390625 
Q 11.140625 37.109375 17.671875 38.8125 
z
M 15.921875 53.71875 
Q 15.921875 48.640625 19.1875 45.40625 
Q 22.46875 42.1875 27.6875 42.1875 
Q 32.765625 42.1875 36.015625 45.375 
Q 39.265625 48.578125 39.265625 53.21875 
Q 39.265625 58.0625 35.90625 61.359375 
Q 32.5625 64.65625 27.59375 64.65625 
Q 22.5625 64.65625 19.234375 61.421875 
Q 15.921875 58.203125 15.921875 53.71875 
z
M 13.09375 20.65625 
Q 13.09375 16.890625 14.875 13.375 
Q 16.65625 9.859375 20.171875 7.921875 
Q 23.6875 6 27.734375 6 
Q 34.03125 6 38.125 10.046875 
Q 42.234375 14.109375 42.234375 20.359375 
Q 42.234375 26.703125 38.015625 30.859375 
Q 33.796875 35.015625 27.4375 35.015625 
Q 21.234375 35.015625 17.15625 30.90625 
Q 13.09375 26.8125 13.09375 20.65625 
z
" id="ArialMT-56"/>
      </defs>
      <g style="fill:#262626;" transform="translate(225.000673 366.597813)scale(0.1 -0.1)">
       <use xlink:href="#ArialMT-48"/>
       <use x="55.615234" xlink:href="#ArialMT-49"/>
       <use x="111.230469" xlink:href="#ArialMT-45"/>
       <use x="144.53125" xlink:href="#ArialMT-48"/>
       <use x="200.146484" xlink:href="#ArialMT-49"/>
       <use x="255.761719" xlink:href="#ArialMT-32"/>
       <use x="283.544922" xlink:href="#ArialMT-49"/>
       <use x="339.160156" xlink:href="#ArialMT-56"/>
      </g>
     </g>
    </g>
    <g id="xtick_5">
     <g id="line2d_9">
      <path clip-path="url(#p6e5edfa2b1)" d="M 295.552885 352.44 
L 295.552885 47.52 
" style="fill:none;stroke:#ffffff;stroke-linecap:round;"/>
     </g>
     <g id="line2d_10"/>
     <g id="text_5">
      <!-- 01-02 00 -->
      <g style="fill:#262626;" transform="translate(275.816167 366.597813)scale(0.1 -0.1)">
       <use xlink:href="#ArialMT-48"/>
       <use x="55.615234" xlink:href="#ArialMT-49"/>
       <use x="111.230469" xlink:href="#ArialMT-45"/>
       <use x="144.53125" xlink:href="#ArialMT-48"/>
       <use x="200.146484" xlink:href="#ArialMT-50"/>
       <use x="255.761719" xlink:href="#ArialMT-32"/>
       <use x="283.544922" xlink:href="#ArialMT-48"/>
       <use x="339.160156" xlink:href="#ArialMT-48"/>
      </g>
     </g>
    </g>
    <g id="xtick_6">
     <g id="line2d_11">
      <path clip-path="url(#p6e5edfa2b1)" d="M 346.368379 352.44 
L 346.368379 47.52 
" style="fill:none;stroke:#ffffff;stroke-linecap:round;"/>
     </g>
     <g id="line2d_12"/>
     <g id="text_6">
      <!-- 01-02 06 -->
      <g style="fill:#262626;" transform="translate(326.631661 366.597813)scale(0.1 -0.1)">
       <use xlink:href="#ArialMT-48"/>
       <use x="55.615234" xlink:href="#ArialMT-49"/>
       <use x="111.230469" xlink:href="#ArialMT-45"/>
       <use x="144.53125" xlink:href="#ArialMT-48"/>
       <use x="200.146484" xlink:href="#ArialMT-50"/>
       <use x="255.761719" xlink:href="#ArialMT-32"/>
       <use x="283.544922" xlink:href="#ArialMT-48"/>
       <use x="339.160156" xlink:href="#ArialMT-54"/>
      </g>
     </g>
    </g>
    <g id="xtick_7">
     <g id="line2d_13">
      <path clip-path="url(#p6e5edfa2b1)" d="M 397.183874 352.44 
L 397.183874 47.52 
" style="fill:none;stroke:#ffffff;stroke-linecap:round;"/>
     </g>
     <g id="line2d_14"/>
     <g id="text_7">
      <!-- 01-02 12 -->
      <g style="fill:#262626;" transform="translate(377.447155 366.597813)scale(0.1 -0.1)">
       <use xlink:href="#ArialMT-48"/>
       <use x="55.615234" xlink:href="#ArialMT-49"/>
       <use x="111.230469" xlink:href="#ArialMT-45"/>
       <use x="144.53125" xlink:href="#ArialMT-48"/>
       <use x="200.146484" xlink:href="#ArialMT-50"/>
       <use x="255.761719" xlink:href="#ArialMT-32"/>
       <use x="283.544922" xlink:href="#ArialMT-49"/>
       <use x="339.160156" xlink:href="#ArialMT-50"/>
      </g>
     </g>
    </g>
    <g id="xtick_8">
     <g id="line2d_15">
      <path clip-path="url(#p6e5edfa2b1)" d="M 447.999368 352.44 
L 447.999368 47.52 
" style="fill:none;stroke:#ffffff;stroke-linecap:round;"/>
     </g>
     <g id="line2d_16"/>
     <g id="text_8">
      <!-- 01-02 18 -->
      <g style="fill:#262626;" transform="translate(428.262649 366.597813)scale(0.1 -0.1)">
       <use xlink:href="#ArialMT-48"/>
       <use x="55.615234" xlink:href="#ArialMT-49"/>
       <use x="111.230469" xlink:href="#ArialMT-45"/>
       <use x="144.53125" xlink:href="#ArialMT-48"/>
       <use x="200.146484" xlink:href="#ArialMT-50"/>
       <use x="255.761719" xlink:href="#ArialMT-32"/>
       <use x="283.544922" xlink:href="#ArialMT-49"/>
       <use x="339.160156" xlink:href="#ArialMT-56"/>
      </g>
     </g>
    </g>
    <g id="xtick_9">
     <g id="line2d_17">
      <path clip-path="url(#p6e5edfa2b1)" d="M 498.814862 352.44 
L 498.814862 47.52 
" style="fill:none;stroke:#ffffff;stroke-linecap:round;"/>
     </g>
     <g id="line2d_18"/>
     <g id="text_9">
      <!-- 01-03 00 -->
      <defs>
       <path d="M 4.203125 18.890625 
L 12.984375 20.0625 
Q 14.5 12.59375 18.140625 9.296875 
Q 21.78125 6 27 6 
Q 33.203125 6 37.46875 10.296875 
Q 41.75 14.59375 41.75 20.953125 
Q 41.75 27 37.796875 30.921875 
Q 33.84375 34.859375 27.734375 34.859375 
Q 25.25 34.859375 21.53125 33.890625 
L 22.515625 41.609375 
Q 23.390625 41.5 23.921875 41.5 
Q 29.546875 41.5 34.03125 44.421875 
Q 38.53125 47.359375 38.53125 53.46875 
Q 38.53125 58.296875 35.25 61.46875 
Q 31.984375 64.65625 26.8125 64.65625 
Q 21.6875 64.65625 18.265625 61.421875 
Q 14.84375 58.203125 13.875 51.765625 
L 5.078125 53.328125 
Q 6.6875 62.15625 12.390625 67.015625 
Q 18.109375 71.875 26.609375 71.875 
Q 32.46875 71.875 37.390625 69.359375 
Q 42.328125 66.84375 44.9375 62.5 
Q 47.5625 58.15625 47.5625 53.265625 
Q 47.5625 48.640625 45.0625 44.828125 
Q 42.578125 41.015625 37.703125 38.765625 
Q 44.046875 37.3125 47.5625 32.6875 
Q 51.078125 28.078125 51.078125 21.140625 
Q 51.078125 11.765625 44.234375 5.25 
Q 37.40625 -1.265625 26.953125 -1.265625 
Q 17.53125 -1.265625 11.296875 4.34375 
Q 5.078125 9.96875 4.203125 18.890625 
z
" id="ArialMT-51"/>
      </defs>
      <g style="fill:#262626;" transform="translate(479.078143 366.597813)scale(0.1 -0.1)">
       <use xlink:href="#ArialMT-48"/>
       <use x="55.615234" xlink:href="#ArialMT-49"/>
       <use x="111.230469" xlink:href="#ArialMT-45"/>
       <use x="144.53125" xlink:href="#ArialMT-48"/>
       <use x="200.146484" xlink:href="#ArialMT-51"/>
       <use x="255.761719" xlink:href="#ArialMT-32"/>
       <use x="283.544922" xlink:href="#ArialMT-48"/>
       <use x="339.160156" xlink:href="#ArialMT-48"/>
      </g>
     </g>
    </g>
   </g>
   <g id="matplotlib.axis_2">
    <g id="ytick_1">
     <g id="line2d_19">
      <path clip-path="url(#p6e5edfa2b1)" d="M 72 346.264004 
L 518.4 346.264004 
" style="fill:none;stroke:#ffffff;stroke-linecap:round;"/>
     </g>
     <g id="line2d_20"/>
     <g id="text_10">
      <!-- 0 -->
      <g style="fill:#262626;" transform="translate(59.439062 349.842911)scale(0.1 -0.1)">
       <use xlink:href="#ArialMT-48"/>
      </g>
     </g>
    </g>
    <g id="ytick_2">
     <g id="line2d_21">
      <path clip-path="url(#p6e5edfa2b1)" d="M 72 308.197634 
L 518.4 308.197634 
" style="fill:none;stroke:#ffffff;stroke-linecap:round;"/>
     </g>
     <g id="line2d_22"/>
     <g id="text_11">
      <!-- 50 -->
      <defs>
       <path d="M 4.15625 18.75 
L 13.375 19.53125 
Q 14.40625 12.796875 18.140625 9.390625 
Q 21.875 6 27.15625 6 
Q 33.5 6 37.890625 10.78125 
Q 42.28125 15.578125 42.28125 23.484375 
Q 42.28125 31 38.0625 35.34375 
Q 33.84375 39.703125 27 39.703125 
Q 22.75 39.703125 19.328125 37.765625 
Q 15.921875 35.84375 13.96875 32.765625 
L 5.71875 33.84375 
L 12.640625 70.609375 
L 48.25 70.609375 
L 48.25 62.203125 
L 19.671875 62.203125 
L 15.828125 42.96875 
Q 22.265625 47.46875 29.34375 47.46875 
Q 38.71875 47.46875 45.15625 40.96875 
Q 51.609375 34.46875 51.609375 24.265625 
Q 51.609375 14.546875 45.953125 7.46875 
Q 39.0625 -1.21875 27.15625 -1.21875 
Q 17.390625 -1.21875 11.203125 4.25 
Q 5.03125 9.71875 4.15625 18.75 
z
" id="ArialMT-53"/>
      </defs>
      <g style="fill:#262626;" transform="translate(53.878125 311.77654)scale(0.1 -0.1)">
       <use xlink:href="#ArialMT-53"/>
       <use x="55.615234" xlink:href="#ArialMT-48"/>
      </g>
     </g>
    </g>
    <g id="ytick_3">
     <g id="line2d_23">
      <path clip-path="url(#p6e5edfa2b1)" d="M 72 270.131264 
L 518.4 270.131264 
" style="fill:none;stroke:#ffffff;stroke-linecap:round;"/>
     </g>
     <g id="line2d_24"/>
     <g id="text_12">
      <!-- 100 -->
      <g style="fill:#262626;" transform="translate(48.317188 273.71017)scale(0.1 -0.1)">
       <use xlink:href="#ArialMT-49"/>
       <use x="55.615234" xlink:href="#ArialMT-48"/>
       <use x="111.230469" xlink:href="#ArialMT-48"/>
      </g>
     </g>
    </g>
    <g id="ytick_4">
     <g id="line2d_25">
      <path clip-path="url(#p6e5edfa2b1)" d="M 72 232.064894 
L 518.4 232.064894 
" style="fill:none;stroke:#ffffff;stroke-linecap:round;"/>
     </g>
     <g id="line2d_26"/>
     <g id="text_13">
      <!-- 150 -->
      <g style="fill:#262626;" transform="translate(48.317188 235.6438)scale(0.1 -0.1)">
       <use xlink:href="#ArialMT-49"/>
       <use x="55.615234" xlink:href="#ArialMT-53"/>
       <use x="111.230469" xlink:href="#ArialMT-48"/>
      </g>
     </g>
    </g>
    <g id="ytick_5">
     <g id="line2d_27">
      <path clip-path="url(#p6e5edfa2b1)" d="M 72 193.998524 
L 518.4 193.998524 
" style="fill:none;stroke:#ffffff;stroke-linecap:round;"/>
     </g>
     <g id="line2d_28"/>
     <g id="text_14">
      <!-- 200 -->
      <g style="fill:#262626;" transform="translate(48.317188 197.57743)scale(0.1 -0.1)">
       <use xlink:href="#ArialMT-50"/>
       <use x="55.615234" xlink:href="#ArialMT-48"/>
       <use x="111.230469" xlink:href="#ArialMT-48"/>
      </g>
     </g>
    </g>
    <g id="ytick_6">
     <g id="line2d_29">
      <path clip-path="url(#p6e5edfa2b1)" d="M 72 155.932154 
L 518.4 155.932154 
" style="fill:none;stroke:#ffffff;stroke-linecap:round;"/>
     </g>
     <g id="line2d_30"/>
     <g id="text_15">
      <!-- 250 -->
      <g style="fill:#262626;" transform="translate(48.317188 159.51106)scale(0.1 -0.1)">
       <use xlink:href="#ArialMT-50"/>
       <use x="55.615234" xlink:href="#ArialMT-53"/>
       <use x="111.230469" xlink:href="#ArialMT-48"/>
      </g>
     </g>
    </g>
    <g id="ytick_7">
     <g id="line2d_31">
      <path clip-path="url(#p6e5edfa2b1)" d="M 72 117.865783 
L 518.4 117.865783 
" style="fill:none;stroke:#ffffff;stroke-linecap:round;"/>
     </g>
     <g id="line2d_32"/>
     <g id="text_16">
      <!-- 300 -->
      <g style="fill:#262626;" transform="translate(48.317188 121.44469)scale(0.1 -0.1)">
       <use xlink:href="#ArialMT-51"/>
       <use x="55.615234" xlink:href="#ArialMT-48"/>
       <use x="111.230469" xlink:href="#ArialMT-48"/>
      </g>
     </g>
    </g>
    <g id="ytick_8">
     <g id="line2d_33">
      <path clip-path="url(#p6e5edfa2b1)" d="M 72 79.799413 
L 518.4 79.799413 
" style="fill:none;stroke:#ffffff;stroke-linecap:round;"/>
     </g>
     <g id="line2d_34"/>
     <g id="text_17">
      <!-- 350 -->
      <g style="fill:#262626;" transform="translate(48.317188 83.37832)scale(0.1 -0.1)">
       <use xlink:href="#ArialMT-51"/>
       <use x="55.615234" xlink:href="#ArialMT-53"/>
       <use x="111.230469" xlink:href="#ArialMT-48"/>
      </g>
     </g>
    </g>
   </g>
   <g id="line2d_35">
    <path clip-path="url(#p6e5edfa2b1)" d="M 92.290909 242.538457 
L 93.702451 242.42924 
L 94.408221 245.538865 
L 95.819763 245.459543 
L 96.525534 247.579392 
L 97.937075 247.52549 
L 98.642846 254.769474 
L 100.054387 254.732708 
L 100.760158 256.61172 
L 102.1717 256.586885 
L 102.87747 259.444435 
L 104.289012 259.426666 
L 104.994783 262.587407 
L 106.406324 262.573541 
L 107.112095 265.252712 
L 108.523636 265.241287 
L 109.229407 265.622362 
L 110.640949 265.614097 
L 111.346719 267.167338 
L 112.758261 267.160121 
L 113.464032 271.021564 
L 114.875573 271.013129 
L 115.581344 273.360727 
L 116.992885 273.352593 
L 117.698656 273.219881 
L 119.110198 273.213862 
L 119.815968 273.42533 
L 121.22751 273.420944 
L 121.933281 272.380708 
L 123.344822 272.378483 
L 124.050593 299.56586 
L 125.462134 299.547721 
L 126.167905 295.330997 
L 127.579447 295.316958 
L 128.285217 292.037178 
L 129.696759 292.027354 
L 130.40253 288.97226 
L 131.814071 288.967038 
L 132.519842 281.102413 
L 133.931383 281.107457 
L 134.637154 279.210238 
L 136.048696 279.217949 
L 136.754466 276.453221 
L 138.166008 276.462979 
L 138.871779 274.263271 
L 140.28332 274.274029 
L 140.989091 264.199342 
L 142.400632 264.222688 
L 143.106403 254.481784 
L 144.517945 254.514077 
L 145.223715 243.448482 
L 146.635257 243.487683 
L 147.341028 231.440611 
L 148.752569 231.483826 
L 149.45834 221.352754 
L 150.869881 221.393672 
L 151.575652 211.036154 
L 152.987194 211.072185 
L 153.692964 211.339967 
L 155.104506 211.359093 
L 155.810277 201.861054 
L 157.221818 201.88075 
L 157.927589 194.305267 
L 159.33913 194.322535 
L 160.044901 181.301005 
L 161.456443 181.323042 
L 162.162213 192.540245 
L 163.573755 192.540677 
L 164.279526 191.728381 
L 165.691067 191.728301 
L 166.396838 189.4251 
L 167.808379 189.427229 
L 168.51415 186.843971 
L 169.925692 186.847207 
L 170.631462 189.120291 
L 172.043004 189.119899 
L 172.748775 192.828036 
L 174.160316 192.824805 
L 174.866087 191.162363 
L 176.277628 191.161775 
L 176.983399 190.913028 
L 178.394941 190.912904 
L 179.100711 194.162131 
L 180.512253 194.15954 
L 181.218024 194.795883 
L 182.629565 194.793962 
L 183.335336 196.336977 
L 184.746877 196.33497 
L 185.452648 197.208711 
L 186.86419 197.206768 
L 187.56996 201.851576 
L 188.981502 201.84661 
L 189.687273 201.661755 
L 191.098814 201.658929 
L 191.804585 201.021617 
L 193.216126 201.020781 
L 193.921897 202.533816 
L 195.333439 202.532091 
L 196.039209 205.764213 
L 197.450751 205.760312 
L 198.156522 205.183367 
L 199.568063 205.181597 
L 200.273834 208.898046 
L 201.685375 208.894042 
L 202.391146 209.38316 
L 203.802688 209.380318 
L 204.508458 210.767866 
L 205.92 210.765247 
L 206.625771 211.390551 
L 208.037312 211.388615 
L 208.743083 213.621406 
L 210.154624 213.618298 
L 210.860395 213.214745 
L 212.271937 213.213254 
L 212.977708 214.064939 
L 214.389249 214.063532 
L 215.09502 213.728674 
L 216.506561 213.728178 
L 217.212332 211.622002 
L 218.623874 211.62395 
L 219.329644 211.431422 
L 220.741186 211.432639 
L 221.446957 213.15467 
L 222.858498 213.153735 
L 223.564269 212.817128 
L 224.97581 212.816829 
L 225.681581 212.083247 
L 227.093123 212.083784 
L 227.798893 212.353507 
L 229.210435 212.353616 
L 229.916206 213.163716 
L 231.327747 213.16285 
L 232.033518 212.293623 
L 233.445059 212.294089 
L 234.15083 212.580611 
L 235.562372 212.580526 
L 236.268142 211.536198 
L 237.679684 211.536953 
L 238.385455 212.398055 
L 239.796996 212.397815 
L 240.502767 211.852821 
L 241.914308 211.853011 
L 242.620079 212.736777 
L 244.031621 212.736035 
L 244.737391 212.548534 
L 246.148933 212.548264 
L 246.854704 211.849612 
L 248.266245 211.850179 
L 248.972016 210.52163 
L 252.50087 210.501055 
L 253.20664 210.227081 
L 254.618182 210.227853 
L 255.323953 211.034985 
L 256.735494 211.034759 
L 257.441265 210.675842 
L 260.970119 210.611388 
L 261.675889 211.10493 
L 263.087431 211.104598 
L 263.793202 211.461638 
L 265.204743 211.461051 
L 265.910514 211.800037 
L 267.322055 211.799298 
L 268.027826 212.263565 
L 269.439368 212.262808 
L 270.145138 211.675377 
L 271.55668 211.675523 
L 272.262451 214.131705 
L 273.673992 214.129686 
L 274.379763 214.663316 
L 275.791304 214.66156 
L 276.497075 219.421804 
L 277.908617 219.416581 
L 278.614387 220.762293 
L 280.025929 220.757774 
L 280.7317 226.405956 
L 282.143241 226.398299 
L 282.849012 228.936281 
L 284.260553 228.929217 
L 284.966324 243.019645 
L 286.377866 243.004017 
L 287.083636 248.465404 
L 288.495178 248.450649 
L 289.200949 258.738491 
L 290.61249 258.720892 
L 291.318261 261.813317 
L 292.729802 261.798426 
L 293.435573 270.893629 
L 295.552885 270.791509 
L 296.258656 270.268605 
L 296.964427 269.411928 
L 297.670198 268.912627 
L 298.375968 267.437855 
L 299.081739 265.685921 
L 299.78751 261.255572 
L 301.199051 256.420848 
L 301.904822 256.831882 
L 303.316364 251.894927 
L 304.022134 250.672839 
L 305.433676 246.377304 
L 306.139447 247.289607 
L 307.550988 244.244753 
L 308.256759 242.068847 
L 309.6683 240.053206 
L 310.374071 244.382855 
L 311.785613 243.29211 
L 312.491383 241.4736 
L 313.902925 240.849845 
L 314.608696 240.163544 
L 316.020237 239.832779 
L 316.726008 240.448965 
L 318.137549 240.282395 
L 318.84332 246.567301 
L 320.254862 246.478985 
L 320.960632 244.669257 
L 322.372174 244.619697 
L 323.077945 243.079816 
L 324.489486 243.052809 
L 325.195257 239.660452 
L 326.606798 239.64956 
L 327.312569 280.978927 
L 328.724111 280.942357 
L 329.429881 273.127781 
L 330.841423 273.102444 
L 331.547194 265.840874 
L 332.958735 265.829398 
L 333.664506 258.798253 
L 335.076047 258.800793 
L 335.781818 244.890878 
L 337.19336 244.917827 
L 337.89913 240.228373 
L 339.310672 240.257083 
L 340.016443 234.372777 
L 341.427984 234.400834 
L 342.133755 229.27021 
L 343.545296 229.296228 
L 344.251067 211.763871 
L 345.662609 211.811583 
L 346.368379 194.120546 
L 347.779921 194.179332 
L 348.485692 174.212816 
L 349.897233 174.27623 
L 350.603004 153.180003 
L 352.014545 153.24184 
L 352.720316 134.737711 
L 354.131858 134.790714 
L 354.837628 116.262676 
L 356.24917 116.306246 
L 356.954941 114.651219 
L 358.366482 114.669059 
L 359.072253 96.770104 
L 360.483794 96.795969 
L 361.189565 82.088252 
L 362.601107 82.11226 
L 363.306877 61.38 
L 364.718419 61.409711 
L 365.42419 77.716876 
L 366.835731 77.709839 
L 367.541502 73.131184 
L 368.953043 73.132646 
L 369.658814 67.209821 
L 371.070356 67.216743 
L 371.776126 62.561343 
L 373.187668 62.567698 
L 373.893439 63.061578 
L 375.30498 63.062849 
L 376.010751 67.84513 
L 377.422292 67.841453 
L 378.128063 63.057404 
L 379.539605 63.060337 
L 380.245375 61.441379 
L 381.656917 61.443832 
L 382.362688 65.084879 
L 385.891542 65.068532 
L 386.597312 65.451998 
L 390.126166 65.410825 
L 390.831937 71.378593 
L 392.243478 71.372944 
L 392.949249 67.09801 
L 394.360791 67.099929 
L 395.066561 65.596677 
L 396.478103 65.598878 
L 397.183874 67.147633 
L 398.595415 67.146653 
L 399.301186 70.648924 
L 400.712727 70.645072 
L 401.418498 69.292962 
L 402.83004 69.29302 
L 403.53581 74.014711 
L 404.947352 74.010431 
L 405.653123 73.426993 
L 407.064664 73.426072 
L 407.770435 74.628968 
L 409.181976 74.627796 
L 409.887747 75.100389 
L 411.299289 75.099547 
L 412.005059 78.357145 
L 413.416601 78.353629 
L 414.122372 77.378566 
L 415.533913 77.378367 
L 416.239684 77.869361 
L 417.651225 77.86907 
L 418.356996 76.627026 
L 419.768538 76.628109 
L 420.474308 72.081212 
L 421.88585 72.086343 
L 422.591621 72.469876 
L 424.003162 72.470883 
L 424.708933 74.799794 
L 426.120474 74.797727 
L 426.826245 72.871355 
L 428.237787 72.872577 
L 428.943557 72.450789 
L 430.355099 72.451683 
L 431.06087 72.830074 
L 432.472411 72.829978 
L 433.178182 73.126337 
L 434.589723 73.125759 
L 435.295494 71.806664 
L 436.707036 71.808128 
L 437.412806 70.642822 
L 438.824348 70.644022 
L 439.530119 69.245554 
L 440.94166 69.24717 
L 441.647431 71.41816 
L 443.058972 71.4167 
L 443.764743 70.428228 
L 445.176285 70.428515 
L 445.882055 71.301089 
L 447.293597 71.30026 
L 447.999368 70.16138 
L 449.410909 70.162193 
L 450.11668 68.607109 
L 451.528221 68.608977 
L 452.233992 66.252967 
L 455.762846 66.269739 
L 456.468617 67.039072 
L 457.880158 67.038593 
L 458.585929 67.979611 
L 459.99747 67.97868 
L 460.703241 67.546127 
L 462.114783 67.546192 
L 462.820553 67.991193 
L 464.232095 67.990982 
L 464.937866 68.716041 
L 466.349407 68.715222 
L 467.055178 69.253919 
L 468.466719 69.25303 
L 469.17249 70.228699 
L 470.584032 70.227402 
L 471.289802 71.018266 
L 472.701344 71.017272 
L 473.407115 70.079276 
L 474.818656 70.079904 
L 475.524427 74.865768 
L 476.935968 74.861604 
L 477.641739 76.211991 
L 479.053281 76.209222 
L 479.759051 85.739871 
L 481.170593 85.729877 
L 481.876364 89.039401 
L 483.287905 89.032669 
L 483.993676 98.824339 
L 485.405217 98.812182 
L 486.110988 104.260099 
L 487.52253 104.250109 
L 488.2283 131.272664 
L 489.639842 131.243311 
L 490.345613 142.313296 
L 491.757154 142.290458 
L 492.462925 160.959152 
L 493.874466 160.93081 
L 494.580237 166.97286 
L 495.991779 166.953545 
L 496.697549 182.515648 
L 498.109091 182.49102 
L 498.109091 182.49102 
" style="fill:none;stroke:#4c72b0;stroke-linecap:round;stroke-width:1.75;"/>
   </g>
   <g id="line2d_36">
    <path clip-path="url(#p6e5edfa2b1)" d="M 92.290909 261.774775 
L 93.702451 261.692513 
L 94.408221 262.841202 
L 95.819763 262.780184 
L 96.525534 264.791245 
L 97.937075 264.750362 
L 98.642846 270.445817 
L 100.054387 270.418362 
L 100.760158 271.921222 
L 102.1717 271.903031 
L 102.87747 274.02352 
L 104.289012 274.010797 
L 104.994783 276.521696 
L 106.406324 276.511846 
L 107.112095 278.555351 
L 110.640949 278.643012 
L 111.346719 279.017036 
L 112.758261 279.01269 
L 113.464032 281.92774 
L 114.875573 281.922208 
L 115.581344 284.259116 
L 116.992885 284.25323 
L 117.698656 283.999125 
L 119.110198 283.994933 
L 119.815968 284.464779 
L 121.22751 284.461519 
L 121.933281 283.256097 
L 123.344822 283.254859 
L 124.050593 307.249864 
L 125.462134 307.235375 
L 126.167905 304.153576 
L 127.579447 304.142026 
L 128.285217 301.064002 
L 129.696759 301.056132 
L 130.40253 298.314949 
L 131.814071 298.31097 
L 132.519842 292.235356 
L 133.931383 292.23889 
L 134.637154 290.963757 
L 136.048696 290.969182 
L 136.754466 288.006361 
L 138.166008 288.014452 
L 138.871779 286.500404 
L 140.28332 286.508667 
L 140.989091 279.86314 
L 142.400632 279.878238 
L 143.106403 272.619673 
L 144.517945 272.641056 
L 145.223715 263.849779 
L 146.635257 263.876943 
L 147.341028 254.283137 
L 148.752569 254.313739 
L 149.45834 247.421278 
L 150.869881 247.448815 
L 151.575652 238.998241 
L 152.987194 239.023531 
L 153.692964 239.979721 
L 155.104506 239.992317 
L 155.810277 232.879979 
L 157.221818 232.893221 
L 157.927589 225.485129 
L 159.33913 225.498433 
L 160.044901 215.411919 
L 161.456443 215.428064 
L 162.162213 224.306598 
L 163.573755 224.306814 
L 164.279526 223.61944 
L 165.691067 223.619287 
L 166.396838 222.669944 
L 167.808379 222.670846 
L 168.51415 220.058525 
L 169.925692 220.061048 
L 170.631462 221.609422 
L 172.043004 221.609344 
L 172.748775 225.391362 
L 174.160316 225.388506 
L 174.866087 223.607581 
L 176.277628 223.607273 
L 176.983399 222.957242 
L 178.394941 222.95751 
L 179.100711 226.148955 
L 180.512253 226.146781 
L 181.218024 226.928541 
L 182.629565 226.926844 
L 183.335336 229.019668 
L 184.746877 229.017519 
L 185.452648 229.421747 
L 186.86419 229.420268 
L 187.56996 233.176733 
L 188.981502 233.17303 
L 189.687273 232.556148 
L 191.098814 232.554363 
L 191.804585 232.064342 
L 193.216126 232.063847 
L 193.921897 233.039477 
L 195.333439 233.038418 
L 196.039209 235.205914 
L 197.450751 235.20339 
L 198.156522 234.649903 
L 199.568063 234.648808 
L 200.273834 237.902382 
L 201.685375 237.899328 
L 202.391146 238.049682 
L 203.802688 238.047715 
L 204.508458 239.501438 
L 205.92 239.499332 
L 206.625771 240.154194 
L 208.037312 240.152596 
L 208.743083 241.701938 
L 210.154624 241.699747 
L 210.860395 241.25175 
L 212.271937 241.250789 
L 212.977708 242.214778 
L 214.389249 242.213606 
L 215.09502 241.876475 
L 216.506561 241.876111 
L 217.212332 240.745371 
L 218.623874 240.746403 
L 219.329644 240.097712 
L 220.741186 240.098815 
L 221.446957 241.350741 
L 222.858498 241.350215 
L 223.564269 241.20485 
L 224.97581 241.204602 
L 225.681581 240.691669 
L 227.093123 240.692003 
L 227.798893 240.920562 
L 229.210435 240.92061 
L 229.916206 241.091087 
L 231.327747 241.090772 
L 232.033518 240.93696 
L 233.445059 240.937044 
L 234.15083 240.809911 
L 235.562372 240.810003 
L 236.268142 239.58584 
L 237.679684 239.586748 
L 238.385455 240.457086 
L 239.796996 240.456919 
L 240.502767 239.703309 
L 241.914308 239.703684 
L 242.620079 240.245765 
L 246.148933 240.14996 
L 246.854704 239.74734 
L 248.266245 239.747668 
L 248.972016 238.454453 
L 252.50087 238.490154 
L 253.20664 238.306595 
L 254.618182 238.307141 
L 255.323953 239.20331 
L 256.735494 239.202944 
L 257.441265 238.880272 
L 260.970119 238.894523 
L 261.675889 239.35916 
L 263.087431 239.358833 
L 263.793202 239.521299 
L 267.322055 239.569001 
L 268.027826 240.153961 
L 269.439368 240.153325 
L 270.145138 239.787339 
L 271.55668 239.787342 
L 272.262451 241.919002 
L 273.673992 241.917349 
L 274.379763 242.305899 
L 275.791304 242.30456 
L 276.497075 246.040222 
L 277.908617 246.036398 
L 278.614387 246.833792 
L 280.025929 246.830661 
L 280.7317 250.927391 
L 282.143241 250.922106 
L 282.849012 252.659149 
L 284.260553 252.654298 
L 284.966324 263.41654 
L 286.377866 263.405415 
L 287.083636 268.035841 
L 288.495178 268.024966 
L 289.200949 275.47803 
L 290.61249 275.465434 
L 291.318261 277.742508 
L 292.729802 277.731826 
L 293.435573 284.8143 
L 295.552885 284.818194 
L 296.258656 284.366004 
L 296.964427 283.626463 
L 297.670198 282.657968 
L 298.375968 281.376151 
L 299.081739 279.856598 
L 299.78751 275.765408 
L 301.199051 271.569084 
L 301.904822 271.749141 
L 303.316364 267.507959 
L 304.022134 266.009482 
L 305.433676 262.360109 
L 306.139447 262.87141 
L 307.550988 260.34926 
L 308.256759 258.567529 
L 309.6683 256.970417 
L 310.374071 260.330292 
L 311.785613 259.504838 
L 312.491383 257.640119 
L 313.902925 257.194335 
L 314.608696 255.729361 
L 316.020237 255.505292 
L 316.726008 254.720344 
L 318.137549 254.613657 
L 318.84332 260.348931 
L 320.254862 260.298116 
L 320.960632 258.801623 
L 322.372174 258.777271 
L 323.077945 257.946015 
L 324.489486 257.935604 
L 325.195257 254.632009 
L 326.606798 254.631333 
L 327.312569 291.197482 
L 328.724111 291.170101 
L 329.429881 285.323549 
L 330.841423 285.304612 
L 331.547194 278.770325 
L 332.958735 278.762736 
L 333.664506 272.702701 
L 335.076047 272.706313 
L 335.781818 261.86076 
L 337.19336 261.882093 
L 337.89913 258.463856 
L 339.310672 258.485557 
L 340.016443 252.564177 
L 341.427984 252.587137 
L 342.133755 248.900109 
L 343.545296 248.919678 
L 344.251067 237.049023 
L 345.662609 237.080127 
L 346.368379 223.775761 
L 347.779921 223.815221 
L 348.485692 207.878786 
L 349.897233 207.923403 
L 350.603004 191.070749 
L 352.014545 191.11506 
L 352.720316 178.245496 
L 354.131858 178.281339 
L 354.837628 163.107336 
L 358.366482 163.116616 
L 359.072253 149.121424 
L 360.483794 149.139734 
L 361.189565 135.527389 
L 362.601107 135.546307 
L 363.306877 119.558698 
L 364.718419 119.580411 
L 365.42419 132.395874 
L 366.835731 132.390522 
L 367.541502 128.722515 
L 368.953043 128.723579 
L 369.658814 125.245361 
L 371.070356 125.249671 
L 371.776126 120.622709 
L 375.30498 120.70011 
L 376.010751 125.977151 
L 377.422292 125.973561 
L 378.128063 121.061715 
L 379.539605 121.064416 
L 380.245375 119.494519 
L 381.656917 119.496612 
L 382.362688 122.951608 
L 383.774229 122.949445 
L 384.48 123.780113 
L 385.891542 123.779154 
L 386.597312 125.106073 
L 388.008854 125.105255 
L 388.714624 124.925075 
L 390.126166 124.924982 
L 390.831937 129.656051 
L 392.243478 129.651872 
L 392.949249 125.289205 
L 394.360791 125.291244 
L 395.066561 124.113141 
L 396.478103 124.114884 
L 397.183874 124.890963 
L 398.595415 124.890527 
L 399.301186 127.229632 
L 400.712727 127.227108 
L 401.418498 126.130121 
L 402.83004 126.130267 
L 403.53581 130.222735 
L 404.947352 130.219383 
L 405.653123 129.578832 
L 407.064664 129.578243 
L 407.770435 131.050975 
L 409.181976 131.049811 
L 409.887747 131.389911 
L 411.299289 131.389255 
L 412.005059 133.679521 
L 413.416601 133.677103 
L 414.122372 132.928222 
L 415.533913 132.928116 
L 416.239684 133.767951 
L 417.651225 133.767463 
L 418.356996 132.679615 
L 419.768538 132.680424 
L 420.474308 129.788461 
L 421.88585 129.791783 
L 422.591621 129.392096 
L 424.003162 129.393165 
L 424.708933 131.116078 
L 426.120474 131.114682 
L 426.826245 129.743379 
L 428.237787 129.744218 
L 428.943557 129.516247 
L 430.355099 129.516824 
L 431.06087 129.82449 
L 432.472411 129.824392 
L 433.178182 129.428359 
L 436.707036 129.321025 
L 437.412806 127.315572 
L 438.824348 127.317027 
L 439.530119 125.916849 
L 440.94166 125.918339 
L 441.647431 127.973266 
L 443.058972 127.972029 
L 443.764743 126.797276 
L 445.176285 126.797705 
L 445.882055 127.195631 
L 447.293597 127.195248 
L 447.999368 126.25018 
L 449.410909 126.250861 
L 450.11668 125.217848 
L 451.528221 125.219116 
L 452.233992 122.965659 
L 453.645534 122.967878 
L 454.351304 123.106908 
L 455.762846 123.107499 
L 456.468617 123.813243 
L 457.880158 123.812809 
L 458.585929 124.929051 
L 459.99747 124.928116 
L 460.703241 124.445225 
L 462.114783 124.445315 
L 462.820553 125.242708 
L 464.232095 125.242284 
L 464.937866 125.686731 
L 466.349407 125.686153 
L 467.055178 125.818673 
L 468.466719 125.818209 
L 469.17249 126.352378 
L 470.584032 126.351613 
L 471.289802 127.404286 
L 472.701344 127.403331 
L 473.407115 126.719264 
L 474.818656 126.719652 
L 475.524427 131.019095 
L 476.935968 131.015688 
L 477.641739 131.915326 
L 479.053281 131.913335 
L 479.759051 139.350454 
L 481.170593 139.343164 
L 481.876364 141.695537 
L 483.287905 141.690796 
L 483.993676 148.1743 
L 485.405217 148.166179 
L 486.110988 151.756253 
L 487.52253 151.749595 
L 488.2283 172.816151 
L 489.639842 172.794759 
L 490.345613 182.235829 
L 491.757154 182.218687 
L 492.462925 195.586938 
L 493.874466 195.566805 
L 494.580237 200.337905 
L 495.991779 200.324022 
L 496.697549 212.765826 
L 498.109091 212.747685 
L 498.109091 212.747685 
" style="fill:none;stroke:#55a868;stroke-linecap:round;stroke-width:1.75;"/>
   </g>
   <g id="line2d_37">
    <path clip-path="url(#p6e5edfa2b1)" d="M 92.290909 327.027686 
L 93.702451 327.000732 
L 94.408221 328.961668 
L 95.819763 328.943363 
L 96.525534 329.052151 
L 97.937075 329.039133 
L 98.642846 330.58766 
L 100.054387 330.57835 
L 100.760158 330.954503 
L 102.1717 330.947858 
L 102.87747 331.684919 
L 104.289012 331.679874 
L 104.994783 332.329716 
L 106.406324 332.3257 
L 107.112095 332.961366 
L 108.523636 332.95799 
L 109.229407 333.237738 
L 110.640949 333.235089 
L 111.346719 334.414307 
L 112.758261 334.411435 
L 113.464032 335.357829 
L 116.992885 335.363368 
L 117.698656 335.48476 
L 119.110198 335.482934 
L 119.815968 335.224555 
L 121.22751 335.223429 
L 121.933281 335.388615 
L 123.344822 335.387628 
L 124.050593 338.58 
L 125.462134 338.57635 
L 126.167905 337.441425 
L 127.579447 337.438936 
L 128.285217 337.237181 
L 129.696759 337.235226 
L 130.40253 336.921315 
L 131.814071 336.920072 
L 132.519842 335.131061 
L 133.931383 335.132571 
L 134.637154 334.510485 
L 136.048696 334.512771 
L 136.754466 334.710865 
L 138.166008 334.712532 
L 138.871779 334.026872 
L 140.28332 334.029366 
L 140.989091 330.600207 
L 142.400632 330.608455 
L 143.106403 328.126115 
L 144.517945 328.137026 
L 145.223715 325.862708 
L 146.635257 325.874744 
L 147.341028 323.421478 
L 148.752569 323.434091 
L 149.45834 320.195481 
L 150.869881 320.208861 
L 151.575652 318.301917 
L 152.987194 318.312659 
L 153.692964 317.624251 
L 155.104506 317.63078 
L 155.810277 315.245079 
L 157.221818 315.251534 
L 157.927589 315.084143 
L 159.33913 315.088106 
L 160.044901 312.153091 
L 161.456443 312.158983 
L 162.162213 314.497652 
L 163.573755 314.497867 
L 164.279526 314.372946 
L 165.691067 314.373018 
L 166.396838 313.01916 
L 169.925692 313.050163 
L 170.631462 313.774873 
L 176.277628 313.818507 
L 176.983399 314.219791 
L 182.629565 314.131122 
L 183.335336 313.581314 
L 184.746877 313.581455 
L 185.452648 314.050968 
L 186.86419 314.050503 
L 187.56996 314.938848 
L 188.981502 314.937584 
L 189.687273 315.369611 
L 191.098814 315.368571 
L 191.804585 315.221279 
L 193.216126 315.220939 
L 193.921897 315.758343 
L 195.333439 315.757677 
L 196.039209 316.822303 
L 199.568063 316.796793 
L 200.273834 317.259668 
L 201.685375 317.258718 
L 202.391146 317.597482 
L 208.037312 317.500023 
L 208.743083 318.183472 
L 216.506561 318.116072 
L 217.212332 317.140635 
L 218.623874 317.141551 
L 219.329644 317.597714 
L 220.741186 317.597828 
L 221.446957 318.067934 
L 222.858498 318.067525 
L 223.564269 317.876282 
L 224.97581 317.876231 
L 225.681581 317.655582 
L 229.210435 317.697011 
L 229.916206 318.336634 
L 231.327747 318.336082 
L 232.033518 317.620667 
L 233.445059 317.62105 
L 234.15083 318.034704 
L 235.562372 318.034527 
L 236.268142 318.214363 
L 239.796996 318.2049 
L 240.502767 318.413516 
L 241.914308 318.413331 
L 242.620079 318.755016 
L 246.148933 318.662309 
L 246.854704 318.366276 
L 252.50087 318.274905 
L 253.912411 318.184615 
L 256.735494 318.09582 
L 260.970119 317.98087 
L 265.204743 318.204136 
L 265.910514 318.494677 
L 267.322055 318.494302 
L 268.027826 318.373608 
L 269.439368 318.373488 
L 270.145138 318.152043 
L 271.55668 318.152186 
L 272.262451 318.476707 
L 273.673992 318.476342 
L 274.379763 318.621421 
L 275.791304 318.621004 
L 276.497075 319.645586 
L 277.908617 319.644188 
L 278.614387 320.192506 
L 280.025929 320.191117 
L 280.7317 321.74257 
L 282.143241 321.740197 
L 282.849012 322.541137 
L 284.260553 322.538924 
L 284.966324 325.86711 
L 286.377866 325.862606 
L 287.083636 326.693568 
L 288.495178 326.689687 
L 289.200949 329.524465 
L 290.61249 329.519462 
L 291.318261 330.334813 
L 292.729802 330.330604 
L 293.435573 332.343333 
L 295.552885 332.237319 
L 296.964427 332.049469 
L 297.670198 332.518663 
L 299.081739 332.093327 
L 301.199051 331.115769 
L 301.904822 331.346744 
L 303.316364 330.650972 
L 304.022134 330.927361 
L 305.433676 330.281199 
L 306.139447 330.682201 
L 309.6683 329.346794 
L 310.374071 330.316567 
L 311.785613 330.051276 
L 312.491383 330.097485 
L 313.902925 329.919515 
L 314.608696 330.698187 
L 316.020237 330.591491 
L 316.726008 331.992625 
L 318.137549 331.932742 
L 318.84332 332.482375 
L 320.254862 332.444873 
L 320.960632 332.131638 
L 322.372174 332.106431 
L 323.077945 331.397805 
L 326.606798 331.282231 
L 327.312569 336.04545 
L 328.724111 336.03626 
L 329.429881 334.068237 
L 330.841423 334.061837 
L 331.547194 333.334553 
L 332.958735 333.330667 
L 333.664506 332.359557 
L 335.076047 332.358484 
L 335.781818 329.294122 
L 337.19336 329.299738 
L 337.89913 328.028521 
L 341.427984 328.077701 
L 342.133755 326.634105 
L 343.545296 326.640554 
L 344.251067 320.978852 
L 345.662609 320.99546 
L 346.368379 316.608789 
L 347.779921 316.628115 
L 348.485692 312.598034 
L 349.897233 312.616831 
L 350.603004 308.373259 
L 352.014545 308.390784 
L 352.720316 302.75622 
L 354.131858 302.773379 
L 354.837628 299.419344 
L 356.24917 299.43168 
L 356.954941 297.810122 
L 358.366482 297.816447 
L 359.072253 293.912684 
L 360.483794 293.920239 
L 361.189565 292.824867 
L 362.601107 292.829957 
L 363.306877 288.085306 
L 364.718419 288.093305 
L 365.42419 291.585006 
L 366.835731 291.583322 
L 367.541502 290.672673 
L 368.953043 290.673072 
L 369.658814 288.228465 
L 373.187668 288.203893 
L 373.893439 288.626652 
L 375.30498 288.626744 
L 376.010751 288.131983 
L 377.422292 288.131896 
L 378.128063 288.259693 
L 381.656917 288.211225 
L 382.362688 288.397275 
L 383.774229 288.396928 
L 384.48 287.552946 
L 385.891542 287.553382 
L 386.597312 286.60993 
L 388.008854 286.610636 
L 388.714624 286.749809 
L 390.126166 286.749848 
L 390.831937 287.986547 
L 394.360791 288.072689 
L 395.066561 287.74754 
L 396.478103 287.747998 
L 397.183874 288.520673 
L 398.595415 288.52013 
L 399.301186 289.683297 
L 400.712727 289.681969 
L 401.418498 289.426845 
L 402.83004 289.426757 
L 403.53581 290.05598 
L 407.064664 290.111834 
L 407.770435 289.841997 
L 409.181976 289.841989 
L 409.887747 289.974482 
L 411.299289 289.974296 
L 412.005059 290.941628 
L 413.416601 290.940531 
L 414.122372 290.714347 
L 415.533913 290.714255 
L 416.239684 290.365414 
L 417.651225 290.365611 
L 418.356996 290.211416 
L 419.768538 290.211689 
L 420.474308 288.556756 
L 421.88585 288.558565 
L 422.591621 289.341784 
L 424.003162 289.341722 
L 424.708933 289.94772 
L 426.120474 289.947049 
L 426.826245 289.39198 
L 428.237787 289.392363 
L 428.943557 289.198547 
L 432.472411 289.269591 
L 433.178182 289.961982 
L 434.589723 289.961443 
L 435.295494 288.750213 
L 436.707036 288.751107 
L 437.412806 289.591255 
L 440.94166 289.592835 
L 441.647431 289.708899 
L 443.058972 289.708675 
L 443.764743 289.894957 
L 445.176285 289.894814 
L 445.882055 290.369462 
L 447.293597 290.369016 
L 447.999368 290.175204 
L 449.410909 290.175336 
L 450.11668 289.653265 
L 453.645534 289.551807 
L 454.351304 289.425965 
L 457.880158 289.489788 
L 458.585929 289.314564 
L 462.114783 289.364881 
L 462.820553 289.012489 
L 464.232095 289.012702 
L 464.937866 289.293314 
L 466.349407 289.293074 
L 467.055178 289.69925 
L 468.466719 289.698826 
L 469.17249 290.140326 
L 470.584032 290.139793 
L 471.289802 289.877985 
L 472.701344 289.877945 
L 473.407115 289.624016 
L 474.818656 289.624257 
L 475.524427 290.110678 
L 476.935968 290.109921 
L 477.641739 290.560669 
L 479.053281 290.559892 
L 479.759051 292.653422 
L 481.170593 292.650717 
L 481.876364 293.607868 
L 483.287905 293.605877 
L 483.993676 296.914044 
L 485.405217 296.910007 
L 486.110988 298.76785 
L 487.52253 298.764518 
L 488.2283 304.720517 
L 489.639842 304.712556 
L 490.345613 306.341472 
L 491.757154 306.335776 
L 492.462925 311.636218 
L 493.874466 311.62801 
L 494.580237 312.898959 
L 495.991779 312.893528 
L 496.697549 316.013827 
L 498.109091 316.00734 
L 498.109091 316.00734 
" style="fill:none;stroke:#c44e52;stroke-linecap:round;stroke-width:1.75;"/>
   </g>
   <g id="line2d_38">
    <path clip-path="url(#p6e5edfa2b1)" d="M 92.290909 242.538457 
L 93.702451 242.42924 
L 94.408221 245.538865 
L 95.819763 245.459543 
L 96.525534 247.579392 
L 97.937075 247.52549 
L 98.642846 254.769474 
L 100.054387 254.732708 
L 100.760158 256.61172 
L 102.1717 256.586885 
L 102.87747 259.444435 
L 104.289012 259.426666 
L 104.994783 262.587407 
L 106.406324 262.573541 
L 107.112095 265.252712 
L 108.523636 265.241287 
L 109.229407 265.622362 
L 110.640949 265.614097 
L 111.346719 267.167338 
L 112.758261 267.160121 
L 113.464032 271.021564 
L 114.875573 271.013129 
L 115.581344 273.360727 
L 116.992885 273.352593 
L 117.698656 273.219881 
L 119.110198 273.213862 
L 119.815968 273.42533 
L 121.22751 273.420944 
L 121.933281 272.380708 
L 123.344822 272.378483 
L 124.050593 299.56586 
L 125.462134 299.547721 
L 126.167905 295.330997 
L 127.579447 295.316958 
L 128.285217 292.037178 
L 129.696759 292.027354 
L 130.40253 288.97226 
L 131.814071 288.967038 
L 132.519842 281.102413 
L 133.931383 281.107457 
L 134.637154 279.210238 
L 136.048696 279.217949 
L 136.754466 276.453221 
L 138.166008 276.462979 
L 138.871779 274.263271 
L 140.28332 274.274029 
L 140.989091 264.199342 
L 142.400632 264.222688 
L 143.106403 254.481784 
L 144.517945 254.514077 
L 145.223715 243.448482 
L 146.635257 243.487683 
L 147.341028 231.440611 
L 148.752569 231.483826 
L 149.45834 221.352754 
L 150.869881 221.393672 
L 151.575652 211.036154 
L 152.987194 211.072185 
L 153.692964 211.339967 
L 155.104506 211.359093 
L 155.810277 201.861054 
L 157.221818 201.88075 
L 157.927589 194.305267 
L 159.33913 194.322535 
L 160.044901 181.301005 
L 161.456443 181.323042 
L 162.162213 192.540245 
L 163.573755 192.540677 
L 164.279526 191.728381 
L 165.691067 191.728301 
L 166.396838 189.4251 
L 167.808379 189.427229 
L 168.51415 186.843971 
L 169.925692 186.847207 
L 170.631462 189.120291 
L 172.043004 189.119899 
L 172.748775 192.828036 
L 174.160316 192.824805 
L 174.866087 191.162363 
L 176.277628 191.161775 
L 176.983399 190.913028 
L 178.394941 190.912904 
L 179.100711 194.162131 
L 180.512253 194.15954 
L 181.218024 194.795883 
L 182.629565 194.793962 
L 183.335336 196.336977 
L 184.746877 196.33497 
L 185.452648 197.208711 
L 186.86419 197.206768 
L 187.56996 201.851576 
L 188.981502 201.84661 
L 189.687273 201.661755 
L 191.098814 201.658929 
L 191.804585 201.021617 
L 193.216126 201.020781 
L 193.921897 202.533816 
L 195.333439 202.532091 
L 196.039209 205.764213 
L 197.450751 205.760312 
L 198.156522 205.183367 
L 199.568063 205.181597 
L 200.273834 208.898046 
L 201.685375 208.894042 
L 202.391146 209.38316 
L 203.802688 209.380318 
L 204.508458 210.767866 
L 205.92 210.765247 
L 206.625771 211.390551 
L 208.037312 211.388615 
L 208.743083 213.621406 
L 210.154624 213.618298 
L 210.860395 213.214745 
L 212.271937 213.213254 
L 212.977708 214.064939 
L 214.389249 214.063532 
L 215.09502 213.728674 
L 216.506561 213.728178 
L 217.212332 211.622002 
L 218.623874 211.62395 
L 219.329644 211.431422 
L 220.741186 211.432639 
L 221.446957 213.15467 
L 222.858498 213.153735 
L 223.564269 212.817128 
L 224.97581 212.816829 
L 225.681581 212.083247 
L 227.093123 212.083784 
L 227.798893 212.353507 
L 229.210435 212.353616 
L 229.916206 213.163716 
L 231.327747 213.16285 
L 232.033518 212.293623 
L 233.445059 212.294089 
L 234.15083 212.580611 
L 235.562372 212.580526 
L 236.268142 211.536198 
L 237.679684 211.536953 
L 238.385455 212.398055 
L 239.796996 212.397815 
L 240.502767 211.852821 
L 241.914308 211.853011 
L 242.620079 212.736777 
L 244.031621 212.736035 
L 244.737391 212.548534 
L 246.148933 212.548264 
L 246.854704 211.849612 
L 248.266245 211.850179 
L 248.972016 210.52163 
L 252.50087 210.501055 
L 253.20664 210.227081 
L 254.618182 210.227853 
L 255.323953 211.034985 
L 256.735494 211.034759 
L 257.441265 210.675842 
L 260.970119 210.611388 
L 261.675889 211.10493 
L 263.087431 211.104598 
L 263.793202 211.461638 
L 265.204743 211.461051 
L 265.910514 211.800037 
L 267.322055 211.799298 
L 268.027826 212.263565 
L 269.439368 212.262808 
L 270.145138 211.675377 
L 271.55668 211.675523 
L 272.262451 214.131705 
L 273.673992 214.129686 
L 274.379763 214.663316 
L 275.791304 214.66156 
L 276.497075 219.421804 
L 277.908617 219.416581 
L 278.614387 220.762293 
L 280.025929 220.757774 
L 280.7317 226.405956 
L 282.143241 226.398299 
L 282.849012 228.936281 
L 284.260553 228.929217 
L 284.966324 243.019645 
L 286.377866 243.004017 
L 287.083636 248.465404 
L 288.495178 248.450649 
L 289.200949 258.738491 
L 290.61249 258.720892 
L 291.318261 261.813317 
L 292.729802 261.798426 
L 293.435573 270.893629 
L 295.552885 270.791509 
L 296.258656 270.268605 
L 296.964427 269.411928 
L 297.670198 268.912627 
L 298.375968 267.437855 
L 299.081739 265.685921 
L 299.78751 261.255572 
L 301.199051 256.420848 
L 301.904822 256.831882 
L 303.316364 251.894927 
L 304.022134 250.672839 
L 305.433676 246.377304 
L 306.139447 247.289607 
L 307.550988 244.244753 
L 308.256759 242.068847 
L 309.6683 240.053206 
L 310.374071 244.382855 
L 311.785613 243.29211 
L 312.491383 241.4736 
L 313.902925 240.849845 
L 314.608696 240.163544 
L 316.020237 239.832779 
L 316.726008 240.448965 
L 318.137549 240.282395 
L 318.84332 246.567301 
L 320.254862 246.478985 
L 320.960632 244.669257 
L 322.372174 244.619697 
L 323.077945 243.079816 
L 324.489486 243.052809 
L 325.195257 239.660452 
L 326.606798 239.64956 
L 327.312569 280.978927 
L 328.724111 280.942357 
L 329.429881 273.127781 
L 330.841423 273.102444 
L 331.547194 265.840874 
L 332.958735 265.829398 
L 333.664506 258.798253 
L 335.076047 258.800793 
L 335.781818 244.890878 
L 337.19336 244.917827 
L 337.89913 240.228373 
L 339.310672 240.257083 
L 340.016443 234.372777 
L 341.427984 234.400834 
L 342.133755 229.27021 
L 343.545296 229.296228 
L 344.251067 211.763871 
L 345.662609 211.811583 
L 346.368379 194.120546 
L 347.779921 194.179332 
L 348.485692 174.212816 
L 349.897233 174.27623 
L 350.603004 153.180003 
L 352.014545 153.24184 
L 352.720316 134.737711 
L 354.131858 134.790714 
L 354.837628 116.262676 
L 356.24917 116.306246 
L 356.954941 114.651219 
L 358.366482 114.669059 
L 359.072253 96.770104 
L 360.483794 96.795969 
L 361.189565 82.088252 
L 362.601107 82.11226 
L 363.306877 61.38 
L 364.718419 61.409711 
L 365.42419 77.716876 
L 366.835731 77.709839 
L 367.541502 73.131184 
L 368.953043 73.132646 
L 369.658814 67.209821 
L 371.070356 67.216743 
L 371.776126 62.561343 
L 373.187668 62.567698 
L 373.893439 63.061578 
L 375.30498 63.062849 
L 376.010751 67.84513 
L 377.422292 67.841453 
L 378.128063 63.057404 
L 379.539605 63.060337 
L 380.245375 61.441379 
L 381.656917 61.443832 
L 382.362688 65.084879 
L 385.891542 65.068532 
L 386.597312 65.451998 
L 390.126166 65.410825 
L 390.831937 71.378593 
L 392.243478 71.372944 
L 392.949249 67.09801 
L 394.360791 67.099929 
L 395.066561 65.596677 
L 396.478103 65.598878 
L 397.183874 67.147633 
L 398.595415 67.146653 
L 399.301186 70.648924 
L 400.712727 70.645072 
L 401.418498 69.292962 
L 402.83004 69.29302 
L 403.53581 74.014711 
L 404.947352 74.010431 
L 405.653123 73.426993 
L 407.064664 73.426072 
L 407.770435 74.628968 
L 409.181976 74.627796 
L 409.887747 75.100389 
L 411.299289 75.099547 
L 412.005059 78.357145 
L 413.416601 78.353629 
L 414.122372 77.378566 
L 415.533913 77.378367 
L 416.239684 77.869361 
L 417.651225 77.86907 
L 418.356996 76.627026 
L 419.768538 76.628109 
L 420.474308 72.081212 
L 421.88585 72.086343 
L 422.591621 72.469876 
L 424.003162 72.470883 
L 424.708933 74.799794 
L 426.120474 74.797727 
L 426.826245 72.871355 
L 428.237787 72.872577 
L 428.943557 72.450789 
L 430.355099 72.451683 
L 431.06087 72.830074 
L 432.472411 72.829978 
L 433.178182 73.126337 
L 434.589723 73.125759 
L 435.295494 71.806664 
L 436.707036 71.808128 
L 437.412806 70.642822 
L 438.824348 70.644022 
L 439.530119 69.245554 
L 440.94166 69.24717 
L 441.647431 71.41816 
L 443.058972 71.4167 
L 443.764743 70.428228 
L 445.176285 70.428515 
L 445.882055 71.301089 
L 447.293597 71.30026 
L 447.999368 70.16138 
L 449.410909 70.162193 
L 450.11668 68.607109 
L 451.528221 68.608977 
L 452.233992 66.252967 
L 455.762846 66.269739 
L 456.468617 67.039072 
L 457.880158 67.038593 
L 458.585929 67.979611 
L 459.99747 67.97868 
L 460.703241 67.546127 
L 462.114783 67.546192 
L 462.820553 67.991193 
L 464.232095 67.990982 
L 464.937866 68.716041 
L 466.349407 68.715222 
L 467.055178 69.253919 
L 468.466719 69.25303 
L 469.17249 70.228699 
L 470.584032 70.227402 
L 471.289802 71.018266 
L 472.701344 71.017272 
L 473.407115 70.079276 
L 474.818656 70.079904 
L 475.524427 74.865768 
L 476.935968 74.861604 
L 477.641739 76.211991 
L 479.053281 76.209222 
L 479.759051 85.739871 
L 481.170593 85.729877 
L 481.876364 89.039401 
L 483.287905 89.032669 
L 483.993676 98.824339 
L 485.405217 98.812182 
L 486.110988 104.260099 
L 487.52253 104.250109 
L 488.2283 131.272664 
L 489.639842 131.243311 
L 490.345613 142.313296 
L 491.757154 142.290458 
L 492.462925 160.959152 
L 493.874466 160.93081 
L 494.580237 166.97286 
L 495.991779 166.953545 
L 496.697549 182.515648 
L 498.109091 182.49102 
L 498.109091 182.49102 
" style="fill:none;stroke:#8172b2;stroke-linecap:round;stroke-width:1.75;"/>
   </g>
   <g id="patch_3">
    <path d="M 72 352.44 
L 72 47.52 
" style="fill:none;"/>
   </g>
   <g id="patch_4">
    <path d="M 518.4 352.44 
L 518.4 47.52 
" style="fill:none;"/>
   </g>
   <g id="patch_5">
    <path d="M 72 352.44 
L 518.4 352.44 
" style="fill:none;"/>
   </g>
   <g id="patch_6">
    <path d="M 72 47.52 
L 518.4 47.52 
" style="fill:none;"/>
   </g>
   <g id="text_18">
    <!-- Mass flows network -->
    <defs>
     <path d="M 7.421875 0 
L 7.421875 71.578125 
L 21.6875 71.578125 
L 38.625 20.90625 
Q 40.96875 13.8125 42.046875 10.296875 
Q 43.265625 14.203125 45.84375 21.78125 
L 62.984375 71.578125 
L 75.734375 71.578125 
L 75.734375 0 
L 66.609375 0 
L 66.609375 59.90625 
L 45.796875 0 
L 37.25 0 
L 16.546875 60.9375 
L 16.546875 0 
z
" id="ArialMT-77"/>
     <path d="M 40.4375 6.390625 
Q 35.546875 2.25 31.03125 0.53125 
Q 26.515625 -1.171875 21.34375 -1.171875 
Q 12.796875 -1.171875 8.203125 3 
Q 3.609375 7.171875 3.609375 13.671875 
Q 3.609375 17.484375 5.34375 20.625 
Q 7.078125 23.78125 9.890625 25.6875 
Q 12.703125 27.59375 16.21875 28.5625 
Q 18.796875 29.25 24.03125 29.890625 
Q 34.671875 31.15625 39.703125 32.90625 
Q 39.75 34.71875 39.75 35.203125 
Q 39.75 40.578125 37.25 42.78125 
Q 33.890625 45.75 27.25 45.75 
Q 21.046875 45.75 18.09375 43.578125 
Q 15.140625 41.40625 13.71875 35.890625 
L 5.125 37.0625 
Q 6.296875 42.578125 8.984375 45.96875 
Q 11.671875 49.359375 16.75 51.1875 
Q 21.828125 53.03125 28.515625 53.03125 
Q 35.15625 53.03125 39.296875 51.46875 
Q 43.453125 49.90625 45.40625 47.53125 
Q 47.359375 45.171875 48.140625 41.546875 
Q 48.578125 39.3125 48.578125 33.453125 
L 48.578125 21.734375 
Q 48.578125 9.46875 49.140625 6.21875 
Q 49.703125 2.984375 51.375 0 
L 42.1875 0 
Q 40.828125 2.734375 40.4375 6.390625 
z
M 39.703125 26.03125 
Q 34.90625 24.078125 25.34375 22.703125 
Q 19.921875 21.921875 17.671875 20.9375 
Q 15.4375 19.96875 14.203125 18.09375 
Q 12.984375 16.21875 12.984375 13.921875 
Q 12.984375 10.40625 15.640625 8.0625 
Q 18.3125 5.71875 23.4375 5.71875 
Q 28.515625 5.71875 32.46875 7.9375 
Q 36.421875 10.15625 38.28125 14.015625 
Q 39.703125 17 39.703125 22.796875 
z
" id="ArialMT-97"/>
     <path d="M 3.078125 15.484375 
L 11.765625 16.84375 
Q 12.5 11.625 15.84375 8.84375 
Q 19.1875 6.0625 25.203125 6.0625 
Q 31.25 6.0625 34.171875 8.515625 
Q 37.109375 10.984375 37.109375 14.3125 
Q 37.109375 17.28125 34.515625 19 
Q 32.71875 20.171875 25.53125 21.96875 
Q 15.875 24.421875 12.140625 26.203125 
Q 8.40625 27.984375 6.46875 31.125 
Q 4.546875 34.28125 4.546875 38.09375 
Q 4.546875 41.546875 6.125 44.5 
Q 7.71875 47.46875 10.453125 49.421875 
Q 12.5 50.921875 16.03125 51.96875 
Q 19.578125 53.03125 23.640625 53.03125 
Q 29.734375 53.03125 34.34375 51.265625 
Q 38.96875 49.515625 41.15625 46.5 
Q 43.359375 43.5 44.1875 38.484375 
L 35.59375 37.3125 
Q 35.015625 41.3125 32.203125 43.546875 
Q 29.390625 45.796875 24.265625 45.796875 
Q 18.21875 45.796875 15.625 43.796875 
Q 13.03125 41.796875 13.03125 39.109375 
Q 13.03125 37.40625 14.109375 36.03125 
Q 15.1875 34.625 17.484375 33.6875 
Q 18.796875 33.203125 25.25 31.453125 
Q 34.578125 28.953125 38.25 27.359375 
Q 41.9375 25.78125 44.03125 22.75 
Q 46.140625 19.734375 46.140625 15.234375 
Q 46.140625 10.84375 43.578125 6.953125 
Q 41.015625 3.078125 36.171875 0.953125 
Q 31.34375 -1.171875 25.25 -1.171875 
Q 15.140625 -1.171875 9.84375 3.03125 
Q 4.546875 7.234375 3.078125 15.484375 
z
" id="ArialMT-115"/>
     <path d="M 8.6875 0 
L 8.6875 45.015625 
L 0.921875 45.015625 
L 0.921875 51.859375 
L 8.6875 51.859375 
L 8.6875 57.375 
Q 8.6875 62.59375 9.625 65.140625 
Q 10.890625 68.5625 14.078125 70.671875 
Q 17.28125 72.796875 23.046875 72.796875 
Q 26.765625 72.796875 31.25 71.921875 
L 29.9375 64.265625 
Q 27.203125 64.75 24.75 64.75 
Q 20.75 64.75 19.09375 63.03125 
Q 17.4375 61.328125 17.4375 56.640625 
L 17.4375 51.859375 
L 27.546875 51.859375 
L 27.546875 45.015625 
L 17.4375 45.015625 
L 17.4375 0 
z
" id="ArialMT-102"/>
     <path d="M 6.390625 0 
L 6.390625 71.578125 
L 15.1875 71.578125 
L 15.1875 0 
z
" id="ArialMT-108"/>
     <path d="M 3.328125 25.921875 
Q 3.328125 40.328125 11.328125 47.265625 
Q 18.015625 53.03125 27.640625 53.03125 
Q 38.328125 53.03125 45.109375 46.015625 
Q 51.90625 39.015625 51.90625 26.65625 
Q 51.90625 16.65625 48.90625 10.90625 
Q 45.90625 5.171875 40.15625 2 
Q 34.421875 -1.171875 27.640625 -1.171875 
Q 16.75 -1.171875 10.03125 5.8125 
Q 3.328125 12.796875 3.328125 25.921875 
z
M 12.359375 25.921875 
Q 12.359375 15.96875 16.703125 11.015625 
Q 21.046875 6.0625 27.640625 6.0625 
Q 34.1875 6.0625 38.53125 11.03125 
Q 42.875 16.015625 42.875 26.21875 
Q 42.875 35.84375 38.5 40.796875 
Q 34.125 45.75 27.640625 45.75 
Q 21.046875 45.75 16.703125 40.8125 
Q 12.359375 35.890625 12.359375 25.921875 
z
" id="ArialMT-111"/>
     <path d="M 16.15625 0 
L 0.296875 51.859375 
L 9.375 51.859375 
L 17.625 21.921875 
L 20.703125 10.796875 
Q 20.90625 11.625 23.390625 21.484375 
L 31.640625 51.859375 
L 40.671875 51.859375 
L 48.4375 21.78125 
L 51.03125 11.859375 
L 54 21.875 
L 62.890625 51.859375 
L 71.4375 51.859375 
L 55.21875 0 
L 46.09375 0 
L 37.84375 31.0625 
L 35.84375 39.890625 
L 25.34375 0 
z
" id="ArialMT-119"/>
     <path d="M 6.59375 0 
L 6.59375 51.859375 
L 14.5 51.859375 
L 14.5 44.484375 
Q 20.21875 53.03125 31 53.03125 
Q 35.6875 53.03125 39.625 51.34375 
Q 43.5625 49.65625 45.515625 46.921875 
Q 47.46875 44.1875 48.25 40.4375 
Q 48.734375 37.984375 48.734375 31.890625 
L 48.734375 0 
L 39.9375 0 
L 39.9375 31.546875 
Q 39.9375 36.921875 38.90625 39.578125 
Q 37.890625 42.234375 35.28125 43.8125 
Q 32.671875 45.40625 29.15625 45.40625 
Q 23.53125 45.40625 19.453125 41.84375 
Q 15.375 38.28125 15.375 28.328125 
L 15.375 0 
z
" id="ArialMT-110"/>
     <path d="M 42.09375 16.703125 
L 51.171875 15.578125 
Q 49.03125 7.625 43.21875 3.21875 
Q 37.40625 -1.171875 28.375 -1.171875 
Q 17 -1.171875 10.328125 5.828125 
Q 3.65625 12.84375 3.65625 25.484375 
Q 3.65625 38.578125 10.390625 45.796875 
Q 17.140625 53.03125 27.875 53.03125 
Q 38.28125 53.03125 44.875 45.953125 
Q 51.46875 38.875 51.46875 26.03125 
Q 51.46875 25.25 51.421875 23.6875 
L 12.75 23.6875 
Q 13.234375 15.140625 17.578125 10.59375 
Q 21.921875 6.0625 28.421875 6.0625 
Q 33.25 6.0625 36.671875 8.59375 
Q 40.09375 11.140625 42.09375 16.703125 
z
M 13.234375 30.90625 
L 42.1875 30.90625 
Q 41.609375 37.453125 38.875 40.71875 
Q 34.671875 45.796875 27.984375 45.796875 
Q 21.921875 45.796875 17.796875 41.75 
Q 13.671875 37.703125 13.234375 30.90625 
z
" id="ArialMT-101"/>
     <path d="M 25.78125 7.859375 
L 27.046875 0.09375 
Q 23.34375 -0.6875 20.40625 -0.6875 
Q 15.625 -0.6875 12.984375 0.828125 
Q 10.359375 2.34375 9.28125 4.8125 
Q 8.203125 7.28125 8.203125 15.1875 
L 8.203125 45.015625 
L 1.765625 45.015625 
L 1.765625 51.859375 
L 8.203125 51.859375 
L 8.203125 64.703125 
L 16.9375 69.96875 
L 16.9375 51.859375 
L 25.78125 51.859375 
L 25.78125 45.015625 
L 16.9375 45.015625 
L 16.9375 14.703125 
Q 16.9375 10.9375 17.40625 9.859375 
Q 17.875 8.796875 18.921875 8.15625 
Q 19.96875 7.515625 21.921875 7.515625 
Q 23.390625 7.515625 25.78125 7.859375 
z
" id="ArialMT-116"/>
     <path d="M 6.5 0 
L 6.5 51.859375 
L 14.40625 51.859375 
L 14.40625 44 
Q 17.4375 49.515625 20 51.265625 
Q 22.5625 53.03125 25.640625 53.03125 
Q 30.078125 53.03125 34.671875 50.203125 
L 31.640625 42.046875 
Q 28.421875 43.953125 25.203125 43.953125 
Q 22.3125 43.953125 20.015625 42.21875 
Q 17.71875 40.484375 16.75 37.40625 
Q 15.28125 32.71875 15.28125 27.15625 
L 15.28125 0 
z
" id="ArialMT-114"/>
     <path d="M 6.640625 0 
L 6.640625 71.578125 
L 15.4375 71.578125 
L 15.4375 30.765625 
L 36.234375 51.859375 
L 47.609375 51.859375 
L 27.78125 32.625 
L 49.609375 0 
L 38.765625 0 
L 21.625 26.515625 
L 15.4375 20.5625 
L 15.4375 0 
z
" id="ArialMT-107"/>
    </defs>
    <g style="fill:#262626;" transform="translate(242.854687 41.52)scale(0.12 -0.12)">
     <use xlink:href="#ArialMT-77"/>
     <use x="83.300781" xlink:href="#ArialMT-97"/>
     <use x="138.916016" xlink:href="#ArialMT-115"/>
     <use x="188.916016" xlink:href="#ArialMT-115"/>
     <use x="238.916016" xlink:href="#ArialMT-32"/>
     <use x="266.699219" xlink:href="#ArialMT-102"/>
     <use x="294.482422" xlink:href="#ArialMT-108"/>
     <use x="316.699219" xlink:href="#ArialMT-111"/>
     <use x="372.314453" xlink:href="#ArialMT-119"/>
     <use x="444.53125" xlink:href="#ArialMT-115"/>
     <use x="494.53125" xlink:href="#ArialMT-32"/>
     <use x="522.314453" xlink:href="#ArialMT-110"/>
     <use x="577.929688" xlink:href="#ArialMT-101"/>
     <use x="633.544922" xlink:href="#ArialMT-116"/>
     <use x="661.328125" xlink:href="#ArialMT-119"/>
     <use x="733.544922" xlink:href="#ArialMT-111"/>
     <use x="789.160156" xlink:href="#ArialMT-114"/>
     <use x="822.460938" xlink:href="#ArialMT-107"/>
    </g>
   </g>
   <g id="legend_1">
    <g id="line2d_39">
     <path d="M 81 60.177812 
L 101 60.177812 
" style="fill:none;stroke:#4c72b0;stroke-linecap:round;stroke-width:1.75;"/>
    </g>
    <g id="line2d_40"/>
    <g id="text_19">
     <!-- Producer -->
     <defs>
      <path d="M 7.71875 0 
L 7.71875 71.578125 
L 34.71875 71.578125 
Q 41.84375 71.578125 45.609375 70.90625 
Q 50.875 70.015625 54.4375 67.546875 
Q 58.015625 65.09375 60.1875 60.640625 
Q 62.359375 56.203125 62.359375 50.875 
Q 62.359375 41.75 56.546875 35.421875 
Q 50.734375 29.109375 35.546875 29.109375 
L 17.1875 29.109375 
L 17.1875 0 
z
M 17.1875 37.546875 
L 35.6875 37.546875 
Q 44.875 37.546875 48.734375 40.96875 
Q 52.59375 44.390625 52.59375 50.59375 
Q 52.59375 55.078125 50.3125 58.265625 
Q 48.046875 61.46875 44.34375 62.5 
Q 41.9375 63.140625 35.5 63.140625 
L 17.1875 63.140625 
z
" id="ArialMT-80"/>
      <path d="M 40.234375 0 
L 40.234375 6.546875 
Q 35.296875 -1.171875 25.734375 -1.171875 
Q 19.53125 -1.171875 14.328125 2.25 
Q 9.125 5.671875 6.265625 11.796875 
Q 3.421875 17.921875 3.421875 25.875 
Q 3.421875 33.640625 6 39.96875 
Q 8.59375 46.296875 13.765625 49.65625 
Q 18.953125 53.03125 25.34375 53.03125 
Q 30.03125 53.03125 33.6875 51.046875 
Q 37.359375 49.078125 39.65625 45.90625 
L 39.65625 71.578125 
L 48.390625 71.578125 
L 48.390625 0 
z
M 12.453125 25.875 
Q 12.453125 15.921875 16.640625 10.984375 
Q 20.84375 6.0625 26.5625 6.0625 
Q 32.328125 6.0625 36.34375 10.765625 
Q 40.375 15.484375 40.375 25.140625 
Q 40.375 35.796875 36.265625 40.765625 
Q 32.171875 45.75 26.171875 45.75 
Q 20.3125 45.75 16.375 40.96875 
Q 12.453125 36.1875 12.453125 25.875 
z
" id="ArialMT-100"/>
      <path d="M 40.578125 0 
L 40.578125 7.625 
Q 34.515625 -1.171875 24.125 -1.171875 
Q 19.53125 -1.171875 15.546875 0.578125 
Q 11.578125 2.34375 9.640625 5 
Q 7.71875 7.671875 6.9375 11.53125 
Q 6.390625 14.109375 6.390625 19.734375 
L 6.390625 51.859375 
L 15.1875 51.859375 
L 15.1875 23.09375 
Q 15.1875 16.21875 15.71875 13.8125 
Q 16.546875 10.359375 19.234375 8.375 
Q 21.921875 6.390625 25.875 6.390625 
Q 29.828125 6.390625 33.296875 8.421875 
Q 36.765625 10.453125 38.203125 13.9375 
Q 39.65625 17.4375 39.65625 24.078125 
L 39.65625 51.859375 
L 48.4375 51.859375 
L 48.4375 0 
z
" id="ArialMT-117"/>
      <path d="M 40.4375 19 
L 49.078125 17.875 
Q 47.65625 8.9375 41.8125 3.875 
Q 35.984375 -1.171875 27.484375 -1.171875 
Q 16.84375 -1.171875 10.375 5.78125 
Q 3.90625 12.75 3.90625 25.734375 
Q 3.90625 34.125 6.6875 40.421875 
Q 9.46875 46.734375 15.15625 49.875 
Q 20.84375 53.03125 27.546875 53.03125 
Q 35.984375 53.03125 41.359375 48.75 
Q 46.734375 44.484375 48.25 36.625 
L 39.703125 35.296875 
Q 38.484375 40.53125 35.375 43.15625 
Q 32.28125 45.796875 27.875 45.796875 
Q 21.234375 45.796875 17.078125 41.03125 
Q 12.9375 36.28125 12.9375 25.984375 
Q 12.9375 15.53125 16.9375 10.796875 
Q 20.953125 6.0625 27.390625 6.0625 
Q 32.5625 6.0625 36.03125 9.234375 
Q 39.5 12.40625 40.4375 19 
z
" id="ArialMT-99"/>
     </defs>
     <g style="fill:#262626;" transform="translate(109 63.677812)scale(0.1 -0.1)">
      <use xlink:href="#ArialMT-80"/>
      <use x="66.699219" xlink:href="#ArialMT-114"/>
      <use x="100" xlink:href="#ArialMT-111"/>
      <use x="155.615234" xlink:href="#ArialMT-100"/>
      <use x="211.230469" xlink:href="#ArialMT-117"/>
      <use x="266.845703" xlink:href="#ArialMT-99"/>
      <use x="316.845703" xlink:href="#ArialMT-101"/>
      <use x="372.460938" xlink:href="#ArialMT-114"/>
     </g>
    </g>
    <g id="line2d_41">
     <path d="M 81 74.323125 
L 101 74.323125 
" style="fill:none;stroke:#55a868;stroke-linecap:round;stroke-width:1.75;"/>
    </g>
    <g id="line2d_42"/>
    <g id="text_20">
     <!-- WaterscheiGarden -->
     <defs>
      <path d="M 20.21875 0 
L 1.21875 71.578125 
L 10.9375 71.578125 
L 21.828125 24.65625 
Q 23.578125 17.28125 24.859375 10.015625 
Q 27.59375 21.484375 28.078125 23.25 
L 41.703125 71.578125 
L 53.125 71.578125 
L 63.375 35.359375 
Q 67.234375 21.875 68.953125 10.015625 
Q 70.3125 16.796875 72.515625 25.59375 
L 83.734375 71.578125 
L 93.265625 71.578125 
L 73.640625 0 
L 64.5 0 
L 49.421875 54.546875 
Q 47.515625 61.375 47.171875 62.9375 
Q 46.046875 58.015625 45.0625 54.546875 
L 29.890625 0 
z
" id="ArialMT-87"/>
      <path d="M 6.59375 0 
L 6.59375 71.578125 
L 15.375 71.578125 
L 15.375 45.90625 
Q 21.53125 53.03125 30.90625 53.03125 
Q 36.671875 53.03125 40.921875 50.75 
Q 45.171875 48.484375 47 44.484375 
Q 48.828125 40.484375 48.828125 32.859375 
L 48.828125 0 
L 40.046875 0 
L 40.046875 32.859375 
Q 40.046875 39.453125 37.1875 42.453125 
Q 34.328125 45.453125 29.109375 45.453125 
Q 25.203125 45.453125 21.75 43.421875 
Q 18.3125 41.40625 16.84375 37.9375 
Q 15.375 34.46875 15.375 28.375 
L 15.375 0 
z
" id="ArialMT-104"/>
      <path d="M 6.640625 61.46875 
L 6.640625 71.578125 
L 15.4375 71.578125 
L 15.4375 61.46875 
z
M 6.640625 0 
L 6.640625 51.859375 
L 15.4375 51.859375 
L 15.4375 0 
z
" id="ArialMT-105"/>
      <path d="M 41.21875 28.078125 
L 41.21875 36.46875 
L 71.53125 36.53125 
L 71.53125 9.96875 
Q 64.546875 4.390625 57.125 1.578125 
Q 49.703125 -1.21875 41.890625 -1.21875 
Q 31.34375 -1.21875 22.71875 3.296875 
Q 14.109375 7.8125 9.71875 16.359375 
Q 5.328125 24.90625 5.328125 35.453125 
Q 5.328125 45.90625 9.6875 54.953125 
Q 14.0625 64.015625 22.265625 68.40625 
Q 30.46875 72.796875 41.15625 72.796875 
Q 48.921875 72.796875 55.1875 70.28125 
Q 61.46875 67.78125 65.03125 63.28125 
Q 68.609375 58.796875 70.453125 51.5625 
L 61.921875 49.21875 
Q 60.296875 54.6875 57.90625 57.8125 
Q 55.515625 60.9375 51.0625 62.8125 
Q 46.625 64.703125 41.21875 64.703125 
Q 34.71875 64.703125 29.984375 62.71875 
Q 25.25 60.75 22.34375 57.515625 
Q 19.4375 54.296875 17.828125 50.4375 
Q 15.09375 43.796875 15.09375 36.03125 
Q 15.09375 26.46875 18.390625 20.015625 
Q 21.6875 13.578125 27.984375 10.453125 
Q 34.28125 7.328125 41.359375 7.328125 
Q 47.515625 7.328125 53.375 9.6875 
Q 59.234375 12.0625 62.25 14.75 
L 62.25 28.078125 
z
" id="ArialMT-71"/>
     </defs>
     <g style="fill:#262626;" transform="translate(109 77.823125)scale(0.1 -0.1)">
      <use xlink:href="#ArialMT-87"/>
      <use x="94.337891" xlink:href="#ArialMT-97"/>
      <use x="149.953125" xlink:href="#ArialMT-116"/>
      <use x="177.736328" xlink:href="#ArialMT-101"/>
      <use x="233.351562" xlink:href="#ArialMT-114"/>
      <use x="266.652344" xlink:href="#ArialMT-115"/>
      <use x="316.652344" xlink:href="#ArialMT-99"/>
      <use x="366.652344" xlink:href="#ArialMT-104"/>
      <use x="422.267578" xlink:href="#ArialMT-101"/>
      <use x="477.882812" xlink:href="#ArialMT-105"/>
      <use x="500.099609" xlink:href="#ArialMT-71"/>
      <use x="577.882812" xlink:href="#ArialMT-97"/>
      <use x="633.498047" xlink:href="#ArialMT-114"/>
      <use x="666.798828" xlink:href="#ArialMT-100"/>
      <use x="722.414062" xlink:href="#ArialMT-101"/>
      <use x="778.029297" xlink:href="#ArialMT-110"/>
     </g>
    </g>
    <g id="line2d_43">
     <path d="M 81 88.468437 
L 101 88.468437 
" style="fill:none;stroke:#c44e52;stroke-linecap:round;stroke-width:1.75;"/>
    </g>
    <g id="line2d_44"/>
    <g id="text_21">
     <!-- ZwartbergNEast -->
     <defs>
      <path d="M 2 0 
L 2 8.796875 
L 38.671875 54.640625 
Q 42.578125 59.515625 46.09375 63.140625 
L 6.15625 63.140625 
L 6.15625 71.578125 
L 57.421875 71.578125 
L 57.421875 63.140625 
L 17.234375 13.484375 
L 12.890625 8.453125 
L 58.59375 8.453125 
L 58.59375 0 
z
" id="ArialMT-90"/>
      <path d="M 14.703125 0 
L 6.546875 0 
L 6.546875 71.578125 
L 15.328125 71.578125 
L 15.328125 46.046875 
Q 20.90625 53.03125 29.546875 53.03125 
Q 34.328125 53.03125 38.59375 51.09375 
Q 42.875 49.171875 45.625 45.671875 
Q 48.390625 42.1875 49.953125 37.25 
Q 51.515625 32.328125 51.515625 26.703125 
Q 51.515625 13.375 44.921875 6.09375 
Q 38.328125 -1.171875 29.109375 -1.171875 
Q 19.921875 -1.171875 14.703125 6.5 
z
M 14.59375 26.3125 
Q 14.59375 17 17.140625 12.84375 
Q 21.296875 6.0625 28.375 6.0625 
Q 34.125 6.0625 38.328125 11.0625 
Q 42.53125 16.0625 42.53125 25.984375 
Q 42.53125 36.140625 38.5 40.96875 
Q 34.46875 45.796875 28.765625 45.796875 
Q 23 45.796875 18.796875 40.796875 
Q 14.59375 35.796875 14.59375 26.3125 
z
" id="ArialMT-98"/>
      <path d="M 4.984375 -4.296875 
L 13.53125 -5.5625 
Q 14.0625 -9.515625 16.5 -11.328125 
Q 19.78125 -13.765625 25.4375 -13.765625 
Q 31.546875 -13.765625 34.859375 -11.328125 
Q 38.1875 -8.890625 39.359375 -4.5 
Q 40.046875 -1.8125 39.984375 6.78125 
Q 34.234375 0 25.640625 0 
Q 14.9375 0 9.078125 7.71875 
Q 3.21875 15.4375 3.21875 26.21875 
Q 3.21875 33.640625 5.90625 39.90625 
Q 8.59375 46.1875 13.6875 49.609375 
Q 18.796875 53.03125 25.6875 53.03125 
Q 34.859375 53.03125 40.828125 45.609375 
L 40.828125 51.859375 
L 48.921875 51.859375 
L 48.921875 7.03125 
Q 48.921875 -5.078125 46.453125 -10.125 
Q 44 -15.1875 38.640625 -18.109375 
Q 33.296875 -21.046875 25.484375 -21.046875 
Q 16.21875 -21.046875 10.5 -16.875 
Q 4.78125 -12.703125 4.984375 -4.296875 
z
M 12.25 26.859375 
Q 12.25 16.65625 16.296875 11.96875 
Q 20.359375 7.28125 26.46875 7.28125 
Q 32.515625 7.28125 36.609375 11.9375 
Q 40.71875 16.609375 40.71875 26.5625 
Q 40.71875 36.078125 36.5 40.90625 
Q 32.28125 45.75 26.3125 45.75 
Q 20.453125 45.75 16.34375 40.984375 
Q 12.25 36.234375 12.25 26.859375 
z
" id="ArialMT-103"/>
      <path d="M 7.625 0 
L 7.625 71.578125 
L 17.328125 71.578125 
L 54.9375 15.375 
L 54.9375 71.578125 
L 64.015625 71.578125 
L 64.015625 0 
L 54.296875 0 
L 16.703125 56.25 
L 16.703125 0 
z
" id="ArialMT-78"/>
      <path d="M 7.90625 0 
L 7.90625 71.578125 
L 59.671875 71.578125 
L 59.671875 63.140625 
L 17.390625 63.140625 
L 17.390625 41.21875 
L 56.984375 41.21875 
L 56.984375 32.8125 
L 17.390625 32.8125 
L 17.390625 8.453125 
L 61.328125 8.453125 
L 61.328125 0 
z
" id="ArialMT-69"/>
     </defs>
     <g style="fill:#262626;" transform="translate(109 91.968437)scale(0.1 -0.1)">
      <use xlink:href="#ArialMT-90"/>
      <use x="61.083984" xlink:href="#ArialMT-119"/>
      <use x="133.300781" xlink:href="#ArialMT-97"/>
      <use x="188.916016" xlink:href="#ArialMT-114"/>
      <use x="222.216797" xlink:href="#ArialMT-116"/>
      <use x="250" xlink:href="#ArialMT-98"/>
      <use x="305.615234" xlink:href="#ArialMT-101"/>
      <use x="361.230469" xlink:href="#ArialMT-114"/>
      <use x="394.53125" xlink:href="#ArialMT-103"/>
      <use x="450.146484" xlink:href="#ArialMT-78"/>
      <use x="522.363281" xlink:href="#ArialMT-69"/>
      <use x="589.0625" xlink:href="#ArialMT-97"/>
      <use x="644.677734" xlink:href="#ArialMT-115"/>
      <use x="694.677734" xlink:href="#ArialMT-116"/>
     </g>
    </g>
    <g id="line2d_45">
     <path d="M 81 102.730937 
L 101 102.730937 
" style="fill:none;stroke:#8172b2;stroke-linecap:round;stroke-width:1.75;"/>
    </g>
    <g id="line2d_46"/>
    <g id="text_22">
     <!-- all users -->
     <g style="fill:#262626;" transform="translate(109 106.230937)scale(0.1 -0.1)">
      <use xlink:href="#ArialMT-97"/>
      <use x="55.615234" xlink:href="#ArialMT-108"/>
      <use x="77.832031" xlink:href="#ArialMT-108"/>
      <use x="100.048828" xlink:href="#ArialMT-32"/>
      <use x="127.832031" xlink:href="#ArialMT-117"/>
      <use x="183.447266" xlink:href="#ArialMT-115"/>
      <use x="233.447266" xlink:href="#ArialMT-101"/>
      <use x="289.0625" xlink:href="#ArialMT-114"/>
      <use x="322.363281" xlink:href="#ArialMT-115"/>
     </g>
    </g>
   </g>
  </g>
  <g id="text_23">
   <!-- Horizon: 48.0h, Time step: 300, Neighbourhoods: 2, case: step_down -->
   <defs>
    <path d="M 8.015625 0 
L 8.015625 71.578125 
L 17.484375 71.578125 
L 17.484375 42.1875 
L 54.6875 42.1875 
L 54.6875 71.578125 
L 64.15625 71.578125 
L 64.15625 0 
L 54.6875 0 
L 54.6875 33.734375 
L 17.484375 33.734375 
L 17.484375 0 
z
" id="ArialMT-72"/>
    <path d="M 1.953125 0 
L 1.953125 7.125 
L 34.96875 45.015625 
Q 29.34375 44.734375 25.046875 44.734375 
L 3.90625 44.734375 
L 3.90625 51.859375 
L 46.296875 51.859375 
L 46.296875 46.046875 
L 18.21875 13.140625 
L 12.796875 7.125 
Q 18.703125 7.5625 23.875 7.5625 
L 47.859375 7.5625 
L 47.859375 0 
z
" id="ArialMT-122"/>
    <path d="M 9.03125 41.84375 
L 9.03125 51.859375 
L 19.046875 51.859375 
L 19.046875 41.84375 
z
M 9.03125 0 
L 9.03125 10.015625 
L 19.046875 10.015625 
L 19.046875 0 
z
" id="ArialMT-58"/>
    <path d="M 32.328125 0 
L 32.328125 17.140625 
L 1.265625 17.140625 
L 1.265625 25.203125 
L 33.9375 71.578125 
L 41.109375 71.578125 
L 41.109375 25.203125 
L 50.78125 25.203125 
L 50.78125 17.140625 
L 41.109375 17.140625 
L 41.109375 0 
z
M 32.328125 25.203125 
L 32.328125 57.46875 
L 9.90625 25.203125 
z
" id="ArialMT-52"/>
    <path d="M 9.078125 0 
L 9.078125 10.015625 
L 19.09375 10.015625 
L 19.09375 0 
z
" id="ArialMT-46"/>
    <path d="M 8.890625 0 
L 8.890625 10.015625 
L 18.890625 10.015625 
L 18.890625 0 
Q 18.890625 -5.515625 16.9375 -8.90625 
Q 14.984375 -12.3125 10.75 -14.15625 
L 8.296875 -10.40625 
Q 11.078125 -9.1875 12.390625 -6.8125 
Q 13.71875 -4.4375 13.875 0 
z
" id="ArialMT-44"/>
    <path d="M 25.921875 0 
L 25.921875 63.140625 
L 2.34375 63.140625 
L 2.34375 71.578125 
L 59.078125 71.578125 
L 59.078125 63.140625 
L 35.40625 63.140625 
L 35.40625 0 
z
" id="ArialMT-84"/>
    <path d="M 6.59375 0 
L 6.59375 51.859375 
L 14.453125 51.859375 
L 14.453125 44.578125 
Q 16.890625 48.390625 20.9375 50.703125 
Q 25 53.03125 30.171875 53.03125 
Q 35.9375 53.03125 39.625 50.640625 
Q 43.3125 48.25 44.828125 43.953125 
Q 50.984375 53.03125 60.84375 53.03125 
Q 68.5625 53.03125 72.703125 48.75 
Q 76.859375 44.484375 76.859375 35.59375 
L 76.859375 0 
L 68.109375 0 
L 68.109375 32.671875 
Q 68.109375 37.9375 67.25 40.25 
Q 66.40625 42.578125 64.15625 43.984375 
Q 61.921875 45.40625 58.890625 45.40625 
Q 53.421875 45.40625 49.796875 41.765625 
Q 46.1875 38.140625 46.1875 30.125 
L 46.1875 0 
L 37.40625 0 
L 37.40625 33.6875 
Q 37.40625 39.546875 35.25 42.46875 
Q 33.109375 45.40625 28.21875 45.40625 
Q 24.515625 45.40625 21.359375 43.453125 
Q 18.21875 41.5 16.796875 37.734375 
Q 15.375 33.984375 15.375 26.90625 
L 15.375 0 
z
" id="ArialMT-109"/>
    <path d="M 6.59375 -19.875 
L 6.59375 51.859375 
L 14.59375 51.859375 
L 14.59375 45.125 
Q 17.4375 49.078125 21 51.046875 
Q 24.5625 53.03125 29.640625 53.03125 
Q 36.28125 53.03125 41.359375 49.609375 
Q 46.4375 46.1875 49.015625 39.953125 
Q 51.609375 33.734375 51.609375 26.3125 
Q 51.609375 18.359375 48.75 11.984375 
Q 45.90625 5.609375 40.453125 2.21875 
Q 35.015625 -1.171875 29 -1.171875 
Q 24.609375 -1.171875 21.109375 0.6875 
Q 17.625 2.546875 15.375 5.375 
L 15.375 -19.875 
z
M 14.546875 25.640625 
Q 14.546875 15.625 18.59375 10.84375 
Q 22.65625 6.0625 28.421875 6.0625 
Q 34.28125 6.0625 38.453125 11.015625 
Q 42.625 15.96875 42.625 26.375 
Q 42.625 36.28125 38.546875 41.203125 
Q 34.46875 46.140625 28.8125 46.140625 
Q 23.1875 46.140625 18.859375 40.890625 
Q 14.546875 35.640625 14.546875 25.640625 
z
" id="ArialMT-112"/>
    <path d="M -1.515625 -19.875 
L -1.515625 -13.53125 
L 56.734375 -13.53125 
L 56.734375 -19.875 
z
" id="ArialMT-95"/>
   </defs>
   <g style="fill:#262626;" transform="translate(103.573125 16.545)scale(0.12 -0.12)">
    <use xlink:href="#ArialMT-72"/>
    <use x="72.216797" xlink:href="#ArialMT-111"/>
    <use x="127.832031" xlink:href="#ArialMT-114"/>
    <use x="161.132812" xlink:href="#ArialMT-105"/>
    <use x="183.349609" xlink:href="#ArialMT-122"/>
    <use x="233.349609" xlink:href="#ArialMT-111"/>
    <use x="288.964844" xlink:href="#ArialMT-110"/>
    <use x="344.580078" xlink:href="#ArialMT-58"/>
    <use x="372.363281" xlink:href="#ArialMT-32"/>
    <use x="400.146484" xlink:href="#ArialMT-52"/>
    <use x="455.761719" xlink:href="#ArialMT-56"/>
    <use x="511.376953" xlink:href="#ArialMT-46"/>
    <use x="539.160156" xlink:href="#ArialMT-48"/>
    <use x="594.775391" xlink:href="#ArialMT-104"/>
    <use x="650.390625" xlink:href="#ArialMT-44"/>
    <use x="678.173828" xlink:href="#ArialMT-32"/>
    <use x="705.941406" xlink:href="#ArialMT-84"/>
    <use x="766.978516" xlink:href="#ArialMT-105"/>
    <use x="789.195312" xlink:href="#ArialMT-109"/>
    <use x="872.496094" xlink:href="#ArialMT-101"/>
    <use x="928.111328" xlink:href="#ArialMT-32"/>
    <use x="955.894531" xlink:href="#ArialMT-115"/>
    <use x="1005.894531" xlink:href="#ArialMT-116"/>
    <use x="1033.677734" xlink:href="#ArialMT-101"/>
    <use x="1089.292969" xlink:href="#ArialMT-112"/>
    <use x="1144.908203" xlink:href="#ArialMT-58"/>
    <use x="1172.691406" xlink:href="#ArialMT-32"/>
    <use x="1200.474609" xlink:href="#ArialMT-51"/>
    <use x="1256.089844" xlink:href="#ArialMT-48"/>
    <use x="1311.705078" xlink:href="#ArialMT-48"/>
    <use x="1367.320312" xlink:href="#ArialMT-44"/>
    <use x="1395.103516" xlink:href="#ArialMT-32"/>
    <use x="1422.886719" xlink:href="#ArialMT-78"/>
    <use x="1495.103516" xlink:href="#ArialMT-101"/>
    <use x="1550.71875" xlink:href="#ArialMT-105"/>
    <use x="1572.935547" xlink:href="#ArialMT-103"/>
    <use x="1628.550781" xlink:href="#ArialMT-104"/>
    <use x="1684.166016" xlink:href="#ArialMT-98"/>
    <use x="1739.78125" xlink:href="#ArialMT-111"/>
    <use x="1795.396484" xlink:href="#ArialMT-117"/>
    <use x="1851.011719" xlink:href="#ArialMT-114"/>
    <use x="1884.3125" xlink:href="#ArialMT-104"/>
    <use x="1939.927734" xlink:href="#ArialMT-111"/>
    <use x="1995.542969" xlink:href="#ArialMT-111"/>
    <use x="2051.158203" xlink:href="#ArialMT-100"/>
    <use x="2106.773438" xlink:href="#ArialMT-115"/>
    <use x="2156.773438" xlink:href="#ArialMT-58"/>
    <use x="2184.556641" xlink:href="#ArialMT-32"/>
    <use x="2212.339844" xlink:href="#ArialMT-50"/>
    <use x="2267.955078" xlink:href="#ArialMT-44"/>
    <use x="2295.738281" xlink:href="#ArialMT-32"/>
    <use x="2323.521484" xlink:href="#ArialMT-99"/>
    <use x="2373.521484" xlink:href="#ArialMT-97"/>
    <use x="2429.136719" xlink:href="#ArialMT-115"/>
    <use x="2479.136719" xlink:href="#ArialMT-101"/>
    <use x="2534.751953" xlink:href="#ArialMT-58"/>
    <use x="2562.535156" xlink:href="#ArialMT-32"/>
    <use x="2590.318359" xlink:href="#ArialMT-115"/>
    <use x="2640.318359" xlink:href="#ArialMT-116"/>
    <use x="2668.101562" xlink:href="#ArialMT-101"/>
    <use x="2723.716797" xlink:href="#ArialMT-112"/>
    <use x="2779.332031" xlink:href="#ArialMT-95"/>
    <use x="2834.947266" xlink:href="#ArialMT-100"/>
    <use x="2890.5625" xlink:href="#ArialMT-111"/>
    <use x="2946.177734" xlink:href="#ArialMT-119"/>
    <use x="3018.394531" xlink:href="#ArialMT-110"/>
   </g>
  </g>
 </g>
 <defs>
  <clipPath id="p6e5edfa2b1">
   <rect height="304.92" width="446.4" x="72" y="47.52"/>
  </clipPath>
 </defs>
</svg>
