<?xml version="1.0" encoding="utf-8" standalone="no"?>
<!DOCTYPE svg PUBLIC "-//W3C//DTD SVG 1.1//EN"
  "http://www.w3.org/Graphics/SVG/1.1/DTD/svg11.dtd">
<!-- Created with matplotlib (https://matplotlib.org/) -->
<svg height="396pt" version="1.1" viewBox="0 0 576 396" width="576pt" xmlns="http://www.w3.org/2000/svg" xmlns:xlink="http://www.w3.org/1999/xlink">
 <defs>
  <style type="text/css">
*{stroke-linecap:butt;stroke-linejoin:round;}
  </style>
 </defs>
 <g id="figure_1">
  <g id="patch_1">
   <path d="M 0 396 
L 576 396 
L 576 0 
L 0 0 
z
" style="fill:#ffffff;"/>
  </g>
  <g id="axes_1">
   <g id="patch_2">
    <path d="M 72 137.202353 
L 518.4 137.202353 
L 518.4 47.52 
L 72 47.52 
z
" style="fill:#eaeaf2;"/>
   </g>
   <g id="matplotlib.axis_1">
    <g id="xtick_1">
     <g id="line2d_1">
      <path clip-path="url(#p6eae5c1d2b)" d="M 92.290909 137.202353 
L 92.290909 47.52 
" style="fill:none;stroke:#ffffff;stroke-linecap:round;"/>
     </g>
     <g id="line2d_2"/>
    </g>
    <g id="xtick_2">
     <g id="line2d_3">
      <path clip-path="url(#p6eae5c1d2b)" d="M 143.194932 137.202353 
L 143.194932 47.52 
" style="fill:none;stroke:#ffffff;stroke-linecap:round;"/>
     </g>
     <g id="line2d_4"/>
    </g>
    <g id="xtick_3">
     <g id="line2d_5">
      <path clip-path="url(#p6eae5c1d2b)" d="M 194.098955 137.202353 
L 194.098955 47.52 
" style="fill:none;stroke:#ffffff;stroke-linecap:round;"/>
     </g>
     <g id="line2d_6"/>
    </g>
    <g id="xtick_4">
     <g id="line2d_7">
      <path clip-path="url(#p6eae5c1d2b)" d="M 245.002977 137.202353 
L 245.002977 47.52 
" style="fill:none;stroke:#ffffff;stroke-linecap:round;"/>
     </g>
     <g id="line2d_8"/>
    </g>
    <g id="xtick_5">
     <g id="line2d_9">
      <path clip-path="url(#p6eae5c1d2b)" d="M 295.907 137.202353 
L 295.907 47.52 
" style="fill:none;stroke:#ffffff;stroke-linecap:round;"/>
     </g>
     <g id="line2d_10"/>
    </g>
    <g id="xtick_6">
     <g id="line2d_11">
      <path clip-path="url(#p6eae5c1d2b)" d="M 346.811023 137.202353 
L 346.811023 47.52 
" style="fill:none;stroke:#ffffff;stroke-linecap:round;"/>
     </g>
     <g id="line2d_12"/>
    </g>
    <g id="xtick_7">
     <g id="line2d_13">
      <path clip-path="url(#p6eae5c1d2b)" d="M 397.715046 137.202353 
L 397.715046 47.52 
" style="fill:none;stroke:#ffffff;stroke-linecap:round;"/>
     </g>
     <g id="line2d_14"/>
    </g>
    <g id="xtick_8">
     <g id="line2d_15">
      <path clip-path="url(#p6eae5c1d2b)" d="M 448.619069 137.202353 
L 448.619069 47.52 
" style="fill:none;stroke:#ffffff;stroke-linecap:round;"/>
     </g>
     <g id="line2d_16"/>
    </g>
    <g id="xtick_9">
     <g id="line2d_17">
      <path clip-path="url(#p6eae5c1d2b)" d="M 499.523091 137.202353 
L 499.523091 47.52 
" style="fill:none;stroke:#ffffff;stroke-linecap:round;"/>
     </g>
     <g id="line2d_18"/>
    </g>
   </g>
   <g id="matplotlib.axis_2">
    <g id="ytick_1">
     <g id="line2d_19">
      <path clip-path="url(#p6eae5c1d2b)" d="M 72 134.905617 
L 518.4 134.905617 
" style="fill:none;stroke:#ffffff;stroke-linecap:round;"/>
     </g>
     <g id="line2d_20"/>
     <g id="text_1">
      <!-- 0 -->
      <defs>
       <path d="M 4.15625 35.296875 
Q 4.15625 48 6.765625 55.734375 
Q 9.375 63.484375 14.515625 67.671875 
Q 19.671875 71.875 27.484375 71.875 
Q 33.25 71.875 37.59375 69.546875 
Q 41.9375 67.234375 44.765625 62.859375 
Q 47.609375 58.5 49.21875 52.21875 
Q 50.828125 45.953125 50.828125 35.296875 
Q 50.828125 22.703125 48.234375 14.96875 
Q 45.65625 7.234375 40.5 3 
Q 35.359375 -1.21875 27.484375 -1.21875 
Q 17.140625 -1.21875 11.234375 6.203125 
Q 4.15625 15.140625 4.15625 35.296875 
z
M 13.1875 35.296875 
Q 13.1875 17.671875 17.3125 11.828125 
Q 21.4375 6 27.484375 6 
Q 33.546875 6 37.671875 11.859375 
Q 41.796875 17.71875 41.796875 35.296875 
Q 41.796875 52.984375 37.671875 58.78125 
Q 33.546875 64.59375 27.390625 64.59375 
Q 21.34375 64.59375 17.71875 59.46875 
Q 13.1875 52.9375 13.1875 35.296875 
z
" id="ArialMT-48"/>
      </defs>
      <g style="fill:#262626;" transform="translate(59.439062 138.484523)scale(0.1 -0.1)">
       <use xlink:href="#ArialMT-48"/>
      </g>
     </g>
    </g>
    <g id="ytick_2">
     <g id="line2d_21">
      <path clip-path="url(#p6eae5c1d2b)" d="M 72 108.169565 
L 518.4 108.169565 
" style="fill:none;stroke:#ffffff;stroke-linecap:round;"/>
     </g>
     <g id="line2d_22"/>
     <g id="text_2">
      <!-- 2 -->
      <defs>
       <path d="M 50.34375 8.453125 
L 50.34375 0 
L 3.03125 0 
Q 2.9375 3.171875 4.046875 6.109375 
Q 5.859375 10.9375 9.828125 15.625 
Q 13.8125 20.3125 21.34375 26.46875 
Q 33.015625 36.03125 37.109375 41.625 
Q 41.21875 47.21875 41.21875 52.203125 
Q 41.21875 57.421875 37.46875 61 
Q 33.734375 64.59375 27.734375 64.59375 
Q 21.390625 64.59375 17.578125 60.78125 
Q 13.765625 56.984375 13.71875 50.25 
L 4.6875 51.171875 
Q 5.609375 61.28125 11.65625 66.578125 
Q 17.71875 71.875 27.9375 71.875 
Q 38.234375 71.875 44.234375 66.15625 
Q 50.25 60.453125 50.25 52 
Q 50.25 47.703125 48.484375 43.546875 
Q 46.734375 39.40625 42.65625 34.8125 
Q 38.578125 30.21875 29.109375 22.21875 
Q 21.1875 15.578125 18.9375 13.203125 
Q 16.703125 10.84375 15.234375 8.453125 
z
" id="ArialMT-50"/>
      </defs>
      <g style="fill:#262626;" transform="translate(59.439062 111.748471)scale(0.1 -0.1)">
       <use xlink:href="#ArialMT-50"/>
      </g>
     </g>
    </g>
    <g id="ytick_3">
     <g id="line2d_23">
      <path clip-path="url(#p6eae5c1d2b)" d="M 72 81.433513 
L 518.4 81.433513 
" style="fill:none;stroke:#ffffff;stroke-linecap:round;"/>
     </g>
     <g id="line2d_24"/>
     <g id="text_3">
      <!-- 4 -->
      <defs>
       <path d="M 32.328125 0 
L 32.328125 17.140625 
L 1.265625 17.140625 
L 1.265625 25.203125 
L 33.9375 71.578125 
L 41.109375 71.578125 
L 41.109375 25.203125 
L 50.78125 25.203125 
L 50.78125 17.140625 
L 41.109375 17.140625 
L 41.109375 0 
z
M 32.328125 25.203125 
L 32.328125 57.46875 
L 9.90625 25.203125 
z
" id="ArialMT-52"/>
      </defs>
      <g style="fill:#262626;" transform="translate(59.439062 85.012419)scale(0.1 -0.1)">
       <use xlink:href="#ArialMT-52"/>
      </g>
     </g>
    </g>
    <g id="ytick_4">
     <g id="line2d_25">
      <path clip-path="url(#p6eae5c1d2b)" d="M 72 54.697461 
L 518.4 54.697461 
" style="fill:none;stroke:#ffffff;stroke-linecap:round;"/>
     </g>
     <g id="line2d_26"/>
     <g id="text_4">
      <!-- 6 -->
      <defs>
       <path d="M 49.75 54.046875 
L 41.015625 53.375 
Q 39.84375 58.546875 37.703125 60.890625 
Q 34.125 64.65625 28.90625 64.65625 
Q 24.703125 64.65625 21.53125 62.3125 
Q 17.390625 59.28125 14.984375 53.46875 
Q 12.59375 47.65625 12.5 36.921875 
Q 15.671875 41.75 20.265625 44.09375 
Q 24.859375 46.4375 29.890625 46.4375 
Q 38.671875 46.4375 44.84375 39.96875 
Q 51.03125 33.5 51.03125 23.25 
Q 51.03125 16.5 48.125 10.71875 
Q 45.21875 4.9375 40.140625 1.859375 
Q 35.0625 -1.21875 28.609375 -1.21875 
Q 17.625 -1.21875 10.6875 6.859375 
Q 3.765625 14.9375 3.765625 33.5 
Q 3.765625 54.25 11.421875 63.671875 
Q 18.109375 71.875 29.4375 71.875 
Q 37.890625 71.875 43.28125 67.140625 
Q 48.6875 62.40625 49.75 54.046875 
z
M 13.875 23.1875 
Q 13.875 18.65625 15.796875 14.5 
Q 17.71875 10.359375 21.1875 8.171875 
Q 24.65625 6 28.46875 6 
Q 34.03125 6 38.03125 10.484375 
Q 42.046875 14.984375 42.046875 22.703125 
Q 42.046875 30.125 38.078125 34.390625 
Q 34.125 38.671875 28.125 38.671875 
Q 22.171875 38.671875 18.015625 34.390625 
Q 13.875 30.125 13.875 23.1875 
z
" id="ArialMT-54"/>
      </defs>
      <g style="fill:#262626;" transform="translate(59.439062 58.276367)scale(0.1 -0.1)">
       <use xlink:href="#ArialMT-54"/>
      </g>
     </g>
    </g>
    <g id="text_5">
     <!-- 1e7 -->
     <defs>
      <path d="M 37.25 0 
L 28.46875 0 
L 28.46875 56 
Q 25.296875 52.984375 20.140625 49.953125 
Q 14.984375 46.921875 10.890625 45.40625 
L 10.890625 53.90625 
Q 18.265625 57.375 23.78125 62.296875 
Q 29.296875 67.234375 31.59375 71.875 
L 37.25 71.875 
z
" id="ArialMT-49"/>
      <path d="M 42.09375 16.703125 
L 51.171875 15.578125 
Q 49.03125 7.625 43.21875 3.21875 
Q 37.40625 -1.171875 28.375 -1.171875 
Q 17 -1.171875 10.328125 5.828125 
Q 3.65625 12.84375 3.65625 25.484375 
Q 3.65625 38.578125 10.390625 45.796875 
Q 17.140625 53.03125 27.875 53.03125 
Q 38.28125 53.03125 44.875 45.953125 
Q 51.46875 38.875 51.46875 26.03125 
Q 51.46875 25.25 51.421875 23.6875 
L 12.75 23.6875 
Q 13.234375 15.140625 17.578125 10.59375 
Q 21.921875 6.0625 28.421875 6.0625 
Q 33.25 6.0625 36.671875 8.59375 
Q 40.09375 11.140625 42.09375 16.703125 
z
M 13.234375 30.90625 
L 42.1875 30.90625 
Q 41.609375 37.453125 38.875 40.71875 
Q 34.671875 45.796875 27.984375 45.796875 
Q 21.921875 45.796875 17.796875 41.75 
Q 13.671875 37.703125 13.234375 30.90625 
z
" id="ArialMT-101"/>
      <path d="M 4.734375 62.203125 
L 4.734375 70.65625 
L 51.078125 70.65625 
L 51.078125 63.8125 
Q 44.234375 56.546875 37.515625 44.484375 
Q 30.8125 32.421875 27.15625 19.671875 
Q 24.515625 10.6875 23.78125 0 
L 14.75 0 
Q 14.890625 8.453125 18.0625 20.40625 
Q 21.234375 32.375 27.171875 43.484375 
Q 33.109375 54.59375 39.796875 62.203125 
z
" id="ArialMT-55"/>
     </defs>
     <g style="fill:#262626;" transform="translate(72 44.52)scale(0.1 -0.1)">
      <use xlink:href="#ArialMT-49"/>
      <use x="55.615234" xlink:href="#ArialMT-101"/>
      <use x="111.230469" xlink:href="#ArialMT-55"/>
     </g>
    </g>
   </g>
   <g id="line2d_27">
    <path clip-path="url(#p6eae5c1d2b)" d="M 92.290909 111.259382 
L 95.11891 111.199072 
L 96.532911 111.910911 
L 99.360912 111.852136 
L 100.774913 112.339614 
L 103.602914 112.291989 
L 105.016915 113.998002 
L 107.844916 113.951781 
L 109.258917 114.379916 
L 112.086918 114.338399 
L 113.500919 115.001997 
L 116.32892 114.968162 
L 117.74292 115.707476 
L 120.570922 115.677652 
L 121.984922 116.302926 
L 129.054926 116.333207 
L 130.468926 116.69034 
L 133.296927 116.676159 
L 134.710928 117.59004 
L 137.538929 117.57446 
L 138.95293 118.129589 
L 150.264935 118.084423 
L 151.678936 117.82848 
L 154.506937 117.822663 
L 155.920938 124.273798 
L 158.748939 124.252949 
L 160.162939 123.24943 
L 162.990941 123.214824 
L 164.404941 122.417964 
L 167.232943 122.383276 
L 168.646943 121.638396 
L 171.474945 121.614921 
L 172.888945 119.719609 
L 175.716946 119.717875 
L 177.130947 119.265242 
L 179.958948 119.280981 
L 181.372949 118.619913 
L 184.20095 118.646558 
L 185.614951 118.130873 
L 188.442952 118.160001 
L 189.856953 115.751097 
L 192.684954 115.800524 
L 194.098955 113.474069 
L 196.926956 113.556191 
L 198.340957 110.923361 
L 201.168958 111.044079 
L 202.582959 108.194751 
L 205.41096 108.34998 
L 206.82496 105.984873 
L 209.652962 106.14365 
L 211.066962 103.726802 
L 218.136965 104.092069 
L 219.550966 101.860436 
L 222.378967 101.950643 
L 223.792968 100.185199 
L 226.620969 100.293674 
L 228.03497 97.249859 
L 230.862971 97.403602 
L 232.276972 100.10577 
L 235.104973 100.10612 
L 236.518974 99.90297 
L 239.346975 99.88522 
L 240.760976 99.337527 
L 243.588977 99.342237 
L 245.002977 98.735158 
L 247.830979 98.761318 
L 249.244979 99.307497 
L 250.65898 51.596471 
L 252.072981 64.07739 
L 253.486981 74.489751 
L 254.900982 80.679072 
L 256.314983 85.11843 
L 257.728983 87.915334 
L 259.142984 90.400815 
L 260.556984 92.297519 
L 261.970985 93.710763 
L 263.384986 94.867461 
L 264.798986 95.784464 
L 266.212987 97.283263 
L 269.040988 98.314332 
L 270.454989 98.834291 
L 273.28299 99.386236 
L 274.696991 99.933571 
L 277.524992 100.230885 
L 278.938993 100.537354 
L 281.766994 100.697851 
L 283.180995 101.792244 
L 290.250998 101.90728 
L 291.664998 101.781505 
L 294.493 101.804446 
L 295.907 121.818288 
L 297.321001 121.619126 
L 298.735002 121.283586 
L 300.149002 121.121705 
L 301.563003 120.509846 
L 302.977003 119.734761 
L 305.805005 117.563292 
L 307.219005 116.216742 
L 308.633006 115.253479 
L 315.703009 107.240497 
L 318.53101 105.443136 
L 319.945011 104.789722 
L 322.773012 104.240845 
L 324.187013 104.095298 
L 325.601014 104.558355 
L 332.671017 104.491863 
L 334.085017 104.713766 
L 341.155021 104.678487 
L 342.569021 104.18411 
L 349.639024 104.172817 
L 351.053025 104.585365 
L 358.123028 104.497384 
L 359.537029 104.322476 
L 366.607032 104.391449 
L 368.021033 104.582679 
L 370.849034 104.579881 
L 372.263034 104.373362 
L 379.333038 104.442366 
L 380.747038 104.194029 
L 383.57504 104.200732 
L 384.98904 104.408439 
L 387.817041 104.408216 
L 389.231042 104.277359 
L 392.059043 104.279225 
L 393.473044 104.489341 
L 400.543047 104.439036 
L 401.957048 104.273166 
L 404.785049 104.27564 
L 406.19905 103.961437 
L 434.479062 104.123237 
L 437.307064 104.204603 
L 442.963066 104.277926 
L 444.377067 104.387159 
L 447.205068 104.382044 
L 448.619069 104.240911 
L 451.44707 104.240521 
L 452.861071 104.823475 
L 455.689072 104.811639 
L 457.103073 104.932121 
L 459.931074 104.919844 
L 462.759075 69.72964 
L 464.173076 77.525658 
L 465.587076 84.200154 
L 467.001077 117.022671 
L 468.415078 117.595147 
L 469.829078 118.473657 
L 471.243079 118.258541 
L 472.657079 117.791259 
L 474.07108 117.507261 
L 475.485081 116.695392 
L 476.899081 115.75134 
L 478.313082 117.261507 
L 481.141083 115.574123 
L 482.555084 115.878515 
L 485.383085 114.564897 
L 486.797086 116.309717 
L 489.625087 115.621544 
L 491.039088 116.084835 
L 493.867089 115.746 
L 495.28109 117.779765 
L 498.109091 117.643125 
L 498.109091 117.643125 
" style="fill:none;stroke:#1f77b4;stroke-linecap:round;stroke-width:1.75;"/>
   </g>
   <g id="line2d_28">
    <path clip-path="url(#p6eae5c1d2b)" d="M 92.290909 111.122957 
L 95.11891 111.122957 
L 96.532911 111.833016 
L 99.360912 111.833016 
L 100.774913 112.312205 
L 103.602914 112.312205 
L 105.016915 113.936652 
L 107.844916 113.936652 
L 109.258917 114.360663 
L 112.086918 114.360663 
L 113.500919 115.003767 
L 116.32892 115.003767 
L 117.74292 115.71443 
L 120.570922 115.71443 
L 121.984922 116.317752 
L 129.054926 116.405212 
L 130.468926 116.758583 
L 133.296927 116.758583 
L 134.710928 117.628891 
L 137.538929 117.628891 
L 138.95293 118.156822 
L 150.264935 118.175373 
L 151.678936 117.942827 
L 154.506937 117.942827 
L 155.920938 124.103628 
L 158.748939 124.103628 
L 160.162939 123.143232 
L 162.990941 123.143232 
L 164.404941 122.399251 
L 167.232943 122.399251 
L 168.646943 121.70707 
L 171.474945 121.70707 
L 172.888945 119.926173 
L 175.716946 119.926173 
L 177.130947 119.496394 
L 179.958948 119.496394 
L 181.372949 118.873599 
L 184.20095 118.873599 
L 185.614951 118.376003 
L 188.442952 118.376003 
L 189.856953 116.10633 
L 192.684954 116.10633 
L 194.098955 113.922176 
L 196.926956 113.922176 
L 198.340957 111.452482 
L 201.168958 111.452482 
L 202.582959 108.776147 
L 205.41096 108.776147 
L 206.82496 106.531366 
L 209.652962 106.531366 
L 211.066962 104.249329 
L 218.136965 104.303386 
L 219.550966 102.218028 
L 222.378967 102.218028 
L 223.792968 100.564466 
L 226.620969 100.564466 
L 228.03497 97.727429 
L 230.862971 97.727429 
L 232.276972 100.167452 
L 235.104973 100.167452 
L 236.518974 99.990467 
L 239.346975 99.990467 
L 240.760976 99.485925 
L 243.588977 99.485925 
L 245.002977 98.924763 
L 247.830979 98.924763 
L 249.244979 99.420276 
L 252.072981 99.420276 
L 253.486981 100.226395 
L 256.314983 100.226395 
L 257.728983 99.865344 
L 264.798986 99.812493 
L 266.212987 100.519527 
L 269.040988 100.519527 
L 270.454989 100.657929 
L 273.28299 100.657929 
L 274.696991 100.993031 
L 277.524992 100.993031 
L 278.938993 101.18477 
L 281.766994 101.18477 
L 283.180995 102.200853 
L 290.250998 102.161881 
L 291.664998 102.022557 
L 294.493 102.022557 
L 295.907 102.354419 
L 298.735002 102.354419 
L 300.149002 103.063856 
L 302.977003 103.063856 
L 304.391004 102.93795 
L 307.219005 102.93795 
L 308.633006 103.752614 
L 315.703009 103.860952 
L 317.11701 104.165064 
L 319.945011 104.165064 
L 321.359012 104.302305 
L 324.187013 104.302305 
L 325.601014 104.793884 
L 341.155021 104.819085 
L 342.569021 104.354844 
L 349.639024 104.313468 
L 351.053025 104.692197 
L 358.123028 104.617981 
L 359.537029 104.45657 
L 366.607032 104.51578 
L 368.021033 104.69503 
L 370.849034 104.69503 
L 372.263034 104.502709 
L 379.333038 104.56649 
L 380.747038 104.337958 
L 383.57504 104.337958 
L 384.98904 104.526672 
L 387.817041 104.526672 
L 389.231042 104.407746 
L 392.059043 104.407746 
L 393.473044 104.602437 
L 400.543047 104.561132 
L 401.957048 104.40717 
L 404.785049 104.40717 
L 406.19905 104.115869 
L 430.23706 104.133605 
L 433.065062 104.241831 
L 438.721064 104.320634 
L 441.549066 104.395779 
L 451.44707 104.367988 
L 452.861071 104.90758 
L 455.689072 104.90758 
L 457.103073 105.025252 
L 459.931074 105.025252 
L 461.345074 106.073976 
L 464.173076 106.073976 
L 465.587076 106.371873 
L 468.415078 106.371873 
L 469.829078 107.6206 
L 472.657079 107.6206 
L 474.07108 108.18344 
L 476.899081 108.18344 
L 478.313082 111.313161 
L 481.141083 111.313161 
L 482.555084 112.531296 
L 485.383085 112.531296 
L 486.797086 114.835735 
L 489.625087 114.835735 
L 491.039088 115.531596 
L 493.867089 115.531596 
L 495.28109 117.579104 
L 498.109091 117.579104 
L 498.109091 117.579104 
" style="fill:none;stroke:#000000;stroke-dasharray:1.75,2.8875;stroke-dashoffset:0;stroke-width:1.75;"/>
   </g>
   <g id="line2d_29">
    <path clip-path="url(#p6eae5c1d2b)" d="M 92.290909 115.566446 
L 95.11891 115.566446 
L 96.532911 115.829905 
L 99.360912 115.829905 
L 100.774913 116.282687 
L 103.602914 116.282687 
L 105.016915 117.554832 
L 107.844916 117.554832 
L 109.258917 117.892581 
L 112.086918 117.892581 
L 113.500919 118.367664 
L 116.32892 118.367664 
L 117.74292 118.93012 
L 120.570922 118.93012 
L 121.984922 119.388415 
L 133.296927 119.496152 
L 134.710928 120.150019 
L 137.538929 120.150019 
L 138.95293 120.675216 
L 150.264935 120.724643 
L 151.678936 120.454262 
L 154.506937 120.454262 
L 155.920938 125.883363 
L 158.748939 125.883363 
L 160.162939 125.183045 
L 162.990941 125.183045 
L 164.404941 124.485017 
L 167.232943 124.485017 
L 168.646943 123.864487 
L 171.474945 123.864487 
L 172.888945 122.49198 
L 175.716946 122.49198 
L 177.130947 122.204081 
L 179.958948 122.204081 
L 181.372949 121.536407 
L 184.20095 121.536407 
L 185.614951 121.195117 
L 188.442952 121.195117 
L 189.856953 119.703474 
L 192.684954 119.703474 
L 194.098955 118.080204 
L 196.926956 118.080204 
L 198.340957 116.122728 
L 201.168958 116.122728 
L 202.582959 113.996878 
L 205.41096 113.996878 
L 206.82496 112.475188 
L 209.652962 112.475188 
L 211.066962 110.617718 
L 213.894964 110.617718 
L 215.308964 110.825223 
L 218.136965 110.825223 
L 219.550966 109.267927 
L 222.378967 109.267927 
L 223.792968 107.651848 
L 226.620969 107.651848 
L 228.03497 105.46136 
L 230.862971 105.46136 
L 232.276972 107.387068 
L 235.104973 107.387068 
L 236.518974 107.237632 
L 239.346975 107.237632 
L 240.760976 107.031256 
L 243.588977 107.031256 
L 245.002977 106.463801 
L 247.830979 106.463801 
L 249.244979 106.799829 
L 252.072981 106.799829 
L 253.486981 107.622178 
L 256.314983 107.622178 
L 257.728983 107.234997 
L 260.556984 107.234997 
L 261.970985 107.093707 
L 264.798986 107.093707 
L 266.212987 107.787963 
L 269.040988 107.787963 
L 270.454989 107.958373 
L 273.28299 107.958373 
L 274.696991 108.414556 
L 281.766994 108.502874 
L 283.180995 109.323008 
L 286.008996 109.323008 
L 287.422996 109.188562 
L 298.735002 109.294822 
L 300.149002 109.768746 
L 302.977003 109.768746 
L 304.391004 109.647924 
L 307.219005 109.647924 
L 308.633006 110.360031 
L 315.703009 110.393228 
L 317.11701 110.711928 
L 319.945011 110.711928 
L 321.359012 110.855669 
L 324.187013 110.855669 
L 325.601014 111.195686 
L 332.671017 111.097571 
L 334.085017 111.309196 
L 341.155021 111.235293 
L 342.569021 110.987212 
L 345.397022 110.987212 
L 346.811023 110.844864 
L 349.639024 110.844864 
L 351.053025 111.11938 
L 358.123028 111.087538 
L 359.537029 110.975035 
L 379.333038 111.00093 
L 380.747038 110.732502 
L 383.57504 110.732502 
L 384.98904 110.923254 
L 387.817041 110.923254 
L 389.231042 110.758038 
L 392.059043 110.758038 
L 393.473044 110.876867 
L 404.785049 110.76773 
L 406.19905 110.484295 
L 417.511055 110.451307 
L 418.925055 110.647621 
L 442.963066 110.728169 
L 444.377067 110.856445 
L 451.44707 110.77625 
L 452.861071 111.243841 
L 459.931074 111.329274 
L 461.345074 112.150297 
L 464.173076 112.150297 
L 465.587076 112.326078 
L 468.415078 112.326078 
L 469.829078 113.228877 
L 472.657079 113.228877 
L 474.07108 113.612628 
L 476.899081 113.612628 
L 478.313082 115.996063 
L 481.141083 115.996063 
L 482.555084 117.026817 
L 485.383085 117.026817 
L 486.797086 118.690989 
L 489.625087 118.690989 
L 491.039088 119.201726 
L 493.867089 119.201726 
L 495.28109 120.791876 
L 498.109091 120.791876 
L 498.109091 120.791876 
" style="fill:none;stroke:#ff7f0e;stroke-linecap:round;stroke-width:1.75;"/>
   </g>
   <g id="line2d_30">
    <path clip-path="url(#p6eae5c1d2b)" d="M 92.290909 130.462128 
L 95.11891 130.462128 
L 96.532911 130.908728 
L 103.602914 130.935134 
L 105.016915 131.287437 
L 112.086918 131.373699 
L 113.500919 131.541719 
L 116.32892 131.541719 
L 117.74292 131.689927 
L 120.570922 131.689927 
L 121.984922 131.834954 
L 129.054926 131.898973 
L 130.468926 132.168049 
L 133.296927 132.168049 
L 134.710928 132.384489 
L 154.506937 132.394182 
L 155.920938 133.125882 
L 158.748939 133.125882 
L 160.162939 132.865804 
L 167.232943 132.819851 
L 170.060944 132.7482 
L 171.474945 132.7482 
L 172.888945 132.33981 
L 175.716946 132.33981 
L 177.130947 132.19793 
L 184.20095 132.242809 
L 185.614951 132.086502 
L 188.442952 132.086502 
L 189.856953 131.308472 
L 192.684954 131.308472 
L 194.098955 130.747588 
L 196.926956 130.747588 
L 198.340957 130.235371 
L 201.168958 130.235371 
L 202.582959 129.684886 
L 205.41096 129.684886 
L 206.82496 128.961796 
L 209.652962 128.961796 
L 211.066962 128.537228 
L 213.894964 128.537228 
L 215.308964 128.38378 
L 218.136965 128.38378 
L 219.550966 127.855717 
L 226.620969 127.818235 
L 228.03497 127.171686 
L 230.862971 127.171686 
L 232.276972 127.686001 
L 239.346975 127.658452 
L 240.760976 127.360287 
L 247.830979 127.366579 
L 249.244979 127.526064 
L 264.798986 127.624404 
L 273.28299 127.605173 
L 274.696991 127.484092 
L 281.766994 127.587513 
L 283.180995 127.783463 
L 294.493 127.846492 
L 295.907 127.965213 
L 298.735002 127.965213 
L 300.149002 128.200727 
L 311.461007 128.2982 
L 314.289008 128.373341 
L 324.187013 128.352252 
L 325.601014 128.503815 
L 341.155021 128.489408 
L 342.569021 128.273249 
L 349.639024 128.37422 
L 352.467026 128.478434 
L 392.059043 128.555325 
L 394.887045 128.631187 
L 413.269053 128.524574 
L 423.167057 128.476683 
L 455.689072 128.569356 
L 459.931074 128.601595 
L 461.345074 128.829295 
L 464.173076 128.829295 
L 465.587076 128.951412 
L 468.415078 128.951412 
L 469.829078 129.29734 
L 472.657079 129.29734 
L 474.07108 129.476429 
L 476.899081 129.476429 
L 478.313082 130.222715 
L 481.141083 130.222715 
L 482.555084 130.410095 
L 485.383085 130.410095 
L 486.797086 131.050363 
L 489.625087 131.050363 
L 491.039088 131.235487 
L 493.867089 131.235487 
L 495.28109 131.692844 
L 498.109091 131.692844 
L 498.109091 131.692844 
" style="fill:none;stroke:#2ca02c;stroke-linecap:round;stroke-width:1.75;"/>
   </g>
   <g id="line2d_31">
    <path clip-path="url(#p6eae5c1d2b)" d="M 72 134.905617 
L 518.4 134.905617 
" style="fill:none;stroke:#000000;stroke-dasharray:2,3.3;stroke-dashoffset:0;stroke-width:2;"/>
   </g>
   <g id="patch_3">
    <path d="M 72 137.202353 
L 72 47.52 
" style="fill:none;"/>
   </g>
   <g id="patch_4">
    <path d="M 518.4 137.202353 
L 518.4 47.52 
" style="fill:none;"/>
   </g>
   <g id="patch_5">
    <path d="M 72 137.202353 
L 518.4 137.202353 
" style="fill:none;"/>
   </g>
   <g id="patch_6">
    <path d="M 72 47.52 
L 518.4 47.52 
" style="fill:none;"/>
   </g>
   <g id="text_6">
    <!-- Heat flows [W] -->
    <defs>
     <path d="M 8.015625 0 
L 8.015625 71.578125 
L 17.484375 71.578125 
L 17.484375 42.1875 
L 54.6875 42.1875 
L 54.6875 71.578125 
L 64.15625 71.578125 
L 64.15625 0 
L 54.6875 0 
L 54.6875 33.734375 
L 17.484375 33.734375 
L 17.484375 0 
z
" id="ArialMT-72"/>
     <path d="M 40.4375 6.390625 
Q 35.546875 2.25 31.03125 0.53125 
Q 26.515625 -1.171875 21.34375 -1.171875 
Q 12.796875 -1.171875 8.203125 3 
Q 3.609375 7.171875 3.609375 13.671875 
Q 3.609375 17.484375 5.34375 20.625 
Q 7.078125 23.78125 9.890625 25.6875 
Q 12.703125 27.59375 16.21875 28.5625 
Q 18.796875 29.25 24.03125 29.890625 
Q 34.671875 31.15625 39.703125 32.90625 
Q 39.75 34.71875 39.75 35.203125 
Q 39.75 40.578125 37.25 42.78125 
Q 33.890625 45.75 27.25 45.75 
Q 21.046875 45.75 18.09375 43.578125 
Q 15.140625 41.40625 13.71875 35.890625 
L 5.125 37.0625 
Q 6.296875 42.578125 8.984375 45.96875 
Q 11.671875 49.359375 16.75 51.1875 
Q 21.828125 53.03125 28.515625 53.03125 
Q 35.15625 53.03125 39.296875 51.46875 
Q 43.453125 49.90625 45.40625 47.53125 
Q 47.359375 45.171875 48.140625 41.546875 
Q 48.578125 39.3125 48.578125 33.453125 
L 48.578125 21.734375 
Q 48.578125 9.46875 49.140625 6.21875 
Q 49.703125 2.984375 51.375 0 
L 42.1875 0 
Q 40.828125 2.734375 40.4375 6.390625 
z
M 39.703125 26.03125 
Q 34.90625 24.078125 25.34375 22.703125 
Q 19.921875 21.921875 17.671875 20.9375 
Q 15.4375 19.96875 14.203125 18.09375 
Q 12.984375 16.21875 12.984375 13.921875 
Q 12.984375 10.40625 15.640625 8.0625 
Q 18.3125 5.71875 23.4375 5.71875 
Q 28.515625 5.71875 32.46875 7.9375 
Q 36.421875 10.15625 38.28125 14.015625 
Q 39.703125 17 39.703125 22.796875 
z
" id="ArialMT-97"/>
     <path d="M 25.78125 7.859375 
L 27.046875 0.09375 
Q 23.34375 -0.6875 20.40625 -0.6875 
Q 15.625 -0.6875 12.984375 0.828125 
Q 10.359375 2.34375 9.28125 4.8125 
Q 8.203125 7.28125 8.203125 15.1875 
L 8.203125 45.015625 
L 1.765625 45.015625 
L 1.765625 51.859375 
L 8.203125 51.859375 
L 8.203125 64.703125 
L 16.9375 69.96875 
L 16.9375 51.859375 
L 25.78125 51.859375 
L 25.78125 45.015625 
L 16.9375 45.015625 
L 16.9375 14.703125 
Q 16.9375 10.9375 17.40625 9.859375 
Q 17.875 8.796875 18.921875 8.15625 
Q 19.96875 7.515625 21.921875 7.515625 
Q 23.390625 7.515625 25.78125 7.859375 
z
" id="ArialMT-116"/>
     <path id="ArialMT-32"/>
     <path d="M 8.6875 0 
L 8.6875 45.015625 
L 0.921875 45.015625 
L 0.921875 51.859375 
L 8.6875 51.859375 
L 8.6875 57.375 
Q 8.6875 62.59375 9.625 65.140625 
Q 10.890625 68.5625 14.078125 70.671875 
Q 17.28125 72.796875 23.046875 72.796875 
Q 26.765625 72.796875 31.25 71.921875 
L 29.9375 64.265625 
Q 27.203125 64.75 24.75 64.75 
Q 20.75 64.75 19.09375 63.03125 
Q 17.4375 61.328125 17.4375 56.640625 
L 17.4375 51.859375 
L 27.546875 51.859375 
L 27.546875 45.015625 
L 17.4375 45.015625 
L 17.4375 0 
z
" id="ArialMT-102"/>
     <path d="M 6.390625 0 
L 6.390625 71.578125 
L 15.1875 71.578125 
L 15.1875 0 
z
" id="ArialMT-108"/>
     <path d="M 3.328125 25.921875 
Q 3.328125 40.328125 11.328125 47.265625 
Q 18.015625 53.03125 27.640625 53.03125 
Q 38.328125 53.03125 45.109375 46.015625 
Q 51.90625 39.015625 51.90625 26.65625 
Q 51.90625 16.65625 48.90625 10.90625 
Q 45.90625 5.171875 40.15625 2 
Q 34.421875 -1.171875 27.640625 -1.171875 
Q 16.75 -1.171875 10.03125 5.8125 
Q 3.328125 12.796875 3.328125 25.921875 
z
M 12.359375 25.921875 
Q 12.359375 15.96875 16.703125 11.015625 
Q 21.046875 6.0625 27.640625 6.0625 
Q 34.1875 6.0625 38.53125 11.03125 
Q 42.875 16.015625 42.875 26.21875 
Q 42.875 35.84375 38.5 40.796875 
Q 34.125 45.75 27.640625 45.75 
Q 21.046875 45.75 16.703125 40.8125 
Q 12.359375 35.890625 12.359375 25.921875 
z
" id="ArialMT-111"/>
     <path d="M 16.15625 0 
L 0.296875 51.859375 
L 9.375 51.859375 
L 17.625 21.921875 
L 20.703125 10.796875 
Q 20.90625 11.625 23.390625 21.484375 
L 31.640625 51.859375 
L 40.671875 51.859375 
L 48.4375 21.78125 
L 51.03125 11.859375 
L 54 21.875 
L 62.890625 51.859375 
L 71.4375 51.859375 
L 55.21875 0 
L 46.09375 0 
L 37.84375 31.0625 
L 35.84375 39.890625 
L 25.34375 0 
z
" id="ArialMT-119"/>
     <path d="M 3.078125 15.484375 
L 11.765625 16.84375 
Q 12.5 11.625 15.84375 8.84375 
Q 19.1875 6.0625 25.203125 6.0625 
Q 31.25 6.0625 34.171875 8.515625 
Q 37.109375 10.984375 37.109375 14.3125 
Q 37.109375 17.28125 34.515625 19 
Q 32.71875 20.171875 25.53125 21.96875 
Q 15.875 24.421875 12.140625 26.203125 
Q 8.40625 27.984375 6.46875 31.125 
Q 4.546875 34.28125 4.546875 38.09375 
Q 4.546875 41.546875 6.125 44.5 
Q 7.71875 47.46875 10.453125 49.421875 
Q 12.5 50.921875 16.03125 51.96875 
Q 19.578125 53.03125 23.640625 53.03125 
Q 29.734375 53.03125 34.34375 51.265625 
Q 38.96875 49.515625 41.15625 46.5 
Q 43.359375 43.5 44.1875 38.484375 
L 35.59375 37.3125 
Q 35.015625 41.3125 32.203125 43.546875 
Q 29.390625 45.796875 24.265625 45.796875 
Q 18.21875 45.796875 15.625 43.796875 
Q 13.03125 41.796875 13.03125 39.109375 
Q 13.03125 37.40625 14.109375 36.03125 
Q 15.1875 34.625 17.484375 33.6875 
Q 18.796875 33.203125 25.25 31.453125 
Q 34.578125 28.953125 38.25 27.359375 
Q 41.9375 25.78125 44.03125 22.75 
Q 46.140625 19.734375 46.140625 15.234375 
Q 46.140625 10.84375 43.578125 6.953125 
Q 41.015625 3.078125 36.171875 0.953125 
Q 31.34375 -1.171875 25.25 -1.171875 
Q 15.140625 -1.171875 9.84375 3.03125 
Q 4.546875 7.234375 3.078125 15.484375 
z
" id="ArialMT-115"/>
     <path d="M 6.78125 -19.875 
L 6.78125 71.578125 
L 26.171875 71.578125 
L 26.171875 64.3125 
L 15.578125 64.3125 
L 15.578125 -12.59375 
L 26.171875 -12.59375 
L 26.171875 -19.875 
z
" id="ArialMT-91"/>
     <path d="M 20.21875 0 
L 1.21875 71.578125 
L 10.9375 71.578125 
L 21.828125 24.65625 
Q 23.578125 17.28125 24.859375 10.015625 
Q 27.59375 21.484375 28.078125 23.25 
L 41.703125 71.578125 
L 53.125 71.578125 
L 63.375 35.359375 
Q 67.234375 21.875 68.953125 10.015625 
Q 70.3125 16.796875 72.515625 25.59375 
L 83.734375 71.578125 
L 93.265625 71.578125 
L 73.640625 0 
L 64.5 0 
L 49.421875 54.546875 
Q 47.515625 61.375 47.171875 62.9375 
Q 46.046875 58.015625 45.0625 54.546875 
L 29.890625 0 
z
" id="ArialMT-87"/>
     <path d="M 21.296875 -19.875 
L 1.90625 -19.875 
L 1.90625 -12.59375 
L 12.5 -12.59375 
L 12.5 64.3125 
L 1.90625 64.3125 
L 1.90625 71.578125 
L 21.296875 71.578125 
z
" id="ArialMT-93"/>
    </defs>
    <g style="fill:#262626;" transform="translate(256.52625 41.52)scale(0.12 -0.12)">
     <use xlink:href="#ArialMT-72"/>
     <use x="72.216797" xlink:href="#ArialMT-101"/>
     <use x="127.832031" xlink:href="#ArialMT-97"/>
     <use x="183.447266" xlink:href="#ArialMT-116"/>
     <use x="211.230469" xlink:href="#ArialMT-32"/>
     <use x="239.013672" xlink:href="#ArialMT-102"/>
     <use x="266.796875" xlink:href="#ArialMT-108"/>
     <use x="289.013672" xlink:href="#ArialMT-111"/>
     <use x="344.628906" xlink:href="#ArialMT-119"/>
     <use x="416.845703" xlink:href="#ArialMT-115"/>
     <use x="466.845703" xlink:href="#ArialMT-32"/>
     <use x="494.628906" xlink:href="#ArialMT-91"/>
     <use x="522.412109" xlink:href="#ArialMT-87"/>
     <use x="616.796875" xlink:href="#ArialMT-93"/>
    </g>
   </g>
   <g id="legend_1">
    <g id="line2d_32">
     <path d="M 81 60.177812 
L 101 60.177812 
" style="fill:none;stroke:#1f77b4;stroke-linecap:round;stroke-width:1.75;"/>
    </g>
    <g id="line2d_33"/>
    <g id="text_7">
     <!-- Producer -->
     <defs>
      <path d="M 7.71875 0 
L 7.71875 71.578125 
L 34.71875 71.578125 
Q 41.84375 71.578125 45.609375 70.90625 
Q 50.875 70.015625 54.4375 67.546875 
Q 58.015625 65.09375 60.1875 60.640625 
Q 62.359375 56.203125 62.359375 50.875 
Q 62.359375 41.75 56.546875 35.421875 
Q 50.734375 29.109375 35.546875 29.109375 
L 17.1875 29.109375 
L 17.1875 0 
z
M 17.1875 37.546875 
L 35.6875 37.546875 
Q 44.875 37.546875 48.734375 40.96875 
Q 52.59375 44.390625 52.59375 50.59375 
Q 52.59375 55.078125 50.3125 58.265625 
Q 48.046875 61.46875 44.34375 62.5 
Q 41.9375 63.140625 35.5 63.140625 
L 17.1875 63.140625 
z
" id="ArialMT-80"/>
      <path d="M 6.5 0 
L 6.5 51.859375 
L 14.40625 51.859375 
L 14.40625 44 
Q 17.4375 49.515625 20 51.265625 
Q 22.5625 53.03125 25.640625 53.03125 
Q 30.078125 53.03125 34.671875 50.203125 
L 31.640625 42.046875 
Q 28.421875 43.953125 25.203125 43.953125 
Q 22.3125 43.953125 20.015625 42.21875 
Q 17.71875 40.484375 16.75 37.40625 
Q 15.28125 32.71875 15.28125 27.15625 
L 15.28125 0 
z
" id="ArialMT-114"/>
      <path d="M 40.234375 0 
L 40.234375 6.546875 
Q 35.296875 -1.171875 25.734375 -1.171875 
Q 19.53125 -1.171875 14.328125 2.25 
Q 9.125 5.671875 6.265625 11.796875 
Q 3.421875 17.921875 3.421875 25.875 
Q 3.421875 33.640625 6 39.96875 
Q 8.59375 46.296875 13.765625 49.65625 
Q 18.953125 53.03125 25.34375 53.03125 
Q 30.03125 53.03125 33.6875 51.046875 
Q 37.359375 49.078125 39.65625 45.90625 
L 39.65625 71.578125 
L 48.390625 71.578125 
L 48.390625 0 
z
M 12.453125 25.875 
Q 12.453125 15.921875 16.640625 10.984375 
Q 20.84375 6.0625 26.5625 6.0625 
Q 32.328125 6.0625 36.34375 10.765625 
Q 40.375 15.484375 40.375 25.140625 
Q 40.375 35.796875 36.265625 40.765625 
Q 32.171875 45.75 26.171875 45.75 
Q 20.3125 45.75 16.375 40.96875 
Q 12.453125 36.1875 12.453125 25.875 
z
" id="ArialMT-100"/>
      <path d="M 40.578125 0 
L 40.578125 7.625 
Q 34.515625 -1.171875 24.125 -1.171875 
Q 19.53125 -1.171875 15.546875 0.578125 
Q 11.578125 2.34375 9.640625 5 
Q 7.71875 7.671875 6.9375 11.53125 
Q 6.390625 14.109375 6.390625 19.734375 
L 6.390625 51.859375 
L 15.1875 51.859375 
L 15.1875 23.09375 
Q 15.1875 16.21875 15.71875 13.8125 
Q 16.546875 10.359375 19.234375 8.375 
Q 21.921875 6.390625 25.875 6.390625 
Q 29.828125 6.390625 33.296875 8.421875 
Q 36.765625 10.453125 38.203125 13.9375 
Q 39.65625 17.4375 39.65625 24.078125 
L 39.65625 51.859375 
L 48.4375 51.859375 
L 48.4375 0 
z
" id="ArialMT-117"/>
      <path d="M 40.4375 19 
L 49.078125 17.875 
Q 47.65625 8.9375 41.8125 3.875 
Q 35.984375 -1.171875 27.484375 -1.171875 
Q 16.84375 -1.171875 10.375 5.78125 
Q 3.90625 12.75 3.90625 25.734375 
Q 3.90625 34.125 6.6875 40.421875 
Q 9.46875 46.734375 15.15625 49.875 
Q 20.84375 53.03125 27.546875 53.03125 
Q 35.984375 53.03125 41.359375 48.75 
Q 46.734375 44.484375 48.25 36.625 
L 39.703125 35.296875 
Q 38.484375 40.53125 35.375 43.15625 
Q 32.28125 45.796875 27.875 45.796875 
Q 21.234375 45.796875 17.078125 41.03125 
Q 12.9375 36.28125 12.9375 25.984375 
Q 12.9375 15.53125 16.9375 10.796875 
Q 20.953125 6.0625 27.390625 6.0625 
Q 32.5625 6.0625 36.03125 9.234375 
Q 39.5 12.40625 40.4375 19 
z
" id="ArialMT-99"/>
     </defs>
     <g style="fill:#262626;" transform="translate(109 63.677812)scale(0.1 -0.1)">
      <use xlink:href="#ArialMT-80"/>
      <use x="66.699219" xlink:href="#ArialMT-114"/>
      <use x="100" xlink:href="#ArialMT-111"/>
      <use x="155.615234" xlink:href="#ArialMT-100"/>
      <use x="211.230469" xlink:href="#ArialMT-117"/>
      <use x="266.845703" xlink:href="#ArialMT-99"/>
      <use x="316.845703" xlink:href="#ArialMT-101"/>
      <use x="372.460938" xlink:href="#ArialMT-114"/>
     </g>
    </g>
    <g id="line2d_34">
     <path d="M 81 74.323125 
L 101 74.323125 
" style="fill:none;stroke:#000000;stroke-dasharray:1.75,2.8875;stroke-dashoffset:0;stroke-width:1.75;"/>
    </g>
    <g id="line2d_35"/>
    <g id="text_8">
     <!-- All users -->
     <defs>
      <path d="M -0.140625 0 
L 27.34375 71.578125 
L 37.546875 71.578125 
L 66.84375 0 
L 56.0625 0 
L 47.703125 21.6875 
L 17.78125 21.6875 
L 9.90625 0 
z
M 20.515625 29.390625 
L 44.78125 29.390625 
L 37.3125 49.21875 
Q 33.890625 58.25 32.234375 64.0625 
Q 30.859375 57.171875 28.375 50.390625 
z
" id="ArialMT-65"/>
     </defs>
     <g style="fill:#262626;" transform="translate(109 77.823125)scale(0.1 -0.1)">
      <use xlink:href="#ArialMT-65"/>
      <use x="66.699219" xlink:href="#ArialMT-108"/>
      <use x="88.916016" xlink:href="#ArialMT-108"/>
      <use x="111.132812" xlink:href="#ArialMT-32"/>
      <use x="138.916016" xlink:href="#ArialMT-117"/>
      <use x="194.53125" xlink:href="#ArialMT-115"/>
      <use x="244.53125" xlink:href="#ArialMT-101"/>
      <use x="300.146484" xlink:href="#ArialMT-114"/>
      <use x="333.447266" xlink:href="#ArialMT-115"/>
     </g>
    </g>
    <g id="line2d_36">
     <path d="M 81 88.468437 
L 101 88.468437 
" style="fill:none;stroke:#ff7f0e;stroke-linecap:round;stroke-width:1.75;"/>
    </g>
    <g id="line2d_37"/>
    <g id="text_9">
     <!-- WaterscheiGarden -->
     <defs>
      <path d="M 6.59375 0 
L 6.59375 71.578125 
L 15.375 71.578125 
L 15.375 45.90625 
Q 21.53125 53.03125 30.90625 53.03125 
Q 36.671875 53.03125 40.921875 50.75 
Q 45.171875 48.484375 47 44.484375 
Q 48.828125 40.484375 48.828125 32.859375 
L 48.828125 0 
L 40.046875 0 
L 40.046875 32.859375 
Q 40.046875 39.453125 37.1875 42.453125 
Q 34.328125 45.453125 29.109375 45.453125 
Q 25.203125 45.453125 21.75 43.421875 
Q 18.3125 41.40625 16.84375 37.9375 
Q 15.375 34.46875 15.375 28.375 
L 15.375 0 
z
" id="ArialMT-104"/>
      <path d="M 6.640625 61.46875 
L 6.640625 71.578125 
L 15.4375 71.578125 
L 15.4375 61.46875 
z
M 6.640625 0 
L 6.640625 51.859375 
L 15.4375 51.859375 
L 15.4375 0 
z
" id="ArialMT-105"/>
      <path d="M 41.21875 28.078125 
L 41.21875 36.46875 
L 71.53125 36.53125 
L 71.53125 9.96875 
Q 64.546875 4.390625 57.125 1.578125 
Q 49.703125 -1.21875 41.890625 -1.21875 
Q 31.34375 -1.21875 22.71875 3.296875 
Q 14.109375 7.8125 9.71875 16.359375 
Q 5.328125 24.90625 5.328125 35.453125 
Q 5.328125 45.90625 9.6875 54.953125 
Q 14.0625 64.015625 22.265625 68.40625 
Q 30.46875 72.796875 41.15625 72.796875 
Q 48.921875 72.796875 55.1875 70.28125 
Q 61.46875 67.78125 65.03125 63.28125 
Q 68.609375 58.796875 70.453125 51.5625 
L 61.921875 49.21875 
Q 60.296875 54.6875 57.90625 57.8125 
Q 55.515625 60.9375 51.0625 62.8125 
Q 46.625 64.703125 41.21875 64.703125 
Q 34.71875 64.703125 29.984375 62.71875 
Q 25.25 60.75 22.34375 57.515625 
Q 19.4375 54.296875 17.828125 50.4375 
Q 15.09375 43.796875 15.09375 36.03125 
Q 15.09375 26.46875 18.390625 20.015625 
Q 21.6875 13.578125 27.984375 10.453125 
Q 34.28125 7.328125 41.359375 7.328125 
Q 47.515625 7.328125 53.375 9.6875 
Q 59.234375 12.0625 62.25 14.75 
L 62.25 28.078125 
z
" id="ArialMT-71"/>
      <path d="M 6.59375 0 
L 6.59375 51.859375 
L 14.5 51.859375 
L 14.5 44.484375 
Q 20.21875 53.03125 31 53.03125 
Q 35.6875 53.03125 39.625 51.34375 
Q 43.5625 49.65625 45.515625 46.921875 
Q 47.46875 44.1875 48.25 40.4375 
Q 48.734375 37.984375 48.734375 31.890625 
L 48.734375 0 
L 39.9375 0 
L 39.9375 31.546875 
Q 39.9375 36.921875 38.90625 39.578125 
Q 37.890625 42.234375 35.28125 43.8125 
Q 32.671875 45.40625 29.15625 45.40625 
Q 23.53125 45.40625 19.453125 41.84375 
Q 15.375 38.28125 15.375 28.328125 
L 15.375 0 
z
" id="ArialMT-110"/>
     </defs>
     <g style="fill:#262626;" transform="translate(109 91.968437)scale(0.1 -0.1)">
      <use xlink:href="#ArialMT-87"/>
      <use x="94.337891" xlink:href="#ArialMT-97"/>
      <use x="149.953125" xlink:href="#ArialMT-116"/>
      <use x="177.736328" xlink:href="#ArialMT-101"/>
      <use x="233.351562" xlink:href="#ArialMT-114"/>
      <use x="266.652344" xlink:href="#ArialMT-115"/>
      <use x="316.652344" xlink:href="#ArialMT-99"/>
      <use x="366.652344" xlink:href="#ArialMT-104"/>
      <use x="422.267578" xlink:href="#ArialMT-101"/>
      <use x="477.882812" xlink:href="#ArialMT-105"/>
      <use x="500.099609" xlink:href="#ArialMT-71"/>
      <use x="577.882812" xlink:href="#ArialMT-97"/>
      <use x="633.498047" xlink:href="#ArialMT-114"/>
      <use x="666.798828" xlink:href="#ArialMT-100"/>
      <use x="722.414062" xlink:href="#ArialMT-101"/>
      <use x="778.029297" xlink:href="#ArialMT-110"/>
     </g>
    </g>
    <g id="line2d_38">
     <path d="M 81 102.61375 
L 101 102.61375 
" style="fill:none;stroke:#2ca02c;stroke-linecap:round;stroke-width:1.75;"/>
    </g>
    <g id="line2d_39"/>
    <g id="text_10">
     <!-- ZwartbergNEast -->
     <defs>
      <path d="M 2 0 
L 2 8.796875 
L 38.671875 54.640625 
Q 42.578125 59.515625 46.09375 63.140625 
L 6.15625 63.140625 
L 6.15625 71.578125 
L 57.421875 71.578125 
L 57.421875 63.140625 
L 17.234375 13.484375 
L 12.890625 8.453125 
L 58.59375 8.453125 
L 58.59375 0 
z
" id="ArialMT-90"/>
      <path d="M 14.703125 0 
L 6.546875 0 
L 6.546875 71.578125 
L 15.328125 71.578125 
L 15.328125 46.046875 
Q 20.90625 53.03125 29.546875 53.03125 
Q 34.328125 53.03125 38.59375 51.09375 
Q 42.875 49.171875 45.625 45.671875 
Q 48.390625 42.1875 49.953125 37.25 
Q 51.515625 32.328125 51.515625 26.703125 
Q 51.515625 13.375 44.921875 6.09375 
Q 38.328125 -1.171875 29.109375 -1.171875 
Q 19.921875 -1.171875 14.703125 6.5 
z
M 14.59375 26.3125 
Q 14.59375 17 17.140625 12.84375 
Q 21.296875 6.0625 28.375 6.0625 
Q 34.125 6.0625 38.328125 11.0625 
Q 42.53125 16.0625 42.53125 25.984375 
Q 42.53125 36.140625 38.5 40.96875 
Q 34.46875 45.796875 28.765625 45.796875 
Q 23 45.796875 18.796875 40.796875 
Q 14.59375 35.796875 14.59375 26.3125 
z
" id="ArialMT-98"/>
      <path d="M 4.984375 -4.296875 
L 13.53125 -5.5625 
Q 14.0625 -9.515625 16.5 -11.328125 
Q 19.78125 -13.765625 25.4375 -13.765625 
Q 31.546875 -13.765625 34.859375 -11.328125 
Q 38.1875 -8.890625 39.359375 -4.5 
Q 40.046875 -1.8125 39.984375 6.78125 
Q 34.234375 0 25.640625 0 
Q 14.9375 0 9.078125 7.71875 
Q 3.21875 15.4375 3.21875 26.21875 
Q 3.21875 33.640625 5.90625 39.90625 
Q 8.59375 46.1875 13.6875 49.609375 
Q 18.796875 53.03125 25.6875 53.03125 
Q 34.859375 53.03125 40.828125 45.609375 
L 40.828125 51.859375 
L 48.921875 51.859375 
L 48.921875 7.03125 
Q 48.921875 -5.078125 46.453125 -10.125 
Q 44 -15.1875 38.640625 -18.109375 
Q 33.296875 -21.046875 25.484375 -21.046875 
Q 16.21875 -21.046875 10.5 -16.875 
Q 4.78125 -12.703125 4.984375 -4.296875 
z
M 12.25 26.859375 
Q 12.25 16.65625 16.296875 11.96875 
Q 20.359375 7.28125 26.46875 7.28125 
Q 32.515625 7.28125 36.609375 11.9375 
Q 40.71875 16.609375 40.71875 26.5625 
Q 40.71875 36.078125 36.5 40.90625 
Q 32.28125 45.75 26.3125 45.75 
Q 20.453125 45.75 16.34375 40.984375 
Q 12.25 36.234375 12.25 26.859375 
z
" id="ArialMT-103"/>
      <path d="M 7.625 0 
L 7.625 71.578125 
L 17.328125 71.578125 
L 54.9375 15.375 
L 54.9375 71.578125 
L 64.015625 71.578125 
L 64.015625 0 
L 54.296875 0 
L 16.703125 56.25 
L 16.703125 0 
z
" id="ArialMT-78"/>
      <path d="M 7.90625 0 
L 7.90625 71.578125 
L 59.671875 71.578125 
L 59.671875 63.140625 
L 17.390625 63.140625 
L 17.390625 41.21875 
L 56.984375 41.21875 
L 56.984375 32.8125 
L 17.390625 32.8125 
L 17.390625 8.453125 
L 61.328125 8.453125 
L 61.328125 0 
z
" id="ArialMT-69"/>
     </defs>
     <g style="fill:#262626;" transform="translate(109 106.11375)scale(0.1 -0.1)">
      <use xlink:href="#ArialMT-90"/>
      <use x="61.083984" xlink:href="#ArialMT-119"/>
      <use x="133.300781" xlink:href="#ArialMT-97"/>
      <use x="188.916016" xlink:href="#ArialMT-114"/>
      <use x="222.216797" xlink:href="#ArialMT-116"/>
      <use x="250" xlink:href="#ArialMT-98"/>
      <use x="305.615234" xlink:href="#ArialMT-101"/>
      <use x="361.230469" xlink:href="#ArialMT-114"/>
      <use x="394.53125" xlink:href="#ArialMT-103"/>
      <use x="450.146484" xlink:href="#ArialMT-78"/>
      <use x="522.363281" xlink:href="#ArialMT-69"/>
      <use x="589.0625" xlink:href="#ArialMT-97"/>
      <use x="644.677734" xlink:href="#ArialMT-115"/>
      <use x="694.677734" xlink:href="#ArialMT-116"/>
     </g>
    </g>
   </g>
  </g>
  <g id="axes_2">
   <g id="patch_7">
    <path d="M 72 244.821176 
L 518.4 244.821176 
L 518.4 155.138824 
L 72 155.138824 
z
" style="fill:#eaeaf2;"/>
   </g>
   <g id="matplotlib.axis_3">
    <g id="xtick_10">
     <g id="line2d_40">
      <path clip-path="url(#p2afb818d39)" d="M 92.290909 244.821176 
L 92.290909 155.138824 
" style="fill:none;stroke:#ffffff;stroke-linecap:round;"/>
     </g>
     <g id="line2d_41"/>
    </g>
    <g id="xtick_11">
     <g id="line2d_42">
      <path clip-path="url(#p2afb818d39)" d="M 143.194932 244.821176 
L 143.194932 155.138824 
" style="fill:none;stroke:#ffffff;stroke-linecap:round;"/>
     </g>
     <g id="line2d_43"/>
    </g>
    <g id="xtick_12">
     <g id="line2d_44">
      <path clip-path="url(#p2afb818d39)" d="M 194.098955 244.821176 
L 194.098955 155.138824 
" style="fill:none;stroke:#ffffff;stroke-linecap:round;"/>
     </g>
     <g id="line2d_45"/>
    </g>
    <g id="xtick_13">
     <g id="line2d_46">
      <path clip-path="url(#p2afb818d39)" d="M 245.002977 244.821176 
L 245.002977 155.138824 
" style="fill:none;stroke:#ffffff;stroke-linecap:round;"/>
     </g>
     <g id="line2d_47"/>
    </g>
    <g id="xtick_14">
     <g id="line2d_48">
      <path clip-path="url(#p2afb818d39)" d="M 295.907 244.821176 
L 295.907 155.138824 
" style="fill:none;stroke:#ffffff;stroke-linecap:round;"/>
     </g>
     <g id="line2d_49"/>
    </g>
    <g id="xtick_15">
     <g id="line2d_50">
      <path clip-path="url(#p2afb818d39)" d="M 346.811023 244.821176 
L 346.811023 155.138824 
" style="fill:none;stroke:#ffffff;stroke-linecap:round;"/>
     </g>
     <g id="line2d_51"/>
    </g>
    <g id="xtick_16">
     <g id="line2d_52">
      <path clip-path="url(#p2afb818d39)" d="M 397.715046 244.821176 
L 397.715046 155.138824 
" style="fill:none;stroke:#ffffff;stroke-linecap:round;"/>
     </g>
     <g id="line2d_53"/>
    </g>
    <g id="xtick_17">
     <g id="line2d_54">
      <path clip-path="url(#p2afb818d39)" d="M 448.619069 244.821176 
L 448.619069 155.138824 
" style="fill:none;stroke:#ffffff;stroke-linecap:round;"/>
     </g>
     <g id="line2d_55"/>
    </g>
    <g id="xtick_18">
     <g id="line2d_56">
      <path clip-path="url(#p2afb818d39)" d="M 499.523091 244.821176 
L 499.523091 155.138824 
" style="fill:none;stroke:#ffffff;stroke-linecap:round;"/>
     </g>
     <g id="line2d_57"/>
    </g>
   </g>
   <g id="matplotlib.axis_4">
    <g id="ytick_5">
     <g id="line2d_58">
      <path clip-path="url(#p2afb818d39)" d="M 72 244.478608 
L 518.4 244.478608 
" style="fill:none;stroke:#ffffff;stroke-linecap:round;"/>
     </g>
     <g id="line2d_59"/>
     <g id="text_11">
      <!-- 0 -->
      <g style="fill:#262626;" transform="translate(59.439062 248.057515)scale(0.1 -0.1)">
       <use xlink:href="#ArialMT-48"/>
      </g>
     </g>
    </g>
    <g id="ytick_6">
     <g id="line2d_60">
      <path clip-path="url(#p2afb818d39)" d="M 72 219.655487 
L 518.4 219.655487 
" style="fill:none;stroke:#ffffff;stroke-linecap:round;"/>
     </g>
     <g id="line2d_61"/>
     <g id="text_12">
      <!-- 100 -->
      <g style="fill:#262626;" transform="translate(48.317188 223.234393)scale(0.1 -0.1)">
       <use xlink:href="#ArialMT-49"/>
       <use x="55.615234" xlink:href="#ArialMT-48"/>
       <use x="111.230469" xlink:href="#ArialMT-48"/>
      </g>
     </g>
    </g>
    <g id="ytick_7">
     <g id="line2d_62">
      <path clip-path="url(#p2afb818d39)" d="M 72 194.832366 
L 518.4 194.832366 
" style="fill:none;stroke:#ffffff;stroke-linecap:round;"/>
     </g>
     <g id="line2d_63"/>
     <g id="text_13">
      <!-- 200 -->
      <g style="fill:#262626;" transform="translate(48.317188 198.411272)scale(0.1 -0.1)">
       <use xlink:href="#ArialMT-50"/>
       <use x="55.615234" xlink:href="#ArialMT-48"/>
       <use x="111.230469" xlink:href="#ArialMT-48"/>
      </g>
     </g>
    </g>
    <g id="ytick_8">
     <g id="line2d_64">
      <path clip-path="url(#p2afb818d39)" d="M 72 170.009244 
L 518.4 170.009244 
" style="fill:none;stroke:#ffffff;stroke-linecap:round;"/>
     </g>
     <g id="line2d_65"/>
     <g id="text_14">
      <!-- 300 -->
      <defs>
       <path d="M 4.203125 18.890625 
L 12.984375 20.0625 
Q 14.5 12.59375 18.140625 9.296875 
Q 21.78125 6 27 6 
Q 33.203125 6 37.46875 10.296875 
Q 41.75 14.59375 41.75 20.953125 
Q 41.75 27 37.796875 30.921875 
Q 33.84375 34.859375 27.734375 34.859375 
Q 25.25 34.859375 21.53125 33.890625 
L 22.515625 41.609375 
Q 23.390625 41.5 23.921875 41.5 
Q 29.546875 41.5 34.03125 44.421875 
Q 38.53125 47.359375 38.53125 53.46875 
Q 38.53125 58.296875 35.25 61.46875 
Q 31.984375 64.65625 26.8125 64.65625 
Q 21.6875 64.65625 18.265625 61.421875 
Q 14.84375 58.203125 13.875 51.765625 
L 5.078125 53.328125 
Q 6.6875 62.15625 12.390625 67.015625 
Q 18.109375 71.875 26.609375 71.875 
Q 32.46875 71.875 37.390625 69.359375 
Q 42.328125 66.84375 44.9375 62.5 
Q 47.5625 58.15625 47.5625 53.265625 
Q 47.5625 48.640625 45.0625 44.828125 
Q 42.578125 41.015625 37.703125 38.765625 
Q 44.046875 37.3125 47.5625 32.6875 
Q 51.078125 28.078125 51.078125 21.140625 
Q 51.078125 11.765625 44.234375 5.25 
Q 37.40625 -1.265625 26.953125 -1.265625 
Q 17.53125 -1.265625 11.296875 4.34375 
Q 5.078125 9.96875 4.203125 18.890625 
z
" id="ArialMT-51"/>
      </defs>
      <g style="fill:#262626;" transform="translate(48.317188 173.588151)scale(0.1 -0.1)">
       <use xlink:href="#ArialMT-51"/>
       <use x="55.615234" xlink:href="#ArialMT-48"/>
       <use x="111.230469" xlink:href="#ArialMT-48"/>
      </g>
     </g>
    </g>
   </g>
   <g id="line2d_66">
    <path clip-path="url(#p2afb818d39)" d="M 92.290909 191.956166 
L 95.11891 191.882464 
L 96.532911 193.501582 
L 99.360912 193.458605 
L 100.774913 194.580893 
L 103.602914 194.558532 
L 105.016915 198.364006 
L 107.844916 198.350357 
L 109.258917 199.336867 
L 112.086918 199.328947 
L 113.500919 200.82255 
L 116.32892 200.816902 
L 117.74292 202.466941 
L 120.570922 202.462073 
L 121.984922 203.856504 
L 124.812924 203.852131 
L 126.226924 204.048175 
L 129.054926 204.045329 
L 130.468926 204.83971 
L 133.296927 204.836935 
L 134.710928 206.837341 
L 137.538929 206.833271 
L 138.95293 208.056144 
L 150.264935 208.092099 
L 151.678936 207.548373 
L 154.506937 207.54813 
L 155.920938 221.502821 
L 158.748939 221.491283 
L 160.162939 219.354241 
L 162.990941 219.346336 
L 164.404941 217.671621 
L 167.232943 217.667409 
L 168.646943 216.105028 
L 171.474945 216.104314 
L 172.888945 212.076316 
L 175.716946 212.082625 
L 177.130947 211.110859 
L 179.958948 211.117472 
L 181.372949 209.684429 
L 184.20095 209.69096 
L 185.614951 208.558944 
L 188.442952 208.564966 
L 189.856953 203.357789 
L 192.684954 203.370953 
L 194.098955 198.293585 
L 196.926956 198.310588 
L 198.340957 192.500546 
L 201.168958 192.519661 
L 202.582959 186.15179 
L 205.41096 186.171393 
L 206.82496 180.794015 
L 209.652962 180.811089 
L 211.066962 175.272707 
L 213.894964 175.287027 
L 215.308964 175.433768 
L 218.136965 175.439214 
L 219.550966 170.341999 
L 222.378967 170.34991 
L 223.792968 166.255081 
L 226.620969 166.262382 
L 228.03497 159.215294 
L 230.862971 159.225831 
L 232.276972 165.298464 
L 235.104973 165.295748 
L 236.518974 164.855608 
L 239.346975 164.85477 
L 240.760976 163.616654 
L 243.588977 163.617874 
L 245.002977 162.215063 
L 247.830979 162.216858 
L 249.244979 163.444894 
L 252.072981 184.697076 
L 253.486981 193.593404 
L 254.900982 198.919987 
L 256.314983 202.76143 
L 257.728983 205.212967 
L 259.142984 207.390142 
L 260.556984 209.06281 
L 261.970985 210.321509 
L 263.384986 211.356645 
L 264.798986 212.183787 
L 266.212987 213.48044 
L 269.040988 214.430626 
L 270.454989 214.900161 
L 273.28299 215.424315 
L 274.696991 215.901584 
L 281.766994 216.628986 
L 283.180995 217.533283 
L 290.250998 217.674087 
L 291.664998 217.578361 
L 295.907 217.725897 
L 297.321001 217.328024 
L 298.735002 216.649977 
L 300.149002 216.324788 
L 301.563003 215.077749 
L 302.977003 213.492942 
L 304.391004 211.397903 
L 305.805005 209.02603 
L 307.219005 206.232037 
L 308.633006 204.19538 
L 311.461007 197.149034 
L 315.703009 186.469944 
L 318.53101 181.738754 
L 319.945011 179.833034 
L 322.773012 177.690473 
L 324.187013 176.959677 
L 325.601014 177.633814 
L 329.843015 176.708207 
L 332.671017 176.542446 
L 334.085017 176.95726 
L 336.913019 176.910431 
L 338.327019 176.71898 
L 341.155021 176.706138 
L 342.569021 175.579335 
L 349.639024 175.469345 
L 351.053025 176.390218 
L 353.881026 176.389159 
L 355.295027 176.209744 
L 358.123028 176.209524 
L 359.537029 175.817274 
L 362.36503 175.81766 
L 363.779031 175.962202 
L 366.607032 175.962224 
L 368.021033 176.392345 
L 370.849034 176.391765 
L 372.263034 175.930407 
L 375.091036 175.930792 
L 376.505036 176.081642 
L 379.333038 176.081574 
L 380.747038 175.519236 
L 383.57504 175.51973 
L 384.98904 175.982366 
L 387.817041 175.98212 
L 389.231042 175.687658 
L 392.059043 175.687782 
L 393.473044 176.159654 
L 400.543047 176.059133 
L 401.957048 175.686321 
L 404.785049 175.686745 
L 406.19905 174.97301 
L 413.269053 174.962435 
L 414.683053 174.815827 
L 417.511055 174.816141 
L 418.925055 175.250727 
L 421.753057 175.250432 
L 423.167057 175.057767 
L 430.23706 175.023765 
L 431.651061 175.28879 
L 434.479062 175.288554 
L 435.893063 175.478837 
L 438.721064 175.478495 
L 440.135065 175.658242 
L 442.963066 175.657854 
L 444.377067 175.908297 
L 447.205068 175.90792 
L 448.619069 175.594178 
L 451.44707 175.594395 
L 452.861071 176.910621 
L 455.689072 176.909338 
L 457.103073 177.194505 
L 459.931074 177.193612 
L 461.345074 182.918602 
L 464.173076 196.314653 
L 465.587076 201.986501 
L 467.001077 204.977408 
L 468.415078 206.452816 
L 469.829078 208.583438 
L 471.243079 208.319277 
L 472.657079 207.510379 
L 474.07108 207.089673 
L 475.485081 205.525308 
L 476.899081 203.664098 
L 478.313082 206.987977 
L 481.141083 203.543882 
L 482.555084 204.210836 
L 485.383085 201.386563 
L 486.797086 205.038009 
L 489.625087 203.451853 
L 491.039088 204.369352 
L 493.867089 203.503578 
L 495.28109 207.801973 
L 498.109091 207.427555 
L 498.109091 207.427555 
" style="fill:none;stroke:#1f77b4;stroke-linecap:round;stroke-width:1.75;"/>
   </g>
   <g id="line2d_67">
    <path clip-path="url(#p2afb818d39)" d="M 92.290909 201.574001 
L 95.11891 201.517882 
L 96.532911 202.123453 
L 99.360912 202.090417 
L 100.774913 203.156355 
L 103.602914 203.139658 
L 105.016915 206.147783 
L 107.844916 206.137823 
L 109.258917 206.930814 
L 112.086918 206.92517 
L 113.500919 208.040948 
L 116.32892 208.037006 
L 117.74292 209.3548 
L 120.570922 209.351339 
L 121.984922 210.421606 
L 129.054926 210.470106 
L 130.468926 210.666085 
L 133.296927 210.664563 
L 134.710928 212.186653 
L 137.538929 212.183939 
L 138.95293 213.401342 
L 141.780931 213.398368 
L 143.194932 213.266269 
L 146.022933 213.264544 
L 147.436934 213.509308 
L 150.264935 213.508134 
L 151.678936 212.880967 
L 154.506937 212.881006 
L 155.920938 225.236724 
L 158.748939 225.227354 
L 160.162939 223.656458 
L 162.990941 223.64985 
L 164.404941 222.076054 
L 167.232943 222.072706 
L 168.646943 220.667435 
L 171.474945 220.667055 
L 172.888945 217.538609 
L 175.716946 217.543384 
L 177.130947 216.885576 
L 179.958948 216.890406 
L 181.372949 215.356994 
L 184.20095 215.362391 
L 185.614951 214.577175 
L 188.442952 214.581725 
L 189.856953 211.121771 
L 192.684954 211.130208 
L 194.098955 207.329362 
L 196.926956 207.340703 
L 198.340957 202.708355 
L 201.168958 202.721781 
L 202.582959 197.632467 
L 205.41096 197.646528 
L 206.82496 193.968922 
L 209.652962 193.980424 
L 211.066962 189.449264 
L 213.894964 189.459493 
L 215.308964 189.971429 
L 218.136965 189.974893 
L 219.550966 186.145228 
L 222.378967 186.150656 
L 223.792968 182.145352 
L 226.620969 182.151224 
L 228.03497 176.671926 
L 230.862971 176.679698 
L 232.276972 181.502896 
L 235.104973 181.500822 
L 236.518974 181.127531 
L 239.346975 181.126905 
L 240.760976 180.611915 
L 243.588977 180.612493 
L 245.002977 179.194154 
L 247.830979 179.195616 
L 249.244979 180.036433 
L 252.072981 197.436089 
L 253.486981 204.795121 
L 254.900982 208.975153 
L 256.314983 211.97305 
L 259.142984 215.45614 
L 260.556984 216.752158 
L 263.384986 218.425615 
L 264.798986 219.06196 
L 266.212987 220.190902 
L 270.454989 221.316098 
L 273.28299 221.70382 
L 274.696991 222.232358 
L 281.766994 222.710818 
L 283.180995 223.433736 
L 286.008996 223.495284 
L 288.836997 223.426396 
L 295.907 223.432268 
L 297.321001 223.102898 
L 298.735002 222.543579 
L 300.149002 222.178164 
L 301.563003 221.146559 
L 302.977003 219.835809 
L 304.391004 218.084095 
L 305.805005 216.119946 
L 307.219005 213.807584 
L 308.633006 212.192455 
L 311.461007 206.427737 
L 314.289008 200.475545 
L 315.703009 197.773064 
L 317.11701 196.157827 
L 318.53101 194.32717 
L 319.945011 192.921354 
L 322.773012 191.508043 
L 324.187013 191.0105 
L 325.601014 191.500237 
L 329.843015 190.807718 
L 332.671017 190.708977 
L 334.085017 191.201662 
L 336.913019 191.176246 
L 338.327019 190.989387 
L 341.155021 190.98313 
L 342.569021 190.374824 
L 345.397022 190.374102 
L 346.811023 190.025393 
L 349.639024 190.025619 
L 351.053025 190.697689 
L 358.123028 190.618832 
L 359.537029 190.343467 
L 362.36503 190.34373 
L 363.779031 190.466464 
L 379.333038 190.407061 
L 380.747038 189.749523 
L 383.57504 189.750078 
L 384.98904 190.217597 
L 387.817041 190.21739 
L 389.231042 189.812539 
L 392.059043 189.812755 
L 393.473044 190.103939 
L 400.543047 190.052399 
L 401.957048 189.836136 
L 404.785049 189.836391 
L 406.19905 189.141334 
L 417.511055 189.061991 
L 418.925055 189.543725 
L 421.753057 189.543394 
L 423.167057 189.369932 
L 430.23706 189.37763 
L 431.651061 189.62736 
L 438.721064 189.714226 
L 442.963066 189.740069 
L 444.377067 190.05435 
L 447.205068 190.054013 
L 448.619069 189.857438 
L 451.44707 189.857544 
L 452.861071 191.002075 
L 455.689072 191.001036 
L 457.103073 191.20949 
L 459.931074 191.208821 
L 461.345074 195.843081 
L 464.173076 206.715632 
L 465.587076 211.141973 
L 467.001077 213.497141 
L 468.415078 214.627182 
L 469.829078 216.141545 
L 471.243079 215.876795 
L 472.657079 215.170168 
L 474.07108 214.673614 
L 475.485081 213.349738 
L 476.899081 211.784816 
L 478.313082 214.214625 
L 481.141083 211.331085 
L 482.555084 211.946494 
L 485.383085 209.647078 
L 486.797086 212.257527 
L 489.625087 210.984679 
L 491.039088 211.646256 
L 493.867089 210.978785 
L 495.28109 214.368758 
L 498.109091 214.092092 
L 498.109091 214.092092 
" style="fill:none;stroke:#ff7f0e;stroke-linecap:round;stroke-width:1.75;"/>
   </g>
   <g id="line2d_68">
    <path clip-path="url(#p2afb818d39)" d="M 92.290909 234.860773 
L 95.11891 234.84319 
L 96.532911 235.856737 
L 103.602914 235.897483 
L 105.016915 236.694832 
L 107.844916 236.691142 
L 109.258917 236.884661 
L 112.086918 236.882385 
L 113.500919 237.260211 
L 116.32892 237.258504 
L 117.74292 237.59075 
L 120.570922 237.589342 
L 121.984922 237.913507 
L 124.812924 237.912247 
L 126.226924 238.05477 
L 129.054926 238.053831 
L 130.468926 238.652234 
L 133.296927 238.650981 
L 134.710928 239.129297 
L 154.506937 239.145732 
L 155.920938 240.744706 
L 158.748939 240.742537 
L 160.162939 240.176391 
L 167.232943 240.073312 
L 168.646943 239.916201 
L 171.474945 239.915867 
L 172.888945 239.016315 
L 175.716946 239.01785 
L 177.130947 238.703892 
L 184.20095 238.807178 
L 185.614951 238.460377 
L 188.442952 238.46185 
L 189.856953 236.714627 
L 192.684954 236.719353 
L 194.098955 235.442831 
L 196.926956 235.448493 
L 198.340957 234.270799 
L 201.168958 234.276488 
L 202.582959 232.997931 
L 205.41096 233.003474 
L 206.82496 231.303702 
L 209.652962 231.309273 
L 211.066962 230.302052 
L 213.894964 230.306142 
L 215.308964 229.940948 
L 218.136965 229.942929 
L 219.550966 228.675379 
L 226.620969 228.589766 
L 228.03497 227.021977 
L 230.862971 227.024742 
L 232.276972 228.274177 
L 239.346975 228.206474 
L 240.760976 227.483347 
L 247.830979 227.49985 
L 249.244979 227.887069 
L 253.486981 233.276892 
L 254.900982 234.423443 
L 256.314983 235.266988 
L 257.728983 235.92989 
L 260.556984 236.78926 
L 261.970985 237.174768 
L 266.212987 237.768147 
L 270.454989 238.062672 
L 273.28299 238.199103 
L 276.110991 238.192821 
L 281.766994 238.396777 
L 283.180995 238.578155 
L 297.321001 238.703734 
L 298.735002 238.585007 
L 300.149002 238.625232 
L 302.977003 238.135742 
L 305.805005 237.384692 
L 310.047007 235.871928 
L 318.53101 231.890193 
L 321.359012 230.97304 
L 324.187013 230.427785 
L 325.601014 230.612186 
L 328.429015 230.413115 
L 341.155021 230.201617 
L 342.569021 229.683119 
L 345.397022 229.681622 
L 346.811023 229.922905 
L 349.639024 229.922334 
L 351.053025 230.171137 
L 358.123028 230.0693 
L 359.537029 229.952415 
L 366.607032 229.974365 
L 368.021033 230.313001 
L 370.849034 230.312666 
L 372.263034 229.933869 
L 375.091036 229.934135 
L 376.505036 230.153237 
L 387.817041 230.243339 
L 390.645043 230.35367 
L 392.059043 230.353635 
L 393.473044 230.534323 
L 400.543047 230.485342 
L 401.957048 230.328793 
L 417.511055 230.232759 
L 421.753057 230.185646 
L 433.065062 230.140028 
L 438.721064 230.242877 
L 440.135065 230.396595 
L 447.205068 230.332516 
L 448.619069 230.215348 
L 451.44707 230.215459 
L 452.861071 230.387154 
L 459.931074 230.4634 
L 461.345074 231.554129 
L 465.587076 235.323137 
L 467.001077 235.958875 
L 468.415078 236.304242 
L 469.829078 236.920502 
L 474.07108 236.894667 
L 476.899081 236.35789 
L 478.313082 237.25196 
L 481.141083 236.691405 
L 482.555084 236.742951 
L 485.383085 236.218094 
L 486.797086 237.259091 
L 489.625087 236.945782 
L 491.039088 237.201704 
L 493.867089 237.003401 
L 495.28109 237.911824 
L 498.109091 237.814072 
L 498.109091 237.814072 
" style="fill:none;stroke:#2ca02c;stroke-linecap:round;stroke-width:1.75;"/>
   </g>
   <g id="line2d_69">
    <path clip-path="url(#p2afb818d39)" d="M 92.290909 191.956166 
L 95.11891 191.882464 
L 96.532911 193.501582 
L 99.360912 193.458605 
L 100.774913 194.580893 
L 103.602914 194.558532 
L 105.016915 198.364006 
L 107.844916 198.350357 
L 109.258917 199.336867 
L 112.086918 199.328947 
L 113.500919 200.82255 
L 116.32892 200.816902 
L 117.74292 202.466941 
L 120.570922 202.462073 
L 121.984922 203.856504 
L 124.812924 203.852131 
L 126.226924 204.048175 
L 129.054926 204.045329 
L 130.468926 204.83971 
L 133.296927 204.836935 
L 134.710928 206.837341 
L 137.538929 206.833271 
L 138.95293 208.056144 
L 150.264935 208.092099 
L 151.678936 207.548373 
L 154.506937 207.54813 
L 155.920938 221.502821 
L 158.748939 221.491283 
L 160.162939 219.354241 
L 162.990941 219.346336 
L 164.404941 217.671621 
L 167.232943 217.667409 
L 168.646943 216.105028 
L 171.474945 216.104314 
L 172.888945 212.076316 
L 175.716946 212.082625 
L 177.130947 211.110859 
L 179.958948 211.117472 
L 181.372949 209.684429 
L 184.20095 209.69096 
L 185.614951 208.558944 
L 188.442952 208.564966 
L 189.856953 203.357789 
L 192.684954 203.370953 
L 194.098955 198.293585 
L 196.926956 198.310588 
L 198.340957 192.500546 
L 201.168958 192.519661 
L 202.582959 186.15179 
L 205.41096 186.171393 
L 206.82496 180.794015 
L 209.652962 180.811089 
L 211.066962 175.272707 
L 213.894964 175.287027 
L 215.308964 175.433768 
L 218.136965 175.439214 
L 219.550966 170.341999 
L 222.378967 170.34991 
L 223.792968 166.255081 
L 226.620969 166.262382 
L 228.03497 159.215294 
L 230.862971 159.225831 
L 232.276972 165.298464 
L 235.104973 165.295748 
L 236.518974 164.855608 
L 239.346975 164.85477 
L 240.760976 163.616654 
L 243.588977 163.617874 
L 245.002977 162.215063 
L 247.830979 162.216858 
L 249.244979 163.444894 
L 252.072981 184.697076 
L 253.486981 193.593404 
L 254.900982 198.919987 
L 256.314983 202.76143 
L 257.728983 205.212967 
L 259.142984 207.390142 
L 260.556984 209.06281 
L 261.970985 210.321509 
L 263.384986 211.356645 
L 264.798986 212.183787 
L 266.212987 213.48044 
L 269.040988 214.430626 
L 270.454989 214.900161 
L 273.28299 215.424315 
L 274.696991 215.901584 
L 281.766994 216.628986 
L 283.180995 217.533283 
L 290.250998 217.674087 
L 291.664998 217.578361 
L 295.907 217.725897 
L 297.321001 217.328024 
L 298.735002 216.649977 
L 300.149002 216.324788 
L 301.563003 215.077749 
L 302.977003 213.492942 
L 304.391004 211.397903 
L 305.805005 209.02603 
L 307.219005 206.232037 
L 308.633006 204.19538 
L 311.461007 197.149034 
L 315.703009 186.469944 
L 318.53101 181.738754 
L 319.945011 179.833034 
L 322.773012 177.690473 
L 324.187013 176.959677 
L 325.601014 177.633814 
L 329.843015 176.708207 
L 332.671017 176.542446 
L 334.085017 176.95726 
L 336.913019 176.910431 
L 338.327019 176.71898 
L 341.155021 176.706138 
L 342.569021 175.579335 
L 349.639024 175.469345 
L 351.053025 176.390218 
L 353.881026 176.389159 
L 355.295027 176.209744 
L 358.123028 176.209524 
L 359.537029 175.817274 
L 362.36503 175.81766 
L 363.779031 175.962202 
L 366.607032 175.962224 
L 368.021033 176.392345 
L 370.849034 176.391765 
L 372.263034 175.930407 
L 375.091036 175.930792 
L 376.505036 176.081642 
L 379.333038 176.081574 
L 380.747038 175.519236 
L 383.57504 175.51973 
L 384.98904 175.982366 
L 387.817041 175.98212 
L 389.231042 175.687658 
L 392.059043 175.687782 
L 393.473044 176.159654 
L 400.543047 176.059133 
L 401.957048 175.686321 
L 404.785049 175.686745 
L 406.19905 174.97301 
L 413.269053 174.962435 
L 414.683053 174.815827 
L 417.511055 174.816141 
L 418.925055 175.250727 
L 421.753057 175.250432 
L 423.167057 175.057767 
L 430.23706 175.023765 
L 431.651061 175.28879 
L 434.479062 175.288554 
L 435.893063 175.478837 
L 438.721064 175.478495 
L 440.135065 175.658242 
L 442.963066 175.657854 
L 444.377067 175.908297 
L 447.205068 175.90792 
L 448.619069 175.594178 
L 451.44707 175.594395 
L 452.861071 176.910621 
L 455.689072 176.909338 
L 457.103073 177.194505 
L 459.931074 177.193612 
L 461.345074 182.918602 
L 464.173076 196.314653 
L 465.587076 201.986501 
L 467.001077 204.977408 
L 468.415078 206.452816 
L 469.829078 208.583438 
L 471.243079 208.319277 
L 472.657079 207.510379 
L 474.07108 207.089673 
L 475.485081 205.525308 
L 476.899081 203.664098 
L 478.313082 206.987977 
L 481.141083 203.543882 
L 482.555084 204.210836 
L 485.383085 201.386563 
L 486.797086 205.038009 
L 489.625087 203.451853 
L 491.039088 204.369352 
L 493.867089 203.503578 
L 495.28109 207.801973 
L 498.109091 207.427555 
L 498.109091 207.427555 
" style="fill:none;stroke:#000000;stroke-dasharray:1.75,2.8875;stroke-dashoffset:0;stroke-width:1.75;"/>
   </g>
   <g id="patch_8">
    <path d="M 72 244.821176 
L 72 155.138824 
" style="fill:none;"/>
   </g>
   <g id="patch_9">
    <path d="M 518.4 244.821176 
L 518.4 155.138824 
" style="fill:none;"/>
   </g>
   <g id="patch_10">
    <path d="M 72 244.821176 
L 518.4 244.821176 
" style="fill:none;"/>
   </g>
   <g id="patch_11">
    <path d="M 72 155.138824 
L 518.4 155.138824 
" style="fill:none;"/>
   </g>
   <g id="text_15">
    <!-- Mass flows network -->
    <defs>
     <path d="M 7.421875 0 
L 7.421875 71.578125 
L 21.6875 71.578125 
L 38.625 20.90625 
Q 40.96875 13.8125 42.046875 10.296875 
Q 43.265625 14.203125 45.84375 21.78125 
L 62.984375 71.578125 
L 75.734375 71.578125 
L 75.734375 0 
L 66.609375 0 
L 66.609375 59.90625 
L 45.796875 0 
L 37.25 0 
L 16.546875 60.9375 
L 16.546875 0 
z
" id="ArialMT-77"/>
     <path d="M 6.640625 0 
L 6.640625 71.578125 
L 15.4375 71.578125 
L 15.4375 30.765625 
L 36.234375 51.859375 
L 47.609375 51.859375 
L 27.78125 32.625 
L 49.609375 0 
L 38.765625 0 
L 21.625 26.515625 
L 15.4375 20.5625 
L 15.4375 0 
z
" id="ArialMT-107"/>
    </defs>
    <g style="fill:#262626;" transform="translate(242.854687 149.138824)scale(0.12 -0.12)">
     <use xlink:href="#ArialMT-77"/>
     <use x="83.300781" xlink:href="#ArialMT-97"/>
     <use x="138.916016" xlink:href="#ArialMT-115"/>
     <use x="188.916016" xlink:href="#ArialMT-115"/>
     <use x="238.916016" xlink:href="#ArialMT-32"/>
     <use x="266.699219" xlink:href="#ArialMT-102"/>
     <use x="294.482422" xlink:href="#ArialMT-108"/>
     <use x="316.699219" xlink:href="#ArialMT-111"/>
     <use x="372.314453" xlink:href="#ArialMT-119"/>
     <use x="444.53125" xlink:href="#ArialMT-115"/>
     <use x="494.53125" xlink:href="#ArialMT-32"/>
     <use x="522.314453" xlink:href="#ArialMT-110"/>
     <use x="577.929688" xlink:href="#ArialMT-101"/>
     <use x="633.544922" xlink:href="#ArialMT-116"/>
     <use x="661.328125" xlink:href="#ArialMT-119"/>
     <use x="733.544922" xlink:href="#ArialMT-111"/>
     <use x="789.160156" xlink:href="#ArialMT-114"/>
     <use x="822.460938" xlink:href="#ArialMT-107"/>
    </g>
   </g>
  </g>
  <g id="axes_3">
   <g id="patch_12">
    <path d="M 72 352.44 
L 518.4 352.44 
L 518.4 262.757647 
L 72 262.757647 
z
" style="fill:#eaeaf2;"/>
   </g>
   <g id="matplotlib.axis_5">
    <g id="xtick_19">
     <g id="line2d_70">
      <path clip-path="url(#pf4a7b81b09)" d="M 92.290909 352.44 
L 92.290909 262.757647 
" style="fill:none;stroke:#ffffff;stroke-linecap:round;"/>
     </g>
     <g id="line2d_71"/>
     <g id="text_16">
      <!-- 01-01 00 -->
      <defs>
       <path d="M 3.171875 21.484375 
L 3.171875 30.328125 
L 30.171875 30.328125 
L 30.171875 21.484375 
z
" id="ArialMT-45"/>
      </defs>
      <g style="fill:#262626;" transform="translate(72.55419 366.597813)scale(0.1 -0.1)">
       <use xlink:href="#ArialMT-48"/>
       <use x="55.615234" xlink:href="#ArialMT-49"/>
       <use x="111.230469" xlink:href="#ArialMT-45"/>
       <use x="144.53125" xlink:href="#ArialMT-48"/>
       <use x="200.146484" xlink:href="#ArialMT-49"/>
       <use x="255.761719" xlink:href="#ArialMT-32"/>
       <use x="283.544922" xlink:href="#ArialMT-48"/>
       <use x="339.160156" xlink:href="#ArialMT-48"/>
      </g>
     </g>
    </g>
    <g id="xtick_20">
     <g id="line2d_72">
      <path clip-path="url(#pf4a7b81b09)" d="M 143.194932 352.44 
L 143.194932 262.757647 
" style="fill:none;stroke:#ffffff;stroke-linecap:round;"/>
     </g>
     <g id="line2d_73"/>
     <g id="text_17">
      <!-- 01-01 03 -->
      <g style="fill:#262626;" transform="translate(123.458213 366.597813)scale(0.1 -0.1)">
       <use xlink:href="#ArialMT-48"/>
       <use x="55.615234" xlink:href="#ArialMT-49"/>
       <use x="111.230469" xlink:href="#ArialMT-45"/>
       <use x="144.53125" xlink:href="#ArialMT-48"/>
       <use x="200.146484" xlink:href="#ArialMT-49"/>
       <use x="255.761719" xlink:href="#ArialMT-32"/>
       <use x="283.544922" xlink:href="#ArialMT-48"/>
       <use x="339.160156" xlink:href="#ArialMT-51"/>
      </g>
     </g>
    </g>
    <g id="xtick_21">
     <g id="line2d_74">
      <path clip-path="url(#pf4a7b81b09)" d="M 194.098955 352.44 
L 194.098955 262.757647 
" style="fill:none;stroke:#ffffff;stroke-linecap:round;"/>
     </g>
     <g id="line2d_75"/>
     <g id="text_18">
      <!-- 01-01 06 -->
      <g style="fill:#262626;" transform="translate(174.362236 366.597813)scale(0.1 -0.1)">
       <use xlink:href="#ArialMT-48"/>
       <use x="55.615234" xlink:href="#ArialMT-49"/>
       <use x="111.230469" xlink:href="#ArialMT-45"/>
       <use x="144.53125" xlink:href="#ArialMT-48"/>
       <use x="200.146484" xlink:href="#ArialMT-49"/>
       <use x="255.761719" xlink:href="#ArialMT-32"/>
       <use x="283.544922" xlink:href="#ArialMT-48"/>
       <use x="339.160156" xlink:href="#ArialMT-54"/>
      </g>
     </g>
    </g>
    <g id="xtick_22">
     <g id="line2d_76">
      <path clip-path="url(#pf4a7b81b09)" d="M 245.002977 352.44 
L 245.002977 262.757647 
" style="fill:none;stroke:#ffffff;stroke-linecap:round;"/>
     </g>
     <g id="line2d_77"/>
     <g id="text_19">
      <!-- 01-01 09 -->
      <defs>
       <path d="M 5.46875 16.546875 
L 13.921875 17.328125 
Q 14.984375 11.375 18.015625 8.6875 
Q 21.046875 6 25.78125 6 
Q 29.828125 6 32.875 7.859375 
Q 35.9375 9.71875 37.890625 12.8125 
Q 39.84375 15.921875 41.15625 21.1875 
Q 42.484375 26.46875 42.484375 31.9375 
Q 42.484375 32.515625 42.4375 33.6875 
Q 39.796875 29.5 35.234375 26.875 
Q 30.671875 24.265625 25.34375 24.265625 
Q 16.453125 24.265625 10.296875 30.703125 
Q 4.15625 37.15625 4.15625 47.703125 
Q 4.15625 58.59375 10.578125 65.234375 
Q 17 71.875 26.65625 71.875 
Q 33.640625 71.875 39.421875 68.109375 
Q 45.21875 64.359375 48.21875 57.390625 
Q 51.21875 50.4375 51.21875 37.25 
Q 51.21875 23.53125 48.234375 15.40625 
Q 45.265625 7.28125 39.375 3.03125 
Q 33.5 -1.21875 25.59375 -1.21875 
Q 17.1875 -1.21875 11.859375 3.4375 
Q 6.546875 8.109375 5.46875 16.546875 
z
M 41.453125 48.140625 
Q 41.453125 55.71875 37.421875 60.15625 
Q 33.40625 64.59375 27.734375 64.59375 
Q 21.875 64.59375 17.53125 59.8125 
Q 13.1875 55.03125 13.1875 47.40625 
Q 13.1875 40.578125 17.3125 36.296875 
Q 21.4375 32.03125 27.484375 32.03125 
Q 33.59375 32.03125 37.515625 36.296875 
Q 41.453125 40.578125 41.453125 48.140625 
z
" id="ArialMT-57"/>
      </defs>
      <g style="fill:#262626;" transform="translate(225.266259 366.597813)scale(0.1 -0.1)">
       <use xlink:href="#ArialMT-48"/>
       <use x="55.615234" xlink:href="#ArialMT-49"/>
       <use x="111.230469" xlink:href="#ArialMT-45"/>
       <use x="144.53125" xlink:href="#ArialMT-48"/>
       <use x="200.146484" xlink:href="#ArialMT-49"/>
       <use x="255.761719" xlink:href="#ArialMT-32"/>
       <use x="283.544922" xlink:href="#ArialMT-48"/>
       <use x="339.160156" xlink:href="#ArialMT-57"/>
      </g>
     </g>
    </g>
    <g id="xtick_23">
     <g id="line2d_78">
      <path clip-path="url(#pf4a7b81b09)" d="M 295.907 352.44 
L 295.907 262.757647 
" style="fill:none;stroke:#ffffff;stroke-linecap:round;"/>
     </g>
     <g id="line2d_79"/>
     <g id="text_20">
      <!-- 01-01 12 -->
      <g style="fill:#262626;" transform="translate(276.170282 366.597813)scale(0.1 -0.1)">
       <use xlink:href="#ArialMT-48"/>
       <use x="55.615234" xlink:href="#ArialMT-49"/>
       <use x="111.230469" xlink:href="#ArialMT-45"/>
       <use x="144.53125" xlink:href="#ArialMT-48"/>
       <use x="200.146484" xlink:href="#ArialMT-49"/>
       <use x="255.761719" xlink:href="#ArialMT-32"/>
       <use x="283.544922" xlink:href="#ArialMT-49"/>
       <use x="339.160156" xlink:href="#ArialMT-50"/>
      </g>
     </g>
    </g>
    <g id="xtick_24">
     <g id="line2d_80">
      <path clip-path="url(#pf4a7b81b09)" d="M 346.811023 352.44 
L 346.811023 262.757647 
" style="fill:none;stroke:#ffffff;stroke-linecap:round;"/>
     </g>
     <g id="line2d_81"/>
     <g id="text_21">
      <!-- 01-01 15 -->
      <defs>
       <path d="M 4.15625 18.75 
L 13.375 19.53125 
Q 14.40625 12.796875 18.140625 9.390625 
Q 21.875 6 27.15625 6 
Q 33.5 6 37.890625 10.78125 
Q 42.28125 15.578125 42.28125 23.484375 
Q 42.28125 31 38.0625 35.34375 
Q 33.84375 39.703125 27 39.703125 
Q 22.75 39.703125 19.328125 37.765625 
Q 15.921875 35.84375 13.96875 32.765625 
L 5.71875 33.84375 
L 12.640625 70.609375 
L 48.25 70.609375 
L 48.25 62.203125 
L 19.671875 62.203125 
L 15.828125 42.96875 
Q 22.265625 47.46875 29.34375 47.46875 
Q 38.71875 47.46875 45.15625 40.96875 
Q 51.609375 34.46875 51.609375 24.265625 
Q 51.609375 14.546875 45.953125 7.46875 
Q 39.0625 -1.21875 27.15625 -1.21875 
Q 17.390625 -1.21875 11.203125 4.25 
Q 5.03125 9.71875 4.15625 18.75 
z
" id="ArialMT-53"/>
      </defs>
      <g style="fill:#262626;" transform="translate(327.074304 366.597813)scale(0.1 -0.1)">
       <use xlink:href="#ArialMT-48"/>
       <use x="55.615234" xlink:href="#ArialMT-49"/>
       <use x="111.230469" xlink:href="#ArialMT-45"/>
       <use x="144.53125" xlink:href="#ArialMT-48"/>
       <use x="200.146484" xlink:href="#ArialMT-49"/>
       <use x="255.761719" xlink:href="#ArialMT-32"/>
       <use x="283.544922" xlink:href="#ArialMT-49"/>
       <use x="339.160156" xlink:href="#ArialMT-53"/>
      </g>
     </g>
    </g>
    <g id="xtick_25">
     <g id="line2d_82">
      <path clip-path="url(#pf4a7b81b09)" d="M 397.715046 352.44 
L 397.715046 262.757647 
" style="fill:none;stroke:#ffffff;stroke-linecap:round;"/>
     </g>
     <g id="line2d_83"/>
     <g id="text_22">
      <!-- 01-01 18 -->
      <defs>
       <path d="M 17.671875 38.8125 
Q 12.203125 40.828125 9.5625 44.53125 
Q 6.9375 48.25 6.9375 53.421875 
Q 6.9375 61.234375 12.546875 66.546875 
Q 18.171875 71.875 27.484375 71.875 
Q 36.859375 71.875 42.578125 66.421875 
Q 48.296875 60.984375 48.296875 53.171875 
Q 48.296875 48.1875 45.671875 44.5 
Q 43.0625 40.828125 37.75 38.8125 
Q 44.34375 36.671875 47.78125 31.875 
Q 51.21875 27.09375 51.21875 20.453125 
Q 51.21875 11.28125 44.71875 5.03125 
Q 38.234375 -1.21875 27.640625 -1.21875 
Q 17.046875 -1.21875 10.546875 5.046875 
Q 4.046875 11.328125 4.046875 20.703125 
Q 4.046875 27.6875 7.59375 32.390625 
Q 11.140625 37.109375 17.671875 38.8125 
z
M 15.921875 53.71875 
Q 15.921875 48.640625 19.1875 45.40625 
Q 22.46875 42.1875 27.6875 42.1875 
Q 32.765625 42.1875 36.015625 45.375 
Q 39.265625 48.578125 39.265625 53.21875 
Q 39.265625 58.0625 35.90625 61.359375 
Q 32.5625 64.65625 27.59375 64.65625 
Q 22.5625 64.65625 19.234375 61.421875 
Q 15.921875 58.203125 15.921875 53.71875 
z
M 13.09375 20.65625 
Q 13.09375 16.890625 14.875 13.375 
Q 16.65625 9.859375 20.171875 7.921875 
Q 23.6875 6 27.734375 6 
Q 34.03125 6 38.125 10.046875 
Q 42.234375 14.109375 42.234375 20.359375 
Q 42.234375 26.703125 38.015625 30.859375 
Q 33.796875 35.015625 27.4375 35.015625 
Q 21.234375 35.015625 17.15625 30.90625 
Q 13.09375 26.8125 13.09375 20.65625 
z
" id="ArialMT-56"/>
      </defs>
      <g style="fill:#262626;" transform="translate(377.978327 366.597813)scale(0.1 -0.1)">
       <use xlink:href="#ArialMT-48"/>
       <use x="55.615234" xlink:href="#ArialMT-49"/>
       <use x="111.230469" xlink:href="#ArialMT-45"/>
       <use x="144.53125" xlink:href="#ArialMT-48"/>
       <use x="200.146484" xlink:href="#ArialMT-49"/>
       <use x="255.761719" xlink:href="#ArialMT-32"/>
       <use x="283.544922" xlink:href="#ArialMT-49"/>
       <use x="339.160156" xlink:href="#ArialMT-56"/>
      </g>
     </g>
    </g>
    <g id="xtick_26">
     <g id="line2d_84">
      <path clip-path="url(#pf4a7b81b09)" d="M 448.619069 352.44 
L 448.619069 262.757647 
" style="fill:none;stroke:#ffffff;stroke-linecap:round;"/>
     </g>
     <g id="line2d_85"/>
     <g id="text_23">
      <!-- 01-01 21 -->
      <g style="fill:#262626;" transform="translate(428.88235 366.597813)scale(0.1 -0.1)">
       <use xlink:href="#ArialMT-48"/>
       <use x="55.615234" xlink:href="#ArialMT-49"/>
       <use x="111.230469" xlink:href="#ArialMT-45"/>
       <use x="144.53125" xlink:href="#ArialMT-48"/>
       <use x="200.146484" xlink:href="#ArialMT-49"/>
       <use x="255.761719" xlink:href="#ArialMT-32"/>
       <use x="283.544922" xlink:href="#ArialMT-50"/>
       <use x="339.160156" xlink:href="#ArialMT-49"/>
      </g>
     </g>
    </g>
    <g id="xtick_27">
     <g id="line2d_86">
      <path clip-path="url(#pf4a7b81b09)" d="M 499.523091 352.44 
L 499.523091 262.757647 
" style="fill:none;stroke:#ffffff;stroke-linecap:round;"/>
     </g>
     <g id="line2d_87"/>
     <g id="text_24">
      <!-- 01-02 00 -->
      <g style="fill:#262626;" transform="translate(479.786373 366.597813)scale(0.1 -0.1)">
       <use xlink:href="#ArialMT-48"/>
       <use x="55.615234" xlink:href="#ArialMT-49"/>
       <use x="111.230469" xlink:href="#ArialMT-45"/>
       <use x="144.53125" xlink:href="#ArialMT-48"/>
       <use x="200.146484" xlink:href="#ArialMT-50"/>
       <use x="255.761719" xlink:href="#ArialMT-32"/>
       <use x="283.544922" xlink:href="#ArialMT-48"/>
       <use x="339.160156" xlink:href="#ArialMT-48"/>
      </g>
     </g>
    </g>
   </g>
   <g id="matplotlib.axis_6">
    <g id="ytick_9">
     <g id="line2d_88">
      <path clip-path="url(#pf4a7b81b09)" d="M 72 341.245189 
L 518.4 341.245189 
" style="fill:none;stroke:#ffffff;stroke-linecap:round;"/>
     </g>
     <g id="line2d_89"/>
     <g id="text_25">
      <!-- 40 -->
      <g style="fill:#262626;" transform="translate(53.878125 344.824095)scale(0.1 -0.1)">
       <use xlink:href="#ArialMT-52"/>
       <use x="55.615234" xlink:href="#ArialMT-48"/>
      </g>
     </g>
    </g>
    <g id="ytick_10">
     <g id="line2d_90">
      <path clip-path="url(#pf4a7b81b09)" d="M 72 311.480762 
L 518.4 311.480762 
" style="fill:none;stroke:#ffffff;stroke-linecap:round;"/>
     </g>
     <g id="line2d_91"/>
     <g id="text_26">
      <!-- 60 -->
      <g style="fill:#262626;" transform="translate(53.878125 315.059669)scale(0.1 -0.1)">
       <use xlink:href="#ArialMT-54"/>
       <use x="55.615234" xlink:href="#ArialMT-48"/>
      </g>
     </g>
    </g>
    <g id="ytick_11">
     <g id="line2d_92">
      <path clip-path="url(#pf4a7b81b09)" d="M 72 281.716336 
L 518.4 281.716336 
" style="fill:none;stroke:#ffffff;stroke-linecap:round;"/>
     </g>
     <g id="line2d_93"/>
     <g id="text_27">
      <!-- 80 -->
      <g style="fill:#262626;" transform="translate(53.878125 285.295242)scale(0.1 -0.1)">
       <use xlink:href="#ArialMT-56"/>
       <use x="55.615234" xlink:href="#ArialMT-48"/>
      </g>
     </g>
    </g>
   </g>
   <g id="line2d_94">
    <path clip-path="url(#pf4a7b81b09)" d="M 92.290909 315.945431 
L 249.244979 315.945431 
L 250.65898 266.834118 
L 294.493 266.834118 
L 295.907 315.945431 
L 459.931074 315.945431 
L 461.345074 294.25627 
L 462.759075 266.834118 
L 465.587076 266.834118 
L 467.001077 315.945431 
L 498.109091 315.945431 
L 498.109091 315.945431 
" style="fill:none;stroke:#1f77b4;stroke-linecap:round;stroke-width:1.75;"/>
   </g>
   <g id="line2d_95">
    <path clip-path="url(#pf4a7b81b09)" d="M 92.290909 345.709853 
L 107.844916 345.976923 
L 129.054926 346.312973 
L 164.404941 346.742768 
L 174.302946 346.938775 
L 184.20095 346.844877 
L 196.926956 346.517533 
L 225.206969 345.243032 
L 236.518974 345.008582 
L 252.072981 345.162593 
L 256.314983 345.735209 
L 263.384986 346.750965 
L 269.040988 347.342795 
L 276.110991 347.815562 
L 284.594995 348.115567 
L 297.321001 348.298202 
L 307.219005 348.250524 
L 311.461007 348.013504 
L 315.703009 347.475147 
L 324.187013 346.113741 
L 328.429015 345.733823 
L 334.085017 345.507102 
L 345.397022 345.408195 
L 368.021033 345.389114 
L 462.759075 345.496059 
L 467.001077 345.875596 
L 476.899081 346.971841 
L 481.141083 347.16694 
L 485.383085 347.152254 
L 498.109091 346.747742 
L 498.109091 346.747742 
" style="fill:none;stroke:#1f77b4;stroke-dasharray:6.475,2.8;stroke-dashoffset:0;stroke-width:1.75;"/>
   </g>
   <g id="line2d_96">
    <path clip-path="url(#pf4a7b81b09)" d="M 92.290909 315.945426 
L 107.844916 316.03789 
L 189.856953 316.081071 
L 249.244979 316.004321 
L 250.65898 312.217717 
L 254.900982 296.466427 
L 256.314983 292.018106 
L 257.728983 288.103711 
L 259.142984 284.747866 
L 260.556984 281.890604 
L 261.970985 279.459261 
L 263.384986 277.407505 
L 264.798986 275.680456 
L 266.212987 274.260795 
L 267.626988 273.065706 
L 269.040988 272.061817 
L 270.454989 271.224788 
L 273.28299 269.937805 
L 276.110991 269.054168 
L 278.938993 268.441255 
L 281.766994 268.019361 
L 286.008996 267.633925 
L 291.664998 267.36537 
L 294.493 267.291777 
L 295.907 267.783755 
L 297.321001 269.004959 
L 298.735002 270.992704 
L 300.149002 273.630636 
L 301.563003 276.861571 
L 302.977003 280.564462 
L 305.805005 288.857441 
L 308.633006 297.126434 
L 310.047007 300.869187 
L 311.461007 304.225012 
L 312.875008 307.105035 
L 314.289008 309.475302 
L 315.703009 311.344239 
L 317.11701 312.745773 
L 318.53101 313.77399 
L 319.945011 314.505556 
L 321.359012 315.01092 
L 324.187013 315.585529 
L 327.015014 315.835883 
L 332.671017 315.986691 
L 349.639024 316.015305 
L 459.931074 316.016545 
L 461.345074 314.700125 
L 462.759075 311.293051 
L 465.587076 302.3831 
L 467.001077 299.198605 
L 468.415078 297.476392 
L 469.829078 296.990061 
L 471.243079 297.434363 
L 472.657079 298.578018 
L 474.07108 300.171104 
L 479.727083 307.547209 
L 481.141083 309.113808 
L 482.555084 310.436565 
L 483.969085 311.58481 
L 485.383085 312.554439 
L 486.797086 313.289384 
L 489.625087 314.38307 
L 492.453088 315.064216 
L 495.28109 315.47017 
L 498.109091 315.71045 
L 498.109091 315.71045 
" style="fill:none;stroke:#ff7f0e;stroke-linecap:round;stroke-width:1.75;"/>
   </g>
   <g id="line2d_97">
    <path clip-path="url(#pf4a7b81b09)" d="M 92.290909 345.745289 
L 103.602914 345.809978 
L 105.016915 345.957586 
L 116.32892 346.051793 
L 119.156921 346.120115 
L 133.296927 346.188861 
L 136.124929 346.271328 
L 154.506937 346.30883 
L 155.920938 347.078254 
L 162.990941 346.965904 
L 165.818942 346.860052 
L 171.474945 346.768451 
L 172.888945 346.574344 
L 179.958948 346.536767 
L 182.78695 346.447328 
L 188.442952 346.403421 
L 189.856953 346.211151 
L 192.684954 346.212363 
L 194.098955 346.012871 
L 196.926956 346.014374 
L 198.340957 345.785532 
L 201.168958 345.787158 
L 202.582959 345.5514 
L 205.41096 345.552955 
L 206.82496 345.391611 
L 209.652962 345.392808 
L 211.066962 345.203 
L 218.136965 345.22551 
L 219.550966 345.071227 
L 222.378967 345.071728 
L 223.792968 344.91679 
L 226.620969 344.917302 
L 228.03497 344.71491 
L 230.862971 344.715541 
L 232.276972 344.893329 
L 249.244979 344.83839 
L 252.072981 346.348023 
L 253.486981 346.923385 
L 256.314983 347.509014 
L 260.556984 347.869487 
L 267.626988 348.099851 
L 284.594995 348.235326 
L 300.149002 348.15153 
L 304.391004 347.884582 
L 308.633006 347.388166 
L 314.289008 346.303721 
L 317.11701 345.847336 
L 319.945011 345.529189 
L 324.187013 345.322701 
L 345.397022 345.242109 
L 355.295027 345.252204 
L 459.931074 345.276646 
L 461.345074 345.632244 
L 464.173076 346.745098 
L 465.587076 347.162024 
L 467.001077 347.381561 
L 469.829078 347.56315 
L 474.07108 347.40219 
L 476.899081 347.120125 
L 478.313082 347.151682 
L 483.969085 346.624149 
L 485.383085 346.489306 
L 486.797086 346.558957 
L 491.039088 346.384761 
L 493.867089 346.292053 
L 495.28109 346.45962 
L 498.109091 346.417745 
L 498.109091 346.417745 
" style="fill:none;stroke:#ff7f0e;stroke-dasharray:6.475,2.8;stroke-dashoffset:0;stroke-width:1.75;"/>
   </g>
   <g id="line2d_98">
    <path clip-path="url(#pf4a7b81b09)" d="M 92.290909 315.945426 
L 105.016915 316.079423 
L 147.436934 316.174731 
L 202.582959 316.098044 
L 237.932974 316.033392 
L 249.244979 316.031367 
L 250.65898 312.947995 
L 256.314983 294.581497 
L 257.728983 290.828463 
L 259.142984 287.530885 
L 260.556984 284.655955 
L 261.970985 282.18512 
L 263.384986 280.043354 
L 264.798986 278.192066 
L 266.212987 276.59993 
L 267.626988 275.230044 
L 269.040988 274.05292 
L 270.454989 273.039159 
L 273.28299 271.428642 
L 276.110991 270.238399 
L 278.938993 269.384424 
L 281.766994 268.772927 
L 286.008996 268.178204 
L 290.250998 267.820034 
L 294.493 267.60067 
L 295.907 267.95445 
L 297.321001 268.897175 
L 298.735002 270.478078 
L 300.149002 272.594952 
L 301.563003 275.244677 
L 302.977003 278.348779 
L 305.805005 285.543817 
L 310.047007 296.928278 
L 311.461007 300.41271 
L 312.875008 303.547077 
L 314.289008 306.298133 
L 315.703009 308.62491 
L 317.11701 310.524136 
L 318.53101 312.018833 
L 319.945011 313.159365 
L 321.359012 314.007126 
L 322.773012 314.622798 
L 324.187013 315.061935 
L 327.015014 315.579038 
L 329.843015 315.829103 
L 335.499018 316.00172 
L 349.639024 316.044883 
L 459.931074 316.04838 
L 461.345074 314.985825 
L 462.759075 312.146143 
L 465.587076 304.366781 
L 467.001077 301.362076 
L 468.415078 299.515604 
L 469.829078 298.722573 
L 471.243079 298.718928 
L 472.657079 299.342926 
L 474.07108 300.400735 
L 475.485081 301.7783 
L 478.313082 304.794131 
L 481.141083 307.664074 
L 483.969085 310.114127 
L 485.383085 311.161108 
L 488.211086 312.668455 
L 491.039088 313.777489 
L 493.867089 314.558092 
L 496.69509 315.052619 
L 498.109091 315.243404 
L 498.109091 315.243404 
" style="fill:none;stroke:#2ca02c;stroke-linecap:round;stroke-width:1.75;"/>
   </g>
   <g id="line2d_99">
    <path clip-path="url(#pf4a7b81b09)" d="M 92.290909 346.489512 
L 95.11891 346.481155 
L 96.532911 346.660134 
L 103.602914 346.661209 
L 105.016915 346.810664 
L 112.086918 346.844356 
L 114.914919 346.918005 
L 120.570922 346.983434 
L 123.398923 347.049527 
L 129.054926 347.078171 
L 130.468926 347.206286 
L 141.780931 347.311064 
L 153.092936 347.313172 
L 154.506937 347.313082 
L 155.920938 347.699286 
L 158.748939 347.697448 
L 160.162939 347.554277 
L 171.474945 347.488983 
L 172.888945 347.279504 
L 184.20095 347.235505 
L 187.028952 347.160376 
L 188.442952 347.160824 
L 189.856953 346.804448 
L 192.684954 346.807072 
L 194.098955 346.570013 
L 196.926956 346.572846 
L 198.340957 346.36831 
L 201.168958 346.370919 
L 202.582959 346.161864 
L 205.41096 346.164196 
L 206.82496 345.904119 
L 209.652962 345.90623 
L 211.066962 345.76078 
L 218.136965 345.71173 
L 219.550966 345.53862 
L 226.620969 345.528144 
L 228.03497 345.325269 
L 230.862971 345.326106 
L 232.276972 345.487112 
L 249.244979 345.436537 
L 253.486981 347.11391 
L 256.314983 347.661199 
L 259.142984 347.935387 
L 264.798986 348.178037 
L 274.696991 348.288092 
L 300.149002 348.324532 
L 305.805005 348.077659 
L 310.047007 347.682995 
L 315.703009 346.832225 
L 319.945011 346.229024 
L 324.187013 345.89686 
L 366.607032 345.716471 
L 370.849034 345.764128 
L 375.091036 345.710801 
L 382.161039 345.755012 
L 459.931074 345.785472 
L 461.345074 346.06776 
L 465.587076 347.362325 
L 468.415078 347.671566 
L 471.243079 347.779271 
L 479.727083 347.532746 
L 485.383085 347.140461 
L 486.797086 347.26755 
L 491.039088 347.121298 
L 493.867089 347.017352 
L 495.28109 347.170925 
L 498.109091 347.114014 
L 498.109091 347.114014 
" style="fill:none;stroke:#2ca02c;stroke-dasharray:6.475,2.8;stroke-dashoffset:0;stroke-width:1.75;"/>
   </g>
   <g id="patch_13">
    <path d="M 72 352.44 
L 72 262.757647 
" style="fill:none;"/>
   </g>
   <g id="patch_14">
    <path d="M 518.4 352.44 
L 518.4 262.757647 
" style="fill:none;"/>
   </g>
   <g id="patch_15">
    <path d="M 72 352.44 
L 518.4 352.44 
" style="fill:none;"/>
   </g>
   <g id="patch_16">
    <path d="M 72 262.757647 
L 518.4 262.757647 
" style="fill:none;"/>
   </g>
   <g id="text_28">
    <!-- Network temperatures -->
    <defs>
     <path d="M 6.59375 0 
L 6.59375 51.859375 
L 14.453125 51.859375 
L 14.453125 44.578125 
Q 16.890625 48.390625 20.9375 50.703125 
Q 25 53.03125 30.171875 53.03125 
Q 35.9375 53.03125 39.625 50.640625 
Q 43.3125 48.25 44.828125 43.953125 
Q 50.984375 53.03125 60.84375 53.03125 
Q 68.5625 53.03125 72.703125 48.75 
Q 76.859375 44.484375 76.859375 35.59375 
L 76.859375 0 
L 68.109375 0 
L 68.109375 32.671875 
Q 68.109375 37.9375 67.25 40.25 
Q 66.40625 42.578125 64.15625 43.984375 
Q 61.921875 45.40625 58.890625 45.40625 
Q 53.421875 45.40625 49.796875 41.765625 
Q 46.1875 38.140625 46.1875 30.125 
L 46.1875 0 
L 37.40625 0 
L 37.40625 33.6875 
Q 37.40625 39.546875 35.25 42.46875 
Q 33.109375 45.40625 28.21875 45.40625 
Q 24.515625 45.40625 21.359375 43.453125 
Q 18.21875 41.5 16.796875 37.734375 
Q 15.375 33.984375 15.375 26.90625 
L 15.375 0 
z
" id="ArialMT-109"/>
     <path d="M 6.59375 -19.875 
L 6.59375 51.859375 
L 14.59375 51.859375 
L 14.59375 45.125 
Q 17.4375 49.078125 21 51.046875 
Q 24.5625 53.03125 29.640625 53.03125 
Q 36.28125 53.03125 41.359375 49.609375 
Q 46.4375 46.1875 49.015625 39.953125 
Q 51.609375 33.734375 51.609375 26.3125 
Q 51.609375 18.359375 48.75 11.984375 
Q 45.90625 5.609375 40.453125 2.21875 
Q 35.015625 -1.171875 29 -1.171875 
Q 24.609375 -1.171875 21.109375 0.6875 
Q 17.625 2.546875 15.375 5.375 
L 15.375 -19.875 
z
M 14.546875 25.640625 
Q 14.546875 15.625 18.59375 10.84375 
Q 22.65625 6.0625 28.421875 6.0625 
Q 34.28125 6.0625 38.453125 11.015625 
Q 42.625 15.96875 42.625 26.375 
Q 42.625 36.28125 38.546875 41.203125 
Q 34.46875 46.140625 28.8125 46.140625 
Q 23.1875 46.140625 18.859375 40.890625 
Q 14.546875 35.640625 14.546875 25.640625 
z
" id="ArialMT-112"/>
    </defs>
    <g style="fill:#262626;" transform="translate(236.1825 256.757647)scale(0.12 -0.12)">
     <use xlink:href="#ArialMT-78"/>
     <use x="72.216797" xlink:href="#ArialMT-101"/>
     <use x="127.832031" xlink:href="#ArialMT-116"/>
     <use x="155.615234" xlink:href="#ArialMT-119"/>
     <use x="227.832031" xlink:href="#ArialMT-111"/>
     <use x="283.447266" xlink:href="#ArialMT-114"/>
     <use x="316.748047" xlink:href="#ArialMT-107"/>
     <use x="366.748047" xlink:href="#ArialMT-32"/>
     <use x="394.53125" xlink:href="#ArialMT-116"/>
     <use x="422.314453" xlink:href="#ArialMT-101"/>
     <use x="477.929688" xlink:href="#ArialMT-109"/>
     <use x="561.230469" xlink:href="#ArialMT-112"/>
     <use x="616.845703" xlink:href="#ArialMT-101"/>
     <use x="672.460938" xlink:href="#ArialMT-114"/>
     <use x="705.761719" xlink:href="#ArialMT-97"/>
     <use x="761.376953" xlink:href="#ArialMT-116"/>
     <use x="789.160156" xlink:href="#ArialMT-117"/>
     <use x="844.775391" xlink:href="#ArialMT-114"/>
     <use x="878.076172" xlink:href="#ArialMT-101"/>
     <use x="933.691406" xlink:href="#ArialMT-115"/>
    </g>
   </g>
  </g>
  <g id="text_29">
   <!-- Horizon: 24.0h, Time step: 300, Neighbourhoods: 2, case: cost -->
   <defs>
    <path d="M 1.953125 0 
L 1.953125 7.125 
L 34.96875 45.015625 
Q 29.34375 44.734375 25.046875 44.734375 
L 3.90625 44.734375 
L 3.90625 51.859375 
L 46.296875 51.859375 
L 46.296875 46.046875 
L 18.21875 13.140625 
L 12.796875 7.125 
Q 18.703125 7.5625 23.875 7.5625 
L 47.859375 7.5625 
L 47.859375 0 
z
" id="ArialMT-122"/>
    <path d="M 9.03125 41.84375 
L 9.03125 51.859375 
L 19.046875 51.859375 
L 19.046875 41.84375 
z
M 9.03125 0 
L 9.03125 10.015625 
L 19.046875 10.015625 
L 19.046875 0 
z
" id="ArialMT-58"/>
    <path d="M 9.078125 0 
L 9.078125 10.015625 
L 19.09375 10.015625 
L 19.09375 0 
z
" id="ArialMT-46"/>
    <path d="M 8.890625 0 
L 8.890625 10.015625 
L 18.890625 10.015625 
L 18.890625 0 
Q 18.890625 -5.515625 16.9375 -8.90625 
Q 14.984375 -12.3125 10.75 -14.15625 
L 8.296875 -10.40625 
Q 11.078125 -9.1875 12.390625 -6.8125 
Q 13.71875 -4.4375 13.875 0 
z
" id="ArialMT-44"/>
    <path d="M 25.921875 0 
L 25.921875 63.140625 
L 2.34375 63.140625 
L 2.34375 71.578125 
L 59.078125 71.578125 
L 59.078125 63.140625 
L 35.40625 63.140625 
L 35.40625 0 
z
" id="ArialMT-84"/>
   </defs>
   <g style="fill:#262626;" transform="translate(121.589063 16.545)scale(0.12 -0.12)">
    <use xlink:href="#ArialMT-72"/>
    <use x="72.216797" xlink:href="#ArialMT-111"/>
    <use x="127.832031" xlink:href="#ArialMT-114"/>
    <use x="161.132812" xlink:href="#ArialMT-105"/>
    <use x="183.349609" xlink:href="#ArialMT-122"/>
    <use x="233.349609" xlink:href="#ArialMT-111"/>
    <use x="288.964844" xlink:href="#ArialMT-110"/>
    <use x="344.580078" xlink:href="#ArialMT-58"/>
    <use x="372.363281" xlink:href="#ArialMT-32"/>
    <use x="400.146484" xlink:href="#ArialMT-50"/>
    <use x="455.761719" xlink:href="#ArialMT-52"/>
    <use x="511.376953" xlink:href="#ArialMT-46"/>
    <use x="539.160156" xlink:href="#ArialMT-48"/>
    <use x="594.775391" xlink:href="#ArialMT-104"/>
    <use x="650.390625" xlink:href="#ArialMT-44"/>
    <use x="678.173828" xlink:href="#ArialMT-32"/>
    <use x="705.941406" xlink:href="#ArialMT-84"/>
    <use x="766.978516" xlink:href="#ArialMT-105"/>
    <use x="789.195312" xlink:href="#ArialMT-109"/>
    <use x="872.496094" xlink:href="#ArialMT-101"/>
    <use x="928.111328" xlink:href="#ArialMT-32"/>
    <use x="955.894531" xlink:href="#ArialMT-115"/>
    <use x="1005.894531" xlink:href="#ArialMT-116"/>
    <use x="1033.677734" xlink:href="#ArialMT-101"/>
    <use x="1089.292969" xlink:href="#ArialMT-112"/>
    <use x="1144.908203" xlink:href="#ArialMT-58"/>
    <use x="1172.691406" xlink:href="#ArialMT-32"/>
    <use x="1200.474609" xlink:href="#ArialMT-51"/>
    <use x="1256.089844" xlink:href="#ArialMT-48"/>
    <use x="1311.705078" xlink:href="#ArialMT-48"/>
    <use x="1367.320312" xlink:href="#ArialMT-44"/>
    <use x="1395.103516" xlink:href="#ArialMT-32"/>
    <use x="1422.886719" xlink:href="#ArialMT-78"/>
    <use x="1495.103516" xlink:href="#ArialMT-101"/>
    <use x="1550.71875" xlink:href="#ArialMT-105"/>
    <use x="1572.935547" xlink:href="#ArialMT-103"/>
    <use x="1628.550781" xlink:href="#ArialMT-104"/>
    <use x="1684.166016" xlink:href="#ArialMT-98"/>
    <use x="1739.78125" xlink:href="#ArialMT-111"/>
    <use x="1795.396484" xlink:href="#ArialMT-117"/>
    <use x="1851.011719" xlink:href="#ArialMT-114"/>
    <use x="1884.3125" xlink:href="#ArialMT-104"/>
    <use x="1939.927734" xlink:href="#ArialMT-111"/>
    <use x="1995.542969" xlink:href="#ArialMT-111"/>
    <use x="2051.158203" xlink:href="#ArialMT-100"/>
    <use x="2106.773438" xlink:href="#ArialMT-115"/>
    <use x="2156.773438" xlink:href="#ArialMT-58"/>
    <use x="2184.556641" xlink:href="#ArialMT-32"/>
    <use x="2212.339844" xlink:href="#ArialMT-50"/>
    <use x="2267.955078" xlink:href="#ArialMT-44"/>
    <use x="2295.738281" xlink:href="#ArialMT-32"/>
    <use x="2323.521484" xlink:href="#ArialMT-99"/>
    <use x="2373.521484" xlink:href="#ArialMT-97"/>
    <use x="2429.136719" xlink:href="#ArialMT-115"/>
    <use x="2479.136719" xlink:href="#ArialMT-101"/>
    <use x="2534.751953" xlink:href="#ArialMT-58"/>
    <use x="2562.535156" xlink:href="#ArialMT-32"/>
    <use x="2590.318359" xlink:href="#ArialMT-99"/>
    <use x="2640.318359" xlink:href="#ArialMT-111"/>
    <use x="2695.933594" xlink:href="#ArialMT-115"/>
    <use x="2745.933594" xlink:href="#ArialMT-116"/>
   </g>
  </g>
 </g>
 <defs>
  <clipPath id="p6eae5c1d2b">
   <rect height="89.682353" width="446.4" x="72" y="47.52"/>
  </clipPath>
  <clipPath id="p2afb818d39">
   <rect height="89.682353" width="446.4" x="72" y="155.138824"/>
  </clipPath>
  <clipPath id="pf4a7b81b09">
   <rect height="89.682353" width="446.4" x="72" y="262.757647"/>
  </clipPath>
 </defs>
</svg>
