<?xml version="1.0" encoding="utf-8" standalone="no"?>
<!DOCTYPE svg PUBLIC "-//W3C//DTD SVG 1.1//EN"
  "http://www.w3.org/Graphics/SVG/1.1/DTD/svg11.dtd">
<!-- Created with matplotlib (https://matplotlib.org/) -->
<svg height="396pt" version="1.1" viewBox="0 0 576 396" width="576pt" xmlns="http://www.w3.org/2000/svg" xmlns:xlink="http://www.w3.org/1999/xlink">
 <defs>
  <style type="text/css">
*{stroke-linecap:butt;stroke-linejoin:round;}
  </style>
 </defs>
 <g id="figure_1">
  <g id="patch_1">
   <path d="M 0 396 
L 576 396 
L 576 0 
L 0 0 
z
" style="fill:#ffffff;"/>
  </g>
  <g id="axes_1">
   <g id="patch_2">
    <path d="M 72 352.44 
L 518.4 352.44 
L 518.4 47.52 
L 72 47.52 
z
" style="fill:#eaeaf2;"/>
   </g>
   <g id="matplotlib.axis_1">
    <g id="xtick_1">
     <g id="line2d_1">
      <path clip-path="url(#p6fd1861a2f)" d="M 92.290909 352.44 
L 92.290909 47.52 
" style="fill:none;stroke:#ffffff;stroke-linecap:round;"/>
     </g>
     <g id="line2d_2"/>
     <g id="text_1">
      <!-- 01-01 00 -->
      <defs>
       <path d="M 4.15625 35.296875 
Q 4.15625 48 6.765625 55.734375 
Q 9.375 63.484375 14.515625 67.671875 
Q 19.671875 71.875 27.484375 71.875 
Q 33.25 71.875 37.59375 69.546875 
Q 41.9375 67.234375 44.765625 62.859375 
Q 47.609375 58.5 49.21875 52.21875 
Q 50.828125 45.953125 50.828125 35.296875 
Q 50.828125 22.703125 48.234375 14.96875 
Q 45.65625 7.234375 40.5 3 
Q 35.359375 -1.21875 27.484375 -1.21875 
Q 17.140625 -1.21875 11.234375 6.203125 
Q 4.15625 15.140625 4.15625 35.296875 
z
M 13.1875 35.296875 
Q 13.1875 17.671875 17.3125 11.828125 
Q 21.4375 6 27.484375 6 
Q 33.546875 6 37.671875 11.859375 
Q 41.796875 17.71875 41.796875 35.296875 
Q 41.796875 52.984375 37.671875 58.78125 
Q 33.546875 64.59375 27.390625 64.59375 
Q 21.34375 64.59375 17.71875 59.46875 
Q 13.1875 52.9375 13.1875 35.296875 
z
" id="ArialMT-48"/>
       <path d="M 37.25 0 
L 28.46875 0 
L 28.46875 56 
Q 25.296875 52.984375 20.140625 49.953125 
Q 14.984375 46.921875 10.890625 45.40625 
L 10.890625 53.90625 
Q 18.265625 57.375 23.78125 62.296875 
Q 29.296875 67.234375 31.59375 71.875 
L 37.25 71.875 
z
" id="ArialMT-49"/>
       <path d="M 3.171875 21.484375 
L 3.171875 30.328125 
L 30.171875 30.328125 
L 30.171875 21.484375 
z
" id="ArialMT-45"/>
       <path id="ArialMT-32"/>
      </defs>
      <g style="fill:#262626;" transform="translate(72.55419 366.597813)scale(0.1 -0.1)">
       <use xlink:href="#ArialMT-48"/>
       <use x="55.615234" xlink:href="#ArialMT-49"/>
       <use x="111.230469" xlink:href="#ArialMT-45"/>
       <use x="144.53125" xlink:href="#ArialMT-48"/>
       <use x="200.146484" xlink:href="#ArialMT-49"/>
       <use x="255.761719" xlink:href="#ArialMT-32"/>
       <use x="283.544922" xlink:href="#ArialMT-48"/>
       <use x="339.160156" xlink:href="#ArialMT-48"/>
      </g>
     </g>
    </g>
    <g id="xtick_2">
     <g id="line2d_3">
      <path clip-path="url(#p6fd1861a2f)" d="M 143.106403 352.44 
L 143.106403 47.52 
" style="fill:none;stroke:#ffffff;stroke-linecap:round;"/>
     </g>
     <g id="line2d_4"/>
     <g id="text_2">
      <!-- 01-01 06 -->
      <defs>
       <path d="M 49.75 54.046875 
L 41.015625 53.375 
Q 39.84375 58.546875 37.703125 60.890625 
Q 34.125 64.65625 28.90625 64.65625 
Q 24.703125 64.65625 21.53125 62.3125 
Q 17.390625 59.28125 14.984375 53.46875 
Q 12.59375 47.65625 12.5 36.921875 
Q 15.671875 41.75 20.265625 44.09375 
Q 24.859375 46.4375 29.890625 46.4375 
Q 38.671875 46.4375 44.84375 39.96875 
Q 51.03125 33.5 51.03125 23.25 
Q 51.03125 16.5 48.125 10.71875 
Q 45.21875 4.9375 40.140625 1.859375 
Q 35.0625 -1.21875 28.609375 -1.21875 
Q 17.625 -1.21875 10.6875 6.859375 
Q 3.765625 14.9375 3.765625 33.5 
Q 3.765625 54.25 11.421875 63.671875 
Q 18.109375 71.875 29.4375 71.875 
Q 37.890625 71.875 43.28125 67.140625 
Q 48.6875 62.40625 49.75 54.046875 
z
M 13.875 23.1875 
Q 13.875 18.65625 15.796875 14.5 
Q 17.71875 10.359375 21.1875 8.171875 
Q 24.65625 6 28.46875 6 
Q 34.03125 6 38.03125 10.484375 
Q 42.046875 14.984375 42.046875 22.703125 
Q 42.046875 30.125 38.078125 34.390625 
Q 34.125 38.671875 28.125 38.671875 
Q 22.171875 38.671875 18.015625 34.390625 
Q 13.875 30.125 13.875 23.1875 
z
" id="ArialMT-54"/>
      </defs>
      <g style="fill:#262626;" transform="translate(123.369684 366.597813)scale(0.1 -0.1)">
       <use xlink:href="#ArialMT-48"/>
       <use x="55.615234" xlink:href="#ArialMT-49"/>
       <use x="111.230469" xlink:href="#ArialMT-45"/>
       <use x="144.53125" xlink:href="#ArialMT-48"/>
       <use x="200.146484" xlink:href="#ArialMT-49"/>
       <use x="255.761719" xlink:href="#ArialMT-32"/>
       <use x="283.544922" xlink:href="#ArialMT-48"/>
       <use x="339.160156" xlink:href="#ArialMT-54"/>
      </g>
     </g>
    </g>
    <g id="xtick_3">
     <g id="line2d_5">
      <path clip-path="url(#p6fd1861a2f)" d="M 193.921897 352.44 
L 193.921897 47.52 
" style="fill:none;stroke:#ffffff;stroke-linecap:round;"/>
     </g>
     <g id="line2d_6"/>
     <g id="text_3">
      <!-- 01-01 12 -->
      <defs>
       <path d="M 50.34375 8.453125 
L 50.34375 0 
L 3.03125 0 
Q 2.9375 3.171875 4.046875 6.109375 
Q 5.859375 10.9375 9.828125 15.625 
Q 13.8125 20.3125 21.34375 26.46875 
Q 33.015625 36.03125 37.109375 41.625 
Q 41.21875 47.21875 41.21875 52.203125 
Q 41.21875 57.421875 37.46875 61 
Q 33.734375 64.59375 27.734375 64.59375 
Q 21.390625 64.59375 17.578125 60.78125 
Q 13.765625 56.984375 13.71875 50.25 
L 4.6875 51.171875 
Q 5.609375 61.28125 11.65625 66.578125 
Q 17.71875 71.875 27.9375 71.875 
Q 38.234375 71.875 44.234375 66.15625 
Q 50.25 60.453125 50.25 52 
Q 50.25 47.703125 48.484375 43.546875 
Q 46.734375 39.40625 42.65625 34.8125 
Q 38.578125 30.21875 29.109375 22.21875 
Q 21.1875 15.578125 18.9375 13.203125 
Q 16.703125 10.84375 15.234375 8.453125 
z
" id="ArialMT-50"/>
      </defs>
      <g style="fill:#262626;" transform="translate(174.185178 366.597813)scale(0.1 -0.1)">
       <use xlink:href="#ArialMT-48"/>
       <use x="55.615234" xlink:href="#ArialMT-49"/>
       <use x="111.230469" xlink:href="#ArialMT-45"/>
       <use x="144.53125" xlink:href="#ArialMT-48"/>
       <use x="200.146484" xlink:href="#ArialMT-49"/>
       <use x="255.761719" xlink:href="#ArialMT-32"/>
       <use x="283.544922" xlink:href="#ArialMT-49"/>
       <use x="339.160156" xlink:href="#ArialMT-50"/>
      </g>
     </g>
    </g>
    <g id="xtick_4">
     <g id="line2d_7">
      <path clip-path="url(#p6fd1861a2f)" d="M 244.737391 352.44 
L 244.737391 47.52 
" style="fill:none;stroke:#ffffff;stroke-linecap:round;"/>
     </g>
     <g id="line2d_8"/>
     <g id="text_4">
      <!-- 01-01 18 -->
      <defs>
       <path d="M 17.671875 38.8125 
Q 12.203125 40.828125 9.5625 44.53125 
Q 6.9375 48.25 6.9375 53.421875 
Q 6.9375 61.234375 12.546875 66.546875 
Q 18.171875 71.875 27.484375 71.875 
Q 36.859375 71.875 42.578125 66.421875 
Q 48.296875 60.984375 48.296875 53.171875 
Q 48.296875 48.1875 45.671875 44.5 
Q 43.0625 40.828125 37.75 38.8125 
Q 44.34375 36.671875 47.78125 31.875 
Q 51.21875 27.09375 51.21875 20.453125 
Q 51.21875 11.28125 44.71875 5.03125 
Q 38.234375 -1.21875 27.640625 -1.21875 
Q 17.046875 -1.21875 10.546875 5.046875 
Q 4.046875 11.328125 4.046875 20.703125 
Q 4.046875 27.6875 7.59375 32.390625 
Q 11.140625 37.109375 17.671875 38.8125 
z
M 15.921875 53.71875 
Q 15.921875 48.640625 19.1875 45.40625 
Q 22.46875 42.1875 27.6875 42.1875 
Q 32.765625 42.1875 36.015625 45.375 
Q 39.265625 48.578125 39.265625 53.21875 
Q 39.265625 58.0625 35.90625 61.359375 
Q 32.5625 64.65625 27.59375 64.65625 
Q 22.5625 64.65625 19.234375 61.421875 
Q 15.921875 58.203125 15.921875 53.71875 
z
M 13.09375 20.65625 
Q 13.09375 16.890625 14.875 13.375 
Q 16.65625 9.859375 20.171875 7.921875 
Q 23.6875 6 27.734375 6 
Q 34.03125 6 38.125 10.046875 
Q 42.234375 14.109375 42.234375 20.359375 
Q 42.234375 26.703125 38.015625 30.859375 
Q 33.796875 35.015625 27.4375 35.015625 
Q 21.234375 35.015625 17.15625 30.90625 
Q 13.09375 26.8125 13.09375 20.65625 
z
" id="ArialMT-56"/>
      </defs>
      <g style="fill:#262626;" transform="translate(225.000673 366.597813)scale(0.1 -0.1)">
       <use xlink:href="#ArialMT-48"/>
       <use x="55.615234" xlink:href="#ArialMT-49"/>
       <use x="111.230469" xlink:href="#ArialMT-45"/>
       <use x="144.53125" xlink:href="#ArialMT-48"/>
       <use x="200.146484" xlink:href="#ArialMT-49"/>
       <use x="255.761719" xlink:href="#ArialMT-32"/>
       <use x="283.544922" xlink:href="#ArialMT-49"/>
       <use x="339.160156" xlink:href="#ArialMT-56"/>
      </g>
     </g>
    </g>
    <g id="xtick_5">
     <g id="line2d_9">
      <path clip-path="url(#p6fd1861a2f)" d="M 295.552885 352.44 
L 295.552885 47.52 
" style="fill:none;stroke:#ffffff;stroke-linecap:round;"/>
     </g>
     <g id="line2d_10"/>
     <g id="text_5">
      <!-- 01-02 00 -->
      <g style="fill:#262626;" transform="translate(275.816167 366.597813)scale(0.1 -0.1)">
       <use xlink:href="#ArialMT-48"/>
       <use x="55.615234" xlink:href="#ArialMT-49"/>
       <use x="111.230469" xlink:href="#ArialMT-45"/>
       <use x="144.53125" xlink:href="#ArialMT-48"/>
       <use x="200.146484" xlink:href="#ArialMT-50"/>
       <use x="255.761719" xlink:href="#ArialMT-32"/>
       <use x="283.544922" xlink:href="#ArialMT-48"/>
       <use x="339.160156" xlink:href="#ArialMT-48"/>
      </g>
     </g>
    </g>
    <g id="xtick_6">
     <g id="line2d_11">
      <path clip-path="url(#p6fd1861a2f)" d="M 346.368379 352.44 
L 346.368379 47.52 
" style="fill:none;stroke:#ffffff;stroke-linecap:round;"/>
     </g>
     <g id="line2d_12"/>
     <g id="text_6">
      <!-- 01-02 06 -->
      <g style="fill:#262626;" transform="translate(326.631661 366.597813)scale(0.1 -0.1)">
       <use xlink:href="#ArialMT-48"/>
       <use x="55.615234" xlink:href="#ArialMT-49"/>
       <use x="111.230469" xlink:href="#ArialMT-45"/>
       <use x="144.53125" xlink:href="#ArialMT-48"/>
       <use x="200.146484" xlink:href="#ArialMT-50"/>
       <use x="255.761719" xlink:href="#ArialMT-32"/>
       <use x="283.544922" xlink:href="#ArialMT-48"/>
       <use x="339.160156" xlink:href="#ArialMT-54"/>
      </g>
     </g>
    </g>
    <g id="xtick_7">
     <g id="line2d_13">
      <path clip-path="url(#p6fd1861a2f)" d="M 397.183874 352.44 
L 397.183874 47.52 
" style="fill:none;stroke:#ffffff;stroke-linecap:round;"/>
     </g>
     <g id="line2d_14"/>
     <g id="text_7">
      <!-- 01-02 12 -->
      <g style="fill:#262626;" transform="translate(377.447155 366.597813)scale(0.1 -0.1)">
       <use xlink:href="#ArialMT-48"/>
       <use x="55.615234" xlink:href="#ArialMT-49"/>
       <use x="111.230469" xlink:href="#ArialMT-45"/>
       <use x="144.53125" xlink:href="#ArialMT-48"/>
       <use x="200.146484" xlink:href="#ArialMT-50"/>
       <use x="255.761719" xlink:href="#ArialMT-32"/>
       <use x="283.544922" xlink:href="#ArialMT-49"/>
       <use x="339.160156" xlink:href="#ArialMT-50"/>
      </g>
     </g>
    </g>
    <g id="xtick_8">
     <g id="line2d_15">
      <path clip-path="url(#p6fd1861a2f)" d="M 447.999368 352.44 
L 447.999368 47.52 
" style="fill:none;stroke:#ffffff;stroke-linecap:round;"/>
     </g>
     <g id="line2d_16"/>
     <g id="text_8">
      <!-- 01-02 18 -->
      <g style="fill:#262626;" transform="translate(428.262649 366.597813)scale(0.1 -0.1)">
       <use xlink:href="#ArialMT-48"/>
       <use x="55.615234" xlink:href="#ArialMT-49"/>
       <use x="111.230469" xlink:href="#ArialMT-45"/>
       <use x="144.53125" xlink:href="#ArialMT-48"/>
       <use x="200.146484" xlink:href="#ArialMT-50"/>
       <use x="255.761719" xlink:href="#ArialMT-32"/>
       <use x="283.544922" xlink:href="#ArialMT-49"/>
       <use x="339.160156" xlink:href="#ArialMT-56"/>
      </g>
     </g>
    </g>
    <g id="xtick_9">
     <g id="line2d_17">
      <path clip-path="url(#p6fd1861a2f)" d="M 498.814862 352.44 
L 498.814862 47.52 
" style="fill:none;stroke:#ffffff;stroke-linecap:round;"/>
     </g>
     <g id="line2d_18"/>
     <g id="text_9">
      <!-- 01-03 00 -->
      <defs>
       <path d="M 4.203125 18.890625 
L 12.984375 20.0625 
Q 14.5 12.59375 18.140625 9.296875 
Q 21.78125 6 27 6 
Q 33.203125 6 37.46875 10.296875 
Q 41.75 14.59375 41.75 20.953125 
Q 41.75 27 37.796875 30.921875 
Q 33.84375 34.859375 27.734375 34.859375 
Q 25.25 34.859375 21.53125 33.890625 
L 22.515625 41.609375 
Q 23.390625 41.5 23.921875 41.5 
Q 29.546875 41.5 34.03125 44.421875 
Q 38.53125 47.359375 38.53125 53.46875 
Q 38.53125 58.296875 35.25 61.46875 
Q 31.984375 64.65625 26.8125 64.65625 
Q 21.6875 64.65625 18.265625 61.421875 
Q 14.84375 58.203125 13.875 51.765625 
L 5.078125 53.328125 
Q 6.6875 62.15625 12.390625 67.015625 
Q 18.109375 71.875 26.609375 71.875 
Q 32.46875 71.875 37.390625 69.359375 
Q 42.328125 66.84375 44.9375 62.5 
Q 47.5625 58.15625 47.5625 53.265625 
Q 47.5625 48.640625 45.0625 44.828125 
Q 42.578125 41.015625 37.703125 38.765625 
Q 44.046875 37.3125 47.5625 32.6875 
Q 51.078125 28.078125 51.078125 21.140625 
Q 51.078125 11.765625 44.234375 5.25 
Q 37.40625 -1.265625 26.953125 -1.265625 
Q 17.53125 -1.265625 11.296875 4.34375 
Q 5.078125 9.96875 4.203125 18.890625 
z
" id="ArialMT-51"/>
      </defs>
      <g style="fill:#262626;" transform="translate(479.078143 366.597813)scale(0.1 -0.1)">
       <use xlink:href="#ArialMT-48"/>
       <use x="55.615234" xlink:href="#ArialMT-49"/>
       <use x="111.230469" xlink:href="#ArialMT-45"/>
       <use x="144.53125" xlink:href="#ArialMT-48"/>
       <use x="200.146484" xlink:href="#ArialMT-51"/>
       <use x="255.761719" xlink:href="#ArialMT-32"/>
       <use x="283.544922" xlink:href="#ArialMT-48"/>
       <use x="339.160156" xlink:href="#ArialMT-48"/>
      </g>
     </g>
    </g>
   </g>
   <g id="matplotlib.axis_2">
    <g id="ytick_1">
     <g id="line2d_19">
      <path clip-path="url(#p6fd1861a2f)" d="M 72 343.847158 
L 518.4 343.847158 
" style="fill:none;stroke:#ffffff;stroke-linecap:round;"/>
     </g>
     <g id="line2d_20"/>
     <g id="text_10">
      <!-- 0 -->
      <g style="fill:#262626;" transform="translate(59.439062 347.426064)scale(0.1 -0.1)">
       <use xlink:href="#ArialMT-48"/>
      </g>
     </g>
    </g>
    <g id="ytick_2">
     <g id="line2d_21">
      <path clip-path="url(#p6fd1861a2f)" d="M 72 299.688739 
L 518.4 299.688739 
" style="fill:none;stroke:#ffffff;stroke-linecap:round;"/>
     </g>
     <g id="line2d_22"/>
     <g id="text_11">
      <!-- 1 -->
      <g style="fill:#262626;" transform="translate(59.439062 303.267645)scale(0.1 -0.1)">
       <use xlink:href="#ArialMT-49"/>
      </g>
     </g>
    </g>
    <g id="ytick_3">
     <g id="line2d_23">
      <path clip-path="url(#p6fd1861a2f)" d="M 72 255.530319 
L 518.4 255.530319 
" style="fill:none;stroke:#ffffff;stroke-linecap:round;"/>
     </g>
     <g id="line2d_24"/>
     <g id="text_12">
      <!-- 2 -->
      <g style="fill:#262626;" transform="translate(59.439062 259.109225)scale(0.1 -0.1)">
       <use xlink:href="#ArialMT-50"/>
      </g>
     </g>
    </g>
    <g id="ytick_4">
     <g id="line2d_25">
      <path clip-path="url(#p6fd1861a2f)" d="M 72 211.3719 
L 518.4 211.3719 
" style="fill:none;stroke:#ffffff;stroke-linecap:round;"/>
     </g>
     <g id="line2d_26"/>
     <g id="text_13">
      <!-- 3 -->
      <g style="fill:#262626;" transform="translate(59.439062 214.950806)scale(0.1 -0.1)">
       <use xlink:href="#ArialMT-51"/>
      </g>
     </g>
    </g>
    <g id="ytick_5">
     <g id="line2d_27">
      <path clip-path="url(#p6fd1861a2f)" d="M 72 167.21348 
L 518.4 167.21348 
" style="fill:none;stroke:#ffffff;stroke-linecap:round;"/>
     </g>
     <g id="line2d_28"/>
     <g id="text_14">
      <!-- 4 -->
      <defs>
       <path d="M 32.328125 0 
L 32.328125 17.140625 
L 1.265625 17.140625 
L 1.265625 25.203125 
L 33.9375 71.578125 
L 41.109375 71.578125 
L 41.109375 25.203125 
L 50.78125 25.203125 
L 50.78125 17.140625 
L 41.109375 17.140625 
L 41.109375 0 
z
M 32.328125 25.203125 
L 32.328125 57.46875 
L 9.90625 25.203125 
z
" id="ArialMT-52"/>
      </defs>
      <g style="fill:#262626;" transform="translate(59.439062 170.792386)scale(0.1 -0.1)">
       <use xlink:href="#ArialMT-52"/>
      </g>
     </g>
    </g>
    <g id="ytick_6">
     <g id="line2d_29">
      <path clip-path="url(#p6fd1861a2f)" d="M 72 123.055061 
L 518.4 123.055061 
" style="fill:none;stroke:#ffffff;stroke-linecap:round;"/>
     </g>
     <g id="line2d_30"/>
     <g id="text_15">
      <!-- 5 -->
      <defs>
       <path d="M 4.15625 18.75 
L 13.375 19.53125 
Q 14.40625 12.796875 18.140625 9.390625 
Q 21.875 6 27.15625 6 
Q 33.5 6 37.890625 10.78125 
Q 42.28125 15.578125 42.28125 23.484375 
Q 42.28125 31 38.0625 35.34375 
Q 33.84375 39.703125 27 39.703125 
Q 22.75 39.703125 19.328125 37.765625 
Q 15.921875 35.84375 13.96875 32.765625 
L 5.71875 33.84375 
L 12.640625 70.609375 
L 48.25 70.609375 
L 48.25 62.203125 
L 19.671875 62.203125 
L 15.828125 42.96875 
Q 22.265625 47.46875 29.34375 47.46875 
Q 38.71875 47.46875 45.15625 40.96875 
Q 51.609375 34.46875 51.609375 24.265625 
Q 51.609375 14.546875 45.953125 7.46875 
Q 39.0625 -1.21875 27.15625 -1.21875 
Q 17.390625 -1.21875 11.203125 4.25 
Q 5.03125 9.71875 4.15625 18.75 
z
" id="ArialMT-53"/>
      </defs>
      <g style="fill:#262626;" transform="translate(59.439062 126.633967)scale(0.1 -0.1)">
       <use xlink:href="#ArialMT-53"/>
      </g>
     </g>
    </g>
    <g id="ytick_7">
     <g id="line2d_31">
      <path clip-path="url(#p6fd1861a2f)" d="M 72 78.896641 
L 518.4 78.896641 
" style="fill:none;stroke:#ffffff;stroke-linecap:round;"/>
     </g>
     <g id="line2d_32"/>
     <g id="text_16">
      <!-- 6 -->
      <g style="fill:#262626;" transform="translate(59.439062 82.475547)scale(0.1 -0.1)">
       <use xlink:href="#ArialMT-54"/>
      </g>
     </g>
    </g>
    <g id="text_17">
     <!-- 1e7 -->
     <defs>
      <path d="M 42.09375 16.703125 
L 51.171875 15.578125 
Q 49.03125 7.625 43.21875 3.21875 
Q 37.40625 -1.171875 28.375 -1.171875 
Q 17 -1.171875 10.328125 5.828125 
Q 3.65625 12.84375 3.65625 25.484375 
Q 3.65625 38.578125 10.390625 45.796875 
Q 17.140625 53.03125 27.875 53.03125 
Q 38.28125 53.03125 44.875 45.953125 
Q 51.46875 38.875 51.46875 26.03125 
Q 51.46875 25.25 51.421875 23.6875 
L 12.75 23.6875 
Q 13.234375 15.140625 17.578125 10.59375 
Q 21.921875 6.0625 28.421875 6.0625 
Q 33.25 6.0625 36.671875 8.59375 
Q 40.09375 11.140625 42.09375 16.703125 
z
M 13.234375 30.90625 
L 42.1875 30.90625 
Q 41.609375 37.453125 38.875 40.71875 
Q 34.671875 45.796875 27.984375 45.796875 
Q 21.921875 45.796875 17.796875 41.75 
Q 13.671875 37.703125 13.234375 30.90625 
z
" id="ArialMT-101"/>
      <path d="M 4.734375 62.203125 
L 4.734375 70.65625 
L 51.078125 70.65625 
L 51.078125 63.8125 
Q 44.234375 56.546875 37.515625 44.484375 
Q 30.8125 32.421875 27.15625 19.671875 
Q 24.515625 10.6875 23.78125 0 
L 14.75 0 
Q 14.890625 8.453125 18.0625 20.40625 
Q 21.234375 32.375 27.171875 43.484375 
Q 33.109375 54.59375 39.796875 62.203125 
z
" id="ArialMT-55"/>
     </defs>
     <g style="fill:#262626;" transform="translate(72 44.52)scale(0.1 -0.1)">
      <use xlink:href="#ArialMT-49"/>
      <use x="55.615234" xlink:href="#ArialMT-101"/>
      <use x="111.230469" xlink:href="#ArialMT-55"/>
     </g>
    </g>
   </g>
   <g id="line2d_33">
    <path clip-path="url(#p6fd1861a2f)" d="M 92.290909 265.736868 
L 93.702451 265.537647 
L 94.408221 267.889056 
L 95.819763 267.694905 
L 96.525534 269.305185 
L 97.937075 269.147866 
L 98.642846 274.783317 
L 100.054387 274.630634 
L 100.760158 276.044888 
L 102.1717 275.907744 
L 102.87747 278.099799 
L 104.289012 277.988032 
L 104.994783 280.430199 
L 106.406324 280.331681 
L 107.112095 282.397142 
L 108.523636 282.307598 
L 109.229407 282.566844 
L 110.640949 282.497168 
L 111.346719 283.676879 
L 112.758261 283.630036 
L 113.464032 286.648847 
L 114.875573 286.597381 
L 115.581344 288.43113 
L 121.22751 288.281936 
L 121.933281 287.436481 
L 123.344822 287.417268 
L 124.050593 308.727213 
L 125.462134 308.658343 
L 126.167905 305.343434 
L 127.579447 305.229118 
L 128.285217 302.596862 
L 129.696759 302.482277 
L 130.40253 300.021725 
L 131.814071 299.944182 
L 132.519842 293.683423 
L 133.931383 293.677694 
L 134.637154 292.18252 
L 136.048696 292.234509 
L 136.754466 290.050812 
L 138.166008 290.138828 
L 138.871779 288.435371 
L 140.28332 288.53159 
L 140.989091 280.57429 
L 142.400632 280.737563 
L 143.106403 273.052615 
L 144.517945 273.323887 
L 145.223715 264.626897 
L 146.635257 265.025663 
L 147.341028 255.613516 
L 148.752569 256.126281 
L 149.45834 248.313655 
L 150.869881 248.838143 
L 151.575652 240.8546 
L 154.398735 241.944329 
L 155.104506 242.061181 
L 155.810277 234.689459 
L 157.221818 234.987437 
L 157.927589 229.155671 
L 159.33913 229.513994 
L 160.044901 219.459403 
L 161.456443 219.967259 
L 162.162213 228.893292 
L 163.573755 228.89445 
L 164.279526 228.223389 
L 165.691067 228.164753 
L 166.396838 226.355566 
L 167.808379 226.371125 
L 168.51415 224.36577 
L 169.925692 224.452185 
L 170.631462 226.25637 
L 172.043004 226.258668 
L 172.748775 229.145214 
L 174.160316 229.045848 
L 174.866087 227.703473 
L 176.277628 227.680116 
L 176.983399 227.481487 
L 178.394941 227.494388 
L 179.100711 230.036807 
L 180.512253 229.971472 
L 181.218024 230.438794 
L 182.629565 230.377562 
L 183.335336 231.565268 
L 184.746877 231.499811 
L 185.452648 232.155324 
L 186.86419 232.107478 
L 187.56996 235.714679 
L 188.981502 235.604476 
L 189.687273 235.408709 
L 191.098814 235.342883 
L 191.804585 234.825082 
L 193.216126 234.811817 
L 193.921897 235.991232 
L 195.333439 235.965233 
L 196.039209 238.474689 
L 197.450751 238.400596 
L 198.156522 237.915635 
L 199.568063 237.87495 
L 200.273834 240.770307 
L 201.685375 240.688903 
L 202.391146 241.033108 
L 203.802688 240.97024 
L 204.508458 242.036562 
L 205.92 241.979891 
L 206.625771 242.448587 
L 208.037312 242.405059 
L 208.743083 244.13539 
L 210.154624 244.078622 
L 210.860395 243.73741 
L 212.271937 243.707214 
L 212.977708 244.367724 
L 214.389249 244.340543 
L 215.09502 244.066926 
L 216.506561 244.056979 
L 217.212332 242.408054 
L 218.623874 242.438523 
L 219.329644 242.300498 
L 220.741186 242.335439 
L 221.446957 243.695863 
L 222.858498 243.684955 
L 223.564269 243.413247 
L 224.97581 243.400874 
L 225.681581 242.822848 
L 227.093123 242.830191 
L 227.798893 243.046363 
L 229.210435 243.050202 
L 229.916206 243.681863 
L 231.327747 243.672591 
L 232.033518 242.990393 
L 233.445059 242.991098 
L 234.15083 243.21513 
L 235.562372 243.218316 
L 236.268142 242.397986 
L 237.679684 242.420128 
L 238.385455 243.106242 
L 239.796996 243.105504 
L 240.502767 242.673248 
L 241.914308 242.679413 
L 242.620079 243.373484 
L 244.031621 243.36536 
L 244.737391 243.213918 
L 246.148933 243.207312 
L 246.854704 242.659397 
L 248.266245 242.66757 
L 248.972016 241.629666 
L 252.50087 241.685013 
L 253.20664 241.478441 
L 254.618182 241.493014 
L 255.323953 242.131988 
L 256.735494 242.122709 
L 257.441265 241.835738 
L 260.970119 241.784114 
L 261.675889 242.171888 
L 263.087431 242.164137 
L 263.793202 242.438738 
L 265.204743 242.427321 
L 265.910514 242.686149 
L 266.616285 242.680436 
L 267.322055 101.954078 
L 268.027826 134.56307 
L 268.733597 159.827767 
L 269.439368 178.486727 
L 270.145138 191.619435 
L 270.850909 201.985575 
L 272.262451 218.211314 
L 272.968221 222.89631 
L 274.379763 230.118882 
L 275.085534 232.570814 
L 275.791304 234.583203 
L 276.497075 240.005373 
L 277.908617 242.375707 
L 278.614387 244.3228 
L 280.025929 245.69209 
L 280.7317 250.505526 
L 282.143241 251.258024 
L 282.849012 253.463404 
L 284.260553 253.901646 
L 284.966324 264.629054 
L 286.377866 264.832869 
L 287.083636 269.002513 
L 288.495178 269.112861 
L 289.200949 276.878257 
L 290.61249 276.924453 
L 291.318261 279.269853 
L 292.729802 279.290556 
L 293.435573 286.140441 
L 294.847115 286.1408 
L 295.552885 320.85593 
L 297.670198 320.621174 
L 299.081739 319.987831 
L 299.78751 318.861268 
L 301.199051 317.671475 
L 301.904822 317.789565 
L 304.022134 315.487593 
L 305.433676 313.268968 
L 306.139447 312.872167 
L 307.550988 310.200929 
L 308.96253 306.864872 
L 309.6683 305.250369 
L 310.374071 305.514312 
L 311.785613 302.511267 
L 312.491383 300.452222 
L 314.608696 296.233655 
L 316.020237 294.200879 
L 318.137549 292.462378 
L 318.84332 295.144422 
L 320.254862 294.569626 
L 320.960632 293.487248 
L 322.372174 293.193427 
L 323.077945 292.351036 
L 324.489486 292.212832 
L 325.195257 290.471658 
L 326.606798 290.435879 
L 327.312569 311.136238 
L 328.724111 311.077201 
L 329.429881 307.131741 
L 330.841423 307.033915 
L 331.547194 303.327066 
L 332.958735 303.232729 
L 333.664506 299.64222 
L 335.076047 299.590076 
L 335.781818 292.543438 
L 337.19336 292.576441 
L 337.89913 290.235895 
L 339.310672 290.334704 
L 340.016443 287.42157 
L 341.427984 287.562034 
L 342.133755 285.051219 
L 343.545296 285.198647 
L 344.251067 276.502201 
L 345.662609 276.726618 
L 346.368379 268.043809 
L 347.779921 268.391399 
L 348.485692 258.711161 
L 349.897233 259.198134 
L 350.603004 249.112805 
L 352.014545 249.707895 
L 352.720316 241.005088 
L 354.131858 241.600678 
L 354.837628 232.962833 
L 356.24917 233.549883 
L 356.954941 232.974995 
L 358.366482 233.286014 
L 359.072253 224.918546 
L 360.483794 225.287266 
L 361.189565 218.52432 
L 362.601107 218.957923 
L 363.306877 209.433816 
L 364.718419 209.972319 
L 365.42419 217.739532 
L 366.835731 217.735804 
L 367.541502 215.569226 
L 368.953043 215.566981 
L 369.658814 212.814075 
L 371.070356 212.905527 
L 371.776126 210.786927 
L 373.187668 210.918814 
L 373.893439 211.195847 
L 375.30498 211.248873 
L 376.010751 213.473167 
L 377.422292 213.405126 
L 378.128063 211.160143 
L 379.539605 211.199587 
L 380.245375 210.471645 
L 381.656917 210.528669 
L 382.362688 212.232775 
L 385.891542 212.140149 
L 386.597312 212.305749 
L 390.126166 212.254944 
L 390.831937 215.023427 
L 392.243478 214.936434 
L 392.949249 212.917134 
L 394.360791 212.93585 
L 395.066561 212.252184 
L 396.478103 212.296282 
L 397.183874 213.032312 
L 398.595415 213.032201 
L 399.301186 214.655935 
L 400.712727 214.601398 
L 401.418498 213.950435 
L 402.83004 213.938626 
L 403.53581 216.130422 
L 404.947352 216.061407 
L 405.653123 215.761672 
L 407.064664 215.731701 
L 407.770435 216.282101 
L 409.181976 216.25395 
L 409.887747 216.463898 
L 411.299289 216.444719 
L 412.005059 217.95612 
L 413.416601 217.904654 
L 414.122372 217.429041 
L 415.533913 217.413292 
L 416.239684 217.637898 
L 417.651225 217.626468 
L 418.356996 217.044157 
L 419.768538 217.057816 
L 420.474308 214.944804 
L 421.88585 215.016492 
L 422.591621 215.227088 
L 424.003162 215.266995 
L 424.708933 216.361505 
L 426.120474 216.340077 
L 426.826245 215.431715 
L 428.237787 215.44133 
L 428.943557 215.251176 
L 430.355099 215.266717 
L 431.06087 215.448227 
L 432.472411 215.449809 
L 433.178182 215.589426 
L 434.589723 215.588319 
L 435.295494 214.970647 
L 436.707036 214.981648 
L 437.412806 214.44922 
L 438.824348 214.482338 
L 439.530119 213.845712 
L 440.94166 213.883401 
L 441.647431 214.903956 
L 443.058972 214.88622 
L 443.764743 214.418491 
L 445.176285 214.421316 
L 445.882055 214.830558 
L 447.293597 214.824165 
L 447.999368 214.291587 
L 449.410909 214.303074 
L 450.11668 213.585339 
L 451.528221 213.614504 
L 452.233992 212.533653 
L 455.762846 212.6369 
L 456.468617 212.999965 
L 457.880158 212.994907 
L 458.585929 213.426849 
L 459.99747 213.405376 
L 460.703241 213.197052 
L 462.114783 213.194265 
L 462.820553 213.399409 
L 464.232095 213.390695 
L 464.937866 213.724479 
L 466.349407 213.710767 
L 467.055178 213.956744 
L 468.466719 213.944053 
L 469.17249 214.393415 
L 470.584032 214.374711 
L 471.289802 214.733205 
L 472.701344 214.708766 
L 473.407115 214.264072 
L 474.818656 214.266731 
L 475.524427 216.492151 
L 476.935968 216.425141 
L 477.641739 217.025307 
L 479.053281 216.968064 
L 479.759051 221.389627 
L 481.170593 221.238629 
L 481.876364 222.722424 
L 482.582134 61.38 
L 483.993676 142.606538 
L 484.699447 163.099401 
L 485.405217 278.811927 
L 486.110988 281.922195 
L 486.816759 281.104456 
L 487.52253 278.861687 
L 488.2283 283.052283 
L 488.934071 279.551011 
L 489.639842 275.353185 
L 490.345613 274.457058 
L 491.757154 265.220466 
L 492.462925 268.450157 
L 493.874466 262.036634 
L 494.580237 262.352749 
L 495.286008 260.529892 
L 495.991779 259.162246 
L 496.697549 265.616002 
L 497.40332 264.9939 
L 498.109091 264.552416 
L 498.109091 264.552416 
" style="fill:none;stroke:#4c72b0;stroke-linecap:round;stroke-width:1.75;"/>
   </g>
   <g id="line2d_34">
    <path clip-path="url(#p6fd1861a2f)" d="M 92.290909 265.28622 
L 93.702451 265.28622 
L 94.408221 267.631747 
L 95.819763 267.631747 
L 96.525534 269.214644 
L 97.937075 269.214644 
L 98.642846 274.580659 
L 100.054387 274.580659 
L 100.760158 275.981291 
L 102.1717 275.981291 
L 102.87747 278.105645 
L 104.289012 278.105645 
L 104.994783 280.45317 
L 106.406324 280.45317 
L 107.112095 282.446116 
L 108.523636 282.446116 
L 109.229407 282.73502 
L 110.640949 282.73502 
L 111.346719 283.902308 
L 112.758261 283.902308 
L 113.464032 286.777182 
L 114.875573 286.777182 
L 115.581344 288.521091 
L 121.22751 288.58237 
L 121.933281 287.814204 
L 123.344822 287.814204 
L 124.050593 308.165094 
L 125.462134 308.165094 
L 126.167905 304.992632 
L 127.579447 304.992632 
L 128.285217 302.535048 
L 129.696759 302.535048 
L 130.40253 300.248575 
L 131.814071 300.248575 
L 132.519842 294.365764 
L 133.931383 294.365764 
L 134.637154 292.946081 
L 136.048696 292.946081 
L 136.754466 290.888811 
L 138.166008 290.888811 
L 138.871779 289.245107 
L 140.28332 289.245107 
L 140.989091 281.747727 
L 142.400632 281.747727 
L 143.106403 274.53284 
L 144.517945 274.53284 
L 145.223715 266.374735 
L 146.635257 266.374735 
L 147.341028 257.534034 
L 148.752569 257.534034 
L 149.45834 250.118879 
L 150.869881 250.118879 
L 151.575652 242.580657 
L 152.987194 242.580657 
L 153.692964 242.759221 
L 155.104506 242.759221 
L 155.810277 235.870687 
L 157.221818 235.870687 
L 157.927589 230.408497 
L 159.33913 230.408497 
L 160.044901 221.036951 
L 161.456443 221.036951 
L 162.162213 229.097047 
L 163.573755 229.097047 
L 164.279526 228.512416 
L 165.691067 228.512416 
L 166.396838 226.845769 
L 167.808379 226.845769 
L 168.51415 224.99209 
L 169.925692 224.99209 
L 170.631462 226.628912 
L 172.043004 226.628912 
L 172.748775 229.291754 
L 174.160316 229.291754 
L 174.866087 228.099097 
L 176.277628 228.099097 
L 176.983399 227.924517 
L 178.394941 227.924517 
L 179.100711 230.260052 
L 180.512253 230.260052 
L 181.218024 230.717234 
L 182.629565 230.717234 
L 183.335336 231.824172 
L 184.746877 231.824172 
L 185.452648 232.45754 
L 186.86419 232.45754 
L 187.56996 235.813954 
L 188.981502 235.813954 
L 189.687273 235.685216 
L 191.098814 235.685216 
L 191.804585 235.22499 
L 193.216126 235.22499 
L 193.921897 236.321224 
L 195.333439 236.321224 
L 196.039209 238.664698 
L 197.450751 238.664698 
L 198.156522 238.248797 
L 199.568063 238.248797 
L 200.273834 240.939866 
L 201.685375 240.939866 
L 202.391146 241.297737 
L 203.802688 241.297737 
L 204.508458 242.302307 
L 205.92 242.302307 
L 206.625771 242.75565 
L 208.037312 242.75565 
L 208.743083 244.379476 
L 210.154624 244.379476 
L 210.860395 244.088191 
L 212.271937 244.088191 
L 212.977708 244.705113 
L 214.389249 244.705113 
L 215.09502 244.462723 
L 216.506561 244.462723 
L 217.212332 242.929204 
L 218.623874 242.929204 
L 219.329644 242.792525 
L 220.741186 242.792525 
L 221.446957 244.043577 
L 222.858498 244.043577 
L 223.564269 243.798419 
L 224.97581 243.798419 
L 225.681581 243.265233 
L 227.093123 243.265233 
L 227.798893 243.46082 
L 229.210435 243.46082 
L 229.916206 244.052933 
L 231.327747 244.052933 
L 232.033518 243.417643 
L 233.445059 243.417643 
L 234.15083 243.62833 
L 235.562372 243.62833 
L 236.268142 242.873424 
L 237.679684 242.873424 
L 238.385455 243.496799 
L 239.796996 243.496799 
L 240.502767 243.103954 
L 241.914308 243.103954 
L 242.620079 243.747072 
L 244.031621 243.747072 
L 244.737391 243.610632 
L 246.148933 243.610632 
L 246.854704 243.102049 
L 248.266245 243.102049 
L 248.972016 242.1398 
L 252.50087 242.122179 
L 253.20664 241.922827 
L 254.618182 241.922827 
L 255.323953 242.506025 
L 256.735494 242.506025 
L 257.441265 242.245964 
L 260.970119 242.198386 
L 261.675889 242.555889 
L 263.087431 242.555889 
L 263.793202 242.816196 
L 265.204743 242.816196 
L 265.910514 243.064421 
L 267.322055 243.064421 
L 268.027826 243.399781 
L 269.439368 243.399781 
L 270.145138 242.97262 
L 271.55668 242.97262 
L 272.262451 244.755049 
L 273.673992 244.755049 
L 274.379763 245.143754 
L 275.791304 245.143754 
L 276.497075 248.607987 
L 277.908617 248.607987 
L 278.614387 249.592026 
L 280.025929 249.592026 
L 280.7317 253.716931 
L 282.143241 253.716931 
L 282.849012 255.576154 
L 284.260553 255.576154 
L 284.966324 265.914517 
L 286.377866 265.914517 
L 287.083636 269.938365 
L 288.495178 269.938365 
L 289.200949 277.550587 
L 290.61249 277.550587 
L 291.318261 279.849216 
L 292.729802 279.849216 
L 293.435573 286.612721 
L 296.964427 286.711445 
L 297.670198 287.206108 
L 299.081739 287.206108 
L 299.78751 285.633245 
L 301.199051 285.633245 
L 301.904822 287.426451 
L 303.316364 287.426451 
L 304.022134 288.090243 
L 305.433676 288.090243 
L 306.139447 289.551585 
L 307.550988 289.551585 
L 308.256759 289.090666 
L 309.6683 289.090666 
L 310.374071 291.576613 
L 311.785613 291.576613 
L 312.491383 290.915552 
L 313.902925 290.915552 
L 314.608696 290.726092 
L 316.020237 290.726092 
L 316.726008 291.113039 
L 318.137549 291.113039 
L 318.84332 294.100402 
L 320.254862 294.100402 
L 320.960632 293.259542 
L 322.372174 293.259542 
L 323.077945 292.5299 
L 324.489486 292.5299 
L 325.195257 290.947649 
L 326.606798 290.947649 
L 327.312569 310.697149 
L 328.724111 310.697149 
L 329.429881 306.899026 
L 330.841423 306.899026 
L 331.547194 303.410751 
L 332.958735 303.410751 
L 333.664506 300.048932 
L 335.076047 300.048932 
L 335.781818 293.432169 
L 337.19336 293.432169 
L 337.89913 291.208066 
L 339.310672 291.208066 
L 340.016443 288.457207 
L 341.427984 288.457207 
L 342.133755 286.041315 
L 343.545296 286.041315 
L 344.251067 277.855193 
L 345.662609 277.855193 
L 346.368379 269.709005 
L 347.779921 269.709005 
L 348.485692 260.632935 
L 349.897233 260.632935 
L 350.603004 251.157276 
L 352.014545 251.157276 
L 352.720316 242.909112 
L 354.131858 242.909112 
L 354.837628 234.760993 
L 356.24917 234.760993 
L 356.954941 234.015223 
L 358.366482 234.015223 
L 359.072253 226.217104 
L 360.483794 226.217104 
L 361.189565 219.885603 
L 362.601107 219.885603 
L 363.306877 210.993297 
L 364.718419 210.993297 
L 365.42419 217.972023 
L 366.835731 217.972023 
L 367.541502 216.008404 
L 368.953043 216.008404 
L 369.658814 213.455698 
L 371.070356 213.455698 
L 371.776126 211.478803 
L 373.187668 211.478803 
L 373.893439 211.693367 
L 375.30498 211.693367 
L 376.010751 213.716614 
L 377.422292 213.716614 
L 378.128063 211.68781 
L 379.539605 211.68781 
L 380.245375 211.000734 
L 381.656917 211.000734 
L 382.362688 212.546728 
L 385.891542 212.530336 
L 386.597312 212.681898 
L 390.126166 212.666097 
L 390.831937 215.219579 
L 392.243478 215.219579 
L 392.949249 213.402315 
L 394.360791 213.402315 
L 395.066561 212.759297 
L 396.478103 212.759297 
L 397.183874 213.426925 
L 398.595415 213.426925 
L 399.301186 214.931722 
L 400.712727 214.931722 
L 401.418498 214.353639 
L 402.83004 214.353639 
L 403.53581 216.372069 
L 404.947352 216.372069 
L 405.653123 216.124757 
L 407.064664 216.124757 
L 407.770435 216.634007 
L 409.181976 216.634007 
L 409.887747 216.837392 
L 411.299289 216.837392 
L 412.005059 218.240382 
L 413.416601 218.240382 
L 414.122372 217.82152 
L 415.533913 217.82152 
L 416.239684 218.026685 
L 417.651225 218.026685 
L 418.356996 217.494464 
L 419.768538 217.494464 
L 420.474308 215.534813 
L 421.88585 215.534813 
L 422.591621 215.707294 
L 424.003162 215.707294 
L 424.708933 216.707593 
L 426.120474 216.707593 
L 426.826245 215.879617 
L 428.237787 215.879617 
L 428.943557 215.697287 
L 430.355099 215.697287 
L 431.06087 215.859292 
L 432.472411 215.859292 
L 433.178182 215.994571 
L 434.589723 215.994571 
L 435.295494 215.417195 
L 436.707036 215.417195 
L 437.412806 214.931777 
L 438.824348 214.931777 
L 439.530119 214.336897 
L 440.94166 214.336897 
L 441.647431 215.261787 
L 443.058972 215.261787 
L 443.764743 214.843955 
L 445.176285 214.843955 
L 445.882055 215.221801 
L 447.293597 215.221801 
L 447.999368 214.734742 
L 449.410909 214.734742 
L 450.11668 214.066174 
L 451.528221 214.066174 
L 452.233992 213.063952 
L 455.762846 213.067393 
L 456.468617 213.394809 
L 457.880158 213.394809 
L 458.585929 213.792086 
L 459.99747 213.792086 
L 460.703241 213.609149 
L 462.114783 213.609149 
L 462.820553 213.793328 
L 464.232095 213.793328 
L 464.937866 214.105338 
L 466.349407 214.105338 
L 467.055178 214.340061 
L 468.466719 214.340061 
L 469.17249 214.761241 
L 470.584032 214.761241 
L 471.289802 215.094125 
L 472.701344 215.094125 
L 473.407115 214.691719 
L 474.818656 214.691719 
L 475.524427 216.736285 
L 476.935968 216.736285 
L 477.641739 217.318717 
L 479.053281 217.318717 
L 479.759051 221.421984 
L 481.170593 221.421984 
L 481.876364 222.85537 
L 483.287905 222.85537 
L 483.993676 227.113865 
L 485.405217 227.113865 
L 486.110988 229.494055 
L 487.52253 229.494055 
L 488.2283 241.339498 
L 489.639842 241.339498 
L 490.345613 246.230931 
L 491.757154 246.230931 
L 492.462925 254.583435 
L 493.874466 254.583435 
L 494.580237 257.30143 
L 495.991779 257.30143 
L 496.697549 264.33512 
L 498.109091 264.33512 
L 498.109091 264.33512 
" style="fill:none;stroke:#55a868;stroke-linecap:round;stroke-width:1.75;"/>
   </g>
   <g id="line2d_35">
    <path clip-path="url(#p6fd1861a2f)" d="M 92.290909 279.964338 
L 93.702451 279.964338 
L 94.408221 280.834615 
L 95.819763 280.834615 
L 96.525534 282.330286 
L 97.937075 282.330286 
L 98.642846 286.532543 
L 100.054387 286.532543 
L 100.760158 287.648227 
L 102.1717 287.648227 
L 102.87747 289.217563 
L 104.289012 289.217563 
L 104.994783 291.075516 
L 106.406324 291.075516 
L 107.112095 292.589395 
L 110.640949 292.666828 
L 111.346719 292.94528 
L 112.758261 292.94528 
L 113.464032 295.10519 
L 114.875573 295.10519 
L 115.581344 296.840068 
L 116.992885 296.840068 
L 117.698656 296.653414 
L 119.110198 296.653414 
L 119.815968 297.003338 
L 121.22751 297.003338 
L 121.933281 296.110194 
L 123.344822 296.110194 
L 124.050593 314.044067 
L 125.462134 314.044067 
L 126.167905 311.730717 
L 127.579447 311.730717 
L 128.285217 309.424932 
L 129.696759 309.424932 
L 130.40253 307.375141 
L 131.814071 307.375141 
L 132.519842 302.84136 
L 133.931383 302.84136 
L 134.637154 301.890347 
L 136.048696 301.890347 
L 136.754466 299.684827 
L 138.166008 299.684827 
L 138.871779 298.55745 
L 140.28332 298.55745 
L 140.989091 293.630126 
L 142.400632 293.630126 
L 143.106403 288.268 
L 144.517945 288.268 
L 145.223715 281.801896 
L 146.635257 281.801896 
L 147.341028 274.779604 
L 148.752569 274.779604 
L 149.45834 269.753024 
L 150.869881 269.753024 
L 151.575652 263.61727 
L 152.987194 263.61727 
L 153.692964 264.302718 
L 155.104506 264.302718 
L 155.810277 259.158525 
L 157.221818 259.158525 
L 157.927589 253.820151 
L 159.33913 253.820151 
L 160.044901 246.584342 
L 161.456443 246.584342 
L 162.162213 252.945507 
L 163.573755 252.945507 
L 164.279526 252.451879 
L 165.691067 252.451879 
L 166.396838 251.770157 
L 167.808379 251.770157 
L 168.51415 249.895693 
L 169.925692 249.895693 
L 170.631462 251.005688 
L 172.043004 251.005688 
L 172.748775 253.722143 
L 174.160316 253.722143 
L 174.866087 252.443175 
L 176.277628 252.443175 
L 176.983399 251.976451 
L 178.394941 251.976451 
L 179.100711 254.269777 
L 180.512253 254.269777 
L 181.218024 254.832691 
L 182.629565 254.832691 
L 183.335336 256.339596 
L 184.746877 256.339596 
L 185.452648 256.631335 
L 186.86419 256.631335 
L 187.56996 259.34047 
L 188.981502 259.34047 
L 189.687273 258.896357 
L 191.098814 258.896357 
L 191.804585 258.543302 
L 193.216126 258.543302 
L 193.921897 259.247366 
L 195.333439 259.247366 
L 196.039209 260.812871 
L 197.450751 260.812871 
L 198.156522 260.413762 
L 199.568063 260.413762 
L 200.273834 262.766057 
L 203.802688 262.875715 
L 204.508458 263.928471 
L 205.92 263.928471 
L 206.625771 264.403291 
L 208.037312 264.403291 
L 208.743083 265.526462 
L 210.154624 265.526462 
L 210.860395 265.20236 
L 212.271937 265.20236 
L 212.977708 265.90142 
L 214.389249 265.90142 
L 215.09502 265.657298 
L 216.506561 265.657298 
L 217.212332 264.837815 
L 218.623874 264.837815 
L 219.329644 264.367599 
L 220.741186 264.367599 
L 221.446957 265.274404 
L 224.97581 265.169218 
L 225.681581 264.79759 
L 227.093123 264.79759 
L 227.798893 264.963093 
L 229.210435 264.963093 
L 229.916206 265.086661 
L 231.327747 265.086661 
L 232.739289 264.975264 
L 235.562372 264.883128 
L 236.268142 263.996435 
L 237.679684 263.996435 
L 238.385455 264.626541 
L 239.796996 264.626541 
L 240.502767 264.080787 
L 241.914308 264.080787 
L 242.620079 264.473313 
L 246.148933 264.404373 
L 246.854704 264.112803 
L 248.266245 264.112803 
L 248.972016 263.176535 
L 254.618182 263.067565 
L 255.323953 263.716049 
L 256.735494 263.716049 
L 257.441265 263.482573 
L 260.970119 263.492824 
L 261.675889 263.829175 
L 263.087431 263.829175 
L 263.793202 263.946914 
L 267.322055 263.982123 
L 268.027826 264.405854 
L 269.439368 264.405854 
L 270.145138 264.140947 
L 271.55668 264.140947 
L 272.262451 265.685534 
L 273.673992 265.685534 
L 274.379763 265.967745 
L 275.791304 265.967745 
L 276.497075 268.679818 
L 277.908617 268.679818 
L 278.614387 269.260471 
L 280.025929 269.260471 
L 280.7317 272.242675 
L 282.143241 272.242675 
L 282.849012 273.510316 
L 284.260553 273.510316 
L 284.966324 281.383485 
L 286.377866 281.383485 
L 287.083636 284.788361 
L 288.495178 284.788361 
L 289.200949 290.285595 
L 290.61249 290.285595 
L 291.318261 291.972708 
L 292.729802 291.972708 
L 293.435573 297.225429 
L 294.847115 297.225429 
L 295.552885 297.37798 
L 299.081739 297.414319 
L 299.78751 295.888856 
L 301.199051 295.888856 
L 301.904822 297.310463 
L 303.316364 297.310463 
L 304.022134 297.600151 
L 305.433676 297.600151 
L 306.139447 298.665591 
L 307.550988 298.665591 
L 308.256759 298.289444 
L 309.6683 298.289444 
L 310.374071 300.182892 
L 311.785613 300.182892 
L 312.491383 299.442714 
L 313.902925 299.442714 
L 314.608696 298.828299 
L 316.020237 298.828299 
L 316.726008 298.497075 
L 318.137549 298.497075 
L 318.84332 301.199398 
L 320.254862 301.199398 
L 320.960632 300.506097 
L 322.372174 300.506097 
L 323.077945 300.120768 
L 324.489486 300.120768 
L 325.195257 298.578933 
L 326.606798 298.578933 
L 327.312569 315.964307 
L 328.724111 315.964307 
L 329.429881 313.144742 
L 330.841423 313.144742 
L 331.547194 310.015052 
L 332.958735 310.015052 
L 333.664506 307.131147 
L 335.076047 307.131147 
L 335.781818 302.012255 
L 337.19336 302.012255 
L 337.89913 300.405892 
L 339.310672 300.405892 
L 340.016443 297.638541 
L 341.427984 297.638541 
L 342.133755 295.921083 
L 343.545296 295.921083 
L 344.251067 290.439245 
L 345.662609 290.439245 
L 346.368379 284.35882 
L 347.779921 284.35882 
L 348.485692 277.159577 
L 349.897233 277.159577 
L 350.603004 269.639011 
L 352.014545 269.639011 
L 352.720316 263.954343 
L 354.131858 263.954343 
L 354.837628 257.317406 
L 358.366482 257.298694 
L 359.072253 251.237451 
L 360.483794 251.237451 
L 361.189565 245.391691 
L 362.601107 245.391691 
L 363.306877 238.5865 
L 364.718419 238.5865 
L 365.42419 244.032523 
L 366.835731 244.032523 
L 367.541502 242.469696 
L 368.953043 242.469696 
L 369.658814 240.989821 
L 371.070356 240.989821 
L 371.776126 239.025765 
L 375.30498 239.055365 
L 376.010751 241.295176 
L 377.422292 241.295176 
L 378.128063 239.210479 
L 379.539605 239.210479 
L 380.245375 238.544958 
L 381.656917 238.544958 
L 382.362688 240.009488 
L 383.774229 240.009488 
L 384.48 240.362283 
L 385.891542 240.362283 
L 386.597312 240.925897 
L 390.126166 240.84943 
L 390.831937 242.862404 
L 392.243478 242.862404 
L 392.949249 241.006641 
L 394.360791 241.006641 
L 395.066561 240.505894 
L 396.478103 240.505894 
L 397.183874 240.835401 
L 398.595415 240.835401 
L 399.301186 241.830025 
L 400.712727 241.830025 
L 401.418498 241.363779 
L 402.83004 241.363779 
L 403.53581 243.105851 
L 404.947352 243.105851 
L 405.653123 242.833329 
L 407.064664 242.833329 
L 407.770435 243.461051 
L 409.181976 243.461051 
L 409.887747 243.606225 
L 411.299289 243.606225 
L 412.005059 244.583797 
L 413.416601 244.583797 
L 414.122372 244.264341 
L 415.533913 244.264341 
L 416.239684 244.622898 
L 417.651225 244.622898 
L 418.356996 244.158491 
L 419.768538 244.158491 
L 420.474308 242.925018 
L 421.88585 242.925018 
L 422.591621 242.754388 
L 424.003162 242.754388 
L 424.708933 243.488628 
L 426.120474 243.488628 
L 426.826245 242.90427 
L 432.472411 242.938031 
L 433.178182 242.769381 
L 436.707036 242.723348 
L 437.412806 241.869605 
L 438.824348 241.869605 
L 439.530119 241.273983 
L 440.94166 241.273983 
L 441.647431 242.14791 
L 443.058972 242.14791 
L 443.764743 241.64826 
L 445.176285 241.64826 
L 445.882055 241.817514 
L 447.293597 241.817514 
L 447.999368 241.415612 
L 449.410909 241.415612 
L 450.11668 240.976394 
L 451.528221 240.976394 
L 452.233992 240.019301 
L 455.762846 240.078036 
L 456.468617 240.377566 
L 457.880158 240.377566 
L 458.585929 240.8517 
L 459.99747 240.8517 
L 460.703241 240.646679 
L 462.114783 240.646679 
L 462.820553 240.985399 
L 464.232095 240.985399 
L 464.937866 241.174355 
L 468.466719 241.230789 
L 469.17249 241.457985 
L 470.584032 241.457985 
L 471.289802 241.905807 
L 472.701344 241.905807 
L 473.407115 241.614898 
L 474.818656 241.614898 
L 475.524427 243.445786 
L 476.935968 243.445786 
L 477.641739 243.829937 
L 479.053281 243.829937 
L 479.759051 247.010214 
L 481.170593 247.010214 
L 481.876364 248.019982 
L 483.287905 248.019982 
L 483.993676 250.808663 
L 485.405217 250.808663 
L 486.110988 252.358383 
L 487.52253 252.358383 
L 488.2283 261.518681 
L 489.639842 261.518681 
L 490.345613 265.668091 
L 491.757154 265.668091 
L 492.462925 271.588435 
L 493.874466 271.588435 
L 494.580237 273.717217 
L 495.991779 273.717217 
L 496.697549 279.298134 
L 498.109091 279.298134 
L 498.109091 279.298134 
" style="fill:none;stroke:#c44e52;stroke-linecap:round;stroke-width:1.75;"/>
   </g>
   <g id="line2d_36">
    <path clip-path="url(#p6fd1861a2f)" d="M 92.290909 329.169041 
L 93.702451 329.169041 
L 94.408221 330.64429 
L 97.937075 330.731517 
L 98.642846 331.895274 
L 100.054387 331.895274 
L 100.760158 332.180222 
L 102.1717 332.180222 
L 102.87747 332.73524 
L 104.289012 332.73524 
L 104.994783 333.224812 
L 106.406324 333.224812 
L 107.112095 333.703879 
L 108.523636 333.703879 
L 109.229407 333.91535 
L 110.640949 333.91535 
L 111.346719 334.804186 
L 112.758261 334.804186 
L 113.464032 335.51915 
L 123.344822 335.551169 
L 124.050593 337.968185 
L 125.462134 337.968185 
L 126.167905 337.109072 
L 127.579447 337.109072 
L 128.285217 336.957274 
L 129.696759 336.957274 
L 130.40253 336.720592 
L 131.814071 336.720592 
L 132.519842 335.371562 
L 133.931383 335.371562 
L 134.637154 334.902892 
L 136.048696 334.902892 
L 136.754466 335.051142 
L 138.166008 335.051142 
L 138.871779 334.534815 
L 140.28332 334.534815 
L 140.989091 331.964759 
L 142.400632 331.964759 
L 143.106403 330.111999 
L 144.517945 330.111999 
L 145.223715 328.419997 
L 146.635257 328.419997 
L 147.341028 326.601588 
L 148.752569 326.601588 
L 149.45834 324.213013 
L 150.869881 324.213013 
L 151.575652 322.810545 
L 152.987194 322.810545 
L 153.692964 322.303661 
L 155.104506 322.303661 
L 155.810277 320.55932 
L 157.221818 320.55932 
L 157.927589 320.435504 
L 159.33913 320.435504 
L 160.044901 318.299767 
L 161.456443 318.299767 
L 162.162213 319.998698 
L 165.691067 319.907696 
L 166.396838 318.922771 
L 169.925692 318.943555 
L 170.631462 319.470382 
L 176.277628 319.503081 
L 176.983399 319.795224 
L 182.629565 319.7317 
L 183.335336 319.331734 
L 184.746877 319.331734 
L 185.452648 319.673363 
L 186.86419 319.673363 
L 187.56996 320.320641 
L 188.981502 320.320641 
L 189.687273 320.636017 
L 193.216126 320.528846 
L 193.921897 320.921017 
L 195.333439 320.921017 
L 196.039209 321.698985 
L 199.568063 321.682193 
L 200.273834 322.020967 
L 201.685375 322.020967 
L 202.391146 322.26918 
L 208.037312 322.199517 
L 208.743083 322.700172 
L 216.506561 322.652583 
L 217.212332 321.938547 
L 218.623874 321.938547 
L 219.329644 322.272084 
L 220.741186 322.272084 
L 221.446957 322.616331 
L 222.858498 322.616331 
L 223.564269 322.476359 
L 224.97581 322.476359 
L 225.681581 322.314801 
L 229.210435 322.344885 
L 229.916206 322.81343 
L 231.327747 322.81343 
L 232.033518 322.289537 
L 233.445059 322.289537 
L 234.15083 322.592361 
L 235.562372 322.592361 
L 236.268142 322.724147 
L 239.796996 322.717416 
L 240.502767 322.870325 
L 241.914308 322.870325 
L 242.620079 323.120917 
L 246.148933 323.053417 
L 246.854704 322.836405 
L 252.50087 322.768744 
L 253.912411 322.70242 
L 258.852806 322.610549 
L 260.264348 322.55272 
L 263.087431 322.573873 
L 263.793202 322.71644 
L 265.204743 322.71644 
L 265.910514 322.929457 
L 269.439368 322.841085 
L 270.145138 322.678832 
L 271.55668 322.678832 
L 272.262451 322.916673 
L 275.791304 323.023168 
L 276.497075 323.775327 
L 277.908617 323.775327 
L 278.614387 324.178713 
L 280.025929 324.178713 
L 280.7317 325.321414 
L 282.143241 325.321414 
L 282.849012 325.912996 
L 284.260553 325.912996 
L 284.966324 328.37819 
L 286.377866 328.37819 
L 287.083636 328.997162 
L 288.495178 328.997162 
L 289.200949 331.11215 
L 290.61249 331.11215 
L 291.318261 331.723666 
L 292.729802 331.723666 
L 293.435573 333.23445 
L 296.964427 333.180624 
L 297.670198 333.638947 
L 301.199051 333.591547 
L 301.904822 333.963146 
L 303.316364 333.963146 
L 304.022134 334.33725 
L 305.433676 334.33725 
L 306.139447 334.733153 
L 309.6683 334.64838 
L 310.374071 335.240879 
L 313.902925 335.319997 
L 314.608696 335.744952 
L 316.020237 335.744952 
L 316.726008 336.463122 
L 318.137549 336.463122 
L 318.84332 336.748163 
L 320.254862 336.748163 
L 320.960632 336.600604 
L 322.372174 336.600604 
L 323.077945 336.256291 
L 326.606798 336.215874 
L 327.312569 338.58 
L 328.724111 338.58 
L 329.429881 337.601442 
L 330.841423 337.601442 
L 331.547194 337.242857 
L 332.958735 337.242857 
L 333.664506 336.764943 
L 335.076047 336.764943 
L 335.781818 335.267072 
L 337.19336 335.267072 
L 337.89913 334.649333 
L 341.427984 334.665824 
L 342.133755 333.967389 
L 343.545296 333.967389 
L 344.251067 331.263107 
L 345.662609 331.263107 
L 346.368379 329.197344 
L 347.779921 329.197344 
L 348.485692 327.320516 
L 349.897233 327.320516 
L 350.603004 325.365423 
L 352.014545 325.365423 
L 352.720316 322.801927 
L 354.131858 322.801927 
L 354.837628 321.290745 
L 356.24917 321.290745 
L 356.954941 320.563687 
L 358.366482 320.563687 
L 359.072253 318.826811 
L 360.483794 318.826811 
L 361.189565 318.341069 
L 362.601107 318.341069 
L 363.306877 316.253955 
L 364.718419 316.253955 
L 365.42419 317.786658 
L 366.835731 317.786658 
L 367.541502 317.385867 
L 368.953043 317.385867 
L 369.658814 316.313035 
L 373.187668 316.300196 
L 373.893439 316.48516 
L 375.30498 316.48516 
L 376.010751 316.268596 
L 381.656917 316.302934 
L 383.068458 316.384398 
L 383.774229 316.384398 
L 384.48 316.015212 
L 385.891542 316.015212 
L 386.597312 315.60316 
L 390.126166 315.663825 
L 390.831937 316.204333 
L 396.478103 316.100561 
L 397.183874 316.438682 
L 398.595415 316.438682 
L 399.301186 316.948855 
L 400.712727 316.948855 
L 402.124269 316.837019 
L 402.83004 316.837019 
L 403.53581 317.113376 
L 411.299289 317.078324 
L 412.005059 317.503743 
L 415.533913 317.404337 
L 416.239684 317.250944 
L 419.768538 317.183131 
L 420.474308 316.456953 
L 421.88585 316.456953 
L 422.591621 316.800065 
L 424.003162 316.800065 
L 424.708933 317.066124 
L 426.120474 317.066124 
L 426.826245 316.822505 
L 432.472411 316.76842 
L 433.178182 317.072348 
L 434.589723 317.072348 
L 435.295494 316.541005 
L 436.707036 316.541005 
L 437.412806 316.90933 
L 443.058972 316.961034 
L 444.470514 317.042852 
L 445.176285 317.042852 
L 445.882055 317.251445 
L 449.410909 317.166288 
L 450.11668 316.936938 
L 457.880158 316.864401 
L 459.2917 316.787545 
L 462.114783 316.809628 
L 462.820553 316.655088 
L 464.232095 316.655088 
L 464.937866 316.778142 
L 466.349407 316.778142 
L 467.055178 316.956431 
L 468.466719 316.956431 
L 469.17249 317.150414 
L 470.584032 317.150414 
L 471.289802 317.035476 
L 472.701344 317.035476 
L 474.112885 316.923979 
L 474.818656 316.923979 
L 475.524427 317.137657 
L 476.935968 317.137657 
L 477.641739 317.335938 
L 479.053281 317.335938 
L 479.759051 318.258928 
L 481.170593 318.258928 
L 481.876364 318.682547 
L 483.287905 318.682547 
L 483.993676 320.15236 
L 485.405217 320.15236 
L 486.110988 320.982829 
L 487.52253 320.982829 
L 488.2283 323.667975 
L 489.639842 323.667975 
L 490.345613 324.409999 
L 491.757154 324.409999 
L 492.462925 326.842158 
L 493.874466 326.842158 
L 494.580237 327.431371 
L 495.991779 327.431371 
L 496.697549 328.884143 
L 498.109091 328.884143 
L 498.109091 328.884143 
" style="fill:none;stroke:#8172b2;stroke-linecap:round;stroke-width:1.75;"/>
   </g>
   <g id="line2d_37">
    <path clip-path="url(#p6fd1861a2f)" d="M 72 343.847158 
L 518.4 343.847158 
" style="fill:none;stroke:#000000;stroke-dasharray:7.4,3.2;stroke-dashoffset:0;stroke-width:2;"/>
   </g>
   <g id="patch_3">
    <path d="M 72 352.44 
L 72 47.52 
" style="fill:none;"/>
   </g>
   <g id="patch_4">
    <path d="M 518.4 352.44 
L 518.4 47.52 
" style="fill:none;"/>
   </g>
   <g id="patch_5">
    <path d="M 72 352.44 
L 518.4 352.44 
" style="fill:none;"/>
   </g>
   <g id="patch_6">
    <path d="M 72 47.52 
L 518.4 47.52 
" style="fill:none;"/>
   </g>
   <g id="text_18">
    <!-- Heat flows [W] -->
    <defs>
     <path d="M 8.015625 0 
L 8.015625 71.578125 
L 17.484375 71.578125 
L 17.484375 42.1875 
L 54.6875 42.1875 
L 54.6875 71.578125 
L 64.15625 71.578125 
L 64.15625 0 
L 54.6875 0 
L 54.6875 33.734375 
L 17.484375 33.734375 
L 17.484375 0 
z
" id="ArialMT-72"/>
     <path d="M 40.4375 6.390625 
Q 35.546875 2.25 31.03125 0.53125 
Q 26.515625 -1.171875 21.34375 -1.171875 
Q 12.796875 -1.171875 8.203125 3 
Q 3.609375 7.171875 3.609375 13.671875 
Q 3.609375 17.484375 5.34375 20.625 
Q 7.078125 23.78125 9.890625 25.6875 
Q 12.703125 27.59375 16.21875 28.5625 
Q 18.796875 29.25 24.03125 29.890625 
Q 34.671875 31.15625 39.703125 32.90625 
Q 39.75 34.71875 39.75 35.203125 
Q 39.75 40.578125 37.25 42.78125 
Q 33.890625 45.75 27.25 45.75 
Q 21.046875 45.75 18.09375 43.578125 
Q 15.140625 41.40625 13.71875 35.890625 
L 5.125 37.0625 
Q 6.296875 42.578125 8.984375 45.96875 
Q 11.671875 49.359375 16.75 51.1875 
Q 21.828125 53.03125 28.515625 53.03125 
Q 35.15625 53.03125 39.296875 51.46875 
Q 43.453125 49.90625 45.40625 47.53125 
Q 47.359375 45.171875 48.140625 41.546875 
Q 48.578125 39.3125 48.578125 33.453125 
L 48.578125 21.734375 
Q 48.578125 9.46875 49.140625 6.21875 
Q 49.703125 2.984375 51.375 0 
L 42.1875 0 
Q 40.828125 2.734375 40.4375 6.390625 
z
M 39.703125 26.03125 
Q 34.90625 24.078125 25.34375 22.703125 
Q 19.921875 21.921875 17.671875 20.9375 
Q 15.4375 19.96875 14.203125 18.09375 
Q 12.984375 16.21875 12.984375 13.921875 
Q 12.984375 10.40625 15.640625 8.0625 
Q 18.3125 5.71875 23.4375 5.71875 
Q 28.515625 5.71875 32.46875 7.9375 
Q 36.421875 10.15625 38.28125 14.015625 
Q 39.703125 17 39.703125 22.796875 
z
" id="ArialMT-97"/>
     <path d="M 25.78125 7.859375 
L 27.046875 0.09375 
Q 23.34375 -0.6875 20.40625 -0.6875 
Q 15.625 -0.6875 12.984375 0.828125 
Q 10.359375 2.34375 9.28125 4.8125 
Q 8.203125 7.28125 8.203125 15.1875 
L 8.203125 45.015625 
L 1.765625 45.015625 
L 1.765625 51.859375 
L 8.203125 51.859375 
L 8.203125 64.703125 
L 16.9375 69.96875 
L 16.9375 51.859375 
L 25.78125 51.859375 
L 25.78125 45.015625 
L 16.9375 45.015625 
L 16.9375 14.703125 
Q 16.9375 10.9375 17.40625 9.859375 
Q 17.875 8.796875 18.921875 8.15625 
Q 19.96875 7.515625 21.921875 7.515625 
Q 23.390625 7.515625 25.78125 7.859375 
z
" id="ArialMT-116"/>
     <path d="M 8.6875 0 
L 8.6875 45.015625 
L 0.921875 45.015625 
L 0.921875 51.859375 
L 8.6875 51.859375 
L 8.6875 57.375 
Q 8.6875 62.59375 9.625 65.140625 
Q 10.890625 68.5625 14.078125 70.671875 
Q 17.28125 72.796875 23.046875 72.796875 
Q 26.765625 72.796875 31.25 71.921875 
L 29.9375 64.265625 
Q 27.203125 64.75 24.75 64.75 
Q 20.75 64.75 19.09375 63.03125 
Q 17.4375 61.328125 17.4375 56.640625 
L 17.4375 51.859375 
L 27.546875 51.859375 
L 27.546875 45.015625 
L 17.4375 45.015625 
L 17.4375 0 
z
" id="ArialMT-102"/>
     <path d="M 6.390625 0 
L 6.390625 71.578125 
L 15.1875 71.578125 
L 15.1875 0 
z
" id="ArialMT-108"/>
     <path d="M 3.328125 25.921875 
Q 3.328125 40.328125 11.328125 47.265625 
Q 18.015625 53.03125 27.640625 53.03125 
Q 38.328125 53.03125 45.109375 46.015625 
Q 51.90625 39.015625 51.90625 26.65625 
Q 51.90625 16.65625 48.90625 10.90625 
Q 45.90625 5.171875 40.15625 2 
Q 34.421875 -1.171875 27.640625 -1.171875 
Q 16.75 -1.171875 10.03125 5.8125 
Q 3.328125 12.796875 3.328125 25.921875 
z
M 12.359375 25.921875 
Q 12.359375 15.96875 16.703125 11.015625 
Q 21.046875 6.0625 27.640625 6.0625 
Q 34.1875 6.0625 38.53125 11.03125 
Q 42.875 16.015625 42.875 26.21875 
Q 42.875 35.84375 38.5 40.796875 
Q 34.125 45.75 27.640625 45.75 
Q 21.046875 45.75 16.703125 40.8125 
Q 12.359375 35.890625 12.359375 25.921875 
z
" id="ArialMT-111"/>
     <path d="M 16.15625 0 
L 0.296875 51.859375 
L 9.375 51.859375 
L 17.625 21.921875 
L 20.703125 10.796875 
Q 20.90625 11.625 23.390625 21.484375 
L 31.640625 51.859375 
L 40.671875 51.859375 
L 48.4375 21.78125 
L 51.03125 11.859375 
L 54 21.875 
L 62.890625 51.859375 
L 71.4375 51.859375 
L 55.21875 0 
L 46.09375 0 
L 37.84375 31.0625 
L 35.84375 39.890625 
L 25.34375 0 
z
" id="ArialMT-119"/>
     <path d="M 3.078125 15.484375 
L 11.765625 16.84375 
Q 12.5 11.625 15.84375 8.84375 
Q 19.1875 6.0625 25.203125 6.0625 
Q 31.25 6.0625 34.171875 8.515625 
Q 37.109375 10.984375 37.109375 14.3125 
Q 37.109375 17.28125 34.515625 19 
Q 32.71875 20.171875 25.53125 21.96875 
Q 15.875 24.421875 12.140625 26.203125 
Q 8.40625 27.984375 6.46875 31.125 
Q 4.546875 34.28125 4.546875 38.09375 
Q 4.546875 41.546875 6.125 44.5 
Q 7.71875 47.46875 10.453125 49.421875 
Q 12.5 50.921875 16.03125 51.96875 
Q 19.578125 53.03125 23.640625 53.03125 
Q 29.734375 53.03125 34.34375 51.265625 
Q 38.96875 49.515625 41.15625 46.5 
Q 43.359375 43.5 44.1875 38.484375 
L 35.59375 37.3125 
Q 35.015625 41.3125 32.203125 43.546875 
Q 29.390625 45.796875 24.265625 45.796875 
Q 18.21875 45.796875 15.625 43.796875 
Q 13.03125 41.796875 13.03125 39.109375 
Q 13.03125 37.40625 14.109375 36.03125 
Q 15.1875 34.625 17.484375 33.6875 
Q 18.796875 33.203125 25.25 31.453125 
Q 34.578125 28.953125 38.25 27.359375 
Q 41.9375 25.78125 44.03125 22.75 
Q 46.140625 19.734375 46.140625 15.234375 
Q 46.140625 10.84375 43.578125 6.953125 
Q 41.015625 3.078125 36.171875 0.953125 
Q 31.34375 -1.171875 25.25 -1.171875 
Q 15.140625 -1.171875 9.84375 3.03125 
Q 4.546875 7.234375 3.078125 15.484375 
z
" id="ArialMT-115"/>
     <path d="M 6.78125 -19.875 
L 6.78125 71.578125 
L 26.171875 71.578125 
L 26.171875 64.3125 
L 15.578125 64.3125 
L 15.578125 -12.59375 
L 26.171875 -12.59375 
L 26.171875 -19.875 
z
" id="ArialMT-91"/>
     <path d="M 20.21875 0 
L 1.21875 71.578125 
L 10.9375 71.578125 
L 21.828125 24.65625 
Q 23.578125 17.28125 24.859375 10.015625 
Q 27.59375 21.484375 28.078125 23.25 
L 41.703125 71.578125 
L 53.125 71.578125 
L 63.375 35.359375 
Q 67.234375 21.875 68.953125 10.015625 
Q 70.3125 16.796875 72.515625 25.59375 
L 83.734375 71.578125 
L 93.265625 71.578125 
L 73.640625 0 
L 64.5 0 
L 49.421875 54.546875 
Q 47.515625 61.375 47.171875 62.9375 
Q 46.046875 58.015625 45.0625 54.546875 
L 29.890625 0 
z
" id="ArialMT-87"/>
     <path d="M 21.296875 -19.875 
L 1.90625 -19.875 
L 1.90625 -12.59375 
L 12.5 -12.59375 
L 12.5 64.3125 
L 1.90625 64.3125 
L 1.90625 71.578125 
L 21.296875 71.578125 
z
" id="ArialMT-93"/>
    </defs>
    <g style="fill:#262626;" transform="translate(256.52625 41.52)scale(0.12 -0.12)">
     <use xlink:href="#ArialMT-72"/>
     <use x="72.216797" xlink:href="#ArialMT-101"/>
     <use x="127.832031" xlink:href="#ArialMT-97"/>
     <use x="183.447266" xlink:href="#ArialMT-116"/>
     <use x="211.230469" xlink:href="#ArialMT-32"/>
     <use x="239.013672" xlink:href="#ArialMT-102"/>
     <use x="266.796875" xlink:href="#ArialMT-108"/>
     <use x="289.013672" xlink:href="#ArialMT-111"/>
     <use x="344.628906" xlink:href="#ArialMT-119"/>
     <use x="416.845703" xlink:href="#ArialMT-115"/>
     <use x="466.845703" xlink:href="#ArialMT-32"/>
     <use x="494.628906" xlink:href="#ArialMT-91"/>
     <use x="522.412109" xlink:href="#ArialMT-87"/>
     <use x="616.796875" xlink:href="#ArialMT-93"/>
    </g>
   </g>
   <g id="legend_1">
    <g id="line2d_38">
     <path d="M 81 60.177812 
L 101 60.177812 
" style="fill:none;stroke:#4c72b0;stroke-linecap:round;stroke-width:1.75;"/>
    </g>
    <g id="line2d_39"/>
    <g id="text_19">
     <!-- Producer -->
     <defs>
      <path d="M 7.71875 0 
L 7.71875 71.578125 
L 34.71875 71.578125 
Q 41.84375 71.578125 45.609375 70.90625 
Q 50.875 70.015625 54.4375 67.546875 
Q 58.015625 65.09375 60.1875 60.640625 
Q 62.359375 56.203125 62.359375 50.875 
Q 62.359375 41.75 56.546875 35.421875 
Q 50.734375 29.109375 35.546875 29.109375 
L 17.1875 29.109375 
L 17.1875 0 
z
M 17.1875 37.546875 
L 35.6875 37.546875 
Q 44.875 37.546875 48.734375 40.96875 
Q 52.59375 44.390625 52.59375 50.59375 
Q 52.59375 55.078125 50.3125 58.265625 
Q 48.046875 61.46875 44.34375 62.5 
Q 41.9375 63.140625 35.5 63.140625 
L 17.1875 63.140625 
z
" id="ArialMT-80"/>
      <path d="M 6.5 0 
L 6.5 51.859375 
L 14.40625 51.859375 
L 14.40625 44 
Q 17.4375 49.515625 20 51.265625 
Q 22.5625 53.03125 25.640625 53.03125 
Q 30.078125 53.03125 34.671875 50.203125 
L 31.640625 42.046875 
Q 28.421875 43.953125 25.203125 43.953125 
Q 22.3125 43.953125 20.015625 42.21875 
Q 17.71875 40.484375 16.75 37.40625 
Q 15.28125 32.71875 15.28125 27.15625 
L 15.28125 0 
z
" id="ArialMT-114"/>
      <path d="M 40.234375 0 
L 40.234375 6.546875 
Q 35.296875 -1.171875 25.734375 -1.171875 
Q 19.53125 -1.171875 14.328125 2.25 
Q 9.125 5.671875 6.265625 11.796875 
Q 3.421875 17.921875 3.421875 25.875 
Q 3.421875 33.640625 6 39.96875 
Q 8.59375 46.296875 13.765625 49.65625 
Q 18.953125 53.03125 25.34375 53.03125 
Q 30.03125 53.03125 33.6875 51.046875 
Q 37.359375 49.078125 39.65625 45.90625 
L 39.65625 71.578125 
L 48.390625 71.578125 
L 48.390625 0 
z
M 12.453125 25.875 
Q 12.453125 15.921875 16.640625 10.984375 
Q 20.84375 6.0625 26.5625 6.0625 
Q 32.328125 6.0625 36.34375 10.765625 
Q 40.375 15.484375 40.375 25.140625 
Q 40.375 35.796875 36.265625 40.765625 
Q 32.171875 45.75 26.171875 45.75 
Q 20.3125 45.75 16.375 40.96875 
Q 12.453125 36.1875 12.453125 25.875 
z
" id="ArialMT-100"/>
      <path d="M 40.578125 0 
L 40.578125 7.625 
Q 34.515625 -1.171875 24.125 -1.171875 
Q 19.53125 -1.171875 15.546875 0.578125 
Q 11.578125 2.34375 9.640625 5 
Q 7.71875 7.671875 6.9375 11.53125 
Q 6.390625 14.109375 6.390625 19.734375 
L 6.390625 51.859375 
L 15.1875 51.859375 
L 15.1875 23.09375 
Q 15.1875 16.21875 15.71875 13.8125 
Q 16.546875 10.359375 19.234375 8.375 
Q 21.921875 6.390625 25.875 6.390625 
Q 29.828125 6.390625 33.296875 8.421875 
Q 36.765625 10.453125 38.203125 13.9375 
Q 39.65625 17.4375 39.65625 24.078125 
L 39.65625 51.859375 
L 48.4375 51.859375 
L 48.4375 0 
z
" id="ArialMT-117"/>
      <path d="M 40.4375 19 
L 49.078125 17.875 
Q 47.65625 8.9375 41.8125 3.875 
Q 35.984375 -1.171875 27.484375 -1.171875 
Q 16.84375 -1.171875 10.375 5.78125 
Q 3.90625 12.75 3.90625 25.734375 
Q 3.90625 34.125 6.6875 40.421875 
Q 9.46875 46.734375 15.15625 49.875 
Q 20.84375 53.03125 27.546875 53.03125 
Q 35.984375 53.03125 41.359375 48.75 
Q 46.734375 44.484375 48.25 36.625 
L 39.703125 35.296875 
Q 38.484375 40.53125 35.375 43.15625 
Q 32.28125 45.796875 27.875 45.796875 
Q 21.234375 45.796875 17.078125 41.03125 
Q 12.9375 36.28125 12.9375 25.984375 
Q 12.9375 15.53125 16.9375 10.796875 
Q 20.953125 6.0625 27.390625 6.0625 
Q 32.5625 6.0625 36.03125 9.234375 
Q 39.5 12.40625 40.4375 19 
z
" id="ArialMT-99"/>
     </defs>
     <g style="fill:#262626;" transform="translate(109 63.677812)scale(0.1 -0.1)">
      <use xlink:href="#ArialMT-80"/>
      <use x="66.699219" xlink:href="#ArialMT-114"/>
      <use x="100" xlink:href="#ArialMT-111"/>
      <use x="155.615234" xlink:href="#ArialMT-100"/>
      <use x="211.230469" xlink:href="#ArialMT-117"/>
      <use x="266.845703" xlink:href="#ArialMT-99"/>
      <use x="316.845703" xlink:href="#ArialMT-101"/>
      <use x="372.460938" xlink:href="#ArialMT-114"/>
     </g>
    </g>
    <g id="line2d_40">
     <path d="M 81 74.323125 
L 101 74.323125 
" style="fill:none;stroke:#55a868;stroke-linecap:round;stroke-width:1.75;"/>
    </g>
    <g id="line2d_41"/>
    <g id="text_20">
     <!-- All users -->
     <defs>
      <path d="M -0.140625 0 
L 27.34375 71.578125 
L 37.546875 71.578125 
L 66.84375 0 
L 56.0625 0 
L 47.703125 21.6875 
L 17.78125 21.6875 
L 9.90625 0 
z
M 20.515625 29.390625 
L 44.78125 29.390625 
L 37.3125 49.21875 
Q 33.890625 58.25 32.234375 64.0625 
Q 30.859375 57.171875 28.375 50.390625 
z
" id="ArialMT-65"/>
     </defs>
     <g style="fill:#262626;" transform="translate(109 77.823125)scale(0.1 -0.1)">
      <use xlink:href="#ArialMT-65"/>
      <use x="66.699219" xlink:href="#ArialMT-108"/>
      <use x="88.916016" xlink:href="#ArialMT-108"/>
      <use x="111.132812" xlink:href="#ArialMT-32"/>
      <use x="138.916016" xlink:href="#ArialMT-117"/>
      <use x="194.53125" xlink:href="#ArialMT-115"/>
      <use x="244.53125" xlink:href="#ArialMT-101"/>
      <use x="300.146484" xlink:href="#ArialMT-114"/>
      <use x="333.447266" xlink:href="#ArialMT-115"/>
     </g>
    </g>
    <g id="line2d_42">
     <path d="M 81 88.468437 
L 101 88.468437 
" style="fill:none;stroke:#c44e52;stroke-linecap:round;stroke-width:1.75;"/>
    </g>
    <g id="line2d_43"/>
    <g id="text_21">
     <!-- WaterscheiGarden -->
     <defs>
      <path d="M 6.59375 0 
L 6.59375 71.578125 
L 15.375 71.578125 
L 15.375 45.90625 
Q 21.53125 53.03125 30.90625 53.03125 
Q 36.671875 53.03125 40.921875 50.75 
Q 45.171875 48.484375 47 44.484375 
Q 48.828125 40.484375 48.828125 32.859375 
L 48.828125 0 
L 40.046875 0 
L 40.046875 32.859375 
Q 40.046875 39.453125 37.1875 42.453125 
Q 34.328125 45.453125 29.109375 45.453125 
Q 25.203125 45.453125 21.75 43.421875 
Q 18.3125 41.40625 16.84375 37.9375 
Q 15.375 34.46875 15.375 28.375 
L 15.375 0 
z
" id="ArialMT-104"/>
      <path d="M 6.640625 61.46875 
L 6.640625 71.578125 
L 15.4375 71.578125 
L 15.4375 61.46875 
z
M 6.640625 0 
L 6.640625 51.859375 
L 15.4375 51.859375 
L 15.4375 0 
z
" id="ArialMT-105"/>
      <path d="M 41.21875 28.078125 
L 41.21875 36.46875 
L 71.53125 36.53125 
L 71.53125 9.96875 
Q 64.546875 4.390625 57.125 1.578125 
Q 49.703125 -1.21875 41.890625 -1.21875 
Q 31.34375 -1.21875 22.71875 3.296875 
Q 14.109375 7.8125 9.71875 16.359375 
Q 5.328125 24.90625 5.328125 35.453125 
Q 5.328125 45.90625 9.6875 54.953125 
Q 14.0625 64.015625 22.265625 68.40625 
Q 30.46875 72.796875 41.15625 72.796875 
Q 48.921875 72.796875 55.1875 70.28125 
Q 61.46875 67.78125 65.03125 63.28125 
Q 68.609375 58.796875 70.453125 51.5625 
L 61.921875 49.21875 
Q 60.296875 54.6875 57.90625 57.8125 
Q 55.515625 60.9375 51.0625 62.8125 
Q 46.625 64.703125 41.21875 64.703125 
Q 34.71875 64.703125 29.984375 62.71875 
Q 25.25 60.75 22.34375 57.515625 
Q 19.4375 54.296875 17.828125 50.4375 
Q 15.09375 43.796875 15.09375 36.03125 
Q 15.09375 26.46875 18.390625 20.015625 
Q 21.6875 13.578125 27.984375 10.453125 
Q 34.28125 7.328125 41.359375 7.328125 
Q 47.515625 7.328125 53.375 9.6875 
Q 59.234375 12.0625 62.25 14.75 
L 62.25 28.078125 
z
" id="ArialMT-71"/>
      <path d="M 6.59375 0 
L 6.59375 51.859375 
L 14.5 51.859375 
L 14.5 44.484375 
Q 20.21875 53.03125 31 53.03125 
Q 35.6875 53.03125 39.625 51.34375 
Q 43.5625 49.65625 45.515625 46.921875 
Q 47.46875 44.1875 48.25 40.4375 
Q 48.734375 37.984375 48.734375 31.890625 
L 48.734375 0 
L 39.9375 0 
L 39.9375 31.546875 
Q 39.9375 36.921875 38.90625 39.578125 
Q 37.890625 42.234375 35.28125 43.8125 
Q 32.671875 45.40625 29.15625 45.40625 
Q 23.53125 45.40625 19.453125 41.84375 
Q 15.375 38.28125 15.375 28.328125 
L 15.375 0 
z
" id="ArialMT-110"/>
     </defs>
     <g style="fill:#262626;" transform="translate(109 91.968437)scale(0.1 -0.1)">
      <use xlink:href="#ArialMT-87"/>
      <use x="94.337891" xlink:href="#ArialMT-97"/>
      <use x="149.953125" xlink:href="#ArialMT-116"/>
      <use x="177.736328" xlink:href="#ArialMT-101"/>
      <use x="233.351562" xlink:href="#ArialMT-114"/>
      <use x="266.652344" xlink:href="#ArialMT-115"/>
      <use x="316.652344" xlink:href="#ArialMT-99"/>
      <use x="366.652344" xlink:href="#ArialMT-104"/>
      <use x="422.267578" xlink:href="#ArialMT-101"/>
      <use x="477.882812" xlink:href="#ArialMT-105"/>
      <use x="500.099609" xlink:href="#ArialMT-71"/>
      <use x="577.882812" xlink:href="#ArialMT-97"/>
      <use x="633.498047" xlink:href="#ArialMT-114"/>
      <use x="666.798828" xlink:href="#ArialMT-100"/>
      <use x="722.414062" xlink:href="#ArialMT-101"/>
      <use x="778.029297" xlink:href="#ArialMT-110"/>
     </g>
    </g>
    <g id="line2d_44">
     <path d="M 81 102.61375 
L 101 102.61375 
" style="fill:none;stroke:#8172b2;stroke-linecap:round;stroke-width:1.75;"/>
    </g>
    <g id="line2d_45"/>
    <g id="text_22">
     <!-- ZwartbergNEast -->
     <defs>
      <path d="M 2 0 
L 2 8.796875 
L 38.671875 54.640625 
Q 42.578125 59.515625 46.09375 63.140625 
L 6.15625 63.140625 
L 6.15625 71.578125 
L 57.421875 71.578125 
L 57.421875 63.140625 
L 17.234375 13.484375 
L 12.890625 8.453125 
L 58.59375 8.453125 
L 58.59375 0 
z
" id="ArialMT-90"/>
      <path d="M 14.703125 0 
L 6.546875 0 
L 6.546875 71.578125 
L 15.328125 71.578125 
L 15.328125 46.046875 
Q 20.90625 53.03125 29.546875 53.03125 
Q 34.328125 53.03125 38.59375 51.09375 
Q 42.875 49.171875 45.625 45.671875 
Q 48.390625 42.1875 49.953125 37.25 
Q 51.515625 32.328125 51.515625 26.703125 
Q 51.515625 13.375 44.921875 6.09375 
Q 38.328125 -1.171875 29.109375 -1.171875 
Q 19.921875 -1.171875 14.703125 6.5 
z
M 14.59375 26.3125 
Q 14.59375 17 17.140625 12.84375 
Q 21.296875 6.0625 28.375 6.0625 
Q 34.125 6.0625 38.328125 11.0625 
Q 42.53125 16.0625 42.53125 25.984375 
Q 42.53125 36.140625 38.5 40.96875 
Q 34.46875 45.796875 28.765625 45.796875 
Q 23 45.796875 18.796875 40.796875 
Q 14.59375 35.796875 14.59375 26.3125 
z
" id="ArialMT-98"/>
      <path d="M 4.984375 -4.296875 
L 13.53125 -5.5625 
Q 14.0625 -9.515625 16.5 -11.328125 
Q 19.78125 -13.765625 25.4375 -13.765625 
Q 31.546875 -13.765625 34.859375 -11.328125 
Q 38.1875 -8.890625 39.359375 -4.5 
Q 40.046875 -1.8125 39.984375 6.78125 
Q 34.234375 0 25.640625 0 
Q 14.9375 0 9.078125 7.71875 
Q 3.21875 15.4375 3.21875 26.21875 
Q 3.21875 33.640625 5.90625 39.90625 
Q 8.59375 46.1875 13.6875 49.609375 
Q 18.796875 53.03125 25.6875 53.03125 
Q 34.859375 53.03125 40.828125 45.609375 
L 40.828125 51.859375 
L 48.921875 51.859375 
L 48.921875 7.03125 
Q 48.921875 -5.078125 46.453125 -10.125 
Q 44 -15.1875 38.640625 -18.109375 
Q 33.296875 -21.046875 25.484375 -21.046875 
Q 16.21875 -21.046875 10.5 -16.875 
Q 4.78125 -12.703125 4.984375 -4.296875 
z
M 12.25 26.859375 
Q 12.25 16.65625 16.296875 11.96875 
Q 20.359375 7.28125 26.46875 7.28125 
Q 32.515625 7.28125 36.609375 11.9375 
Q 40.71875 16.609375 40.71875 26.5625 
Q 40.71875 36.078125 36.5 40.90625 
Q 32.28125 45.75 26.3125 45.75 
Q 20.453125 45.75 16.34375 40.984375 
Q 12.25 36.234375 12.25 26.859375 
z
" id="ArialMT-103"/>
      <path d="M 7.625 0 
L 7.625 71.578125 
L 17.328125 71.578125 
L 54.9375 15.375 
L 54.9375 71.578125 
L 64.015625 71.578125 
L 64.015625 0 
L 54.296875 0 
L 16.703125 56.25 
L 16.703125 0 
z
" id="ArialMT-78"/>
      <path d="M 7.90625 0 
L 7.90625 71.578125 
L 59.671875 71.578125 
L 59.671875 63.140625 
L 17.390625 63.140625 
L 17.390625 41.21875 
L 56.984375 41.21875 
L 56.984375 32.8125 
L 17.390625 32.8125 
L 17.390625 8.453125 
L 61.328125 8.453125 
L 61.328125 0 
z
" id="ArialMT-69"/>
     </defs>
     <g style="fill:#262626;" transform="translate(109 106.11375)scale(0.1 -0.1)">
      <use xlink:href="#ArialMT-90"/>
      <use x="61.083984" xlink:href="#ArialMT-119"/>
      <use x="133.300781" xlink:href="#ArialMT-97"/>
      <use x="188.916016" xlink:href="#ArialMT-114"/>
      <use x="222.216797" xlink:href="#ArialMT-116"/>
      <use x="250" xlink:href="#ArialMT-98"/>
      <use x="305.615234" xlink:href="#ArialMT-101"/>
      <use x="361.230469" xlink:href="#ArialMT-114"/>
      <use x="394.53125" xlink:href="#ArialMT-103"/>
      <use x="450.146484" xlink:href="#ArialMT-78"/>
      <use x="522.363281" xlink:href="#ArialMT-69"/>
      <use x="589.0625" xlink:href="#ArialMT-97"/>
      <use x="644.677734" xlink:href="#ArialMT-115"/>
      <use x="694.677734" xlink:href="#ArialMT-116"/>
     </g>
    </g>
   </g>
  </g>
  <g id="text_23">
   <!-- Horizon: 48.0h, Time step: 300, Neighbourhoods: 2, case: cost -->
   <defs>
    <path d="M 1.953125 0 
L 1.953125 7.125 
L 34.96875 45.015625 
Q 29.34375 44.734375 25.046875 44.734375 
L 3.90625 44.734375 
L 3.90625 51.859375 
L 46.296875 51.859375 
L 46.296875 46.046875 
L 18.21875 13.140625 
L 12.796875 7.125 
Q 18.703125 7.5625 23.875 7.5625 
L 47.859375 7.5625 
L 47.859375 0 
z
" id="ArialMT-122"/>
    <path d="M 9.03125 41.84375 
L 9.03125 51.859375 
L 19.046875 51.859375 
L 19.046875 41.84375 
z
M 9.03125 0 
L 9.03125 10.015625 
L 19.046875 10.015625 
L 19.046875 0 
z
" id="ArialMT-58"/>
    <path d="M 9.078125 0 
L 9.078125 10.015625 
L 19.09375 10.015625 
L 19.09375 0 
z
" id="ArialMT-46"/>
    <path d="M 8.890625 0 
L 8.890625 10.015625 
L 18.890625 10.015625 
L 18.890625 0 
Q 18.890625 -5.515625 16.9375 -8.90625 
Q 14.984375 -12.3125 10.75 -14.15625 
L 8.296875 -10.40625 
Q 11.078125 -9.1875 12.390625 -6.8125 
Q 13.71875 -4.4375 13.875 0 
z
" id="ArialMT-44"/>
    <path d="M 25.921875 0 
L 25.921875 63.140625 
L 2.34375 63.140625 
L 2.34375 71.578125 
L 59.078125 71.578125 
L 59.078125 63.140625 
L 35.40625 63.140625 
L 35.40625 0 
z
" id="ArialMT-84"/>
    <path d="M 6.59375 0 
L 6.59375 51.859375 
L 14.453125 51.859375 
L 14.453125 44.578125 
Q 16.890625 48.390625 20.9375 50.703125 
Q 25 53.03125 30.171875 53.03125 
Q 35.9375 53.03125 39.625 50.640625 
Q 43.3125 48.25 44.828125 43.953125 
Q 50.984375 53.03125 60.84375 53.03125 
Q 68.5625 53.03125 72.703125 48.75 
Q 76.859375 44.484375 76.859375 35.59375 
L 76.859375 0 
L 68.109375 0 
L 68.109375 32.671875 
Q 68.109375 37.9375 67.25 40.25 
Q 66.40625 42.578125 64.15625 43.984375 
Q 61.921875 45.40625 58.890625 45.40625 
Q 53.421875 45.40625 49.796875 41.765625 
Q 46.1875 38.140625 46.1875 30.125 
L 46.1875 0 
L 37.40625 0 
L 37.40625 33.6875 
Q 37.40625 39.546875 35.25 42.46875 
Q 33.109375 45.40625 28.21875 45.40625 
Q 24.515625 45.40625 21.359375 43.453125 
Q 18.21875 41.5 16.796875 37.734375 
Q 15.375 33.984375 15.375 26.90625 
L 15.375 0 
z
" id="ArialMT-109"/>
    <path d="M 6.59375 -19.875 
L 6.59375 51.859375 
L 14.59375 51.859375 
L 14.59375 45.125 
Q 17.4375 49.078125 21 51.046875 
Q 24.5625 53.03125 29.640625 53.03125 
Q 36.28125 53.03125 41.359375 49.609375 
Q 46.4375 46.1875 49.015625 39.953125 
Q 51.609375 33.734375 51.609375 26.3125 
Q 51.609375 18.359375 48.75 11.984375 
Q 45.90625 5.609375 40.453125 2.21875 
Q 35.015625 -1.171875 29 -1.171875 
Q 24.609375 -1.171875 21.109375 0.6875 
Q 17.625 2.546875 15.375 5.375 
L 15.375 -19.875 
z
M 14.546875 25.640625 
Q 14.546875 15.625 18.59375 10.84375 
Q 22.65625 6.0625 28.421875 6.0625 
Q 34.28125 6.0625 38.453125 11.015625 
Q 42.625 15.96875 42.625 26.375 
Q 42.625 36.28125 38.546875 41.203125 
Q 34.46875 46.140625 28.8125 46.140625 
Q 23.1875 46.140625 18.859375 40.890625 
Q 14.546875 35.640625 14.546875 25.640625 
z
" id="ArialMT-112"/>
   </defs>
   <g style="fill:#262626;" transform="translate(121.589063 16.545)scale(0.12 -0.12)">
    <use xlink:href="#ArialMT-72"/>
    <use x="72.216797" xlink:href="#ArialMT-111"/>
    <use x="127.832031" xlink:href="#ArialMT-114"/>
    <use x="161.132812" xlink:href="#ArialMT-105"/>
    <use x="183.349609" xlink:href="#ArialMT-122"/>
    <use x="233.349609" xlink:href="#ArialMT-111"/>
    <use x="288.964844" xlink:href="#ArialMT-110"/>
    <use x="344.580078" xlink:href="#ArialMT-58"/>
    <use x="372.363281" xlink:href="#ArialMT-32"/>
    <use x="400.146484" xlink:href="#ArialMT-52"/>
    <use x="455.761719" xlink:href="#ArialMT-56"/>
    <use x="511.376953" xlink:href="#ArialMT-46"/>
    <use x="539.160156" xlink:href="#ArialMT-48"/>
    <use x="594.775391" xlink:href="#ArialMT-104"/>
    <use x="650.390625" xlink:href="#ArialMT-44"/>
    <use x="678.173828" xlink:href="#ArialMT-32"/>
    <use x="705.941406" xlink:href="#ArialMT-84"/>
    <use x="766.978516" xlink:href="#ArialMT-105"/>
    <use x="789.195312" xlink:href="#ArialMT-109"/>
    <use x="872.496094" xlink:href="#ArialMT-101"/>
    <use x="928.111328" xlink:href="#ArialMT-32"/>
    <use x="955.894531" xlink:href="#ArialMT-115"/>
    <use x="1005.894531" xlink:href="#ArialMT-116"/>
    <use x="1033.677734" xlink:href="#ArialMT-101"/>
    <use x="1089.292969" xlink:href="#ArialMT-112"/>
    <use x="1144.908203" xlink:href="#ArialMT-58"/>
    <use x="1172.691406" xlink:href="#ArialMT-32"/>
    <use x="1200.474609" xlink:href="#ArialMT-51"/>
    <use x="1256.089844" xlink:href="#ArialMT-48"/>
    <use x="1311.705078" xlink:href="#ArialMT-48"/>
    <use x="1367.320312" xlink:href="#ArialMT-44"/>
    <use x="1395.103516" xlink:href="#ArialMT-32"/>
    <use x="1422.886719" xlink:href="#ArialMT-78"/>
    <use x="1495.103516" xlink:href="#ArialMT-101"/>
    <use x="1550.71875" xlink:href="#ArialMT-105"/>
    <use x="1572.935547" xlink:href="#ArialMT-103"/>
    <use x="1628.550781" xlink:href="#ArialMT-104"/>
    <use x="1684.166016" xlink:href="#ArialMT-98"/>
    <use x="1739.78125" xlink:href="#ArialMT-111"/>
    <use x="1795.396484" xlink:href="#ArialMT-117"/>
    <use x="1851.011719" xlink:href="#ArialMT-114"/>
    <use x="1884.3125" xlink:href="#ArialMT-104"/>
    <use x="1939.927734" xlink:href="#ArialMT-111"/>
    <use x="1995.542969" xlink:href="#ArialMT-111"/>
    <use x="2051.158203" xlink:href="#ArialMT-100"/>
    <use x="2106.773438" xlink:href="#ArialMT-115"/>
    <use x="2156.773438" xlink:href="#ArialMT-58"/>
    <use x="2184.556641" xlink:href="#ArialMT-32"/>
    <use x="2212.339844" xlink:href="#ArialMT-50"/>
    <use x="2267.955078" xlink:href="#ArialMT-44"/>
    <use x="2295.738281" xlink:href="#ArialMT-32"/>
    <use x="2323.521484" xlink:href="#ArialMT-99"/>
    <use x="2373.521484" xlink:href="#ArialMT-97"/>
    <use x="2429.136719" xlink:href="#ArialMT-115"/>
    <use x="2479.136719" xlink:href="#ArialMT-101"/>
    <use x="2534.751953" xlink:href="#ArialMT-58"/>
    <use x="2562.535156" xlink:href="#ArialMT-32"/>
    <use x="2590.318359" xlink:href="#ArialMT-99"/>
    <use x="2640.318359" xlink:href="#ArialMT-111"/>
    <use x="2695.933594" xlink:href="#ArialMT-115"/>
    <use x="2745.933594" xlink:href="#ArialMT-116"/>
   </g>
  </g>
 </g>
 <defs>
  <clipPath id="p6fd1861a2f">
   <rect height="304.92" width="446.4" x="72" y="47.52"/>
  </clipPath>
 </defs>
</svg>
