<?xml version="1.0" encoding="utf-8" standalone="no"?>
<!DOCTYPE svg PUBLIC "-//W3C//DTD SVG 1.1//EN"
  "http://www.w3.org/Graphics/SVG/1.1/DTD/svg11.dtd">
<!-- Created with matplotlib (https://matplotlib.org/) -->
<svg height="396pt" version="1.1" viewBox="0 0 576 396" width="576pt" xmlns="http://www.w3.org/2000/svg" xmlns:xlink="http://www.w3.org/1999/xlink">
 <defs>
  <style type="text/css">
*{stroke-linecap:butt;stroke-linejoin:round;}
  </style>
 </defs>
 <g id="figure_1">
  <g id="patch_1">
   <path d="M 0 396 
L 576 396 
L 576 0 
L 0 0 
z
" style="fill:#ffffff;"/>
  </g>
  <g id="axes_1">
   <g id="patch_2">
    <path d="M 72 186.12 
L 518.4 186.12 
L 518.4 47.52 
L 72 47.52 
z
" style="fill:#eaeaf2;"/>
   </g>
   <g id="matplotlib.axis_1">
    <g id="xtick_1">
     <g id="line2d_1">
      <path clip-path="url(#p04b47f0d7e)" d="M 92.290909 186.12 
L 92.290909 47.52 
" style="fill:none;stroke:#ffffff;stroke-linecap:round;"/>
     </g>
     <g id="line2d_2"/>
     <g id="text_1">
      <!-- 01-01 00 -->
      <defs>
       <path d="M 4.15625 35.296875 
Q 4.15625 48 6.765625 55.734375 
Q 9.375 63.484375 14.515625 67.671875 
Q 19.671875 71.875 27.484375 71.875 
Q 33.25 71.875 37.59375 69.546875 
Q 41.9375 67.234375 44.765625 62.859375 
Q 47.609375 58.5 49.21875 52.21875 
Q 50.828125 45.953125 50.828125 35.296875 
Q 50.828125 22.703125 48.234375 14.96875 
Q 45.65625 7.234375 40.5 3 
Q 35.359375 -1.21875 27.484375 -1.21875 
Q 17.140625 -1.21875 11.234375 6.203125 
Q 4.15625 15.140625 4.15625 35.296875 
z
M 13.1875 35.296875 
Q 13.1875 17.671875 17.3125 11.828125 
Q 21.4375 6 27.484375 6 
Q 33.546875 6 37.671875 11.859375 
Q 41.796875 17.71875 41.796875 35.296875 
Q 41.796875 52.984375 37.671875 58.78125 
Q 33.546875 64.59375 27.390625 64.59375 
Q 21.34375 64.59375 17.71875 59.46875 
Q 13.1875 52.9375 13.1875 35.296875 
z
" id="ArialMT-48"/>
       <path d="M 37.25 0 
L 28.46875 0 
L 28.46875 56 
Q 25.296875 52.984375 20.140625 49.953125 
Q 14.984375 46.921875 10.890625 45.40625 
L 10.890625 53.90625 
Q 18.265625 57.375 23.78125 62.296875 
Q 29.296875 67.234375 31.59375 71.875 
L 37.25 71.875 
z
" id="ArialMT-49"/>
       <path d="M 3.171875 21.484375 
L 3.171875 30.328125 
L 30.171875 30.328125 
L 30.171875 21.484375 
z
" id="ArialMT-45"/>
       <path id="ArialMT-32"/>
      </defs>
      <g style="fill:#262626;" transform="translate(72.55419 200.277812)scale(0.1 -0.1)">
       <use xlink:href="#ArialMT-48"/>
       <use x="55.615234" xlink:href="#ArialMT-49"/>
       <use x="111.230469" xlink:href="#ArialMT-45"/>
       <use x="144.53125" xlink:href="#ArialMT-48"/>
       <use x="200.146484" xlink:href="#ArialMT-49"/>
       <use x="255.761719" xlink:href="#ArialMT-32"/>
       <use x="283.544922" xlink:href="#ArialMT-48"/>
       <use x="339.160156" xlink:href="#ArialMT-48"/>
      </g>
     </g>
    </g>
    <g id="xtick_2">
     <g id="line2d_3">
      <path clip-path="url(#p04b47f0d7e)" d="M 143.194932 186.12 
L 143.194932 47.52 
" style="fill:none;stroke:#ffffff;stroke-linecap:round;"/>
     </g>
     <g id="line2d_4"/>
     <g id="text_2">
      <!-- 01-01 03 -->
      <defs>
       <path d="M 4.203125 18.890625 
L 12.984375 20.0625 
Q 14.5 12.59375 18.140625 9.296875 
Q 21.78125 6 27 6 
Q 33.203125 6 37.46875 10.296875 
Q 41.75 14.59375 41.75 20.953125 
Q 41.75 27 37.796875 30.921875 
Q 33.84375 34.859375 27.734375 34.859375 
Q 25.25 34.859375 21.53125 33.890625 
L 22.515625 41.609375 
Q 23.390625 41.5 23.921875 41.5 
Q 29.546875 41.5 34.03125 44.421875 
Q 38.53125 47.359375 38.53125 53.46875 
Q 38.53125 58.296875 35.25 61.46875 
Q 31.984375 64.65625 26.8125 64.65625 
Q 21.6875 64.65625 18.265625 61.421875 
Q 14.84375 58.203125 13.875 51.765625 
L 5.078125 53.328125 
Q 6.6875 62.15625 12.390625 67.015625 
Q 18.109375 71.875 26.609375 71.875 
Q 32.46875 71.875 37.390625 69.359375 
Q 42.328125 66.84375 44.9375 62.5 
Q 47.5625 58.15625 47.5625 53.265625 
Q 47.5625 48.640625 45.0625 44.828125 
Q 42.578125 41.015625 37.703125 38.765625 
Q 44.046875 37.3125 47.5625 32.6875 
Q 51.078125 28.078125 51.078125 21.140625 
Q 51.078125 11.765625 44.234375 5.25 
Q 37.40625 -1.265625 26.953125 -1.265625 
Q 17.53125 -1.265625 11.296875 4.34375 
Q 5.078125 9.96875 4.203125 18.890625 
z
" id="ArialMT-51"/>
      </defs>
      <g style="fill:#262626;" transform="translate(123.458213 200.277812)scale(0.1 -0.1)">
       <use xlink:href="#ArialMT-48"/>
       <use x="55.615234" xlink:href="#ArialMT-49"/>
       <use x="111.230469" xlink:href="#ArialMT-45"/>
       <use x="144.53125" xlink:href="#ArialMT-48"/>
       <use x="200.146484" xlink:href="#ArialMT-49"/>
       <use x="255.761719" xlink:href="#ArialMT-32"/>
       <use x="283.544922" xlink:href="#ArialMT-48"/>
       <use x="339.160156" xlink:href="#ArialMT-51"/>
      </g>
     </g>
    </g>
    <g id="xtick_3">
     <g id="line2d_5">
      <path clip-path="url(#p04b47f0d7e)" d="M 194.098955 186.12 
L 194.098955 47.52 
" style="fill:none;stroke:#ffffff;stroke-linecap:round;"/>
     </g>
     <g id="line2d_6"/>
     <g id="text_3">
      <!-- 01-01 06 -->
      <defs>
       <path d="M 49.75 54.046875 
L 41.015625 53.375 
Q 39.84375 58.546875 37.703125 60.890625 
Q 34.125 64.65625 28.90625 64.65625 
Q 24.703125 64.65625 21.53125 62.3125 
Q 17.390625 59.28125 14.984375 53.46875 
Q 12.59375 47.65625 12.5 36.921875 
Q 15.671875 41.75 20.265625 44.09375 
Q 24.859375 46.4375 29.890625 46.4375 
Q 38.671875 46.4375 44.84375 39.96875 
Q 51.03125 33.5 51.03125 23.25 
Q 51.03125 16.5 48.125 10.71875 
Q 45.21875 4.9375 40.140625 1.859375 
Q 35.0625 -1.21875 28.609375 -1.21875 
Q 17.625 -1.21875 10.6875 6.859375 
Q 3.765625 14.9375 3.765625 33.5 
Q 3.765625 54.25 11.421875 63.671875 
Q 18.109375 71.875 29.4375 71.875 
Q 37.890625 71.875 43.28125 67.140625 
Q 48.6875 62.40625 49.75 54.046875 
z
M 13.875 23.1875 
Q 13.875 18.65625 15.796875 14.5 
Q 17.71875 10.359375 21.1875 8.171875 
Q 24.65625 6 28.46875 6 
Q 34.03125 6 38.03125 10.484375 
Q 42.046875 14.984375 42.046875 22.703125 
Q 42.046875 30.125 38.078125 34.390625 
Q 34.125 38.671875 28.125 38.671875 
Q 22.171875 38.671875 18.015625 34.390625 
Q 13.875 30.125 13.875 23.1875 
z
" id="ArialMT-54"/>
      </defs>
      <g style="fill:#262626;" transform="translate(174.362236 200.277812)scale(0.1 -0.1)">
       <use xlink:href="#ArialMT-48"/>
       <use x="55.615234" xlink:href="#ArialMT-49"/>
       <use x="111.230469" xlink:href="#ArialMT-45"/>
       <use x="144.53125" xlink:href="#ArialMT-48"/>
       <use x="200.146484" xlink:href="#ArialMT-49"/>
       <use x="255.761719" xlink:href="#ArialMT-32"/>
       <use x="283.544922" xlink:href="#ArialMT-48"/>
       <use x="339.160156" xlink:href="#ArialMT-54"/>
      </g>
     </g>
    </g>
    <g id="xtick_4">
     <g id="line2d_7">
      <path clip-path="url(#p04b47f0d7e)" d="M 245.002977 186.12 
L 245.002977 47.52 
" style="fill:none;stroke:#ffffff;stroke-linecap:round;"/>
     </g>
     <g id="line2d_8"/>
     <g id="text_4">
      <!-- 01-01 09 -->
      <defs>
       <path d="M 5.46875 16.546875 
L 13.921875 17.328125 
Q 14.984375 11.375 18.015625 8.6875 
Q 21.046875 6 25.78125 6 
Q 29.828125 6 32.875 7.859375 
Q 35.9375 9.71875 37.890625 12.8125 
Q 39.84375 15.921875 41.15625 21.1875 
Q 42.484375 26.46875 42.484375 31.9375 
Q 42.484375 32.515625 42.4375 33.6875 
Q 39.796875 29.5 35.234375 26.875 
Q 30.671875 24.265625 25.34375 24.265625 
Q 16.453125 24.265625 10.296875 30.703125 
Q 4.15625 37.15625 4.15625 47.703125 
Q 4.15625 58.59375 10.578125 65.234375 
Q 17 71.875 26.65625 71.875 
Q 33.640625 71.875 39.421875 68.109375 
Q 45.21875 64.359375 48.21875 57.390625 
Q 51.21875 50.4375 51.21875 37.25 
Q 51.21875 23.53125 48.234375 15.40625 
Q 45.265625 7.28125 39.375 3.03125 
Q 33.5 -1.21875 25.59375 -1.21875 
Q 17.1875 -1.21875 11.859375 3.4375 
Q 6.546875 8.109375 5.46875 16.546875 
z
M 41.453125 48.140625 
Q 41.453125 55.71875 37.421875 60.15625 
Q 33.40625 64.59375 27.734375 64.59375 
Q 21.875 64.59375 17.53125 59.8125 
Q 13.1875 55.03125 13.1875 47.40625 
Q 13.1875 40.578125 17.3125 36.296875 
Q 21.4375 32.03125 27.484375 32.03125 
Q 33.59375 32.03125 37.515625 36.296875 
Q 41.453125 40.578125 41.453125 48.140625 
z
" id="ArialMT-57"/>
      </defs>
      <g style="fill:#262626;" transform="translate(225.266259 200.277812)scale(0.1 -0.1)">
       <use xlink:href="#ArialMT-48"/>
       <use x="55.615234" xlink:href="#ArialMT-49"/>
       <use x="111.230469" xlink:href="#ArialMT-45"/>
       <use x="144.53125" xlink:href="#ArialMT-48"/>
       <use x="200.146484" xlink:href="#ArialMT-49"/>
       <use x="255.761719" xlink:href="#ArialMT-32"/>
       <use x="283.544922" xlink:href="#ArialMT-48"/>
       <use x="339.160156" xlink:href="#ArialMT-57"/>
      </g>
     </g>
    </g>
    <g id="xtick_5">
     <g id="line2d_9">
      <path clip-path="url(#p04b47f0d7e)" d="M 295.907 186.12 
L 295.907 47.52 
" style="fill:none;stroke:#ffffff;stroke-linecap:round;"/>
     </g>
     <g id="line2d_10"/>
     <g id="text_5">
      <!-- 01-01 12 -->
      <defs>
       <path d="M 50.34375 8.453125 
L 50.34375 0 
L 3.03125 0 
Q 2.9375 3.171875 4.046875 6.109375 
Q 5.859375 10.9375 9.828125 15.625 
Q 13.8125 20.3125 21.34375 26.46875 
Q 33.015625 36.03125 37.109375 41.625 
Q 41.21875 47.21875 41.21875 52.203125 
Q 41.21875 57.421875 37.46875 61 
Q 33.734375 64.59375 27.734375 64.59375 
Q 21.390625 64.59375 17.578125 60.78125 
Q 13.765625 56.984375 13.71875 50.25 
L 4.6875 51.171875 
Q 5.609375 61.28125 11.65625 66.578125 
Q 17.71875 71.875 27.9375 71.875 
Q 38.234375 71.875 44.234375 66.15625 
Q 50.25 60.453125 50.25 52 
Q 50.25 47.703125 48.484375 43.546875 
Q 46.734375 39.40625 42.65625 34.8125 
Q 38.578125 30.21875 29.109375 22.21875 
Q 21.1875 15.578125 18.9375 13.203125 
Q 16.703125 10.84375 15.234375 8.453125 
z
" id="ArialMT-50"/>
      </defs>
      <g style="fill:#262626;" transform="translate(276.170282 200.277812)scale(0.1 -0.1)">
       <use xlink:href="#ArialMT-48"/>
       <use x="55.615234" xlink:href="#ArialMT-49"/>
       <use x="111.230469" xlink:href="#ArialMT-45"/>
       <use x="144.53125" xlink:href="#ArialMT-48"/>
       <use x="200.146484" xlink:href="#ArialMT-49"/>
       <use x="255.761719" xlink:href="#ArialMT-32"/>
       <use x="283.544922" xlink:href="#ArialMT-49"/>
       <use x="339.160156" xlink:href="#ArialMT-50"/>
      </g>
     </g>
    </g>
    <g id="xtick_6">
     <g id="line2d_11">
      <path clip-path="url(#p04b47f0d7e)" d="M 346.811023 186.12 
L 346.811023 47.52 
" style="fill:none;stroke:#ffffff;stroke-linecap:round;"/>
     </g>
     <g id="line2d_12"/>
     <g id="text_6">
      <!-- 01-01 15 -->
      <defs>
       <path d="M 4.15625 18.75 
L 13.375 19.53125 
Q 14.40625 12.796875 18.140625 9.390625 
Q 21.875 6 27.15625 6 
Q 33.5 6 37.890625 10.78125 
Q 42.28125 15.578125 42.28125 23.484375 
Q 42.28125 31 38.0625 35.34375 
Q 33.84375 39.703125 27 39.703125 
Q 22.75 39.703125 19.328125 37.765625 
Q 15.921875 35.84375 13.96875 32.765625 
L 5.71875 33.84375 
L 12.640625 70.609375 
L 48.25 70.609375 
L 48.25 62.203125 
L 19.671875 62.203125 
L 15.828125 42.96875 
Q 22.265625 47.46875 29.34375 47.46875 
Q 38.71875 47.46875 45.15625 40.96875 
Q 51.609375 34.46875 51.609375 24.265625 
Q 51.609375 14.546875 45.953125 7.46875 
Q 39.0625 -1.21875 27.15625 -1.21875 
Q 17.390625 -1.21875 11.203125 4.25 
Q 5.03125 9.71875 4.15625 18.75 
z
" id="ArialMT-53"/>
      </defs>
      <g style="fill:#262626;" transform="translate(327.074304 200.277812)scale(0.1 -0.1)">
       <use xlink:href="#ArialMT-48"/>
       <use x="55.615234" xlink:href="#ArialMT-49"/>
       <use x="111.230469" xlink:href="#ArialMT-45"/>
       <use x="144.53125" xlink:href="#ArialMT-48"/>
       <use x="200.146484" xlink:href="#ArialMT-49"/>
       <use x="255.761719" xlink:href="#ArialMT-32"/>
       <use x="283.544922" xlink:href="#ArialMT-49"/>
       <use x="339.160156" xlink:href="#ArialMT-53"/>
      </g>
     </g>
    </g>
    <g id="xtick_7">
     <g id="line2d_13">
      <path clip-path="url(#p04b47f0d7e)" d="M 397.715046 186.12 
L 397.715046 47.52 
" style="fill:none;stroke:#ffffff;stroke-linecap:round;"/>
     </g>
     <g id="line2d_14"/>
     <g id="text_7">
      <!-- 01-01 18 -->
      <defs>
       <path d="M 17.671875 38.8125 
Q 12.203125 40.828125 9.5625 44.53125 
Q 6.9375 48.25 6.9375 53.421875 
Q 6.9375 61.234375 12.546875 66.546875 
Q 18.171875 71.875 27.484375 71.875 
Q 36.859375 71.875 42.578125 66.421875 
Q 48.296875 60.984375 48.296875 53.171875 
Q 48.296875 48.1875 45.671875 44.5 
Q 43.0625 40.828125 37.75 38.8125 
Q 44.34375 36.671875 47.78125 31.875 
Q 51.21875 27.09375 51.21875 20.453125 
Q 51.21875 11.28125 44.71875 5.03125 
Q 38.234375 -1.21875 27.640625 -1.21875 
Q 17.046875 -1.21875 10.546875 5.046875 
Q 4.046875 11.328125 4.046875 20.703125 
Q 4.046875 27.6875 7.59375 32.390625 
Q 11.140625 37.109375 17.671875 38.8125 
z
M 15.921875 53.71875 
Q 15.921875 48.640625 19.1875 45.40625 
Q 22.46875 42.1875 27.6875 42.1875 
Q 32.765625 42.1875 36.015625 45.375 
Q 39.265625 48.578125 39.265625 53.21875 
Q 39.265625 58.0625 35.90625 61.359375 
Q 32.5625 64.65625 27.59375 64.65625 
Q 22.5625 64.65625 19.234375 61.421875 
Q 15.921875 58.203125 15.921875 53.71875 
z
M 13.09375 20.65625 
Q 13.09375 16.890625 14.875 13.375 
Q 16.65625 9.859375 20.171875 7.921875 
Q 23.6875 6 27.734375 6 
Q 34.03125 6 38.125 10.046875 
Q 42.234375 14.109375 42.234375 20.359375 
Q 42.234375 26.703125 38.015625 30.859375 
Q 33.796875 35.015625 27.4375 35.015625 
Q 21.234375 35.015625 17.15625 30.90625 
Q 13.09375 26.8125 13.09375 20.65625 
z
" id="ArialMT-56"/>
      </defs>
      <g style="fill:#262626;" transform="translate(377.978327 200.277812)scale(0.1 -0.1)">
       <use xlink:href="#ArialMT-48"/>
       <use x="55.615234" xlink:href="#ArialMT-49"/>
       <use x="111.230469" xlink:href="#ArialMT-45"/>
       <use x="144.53125" xlink:href="#ArialMT-48"/>
       <use x="200.146484" xlink:href="#ArialMT-49"/>
       <use x="255.761719" xlink:href="#ArialMT-32"/>
       <use x="283.544922" xlink:href="#ArialMT-49"/>
       <use x="339.160156" xlink:href="#ArialMT-56"/>
      </g>
     </g>
    </g>
    <g id="xtick_8">
     <g id="line2d_15">
      <path clip-path="url(#p04b47f0d7e)" d="M 448.619069 186.12 
L 448.619069 47.52 
" style="fill:none;stroke:#ffffff;stroke-linecap:round;"/>
     </g>
     <g id="line2d_16"/>
     <g id="text_8">
      <!-- 01-01 21 -->
      <g style="fill:#262626;" transform="translate(428.88235 200.277812)scale(0.1 -0.1)">
       <use xlink:href="#ArialMT-48"/>
       <use x="55.615234" xlink:href="#ArialMT-49"/>
       <use x="111.230469" xlink:href="#ArialMT-45"/>
       <use x="144.53125" xlink:href="#ArialMT-48"/>
       <use x="200.146484" xlink:href="#ArialMT-49"/>
       <use x="255.761719" xlink:href="#ArialMT-32"/>
       <use x="283.544922" xlink:href="#ArialMT-50"/>
       <use x="339.160156" xlink:href="#ArialMT-49"/>
      </g>
     </g>
    </g>
    <g id="xtick_9">
     <g id="line2d_17">
      <path clip-path="url(#p04b47f0d7e)" d="M 499.523091 186.12 
L 499.523091 47.52 
" style="fill:none;stroke:#ffffff;stroke-linecap:round;"/>
     </g>
     <g id="line2d_18"/>
     <g id="text_9">
      <!-- 01-02 00 -->
      <g style="fill:#262626;" transform="translate(479.786373 200.277812)scale(0.1 -0.1)">
       <use xlink:href="#ArialMT-48"/>
       <use x="55.615234" xlink:href="#ArialMT-49"/>
       <use x="111.230469" xlink:href="#ArialMT-45"/>
       <use x="144.53125" xlink:href="#ArialMT-48"/>
       <use x="200.146484" xlink:href="#ArialMT-50"/>
       <use x="255.761719" xlink:href="#ArialMT-32"/>
       <use x="283.544922" xlink:href="#ArialMT-48"/>
       <use x="339.160156" xlink:href="#ArialMT-48"/>
      </g>
     </g>
    </g>
   </g>
   <g id="matplotlib.axis_2">
    <g id="ytick_1">
     <g id="line2d_19">
      <path clip-path="url(#p04b47f0d7e)" d="M 72 169.233079 
L 518.4 169.233079 
" style="fill:none;stroke:#ffffff;stroke-linecap:round;"/>
     </g>
     <g id="line2d_20"/>
     <g id="text_10">
      <!-- 0.5 -->
      <defs>
       <path d="M 9.078125 0 
L 9.078125 10.015625 
L 19.09375 10.015625 
L 19.09375 0 
z
" id="ArialMT-46"/>
      </defs>
      <g style="fill:#262626;" transform="translate(51.1 172.811985)scale(0.1 -0.1)">
       <use xlink:href="#ArialMT-48"/>
       <use x="55.615234" xlink:href="#ArialMT-46"/>
       <use x="83.398438" xlink:href="#ArialMT-53"/>
      </g>
     </g>
    </g>
    <g id="ytick_2">
     <g id="line2d_21">
      <path clip-path="url(#p04b47f0d7e)" d="M 72 145.50743 
L 518.4 145.50743 
" style="fill:none;stroke:#ffffff;stroke-linecap:round;"/>
     </g>
     <g id="line2d_22"/>
     <g id="text_11">
      <!-- 1.0 -->
      <g style="fill:#262626;" transform="translate(51.1 149.086337)scale(0.1 -0.1)">
       <use xlink:href="#ArialMT-49"/>
       <use x="55.615234" xlink:href="#ArialMT-46"/>
       <use x="83.398438" xlink:href="#ArialMT-48"/>
      </g>
     </g>
    </g>
    <g id="ytick_3">
     <g id="line2d_23">
      <path clip-path="url(#p04b47f0d7e)" d="M 72 121.781782 
L 518.4 121.781782 
" style="fill:none;stroke:#ffffff;stroke-linecap:round;"/>
     </g>
     <g id="line2d_24"/>
     <g id="text_12">
      <!-- 1.5 -->
      <g style="fill:#262626;" transform="translate(51.1 125.360688)scale(0.1 -0.1)">
       <use xlink:href="#ArialMT-49"/>
       <use x="55.615234" xlink:href="#ArialMT-46"/>
       <use x="83.398438" xlink:href="#ArialMT-53"/>
      </g>
     </g>
    </g>
    <g id="ytick_4">
     <g id="line2d_25">
      <path clip-path="url(#p04b47f0d7e)" d="M 72 98.056134 
L 518.4 98.056134 
" style="fill:none;stroke:#ffffff;stroke-linecap:round;"/>
     </g>
     <g id="line2d_26"/>
     <g id="text_13">
      <!-- 2.0 -->
      <g style="fill:#262626;" transform="translate(51.1 101.63504)scale(0.1 -0.1)">
       <use xlink:href="#ArialMT-50"/>
       <use x="55.615234" xlink:href="#ArialMT-46"/>
       <use x="83.398438" xlink:href="#ArialMT-48"/>
      </g>
     </g>
    </g>
    <g id="ytick_5">
     <g id="line2d_27">
      <path clip-path="url(#p04b47f0d7e)" d="M 72 74.330485 
L 518.4 74.330485 
" style="fill:none;stroke:#ffffff;stroke-linecap:round;"/>
     </g>
     <g id="line2d_28"/>
     <g id="text_14">
      <!-- 2.5 -->
      <g style="fill:#262626;" transform="translate(51.1 77.909392)scale(0.1 -0.1)">
       <use xlink:href="#ArialMT-50"/>
       <use x="55.615234" xlink:href="#ArialMT-46"/>
       <use x="83.398438" xlink:href="#ArialMT-53"/>
      </g>
     </g>
    </g>
    <g id="ytick_6">
     <g id="line2d_29">
      <path clip-path="url(#p04b47f0d7e)" d="M 72 50.604837 
L 518.4 50.604837 
" style="fill:none;stroke:#ffffff;stroke-linecap:round;"/>
     </g>
     <g id="line2d_30"/>
     <g id="text_15">
      <!-- 3.0 -->
      <g style="fill:#262626;" transform="translate(51.1 54.183743)scale(0.1 -0.1)">
       <use xlink:href="#ArialMT-51"/>
       <use x="55.615234" xlink:href="#ArialMT-46"/>
       <use x="83.398438" xlink:href="#ArialMT-48"/>
      </g>
     </g>
    </g>
   </g>
   <g id="line2d_31">
    <path clip-path="url(#p04b47f0d7e)" d="M 92.290909 110.526829 
L 95.11891 110.411156 
L 96.532911 112.952297 
L 99.360912 112.884848 
L 100.774913 114.646233 
L 103.602914 114.61114 
L 105.016915 120.58368 
L 107.844916 120.562259 
L 109.258917 122.110547 
L 112.086918 122.098117 
L 113.500919 124.442268 
L 116.32892 124.433403 
L 117.74292 127.023075 
L 120.570922 127.015434 
L 121.984922 129.203939 
L 124.812924 129.197075 
L 126.226924 129.504759 
L 129.054926 129.500292 
L 130.468926 130.747042 
L 133.296927 130.742687 
L 134.710928 133.882246 
L 137.538929 133.875857 
L 138.95293 135.795107 
L 150.264935 135.851538 
L 151.678936 134.998182 
L 154.506937 134.997801 
L 155.920938 156.899137 
L 158.748939 156.881028 
L 160.162939 153.527025 
L 162.990941 153.514618 
L 164.404941 150.886219 
L 167.232943 150.879609 
L 168.646943 148.427514 
L 171.474945 148.426392 
L 172.888945 142.104609 
L 175.716946 142.114511 
L 177.130947 140.589363 
L 179.958948 140.599742 
L 181.372949 138.350638 
L 184.20095 138.360887 
L 185.614951 136.584233 
L 188.442952 136.593684 
L 189.856953 128.421226 
L 192.684954 128.441885 
L 194.098955 120.473157 
L 196.926956 120.499842 
L 198.340957 111.381212 
L 201.168958 111.411211 
L 202.582959 101.417089 
L 205.41096 101.447856 
L 206.82496 93.008274 
L 209.652962 93.03507 
L 211.066962 84.342798 
L 213.894964 84.365273 
L 215.308964 84.595578 
L 218.136965 84.604124 
L 219.550966 76.604247 
L 222.378967 76.616664 
L 223.792968 70.189991 
L 226.620969 70.20145 
L 228.03497 59.141323 
L 230.862971 59.157861 
L 232.276972 68.688619 
L 235.104973 68.684356 
L 236.518974 67.993573 
L 239.346975 67.992258 
L 240.760976 66.049083 
L 243.588977 66.050999 
L 245.002977 63.849343 
L 247.830979 63.85216 
L 249.244979 65.779513 
L 252.072981 99.133974 
L 253.486981 113.096409 
L 254.900982 121.456271 
L 256.314983 127.485264 
L 257.728983 131.332854 
L 259.142984 134.749844 
L 260.556984 137.37503 
L 261.970985 139.350508 
L 263.384986 140.975114 
L 264.798986 142.27328 
L 266.212987 144.308327 
L 267.626988 145.128635 
L 270.454989 146.536523 
L 273.28299 147.359161 
L 274.696991 148.108216 
L 277.524992 148.567094 
L 278.938993 148.991433 
L 281.766994 149.249846 
L 283.180995 150.669103 
L 287.422996 150.810449 
L 290.250998 150.890089 
L 291.664998 150.739852 
L 294.493 150.785634 
L 295.907 150.971403 
L 297.321001 150.346957 
L 298.735002 149.28279 
L 300.149002 148.772417 
L 301.563003 146.81524 
L 302.977003 144.327948 
L 304.391004 141.039867 
L 305.805005 137.317305 
L 307.219005 132.932244 
L 308.633006 129.735791 
L 311.461007 118.67683 
L 315.703009 101.91642 
L 318.53101 94.491004 
L 319.945011 91.500051 
L 322.773012 88.137387 
L 324.187013 86.990431 
L 325.601014 88.048463 
L 327.015014 87.524309 
L 328.429015 87.17076 
L 329.843015 86.595759 
L 332.671017 86.335603 
L 334.085017 86.986638 
L 336.913019 86.913141 
L 338.327019 86.612666 
L 341.155021 86.592512 
L 342.569021 84.824039 
L 345.397022 84.820555 
L 346.811023 84.651955 
L 349.639024 84.651414 
L 351.053025 86.096687 
L 353.881026 86.095025 
L 355.295027 85.813442 
L 358.123028 85.813095 
L 359.537029 85.197475 
L 362.36503 85.198082 
L 363.779031 85.424934 
L 366.607032 85.424968 
L 368.021033 86.100026 
L 370.849034 86.099116 
L 372.263034 85.375033 
L 375.091036 85.375636 
L 376.505036 85.61239 
L 379.333038 85.612283 
L 380.747038 84.729717 
L 383.57504 84.730492 
L 384.98904 85.45658 
L 387.817041 85.456195 
L 389.231042 84.994047 
L 392.059043 84.994242 
L 393.473044 85.734827 
L 396.301045 85.734055 
L 397.715046 85.577211 
L 400.543047 85.577063 
L 401.957048 84.99195 
L 404.785049 84.992614 
L 406.19905 83.872437 
L 413.269053 83.855838 
L 414.683053 83.625744 
L 417.511055 83.626237 
L 418.925055 84.308301 
L 421.753057 84.307838 
L 423.167057 84.005459 
L 430.23706 83.952095 
L 431.651061 84.36804 
L 434.479062 84.367669 
L 435.893063 84.666312 
L 438.721064 84.665775 
L 440.135065 84.94788 
L 442.963066 84.947272 
L 444.377067 85.340332 
L 447.205068 85.339741 
L 448.619069 84.847334 
L 451.44707 84.847675 
L 452.861071 86.91344 
L 455.689072 86.911426 
L 457.103073 87.358985 
L 459.931074 87.357583 
L 461.345074 96.342729 
L 464.173076 117.367302 
L 465.587076 126.269044 
L 467.001077 130.963154 
L 468.415078 133.278748 
L 469.829078 136.622676 
L 471.243079 136.208085 
L 472.657079 134.938552 
L 474.07108 134.278269 
L 475.485081 131.823061 
L 476.899081 128.901965 
L 478.313082 134.118662 
L 481.141083 128.713291 
L 482.555084 129.760049 
L 485.383085 125.327465 
L 486.797086 131.058264 
L 488.211086 129.718894 
L 489.625087 128.568855 
L 491.039088 130.008833 
L 492.453088 129.261214 
L 493.867089 128.650035 
L 495.28109 135.396197 
L 498.109091 134.808563 
L 498.109091 134.808563 
" style="fill:none;stroke:#4c72b0;stroke-linecap:round;stroke-width:1.75;"/>
   </g>
   <g id="line2d_32">
    <path clip-path="url(#p04b47f0d7e)" d="M 92.290909 104.918844 
L 95.11891 104.803687 
L 96.532911 106.046314 
L 99.360912 105.978524 
L 100.774913 108.16582 
L 103.602914 108.131558 
L 105.016915 114.304205 
L 107.844916 114.283767 
L 109.258917 115.910978 
L 112.086918 115.899396 
L 113.500919 118.188962 
L 116.32892 118.180875 
L 117.74292 120.884975 
L 120.570922 120.877874 
L 121.984922 123.074052 
L 124.812924 123.067663 
L 126.226924 123.177489 
L 129.054926 123.173575 
L 130.468926 123.575722 
L 133.296927 123.572597 
L 134.710928 126.695914 
L 137.538929 126.690345 
L 138.95293 129.188444 
L 141.780931 129.182343 
L 143.194932 128.911277 
L 146.022933 128.907736 
L 147.436934 129.409991 
L 150.264935 129.407582 
L 151.678936 128.120639 
L 154.506937 128.120721 
L 155.920938 153.474546 
L 158.748939 153.45532 
L 160.162939 150.231855 
L 162.990941 150.218296 
L 164.404941 146.988879 
L 167.232943 146.982008 
L 168.646943 144.098406 
L 171.474945 144.097626 
L 172.888945 137.678082 
L 175.716946 137.687879 
L 177.130947 136.338063 
L 179.958948 136.347975 
L 181.372949 133.201425 
L 184.20095 133.2125 
L 185.614951 131.601244 
L 188.442952 131.61058 
L 189.856953 124.510784 
L 192.684954 124.528098 
L 194.098955 116.728795 
L 196.926956 116.752067 
L 198.340957 107.246529 
L 201.168958 107.274079 
L 202.582959 96.83085 
L 205.41096 96.859703 
L 206.82496 89.313287 
L 209.652962 89.336888 
L 211.066962 80.038987 
L 213.894964 80.059978 
L 215.308964 81.110465 
L 218.136965 81.117573 
L 219.550966 73.259135 
L 222.378967 73.270273 
L 223.792968 65.051423 
L 226.620969 65.063474 
L 228.03497 53.82 
L 230.862971 53.835949 
L 232.276972 63.733109 
L 235.104973 63.728854 
L 236.518974 62.962864 
L 239.346975 62.961579 
L 240.760976 61.904825 
L 243.588977 61.90601 
L 245.002977 58.995591 
L 247.830979 58.998591 
L 249.244979 60.723941 
L 252.072981 96.427883 
L 253.486981 111.528554 
L 254.900982 120.105943 
L 256.314983 126.257603 
L 259.142984 133.404873 
L 260.556984 136.064291 
L 263.384986 139.498209 
L 264.798986 140.803985 
L 266.212987 143.120563 
L 267.626988 143.930176 
L 269.040988 144.589632 
L 270.454989 145.429456 
L 273.28299 146.225059 
L 274.696991 147.309614 
L 280.352993 148.182997 
L 281.766994 148.29141 
L 283.180995 149.774831 
L 286.008996 149.901127 
L 287.422996 149.720529 
L 290.250998 149.792036 
L 291.664998 149.63785 
L 295.907 149.771818 
L 297.321001 149.095955 
L 298.735002 147.948236 
L 300.149002 147.198409 
L 301.563003 145.081563 
L 302.977003 142.391915 
L 304.391004 138.797413 
L 305.805005 134.766997 
L 307.219005 130.022049 
L 308.633006 126.70782 
L 311.461007 114.878667 
L 314.289008 102.664822 
L 315.703009 97.119354 
L 317.11701 93.804901 
L 318.53101 90.048408 
L 319.945011 87.163686 
L 322.773012 84.263586 
L 324.187013 83.242631 
L 325.601014 84.247566 
L 327.015014 83.801606 
L 328.429015 83.508504 
L 329.843015 82.826523 
L 332.671017 82.623908 
L 334.085017 83.634893 
L 336.913019 83.58274 
L 338.327019 83.199308 
L 341.155021 83.186467 
L 342.569021 81.93823 
L 345.397022 81.936747 
L 346.811023 81.221199 
L 349.639024 81.221664 
L 351.053025 82.600746 
L 353.881026 82.599511 
L 355.295027 82.439256 
L 358.123028 82.438932 
L 359.537029 81.873886 
L 362.36503 81.874424 
L 363.779031 82.126273 
L 366.607032 82.12628 
L 368.021033 82.314008 
L 370.849034 82.313504 
L 372.263034 82.144091 
L 375.091036 82.144332 
L 376.505036 82.004282 
L 379.333038 82.004379 
L 380.747038 80.655117 
L 383.57504 80.656256 
L 384.98904 81.615601 
L 387.817041 81.615176 
L 389.231042 80.784425 
L 392.059043 80.784869 
L 393.473044 81.382376 
L 400.543047 81.276616 
L 401.957048 80.832847 
L 404.785049 80.833369 
L 406.19905 79.407117 
L 413.269053 79.4465 
L 414.683053 79.243867 
L 417.511055 79.244308 
L 418.925055 80.232821 
L 421.753057 80.232142 
L 423.167057 79.876199 
L 430.23706 79.891995 
L 431.651061 80.404438 
L 434.479062 80.404 
L 435.893063 80.583129 
L 442.963066 80.635717 
L 444.377067 81.280619 
L 447.205068 81.279928 
L 448.619069 80.876558 
L 451.44707 80.876775 
L 452.861071 83.225342 
L 455.689072 83.223211 
L 457.103073 83.650956 
L 459.931074 83.649583 
L 461.345074 93.159046 
L 464.173076 115.469425 
L 465.587076 124.552239 
L 467.001077 129.385024 
L 468.415078 131.703859 
L 469.829078 134.811318 
L 471.243079 134.268053 
L 472.657079 132.818061 
L 474.07108 131.799136 
L 475.485081 129.082553 
L 476.899081 125.871348 
L 478.313082 130.857295 
L 481.141083 124.940296 
L 482.555084 126.203109 
L 485.383085 121.484728 
L 486.797086 126.841346 
L 488.211086 125.427045 
L 489.625087 124.229474 
L 491.039088 125.587023 
L 492.453088 124.827449 
L 493.867089 124.21738 
L 495.28109 131.173573 
L 498.109091 130.605858 
L 498.109091 130.605858 
" style="fill:none;stroke:#55a868;stroke-linecap:round;stroke-width:1.75;"/>
   </g>
   <g id="line2d_33">
    <path clip-path="url(#p04b47f0d7e)" d="M 92.290909 159.115821 
L 95.11891 159.053952 
L 96.532911 162.620385 
L 99.360912 162.585408 
L 100.774913 162.783688 
L 103.602914 162.76376 
L 105.016915 165.569442 
L 107.844916 165.556461 
L 109.258917 166.237406 
L 112.086918 166.229399 
L 113.500919 167.558879 
L 116.32892 167.552873 
L 117.74292 168.72197 
L 120.570922 168.717014 
L 121.984922 169.857675 
L 124.812924 169.853241 
L 126.226924 170.354745 
L 129.054926 170.351442 
L 130.468926 172.457081 
L 133.296927 172.452673 
L 134.710928 174.135754 
L 141.780931 174.146898 
L 143.194932 174.362641 
L 146.022933 174.360138 
L 147.436934 173.902025 
L 150.264935 173.900969 
L 151.678936 174.194583 
L 154.506937 174.193587 
L 155.920938 179.82 
L 158.748939 179.812369 
L 160.162939 177.820234 
L 162.990941 177.815669 
L 164.404941 177.460561 
L 167.232943 177.457524 
L 168.646943 176.904686 
L 171.474945 176.903509 
L 172.888945 173.738197 
L 175.716946 173.743598 
L 177.130947 172.638854 
L 179.958948 172.645126 
L 181.372949 172.998304 
L 184.20095 173.002293 
L 185.614951 171.781984 
L 188.442952 171.787166 
L 189.856953 165.639097 
L 192.684954 165.655727 
L 194.098955 161.163946 
L 196.926956 161.183868 
L 198.340957 157.039842 
L 201.168958 157.059857 
L 202.582959 152.560916 
L 205.41096 152.58042 
L 206.82496 146.59932 
L 209.652962 146.618927 
L 211.066962 143.074749 
L 213.894964 143.089144 
L 215.308964 141.804111 
L 218.136965 141.811083 
L 219.550966 137.35087 
L 222.378967 137.359609 
L 223.792968 137.044593 
L 226.620969 137.049618 
L 228.03497 131.532936 
L 230.862971 131.542665 
L 232.276972 135.939134 
L 235.104973 135.936873 
L 236.518974 135.701646 
L 239.346975 135.700902 
L 240.760976 133.156387 
L 247.830979 133.21446 
L 249.244979 134.576992 
L 250.65898 141.047333 
L 252.072981 148.133132 
L 253.486981 153.542513 
L 254.900982 157.576958 
L 256.314983 160.545197 
L 257.728983 162.877793 
L 259.142984 164.576372 
L 261.970985 167.258226 
L 263.384986 168.084681 
L 266.212987 169.346189 
L 269.040988 170.1705 
L 273.28299 170.86262 
L 274.696991 170.682218 
L 277.524992 170.973205 
L 278.938993 171.390249 
L 281.766994 171.558188 
L 283.180995 172.196415 
L 286.008996 172.291685 
L 287.422996 172.606434 
L 291.664998 172.589933 
L 294.493 172.624053 
L 295.907 172.879347 
L 297.321001 172.638298 
L 298.735002 172.220526 
L 300.149002 172.362068 
L 301.563003 171.60401 
L 302.977003 170.639667 
L 304.391004 169.431587 
L 305.805005 167.9969 
L 307.219005 166.302155 
L 308.633006 164.818894 
L 310.047007 162.673839 
L 311.461007 160.309149 
L 312.875008 158.222057 
L 317.11701 150.74668 
L 318.53101 148.663046 
L 319.945011 146.903999 
L 321.359012 145.435799 
L 322.773012 144.337938 
L 324.187013 143.517174 
L 325.601014 144.16604 
L 327.015014 143.75561 
L 328.429015 143.465556 
L 332.671017 143.110027 
L 334.085017 142.836018 
L 341.155021 142.721343 
L 342.569021 140.896871 
L 345.397022 140.891601 
L 346.811023 141.740622 
L 349.639024 141.738612 
L 351.053025 142.61409 
L 353.881026 142.612482 
L 355.295027 142.255972 
L 358.123028 142.25575 
L 359.537029 141.844459 
L 366.607032 141.921698 
L 368.021033 143.113276 
L 370.849034 143.112098 
L 372.263034 141.779201 
L 375.091036 141.780138 
L 376.505036 142.551105 
L 379.333038 142.550697 
L 380.747038 142.885685 
L 387.817041 142.868153 
L 389.231042 143.256582 
L 392.059043 143.256259 
L 393.473044 143.892058 
L 396.301045 143.891263 
L 397.715046 143.719819 
L 400.543047 143.719706 
L 401.957048 143.168847 
L 409.027051 143.104269 
L 411.855052 142.998811 
L 413.269053 142.998973 
L 414.683053 142.830573 
L 417.511055 142.830923 
L 418.925055 142.66502 
L 425.995059 142.597686 
L 427.409059 142.450658 
L 434.479062 142.504585 
L 435.893063 142.866976 
L 438.721064 142.866529 
L 440.135065 143.407425 
L 442.963066 143.406716 
L 444.377067 143.182085 
L 447.205068 143.181945 
L 448.619069 142.769659 
L 451.44707 142.770051 
L 452.861071 143.374206 
L 455.689072 143.373346 
L 457.103073 143.643283 
L 459.931074 143.642495 
L 461.345074 147.480516 
L 465.587076 160.742772 
L 467.001077 162.979785 
L 468.415078 164.19505 
L 469.829078 166.363522 
L 471.243079 166.365594 
L 472.657079 166.005727 
L 474.07108 166.272617 
L 475.485081 165.426396 
L 476.899081 164.383823 
L 478.313082 167.529847 
L 481.141083 165.557385 
L 482.555084 165.738762 
L 485.383085 163.891914 
L 486.797086 167.554937 
L 489.625087 166.452479 
L 491.039088 167.353009 
L 493.867089 166.655226 
L 495.28109 169.851754 
L 498.109091 169.507786 
L 498.109091 169.507786 
" style="fill:none;stroke:#c44e52;stroke-linecap:round;stroke-width:1.75;"/>
   </g>
   <g id="patch_3">
    <path d="M 72 186.12 
L 72 47.52 
" style="fill:none;"/>
   </g>
   <g id="patch_4">
    <path d="M 518.4 186.12 
L 518.4 47.52 
" style="fill:none;"/>
   </g>
   <g id="patch_5">
    <path d="M 72 186.12 
L 518.4 186.12 
" style="fill:none;"/>
   </g>
   <g id="patch_6">
    <path d="M 72 47.52 
L 518.4 47.52 
" style="fill:none;"/>
   </g>
   <g id="text_16">
    <!-- Water speed -->
    <defs>
     <path d="M 20.21875 0 
L 1.21875 71.578125 
L 10.9375 71.578125 
L 21.828125 24.65625 
Q 23.578125 17.28125 24.859375 10.015625 
Q 27.59375 21.484375 28.078125 23.25 
L 41.703125 71.578125 
L 53.125 71.578125 
L 63.375 35.359375 
Q 67.234375 21.875 68.953125 10.015625 
Q 70.3125 16.796875 72.515625 25.59375 
L 83.734375 71.578125 
L 93.265625 71.578125 
L 73.640625 0 
L 64.5 0 
L 49.421875 54.546875 
Q 47.515625 61.375 47.171875 62.9375 
Q 46.046875 58.015625 45.0625 54.546875 
L 29.890625 0 
z
" id="ArialMT-87"/>
     <path d="M 40.4375 6.390625 
Q 35.546875 2.25 31.03125 0.53125 
Q 26.515625 -1.171875 21.34375 -1.171875 
Q 12.796875 -1.171875 8.203125 3 
Q 3.609375 7.171875 3.609375 13.671875 
Q 3.609375 17.484375 5.34375 20.625 
Q 7.078125 23.78125 9.890625 25.6875 
Q 12.703125 27.59375 16.21875 28.5625 
Q 18.796875 29.25 24.03125 29.890625 
Q 34.671875 31.15625 39.703125 32.90625 
Q 39.75 34.71875 39.75 35.203125 
Q 39.75 40.578125 37.25 42.78125 
Q 33.890625 45.75 27.25 45.75 
Q 21.046875 45.75 18.09375 43.578125 
Q 15.140625 41.40625 13.71875 35.890625 
L 5.125 37.0625 
Q 6.296875 42.578125 8.984375 45.96875 
Q 11.671875 49.359375 16.75 51.1875 
Q 21.828125 53.03125 28.515625 53.03125 
Q 35.15625 53.03125 39.296875 51.46875 
Q 43.453125 49.90625 45.40625 47.53125 
Q 47.359375 45.171875 48.140625 41.546875 
Q 48.578125 39.3125 48.578125 33.453125 
L 48.578125 21.734375 
Q 48.578125 9.46875 49.140625 6.21875 
Q 49.703125 2.984375 51.375 0 
L 42.1875 0 
Q 40.828125 2.734375 40.4375 6.390625 
z
M 39.703125 26.03125 
Q 34.90625 24.078125 25.34375 22.703125 
Q 19.921875 21.921875 17.671875 20.9375 
Q 15.4375 19.96875 14.203125 18.09375 
Q 12.984375 16.21875 12.984375 13.921875 
Q 12.984375 10.40625 15.640625 8.0625 
Q 18.3125 5.71875 23.4375 5.71875 
Q 28.515625 5.71875 32.46875 7.9375 
Q 36.421875 10.15625 38.28125 14.015625 
Q 39.703125 17 39.703125 22.796875 
z
" id="ArialMT-97"/>
     <path d="M 25.78125 7.859375 
L 27.046875 0.09375 
Q 23.34375 -0.6875 20.40625 -0.6875 
Q 15.625 -0.6875 12.984375 0.828125 
Q 10.359375 2.34375 9.28125 4.8125 
Q 8.203125 7.28125 8.203125 15.1875 
L 8.203125 45.015625 
L 1.765625 45.015625 
L 1.765625 51.859375 
L 8.203125 51.859375 
L 8.203125 64.703125 
L 16.9375 69.96875 
L 16.9375 51.859375 
L 25.78125 51.859375 
L 25.78125 45.015625 
L 16.9375 45.015625 
L 16.9375 14.703125 
Q 16.9375 10.9375 17.40625 9.859375 
Q 17.875 8.796875 18.921875 8.15625 
Q 19.96875 7.515625 21.921875 7.515625 
Q 23.390625 7.515625 25.78125 7.859375 
z
" id="ArialMT-116"/>
     <path d="M 42.09375 16.703125 
L 51.171875 15.578125 
Q 49.03125 7.625 43.21875 3.21875 
Q 37.40625 -1.171875 28.375 -1.171875 
Q 17 -1.171875 10.328125 5.828125 
Q 3.65625 12.84375 3.65625 25.484375 
Q 3.65625 38.578125 10.390625 45.796875 
Q 17.140625 53.03125 27.875 53.03125 
Q 38.28125 53.03125 44.875 45.953125 
Q 51.46875 38.875 51.46875 26.03125 
Q 51.46875 25.25 51.421875 23.6875 
L 12.75 23.6875 
Q 13.234375 15.140625 17.578125 10.59375 
Q 21.921875 6.0625 28.421875 6.0625 
Q 33.25 6.0625 36.671875 8.59375 
Q 40.09375 11.140625 42.09375 16.703125 
z
M 13.234375 30.90625 
L 42.1875 30.90625 
Q 41.609375 37.453125 38.875 40.71875 
Q 34.671875 45.796875 27.984375 45.796875 
Q 21.921875 45.796875 17.796875 41.75 
Q 13.671875 37.703125 13.234375 30.90625 
z
" id="ArialMT-101"/>
     <path d="M 6.5 0 
L 6.5 51.859375 
L 14.40625 51.859375 
L 14.40625 44 
Q 17.4375 49.515625 20 51.265625 
Q 22.5625 53.03125 25.640625 53.03125 
Q 30.078125 53.03125 34.671875 50.203125 
L 31.640625 42.046875 
Q 28.421875 43.953125 25.203125 43.953125 
Q 22.3125 43.953125 20.015625 42.21875 
Q 17.71875 40.484375 16.75 37.40625 
Q 15.28125 32.71875 15.28125 27.15625 
L 15.28125 0 
z
" id="ArialMT-114"/>
     <path d="M 3.078125 15.484375 
L 11.765625 16.84375 
Q 12.5 11.625 15.84375 8.84375 
Q 19.1875 6.0625 25.203125 6.0625 
Q 31.25 6.0625 34.171875 8.515625 
Q 37.109375 10.984375 37.109375 14.3125 
Q 37.109375 17.28125 34.515625 19 
Q 32.71875 20.171875 25.53125 21.96875 
Q 15.875 24.421875 12.140625 26.203125 
Q 8.40625 27.984375 6.46875 31.125 
Q 4.546875 34.28125 4.546875 38.09375 
Q 4.546875 41.546875 6.125 44.5 
Q 7.71875 47.46875 10.453125 49.421875 
Q 12.5 50.921875 16.03125 51.96875 
Q 19.578125 53.03125 23.640625 53.03125 
Q 29.734375 53.03125 34.34375 51.265625 
Q 38.96875 49.515625 41.15625 46.5 
Q 43.359375 43.5 44.1875 38.484375 
L 35.59375 37.3125 
Q 35.015625 41.3125 32.203125 43.546875 
Q 29.390625 45.796875 24.265625 45.796875 
Q 18.21875 45.796875 15.625 43.796875 
Q 13.03125 41.796875 13.03125 39.109375 
Q 13.03125 37.40625 14.109375 36.03125 
Q 15.1875 34.625 17.484375 33.6875 
Q 18.796875 33.203125 25.25 31.453125 
Q 34.578125 28.953125 38.25 27.359375 
Q 41.9375 25.78125 44.03125 22.75 
Q 46.140625 19.734375 46.140625 15.234375 
Q 46.140625 10.84375 43.578125 6.953125 
Q 41.015625 3.078125 36.171875 0.953125 
Q 31.34375 -1.171875 25.25 -1.171875 
Q 15.140625 -1.171875 9.84375 3.03125 
Q 4.546875 7.234375 3.078125 15.484375 
z
" id="ArialMT-115"/>
     <path d="M 6.59375 -19.875 
L 6.59375 51.859375 
L 14.59375 51.859375 
L 14.59375 45.125 
Q 17.4375 49.078125 21 51.046875 
Q 24.5625 53.03125 29.640625 53.03125 
Q 36.28125 53.03125 41.359375 49.609375 
Q 46.4375 46.1875 49.015625 39.953125 
Q 51.609375 33.734375 51.609375 26.3125 
Q 51.609375 18.359375 48.75 11.984375 
Q 45.90625 5.609375 40.453125 2.21875 
Q 35.015625 -1.171875 29 -1.171875 
Q 24.609375 -1.171875 21.109375 0.6875 
Q 17.625 2.546875 15.375 5.375 
L 15.375 -19.875 
z
M 14.546875 25.640625 
Q 14.546875 15.625 18.59375 10.84375 
Q 22.65625 6.0625 28.421875 6.0625 
Q 34.28125 6.0625 38.453125 11.015625 
Q 42.625 15.96875 42.625 26.375 
Q 42.625 36.28125 38.546875 41.203125 
Q 34.46875 46.140625 28.8125 46.140625 
Q 23.1875 46.140625 18.859375 40.890625 
Q 14.546875 35.640625 14.546875 25.640625 
z
" id="ArialMT-112"/>
     <path d="M 40.234375 0 
L 40.234375 6.546875 
Q 35.296875 -1.171875 25.734375 -1.171875 
Q 19.53125 -1.171875 14.328125 2.25 
Q 9.125 5.671875 6.265625 11.796875 
Q 3.421875 17.921875 3.421875 25.875 
Q 3.421875 33.640625 6 39.96875 
Q 8.59375 46.296875 13.765625 49.65625 
Q 18.953125 53.03125 25.34375 53.03125 
Q 30.03125 53.03125 33.6875 51.046875 
Q 37.359375 49.078125 39.65625 45.90625 
L 39.65625 71.578125 
L 48.390625 71.578125 
L 48.390625 0 
z
M 12.453125 25.875 
Q 12.453125 15.921875 16.640625 10.984375 
Q 20.84375 6.0625 26.5625 6.0625 
Q 32.328125 6.0625 36.34375 10.765625 
Q 40.375 15.484375 40.375 25.140625 
Q 40.375 35.796875 36.265625 40.765625 
Q 32.171875 45.75 26.171875 45.75 
Q 20.3125 45.75 16.375 40.96875 
Q 12.453125 36.1875 12.453125 25.875 
z
" id="ArialMT-100"/>
    </defs>
    <g style="fill:#262626;" transform="translate(261.188437 41.52)scale(0.12 -0.12)">
     <use xlink:href="#ArialMT-87"/>
     <use x="94.337891" xlink:href="#ArialMT-97"/>
     <use x="149.953125" xlink:href="#ArialMT-116"/>
     <use x="177.736328" xlink:href="#ArialMT-101"/>
     <use x="233.351562" xlink:href="#ArialMT-114"/>
     <use x="266.652344" xlink:href="#ArialMT-32"/>
     <use x="294.435547" xlink:href="#ArialMT-115"/>
     <use x="344.435547" xlink:href="#ArialMT-112"/>
     <use x="400.050781" xlink:href="#ArialMT-101"/>
     <use x="455.666016" xlink:href="#ArialMT-101"/>
     <use x="511.28125" xlink:href="#ArialMT-100"/>
    </g>
   </g>
   <g id="legend_1">
    <g id="line2d_34">
     <path d="M 81 60.2075 
L 101 60.2075 
" style="fill:none;stroke:#4c72b0;stroke-linecap:round;stroke-width:1.75;"/>
    </g>
    <g id="line2d_35"/>
    <g id="text_17">
     <!-- dist_pipe0 -->
     <defs>
      <path d="M 6.640625 61.46875 
L 6.640625 71.578125 
L 15.4375 71.578125 
L 15.4375 61.46875 
z
M 6.640625 0 
L 6.640625 51.859375 
L 15.4375 51.859375 
L 15.4375 0 
z
" id="ArialMT-105"/>
      <path d="M -1.515625 -19.875 
L -1.515625 -13.53125 
L 56.734375 -13.53125 
L 56.734375 -19.875 
z
" id="ArialMT-95"/>
     </defs>
     <g style="fill:#262626;" transform="translate(109 63.7075)scale(0.1 -0.1)">
      <use xlink:href="#ArialMT-100"/>
      <use x="55.615234" xlink:href="#ArialMT-105"/>
      <use x="77.832031" xlink:href="#ArialMT-115"/>
      <use x="127.832031" xlink:href="#ArialMT-116"/>
      <use x="155.615234" xlink:href="#ArialMT-95"/>
      <use x="211.230469" xlink:href="#ArialMT-112"/>
      <use x="266.845703" xlink:href="#ArialMT-105"/>
      <use x="289.0625" xlink:href="#ArialMT-112"/>
      <use x="344.677734" xlink:href="#ArialMT-101"/>
      <use x="400.292969" xlink:href="#ArialMT-48"/>
     </g>
    </g>
    <g id="line2d_36">
     <path d="M 81 74.3825 
L 101 74.3825 
" style="fill:none;stroke:#55a868;stroke-linecap:round;stroke-width:1.75;"/>
    </g>
    <g id="line2d_37"/>
    <g id="text_18">
     <!-- dist_pipe2 -->
     <g style="fill:#262626;" transform="translate(109 77.8825)scale(0.1 -0.1)">
      <use xlink:href="#ArialMT-100"/>
      <use x="55.615234" xlink:href="#ArialMT-105"/>
      <use x="77.832031" xlink:href="#ArialMT-115"/>
      <use x="127.832031" xlink:href="#ArialMT-116"/>
      <use x="155.615234" xlink:href="#ArialMT-95"/>
      <use x="211.230469" xlink:href="#ArialMT-112"/>
      <use x="266.845703" xlink:href="#ArialMT-105"/>
      <use x="289.0625" xlink:href="#ArialMT-112"/>
      <use x="344.677734" xlink:href="#ArialMT-101"/>
      <use x="400.292969" xlink:href="#ArialMT-50"/>
     </g>
    </g>
    <g id="line2d_38">
     <path d="M 81 88.5575 
L 101 88.5575 
" style="fill:none;stroke:#c44e52;stroke-linecap:round;stroke-width:1.75;"/>
    </g>
    <g id="line2d_39"/>
    <g id="text_19">
     <!-- dist_pipe1 -->
     <g style="fill:#262626;" transform="translate(109 92.0575)scale(0.1 -0.1)">
      <use xlink:href="#ArialMT-100"/>
      <use x="55.615234" xlink:href="#ArialMT-105"/>
      <use x="77.832031" xlink:href="#ArialMT-115"/>
      <use x="127.832031" xlink:href="#ArialMT-116"/>
      <use x="155.615234" xlink:href="#ArialMT-95"/>
      <use x="211.230469" xlink:href="#ArialMT-112"/>
      <use x="266.845703" xlink:href="#ArialMT-105"/>
      <use x="289.0625" xlink:href="#ArialMT-112"/>
      <use x="344.677734" xlink:href="#ArialMT-101"/>
      <use x="400.292969" xlink:href="#ArialMT-49"/>
     </g>
    </g>
   </g>
  </g>
  <g id="axes_2">
   <g id="patch_7">
    <path d="M 72 352.44 
L 518.4 352.44 
L 518.4 213.84 
L 72 213.84 
z
" style="fill:#eaeaf2;"/>
   </g>
   <g id="matplotlib.axis_3">
    <g id="xtick_10">
     <g id="line2d_40">
      <path clip-path="url(#pd0278c36c2)" d="M 92.290909 352.44 
L 92.290909 213.84 
" style="fill:none;stroke:#ffffff;stroke-linecap:round;"/>
     </g>
     <g id="line2d_41"/>
     <g id="text_20">
      <!-- 01-01 00 -->
      <g style="fill:#262626;" transform="translate(72.55419 366.597813)scale(0.1 -0.1)">
       <use xlink:href="#ArialMT-48"/>
       <use x="55.615234" xlink:href="#ArialMT-49"/>
       <use x="111.230469" xlink:href="#ArialMT-45"/>
       <use x="144.53125" xlink:href="#ArialMT-48"/>
       <use x="200.146484" xlink:href="#ArialMT-49"/>
       <use x="255.761719" xlink:href="#ArialMT-32"/>
       <use x="283.544922" xlink:href="#ArialMT-48"/>
       <use x="339.160156" xlink:href="#ArialMT-48"/>
      </g>
     </g>
    </g>
    <g id="xtick_11">
     <g id="line2d_42">
      <path clip-path="url(#pd0278c36c2)" d="M 143.194932 352.44 
L 143.194932 213.84 
" style="fill:none;stroke:#ffffff;stroke-linecap:round;"/>
     </g>
     <g id="line2d_43"/>
     <g id="text_21">
      <!-- 01-01 03 -->
      <g style="fill:#262626;" transform="translate(123.458213 366.597813)scale(0.1 -0.1)">
       <use xlink:href="#ArialMT-48"/>
       <use x="55.615234" xlink:href="#ArialMT-49"/>
       <use x="111.230469" xlink:href="#ArialMT-45"/>
       <use x="144.53125" xlink:href="#ArialMT-48"/>
       <use x="200.146484" xlink:href="#ArialMT-49"/>
       <use x="255.761719" xlink:href="#ArialMT-32"/>
       <use x="283.544922" xlink:href="#ArialMT-48"/>
       <use x="339.160156" xlink:href="#ArialMT-51"/>
      </g>
     </g>
    </g>
    <g id="xtick_12">
     <g id="line2d_44">
      <path clip-path="url(#pd0278c36c2)" d="M 194.098955 352.44 
L 194.098955 213.84 
" style="fill:none;stroke:#ffffff;stroke-linecap:round;"/>
     </g>
     <g id="line2d_45"/>
     <g id="text_22">
      <!-- 01-01 06 -->
      <g style="fill:#262626;" transform="translate(174.362236 366.597813)scale(0.1 -0.1)">
       <use xlink:href="#ArialMT-48"/>
       <use x="55.615234" xlink:href="#ArialMT-49"/>
       <use x="111.230469" xlink:href="#ArialMT-45"/>
       <use x="144.53125" xlink:href="#ArialMT-48"/>
       <use x="200.146484" xlink:href="#ArialMT-49"/>
       <use x="255.761719" xlink:href="#ArialMT-32"/>
       <use x="283.544922" xlink:href="#ArialMT-48"/>
       <use x="339.160156" xlink:href="#ArialMT-54"/>
      </g>
     </g>
    </g>
    <g id="xtick_13">
     <g id="line2d_46">
      <path clip-path="url(#pd0278c36c2)" d="M 245.002977 352.44 
L 245.002977 213.84 
" style="fill:none;stroke:#ffffff;stroke-linecap:round;"/>
     </g>
     <g id="line2d_47"/>
     <g id="text_23">
      <!-- 01-01 09 -->
      <g style="fill:#262626;" transform="translate(225.266259 366.597813)scale(0.1 -0.1)">
       <use xlink:href="#ArialMT-48"/>
       <use x="55.615234" xlink:href="#ArialMT-49"/>
       <use x="111.230469" xlink:href="#ArialMT-45"/>
       <use x="144.53125" xlink:href="#ArialMT-48"/>
       <use x="200.146484" xlink:href="#ArialMT-49"/>
       <use x="255.761719" xlink:href="#ArialMT-32"/>
       <use x="283.544922" xlink:href="#ArialMT-48"/>
       <use x="339.160156" xlink:href="#ArialMT-57"/>
      </g>
     </g>
    </g>
    <g id="xtick_14">
     <g id="line2d_48">
      <path clip-path="url(#pd0278c36c2)" d="M 295.907 352.44 
L 295.907 213.84 
" style="fill:none;stroke:#ffffff;stroke-linecap:round;"/>
     </g>
     <g id="line2d_49"/>
     <g id="text_24">
      <!-- 01-01 12 -->
      <g style="fill:#262626;" transform="translate(276.170282 366.597813)scale(0.1 -0.1)">
       <use xlink:href="#ArialMT-48"/>
       <use x="55.615234" xlink:href="#ArialMT-49"/>
       <use x="111.230469" xlink:href="#ArialMT-45"/>
       <use x="144.53125" xlink:href="#ArialMT-48"/>
       <use x="200.146484" xlink:href="#ArialMT-49"/>
       <use x="255.761719" xlink:href="#ArialMT-32"/>
       <use x="283.544922" xlink:href="#ArialMT-49"/>
       <use x="339.160156" xlink:href="#ArialMT-50"/>
      </g>
     </g>
    </g>
    <g id="xtick_15">
     <g id="line2d_50">
      <path clip-path="url(#pd0278c36c2)" d="M 346.811023 352.44 
L 346.811023 213.84 
" style="fill:none;stroke:#ffffff;stroke-linecap:round;"/>
     </g>
     <g id="line2d_51"/>
     <g id="text_25">
      <!-- 01-01 15 -->
      <g style="fill:#262626;" transform="translate(327.074304 366.597813)scale(0.1 -0.1)">
       <use xlink:href="#ArialMT-48"/>
       <use x="55.615234" xlink:href="#ArialMT-49"/>
       <use x="111.230469" xlink:href="#ArialMT-45"/>
       <use x="144.53125" xlink:href="#ArialMT-48"/>
       <use x="200.146484" xlink:href="#ArialMT-49"/>
       <use x="255.761719" xlink:href="#ArialMT-32"/>
       <use x="283.544922" xlink:href="#ArialMT-49"/>
       <use x="339.160156" xlink:href="#ArialMT-53"/>
      </g>
     </g>
    </g>
    <g id="xtick_16">
     <g id="line2d_52">
      <path clip-path="url(#pd0278c36c2)" d="M 397.715046 352.44 
L 397.715046 213.84 
" style="fill:none;stroke:#ffffff;stroke-linecap:round;"/>
     </g>
     <g id="line2d_53"/>
     <g id="text_26">
      <!-- 01-01 18 -->
      <g style="fill:#262626;" transform="translate(377.978327 366.597813)scale(0.1 -0.1)">
       <use xlink:href="#ArialMT-48"/>
       <use x="55.615234" xlink:href="#ArialMT-49"/>
       <use x="111.230469" xlink:href="#ArialMT-45"/>
       <use x="144.53125" xlink:href="#ArialMT-48"/>
       <use x="200.146484" xlink:href="#ArialMT-49"/>
       <use x="255.761719" xlink:href="#ArialMT-32"/>
       <use x="283.544922" xlink:href="#ArialMT-49"/>
       <use x="339.160156" xlink:href="#ArialMT-56"/>
      </g>
     </g>
    </g>
    <g id="xtick_17">
     <g id="line2d_54">
      <path clip-path="url(#pd0278c36c2)" d="M 448.619069 352.44 
L 448.619069 213.84 
" style="fill:none;stroke:#ffffff;stroke-linecap:round;"/>
     </g>
     <g id="line2d_55"/>
     <g id="text_27">
      <!-- 01-01 21 -->
      <g style="fill:#262626;" transform="translate(428.88235 366.597813)scale(0.1 -0.1)">
       <use xlink:href="#ArialMT-48"/>
       <use x="55.615234" xlink:href="#ArialMT-49"/>
       <use x="111.230469" xlink:href="#ArialMT-45"/>
       <use x="144.53125" xlink:href="#ArialMT-48"/>
       <use x="200.146484" xlink:href="#ArialMT-49"/>
       <use x="255.761719" xlink:href="#ArialMT-32"/>
       <use x="283.544922" xlink:href="#ArialMT-50"/>
       <use x="339.160156" xlink:href="#ArialMT-49"/>
      </g>
     </g>
    </g>
    <g id="xtick_18">
     <g id="line2d_56">
      <path clip-path="url(#pd0278c36c2)" d="M 499.523091 352.44 
L 499.523091 213.84 
" style="fill:none;stroke:#ffffff;stroke-linecap:round;"/>
     </g>
     <g id="line2d_57"/>
     <g id="text_28">
      <!-- 01-02 00 -->
      <g style="fill:#262626;" transform="translate(479.786373 366.597813)scale(0.1 -0.1)">
       <use xlink:href="#ArialMT-48"/>
       <use x="55.615234" xlink:href="#ArialMT-49"/>
       <use x="111.230469" xlink:href="#ArialMT-45"/>
       <use x="144.53125" xlink:href="#ArialMT-48"/>
       <use x="200.146484" xlink:href="#ArialMT-50"/>
       <use x="255.761719" xlink:href="#ArialMT-32"/>
       <use x="283.544922" xlink:href="#ArialMT-48"/>
       <use x="339.160156" xlink:href="#ArialMT-48"/>
      </g>
     </g>
    </g>
   </g>
   <g id="matplotlib.axis_4">
    <g id="ytick_7">
     <g id="line2d_58">
      <path clip-path="url(#pd0278c36c2)" d="M 72 336.180777 
L 518.4 336.180777 
" style="fill:none;stroke:#ffffff;stroke-linecap:round;"/>
     </g>
     <g id="line2d_59"/>
     <g id="text_29">
      <!-- 0.2 -->
      <g style="fill:#262626;" transform="translate(51.1 339.759683)scale(0.1 -0.1)">
       <use xlink:href="#ArialMT-48"/>
       <use x="55.615234" xlink:href="#ArialMT-46"/>
       <use x="83.398438" xlink:href="#ArialMT-50"/>
      </g>
     </g>
    </g>
    <g id="ytick_8">
     <g id="line2d_60">
      <path clip-path="url(#pd0278c36c2)" d="M 72 307.170582 
L 518.4 307.170582 
" style="fill:none;stroke:#ffffff;stroke-linecap:round;"/>
     </g>
     <g id="line2d_61"/>
     <g id="text_30">
      <!-- 0.4 -->
      <defs>
       <path d="M 32.328125 0 
L 32.328125 17.140625 
L 1.265625 17.140625 
L 1.265625 25.203125 
L 33.9375 71.578125 
L 41.109375 71.578125 
L 41.109375 25.203125 
L 50.78125 25.203125 
L 50.78125 17.140625 
L 41.109375 17.140625 
L 41.109375 0 
z
M 32.328125 25.203125 
L 32.328125 57.46875 
L 9.90625 25.203125 
z
" id="ArialMT-52"/>
      </defs>
      <g style="fill:#262626;" transform="translate(51.1 310.749489)scale(0.1 -0.1)">
       <use xlink:href="#ArialMT-48"/>
       <use x="55.615234" xlink:href="#ArialMT-46"/>
       <use x="83.398438" xlink:href="#ArialMT-52"/>
      </g>
     </g>
    </g>
    <g id="ytick_9">
     <g id="line2d_62">
      <path clip-path="url(#pd0278c36c2)" d="M 72 278.160388 
L 518.4 278.160388 
" style="fill:none;stroke:#ffffff;stroke-linecap:round;"/>
     </g>
     <g id="line2d_63"/>
     <g id="text_31">
      <!-- 0.6 -->
      <g style="fill:#262626;" transform="translate(51.1 281.739295)scale(0.1 -0.1)">
       <use xlink:href="#ArialMT-48"/>
       <use x="55.615234" xlink:href="#ArialMT-46"/>
       <use x="83.398438" xlink:href="#ArialMT-54"/>
      </g>
     </g>
    </g>
    <g id="ytick_10">
     <g id="line2d_64">
      <path clip-path="url(#pd0278c36c2)" d="M 72 249.150194 
L 518.4 249.150194 
" style="fill:none;stroke:#ffffff;stroke-linecap:round;"/>
     </g>
     <g id="line2d_65"/>
     <g id="text_32">
      <!-- 0.8 -->
      <g style="fill:#262626;" transform="translate(51.1 252.7291)scale(0.1 -0.1)">
       <use xlink:href="#ArialMT-48"/>
       <use x="55.615234" xlink:href="#ArialMT-46"/>
       <use x="83.398438" xlink:href="#ArialMT-56"/>
      </g>
     </g>
    </g>
    <g id="ytick_11">
     <g id="line2d_66">
      <path clip-path="url(#pd0278c36c2)" d="M 72 220.14 
L 518.4 220.14 
" style="fill:none;stroke:#ffffff;stroke-linecap:round;"/>
     </g>
     <g id="line2d_67"/>
     <g id="text_33">
      <!-- 1.0 -->
      <g style="fill:#262626;" transform="translate(51.1 223.718906)scale(0.1 -0.1)">
       <use xlink:href="#ArialMT-49"/>
       <use x="55.615234" xlink:href="#ArialMT-46"/>
       <use x="83.398438" xlink:href="#ArialMT-48"/>
      </g>
     </g>
    </g>
   </g>
   <g id="line2d_68">
    <path clip-path="url(#pd0278c36c2)" d="M 92.290909 220.14 
L 498.109091 220.14 
" style="fill:none;stroke:#000000;stroke-dasharray:1.75,2.8875;stroke-dashoffset:0;stroke-width:1.75;"/>
    <defs>
     <path d="M 0 3.5 
C 0.928211 3.5 1.81853 3.131218 2.474874 2.474874 
C 3.131218 1.81853 3.5 0.928211 3.5 0 
C 3.5 -0.928211 3.131218 -1.81853 2.474874 -2.474874 
C 1.81853 -3.131218 0.928211 -3.5 0 -3.5 
C -0.928211 -3.5 -1.81853 -3.131218 -2.474874 -2.474874 
C -3.131218 -1.81853 -3.5 -0.928211 -3.5 0 
C -3.5 0.928211 -3.131218 1.81853 -2.474874 2.474874 
C -1.81853 3.131218 -0.928211 3.5 0 3.5 
z
" id="mbf3c6db95e"/>
    </defs>
    <g clip-path="url(#pd0278c36c2)">
     <use x="92.290909" xlink:href="#mbf3c6db95e" y="220.14"/>
     <use x="498.109091" xlink:href="#mbf3c6db95e" y="220.14"/>
    </g>
   </g>
   <g id="line2d_69">
    <path clip-path="url(#pd0278c36c2)" d="M 92.290909 283.911464 
L 95.11891 283.797409 
L 96.532911 286.303025 
L 99.360912 286.236518 
L 100.774913 287.97328 
L 103.602914 287.938677 
L 105.016915 293.827722 
L 107.844916 293.8066 
L 109.258917 295.333243 
L 112.086918 295.320986 
L 113.500919 297.632367 
L 116.32892 297.623626 
L 117.74292 300.177095 
L 120.570922 300.16956 
L 121.984922 302.32747 
L 124.812924 302.320702 
L 126.226924 302.624085 
L 129.054926 302.61968 
L 130.468926 303.849001 
L 133.296927 303.844706 
L 134.710928 306.940374 
L 137.538929 306.934075 
L 138.95293 308.826494 
L 150.264935 308.882135 
L 151.678936 308.04071 
L 154.506937 308.040334 
L 155.920938 329.635491 
L 158.748939 329.617635 
L 160.162939 326.310521 
L 162.990941 326.298287 
L 164.404941 323.706633 
L 167.232943 323.700116 
L 168.646943 321.282301 
L 171.474945 321.281195 
L 172.888945 315.047789 
L 175.716946 315.057553 
L 177.130947 313.553727 
L 179.958948 313.56396 
L 181.372949 311.346298 
L 184.20095 311.356404 
L 185.614951 309.604588 
L 188.442952 309.613907 
L 189.856953 301.555699 
L 192.684954 301.57607 
L 194.098955 293.718744 
L 196.926956 293.745056 
L 198.340957 284.753903 
L 201.168958 284.783483 
L 202.582959 274.929078 
L 205.41096 274.959415 
L 206.82496 266.637817 
L 209.652962 266.664239 
L 211.066962 258.093485 
L 213.894964 258.115646 
L 215.308964 258.342731 
L 218.136965 258.351157 
L 219.550966 250.463118 
L 222.378967 250.475361 
L 223.792968 244.138533 
L 226.620969 244.149831 
L 228.03497 233.244325 
L 230.862971 233.260631 
L 232.276972 242.65815 
L 235.104973 242.653946 
L 236.518974 241.972821 
L 239.346975 241.971524 
L 240.760976 240.055514 
L 243.588977 240.057404 
L 245.002977 237.886526 
L 247.830979 237.889304 
L 249.244979 239.789713 
L 252.072981 272.677881 
L 253.486981 286.445122 
L 254.900982 294.688113 
L 256.314983 300.632822 
L 257.728983 304.426623 
L 259.142984 307.795844 
L 260.556984 310.384329 
L 261.970985 312.332191 
L 263.384986 313.934085 
L 264.798986 315.214103 
L 266.212987 317.2207 
L 267.626988 318.02954 
L 270.454989 319.417745 
L 273.28299 320.228883 
L 274.696991 320.967467 
L 277.524992 321.41993 
L 278.938993 321.838336 
L 281.766994 322.093136 
L 283.180995 323.492552 
L 287.422996 323.631922 
L 290.250998 323.710449 
L 291.664998 323.562312 
L 294.493 323.607455 
L 295.907 323.790627 
L 297.321001 323.17491 
L 298.735002 322.12562 
L 300.149002 321.622382 
L 301.563003 319.692566 
L 302.977003 317.240046 
L 304.391004 313.997932 
L 305.805005 310.327412 
L 307.219005 306.003654 
L 308.633006 302.851887 
L 311.461007 291.947529 
L 315.703009 275.421429 
L 318.53101 268.09982 
L 319.945011 265.15068 
L 322.773012 261.835025 
L 324.187013 260.704103 
L 325.601014 261.747345 
L 327.015014 261.230519 
L 328.429015 260.881911 
L 329.843015 260.314949 
L 332.671017 260.058431 
L 334.085017 260.700363 
L 336.913019 260.627894 
L 338.327019 260.33162 
L 341.155021 260.311748 
L 342.569021 258.567998 
L 345.397022 258.564563 
L 346.811023 258.39832 
L 349.639024 258.397786 
L 351.053025 259.822855 
L 353.881026 259.821216 
L 355.295027 259.543569 
L 358.123028 259.543227 
L 359.537029 258.936213 
L 362.36503 258.936811 
L 363.779031 259.160492 
L 366.607032 259.160526 
L 368.021033 259.826147 
L 370.849034 259.825249 
L 372.263034 259.111289 
L 375.091036 259.111884 
L 376.505036 259.345328 
L 379.333038 259.345222 
L 380.747038 258.474994 
L 383.57504 258.475758 
L 384.98904 259.191696 
L 387.817041 259.191316 
L 389.231042 258.735629 
L 392.059043 258.735821 
L 393.473044 259.466053 
L 396.301045 259.465291 
L 397.715046 259.31064 
L 400.543047 259.310495 
L 401.957048 258.733561 
L 404.785049 258.734216 
L 406.19905 257.629699 
L 413.269053 257.613332 
L 414.683053 257.386455 
L 417.511055 257.386941 
L 418.925055 258.05947 
L 421.753057 258.059014 
L 423.167057 257.760862 
L 430.23706 257.708243 
L 431.651061 258.118374 
L 434.479062 258.118008 
L 435.893063 258.412475 
L 438.721064 258.411946 
L 440.135065 258.690107 
L 442.963066 258.689508 
L 444.377067 259.077073 
L 447.205068 259.07649 
L 448.619069 258.590967 
L 451.44707 258.591303 
L 452.861071 260.628189 
L 455.689072 260.626203 
L 457.103073 261.067505 
L 459.931074 261.066123 
L 461.345074 269.925657 
L 464.173076 290.656308 
L 465.587076 299.433604 
L 467.001077 304.062091 
L 468.415078 306.345314 
L 469.829078 309.642493 
L 471.243079 309.233698 
L 472.657079 307.981913 
L 474.07108 307.330861 
L 475.485081 304.909977 
L 476.899081 302.029717 
L 478.313082 307.173486 
L 481.141083 301.843681 
L 482.555084 302.875806 
L 485.383085 298.505189 
L 486.797086 304.155872 
L 488.211086 302.835225 
L 489.625087 301.701264 
L 491.039088 303.121112 
L 492.453088 302.383945 
L 493.867089 301.78131 
L 495.28109 308.433161 
L 498.109091 307.853742 
L 498.109091 307.853742 
" style="fill:none;stroke:#4c72b0;stroke-linecap:round;stroke-width:1.75;"/>
   </g>
   <g id="line2d_70">
    <path clip-path="url(#pd0278c36c2)" d="M 92.290909 284.453848 
L 95.11891 284.348244 
L 96.532911 285.487797 
L 99.360912 285.425629 
L 100.774913 287.431493 
L 103.602914 287.400073 
L 105.016915 293.060709 
L 107.844916 293.041967 
L 109.258917 294.534203 
L 112.086918 294.523582 
L 113.500919 296.623232 
L 116.32892 296.615816 
L 117.74292 299.095616 
L 120.570922 299.089104 
L 121.984922 301.103113 
L 129.054926 301.19438 
L 130.468926 301.563169 
L 133.296927 301.560304 
L 134.710928 304.424547 
L 137.538929 304.41944 
L 138.95293 306.710326 
L 141.780931 306.704731 
L 143.194932 306.456149 
L 146.022933 306.452902 
L 147.436934 306.913495 
L 150.264935 306.911286 
L 151.678936 305.731093 
L 154.506937 305.731168 
L 155.920938 328.981937 
L 158.748939 328.964305 
L 160.162939 326.008221 
L 162.990941 325.995786 
L 164.404941 323.034244 
L 167.232943 323.027943 
L 168.646943 320.383531 
L 171.474945 320.382816 
L 172.888945 314.495762 
L 175.716946 314.504747 
L 177.130947 313.266896 
L 179.958948 313.275986 
L 181.372949 310.390437 
L 184.20095 310.400593 
L 185.614951 308.922988 
L 188.442952 308.93155 
L 189.856953 302.42067 
L 192.684954 302.436547 
L 194.098955 295.284184 
L 196.926956 295.305525 
L 198.340957 286.588455 
L 201.168958 286.61372 
L 202.582959 277.03674 
L 205.41096 277.0632 
L 206.82496 270.142746 
L 209.652962 270.16439 
L 211.066962 261.637734 
L 213.894964 261.656984 
L 215.308964 262.620335 
L 218.136965 262.626853 
L 219.550966 255.420259 
L 222.378967 255.430473 
L 223.792968 247.893363 
L 226.620969 247.904414 
L 228.03497 237.593568 
L 230.862971 237.608194 
L 232.276972 246.684401 
L 235.104973 246.680499 
L 236.518974 245.978047 
L 239.346975 245.976868 
L 240.760976 245.00777 
L 243.588977 245.008857 
L 245.002977 242.339853 
L 247.830979 242.342604 
L 249.244979 243.924838 
L 252.072981 276.667198 
L 253.486981 290.515294 
L 254.900982 298.381203 
L 256.314983 304.022593 
L 259.142984 310.577009 
L 260.556984 313.015833 
L 263.384986 316.164913 
L 264.798986 317.362377 
L 266.212987 319.486798 
L 267.626988 320.229256 
L 269.040988 320.834011 
L 270.454989 321.604173 
L 273.28299 322.333782 
L 274.696991 323.328375 
L 280.352993 324.129312 
L 281.766994 324.228733 
L 283.180995 325.589106 
L 286.008996 325.704926 
L 287.422996 325.539308 
L 290.250998 325.604884 
L 291.664998 325.463487 
L 295.907 325.586343 
L 297.321001 324.966542 
L 298.735002 323.914024 
L 300.149002 323.226394 
L 301.563003 321.285137 
L 302.977003 318.818591 
L 304.391004 315.522247 
L 305.805005 311.826147 
L 307.219005 307.474785 
L 308.633006 304.435465 
L 311.461007 293.587521 
L 314.289008 282.386793 
L 315.703009 277.301313 
L 317.11701 274.261788 
L 318.53101 270.81689 
L 319.945011 268.171451 
L 322.773012 265.511909 
L 324.187013 264.575641 
L 325.601014 265.497218 
L 327.015014 265.088249 
L 328.429015 264.81946 
L 329.843015 264.194048 
L 332.671017 264.00824 
L 334.085017 264.935365 
L 336.913019 264.887538 
L 338.327019 264.535911 
L 341.155021 264.524136 
L 342.569021 263.379437 
L 345.397022 263.378078 
L 346.811023 262.721884 
L 349.639024 262.722309 
L 351.053025 263.986999 
L 353.881026 263.985866 
L 355.295027 263.838904 
L 358.123028 263.838607 
L 359.537029 263.320431 
L 362.36503 263.320924 
L 363.779031 263.551882 
L 366.607032 263.551889 
L 368.021033 263.724045 
L 370.849034 263.723583 
L 372.263034 263.568223 
L 375.091036 263.568444 
L 376.505036 263.440011 
L 379.333038 263.4401 
L 380.747038 262.202757 
L 383.57504 262.203802 
L 384.98904 263.08357 
L 387.817041 263.08318 
L 389.231042 262.321339 
L 392.059043 262.321746 
L 393.473044 262.869691 
L 400.543047 262.772704 
L 401.957048 262.365744 
L 404.785049 262.366223 
L 406.19905 261.058277 
L 413.269053 261.094393 
L 414.683053 260.908568 
L 417.511055 260.908972 
L 418.925055 261.815489 
L 421.753057 261.814867 
L 423.167057 261.488449 
L 430.23706 261.502935 
L 431.651061 261.972872 
L 434.479062 261.97247 
L 435.893063 262.13674 
L 442.963066 262.184966 
L 444.377067 262.776374 
L 447.205068 262.775741 
L 448.619069 262.405829 
L 451.44707 262.406028 
L 452.861071 264.559786 
L 455.689072 264.557832 
L 457.103073 264.950096 
L 459.931074 264.948837 
L 461.345074 273.669506 
L 464.173076 294.129276 
L 465.587076 302.458686 
L 467.001077 306.890599 
L 468.415078 309.017091 
L 469.829078 311.866792 
L 471.243079 311.368589 
L 472.657079 310.038872 
L 474.07108 309.104465 
L 475.485081 306.613218 
L 476.899081 303.668378 
L 478.313082 308.240749 
L 481.141083 302.814554 
L 482.555084 303.972619 
L 485.383085 299.64562 
L 486.797086 304.557916 
L 488.211086 303.260928 
L 489.625087 302.162694 
L 491.039088 303.407637 
L 492.453088 302.711067 
L 493.867089 302.151603 
L 495.28109 308.530792 
L 498.109091 308.010167 
L 498.109091 308.010167 
" style="fill:none;stroke:#55a868;stroke-linecap:round;stroke-width:1.75;"/>
   </g>
   <g id="line2d_71">
    <path clip-path="url(#pd0278c36c2)" d="M 92.290909 316.119231 
L 95.11891 316.02952 
L 96.532911 321.200798 
L 99.360912 321.150083 
L 100.774913 321.437586 
L 103.602914 321.408691 
L 105.016915 325.47689 
L 107.844916 325.458068 
L 109.258917 326.445429 
L 112.086918 326.433819 
L 113.500919 328.361546 
L 116.32892 328.352837 
L 117.74292 330.048011 
L 120.570922 330.040825 
L 121.984922 331.694767 
L 124.812924 331.688338 
L 126.226924 332.415513 
L 129.054926 332.410723 
L 130.468926 335.46387 
L 133.296927 335.457479 
L 134.710928 337.897923 
L 141.780931 337.914082 
L 143.194932 338.226906 
L 146.022933 338.223276 
L 147.436934 337.559019 
L 150.264935 337.557488 
L 151.678936 337.983224 
L 154.506937 337.98178 
L 155.920938 346.14 
L 158.748939 346.128935 
L 160.162939 343.240367 
L 162.990941 343.233748 
L 164.404941 342.718846 
L 167.232943 342.714442 
L 168.646943 341.912836 
L 171.474945 341.911129 
L 172.888945 337.32147 
L 175.716946 337.329302 
L 177.130947 335.727439 
L 179.958948 335.736533 
L 181.372949 336.248637 
L 184.20095 336.25442 
L 185.614951 334.484989 
L 188.442952 334.492503 
L 189.856953 325.57789 
L 192.684954 325.602003 
L 194.098955 319.088982 
L 196.926956 319.11787 
L 198.340957 313.109089 
L 201.168958 313.138111 
L 202.582959 306.61471 
L 205.41096 306.642989 
L 206.82496 297.970479 
L 209.652962 297.998908 
L 211.066962 292.8599 
L 213.894964 292.880772 
L 215.308964 291.017492 
L 218.136965 291.027601 
L 219.550966 284.560356 
L 222.378967 284.573027 
L 223.792968 284.116258 
L 226.620969 284.123544 
L 228.03497 276.124432 
L 230.862971 276.138539 
L 232.276972 282.513358 
L 235.104973 282.510079 
L 236.518974 282.169004 
L 239.346975 282.167925 
L 240.760976 278.478414 
L 247.830979 278.562619 
L 249.244979 280.538272 
L 250.65898 289.920175 
L 252.072981 300.194484 
L 253.486981 308.038011 
L 254.900982 313.887901 
L 256.314983 318.191806 
L 257.728983 321.574037 
L 259.142984 324.036952 
L 261.970985 327.925604 
L 263.384986 329.123952 
L 266.212987 330.95312 
L 269.040988 332.14836 
L 273.28299 333.151924 
L 274.696991 332.890344 
L 277.524992 333.312271 
L 278.938993 333.916979 
L 281.766994 334.160488 
L 283.180995 335.085909 
L 286.008996 335.224048 
L 287.422996 335.68043 
L 290.250998 335.761536 
L 291.664998 335.656504 
L 294.493 335.705977 
L 295.907 336.07615 
L 297.321001 335.726632 
L 298.735002 335.120869 
L 300.149002 335.326102 
L 301.563003 334.22693 
L 302.977003 332.828645 
L 304.391004 331.076946 
L 305.805005 328.996671 
L 307.219005 326.539314 
L 308.633006 324.388606 
L 310.047007 321.278306 
L 311.461007 317.84954 
L 312.875008 314.823285 
L 317.11701 303.984093 
L 318.53101 300.962852 
L 319.945011 298.41226 
L 321.359012 296.28339 
L 322.773012 294.691506 
L 324.187013 293.50141 
L 325.601014 294.442256 
L 327.015014 293.847139 
L 328.429015 293.426564 
L 332.671017 292.911053 
L 334.085017 292.513743 
L 339.74102 292.360972 
L 341.155021 292.347466 
L 342.569021 289.702008 
L 345.397022 289.694367 
L 346.811023 290.925435 
L 349.639024 290.92252 
L 351.053025 292.191951 
L 353.881026 292.18962 
L 355.295027 291.672685 
L 358.123028 291.672363 
L 359.537029 291.075997 
L 366.607032 291.187991 
L 368.021033 292.915764 
L 370.849034 292.914055 
L 372.263034 290.981373 
L 375.091036 290.982733 
L 376.505036 292.100624 
L 379.333038 292.100032 
L 380.747038 292.58576 
L 387.817041 292.560339 
L 389.231042 293.123555 
L 392.059043 293.123088 
L 393.473044 294.044986 
L 396.301045 294.043833 
L 397.715046 293.795242 
L 400.543047 293.795079 
L 401.957048 292.996341 
L 409.027051 292.902704 
L 410.441052 292.749472 
L 413.269053 292.750026 
L 414.683053 292.505847 
L 417.511055 292.506356 
L 418.925055 292.265799 
L 425.995059 292.168166 
L 427.409059 291.954977 
L 434.479062 292.03317 
L 435.893063 292.558632 
L 438.721064 292.557983 
L 440.135065 293.342276 
L 442.963066 293.341247 
L 444.377067 293.015535 
L 447.205068 293.015332 
L 448.619069 292.417524 
L 451.44707 292.418092 
L 452.861071 293.294108 
L 455.689072 293.292861 
L 457.103073 293.684266 
L 459.931074 293.683123 
L 461.345074 299.248201 
L 465.587076 318.478286 
L 467.001077 321.721924 
L 468.415078 323.484042 
L 469.829078 326.628295 
L 471.243079 326.6313 
L 472.657079 326.109498 
L 474.07108 326.496484 
L 475.485081 325.269475 
L 476.899081 323.757759 
L 478.313082 328.31945 
L 481.141083 325.459408 
L 482.555084 325.722402 
L 485.383085 323.044498 
L 486.797086 328.355831 
L 489.625087 326.757282 
L 491.039088 328.063037 
L 493.867089 327.051261 
L 495.28109 331.686183 
L 498.109091 331.187434 
L 498.109091 331.187434 
" style="fill:none;stroke:#c44e52;stroke-linecap:round;stroke-width:1.75;"/>
   </g>
   <g id="patch_8">
    <path d="M 72 352.44 
L 72 213.84 
" style="fill:none;"/>
   </g>
   <g id="patch_9">
    <path d="M 518.4 352.44 
L 518.4 213.84 
" style="fill:none;"/>
   </g>
   <g id="patch_10">
    <path d="M 72 352.44 
L 518.4 352.44 
" style="fill:none;"/>
   </g>
   <g id="patch_11">
    <path d="M 72 213.84 
L 518.4 213.84 
" style="fill:none;"/>
   </g>
   <g id="text_34">
    <!-- Courant numbers -->
    <defs>
     <path d="M 58.796875 25.09375 
L 68.265625 22.703125 
Q 65.28125 11.03125 57.546875 4.90625 
Q 49.8125 -1.21875 38.625 -1.21875 
Q 27.046875 -1.21875 19.796875 3.484375 
Q 12.546875 8.203125 8.765625 17.140625 
Q 4.984375 26.078125 4.984375 36.328125 
Q 4.984375 47.515625 9.25 55.828125 
Q 13.53125 64.15625 21.40625 68.46875 
Q 29.296875 72.796875 38.765625 72.796875 
Q 49.515625 72.796875 56.828125 67.328125 
Q 64.15625 61.859375 67.046875 51.953125 
L 57.71875 49.75 
Q 55.21875 57.5625 50.484375 61.125 
Q 45.75 64.703125 38.578125 64.703125 
Q 30.328125 64.703125 24.78125 60.734375 
Q 19.234375 56.78125 16.984375 50.109375 
Q 14.75 43.453125 14.75 36.375 
Q 14.75 27.25 17.40625 20.4375 
Q 20.0625 13.625 25.671875 10.25 
Q 31.296875 6.890625 37.84375 6.890625 
Q 45.796875 6.890625 51.3125 11.46875 
Q 56.84375 16.0625 58.796875 25.09375 
z
" id="ArialMT-67"/>
     <path d="M 3.328125 25.921875 
Q 3.328125 40.328125 11.328125 47.265625 
Q 18.015625 53.03125 27.640625 53.03125 
Q 38.328125 53.03125 45.109375 46.015625 
Q 51.90625 39.015625 51.90625 26.65625 
Q 51.90625 16.65625 48.90625 10.90625 
Q 45.90625 5.171875 40.15625 2 
Q 34.421875 -1.171875 27.640625 -1.171875 
Q 16.75 -1.171875 10.03125 5.8125 
Q 3.328125 12.796875 3.328125 25.921875 
z
M 12.359375 25.921875 
Q 12.359375 15.96875 16.703125 11.015625 
Q 21.046875 6.0625 27.640625 6.0625 
Q 34.1875 6.0625 38.53125 11.03125 
Q 42.875 16.015625 42.875 26.21875 
Q 42.875 35.84375 38.5 40.796875 
Q 34.125 45.75 27.640625 45.75 
Q 21.046875 45.75 16.703125 40.8125 
Q 12.359375 35.890625 12.359375 25.921875 
z
" id="ArialMT-111"/>
     <path d="M 40.578125 0 
L 40.578125 7.625 
Q 34.515625 -1.171875 24.125 -1.171875 
Q 19.53125 -1.171875 15.546875 0.578125 
Q 11.578125 2.34375 9.640625 5 
Q 7.71875 7.671875 6.9375 11.53125 
Q 6.390625 14.109375 6.390625 19.734375 
L 6.390625 51.859375 
L 15.1875 51.859375 
L 15.1875 23.09375 
Q 15.1875 16.21875 15.71875 13.8125 
Q 16.546875 10.359375 19.234375 8.375 
Q 21.921875 6.390625 25.875 6.390625 
Q 29.828125 6.390625 33.296875 8.421875 
Q 36.765625 10.453125 38.203125 13.9375 
Q 39.65625 17.4375 39.65625 24.078125 
L 39.65625 51.859375 
L 48.4375 51.859375 
L 48.4375 0 
z
" id="ArialMT-117"/>
     <path d="M 6.59375 0 
L 6.59375 51.859375 
L 14.5 51.859375 
L 14.5 44.484375 
Q 20.21875 53.03125 31 53.03125 
Q 35.6875 53.03125 39.625 51.34375 
Q 43.5625 49.65625 45.515625 46.921875 
Q 47.46875 44.1875 48.25 40.4375 
Q 48.734375 37.984375 48.734375 31.890625 
L 48.734375 0 
L 39.9375 0 
L 39.9375 31.546875 
Q 39.9375 36.921875 38.90625 39.578125 
Q 37.890625 42.234375 35.28125 43.8125 
Q 32.671875 45.40625 29.15625 45.40625 
Q 23.53125 45.40625 19.453125 41.84375 
Q 15.375 38.28125 15.375 28.328125 
L 15.375 0 
z
" id="ArialMT-110"/>
     <path d="M 6.59375 0 
L 6.59375 51.859375 
L 14.453125 51.859375 
L 14.453125 44.578125 
Q 16.890625 48.390625 20.9375 50.703125 
Q 25 53.03125 30.171875 53.03125 
Q 35.9375 53.03125 39.625 50.640625 
Q 43.3125 48.25 44.828125 43.953125 
Q 50.984375 53.03125 60.84375 53.03125 
Q 68.5625 53.03125 72.703125 48.75 
Q 76.859375 44.484375 76.859375 35.59375 
L 76.859375 0 
L 68.109375 0 
L 68.109375 32.671875 
Q 68.109375 37.9375 67.25 40.25 
Q 66.40625 42.578125 64.15625 43.984375 
Q 61.921875 45.40625 58.890625 45.40625 
Q 53.421875 45.40625 49.796875 41.765625 
Q 46.1875 38.140625 46.1875 30.125 
L 46.1875 0 
L 37.40625 0 
L 37.40625 33.6875 
Q 37.40625 39.546875 35.25 42.46875 
Q 33.109375 45.40625 28.21875 45.40625 
Q 24.515625 45.40625 21.359375 43.453125 
Q 18.21875 41.5 16.796875 37.734375 
Q 15.375 33.984375 15.375 26.90625 
L 15.375 0 
z
" id="ArialMT-109"/>
     <path d="M 14.703125 0 
L 6.546875 0 
L 6.546875 71.578125 
L 15.328125 71.578125 
L 15.328125 46.046875 
Q 20.90625 53.03125 29.546875 53.03125 
Q 34.328125 53.03125 38.59375 51.09375 
Q 42.875 49.171875 45.625 45.671875 
Q 48.390625 42.1875 49.953125 37.25 
Q 51.515625 32.328125 51.515625 26.703125 
Q 51.515625 13.375 44.921875 6.09375 
Q 38.328125 -1.171875 29.109375 -1.171875 
Q 19.921875 -1.171875 14.703125 6.5 
z
M 14.59375 26.3125 
Q 14.59375 17 17.140625 12.84375 
Q 21.296875 6.0625 28.375 6.0625 
Q 34.125 6.0625 38.328125 11.0625 
Q 42.53125 16.0625 42.53125 25.984375 
Q 42.53125 36.140625 38.5 40.96875 
Q 34.46875 45.796875 28.765625 45.796875 
Q 23 45.796875 18.796875 40.796875 
Q 14.59375 35.796875 14.59375 26.3125 
z
" id="ArialMT-98"/>
    </defs>
    <g style="fill:#262626;" transform="translate(248.847187 207.84)scale(0.12 -0.12)">
     <use xlink:href="#ArialMT-67"/>
     <use x="72.216797" xlink:href="#ArialMT-111"/>
     <use x="127.832031" xlink:href="#ArialMT-117"/>
     <use x="183.447266" xlink:href="#ArialMT-114"/>
     <use x="216.748047" xlink:href="#ArialMT-97"/>
     <use x="272.363281" xlink:href="#ArialMT-110"/>
     <use x="327.978516" xlink:href="#ArialMT-116"/>
     <use x="355.761719" xlink:href="#ArialMT-32"/>
     <use x="383.544922" xlink:href="#ArialMT-110"/>
     <use x="439.160156" xlink:href="#ArialMT-117"/>
     <use x="494.775391" xlink:href="#ArialMT-109"/>
     <use x="578.076172" xlink:href="#ArialMT-98"/>
     <use x="633.691406" xlink:href="#ArialMT-101"/>
     <use x="689.306641" xlink:href="#ArialMT-114"/>
     <use x="722.607422" xlink:href="#ArialMT-115"/>
    </g>
   </g>
  </g>
  <g id="text_35">
   <!-- Horizon: 24.0h, Time step: 300, Neighbourhoods: 2, case: cost -->
   <defs>
    <path d="M 8.015625 0 
L 8.015625 71.578125 
L 17.484375 71.578125 
L 17.484375 42.1875 
L 54.6875 42.1875 
L 54.6875 71.578125 
L 64.15625 71.578125 
L 64.15625 0 
L 54.6875 0 
L 54.6875 33.734375 
L 17.484375 33.734375 
L 17.484375 0 
z
" id="ArialMT-72"/>
    <path d="M 1.953125 0 
L 1.953125 7.125 
L 34.96875 45.015625 
Q 29.34375 44.734375 25.046875 44.734375 
L 3.90625 44.734375 
L 3.90625 51.859375 
L 46.296875 51.859375 
L 46.296875 46.046875 
L 18.21875 13.140625 
L 12.796875 7.125 
Q 18.703125 7.5625 23.875 7.5625 
L 47.859375 7.5625 
L 47.859375 0 
z
" id="ArialMT-122"/>
    <path d="M 9.03125 41.84375 
L 9.03125 51.859375 
L 19.046875 51.859375 
L 19.046875 41.84375 
z
M 9.03125 0 
L 9.03125 10.015625 
L 19.046875 10.015625 
L 19.046875 0 
z
" id="ArialMT-58"/>
    <path d="M 6.59375 0 
L 6.59375 71.578125 
L 15.375 71.578125 
L 15.375 45.90625 
Q 21.53125 53.03125 30.90625 53.03125 
Q 36.671875 53.03125 40.921875 50.75 
Q 45.171875 48.484375 47 44.484375 
Q 48.828125 40.484375 48.828125 32.859375 
L 48.828125 0 
L 40.046875 0 
L 40.046875 32.859375 
Q 40.046875 39.453125 37.1875 42.453125 
Q 34.328125 45.453125 29.109375 45.453125 
Q 25.203125 45.453125 21.75 43.421875 
Q 18.3125 41.40625 16.84375 37.9375 
Q 15.375 34.46875 15.375 28.375 
L 15.375 0 
z
" id="ArialMT-104"/>
    <path d="M 8.890625 0 
L 8.890625 10.015625 
L 18.890625 10.015625 
L 18.890625 0 
Q 18.890625 -5.515625 16.9375 -8.90625 
Q 14.984375 -12.3125 10.75 -14.15625 
L 8.296875 -10.40625 
Q 11.078125 -9.1875 12.390625 -6.8125 
Q 13.71875 -4.4375 13.875 0 
z
" id="ArialMT-44"/>
    <path d="M 25.921875 0 
L 25.921875 63.140625 
L 2.34375 63.140625 
L 2.34375 71.578125 
L 59.078125 71.578125 
L 59.078125 63.140625 
L 35.40625 63.140625 
L 35.40625 0 
z
" id="ArialMT-84"/>
    <path d="M 7.625 0 
L 7.625 71.578125 
L 17.328125 71.578125 
L 54.9375 15.375 
L 54.9375 71.578125 
L 64.015625 71.578125 
L 64.015625 0 
L 54.296875 0 
L 16.703125 56.25 
L 16.703125 0 
z
" id="ArialMT-78"/>
    <path d="M 4.984375 -4.296875 
L 13.53125 -5.5625 
Q 14.0625 -9.515625 16.5 -11.328125 
Q 19.78125 -13.765625 25.4375 -13.765625 
Q 31.546875 -13.765625 34.859375 -11.328125 
Q 38.1875 -8.890625 39.359375 -4.5 
Q 40.046875 -1.8125 39.984375 6.78125 
Q 34.234375 0 25.640625 0 
Q 14.9375 0 9.078125 7.71875 
Q 3.21875 15.4375 3.21875 26.21875 
Q 3.21875 33.640625 5.90625 39.90625 
Q 8.59375 46.1875 13.6875 49.609375 
Q 18.796875 53.03125 25.6875 53.03125 
Q 34.859375 53.03125 40.828125 45.609375 
L 40.828125 51.859375 
L 48.921875 51.859375 
L 48.921875 7.03125 
Q 48.921875 -5.078125 46.453125 -10.125 
Q 44 -15.1875 38.640625 -18.109375 
Q 33.296875 -21.046875 25.484375 -21.046875 
Q 16.21875 -21.046875 10.5 -16.875 
Q 4.78125 -12.703125 4.984375 -4.296875 
z
M 12.25 26.859375 
Q 12.25 16.65625 16.296875 11.96875 
Q 20.359375 7.28125 26.46875 7.28125 
Q 32.515625 7.28125 36.609375 11.9375 
Q 40.71875 16.609375 40.71875 26.5625 
Q 40.71875 36.078125 36.5 40.90625 
Q 32.28125 45.75 26.3125 45.75 
Q 20.453125 45.75 16.34375 40.984375 
Q 12.25 36.234375 12.25 26.859375 
z
" id="ArialMT-103"/>
    <path d="M 40.4375 19 
L 49.078125 17.875 
Q 47.65625 8.9375 41.8125 3.875 
Q 35.984375 -1.171875 27.484375 -1.171875 
Q 16.84375 -1.171875 10.375 5.78125 
Q 3.90625 12.75 3.90625 25.734375 
Q 3.90625 34.125 6.6875 40.421875 
Q 9.46875 46.734375 15.15625 49.875 
Q 20.84375 53.03125 27.546875 53.03125 
Q 35.984375 53.03125 41.359375 48.75 
Q 46.734375 44.484375 48.25 36.625 
L 39.703125 35.296875 
Q 38.484375 40.53125 35.375 43.15625 
Q 32.28125 45.796875 27.875 45.796875 
Q 21.234375 45.796875 17.078125 41.03125 
Q 12.9375 36.28125 12.9375 25.984375 
Q 12.9375 15.53125 16.9375 10.796875 
Q 20.953125 6.0625 27.390625 6.0625 
Q 32.5625 6.0625 36.03125 9.234375 
Q 39.5 12.40625 40.4375 19 
z
" id="ArialMT-99"/>
   </defs>
   <g style="fill:#262626;" transform="translate(121.589063 16.545)scale(0.12 -0.12)">
    <use xlink:href="#ArialMT-72"/>
    <use x="72.216797" xlink:href="#ArialMT-111"/>
    <use x="127.832031" xlink:href="#ArialMT-114"/>
    <use x="161.132812" xlink:href="#ArialMT-105"/>
    <use x="183.349609" xlink:href="#ArialMT-122"/>
    <use x="233.349609" xlink:href="#ArialMT-111"/>
    <use x="288.964844" xlink:href="#ArialMT-110"/>
    <use x="344.580078" xlink:href="#ArialMT-58"/>
    <use x="372.363281" xlink:href="#ArialMT-32"/>
    <use x="400.146484" xlink:href="#ArialMT-50"/>
    <use x="455.761719" xlink:href="#ArialMT-52"/>
    <use x="511.376953" xlink:href="#ArialMT-46"/>
    <use x="539.160156" xlink:href="#ArialMT-48"/>
    <use x="594.775391" xlink:href="#ArialMT-104"/>
    <use x="650.390625" xlink:href="#ArialMT-44"/>
    <use x="678.173828" xlink:href="#ArialMT-32"/>
    <use x="705.941406" xlink:href="#ArialMT-84"/>
    <use x="766.978516" xlink:href="#ArialMT-105"/>
    <use x="789.195312" xlink:href="#ArialMT-109"/>
    <use x="872.496094" xlink:href="#ArialMT-101"/>
    <use x="928.111328" xlink:href="#ArialMT-32"/>
    <use x="955.894531" xlink:href="#ArialMT-115"/>
    <use x="1005.894531" xlink:href="#ArialMT-116"/>
    <use x="1033.677734" xlink:href="#ArialMT-101"/>
    <use x="1089.292969" xlink:href="#ArialMT-112"/>
    <use x="1144.908203" xlink:href="#ArialMT-58"/>
    <use x="1172.691406" xlink:href="#ArialMT-32"/>
    <use x="1200.474609" xlink:href="#ArialMT-51"/>
    <use x="1256.089844" xlink:href="#ArialMT-48"/>
    <use x="1311.705078" xlink:href="#ArialMT-48"/>
    <use x="1367.320312" xlink:href="#ArialMT-44"/>
    <use x="1395.103516" xlink:href="#ArialMT-32"/>
    <use x="1422.886719" xlink:href="#ArialMT-78"/>
    <use x="1495.103516" xlink:href="#ArialMT-101"/>
    <use x="1550.71875" xlink:href="#ArialMT-105"/>
    <use x="1572.935547" xlink:href="#ArialMT-103"/>
    <use x="1628.550781" xlink:href="#ArialMT-104"/>
    <use x="1684.166016" xlink:href="#ArialMT-98"/>
    <use x="1739.78125" xlink:href="#ArialMT-111"/>
    <use x="1795.396484" xlink:href="#ArialMT-117"/>
    <use x="1851.011719" xlink:href="#ArialMT-114"/>
    <use x="1884.3125" xlink:href="#ArialMT-104"/>
    <use x="1939.927734" xlink:href="#ArialMT-111"/>
    <use x="1995.542969" xlink:href="#ArialMT-111"/>
    <use x="2051.158203" xlink:href="#ArialMT-100"/>
    <use x="2106.773438" xlink:href="#ArialMT-115"/>
    <use x="2156.773438" xlink:href="#ArialMT-58"/>
    <use x="2184.556641" xlink:href="#ArialMT-32"/>
    <use x="2212.339844" xlink:href="#ArialMT-50"/>
    <use x="2267.955078" xlink:href="#ArialMT-44"/>
    <use x="2295.738281" xlink:href="#ArialMT-32"/>
    <use x="2323.521484" xlink:href="#ArialMT-99"/>
    <use x="2373.521484" xlink:href="#ArialMT-97"/>
    <use x="2429.136719" xlink:href="#ArialMT-115"/>
    <use x="2479.136719" xlink:href="#ArialMT-101"/>
    <use x="2534.751953" xlink:href="#ArialMT-58"/>
    <use x="2562.535156" xlink:href="#ArialMT-32"/>
    <use x="2590.318359" xlink:href="#ArialMT-99"/>
    <use x="2640.318359" xlink:href="#ArialMT-111"/>
    <use x="2695.933594" xlink:href="#ArialMT-115"/>
    <use x="2745.933594" xlink:href="#ArialMT-116"/>
   </g>
  </g>
 </g>
 <defs>
  <clipPath id="p04b47f0d7e">
   <rect height="138.6" width="446.4" x="72" y="47.52"/>
  </clipPath>
  <clipPath id="pd0278c36c2">
   <rect height="138.6" width="446.4" x="72" y="213.84"/>
  </clipPath>
 </defs>
</svg>
