<?xml version="1.0" encoding="utf-8" standalone="no"?>
<!DOCTYPE svg PUBLIC "-//W3C//DTD SVG 1.1//EN"
  "http://www.w3.org/Graphics/SVG/1.1/DTD/svg11.dtd">
<!-- Created with matplotlib (https://matplotlib.org/) -->
<svg height="396pt" version="1.1" viewBox="0 0 576 396" width="576pt" xmlns="http://www.w3.org/2000/svg" xmlns:xlink="http://www.w3.org/1999/xlink">
 <defs>
  <style type="text/css">
*{stroke-linecap:butt;stroke-linejoin:round;}
  </style>
 </defs>
 <g id="figure_1">
  <g id="patch_1">
   <path d="M 0 396 
L 576 396 
L 576 0 
L 0 0 
z
" style="fill:#ffffff;"/>
  </g>
  <g id="axes_1">
   <g id="patch_2">
    <path d="M 72 352.44 
L 518.4 352.44 
L 518.4 47.52 
L 72 47.52 
z
" style="fill:#eaeaf2;"/>
   </g>
   <g id="matplotlib.axis_1">
    <g id="xtick_1">
     <g id="line2d_1">
      <path clip-path="url(#p4a4c45c356)" d="M 92.290909 352.44 
L 92.290909 47.52 
" style="fill:none;stroke:#ffffff;stroke-linecap:round;"/>
     </g>
     <g id="line2d_2"/>
     <g id="text_1">
      <!-- 01-01 00 -->
      <defs>
       <path d="M 4.15625 35.296875 
Q 4.15625 48 6.765625 55.734375 
Q 9.375 63.484375 14.515625 67.671875 
Q 19.671875 71.875 27.484375 71.875 
Q 33.25 71.875 37.59375 69.546875 
Q 41.9375 67.234375 44.765625 62.859375 
Q 47.609375 58.5 49.21875 52.21875 
Q 50.828125 45.953125 50.828125 35.296875 
Q 50.828125 22.703125 48.234375 14.96875 
Q 45.65625 7.234375 40.5 3 
Q 35.359375 -1.21875 27.484375 -1.21875 
Q 17.140625 -1.21875 11.234375 6.203125 
Q 4.15625 15.140625 4.15625 35.296875 
z
M 13.1875 35.296875 
Q 13.1875 17.671875 17.3125 11.828125 
Q 21.4375 6 27.484375 6 
Q 33.546875 6 37.671875 11.859375 
Q 41.796875 17.71875 41.796875 35.296875 
Q 41.796875 52.984375 37.671875 58.78125 
Q 33.546875 64.59375 27.390625 64.59375 
Q 21.34375 64.59375 17.71875 59.46875 
Q 13.1875 52.9375 13.1875 35.296875 
z
" id="ArialMT-48"/>
       <path d="M 37.25 0 
L 28.46875 0 
L 28.46875 56 
Q 25.296875 52.984375 20.140625 49.953125 
Q 14.984375 46.921875 10.890625 45.40625 
L 10.890625 53.90625 
Q 18.265625 57.375 23.78125 62.296875 
Q 29.296875 67.234375 31.59375 71.875 
L 37.25 71.875 
z
" id="ArialMT-49"/>
       <path d="M 3.171875 21.484375 
L 3.171875 30.328125 
L 30.171875 30.328125 
L 30.171875 21.484375 
z
" id="ArialMT-45"/>
       <path id="ArialMT-32"/>
      </defs>
      <g style="fill:#262626;" transform="translate(72.55419 366.597813)scale(0.1 -0.1)">
       <use xlink:href="#ArialMT-48"/>
       <use x="55.615234" xlink:href="#ArialMT-49"/>
       <use x="111.230469" xlink:href="#ArialMT-45"/>
       <use x="144.53125" xlink:href="#ArialMT-48"/>
       <use x="200.146484" xlink:href="#ArialMT-49"/>
       <use x="255.761719" xlink:href="#ArialMT-32"/>
       <use x="283.544922" xlink:href="#ArialMT-48"/>
       <use x="339.160156" xlink:href="#ArialMT-48"/>
      </g>
     </g>
    </g>
    <g id="xtick_2">
     <g id="line2d_3">
      <path clip-path="url(#p4a4c45c356)" d="M 143.106403 352.44 
L 143.106403 47.52 
" style="fill:none;stroke:#ffffff;stroke-linecap:round;"/>
     </g>
     <g id="line2d_4"/>
     <g id="text_2">
      <!-- 01-01 06 -->
      <defs>
       <path d="M 49.75 54.046875 
L 41.015625 53.375 
Q 39.84375 58.546875 37.703125 60.890625 
Q 34.125 64.65625 28.90625 64.65625 
Q 24.703125 64.65625 21.53125 62.3125 
Q 17.390625 59.28125 14.984375 53.46875 
Q 12.59375 47.65625 12.5 36.921875 
Q 15.671875 41.75 20.265625 44.09375 
Q 24.859375 46.4375 29.890625 46.4375 
Q 38.671875 46.4375 44.84375 39.96875 
Q 51.03125 33.5 51.03125 23.25 
Q 51.03125 16.5 48.125 10.71875 
Q 45.21875 4.9375 40.140625 1.859375 
Q 35.0625 -1.21875 28.609375 -1.21875 
Q 17.625 -1.21875 10.6875 6.859375 
Q 3.765625 14.9375 3.765625 33.5 
Q 3.765625 54.25 11.421875 63.671875 
Q 18.109375 71.875 29.4375 71.875 
Q 37.890625 71.875 43.28125 67.140625 
Q 48.6875 62.40625 49.75 54.046875 
z
M 13.875 23.1875 
Q 13.875 18.65625 15.796875 14.5 
Q 17.71875 10.359375 21.1875 8.171875 
Q 24.65625 6 28.46875 6 
Q 34.03125 6 38.03125 10.484375 
Q 42.046875 14.984375 42.046875 22.703125 
Q 42.046875 30.125 38.078125 34.390625 
Q 34.125 38.671875 28.125 38.671875 
Q 22.171875 38.671875 18.015625 34.390625 
Q 13.875 30.125 13.875 23.1875 
z
" id="ArialMT-54"/>
      </defs>
      <g style="fill:#262626;" transform="translate(123.369684 366.597813)scale(0.1 -0.1)">
       <use xlink:href="#ArialMT-48"/>
       <use x="55.615234" xlink:href="#ArialMT-49"/>
       <use x="111.230469" xlink:href="#ArialMT-45"/>
       <use x="144.53125" xlink:href="#ArialMT-48"/>
       <use x="200.146484" xlink:href="#ArialMT-49"/>
       <use x="255.761719" xlink:href="#ArialMT-32"/>
       <use x="283.544922" xlink:href="#ArialMT-48"/>
       <use x="339.160156" xlink:href="#ArialMT-54"/>
      </g>
     </g>
    </g>
    <g id="xtick_3">
     <g id="line2d_5">
      <path clip-path="url(#p4a4c45c356)" d="M 193.921897 352.44 
L 193.921897 47.52 
" style="fill:none;stroke:#ffffff;stroke-linecap:round;"/>
     </g>
     <g id="line2d_6"/>
     <g id="text_3">
      <!-- 01-01 12 -->
      <defs>
       <path d="M 50.34375 8.453125 
L 50.34375 0 
L 3.03125 0 
Q 2.9375 3.171875 4.046875 6.109375 
Q 5.859375 10.9375 9.828125 15.625 
Q 13.8125 20.3125 21.34375 26.46875 
Q 33.015625 36.03125 37.109375 41.625 
Q 41.21875 47.21875 41.21875 52.203125 
Q 41.21875 57.421875 37.46875 61 
Q 33.734375 64.59375 27.734375 64.59375 
Q 21.390625 64.59375 17.578125 60.78125 
Q 13.765625 56.984375 13.71875 50.25 
L 4.6875 51.171875 
Q 5.609375 61.28125 11.65625 66.578125 
Q 17.71875 71.875 27.9375 71.875 
Q 38.234375 71.875 44.234375 66.15625 
Q 50.25 60.453125 50.25 52 
Q 50.25 47.703125 48.484375 43.546875 
Q 46.734375 39.40625 42.65625 34.8125 
Q 38.578125 30.21875 29.109375 22.21875 
Q 21.1875 15.578125 18.9375 13.203125 
Q 16.703125 10.84375 15.234375 8.453125 
z
" id="ArialMT-50"/>
      </defs>
      <g style="fill:#262626;" transform="translate(174.185178 366.597813)scale(0.1 -0.1)">
       <use xlink:href="#ArialMT-48"/>
       <use x="55.615234" xlink:href="#ArialMT-49"/>
       <use x="111.230469" xlink:href="#ArialMT-45"/>
       <use x="144.53125" xlink:href="#ArialMT-48"/>
       <use x="200.146484" xlink:href="#ArialMT-49"/>
       <use x="255.761719" xlink:href="#ArialMT-32"/>
       <use x="283.544922" xlink:href="#ArialMT-49"/>
       <use x="339.160156" xlink:href="#ArialMT-50"/>
      </g>
     </g>
    </g>
    <g id="xtick_4">
     <g id="line2d_7">
      <path clip-path="url(#p4a4c45c356)" d="M 244.737391 352.44 
L 244.737391 47.52 
" style="fill:none;stroke:#ffffff;stroke-linecap:round;"/>
     </g>
     <g id="line2d_8"/>
     <g id="text_4">
      <!-- 01-01 18 -->
      <defs>
       <path d="M 17.671875 38.8125 
Q 12.203125 40.828125 9.5625 44.53125 
Q 6.9375 48.25 6.9375 53.421875 
Q 6.9375 61.234375 12.546875 66.546875 
Q 18.171875 71.875 27.484375 71.875 
Q 36.859375 71.875 42.578125 66.421875 
Q 48.296875 60.984375 48.296875 53.171875 
Q 48.296875 48.1875 45.671875 44.5 
Q 43.0625 40.828125 37.75 38.8125 
Q 44.34375 36.671875 47.78125 31.875 
Q 51.21875 27.09375 51.21875 20.453125 
Q 51.21875 11.28125 44.71875 5.03125 
Q 38.234375 -1.21875 27.640625 -1.21875 
Q 17.046875 -1.21875 10.546875 5.046875 
Q 4.046875 11.328125 4.046875 20.703125 
Q 4.046875 27.6875 7.59375 32.390625 
Q 11.140625 37.109375 17.671875 38.8125 
z
M 15.921875 53.71875 
Q 15.921875 48.640625 19.1875 45.40625 
Q 22.46875 42.1875 27.6875 42.1875 
Q 32.765625 42.1875 36.015625 45.375 
Q 39.265625 48.578125 39.265625 53.21875 
Q 39.265625 58.0625 35.90625 61.359375 
Q 32.5625 64.65625 27.59375 64.65625 
Q 22.5625 64.65625 19.234375 61.421875 
Q 15.921875 58.203125 15.921875 53.71875 
z
M 13.09375 20.65625 
Q 13.09375 16.890625 14.875 13.375 
Q 16.65625 9.859375 20.171875 7.921875 
Q 23.6875 6 27.734375 6 
Q 34.03125 6 38.125 10.046875 
Q 42.234375 14.109375 42.234375 20.359375 
Q 42.234375 26.703125 38.015625 30.859375 
Q 33.796875 35.015625 27.4375 35.015625 
Q 21.234375 35.015625 17.15625 30.90625 
Q 13.09375 26.8125 13.09375 20.65625 
z
" id="ArialMT-56"/>
      </defs>
      <g style="fill:#262626;" transform="translate(225.000673 366.597813)scale(0.1 -0.1)">
       <use xlink:href="#ArialMT-48"/>
       <use x="55.615234" xlink:href="#ArialMT-49"/>
       <use x="111.230469" xlink:href="#ArialMT-45"/>
       <use x="144.53125" xlink:href="#ArialMT-48"/>
       <use x="200.146484" xlink:href="#ArialMT-49"/>
       <use x="255.761719" xlink:href="#ArialMT-32"/>
       <use x="283.544922" xlink:href="#ArialMT-49"/>
       <use x="339.160156" xlink:href="#ArialMT-56"/>
      </g>
     </g>
    </g>
    <g id="xtick_5">
     <g id="line2d_9">
      <path clip-path="url(#p4a4c45c356)" d="M 295.552885 352.44 
L 295.552885 47.52 
" style="fill:none;stroke:#ffffff;stroke-linecap:round;"/>
     </g>
     <g id="line2d_10"/>
     <g id="text_5">
      <!-- 01-02 00 -->
      <g style="fill:#262626;" transform="translate(275.816167 366.597813)scale(0.1 -0.1)">
       <use xlink:href="#ArialMT-48"/>
       <use x="55.615234" xlink:href="#ArialMT-49"/>
       <use x="111.230469" xlink:href="#ArialMT-45"/>
       <use x="144.53125" xlink:href="#ArialMT-48"/>
       <use x="200.146484" xlink:href="#ArialMT-50"/>
       <use x="255.761719" xlink:href="#ArialMT-32"/>
       <use x="283.544922" xlink:href="#ArialMT-48"/>
       <use x="339.160156" xlink:href="#ArialMT-48"/>
      </g>
     </g>
    </g>
    <g id="xtick_6">
     <g id="line2d_11">
      <path clip-path="url(#p4a4c45c356)" d="M 346.368379 352.44 
L 346.368379 47.52 
" style="fill:none;stroke:#ffffff;stroke-linecap:round;"/>
     </g>
     <g id="line2d_12"/>
     <g id="text_6">
      <!-- 01-02 06 -->
      <g style="fill:#262626;" transform="translate(326.631661 366.597813)scale(0.1 -0.1)">
       <use xlink:href="#ArialMT-48"/>
       <use x="55.615234" xlink:href="#ArialMT-49"/>
       <use x="111.230469" xlink:href="#ArialMT-45"/>
       <use x="144.53125" xlink:href="#ArialMT-48"/>
       <use x="200.146484" xlink:href="#ArialMT-50"/>
       <use x="255.761719" xlink:href="#ArialMT-32"/>
       <use x="283.544922" xlink:href="#ArialMT-48"/>
       <use x="339.160156" xlink:href="#ArialMT-54"/>
      </g>
     </g>
    </g>
    <g id="xtick_7">
     <g id="line2d_13">
      <path clip-path="url(#p4a4c45c356)" d="M 397.183874 352.44 
L 397.183874 47.52 
" style="fill:none;stroke:#ffffff;stroke-linecap:round;"/>
     </g>
     <g id="line2d_14"/>
     <g id="text_7">
      <!-- 01-02 12 -->
      <g style="fill:#262626;" transform="translate(377.447155 366.597813)scale(0.1 -0.1)">
       <use xlink:href="#ArialMT-48"/>
       <use x="55.615234" xlink:href="#ArialMT-49"/>
       <use x="111.230469" xlink:href="#ArialMT-45"/>
       <use x="144.53125" xlink:href="#ArialMT-48"/>
       <use x="200.146484" xlink:href="#ArialMT-50"/>
       <use x="255.761719" xlink:href="#ArialMT-32"/>
       <use x="283.544922" xlink:href="#ArialMT-49"/>
       <use x="339.160156" xlink:href="#ArialMT-50"/>
      </g>
     </g>
    </g>
    <g id="xtick_8">
     <g id="line2d_15">
      <path clip-path="url(#p4a4c45c356)" d="M 447.999368 352.44 
L 447.999368 47.52 
" style="fill:none;stroke:#ffffff;stroke-linecap:round;"/>
     </g>
     <g id="line2d_16"/>
     <g id="text_8">
      <!-- 01-02 18 -->
      <g style="fill:#262626;" transform="translate(428.262649 366.597813)scale(0.1 -0.1)">
       <use xlink:href="#ArialMT-48"/>
       <use x="55.615234" xlink:href="#ArialMT-49"/>
       <use x="111.230469" xlink:href="#ArialMT-45"/>
       <use x="144.53125" xlink:href="#ArialMT-48"/>
       <use x="200.146484" xlink:href="#ArialMT-50"/>
       <use x="255.761719" xlink:href="#ArialMT-32"/>
       <use x="283.544922" xlink:href="#ArialMT-49"/>
       <use x="339.160156" xlink:href="#ArialMT-56"/>
      </g>
     </g>
    </g>
    <g id="xtick_9">
     <g id="line2d_17">
      <path clip-path="url(#p4a4c45c356)" d="M 498.814862 352.44 
L 498.814862 47.52 
" style="fill:none;stroke:#ffffff;stroke-linecap:round;"/>
     </g>
     <g id="line2d_18"/>
     <g id="text_9">
      <!-- 01-03 00 -->
      <defs>
       <path d="M 4.203125 18.890625 
L 12.984375 20.0625 
Q 14.5 12.59375 18.140625 9.296875 
Q 21.78125 6 27 6 
Q 33.203125 6 37.46875 10.296875 
Q 41.75 14.59375 41.75 20.953125 
Q 41.75 27 37.796875 30.921875 
Q 33.84375 34.859375 27.734375 34.859375 
Q 25.25 34.859375 21.53125 33.890625 
L 22.515625 41.609375 
Q 23.390625 41.5 23.921875 41.5 
Q 29.546875 41.5 34.03125 44.421875 
Q 38.53125 47.359375 38.53125 53.46875 
Q 38.53125 58.296875 35.25 61.46875 
Q 31.984375 64.65625 26.8125 64.65625 
Q 21.6875 64.65625 18.265625 61.421875 
Q 14.84375 58.203125 13.875 51.765625 
L 5.078125 53.328125 
Q 6.6875 62.15625 12.390625 67.015625 
Q 18.109375 71.875 26.609375 71.875 
Q 32.46875 71.875 37.390625 69.359375 
Q 42.328125 66.84375 44.9375 62.5 
Q 47.5625 58.15625 47.5625 53.265625 
Q 47.5625 48.640625 45.0625 44.828125 
Q 42.578125 41.015625 37.703125 38.765625 
Q 44.046875 37.3125 47.5625 32.6875 
Q 51.078125 28.078125 51.078125 21.140625 
Q 51.078125 11.765625 44.234375 5.25 
Q 37.40625 -1.265625 26.953125 -1.265625 
Q 17.53125 -1.265625 11.296875 4.34375 
Q 5.078125 9.96875 4.203125 18.890625 
z
" id="ArialMT-51"/>
      </defs>
      <g style="fill:#262626;" transform="translate(479.078143 366.597813)scale(0.1 -0.1)">
       <use xlink:href="#ArialMT-48"/>
       <use x="55.615234" xlink:href="#ArialMT-49"/>
       <use x="111.230469" xlink:href="#ArialMT-45"/>
       <use x="144.53125" xlink:href="#ArialMT-48"/>
       <use x="200.146484" xlink:href="#ArialMT-51"/>
       <use x="255.761719" xlink:href="#ArialMT-32"/>
       <use x="283.544922" xlink:href="#ArialMT-48"/>
       <use x="339.160156" xlink:href="#ArialMT-48"/>
      </g>
     </g>
    </g>
   </g>
   <g id="matplotlib.axis_2">
    <g id="ytick_1">
     <g id="line2d_19">
      <path clip-path="url(#p4a4c45c356)" d="M 72 339.707881 
L 518.4 339.707881 
" style="fill:none;stroke:#ffffff;stroke-linecap:round;"/>
     </g>
     <g id="line2d_20"/>
     <g id="text_10">
      <!-- 35 -->
      <defs>
       <path d="M 4.15625 18.75 
L 13.375 19.53125 
Q 14.40625 12.796875 18.140625 9.390625 
Q 21.875 6 27.15625 6 
Q 33.5 6 37.890625 10.78125 
Q 42.28125 15.578125 42.28125 23.484375 
Q 42.28125 31 38.0625 35.34375 
Q 33.84375 39.703125 27 39.703125 
Q 22.75 39.703125 19.328125 37.765625 
Q 15.921875 35.84375 13.96875 32.765625 
L 5.71875 33.84375 
L 12.640625 70.609375 
L 48.25 70.609375 
L 48.25 62.203125 
L 19.671875 62.203125 
L 15.828125 42.96875 
Q 22.265625 47.46875 29.34375 47.46875 
Q 38.71875 47.46875 45.15625 40.96875 
Q 51.609375 34.46875 51.609375 24.265625 
Q 51.609375 14.546875 45.953125 7.46875 
Q 39.0625 -1.21875 27.15625 -1.21875 
Q 17.390625 -1.21875 11.203125 4.25 
Q 5.03125 9.71875 4.15625 18.75 
z
" id="ArialMT-53"/>
      </defs>
      <g style="fill:#262626;" transform="translate(53.878125 343.286787)scale(0.1 -0.1)">
       <use xlink:href="#ArialMT-51"/>
       <use x="55.615234" xlink:href="#ArialMT-53"/>
      </g>
     </g>
    </g>
    <g id="ytick_2">
     <g id="line2d_21">
      <path clip-path="url(#p4a4c45c356)" d="M 72 296.21915 
L 518.4 296.21915 
" style="fill:none;stroke:#ffffff;stroke-linecap:round;"/>
     </g>
     <g id="line2d_22"/>
     <g id="text_11">
      <!-- 40 -->
      <defs>
       <path d="M 32.328125 0 
L 32.328125 17.140625 
L 1.265625 17.140625 
L 1.265625 25.203125 
L 33.9375 71.578125 
L 41.109375 71.578125 
L 41.109375 25.203125 
L 50.78125 25.203125 
L 50.78125 17.140625 
L 41.109375 17.140625 
L 41.109375 0 
z
M 32.328125 25.203125 
L 32.328125 57.46875 
L 9.90625 25.203125 
z
" id="ArialMT-52"/>
      </defs>
      <g style="fill:#262626;" transform="translate(53.878125 299.798056)scale(0.1 -0.1)">
       <use xlink:href="#ArialMT-52"/>
       <use x="55.615234" xlink:href="#ArialMT-48"/>
      </g>
     </g>
    </g>
    <g id="ytick_3">
     <g id="line2d_23">
      <path clip-path="url(#p4a4c45c356)" d="M 72 252.730418 
L 518.4 252.730418 
" style="fill:none;stroke:#ffffff;stroke-linecap:round;"/>
     </g>
     <g id="line2d_24"/>
     <g id="text_12">
      <!-- 45 -->
      <g style="fill:#262626;" transform="translate(53.878125 256.309324)scale(0.1 -0.1)">
       <use xlink:href="#ArialMT-52"/>
       <use x="55.615234" xlink:href="#ArialMT-53"/>
      </g>
     </g>
    </g>
    <g id="ytick_4">
     <g id="line2d_25">
      <path clip-path="url(#p4a4c45c356)" d="M 72 209.241687 
L 518.4 209.241687 
" style="fill:none;stroke:#ffffff;stroke-linecap:round;"/>
     </g>
     <g id="line2d_26"/>
     <g id="text_13">
      <!-- 50 -->
      <g style="fill:#262626;" transform="translate(53.878125 212.820593)scale(0.1 -0.1)">
       <use xlink:href="#ArialMT-53"/>
       <use x="55.615234" xlink:href="#ArialMT-48"/>
      </g>
     </g>
    </g>
    <g id="ytick_5">
     <g id="line2d_27">
      <path clip-path="url(#p4a4c45c356)" d="M 72 165.752955 
L 518.4 165.752955 
" style="fill:none;stroke:#ffffff;stroke-linecap:round;"/>
     </g>
     <g id="line2d_28"/>
     <g id="text_14">
      <!-- 55 -->
      <g style="fill:#262626;" transform="translate(53.878125 169.331862)scale(0.1 -0.1)">
       <use xlink:href="#ArialMT-53"/>
       <use x="55.615234" xlink:href="#ArialMT-53"/>
      </g>
     </g>
    </g>
    <g id="ytick_6">
     <g id="line2d_29">
      <path clip-path="url(#p4a4c45c356)" d="M 72 122.264224 
L 518.4 122.264224 
" style="fill:none;stroke:#ffffff;stroke-linecap:round;"/>
     </g>
     <g id="line2d_30"/>
     <g id="text_15">
      <!-- 60 -->
      <g style="fill:#262626;" transform="translate(53.878125 125.84313)scale(0.1 -0.1)">
       <use xlink:href="#ArialMT-54"/>
       <use x="55.615234" xlink:href="#ArialMT-48"/>
      </g>
     </g>
    </g>
    <g id="ytick_7">
     <g id="line2d_31">
      <path clip-path="url(#p4a4c45c356)" d="M 72 78.775493 
L 518.4 78.775493 
" style="fill:none;stroke:#ffffff;stroke-linecap:round;"/>
     </g>
     <g id="line2d_32"/>
     <g id="text_16">
      <!-- 65 -->
      <g style="fill:#262626;" transform="translate(53.878125 82.354399)scale(0.1 -0.1)">
       <use xlink:href="#ArialMT-54"/>
       <use x="55.615234" xlink:href="#ArialMT-53"/>
      </g>
     </g>
    </g>
   </g>
   <g id="line2d_33">
    <path clip-path="url(#p4a4c45c356)" d="M 92.290909 148.357131 
L 294.847115 148.357131 
L 295.552885 61.38 
L 498.109091 61.38 
L 498.109091 61.38 
" style="fill:none;stroke:#1f77b4;stroke-linecap:round;stroke-width:1.75;"/>
   </g>
   <g id="line2d_34">
    <path clip-path="url(#p4a4c45c356)" d="M 92.290909 322.312388 
L 94.408221 322.647677 
L 108.523636 325.53912 
L 112.05249 325.97945 
L 116.287115 326.416399 
L 121.22751 326.979979 
L 124.756364 327.261598 
L 126.167905 327.616536 
L 131.814071 329.34239 
L 133.225613 329.494747 
L 135.342925 329.403033 
L 137.460237 329.080458 
L 140.989091 328.339561 
L 143.106403 327.654109 
L 145.223715 326.632176 
L 147.341028 325.302951 
L 151.575652 322.432426 
L 152.987194 321.580303 
L 154.398735 321.000362 
L 157.221818 320.130283 
L 160.044901 319.000679 
L 161.456443 318.324977 
L 162.162213 318.174362 
L 163.573755 318.166826 
L 167.102609 318.30861 
L 169.219921 318.186866 
L 171.337233 318.087333 
L 173.454545 318.20917 
L 175.571858 318.352972 
L 181.218024 318.51227 
L 194.627668 319.346709 
L 197.450751 319.524219 
L 212.271937 320.461914 
L 217.212332 320.554534 
L 224.270039 320.449226 
L 233.445059 320.457895 
L 252.50087 320.258201 
L 258.147036 320.243893 
L 272.262451 320.380895 
L 277.202846 320.687879 
L 282.849012 321.457436 
L 284.966324 321.844781 
L 287.083636 322.536997 
L 295.552885 325.592528 
L 297.670198 326.398573 
L 299.78751 327.44953 
L 308.256759 332.234651 
L 310.374071 333.13192 
L 313.197154 334.072057 
L 316.020237 334.756389 
L 318.84332 335.202982 
L 323.783715 335.711479 
L 332.958735 336.475432 
L 336.487589 336.812767 
L 339.310672 336.843084 
L 342.839526 336.576569 
L 345.662609 336.169141 
L 348.485692 335.450619 
L 350.603004 334.683691 
L 358.366482 331.495265 
L 365.42419 329.461858 
L 367.541502 329.249172 
L 378.833834 328.845945 
L 387.303083 328.830825 
L 421.88585 329.234085 
L 427.532016 329.154685 
L 455.057075 328.921778 
L 461.409012 328.912406 
L 476.935968 329.066947 
L 481.876364 329.335722 
L 488.2283 329.973321 
L 491.051383 330.555413 
L 498.109091 332.191488 
L 498.109091 332.191488 
" style="fill:none;stroke:#1f77b4;stroke-dasharray:6.475,2.8;stroke-dashoffset:0;stroke-width:1.75;"/>
   </g>
   <g id="line2d_35">
    <path clip-path="url(#p4a4c45c356)" d="M 92.290909 148.357463 
L 95.113992 148.683309 
L 99.348617 148.880705 
L 109.229407 149.012593 
L 125.462134 149.215939 
L 131.1083 149.336334 
L 136.754466 149.23731 
L 166.396838 148.707584 
L 215.80079 148.772009 
L 287.789407 148.87996 
L 294.847115 149.022274 
L 295.552885 147.059814 
L 296.258656 142.978184 
L 297.670198 130.888441 
L 300.493281 104.841048 
L 301.904822 94.544907 
L 303.316364 86.496545 
L 304.727905 80.311626 
L 306.139447 75.661807 
L 307.550988 72.205082 
L 308.96253 69.608896 
L 310.374071 67.734364 
L 311.785613 66.387001 
L 313.197154 65.382204 
L 314.608696 64.648596 
L 316.020237 64.117456 
L 318.137549 63.589353 
L 320.960632 63.245856 
L 325.195257 63.009472 
L 327.312569 63.003263 
L 332.252964 63.19239 
L 336.487589 63.167111 
L 344.956838 62.830922 
L 352.014545 62.386474 
L 356.954941 62.163842 
L 369.658814 61.991517 
L 403.53581 61.986012 
L 445.882055 61.98672 
L 489.639842 62.092344 
L 498.109091 62.284554 
L 498.109091 62.284554 
" style="fill:none;stroke:#ff7f0e;stroke-linecap:round;stroke-width:1.75;"/>
   </g>
   <g id="line2d_36">
    <path clip-path="url(#p4a4c45c356)" d="M 92.290909 322.519492 
L 93.702451 322.480746 
L 94.408221 322.63922 
L 95.819763 322.616159 
L 96.525534 322.909504 
L 97.937075 322.897615 
L 98.642846 323.760294 
L 100.054387 323.752776 
L 100.760158 323.985288 
L 102.1717 323.980958 
L 102.87747 324.313983 
L 104.289012 324.310889 
L 104.994783 324.711709 
L 106.406324 324.708915 
L 107.112095 325.04024 
L 112.758261 325.111971 
L 113.464032 325.595172 
L 114.875573 325.59284 
L 115.581344 325.987513 
L 121.22751 326.018289 
L 121.933281 325.813076 
L 123.344822 325.813111 
L 124.050593 330.309916 
L 125.462134 330.298486 
L 126.167905 329.660978 
L 127.579447 329.653301 
L 128.285217 329.036668 
L 129.696759 329.032955 
L 130.40253 328.499714 
L 131.814071 328.49931 
L 132.519842 327.364878 
L 133.931383 327.369553 
L 134.637154 327.140613 
L 136.048696 327.145264 
L 136.754466 326.619859 
L 138.166008 326.624861 
L 138.871779 326.3618 
L 140.28332 326.365937 
L 140.989091 325.242236 
L 142.400632 325.249322 
L 143.106403 324.083415 
L 144.517945 324.0922 
L 145.223715 322.754763 
L 146.635257 322.764264 
L 147.341028 321.386406 
L 148.752569 321.395492 
L 149.45834 320.45254 
L 150.869881 320.459532 
L 151.575652 319.350224 
L 152.987194 319.356019 
L 153.692964 319.479801 
L 155.104506 319.481779 
L 155.810277 318.580093 
L 157.221818 318.583021 
L 157.927589 317.677502 
L 159.33913 317.680497 
L 160.044901 316.497641 
L 161.456443 316.501329 
L 162.162213 317.54039 
L 165.691067 317.456719 
L 166.396838 317.343937 
L 167.808379 317.344226 
L 168.51415 317.036571 
L 169.925692 317.037288 
L 170.631462 317.219302 
L 172.043004 317.219108 
L 172.748775 317.66904 
L 174.160316 317.668099 
L 174.866087 317.455046 
L 178.394941 317.378021 
L 179.100711 317.759661 
L 182.629565 317.852799 
L 183.335336 318.107159 
L 186.86419 318.155609 
L 187.56996 318.619652 
L 191.098814 318.541138 
L 192.510356 318.480292 
L 193.216126 318.480309 
L 193.921897 318.601611 
L 195.333439 318.60132 
L 196.039209 318.872825 
L 199.568063 318.802042 
L 200.273834 319.214195 
L 203.802688 319.231789 
L 204.508458 319.418286 
L 208.037312 319.50177 
L 208.743083 319.702775 
L 216.506561 319.724798 
L 217.212332 319.577807 
L 235.562372 319.586544 
L 236.268142 319.428276 
L 237.679684 319.428592 
L 238.385455 319.541061 
L 248.266245 319.449292 
L 248.972016 319.283097 
L 260.970119 319.339908 
L 262.38166 319.399576 
L 271.55668 319.45446 
L 272.262451 319.731009 
L 275.791304 319.780638 
L 276.497075 320.273851 
L 280.025929 320.377878 
L 280.7317 320.932857 
L 282.143241 320.931008 
L 282.849012 321.169922 
L 284.260553 321.168393 
L 284.966324 322.706513 
L 286.377866 322.701813 
L 287.083636 323.394754 
L 288.495178 323.390469 
L 289.200949 324.552009 
L 290.61249 324.546522 
L 291.318261 324.912462 
L 292.729802 324.908213 
L 293.435573 326.089099 
L 294.847115 326.083359 
L 295.552885 326.471009 
L 296.258656 327.165895 
L 299.081739 330.591407 
L 299.78751 331.000664 
L 301.904822 332.684868 
L 304.022134 333.545678 
L 306.845217 334.278349 
L 308.96253 334.463834 
L 309.6683 334.520069 
L 310.374071 334.815779 
L 311.785613 334.885126 
L 313.197154 334.839688 
L 316.020237 334.824512 
L 318.137549 334.808728 
L 318.84332 335.161514 
L 322.372174 335.088698 
L 326.606798 334.850794 
L 327.312569 337.095676 
L 328.724111 337.093076 
L 329.429881 336.726625 
L 330.841423 336.724664 
L 331.547194 336.317281 
L 332.958735 336.316244 
L 333.664506 335.941487 
L 335.076047 335.941471 
L 335.781818 335.280279 
L 337.19336 335.282126 
L 337.89913 335.0768 
L 339.310672 335.079064 
L 340.016443 334.726608 
L 341.427984 334.729405 
L 342.133755 334.512488 
L 343.545296 334.515222 
L 344.251067 333.826755 
L 345.662609 333.830798 
L 346.368379 333.080049 
L 347.779921 333.085139 
L 348.485692 332.214016 
L 349.897233 332.219827 
L 350.603004 331.330598 
L 352.014545 331.336465 
L 352.720316 330.678672 
L 354.131858 330.683628 
L 354.837628 329.929496 
L 358.366482 329.935287 
L 359.072253 329.259111 
L 360.483794 329.261355 
L 361.189565 328.620892 
L 362.601107 328.623028 
L 363.306877 327.891171 
L 364.718419 327.893412 
L 365.42419 328.479226 
L 366.835731 328.479299 
L 367.541502 328.310431 
L 368.953043 328.310622 
L 369.658814 328.151528 
L 371.070356 328.151905 
L 371.776126 327.941843 
L 375.30498 327.94585 
L 376.010751 328.185741 
L 377.422292 328.185506 
L 378.128063 327.962151 
L 383.774229 328.047932 
L 387.303083 328.145927 
L 390.126166 328.137631 
L 390.831937 328.354208 
L 392.243478 328.353869 
L 392.949249 328.154015 
L 402.83004 328.192378 
L 403.53581 328.380023 
L 411.299289 328.433337 
L 412.71083 328.539068 
L 419.768538 328.492698 
L 420.474308 328.359349 
L 436.707036 328.33824 
L 438.118577 328.246339 
L 451.528221 328.15072 
L 452.939763 328.048292 
L 464.232095 328.151954 
L 469.17249 328.202553 
L 474.818656 328.219213 
L 475.524427 328.416611 
L 479.053281 328.457576 
L 479.759051 328.803298 
L 483.287905 328.912388 
L 483.993676 329.219041 
L 485.405217 329.218257 
L 486.110988 329.389594 
L 487.52253 329.388872 
L 488.2283 330.419764 
L 489.639842 330.417767 
L 490.345613 330.893696 
L 491.757154 330.891788 
L 492.462925 331.581865 
L 493.874466 331.579617 
L 494.580237 331.830241 
L 495.991779 331.828431 
L 496.697549 332.495023 
L 498.109091 332.492844 
L 498.109091 332.492844 
" style="fill:none;stroke:#ff7f0e;stroke-dasharray:6.475,2.8;stroke-dashoffset:0;stroke-width:1.75;"/>
   </g>
   <g id="line2d_37">
    <path clip-path="url(#p4a4c45c356)" d="M 92.290909 148.357463 
L 95.113992 148.843802 
L 98.642846 149.140344 
L 104.289012 149.351117 
L 119.815968 149.697251 
L 124.756364 149.821383 
L 128.285217 149.962754 
L 132.519842 149.989078 
L 143.106403 149.535155 
L 150.869881 149.06978 
L 155.810277 148.943278 
L 165.691067 148.871983 
L 181.923794 148.874233 
L 284.260553 149.036536 
L 294.847115 149.38497 
L 295.552885 148.045789 
L 296.258656 145.116786 
L 297.670198 136.004039 
L 301.904822 104.706584 
L 303.316364 96.645719 
L 304.727905 90.144611 
L 306.139447 84.876573 
L 307.550988 80.647219 
L 308.96253 77.172276 
L 310.374071 74.46025 
L 311.785613 72.345695 
L 313.197154 70.65196 
L 314.608696 69.323513 
L 316.020237 68.280827 
L 318.137549 67.208938 
L 320.254862 66.458561 
L 323.077945 65.705258 
L 325.901028 65.164739 
L 327.312569 65.057449 
L 331.547194 64.948677 
L 336.487589 64.648328 
L 345.662609 63.766208 
L 349.191462 63.270845 
L 356.24917 62.584161 
L 361.895336 62.370143 
L 373.187668 62.248804 
L 430.355099 62.26135 
L 485.405217 62.340646 
L 493.874466 62.600057 
L 498.109091 62.76464 
L 498.109091 62.76464 
" style="fill:none;stroke:#2ca02c;stroke-linecap:round;stroke-width:1.75;"/>
   </g>
   <g id="line2d_38">
    <path clip-path="url(#p4a4c45c356)" d="M 92.290909 326.869024 
L 93.702451 326.820188 
L 94.408221 327.866212 
L 97.937075 327.872524 
L 98.642846 328.745999 
L 100.054387 328.734102 
L 100.760158 328.950384 
L 102.1717 328.942919 
L 102.87747 329.376509 
L 104.289012 329.370718 
L 104.994783 329.760674 
L 106.406324 329.755747 
L 107.112095 330.144472 
L 108.523636 330.139927 
L 109.229407 330.312863 
L 110.640949 330.309429 
L 111.346719 331.058178 
L 112.758261 331.053315 
L 113.464032 331.674262 
L 123.344822 331.682334 
L 124.050593 333.939455 
L 125.462134 333.928711 
L 126.167905 333.091965 
L 127.579447 333.085972 
L 128.285217 332.939618 
L 129.696759 332.935677 
L 130.40253 332.711864 
L 131.814071 332.710365 
L 132.519842 331.486093 
L 133.931383 331.49231 
L 134.637154 331.086008 
L 136.048696 331.09299 
L 136.754466 331.224463 
L 138.166008 331.228948 
L 138.871779 330.786863 
L 140.28332 330.792485 
L 140.989091 328.709688 
L 142.400632 328.725024 
L 143.106403 327.339564 
L 144.517945 327.356121 
L 145.223715 326.160735 
L 146.635257 326.175981 
L 147.341028 324.954189 
L 148.752569 324.967813 
L 149.45834 323.447829 
L 150.869881 323.460167 
L 151.575652 322.610103 
L 152.987194 322.618656 
L 153.692964 322.319376 
L 155.104506 322.323437 
L 155.810277 321.311715 
L 159.33913 321.250491 
L 160.044901 320.064809 
L 161.456443 320.0697 
L 162.162213 321.010683 
L 165.691067 320.957484 
L 166.396838 320.409561 
L 169.925692 320.423194 
L 170.631462 320.715102 
L 176.277628 320.731646 
L 176.983399 320.894921 
L 182.629565 320.857998 
L 183.335336 320.634833 
L 184.746877 320.634998 
L 185.452648 320.825352 
L 186.86419 320.824859 
L 187.56996 321.189004 
L 188.981502 321.18761 
L 189.687273 321.366577 
L 193.216126 321.304255 
L 193.921897 321.528464 
L 195.333439 321.527836 
L 196.039209 321.978151 
L 199.568063 321.965897 
L 200.273834 322.164213 
L 201.685375 322.163223 
L 202.391146 322.309337 
L 208.037312 322.266198 
L 208.743083 322.563524 
L 216.506561 322.532956 
L 217.212332 322.110198 
L 218.623874 322.111374 
L 219.329644 322.308398 
L 220.741186 322.308433 
L 221.446957 322.512928 
L 224.97581 322.42876 
L 226.387352 322.333058 
L 229.210435 322.351137 
L 229.916206 322.630366 
L 231.327747 322.629669 
L 232.033518 322.317455 
L 233.445059 322.318002 
L 234.15083 322.498061 
L 239.796996 322.572206 
L 241.208538 322.663656 
L 241.914308 322.663584 
L 242.620079 322.814297 
L 246.148933 322.772909 
L 246.854704 322.642486 
L 254.618182 322.563764 
L 257.441265 322.509037 
L 265.204743 322.572129 
L 265.910514 322.699702 
L 269.439368 322.646012 
L 270.850909 322.54903 
L 271.55668 322.549128 
L 272.262451 322.691565 
L 275.791304 322.754411 
L 276.497075 323.210987 
L 277.908617 323.209199 
L 278.614387 323.456978 
L 280.025929 323.45543 
L 280.7317 324.171947 
L 282.143241 324.168953 
L 282.849012 324.547335 
L 284.260553 324.544746 
L 284.966324 326.190441 
L 286.377866 326.18355 
L 287.083636 326.612534 
L 288.495178 326.607063 
L 289.200949 328.142156 
L 290.61249 328.133809 
L 291.318261 328.594727 
L 292.729802 328.588175 
L 293.435573 329.774775 
L 294.847115 329.766404 
L 295.552885 329.927063 
L 296.258656 330.355612 
L 296.964427 330.9331 
L 297.670198 331.877633 
L 299.081739 333.031009 
L 301.904822 334.864186 
L 304.727905 335.90762 
L 305.433676 336.047851 
L 306.139447 336.349997 
L 308.96253 336.640407 
L 309.6683 336.699307 
L 310.374071 336.999983 
L 313.902925 337.191261 
L 314.608696 337.383705 
L 316.020237 337.41643 
L 316.726008 337.713649 
L 323.077945 337.693993 
L 326.606798 337.696356 
L 327.312569 338.579998 
L 328.724111 338.579955 
L 329.429881 338.223238 
L 330.841423 338.224325 
L 331.547194 338.090813 
L 332.958735 338.092056 
L 333.664506 337.91212 
L 335.076047 337.913802 
L 335.781818 337.338895 
L 337.19336 337.343012 
L 337.89913 337.104911 
L 341.427984 337.120899 
L 342.133755 336.850822 
L 343.545296 336.854592 
L 344.251067 335.804345 
L 345.662609 335.81213 
L 346.368379 335.019471 
L 347.779921 335.028534 
L 348.485692 334.319102 
L 349.897233 334.328119 
L 350.603004 333.600608 
L 352.014545 333.609102 
L 352.720316 332.672873 
L 354.131858 332.681001 
L 354.837628 332.140575 
L 356.24917 332.146673 
L 356.954941 331.890146 
L 358.366482 331.893849 
L 359.072253 331.284289 
L 360.483794 331.28767 
L 361.189565 331.119865 
L 362.601107 331.122151 
L 363.306877 330.405219 
L 364.718419 330.4081 
L 365.42419 330.934748 
L 366.835731 330.934905 
L 367.541502 330.796758 
L 368.953043 330.797062 
L 369.658814 330.429766 
L 385.891542 330.330729 
L 386.597312 330.190982 
L 390.126166 330.211864 
L 390.831937 330.395393 
L 398.595415 330.474593 
L 399.301186 330.64899 
L 411.299289 330.692009 
L 412.005059 330.838251 
L 419.768538 330.727511 
L 420.474308 330.478924 
L 421.88585 330.479444 
L 422.591621 330.596892 
L 445.176285 330.68024 
L 446.587826 330.751773 
L 451.528221 330.643919 
L 457.174387 330.61952 
L 476.935968 330.712617 
L 478.34751 330.780537 
L 479.053281 330.780424 
L 479.759051 331.099139 
L 481.170593 331.098325 
L 481.876364 331.245269 
L 483.287905 331.244547 
L 483.993676 331.759661 
L 485.405217 331.758303 
L 486.110988 332.052119 
L 487.52253 332.050857 
L 488.2283 333.017249 
L 489.639842 333.014548 
L 490.345613 333.284826 
L 491.757154 333.282576 
L 492.462925 334.183353 
L 493.874466 334.180189 
L 494.580237 334.400115 
L 495.991779 334.397667 
L 496.697549 334.946285 
L 498.109091 334.94352 
L 498.109091 334.94352 
" style="fill:none;stroke:#2ca02c;stroke-dasharray:6.475,2.8;stroke-dashoffset:0;stroke-width:1.75;"/>
   </g>
   <g id="patch_3">
    <path d="M 72 352.44 
L 72 47.52 
" style="fill:none;"/>
   </g>
   <g id="patch_4">
    <path d="M 518.4 352.44 
L 518.4 47.52 
" style="fill:none;"/>
   </g>
   <g id="patch_5">
    <path d="M 72 352.44 
L 518.4 352.44 
" style="fill:none;"/>
   </g>
   <g id="patch_6">
    <path d="M 72 47.52 
L 518.4 47.52 
" style="fill:none;"/>
   </g>
   <g id="text_17">
    <!-- Network temperatures -->
    <defs>
     <path d="M 7.625 0 
L 7.625 71.578125 
L 17.328125 71.578125 
L 54.9375 15.375 
L 54.9375 71.578125 
L 64.015625 71.578125 
L 64.015625 0 
L 54.296875 0 
L 16.703125 56.25 
L 16.703125 0 
z
" id="ArialMT-78"/>
     <path d="M 42.09375 16.703125 
L 51.171875 15.578125 
Q 49.03125 7.625 43.21875 3.21875 
Q 37.40625 -1.171875 28.375 -1.171875 
Q 17 -1.171875 10.328125 5.828125 
Q 3.65625 12.84375 3.65625 25.484375 
Q 3.65625 38.578125 10.390625 45.796875 
Q 17.140625 53.03125 27.875 53.03125 
Q 38.28125 53.03125 44.875 45.953125 
Q 51.46875 38.875 51.46875 26.03125 
Q 51.46875 25.25 51.421875 23.6875 
L 12.75 23.6875 
Q 13.234375 15.140625 17.578125 10.59375 
Q 21.921875 6.0625 28.421875 6.0625 
Q 33.25 6.0625 36.671875 8.59375 
Q 40.09375 11.140625 42.09375 16.703125 
z
M 13.234375 30.90625 
L 42.1875 30.90625 
Q 41.609375 37.453125 38.875 40.71875 
Q 34.671875 45.796875 27.984375 45.796875 
Q 21.921875 45.796875 17.796875 41.75 
Q 13.671875 37.703125 13.234375 30.90625 
z
" id="ArialMT-101"/>
     <path d="M 25.78125 7.859375 
L 27.046875 0.09375 
Q 23.34375 -0.6875 20.40625 -0.6875 
Q 15.625 -0.6875 12.984375 0.828125 
Q 10.359375 2.34375 9.28125 4.8125 
Q 8.203125 7.28125 8.203125 15.1875 
L 8.203125 45.015625 
L 1.765625 45.015625 
L 1.765625 51.859375 
L 8.203125 51.859375 
L 8.203125 64.703125 
L 16.9375 69.96875 
L 16.9375 51.859375 
L 25.78125 51.859375 
L 25.78125 45.015625 
L 16.9375 45.015625 
L 16.9375 14.703125 
Q 16.9375 10.9375 17.40625 9.859375 
Q 17.875 8.796875 18.921875 8.15625 
Q 19.96875 7.515625 21.921875 7.515625 
Q 23.390625 7.515625 25.78125 7.859375 
z
" id="ArialMT-116"/>
     <path d="M 16.15625 0 
L 0.296875 51.859375 
L 9.375 51.859375 
L 17.625 21.921875 
L 20.703125 10.796875 
Q 20.90625 11.625 23.390625 21.484375 
L 31.640625 51.859375 
L 40.671875 51.859375 
L 48.4375 21.78125 
L 51.03125 11.859375 
L 54 21.875 
L 62.890625 51.859375 
L 71.4375 51.859375 
L 55.21875 0 
L 46.09375 0 
L 37.84375 31.0625 
L 35.84375 39.890625 
L 25.34375 0 
z
" id="ArialMT-119"/>
     <path d="M 3.328125 25.921875 
Q 3.328125 40.328125 11.328125 47.265625 
Q 18.015625 53.03125 27.640625 53.03125 
Q 38.328125 53.03125 45.109375 46.015625 
Q 51.90625 39.015625 51.90625 26.65625 
Q 51.90625 16.65625 48.90625 10.90625 
Q 45.90625 5.171875 40.15625 2 
Q 34.421875 -1.171875 27.640625 -1.171875 
Q 16.75 -1.171875 10.03125 5.8125 
Q 3.328125 12.796875 3.328125 25.921875 
z
M 12.359375 25.921875 
Q 12.359375 15.96875 16.703125 11.015625 
Q 21.046875 6.0625 27.640625 6.0625 
Q 34.1875 6.0625 38.53125 11.03125 
Q 42.875 16.015625 42.875 26.21875 
Q 42.875 35.84375 38.5 40.796875 
Q 34.125 45.75 27.640625 45.75 
Q 21.046875 45.75 16.703125 40.8125 
Q 12.359375 35.890625 12.359375 25.921875 
z
" id="ArialMT-111"/>
     <path d="M 6.5 0 
L 6.5 51.859375 
L 14.40625 51.859375 
L 14.40625 44 
Q 17.4375 49.515625 20 51.265625 
Q 22.5625 53.03125 25.640625 53.03125 
Q 30.078125 53.03125 34.671875 50.203125 
L 31.640625 42.046875 
Q 28.421875 43.953125 25.203125 43.953125 
Q 22.3125 43.953125 20.015625 42.21875 
Q 17.71875 40.484375 16.75 37.40625 
Q 15.28125 32.71875 15.28125 27.15625 
L 15.28125 0 
z
" id="ArialMT-114"/>
     <path d="M 6.640625 0 
L 6.640625 71.578125 
L 15.4375 71.578125 
L 15.4375 30.765625 
L 36.234375 51.859375 
L 47.609375 51.859375 
L 27.78125 32.625 
L 49.609375 0 
L 38.765625 0 
L 21.625 26.515625 
L 15.4375 20.5625 
L 15.4375 0 
z
" id="ArialMT-107"/>
     <path d="M 6.59375 0 
L 6.59375 51.859375 
L 14.453125 51.859375 
L 14.453125 44.578125 
Q 16.890625 48.390625 20.9375 50.703125 
Q 25 53.03125 30.171875 53.03125 
Q 35.9375 53.03125 39.625 50.640625 
Q 43.3125 48.25 44.828125 43.953125 
Q 50.984375 53.03125 60.84375 53.03125 
Q 68.5625 53.03125 72.703125 48.75 
Q 76.859375 44.484375 76.859375 35.59375 
L 76.859375 0 
L 68.109375 0 
L 68.109375 32.671875 
Q 68.109375 37.9375 67.25 40.25 
Q 66.40625 42.578125 64.15625 43.984375 
Q 61.921875 45.40625 58.890625 45.40625 
Q 53.421875 45.40625 49.796875 41.765625 
Q 46.1875 38.140625 46.1875 30.125 
L 46.1875 0 
L 37.40625 0 
L 37.40625 33.6875 
Q 37.40625 39.546875 35.25 42.46875 
Q 33.109375 45.40625 28.21875 45.40625 
Q 24.515625 45.40625 21.359375 43.453125 
Q 18.21875 41.5 16.796875 37.734375 
Q 15.375 33.984375 15.375 26.90625 
L 15.375 0 
z
" id="ArialMT-109"/>
     <path d="M 6.59375 -19.875 
L 6.59375 51.859375 
L 14.59375 51.859375 
L 14.59375 45.125 
Q 17.4375 49.078125 21 51.046875 
Q 24.5625 53.03125 29.640625 53.03125 
Q 36.28125 53.03125 41.359375 49.609375 
Q 46.4375 46.1875 49.015625 39.953125 
Q 51.609375 33.734375 51.609375 26.3125 
Q 51.609375 18.359375 48.75 11.984375 
Q 45.90625 5.609375 40.453125 2.21875 
Q 35.015625 -1.171875 29 -1.171875 
Q 24.609375 -1.171875 21.109375 0.6875 
Q 17.625 2.546875 15.375 5.375 
L 15.375 -19.875 
z
M 14.546875 25.640625 
Q 14.546875 15.625 18.59375 10.84375 
Q 22.65625 6.0625 28.421875 6.0625 
Q 34.28125 6.0625 38.453125 11.015625 
Q 42.625 15.96875 42.625 26.375 
Q 42.625 36.28125 38.546875 41.203125 
Q 34.46875 46.140625 28.8125 46.140625 
Q 23.1875 46.140625 18.859375 40.890625 
Q 14.546875 35.640625 14.546875 25.640625 
z
" id="ArialMT-112"/>
     <path d="M 40.4375 6.390625 
Q 35.546875 2.25 31.03125 0.53125 
Q 26.515625 -1.171875 21.34375 -1.171875 
Q 12.796875 -1.171875 8.203125 3 
Q 3.609375 7.171875 3.609375 13.671875 
Q 3.609375 17.484375 5.34375 20.625 
Q 7.078125 23.78125 9.890625 25.6875 
Q 12.703125 27.59375 16.21875 28.5625 
Q 18.796875 29.25 24.03125 29.890625 
Q 34.671875 31.15625 39.703125 32.90625 
Q 39.75 34.71875 39.75 35.203125 
Q 39.75 40.578125 37.25 42.78125 
Q 33.890625 45.75 27.25 45.75 
Q 21.046875 45.75 18.09375 43.578125 
Q 15.140625 41.40625 13.71875 35.890625 
L 5.125 37.0625 
Q 6.296875 42.578125 8.984375 45.96875 
Q 11.671875 49.359375 16.75 51.1875 
Q 21.828125 53.03125 28.515625 53.03125 
Q 35.15625 53.03125 39.296875 51.46875 
Q 43.453125 49.90625 45.40625 47.53125 
Q 47.359375 45.171875 48.140625 41.546875 
Q 48.578125 39.3125 48.578125 33.453125 
L 48.578125 21.734375 
Q 48.578125 9.46875 49.140625 6.21875 
Q 49.703125 2.984375 51.375 0 
L 42.1875 0 
Q 40.828125 2.734375 40.4375 6.390625 
z
M 39.703125 26.03125 
Q 34.90625 24.078125 25.34375 22.703125 
Q 19.921875 21.921875 17.671875 20.9375 
Q 15.4375 19.96875 14.203125 18.09375 
Q 12.984375 16.21875 12.984375 13.921875 
Q 12.984375 10.40625 15.640625 8.0625 
Q 18.3125 5.71875 23.4375 5.71875 
Q 28.515625 5.71875 32.46875 7.9375 
Q 36.421875 10.15625 38.28125 14.015625 
Q 39.703125 17 39.703125 22.796875 
z
" id="ArialMT-97"/>
     <path d="M 40.578125 0 
L 40.578125 7.625 
Q 34.515625 -1.171875 24.125 -1.171875 
Q 19.53125 -1.171875 15.546875 0.578125 
Q 11.578125 2.34375 9.640625 5 
Q 7.71875 7.671875 6.9375 11.53125 
Q 6.390625 14.109375 6.390625 19.734375 
L 6.390625 51.859375 
L 15.1875 51.859375 
L 15.1875 23.09375 
Q 15.1875 16.21875 15.71875 13.8125 
Q 16.546875 10.359375 19.234375 8.375 
Q 21.921875 6.390625 25.875 6.390625 
Q 29.828125 6.390625 33.296875 8.421875 
Q 36.765625 10.453125 38.203125 13.9375 
Q 39.65625 17.4375 39.65625 24.078125 
L 39.65625 51.859375 
L 48.4375 51.859375 
L 48.4375 0 
z
" id="ArialMT-117"/>
     <path d="M 3.078125 15.484375 
L 11.765625 16.84375 
Q 12.5 11.625 15.84375 8.84375 
Q 19.1875 6.0625 25.203125 6.0625 
Q 31.25 6.0625 34.171875 8.515625 
Q 37.109375 10.984375 37.109375 14.3125 
Q 37.109375 17.28125 34.515625 19 
Q 32.71875 20.171875 25.53125 21.96875 
Q 15.875 24.421875 12.140625 26.203125 
Q 8.40625 27.984375 6.46875 31.125 
Q 4.546875 34.28125 4.546875 38.09375 
Q 4.546875 41.546875 6.125 44.5 
Q 7.71875 47.46875 10.453125 49.421875 
Q 12.5 50.921875 16.03125 51.96875 
Q 19.578125 53.03125 23.640625 53.03125 
Q 29.734375 53.03125 34.34375 51.265625 
Q 38.96875 49.515625 41.15625 46.5 
Q 43.359375 43.5 44.1875 38.484375 
L 35.59375 37.3125 
Q 35.015625 41.3125 32.203125 43.546875 
Q 29.390625 45.796875 24.265625 45.796875 
Q 18.21875 45.796875 15.625 43.796875 
Q 13.03125 41.796875 13.03125 39.109375 
Q 13.03125 37.40625 14.109375 36.03125 
Q 15.1875 34.625 17.484375 33.6875 
Q 18.796875 33.203125 25.25 31.453125 
Q 34.578125 28.953125 38.25 27.359375 
Q 41.9375 25.78125 44.03125 22.75 
Q 46.140625 19.734375 46.140625 15.234375 
Q 46.140625 10.84375 43.578125 6.953125 
Q 41.015625 3.078125 36.171875 0.953125 
Q 31.34375 -1.171875 25.25 -1.171875 
Q 15.140625 -1.171875 9.84375 3.03125 
Q 4.546875 7.234375 3.078125 15.484375 
z
" id="ArialMT-115"/>
    </defs>
    <g style="fill:#262626;" transform="translate(236.1825 41.52)scale(0.12 -0.12)">
     <use xlink:href="#ArialMT-78"/>
     <use x="72.216797" xlink:href="#ArialMT-101"/>
     <use x="127.832031" xlink:href="#ArialMT-116"/>
     <use x="155.615234" xlink:href="#ArialMT-119"/>
     <use x="227.832031" xlink:href="#ArialMT-111"/>
     <use x="283.447266" xlink:href="#ArialMT-114"/>
     <use x="316.748047" xlink:href="#ArialMT-107"/>
     <use x="366.748047" xlink:href="#ArialMT-32"/>
     <use x="394.53125" xlink:href="#ArialMT-116"/>
     <use x="422.314453" xlink:href="#ArialMT-101"/>
     <use x="477.929688" xlink:href="#ArialMT-109"/>
     <use x="561.230469" xlink:href="#ArialMT-112"/>
     <use x="616.845703" xlink:href="#ArialMT-101"/>
     <use x="672.460938" xlink:href="#ArialMT-114"/>
     <use x="705.761719" xlink:href="#ArialMT-97"/>
     <use x="761.376953" xlink:href="#ArialMT-116"/>
     <use x="789.160156" xlink:href="#ArialMT-117"/>
     <use x="844.775391" xlink:href="#ArialMT-114"/>
     <use x="878.076172" xlink:href="#ArialMT-101"/>
     <use x="933.691406" xlink:href="#ArialMT-115"/>
    </g>
   </g>
   <g id="legend_1">
    <g id="line2d_39">
     <path d="M 81 60.299688 
L 101 60.299688 
" style="fill:none;stroke:#1f77b4;stroke-linecap:round;stroke-width:1.75;"/>
    </g>
    <g id="line2d_40"/>
    <g id="text_18">
     <!-- Producer Supply -->
     <defs>
      <path d="M 7.71875 0 
L 7.71875 71.578125 
L 34.71875 71.578125 
Q 41.84375 71.578125 45.609375 70.90625 
Q 50.875 70.015625 54.4375 67.546875 
Q 58.015625 65.09375 60.1875 60.640625 
Q 62.359375 56.203125 62.359375 50.875 
Q 62.359375 41.75 56.546875 35.421875 
Q 50.734375 29.109375 35.546875 29.109375 
L 17.1875 29.109375 
L 17.1875 0 
z
M 17.1875 37.546875 
L 35.6875 37.546875 
Q 44.875 37.546875 48.734375 40.96875 
Q 52.59375 44.390625 52.59375 50.59375 
Q 52.59375 55.078125 50.3125 58.265625 
Q 48.046875 61.46875 44.34375 62.5 
Q 41.9375 63.140625 35.5 63.140625 
L 17.1875 63.140625 
z
" id="ArialMT-80"/>
      <path d="M 40.234375 0 
L 40.234375 6.546875 
Q 35.296875 -1.171875 25.734375 -1.171875 
Q 19.53125 -1.171875 14.328125 2.25 
Q 9.125 5.671875 6.265625 11.796875 
Q 3.421875 17.921875 3.421875 25.875 
Q 3.421875 33.640625 6 39.96875 
Q 8.59375 46.296875 13.765625 49.65625 
Q 18.953125 53.03125 25.34375 53.03125 
Q 30.03125 53.03125 33.6875 51.046875 
Q 37.359375 49.078125 39.65625 45.90625 
L 39.65625 71.578125 
L 48.390625 71.578125 
L 48.390625 0 
z
M 12.453125 25.875 
Q 12.453125 15.921875 16.640625 10.984375 
Q 20.84375 6.0625 26.5625 6.0625 
Q 32.328125 6.0625 36.34375 10.765625 
Q 40.375 15.484375 40.375 25.140625 
Q 40.375 35.796875 36.265625 40.765625 
Q 32.171875 45.75 26.171875 45.75 
Q 20.3125 45.75 16.375 40.96875 
Q 12.453125 36.1875 12.453125 25.875 
z
" id="ArialMT-100"/>
      <path d="M 40.4375 19 
L 49.078125 17.875 
Q 47.65625 8.9375 41.8125 3.875 
Q 35.984375 -1.171875 27.484375 -1.171875 
Q 16.84375 -1.171875 10.375 5.78125 
Q 3.90625 12.75 3.90625 25.734375 
Q 3.90625 34.125 6.6875 40.421875 
Q 9.46875 46.734375 15.15625 49.875 
Q 20.84375 53.03125 27.546875 53.03125 
Q 35.984375 53.03125 41.359375 48.75 
Q 46.734375 44.484375 48.25 36.625 
L 39.703125 35.296875 
Q 38.484375 40.53125 35.375 43.15625 
Q 32.28125 45.796875 27.875 45.796875 
Q 21.234375 45.796875 17.078125 41.03125 
Q 12.9375 36.28125 12.9375 25.984375 
Q 12.9375 15.53125 16.9375 10.796875 
Q 20.953125 6.0625 27.390625 6.0625 
Q 32.5625 6.0625 36.03125 9.234375 
Q 39.5 12.40625 40.4375 19 
z
" id="ArialMT-99"/>
      <path d="M 4.5 23 
L 13.421875 23.78125 
Q 14.0625 18.40625 16.375 14.96875 
Q 18.703125 11.53125 23.578125 9.40625 
Q 28.46875 7.28125 34.578125 7.28125 
Q 39.984375 7.28125 44.140625 8.890625 
Q 48.296875 10.5 50.3125 13.296875 
Q 52.34375 16.109375 52.34375 19.4375 
Q 52.34375 22.796875 50.390625 25.3125 
Q 48.4375 27.828125 43.953125 29.546875 
Q 41.0625 30.671875 31.203125 33.03125 
Q 21.34375 35.40625 17.390625 37.5 
Q 12.25 40.1875 9.734375 44.15625 
Q 7.234375 48.140625 7.234375 53.078125 
Q 7.234375 58.5 10.296875 63.203125 
Q 13.375 67.921875 19.28125 70.359375 
Q 25.203125 72.796875 32.421875 72.796875 
Q 40.375 72.796875 46.453125 70.234375 
Q 52.546875 67.671875 55.8125 62.6875 
Q 59.078125 57.71875 59.328125 51.421875 
L 50.25 50.734375 
Q 49.515625 57.515625 45.28125 60.984375 
Q 41.0625 64.453125 32.8125 64.453125 
Q 24.21875 64.453125 20.28125 61.296875 
Q 16.359375 58.15625 16.359375 53.71875 
Q 16.359375 49.859375 19.140625 47.359375 
Q 21.875 44.875 33.421875 42.265625 
Q 44.96875 39.65625 49.265625 37.703125 
Q 55.515625 34.8125 58.484375 30.390625 
Q 61.46875 25.984375 61.46875 20.21875 
Q 61.46875 14.5 58.203125 9.4375 
Q 54.9375 4.390625 48.796875 1.578125 
Q 42.671875 -1.21875 35.015625 -1.21875 
Q 25.296875 -1.21875 18.71875 1.609375 
Q 12.15625 4.4375 8.421875 10.125 
Q 4.6875 15.828125 4.5 23 
z
" id="ArialMT-83"/>
      <path d="M 6.390625 0 
L 6.390625 71.578125 
L 15.1875 71.578125 
L 15.1875 0 
z
" id="ArialMT-108"/>
      <path d="M 6.203125 -19.96875 
L 5.21875 -11.71875 
Q 8.109375 -12.5 10.25 -12.5 
Q 13.1875 -12.5 14.9375 -11.515625 
Q 16.703125 -10.546875 17.828125 -8.796875 
Q 18.65625 -7.46875 20.515625 -2.25 
Q 20.75 -1.515625 21.296875 -0.09375 
L 1.609375 51.859375 
L 11.078125 51.859375 
L 21.875 21.828125 
Q 23.96875 16.109375 25.640625 9.8125 
Q 27.15625 15.875 29.25 21.625 
L 40.328125 51.859375 
L 49.125 51.859375 
L 29.390625 -0.875 
Q 26.21875 -9.421875 24.46875 -12.640625 
Q 22.125 -17 19.09375 -19.015625 
Q 16.0625 -21.046875 11.859375 -21.046875 
Q 9.328125 -21.046875 6.203125 -19.96875 
z
" id="ArialMT-121"/>
     </defs>
     <g style="fill:#262626;" transform="translate(109 63.799688)scale(0.1 -0.1)">
      <use xlink:href="#ArialMT-80"/>
      <use x="66.699219" xlink:href="#ArialMT-114"/>
      <use x="100" xlink:href="#ArialMT-111"/>
      <use x="155.615234" xlink:href="#ArialMT-100"/>
      <use x="211.230469" xlink:href="#ArialMT-117"/>
      <use x="266.845703" xlink:href="#ArialMT-99"/>
      <use x="316.845703" xlink:href="#ArialMT-101"/>
      <use x="372.460938" xlink:href="#ArialMT-114"/>
      <use x="405.761719" xlink:href="#ArialMT-32"/>
      <use x="433.544922" xlink:href="#ArialMT-83"/>
      <use x="500.244141" xlink:href="#ArialMT-117"/>
      <use x="555.859375" xlink:href="#ArialMT-112"/>
      <use x="611.474609" xlink:href="#ArialMT-112"/>
      <use x="667.089844" xlink:href="#ArialMT-108"/>
      <use x="689.306641" xlink:href="#ArialMT-121"/>
     </g>
    </g>
    <g id="line2d_41">
     <path d="M 81 74.562187 
L 101 74.562187 
" style="fill:none;stroke:#1f77b4;stroke-dasharray:6.475,2.8;stroke-dashoffset:0;stroke-width:1.75;"/>
    </g>
    <g id="line2d_42"/>
    <g id="text_19">
     <!-- Producer Return -->
     <defs>
      <path d="M 7.859375 0 
L 7.859375 71.578125 
L 39.59375 71.578125 
Q 49.171875 71.578125 54.140625 69.640625 
Q 59.125 67.71875 62.109375 62.828125 
Q 65.09375 57.953125 65.09375 52.046875 
Q 65.09375 44.4375 60.15625 39.203125 
Q 55.21875 33.984375 44.921875 32.5625 
Q 48.6875 30.765625 50.640625 29 
Q 54.78125 25.203125 58.5 19.484375 
L 70.953125 0 
L 59.03125 0 
L 49.5625 14.890625 
Q 45.40625 21.34375 42.71875 24.75 
Q 40.046875 28.171875 37.921875 29.53125 
Q 35.796875 30.90625 33.59375 31.453125 
Q 31.984375 31.78125 28.328125 31.78125 
L 17.328125 31.78125 
L 17.328125 0 
z
M 17.328125 39.984375 
L 37.703125 39.984375 
Q 44.1875 39.984375 47.84375 41.328125 
Q 51.515625 42.671875 53.421875 45.625 
Q 55.328125 48.578125 55.328125 52.046875 
Q 55.328125 57.125 51.640625 60.390625 
Q 47.953125 63.671875 39.984375 63.671875 
L 17.328125 63.671875 
z
" id="ArialMT-82"/>
      <path d="M 6.59375 0 
L 6.59375 51.859375 
L 14.5 51.859375 
L 14.5 44.484375 
Q 20.21875 53.03125 31 53.03125 
Q 35.6875 53.03125 39.625 51.34375 
Q 43.5625 49.65625 45.515625 46.921875 
Q 47.46875 44.1875 48.25 40.4375 
Q 48.734375 37.984375 48.734375 31.890625 
L 48.734375 0 
L 39.9375 0 
L 39.9375 31.546875 
Q 39.9375 36.921875 38.90625 39.578125 
Q 37.890625 42.234375 35.28125 43.8125 
Q 32.671875 45.40625 29.15625 45.40625 
Q 23.53125 45.40625 19.453125 41.84375 
Q 15.375 38.28125 15.375 28.328125 
L 15.375 0 
z
" id="ArialMT-110"/>
     </defs>
     <g style="fill:#262626;" transform="translate(109 78.062187)scale(0.1 -0.1)">
      <use xlink:href="#ArialMT-80"/>
      <use x="66.699219" xlink:href="#ArialMT-114"/>
      <use x="100" xlink:href="#ArialMT-111"/>
      <use x="155.615234" xlink:href="#ArialMT-100"/>
      <use x="211.230469" xlink:href="#ArialMT-117"/>
      <use x="266.845703" xlink:href="#ArialMT-99"/>
      <use x="316.845703" xlink:href="#ArialMT-101"/>
      <use x="372.460938" xlink:href="#ArialMT-114"/>
      <use x="405.761719" xlink:href="#ArialMT-32"/>
      <use x="433.544922" xlink:href="#ArialMT-82"/>
      <use x="505.761719" xlink:href="#ArialMT-101"/>
      <use x="561.376953" xlink:href="#ArialMT-116"/>
      <use x="589.160156" xlink:href="#ArialMT-117"/>
      <use x="644.775391" xlink:href="#ArialMT-114"/>
      <use x="678.076172" xlink:href="#ArialMT-110"/>
     </g>
    </g>
    <g id="line2d_43">
     <path d="M 81 88.829375 
L 101 88.829375 
" style="fill:none;stroke:#ff7f0e;stroke-linecap:round;stroke-width:1.75;"/>
    </g>
    <g id="line2d_44"/>
    <g id="text_20">
     <!-- WaterscheiGarden Supply -->
     <defs>
      <path d="M 20.21875 0 
L 1.21875 71.578125 
L 10.9375 71.578125 
L 21.828125 24.65625 
Q 23.578125 17.28125 24.859375 10.015625 
Q 27.59375 21.484375 28.078125 23.25 
L 41.703125 71.578125 
L 53.125 71.578125 
L 63.375 35.359375 
Q 67.234375 21.875 68.953125 10.015625 
Q 70.3125 16.796875 72.515625 25.59375 
L 83.734375 71.578125 
L 93.265625 71.578125 
L 73.640625 0 
L 64.5 0 
L 49.421875 54.546875 
Q 47.515625 61.375 47.171875 62.9375 
Q 46.046875 58.015625 45.0625 54.546875 
L 29.890625 0 
z
" id="ArialMT-87"/>
      <path d="M 6.59375 0 
L 6.59375 71.578125 
L 15.375 71.578125 
L 15.375 45.90625 
Q 21.53125 53.03125 30.90625 53.03125 
Q 36.671875 53.03125 40.921875 50.75 
Q 45.171875 48.484375 47 44.484375 
Q 48.828125 40.484375 48.828125 32.859375 
L 48.828125 0 
L 40.046875 0 
L 40.046875 32.859375 
Q 40.046875 39.453125 37.1875 42.453125 
Q 34.328125 45.453125 29.109375 45.453125 
Q 25.203125 45.453125 21.75 43.421875 
Q 18.3125 41.40625 16.84375 37.9375 
Q 15.375 34.46875 15.375 28.375 
L 15.375 0 
z
" id="ArialMT-104"/>
      <path d="M 6.640625 61.46875 
L 6.640625 71.578125 
L 15.4375 71.578125 
L 15.4375 61.46875 
z
M 6.640625 0 
L 6.640625 51.859375 
L 15.4375 51.859375 
L 15.4375 0 
z
" id="ArialMT-105"/>
      <path d="M 41.21875 28.078125 
L 41.21875 36.46875 
L 71.53125 36.53125 
L 71.53125 9.96875 
Q 64.546875 4.390625 57.125 1.578125 
Q 49.703125 -1.21875 41.890625 -1.21875 
Q 31.34375 -1.21875 22.71875 3.296875 
Q 14.109375 7.8125 9.71875 16.359375 
Q 5.328125 24.90625 5.328125 35.453125 
Q 5.328125 45.90625 9.6875 54.953125 
Q 14.0625 64.015625 22.265625 68.40625 
Q 30.46875 72.796875 41.15625 72.796875 
Q 48.921875 72.796875 55.1875 70.28125 
Q 61.46875 67.78125 65.03125 63.28125 
Q 68.609375 58.796875 70.453125 51.5625 
L 61.921875 49.21875 
Q 60.296875 54.6875 57.90625 57.8125 
Q 55.515625 60.9375 51.0625 62.8125 
Q 46.625 64.703125 41.21875 64.703125 
Q 34.71875 64.703125 29.984375 62.71875 
Q 25.25 60.75 22.34375 57.515625 
Q 19.4375 54.296875 17.828125 50.4375 
Q 15.09375 43.796875 15.09375 36.03125 
Q 15.09375 26.46875 18.390625 20.015625 
Q 21.6875 13.578125 27.984375 10.453125 
Q 34.28125 7.328125 41.359375 7.328125 
Q 47.515625 7.328125 53.375 9.6875 
Q 59.234375 12.0625 62.25 14.75 
L 62.25 28.078125 
z
" id="ArialMT-71"/>
     </defs>
     <g style="fill:#262626;" transform="translate(109 92.329375)scale(0.1 -0.1)">
      <use xlink:href="#ArialMT-87"/>
      <use x="94.337891" xlink:href="#ArialMT-97"/>
      <use x="149.953125" xlink:href="#ArialMT-116"/>
      <use x="177.736328" xlink:href="#ArialMT-101"/>
      <use x="233.351562" xlink:href="#ArialMT-114"/>
      <use x="266.652344" xlink:href="#ArialMT-115"/>
      <use x="316.652344" xlink:href="#ArialMT-99"/>
      <use x="366.652344" xlink:href="#ArialMT-104"/>
      <use x="422.267578" xlink:href="#ArialMT-101"/>
      <use x="477.882812" xlink:href="#ArialMT-105"/>
      <use x="500.099609" xlink:href="#ArialMT-71"/>
      <use x="577.882812" xlink:href="#ArialMT-97"/>
      <use x="633.498047" xlink:href="#ArialMT-114"/>
      <use x="666.798828" xlink:href="#ArialMT-100"/>
      <use x="722.414062" xlink:href="#ArialMT-101"/>
      <use x="778.029297" xlink:href="#ArialMT-110"/>
      <use x="833.644531" xlink:href="#ArialMT-32"/>
      <use x="861.427734" xlink:href="#ArialMT-83"/>
      <use x="928.126953" xlink:href="#ArialMT-117"/>
      <use x="983.742188" xlink:href="#ArialMT-112"/>
      <use x="1039.357422" xlink:href="#ArialMT-112"/>
      <use x="1094.972656" xlink:href="#ArialMT-108"/>
      <use x="1117.189453" xlink:href="#ArialMT-121"/>
     </g>
    </g>
    <g id="line2d_45">
     <path d="M 81 103.091875 
L 101 103.091875 
" style="fill:none;stroke:#ff7f0e;stroke-dasharray:6.475,2.8;stroke-dashoffset:0;stroke-width:1.75;"/>
    </g>
    <g id="line2d_46"/>
    <g id="text_21">
     <!-- WaterscheiGarden Return -->
     <g style="fill:#262626;" transform="translate(109 106.591875)scale(0.1 -0.1)">
      <use xlink:href="#ArialMT-87"/>
      <use x="94.337891" xlink:href="#ArialMT-97"/>
      <use x="149.953125" xlink:href="#ArialMT-116"/>
      <use x="177.736328" xlink:href="#ArialMT-101"/>
      <use x="233.351562" xlink:href="#ArialMT-114"/>
      <use x="266.652344" xlink:href="#ArialMT-115"/>
      <use x="316.652344" xlink:href="#ArialMT-99"/>
      <use x="366.652344" xlink:href="#ArialMT-104"/>
      <use x="422.267578" xlink:href="#ArialMT-101"/>
      <use x="477.882812" xlink:href="#ArialMT-105"/>
      <use x="500.099609" xlink:href="#ArialMT-71"/>
      <use x="577.882812" xlink:href="#ArialMT-97"/>
      <use x="633.498047" xlink:href="#ArialMT-114"/>
      <use x="666.798828" xlink:href="#ArialMT-100"/>
      <use x="722.414062" xlink:href="#ArialMT-101"/>
      <use x="778.029297" xlink:href="#ArialMT-110"/>
      <use x="833.644531" xlink:href="#ArialMT-32"/>
      <use x="861.427734" xlink:href="#ArialMT-82"/>
      <use x="933.644531" xlink:href="#ArialMT-101"/>
      <use x="989.259766" xlink:href="#ArialMT-116"/>
      <use x="1017.042969" xlink:href="#ArialMT-117"/>
      <use x="1072.658203" xlink:href="#ArialMT-114"/>
      <use x="1105.958984" xlink:href="#ArialMT-110"/>
     </g>
    </g>
    <g id="line2d_47">
     <path d="M 81 117.359062 
L 101 117.359062 
" style="fill:none;stroke:#2ca02c;stroke-linecap:round;stroke-width:1.75;"/>
    </g>
    <g id="line2d_48"/>
    <g id="text_22">
     <!-- ZwartbergNEast Supply -->
     <defs>
      <path d="M 2 0 
L 2 8.796875 
L 38.671875 54.640625 
Q 42.578125 59.515625 46.09375 63.140625 
L 6.15625 63.140625 
L 6.15625 71.578125 
L 57.421875 71.578125 
L 57.421875 63.140625 
L 17.234375 13.484375 
L 12.890625 8.453125 
L 58.59375 8.453125 
L 58.59375 0 
z
" id="ArialMT-90"/>
      <path d="M 14.703125 0 
L 6.546875 0 
L 6.546875 71.578125 
L 15.328125 71.578125 
L 15.328125 46.046875 
Q 20.90625 53.03125 29.546875 53.03125 
Q 34.328125 53.03125 38.59375 51.09375 
Q 42.875 49.171875 45.625 45.671875 
Q 48.390625 42.1875 49.953125 37.25 
Q 51.515625 32.328125 51.515625 26.703125 
Q 51.515625 13.375 44.921875 6.09375 
Q 38.328125 -1.171875 29.109375 -1.171875 
Q 19.921875 -1.171875 14.703125 6.5 
z
M 14.59375 26.3125 
Q 14.59375 17 17.140625 12.84375 
Q 21.296875 6.0625 28.375 6.0625 
Q 34.125 6.0625 38.328125 11.0625 
Q 42.53125 16.0625 42.53125 25.984375 
Q 42.53125 36.140625 38.5 40.96875 
Q 34.46875 45.796875 28.765625 45.796875 
Q 23 45.796875 18.796875 40.796875 
Q 14.59375 35.796875 14.59375 26.3125 
z
" id="ArialMT-98"/>
      <path d="M 4.984375 -4.296875 
L 13.53125 -5.5625 
Q 14.0625 -9.515625 16.5 -11.328125 
Q 19.78125 -13.765625 25.4375 -13.765625 
Q 31.546875 -13.765625 34.859375 -11.328125 
Q 38.1875 -8.890625 39.359375 -4.5 
Q 40.046875 -1.8125 39.984375 6.78125 
Q 34.234375 0 25.640625 0 
Q 14.9375 0 9.078125 7.71875 
Q 3.21875 15.4375 3.21875 26.21875 
Q 3.21875 33.640625 5.90625 39.90625 
Q 8.59375 46.1875 13.6875 49.609375 
Q 18.796875 53.03125 25.6875 53.03125 
Q 34.859375 53.03125 40.828125 45.609375 
L 40.828125 51.859375 
L 48.921875 51.859375 
L 48.921875 7.03125 
Q 48.921875 -5.078125 46.453125 -10.125 
Q 44 -15.1875 38.640625 -18.109375 
Q 33.296875 -21.046875 25.484375 -21.046875 
Q 16.21875 -21.046875 10.5 -16.875 
Q 4.78125 -12.703125 4.984375 -4.296875 
z
M 12.25 26.859375 
Q 12.25 16.65625 16.296875 11.96875 
Q 20.359375 7.28125 26.46875 7.28125 
Q 32.515625 7.28125 36.609375 11.9375 
Q 40.71875 16.609375 40.71875 26.5625 
Q 40.71875 36.078125 36.5 40.90625 
Q 32.28125 45.75 26.3125 45.75 
Q 20.453125 45.75 16.34375 40.984375 
Q 12.25 36.234375 12.25 26.859375 
z
" id="ArialMT-103"/>
      <path d="M 7.90625 0 
L 7.90625 71.578125 
L 59.671875 71.578125 
L 59.671875 63.140625 
L 17.390625 63.140625 
L 17.390625 41.21875 
L 56.984375 41.21875 
L 56.984375 32.8125 
L 17.390625 32.8125 
L 17.390625 8.453125 
L 61.328125 8.453125 
L 61.328125 0 
z
" id="ArialMT-69"/>
     </defs>
     <g style="fill:#262626;" transform="translate(109 120.859062)scale(0.1 -0.1)">
      <use xlink:href="#ArialMT-90"/>
      <use x="61.083984" xlink:href="#ArialMT-119"/>
      <use x="133.300781" xlink:href="#ArialMT-97"/>
      <use x="188.916016" xlink:href="#ArialMT-114"/>
      <use x="222.216797" xlink:href="#ArialMT-116"/>
      <use x="250" xlink:href="#ArialMT-98"/>
      <use x="305.615234" xlink:href="#ArialMT-101"/>
      <use x="361.230469" xlink:href="#ArialMT-114"/>
      <use x="394.53125" xlink:href="#ArialMT-103"/>
      <use x="450.146484" xlink:href="#ArialMT-78"/>
      <use x="522.363281" xlink:href="#ArialMT-69"/>
      <use x="589.0625" xlink:href="#ArialMT-97"/>
      <use x="644.677734" xlink:href="#ArialMT-115"/>
      <use x="694.677734" xlink:href="#ArialMT-116"/>
      <use x="722.460938" xlink:href="#ArialMT-32"/>
      <use x="750.244141" xlink:href="#ArialMT-83"/>
      <use x="816.943359" xlink:href="#ArialMT-117"/>
      <use x="872.558594" xlink:href="#ArialMT-112"/>
      <use x="928.173828" xlink:href="#ArialMT-112"/>
      <use x="983.789062" xlink:href="#ArialMT-108"/>
      <use x="1006.005859" xlink:href="#ArialMT-121"/>
     </g>
    </g>
    <g id="line2d_49">
     <path d="M 81 131.621563 
L 101 131.621563 
" style="fill:none;stroke:#2ca02c;stroke-dasharray:6.475,2.8;stroke-dashoffset:0;stroke-width:1.75;"/>
    </g>
    <g id="line2d_50"/>
    <g id="text_23">
     <!-- ZwartbergNEast Return -->
     <g style="fill:#262626;" transform="translate(109 135.121563)scale(0.1 -0.1)">
      <use xlink:href="#ArialMT-90"/>
      <use x="61.083984" xlink:href="#ArialMT-119"/>
      <use x="133.300781" xlink:href="#ArialMT-97"/>
      <use x="188.916016" xlink:href="#ArialMT-114"/>
      <use x="222.216797" xlink:href="#ArialMT-116"/>
      <use x="250" xlink:href="#ArialMT-98"/>
      <use x="305.615234" xlink:href="#ArialMT-101"/>
      <use x="361.230469" xlink:href="#ArialMT-114"/>
      <use x="394.53125" xlink:href="#ArialMT-103"/>
      <use x="450.146484" xlink:href="#ArialMT-78"/>
      <use x="522.363281" xlink:href="#ArialMT-69"/>
      <use x="589.0625" xlink:href="#ArialMT-97"/>
      <use x="644.677734" xlink:href="#ArialMT-115"/>
      <use x="694.677734" xlink:href="#ArialMT-116"/>
      <use x="722.460938" xlink:href="#ArialMT-32"/>
      <use x="750.244141" xlink:href="#ArialMT-82"/>
      <use x="822.460938" xlink:href="#ArialMT-101"/>
      <use x="878.076172" xlink:href="#ArialMT-116"/>
      <use x="905.859375" xlink:href="#ArialMT-117"/>
      <use x="961.474609" xlink:href="#ArialMT-114"/>
      <use x="994.775391" xlink:href="#ArialMT-110"/>
     </g>
    </g>
   </g>
  </g>
  <g id="text_24">
   <!-- Horizon: 48.0h, Time step: 300, Neighbourhoods: 2, case: step_up -->
   <defs>
    <path d="M 8.015625 0 
L 8.015625 71.578125 
L 17.484375 71.578125 
L 17.484375 42.1875 
L 54.6875 42.1875 
L 54.6875 71.578125 
L 64.15625 71.578125 
L 64.15625 0 
L 54.6875 0 
L 54.6875 33.734375 
L 17.484375 33.734375 
L 17.484375 0 
z
" id="ArialMT-72"/>
    <path d="M 1.953125 0 
L 1.953125 7.125 
L 34.96875 45.015625 
Q 29.34375 44.734375 25.046875 44.734375 
L 3.90625 44.734375 
L 3.90625 51.859375 
L 46.296875 51.859375 
L 46.296875 46.046875 
L 18.21875 13.140625 
L 12.796875 7.125 
Q 18.703125 7.5625 23.875 7.5625 
L 47.859375 7.5625 
L 47.859375 0 
z
" id="ArialMT-122"/>
    <path d="M 9.03125 41.84375 
L 9.03125 51.859375 
L 19.046875 51.859375 
L 19.046875 41.84375 
z
M 9.03125 0 
L 9.03125 10.015625 
L 19.046875 10.015625 
L 19.046875 0 
z
" id="ArialMT-58"/>
    <path d="M 9.078125 0 
L 9.078125 10.015625 
L 19.09375 10.015625 
L 19.09375 0 
z
" id="ArialMT-46"/>
    <path d="M 8.890625 0 
L 8.890625 10.015625 
L 18.890625 10.015625 
L 18.890625 0 
Q 18.890625 -5.515625 16.9375 -8.90625 
Q 14.984375 -12.3125 10.75 -14.15625 
L 8.296875 -10.40625 
Q 11.078125 -9.1875 12.390625 -6.8125 
Q 13.71875 -4.4375 13.875 0 
z
" id="ArialMT-44"/>
    <path d="M 25.921875 0 
L 25.921875 63.140625 
L 2.34375 63.140625 
L 2.34375 71.578125 
L 59.078125 71.578125 
L 59.078125 63.140625 
L 35.40625 63.140625 
L 35.40625 0 
z
" id="ArialMT-84"/>
    <path d="M -1.515625 -19.875 
L -1.515625 -13.53125 
L 56.734375 -13.53125 
L 56.734375 -19.875 
z
" id="ArialMT-95"/>
   </defs>
   <g style="fill:#262626;" transform="translate(111.242813 16.545)scale(0.12 -0.12)">
    <use xlink:href="#ArialMT-72"/>
    <use x="72.216797" xlink:href="#ArialMT-111"/>
    <use x="127.832031" xlink:href="#ArialMT-114"/>
    <use x="161.132812" xlink:href="#ArialMT-105"/>
    <use x="183.349609" xlink:href="#ArialMT-122"/>
    <use x="233.349609" xlink:href="#ArialMT-111"/>
    <use x="288.964844" xlink:href="#ArialMT-110"/>
    <use x="344.580078" xlink:href="#ArialMT-58"/>
    <use x="372.363281" xlink:href="#ArialMT-32"/>
    <use x="400.146484" xlink:href="#ArialMT-52"/>
    <use x="455.761719" xlink:href="#ArialMT-56"/>
    <use x="511.376953" xlink:href="#ArialMT-46"/>
    <use x="539.160156" xlink:href="#ArialMT-48"/>
    <use x="594.775391" xlink:href="#ArialMT-104"/>
    <use x="650.390625" xlink:href="#ArialMT-44"/>
    <use x="678.173828" xlink:href="#ArialMT-32"/>
    <use x="705.941406" xlink:href="#ArialMT-84"/>
    <use x="766.978516" xlink:href="#ArialMT-105"/>
    <use x="789.195312" xlink:href="#ArialMT-109"/>
    <use x="872.496094" xlink:href="#ArialMT-101"/>
    <use x="928.111328" xlink:href="#ArialMT-32"/>
    <use x="955.894531" xlink:href="#ArialMT-115"/>
    <use x="1005.894531" xlink:href="#ArialMT-116"/>
    <use x="1033.677734" xlink:href="#ArialMT-101"/>
    <use x="1089.292969" xlink:href="#ArialMT-112"/>
    <use x="1144.908203" xlink:href="#ArialMT-58"/>
    <use x="1172.691406" xlink:href="#ArialMT-32"/>
    <use x="1200.474609" xlink:href="#ArialMT-51"/>
    <use x="1256.089844" xlink:href="#ArialMT-48"/>
    <use x="1311.705078" xlink:href="#ArialMT-48"/>
    <use x="1367.320312" xlink:href="#ArialMT-44"/>
    <use x="1395.103516" xlink:href="#ArialMT-32"/>
    <use x="1422.886719" xlink:href="#ArialMT-78"/>
    <use x="1495.103516" xlink:href="#ArialMT-101"/>
    <use x="1550.71875" xlink:href="#ArialMT-105"/>
    <use x="1572.935547" xlink:href="#ArialMT-103"/>
    <use x="1628.550781" xlink:href="#ArialMT-104"/>
    <use x="1684.166016" xlink:href="#ArialMT-98"/>
    <use x="1739.78125" xlink:href="#ArialMT-111"/>
    <use x="1795.396484" xlink:href="#ArialMT-117"/>
    <use x="1851.011719" xlink:href="#ArialMT-114"/>
    <use x="1884.3125" xlink:href="#ArialMT-104"/>
    <use x="1939.927734" xlink:href="#ArialMT-111"/>
    <use x="1995.542969" xlink:href="#ArialMT-111"/>
    <use x="2051.158203" xlink:href="#ArialMT-100"/>
    <use x="2106.773438" xlink:href="#ArialMT-115"/>
    <use x="2156.773438" xlink:href="#ArialMT-58"/>
    <use x="2184.556641" xlink:href="#ArialMT-32"/>
    <use x="2212.339844" xlink:href="#ArialMT-50"/>
    <use x="2267.955078" xlink:href="#ArialMT-44"/>
    <use x="2295.738281" xlink:href="#ArialMT-32"/>
    <use x="2323.521484" xlink:href="#ArialMT-99"/>
    <use x="2373.521484" xlink:href="#ArialMT-97"/>
    <use x="2429.136719" xlink:href="#ArialMT-115"/>
    <use x="2479.136719" xlink:href="#ArialMT-101"/>
    <use x="2534.751953" xlink:href="#ArialMT-58"/>
    <use x="2562.535156" xlink:href="#ArialMT-32"/>
    <use x="2590.318359" xlink:href="#ArialMT-115"/>
    <use x="2640.318359" xlink:href="#ArialMT-116"/>
    <use x="2668.101562" xlink:href="#ArialMT-101"/>
    <use x="2723.716797" xlink:href="#ArialMT-112"/>
    <use x="2779.332031" xlink:href="#ArialMT-95"/>
    <use x="2834.947266" xlink:href="#ArialMT-117"/>
    <use x="2890.5625" xlink:href="#ArialMT-112"/>
   </g>
  </g>
 </g>
 <defs>
  <clipPath id="p4a4c45c356">
   <rect height="304.92" width="446.4" x="72" y="47.52"/>
  </clipPath>
 </defs>
</svg>
