<?xml version="1.0" encoding="utf-8" standalone="no"?>
<!DOCTYPE svg PUBLIC "-//W3C//DTD SVG 1.1//EN"
  "http://www.w3.org/Graphics/SVG/1.1/DTD/svg11.dtd">
<!-- Created with matplotlib (https://matplotlib.org/) -->
<svg height="396pt" version="1.1" viewBox="0 0 576 396" width="576pt" xmlns="http://www.w3.org/2000/svg" xmlns:xlink="http://www.w3.org/1999/xlink">
 <defs>
  <style type="text/css">
*{stroke-linecap:butt;stroke-linejoin:round;}
  </style>
 </defs>
 <g id="figure_1">
  <g id="patch_1">
   <path d="M 0 396 
L 576 396 
L 576 0 
L 0 0 
z
" style="fill:#ffffff;"/>
  </g>
  <g id="axes_1">
   <g id="patch_2">
    <path d="M 72 137.202353 
L 518.4 137.202353 
L 518.4 47.52 
L 72 47.52 
z
" style="fill:#eaeaf2;"/>
   </g>
   <g id="matplotlib.axis_1">
    <g id="xtick_1">
     <g id="line2d_1">
      <path clip-path="url(#p88abb19b55)" d="M 92.290909 137.202353 
L 92.290909 47.52 
" style="fill:none;stroke:#ffffff;stroke-linecap:round;"/>
     </g>
     <g id="line2d_2"/>
    </g>
    <g id="xtick_2">
     <g id="line2d_3">
      <path clip-path="url(#p88abb19b55)" d="M 143.194932 137.202353 
L 143.194932 47.52 
" style="fill:none;stroke:#ffffff;stroke-linecap:round;"/>
     </g>
     <g id="line2d_4"/>
    </g>
    <g id="xtick_3">
     <g id="line2d_5">
      <path clip-path="url(#p88abb19b55)" d="M 194.098955 137.202353 
L 194.098955 47.52 
" style="fill:none;stroke:#ffffff;stroke-linecap:round;"/>
     </g>
     <g id="line2d_6"/>
    </g>
    <g id="xtick_4">
     <g id="line2d_7">
      <path clip-path="url(#p88abb19b55)" d="M 245.002977 137.202353 
L 245.002977 47.52 
" style="fill:none;stroke:#ffffff;stroke-linecap:round;"/>
     </g>
     <g id="line2d_8"/>
    </g>
    <g id="xtick_5">
     <g id="line2d_9">
      <path clip-path="url(#p88abb19b55)" d="M 295.907 137.202353 
L 295.907 47.52 
" style="fill:none;stroke:#ffffff;stroke-linecap:round;"/>
     </g>
     <g id="line2d_10"/>
    </g>
    <g id="xtick_6">
     <g id="line2d_11">
      <path clip-path="url(#p88abb19b55)" d="M 346.811023 137.202353 
L 346.811023 47.52 
" style="fill:none;stroke:#ffffff;stroke-linecap:round;"/>
     </g>
     <g id="line2d_12"/>
    </g>
    <g id="xtick_7">
     <g id="line2d_13">
      <path clip-path="url(#p88abb19b55)" d="M 397.715046 137.202353 
L 397.715046 47.52 
" style="fill:none;stroke:#ffffff;stroke-linecap:round;"/>
     </g>
     <g id="line2d_14"/>
    </g>
    <g id="xtick_8">
     <g id="line2d_15">
      <path clip-path="url(#p88abb19b55)" d="M 448.619069 137.202353 
L 448.619069 47.52 
" style="fill:none;stroke:#ffffff;stroke-linecap:round;"/>
     </g>
     <g id="line2d_16"/>
    </g>
    <g id="xtick_9">
     <g id="line2d_17">
      <path clip-path="url(#p88abb19b55)" d="M 499.523091 137.202353 
L 499.523091 47.52 
" style="fill:none;stroke:#ffffff;stroke-linecap:round;"/>
     </g>
     <g id="line2d_18"/>
    </g>
   </g>
   <g id="matplotlib.axis_2">
    <g id="ytick_1">
     <g id="line2d_19">
      <path clip-path="url(#p88abb19b55)" d="M 72 136.487439 
L 518.4 136.487439 
" style="fill:none;stroke:#ffffff;stroke-linecap:round;"/>
     </g>
     <g id="line2d_20"/>
     <g id="text_1">
      <!-- 0 -->
      <defs>
       <path d="M 4.15625 35.296875 
Q 4.15625 48 6.765625 55.734375 
Q 9.375 63.484375 14.515625 67.671875 
Q 19.671875 71.875 27.484375 71.875 
Q 33.25 71.875 37.59375 69.546875 
Q 41.9375 67.234375 44.765625 62.859375 
Q 47.609375 58.5 49.21875 52.21875 
Q 50.828125 45.953125 50.828125 35.296875 
Q 50.828125 22.703125 48.234375 14.96875 
Q 45.65625 7.234375 40.5 3 
Q 35.359375 -1.21875 27.484375 -1.21875 
Q 17.140625 -1.21875 11.234375 6.203125 
Q 4.15625 15.140625 4.15625 35.296875 
z
M 13.1875 35.296875 
Q 13.1875 17.671875 17.3125 11.828125 
Q 21.4375 6 27.484375 6 
Q 33.546875 6 37.671875 11.859375 
Q 41.796875 17.71875 41.796875 35.296875 
Q 41.796875 52.984375 37.671875 58.78125 
Q 33.546875 64.59375 27.390625 64.59375 
Q 21.34375 64.59375 17.71875 59.46875 
Q 13.1875 52.9375 13.1875 35.296875 
z
" id="ArialMT-48"/>
      </defs>
      <g style="fill:#262626;" transform="translate(59.439062 140.066345)scale(0.1 -0.1)">
       <use xlink:href="#ArialMT-48"/>
      </g>
     </g>
    </g>
    <g id="ytick_2">
     <g id="line2d_21">
      <path clip-path="url(#p88abb19b55)" d="M 72 111.237958 
L 518.4 111.237958 
" style="fill:none;stroke:#ffffff;stroke-linecap:round;"/>
     </g>
     <g id="line2d_22"/>
     <g id="text_2">
      <!-- 1 -->
      <defs>
       <path d="M 37.25 0 
L 28.46875 0 
L 28.46875 56 
Q 25.296875 52.984375 20.140625 49.953125 
Q 14.984375 46.921875 10.890625 45.40625 
L 10.890625 53.90625 
Q 18.265625 57.375 23.78125 62.296875 
Q 29.296875 67.234375 31.59375 71.875 
L 37.25 71.875 
z
" id="ArialMT-49"/>
      </defs>
      <g style="fill:#262626;" transform="translate(59.439062 114.816865)scale(0.1 -0.1)">
       <use xlink:href="#ArialMT-49"/>
      </g>
     </g>
    </g>
    <g id="ytick_3">
     <g id="line2d_23">
      <path clip-path="url(#p88abb19b55)" d="M 72 85.988478 
L 518.4 85.988478 
" style="fill:none;stroke:#ffffff;stroke-linecap:round;"/>
     </g>
     <g id="line2d_24"/>
     <g id="text_3">
      <!-- 2 -->
      <defs>
       <path d="M 50.34375 8.453125 
L 50.34375 0 
L 3.03125 0 
Q 2.9375 3.171875 4.046875 6.109375 
Q 5.859375 10.9375 9.828125 15.625 
Q 13.8125 20.3125 21.34375 26.46875 
Q 33.015625 36.03125 37.109375 41.625 
Q 41.21875 47.21875 41.21875 52.203125 
Q 41.21875 57.421875 37.46875 61 
Q 33.734375 64.59375 27.734375 64.59375 
Q 21.390625 64.59375 17.578125 60.78125 
Q 13.765625 56.984375 13.71875 50.25 
L 4.6875 51.171875 
Q 5.609375 61.28125 11.65625 66.578125 
Q 17.71875 71.875 27.9375 71.875 
Q 38.234375 71.875 44.234375 66.15625 
Q 50.25 60.453125 50.25 52 
Q 50.25 47.703125 48.484375 43.546875 
Q 46.734375 39.40625 42.65625 34.8125 
Q 38.578125 30.21875 29.109375 22.21875 
Q 21.1875 15.578125 18.9375 13.203125 
Q 16.703125 10.84375 15.234375 8.453125 
z
" id="ArialMT-50"/>
      </defs>
      <g style="fill:#262626;" transform="translate(59.439062 89.567384)scale(0.1 -0.1)">
       <use xlink:href="#ArialMT-50"/>
      </g>
     </g>
    </g>
    <g id="ytick_4">
     <g id="line2d_25">
      <path clip-path="url(#p88abb19b55)" d="M 72 60.738997 
L 518.4 60.738997 
" style="fill:none;stroke:#ffffff;stroke-linecap:round;"/>
     </g>
     <g id="line2d_26"/>
     <g id="text_4">
      <!-- 3 -->
      <defs>
       <path d="M 4.203125 18.890625 
L 12.984375 20.0625 
Q 14.5 12.59375 18.140625 9.296875 
Q 21.78125 6 27 6 
Q 33.203125 6 37.46875 10.296875 
Q 41.75 14.59375 41.75 20.953125 
Q 41.75 27 37.796875 30.921875 
Q 33.84375 34.859375 27.734375 34.859375 
Q 25.25 34.859375 21.53125 33.890625 
L 22.515625 41.609375 
Q 23.390625 41.5 23.921875 41.5 
Q 29.546875 41.5 34.03125 44.421875 
Q 38.53125 47.359375 38.53125 53.46875 
Q 38.53125 58.296875 35.25 61.46875 
Q 31.984375 64.65625 26.8125 64.65625 
Q 21.6875 64.65625 18.265625 61.421875 
Q 14.84375 58.203125 13.875 51.765625 
L 5.078125 53.328125 
Q 6.6875 62.15625 12.390625 67.015625 
Q 18.109375 71.875 26.609375 71.875 
Q 32.46875 71.875 37.390625 69.359375 
Q 42.328125 66.84375 44.9375 62.5 
Q 47.5625 58.15625 47.5625 53.265625 
Q 47.5625 48.640625 45.0625 44.828125 
Q 42.578125 41.015625 37.703125 38.765625 
Q 44.046875 37.3125 47.5625 32.6875 
Q 51.078125 28.078125 51.078125 21.140625 
Q 51.078125 11.765625 44.234375 5.25 
Q 37.40625 -1.265625 26.953125 -1.265625 
Q 17.53125 -1.265625 11.296875 4.34375 
Q 5.078125 9.96875 4.203125 18.890625 
z
" id="ArialMT-51"/>
      </defs>
      <g style="fill:#262626;" transform="translate(59.439062 64.317903)scale(0.1 -0.1)">
       <use xlink:href="#ArialMT-51"/>
      </g>
     </g>
    </g>
    <g id="text_5">
     <!-- 1e7 -->
     <defs>
      <path d="M 42.09375 16.703125 
L 51.171875 15.578125 
Q 49.03125 7.625 43.21875 3.21875 
Q 37.40625 -1.171875 28.375 -1.171875 
Q 17 -1.171875 10.328125 5.828125 
Q 3.65625 12.84375 3.65625 25.484375 
Q 3.65625 38.578125 10.390625 45.796875 
Q 17.140625 53.03125 27.875 53.03125 
Q 38.28125 53.03125 44.875 45.953125 
Q 51.46875 38.875 51.46875 26.03125 
Q 51.46875 25.25 51.421875 23.6875 
L 12.75 23.6875 
Q 13.234375 15.140625 17.578125 10.59375 
Q 21.921875 6.0625 28.421875 6.0625 
Q 33.25 6.0625 36.671875 8.59375 
Q 40.09375 11.140625 42.09375 16.703125 
z
M 13.234375 30.90625 
L 42.1875 30.90625 
Q 41.609375 37.453125 38.875 40.71875 
Q 34.671875 45.796875 27.984375 45.796875 
Q 21.921875 45.796875 17.796875 41.75 
Q 13.671875 37.703125 13.234375 30.90625 
z
" id="ArialMT-101"/>
      <path d="M 4.734375 62.203125 
L 4.734375 70.65625 
L 51.078125 70.65625 
L 51.078125 63.8125 
Q 44.234375 56.546875 37.515625 44.484375 
Q 30.8125 32.421875 27.15625 19.671875 
Q 24.515625 10.6875 23.78125 0 
L 14.75 0 
Q 14.890625 8.453125 18.0625 20.40625 
Q 21.234375 32.375 27.171875 43.484375 
Q 33.109375 54.59375 39.796875 62.203125 
z
" id="ArialMT-55"/>
     </defs>
     <g style="fill:#262626;" transform="translate(72 44.52)scale(0.1 -0.1)">
      <use xlink:href="#ArialMT-49"/>
      <use x="55.615234" xlink:href="#ArialMT-101"/>
      <use x="111.230469" xlink:href="#ArialMT-55"/>
     </g>
    </g>
   </g>
   <g id="line2d_27">
    <path clip-path="url(#p88abb19b55)" d="M 92.290909 91.82451 
L 95.11891 91.728579 
L 96.532911 93.081251 
L 99.360912 92.981837 
L 100.774913 93.905009 
L 103.602914 93.817244 
L 105.016915 97.038142 
L 107.844916 96.956318 
L 109.258917 97.766293 
L 112.086918 97.689603 
L 113.500919 98.941294 
L 116.32892 98.875775 
L 117.74292 100.269776 
L 120.570922 100.212107 
L 121.984922 101.391305 
L 124.812924 101.339145 
L 126.226924 101.486092 
L 129.054926 101.442498 
L 130.468926 102.113819 
L 133.296927 102.081638 
L 134.710928 103.804952 
L 137.538929 103.774619 
L 138.95293 104.823211 
L 150.264935 104.737803 
L 151.678936 104.25243 
L 154.506937 104.235641 
L 155.920938 116.416708 
L 158.748939 116.386618 
L 160.162939 114.500702 
L 162.990941 114.451007 
L 164.404941 112.956003 
L 167.232943 112.898994 
L 168.646943 111.496766 
L 171.474945 111.447994 
L 172.888945 107.869697 
L 175.716946 107.845186 
L 177.130947 106.979006 
L 179.958948 106.984979 
L 181.372949 105.72485 
L 184.20095 105.755514 
L 185.614951 104.772709 
L 188.442952 104.816511 
L 189.856953 100.2541 
L 192.684954 100.334942 
L 194.098955 95.923099 
L 196.926956 96.061111 
L 198.340957 91.063905 
L 201.168958 91.275258 
L 202.582959 85.866512 
L 205.41096 86.151365 
L 206.82496 81.667134 
L 209.652962 81.977702 
L 211.066962 77.402629 
L 218.136965 78.167337 
L 219.550966 73.956997 
L 222.378967 74.142627 
L 223.792968 70.802076 
L 226.620969 71.008747 
L 228.03497 65.242687 
L 230.862971 65.526471 
L 232.276972 70.658936 
L 235.104973 70.713971 
L 236.518974 70.349873 
L 239.346975 70.336202 
L 240.760976 69.30336 
L 243.588977 69.308649 
L 245.002977 68.156195 
L 247.830979 68.196401 
L 249.244979 69.229532 
L 252.072981 69.238634 
L 253.486981 70.897777 
L 256.314983 70.855424 
L 257.728983 70.088421 
L 264.798986 69.951686 
L 266.212987 71.4084 
L 269.040988 71.379493 
L 270.454989 71.64972 
L 273.28299 71.616189 
L 274.696991 72.296543 
L 277.524992 72.260393 
L 278.938993 72.634804 
L 281.766994 72.605063 
L 283.180995 74.670266 
L 290.250998 74.460842 
L 291.664998 74.160684 
L 294.493 74.144901 
L 295.907 74.817544 
L 298.735002 74.80222 
L 300.149002 76.239699 
L 302.977003 76.203435 
L 304.391004 75.926724 
L 307.219005 75.900364 
L 308.633006 77.557232 
L 311.461007 77.515911 
L 312.875008 77.713867 
L 315.703009 77.676601 
L 317.11701 78.285781 
L 319.945011 78.252377 
L 321.359012 78.519732 
L 324.187013 78.492763 
L 325.601014 79.482188 
L 328.429015 79.4509 
L 329.843015 79.255067 
L 332.671017 79.234059 
L 334.085017 79.610522 
L 336.913019 79.593624 
L 338.327019 79.436047 
L 341.155021 79.427473 
L 342.569021 78.481801 
L 349.639024 78.429043 
L 351.053025 79.208566 
L 353.881026 79.207611 
L 355.295027 79.054227 
L 358.123028 79.04884 
L 359.537029 78.71779 
L 362.36503 78.719923 
L 363.779031 78.842994 
L 366.607032 78.845152 
L 368.021033 79.206886 
L 370.849034 79.20311 
L 372.263034 78.813249 
L 375.091036 78.81287 
L 376.505036 78.940424 
L 379.333038 78.941697 
L 380.747038 78.471246 
L 383.57504 78.480937 
L 384.98904 78.873523 
L 387.817041 78.875527 
L 389.231042 78.62877 
L 392.059043 78.632 
L 393.473044 79.029404 
L 400.543047 78.937298 
L 401.957048 78.623395 
L 404.785049 78.626326 
L 406.19905 78.030716 
L 413.269053 78.057965 
L 414.683053 77.940447 
L 417.511055 77.9502 
L 418.925055 78.317359 
L 421.753057 78.315831 
L 423.167057 78.152637 
L 430.23706 78.122443 
L 431.651061 78.344503 
L 434.479062 78.341115 
L 435.893063 78.49865 
L 438.721064 78.492711 
L 440.135065 78.640762 
L 442.963066 78.634157 
L 444.377067 78.840629 
L 447.205068 78.829867 
L 448.619069 78.556443 
L 450.033069 51.596471 
L 451.44707 55.402863 
L 452.861071 60.908491 
L 454.275071 64.549758 
L 455.689072 67.641921 
L 457.103073 70.436848 
L 458.517073 72.457484 
L 459.931074 74.068682 
L 461.345074 77.537915 
L 462.759075 78.482554 
L 464.173076 79.231201 
L 465.587076 80.422136 
L 467.001077 93.906859 
L 468.415078 98.681183 
L 469.829078 99.86709 
L 471.243079 99.075037 
L 472.657079 98.052409 
L 474.07108 97.717984 
L 476.899081 95.06406 
L 478.313082 99.037789 
L 481.141083 96.937742 
L 482.555084 98.216091 
L 485.383085 96.710337 
L 486.797086 100.505977 
L 489.625087 99.693217 
L 491.039088 100.739599 
L 493.867089 100.285146 
L 495.28109 104.172703 
L 498.109091 103.955098 
L 498.109091 103.955098 
" style="fill:none;stroke:#1f77b4;stroke-linecap:round;stroke-width:1.75;"/>
   </g>
   <g id="line2d_28">
    <path clip-path="url(#p88abb19b55)" d="M 92.290909 91.566835 
L 95.11891 91.566835 
L 96.532911 92.907991 
L 99.360912 92.907991 
L 100.774913 93.813081 
L 103.602914 93.813081 
L 105.016915 96.881331 
L 107.844916 96.881331 
L 109.258917 97.682203 
L 112.086918 97.682203 
L 113.500919 98.896894 
L 116.32892 98.896894 
L 117.74292 100.239193 
L 120.570922 100.239193 
L 121.984922 101.378745 
L 124.812924 101.378745 
L 126.226924 101.543939 
L 129.054926 101.543939 
L 130.468926 102.211386 
L 133.296927 102.211386 
L 134.710928 103.855219 
L 137.538929 103.855219 
L 138.95293 104.852374 
L 150.264935 104.887413 
L 151.678936 104.448181 
L 154.506937 104.448181 
L 155.920938 116.08468 
L 158.748939 116.08468 
L 160.162939 114.270688 
L 162.990941 114.270688 
L 164.404941 112.865459 
L 167.232943 112.865459 
L 168.646943 111.558069 
L 171.474945 111.558069 
L 172.888945 108.194318 
L 175.716946 108.194318 
L 177.130947 107.382553 
L 179.958948 107.382553 
L 181.372949 106.20622 
L 184.20095 106.20622 
L 185.614951 105.266361 
L 188.442952 105.266361 
L 189.856953 100.979411 
L 192.684954 100.979411 
L 194.098955 96.853988 
L 196.926956 96.853988 
L 198.340957 92.18924 
L 201.168958 92.18924 
L 202.582959 87.134188 
L 205.41096 87.134188 
L 206.82496 82.894254 
L 209.652962 82.894254 
L 211.066962 78.58395 
L 218.136965 78.686052 
L 219.550966 74.747235 
L 222.378967 74.747235 
L 223.792968 71.623993 
L 226.620969 71.623993 
L 228.03497 66.265407 
L 230.862971 66.265407 
L 232.276972 70.874114 
L 235.104973 70.874114 
L 236.518974 70.539827 
L 239.346975 70.539827 
L 240.760976 69.586849 
L 243.588977 69.586849 
L 245.002977 68.526928 
L 247.830979 68.526928 
L 249.244979 69.462852 
L 252.072981 69.462852 
L 253.486981 70.985447 
L 256.314983 70.985447 
L 257.728983 70.303494 
L 264.798986 70.20367 
L 266.212987 71.539113 
L 269.040988 71.539113 
L 270.454989 71.800526 
L 273.28299 71.800526 
L 274.696991 72.433466 
L 277.524992 72.433466 
L 278.938993 72.795621 
L 281.766994 72.795621 
L 283.180995 74.714795 
L 290.250998 74.641184 
L 291.664998 74.37803 
L 294.493 74.37803 
L 295.907 75.004849 
L 298.735002 75.004849 
L 300.149002 76.344831 
L 302.977003 76.344831 
L 304.391004 76.107022 
L 307.219005 76.107022 
L 308.633006 77.645757 
L 311.461007 77.645757 
L 312.875008 77.850385 
L 315.703009 77.850385 
L 317.11701 78.424791 
L 319.945011 78.424791 
L 321.359012 78.68401 
L 324.187013 78.68401 
L 325.601014 79.612502 
L 328.429015 79.612502 
L 329.843015 79.445947 
L 332.671017 79.445947 
L 334.085017 79.798699 
L 336.913019 79.798699 
L 338.327019 79.660102 
L 341.155021 79.660102 
L 342.569021 78.783246 
L 349.639024 78.705094 
L 351.053025 79.420438 
L 353.881026 79.420438 
L 355.295027 79.280258 
L 358.123028 79.280258 
L 359.537029 78.975386 
L 362.36503 78.975386 
L 363.779031 79.087221 
L 366.607032 79.087221 
L 368.021033 79.425787 
L 370.849034 79.425787 
L 372.263034 79.062533 
L 375.091036 79.062533 
L 376.505036 79.183002 
L 379.333038 79.183002 
L 380.747038 78.751352 
L 383.57504 78.751352 
L 384.98904 79.107794 
L 387.817041 79.107794 
L 389.231042 78.883167 
L 392.059043 78.883167 
L 393.473044 79.250898 
L 400.543047 79.172883 
L 401.957048 78.882078 
L 404.785049 78.882078 
L 406.19905 78.331871 
L 413.269053 78.321795 
L 414.683053 78.207807 
L 417.511055 78.207807 
L 418.925055 78.541276 
L 421.753057 78.541276 
L 423.167057 78.392575 
L 430.23706 78.36537 
L 431.651061 78.569788 
L 434.479062 78.569788 
L 435.893063 78.71863 
L 438.721064 78.71863 
L 440.135065 78.860563 
L 442.963066 78.860563 
L 444.377067 79.052319 
L 447.205068 79.052319 
L 448.619069 78.808072 
L 451.44707 78.808072 
L 452.861071 79.827252 
L 455.689072 79.827252 
L 457.103073 80.049511 
L 459.931074 80.049511 
L 461.345074 82.030336 
L 464.173076 82.030336 
L 465.587076 82.593002 
L 468.415078 82.593002 
L 469.829078 84.951595 
L 472.657079 84.951595 
L 474.07108 86.014685 
L 476.899081 86.014685 
L 478.313082 91.92609 
L 481.141083 91.92609 
L 482.555084 94.226899 
L 485.383085 94.226899 
L 486.797086 98.579516 
L 489.625087 98.579516 
L 491.039088 99.893855 
L 493.867089 99.893855 
L 495.28109 103.761181 
L 498.109091 103.761181 
L 498.109091 103.761181 
" style="fill:none;stroke:#000000;stroke-dasharray:1.75,2.8875;stroke-dashoffset:0;stroke-width:1.75;"/>
   </g>
   <g id="line2d_29">
    <path clip-path="url(#p88abb19b55)" d="M 92.290909 99.959681 
L 95.11891 99.959681 
L 96.532911 100.4573 
L 99.360912 100.4573 
L 100.774913 101.312514 
L 103.602914 101.312514 
L 105.016915 103.715336 
L 107.844916 103.715336 
L 109.258917 104.353277 
L 112.086918 104.353277 
L 113.500919 105.250612 
L 116.32892 105.250612 
L 117.74292 106.312977 
L 120.570922 106.312977 
L 121.984922 107.178602 
L 129.054926 107.222878 
L 130.468926 107.382095 
L 133.296927 107.382095 
L 134.710928 108.617117 
L 137.538929 108.617117 
L 138.95293 109.609108 
L 150.264935 109.702465 
L 151.678936 109.191771 
L 154.506937 109.191771 
L 155.920938 119.446236 
L 158.748939 119.446236 
L 160.162939 118.123479 
L 162.990941 118.123479 
L 164.404941 116.805047 
L 167.232943 116.805047 
L 168.646943 115.63299 
L 171.474945 115.63299 
L 172.888945 113.040606 
L 175.716946 113.040606 
L 177.130947 112.496823 
L 179.958948 112.496823 
L 181.372949 111.235722 
L 184.20095 111.235722 
L 185.614951 110.591095 
L 188.442952 110.591095 
L 189.856953 107.773685 
L 192.684954 107.773685 
L 194.098955 104.707658 
L 196.926956 104.707658 
L 198.340957 101.010385 
L 201.168958 101.010385 
L 202.582959 96.995086 
L 205.41096 96.995086 
L 206.82496 94.120923 
L 209.652962 94.120923 
L 211.066962 90.612541 
L 213.894964 90.612541 
L 215.308964 91.004475 
L 218.136965 91.004475 
L 219.550966 88.063061 
L 222.378967 88.063061 
L 223.792968 85.010615 
L 226.620969 85.010615 
L 228.03497 80.87323 
L 230.862971 80.87323 
L 232.276972 84.5105 
L 235.104973 84.5105 
L 236.518974 84.228247 
L 239.346975 84.228247 
L 240.760976 83.838443 
L 243.588977 83.838443 
L 245.002977 82.766637 
L 247.830979 82.766637 
L 249.244979 83.401325 
L 252.072981 83.401325 
L 253.486981 84.954575 
L 256.314983 84.954575 
L 257.728983 84.22327 
L 260.556984 84.22327 
L 261.970985 83.9564 
L 264.798986 83.9564 
L 266.212987 85.267708 
L 269.040988 85.267708 
L 270.454989 85.589579 
L 273.28299 85.589579 
L 274.696991 86.451216 
L 277.524992 86.451216 
L 278.938993 86.618031 
L 281.766994 86.618031 
L 283.180995 88.167096 
L 286.008996 88.167096 
L 287.422996 87.913155 
L 290.250998 87.913155 
L 291.664998 87.711281 
L 294.493 87.711281 
L 295.907 88.113859 
L 298.735002 88.113859 
L 300.149002 89.009005 
L 302.977003 89.009005 
L 304.391004 88.780797 
L 307.219005 88.780797 
L 308.633006 90.125823 
L 315.703009 90.188524 
L 317.11701 90.790483 
L 319.945011 90.790483 
L 321.359012 91.061982 
L 324.187013 91.061982 
L 325.601014 91.704204 
L 328.429015 91.704204 
L 329.843015 91.518884 
L 332.671017 91.518884 
L 334.085017 91.918602 
L 336.913019 91.918602 
L 338.327019 91.779015 
L 341.155021 91.779015 
L 342.569021 91.31044 
L 345.397022 91.31044 
L 346.811023 91.041574 
L 349.639024 91.041574 
L 351.053025 91.560079 
L 358.123028 91.499934 
L 359.537029 91.287439 
L 366.607032 91.382073 
L 369.435033 91.452728 
L 375.091036 91.389032 
L 379.333038 91.336349 
L 380.747038 90.829345 
L 383.57504 90.829345 
L 384.98904 91.189635 
L 387.817041 91.189635 
L 389.231042 90.877576 
L 392.059043 90.877576 
L 393.473044 91.10202 
L 400.543047 91.062601 
L 401.957048 90.895883 
L 404.785049 90.895883 
L 406.19905 90.360531 
L 417.511055 90.298223 
L 418.925055 90.669022 
L 421.753057 90.669022 
L 423.167057 90.535522 
L 430.23706 90.541383 
L 431.651061 90.733706 
L 442.963066 90.821161 
L 444.377067 91.063447 
L 447.205068 91.063447 
L 448.619069 90.911975 
L 451.44707 90.911975 
L 452.861071 91.79516 
L 455.689072 91.79516 
L 457.103073 91.956526 
L 459.931074 91.956526 
L 461.345074 93.507271 
L 464.173076 93.507271 
L 465.587076 93.839284 
L 468.415078 93.839284 
L 469.829078 95.544488 
L 472.657079 95.544488 
L 474.07108 96.269316 
L 476.899081 96.269316 
L 478.313082 100.77114 
L 481.141083 100.77114 
L 482.555084 102.718025 
L 485.383085 102.718025 
L 486.797086 105.861305 
L 489.625087 105.861305 
L 491.039088 106.825985 
L 493.867089 106.825985 
L 495.28109 109.829455 
L 498.109091 109.829455 
L 498.109091 109.829455 
" style="fill:none;stroke:#ff7f0e;stroke-linecap:round;stroke-width:1.75;"/>
   </g>
   <g id="line2d_30">
    <path clip-path="url(#p88abb19b55)" d="M 92.290909 128.094592 
L 95.11891 128.094592 
L 96.532911 128.93813 
L 103.602914 128.988005 
L 105.016915 129.653434 
L 107.844916 129.653434 
L 109.258917 129.816365 
L 112.086918 129.816365 
L 113.500919 130.133721 
L 116.32892 130.133721 
L 117.74292 130.413654 
L 120.570922 130.413654 
L 121.984922 130.687582 
L 124.812924 130.687582 
L 126.226924 130.8085 
L 129.054926 130.8085 
L 130.468926 131.316729 
L 133.296927 131.316729 
L 134.710928 131.725541 
L 154.506937 131.743849 
L 155.920938 133.125882 
L 158.748939 133.125882 
L 160.162939 132.634648 
L 167.232943 132.547851 
L 168.646943 132.412517 
L 171.474945 132.412517 
L 172.888945 131.641151 
L 175.716946 131.641151 
L 177.130947 131.373169 
L 184.20095 131.457937 
L 185.614951 131.162705 
L 188.442952 131.162705 
L 189.856953 129.693165 
L 192.684954 129.693165 
L 194.098955 128.633769 
L 196.926956 128.633769 
L 198.340957 127.666294 
L 201.168958 127.666294 
L 202.582959 126.62654 
L 205.41096 126.62654 
L 206.82496 125.26077 
L 209.652962 125.26077 
L 211.066962 124.458848 
L 213.894964 124.458848 
L 215.308964 124.169015 
L 218.136965 124.169015 
L 219.550966 123.171613 
L 226.620969 123.100816 
L 228.03497 121.879616 
L 230.862971 121.879616 
L 232.276972 122.851053 
L 239.346975 122.799019 
L 240.760976 122.235846 
L 247.830979 122.24773 
L 249.244979 122.548966 
L 260.556984 122.567663 
L 261.970985 122.734709 
L 273.28299 122.698386 
L 274.696991 122.469688 
L 277.524992 122.469688 
L 278.938993 122.665029 
L 281.766994 122.665029 
L 283.180995 123.035138 
L 286.008996 123.035138 
L 287.422996 123.215468 
L 294.493 123.154188 
L 295.907 123.378429 
L 298.735002 123.378429 
L 300.149002 123.823266 
L 307.219005 123.813664 
L 308.633006 124.007373 
L 311.461007 124.007373 
L 312.875008 124.1493 
L 324.187013 124.109467 
L 325.601014 124.395738 
L 341.155021 124.368526 
L 342.569021 123.960246 
L 345.397022 123.960246 
L 346.811023 124.15096 
L 349.639024 124.15096 
L 351.053025 124.347798 
L 358.123028 124.267763 
L 360.951029 124.175385 
L 366.607032 124.192587 
L 368.021033 124.460498 
L 370.849034 124.460498 
L 372.263034 124.16094 
L 375.091036 124.16094 
L 376.505036 124.334092 
L 387.817041 124.405598 
L 390.645043 124.49303 
L 392.059043 124.49303 
L 393.473044 124.636317 
L 400.543047 124.597721 
L 401.957048 124.473634 
L 417.511055 124.397023 
L 423.167057 124.344492 
L 438.721064 124.40504 
L 440.135065 124.526841 
L 447.205068 124.476311 
L 450.033069 124.383535 
L 451.44707 124.383535 
L 452.861071 124.519531 
L 459.931074 124.580424 
L 461.345074 125.010504 
L 464.173076 125.010504 
L 465.587076 125.241157 
L 468.415078 125.241157 
L 469.829078 125.894546 
L 472.657079 125.894546 
L 474.07108 126.232808 
L 476.899081 126.232808 
L 478.313082 127.642389 
L 481.141083 127.642389 
L 482.555084 127.996313 
L 485.383085 127.996313 
L 486.797086 129.205649 
L 489.625087 129.205649 
L 491.039088 129.555309 
L 493.867089 129.555309 
L 495.28109 130.419165 
L 498.109091 130.419165 
L 498.109091 130.419165 
" style="fill:none;stroke:#2ca02c;stroke-linecap:round;stroke-width:1.75;"/>
   </g>
   <g id="line2d_31">
    <path clip-path="url(#p88abb19b55)" d="M 72 136.487439 
L 518.4 136.487439 
" style="fill:none;stroke:#000000;stroke-dasharray:2,3.3;stroke-dashoffset:0;stroke-width:2;"/>
   </g>
   <g id="patch_3">
    <path d="M 72 137.202353 
L 72 47.52 
" style="fill:none;"/>
   </g>
   <g id="patch_4">
    <path d="M 518.4 137.202353 
L 518.4 47.52 
" style="fill:none;"/>
   </g>
   <g id="patch_5">
    <path d="M 72 137.202353 
L 518.4 137.202353 
" style="fill:none;"/>
   </g>
   <g id="patch_6">
    <path d="M 72 47.52 
L 518.4 47.52 
" style="fill:none;"/>
   </g>
   <g id="text_6">
    <!-- Heat flows [W] -->
    <defs>
     <path d="M 8.015625 0 
L 8.015625 71.578125 
L 17.484375 71.578125 
L 17.484375 42.1875 
L 54.6875 42.1875 
L 54.6875 71.578125 
L 64.15625 71.578125 
L 64.15625 0 
L 54.6875 0 
L 54.6875 33.734375 
L 17.484375 33.734375 
L 17.484375 0 
z
" id="ArialMT-72"/>
     <path d="M 40.4375 6.390625 
Q 35.546875 2.25 31.03125 0.53125 
Q 26.515625 -1.171875 21.34375 -1.171875 
Q 12.796875 -1.171875 8.203125 3 
Q 3.609375 7.171875 3.609375 13.671875 
Q 3.609375 17.484375 5.34375 20.625 
Q 7.078125 23.78125 9.890625 25.6875 
Q 12.703125 27.59375 16.21875 28.5625 
Q 18.796875 29.25 24.03125 29.890625 
Q 34.671875 31.15625 39.703125 32.90625 
Q 39.75 34.71875 39.75 35.203125 
Q 39.75 40.578125 37.25 42.78125 
Q 33.890625 45.75 27.25 45.75 
Q 21.046875 45.75 18.09375 43.578125 
Q 15.140625 41.40625 13.71875 35.890625 
L 5.125 37.0625 
Q 6.296875 42.578125 8.984375 45.96875 
Q 11.671875 49.359375 16.75 51.1875 
Q 21.828125 53.03125 28.515625 53.03125 
Q 35.15625 53.03125 39.296875 51.46875 
Q 43.453125 49.90625 45.40625 47.53125 
Q 47.359375 45.171875 48.140625 41.546875 
Q 48.578125 39.3125 48.578125 33.453125 
L 48.578125 21.734375 
Q 48.578125 9.46875 49.140625 6.21875 
Q 49.703125 2.984375 51.375 0 
L 42.1875 0 
Q 40.828125 2.734375 40.4375 6.390625 
z
M 39.703125 26.03125 
Q 34.90625 24.078125 25.34375 22.703125 
Q 19.921875 21.921875 17.671875 20.9375 
Q 15.4375 19.96875 14.203125 18.09375 
Q 12.984375 16.21875 12.984375 13.921875 
Q 12.984375 10.40625 15.640625 8.0625 
Q 18.3125 5.71875 23.4375 5.71875 
Q 28.515625 5.71875 32.46875 7.9375 
Q 36.421875 10.15625 38.28125 14.015625 
Q 39.703125 17 39.703125 22.796875 
z
" id="ArialMT-97"/>
     <path d="M 25.78125 7.859375 
L 27.046875 0.09375 
Q 23.34375 -0.6875 20.40625 -0.6875 
Q 15.625 -0.6875 12.984375 0.828125 
Q 10.359375 2.34375 9.28125 4.8125 
Q 8.203125 7.28125 8.203125 15.1875 
L 8.203125 45.015625 
L 1.765625 45.015625 
L 1.765625 51.859375 
L 8.203125 51.859375 
L 8.203125 64.703125 
L 16.9375 69.96875 
L 16.9375 51.859375 
L 25.78125 51.859375 
L 25.78125 45.015625 
L 16.9375 45.015625 
L 16.9375 14.703125 
Q 16.9375 10.9375 17.40625 9.859375 
Q 17.875 8.796875 18.921875 8.15625 
Q 19.96875 7.515625 21.921875 7.515625 
Q 23.390625 7.515625 25.78125 7.859375 
z
" id="ArialMT-116"/>
     <path id="ArialMT-32"/>
     <path d="M 8.6875 0 
L 8.6875 45.015625 
L 0.921875 45.015625 
L 0.921875 51.859375 
L 8.6875 51.859375 
L 8.6875 57.375 
Q 8.6875 62.59375 9.625 65.140625 
Q 10.890625 68.5625 14.078125 70.671875 
Q 17.28125 72.796875 23.046875 72.796875 
Q 26.765625 72.796875 31.25 71.921875 
L 29.9375 64.265625 
Q 27.203125 64.75 24.75 64.75 
Q 20.75 64.75 19.09375 63.03125 
Q 17.4375 61.328125 17.4375 56.640625 
L 17.4375 51.859375 
L 27.546875 51.859375 
L 27.546875 45.015625 
L 17.4375 45.015625 
L 17.4375 0 
z
" id="ArialMT-102"/>
     <path d="M 6.390625 0 
L 6.390625 71.578125 
L 15.1875 71.578125 
L 15.1875 0 
z
" id="ArialMT-108"/>
     <path d="M 3.328125 25.921875 
Q 3.328125 40.328125 11.328125 47.265625 
Q 18.015625 53.03125 27.640625 53.03125 
Q 38.328125 53.03125 45.109375 46.015625 
Q 51.90625 39.015625 51.90625 26.65625 
Q 51.90625 16.65625 48.90625 10.90625 
Q 45.90625 5.171875 40.15625 2 
Q 34.421875 -1.171875 27.640625 -1.171875 
Q 16.75 -1.171875 10.03125 5.8125 
Q 3.328125 12.796875 3.328125 25.921875 
z
M 12.359375 25.921875 
Q 12.359375 15.96875 16.703125 11.015625 
Q 21.046875 6.0625 27.640625 6.0625 
Q 34.1875 6.0625 38.53125 11.03125 
Q 42.875 16.015625 42.875 26.21875 
Q 42.875 35.84375 38.5 40.796875 
Q 34.125 45.75 27.640625 45.75 
Q 21.046875 45.75 16.703125 40.8125 
Q 12.359375 35.890625 12.359375 25.921875 
z
" id="ArialMT-111"/>
     <path d="M 16.15625 0 
L 0.296875 51.859375 
L 9.375 51.859375 
L 17.625 21.921875 
L 20.703125 10.796875 
Q 20.90625 11.625 23.390625 21.484375 
L 31.640625 51.859375 
L 40.671875 51.859375 
L 48.4375 21.78125 
L 51.03125 11.859375 
L 54 21.875 
L 62.890625 51.859375 
L 71.4375 51.859375 
L 55.21875 0 
L 46.09375 0 
L 37.84375 31.0625 
L 35.84375 39.890625 
L 25.34375 0 
z
" id="ArialMT-119"/>
     <path d="M 3.078125 15.484375 
L 11.765625 16.84375 
Q 12.5 11.625 15.84375 8.84375 
Q 19.1875 6.0625 25.203125 6.0625 
Q 31.25 6.0625 34.171875 8.515625 
Q 37.109375 10.984375 37.109375 14.3125 
Q 37.109375 17.28125 34.515625 19 
Q 32.71875 20.171875 25.53125 21.96875 
Q 15.875 24.421875 12.140625 26.203125 
Q 8.40625 27.984375 6.46875 31.125 
Q 4.546875 34.28125 4.546875 38.09375 
Q 4.546875 41.546875 6.125 44.5 
Q 7.71875 47.46875 10.453125 49.421875 
Q 12.5 50.921875 16.03125 51.96875 
Q 19.578125 53.03125 23.640625 53.03125 
Q 29.734375 53.03125 34.34375 51.265625 
Q 38.96875 49.515625 41.15625 46.5 
Q 43.359375 43.5 44.1875 38.484375 
L 35.59375 37.3125 
Q 35.015625 41.3125 32.203125 43.546875 
Q 29.390625 45.796875 24.265625 45.796875 
Q 18.21875 45.796875 15.625 43.796875 
Q 13.03125 41.796875 13.03125 39.109375 
Q 13.03125 37.40625 14.109375 36.03125 
Q 15.1875 34.625 17.484375 33.6875 
Q 18.796875 33.203125 25.25 31.453125 
Q 34.578125 28.953125 38.25 27.359375 
Q 41.9375 25.78125 44.03125 22.75 
Q 46.140625 19.734375 46.140625 15.234375 
Q 46.140625 10.84375 43.578125 6.953125 
Q 41.015625 3.078125 36.171875 0.953125 
Q 31.34375 -1.171875 25.25 -1.171875 
Q 15.140625 -1.171875 9.84375 3.03125 
Q 4.546875 7.234375 3.078125 15.484375 
z
" id="ArialMT-115"/>
     <path d="M 6.78125 -19.875 
L 6.78125 71.578125 
L 26.171875 71.578125 
L 26.171875 64.3125 
L 15.578125 64.3125 
L 15.578125 -12.59375 
L 26.171875 -12.59375 
L 26.171875 -19.875 
z
" id="ArialMT-91"/>
     <path d="M 20.21875 0 
L 1.21875 71.578125 
L 10.9375 71.578125 
L 21.828125 24.65625 
Q 23.578125 17.28125 24.859375 10.015625 
Q 27.59375 21.484375 28.078125 23.25 
L 41.703125 71.578125 
L 53.125 71.578125 
L 63.375 35.359375 
Q 67.234375 21.875 68.953125 10.015625 
Q 70.3125 16.796875 72.515625 25.59375 
L 83.734375 71.578125 
L 93.265625 71.578125 
L 73.640625 0 
L 64.5 0 
L 49.421875 54.546875 
Q 47.515625 61.375 47.171875 62.9375 
Q 46.046875 58.015625 45.0625 54.546875 
L 29.890625 0 
z
" id="ArialMT-87"/>
     <path d="M 21.296875 -19.875 
L 1.90625 -19.875 
L 1.90625 -12.59375 
L 12.5 -12.59375 
L 12.5 64.3125 
L 1.90625 64.3125 
L 1.90625 71.578125 
L 21.296875 71.578125 
z
" id="ArialMT-93"/>
    </defs>
    <g style="fill:#262626;" transform="translate(256.52625 41.52)scale(0.12 -0.12)">
     <use xlink:href="#ArialMT-72"/>
     <use x="72.216797" xlink:href="#ArialMT-101"/>
     <use x="127.832031" xlink:href="#ArialMT-97"/>
     <use x="183.447266" xlink:href="#ArialMT-116"/>
     <use x="211.230469" xlink:href="#ArialMT-32"/>
     <use x="239.013672" xlink:href="#ArialMT-102"/>
     <use x="266.796875" xlink:href="#ArialMT-108"/>
     <use x="289.013672" xlink:href="#ArialMT-111"/>
     <use x="344.628906" xlink:href="#ArialMT-119"/>
     <use x="416.845703" xlink:href="#ArialMT-115"/>
     <use x="466.845703" xlink:href="#ArialMT-32"/>
     <use x="494.628906" xlink:href="#ArialMT-91"/>
     <use x="522.412109" xlink:href="#ArialMT-87"/>
     <use x="616.796875" xlink:href="#ArialMT-93"/>
    </g>
   </g>
   <g id="legend_1">
    <g id="line2d_32">
     <path d="M 81 60.177812 
L 101 60.177812 
" style="fill:none;stroke:#1f77b4;stroke-linecap:round;stroke-width:1.75;"/>
    </g>
    <g id="line2d_33"/>
    <g id="text_7">
     <!-- Producer -->
     <defs>
      <path d="M 7.71875 0 
L 7.71875 71.578125 
L 34.71875 71.578125 
Q 41.84375 71.578125 45.609375 70.90625 
Q 50.875 70.015625 54.4375 67.546875 
Q 58.015625 65.09375 60.1875 60.640625 
Q 62.359375 56.203125 62.359375 50.875 
Q 62.359375 41.75 56.546875 35.421875 
Q 50.734375 29.109375 35.546875 29.109375 
L 17.1875 29.109375 
L 17.1875 0 
z
M 17.1875 37.546875 
L 35.6875 37.546875 
Q 44.875 37.546875 48.734375 40.96875 
Q 52.59375 44.390625 52.59375 50.59375 
Q 52.59375 55.078125 50.3125 58.265625 
Q 48.046875 61.46875 44.34375 62.5 
Q 41.9375 63.140625 35.5 63.140625 
L 17.1875 63.140625 
z
" id="ArialMT-80"/>
      <path d="M 6.5 0 
L 6.5 51.859375 
L 14.40625 51.859375 
L 14.40625 44 
Q 17.4375 49.515625 20 51.265625 
Q 22.5625 53.03125 25.640625 53.03125 
Q 30.078125 53.03125 34.671875 50.203125 
L 31.640625 42.046875 
Q 28.421875 43.953125 25.203125 43.953125 
Q 22.3125 43.953125 20.015625 42.21875 
Q 17.71875 40.484375 16.75 37.40625 
Q 15.28125 32.71875 15.28125 27.15625 
L 15.28125 0 
z
" id="ArialMT-114"/>
      <path d="M 40.234375 0 
L 40.234375 6.546875 
Q 35.296875 -1.171875 25.734375 -1.171875 
Q 19.53125 -1.171875 14.328125 2.25 
Q 9.125 5.671875 6.265625 11.796875 
Q 3.421875 17.921875 3.421875 25.875 
Q 3.421875 33.640625 6 39.96875 
Q 8.59375 46.296875 13.765625 49.65625 
Q 18.953125 53.03125 25.34375 53.03125 
Q 30.03125 53.03125 33.6875 51.046875 
Q 37.359375 49.078125 39.65625 45.90625 
L 39.65625 71.578125 
L 48.390625 71.578125 
L 48.390625 0 
z
M 12.453125 25.875 
Q 12.453125 15.921875 16.640625 10.984375 
Q 20.84375 6.0625 26.5625 6.0625 
Q 32.328125 6.0625 36.34375 10.765625 
Q 40.375 15.484375 40.375 25.140625 
Q 40.375 35.796875 36.265625 40.765625 
Q 32.171875 45.75 26.171875 45.75 
Q 20.3125 45.75 16.375 40.96875 
Q 12.453125 36.1875 12.453125 25.875 
z
" id="ArialMT-100"/>
      <path d="M 40.578125 0 
L 40.578125 7.625 
Q 34.515625 -1.171875 24.125 -1.171875 
Q 19.53125 -1.171875 15.546875 0.578125 
Q 11.578125 2.34375 9.640625 5 
Q 7.71875 7.671875 6.9375 11.53125 
Q 6.390625 14.109375 6.390625 19.734375 
L 6.390625 51.859375 
L 15.1875 51.859375 
L 15.1875 23.09375 
Q 15.1875 16.21875 15.71875 13.8125 
Q 16.546875 10.359375 19.234375 8.375 
Q 21.921875 6.390625 25.875 6.390625 
Q 29.828125 6.390625 33.296875 8.421875 
Q 36.765625 10.453125 38.203125 13.9375 
Q 39.65625 17.4375 39.65625 24.078125 
L 39.65625 51.859375 
L 48.4375 51.859375 
L 48.4375 0 
z
" id="ArialMT-117"/>
      <path d="M 40.4375 19 
L 49.078125 17.875 
Q 47.65625 8.9375 41.8125 3.875 
Q 35.984375 -1.171875 27.484375 -1.171875 
Q 16.84375 -1.171875 10.375 5.78125 
Q 3.90625 12.75 3.90625 25.734375 
Q 3.90625 34.125 6.6875 40.421875 
Q 9.46875 46.734375 15.15625 49.875 
Q 20.84375 53.03125 27.546875 53.03125 
Q 35.984375 53.03125 41.359375 48.75 
Q 46.734375 44.484375 48.25 36.625 
L 39.703125 35.296875 
Q 38.484375 40.53125 35.375 43.15625 
Q 32.28125 45.796875 27.875 45.796875 
Q 21.234375 45.796875 17.078125 41.03125 
Q 12.9375 36.28125 12.9375 25.984375 
Q 12.9375 15.53125 16.9375 10.796875 
Q 20.953125 6.0625 27.390625 6.0625 
Q 32.5625 6.0625 36.03125 9.234375 
Q 39.5 12.40625 40.4375 19 
z
" id="ArialMT-99"/>
     </defs>
     <g style="fill:#262626;" transform="translate(109 63.677812)scale(0.1 -0.1)">
      <use xlink:href="#ArialMT-80"/>
      <use x="66.699219" xlink:href="#ArialMT-114"/>
      <use x="100" xlink:href="#ArialMT-111"/>
      <use x="155.615234" xlink:href="#ArialMT-100"/>
      <use x="211.230469" xlink:href="#ArialMT-117"/>
      <use x="266.845703" xlink:href="#ArialMT-99"/>
      <use x="316.845703" xlink:href="#ArialMT-101"/>
      <use x="372.460938" xlink:href="#ArialMT-114"/>
     </g>
    </g>
    <g id="line2d_34">
     <path d="M 81 74.323125 
L 101 74.323125 
" style="fill:none;stroke:#000000;stroke-dasharray:1.75,2.8875;stroke-dashoffset:0;stroke-width:1.75;"/>
    </g>
    <g id="line2d_35"/>
    <g id="text_8">
     <!-- All users -->
     <defs>
      <path d="M -0.140625 0 
L 27.34375 71.578125 
L 37.546875 71.578125 
L 66.84375 0 
L 56.0625 0 
L 47.703125 21.6875 
L 17.78125 21.6875 
L 9.90625 0 
z
M 20.515625 29.390625 
L 44.78125 29.390625 
L 37.3125 49.21875 
Q 33.890625 58.25 32.234375 64.0625 
Q 30.859375 57.171875 28.375 50.390625 
z
" id="ArialMT-65"/>
     </defs>
     <g style="fill:#262626;" transform="translate(109 77.823125)scale(0.1 -0.1)">
      <use xlink:href="#ArialMT-65"/>
      <use x="66.699219" xlink:href="#ArialMT-108"/>
      <use x="88.916016" xlink:href="#ArialMT-108"/>
      <use x="111.132812" xlink:href="#ArialMT-32"/>
      <use x="138.916016" xlink:href="#ArialMT-117"/>
      <use x="194.53125" xlink:href="#ArialMT-115"/>
      <use x="244.53125" xlink:href="#ArialMT-101"/>
      <use x="300.146484" xlink:href="#ArialMT-114"/>
      <use x="333.447266" xlink:href="#ArialMT-115"/>
     </g>
    </g>
    <g id="line2d_36">
     <path d="M 81 88.468437 
L 101 88.468437 
" style="fill:none;stroke:#ff7f0e;stroke-linecap:round;stroke-width:1.75;"/>
    </g>
    <g id="line2d_37"/>
    <g id="text_9">
     <!-- WaterscheiGarden -->
     <defs>
      <path d="M 6.59375 0 
L 6.59375 71.578125 
L 15.375 71.578125 
L 15.375 45.90625 
Q 21.53125 53.03125 30.90625 53.03125 
Q 36.671875 53.03125 40.921875 50.75 
Q 45.171875 48.484375 47 44.484375 
Q 48.828125 40.484375 48.828125 32.859375 
L 48.828125 0 
L 40.046875 0 
L 40.046875 32.859375 
Q 40.046875 39.453125 37.1875 42.453125 
Q 34.328125 45.453125 29.109375 45.453125 
Q 25.203125 45.453125 21.75 43.421875 
Q 18.3125 41.40625 16.84375 37.9375 
Q 15.375 34.46875 15.375 28.375 
L 15.375 0 
z
" id="ArialMT-104"/>
      <path d="M 6.640625 61.46875 
L 6.640625 71.578125 
L 15.4375 71.578125 
L 15.4375 61.46875 
z
M 6.640625 0 
L 6.640625 51.859375 
L 15.4375 51.859375 
L 15.4375 0 
z
" id="ArialMT-105"/>
      <path d="M 41.21875 28.078125 
L 41.21875 36.46875 
L 71.53125 36.53125 
L 71.53125 9.96875 
Q 64.546875 4.390625 57.125 1.578125 
Q 49.703125 -1.21875 41.890625 -1.21875 
Q 31.34375 -1.21875 22.71875 3.296875 
Q 14.109375 7.8125 9.71875 16.359375 
Q 5.328125 24.90625 5.328125 35.453125 
Q 5.328125 45.90625 9.6875 54.953125 
Q 14.0625 64.015625 22.265625 68.40625 
Q 30.46875 72.796875 41.15625 72.796875 
Q 48.921875 72.796875 55.1875 70.28125 
Q 61.46875 67.78125 65.03125 63.28125 
Q 68.609375 58.796875 70.453125 51.5625 
L 61.921875 49.21875 
Q 60.296875 54.6875 57.90625 57.8125 
Q 55.515625 60.9375 51.0625 62.8125 
Q 46.625 64.703125 41.21875 64.703125 
Q 34.71875 64.703125 29.984375 62.71875 
Q 25.25 60.75 22.34375 57.515625 
Q 19.4375 54.296875 17.828125 50.4375 
Q 15.09375 43.796875 15.09375 36.03125 
Q 15.09375 26.46875 18.390625 20.015625 
Q 21.6875 13.578125 27.984375 10.453125 
Q 34.28125 7.328125 41.359375 7.328125 
Q 47.515625 7.328125 53.375 9.6875 
Q 59.234375 12.0625 62.25 14.75 
L 62.25 28.078125 
z
" id="ArialMT-71"/>
      <path d="M 6.59375 0 
L 6.59375 51.859375 
L 14.5 51.859375 
L 14.5 44.484375 
Q 20.21875 53.03125 31 53.03125 
Q 35.6875 53.03125 39.625 51.34375 
Q 43.5625 49.65625 45.515625 46.921875 
Q 47.46875 44.1875 48.25 40.4375 
Q 48.734375 37.984375 48.734375 31.890625 
L 48.734375 0 
L 39.9375 0 
L 39.9375 31.546875 
Q 39.9375 36.921875 38.90625 39.578125 
Q 37.890625 42.234375 35.28125 43.8125 
Q 32.671875 45.40625 29.15625 45.40625 
Q 23.53125 45.40625 19.453125 41.84375 
Q 15.375 38.28125 15.375 28.328125 
L 15.375 0 
z
" id="ArialMT-110"/>
     </defs>
     <g style="fill:#262626;" transform="translate(109 91.968437)scale(0.1 -0.1)">
      <use xlink:href="#ArialMT-87"/>
      <use x="94.337891" xlink:href="#ArialMT-97"/>
      <use x="149.953125" xlink:href="#ArialMT-116"/>
      <use x="177.736328" xlink:href="#ArialMT-101"/>
      <use x="233.351562" xlink:href="#ArialMT-114"/>
      <use x="266.652344" xlink:href="#ArialMT-115"/>
      <use x="316.652344" xlink:href="#ArialMT-99"/>
      <use x="366.652344" xlink:href="#ArialMT-104"/>
      <use x="422.267578" xlink:href="#ArialMT-101"/>
      <use x="477.882812" xlink:href="#ArialMT-105"/>
      <use x="500.099609" xlink:href="#ArialMT-71"/>
      <use x="577.882812" xlink:href="#ArialMT-97"/>
      <use x="633.498047" xlink:href="#ArialMT-114"/>
      <use x="666.798828" xlink:href="#ArialMT-100"/>
      <use x="722.414062" xlink:href="#ArialMT-101"/>
      <use x="778.029297" xlink:href="#ArialMT-110"/>
     </g>
    </g>
    <g id="line2d_38">
     <path d="M 81 102.61375 
L 101 102.61375 
" style="fill:none;stroke:#2ca02c;stroke-linecap:round;stroke-width:1.75;"/>
    </g>
    <g id="line2d_39"/>
    <g id="text_10">
     <!-- ZwartbergNEast -->
     <defs>
      <path d="M 2 0 
L 2 8.796875 
L 38.671875 54.640625 
Q 42.578125 59.515625 46.09375 63.140625 
L 6.15625 63.140625 
L 6.15625 71.578125 
L 57.421875 71.578125 
L 57.421875 63.140625 
L 17.234375 13.484375 
L 12.890625 8.453125 
L 58.59375 8.453125 
L 58.59375 0 
z
" id="ArialMT-90"/>
      <path d="M 14.703125 0 
L 6.546875 0 
L 6.546875 71.578125 
L 15.328125 71.578125 
L 15.328125 46.046875 
Q 20.90625 53.03125 29.546875 53.03125 
Q 34.328125 53.03125 38.59375 51.09375 
Q 42.875 49.171875 45.625 45.671875 
Q 48.390625 42.1875 49.953125 37.25 
Q 51.515625 32.328125 51.515625 26.703125 
Q 51.515625 13.375 44.921875 6.09375 
Q 38.328125 -1.171875 29.109375 -1.171875 
Q 19.921875 -1.171875 14.703125 6.5 
z
M 14.59375 26.3125 
Q 14.59375 17 17.140625 12.84375 
Q 21.296875 6.0625 28.375 6.0625 
Q 34.125 6.0625 38.328125 11.0625 
Q 42.53125 16.0625 42.53125 25.984375 
Q 42.53125 36.140625 38.5 40.96875 
Q 34.46875 45.796875 28.765625 45.796875 
Q 23 45.796875 18.796875 40.796875 
Q 14.59375 35.796875 14.59375 26.3125 
z
" id="ArialMT-98"/>
      <path d="M 4.984375 -4.296875 
L 13.53125 -5.5625 
Q 14.0625 -9.515625 16.5 -11.328125 
Q 19.78125 -13.765625 25.4375 -13.765625 
Q 31.546875 -13.765625 34.859375 -11.328125 
Q 38.1875 -8.890625 39.359375 -4.5 
Q 40.046875 -1.8125 39.984375 6.78125 
Q 34.234375 0 25.640625 0 
Q 14.9375 0 9.078125 7.71875 
Q 3.21875 15.4375 3.21875 26.21875 
Q 3.21875 33.640625 5.90625 39.90625 
Q 8.59375 46.1875 13.6875 49.609375 
Q 18.796875 53.03125 25.6875 53.03125 
Q 34.859375 53.03125 40.828125 45.609375 
L 40.828125 51.859375 
L 48.921875 51.859375 
L 48.921875 7.03125 
Q 48.921875 -5.078125 46.453125 -10.125 
Q 44 -15.1875 38.640625 -18.109375 
Q 33.296875 -21.046875 25.484375 -21.046875 
Q 16.21875 -21.046875 10.5 -16.875 
Q 4.78125 -12.703125 4.984375 -4.296875 
z
M 12.25 26.859375 
Q 12.25 16.65625 16.296875 11.96875 
Q 20.359375 7.28125 26.46875 7.28125 
Q 32.515625 7.28125 36.609375 11.9375 
Q 40.71875 16.609375 40.71875 26.5625 
Q 40.71875 36.078125 36.5 40.90625 
Q 32.28125 45.75 26.3125 45.75 
Q 20.453125 45.75 16.34375 40.984375 
Q 12.25 36.234375 12.25 26.859375 
z
" id="ArialMT-103"/>
      <path d="M 7.625 0 
L 7.625 71.578125 
L 17.328125 71.578125 
L 54.9375 15.375 
L 54.9375 71.578125 
L 64.015625 71.578125 
L 64.015625 0 
L 54.296875 0 
L 16.703125 56.25 
L 16.703125 0 
z
" id="ArialMT-78"/>
      <path d="M 7.90625 0 
L 7.90625 71.578125 
L 59.671875 71.578125 
L 59.671875 63.140625 
L 17.390625 63.140625 
L 17.390625 41.21875 
L 56.984375 41.21875 
L 56.984375 32.8125 
L 17.390625 32.8125 
L 17.390625 8.453125 
L 61.328125 8.453125 
L 61.328125 0 
z
" id="ArialMT-69"/>
     </defs>
     <g style="fill:#262626;" transform="translate(109 106.11375)scale(0.1 -0.1)">
      <use xlink:href="#ArialMT-90"/>
      <use x="61.083984" xlink:href="#ArialMT-119"/>
      <use x="133.300781" xlink:href="#ArialMT-97"/>
      <use x="188.916016" xlink:href="#ArialMT-114"/>
      <use x="222.216797" xlink:href="#ArialMT-116"/>
      <use x="250" xlink:href="#ArialMT-98"/>
      <use x="305.615234" xlink:href="#ArialMT-101"/>
      <use x="361.230469" xlink:href="#ArialMT-114"/>
      <use x="394.53125" xlink:href="#ArialMT-103"/>
      <use x="450.146484" xlink:href="#ArialMT-78"/>
      <use x="522.363281" xlink:href="#ArialMT-69"/>
      <use x="589.0625" xlink:href="#ArialMT-97"/>
      <use x="644.677734" xlink:href="#ArialMT-115"/>
      <use x="694.677734" xlink:href="#ArialMT-116"/>
     </g>
    </g>
   </g>
  </g>
  <g id="axes_2">
   <g id="patch_7">
    <path d="M 72 244.821176 
L 518.4 244.821176 
L 518.4 155.138824 
L 72 155.138824 
z
" style="fill:#eaeaf2;"/>
   </g>
   <g id="matplotlib.axis_3">
    <g id="xtick_10">
     <g id="line2d_40">
      <path clip-path="url(#pd260312597)" d="M 92.290909 244.821176 
L 92.290909 155.138824 
" style="fill:none;stroke:#ffffff;stroke-linecap:round;"/>
     </g>
     <g id="line2d_41"/>
    </g>
    <g id="xtick_11">
     <g id="line2d_42">
      <path clip-path="url(#pd260312597)" d="M 143.194932 244.821176 
L 143.194932 155.138824 
" style="fill:none;stroke:#ffffff;stroke-linecap:round;"/>
     </g>
     <g id="line2d_43"/>
    </g>
    <g id="xtick_12">
     <g id="line2d_44">
      <path clip-path="url(#pd260312597)" d="M 194.098955 244.821176 
L 194.098955 155.138824 
" style="fill:none;stroke:#ffffff;stroke-linecap:round;"/>
     </g>
     <g id="line2d_45"/>
    </g>
    <g id="xtick_13">
     <g id="line2d_46">
      <path clip-path="url(#pd260312597)" d="M 245.002977 244.821176 
L 245.002977 155.138824 
" style="fill:none;stroke:#ffffff;stroke-linecap:round;"/>
     </g>
     <g id="line2d_47"/>
    </g>
    <g id="xtick_14">
     <g id="line2d_48">
      <path clip-path="url(#pd260312597)" d="M 295.907 244.821176 
L 295.907 155.138824 
" style="fill:none;stroke:#ffffff;stroke-linecap:round;"/>
     </g>
     <g id="line2d_49"/>
    </g>
    <g id="xtick_15">
     <g id="line2d_50">
      <path clip-path="url(#pd260312597)" d="M 346.811023 244.821176 
L 346.811023 155.138824 
" style="fill:none;stroke:#ffffff;stroke-linecap:round;"/>
     </g>
     <g id="line2d_51"/>
    </g>
    <g id="xtick_16">
     <g id="line2d_52">
      <path clip-path="url(#pd260312597)" d="M 397.715046 244.821176 
L 397.715046 155.138824 
" style="fill:none;stroke:#ffffff;stroke-linecap:round;"/>
     </g>
     <g id="line2d_53"/>
    </g>
    <g id="xtick_17">
     <g id="line2d_54">
      <path clip-path="url(#pd260312597)" d="M 448.619069 244.821176 
L 448.619069 155.138824 
" style="fill:none;stroke:#ffffff;stroke-linecap:round;"/>
     </g>
     <g id="line2d_55"/>
    </g>
    <g id="xtick_18">
     <g id="line2d_56">
      <path clip-path="url(#pd260312597)" d="M 499.523091 244.821176 
L 499.523091 155.138824 
" style="fill:none;stroke:#ffffff;stroke-linecap:round;"/>
     </g>
     <g id="line2d_57"/>
    </g>
   </g>
   <g id="matplotlib.axis_4">
    <g id="ytick_5">
     <g id="line2d_58">
      <path clip-path="url(#pd260312597)" d="M 72 244.478346 
L 518.4 244.478346 
" style="fill:none;stroke:#ffffff;stroke-linecap:round;"/>
     </g>
     <g id="line2d_59"/>
     <g id="text_11">
      <!-- 0 -->
      <g style="fill:#262626;" transform="translate(59.439062 248.057252)scale(0.1 -0.1)">
       <use xlink:href="#ArialMT-48"/>
      </g>
     </g>
    </g>
    <g id="ytick_6">
     <g id="line2d_60">
      <path clip-path="url(#pd260312597)" d="M 72 219.657004 
L 518.4 219.657004 
" style="fill:none;stroke:#ffffff;stroke-linecap:round;"/>
     </g>
     <g id="line2d_61"/>
     <g id="text_12">
      <!-- 100 -->
      <g style="fill:#262626;" transform="translate(48.317188 223.23591)scale(0.1 -0.1)">
       <use xlink:href="#ArialMT-49"/>
       <use x="55.615234" xlink:href="#ArialMT-48"/>
       <use x="111.230469" xlink:href="#ArialMT-48"/>
      </g>
     </g>
    </g>
    <g id="ytick_7">
     <g id="line2d_62">
      <path clip-path="url(#pd260312597)" d="M 72 194.835662 
L 518.4 194.835662 
" style="fill:none;stroke:#ffffff;stroke-linecap:round;"/>
     </g>
     <g id="line2d_63"/>
     <g id="text_13">
      <!-- 200 -->
      <g style="fill:#262626;" transform="translate(48.317188 198.414568)scale(0.1 -0.1)">
       <use xlink:href="#ArialMT-50"/>
       <use x="55.615234" xlink:href="#ArialMT-48"/>
       <use x="111.230469" xlink:href="#ArialMT-48"/>
      </g>
     </g>
    </g>
    <g id="ytick_8">
     <g id="line2d_64">
      <path clip-path="url(#pd260312597)" d="M 72 170.01432 
L 518.4 170.01432 
" style="fill:none;stroke:#ffffff;stroke-linecap:round;"/>
     </g>
     <g id="line2d_65"/>
     <g id="text_14">
      <!-- 300 -->
      <g style="fill:#262626;" transform="translate(48.317188 173.593226)scale(0.1 -0.1)">
       <use xlink:href="#ArialMT-51"/>
       <use x="55.615234" xlink:href="#ArialMT-48"/>
       <use x="111.230469" xlink:href="#ArialMT-48"/>
      </g>
     </g>
    </g>
   </g>
   <g id="line2d_66">
    <path clip-path="url(#pd260312597)" d="M 92.290909 191.959669 
L 95.11891 191.895344 
L 96.532911 193.516705 
L 99.360912 193.475214 
L 100.774913 194.596614 
L 103.602914 194.571866 
L 105.016915 198.375268 
L 107.844916 198.3594 
L 109.258917 199.344697 
L 112.086918 199.33483 
L 113.500919 200.827514 
L 116.32892 200.820566 
L 117.74292 202.470067 
L 120.570922 202.46445 
L 121.984922 203.858585 
L 124.812924 203.853758 
L 126.226924 204.049554 
L 129.054926 204.046225 
L 130.468926 204.840365 
L 133.296927 204.83725 
L 134.710928 206.837667 
L 137.538929 206.833596 
L 138.95293 208.056565 
L 150.264935 208.091783 
L 151.678936 207.547794 
L 154.506937 207.547127 
L 155.920938 221.503135 
L 158.748939 221.493113 
L 160.162939 219.356761 
L 162.990941 219.349475 
L 164.404941 217.674945 
L 167.232943 217.670345 
L 168.646943 216.107641 
L 171.474945 216.105855 
L 172.888945 212.076992 
L 175.716946 212.08137 
L 177.130947 211.108698 
L 179.958948 211.114039 
L 181.372949 209.680145 
L 184.20095 209.686014 
L 185.614951 208.553634 
L 188.442952 208.559604 
L 189.856953 203.351341 
L 192.684954 203.364218 
L 194.098955 198.285548 
L 196.926956 198.302546 
L 198.340957 192.491156 
L 201.168958 192.510946 
L 202.582959 186.142056 
L 205.41096 186.163105 
L 206.82496 180.785637 
L 209.652962 180.804658 
L 211.066962 175.26632 
L 213.894964 175.282547 
L 215.308964 175.430388 
L 218.136965 175.437668 
L 219.550966 170.340674 
L 222.378967 170.349433 
L 223.792968 166.254567 
L 226.620969 166.262554 
L 228.03497 159.215294 
L 230.862971 159.226304 
L 232.276972 165.299838 
L 235.104973 165.298329 
L 236.518974 164.858472 
L 239.346975 164.857849 
L 240.760976 163.619737 
L 243.588977 163.620847 
L 245.002977 162.217905 
L 247.830979 162.219626 
L 249.244979 163.447752 
L 252.072981 163.447267 
L 253.486981 165.458916 
L 256.314983 165.456952 
L 257.728983 164.554847 
L 260.556984 164.554683 
L 261.970985 164.416329 
L 264.798986 164.416363 
L 266.212987 166.177103 
L 269.040988 166.17561 
L 270.454989 166.521317 
L 273.28299 166.520329 
L 274.696991 167.35909 
L 277.524992 167.358042 
L 278.938993 167.827291 
L 281.766994 167.82628 
L 283.180995 170.328462 
L 290.250998 170.221696 
L 291.664998 169.878958 
L 294.493 169.878779 
L 295.907 170.691314 
L 298.735002 170.690442 
L 300.149002 172.424649 
L 302.977003 172.422494 
L 304.391004 172.111843 
L 307.219005 172.111093 
L 308.633006 174.108573 
L 311.461007 174.106415 
L 312.875008 174.366912 
L 315.703009 174.365536 
L 317.11701 175.112138 
L 319.945011 175.110872 
L 321.359012 175.447142 
L 324.187013 175.446241 
L 325.601014 176.640156 
L 328.429015 176.638514 
L 329.843015 176.421629 
L 332.671017 176.421012 
L 334.085017 176.87901 
L 336.913019 176.878375 
L 338.327019 176.698744 
L 341.155021 176.698606 
L 342.569021 175.574866 
L 349.639024 175.470144 
L 351.053025 176.391353 
L 353.881026 176.390694 
L 355.295027 176.211373 
L 358.123028 176.211217 
L 359.537029 175.818949 
L 362.36503 175.819295 
L 363.779031 175.963841 
L 366.607032 175.963881 
L 368.021033 176.394011 
L 370.849034 176.393485 
L 372.263034 175.93214 
L 375.091036 175.932474 
L 376.505036 176.083297 
L 379.333038 176.083236 
L 380.747038 175.520837 
L 383.57504 175.521292 
L 384.98904 175.98398 
L 387.817041 175.983808 
L 389.231042 175.689322 
L 392.059043 175.689434 
L 393.473044 176.161332 
L 400.543047 176.060864 
L 401.957048 175.688028 
L 404.785049 175.688408 
L 406.19905 174.974599 
L 413.269053 174.964042 
L 414.683053 174.817458 
L 417.511055 174.817817 
L 418.925055 175.252472 
L 421.753057 175.252255 
L 423.167057 175.059589 
L 430.23706 175.025579 
L 431.651061 175.290635 
L 434.479062 175.290453 
L 435.893063 175.480767 
L 438.721064 175.480507 
L 440.135065 175.660303 
L 442.963066 175.660099 
L 444.377067 175.910717 
L 447.205068 175.910977 
L 448.619069 175.59824 
L 450.033069 177.423003 
L 451.44707 180.472103 
L 452.861071 184.876039 
L 454.275071 187.828808 
L 457.103073 192.673184 
L 458.517073 194.378387 
L 459.931074 195.762878 
L 461.345074 198.58686 
L 462.759075 199.437498 
L 464.173076 200.13077 
L 465.587076 201.158062 
L 467.001077 201.411106 
L 468.415078 201.265734 
L 469.829078 202.742935 
L 471.243079 201.954033 
L 472.657079 200.894318 
L 474.07108 200.59999 
L 476.899081 197.70992 
L 478.313082 202.217885 
L 481.141083 199.847398 
L 482.555084 201.271109 
L 485.383085 199.496672 
L 486.797086 203.7507 
L 489.625087 202.746071 
L 491.039088 203.892821 
L 493.867089 203.297627 
L 495.28109 207.692826 
L 498.109091 207.403823 
L 498.109091 207.403823 
" style="fill:none;stroke:#1f77b4;stroke-linecap:round;stroke-width:1.75;"/>
   </g>
   <g id="line2d_67">
    <path clip-path="url(#pd260312597)" d="M 92.290909 201.576814 
L 95.11891 201.529548 
L 96.532911 202.137259 
L 99.360912 202.105384 
L 100.774913 203.170378 
L 103.602914 203.151306 
L 105.016915 206.157566 
L 107.844916 206.145499 
L 109.258917 206.937376 
L 112.086918 206.929918 
L 113.500919 208.044892 
L 116.32892 208.039755 
L 117.74292 209.357093 
L 120.570922 209.352954 
L 121.984922 210.422986 
L 129.054926 210.470415 
L 130.468926 210.666222 
L 133.296927 210.664384 
L 134.710928 212.186534 
L 137.538929 212.183827 
L 138.95293 213.401327 
L 141.780931 213.398374 
L 143.194932 213.266201 
L 146.022933 213.264238 
L 147.436934 213.508882 
L 150.264935 213.507417 
L 151.678936 212.880003 
L 154.506937 212.879644 
L 155.920938 225.236775 
L 158.748939 225.228868 
L 160.162939 223.658571 
L 162.990941 223.652506 
L 164.404941 222.078854 
L 167.232943 222.075091 
L 168.646943 220.66948 
L 171.474945 220.66806 
L 172.888945 217.538686 
L 175.716946 217.541648 
L 177.130947 216.882977 
L 179.958948 216.886662 
L 181.372949 215.352457 
L 184.20095 215.357276 
L 185.614951 214.571722 
L 188.442952 214.576264 
L 189.856953 211.115245 
L 192.684954 211.123455 
L 194.098955 207.321357 
L 196.926956 207.332737 
L 198.340957 202.699083 
L 201.168958 202.713171 
L 202.582959 197.622846 
L 205.41096 197.638263 
L 206.82496 193.96052 
L 209.652962 193.973801 
L 211.066962 189.442592 
L 213.894964 189.454553 
L 215.308964 189.967476 
L 218.136965 189.972578 
L 219.550966 186.143001 
L 222.378967 186.149175 
L 223.792968 182.143802 
L 226.620969 182.150303 
L 228.03497 176.670725 
L 230.862971 176.678954 
L 232.276972 181.503082 
L 235.104973 181.502091 
L 236.518974 181.129036 
L 239.346975 181.128584 
L 240.760976 180.613534 
L 243.588977 180.614008 
L 245.002977 179.195551 
L 247.830979 179.196953 
L 249.244979 180.037888 
L 252.072981 180.037672 
L 253.486981 182.088817 
L 256.314983 182.087106 
L 257.728983 181.12173 
L 260.556984 181.121687 
L 261.970985 180.769137 
L 264.798986 180.769352 
L 266.212987 182.499264 
L 269.040988 182.497996 
L 270.454989 182.921285 
L 273.28299 182.920397 
L 274.696991 184.052694 
L 277.524992 184.051559 
L 278.938993 184.270132 
L 281.766994 184.269394 
L 283.180995 186.297905 
L 286.008996 186.295848 
L 287.422996 185.963061 
L 290.250998 185.962243 
L 291.664998 185.697865 
L 294.493 185.697756 
L 295.907 186.224261 
L 298.735002 186.223716 
L 300.149002 187.392254 
L 302.977003 187.390841 
L 304.391004 187.092603 
L 307.219005 187.092113 
L 308.633006 188.844002 
L 315.703009 188.922257 
L 317.11701 189.703894 
L 319.945011 189.702833 
L 321.359012 190.054741 
L 324.187013 190.053968 
L 325.601014 190.885911 
L 328.429015 190.88476 
L 329.843015 190.64433 
L 332.671017 190.643927 
L 334.085017 191.16133 
L 336.913019 191.160762 
L 338.327019 190.979904 
L 341.155021 190.979795 
L 342.569021 190.372851 
L 345.397022 190.373523 
L 346.811023 190.02513 
L 349.639024 190.025731 
L 351.053025 190.69799 
L 358.123028 190.619398 
L 359.537029 190.343995 
L 362.36503 190.344209 
L 363.779031 190.466946 
L 379.333038 190.40757 
L 380.747038 189.749981 
L 383.57504 189.750503 
L 384.98904 190.218073 
L 387.817041 190.217933 
L 389.231042 189.813067 
L 392.059043 189.813273 
L 393.473044 190.104495 
L 400.543047 190.052997 
L 401.957048 189.8367 
L 404.785049 189.836915 
L 406.19905 189.141787 
L 417.511055 189.062526 
L 418.925055 189.544321 
L 421.753057 189.544059 
L 423.167057 189.370592 
L 430.23706 189.378275 
L 431.651061 189.628034 
L 438.721064 189.715044 
L 442.963066 189.741083 
L 444.377067 190.055503 
L 447.205068 190.055677 
L 448.619069 189.859896 
L 450.033069 191.329865 
L 451.44707 193.778537 
L 452.861071 197.379028 
L 454.275071 199.730269 
L 455.689072 201.744929 
L 457.103073 203.563569 
L 458.517073 204.915181 
L 459.931074 206.011128 
L 461.345074 208.233402 
L 462.759075 208.905537 
L 464.173076 209.452729 
L 465.587076 210.171934 
L 467.001077 210.369789 
L 468.415078 210.248491 
L 469.829078 211.276927 
L 471.243079 210.636974 
L 472.657079 209.779103 
L 474.07108 209.421557 
L 476.899081 207.077254 
L 478.313082 210.470902 
L 481.141083 208.538798 
L 482.555084 209.792621 
L 485.383085 208.36503 
L 486.797086 211.413782 
L 489.625087 210.597757 
L 491.039088 211.42147 
L 493.867089 210.941943 
L 495.28109 214.379559 
L 498.109091 214.1485 
L 498.109091 214.1485 
" style="fill:none;stroke:#ff7f0e;stroke-linecap:round;stroke-width:1.75;"/>
   </g>
   <g id="line2d_68">
    <path clip-path="url(#pd260312597)" d="M 92.290909 234.8612 
L 95.11891 234.844142 
L 96.532911 235.857792 
L 103.602914 235.898905 
L 105.016915 236.696048 
L 107.844916 236.692247 
L 109.258917 236.885667 
L 112.086918 236.883258 
L 113.500919 237.260968 
L 116.32892 237.259157 
L 117.74292 237.591319 
L 120.570922 237.589842 
L 121.984922 237.913945 
L 124.812924 237.912643 
L 126.226924 238.055132 
L 129.054926 238.054156 
L 130.468926 238.652489 
L 133.296927 238.651211 
L 134.710928 239.129479 
L 154.506937 239.145829 
L 155.920938 240.744706 
L 158.748939 240.742591 
L 160.162939 240.176537 
L 167.232943 240.0736 
L 168.646943 239.916507 
L 171.474945 239.916141 
L 172.888945 239.016653 
L 175.716946 239.018068 
L 177.130947 238.704068 
L 184.20095 238.807084 
L 185.614951 238.460258 
L 188.442952 238.461686 
L 189.856953 236.714442 
L 192.684954 236.719108 
L 194.098955 235.442537 
L 196.926956 235.448154 
L 198.340957 234.270419 
L 201.168958 234.276121 
L 202.582959 232.997556 
L 205.41096 233.003188 
L 206.82496 231.303463 
L 209.652962 231.309203 
L 211.066962 230.302074 
L 213.894964 230.306341 
L 215.308964 229.941258 
L 218.136965 229.943436 
L 219.550966 228.676019 
L 226.620969 228.590598 
L 228.03497 227.022915 
L 230.862971 227.025696 
L 232.276972 228.275102 
L 239.346975 228.207611 
L 240.760976 227.484549 
L 247.830979 227.501019 
L 249.244979 227.888211 
L 260.556984 227.911342 
L 261.970985 228.125538 
L 273.28299 228.078278 
L 274.696991 227.784742 
L 277.524992 227.784829 
L 278.938993 228.035506 
L 281.766994 228.035232 
L 283.180995 228.508904 
L 286.008996 228.508187 
L 287.422996 228.738283 
L 294.493 228.65937 
L 295.907 228.945399 
L 298.735002 228.945073 
L 300.149002 229.510741 
L 307.219005 229.497326 
L 308.633006 229.742917 
L 311.461007 229.742437 
L 312.875008 229.922034 
L 324.187013 229.870619 
L 325.601014 230.232592 
L 341.155021 230.197157 
L 342.569021 229.680361 
L 345.397022 229.680925 
L 346.811023 229.922746 
L 349.639024 229.92276 
L 351.053025 230.171709 
L 358.123028 230.070165 
L 359.537029 229.9533 
L 366.607032 229.975264 
L 368.021033 230.313876 
L 370.849034 230.313549 
L 372.263034 229.934783 
L 375.091036 229.935044 
L 376.505036 230.154127 
L 387.817041 230.244221 
L 390.645043 230.354543 
L 392.059043 230.354508 
L 393.473044 230.535183 
L 400.543047 230.486213 
L 401.957048 230.329675 
L 417.511055 230.233637 
L 421.753057 230.186542 
L 433.065062 230.14094 
L 438.721064 230.243809 
L 440.135065 230.397526 
L 447.205068 230.333646 
L 448.619069 230.216689 
L 450.033069 230.571484 
L 451.44707 231.171912 
L 452.861071 231.975358 
L 455.689072 233.097281 
L 457.103073 233.587961 
L 459.931074 234.230096 
L 461.345074 234.831804 
L 467.001077 235.519663 
L 468.415078 235.495589 
L 469.829078 235.944355 
L 472.657079 235.593561 
L 474.07108 235.656779 
L 476.899081 235.111012 
L 478.313082 236.225329 
L 481.141083 235.786946 
L 482.555084 235.956834 
L 485.383085 235.609988 
L 486.797086 236.815264 
L 489.625087 236.626661 
L 491.039088 236.949697 
L 493.867089 236.83403 
L 495.28109 237.791613 
L 498.109091 237.73367 
L 498.109091 237.73367 
" style="fill:none;stroke:#2ca02c;stroke-linecap:round;stroke-width:1.75;"/>
   </g>
   <g id="line2d_69">
    <path clip-path="url(#pd260312597)" d="M 92.290909 191.959669 
L 95.11891 191.895344 
L 96.532911 193.516705 
L 99.360912 193.475214 
L 100.774913 194.596614 
L 103.602914 194.571866 
L 105.016915 198.375268 
L 107.844916 198.3594 
L 109.258917 199.344697 
L 112.086918 199.33483 
L 113.500919 200.827514 
L 116.32892 200.820566 
L 117.74292 202.470067 
L 120.570922 202.46445 
L 121.984922 203.858585 
L 124.812924 203.853758 
L 126.226924 204.049554 
L 129.054926 204.046225 
L 130.468926 204.840365 
L 133.296927 204.83725 
L 134.710928 206.837667 
L 137.538929 206.833596 
L 138.95293 208.056565 
L 150.264935 208.091783 
L 151.678936 207.547794 
L 154.506937 207.547127 
L 155.920938 221.503135 
L 158.748939 221.493113 
L 160.162939 219.356761 
L 162.990941 219.349475 
L 164.404941 217.674945 
L 167.232943 217.670345 
L 168.646943 216.107641 
L 171.474945 216.105855 
L 172.888945 212.076992 
L 175.716946 212.08137 
L 177.130947 211.108698 
L 179.958948 211.114039 
L 181.372949 209.680145 
L 184.20095 209.686014 
L 185.614951 208.553634 
L 188.442952 208.559604 
L 189.856953 203.351341 
L 192.684954 203.364218 
L 194.098955 198.285548 
L 196.926956 198.302546 
L 198.340957 192.491156 
L 201.168958 192.510946 
L 202.582959 186.142056 
L 205.41096 186.163105 
L 206.82496 180.785637 
L 209.652962 180.804658 
L 211.066962 175.26632 
L 213.894964 175.282547 
L 215.308964 175.430388 
L 218.136965 175.437668 
L 219.550966 170.340674 
L 222.378967 170.349433 
L 223.792968 166.254567 
L 226.620969 166.262554 
L 228.03497 159.215294 
L 230.862971 159.226304 
L 232.276972 165.299838 
L 235.104973 165.298329 
L 236.518974 164.858472 
L 239.346975 164.857849 
L 240.760976 163.619737 
L 243.588977 163.620847 
L 245.002977 162.217905 
L 247.830979 162.219626 
L 249.244979 163.447752 
L 252.072981 163.447267 
L 253.486981 165.458916 
L 256.314983 165.456952 
L 257.728983 164.554847 
L 260.556984 164.554683 
L 261.970985 164.416329 
L 264.798986 164.416363 
L 266.212987 166.177103 
L 269.040988 166.17561 
L 270.454989 166.521317 
L 273.28299 166.520329 
L 274.696991 167.35909 
L 277.524992 167.358042 
L 278.938993 167.827291 
L 281.766994 167.82628 
L 283.180995 170.328462 
L 290.250998 170.221696 
L 291.664998 169.878958 
L 294.493 169.878779 
L 295.907 170.691314 
L 298.735002 170.690442 
L 300.149002 172.424649 
L 302.977003 172.422494 
L 304.391004 172.111843 
L 307.219005 172.111093 
L 308.633006 174.108573 
L 311.461007 174.106415 
L 312.875008 174.366912 
L 315.703009 174.365536 
L 317.11701 175.112138 
L 319.945011 175.110872 
L 321.359012 175.447142 
L 324.187013 175.446241 
L 325.601014 176.640156 
L 328.429015 176.638514 
L 329.843015 176.421629 
L 332.671017 176.421012 
L 334.085017 176.87901 
L 336.913019 176.878375 
L 338.327019 176.698744 
L 341.155021 176.698606 
L 342.569021 175.574866 
L 349.639024 175.470144 
L 351.053025 176.391353 
L 353.881026 176.390694 
L 355.295027 176.211373 
L 358.123028 176.211217 
L 359.537029 175.818949 
L 362.36503 175.819295 
L 363.779031 175.963841 
L 366.607032 175.963881 
L 368.021033 176.394011 
L 370.849034 176.393485 
L 372.263034 175.93214 
L 375.091036 175.932474 
L 376.505036 176.083297 
L 379.333038 176.083236 
L 380.747038 175.520837 
L 383.57504 175.521292 
L 384.98904 175.98398 
L 387.817041 175.983808 
L 389.231042 175.689322 
L 392.059043 175.689434 
L 393.473044 176.161332 
L 400.543047 176.060864 
L 401.957048 175.688028 
L 404.785049 175.688408 
L 406.19905 174.974599 
L 413.269053 174.964042 
L 414.683053 174.817458 
L 417.511055 174.817817 
L 418.925055 175.252472 
L 421.753057 175.252255 
L 423.167057 175.059589 
L 430.23706 175.025579 
L 431.651061 175.290635 
L 434.479062 175.290453 
L 435.893063 175.480767 
L 438.721064 175.480507 
L 440.135065 175.660303 
L 442.963066 175.660099 
L 444.377067 175.910717 
L 447.205068 175.910977 
L 448.619069 175.59824 
L 450.033069 177.423003 
L 451.44707 180.472103 
L 452.861071 184.876039 
L 454.275071 187.828808 
L 457.103073 192.673184 
L 458.517073 194.378387 
L 459.931074 195.762878 
L 461.345074 198.58686 
L 462.759075 199.437498 
L 464.173076 200.13077 
L 465.587076 201.158062 
L 467.001077 201.411106 
L 468.415078 201.265734 
L 469.829078 202.742935 
L 471.243079 201.954033 
L 472.657079 200.894318 
L 474.07108 200.59999 
L 476.899081 197.70992 
L 478.313082 202.217885 
L 481.141083 199.847398 
L 482.555084 201.271109 
L 485.383085 199.496672 
L 486.797086 203.7507 
L 489.625087 202.746071 
L 491.039088 203.892821 
L 493.867089 203.297627 
L 495.28109 207.692826 
L 498.109091 207.403823 
L 498.109091 207.403823 
" style="fill:none;stroke:#000000;stroke-dasharray:1.75,2.8875;stroke-dashoffset:0;stroke-width:1.75;"/>
   </g>
   <g id="patch_8">
    <path d="M 72 244.821176 
L 72 155.138824 
" style="fill:none;"/>
   </g>
   <g id="patch_9">
    <path d="M 518.4 244.821176 
L 518.4 155.138824 
" style="fill:none;"/>
   </g>
   <g id="patch_10">
    <path d="M 72 244.821176 
L 518.4 244.821176 
" style="fill:none;"/>
   </g>
   <g id="patch_11">
    <path d="M 72 155.138824 
L 518.4 155.138824 
" style="fill:none;"/>
   </g>
   <g id="text_15">
    <!-- Mass flows network -->
    <defs>
     <path d="M 7.421875 0 
L 7.421875 71.578125 
L 21.6875 71.578125 
L 38.625 20.90625 
Q 40.96875 13.8125 42.046875 10.296875 
Q 43.265625 14.203125 45.84375 21.78125 
L 62.984375 71.578125 
L 75.734375 71.578125 
L 75.734375 0 
L 66.609375 0 
L 66.609375 59.90625 
L 45.796875 0 
L 37.25 0 
L 16.546875 60.9375 
L 16.546875 0 
z
" id="ArialMT-77"/>
     <path d="M 6.640625 0 
L 6.640625 71.578125 
L 15.4375 71.578125 
L 15.4375 30.765625 
L 36.234375 51.859375 
L 47.609375 51.859375 
L 27.78125 32.625 
L 49.609375 0 
L 38.765625 0 
L 21.625 26.515625 
L 15.4375 20.5625 
L 15.4375 0 
z
" id="ArialMT-107"/>
    </defs>
    <g style="fill:#262626;" transform="translate(242.854687 149.138824)scale(0.12 -0.12)">
     <use xlink:href="#ArialMT-77"/>
     <use x="83.300781" xlink:href="#ArialMT-97"/>
     <use x="138.916016" xlink:href="#ArialMT-115"/>
     <use x="188.916016" xlink:href="#ArialMT-115"/>
     <use x="238.916016" xlink:href="#ArialMT-32"/>
     <use x="266.699219" xlink:href="#ArialMT-102"/>
     <use x="294.482422" xlink:href="#ArialMT-108"/>
     <use x="316.699219" xlink:href="#ArialMT-111"/>
     <use x="372.314453" xlink:href="#ArialMT-119"/>
     <use x="444.53125" xlink:href="#ArialMT-115"/>
     <use x="494.53125" xlink:href="#ArialMT-32"/>
     <use x="522.314453" xlink:href="#ArialMT-110"/>
     <use x="577.929688" xlink:href="#ArialMT-101"/>
     <use x="633.544922" xlink:href="#ArialMT-116"/>
     <use x="661.328125" xlink:href="#ArialMT-119"/>
     <use x="733.544922" xlink:href="#ArialMT-111"/>
     <use x="789.160156" xlink:href="#ArialMT-114"/>
     <use x="822.460938" xlink:href="#ArialMT-107"/>
    </g>
   </g>
  </g>
  <g id="axes_3">
   <g id="patch_12">
    <path d="M 72 352.44 
L 518.4 352.44 
L 518.4 262.757647 
L 72 262.757647 
z
" style="fill:#eaeaf2;"/>
   </g>
   <g id="matplotlib.axis_5">
    <g id="xtick_19">
     <g id="line2d_70">
      <path clip-path="url(#p39f2885e65)" d="M 92.290909 352.44 
L 92.290909 262.757647 
" style="fill:none;stroke:#ffffff;stroke-linecap:round;"/>
     </g>
     <g id="line2d_71"/>
     <g id="text_16">
      <!-- 01-01 00 -->
      <defs>
       <path d="M 3.171875 21.484375 
L 3.171875 30.328125 
L 30.171875 30.328125 
L 30.171875 21.484375 
z
" id="ArialMT-45"/>
      </defs>
      <g style="fill:#262626;" transform="translate(72.55419 366.597813)scale(0.1 -0.1)">
       <use xlink:href="#ArialMT-48"/>
       <use x="55.615234" xlink:href="#ArialMT-49"/>
       <use x="111.230469" xlink:href="#ArialMT-45"/>
       <use x="144.53125" xlink:href="#ArialMT-48"/>
       <use x="200.146484" xlink:href="#ArialMT-49"/>
       <use x="255.761719" xlink:href="#ArialMT-32"/>
       <use x="283.544922" xlink:href="#ArialMT-48"/>
       <use x="339.160156" xlink:href="#ArialMT-48"/>
      </g>
     </g>
    </g>
    <g id="xtick_20">
     <g id="line2d_72">
      <path clip-path="url(#p39f2885e65)" d="M 143.194932 352.44 
L 143.194932 262.757647 
" style="fill:none;stroke:#ffffff;stroke-linecap:round;"/>
     </g>
     <g id="line2d_73"/>
     <g id="text_17">
      <!-- 01-01 03 -->
      <g style="fill:#262626;" transform="translate(123.458213 366.597813)scale(0.1 -0.1)">
       <use xlink:href="#ArialMT-48"/>
       <use x="55.615234" xlink:href="#ArialMT-49"/>
       <use x="111.230469" xlink:href="#ArialMT-45"/>
       <use x="144.53125" xlink:href="#ArialMT-48"/>
       <use x="200.146484" xlink:href="#ArialMT-49"/>
       <use x="255.761719" xlink:href="#ArialMT-32"/>
       <use x="283.544922" xlink:href="#ArialMT-48"/>
       <use x="339.160156" xlink:href="#ArialMT-51"/>
      </g>
     </g>
    </g>
    <g id="xtick_21">
     <g id="line2d_74">
      <path clip-path="url(#p39f2885e65)" d="M 194.098955 352.44 
L 194.098955 262.757647 
" style="fill:none;stroke:#ffffff;stroke-linecap:round;"/>
     </g>
     <g id="line2d_75"/>
     <g id="text_18">
      <!-- 01-01 06 -->
      <defs>
       <path d="M 49.75 54.046875 
L 41.015625 53.375 
Q 39.84375 58.546875 37.703125 60.890625 
Q 34.125 64.65625 28.90625 64.65625 
Q 24.703125 64.65625 21.53125 62.3125 
Q 17.390625 59.28125 14.984375 53.46875 
Q 12.59375 47.65625 12.5 36.921875 
Q 15.671875 41.75 20.265625 44.09375 
Q 24.859375 46.4375 29.890625 46.4375 
Q 38.671875 46.4375 44.84375 39.96875 
Q 51.03125 33.5 51.03125 23.25 
Q 51.03125 16.5 48.125 10.71875 
Q 45.21875 4.9375 40.140625 1.859375 
Q 35.0625 -1.21875 28.609375 -1.21875 
Q 17.625 -1.21875 10.6875 6.859375 
Q 3.765625 14.9375 3.765625 33.5 
Q 3.765625 54.25 11.421875 63.671875 
Q 18.109375 71.875 29.4375 71.875 
Q 37.890625 71.875 43.28125 67.140625 
Q 48.6875 62.40625 49.75 54.046875 
z
M 13.875 23.1875 
Q 13.875 18.65625 15.796875 14.5 
Q 17.71875 10.359375 21.1875 8.171875 
Q 24.65625 6 28.46875 6 
Q 34.03125 6 38.03125 10.484375 
Q 42.046875 14.984375 42.046875 22.703125 
Q 42.046875 30.125 38.078125 34.390625 
Q 34.125 38.671875 28.125 38.671875 
Q 22.171875 38.671875 18.015625 34.390625 
Q 13.875 30.125 13.875 23.1875 
z
" id="ArialMT-54"/>
      </defs>
      <g style="fill:#262626;" transform="translate(174.362236 366.597813)scale(0.1 -0.1)">
       <use xlink:href="#ArialMT-48"/>
       <use x="55.615234" xlink:href="#ArialMT-49"/>
       <use x="111.230469" xlink:href="#ArialMT-45"/>
       <use x="144.53125" xlink:href="#ArialMT-48"/>
       <use x="200.146484" xlink:href="#ArialMT-49"/>
       <use x="255.761719" xlink:href="#ArialMT-32"/>
       <use x="283.544922" xlink:href="#ArialMT-48"/>
       <use x="339.160156" xlink:href="#ArialMT-54"/>
      </g>
     </g>
    </g>
    <g id="xtick_22">
     <g id="line2d_76">
      <path clip-path="url(#p39f2885e65)" d="M 245.002977 352.44 
L 245.002977 262.757647 
" style="fill:none;stroke:#ffffff;stroke-linecap:round;"/>
     </g>
     <g id="line2d_77"/>
     <g id="text_19">
      <!-- 01-01 09 -->
      <defs>
       <path d="M 5.46875 16.546875 
L 13.921875 17.328125 
Q 14.984375 11.375 18.015625 8.6875 
Q 21.046875 6 25.78125 6 
Q 29.828125 6 32.875 7.859375 
Q 35.9375 9.71875 37.890625 12.8125 
Q 39.84375 15.921875 41.15625 21.1875 
Q 42.484375 26.46875 42.484375 31.9375 
Q 42.484375 32.515625 42.4375 33.6875 
Q 39.796875 29.5 35.234375 26.875 
Q 30.671875 24.265625 25.34375 24.265625 
Q 16.453125 24.265625 10.296875 30.703125 
Q 4.15625 37.15625 4.15625 47.703125 
Q 4.15625 58.59375 10.578125 65.234375 
Q 17 71.875 26.65625 71.875 
Q 33.640625 71.875 39.421875 68.109375 
Q 45.21875 64.359375 48.21875 57.390625 
Q 51.21875 50.4375 51.21875 37.25 
Q 51.21875 23.53125 48.234375 15.40625 
Q 45.265625 7.28125 39.375 3.03125 
Q 33.5 -1.21875 25.59375 -1.21875 
Q 17.1875 -1.21875 11.859375 3.4375 
Q 6.546875 8.109375 5.46875 16.546875 
z
M 41.453125 48.140625 
Q 41.453125 55.71875 37.421875 60.15625 
Q 33.40625 64.59375 27.734375 64.59375 
Q 21.875 64.59375 17.53125 59.8125 
Q 13.1875 55.03125 13.1875 47.40625 
Q 13.1875 40.578125 17.3125 36.296875 
Q 21.4375 32.03125 27.484375 32.03125 
Q 33.59375 32.03125 37.515625 36.296875 
Q 41.453125 40.578125 41.453125 48.140625 
z
" id="ArialMT-57"/>
      </defs>
      <g style="fill:#262626;" transform="translate(225.266259 366.597813)scale(0.1 -0.1)">
       <use xlink:href="#ArialMT-48"/>
       <use x="55.615234" xlink:href="#ArialMT-49"/>
       <use x="111.230469" xlink:href="#ArialMT-45"/>
       <use x="144.53125" xlink:href="#ArialMT-48"/>
       <use x="200.146484" xlink:href="#ArialMT-49"/>
       <use x="255.761719" xlink:href="#ArialMT-32"/>
       <use x="283.544922" xlink:href="#ArialMT-48"/>
       <use x="339.160156" xlink:href="#ArialMT-57"/>
      </g>
     </g>
    </g>
    <g id="xtick_23">
     <g id="line2d_78">
      <path clip-path="url(#p39f2885e65)" d="M 295.907 352.44 
L 295.907 262.757647 
" style="fill:none;stroke:#ffffff;stroke-linecap:round;"/>
     </g>
     <g id="line2d_79"/>
     <g id="text_20">
      <!-- 01-01 12 -->
      <g style="fill:#262626;" transform="translate(276.170282 366.597813)scale(0.1 -0.1)">
       <use xlink:href="#ArialMT-48"/>
       <use x="55.615234" xlink:href="#ArialMT-49"/>
       <use x="111.230469" xlink:href="#ArialMT-45"/>
       <use x="144.53125" xlink:href="#ArialMT-48"/>
       <use x="200.146484" xlink:href="#ArialMT-49"/>
       <use x="255.761719" xlink:href="#ArialMT-32"/>
       <use x="283.544922" xlink:href="#ArialMT-49"/>
       <use x="339.160156" xlink:href="#ArialMT-50"/>
      </g>
     </g>
    </g>
    <g id="xtick_24">
     <g id="line2d_80">
      <path clip-path="url(#p39f2885e65)" d="M 346.811023 352.44 
L 346.811023 262.757647 
" style="fill:none;stroke:#ffffff;stroke-linecap:round;"/>
     </g>
     <g id="line2d_81"/>
     <g id="text_21">
      <!-- 01-01 15 -->
      <defs>
       <path d="M 4.15625 18.75 
L 13.375 19.53125 
Q 14.40625 12.796875 18.140625 9.390625 
Q 21.875 6 27.15625 6 
Q 33.5 6 37.890625 10.78125 
Q 42.28125 15.578125 42.28125 23.484375 
Q 42.28125 31 38.0625 35.34375 
Q 33.84375 39.703125 27 39.703125 
Q 22.75 39.703125 19.328125 37.765625 
Q 15.921875 35.84375 13.96875 32.765625 
L 5.71875 33.84375 
L 12.640625 70.609375 
L 48.25 70.609375 
L 48.25 62.203125 
L 19.671875 62.203125 
L 15.828125 42.96875 
Q 22.265625 47.46875 29.34375 47.46875 
Q 38.71875 47.46875 45.15625 40.96875 
Q 51.609375 34.46875 51.609375 24.265625 
Q 51.609375 14.546875 45.953125 7.46875 
Q 39.0625 -1.21875 27.15625 -1.21875 
Q 17.390625 -1.21875 11.203125 4.25 
Q 5.03125 9.71875 4.15625 18.75 
z
" id="ArialMT-53"/>
      </defs>
      <g style="fill:#262626;" transform="translate(327.074304 366.597813)scale(0.1 -0.1)">
       <use xlink:href="#ArialMT-48"/>
       <use x="55.615234" xlink:href="#ArialMT-49"/>
       <use x="111.230469" xlink:href="#ArialMT-45"/>
       <use x="144.53125" xlink:href="#ArialMT-48"/>
       <use x="200.146484" xlink:href="#ArialMT-49"/>
       <use x="255.761719" xlink:href="#ArialMT-32"/>
       <use x="283.544922" xlink:href="#ArialMT-49"/>
       <use x="339.160156" xlink:href="#ArialMT-53"/>
      </g>
     </g>
    </g>
    <g id="xtick_25">
     <g id="line2d_82">
      <path clip-path="url(#p39f2885e65)" d="M 397.715046 352.44 
L 397.715046 262.757647 
" style="fill:none;stroke:#ffffff;stroke-linecap:round;"/>
     </g>
     <g id="line2d_83"/>
     <g id="text_22">
      <!-- 01-01 18 -->
      <defs>
       <path d="M 17.671875 38.8125 
Q 12.203125 40.828125 9.5625 44.53125 
Q 6.9375 48.25 6.9375 53.421875 
Q 6.9375 61.234375 12.546875 66.546875 
Q 18.171875 71.875 27.484375 71.875 
Q 36.859375 71.875 42.578125 66.421875 
Q 48.296875 60.984375 48.296875 53.171875 
Q 48.296875 48.1875 45.671875 44.5 
Q 43.0625 40.828125 37.75 38.8125 
Q 44.34375 36.671875 47.78125 31.875 
Q 51.21875 27.09375 51.21875 20.453125 
Q 51.21875 11.28125 44.71875 5.03125 
Q 38.234375 -1.21875 27.640625 -1.21875 
Q 17.046875 -1.21875 10.546875 5.046875 
Q 4.046875 11.328125 4.046875 20.703125 
Q 4.046875 27.6875 7.59375 32.390625 
Q 11.140625 37.109375 17.671875 38.8125 
z
M 15.921875 53.71875 
Q 15.921875 48.640625 19.1875 45.40625 
Q 22.46875 42.1875 27.6875 42.1875 
Q 32.765625 42.1875 36.015625 45.375 
Q 39.265625 48.578125 39.265625 53.21875 
Q 39.265625 58.0625 35.90625 61.359375 
Q 32.5625 64.65625 27.59375 64.65625 
Q 22.5625 64.65625 19.234375 61.421875 
Q 15.921875 58.203125 15.921875 53.71875 
z
M 13.09375 20.65625 
Q 13.09375 16.890625 14.875 13.375 
Q 16.65625 9.859375 20.171875 7.921875 
Q 23.6875 6 27.734375 6 
Q 34.03125 6 38.125 10.046875 
Q 42.234375 14.109375 42.234375 20.359375 
Q 42.234375 26.703125 38.015625 30.859375 
Q 33.796875 35.015625 27.4375 35.015625 
Q 21.234375 35.015625 17.15625 30.90625 
Q 13.09375 26.8125 13.09375 20.65625 
z
" id="ArialMT-56"/>
      </defs>
      <g style="fill:#262626;" transform="translate(377.978327 366.597813)scale(0.1 -0.1)">
       <use xlink:href="#ArialMT-48"/>
       <use x="55.615234" xlink:href="#ArialMT-49"/>
       <use x="111.230469" xlink:href="#ArialMT-45"/>
       <use x="144.53125" xlink:href="#ArialMT-48"/>
       <use x="200.146484" xlink:href="#ArialMT-49"/>
       <use x="255.761719" xlink:href="#ArialMT-32"/>
       <use x="283.544922" xlink:href="#ArialMT-49"/>
       <use x="339.160156" xlink:href="#ArialMT-56"/>
      </g>
     </g>
    </g>
    <g id="xtick_26">
     <g id="line2d_84">
      <path clip-path="url(#p39f2885e65)" d="M 448.619069 352.44 
L 448.619069 262.757647 
" style="fill:none;stroke:#ffffff;stroke-linecap:round;"/>
     </g>
     <g id="line2d_85"/>
     <g id="text_23">
      <!-- 01-01 21 -->
      <g style="fill:#262626;" transform="translate(428.88235 366.597813)scale(0.1 -0.1)">
       <use xlink:href="#ArialMT-48"/>
       <use x="55.615234" xlink:href="#ArialMT-49"/>
       <use x="111.230469" xlink:href="#ArialMT-45"/>
       <use x="144.53125" xlink:href="#ArialMT-48"/>
       <use x="200.146484" xlink:href="#ArialMT-49"/>
       <use x="255.761719" xlink:href="#ArialMT-32"/>
       <use x="283.544922" xlink:href="#ArialMT-50"/>
       <use x="339.160156" xlink:href="#ArialMT-49"/>
      </g>
     </g>
    </g>
    <g id="xtick_27">
     <g id="line2d_86">
      <path clip-path="url(#p39f2885e65)" d="M 499.523091 352.44 
L 499.523091 262.757647 
" style="fill:none;stroke:#ffffff;stroke-linecap:round;"/>
     </g>
     <g id="line2d_87"/>
     <g id="text_24">
      <!-- 01-02 00 -->
      <g style="fill:#262626;" transform="translate(479.786373 366.597813)scale(0.1 -0.1)">
       <use xlink:href="#ArialMT-48"/>
       <use x="55.615234" xlink:href="#ArialMT-49"/>
       <use x="111.230469" xlink:href="#ArialMT-45"/>
       <use x="144.53125" xlink:href="#ArialMT-48"/>
       <use x="200.146484" xlink:href="#ArialMT-50"/>
       <use x="255.761719" xlink:href="#ArialMT-32"/>
       <use x="283.544922" xlink:href="#ArialMT-48"/>
       <use x="339.160156" xlink:href="#ArialMT-48"/>
      </g>
     </g>
    </g>
   </g>
   <g id="matplotlib.axis_6">
    <g id="ytick_9">
     <g id="line2d_88">
      <path clip-path="url(#p39f2885e65)" d="M 72 337.080347 
L 518.4 337.080347 
" style="fill:none;stroke:#ffffff;stroke-linecap:round;"/>
     </g>
     <g id="line2d_89"/>
     <g id="text_25">
      <!-- 40 -->
      <defs>
       <path d="M 32.328125 0 
L 32.328125 17.140625 
L 1.265625 17.140625 
L 1.265625 25.203125 
L 33.9375 71.578125 
L 41.109375 71.578125 
L 41.109375 25.203125 
L 50.78125 25.203125 
L 50.78125 17.140625 
L 41.109375 17.140625 
L 41.109375 0 
z
M 32.328125 25.203125 
L 32.328125 57.46875 
L 9.90625 25.203125 
z
" id="ArialMT-52"/>
      </defs>
      <g style="fill:#262626;" transform="translate(53.878125 340.659253)scale(0.1 -0.1)">
       <use xlink:href="#ArialMT-52"/>
       <use x="55.615234" xlink:href="#ArialMT-48"/>
      </g>
     </g>
    </g>
    <g id="ytick_10">
     <g id="line2d_90">
      <path clip-path="url(#p39f2885e65)" d="M 72 311.062945 
L 518.4 311.062945 
" style="fill:none;stroke:#ffffff;stroke-linecap:round;"/>
     </g>
     <g id="line2d_91"/>
     <g id="text_26">
      <!-- 50 -->
      <g style="fill:#262626;" transform="translate(53.878125 314.641851)scale(0.1 -0.1)">
       <use xlink:href="#ArialMT-53"/>
       <use x="55.615234" xlink:href="#ArialMT-48"/>
      </g>
     </g>
    </g>
    <g id="ytick_11">
     <g id="line2d_92">
      <path clip-path="url(#p39f2885e65)" d="M 72 285.045542 
L 518.4 285.045542 
" style="fill:none;stroke:#ffffff;stroke-linecap:round;"/>
     </g>
     <g id="line2d_93"/>
     <g id="text_27">
      <!-- 60 -->
      <g style="fill:#262626;" transform="translate(53.878125 288.624449)scale(0.1 -0.1)">
       <use xlink:href="#ArialMT-54"/>
       <use x="55.615234" xlink:href="#ArialMT-48"/>
      </g>
     </g>
    </g>
   </g>
   <g id="line2d_94">
    <path clip-path="url(#p39f2885e65)" d="M 92.290909 292.85077 
L 189.856953 292.848785 
L 448.619069 292.839131 
L 450.033069 266.850962 
L 462.759075 266.834148 
L 465.587076 266.834873 
L 467.001077 285.711976 
L 468.415078 292.849806 
L 498.109091 292.850769 
L 498.109091 292.850769 
" style="fill:none;stroke:#1f77b4;stroke-linecap:round;stroke-width:1.75;"/>
   </g>
   <g id="line2d_95">
    <path clip-path="url(#p39f2885e65)" d="M 92.290909 344.885567 
L 102.188913 345.124156 
L 136.124929 345.998028 
L 162.990941 346.506053 
L 175.716946 346.944629 
L 182.78695 346.919892 
L 192.684954 346.651792 
L 199.754957 346.19721 
L 206.82496 345.512706 
L 215.308964 344.703021 
L 230.862971 343.779246 
L 235.104973 343.676086 
L 271.86899 343.752495 
L 349.639024 344.327382 
L 393.473044 344.310482 
L 452.861071 344.424405 
L 457.103073 344.846829 
L 472.657079 346.809198 
L 476.899081 347.044986 
L 482.555084 347.048067 
L 498.109091 346.541608 
L 498.109091 346.541608 
" style="fill:none;stroke:#1f77b4;stroke-dasharray:6.475,2.8;stroke-dashoffset:0;stroke-width:1.75;"/>
   </g>
   <g id="line2d_96">
    <path clip-path="url(#p39f2885e65)" d="M 92.290909 292.850763 
L 106.430915 293.000232 
L 147.436934 293.07399 
L 206.82496 293.012755 
L 245.002977 292.956406 
L 448.619069 292.973801 
L 450.033069 291.812851 
L 451.44707 289.699212 
L 457.103073 279.692165 
L 458.517073 277.649042 
L 459.931074 275.873342 
L 461.345074 274.400098 
L 462.759075 273.14401 
L 464.173076 272.081874 
L 465.587076 271.196306 
L 467.001077 270.788413 
L 468.415078 271.039094 
L 469.829078 271.865406 
L 471.243079 273.180859 
L 472.657079 274.860112 
L 475.485081 278.715992 
L 476.899081 280.704158 
L 479.727083 284.004243 
L 481.141083 285.466375 
L 483.969085 287.804225 
L 485.383085 288.75391 
L 488.211086 290.13284 
L 491.039088 291.108085 
L 493.867089 291.776556 
L 498.109091 292.357958 
L 498.109091 292.357958 
" style="fill:none;stroke:#ff7f0e;stroke-linecap:round;stroke-width:1.75;"/>
   </g>
   <g id="line2d_97">
    <path clip-path="url(#p39f2885e65)" d="M 92.290909 344.947518 
L 99.360912 344.97897 
L 102.188913 345.06436 
L 103.602914 345.062516 
L 105.016915 345.320309 
L 112.086918 345.385195 
L 114.914919 345.484 
L 116.32892 345.483448 
L 117.74292 345.60326 
L 129.054926 345.704643 
L 137.538929 345.866266 
L 138.95293 345.984357 
L 154.506937 345.931833 
L 155.920938 347.277447 
L 158.748939 347.274562 
L 160.162939 347.084027 
L 162.990941 347.081919 
L 164.404941 346.897454 
L 167.232943 346.896206 
L 168.646943 346.736544 
L 171.474945 346.736091 
L 172.888945 346.396423 
L 179.958948 346.329625 
L 181.372949 346.172269 
L 188.442952 346.096081 
L 189.856953 345.759772 
L 192.684954 345.761835 
L 194.098955 345.412898 
L 196.926956 345.415536 
L 198.340957 345.01533 
L 201.168958 345.018313 
L 202.582959 344.606099 
L 205.41096 344.609079 
L 206.82496 344.327072 
L 209.652962 344.329487 
L 211.066962 343.997722 
L 218.136965 344.037811 
L 219.550966 343.768116 
L 222.378967 343.769113 
L 223.792968 343.498239 
L 226.620969 343.499231 
L 228.03497 343.145364 
L 230.862971 343.146532 
L 232.276972 343.457489 
L 243.588977 343.399007 
L 246.416978 343.30707 
L 252.072981 343.361594 
L 253.486981 343.49622 
L 273.28299 343.551172 
L 276.110991 343.627165 
L 281.766994 343.64173 
L 283.180995 343.780569 
L 307.219005 343.835055 
L 308.633006 343.958366 
L 324.187013 344.044339 
L 327.015014 344.104366 
L 404.785049 344.028577 
L 409.027051 343.97897 
L 448.619069 344.030435 
L 450.033069 344.281598 
L 457.103073 346.287202 
L 461.345074 346.9574 
L 465.587076 347.261399 
L 469.829078 347.319523 
L 474.07108 346.929494 
L 476.899081 346.499926 
L 478.313082 346.667769 
L 481.141083 346.273475 
L 482.555084 346.279126 
L 485.383085 345.969795 
L 486.797086 346.17213 
L 489.625087 345.979859 
L 492.453088 345.947251 
L 493.867089 345.893891 
L 495.28109 346.19868 
L 498.109091 346.137556 
L 498.109091 346.137556 
" style="fill:none;stroke:#ff7f0e;stroke-dasharray:6.475,2.8;stroke-dashoffset:0;stroke-width:1.75;"/>
   </g>
   <g id="line2d_98">
    <path clip-path="url(#p39f2885e65)" d="M 92.290909 292.850763 
L 102.188913 293.051223 
L 126.226924 293.181632 
L 189.856953 293.253151 
L 220.964967 293.022716 
L 281.766994 293.005549 
L 416.097054 293.027385 
L 448.619069 293.026939 
L 450.033069 291.922833 
L 451.44707 289.892686 
L 457.103073 280.052983 
L 458.517073 278.016835 
L 459.931074 276.237903 
L 461.345074 274.756765 
L 462.759075 273.487406 
L 464.173076 272.408575 
L 465.587076 271.513997 
L 467.001077 271.075004 
L 468.415078 271.267226 
L 469.829078 272.008701 
L 471.243079 273.223515 
L 472.657079 274.798193 
L 475.485081 278.439162 
L 476.899081 280.351154 
L 479.727083 283.519489 
L 481.141083 284.958534 
L 483.969085 287.341983 
L 485.383085 288.330049 
L 488.211086 289.7418 
L 491.039088 290.782211 
L 493.867089 291.526709 
L 498.109091 292.206557 
L 498.109091 292.206557 
" style="fill:none;stroke:#2ca02c;stroke-linecap:round;stroke-width:1.75;"/>
   </g>
   <g id="line2d_99">
    <path clip-path="url(#p39f2885e65)" d="M 92.290909 346.248585 
L 95.11891 346.23441 
L 96.532911 346.547497 
L 103.602914 346.549715 
L 105.016915 346.810918 
L 112.086918 346.86951 
L 113.500919 346.999139 
L 116.32892 346.9973 
L 117.74292 347.113896 
L 120.570922 347.112351 
L 121.984922 347.228596 
L 129.054926 347.27783 
L 130.468926 347.50178 
L 133.296927 347.500296 
L 134.710928 347.686027 
L 154.506937 347.688338 
L 155.920938 348.363529 
L 158.748939 348.360396 
L 160.162939 348.110166 
L 171.474945 347.996162 
L 172.888945 347.629918 
L 175.716946 347.631633 
L 177.130947 347.510016 
L 188.442952 347.421806 
L 189.856953 346.798696 
L 192.684954 346.803226 
L 194.098955 346.388724 
L 196.926956 346.393638 
L 198.340957 346.036015 
L 201.168958 346.040586 
L 202.582959 345.675096 
L 205.41096 345.679237 
L 206.82496 345.224578 
L 209.652962 345.22838 
L 211.066962 344.974142 
L 218.136965 344.888683 
L 219.550966 344.586083 
L 226.620969 344.567875 
L 228.03497 344.213203 
L 230.862971 344.214674 
L 232.276972 344.496182 
L 239.346975 344.480385 
L 240.760976 344.316488 
L 260.556984 344.412841 
L 264.798986 344.461576 
L 273.28299 344.450636 
L 276.110991 344.383919 
L 281.766994 344.440716 
L 284.594995 344.549416 
L 298.735002 344.650978 
L 300.149002 344.785683 
L 324.187013 344.871833 
L 327.015014 344.960598 
L 341.155021 344.951609 
L 342.569021 344.825145 
L 349.639024 344.884426 
L 352.467026 344.945504 
L 448.619069 344.956653 
L 450.033069 345.177388 
L 457.103073 346.952057 
L 461.345074 347.553972 
L 467.001077 347.886331 
L 472.657079 347.748665 
L 475.485081 347.51749 
L 476.899081 347.334134 
L 478.313082 347.548561 
L 481.141083 347.227404 
L 483.969085 347.045405 
L 485.383085 346.914517 
L 486.797086 347.225559 
L 489.625087 347.058118 
L 491.039088 347.121333 
L 493.867089 347.01336 
L 495.28109 347.317114 
L 498.109091 347.257465 
L 498.109091 347.257465 
" style="fill:none;stroke:#2ca02c;stroke-dasharray:6.475,2.8;stroke-dashoffset:0;stroke-width:1.75;"/>
   </g>
   <g id="patch_13">
    <path d="M 72 352.44 
L 72 262.757647 
" style="fill:none;"/>
   </g>
   <g id="patch_14">
    <path d="M 518.4 352.44 
L 518.4 262.757647 
" style="fill:none;"/>
   </g>
   <g id="patch_15">
    <path d="M 72 352.44 
L 518.4 352.44 
" style="fill:none;"/>
   </g>
   <g id="patch_16">
    <path d="M 72 262.757647 
L 518.4 262.757647 
" style="fill:none;"/>
   </g>
   <g id="text_28">
    <!-- Network temperatures -->
    <defs>
     <path d="M 6.59375 0 
L 6.59375 51.859375 
L 14.453125 51.859375 
L 14.453125 44.578125 
Q 16.890625 48.390625 20.9375 50.703125 
Q 25 53.03125 30.171875 53.03125 
Q 35.9375 53.03125 39.625 50.640625 
Q 43.3125 48.25 44.828125 43.953125 
Q 50.984375 53.03125 60.84375 53.03125 
Q 68.5625 53.03125 72.703125 48.75 
Q 76.859375 44.484375 76.859375 35.59375 
L 76.859375 0 
L 68.109375 0 
L 68.109375 32.671875 
Q 68.109375 37.9375 67.25 40.25 
Q 66.40625 42.578125 64.15625 43.984375 
Q 61.921875 45.40625 58.890625 45.40625 
Q 53.421875 45.40625 49.796875 41.765625 
Q 46.1875 38.140625 46.1875 30.125 
L 46.1875 0 
L 37.40625 0 
L 37.40625 33.6875 
Q 37.40625 39.546875 35.25 42.46875 
Q 33.109375 45.40625 28.21875 45.40625 
Q 24.515625 45.40625 21.359375 43.453125 
Q 18.21875 41.5 16.796875 37.734375 
Q 15.375 33.984375 15.375 26.90625 
L 15.375 0 
z
" id="ArialMT-109"/>
     <path d="M 6.59375 -19.875 
L 6.59375 51.859375 
L 14.59375 51.859375 
L 14.59375 45.125 
Q 17.4375 49.078125 21 51.046875 
Q 24.5625 53.03125 29.640625 53.03125 
Q 36.28125 53.03125 41.359375 49.609375 
Q 46.4375 46.1875 49.015625 39.953125 
Q 51.609375 33.734375 51.609375 26.3125 
Q 51.609375 18.359375 48.75 11.984375 
Q 45.90625 5.609375 40.453125 2.21875 
Q 35.015625 -1.171875 29 -1.171875 
Q 24.609375 -1.171875 21.109375 0.6875 
Q 17.625 2.546875 15.375 5.375 
L 15.375 -19.875 
z
M 14.546875 25.640625 
Q 14.546875 15.625 18.59375 10.84375 
Q 22.65625 6.0625 28.421875 6.0625 
Q 34.28125 6.0625 38.453125 11.015625 
Q 42.625 15.96875 42.625 26.375 
Q 42.625 36.28125 38.546875 41.203125 
Q 34.46875 46.140625 28.8125 46.140625 
Q 23.1875 46.140625 18.859375 40.890625 
Q 14.546875 35.640625 14.546875 25.640625 
z
" id="ArialMT-112"/>
    </defs>
    <g style="fill:#262626;" transform="translate(236.1825 256.757647)scale(0.12 -0.12)">
     <use xlink:href="#ArialMT-78"/>
     <use x="72.216797" xlink:href="#ArialMT-101"/>
     <use x="127.832031" xlink:href="#ArialMT-116"/>
     <use x="155.615234" xlink:href="#ArialMT-119"/>
     <use x="227.832031" xlink:href="#ArialMT-111"/>
     <use x="283.447266" xlink:href="#ArialMT-114"/>
     <use x="316.748047" xlink:href="#ArialMT-107"/>
     <use x="366.748047" xlink:href="#ArialMT-32"/>
     <use x="394.53125" xlink:href="#ArialMT-116"/>
     <use x="422.314453" xlink:href="#ArialMT-101"/>
     <use x="477.929688" xlink:href="#ArialMT-109"/>
     <use x="561.230469" xlink:href="#ArialMT-112"/>
     <use x="616.845703" xlink:href="#ArialMT-101"/>
     <use x="672.460938" xlink:href="#ArialMT-114"/>
     <use x="705.761719" xlink:href="#ArialMT-97"/>
     <use x="761.376953" xlink:href="#ArialMT-116"/>
     <use x="789.160156" xlink:href="#ArialMT-117"/>
     <use x="844.775391" xlink:href="#ArialMT-114"/>
     <use x="878.076172" xlink:href="#ArialMT-101"/>
     <use x="933.691406" xlink:href="#ArialMT-115"/>
    </g>
   </g>
  </g>
  <g id="text_29">
   <!-- Horizon: 24.0h, Time step: 300, Neighbourhoods: 2, case: energy -->
   <defs>
    <path d="M 1.953125 0 
L 1.953125 7.125 
L 34.96875 45.015625 
Q 29.34375 44.734375 25.046875 44.734375 
L 3.90625 44.734375 
L 3.90625 51.859375 
L 46.296875 51.859375 
L 46.296875 46.046875 
L 18.21875 13.140625 
L 12.796875 7.125 
Q 18.703125 7.5625 23.875 7.5625 
L 47.859375 7.5625 
L 47.859375 0 
z
" id="ArialMT-122"/>
    <path d="M 9.03125 41.84375 
L 9.03125 51.859375 
L 19.046875 51.859375 
L 19.046875 41.84375 
z
M 9.03125 0 
L 9.03125 10.015625 
L 19.046875 10.015625 
L 19.046875 0 
z
" id="ArialMT-58"/>
    <path d="M 9.078125 0 
L 9.078125 10.015625 
L 19.09375 10.015625 
L 19.09375 0 
z
" id="ArialMT-46"/>
    <path d="M 8.890625 0 
L 8.890625 10.015625 
L 18.890625 10.015625 
L 18.890625 0 
Q 18.890625 -5.515625 16.9375 -8.90625 
Q 14.984375 -12.3125 10.75 -14.15625 
L 8.296875 -10.40625 
Q 11.078125 -9.1875 12.390625 -6.8125 
Q 13.71875 -4.4375 13.875 0 
z
" id="ArialMT-44"/>
    <path d="M 25.921875 0 
L 25.921875 63.140625 
L 2.34375 63.140625 
L 2.34375 71.578125 
L 59.078125 71.578125 
L 59.078125 63.140625 
L 35.40625 63.140625 
L 35.40625 0 
z
" id="ArialMT-84"/>
    <path d="M 6.203125 -19.96875 
L 5.21875 -11.71875 
Q 8.109375 -12.5 10.25 -12.5 
Q 13.1875 -12.5 14.9375 -11.515625 
Q 16.703125 -10.546875 17.828125 -8.796875 
Q 18.65625 -7.46875 20.515625 -2.25 
Q 20.75 -1.515625 21.296875 -0.09375 
L 1.609375 51.859375 
L 11.078125 51.859375 
L 21.875 21.828125 
Q 23.96875 16.109375 25.640625 9.8125 
Q 27.15625 15.875 29.25 21.625 
L 40.328125 51.859375 
L 49.125 51.859375 
L 29.390625 -0.875 
Q 26.21875 -9.421875 24.46875 -12.640625 
Q 22.125 -17 19.09375 -19.015625 
Q 16.0625 -21.046875 11.859375 -21.046875 
Q 9.328125 -21.046875 6.203125 -19.96875 
z
" id="ArialMT-121"/>
   </defs>
   <g style="fill:#262626;" transform="translate(114.248437 16.545)scale(0.12 -0.12)">
    <use xlink:href="#ArialMT-72"/>
    <use x="72.216797" xlink:href="#ArialMT-111"/>
    <use x="127.832031" xlink:href="#ArialMT-114"/>
    <use x="161.132812" xlink:href="#ArialMT-105"/>
    <use x="183.349609" xlink:href="#ArialMT-122"/>
    <use x="233.349609" xlink:href="#ArialMT-111"/>
    <use x="288.964844" xlink:href="#ArialMT-110"/>
    <use x="344.580078" xlink:href="#ArialMT-58"/>
    <use x="372.363281" xlink:href="#ArialMT-32"/>
    <use x="400.146484" xlink:href="#ArialMT-50"/>
    <use x="455.761719" xlink:href="#ArialMT-52"/>
    <use x="511.376953" xlink:href="#ArialMT-46"/>
    <use x="539.160156" xlink:href="#ArialMT-48"/>
    <use x="594.775391" xlink:href="#ArialMT-104"/>
    <use x="650.390625" xlink:href="#ArialMT-44"/>
    <use x="678.173828" xlink:href="#ArialMT-32"/>
    <use x="705.941406" xlink:href="#ArialMT-84"/>
    <use x="766.978516" xlink:href="#ArialMT-105"/>
    <use x="789.195312" xlink:href="#ArialMT-109"/>
    <use x="872.496094" xlink:href="#ArialMT-101"/>
    <use x="928.111328" xlink:href="#ArialMT-32"/>
    <use x="955.894531" xlink:href="#ArialMT-115"/>
    <use x="1005.894531" xlink:href="#ArialMT-116"/>
    <use x="1033.677734" xlink:href="#ArialMT-101"/>
    <use x="1089.292969" xlink:href="#ArialMT-112"/>
    <use x="1144.908203" xlink:href="#ArialMT-58"/>
    <use x="1172.691406" xlink:href="#ArialMT-32"/>
    <use x="1200.474609" xlink:href="#ArialMT-51"/>
    <use x="1256.089844" xlink:href="#ArialMT-48"/>
    <use x="1311.705078" xlink:href="#ArialMT-48"/>
    <use x="1367.320312" xlink:href="#ArialMT-44"/>
    <use x="1395.103516" xlink:href="#ArialMT-32"/>
    <use x="1422.886719" xlink:href="#ArialMT-78"/>
    <use x="1495.103516" xlink:href="#ArialMT-101"/>
    <use x="1550.71875" xlink:href="#ArialMT-105"/>
    <use x="1572.935547" xlink:href="#ArialMT-103"/>
    <use x="1628.550781" xlink:href="#ArialMT-104"/>
    <use x="1684.166016" xlink:href="#ArialMT-98"/>
    <use x="1739.78125" xlink:href="#ArialMT-111"/>
    <use x="1795.396484" xlink:href="#ArialMT-117"/>
    <use x="1851.011719" xlink:href="#ArialMT-114"/>
    <use x="1884.3125" xlink:href="#ArialMT-104"/>
    <use x="1939.927734" xlink:href="#ArialMT-111"/>
    <use x="1995.542969" xlink:href="#ArialMT-111"/>
    <use x="2051.158203" xlink:href="#ArialMT-100"/>
    <use x="2106.773438" xlink:href="#ArialMT-115"/>
    <use x="2156.773438" xlink:href="#ArialMT-58"/>
    <use x="2184.556641" xlink:href="#ArialMT-32"/>
    <use x="2212.339844" xlink:href="#ArialMT-50"/>
    <use x="2267.955078" xlink:href="#ArialMT-44"/>
    <use x="2295.738281" xlink:href="#ArialMT-32"/>
    <use x="2323.521484" xlink:href="#ArialMT-99"/>
    <use x="2373.521484" xlink:href="#ArialMT-97"/>
    <use x="2429.136719" xlink:href="#ArialMT-115"/>
    <use x="2479.136719" xlink:href="#ArialMT-101"/>
    <use x="2534.751953" xlink:href="#ArialMT-58"/>
    <use x="2562.535156" xlink:href="#ArialMT-32"/>
    <use x="2590.318359" xlink:href="#ArialMT-101"/>
    <use x="2645.933594" xlink:href="#ArialMT-110"/>
    <use x="2701.548828" xlink:href="#ArialMT-101"/>
    <use x="2757.164062" xlink:href="#ArialMT-114"/>
    <use x="2790.464844" xlink:href="#ArialMT-103"/>
    <use x="2846.080078" xlink:href="#ArialMT-121"/>
   </g>
  </g>
 </g>
 <defs>
  <clipPath id="p88abb19b55">
   <rect height="89.682353" width="446.4" x="72" y="47.52"/>
  </clipPath>
  <clipPath id="pd260312597">
   <rect height="89.682353" width="446.4" x="72" y="155.138824"/>
  </clipPath>
  <clipPath id="p39f2885e65">
   <rect height="89.682353" width="446.4" x="72" y="262.757647"/>
  </clipPath>
 </defs>
</svg>
