<?xml version="1.0" encoding="utf-8" standalone="no"?>
<!DOCTYPE svg PUBLIC "-//W3C//DTD SVG 1.1//EN"
  "http://www.w3.org/Graphics/SVG/1.1/DTD/svg11.dtd">
<!-- Created with matplotlib (https://matplotlib.org/) -->
<svg height="396pt" version="1.1" viewBox="0 0 576 396" width="576pt" xmlns="http://www.w3.org/2000/svg" xmlns:xlink="http://www.w3.org/1999/xlink">
 <defs>
  <style type="text/css">
*{stroke-linecap:butt;stroke-linejoin:round;}
  </style>
 </defs>
 <g id="figure_1">
  <g id="patch_1">
   <path d="M 0 396 
L 576 396 
L 576 0 
L 0 0 
z
" style="fill:#ffffff;"/>
  </g>
  <g id="axes_1">
   <g id="patch_2">
    <path d="M 72 186.12 
L 518.4 186.12 
L 518.4 47.52 
L 72 47.52 
z
" style="fill:#eaeaf2;"/>
   </g>
   <g id="matplotlib.axis_1">
    <g id="xtick_1">
     <g id="line2d_1">
      <path clip-path="url(#pe4548686a4)" d="M 92.290909 186.12 
L 92.290909 47.52 
" style="fill:none;stroke:#ffffff;stroke-linecap:round;"/>
     </g>
     <g id="line2d_2"/>
     <g id="text_1">
      <!-- 01-01 00 -->
      <defs>
       <path d="M 4.15625 35.296875 
Q 4.15625 48 6.765625 55.734375 
Q 9.375 63.484375 14.515625 67.671875 
Q 19.671875 71.875 27.484375 71.875 
Q 33.25 71.875 37.59375 69.546875 
Q 41.9375 67.234375 44.765625 62.859375 
Q 47.609375 58.5 49.21875 52.21875 
Q 50.828125 45.953125 50.828125 35.296875 
Q 50.828125 22.703125 48.234375 14.96875 
Q 45.65625 7.234375 40.5 3 
Q 35.359375 -1.21875 27.484375 -1.21875 
Q 17.140625 -1.21875 11.234375 6.203125 
Q 4.15625 15.140625 4.15625 35.296875 
z
M 13.1875 35.296875 
Q 13.1875 17.671875 17.3125 11.828125 
Q 21.4375 6 27.484375 6 
Q 33.546875 6 37.671875 11.859375 
Q 41.796875 17.71875 41.796875 35.296875 
Q 41.796875 52.984375 37.671875 58.78125 
Q 33.546875 64.59375 27.390625 64.59375 
Q 21.34375 64.59375 17.71875 59.46875 
Q 13.1875 52.9375 13.1875 35.296875 
z
" id="ArialMT-48"/>
       <path d="M 37.25 0 
L 28.46875 0 
L 28.46875 56 
Q 25.296875 52.984375 20.140625 49.953125 
Q 14.984375 46.921875 10.890625 45.40625 
L 10.890625 53.90625 
Q 18.265625 57.375 23.78125 62.296875 
Q 29.296875 67.234375 31.59375 71.875 
L 37.25 71.875 
z
" id="ArialMT-49"/>
       <path d="M 3.171875 21.484375 
L 3.171875 30.328125 
L 30.171875 30.328125 
L 30.171875 21.484375 
z
" id="ArialMT-45"/>
       <path id="ArialMT-32"/>
      </defs>
      <g style="fill:#262626;" transform="translate(72.55419 200.277812)scale(0.1 -0.1)">
       <use xlink:href="#ArialMT-48"/>
       <use x="55.615234" xlink:href="#ArialMT-49"/>
       <use x="111.230469" xlink:href="#ArialMT-45"/>
       <use x="144.53125" xlink:href="#ArialMT-48"/>
       <use x="200.146484" xlink:href="#ArialMT-49"/>
       <use x="255.761719" xlink:href="#ArialMT-32"/>
       <use x="283.544922" xlink:href="#ArialMT-48"/>
       <use x="339.160156" xlink:href="#ArialMT-48"/>
      </g>
     </g>
    </g>
    <g id="xtick_2">
     <g id="line2d_3">
      <path clip-path="url(#pe4548686a4)" d="M 143.106403 186.12 
L 143.106403 47.52 
" style="fill:none;stroke:#ffffff;stroke-linecap:round;"/>
     </g>
     <g id="line2d_4"/>
     <g id="text_2">
      <!-- 01-01 06 -->
      <defs>
       <path d="M 49.75 54.046875 
L 41.015625 53.375 
Q 39.84375 58.546875 37.703125 60.890625 
Q 34.125 64.65625 28.90625 64.65625 
Q 24.703125 64.65625 21.53125 62.3125 
Q 17.390625 59.28125 14.984375 53.46875 
Q 12.59375 47.65625 12.5 36.921875 
Q 15.671875 41.75 20.265625 44.09375 
Q 24.859375 46.4375 29.890625 46.4375 
Q 38.671875 46.4375 44.84375 39.96875 
Q 51.03125 33.5 51.03125 23.25 
Q 51.03125 16.5 48.125 10.71875 
Q 45.21875 4.9375 40.140625 1.859375 
Q 35.0625 -1.21875 28.609375 -1.21875 
Q 17.625 -1.21875 10.6875 6.859375 
Q 3.765625 14.9375 3.765625 33.5 
Q 3.765625 54.25 11.421875 63.671875 
Q 18.109375 71.875 29.4375 71.875 
Q 37.890625 71.875 43.28125 67.140625 
Q 48.6875 62.40625 49.75 54.046875 
z
M 13.875 23.1875 
Q 13.875 18.65625 15.796875 14.5 
Q 17.71875 10.359375 21.1875 8.171875 
Q 24.65625 6 28.46875 6 
Q 34.03125 6 38.03125 10.484375 
Q 42.046875 14.984375 42.046875 22.703125 
Q 42.046875 30.125 38.078125 34.390625 
Q 34.125 38.671875 28.125 38.671875 
Q 22.171875 38.671875 18.015625 34.390625 
Q 13.875 30.125 13.875 23.1875 
z
" id="ArialMT-54"/>
      </defs>
      <g style="fill:#262626;" transform="translate(123.369684 200.277812)scale(0.1 -0.1)">
       <use xlink:href="#ArialMT-48"/>
       <use x="55.615234" xlink:href="#ArialMT-49"/>
       <use x="111.230469" xlink:href="#ArialMT-45"/>
       <use x="144.53125" xlink:href="#ArialMT-48"/>
       <use x="200.146484" xlink:href="#ArialMT-49"/>
       <use x="255.761719" xlink:href="#ArialMT-32"/>
       <use x="283.544922" xlink:href="#ArialMT-48"/>
       <use x="339.160156" xlink:href="#ArialMT-54"/>
      </g>
     </g>
    </g>
    <g id="xtick_3">
     <g id="line2d_5">
      <path clip-path="url(#pe4548686a4)" d="M 193.921897 186.12 
L 193.921897 47.52 
" style="fill:none;stroke:#ffffff;stroke-linecap:round;"/>
     </g>
     <g id="line2d_6"/>
     <g id="text_3">
      <!-- 01-01 12 -->
      <defs>
       <path d="M 50.34375 8.453125 
L 50.34375 0 
L 3.03125 0 
Q 2.9375 3.171875 4.046875 6.109375 
Q 5.859375 10.9375 9.828125 15.625 
Q 13.8125 20.3125 21.34375 26.46875 
Q 33.015625 36.03125 37.109375 41.625 
Q 41.21875 47.21875 41.21875 52.203125 
Q 41.21875 57.421875 37.46875 61 
Q 33.734375 64.59375 27.734375 64.59375 
Q 21.390625 64.59375 17.578125 60.78125 
Q 13.765625 56.984375 13.71875 50.25 
L 4.6875 51.171875 
Q 5.609375 61.28125 11.65625 66.578125 
Q 17.71875 71.875 27.9375 71.875 
Q 38.234375 71.875 44.234375 66.15625 
Q 50.25 60.453125 50.25 52 
Q 50.25 47.703125 48.484375 43.546875 
Q 46.734375 39.40625 42.65625 34.8125 
Q 38.578125 30.21875 29.109375 22.21875 
Q 21.1875 15.578125 18.9375 13.203125 
Q 16.703125 10.84375 15.234375 8.453125 
z
" id="ArialMT-50"/>
      </defs>
      <g style="fill:#262626;" transform="translate(174.185178 200.277812)scale(0.1 -0.1)">
       <use xlink:href="#ArialMT-48"/>
       <use x="55.615234" xlink:href="#ArialMT-49"/>
       <use x="111.230469" xlink:href="#ArialMT-45"/>
       <use x="144.53125" xlink:href="#ArialMT-48"/>
       <use x="200.146484" xlink:href="#ArialMT-49"/>
       <use x="255.761719" xlink:href="#ArialMT-32"/>
       <use x="283.544922" xlink:href="#ArialMT-49"/>
       <use x="339.160156" xlink:href="#ArialMT-50"/>
      </g>
     </g>
    </g>
    <g id="xtick_4">
     <g id="line2d_7">
      <path clip-path="url(#pe4548686a4)" d="M 244.737391 186.12 
L 244.737391 47.52 
" style="fill:none;stroke:#ffffff;stroke-linecap:round;"/>
     </g>
     <g id="line2d_8"/>
     <g id="text_4">
      <!-- 01-01 18 -->
      <defs>
       <path d="M 17.671875 38.8125 
Q 12.203125 40.828125 9.5625 44.53125 
Q 6.9375 48.25 6.9375 53.421875 
Q 6.9375 61.234375 12.546875 66.546875 
Q 18.171875 71.875 27.484375 71.875 
Q 36.859375 71.875 42.578125 66.421875 
Q 48.296875 60.984375 48.296875 53.171875 
Q 48.296875 48.1875 45.671875 44.5 
Q 43.0625 40.828125 37.75 38.8125 
Q 44.34375 36.671875 47.78125 31.875 
Q 51.21875 27.09375 51.21875 20.453125 
Q 51.21875 11.28125 44.71875 5.03125 
Q 38.234375 -1.21875 27.640625 -1.21875 
Q 17.046875 -1.21875 10.546875 5.046875 
Q 4.046875 11.328125 4.046875 20.703125 
Q 4.046875 27.6875 7.59375 32.390625 
Q 11.140625 37.109375 17.671875 38.8125 
z
M 15.921875 53.71875 
Q 15.921875 48.640625 19.1875 45.40625 
Q 22.46875 42.1875 27.6875 42.1875 
Q 32.765625 42.1875 36.015625 45.375 
Q 39.265625 48.578125 39.265625 53.21875 
Q 39.265625 58.0625 35.90625 61.359375 
Q 32.5625 64.65625 27.59375 64.65625 
Q 22.5625 64.65625 19.234375 61.421875 
Q 15.921875 58.203125 15.921875 53.71875 
z
M 13.09375 20.65625 
Q 13.09375 16.890625 14.875 13.375 
Q 16.65625 9.859375 20.171875 7.921875 
Q 23.6875 6 27.734375 6 
Q 34.03125 6 38.125 10.046875 
Q 42.234375 14.109375 42.234375 20.359375 
Q 42.234375 26.703125 38.015625 30.859375 
Q 33.796875 35.015625 27.4375 35.015625 
Q 21.234375 35.015625 17.15625 30.90625 
Q 13.09375 26.8125 13.09375 20.65625 
z
" id="ArialMT-56"/>
      </defs>
      <g style="fill:#262626;" transform="translate(225.000673 200.277812)scale(0.1 -0.1)">
       <use xlink:href="#ArialMT-48"/>
       <use x="55.615234" xlink:href="#ArialMT-49"/>
       <use x="111.230469" xlink:href="#ArialMT-45"/>
       <use x="144.53125" xlink:href="#ArialMT-48"/>
       <use x="200.146484" xlink:href="#ArialMT-49"/>
       <use x="255.761719" xlink:href="#ArialMT-32"/>
       <use x="283.544922" xlink:href="#ArialMT-49"/>
       <use x="339.160156" xlink:href="#ArialMT-56"/>
      </g>
     </g>
    </g>
    <g id="xtick_5">
     <g id="line2d_9">
      <path clip-path="url(#pe4548686a4)" d="M 295.552885 186.12 
L 295.552885 47.52 
" style="fill:none;stroke:#ffffff;stroke-linecap:round;"/>
     </g>
     <g id="line2d_10"/>
     <g id="text_5">
      <!-- 01-02 00 -->
      <g style="fill:#262626;" transform="translate(275.816167 200.277812)scale(0.1 -0.1)">
       <use xlink:href="#ArialMT-48"/>
       <use x="55.615234" xlink:href="#ArialMT-49"/>
       <use x="111.230469" xlink:href="#ArialMT-45"/>
       <use x="144.53125" xlink:href="#ArialMT-48"/>
       <use x="200.146484" xlink:href="#ArialMT-50"/>
       <use x="255.761719" xlink:href="#ArialMT-32"/>
       <use x="283.544922" xlink:href="#ArialMT-48"/>
       <use x="339.160156" xlink:href="#ArialMT-48"/>
      </g>
     </g>
    </g>
    <g id="xtick_6">
     <g id="line2d_11">
      <path clip-path="url(#pe4548686a4)" d="M 346.368379 186.12 
L 346.368379 47.52 
" style="fill:none;stroke:#ffffff;stroke-linecap:round;"/>
     </g>
     <g id="line2d_12"/>
     <g id="text_6">
      <!-- 01-02 06 -->
      <g style="fill:#262626;" transform="translate(326.631661 200.277812)scale(0.1 -0.1)">
       <use xlink:href="#ArialMT-48"/>
       <use x="55.615234" xlink:href="#ArialMT-49"/>
       <use x="111.230469" xlink:href="#ArialMT-45"/>
       <use x="144.53125" xlink:href="#ArialMT-48"/>
       <use x="200.146484" xlink:href="#ArialMT-50"/>
       <use x="255.761719" xlink:href="#ArialMT-32"/>
       <use x="283.544922" xlink:href="#ArialMT-48"/>
       <use x="339.160156" xlink:href="#ArialMT-54"/>
      </g>
     </g>
    </g>
    <g id="xtick_7">
     <g id="line2d_13">
      <path clip-path="url(#pe4548686a4)" d="M 397.183874 186.12 
L 397.183874 47.52 
" style="fill:none;stroke:#ffffff;stroke-linecap:round;"/>
     </g>
     <g id="line2d_14"/>
     <g id="text_7">
      <!-- 01-02 12 -->
      <g style="fill:#262626;" transform="translate(377.447155 200.277812)scale(0.1 -0.1)">
       <use xlink:href="#ArialMT-48"/>
       <use x="55.615234" xlink:href="#ArialMT-49"/>
       <use x="111.230469" xlink:href="#ArialMT-45"/>
       <use x="144.53125" xlink:href="#ArialMT-48"/>
       <use x="200.146484" xlink:href="#ArialMT-50"/>
       <use x="255.761719" xlink:href="#ArialMT-32"/>
       <use x="283.544922" xlink:href="#ArialMT-49"/>
       <use x="339.160156" xlink:href="#ArialMT-50"/>
      </g>
     </g>
    </g>
    <g id="xtick_8">
     <g id="line2d_15">
      <path clip-path="url(#pe4548686a4)" d="M 447.999368 186.12 
L 447.999368 47.52 
" style="fill:none;stroke:#ffffff;stroke-linecap:round;"/>
     </g>
     <g id="line2d_16"/>
     <g id="text_8">
      <!-- 01-02 18 -->
      <g style="fill:#262626;" transform="translate(428.262649 200.277812)scale(0.1 -0.1)">
       <use xlink:href="#ArialMT-48"/>
       <use x="55.615234" xlink:href="#ArialMT-49"/>
       <use x="111.230469" xlink:href="#ArialMT-45"/>
       <use x="144.53125" xlink:href="#ArialMT-48"/>
       <use x="200.146484" xlink:href="#ArialMT-50"/>
       <use x="255.761719" xlink:href="#ArialMT-32"/>
       <use x="283.544922" xlink:href="#ArialMT-49"/>
       <use x="339.160156" xlink:href="#ArialMT-56"/>
      </g>
     </g>
    </g>
    <g id="xtick_9">
     <g id="line2d_17">
      <path clip-path="url(#pe4548686a4)" d="M 498.814862 186.12 
L 498.814862 47.52 
" style="fill:none;stroke:#ffffff;stroke-linecap:round;"/>
     </g>
     <g id="line2d_18"/>
     <g id="text_9">
      <!-- 01-03 00 -->
      <defs>
       <path d="M 4.203125 18.890625 
L 12.984375 20.0625 
Q 14.5 12.59375 18.140625 9.296875 
Q 21.78125 6 27 6 
Q 33.203125 6 37.46875 10.296875 
Q 41.75 14.59375 41.75 20.953125 
Q 41.75 27 37.796875 30.921875 
Q 33.84375 34.859375 27.734375 34.859375 
Q 25.25 34.859375 21.53125 33.890625 
L 22.515625 41.609375 
Q 23.390625 41.5 23.921875 41.5 
Q 29.546875 41.5 34.03125 44.421875 
Q 38.53125 47.359375 38.53125 53.46875 
Q 38.53125 58.296875 35.25 61.46875 
Q 31.984375 64.65625 26.8125 64.65625 
Q 21.6875 64.65625 18.265625 61.421875 
Q 14.84375 58.203125 13.875 51.765625 
L 5.078125 53.328125 
Q 6.6875 62.15625 12.390625 67.015625 
Q 18.109375 71.875 26.609375 71.875 
Q 32.46875 71.875 37.390625 69.359375 
Q 42.328125 66.84375 44.9375 62.5 
Q 47.5625 58.15625 47.5625 53.265625 
Q 47.5625 48.640625 45.0625 44.828125 
Q 42.578125 41.015625 37.703125 38.765625 
Q 44.046875 37.3125 47.5625 32.6875 
Q 51.078125 28.078125 51.078125 21.140625 
Q 51.078125 11.765625 44.234375 5.25 
Q 37.40625 -1.265625 26.953125 -1.265625 
Q 17.53125 -1.265625 11.296875 4.34375 
Q 5.078125 9.96875 4.203125 18.890625 
z
" id="ArialMT-51"/>
      </defs>
      <g style="fill:#262626;" transform="translate(479.078143 200.277812)scale(0.1 -0.1)">
       <use xlink:href="#ArialMT-48"/>
       <use x="55.615234" xlink:href="#ArialMT-49"/>
       <use x="111.230469" xlink:href="#ArialMT-45"/>
       <use x="144.53125" xlink:href="#ArialMT-48"/>
       <use x="200.146484" xlink:href="#ArialMT-51"/>
       <use x="255.761719" xlink:href="#ArialMT-32"/>
       <use x="283.544922" xlink:href="#ArialMT-48"/>
       <use x="339.160156" xlink:href="#ArialMT-48"/>
      </g>
     </g>
    </g>
   </g>
   <g id="matplotlib.axis_2">
    <g id="ytick_1">
     <g id="line2d_19">
      <path clip-path="url(#pe4548686a4)" d="M 72 157.72671 
L 518.4 157.72671 
" style="fill:none;stroke:#ffffff;stroke-linecap:round;"/>
     </g>
     <g id="line2d_20"/>
     <g id="text_10">
      <!-- 0.5 -->
      <defs>
       <path d="M 9.078125 0 
L 9.078125 10.015625 
L 19.09375 10.015625 
L 19.09375 0 
z
" id="ArialMT-46"/>
       <path d="M 4.15625 18.75 
L 13.375 19.53125 
Q 14.40625 12.796875 18.140625 9.390625 
Q 21.875 6 27.15625 6 
Q 33.5 6 37.890625 10.78125 
Q 42.28125 15.578125 42.28125 23.484375 
Q 42.28125 31 38.0625 35.34375 
Q 33.84375 39.703125 27 39.703125 
Q 22.75 39.703125 19.328125 37.765625 
Q 15.921875 35.84375 13.96875 32.765625 
L 5.71875 33.84375 
L 12.640625 70.609375 
L 48.25 70.609375 
L 48.25 62.203125 
L 19.671875 62.203125 
L 15.828125 42.96875 
Q 22.265625 47.46875 29.34375 47.46875 
Q 38.71875 47.46875 45.15625 40.96875 
Q 51.609375 34.46875 51.609375 24.265625 
Q 51.609375 14.546875 45.953125 7.46875 
Q 39.0625 -1.21875 27.15625 -1.21875 
Q 17.390625 -1.21875 11.203125 4.25 
Q 5.03125 9.71875 4.15625 18.75 
z
" id="ArialMT-53"/>
      </defs>
      <g style="fill:#262626;" transform="translate(51.1 161.305616)scale(0.1 -0.1)">
       <use xlink:href="#ArialMT-48"/>
       <use x="55.615234" xlink:href="#ArialMT-46"/>
       <use x="83.398438" xlink:href="#ArialMT-53"/>
      </g>
     </g>
    </g>
    <g id="ytick_2">
     <g id="line2d_21">
      <path clip-path="url(#pe4548686a4)" d="M 72 120.029782 
L 518.4 120.029782 
" style="fill:none;stroke:#ffffff;stroke-linecap:round;"/>
     </g>
     <g id="line2d_22"/>
     <g id="text_11">
      <!-- 1.0 -->
      <g style="fill:#262626;" transform="translate(51.1 123.608688)scale(0.1 -0.1)">
       <use xlink:href="#ArialMT-49"/>
       <use x="55.615234" xlink:href="#ArialMT-46"/>
       <use x="83.398438" xlink:href="#ArialMT-48"/>
      </g>
     </g>
    </g>
    <g id="ytick_3">
     <g id="line2d_23">
      <path clip-path="url(#pe4548686a4)" d="M 72 82.332854 
L 518.4 82.332854 
" style="fill:none;stroke:#ffffff;stroke-linecap:round;"/>
     </g>
     <g id="line2d_24"/>
     <g id="text_12">
      <!-- 1.5 -->
      <g style="fill:#262626;" transform="translate(51.1 85.91176)scale(0.1 -0.1)">
       <use xlink:href="#ArialMT-49"/>
       <use x="55.615234" xlink:href="#ArialMT-46"/>
       <use x="83.398438" xlink:href="#ArialMT-53"/>
      </g>
     </g>
    </g>
   </g>
   <g id="line2d_25">
    <path clip-path="url(#pe4548686a4)" d="M 92.290909 92.577853 
L 92.99668 94.228463 
L 94.408221 99.138452 
L 96.525534 106.232368 
L 97.937075 113.183584 
L 98.642846 116.298352 
L 100.054387 118.901005 
L 101.465929 121.328936 
L 103.583241 124.846654 
L 104.994783 127.022303 
L 107.112095 129.630006 
L 109.229407 130.161983 
L 111.346719 131.545008 
L 113.464032 134.757406 
L 115.581344 136.700435 
L 118.404427 136.645558 
L 119.815968 136.751919 
L 121.933281 135.870214 
L 124.050593 158.039187 
L 126.167905 154.640247 
L 129.696759 150.45067 
L 130.40253 149.661153 
L 132.519842 143.42887 
L 134.637154 142.039887 
L 137.460237 139.393237 
L 138.871779 138.302787 
L 144.517945 116.88831 
L 145.929486 110.819265 
L 147.341028 104.484422 
L 151.575652 88.419464 
L 153.692964 88.86839 
L 155.810277 81.505756 
L 157.927589 75.709617 
L 160.044901 65.488189 
L 162.162213 74.56025 
L 164.279526 73.943461 
L 167.102609 71.440719 
L 168.51415 70.051345 
L 170.631462 71.820938 
L 172.748775 74.730047 
L 174.866087 73.334616 
L 176.983399 73.05567 
L 179.100711 75.566139 
L 181.218024 75.976095 
L 184.041107 77.422006 
L 185.452648 77.977676 
L 187.56996 81.881307 
L 189.687273 81.69719 
L 191.804585 80.957956 
L 193.921897 81.935751 
L 196.039209 84.354085 
L 198.156522 83.757216 
L 200.273834 86.65406 
L 202.391146 86.972448 
L 204.508458 88.03521 
L 206.625771 88.492485 
L 208.743083 90.26023 
L 210.860395 89.91968 
L 212.977708 90.611504 
L 215.09502 90.356957 
L 217.212332 88.67527 
L 219.329644 88.519039 
L 221.446957 89.902376 
L 224.270039 89.432665 
L 225.681581 89.037862 
L 227.798893 89.252371 
L 229.916206 89.902214 
L 232.033518 89.205057 
L 234.15083 89.436778 
L 236.268142 88.591066 
L 238.385455 89.283222 
L 240.502767 88.838112 
L 242.620079 89.552806 
L 244.737391 89.414445 
L 246.854704 88.872418 
L 248.972016 87.81906 
L 251.795099 87.740849 
L 253.20664 87.594601 
L 255.323953 88.245132 
L 258.147036 87.931382 
L 259.558577 87.889893 
L 263.087431 88.451698 
L 268.027826 89.127082 
L 270.145138 88.590134 
L 272.262451 90.475614 
L 274.379763 90.759586 
L 276.497075 94.4225 
L 278.614387 95.268351 
L 280.7317 99.562709 
L 282.849012 101.28326 
L 284.966324 112.476849 
L 287.083636 116.704953 
L 289.200949 124.963827 
L 291.318261 127.401825 
L 293.435573 134.802401 
L 295.552885 134.906219 
L 297.670198 135.457034 
L 299.78751 133.742078 
L 301.904822 135.71531 
L 304.022134 136.430398 
L 306.139447 138.016808 
L 308.256759 137.50001 
L 310.374071 140.203884 
L 312.491383 139.466193 
L 314.608696 139.236222 
L 316.726008 139.623901 
L 318.84332 142.880633 
L 322.372174 141.415018 
L 323.077945 141.147879 
L 325.195257 139.396934 
L 327.312569 160.809298 
L 330.135652 155.519589 
L 333.664506 149.527225 
L 335.781818 142.515568 
L 337.89913 140.262769 
L 340.722213 136.594498 
L 342.133755 134.951789 
L 347.07415 114.351545 
L 352.720316 88.917807 
L 354.837628 80.215824 
L 356.954941 79.77384 
L 359.072253 71.545135 
L 361.189565 64.958385 
L 363.306877 55.458323 
L 365.42419 63.429344 
L 367.541502 61.382908 
L 369.658814 58.711724 
L 371.776126 56.637221 
L 373.893439 56.938538 
L 376.010751 59.219987 
L 378.128063 56.986059 
L 380.245375 56.239984 
L 382.362688 57.949804 
L 385.185771 57.964597 
L 387.303083 58.038677 
L 388.714624 57.992128 
L 390.831937 60.774119 
L 392.949249 58.730925 
L 395.066561 58.003748 
L 397.183874 58.694412 
L 399.301186 60.287732 
L 401.418498 59.568448 
L 403.53581 61.735777 
L 405.653123 61.394809 
L 408.476206 61.967054 
L 409.887747 62.081956 
L 412.005059 63.594069 
L 414.122372 63.116261 
L 416.239684 63.370436 
L 418.356996 62.830795 
L 420.474308 60.722013 
L 422.591621 60.94241 
L 424.708933 62.064071 
L 426.826245 61.160097 
L 428.943557 60.973582 
L 433.178182 61.325112 
L 439.530119 59.550127 
L 441.647431 60.58048 
L 443.764743 60.112564 
L 445.882055 60.542094 
L 449.410909 59.57762 
L 450.11668 59.349595 
L 452.233992 58.284116 
L 455.057075 58.441149 
L 458.585929 59.115079 
L 460.703241 58.895375 
L 464.232095 59.293736 
L 471.289802 60.380761 
L 473.407115 59.889449 
L 475.524427 62.122398 
L 477.641739 62.793916 
L 479.759051 67.539865 
L 481.876364 69.612963 
L 483.993676 74.909527 
L 485.405217 76.789168 
L 486.110988 77.455684 
L 487.52253 84.753303 
L 488.2283 87.915611 
L 488.934071 88.166509 
L 489.639842 88.073432 
L 490.345613 87.725143 
L 491.757154 89.631772 
L 492.462925 90.827095 
L 493.168696 89.890193 
L 493.874466 89.157452 
L 494.580237 88.665674 
L 495.286008 90.361816 
L 496.697549 94.598708 
L 498.109091 93.015987 
L 498.109091 93.015987 
" style="fill:none;stroke:#4c72b0;stroke-linecap:round;stroke-width:1.75;"/>
   </g>
   <g id="line2d_26">
    <path clip-path="url(#pe4548686a4)" d="M 92.290909 88.433883 
L 92.99668 89.590249 
L 93.702451 91.430006 
L 94.408221 93.684124 
L 96.525534 101.618627 
L 97.937075 108.753657 
L 98.642846 111.934728 
L 100.054387 114.646715 
L 104.994783 122.792884 
L 107.112095 125.349643 
L 111.346719 126.18446 
L 113.464032 129.283183 
L 115.581344 131.739531 
L 117.698656 131.470582 
L 119.815968 131.942511 
L 121.933281 130.651652 
L 124.050593 155.606992 
L 128.285217 149.323414 
L 130.40253 146.598961 
L 132.519842 140.466481 
L 134.637154 139.301919 
L 136.754466 136.394907 
L 138.871779 134.980865 
L 141.694862 125.888261 
L 143.106403 121.036598 
L 145.929486 108.990077 
L 147.341028 102.553417 
L 149.45834 95.686232 
L 151.575652 87.224582 
L 153.692964 88.436295 
L 157.927589 74.129732 
L 160.044901 64.037476 
L 162.162213 73.193718 
L 164.985296 72.212225 
L 166.396838 71.580394 
L 168.51415 68.90728 
L 170.631462 70.437908 
L 172.748775 74.23491 
L 174.866087 72.353289 
L 176.983399 71.610066 
L 179.100711 74.774443 
L 181.218024 75.471442 
L 183.335336 77.569407 
L 185.452648 78.087008 
L 187.56996 82.106795 
L 189.687273 81.442522 
L 191.804585 80.711056 
L 193.921897 81.471511 
L 196.039209 83.513165 
L 198.156522 82.81175 
L 200.273834 86.054959 
L 202.391146 86.134095 
L 204.508458 87.571021 
L 206.625771 88.196533 
L 208.743083 89.757391 
L 210.860395 89.282234 
L 212.977708 90.277715 
L 215.09502 89.946976 
L 217.212332 88.799352 
L 219.329644 88.132598 
L 221.446957 89.415005 
L 223.564269 89.264012 
L 225.681581 88.736085 
L 229.916206 89.141519 
L 234.15083 88.856493 
L 236.268142 87.595692 
L 238.385455 88.487852 
L 240.502767 87.708453 
L 242.620079 88.268853 
L 245.443162 88.052374 
L 246.854704 87.791035 
L 248.972016 86.480362 
L 251.795099 86.466 
L 253.20664 86.341019 
L 255.323953 87.261016 
L 257.441265 86.924437 
L 259.558577 86.92963 
L 262.38166 87.441256 
L 265.204743 87.555416 
L 265.910514 87.562596 
L 268.027826 88.128065 
L 270.145138 87.686989 
L 272.262451 89.781847 
L 274.379763 90.032968 
L 276.497075 93.696135 
L 278.614387 94.272544 
L 280.7317 98.218465 
L 282.849012 99.669193 
L 284.966324 110.560819 
L 287.083636 115.146248 
L 289.200949 122.767824 
L 291.318261 125.052609 
L 293.435573 132.4076 
L 296.964427 132.664818 
L 297.670198 132.689591 
L 299.78751 130.568855 
L 301.904822 132.572162 
L 304.022134 132.972817 
L 306.139447 134.455236 
L 308.256759 133.916166 
L 310.374071 136.554272 
L 313.902925 134.931509 
L 314.608696 134.641555 
L 316.726008 134.164193 
L 318.84332 137.93007 
L 320.960632 136.947313 
L 323.077945 136.39679 
L 325.195257 134.223845 
L 327.312569 158.302133 
L 330.135652 153.041201 
L 332.252964 148.928063 
L 333.664506 146.354732 
L 335.781818 139.426842 
L 337.89913 137.3616 
L 340.016443 133.68176 
L 342.133755 131.456241 
L 344.956838 121.260781 
L 346.368379 115.743459 
L 351.308775 92.993987 
L 352.720316 87.842046 
L 354.837628 78.769102 
L 356.954941 79.118939 
L 362.601107 56.938484 
L 363.306877 53.82 
L 365.42419 61.780822 
L 370.364585 56.866149 
L 371.776126 55.088563 
L 373.893439 55.197828 
L 376.010751 58.397542 
L 378.128063 55.4679 
L 380.245375 54.542842 
L 382.362688 56.609745 
L 385.185771 57.341062 
L 386.597312 57.849864 
L 388.714624 57.692275 
L 390.831937 60.495839 
L 392.949249 57.845885 
L 395.066561 57.121613 
L 397.183874 57.542671 
L 399.301186 58.881308 
L 401.418498 58.140872 
L 403.53581 60.536603 
L 405.653123 60.084219 
L 407.770435 60.919593 
L 409.887747 61.071532 
L 412.005059 62.416457 
L 414.122372 61.950066 
L 416.239684 62.481747 
L 418.356996 61.875392 
L 420.474308 60.185231 
L 422.591621 59.978153 
L 424.708933 61.033146 
L 426.826245 60.217473 
L 429.649328 60.160377 
L 431.06087 60.291836 
L 433.883953 60.055211 
L 435.295494 60.03035 
L 438.118577 58.571452 
L 439.530119 58.016362 
L 441.647431 59.257596 
L 443.764743 58.548034 
L 445.882055 58.802136 
L 450.11668 57.698289 
L 452.233992 56.390992 
L 455.057075 56.646815 
L 457.174387 57.149435 
L 458.585929 57.589052 
L 460.703241 57.28234 
L 463.526324 57.821538 
L 465.643636 57.993523 
L 467.760949 58.116567 
L 469.878261 58.50498 
L 471.289802 58.9024 
L 473.407115 58.443204 
L 475.524427 61.00049 
L 477.641739 61.573577 
L 479.759051 66.286021 
L 481.876364 68.216863 
L 483.993676 72.788609 
L 485.405217 74.388503 
L 486.110988 74.904231 
L 487.52253 82.057319 
L 488.2283 85.123529 
L 488.934071 85.457301 
L 489.639842 85.437914 
L 490.345613 85.160188 
L 491.757154 86.268443 
L 492.462925 87.051748 
L 493.168696 86.017258 
L 493.874466 85.202596 
L 494.580237 84.645629 
L 495.286008 86.345818 
L 496.697549 90.633729 
L 498.109091 88.966212 
L 498.109091 88.966212 
" style="fill:none;stroke:#55a868;stroke-linecap:round;stroke-width:1.75;"/>
   </g>
   <g id="line2d_27">
    <path clip-path="url(#pe4548686a4)" d="M 92.290909 141.651721 
L 93.702451 146.132284 
L 94.408221 148.612389 
L 96.525534 151.077609 
L 97.937075 154.927829 
L 98.642846 156.689082 
L 100.054387 158.039845 
L 100.760158 158.638626 
L 102.87747 161.048152 
L 105.700553 163.549711 
L 107.112095 164.67709 
L 109.229407 165.460621 
L 111.346719 168.273127 
L 113.464032 170.497759 
L 116.287115 170.635178 
L 117.698656 170.826346 
L 119.815968 170.23022 
L 121.933281 170.60691 
L 124.050593 177.953345 
L 126.167905 175.350744 
L 128.990988 174.681975 
L 130.40253 174.228585 
L 132.519842 170.183323 
L 134.637154 168.828471 
L 136.754466 169.347176 
L 138.871779 167.846204 
L 140.989091 160.104977 
L 143.812174 152.856722 
L 146.635257 145.820202 
L 147.341028 143.991054 
L 149.45834 136.716202 
L 151.575652 132.489968 
L 153.692964 131.055053 
L 155.810277 125.76972 
L 157.927589 125.559752 
L 160.044901 119.00259 
L 162.162213 124.376643 
L 164.279526 124.112615 
L 166.396838 121.047947 
L 168.51415 121.113104 
L 170.631462 122.733947 
L 172.748775 122.527072 
L 174.866087 122.761473 
L 176.983399 123.631347 
L 179.100711 123.704637 
L 181.218024 123.312456 
L 183.335336 122.028845 
L 185.452648 123.163215 
L 187.56996 125.296412 
L 189.687273 126.260035 
L 191.804585 125.789337 
L 193.921897 126.876181 
L 196.039209 129.203577 
L 198.156522 129.071984 
L 200.979605 130.314117 
L 202.391146 130.803344 
L 206.625771 130.51932 
L 208.743083 132.067109 
L 210.860395 132.160082 
L 213.683478 131.907716 
L 215.09502 131.918229 
L 217.212332 129.689675 
L 221.446957 131.812999 
L 225.681581 130.866794 
L 227.798893 130.959446 
L 229.916206 132.425701 
L 232.033518 130.785009 
L 234.15083 131.735822 
L 236.268142 132.14789 
L 238.385455 132.12389 
L 241.208538 132.861441 
L 242.620079 133.38461 
L 244.737391 133.179953 
L 246.854704 132.513242 
L 251.795099 132.253142 
L 256.735494 131.853931 
L 261.675889 131.696577 
L 264.498972 132.348893 
L 265.910514 132.782829 
L 268.733597 132.305639 
L 270.145138 131.940538 
L 272.262451 132.627241 
L 274.379763 132.875021 
L 276.497075 135.120472 
L 278.614387 136.243225 
L 280.7317 139.657636 
L 282.849012 141.31759 
L 284.966324 148.858259 
L 287.083636 150.649713 
L 289.200949 157.142709 
L 291.318261 158.981142 
L 293.435573 163.621215 
L 295.552885 163.444255 
L 297.670198 164.858095 
L 299.78751 164.71629 
L 306.139447 168.208145 
L 308.256759 167.941192 
L 310.374071 169.746602 
L 312.491383 169.98158 
L 314.608696 171.27209 
L 316.726008 173.449243 
L 318.84332 174.304686 
L 320.960632 173.848232 
L 323.077945 172.794975 
L 325.195257 172.667467 
L 327.312569 179.82 
L 329.429881 176.868707 
L 332.252964 175.332109 
L 333.664506 174.39376 
L 335.781818 169.906558 
L 337.89913 168.104684 
L 340.016443 168.228339 
L 342.133755 166.180717 
L 344.251067 158.033225 
L 347.07415 149.950027 
L 350.603004 140.310394 
L 352.720316 132.528469 
L 354.837628 128.024306 
L 356.954941 125.978012 
L 359.072253 120.80748 
L 361.189565 119.56515 
L 363.306877 113.273119 
L 365.42419 118.183642 
L 367.541502 117.013038 
L 369.658814 113.757802 
L 371.776126 113.794965 
L 373.893439 114.410309 
L 376.010751 113.750475 
L 378.833834 113.923259 
L 380.951146 113.968647 
L 382.362688 114.132126 
L 385.891542 112.100218 
L 386.597312 111.664485 
L 388.714624 111.825916 
L 390.831937 113.483404 
L 392.949249 113.590932 
L 395.066561 113.138528 
L 397.183874 114.166492 
L 399.301186 115.714484 
L 401.418498 115.32086 
L 403.53581 116.137736 
L 405.653123 116.178458 
L 407.770435 115.776305 
L 409.887747 115.926824 
L 412.005059 117.228859 
L 415.533913 116.597167 
L 416.945455 116.381889 
L 418.356996 116.262636 
L 420.474308 114.031022 
L 423.297391 115.404464 
L 424.708933 115.961822 
L 426.826245 115.209549 
L 428.943557 114.953006 
L 431.06087 115.056635 
L 433.178182 116.013713 
L 435.295494 114.371317 
L 437.412806 115.53674 
L 440.94166 115.654265 
L 443.764743 115.961554 
L 445.882055 116.618246 
L 447.999368 116.372465 
L 450.11668 115.688273 
L 455.762846 115.481187 
L 457.174387 115.427824 
L 459.2917 115.283916 
L 460.703241 115.32395 
L 462.820553 114.830524 
L 466.349407 115.553414 
L 469.17249 116.313376 
L 473.407115 115.559546 
L 477.641739 116.834016 
L 479.759051 119.819246 
L 481.876364 121.409367 
L 483.993676 126.282162 
L 485.405217 128.061917 
L 486.110988 128.80868 
L 487.52253 133.607464 
L 488.2283 135.761974 
L 488.934071 135.730014 
L 489.639842 135.507724 
L 490.345613 135.13596 
L 491.757154 138.095035 
L 492.462925 139.751733 
L 493.874466 139.130411 
L 494.580237 138.975017 
L 495.991779 141.183409 
L 496.697549 142.489564 
L 498.109091 141.70919 
L 498.109091 141.70919 
" style="fill:none;stroke:#c44e52;stroke-linecap:round;stroke-width:1.75;"/>
   </g>
   <g id="patch_3">
    <path d="M 72 186.12 
L 72 47.52 
" style="fill:none;"/>
   </g>
   <g id="patch_4">
    <path d="M 518.4 186.12 
L 518.4 47.52 
" style="fill:none;"/>
   </g>
   <g id="patch_5">
    <path d="M 72 186.12 
L 518.4 186.12 
" style="fill:none;"/>
   </g>
   <g id="patch_6">
    <path d="M 72 47.52 
L 518.4 47.52 
" style="fill:none;"/>
   </g>
   <g id="text_13">
    <!-- Water speed -->
    <defs>
     <path d="M 20.21875 0 
L 1.21875 71.578125 
L 10.9375 71.578125 
L 21.828125 24.65625 
Q 23.578125 17.28125 24.859375 10.015625 
Q 27.59375 21.484375 28.078125 23.25 
L 41.703125 71.578125 
L 53.125 71.578125 
L 63.375 35.359375 
Q 67.234375 21.875 68.953125 10.015625 
Q 70.3125 16.796875 72.515625 25.59375 
L 83.734375 71.578125 
L 93.265625 71.578125 
L 73.640625 0 
L 64.5 0 
L 49.421875 54.546875 
Q 47.515625 61.375 47.171875 62.9375 
Q 46.046875 58.015625 45.0625 54.546875 
L 29.890625 0 
z
" id="ArialMT-87"/>
     <path d="M 40.4375 6.390625 
Q 35.546875 2.25 31.03125 0.53125 
Q 26.515625 -1.171875 21.34375 -1.171875 
Q 12.796875 -1.171875 8.203125 3 
Q 3.609375 7.171875 3.609375 13.671875 
Q 3.609375 17.484375 5.34375 20.625 
Q 7.078125 23.78125 9.890625 25.6875 
Q 12.703125 27.59375 16.21875 28.5625 
Q 18.796875 29.25 24.03125 29.890625 
Q 34.671875 31.15625 39.703125 32.90625 
Q 39.75 34.71875 39.75 35.203125 
Q 39.75 40.578125 37.25 42.78125 
Q 33.890625 45.75 27.25 45.75 
Q 21.046875 45.75 18.09375 43.578125 
Q 15.140625 41.40625 13.71875 35.890625 
L 5.125 37.0625 
Q 6.296875 42.578125 8.984375 45.96875 
Q 11.671875 49.359375 16.75 51.1875 
Q 21.828125 53.03125 28.515625 53.03125 
Q 35.15625 53.03125 39.296875 51.46875 
Q 43.453125 49.90625 45.40625 47.53125 
Q 47.359375 45.171875 48.140625 41.546875 
Q 48.578125 39.3125 48.578125 33.453125 
L 48.578125 21.734375 
Q 48.578125 9.46875 49.140625 6.21875 
Q 49.703125 2.984375 51.375 0 
L 42.1875 0 
Q 40.828125 2.734375 40.4375 6.390625 
z
M 39.703125 26.03125 
Q 34.90625 24.078125 25.34375 22.703125 
Q 19.921875 21.921875 17.671875 20.9375 
Q 15.4375 19.96875 14.203125 18.09375 
Q 12.984375 16.21875 12.984375 13.921875 
Q 12.984375 10.40625 15.640625 8.0625 
Q 18.3125 5.71875 23.4375 5.71875 
Q 28.515625 5.71875 32.46875 7.9375 
Q 36.421875 10.15625 38.28125 14.015625 
Q 39.703125 17 39.703125 22.796875 
z
" id="ArialMT-97"/>
     <path d="M 25.78125 7.859375 
L 27.046875 0.09375 
Q 23.34375 -0.6875 20.40625 -0.6875 
Q 15.625 -0.6875 12.984375 0.828125 
Q 10.359375 2.34375 9.28125 4.8125 
Q 8.203125 7.28125 8.203125 15.1875 
L 8.203125 45.015625 
L 1.765625 45.015625 
L 1.765625 51.859375 
L 8.203125 51.859375 
L 8.203125 64.703125 
L 16.9375 69.96875 
L 16.9375 51.859375 
L 25.78125 51.859375 
L 25.78125 45.015625 
L 16.9375 45.015625 
L 16.9375 14.703125 
Q 16.9375 10.9375 17.40625 9.859375 
Q 17.875 8.796875 18.921875 8.15625 
Q 19.96875 7.515625 21.921875 7.515625 
Q 23.390625 7.515625 25.78125 7.859375 
z
" id="ArialMT-116"/>
     <path d="M 42.09375 16.703125 
L 51.171875 15.578125 
Q 49.03125 7.625 43.21875 3.21875 
Q 37.40625 -1.171875 28.375 -1.171875 
Q 17 -1.171875 10.328125 5.828125 
Q 3.65625 12.84375 3.65625 25.484375 
Q 3.65625 38.578125 10.390625 45.796875 
Q 17.140625 53.03125 27.875 53.03125 
Q 38.28125 53.03125 44.875 45.953125 
Q 51.46875 38.875 51.46875 26.03125 
Q 51.46875 25.25 51.421875 23.6875 
L 12.75 23.6875 
Q 13.234375 15.140625 17.578125 10.59375 
Q 21.921875 6.0625 28.421875 6.0625 
Q 33.25 6.0625 36.671875 8.59375 
Q 40.09375 11.140625 42.09375 16.703125 
z
M 13.234375 30.90625 
L 42.1875 30.90625 
Q 41.609375 37.453125 38.875 40.71875 
Q 34.671875 45.796875 27.984375 45.796875 
Q 21.921875 45.796875 17.796875 41.75 
Q 13.671875 37.703125 13.234375 30.90625 
z
" id="ArialMT-101"/>
     <path d="M 6.5 0 
L 6.5 51.859375 
L 14.40625 51.859375 
L 14.40625 44 
Q 17.4375 49.515625 20 51.265625 
Q 22.5625 53.03125 25.640625 53.03125 
Q 30.078125 53.03125 34.671875 50.203125 
L 31.640625 42.046875 
Q 28.421875 43.953125 25.203125 43.953125 
Q 22.3125 43.953125 20.015625 42.21875 
Q 17.71875 40.484375 16.75 37.40625 
Q 15.28125 32.71875 15.28125 27.15625 
L 15.28125 0 
z
" id="ArialMT-114"/>
     <path d="M 3.078125 15.484375 
L 11.765625 16.84375 
Q 12.5 11.625 15.84375 8.84375 
Q 19.1875 6.0625 25.203125 6.0625 
Q 31.25 6.0625 34.171875 8.515625 
Q 37.109375 10.984375 37.109375 14.3125 
Q 37.109375 17.28125 34.515625 19 
Q 32.71875 20.171875 25.53125 21.96875 
Q 15.875 24.421875 12.140625 26.203125 
Q 8.40625 27.984375 6.46875 31.125 
Q 4.546875 34.28125 4.546875 38.09375 
Q 4.546875 41.546875 6.125 44.5 
Q 7.71875 47.46875 10.453125 49.421875 
Q 12.5 50.921875 16.03125 51.96875 
Q 19.578125 53.03125 23.640625 53.03125 
Q 29.734375 53.03125 34.34375 51.265625 
Q 38.96875 49.515625 41.15625 46.5 
Q 43.359375 43.5 44.1875 38.484375 
L 35.59375 37.3125 
Q 35.015625 41.3125 32.203125 43.546875 
Q 29.390625 45.796875 24.265625 45.796875 
Q 18.21875 45.796875 15.625 43.796875 
Q 13.03125 41.796875 13.03125 39.109375 
Q 13.03125 37.40625 14.109375 36.03125 
Q 15.1875 34.625 17.484375 33.6875 
Q 18.796875 33.203125 25.25 31.453125 
Q 34.578125 28.953125 38.25 27.359375 
Q 41.9375 25.78125 44.03125 22.75 
Q 46.140625 19.734375 46.140625 15.234375 
Q 46.140625 10.84375 43.578125 6.953125 
Q 41.015625 3.078125 36.171875 0.953125 
Q 31.34375 -1.171875 25.25 -1.171875 
Q 15.140625 -1.171875 9.84375 3.03125 
Q 4.546875 7.234375 3.078125 15.484375 
z
" id="ArialMT-115"/>
     <path d="M 6.59375 -19.875 
L 6.59375 51.859375 
L 14.59375 51.859375 
L 14.59375 45.125 
Q 17.4375 49.078125 21 51.046875 
Q 24.5625 53.03125 29.640625 53.03125 
Q 36.28125 53.03125 41.359375 49.609375 
Q 46.4375 46.1875 49.015625 39.953125 
Q 51.609375 33.734375 51.609375 26.3125 
Q 51.609375 18.359375 48.75 11.984375 
Q 45.90625 5.609375 40.453125 2.21875 
Q 35.015625 -1.171875 29 -1.171875 
Q 24.609375 -1.171875 21.109375 0.6875 
Q 17.625 2.546875 15.375 5.375 
L 15.375 -19.875 
z
M 14.546875 25.640625 
Q 14.546875 15.625 18.59375 10.84375 
Q 22.65625 6.0625 28.421875 6.0625 
Q 34.28125 6.0625 38.453125 11.015625 
Q 42.625 15.96875 42.625 26.375 
Q 42.625 36.28125 38.546875 41.203125 
Q 34.46875 46.140625 28.8125 46.140625 
Q 23.1875 46.140625 18.859375 40.890625 
Q 14.546875 35.640625 14.546875 25.640625 
z
" id="ArialMT-112"/>
     <path d="M 40.234375 0 
L 40.234375 6.546875 
Q 35.296875 -1.171875 25.734375 -1.171875 
Q 19.53125 -1.171875 14.328125 2.25 
Q 9.125 5.671875 6.265625 11.796875 
Q 3.421875 17.921875 3.421875 25.875 
Q 3.421875 33.640625 6 39.96875 
Q 8.59375 46.296875 13.765625 49.65625 
Q 18.953125 53.03125 25.34375 53.03125 
Q 30.03125 53.03125 33.6875 51.046875 
Q 37.359375 49.078125 39.65625 45.90625 
L 39.65625 71.578125 
L 48.390625 71.578125 
L 48.390625 0 
z
M 12.453125 25.875 
Q 12.453125 15.921875 16.640625 10.984375 
Q 20.84375 6.0625 26.5625 6.0625 
Q 32.328125 6.0625 36.34375 10.765625 
Q 40.375 15.484375 40.375 25.140625 
Q 40.375 35.796875 36.265625 40.765625 
Q 32.171875 45.75 26.171875 45.75 
Q 20.3125 45.75 16.375 40.96875 
Q 12.453125 36.1875 12.453125 25.875 
z
" id="ArialMT-100"/>
    </defs>
    <g style="fill:#262626;" transform="translate(261.188437 41.52)scale(0.12 -0.12)">
     <use xlink:href="#ArialMT-87"/>
     <use x="94.337891" xlink:href="#ArialMT-97"/>
     <use x="149.953125" xlink:href="#ArialMT-116"/>
     <use x="177.736328" xlink:href="#ArialMT-101"/>
     <use x="233.351562" xlink:href="#ArialMT-114"/>
     <use x="266.652344" xlink:href="#ArialMT-32"/>
     <use x="294.435547" xlink:href="#ArialMT-115"/>
     <use x="344.435547" xlink:href="#ArialMT-112"/>
     <use x="400.050781" xlink:href="#ArialMT-101"/>
     <use x="455.666016" xlink:href="#ArialMT-101"/>
     <use x="511.28125" xlink:href="#ArialMT-100"/>
    </g>
   </g>
   <g id="legend_1">
    <g id="line2d_28">
     <path d="M 435.8125 143.2825 
L 455.8125 143.2825 
" style="fill:none;stroke:#4c72b0;stroke-linecap:round;stroke-width:1.75;"/>
    </g>
    <g id="line2d_29"/>
    <g id="text_14">
     <!-- dist_pipe0 -->
     <defs>
      <path d="M 6.640625 61.46875 
L 6.640625 71.578125 
L 15.4375 71.578125 
L 15.4375 61.46875 
z
M 6.640625 0 
L 6.640625 51.859375 
L 15.4375 51.859375 
L 15.4375 0 
z
" id="ArialMT-105"/>
      <path d="M -1.515625 -19.875 
L -1.515625 -13.53125 
L 56.734375 -13.53125 
L 56.734375 -19.875 
z
" id="ArialMT-95"/>
     </defs>
     <g style="fill:#262626;" transform="translate(463.8125 146.7825)scale(0.1 -0.1)">
      <use xlink:href="#ArialMT-100"/>
      <use x="55.615234" xlink:href="#ArialMT-105"/>
      <use x="77.832031" xlink:href="#ArialMT-115"/>
      <use x="127.832031" xlink:href="#ArialMT-116"/>
      <use x="155.615234" xlink:href="#ArialMT-95"/>
      <use x="211.230469" xlink:href="#ArialMT-112"/>
      <use x="266.845703" xlink:href="#ArialMT-105"/>
      <use x="289.0625" xlink:href="#ArialMT-112"/>
      <use x="344.677734" xlink:href="#ArialMT-101"/>
      <use x="400.292969" xlink:href="#ArialMT-48"/>
     </g>
    </g>
    <g id="line2d_30">
     <path d="M 435.8125 157.4575 
L 455.8125 157.4575 
" style="fill:none;stroke:#55a868;stroke-linecap:round;stroke-width:1.75;"/>
    </g>
    <g id="line2d_31"/>
    <g id="text_15">
     <!-- dist_pipe2 -->
     <g style="fill:#262626;" transform="translate(463.8125 160.9575)scale(0.1 -0.1)">
      <use xlink:href="#ArialMT-100"/>
      <use x="55.615234" xlink:href="#ArialMT-105"/>
      <use x="77.832031" xlink:href="#ArialMT-115"/>
      <use x="127.832031" xlink:href="#ArialMT-116"/>
      <use x="155.615234" xlink:href="#ArialMT-95"/>
      <use x="211.230469" xlink:href="#ArialMT-112"/>
      <use x="266.845703" xlink:href="#ArialMT-105"/>
      <use x="289.0625" xlink:href="#ArialMT-112"/>
      <use x="344.677734" xlink:href="#ArialMT-101"/>
      <use x="400.292969" xlink:href="#ArialMT-50"/>
     </g>
    </g>
    <g id="line2d_32">
     <path d="M 435.8125 171.6325 
L 455.8125 171.6325 
" style="fill:none;stroke:#c44e52;stroke-linecap:round;stroke-width:1.75;"/>
    </g>
    <g id="line2d_33"/>
    <g id="text_16">
     <!-- dist_pipe1 -->
     <g style="fill:#262626;" transform="translate(463.8125 175.1325)scale(0.1 -0.1)">
      <use xlink:href="#ArialMT-100"/>
      <use x="55.615234" xlink:href="#ArialMT-105"/>
      <use x="77.832031" xlink:href="#ArialMT-115"/>
      <use x="127.832031" xlink:href="#ArialMT-116"/>
      <use x="155.615234" xlink:href="#ArialMT-95"/>
      <use x="211.230469" xlink:href="#ArialMT-112"/>
      <use x="266.845703" xlink:href="#ArialMT-105"/>
      <use x="289.0625" xlink:href="#ArialMT-112"/>
      <use x="344.677734" xlink:href="#ArialMT-101"/>
      <use x="400.292969" xlink:href="#ArialMT-49"/>
     </g>
    </g>
   </g>
  </g>
  <g id="axes_2">
   <g id="patch_7">
    <path d="M 72 352.44 
L 518.4 352.44 
L 518.4 213.84 
L 72 213.84 
z
" style="fill:#eaeaf2;"/>
   </g>
   <g id="matplotlib.axis_3">
    <g id="xtick_10">
     <g id="line2d_34">
      <path clip-path="url(#p43d0905690)" d="M 92.290909 352.44 
L 92.290909 213.84 
" style="fill:none;stroke:#ffffff;stroke-linecap:round;"/>
     </g>
     <g id="line2d_35"/>
     <g id="text_17">
      <!-- 01-01 00 -->
      <g style="fill:#262626;" transform="translate(72.55419 366.597813)scale(0.1 -0.1)">
       <use xlink:href="#ArialMT-48"/>
       <use x="55.615234" xlink:href="#ArialMT-49"/>
       <use x="111.230469" xlink:href="#ArialMT-45"/>
       <use x="144.53125" xlink:href="#ArialMT-48"/>
       <use x="200.146484" xlink:href="#ArialMT-49"/>
       <use x="255.761719" xlink:href="#ArialMT-32"/>
       <use x="283.544922" xlink:href="#ArialMT-48"/>
       <use x="339.160156" xlink:href="#ArialMT-48"/>
      </g>
     </g>
    </g>
    <g id="xtick_11">
     <g id="line2d_36">
      <path clip-path="url(#p43d0905690)" d="M 143.106403 352.44 
L 143.106403 213.84 
" style="fill:none;stroke:#ffffff;stroke-linecap:round;"/>
     </g>
     <g id="line2d_37"/>
     <g id="text_18">
      <!-- 01-01 06 -->
      <g style="fill:#262626;" transform="translate(123.369684 366.597813)scale(0.1 -0.1)">
       <use xlink:href="#ArialMT-48"/>
       <use x="55.615234" xlink:href="#ArialMT-49"/>
       <use x="111.230469" xlink:href="#ArialMT-45"/>
       <use x="144.53125" xlink:href="#ArialMT-48"/>
       <use x="200.146484" xlink:href="#ArialMT-49"/>
       <use x="255.761719" xlink:href="#ArialMT-32"/>
       <use x="283.544922" xlink:href="#ArialMT-48"/>
       <use x="339.160156" xlink:href="#ArialMT-54"/>
      </g>
     </g>
    </g>
    <g id="xtick_12">
     <g id="line2d_38">
      <path clip-path="url(#p43d0905690)" d="M 193.921897 352.44 
L 193.921897 213.84 
" style="fill:none;stroke:#ffffff;stroke-linecap:round;"/>
     </g>
     <g id="line2d_39"/>
     <g id="text_19">
      <!-- 01-01 12 -->
      <g style="fill:#262626;" transform="translate(174.185178 366.597813)scale(0.1 -0.1)">
       <use xlink:href="#ArialMT-48"/>
       <use x="55.615234" xlink:href="#ArialMT-49"/>
       <use x="111.230469" xlink:href="#ArialMT-45"/>
       <use x="144.53125" xlink:href="#ArialMT-48"/>
       <use x="200.146484" xlink:href="#ArialMT-49"/>
       <use x="255.761719" xlink:href="#ArialMT-32"/>
       <use x="283.544922" xlink:href="#ArialMT-49"/>
       <use x="339.160156" xlink:href="#ArialMT-50"/>
      </g>
     </g>
    </g>
    <g id="xtick_13">
     <g id="line2d_40">
      <path clip-path="url(#p43d0905690)" d="M 244.737391 352.44 
L 244.737391 213.84 
" style="fill:none;stroke:#ffffff;stroke-linecap:round;"/>
     </g>
     <g id="line2d_41"/>
     <g id="text_20">
      <!-- 01-01 18 -->
      <g style="fill:#262626;" transform="translate(225.000673 366.597813)scale(0.1 -0.1)">
       <use xlink:href="#ArialMT-48"/>
       <use x="55.615234" xlink:href="#ArialMT-49"/>
       <use x="111.230469" xlink:href="#ArialMT-45"/>
       <use x="144.53125" xlink:href="#ArialMT-48"/>
       <use x="200.146484" xlink:href="#ArialMT-49"/>
       <use x="255.761719" xlink:href="#ArialMT-32"/>
       <use x="283.544922" xlink:href="#ArialMT-49"/>
       <use x="339.160156" xlink:href="#ArialMT-56"/>
      </g>
     </g>
    </g>
    <g id="xtick_14">
     <g id="line2d_42">
      <path clip-path="url(#p43d0905690)" d="M 295.552885 352.44 
L 295.552885 213.84 
" style="fill:none;stroke:#ffffff;stroke-linecap:round;"/>
     </g>
     <g id="line2d_43"/>
     <g id="text_21">
      <!-- 01-02 00 -->
      <g style="fill:#262626;" transform="translate(275.816167 366.597813)scale(0.1 -0.1)">
       <use xlink:href="#ArialMT-48"/>
       <use x="55.615234" xlink:href="#ArialMT-49"/>
       <use x="111.230469" xlink:href="#ArialMT-45"/>
       <use x="144.53125" xlink:href="#ArialMT-48"/>
       <use x="200.146484" xlink:href="#ArialMT-50"/>
       <use x="255.761719" xlink:href="#ArialMT-32"/>
       <use x="283.544922" xlink:href="#ArialMT-48"/>
       <use x="339.160156" xlink:href="#ArialMT-48"/>
      </g>
     </g>
    </g>
    <g id="xtick_15">
     <g id="line2d_44">
      <path clip-path="url(#p43d0905690)" d="M 346.368379 352.44 
L 346.368379 213.84 
" style="fill:none;stroke:#ffffff;stroke-linecap:round;"/>
     </g>
     <g id="line2d_45"/>
     <g id="text_22">
      <!-- 01-02 06 -->
      <g style="fill:#262626;" transform="translate(326.631661 366.597813)scale(0.1 -0.1)">
       <use xlink:href="#ArialMT-48"/>
       <use x="55.615234" xlink:href="#ArialMT-49"/>
       <use x="111.230469" xlink:href="#ArialMT-45"/>
       <use x="144.53125" xlink:href="#ArialMT-48"/>
       <use x="200.146484" xlink:href="#ArialMT-50"/>
       <use x="255.761719" xlink:href="#ArialMT-32"/>
       <use x="283.544922" xlink:href="#ArialMT-48"/>
       <use x="339.160156" xlink:href="#ArialMT-54"/>
      </g>
     </g>
    </g>
    <g id="xtick_16">
     <g id="line2d_46">
      <path clip-path="url(#p43d0905690)" d="M 397.183874 352.44 
L 397.183874 213.84 
" style="fill:none;stroke:#ffffff;stroke-linecap:round;"/>
     </g>
     <g id="line2d_47"/>
     <g id="text_23">
      <!-- 01-02 12 -->
      <g style="fill:#262626;" transform="translate(377.447155 366.597813)scale(0.1 -0.1)">
       <use xlink:href="#ArialMT-48"/>
       <use x="55.615234" xlink:href="#ArialMT-49"/>
       <use x="111.230469" xlink:href="#ArialMT-45"/>
       <use x="144.53125" xlink:href="#ArialMT-48"/>
       <use x="200.146484" xlink:href="#ArialMT-50"/>
       <use x="255.761719" xlink:href="#ArialMT-32"/>
       <use x="283.544922" xlink:href="#ArialMT-49"/>
       <use x="339.160156" xlink:href="#ArialMT-50"/>
      </g>
     </g>
    </g>
    <g id="xtick_17">
     <g id="line2d_48">
      <path clip-path="url(#p43d0905690)" d="M 447.999368 352.44 
L 447.999368 213.84 
" style="fill:none;stroke:#ffffff;stroke-linecap:round;"/>
     </g>
     <g id="line2d_49"/>
     <g id="text_24">
      <!-- 01-02 18 -->
      <g style="fill:#262626;" transform="translate(428.262649 366.597813)scale(0.1 -0.1)">
       <use xlink:href="#ArialMT-48"/>
       <use x="55.615234" xlink:href="#ArialMT-49"/>
       <use x="111.230469" xlink:href="#ArialMT-45"/>
       <use x="144.53125" xlink:href="#ArialMT-48"/>
       <use x="200.146484" xlink:href="#ArialMT-50"/>
       <use x="255.761719" xlink:href="#ArialMT-32"/>
       <use x="283.544922" xlink:href="#ArialMT-49"/>
       <use x="339.160156" xlink:href="#ArialMT-56"/>
      </g>
     </g>
    </g>
    <g id="xtick_18">
     <g id="line2d_50">
      <path clip-path="url(#p43d0905690)" d="M 498.814862 352.44 
L 498.814862 213.84 
" style="fill:none;stroke:#ffffff;stroke-linecap:round;"/>
     </g>
     <g id="line2d_51"/>
     <g id="text_25">
      <!-- 01-03 00 -->
      <g style="fill:#262626;" transform="translate(479.078143 366.597813)scale(0.1 -0.1)">
       <use xlink:href="#ArialMT-48"/>
       <use x="55.615234" xlink:href="#ArialMT-49"/>
       <use x="111.230469" xlink:href="#ArialMT-45"/>
       <use x="144.53125" xlink:href="#ArialMT-48"/>
       <use x="200.146484" xlink:href="#ArialMT-51"/>
       <use x="255.761719" xlink:href="#ArialMT-32"/>
       <use x="283.544922" xlink:href="#ArialMT-48"/>
       <use x="339.160156" xlink:href="#ArialMT-48"/>
      </g>
     </g>
    </g>
   </g>
   <g id="matplotlib.axis_4">
    <g id="ytick_4">
     <g id="line2d_52">
      <path clip-path="url(#p43d0905690)" d="M 72 331.912795 
L 518.4 331.912795 
" style="fill:none;stroke:#ffffff;stroke-linecap:round;"/>
     </g>
     <g id="line2d_53"/>
     <g id="text_26">
      <!-- 0.2 -->
      <g style="fill:#262626;" transform="translate(51.1 335.491701)scale(0.1 -0.1)">
       <use xlink:href="#ArialMT-48"/>
       <use x="55.615234" xlink:href="#ArialMT-46"/>
       <use x="83.398438" xlink:href="#ArialMT-50"/>
      </g>
     </g>
    </g>
    <g id="ytick_5">
     <g id="line2d_54">
      <path clip-path="url(#p43d0905690)" d="M 72 303.969596 
L 518.4 303.969596 
" style="fill:none;stroke:#ffffff;stroke-linecap:round;"/>
     </g>
     <g id="line2d_55"/>
     <g id="text_27">
      <!-- 0.4 -->
      <defs>
       <path d="M 32.328125 0 
L 32.328125 17.140625 
L 1.265625 17.140625 
L 1.265625 25.203125 
L 33.9375 71.578125 
L 41.109375 71.578125 
L 41.109375 25.203125 
L 50.78125 25.203125 
L 50.78125 17.140625 
L 41.109375 17.140625 
L 41.109375 0 
z
M 32.328125 25.203125 
L 32.328125 57.46875 
L 9.90625 25.203125 
z
" id="ArialMT-52"/>
      </defs>
      <g style="fill:#262626;" transform="translate(51.1 307.548503)scale(0.1 -0.1)">
       <use xlink:href="#ArialMT-48"/>
       <use x="55.615234" xlink:href="#ArialMT-46"/>
       <use x="83.398438" xlink:href="#ArialMT-52"/>
      </g>
     </g>
    </g>
    <g id="ytick_6">
     <g id="line2d_56">
      <path clip-path="url(#p43d0905690)" d="M 72 276.026398 
L 518.4 276.026398 
" style="fill:none;stroke:#ffffff;stroke-linecap:round;"/>
     </g>
     <g id="line2d_57"/>
     <g id="text_28">
      <!-- 0.6 -->
      <g style="fill:#262626;" transform="translate(51.1 279.605304)scale(0.1 -0.1)">
       <use xlink:href="#ArialMT-48"/>
       <use x="55.615234" xlink:href="#ArialMT-46"/>
       <use x="83.398438" xlink:href="#ArialMT-54"/>
      </g>
     </g>
    </g>
    <g id="ytick_7">
     <g id="line2d_58">
      <path clip-path="url(#p43d0905690)" d="M 72 248.083199 
L 518.4 248.083199 
" style="fill:none;stroke:#ffffff;stroke-linecap:round;"/>
     </g>
     <g id="line2d_59"/>
     <g id="text_29">
      <!-- 0.8 -->
      <g style="fill:#262626;" transform="translate(51.1 251.662105)scale(0.1 -0.1)">
       <use xlink:href="#ArialMT-48"/>
       <use x="55.615234" xlink:href="#ArialMT-46"/>
       <use x="83.398438" xlink:href="#ArialMT-56"/>
      </g>
     </g>
    </g>
    <g id="ytick_8">
     <g id="line2d_60">
      <path clip-path="url(#p43d0905690)" d="M 72 220.14 
L 518.4 220.14 
" style="fill:none;stroke:#ffffff;stroke-linecap:round;"/>
     </g>
     <g id="line2d_61"/>
     <g id="text_30">
      <!-- 1.0 -->
      <g style="fill:#262626;" transform="translate(51.1 223.718906)scale(0.1 -0.1)">
       <use xlink:href="#ArialMT-49"/>
       <use x="55.615234" xlink:href="#ArialMT-46"/>
       <use x="83.398438" xlink:href="#ArialMT-48"/>
      </g>
     </g>
    </g>
   </g>
   <g id="line2d_62">
    <path clip-path="url(#p43d0905690)" d="M 92.290909 220.14 
L 498.109091 220.14 
" style="fill:none;stroke:#000000;stroke-dasharray:1.75,2.8875;stroke-dashoffset:0;stroke-width:1.75;"/>
    <defs>
     <path d="M 0 3.5 
C 0.928211 3.5 1.81853 3.131218 2.474874 2.474874 
C 3.131218 1.81853 3.5 0.928211 3.5 0 
C 3.5 -0.928211 3.131218 -1.81853 2.474874 -2.474874 
C 1.81853 -3.131218 0.928211 -3.5 0 -3.5 
C -0.928211 -3.5 -1.81853 -3.131218 -2.474874 -2.474874 
C -3.131218 -1.81853 -3.5 -0.928211 -3.5 0 
C -3.5 0.928211 -3.131218 1.81853 -2.474874 2.474874 
C -1.81853 3.131218 -0.928211 3.5 0 3.5 
z
" id="m68d358bc36"/>
    </defs>
    <g clip-path="url(#p43d0905690)">
     <use x="92.290909" xlink:href="#m68d358bc36" y="220.14"/>
     <use x="498.109091" xlink:href="#m68d358bc36" y="220.14"/>
    </g>
   </g>
   <g id="line2d_63">
    <path clip-path="url(#p43d0905690)" d="M 92.290909 298.37939 
L 92.99668 299.366051 
L 94.408221 302.301022 
L 96.525534 306.541448 
L 97.937075 310.696573 
L 98.642846 312.558442 
L 100.054387 314.114192 
L 101.465929 315.5655 
L 104.289012 318.331617 
L 105.700553 319.504848 
L 107.112095 320.527508 
L 109.229407 320.8455 
L 111.346719 321.67221 
L 113.464032 323.592438 
L 115.581344 324.753894 
L 119.110198 324.753292 
L 119.815968 324.784668 
L 121.933281 324.257624 
L 124.050593 337.509244 
L 126.167905 335.47751 
L 129.696759 332.973168 
L 130.40253 332.501231 
L 132.519842 328.775851 
L 134.637154 327.945579 
L 137.460237 326.36353 
L 138.871779 325.711708 
L 144.517945 312.911092 
L 145.929486 309.28329 
L 148.046798 303.916521 
L 151.575652 295.893691 
L 153.692964 296.16204 
L 155.810277 291.760986 
L 157.927589 288.296314 
L 160.044901 282.186403 
L 162.162213 287.609274 
L 164.279526 287.240585 
L 167.808379 285.331121 
L 168.51415 284.914053 
L 170.631462 285.971836 
L 172.748775 287.710771 
L 174.866087 286.876645 
L 176.983399 286.709903 
L 179.100711 288.21055 
L 181.218024 288.455603 
L 184.041107 289.319904 
L 185.452648 289.652058 
L 187.56996 291.985474 
L 189.687273 291.875417 
L 191.804585 291.433536 
L 193.921897 292.018018 
L 196.039209 293.46359 
L 198.156522 293.106809 
L 200.273834 294.838412 
L 202.391146 295.02873 
L 204.508458 295.664002 
L 206.625771 295.93734 
L 208.743083 296.994019 
L 210.860395 296.790454 
L 212.977708 297.203995 
L 215.09502 297.051838 
L 217.212332 296.046601 
L 219.329644 295.953213 
L 221.446957 296.78011 
L 224.270039 296.499338 
L 225.681581 296.263342 
L 228.504664 296.520811 
L 229.916206 296.780013 
L 232.033518 296.363284 
L 234.15083 296.501796 
L 236.268142 295.996268 
L 238.385455 296.410007 
L 240.502767 296.14394 
L 242.620079 296.571153 
L 245.443162 296.38008 
L 247.560474 295.95497 
L 248.972016 295.534797 
L 252.50087 295.444604 
L 253.20664 295.400626 
L 255.323953 295.789484 
L 258.852806 295.589784 
L 260.264348 295.653881 
L 264.498972 296.015646 
L 268.733597 296.212082 
L 270.145138 295.995711 
L 272.262451 297.122766 
L 274.379763 297.292512 
L 276.497075 299.482037 
L 278.614387 299.98765 
L 280.7317 302.554624 
L 282.849012 303.583093 
L 284.966324 310.274119 
L 287.083636 312.80149 
L 289.200949 317.738275 
L 291.318261 319.195601 
L 293.435573 323.619334 
L 296.258656 323.790421 
L 297.670198 324.010644 
L 299.78751 322.98552 
L 301.904822 324.16503 
L 304.022134 324.592478 
L 306.139447 325.540762 
L 308.256759 325.231843 
L 310.374071 326.848099 
L 313.197154 326.361596 
L 314.608696 326.269674 
L 316.726008 326.50141 
L 318.84332 328.448139 
L 323.783715 327.063736 
L 325.195257 326.36574 
L 327.312569 339.165092 
L 330.841423 335.265781 
L 333.664506 332.421174 
L 335.781818 328.22992 
L 338.604901 326.316628 
L 340.722213 324.690569 
L 342.133755 323.708631 
L 347.07415 311.394728 
L 352.720316 296.191579 
L 354.837628 290.989923 
L 356.954941 290.725725 
L 359.072253 285.806974 
L 361.189565 281.86971 
L 363.306877 276.190998 
L 365.42419 280.955717 
L 368.247273 279.199531 
L 370.364585 277.725596 
L 371.776126 276.89569 
L 373.893439 277.075804 
L 376.010751 278.439552 
L 378.128063 277.10421 
L 380.245375 276.65824 
L 382.362688 277.680293 
L 388.714624 277.705593 
L 390.831937 279.368543 
L 392.949249 278.147213 
L 395.066561 277.712539 
L 397.183874 278.125387 
L 399.301186 279.077802 
L 401.418498 278.647846 
L 403.53581 279.943379 
L 405.653123 279.739563 
L 408.476206 280.081626 
L 409.887747 280.150309 
L 412.005059 281.054183 
L 414.122372 280.76857 
L 416.239684 280.920505 
L 418.356996 280.597931 
L 420.474308 279.337396 
L 422.591621 279.469139 
L 424.708933 280.139618 
L 426.826245 279.599263 
L 429.649328 279.526015 
L 433.178182 279.697902 
L 439.530119 278.636895 
L 441.647431 279.252794 
L 443.764743 278.973095 
L 445.882055 279.229848 
L 450.11668 278.517026 
L 452.233992 277.88013 
L 455.057075 277.973998 
L 459.2917 278.333223 
L 461.409012 278.283523 
L 467.055178 278.677924 
L 471.289802 279.133411 
L 473.407115 278.839726 
L 475.524427 280.174484 
L 477.641739 280.575887 
L 479.759051 283.412802 
L 481.876364 284.652007 
L 483.993676 287.818056 
L 485.405217 288.941622 
L 486.110988 289.340035 
L 487.52253 293.702225 
L 488.2283 295.592511 
L 488.934071 295.742486 
L 489.639842 295.686849 
L 490.345613 295.478658 
L 491.757154 296.618355 
L 492.462925 297.332865 
L 493.874466 296.334828 
L 494.580237 296.040865 
L 495.991779 298.245065 
L 496.697549 299.587367 
L 498.109091 298.641287 
L 498.109091 298.641287 
" style="fill:none;stroke:#4c72b0;stroke-linecap:round;stroke-width:1.75;"/>
   </g>
   <g id="line2d_64">
    <path clip-path="url(#p43d0905690)" d="M 92.290909 300.37563 
L 92.99668 301.018506 
L 93.702451 302.041308 
L 94.408221 303.294473 
L 96.525534 307.705616 
L 97.937075 311.672296 
L 98.642846 313.440795 
L 100.054387 314.948509 
L 104.994783 319.477327 
L 107.112095 320.898743 
L 111.346719 321.362855 
L 114.169802 323.542526 
L 115.581344 324.451166 
L 117.698656 324.301645 
L 119.815968 324.564012 
L 121.933281 323.846366 
L 124.050593 337.720149 
L 128.990988 333.719904 
L 130.40253 332.712184 
L 132.519842 329.302866 
L 134.637154 328.655434 
L 136.754466 327.039297 
L 138.871779 326.253168 
L 142.400632 319.849921 
L 143.106403 318.50093 
L 145.929486 311.803733 
L 147.341028 308.225307 
L 149.45834 304.407534 
L 151.575652 299.703326 
L 153.692964 300.376971 
L 157.927589 292.423317 
L 160.044901 286.812582 
L 162.162213 291.902945 
L 165.691067 291.182198 
L 166.396838 291.006026 
L 168.51415 289.519923 
L 170.631462 290.370867 
L 172.748775 292.48179 
L 174.866087 291.435713 
L 176.983399 291.022522 
L 179.100711 292.78174 
L 181.218024 293.169233 
L 183.335336 294.335585 
L 185.452648 294.623342 
L 187.56996 296.858121 
L 190.393043 296.358683 
L 191.804585 296.082167 
L 193.921897 296.504938 
L 196.039209 297.639984 
L 198.156522 297.250036 
L 200.273834 299.053081 
L 202.391146 299.097076 
L 204.508458 299.895927 
L 206.625771 300.243677 
L 208.743083 301.111427 
L 210.860395 300.847267 
L 212.977708 301.400698 
L 215.09502 301.216826 
L 217.918103 300.45629 
L 219.329644 300.208132 
L 221.446957 300.92108 
L 224.270039 300.739452 
L 225.681581 300.543638 
L 230.621976 300.740019 
L 234.15083 300.610578 
L 236.268142 299.909642 
L 238.385455 300.405634 
L 240.502767 299.972332 
L 242.620079 300.283882 
L 246.148933 300.090786 
L 246.854704 300.018242 
L 248.972016 299.289581 
L 252.50087 299.24711 
L 253.20664 299.212114 
L 255.323953 299.723581 
L 258.147036 299.537855 
L 260.264348 299.625404 
L 262.38166 299.823785 
L 267.322055 300.101893 
L 268.027826 300.205612 
L 270.145138 299.960399 
L 272.262451 301.125024 
L 274.379763 301.264632 
L 276.497075 303.30115 
L 278.614387 303.621602 
L 280.7317 305.815314 
L 282.849012 306.621839 
L 284.966324 312.676978 
L 287.083636 315.226222 
L 289.200949 319.463395 
L 291.318261 320.733609 
L 293.435573 324.822576 
L 297.670198 324.979347 
L 299.78751 323.800335 
L 301.904822 324.914063 
L 304.022134 325.136805 
L 306.139447 325.960948 
L 308.256759 325.661254 
L 310.374071 327.127895 
L 314.608696 326.06453 
L 316.726008 325.799144 
L 318.84332 327.892762 
L 321.666403 327.244426 
L 323.077945 327.040344 
L 325.195257 325.832307 
L 327.312569 339.218498 
L 330.841423 335.508384 
L 332.958735 333.290828 
L 333.664506 332.576407 
L 335.781818 328.724885 
L 337.89913 327.576724 
L 340.016443 325.530937 
L 342.133755 324.293673 
L 344.956838 318.625563 
L 346.368379 315.558238 
L 351.308775 302.910795 
L 353.426087 298.364894 
L 354.837628 295.002548 
L 356.954941 295.197038 
L 362.601107 282.865937 
L 363.306877 281.132233 
L 365.42419 285.558008 
L 370.364585 282.825723 
L 371.776126 281.837484 
L 373.893439 281.898229 
L 376.010751 283.677092 
L 378.128063 282.048374 
L 380.245375 281.534093 
L 382.362688 282.683176 
L 385.891542 283.231647 
L 386.597312 283.372613 
L 388.714624 283.285003 
L 390.831937 284.843629 
L 392.949249 283.370402 
L 395.066561 282.967747 
L 397.183874 283.201831 
L 399.301186 283.946039 
L 401.418498 283.534398 
L 403.53581 284.866291 
L 405.653123 284.614791 
L 407.770435 285.079212 
L 409.887747 285.163682 
L 412.005059 285.911386 
L 414.122372 285.652098 
L 416.239684 285.947684 
L 418.356996 285.610584 
L 420.474308 284.670948 
L 422.591621 284.555824 
L 424.708933 285.142342 
L 426.826245 284.688873 
L 429.649328 284.65713 
L 431.76664 284.688275 
L 436.001265 284.365679 
L 438.118577 283.773776 
L 439.530119 283.465177 
L 441.647431 284.155234 
L 443.764743 283.760757 
L 445.882055 283.902024 
L 450.11668 283.288346 
L 452.233992 282.561562 
L 455.762846 282.782648 
L 457.880158 283.10555 
L 458.585929 283.227617 
L 460.703241 283.057102 
L 464.232095 283.400792 
L 470.584032 283.847413 
L 471.289802 283.957765 
L 473.407115 283.702478 
L 475.524427 285.124187 
L 477.641739 285.442791 
L 479.759051 288.062649 
L 481.876364 289.136089 
L 483.993676 291.677726 
L 485.405217 292.567179 
L 486.110988 292.853895 
L 487.52253 296.830614 
L 488.2283 298.535257 
L 488.934071 298.720816 
L 489.639842 298.710038 
L 490.345613 298.555637 
L 491.757154 299.171766 
L 492.462925 299.60724 
L 493.874466 298.579214 
L 494.580237 298.269571 
L 495.991779 300.332658 
L 496.697549 301.598622 
L 498.109091 300.671575 
L 498.109091 300.671575 
" style="fill:none;stroke:#55a868;stroke-linecap:round;stroke-width:1.75;"/>
   </g>
   <g id="line2d_65">
    <path clip-path="url(#p43d0905690)" d="M 92.290909 312.589113 
L 93.702451 316.527642 
L 94.408221 318.707717 
L 96.525534 320.874708 
L 97.937075 324.259149 
L 98.642846 325.807335 
L 105.700553 331.838002 
L 107.112095 332.828997 
L 109.229407 333.517741 
L 111.346719 335.990005 
L 113.464032 337.945513 
L 116.287115 338.066308 
L 117.698656 338.23435 
L 119.815968 337.710339 
L 121.933281 338.04146 
L 124.050593 344.499163 
L 126.167905 342.21141 
L 128.990988 341.623545 
L 130.40253 341.225004 
L 132.519842 337.669116 
L 134.637154 336.478167 
L 136.754466 336.934122 
L 138.871779 335.614729 
L 140.989091 328.809993 
L 143.812174 322.438594 
L 146.635257 316.253314 
L 147.341028 314.645447 
L 149.45834 308.250666 
L 151.575652 304.535699 
L 153.692964 303.274373 
L 155.810277 298.62843 
L 157.927589 298.443863 
L 160.044901 292.679951 
L 162.162213 297.40388 
L 164.279526 297.171793 
L 166.396838 294.477872 
L 168.51415 294.535146 
L 170.631462 295.959909 
L 172.748775 295.778061 
L 174.866087 295.984105 
L 176.983399 296.748746 
L 179.100711 296.81317 
L 181.218024 296.468433 
L 183.335336 295.340107 
L 185.452648 296.337247 
L 187.56996 298.212381 
L 189.687273 299.05943 
L 191.804585 298.645675 
L 193.921897 299.601038 
L 196.039209 301.646878 
L 198.156522 301.531205 
L 200.979605 302.623071 
L 202.391146 303.053114 
L 206.625771 302.80345 
L 208.743083 304.163995 
L 211.566166 304.169534 
L 213.683478 304.023885 
L 215.09502 304.033126 
L 217.212332 302.07417 
L 221.446957 303.940627 
L 226.387352 303.136255 
L 227.798893 303.190332 
L 229.916206 304.479207 
L 232.033518 303.036997 
L 234.15083 303.872786 
L 236.268142 304.235004 
L 238.385455 304.213907 
L 241.208538 304.862233 
L 242.620079 305.322112 
L 244.737391 305.142214 
L 246.854704 304.556158 
L 251.795099 304.327524 
L 258.147036 303.897299 
L 260.264348 303.805036 
L 262.38166 303.965922 
L 264.498972 304.411691 
L 265.910514 304.793131 
L 268.733597 304.373669 
L 270.145138 304.052736 
L 272.262451 304.656366 
L 274.379763 304.874171 
L 276.497075 306.847979 
L 278.614387 307.834907 
L 280.7317 310.836262 
L 282.849012 312.295403 
L 284.966324 318.923843 
L 287.083636 320.498576 
L 289.200949 326.206085 
L 291.318261 327.822115 
L 293.435573 331.900857 
L 295.552885 331.745304 
L 297.670198 332.988106 
L 299.78751 332.863455 
L 306.139447 335.932884 
L 308.256759 335.698226 
L 310.374071 337.285228 
L 312.491383 337.491779 
L 314.608696 338.62617 
L 316.726008 340.539943 
L 318.84332 341.291899 
L 320.960632 340.890664 
L 323.077945 339.964825 
L 325.195257 339.852742 
L 327.312569 346.14 
L 329.429881 343.545738 
L 332.252964 342.19503 
L 333.664506 341.370198 
L 335.781818 337.425832 
L 337.89913 335.84194 
L 340.016443 335.950635 
L 342.133755 334.150724 
L 344.251067 326.988871 
L 347.07415 319.883535 
L 350.603004 311.410052 
L 352.720316 304.569543 
L 354.837628 300.610269 
L 356.954941 298.811525 
L 359.072253 294.266496 
L 361.189565 293.174456 
L 363.306877 287.643601 
L 365.42419 291.960076 
L 367.541502 290.931085 
L 369.658814 288.069649 
L 371.776126 288.102317 
L 373.893439 288.64322 
L 376.010751 288.063209 
L 378.833834 288.21509 
L 380.951146 288.254987 
L 382.362688 288.39869 
L 385.891542 286.612591 
L 386.597312 286.229571 
L 388.714624 286.371472 
L 390.831937 287.828447 
L 392.949249 287.922967 
L 395.066561 287.525292 
L 397.183874 288.428898 
L 399.301186 289.789623 
L 401.418498 289.443617 
L 403.53581 290.161672 
L 405.653123 290.197467 
L 407.770435 289.843965 
L 409.887747 289.976275 
L 412.005059 291.120797 
L 415.533913 290.565524 
L 416.945455 290.376289 
L 418.356996 290.271462 
L 420.474308 288.309817 
L 423.297391 289.517107 
L 424.708933 290.007039 
L 426.826245 289.345772 
L 429.649328 289.150755 
L 431.06087 289.211356 
L 433.178182 290.052652 
L 435.295494 288.608945 
L 437.412806 289.633381 
L 440.94166 289.736688 
L 443.764743 290.006804 
L 445.882055 290.584053 
L 447.999368 290.368005 
L 450.11668 289.766582 
L 455.762846 289.584548 
L 457.174387 289.537641 
L 459.2917 289.411143 
L 460.703241 289.446334 
L 462.820553 289.012599 
L 466.349407 289.648038 
L 469.17249 290.316064 
L 473.407115 289.653428 
L 477.641739 290.77372 
L 479.759051 293.397812 
L 481.876364 294.795569 
L 483.993676 299.07888 
L 485.405217 300.64333 
L 486.110988 301.299753 
L 487.52253 305.518007 
L 488.2283 307.411876 
L 488.934071 307.383782 
L 489.639842 307.188384 
L 490.345613 306.861594 
L 491.757154 309.462696 
L 492.462925 310.918976 
L 493.874466 310.372817 
L 494.580237 310.236222 
L 495.991779 312.177455 
L 496.697549 313.325598 
L 498.109091 312.63963 
L 498.109091 312.63963 
" style="fill:none;stroke:#c44e52;stroke-linecap:round;stroke-width:1.75;"/>
   </g>
   <g id="patch_8">
    <path d="M 72 352.44 
L 72 213.84 
" style="fill:none;"/>
   </g>
   <g id="patch_9">
    <path d="M 518.4 352.44 
L 518.4 213.84 
" style="fill:none;"/>
   </g>
   <g id="patch_10">
    <path d="M 72 352.44 
L 518.4 352.44 
" style="fill:none;"/>
   </g>
   <g id="patch_11">
    <path d="M 72 213.84 
L 518.4 213.84 
" style="fill:none;"/>
   </g>
   <g id="text_31">
    <!-- Courant numbers -->
    <defs>
     <path d="M 58.796875 25.09375 
L 68.265625 22.703125 
Q 65.28125 11.03125 57.546875 4.90625 
Q 49.8125 -1.21875 38.625 -1.21875 
Q 27.046875 -1.21875 19.796875 3.484375 
Q 12.546875 8.203125 8.765625 17.140625 
Q 4.984375 26.078125 4.984375 36.328125 
Q 4.984375 47.515625 9.25 55.828125 
Q 13.53125 64.15625 21.40625 68.46875 
Q 29.296875 72.796875 38.765625 72.796875 
Q 49.515625 72.796875 56.828125 67.328125 
Q 64.15625 61.859375 67.046875 51.953125 
L 57.71875 49.75 
Q 55.21875 57.5625 50.484375 61.125 
Q 45.75 64.703125 38.578125 64.703125 
Q 30.328125 64.703125 24.78125 60.734375 
Q 19.234375 56.78125 16.984375 50.109375 
Q 14.75 43.453125 14.75 36.375 
Q 14.75 27.25 17.40625 20.4375 
Q 20.0625 13.625 25.671875 10.25 
Q 31.296875 6.890625 37.84375 6.890625 
Q 45.796875 6.890625 51.3125 11.46875 
Q 56.84375 16.0625 58.796875 25.09375 
z
" id="ArialMT-67"/>
     <path d="M 3.328125 25.921875 
Q 3.328125 40.328125 11.328125 47.265625 
Q 18.015625 53.03125 27.640625 53.03125 
Q 38.328125 53.03125 45.109375 46.015625 
Q 51.90625 39.015625 51.90625 26.65625 
Q 51.90625 16.65625 48.90625 10.90625 
Q 45.90625 5.171875 40.15625 2 
Q 34.421875 -1.171875 27.640625 -1.171875 
Q 16.75 -1.171875 10.03125 5.8125 
Q 3.328125 12.796875 3.328125 25.921875 
z
M 12.359375 25.921875 
Q 12.359375 15.96875 16.703125 11.015625 
Q 21.046875 6.0625 27.640625 6.0625 
Q 34.1875 6.0625 38.53125 11.03125 
Q 42.875 16.015625 42.875 26.21875 
Q 42.875 35.84375 38.5 40.796875 
Q 34.125 45.75 27.640625 45.75 
Q 21.046875 45.75 16.703125 40.8125 
Q 12.359375 35.890625 12.359375 25.921875 
z
" id="ArialMT-111"/>
     <path d="M 40.578125 0 
L 40.578125 7.625 
Q 34.515625 -1.171875 24.125 -1.171875 
Q 19.53125 -1.171875 15.546875 0.578125 
Q 11.578125 2.34375 9.640625 5 
Q 7.71875 7.671875 6.9375 11.53125 
Q 6.390625 14.109375 6.390625 19.734375 
L 6.390625 51.859375 
L 15.1875 51.859375 
L 15.1875 23.09375 
Q 15.1875 16.21875 15.71875 13.8125 
Q 16.546875 10.359375 19.234375 8.375 
Q 21.921875 6.390625 25.875 6.390625 
Q 29.828125 6.390625 33.296875 8.421875 
Q 36.765625 10.453125 38.203125 13.9375 
Q 39.65625 17.4375 39.65625 24.078125 
L 39.65625 51.859375 
L 48.4375 51.859375 
L 48.4375 0 
z
" id="ArialMT-117"/>
     <path d="M 6.59375 0 
L 6.59375 51.859375 
L 14.5 51.859375 
L 14.5 44.484375 
Q 20.21875 53.03125 31 53.03125 
Q 35.6875 53.03125 39.625 51.34375 
Q 43.5625 49.65625 45.515625 46.921875 
Q 47.46875 44.1875 48.25 40.4375 
Q 48.734375 37.984375 48.734375 31.890625 
L 48.734375 0 
L 39.9375 0 
L 39.9375 31.546875 
Q 39.9375 36.921875 38.90625 39.578125 
Q 37.890625 42.234375 35.28125 43.8125 
Q 32.671875 45.40625 29.15625 45.40625 
Q 23.53125 45.40625 19.453125 41.84375 
Q 15.375 38.28125 15.375 28.328125 
L 15.375 0 
z
" id="ArialMT-110"/>
     <path d="M 6.59375 0 
L 6.59375 51.859375 
L 14.453125 51.859375 
L 14.453125 44.578125 
Q 16.890625 48.390625 20.9375 50.703125 
Q 25 53.03125 30.171875 53.03125 
Q 35.9375 53.03125 39.625 50.640625 
Q 43.3125 48.25 44.828125 43.953125 
Q 50.984375 53.03125 60.84375 53.03125 
Q 68.5625 53.03125 72.703125 48.75 
Q 76.859375 44.484375 76.859375 35.59375 
L 76.859375 0 
L 68.109375 0 
L 68.109375 32.671875 
Q 68.109375 37.9375 67.25 40.25 
Q 66.40625 42.578125 64.15625 43.984375 
Q 61.921875 45.40625 58.890625 45.40625 
Q 53.421875 45.40625 49.796875 41.765625 
Q 46.1875 38.140625 46.1875 30.125 
L 46.1875 0 
L 37.40625 0 
L 37.40625 33.6875 
Q 37.40625 39.546875 35.25 42.46875 
Q 33.109375 45.40625 28.21875 45.40625 
Q 24.515625 45.40625 21.359375 43.453125 
Q 18.21875 41.5 16.796875 37.734375 
Q 15.375 33.984375 15.375 26.90625 
L 15.375 0 
z
" id="ArialMT-109"/>
     <path d="M 14.703125 0 
L 6.546875 0 
L 6.546875 71.578125 
L 15.328125 71.578125 
L 15.328125 46.046875 
Q 20.90625 53.03125 29.546875 53.03125 
Q 34.328125 53.03125 38.59375 51.09375 
Q 42.875 49.171875 45.625 45.671875 
Q 48.390625 42.1875 49.953125 37.25 
Q 51.515625 32.328125 51.515625 26.703125 
Q 51.515625 13.375 44.921875 6.09375 
Q 38.328125 -1.171875 29.109375 -1.171875 
Q 19.921875 -1.171875 14.703125 6.5 
z
M 14.59375 26.3125 
Q 14.59375 17 17.140625 12.84375 
Q 21.296875 6.0625 28.375 6.0625 
Q 34.125 6.0625 38.328125 11.0625 
Q 42.53125 16.0625 42.53125 25.984375 
Q 42.53125 36.140625 38.5 40.96875 
Q 34.46875 45.796875 28.765625 45.796875 
Q 23 45.796875 18.796875 40.796875 
Q 14.59375 35.796875 14.59375 26.3125 
z
" id="ArialMT-98"/>
    </defs>
    <g style="fill:#262626;" transform="translate(248.847187 207.84)scale(0.12 -0.12)">
     <use xlink:href="#ArialMT-67"/>
     <use x="72.216797" xlink:href="#ArialMT-111"/>
     <use x="127.832031" xlink:href="#ArialMT-117"/>
     <use x="183.447266" xlink:href="#ArialMT-114"/>
     <use x="216.748047" xlink:href="#ArialMT-97"/>
     <use x="272.363281" xlink:href="#ArialMT-110"/>
     <use x="327.978516" xlink:href="#ArialMT-116"/>
     <use x="355.761719" xlink:href="#ArialMT-32"/>
     <use x="383.544922" xlink:href="#ArialMT-110"/>
     <use x="439.160156" xlink:href="#ArialMT-117"/>
     <use x="494.775391" xlink:href="#ArialMT-109"/>
     <use x="578.076172" xlink:href="#ArialMT-98"/>
     <use x="633.691406" xlink:href="#ArialMT-101"/>
     <use x="689.306641" xlink:href="#ArialMT-114"/>
     <use x="722.607422" xlink:href="#ArialMT-115"/>
    </g>
   </g>
  </g>
  <g id="text_32">
   <!-- Horizon: 48.0h, Time step: 300, Neighbourhoods: 2, case: energy -->
   <defs>
    <path d="M 8.015625 0 
L 8.015625 71.578125 
L 17.484375 71.578125 
L 17.484375 42.1875 
L 54.6875 42.1875 
L 54.6875 71.578125 
L 64.15625 71.578125 
L 64.15625 0 
L 54.6875 0 
L 54.6875 33.734375 
L 17.484375 33.734375 
L 17.484375 0 
z
" id="ArialMT-72"/>
    <path d="M 1.953125 0 
L 1.953125 7.125 
L 34.96875 45.015625 
Q 29.34375 44.734375 25.046875 44.734375 
L 3.90625 44.734375 
L 3.90625 51.859375 
L 46.296875 51.859375 
L 46.296875 46.046875 
L 18.21875 13.140625 
L 12.796875 7.125 
Q 18.703125 7.5625 23.875 7.5625 
L 47.859375 7.5625 
L 47.859375 0 
z
" id="ArialMT-122"/>
    <path d="M 9.03125 41.84375 
L 9.03125 51.859375 
L 19.046875 51.859375 
L 19.046875 41.84375 
z
M 9.03125 0 
L 9.03125 10.015625 
L 19.046875 10.015625 
L 19.046875 0 
z
" id="ArialMT-58"/>
    <path d="M 6.59375 0 
L 6.59375 71.578125 
L 15.375 71.578125 
L 15.375 45.90625 
Q 21.53125 53.03125 30.90625 53.03125 
Q 36.671875 53.03125 40.921875 50.75 
Q 45.171875 48.484375 47 44.484375 
Q 48.828125 40.484375 48.828125 32.859375 
L 48.828125 0 
L 40.046875 0 
L 40.046875 32.859375 
Q 40.046875 39.453125 37.1875 42.453125 
Q 34.328125 45.453125 29.109375 45.453125 
Q 25.203125 45.453125 21.75 43.421875 
Q 18.3125 41.40625 16.84375 37.9375 
Q 15.375 34.46875 15.375 28.375 
L 15.375 0 
z
" id="ArialMT-104"/>
    <path d="M 8.890625 0 
L 8.890625 10.015625 
L 18.890625 10.015625 
L 18.890625 0 
Q 18.890625 -5.515625 16.9375 -8.90625 
Q 14.984375 -12.3125 10.75 -14.15625 
L 8.296875 -10.40625 
Q 11.078125 -9.1875 12.390625 -6.8125 
Q 13.71875 -4.4375 13.875 0 
z
" id="ArialMT-44"/>
    <path d="M 25.921875 0 
L 25.921875 63.140625 
L 2.34375 63.140625 
L 2.34375 71.578125 
L 59.078125 71.578125 
L 59.078125 63.140625 
L 35.40625 63.140625 
L 35.40625 0 
z
" id="ArialMT-84"/>
    <path d="M 7.625 0 
L 7.625 71.578125 
L 17.328125 71.578125 
L 54.9375 15.375 
L 54.9375 71.578125 
L 64.015625 71.578125 
L 64.015625 0 
L 54.296875 0 
L 16.703125 56.25 
L 16.703125 0 
z
" id="ArialMT-78"/>
    <path d="M 4.984375 -4.296875 
L 13.53125 -5.5625 
Q 14.0625 -9.515625 16.5 -11.328125 
Q 19.78125 -13.765625 25.4375 -13.765625 
Q 31.546875 -13.765625 34.859375 -11.328125 
Q 38.1875 -8.890625 39.359375 -4.5 
Q 40.046875 -1.8125 39.984375 6.78125 
Q 34.234375 0 25.640625 0 
Q 14.9375 0 9.078125 7.71875 
Q 3.21875 15.4375 3.21875 26.21875 
Q 3.21875 33.640625 5.90625 39.90625 
Q 8.59375 46.1875 13.6875 49.609375 
Q 18.796875 53.03125 25.6875 53.03125 
Q 34.859375 53.03125 40.828125 45.609375 
L 40.828125 51.859375 
L 48.921875 51.859375 
L 48.921875 7.03125 
Q 48.921875 -5.078125 46.453125 -10.125 
Q 44 -15.1875 38.640625 -18.109375 
Q 33.296875 -21.046875 25.484375 -21.046875 
Q 16.21875 -21.046875 10.5 -16.875 
Q 4.78125 -12.703125 4.984375 -4.296875 
z
M 12.25 26.859375 
Q 12.25 16.65625 16.296875 11.96875 
Q 20.359375 7.28125 26.46875 7.28125 
Q 32.515625 7.28125 36.609375 11.9375 
Q 40.71875 16.609375 40.71875 26.5625 
Q 40.71875 36.078125 36.5 40.90625 
Q 32.28125 45.75 26.3125 45.75 
Q 20.453125 45.75 16.34375 40.984375 
Q 12.25 36.234375 12.25 26.859375 
z
" id="ArialMT-103"/>
    <path d="M 40.4375 19 
L 49.078125 17.875 
Q 47.65625 8.9375 41.8125 3.875 
Q 35.984375 -1.171875 27.484375 -1.171875 
Q 16.84375 -1.171875 10.375 5.78125 
Q 3.90625 12.75 3.90625 25.734375 
Q 3.90625 34.125 6.6875 40.421875 
Q 9.46875 46.734375 15.15625 49.875 
Q 20.84375 53.03125 27.546875 53.03125 
Q 35.984375 53.03125 41.359375 48.75 
Q 46.734375 44.484375 48.25 36.625 
L 39.703125 35.296875 
Q 38.484375 40.53125 35.375 43.15625 
Q 32.28125 45.796875 27.875 45.796875 
Q 21.234375 45.796875 17.078125 41.03125 
Q 12.9375 36.28125 12.9375 25.984375 
Q 12.9375 15.53125 16.9375 10.796875 
Q 20.953125 6.0625 27.390625 6.0625 
Q 32.5625 6.0625 36.03125 9.234375 
Q 39.5 12.40625 40.4375 19 
z
" id="ArialMT-99"/>
    <path d="M 6.203125 -19.96875 
L 5.21875 -11.71875 
Q 8.109375 -12.5 10.25 -12.5 
Q 13.1875 -12.5 14.9375 -11.515625 
Q 16.703125 -10.546875 17.828125 -8.796875 
Q 18.65625 -7.46875 20.515625 -2.25 
Q 20.75 -1.515625 21.296875 -0.09375 
L 1.609375 51.859375 
L 11.078125 51.859375 
L 21.875 21.828125 
Q 23.96875 16.109375 25.640625 9.8125 
Q 27.15625 15.875 29.25 21.625 
L 40.328125 51.859375 
L 49.125 51.859375 
L 29.390625 -0.875 
Q 26.21875 -9.421875 24.46875 -12.640625 
Q 22.125 -17 19.09375 -19.015625 
Q 16.0625 -21.046875 11.859375 -21.046875 
Q 9.328125 -21.046875 6.203125 -19.96875 
z
" id="ArialMT-121"/>
   </defs>
   <g style="fill:#262626;" transform="translate(114.248437 16.545)scale(0.12 -0.12)">
    <use xlink:href="#ArialMT-72"/>
    <use x="72.216797" xlink:href="#ArialMT-111"/>
    <use x="127.832031" xlink:href="#ArialMT-114"/>
    <use x="161.132812" xlink:href="#ArialMT-105"/>
    <use x="183.349609" xlink:href="#ArialMT-122"/>
    <use x="233.349609" xlink:href="#ArialMT-111"/>
    <use x="288.964844" xlink:href="#ArialMT-110"/>
    <use x="344.580078" xlink:href="#ArialMT-58"/>
    <use x="372.363281" xlink:href="#ArialMT-32"/>
    <use x="400.146484" xlink:href="#ArialMT-52"/>
    <use x="455.761719" xlink:href="#ArialMT-56"/>
    <use x="511.376953" xlink:href="#ArialMT-46"/>
    <use x="539.160156" xlink:href="#ArialMT-48"/>
    <use x="594.775391" xlink:href="#ArialMT-104"/>
    <use x="650.390625" xlink:href="#ArialMT-44"/>
    <use x="678.173828" xlink:href="#ArialMT-32"/>
    <use x="705.941406" xlink:href="#ArialMT-84"/>
    <use x="766.978516" xlink:href="#ArialMT-105"/>
    <use x="789.195312" xlink:href="#ArialMT-109"/>
    <use x="872.496094" xlink:href="#ArialMT-101"/>
    <use x="928.111328" xlink:href="#ArialMT-32"/>
    <use x="955.894531" xlink:href="#ArialMT-115"/>
    <use x="1005.894531" xlink:href="#ArialMT-116"/>
    <use x="1033.677734" xlink:href="#ArialMT-101"/>
    <use x="1089.292969" xlink:href="#ArialMT-112"/>
    <use x="1144.908203" xlink:href="#ArialMT-58"/>
    <use x="1172.691406" xlink:href="#ArialMT-32"/>
    <use x="1200.474609" xlink:href="#ArialMT-51"/>
    <use x="1256.089844" xlink:href="#ArialMT-48"/>
    <use x="1311.705078" xlink:href="#ArialMT-48"/>
    <use x="1367.320312" xlink:href="#ArialMT-44"/>
    <use x="1395.103516" xlink:href="#ArialMT-32"/>
    <use x="1422.886719" xlink:href="#ArialMT-78"/>
    <use x="1495.103516" xlink:href="#ArialMT-101"/>
    <use x="1550.71875" xlink:href="#ArialMT-105"/>
    <use x="1572.935547" xlink:href="#ArialMT-103"/>
    <use x="1628.550781" xlink:href="#ArialMT-104"/>
    <use x="1684.166016" xlink:href="#ArialMT-98"/>
    <use x="1739.78125" xlink:href="#ArialMT-111"/>
    <use x="1795.396484" xlink:href="#ArialMT-117"/>
    <use x="1851.011719" xlink:href="#ArialMT-114"/>
    <use x="1884.3125" xlink:href="#ArialMT-104"/>
    <use x="1939.927734" xlink:href="#ArialMT-111"/>
    <use x="1995.542969" xlink:href="#ArialMT-111"/>
    <use x="2051.158203" xlink:href="#ArialMT-100"/>
    <use x="2106.773438" xlink:href="#ArialMT-115"/>
    <use x="2156.773438" xlink:href="#ArialMT-58"/>
    <use x="2184.556641" xlink:href="#ArialMT-32"/>
    <use x="2212.339844" xlink:href="#ArialMT-50"/>
    <use x="2267.955078" xlink:href="#ArialMT-44"/>
    <use x="2295.738281" xlink:href="#ArialMT-32"/>
    <use x="2323.521484" xlink:href="#ArialMT-99"/>
    <use x="2373.521484" xlink:href="#ArialMT-97"/>
    <use x="2429.136719" xlink:href="#ArialMT-115"/>
    <use x="2479.136719" xlink:href="#ArialMT-101"/>
    <use x="2534.751953" xlink:href="#ArialMT-58"/>
    <use x="2562.535156" xlink:href="#ArialMT-32"/>
    <use x="2590.318359" xlink:href="#ArialMT-101"/>
    <use x="2645.933594" xlink:href="#ArialMT-110"/>
    <use x="2701.548828" xlink:href="#ArialMT-101"/>
    <use x="2757.164062" xlink:href="#ArialMT-114"/>
    <use x="2790.464844" xlink:href="#ArialMT-103"/>
    <use x="2846.080078" xlink:href="#ArialMT-121"/>
   </g>
  </g>
 </g>
 <defs>
  <clipPath id="pe4548686a4">
   <rect height="138.6" width="446.4" x="72" y="47.52"/>
  </clipPath>
  <clipPath id="p43d0905690">
   <rect height="138.6" width="446.4" x="72" y="213.84"/>
  </clipPath>
 </defs>
</svg>
