<?xml version="1.0" encoding="utf-8" standalone="no"?>
<!DOCTYPE svg PUBLIC "-//W3C//DTD SVG 1.1//EN"
  "http://www.w3.org/Graphics/SVG/1.1/DTD/svg11.dtd">
<!-- Created with matplotlib (https://matplotlib.org/) -->
<svg height="396pt" version="1.1" viewBox="0 0 576 396" width="576pt" xmlns="http://www.w3.org/2000/svg" xmlns:xlink="http://www.w3.org/1999/xlink">
 <defs>
  <style type="text/css">
*{stroke-linecap:butt;stroke-linejoin:round;}
  </style>
 </defs>
 <g id="figure_1">
  <g id="patch_1">
   <path d="M 0 396 
L 576 396 
L 576 0 
L 0 0 
z
" style="fill:#ffffff;"/>
  </g>
  <g id="axes_1">
   <g id="patch_2">
    <path d="M 72 186.12 
L 518.4 186.12 
L 518.4 47.52 
L 72 47.52 
z
" style="fill:#eaeaf2;"/>
   </g>
   <g id="matplotlib.axis_1">
    <g id="xtick_1">
     <g id="line2d_1">
      <path clip-path="url(#p137ad6ce83)" d="M 92.290909 186.12 
L 92.290909 47.52 
" style="fill:none;stroke:#ffffff;stroke-linecap:round;"/>
     </g>
     <g id="line2d_2"/>
     <g id="text_1">
      <!-- 01-01 00 -->
      <defs>
       <path d="M 4.15625 35.296875 
Q 4.15625 48 6.765625 55.734375 
Q 9.375 63.484375 14.515625 67.671875 
Q 19.671875 71.875 27.484375 71.875 
Q 33.25 71.875 37.59375 69.546875 
Q 41.9375 67.234375 44.765625 62.859375 
Q 47.609375 58.5 49.21875 52.21875 
Q 50.828125 45.953125 50.828125 35.296875 
Q 50.828125 22.703125 48.234375 14.96875 
Q 45.65625 7.234375 40.5 3 
Q 35.359375 -1.21875 27.484375 -1.21875 
Q 17.140625 -1.21875 11.234375 6.203125 
Q 4.15625 15.140625 4.15625 35.296875 
z
M 13.1875 35.296875 
Q 13.1875 17.671875 17.3125 11.828125 
Q 21.4375 6 27.484375 6 
Q 33.546875 6 37.671875 11.859375 
Q 41.796875 17.71875 41.796875 35.296875 
Q 41.796875 52.984375 37.671875 58.78125 
Q 33.546875 64.59375 27.390625 64.59375 
Q 21.34375 64.59375 17.71875 59.46875 
Q 13.1875 52.9375 13.1875 35.296875 
z
" id="ArialMT-48"/>
       <path d="M 37.25 0 
L 28.46875 0 
L 28.46875 56 
Q 25.296875 52.984375 20.140625 49.953125 
Q 14.984375 46.921875 10.890625 45.40625 
L 10.890625 53.90625 
Q 18.265625 57.375 23.78125 62.296875 
Q 29.296875 67.234375 31.59375 71.875 
L 37.25 71.875 
z
" id="ArialMT-49"/>
       <path d="M 3.171875 21.484375 
L 3.171875 30.328125 
L 30.171875 30.328125 
L 30.171875 21.484375 
z
" id="ArialMT-45"/>
       <path id="ArialMT-32"/>
      </defs>
      <g style="fill:#262626;" transform="translate(72.55419 200.277812)scale(0.1 -0.1)">
       <use xlink:href="#ArialMT-48"/>
       <use x="55.615234" xlink:href="#ArialMT-49"/>
       <use x="111.230469" xlink:href="#ArialMT-45"/>
       <use x="144.53125" xlink:href="#ArialMT-48"/>
       <use x="200.146484" xlink:href="#ArialMT-49"/>
       <use x="255.761719" xlink:href="#ArialMT-32"/>
       <use x="283.544922" xlink:href="#ArialMT-48"/>
       <use x="339.160156" xlink:href="#ArialMT-48"/>
      </g>
     </g>
    </g>
    <g id="xtick_2">
     <g id="line2d_3">
      <path clip-path="url(#p137ad6ce83)" d="M 143.194932 186.12 
L 143.194932 47.52 
" style="fill:none;stroke:#ffffff;stroke-linecap:round;"/>
     </g>
     <g id="line2d_4"/>
     <g id="text_2">
      <!-- 01-01 03 -->
      <defs>
       <path d="M 4.203125 18.890625 
L 12.984375 20.0625 
Q 14.5 12.59375 18.140625 9.296875 
Q 21.78125 6 27 6 
Q 33.203125 6 37.46875 10.296875 
Q 41.75 14.59375 41.75 20.953125 
Q 41.75 27 37.796875 30.921875 
Q 33.84375 34.859375 27.734375 34.859375 
Q 25.25 34.859375 21.53125 33.890625 
L 22.515625 41.609375 
Q 23.390625 41.5 23.921875 41.5 
Q 29.546875 41.5 34.03125 44.421875 
Q 38.53125 47.359375 38.53125 53.46875 
Q 38.53125 58.296875 35.25 61.46875 
Q 31.984375 64.65625 26.8125 64.65625 
Q 21.6875 64.65625 18.265625 61.421875 
Q 14.84375 58.203125 13.875 51.765625 
L 5.078125 53.328125 
Q 6.6875 62.15625 12.390625 67.015625 
Q 18.109375 71.875 26.609375 71.875 
Q 32.46875 71.875 37.390625 69.359375 
Q 42.328125 66.84375 44.9375 62.5 
Q 47.5625 58.15625 47.5625 53.265625 
Q 47.5625 48.640625 45.0625 44.828125 
Q 42.578125 41.015625 37.703125 38.765625 
Q 44.046875 37.3125 47.5625 32.6875 
Q 51.078125 28.078125 51.078125 21.140625 
Q 51.078125 11.765625 44.234375 5.25 
Q 37.40625 -1.265625 26.953125 -1.265625 
Q 17.53125 -1.265625 11.296875 4.34375 
Q 5.078125 9.96875 4.203125 18.890625 
z
" id="ArialMT-51"/>
      </defs>
      <g style="fill:#262626;" transform="translate(123.458213 200.277812)scale(0.1 -0.1)">
       <use xlink:href="#ArialMT-48"/>
       <use x="55.615234" xlink:href="#ArialMT-49"/>
       <use x="111.230469" xlink:href="#ArialMT-45"/>
       <use x="144.53125" xlink:href="#ArialMT-48"/>
       <use x="200.146484" xlink:href="#ArialMT-49"/>
       <use x="255.761719" xlink:href="#ArialMT-32"/>
       <use x="283.544922" xlink:href="#ArialMT-48"/>
       <use x="339.160156" xlink:href="#ArialMT-51"/>
      </g>
     </g>
    </g>
    <g id="xtick_3">
     <g id="line2d_5">
      <path clip-path="url(#p137ad6ce83)" d="M 194.098955 186.12 
L 194.098955 47.52 
" style="fill:none;stroke:#ffffff;stroke-linecap:round;"/>
     </g>
     <g id="line2d_6"/>
     <g id="text_3">
      <!-- 01-01 06 -->
      <defs>
       <path d="M 49.75 54.046875 
L 41.015625 53.375 
Q 39.84375 58.546875 37.703125 60.890625 
Q 34.125 64.65625 28.90625 64.65625 
Q 24.703125 64.65625 21.53125 62.3125 
Q 17.390625 59.28125 14.984375 53.46875 
Q 12.59375 47.65625 12.5 36.921875 
Q 15.671875 41.75 20.265625 44.09375 
Q 24.859375 46.4375 29.890625 46.4375 
Q 38.671875 46.4375 44.84375 39.96875 
Q 51.03125 33.5 51.03125 23.25 
Q 51.03125 16.5 48.125 10.71875 
Q 45.21875 4.9375 40.140625 1.859375 
Q 35.0625 -1.21875 28.609375 -1.21875 
Q 17.625 -1.21875 10.6875 6.859375 
Q 3.765625 14.9375 3.765625 33.5 
Q 3.765625 54.25 11.421875 63.671875 
Q 18.109375 71.875 29.4375 71.875 
Q 37.890625 71.875 43.28125 67.140625 
Q 48.6875 62.40625 49.75 54.046875 
z
M 13.875 23.1875 
Q 13.875 18.65625 15.796875 14.5 
Q 17.71875 10.359375 21.1875 8.171875 
Q 24.65625 6 28.46875 6 
Q 34.03125 6 38.03125 10.484375 
Q 42.046875 14.984375 42.046875 22.703125 
Q 42.046875 30.125 38.078125 34.390625 
Q 34.125 38.671875 28.125 38.671875 
Q 22.171875 38.671875 18.015625 34.390625 
Q 13.875 30.125 13.875 23.1875 
z
" id="ArialMT-54"/>
      </defs>
      <g style="fill:#262626;" transform="translate(174.362236 200.277812)scale(0.1 -0.1)">
       <use xlink:href="#ArialMT-48"/>
       <use x="55.615234" xlink:href="#ArialMT-49"/>
       <use x="111.230469" xlink:href="#ArialMT-45"/>
       <use x="144.53125" xlink:href="#ArialMT-48"/>
       <use x="200.146484" xlink:href="#ArialMT-49"/>
       <use x="255.761719" xlink:href="#ArialMT-32"/>
       <use x="283.544922" xlink:href="#ArialMT-48"/>
       <use x="339.160156" xlink:href="#ArialMT-54"/>
      </g>
     </g>
    </g>
    <g id="xtick_4">
     <g id="line2d_7">
      <path clip-path="url(#p137ad6ce83)" d="M 245.002977 186.12 
L 245.002977 47.52 
" style="fill:none;stroke:#ffffff;stroke-linecap:round;"/>
     </g>
     <g id="line2d_8"/>
     <g id="text_4">
      <!-- 01-01 09 -->
      <defs>
       <path d="M 5.46875 16.546875 
L 13.921875 17.328125 
Q 14.984375 11.375 18.015625 8.6875 
Q 21.046875 6 25.78125 6 
Q 29.828125 6 32.875 7.859375 
Q 35.9375 9.71875 37.890625 12.8125 
Q 39.84375 15.921875 41.15625 21.1875 
Q 42.484375 26.46875 42.484375 31.9375 
Q 42.484375 32.515625 42.4375 33.6875 
Q 39.796875 29.5 35.234375 26.875 
Q 30.671875 24.265625 25.34375 24.265625 
Q 16.453125 24.265625 10.296875 30.703125 
Q 4.15625 37.15625 4.15625 47.703125 
Q 4.15625 58.59375 10.578125 65.234375 
Q 17 71.875 26.65625 71.875 
Q 33.640625 71.875 39.421875 68.109375 
Q 45.21875 64.359375 48.21875 57.390625 
Q 51.21875 50.4375 51.21875 37.25 
Q 51.21875 23.53125 48.234375 15.40625 
Q 45.265625 7.28125 39.375 3.03125 
Q 33.5 -1.21875 25.59375 -1.21875 
Q 17.1875 -1.21875 11.859375 3.4375 
Q 6.546875 8.109375 5.46875 16.546875 
z
M 41.453125 48.140625 
Q 41.453125 55.71875 37.421875 60.15625 
Q 33.40625 64.59375 27.734375 64.59375 
Q 21.875 64.59375 17.53125 59.8125 
Q 13.1875 55.03125 13.1875 47.40625 
Q 13.1875 40.578125 17.3125 36.296875 
Q 21.4375 32.03125 27.484375 32.03125 
Q 33.59375 32.03125 37.515625 36.296875 
Q 41.453125 40.578125 41.453125 48.140625 
z
" id="ArialMT-57"/>
      </defs>
      <g style="fill:#262626;" transform="translate(225.266259 200.277812)scale(0.1 -0.1)">
       <use xlink:href="#ArialMT-48"/>
       <use x="55.615234" xlink:href="#ArialMT-49"/>
       <use x="111.230469" xlink:href="#ArialMT-45"/>
       <use x="144.53125" xlink:href="#ArialMT-48"/>
       <use x="200.146484" xlink:href="#ArialMT-49"/>
       <use x="255.761719" xlink:href="#ArialMT-32"/>
       <use x="283.544922" xlink:href="#ArialMT-48"/>
       <use x="339.160156" xlink:href="#ArialMT-57"/>
      </g>
     </g>
    </g>
    <g id="xtick_5">
     <g id="line2d_9">
      <path clip-path="url(#p137ad6ce83)" d="M 295.907 186.12 
L 295.907 47.52 
" style="fill:none;stroke:#ffffff;stroke-linecap:round;"/>
     </g>
     <g id="line2d_10"/>
     <g id="text_5">
      <!-- 01-01 12 -->
      <defs>
       <path d="M 50.34375 8.453125 
L 50.34375 0 
L 3.03125 0 
Q 2.9375 3.171875 4.046875 6.109375 
Q 5.859375 10.9375 9.828125 15.625 
Q 13.8125 20.3125 21.34375 26.46875 
Q 33.015625 36.03125 37.109375 41.625 
Q 41.21875 47.21875 41.21875 52.203125 
Q 41.21875 57.421875 37.46875 61 
Q 33.734375 64.59375 27.734375 64.59375 
Q 21.390625 64.59375 17.578125 60.78125 
Q 13.765625 56.984375 13.71875 50.25 
L 4.6875 51.171875 
Q 5.609375 61.28125 11.65625 66.578125 
Q 17.71875 71.875 27.9375 71.875 
Q 38.234375 71.875 44.234375 66.15625 
Q 50.25 60.453125 50.25 52 
Q 50.25 47.703125 48.484375 43.546875 
Q 46.734375 39.40625 42.65625 34.8125 
Q 38.578125 30.21875 29.109375 22.21875 
Q 21.1875 15.578125 18.9375 13.203125 
Q 16.703125 10.84375 15.234375 8.453125 
z
" id="ArialMT-50"/>
      </defs>
      <g style="fill:#262626;" transform="translate(276.170282 200.277812)scale(0.1 -0.1)">
       <use xlink:href="#ArialMT-48"/>
       <use x="55.615234" xlink:href="#ArialMT-49"/>
       <use x="111.230469" xlink:href="#ArialMT-45"/>
       <use x="144.53125" xlink:href="#ArialMT-48"/>
       <use x="200.146484" xlink:href="#ArialMT-49"/>
       <use x="255.761719" xlink:href="#ArialMT-32"/>
       <use x="283.544922" xlink:href="#ArialMT-49"/>
       <use x="339.160156" xlink:href="#ArialMT-50"/>
      </g>
     </g>
    </g>
    <g id="xtick_6">
     <g id="line2d_11">
      <path clip-path="url(#p137ad6ce83)" d="M 346.811023 186.12 
L 346.811023 47.52 
" style="fill:none;stroke:#ffffff;stroke-linecap:round;"/>
     </g>
     <g id="line2d_12"/>
     <g id="text_6">
      <!-- 01-01 15 -->
      <defs>
       <path d="M 4.15625 18.75 
L 13.375 19.53125 
Q 14.40625 12.796875 18.140625 9.390625 
Q 21.875 6 27.15625 6 
Q 33.5 6 37.890625 10.78125 
Q 42.28125 15.578125 42.28125 23.484375 
Q 42.28125 31 38.0625 35.34375 
Q 33.84375 39.703125 27 39.703125 
Q 22.75 39.703125 19.328125 37.765625 
Q 15.921875 35.84375 13.96875 32.765625 
L 5.71875 33.84375 
L 12.640625 70.609375 
L 48.25 70.609375 
L 48.25 62.203125 
L 19.671875 62.203125 
L 15.828125 42.96875 
Q 22.265625 47.46875 29.34375 47.46875 
Q 38.71875 47.46875 45.15625 40.96875 
Q 51.609375 34.46875 51.609375 24.265625 
Q 51.609375 14.546875 45.953125 7.46875 
Q 39.0625 -1.21875 27.15625 -1.21875 
Q 17.390625 -1.21875 11.203125 4.25 
Q 5.03125 9.71875 4.15625 18.75 
z
" id="ArialMT-53"/>
      </defs>
      <g style="fill:#262626;" transform="translate(327.074304 200.277812)scale(0.1 -0.1)">
       <use xlink:href="#ArialMT-48"/>
       <use x="55.615234" xlink:href="#ArialMT-49"/>
       <use x="111.230469" xlink:href="#ArialMT-45"/>
       <use x="144.53125" xlink:href="#ArialMT-48"/>
       <use x="200.146484" xlink:href="#ArialMT-49"/>
       <use x="255.761719" xlink:href="#ArialMT-32"/>
       <use x="283.544922" xlink:href="#ArialMT-49"/>
       <use x="339.160156" xlink:href="#ArialMT-53"/>
      </g>
     </g>
    </g>
    <g id="xtick_7">
     <g id="line2d_13">
      <path clip-path="url(#p137ad6ce83)" d="M 397.715046 186.12 
L 397.715046 47.52 
" style="fill:none;stroke:#ffffff;stroke-linecap:round;"/>
     </g>
     <g id="line2d_14"/>
     <g id="text_7">
      <!-- 01-01 18 -->
      <defs>
       <path d="M 17.671875 38.8125 
Q 12.203125 40.828125 9.5625 44.53125 
Q 6.9375 48.25 6.9375 53.421875 
Q 6.9375 61.234375 12.546875 66.546875 
Q 18.171875 71.875 27.484375 71.875 
Q 36.859375 71.875 42.578125 66.421875 
Q 48.296875 60.984375 48.296875 53.171875 
Q 48.296875 48.1875 45.671875 44.5 
Q 43.0625 40.828125 37.75 38.8125 
Q 44.34375 36.671875 47.78125 31.875 
Q 51.21875 27.09375 51.21875 20.453125 
Q 51.21875 11.28125 44.71875 5.03125 
Q 38.234375 -1.21875 27.640625 -1.21875 
Q 17.046875 -1.21875 10.546875 5.046875 
Q 4.046875 11.328125 4.046875 20.703125 
Q 4.046875 27.6875 7.59375 32.390625 
Q 11.140625 37.109375 17.671875 38.8125 
z
M 15.921875 53.71875 
Q 15.921875 48.640625 19.1875 45.40625 
Q 22.46875 42.1875 27.6875 42.1875 
Q 32.765625 42.1875 36.015625 45.375 
Q 39.265625 48.578125 39.265625 53.21875 
Q 39.265625 58.0625 35.90625 61.359375 
Q 32.5625 64.65625 27.59375 64.65625 
Q 22.5625 64.65625 19.234375 61.421875 
Q 15.921875 58.203125 15.921875 53.71875 
z
M 13.09375 20.65625 
Q 13.09375 16.890625 14.875 13.375 
Q 16.65625 9.859375 20.171875 7.921875 
Q 23.6875 6 27.734375 6 
Q 34.03125 6 38.125 10.046875 
Q 42.234375 14.109375 42.234375 20.359375 
Q 42.234375 26.703125 38.015625 30.859375 
Q 33.796875 35.015625 27.4375 35.015625 
Q 21.234375 35.015625 17.15625 30.90625 
Q 13.09375 26.8125 13.09375 20.65625 
z
" id="ArialMT-56"/>
      </defs>
      <g style="fill:#262626;" transform="translate(377.978327 200.277812)scale(0.1 -0.1)">
       <use xlink:href="#ArialMT-48"/>
       <use x="55.615234" xlink:href="#ArialMT-49"/>
       <use x="111.230469" xlink:href="#ArialMT-45"/>
       <use x="144.53125" xlink:href="#ArialMT-48"/>
       <use x="200.146484" xlink:href="#ArialMT-49"/>
       <use x="255.761719" xlink:href="#ArialMT-32"/>
       <use x="283.544922" xlink:href="#ArialMT-49"/>
       <use x="339.160156" xlink:href="#ArialMT-56"/>
      </g>
     </g>
    </g>
    <g id="xtick_8">
     <g id="line2d_15">
      <path clip-path="url(#p137ad6ce83)" d="M 448.619069 186.12 
L 448.619069 47.52 
" style="fill:none;stroke:#ffffff;stroke-linecap:round;"/>
     </g>
     <g id="line2d_16"/>
     <g id="text_8">
      <!-- 01-01 21 -->
      <g style="fill:#262626;" transform="translate(428.88235 200.277812)scale(0.1 -0.1)">
       <use xlink:href="#ArialMT-48"/>
       <use x="55.615234" xlink:href="#ArialMT-49"/>
       <use x="111.230469" xlink:href="#ArialMT-45"/>
       <use x="144.53125" xlink:href="#ArialMT-48"/>
       <use x="200.146484" xlink:href="#ArialMT-49"/>
       <use x="255.761719" xlink:href="#ArialMT-32"/>
       <use x="283.544922" xlink:href="#ArialMT-50"/>
       <use x="339.160156" xlink:href="#ArialMT-49"/>
      </g>
     </g>
    </g>
    <g id="xtick_9">
     <g id="line2d_17">
      <path clip-path="url(#p137ad6ce83)" d="M 499.523091 186.12 
L 499.523091 47.52 
" style="fill:none;stroke:#ffffff;stroke-linecap:round;"/>
     </g>
     <g id="line2d_18"/>
     <g id="text_9">
      <!-- 01-02 00 -->
      <g style="fill:#262626;" transform="translate(479.786373 200.277812)scale(0.1 -0.1)">
       <use xlink:href="#ArialMT-48"/>
       <use x="55.615234" xlink:href="#ArialMT-49"/>
       <use x="111.230469" xlink:href="#ArialMT-45"/>
       <use x="144.53125" xlink:href="#ArialMT-48"/>
       <use x="200.146484" xlink:href="#ArialMT-50"/>
       <use x="255.761719" xlink:href="#ArialMT-32"/>
       <use x="283.544922" xlink:href="#ArialMT-48"/>
       <use x="339.160156" xlink:href="#ArialMT-48"/>
      </g>
     </g>
    </g>
   </g>
   <g id="matplotlib.axis_2">
    <g id="ytick_1">
     <g id="line2d_19">
      <path clip-path="url(#p137ad6ce83)" d="M 72 165.521084 
L 518.4 165.521084 
" style="fill:none;stroke:#ffffff;stroke-linecap:round;"/>
     </g>
     <g id="line2d_20"/>
     <g id="text_10">
      <!-- 0.5 -->
      <defs>
       <path d="M 9.078125 0 
L 9.078125 10.015625 
L 19.09375 10.015625 
L 19.09375 0 
z
" id="ArialMT-46"/>
      </defs>
      <g style="fill:#262626;" transform="translate(51.1 169.09999)scale(0.1 -0.1)">
       <use xlink:href="#ArialMT-48"/>
       <use x="55.615234" xlink:href="#ArialMT-46"/>
       <use x="83.398438" xlink:href="#ArialMT-53"/>
      </g>
     </g>
    </g>
    <g id="ytick_2">
     <g id="line2d_21">
      <path clip-path="url(#p137ad6ce83)" d="M 72 133.476672 
L 518.4 133.476672 
" style="fill:none;stroke:#ffffff;stroke-linecap:round;"/>
     </g>
     <g id="line2d_22"/>
     <g id="text_11">
      <!-- 1.0 -->
      <g style="fill:#262626;" transform="translate(51.1 137.055578)scale(0.1 -0.1)">
       <use xlink:href="#ArialMT-49"/>
       <use x="55.615234" xlink:href="#ArialMT-46"/>
       <use x="83.398438" xlink:href="#ArialMT-48"/>
      </g>
     </g>
    </g>
    <g id="ytick_3">
     <g id="line2d_23">
      <path clip-path="url(#p137ad6ce83)" d="M 72 101.43226 
L 518.4 101.43226 
" style="fill:none;stroke:#ffffff;stroke-linecap:round;"/>
     </g>
     <g id="line2d_24"/>
     <g id="text_12">
      <!-- 1.5 -->
      <g style="fill:#262626;" transform="translate(51.1 105.011167)scale(0.1 -0.1)">
       <use xlink:href="#ArialMT-49"/>
       <use x="55.615234" xlink:href="#ArialMT-46"/>
       <use x="83.398438" xlink:href="#ArialMT-53"/>
      </g>
     </g>
    </g>
    <g id="ytick_4">
     <g id="line2d_25">
      <path clip-path="url(#p137ad6ce83)" d="M 72 69.387849 
L 518.4 69.387849 
" style="fill:none;stroke:#ffffff;stroke-linecap:round;"/>
     </g>
     <g id="line2d_26"/>
     <g id="text_13">
      <!-- 2.0 -->
      <g style="fill:#262626;" transform="translate(51.1 72.966755)scale(0.1 -0.1)">
       <use xlink:href="#ArialMT-50"/>
       <use x="55.615234" xlink:href="#ArialMT-46"/>
       <use x="83.398438" xlink:href="#ArialMT-48"/>
      </g>
     </g>
    </g>
   </g>
   <g id="line2d_27">
    <path clip-path="url(#p137ad6ce83)" d="M 92.290909 110.14106 
L 95.11891 110.033982 
L 96.532911 112.732957 
L 99.360912 112.66389 
L 100.774913 114.530612 
L 103.602914 114.489414 
L 105.016915 120.820692 
L 107.844916 120.794278 
L 109.258917 122.434437 
L 112.086918 122.418013 
L 113.500919 124.902786 
L 116.32892 124.89122 
L 117.74292 127.637037 
L 120.570922 127.627687 
L 121.984922 129.948414 
L 124.812924 129.940379 
L 126.226924 130.266308 
L 129.054926 130.260766 
L 130.468926 131.58272 
L 133.296927 131.577533 
L 134.710928 134.907498 
L 137.538929 134.900721 
L 138.95293 136.936518 
L 141.780931 136.930024 
L 143.194932 136.812054 
L 146.022933 136.807586 
L 147.436934 136.998114 
L 150.264935 136.995145 
L 151.678936 136.089601 
L 154.506937 136.08849 
L 155.920938 159.320151 
L 158.748939 159.303469 
L 160.162939 155.747223 
L 162.990941 155.735094 
L 164.404941 152.947611 
L 167.232943 152.939955 
L 168.646943 150.338622 
L 171.474945 150.33565 
L 172.888945 143.629063 
L 175.716946 143.636351 
L 177.130947 142.017207 
L 179.958948 142.026098 
L 181.372949 139.639187 
L 184.20095 139.648957 
L 185.614951 137.763957 
L 188.442952 137.773894 
L 189.856953 129.104037 
L 192.684954 129.125472 
L 194.098955 120.671341 
L 196.926956 120.699635 
L 198.340957 111.025792 
L 201.168958 111.058735 
L 202.582959 100.456857 
L 205.41096 100.491896 
L 206.82496 91.540373 
L 209.652962 91.572037 
L 211.066962 82.352725 
L 213.894964 82.379737 
L 215.308964 82.625838 
L 218.136965 82.637957 
L 219.550966 74.153321 
L 222.378967 74.167902 
L 223.792968 67.351445 
L 226.620969 67.36474 
L 228.03497 55.633623 
L 230.862971 55.651951 
L 232.276972 65.762169 
L 235.104973 65.759657 
L 236.518974 65.027455 
L 239.346975 65.026418 
L 240.760976 62.965414 
L 243.588977 62.967261 
L 245.002977 60.631874 
L 247.830979 60.634739 
L 249.244979 62.679122 
L 252.072981 62.678314 
L 253.486981 66.026975 
L 256.314983 66.023706 
L 257.728983 64.52203 
L 260.556984 64.521757 
L 261.970985 64.291448 
L 264.798986 64.291506 
L 266.212987 67.222496 
L 269.040988 67.22001 
L 270.454989 67.795486 
L 273.28299 67.793841 
L 274.696991 69.190071 
L 277.524992 69.188327 
L 278.938993 69.969456 
L 281.766994 69.967773 
L 283.180995 74.132994 
L 286.008996 74.128378 
L 287.422996 73.957433 
L 290.250998 73.955266 
L 291.664998 73.384733 
L 294.493 73.384436 
L 295.907 74.737009 
L 298.735002 74.735558 
L 300.149002 77.62238 
L 302.977003 77.618793 
L 304.391004 77.101672 
L 307.219005 77.100424 
L 308.633006 80.425498 
L 311.461007 80.421906 
L 312.875008 80.855538 
L 315.703009 80.853248 
L 317.11701 82.096068 
L 319.945011 82.093961 
L 321.359012 82.653728 
L 324.187013 82.652228 
L 325.601014 84.639661 
L 328.429015 84.636927 
L 329.843015 84.275892 
L 332.671017 84.274866 
L 334.085017 85.037266 
L 336.913019 85.036208 
L 338.327019 84.737188 
L 341.155021 84.736958 
L 342.569021 82.866342 
L 345.397022 82.868398 
L 346.811023 82.690995 
L 349.639024 82.692018 
L 351.053025 84.225495 
L 353.881026 84.224398 
L 355.295027 83.925893 
L 358.123028 83.925634 
L 359.537029 83.272651 
L 362.36503 83.273227 
L 363.779031 83.513843 
L 366.607032 83.51391 
L 368.021033 84.229918 
L 370.849034 84.229043 
L 372.263034 83.461072 
L 375.091036 83.461628 
L 376.505036 83.712694 
L 379.333038 83.712592 
L 380.747038 82.776403 
L 383.57504 82.77716 
L 384.98904 83.547368 
L 387.817041 83.547081 
L 389.231042 83.056869 
L 392.059043 83.057056 
L 393.473044 83.842594 
L 396.301045 83.841867 
L 397.715046 83.675524 
L 400.543047 83.675351 
L 401.957048 83.054716 
L 404.785049 83.055347 
L 406.19905 81.867117 
L 413.269053 81.849543 
L 414.683053 81.605534 
L 417.511055 81.60613 
L 418.925055 82.329674 
L 421.753057 82.329311 
L 423.167057 82.008594 
L 430.23706 81.951979 
L 431.651061 82.393201 
L 434.479062 82.392898 
L 435.893063 82.7097 
L 438.721064 82.709269 
L 440.135065 83.008563 
L 442.963066 83.008223 
L 444.377067 83.42541 
L 447.205068 83.425844 
L 448.619069 82.90525 
L 450.033069 85.942816 
L 451.44707 91.018454 
L 452.861071 98.349402 
L 454.275071 103.264684 
L 455.689072 107.484626 
L 457.103073 111.328802 
L 458.517073 114.167344 
L 459.931074 116.472016 
L 461.345074 121.172915 
L 462.759075 122.588918 
L 464.173076 123.742961 
L 465.587076 125.453028 
L 467.001077 125.874254 
L 468.415078 125.632263 
L 469.829078 128.091264 
L 471.243079 126.778029 
L 472.657079 125.01399 
L 474.07108 124.524042 
L 476.899081 119.713129 
L 478.313082 127.217247 
L 481.141083 123.271251 
L 482.555084 125.64121 
L 485.383085 122.68742 
L 486.797086 129.768825 
L 489.625087 128.096484 
L 491.039088 130.005404 
L 493.867089 129.014623 
L 495.28109 136.331025 
L 498.109091 135.849942 
L 498.109091 135.849942 
" style="fill:none;stroke:#4c72b0;stroke-linecap:round;stroke-width:1.75;"/>
   </g>
   <g id="line2d_28">
    <path clip-path="url(#p137ad6ce83)" d="M 92.290909 106.618463 
L 95.11891 106.518263 
L 96.532911 107.806551 
L 99.360912 107.738978 
L 100.774913 109.99666 
L 103.602914 109.956231 
L 105.016915 116.329206 
L 107.844916 116.303626 
L 109.258917 117.982327 
L 112.086918 117.966517 
L 113.500919 120.330151 
L 116.32892 120.319263 
L 117.74292 123.11189 
L 120.570922 123.103114 
L 121.984922 125.371477 
L 124.812924 125.364005 
L 126.226924 125.47701 
L 129.054926 125.472023 
L 130.468926 125.887115 
L 133.296927 125.883219 
L 134.710928 129.110025 
L 137.538929 129.104288 
L 138.95293 131.685269 
L 141.780931 131.679008 
L 143.194932 131.398815 
L 146.022933 131.394653 
L 147.436934 131.913275 
L 150.264935 131.910169 
L 151.678936 130.580112 
L 154.506937 130.579351 
L 155.920938 156.775255 
L 158.748939 156.758492 
L 160.162939 153.429617 
L 162.990941 153.41676 
L 164.404941 150.080773 
L 167.232943 150.072796 
L 168.646943 147.093039 
L 171.474945 147.090029 
L 172.888945 140.456062 
L 175.716946 140.462342 
L 177.130947 139.066023 
L 179.958948 139.073837 
L 181.372949 135.821472 
L 184.20095 135.831688 
L 185.614951 134.166391 
L 188.442952 134.176019 
L 189.856953 126.838999 
L 192.684954 126.856404 
L 194.098955 118.79633 
L 196.926956 118.820454 
L 198.340957 108.997562 
L 201.168958 109.027428 
L 202.582959 98.236439 
L 205.41096 98.269122 
L 206.82496 90.472668 
L 209.652962 90.500823 
L 211.066962 80.895104 
L 213.894964 80.920459 
L 215.308964 82.007807 
L 218.136965 82.018622 
L 219.550966 73.900294 
L 222.378967 73.913383 
L 223.792968 65.422385 
L 226.620969 65.436167 
L 228.03497 53.82 
L 230.862971 53.837445 
L 232.276972 64.064122 
L 235.104973 64.062021 
L 236.518974 63.271183 
L 239.346975 63.270224 
L 240.760976 62.178369 
L 243.588977 62.179373 
L 245.002977 59.172383 
L 247.830979 59.175356 
L 249.244979 60.958055 
L 252.072981 60.957598 
L 253.486981 65.305824 
L 256.314983 65.302195 
L 257.728983 63.255693 
L 260.556984 63.255602 
L 261.970985 62.508231 
L 264.798986 62.508686 
L 266.212987 66.175931 
L 269.040988 66.173243 
L 270.454989 67.070573 
L 273.28299 67.068692 
L 274.696991 69.469049 
L 277.524992 69.466643 
L 278.938993 69.929996 
L 281.766994 69.928432 
L 283.180995 74.228675 
L 286.008996 74.224316 
L 287.422996 73.518839 
L 290.250998 73.517105 
L 291.664998 72.956651 
L 294.493 72.956418 
L 295.907 74.072559 
L 298.735002 74.071402 
L 300.149002 76.548589 
L 302.977003 76.545593 
L 304.391004 75.913358 
L 307.219005 75.912319 
L 308.633006 79.626152 
L 311.461007 79.622595 
L 312.875008 79.794094 
L 315.703009 79.792044 
L 317.11701 81.449039 
L 319.945011 81.446788 
L 321.359012 82.192799 
L 324.187013 82.191162 
L 325.601014 83.954798 
L 328.429015 83.952358 
L 329.843015 83.442669 
L 332.671017 83.441816 
L 334.085017 84.538659 
L 336.913019 84.537455 
L 338.327019 84.154054 
L 341.155021 84.153823 
L 342.569021 82.867162 
L 345.397022 82.868585 
L 346.811023 82.130027 
L 349.639024 82.1313 
L 351.053025 83.556425 
L 353.881026 83.555607 
L 355.295027 83.390124 
L 358.123028 83.389816 
L 359.537029 82.80599 
L 362.36503 82.806442 
L 363.779031 83.066634 
L 366.607032 83.06667 
L 368.021033 83.260678 
L 370.849034 83.260257 
L 372.263034 83.085198 
L 375.091036 83.085352 
L 376.505036 82.940648 
L 379.333038 82.940763 
L 380.747038 81.546739 
L 383.57504 81.547846 
L 384.98904 82.539047 
L 387.817041 82.538751 
L 389.231042 81.680475 
L 392.059043 81.68091 
L 393.473044 82.298274 
L 400.543047 82.189102 
L 401.957048 81.730574 
L 404.785049 81.731029 
L 406.19905 80.257427 
L 413.269053 80.298161 
L 414.683053 80.08886 
L 417.511055 80.089401 
L 418.925055 81.11076 
L 421.753057 81.110204 
L 423.167057 80.742472 
L 430.23706 80.758758 
L 431.651061 81.288223 
L 434.479062 81.287866 
L 435.893063 81.472991 
L 442.963066 81.527876 
L 444.377067 82.194414 
L 447.205068 82.194784 
L 448.619069 81.779748 
L 450.033069 84.895938 
L 451.44707 90.086881 
L 452.861071 97.719567 
L 454.275071 102.703969 
L 455.689072 106.974849 
L 457.103073 110.830187 
L 458.517073 113.695471 
L 459.931074 116.018772 
L 461.345074 120.729774 
L 462.759075 122.154634 
L 464.173076 123.314629 
L 465.587076 124.839272 
L 467.001077 125.258704 
L 468.415078 125.001565 
L 469.829078 127.181748 
L 471.243079 125.825112 
L 472.657079 124.006509 
L 474.07108 123.248546 
L 476.899081 118.278854 
L 478.313082 125.473055 
L 481.141083 121.377184 
L 482.555084 124.035165 
L 485.383085 121.008813 
L 486.797086 127.471869 
L 489.625087 125.741975 
L 491.039088 127.488165 
L 493.867089 126.471615 
L 495.28109 133.759023 
L 498.109091 133.269201 
L 498.109091 133.269201 
" style="fill:none;stroke:#55a868;stroke-linecap:round;stroke-width:1.75;"/>
   </g>
   <g id="line2d_29">
    <path clip-path="url(#p137ad6ce83)" d="M 92.290909 151.856481 
L 95.11891 151.775405 
L 96.532911 156.59315 
L 99.360912 156.547447 
L 100.774913 156.81554 
L 103.602914 156.788555 
L 105.016915 160.577269 
L 107.844916 160.559204 
L 109.258917 161.478501 
L 112.086918 161.467054 
L 113.500919 163.262258 
L 116.32892 163.253648 
L 117.74292 164.832372 
L 120.570922 164.825353 
L 121.984922 166.365772 
L 124.812924 166.359582 
L 126.226924 167.036815 
L 129.054926 167.032175 
L 130.468926 169.875973 
L 133.296927 169.869898 
L 134.710928 172.143042 
L 141.780931 172.158043 
L 143.194932 172.449417 
L 146.022933 172.445989 
L 147.436934 171.827222 
L 150.264935 171.825709 
L 151.678936 172.222217 
L 154.506937 172.220751 
L 155.920938 179.82 
L 158.748939 179.80995 
L 160.162939 177.119568 
L 162.990941 177.113765 
L 164.404941 176.634299 
L 167.232943 176.630323 
L 168.646943 175.883679 
L 171.474945 175.881942 
L 172.888945 171.606793 
L 175.716946 171.61352 
L 177.130947 170.121117 
L 179.958948 170.128984 
L 181.372949 170.605751 
L 184.20095 170.610742 
L 185.614951 168.962321 
L 188.442952 168.96911 
L 189.856953 160.664691 
L 192.684954 160.68687 
L 194.098955 154.619498 
L 196.926956 154.646195 
L 198.340957 149.048577 
L 201.168958 149.075674 
L 202.582959 142.998827 
L 205.41096 143.025595 
L 206.82496 134.947026 
L 209.652962 134.974309 
L 211.066962 130.187559 
L 213.894964 130.207839 
L 215.308964 128.472647 
L 218.136965 128.483003 
L 219.550966 122.459137 
L 222.378967 122.471424 
L 223.792968 122.046078 
L 226.620969 122.05314 
L 228.03497 114.602155 
L 230.862971 114.615373 
L 232.276972 120.553633 
L 235.104973 120.551172 
L 236.518974 120.233665 
L 239.346975 120.232856 
L 240.760976 116.796236 
L 247.830979 116.874517 
L 249.244979 118.714788 
L 252.072981 118.713504 
L 253.486981 118.525786 
L 256.314983 118.524587 
L 257.728983 118.825305 
L 260.556984 118.82473 
L 261.970985 119.842773 
L 264.798986 119.841917 
L 266.212987 119.988435 
L 269.040988 119.987365 
L 270.454989 119.618631 
L 273.28299 119.618152 
L 274.696991 118.223016 
L 277.524992 118.223428 
L 278.938993 119.414861 
L 281.766994 119.413561 
L 283.180995 121.66486 
L 286.008996 121.661454 
L 287.422996 122.755069 
L 290.250998 122.75277 
L 291.664998 122.380333 
L 294.493 122.380006 
L 295.907 123.739462 
L 298.735002 123.737913 
L 300.149002 126.426459 
L 307.219005 126.362701 
L 308.633006 127.52996 
L 311.461007 127.527679 
L 312.875008 128.38128 
L 315.703009 128.379336 
L 317.11701 128.212818 
L 324.187013 128.136909 
L 325.601014 129.857319 
L 328.429015 129.854982 
L 329.843015 129.966889 
L 332.671017 129.965874 
L 334.085017 129.68353 
L 341.155021 129.688902 
L 342.569021 127.232641 
L 345.397022 127.235321 
L 346.811023 128.384663 
L 349.639024 128.38473 
L 351.053025 129.567952 
L 353.881026 129.566654 
L 355.295027 129.085379 
L 358.123028 129.085329 
L 359.537029 128.529885 
L 366.607032 128.634277 
L 368.021033 130.243655 
L 370.849034 130.242099 
L 372.263034 128.441873 
L 375.091036 128.443117 
L 376.505036 129.484388 
L 379.333038 129.48384 
L 380.747038 129.936265 
L 387.817041 129.912592 
L 389.231042 130.437212 
L 392.059043 130.436771 
L 393.473044 131.295497 
L 396.301045 131.294449 
L 397.715046 131.062901 
L 400.543047 131.06275 
L 401.957048 130.318743 
L 409.027051 130.23144 
L 410.441052 130.088704 
L 413.269053 130.089233 
L 414.683053 129.861796 
L 417.511055 129.862287 
L 418.925055 129.638238 
L 425.995059 129.547356 
L 427.409059 129.34878 
L 434.479062 129.42168 
L 435.893063 129.91116 
L 438.721064 129.910636 
L 440.135065 130.641231 
L 442.963066 130.640448 
L 444.377067 130.337209 
L 447.205068 130.337618 
L 448.619069 129.781738 
L 450.033069 131.46803 
L 451.44707 134.321785 
L 452.861071 138.140456 
L 454.275071 140.999432 
L 457.103073 145.804943 
L 458.517073 147.485519 
L 459.931074 148.856928 
L 461.345074 151.716764 
L 462.759075 152.565168 
L 464.173076 153.25946 
L 465.587076 154.723759 
L 467.001077 154.986068 
L 468.415078 154.871646 
L 469.829078 157.00457 
L 471.243079 156.296628 
L 472.657079 155.337293 
L 474.07108 155.637761 
L 476.899081 153.043801 
L 478.313082 158.340002 
L 481.141083 156.256427 
L 482.555084 157.063883 
L 485.383085 155.415368 
L 486.797086 161.143883 
L 489.625087 160.247479 
L 491.039088 161.782828 
L 493.867089 161.233079 
L 495.28109 165.784342 
L 498.109091 165.508945 
L 498.109091 165.508945 
" style="fill:none;stroke:#c44e52;stroke-linecap:round;stroke-width:1.75;"/>
   </g>
   <g id="patch_3">
    <path d="M 72 186.12 
L 72 47.52 
" style="fill:none;"/>
   </g>
   <g id="patch_4">
    <path d="M 518.4 186.12 
L 518.4 47.52 
" style="fill:none;"/>
   </g>
   <g id="patch_5">
    <path d="M 72 186.12 
L 518.4 186.12 
" style="fill:none;"/>
   </g>
   <g id="patch_6">
    <path d="M 72 47.52 
L 518.4 47.52 
" style="fill:none;"/>
   </g>
   <g id="text_14">
    <!-- Water speed -->
    <defs>
     <path d="M 20.21875 0 
L 1.21875 71.578125 
L 10.9375 71.578125 
L 21.828125 24.65625 
Q 23.578125 17.28125 24.859375 10.015625 
Q 27.59375 21.484375 28.078125 23.25 
L 41.703125 71.578125 
L 53.125 71.578125 
L 63.375 35.359375 
Q 67.234375 21.875 68.953125 10.015625 
Q 70.3125 16.796875 72.515625 25.59375 
L 83.734375 71.578125 
L 93.265625 71.578125 
L 73.640625 0 
L 64.5 0 
L 49.421875 54.546875 
Q 47.515625 61.375 47.171875 62.9375 
Q 46.046875 58.015625 45.0625 54.546875 
L 29.890625 0 
z
" id="ArialMT-87"/>
     <path d="M 40.4375 6.390625 
Q 35.546875 2.25 31.03125 0.53125 
Q 26.515625 -1.171875 21.34375 -1.171875 
Q 12.796875 -1.171875 8.203125 3 
Q 3.609375 7.171875 3.609375 13.671875 
Q 3.609375 17.484375 5.34375 20.625 
Q 7.078125 23.78125 9.890625 25.6875 
Q 12.703125 27.59375 16.21875 28.5625 
Q 18.796875 29.25 24.03125 29.890625 
Q 34.671875 31.15625 39.703125 32.90625 
Q 39.75 34.71875 39.75 35.203125 
Q 39.75 40.578125 37.25 42.78125 
Q 33.890625 45.75 27.25 45.75 
Q 21.046875 45.75 18.09375 43.578125 
Q 15.140625 41.40625 13.71875 35.890625 
L 5.125 37.0625 
Q 6.296875 42.578125 8.984375 45.96875 
Q 11.671875 49.359375 16.75 51.1875 
Q 21.828125 53.03125 28.515625 53.03125 
Q 35.15625 53.03125 39.296875 51.46875 
Q 43.453125 49.90625 45.40625 47.53125 
Q 47.359375 45.171875 48.140625 41.546875 
Q 48.578125 39.3125 48.578125 33.453125 
L 48.578125 21.734375 
Q 48.578125 9.46875 49.140625 6.21875 
Q 49.703125 2.984375 51.375 0 
L 42.1875 0 
Q 40.828125 2.734375 40.4375 6.390625 
z
M 39.703125 26.03125 
Q 34.90625 24.078125 25.34375 22.703125 
Q 19.921875 21.921875 17.671875 20.9375 
Q 15.4375 19.96875 14.203125 18.09375 
Q 12.984375 16.21875 12.984375 13.921875 
Q 12.984375 10.40625 15.640625 8.0625 
Q 18.3125 5.71875 23.4375 5.71875 
Q 28.515625 5.71875 32.46875 7.9375 
Q 36.421875 10.15625 38.28125 14.015625 
Q 39.703125 17 39.703125 22.796875 
z
" id="ArialMT-97"/>
     <path d="M 25.78125 7.859375 
L 27.046875 0.09375 
Q 23.34375 -0.6875 20.40625 -0.6875 
Q 15.625 -0.6875 12.984375 0.828125 
Q 10.359375 2.34375 9.28125 4.8125 
Q 8.203125 7.28125 8.203125 15.1875 
L 8.203125 45.015625 
L 1.765625 45.015625 
L 1.765625 51.859375 
L 8.203125 51.859375 
L 8.203125 64.703125 
L 16.9375 69.96875 
L 16.9375 51.859375 
L 25.78125 51.859375 
L 25.78125 45.015625 
L 16.9375 45.015625 
L 16.9375 14.703125 
Q 16.9375 10.9375 17.40625 9.859375 
Q 17.875 8.796875 18.921875 8.15625 
Q 19.96875 7.515625 21.921875 7.515625 
Q 23.390625 7.515625 25.78125 7.859375 
z
" id="ArialMT-116"/>
     <path d="M 42.09375 16.703125 
L 51.171875 15.578125 
Q 49.03125 7.625 43.21875 3.21875 
Q 37.40625 -1.171875 28.375 -1.171875 
Q 17 -1.171875 10.328125 5.828125 
Q 3.65625 12.84375 3.65625 25.484375 
Q 3.65625 38.578125 10.390625 45.796875 
Q 17.140625 53.03125 27.875 53.03125 
Q 38.28125 53.03125 44.875 45.953125 
Q 51.46875 38.875 51.46875 26.03125 
Q 51.46875 25.25 51.421875 23.6875 
L 12.75 23.6875 
Q 13.234375 15.140625 17.578125 10.59375 
Q 21.921875 6.0625 28.421875 6.0625 
Q 33.25 6.0625 36.671875 8.59375 
Q 40.09375 11.140625 42.09375 16.703125 
z
M 13.234375 30.90625 
L 42.1875 30.90625 
Q 41.609375 37.453125 38.875 40.71875 
Q 34.671875 45.796875 27.984375 45.796875 
Q 21.921875 45.796875 17.796875 41.75 
Q 13.671875 37.703125 13.234375 30.90625 
z
" id="ArialMT-101"/>
     <path d="M 6.5 0 
L 6.5 51.859375 
L 14.40625 51.859375 
L 14.40625 44 
Q 17.4375 49.515625 20 51.265625 
Q 22.5625 53.03125 25.640625 53.03125 
Q 30.078125 53.03125 34.671875 50.203125 
L 31.640625 42.046875 
Q 28.421875 43.953125 25.203125 43.953125 
Q 22.3125 43.953125 20.015625 42.21875 
Q 17.71875 40.484375 16.75 37.40625 
Q 15.28125 32.71875 15.28125 27.15625 
L 15.28125 0 
z
" id="ArialMT-114"/>
     <path d="M 3.078125 15.484375 
L 11.765625 16.84375 
Q 12.5 11.625 15.84375 8.84375 
Q 19.1875 6.0625 25.203125 6.0625 
Q 31.25 6.0625 34.171875 8.515625 
Q 37.109375 10.984375 37.109375 14.3125 
Q 37.109375 17.28125 34.515625 19 
Q 32.71875 20.171875 25.53125 21.96875 
Q 15.875 24.421875 12.140625 26.203125 
Q 8.40625 27.984375 6.46875 31.125 
Q 4.546875 34.28125 4.546875 38.09375 
Q 4.546875 41.546875 6.125 44.5 
Q 7.71875 47.46875 10.453125 49.421875 
Q 12.5 50.921875 16.03125 51.96875 
Q 19.578125 53.03125 23.640625 53.03125 
Q 29.734375 53.03125 34.34375 51.265625 
Q 38.96875 49.515625 41.15625 46.5 
Q 43.359375 43.5 44.1875 38.484375 
L 35.59375 37.3125 
Q 35.015625 41.3125 32.203125 43.546875 
Q 29.390625 45.796875 24.265625 45.796875 
Q 18.21875 45.796875 15.625 43.796875 
Q 13.03125 41.796875 13.03125 39.109375 
Q 13.03125 37.40625 14.109375 36.03125 
Q 15.1875 34.625 17.484375 33.6875 
Q 18.796875 33.203125 25.25 31.453125 
Q 34.578125 28.953125 38.25 27.359375 
Q 41.9375 25.78125 44.03125 22.75 
Q 46.140625 19.734375 46.140625 15.234375 
Q 46.140625 10.84375 43.578125 6.953125 
Q 41.015625 3.078125 36.171875 0.953125 
Q 31.34375 -1.171875 25.25 -1.171875 
Q 15.140625 -1.171875 9.84375 3.03125 
Q 4.546875 7.234375 3.078125 15.484375 
z
" id="ArialMT-115"/>
     <path d="M 6.59375 -19.875 
L 6.59375 51.859375 
L 14.59375 51.859375 
L 14.59375 45.125 
Q 17.4375 49.078125 21 51.046875 
Q 24.5625 53.03125 29.640625 53.03125 
Q 36.28125 53.03125 41.359375 49.609375 
Q 46.4375 46.1875 49.015625 39.953125 
Q 51.609375 33.734375 51.609375 26.3125 
Q 51.609375 18.359375 48.75 11.984375 
Q 45.90625 5.609375 40.453125 2.21875 
Q 35.015625 -1.171875 29 -1.171875 
Q 24.609375 -1.171875 21.109375 0.6875 
Q 17.625 2.546875 15.375 5.375 
L 15.375 -19.875 
z
M 14.546875 25.640625 
Q 14.546875 15.625 18.59375 10.84375 
Q 22.65625 6.0625 28.421875 6.0625 
Q 34.28125 6.0625 38.453125 11.015625 
Q 42.625 15.96875 42.625 26.375 
Q 42.625 36.28125 38.546875 41.203125 
Q 34.46875 46.140625 28.8125 46.140625 
Q 23.1875 46.140625 18.859375 40.890625 
Q 14.546875 35.640625 14.546875 25.640625 
z
" id="ArialMT-112"/>
     <path d="M 40.234375 0 
L 40.234375 6.546875 
Q 35.296875 -1.171875 25.734375 -1.171875 
Q 19.53125 -1.171875 14.328125 2.25 
Q 9.125 5.671875 6.265625 11.796875 
Q 3.421875 17.921875 3.421875 25.875 
Q 3.421875 33.640625 6 39.96875 
Q 8.59375 46.296875 13.765625 49.65625 
Q 18.953125 53.03125 25.34375 53.03125 
Q 30.03125 53.03125 33.6875 51.046875 
Q 37.359375 49.078125 39.65625 45.90625 
L 39.65625 71.578125 
L 48.390625 71.578125 
L 48.390625 0 
z
M 12.453125 25.875 
Q 12.453125 15.921875 16.640625 10.984375 
Q 20.84375 6.0625 26.5625 6.0625 
Q 32.328125 6.0625 36.34375 10.765625 
Q 40.375 15.484375 40.375 25.140625 
Q 40.375 35.796875 36.265625 40.765625 
Q 32.171875 45.75 26.171875 45.75 
Q 20.3125 45.75 16.375 40.96875 
Q 12.453125 36.1875 12.453125 25.875 
z
" id="ArialMT-100"/>
    </defs>
    <g style="fill:#262626;" transform="translate(261.188437 41.52)scale(0.12 -0.12)">
     <use xlink:href="#ArialMT-87"/>
     <use x="94.337891" xlink:href="#ArialMT-97"/>
     <use x="149.953125" xlink:href="#ArialMT-116"/>
     <use x="177.736328" xlink:href="#ArialMT-101"/>
     <use x="233.351562" xlink:href="#ArialMT-114"/>
     <use x="266.652344" xlink:href="#ArialMT-32"/>
     <use x="294.435547" xlink:href="#ArialMT-115"/>
     <use x="344.435547" xlink:href="#ArialMT-112"/>
     <use x="400.050781" xlink:href="#ArialMT-101"/>
     <use x="455.666016" xlink:href="#ArialMT-101"/>
     <use x="511.28125" xlink:href="#ArialMT-100"/>
    </g>
   </g>
   <g id="legend_1">
    <g id="line2d_30">
     <path d="M 81 60.2075 
L 101 60.2075 
" style="fill:none;stroke:#4c72b0;stroke-linecap:round;stroke-width:1.75;"/>
    </g>
    <g id="line2d_31"/>
    <g id="text_15">
     <!-- dist_pipe0 -->
     <defs>
      <path d="M 6.640625 61.46875 
L 6.640625 71.578125 
L 15.4375 71.578125 
L 15.4375 61.46875 
z
M 6.640625 0 
L 6.640625 51.859375 
L 15.4375 51.859375 
L 15.4375 0 
z
" id="ArialMT-105"/>
      <path d="M -1.515625 -19.875 
L -1.515625 -13.53125 
L 56.734375 -13.53125 
L 56.734375 -19.875 
z
" id="ArialMT-95"/>
     </defs>
     <g style="fill:#262626;" transform="translate(109 63.7075)scale(0.1 -0.1)">
      <use xlink:href="#ArialMT-100"/>
      <use x="55.615234" xlink:href="#ArialMT-105"/>
      <use x="77.832031" xlink:href="#ArialMT-115"/>
      <use x="127.832031" xlink:href="#ArialMT-116"/>
      <use x="155.615234" xlink:href="#ArialMT-95"/>
      <use x="211.230469" xlink:href="#ArialMT-112"/>
      <use x="266.845703" xlink:href="#ArialMT-105"/>
      <use x="289.0625" xlink:href="#ArialMT-112"/>
      <use x="344.677734" xlink:href="#ArialMT-101"/>
      <use x="400.292969" xlink:href="#ArialMT-48"/>
     </g>
    </g>
    <g id="line2d_32">
     <path d="M 81 74.3825 
L 101 74.3825 
" style="fill:none;stroke:#55a868;stroke-linecap:round;stroke-width:1.75;"/>
    </g>
    <g id="line2d_33"/>
    <g id="text_16">
     <!-- dist_pipe2 -->
     <g style="fill:#262626;" transform="translate(109 77.8825)scale(0.1 -0.1)">
      <use xlink:href="#ArialMT-100"/>
      <use x="55.615234" xlink:href="#ArialMT-105"/>
      <use x="77.832031" xlink:href="#ArialMT-115"/>
      <use x="127.832031" xlink:href="#ArialMT-116"/>
      <use x="155.615234" xlink:href="#ArialMT-95"/>
      <use x="211.230469" xlink:href="#ArialMT-112"/>
      <use x="266.845703" xlink:href="#ArialMT-105"/>
      <use x="289.0625" xlink:href="#ArialMT-112"/>
      <use x="344.677734" xlink:href="#ArialMT-101"/>
      <use x="400.292969" xlink:href="#ArialMT-50"/>
     </g>
    </g>
    <g id="line2d_34">
     <path d="M 81 88.5575 
L 101 88.5575 
" style="fill:none;stroke:#c44e52;stroke-linecap:round;stroke-width:1.75;"/>
    </g>
    <g id="line2d_35"/>
    <g id="text_17">
     <!-- dist_pipe1 -->
     <g style="fill:#262626;" transform="translate(109 92.0575)scale(0.1 -0.1)">
      <use xlink:href="#ArialMT-100"/>
      <use x="55.615234" xlink:href="#ArialMT-105"/>
      <use x="77.832031" xlink:href="#ArialMT-115"/>
      <use x="127.832031" xlink:href="#ArialMT-116"/>
      <use x="155.615234" xlink:href="#ArialMT-95"/>
      <use x="211.230469" xlink:href="#ArialMT-112"/>
      <use x="266.845703" xlink:href="#ArialMT-105"/>
      <use x="289.0625" xlink:href="#ArialMT-112"/>
      <use x="344.677734" xlink:href="#ArialMT-101"/>
      <use x="400.292969" xlink:href="#ArialMT-49"/>
     </g>
    </g>
   </g>
  </g>
  <g id="axes_2">
   <g id="patch_7">
    <path d="M 72 352.44 
L 518.4 352.44 
L 518.4 213.84 
L 72 213.84 
z
" style="fill:#eaeaf2;"/>
   </g>
   <g id="matplotlib.axis_3">
    <g id="xtick_10">
     <g id="line2d_36">
      <path clip-path="url(#p14bb8889b3)" d="M 92.290909 352.44 
L 92.290909 213.84 
" style="fill:none;stroke:#ffffff;stroke-linecap:round;"/>
     </g>
     <g id="line2d_37"/>
     <g id="text_18">
      <!-- 01-01 00 -->
      <g style="fill:#262626;" transform="translate(72.55419 366.597813)scale(0.1 -0.1)">
       <use xlink:href="#ArialMT-48"/>
       <use x="55.615234" xlink:href="#ArialMT-49"/>
       <use x="111.230469" xlink:href="#ArialMT-45"/>
       <use x="144.53125" xlink:href="#ArialMT-48"/>
       <use x="200.146484" xlink:href="#ArialMT-49"/>
       <use x="255.761719" xlink:href="#ArialMT-32"/>
       <use x="283.544922" xlink:href="#ArialMT-48"/>
       <use x="339.160156" xlink:href="#ArialMT-48"/>
      </g>
     </g>
    </g>
    <g id="xtick_11">
     <g id="line2d_38">
      <path clip-path="url(#p14bb8889b3)" d="M 143.194932 352.44 
L 143.194932 213.84 
" style="fill:none;stroke:#ffffff;stroke-linecap:round;"/>
     </g>
     <g id="line2d_39"/>
     <g id="text_19">
      <!-- 01-01 03 -->
      <g style="fill:#262626;" transform="translate(123.458213 366.597813)scale(0.1 -0.1)">
       <use xlink:href="#ArialMT-48"/>
       <use x="55.615234" xlink:href="#ArialMT-49"/>
       <use x="111.230469" xlink:href="#ArialMT-45"/>
       <use x="144.53125" xlink:href="#ArialMT-48"/>
       <use x="200.146484" xlink:href="#ArialMT-49"/>
       <use x="255.761719" xlink:href="#ArialMT-32"/>
       <use x="283.544922" xlink:href="#ArialMT-48"/>
       <use x="339.160156" xlink:href="#ArialMT-51"/>
      </g>
     </g>
    </g>
    <g id="xtick_12">
     <g id="line2d_40">
      <path clip-path="url(#p14bb8889b3)" d="M 194.098955 352.44 
L 194.098955 213.84 
" style="fill:none;stroke:#ffffff;stroke-linecap:round;"/>
     </g>
     <g id="line2d_41"/>
     <g id="text_20">
      <!-- 01-01 06 -->
      <g style="fill:#262626;" transform="translate(174.362236 366.597813)scale(0.1 -0.1)">
       <use xlink:href="#ArialMT-48"/>
       <use x="55.615234" xlink:href="#ArialMT-49"/>
       <use x="111.230469" xlink:href="#ArialMT-45"/>
       <use x="144.53125" xlink:href="#ArialMT-48"/>
       <use x="200.146484" xlink:href="#ArialMT-49"/>
       <use x="255.761719" xlink:href="#ArialMT-32"/>
       <use x="283.544922" xlink:href="#ArialMT-48"/>
       <use x="339.160156" xlink:href="#ArialMT-54"/>
      </g>
     </g>
    </g>
    <g id="xtick_13">
     <g id="line2d_42">
      <path clip-path="url(#p14bb8889b3)" d="M 245.002977 352.44 
L 245.002977 213.84 
" style="fill:none;stroke:#ffffff;stroke-linecap:round;"/>
     </g>
     <g id="line2d_43"/>
     <g id="text_21">
      <!-- 01-01 09 -->
      <g style="fill:#262626;" transform="translate(225.266259 366.597813)scale(0.1 -0.1)">
       <use xlink:href="#ArialMT-48"/>
       <use x="55.615234" xlink:href="#ArialMT-49"/>
       <use x="111.230469" xlink:href="#ArialMT-45"/>
       <use x="144.53125" xlink:href="#ArialMT-48"/>
       <use x="200.146484" xlink:href="#ArialMT-49"/>
       <use x="255.761719" xlink:href="#ArialMT-32"/>
       <use x="283.544922" xlink:href="#ArialMT-48"/>
       <use x="339.160156" xlink:href="#ArialMT-57"/>
      </g>
     </g>
    </g>
    <g id="xtick_14">
     <g id="line2d_44">
      <path clip-path="url(#p14bb8889b3)" d="M 295.907 352.44 
L 295.907 213.84 
" style="fill:none;stroke:#ffffff;stroke-linecap:round;"/>
     </g>
     <g id="line2d_45"/>
     <g id="text_22">
      <!-- 01-01 12 -->
      <g style="fill:#262626;" transform="translate(276.170282 366.597813)scale(0.1 -0.1)">
       <use xlink:href="#ArialMT-48"/>
       <use x="55.615234" xlink:href="#ArialMT-49"/>
       <use x="111.230469" xlink:href="#ArialMT-45"/>
       <use x="144.53125" xlink:href="#ArialMT-48"/>
       <use x="200.146484" xlink:href="#ArialMT-49"/>
       <use x="255.761719" xlink:href="#ArialMT-32"/>
       <use x="283.544922" xlink:href="#ArialMT-49"/>
       <use x="339.160156" xlink:href="#ArialMT-50"/>
      </g>
     </g>
    </g>
    <g id="xtick_15">
     <g id="line2d_46">
      <path clip-path="url(#p14bb8889b3)" d="M 346.811023 352.44 
L 346.811023 213.84 
" style="fill:none;stroke:#ffffff;stroke-linecap:round;"/>
     </g>
     <g id="line2d_47"/>
     <g id="text_23">
      <!-- 01-01 15 -->
      <g style="fill:#262626;" transform="translate(327.074304 366.597813)scale(0.1 -0.1)">
       <use xlink:href="#ArialMT-48"/>
       <use x="55.615234" xlink:href="#ArialMT-49"/>
       <use x="111.230469" xlink:href="#ArialMT-45"/>
       <use x="144.53125" xlink:href="#ArialMT-48"/>
       <use x="200.146484" xlink:href="#ArialMT-49"/>
       <use x="255.761719" xlink:href="#ArialMT-32"/>
       <use x="283.544922" xlink:href="#ArialMT-49"/>
       <use x="339.160156" xlink:href="#ArialMT-53"/>
      </g>
     </g>
    </g>
    <g id="xtick_16">
     <g id="line2d_48">
      <path clip-path="url(#p14bb8889b3)" d="M 397.715046 352.44 
L 397.715046 213.84 
" style="fill:none;stroke:#ffffff;stroke-linecap:round;"/>
     </g>
     <g id="line2d_49"/>
     <g id="text_24">
      <!-- 01-01 18 -->
      <g style="fill:#262626;" transform="translate(377.978327 366.597813)scale(0.1 -0.1)">
       <use xlink:href="#ArialMT-48"/>
       <use x="55.615234" xlink:href="#ArialMT-49"/>
       <use x="111.230469" xlink:href="#ArialMT-45"/>
       <use x="144.53125" xlink:href="#ArialMT-48"/>
       <use x="200.146484" xlink:href="#ArialMT-49"/>
       <use x="255.761719" xlink:href="#ArialMT-32"/>
       <use x="283.544922" xlink:href="#ArialMT-49"/>
       <use x="339.160156" xlink:href="#ArialMT-56"/>
      </g>
     </g>
    </g>
    <g id="xtick_17">
     <g id="line2d_50">
      <path clip-path="url(#p14bb8889b3)" d="M 448.619069 352.44 
L 448.619069 213.84 
" style="fill:none;stroke:#ffffff;stroke-linecap:round;"/>
     </g>
     <g id="line2d_51"/>
     <g id="text_25">
      <!-- 01-01 21 -->
      <g style="fill:#262626;" transform="translate(428.88235 366.597813)scale(0.1 -0.1)">
       <use xlink:href="#ArialMT-48"/>
       <use x="55.615234" xlink:href="#ArialMT-49"/>
       <use x="111.230469" xlink:href="#ArialMT-45"/>
       <use x="144.53125" xlink:href="#ArialMT-48"/>
       <use x="200.146484" xlink:href="#ArialMT-49"/>
       <use x="255.761719" xlink:href="#ArialMT-32"/>
       <use x="283.544922" xlink:href="#ArialMT-50"/>
       <use x="339.160156" xlink:href="#ArialMT-49"/>
      </g>
     </g>
    </g>
    <g id="xtick_18">
     <g id="line2d_52">
      <path clip-path="url(#p14bb8889b3)" d="M 499.523091 352.44 
L 499.523091 213.84 
" style="fill:none;stroke:#ffffff;stroke-linecap:round;"/>
     </g>
     <g id="line2d_53"/>
     <g id="text_26">
      <!-- 01-02 00 -->
      <g style="fill:#262626;" transform="translate(479.786373 366.597813)scale(0.1 -0.1)">
       <use xlink:href="#ArialMT-48"/>
       <use x="55.615234" xlink:href="#ArialMT-49"/>
       <use x="111.230469" xlink:href="#ArialMT-45"/>
       <use x="144.53125" xlink:href="#ArialMT-48"/>
       <use x="200.146484" xlink:href="#ArialMT-50"/>
       <use x="255.761719" xlink:href="#ArialMT-32"/>
       <use x="283.544922" xlink:href="#ArialMT-48"/>
       <use x="339.160156" xlink:href="#ArialMT-48"/>
      </g>
     </g>
    </g>
   </g>
   <g id="matplotlib.axis_4">
    <g id="ytick_5">
     <g id="line2d_54">
      <path clip-path="url(#p14bb8889b3)" d="M 72 336.180802 
L 518.4 336.180802 
" style="fill:none;stroke:#ffffff;stroke-linecap:round;"/>
     </g>
     <g id="line2d_55"/>
     <g id="text_27">
      <!-- 0.2 -->
      <g style="fill:#262626;" transform="translate(51.1 339.759708)scale(0.1 -0.1)">
       <use xlink:href="#ArialMT-48"/>
       <use x="55.615234" xlink:href="#ArialMT-46"/>
       <use x="83.398438" xlink:href="#ArialMT-50"/>
      </g>
     </g>
    </g>
    <g id="ytick_6">
     <g id="line2d_56">
      <path clip-path="url(#p14bb8889b3)" d="M 72 307.170601 
L 518.4 307.170601 
" style="fill:none;stroke:#ffffff;stroke-linecap:round;"/>
     </g>
     <g id="line2d_57"/>
     <g id="text_28">
      <!-- 0.4 -->
      <defs>
       <path d="M 32.328125 0 
L 32.328125 17.140625 
L 1.265625 17.140625 
L 1.265625 25.203125 
L 33.9375 71.578125 
L 41.109375 71.578125 
L 41.109375 25.203125 
L 50.78125 25.203125 
L 50.78125 17.140625 
L 41.109375 17.140625 
L 41.109375 0 
z
M 32.328125 25.203125 
L 32.328125 57.46875 
L 9.90625 25.203125 
z
" id="ArialMT-52"/>
      </defs>
      <g style="fill:#262626;" transform="translate(51.1 310.749507)scale(0.1 -0.1)">
       <use xlink:href="#ArialMT-48"/>
       <use x="55.615234" xlink:href="#ArialMT-46"/>
       <use x="83.398438" xlink:href="#ArialMT-52"/>
      </g>
     </g>
    </g>
    <g id="ytick_7">
     <g id="line2d_58">
      <path clip-path="url(#p14bb8889b3)" d="M 72 278.160401 
L 518.4 278.160401 
" style="fill:none;stroke:#ffffff;stroke-linecap:round;"/>
     </g>
     <g id="line2d_59"/>
     <g id="text_29">
      <!-- 0.6 -->
      <g style="fill:#262626;" transform="translate(51.1 281.739307)scale(0.1 -0.1)">
       <use xlink:href="#ArialMT-48"/>
       <use x="55.615234" xlink:href="#ArialMT-46"/>
       <use x="83.398438" xlink:href="#ArialMT-54"/>
      </g>
     </g>
    </g>
    <g id="ytick_8">
     <g id="line2d_60">
      <path clip-path="url(#p14bb8889b3)" d="M 72 249.1502 
L 518.4 249.1502 
" style="fill:none;stroke:#ffffff;stroke-linecap:round;"/>
     </g>
     <g id="line2d_61"/>
     <g id="text_30">
      <!-- 0.8 -->
      <g style="fill:#262626;" transform="translate(51.1 252.729107)scale(0.1 -0.1)">
       <use xlink:href="#ArialMT-48"/>
       <use x="55.615234" xlink:href="#ArialMT-46"/>
       <use x="83.398438" xlink:href="#ArialMT-56"/>
      </g>
     </g>
    </g>
    <g id="ytick_9">
     <g id="line2d_62">
      <path clip-path="url(#p14bb8889b3)" d="M 72 220.14 
L 518.4 220.14 
" style="fill:none;stroke:#ffffff;stroke-linecap:round;"/>
     </g>
     <g id="line2d_63"/>
     <g id="text_31">
      <!-- 1.0 -->
      <g style="fill:#262626;" transform="translate(51.1 223.718906)scale(0.1 -0.1)">
       <use xlink:href="#ArialMT-49"/>
       <use x="55.615234" xlink:href="#ArialMT-46"/>
       <use x="83.398438" xlink:href="#ArialMT-48"/>
      </g>
     </g>
    </g>
   </g>
   <g id="line2d_64">
    <path clip-path="url(#p14bb8889b3)" d="M 92.290909 220.14 
L 498.109091 220.14 
" style="fill:none;stroke:#000000;stroke-dasharray:1.75,2.8875;stroke-dashoffset:0;stroke-width:1.75;"/>
    <defs>
     <path d="M 0 3.5 
C 0.928211 3.5 1.81853 3.131218 2.474874 2.474874 
C 3.131218 1.81853 3.5 0.928211 3.5 0 
C 3.5 -0.928211 3.131218 -1.81853 2.474874 -2.474874 
C 1.81853 -3.131218 0.928211 -3.5 0 -3.5 
C -0.928211 -3.5 -1.81853 -3.131218 -2.474874 -2.474874 
C -3.131218 -1.81853 -3.5 -0.928211 -3.5 0 
C -3.5 0.928211 -3.131218 1.81853 -2.474874 2.474874 
C -1.81853 3.131218 -0.928211 3.5 0 3.5 
z
" id="mee203f4cfd"/>
    </defs>
    <g clip-path="url(#p14bb8889b3)">
     <use x="92.290909" xlink:href="#mee203f4cfd" y="220.14"/>
     <use x="498.109091" xlink:href="#mee203f4cfd" y="220.14"/>
    </g>
   </g>
   <g id="line2d_65">
    <path clip-path="url(#p14bb8889b3)" d="M 92.290909 301.366935 
L 95.11891 301.288763 
L 96.532911 303.259146 
L 99.360912 303.208723 
L 100.774913 304.571521 
L 103.602914 304.541444 
L 105.016915 309.163583 
L 107.844916 309.1443 
L 109.258917 310.341695 
L 112.086918 310.329705 
L 113.500919 312.143709 
L 116.32892 312.135266 
L 117.74292 314.139845 
L 120.570922 314.133019 
L 121.984922 315.827262 
L 124.812924 315.821396 
L 126.226924 316.05934 
L 129.054926 316.055294 
L 130.468926 317.020384 
L 133.296927 317.016598 
L 134.710928 319.447633 
L 137.538929 319.442686 
L 138.95293 320.928916 
L 150.264935 320.971716 
L 151.678936 320.310626 
L 154.506937 320.309814 
L 155.920938 337.270051 
L 158.748939 337.257872 
L 160.162939 334.66164 
L 162.990941 334.652786 
L 164.404941 332.617788 
L 167.232943 332.612199 
L 168.646943 330.7131 
L 171.474945 330.71093 
L 172.888945 325.814797 
L 175.716946 325.820118 
L 177.130947 324.638064 
L 179.958948 324.644555 
L 181.372949 322.901995 
L 184.20095 322.909128 
L 185.614951 321.532986 
L 188.442952 321.540241 
L 189.856953 315.210826 
L 192.684954 315.226475 
L 194.098955 309.05455 
L 196.926956 309.075206 
L 198.340957 302.012833 
L 201.168958 302.036882 
L 202.582959 294.296999 
L 205.41096 294.322579 
L 206.82496 287.787534 
L 209.652962 287.810651 
L 211.066962 281.080106 
L 213.894964 281.099827 
L 215.308964 281.279492 
L 218.136965 281.28834 
L 219.550966 275.094145 
L 222.378967 275.10479 
L 223.792968 270.128446 
L 226.620969 270.138153 
L 228.03497 261.57387 
L 230.862971 261.58725 
L 232.276972 268.968198 
L 235.104973 268.966365 
L 236.518974 268.431821 
L 239.346975 268.431064 
L 240.760976 266.926431 
L 243.588977 266.92778 
L 245.002977 265.222835 
L 247.830979 265.224927 
L 249.244979 266.717425 
L 252.072981 266.716835 
L 253.486981 269.161519 
L 256.314983 269.159133 
L 257.728983 268.062837 
L 260.556984 268.062638 
L 261.970985 267.894501 
L 264.798986 267.894543 
L 266.212987 270.034307 
L 269.040988 270.032493 
L 270.454989 270.452618 
L 273.28299 270.451417 
L 274.696991 271.470733 
L 277.524992 271.469459 
L 278.938993 272.039721 
L 281.766994 272.038493 
L 283.180995 275.079305 
L 286.008996 275.075935 
L 287.422996 274.951137 
L 290.250998 274.949555 
L 291.664998 274.533039 
L 294.493 274.532821 
L 295.907 275.520265 
L 298.735002 275.519206 
L 300.149002 277.626726 
L 302.977003 277.624107 
L 304.391004 277.246584 
L 307.219005 277.245673 
L 308.633006 279.673138 
L 311.461007 279.670515 
L 312.875008 279.987088 
L 315.703009 279.985416 
L 317.11701 280.892734 
L 319.945011 280.891196 
L 321.359012 281.299853 
L 324.187013 281.298758 
L 325.601014 282.749681 
L 328.429015 282.747685 
L 329.843015 282.484112 
L 332.671017 282.483363 
L 334.085017 283.039951 
L 336.913019 283.039179 
L 338.327019 282.82088 
L 341.155021 282.820712 
L 342.569021 281.455072 
L 345.397022 281.456573 
L 346.811023 281.32706 
L 349.639024 281.327807 
L 351.053025 282.447319 
L 353.881026 282.446518 
L 355.295027 282.228595 
L 358.123028 282.228406 
L 359.537029 281.751697 
L 362.36503 281.752117 
L 363.779031 281.927779 
L 366.607032 281.927828 
L 368.021033 282.450549 
L 370.849034 282.44991 
L 372.263034 281.889253 
L 375.091036 281.88966 
L 376.505036 282.07295 
L 379.333038 282.072875 
L 380.747038 281.389412 
L 383.57504 281.389965 
L 384.98904 281.952254 
L 387.817041 281.952044 
L 389.231042 281.594166 
L 392.059043 281.594302 
L 393.473044 282.167783 
L 396.301045 282.167253 
L 397.715046 282.045814 
L 400.543047 282.045688 
L 401.957048 281.592594 
L 404.785049 281.593054 
L 406.19905 280.725589 
L 413.269053 280.712759 
L 414.683053 280.534621 
L 417.511055 280.535056 
L 418.925055 281.063278 
L 421.753057 281.063013 
L 423.167057 280.828874 
L 430.23706 280.787543 
L 431.651061 281.109656 
L 434.479062 281.109435 
L 435.893063 281.340716 
L 438.721064 281.340401 
L 440.135065 281.5589 
L 442.963066 281.558652 
L 444.377067 281.863219 
L 447.205068 281.863535 
L 448.619069 281.483476 
L 450.033069 283.701046 
L 451.44707 287.406508 
L 452.861071 292.758454 
L 454.275071 296.346848 
L 455.689072 299.42761 
L 457.103073 302.234044 
L 458.517073 304.306317 
L 459.931074 305.988839 
L 461.345074 309.420723 
L 462.759075 310.454473 
L 464.173076 311.296981 
L 465.587076 312.545413 
L 467.001077 312.852928 
L 468.415078 312.676263 
L 469.829078 314.471453 
L 471.243079 313.512727 
L 472.657079 312.224894 
L 474.07108 311.867208 
L 476.899081 308.355009 
L 478.313082 313.833378 
L 481.141083 310.95261 
L 482.555084 312.682795 
L 485.383085 310.526385 
L 486.797086 315.696153 
L 489.625087 314.475264 
L 491.039088 315.868867 
L 493.867089 315.14555 
L 495.28109 320.486877 
L 498.109091 320.135663 
L 498.109091 320.135663 
" style="fill:none;stroke:#4c72b0;stroke-linecap:round;stroke-width:1.75;"/>
   </g>
   <g id="line2d_66">
    <path clip-path="url(#p14bb8889b3)" d="M 92.290909 303.439401 
L 95.11891 303.371366 
L 96.532911 304.246094 
L 99.360912 304.200213 
L 100.774913 305.733144 
L 103.602914 305.705693 
L 105.016915 310.032842 
L 107.844916 310.015474 
L 109.258917 311.155286 
L 112.086918 311.144551 
L 113.500919 312.749421 
L 116.32892 312.742028 
L 117.74292 314.638178 
L 120.570922 314.632219 
L 121.984922 316.172402 
L 129.054926 316.240671 
L 130.468926 316.522512 
L 133.296927 316.519866 
L 134.710928 318.710817 
L 137.538929 318.706922 
L 138.95293 320.459367 
L 141.780931 320.455116 
L 143.194932 320.264869 
L 146.022933 320.262043 
L 147.436934 320.614179 
L 150.264935 320.61207 
L 151.678936 319.708983 
L 154.506937 319.708466 
L 155.920938 337.495072 
L 158.748939 337.48369 
L 160.162939 335.223436 
L 162.990941 335.214706 
L 164.404941 332.949624 
L 167.232943 332.944208 
L 168.646943 330.921 
L 171.474945 330.918956 
L 172.888945 326.414597 
L 175.716946 326.418861 
L 177.130947 325.470783 
L 179.958948 325.476088 
L 181.372949 323.267784 
L 184.20095 323.27472 
L 185.614951 322.14401 
L 188.442952 322.150547 
L 189.856953 317.168826 
L 192.684954 317.180644 
L 194.098955 311.70798 
L 196.926956 311.72436 
L 198.340957 305.054772 
L 201.168958 305.07505 
L 202.582959 297.748138 
L 205.41096 297.77033 
L 206.82496 292.47666 
L 209.652962 292.495777 
L 211.066962 285.973646 
L 213.894964 285.990861 
L 215.308964 286.729154 
L 218.136965 286.736496 
L 219.550966 281.22428 
L 222.378967 281.233167 
L 223.792968 275.467914 
L 226.620969 275.477271 
L 228.03497 267.590077 
L 230.862971 267.601922 
L 232.276972 274.545674 
L 235.104973 274.544248 
L 236.518974 274.007281 
L 239.346975 274.00663 
L 240.760976 273.265278 
L 243.588977 273.26596 
L 245.002977 271.224261 
L 247.830979 271.226279 
L 249.244979 272.436704 
L 252.072981 272.436394 
L 253.486981 275.38877 
L 256.314983 275.386307 
L 257.728983 273.996764 
L 260.556984 273.996702 
L 261.970985 273.489249 
L 264.798986 273.489558 
L 266.212987 275.97956 
L 269.040988 275.977734 
L 270.454989 276.587007 
L 273.28299 276.58573 
L 274.696991 278.215534 
L 277.524992 278.213901 
L 278.938993 278.52851 
L 281.766994 278.527449 
L 283.180995 281.447246 
L 286.008996 281.444286 
L 287.422996 280.965278 
L 290.250998 280.9641 
L 291.664998 280.583561 
L 294.493 280.583403 
L 295.907 281.341245 
L 298.735002 281.34046 
L 300.149002 283.022431 
L 302.977003 283.020397 
L 304.391004 282.591119 
L 307.219005 282.590413 
L 308.633006 285.112047 
L 311.461007 285.109632 
L 312.875008 285.226077 
L 315.703009 285.224686 
L 317.11701 286.349759 
L 319.945011 286.348231 
L 321.359012 286.85476 
L 324.187013 286.853648 
L 325.601014 288.05113 
L 328.429015 288.049473 
L 329.843015 287.703402 
L 332.671017 287.702823 
L 334.085017 288.447562 
L 336.913019 288.446744 
L 338.327019 288.186421 
L 341.155021 288.186265 
L 342.569021 287.312642 
L 345.397022 287.313608 
L 346.811023 286.812139 
L 349.639024 286.813003 
L 351.053025 287.780641 
L 353.881026 287.780085 
L 355.295027 287.667725 
L 358.123028 287.667516 
L 359.537029 287.271107 
L 362.36503 287.271414 
L 363.779031 287.44808 
L 366.607032 287.448104 
L 368.021033 287.579833 
L 370.849034 287.579547 
L 372.263034 287.460685 
L 379.333038 287.362616 
L 380.747038 286.416095 
L 383.57504 286.416847 
L 384.98904 287.089857 
L 387.817041 287.089656 
L 389.231042 286.5069 
L 392.059043 286.507196 
L 393.473044 286.926376 
L 400.543047 286.85225 
L 401.957048 286.540916 
L 404.785049 286.541226 
L 406.19905 285.540673 
L 413.269053 285.568331 
L 414.683053 285.426219 
L 417.511055 285.426586 
L 418.925055 286.120073 
L 421.753057 286.119695 
L 423.167057 285.870011 
L 430.23706 285.881069 
L 431.651061 286.240567 
L 434.479062 286.240325 
L 435.893063 286.366022 
L 442.963066 286.403288 
L 444.377067 286.855857 
L 447.205068 286.856108 
L 448.619069 286.574305 
L 450.033069 288.690149 
L 451.44707 292.214717 
L 452.861071 297.397191 
L 454.275071 300.781521 
L 455.689072 303.681382 
L 457.103073 306.299095 
L 458.517073 308.244578 
L 459.931074 309.822063 
L 461.345074 313.020759 
L 462.759075 313.988216 
L 464.173076 314.775834 
L 465.587076 315.811043 
L 467.001077 316.095831 
L 468.415078 315.921237 
L 469.829078 317.401547 
L 471.243079 316.480413 
L 472.657079 315.24561 
L 474.07108 314.730965 
L 476.899081 311.356623 
L 478.313082 316.241372 
L 481.141083 313.46034 
L 482.555084 315.265067 
L 485.383085 313.210222 
L 486.797086 317.598535 
L 489.625087 316.423964 
L 491.039088 317.6096 
L 493.867089 316.919378 
L 495.28109 321.867413 
L 498.109091 321.534832 
L 498.109091 321.534832 
" style="fill:none;stroke:#55a868;stroke-linecap:round;stroke-width:1.75;"/>
   </g>
   <g id="line2d_67">
    <path clip-path="url(#p14bb8889b3)" d="M 92.290909 316.119251 
L 95.11891 316.03221 
L 96.532911 321.204389 
L 99.360912 321.155324 
L 100.774913 321.44314 
L 103.602914 321.41417 
L 105.016915 325.481614 
L 107.844916 325.462219 
L 109.258917 326.449148 
L 112.086918 326.436858 
L 113.500919 328.364132 
L 116.32892 328.354889 
L 117.74292 330.049758 
L 120.570922 330.042222 
L 121.984922 331.695967 
L 124.812924 331.689322 
L 126.226924 332.416377 
L 129.054926 332.411396 
L 130.468926 335.464407 
L 133.296927 335.457885 
L 134.710928 337.898261 
L 141.780931 337.914365 
L 143.194932 338.227175 
L 146.022933 338.223495 
L 147.436934 337.559206 
L 150.264935 337.557583 
L 151.678936 337.98326 
L 154.506937 337.981687 
L 155.920938 346.14 
L 158.748939 346.12921 
L 160.162939 343.240902 
L 162.990941 343.234671 
L 164.404941 342.719932 
L 167.232943 342.715664 
L 168.646943 341.914091 
L 171.474945 341.912225 
L 172.888945 337.322561 
L 175.716946 337.329783 
L 177.130947 335.727587 
L 179.958948 335.736032 
L 181.372949 336.247874 
L 184.20095 336.253232 
L 185.614951 334.48354 
L 188.442952 334.490828 
L 189.856953 325.575467 
L 192.684954 325.599277 
L 194.098955 319.085539 
L 196.926956 319.1142 
L 198.340957 313.104774 
L 201.168958 313.133866 
L 202.582959 306.609955 
L 205.41096 306.638691 
L 206.82496 297.965796 
L 209.652962 297.995087 
L 211.066962 292.856183 
L 213.894964 292.877954 
L 215.308964 291.015108 
L 218.136965 291.026226 
L 219.550966 284.559194 
L 222.378967 284.572384 
L 223.792968 284.115747 
L 226.620969 284.123328 
L 228.03497 276.124187 
L 230.862971 276.138376 
L 232.276972 282.513505 
L 235.104973 282.510863 
L 236.518974 282.169998 
L 239.346975 282.169128 
L 240.760976 278.479683 
L 247.830979 278.563722 
L 249.244979 280.539379 
L 252.072981 280.538001 
L 253.486981 280.336472 
L 256.314983 280.335185 
L 257.728983 280.658027 
L 260.556984 280.657409 
L 261.970985 281.750348 
L 264.798986 281.749429 
L 266.212987 281.906727 
L 269.040988 281.905578 
L 270.454989 281.509717 
L 273.28299 281.509202 
L 274.696991 280.011428 
L 277.524992 280.011871 
L 278.938993 281.290955 
L 281.766994 281.28956 
L 283.180995 283.706484 
L 286.008996 283.702827 
L 287.422996 284.876896 
L 290.250998 284.874429 
L 291.664998 284.474592 
L 294.493 284.474241 
L 295.907 285.93371 
L 298.735002 285.932047 
L 300.149002 288.818385 
L 307.219005 288.749936 
L 308.633006 290.003069 
L 311.461007 290.00062 
L 312.875008 290.917019 
L 315.703009 290.914932 
L 317.11701 290.736163 
L 324.187013 290.65467 
L 325.601014 292.501647 
L 328.429015 292.499139 
L 329.843015 292.619279 
L 332.671017 292.618189 
L 334.085017 292.315074 
L 341.155021 292.32084 
L 342.569021 289.683877 
L 345.397022 289.686754 
L 346.811023 290.92065 
L 349.639024 290.920722 
L 351.053025 292.190993 
L 353.881026 292.189599 
L 355.295027 291.672917 
L 358.123028 291.672864 
L 359.537029 291.076556 
L 366.607032 291.188628 
L 368.021033 292.916405 
L 370.849034 292.914736 
L 372.263034 290.982069 
L 375.091036 290.983405 
L 376.505036 292.101281 
L 379.333038 292.100692 
L 380.747038 292.586402 
L 387.817041 292.560987 
L 389.231042 293.124202 
L 392.059043 293.123729 
L 393.473044 294.04563 
L 396.301045 294.044505 
L 397.715046 293.795922 
L 400.543047 293.79576 
L 401.957048 292.997017 
L 409.027051 292.903292 
L 410.441052 292.750056 
L 413.269053 292.750623 
L 414.683053 292.506454 
L 417.511055 292.506981 
L 418.925055 292.266449 
L 425.995059 292.168882 
L 427.409059 291.955696 
L 434.479062 292.033959 
L 435.893063 292.559449 
L 438.721064 292.558887 
L 440.135065 293.343231 
L 442.963066 293.34239 
L 444.377067 293.016842 
L 447.205068 293.017282 
L 448.619069 292.420506 
L 450.033069 294.230856 
L 451.44707 297.294557 
L 452.861071 301.394161 
L 454.275071 304.463468 
L 457.103073 309.622512 
L 458.517073 311.426725 
L 459.931074 312.899026 
L 461.345074 315.969256 
L 462.759075 316.880076 
L 464.173076 317.625445 
L 465.587076 319.19747 
L 467.001077 319.479077 
L 468.415078 319.356237 
L 469.829078 321.646077 
L 471.243079 320.886053 
L 472.657079 319.856141 
L 474.07108 320.178714 
L 476.899081 317.393921 
L 478.313082 323.079754 
L 481.141083 320.842894 
L 482.555084 321.709753 
L 485.383085 319.93996 
L 486.797086 326.089912 
L 489.625087 325.127561 
L 491.039088 326.775863 
L 493.867089 326.18567 
L 495.28109 331.071762 
L 498.109091 330.776104 
L 498.109091 330.776104 
" style="fill:none;stroke:#c44e52;stroke-linecap:round;stroke-width:1.75;"/>
   </g>
   <g id="patch_8">
    <path d="M 72 352.44 
L 72 213.84 
" style="fill:none;"/>
   </g>
   <g id="patch_9">
    <path d="M 518.4 352.44 
L 518.4 213.84 
" style="fill:none;"/>
   </g>
   <g id="patch_10">
    <path d="M 72 352.44 
L 518.4 352.44 
" style="fill:none;"/>
   </g>
   <g id="patch_11">
    <path d="M 72 213.84 
L 518.4 213.84 
" style="fill:none;"/>
   </g>
   <g id="text_32">
    <!-- Courant numbers -->
    <defs>
     <path d="M 58.796875 25.09375 
L 68.265625 22.703125 
Q 65.28125 11.03125 57.546875 4.90625 
Q 49.8125 -1.21875 38.625 -1.21875 
Q 27.046875 -1.21875 19.796875 3.484375 
Q 12.546875 8.203125 8.765625 17.140625 
Q 4.984375 26.078125 4.984375 36.328125 
Q 4.984375 47.515625 9.25 55.828125 
Q 13.53125 64.15625 21.40625 68.46875 
Q 29.296875 72.796875 38.765625 72.796875 
Q 49.515625 72.796875 56.828125 67.328125 
Q 64.15625 61.859375 67.046875 51.953125 
L 57.71875 49.75 
Q 55.21875 57.5625 50.484375 61.125 
Q 45.75 64.703125 38.578125 64.703125 
Q 30.328125 64.703125 24.78125 60.734375 
Q 19.234375 56.78125 16.984375 50.109375 
Q 14.75 43.453125 14.75 36.375 
Q 14.75 27.25 17.40625 20.4375 
Q 20.0625 13.625 25.671875 10.25 
Q 31.296875 6.890625 37.84375 6.890625 
Q 45.796875 6.890625 51.3125 11.46875 
Q 56.84375 16.0625 58.796875 25.09375 
z
" id="ArialMT-67"/>
     <path d="M 3.328125 25.921875 
Q 3.328125 40.328125 11.328125 47.265625 
Q 18.015625 53.03125 27.640625 53.03125 
Q 38.328125 53.03125 45.109375 46.015625 
Q 51.90625 39.015625 51.90625 26.65625 
Q 51.90625 16.65625 48.90625 10.90625 
Q 45.90625 5.171875 40.15625 2 
Q 34.421875 -1.171875 27.640625 -1.171875 
Q 16.75 -1.171875 10.03125 5.8125 
Q 3.328125 12.796875 3.328125 25.921875 
z
M 12.359375 25.921875 
Q 12.359375 15.96875 16.703125 11.015625 
Q 21.046875 6.0625 27.640625 6.0625 
Q 34.1875 6.0625 38.53125 11.03125 
Q 42.875 16.015625 42.875 26.21875 
Q 42.875 35.84375 38.5 40.796875 
Q 34.125 45.75 27.640625 45.75 
Q 21.046875 45.75 16.703125 40.8125 
Q 12.359375 35.890625 12.359375 25.921875 
z
" id="ArialMT-111"/>
     <path d="M 40.578125 0 
L 40.578125 7.625 
Q 34.515625 -1.171875 24.125 -1.171875 
Q 19.53125 -1.171875 15.546875 0.578125 
Q 11.578125 2.34375 9.640625 5 
Q 7.71875 7.671875 6.9375 11.53125 
Q 6.390625 14.109375 6.390625 19.734375 
L 6.390625 51.859375 
L 15.1875 51.859375 
L 15.1875 23.09375 
Q 15.1875 16.21875 15.71875 13.8125 
Q 16.546875 10.359375 19.234375 8.375 
Q 21.921875 6.390625 25.875 6.390625 
Q 29.828125 6.390625 33.296875 8.421875 
Q 36.765625 10.453125 38.203125 13.9375 
Q 39.65625 17.4375 39.65625 24.078125 
L 39.65625 51.859375 
L 48.4375 51.859375 
L 48.4375 0 
z
" id="ArialMT-117"/>
     <path d="M 6.59375 0 
L 6.59375 51.859375 
L 14.5 51.859375 
L 14.5 44.484375 
Q 20.21875 53.03125 31 53.03125 
Q 35.6875 53.03125 39.625 51.34375 
Q 43.5625 49.65625 45.515625 46.921875 
Q 47.46875 44.1875 48.25 40.4375 
Q 48.734375 37.984375 48.734375 31.890625 
L 48.734375 0 
L 39.9375 0 
L 39.9375 31.546875 
Q 39.9375 36.921875 38.90625 39.578125 
Q 37.890625 42.234375 35.28125 43.8125 
Q 32.671875 45.40625 29.15625 45.40625 
Q 23.53125 45.40625 19.453125 41.84375 
Q 15.375 38.28125 15.375 28.328125 
L 15.375 0 
z
" id="ArialMT-110"/>
     <path d="M 6.59375 0 
L 6.59375 51.859375 
L 14.453125 51.859375 
L 14.453125 44.578125 
Q 16.890625 48.390625 20.9375 50.703125 
Q 25 53.03125 30.171875 53.03125 
Q 35.9375 53.03125 39.625 50.640625 
Q 43.3125 48.25 44.828125 43.953125 
Q 50.984375 53.03125 60.84375 53.03125 
Q 68.5625 53.03125 72.703125 48.75 
Q 76.859375 44.484375 76.859375 35.59375 
L 76.859375 0 
L 68.109375 0 
L 68.109375 32.671875 
Q 68.109375 37.9375 67.25 40.25 
Q 66.40625 42.578125 64.15625 43.984375 
Q 61.921875 45.40625 58.890625 45.40625 
Q 53.421875 45.40625 49.796875 41.765625 
Q 46.1875 38.140625 46.1875 30.125 
L 46.1875 0 
L 37.40625 0 
L 37.40625 33.6875 
Q 37.40625 39.546875 35.25 42.46875 
Q 33.109375 45.40625 28.21875 45.40625 
Q 24.515625 45.40625 21.359375 43.453125 
Q 18.21875 41.5 16.796875 37.734375 
Q 15.375 33.984375 15.375 26.90625 
L 15.375 0 
z
" id="ArialMT-109"/>
     <path d="M 14.703125 0 
L 6.546875 0 
L 6.546875 71.578125 
L 15.328125 71.578125 
L 15.328125 46.046875 
Q 20.90625 53.03125 29.546875 53.03125 
Q 34.328125 53.03125 38.59375 51.09375 
Q 42.875 49.171875 45.625 45.671875 
Q 48.390625 42.1875 49.953125 37.25 
Q 51.515625 32.328125 51.515625 26.703125 
Q 51.515625 13.375 44.921875 6.09375 
Q 38.328125 -1.171875 29.109375 -1.171875 
Q 19.921875 -1.171875 14.703125 6.5 
z
M 14.59375 26.3125 
Q 14.59375 17 17.140625 12.84375 
Q 21.296875 6.0625 28.375 6.0625 
Q 34.125 6.0625 38.328125 11.0625 
Q 42.53125 16.0625 42.53125 25.984375 
Q 42.53125 36.140625 38.5 40.96875 
Q 34.46875 45.796875 28.765625 45.796875 
Q 23 45.796875 18.796875 40.796875 
Q 14.59375 35.796875 14.59375 26.3125 
z
" id="ArialMT-98"/>
    </defs>
    <g style="fill:#262626;" transform="translate(248.847187 207.84)scale(0.12 -0.12)">
     <use xlink:href="#ArialMT-67"/>
     <use x="72.216797" xlink:href="#ArialMT-111"/>
     <use x="127.832031" xlink:href="#ArialMT-117"/>
     <use x="183.447266" xlink:href="#ArialMT-114"/>
     <use x="216.748047" xlink:href="#ArialMT-97"/>
     <use x="272.363281" xlink:href="#ArialMT-110"/>
     <use x="327.978516" xlink:href="#ArialMT-116"/>
     <use x="355.761719" xlink:href="#ArialMT-32"/>
     <use x="383.544922" xlink:href="#ArialMT-110"/>
     <use x="439.160156" xlink:href="#ArialMT-117"/>
     <use x="494.775391" xlink:href="#ArialMT-109"/>
     <use x="578.076172" xlink:href="#ArialMT-98"/>
     <use x="633.691406" xlink:href="#ArialMT-101"/>
     <use x="689.306641" xlink:href="#ArialMT-114"/>
     <use x="722.607422" xlink:href="#ArialMT-115"/>
    </g>
   </g>
  </g>
  <g id="text_33">
   <!-- Horizon: 24.0h, Time step: 300, Neighbourhoods: 2, case: energy -->
   <defs>
    <path d="M 8.015625 0 
L 8.015625 71.578125 
L 17.484375 71.578125 
L 17.484375 42.1875 
L 54.6875 42.1875 
L 54.6875 71.578125 
L 64.15625 71.578125 
L 64.15625 0 
L 54.6875 0 
L 54.6875 33.734375 
L 17.484375 33.734375 
L 17.484375 0 
z
" id="ArialMT-72"/>
    <path d="M 1.953125 0 
L 1.953125 7.125 
L 34.96875 45.015625 
Q 29.34375 44.734375 25.046875 44.734375 
L 3.90625 44.734375 
L 3.90625 51.859375 
L 46.296875 51.859375 
L 46.296875 46.046875 
L 18.21875 13.140625 
L 12.796875 7.125 
Q 18.703125 7.5625 23.875 7.5625 
L 47.859375 7.5625 
L 47.859375 0 
z
" id="ArialMT-122"/>
    <path d="M 9.03125 41.84375 
L 9.03125 51.859375 
L 19.046875 51.859375 
L 19.046875 41.84375 
z
M 9.03125 0 
L 9.03125 10.015625 
L 19.046875 10.015625 
L 19.046875 0 
z
" id="ArialMT-58"/>
    <path d="M 6.59375 0 
L 6.59375 71.578125 
L 15.375 71.578125 
L 15.375 45.90625 
Q 21.53125 53.03125 30.90625 53.03125 
Q 36.671875 53.03125 40.921875 50.75 
Q 45.171875 48.484375 47 44.484375 
Q 48.828125 40.484375 48.828125 32.859375 
L 48.828125 0 
L 40.046875 0 
L 40.046875 32.859375 
Q 40.046875 39.453125 37.1875 42.453125 
Q 34.328125 45.453125 29.109375 45.453125 
Q 25.203125 45.453125 21.75 43.421875 
Q 18.3125 41.40625 16.84375 37.9375 
Q 15.375 34.46875 15.375 28.375 
L 15.375 0 
z
" id="ArialMT-104"/>
    <path d="M 8.890625 0 
L 8.890625 10.015625 
L 18.890625 10.015625 
L 18.890625 0 
Q 18.890625 -5.515625 16.9375 -8.90625 
Q 14.984375 -12.3125 10.75 -14.15625 
L 8.296875 -10.40625 
Q 11.078125 -9.1875 12.390625 -6.8125 
Q 13.71875 -4.4375 13.875 0 
z
" id="ArialMT-44"/>
    <path d="M 25.921875 0 
L 25.921875 63.140625 
L 2.34375 63.140625 
L 2.34375 71.578125 
L 59.078125 71.578125 
L 59.078125 63.140625 
L 35.40625 63.140625 
L 35.40625 0 
z
" id="ArialMT-84"/>
    <path d="M 7.625 0 
L 7.625 71.578125 
L 17.328125 71.578125 
L 54.9375 15.375 
L 54.9375 71.578125 
L 64.015625 71.578125 
L 64.015625 0 
L 54.296875 0 
L 16.703125 56.25 
L 16.703125 0 
z
" id="ArialMT-78"/>
    <path d="M 4.984375 -4.296875 
L 13.53125 -5.5625 
Q 14.0625 -9.515625 16.5 -11.328125 
Q 19.78125 -13.765625 25.4375 -13.765625 
Q 31.546875 -13.765625 34.859375 -11.328125 
Q 38.1875 -8.890625 39.359375 -4.5 
Q 40.046875 -1.8125 39.984375 6.78125 
Q 34.234375 0 25.640625 0 
Q 14.9375 0 9.078125 7.71875 
Q 3.21875 15.4375 3.21875 26.21875 
Q 3.21875 33.640625 5.90625 39.90625 
Q 8.59375 46.1875 13.6875 49.609375 
Q 18.796875 53.03125 25.6875 53.03125 
Q 34.859375 53.03125 40.828125 45.609375 
L 40.828125 51.859375 
L 48.921875 51.859375 
L 48.921875 7.03125 
Q 48.921875 -5.078125 46.453125 -10.125 
Q 44 -15.1875 38.640625 -18.109375 
Q 33.296875 -21.046875 25.484375 -21.046875 
Q 16.21875 -21.046875 10.5 -16.875 
Q 4.78125 -12.703125 4.984375 -4.296875 
z
M 12.25 26.859375 
Q 12.25 16.65625 16.296875 11.96875 
Q 20.359375 7.28125 26.46875 7.28125 
Q 32.515625 7.28125 36.609375 11.9375 
Q 40.71875 16.609375 40.71875 26.5625 
Q 40.71875 36.078125 36.5 40.90625 
Q 32.28125 45.75 26.3125 45.75 
Q 20.453125 45.75 16.34375 40.984375 
Q 12.25 36.234375 12.25 26.859375 
z
" id="ArialMT-103"/>
    <path d="M 40.4375 19 
L 49.078125 17.875 
Q 47.65625 8.9375 41.8125 3.875 
Q 35.984375 -1.171875 27.484375 -1.171875 
Q 16.84375 -1.171875 10.375 5.78125 
Q 3.90625 12.75 3.90625 25.734375 
Q 3.90625 34.125 6.6875 40.421875 
Q 9.46875 46.734375 15.15625 49.875 
Q 20.84375 53.03125 27.546875 53.03125 
Q 35.984375 53.03125 41.359375 48.75 
Q 46.734375 44.484375 48.25 36.625 
L 39.703125 35.296875 
Q 38.484375 40.53125 35.375 43.15625 
Q 32.28125 45.796875 27.875 45.796875 
Q 21.234375 45.796875 17.078125 41.03125 
Q 12.9375 36.28125 12.9375 25.984375 
Q 12.9375 15.53125 16.9375 10.796875 
Q 20.953125 6.0625 27.390625 6.0625 
Q 32.5625 6.0625 36.03125 9.234375 
Q 39.5 12.40625 40.4375 19 
z
" id="ArialMT-99"/>
    <path d="M 6.203125 -19.96875 
L 5.21875 -11.71875 
Q 8.109375 -12.5 10.25 -12.5 
Q 13.1875 -12.5 14.9375 -11.515625 
Q 16.703125 -10.546875 17.828125 -8.796875 
Q 18.65625 -7.46875 20.515625 -2.25 
Q 20.75 -1.515625 21.296875 -0.09375 
L 1.609375 51.859375 
L 11.078125 51.859375 
L 21.875 21.828125 
Q 23.96875 16.109375 25.640625 9.8125 
Q 27.15625 15.875 29.25 21.625 
L 40.328125 51.859375 
L 49.125 51.859375 
L 29.390625 -0.875 
Q 26.21875 -9.421875 24.46875 -12.640625 
Q 22.125 -17 19.09375 -19.015625 
Q 16.0625 -21.046875 11.859375 -21.046875 
Q 9.328125 -21.046875 6.203125 -19.96875 
z
" id="ArialMT-121"/>
   </defs>
   <g style="fill:#262626;" transform="translate(114.248437 16.545)scale(0.12 -0.12)">
    <use xlink:href="#ArialMT-72"/>
    <use x="72.216797" xlink:href="#ArialMT-111"/>
    <use x="127.832031" xlink:href="#ArialMT-114"/>
    <use x="161.132812" xlink:href="#ArialMT-105"/>
    <use x="183.349609" xlink:href="#ArialMT-122"/>
    <use x="233.349609" xlink:href="#ArialMT-111"/>
    <use x="288.964844" xlink:href="#ArialMT-110"/>
    <use x="344.580078" xlink:href="#ArialMT-58"/>
    <use x="372.363281" xlink:href="#ArialMT-32"/>
    <use x="400.146484" xlink:href="#ArialMT-50"/>
    <use x="455.761719" xlink:href="#ArialMT-52"/>
    <use x="511.376953" xlink:href="#ArialMT-46"/>
    <use x="539.160156" xlink:href="#ArialMT-48"/>
    <use x="594.775391" xlink:href="#ArialMT-104"/>
    <use x="650.390625" xlink:href="#ArialMT-44"/>
    <use x="678.173828" xlink:href="#ArialMT-32"/>
    <use x="705.941406" xlink:href="#ArialMT-84"/>
    <use x="766.978516" xlink:href="#ArialMT-105"/>
    <use x="789.195312" xlink:href="#ArialMT-109"/>
    <use x="872.496094" xlink:href="#ArialMT-101"/>
    <use x="928.111328" xlink:href="#ArialMT-32"/>
    <use x="955.894531" xlink:href="#ArialMT-115"/>
    <use x="1005.894531" xlink:href="#ArialMT-116"/>
    <use x="1033.677734" xlink:href="#ArialMT-101"/>
    <use x="1089.292969" xlink:href="#ArialMT-112"/>
    <use x="1144.908203" xlink:href="#ArialMT-58"/>
    <use x="1172.691406" xlink:href="#ArialMT-32"/>
    <use x="1200.474609" xlink:href="#ArialMT-51"/>
    <use x="1256.089844" xlink:href="#ArialMT-48"/>
    <use x="1311.705078" xlink:href="#ArialMT-48"/>
    <use x="1367.320312" xlink:href="#ArialMT-44"/>
    <use x="1395.103516" xlink:href="#ArialMT-32"/>
    <use x="1422.886719" xlink:href="#ArialMT-78"/>
    <use x="1495.103516" xlink:href="#ArialMT-101"/>
    <use x="1550.71875" xlink:href="#ArialMT-105"/>
    <use x="1572.935547" xlink:href="#ArialMT-103"/>
    <use x="1628.550781" xlink:href="#ArialMT-104"/>
    <use x="1684.166016" xlink:href="#ArialMT-98"/>
    <use x="1739.78125" xlink:href="#ArialMT-111"/>
    <use x="1795.396484" xlink:href="#ArialMT-117"/>
    <use x="1851.011719" xlink:href="#ArialMT-114"/>
    <use x="1884.3125" xlink:href="#ArialMT-104"/>
    <use x="1939.927734" xlink:href="#ArialMT-111"/>
    <use x="1995.542969" xlink:href="#ArialMT-111"/>
    <use x="2051.158203" xlink:href="#ArialMT-100"/>
    <use x="2106.773438" xlink:href="#ArialMT-115"/>
    <use x="2156.773438" xlink:href="#ArialMT-58"/>
    <use x="2184.556641" xlink:href="#ArialMT-32"/>
    <use x="2212.339844" xlink:href="#ArialMT-50"/>
    <use x="2267.955078" xlink:href="#ArialMT-44"/>
    <use x="2295.738281" xlink:href="#ArialMT-32"/>
    <use x="2323.521484" xlink:href="#ArialMT-99"/>
    <use x="2373.521484" xlink:href="#ArialMT-97"/>
    <use x="2429.136719" xlink:href="#ArialMT-115"/>
    <use x="2479.136719" xlink:href="#ArialMT-101"/>
    <use x="2534.751953" xlink:href="#ArialMT-58"/>
    <use x="2562.535156" xlink:href="#ArialMT-32"/>
    <use x="2590.318359" xlink:href="#ArialMT-101"/>
    <use x="2645.933594" xlink:href="#ArialMT-110"/>
    <use x="2701.548828" xlink:href="#ArialMT-101"/>
    <use x="2757.164062" xlink:href="#ArialMT-114"/>
    <use x="2790.464844" xlink:href="#ArialMT-103"/>
    <use x="2846.080078" xlink:href="#ArialMT-121"/>
   </g>
  </g>
 </g>
 <defs>
  <clipPath id="p137ad6ce83">
   <rect height="138.6" width="446.4" x="72" y="47.52"/>
  </clipPath>
  <clipPath id="p14bb8889b3">
   <rect height="138.6" width="446.4" x="72" y="213.84"/>
  </clipPath>
 </defs>
</svg>
