<?xml version="1.0" encoding="utf-8" standalone="no"?>
<!DOCTYPE svg PUBLIC "-//W3C//DTD SVG 1.1//EN"
  "http://www.w3.org/Graphics/SVG/1.1/DTD/svg11.dtd">
<!-- Created with matplotlib (https://matplotlib.org/) -->
<svg height="396pt" version="1.1" viewBox="0 0 576 396" width="576pt" xmlns="http://www.w3.org/2000/svg" xmlns:xlink="http://www.w3.org/1999/xlink">
 <defs>
  <style type="text/css">
*{stroke-linecap:butt;stroke-linejoin:round;}
  </style>
 </defs>
 <g id="figure_1">
  <g id="patch_1">
   <path d="M 0 396 
L 576 396 
L 576 0 
L 0 0 
z
" style="fill:#ffffff;"/>
  </g>
  <g id="axes_1">
   <g id="patch_2">
    <path d="M 72 186.12 
L 518.4 186.12 
L 518.4 47.52 
L 72 47.52 
z
" style="fill:#eaeaf2;"/>
   </g>
   <g id="matplotlib.axis_1">
    <g id="xtick_1">
     <g id="line2d_1">
      <path clip-path="url(#p7657fe78b8)" d="M 92.290909 186.12 
L 92.290909 47.52 
" style="fill:none;stroke:#ffffff;stroke-linecap:round;"/>
     </g>
     <g id="line2d_2"/>
     <g id="text_1">
      <!-- 01-01 00 -->
      <defs>
       <path d="M 4.15625 35.296875 
Q 4.15625 48 6.765625 55.734375 
Q 9.375 63.484375 14.515625 67.671875 
Q 19.671875 71.875 27.484375 71.875 
Q 33.25 71.875 37.59375 69.546875 
Q 41.9375 67.234375 44.765625 62.859375 
Q 47.609375 58.5 49.21875 52.21875 
Q 50.828125 45.953125 50.828125 35.296875 
Q 50.828125 22.703125 48.234375 14.96875 
Q 45.65625 7.234375 40.5 3 
Q 35.359375 -1.21875 27.484375 -1.21875 
Q 17.140625 -1.21875 11.234375 6.203125 
Q 4.15625 15.140625 4.15625 35.296875 
z
M 13.1875 35.296875 
Q 13.1875 17.671875 17.3125 11.828125 
Q 21.4375 6 27.484375 6 
Q 33.546875 6 37.671875 11.859375 
Q 41.796875 17.71875 41.796875 35.296875 
Q 41.796875 52.984375 37.671875 58.78125 
Q 33.546875 64.59375 27.390625 64.59375 
Q 21.34375 64.59375 17.71875 59.46875 
Q 13.1875 52.9375 13.1875 35.296875 
z
" id="ArialMT-48"/>
       <path d="M 37.25 0 
L 28.46875 0 
L 28.46875 56 
Q 25.296875 52.984375 20.140625 49.953125 
Q 14.984375 46.921875 10.890625 45.40625 
L 10.890625 53.90625 
Q 18.265625 57.375 23.78125 62.296875 
Q 29.296875 67.234375 31.59375 71.875 
L 37.25 71.875 
z
" id="ArialMT-49"/>
       <path d="M 3.171875 21.484375 
L 3.171875 30.328125 
L 30.171875 30.328125 
L 30.171875 21.484375 
z
" id="ArialMT-45"/>
       <path id="ArialMT-32"/>
      </defs>
      <g style="fill:#262626;" transform="translate(72.55419 200.277812)scale(0.1 -0.1)">
       <use xlink:href="#ArialMT-48"/>
       <use x="55.615234" xlink:href="#ArialMT-49"/>
       <use x="111.230469" xlink:href="#ArialMT-45"/>
       <use x="144.53125" xlink:href="#ArialMT-48"/>
       <use x="200.146484" xlink:href="#ArialMT-49"/>
       <use x="255.761719" xlink:href="#ArialMT-32"/>
       <use x="283.544922" xlink:href="#ArialMT-48"/>
       <use x="339.160156" xlink:href="#ArialMT-48"/>
      </g>
     </g>
    </g>
    <g id="xtick_2">
     <g id="line2d_3">
      <path clip-path="url(#p7657fe78b8)" d="M 147.734759 186.12 
L 147.734759 47.52 
" style="fill:none;stroke:#ffffff;stroke-linecap:round;"/>
     </g>
     <g id="line2d_4"/>
     <g id="text_2">
      <!-- 01-01 06 -->
      <defs>
       <path d="M 49.75 54.046875 
L 41.015625 53.375 
Q 39.84375 58.546875 37.703125 60.890625 
Q 34.125 64.65625 28.90625 64.65625 
Q 24.703125 64.65625 21.53125 62.3125 
Q 17.390625 59.28125 14.984375 53.46875 
Q 12.59375 47.65625 12.5 36.921875 
Q 15.671875 41.75 20.265625 44.09375 
Q 24.859375 46.4375 29.890625 46.4375 
Q 38.671875 46.4375 44.84375 39.96875 
Q 51.03125 33.5 51.03125 23.25 
Q 51.03125 16.5 48.125 10.71875 
Q 45.21875 4.9375 40.140625 1.859375 
Q 35.0625 -1.21875 28.609375 -1.21875 
Q 17.625 -1.21875 10.6875 6.859375 
Q 3.765625 14.9375 3.765625 33.5 
Q 3.765625 54.25 11.421875 63.671875 
Q 18.109375 71.875 29.4375 71.875 
Q 37.890625 71.875 43.28125 67.140625 
Q 48.6875 62.40625 49.75 54.046875 
z
M 13.875 23.1875 
Q 13.875 18.65625 15.796875 14.5 
Q 17.71875 10.359375 21.1875 8.171875 
Q 24.65625 6 28.46875 6 
Q 34.03125 6 38.03125 10.484375 
Q 42.046875 14.984375 42.046875 22.703125 
Q 42.046875 30.125 38.078125 34.390625 
Q 34.125 38.671875 28.125 38.671875 
Q 22.171875 38.671875 18.015625 34.390625 
Q 13.875 30.125 13.875 23.1875 
z
" id="ArialMT-54"/>
      </defs>
      <g style="fill:#262626;" transform="translate(127.998041 200.277812)scale(0.1 -0.1)">
       <use xlink:href="#ArialMT-48"/>
       <use x="55.615234" xlink:href="#ArialMT-49"/>
       <use x="111.230469" xlink:href="#ArialMT-45"/>
       <use x="144.53125" xlink:href="#ArialMT-48"/>
       <use x="200.146484" xlink:href="#ArialMT-49"/>
       <use x="255.761719" xlink:href="#ArialMT-32"/>
       <use x="283.544922" xlink:href="#ArialMT-48"/>
       <use x="339.160156" xlink:href="#ArialMT-54"/>
      </g>
     </g>
    </g>
    <g id="xtick_3">
     <g id="line2d_5">
      <path clip-path="url(#p7657fe78b8)" d="M 203.17861 186.12 
L 203.17861 47.52 
" style="fill:none;stroke:#ffffff;stroke-linecap:round;"/>
     </g>
     <g id="line2d_6"/>
     <g id="text_3">
      <!-- 01-01 12 -->
      <defs>
       <path d="M 50.34375 8.453125 
L 50.34375 0 
L 3.03125 0 
Q 2.9375 3.171875 4.046875 6.109375 
Q 5.859375 10.9375 9.828125 15.625 
Q 13.8125 20.3125 21.34375 26.46875 
Q 33.015625 36.03125 37.109375 41.625 
Q 41.21875 47.21875 41.21875 52.203125 
Q 41.21875 57.421875 37.46875 61 
Q 33.734375 64.59375 27.734375 64.59375 
Q 21.390625 64.59375 17.578125 60.78125 
Q 13.765625 56.984375 13.71875 50.25 
L 4.6875 51.171875 
Q 5.609375 61.28125 11.65625 66.578125 
Q 17.71875 71.875 27.9375 71.875 
Q 38.234375 71.875 44.234375 66.15625 
Q 50.25 60.453125 50.25 52 
Q 50.25 47.703125 48.484375 43.546875 
Q 46.734375 39.40625 42.65625 34.8125 
Q 38.578125 30.21875 29.109375 22.21875 
Q 21.1875 15.578125 18.9375 13.203125 
Q 16.703125 10.84375 15.234375 8.453125 
z
" id="ArialMT-50"/>
      </defs>
      <g style="fill:#262626;" transform="translate(183.441891 200.277812)scale(0.1 -0.1)">
       <use xlink:href="#ArialMT-48"/>
       <use x="55.615234" xlink:href="#ArialMT-49"/>
       <use x="111.230469" xlink:href="#ArialMT-45"/>
       <use x="144.53125" xlink:href="#ArialMT-48"/>
       <use x="200.146484" xlink:href="#ArialMT-49"/>
       <use x="255.761719" xlink:href="#ArialMT-32"/>
       <use x="283.544922" xlink:href="#ArialMT-49"/>
       <use x="339.160156" xlink:href="#ArialMT-50"/>
      </g>
     </g>
    </g>
    <g id="xtick_4">
     <g id="line2d_7">
      <path clip-path="url(#p7657fe78b8)" d="M 258.62246 186.12 
L 258.62246 47.52 
" style="fill:none;stroke:#ffffff;stroke-linecap:round;"/>
     </g>
     <g id="line2d_8"/>
     <g id="text_4">
      <!-- 01-01 18 -->
      <defs>
       <path d="M 17.671875 38.8125 
Q 12.203125 40.828125 9.5625 44.53125 
Q 6.9375 48.25 6.9375 53.421875 
Q 6.9375 61.234375 12.546875 66.546875 
Q 18.171875 71.875 27.484375 71.875 
Q 36.859375 71.875 42.578125 66.421875 
Q 48.296875 60.984375 48.296875 53.171875 
Q 48.296875 48.1875 45.671875 44.5 
Q 43.0625 40.828125 37.75 38.8125 
Q 44.34375 36.671875 47.78125 31.875 
Q 51.21875 27.09375 51.21875 20.453125 
Q 51.21875 11.28125 44.71875 5.03125 
Q 38.234375 -1.21875 27.640625 -1.21875 
Q 17.046875 -1.21875 10.546875 5.046875 
Q 4.046875 11.328125 4.046875 20.703125 
Q 4.046875 27.6875 7.59375 32.390625 
Q 11.140625 37.109375 17.671875 38.8125 
z
M 15.921875 53.71875 
Q 15.921875 48.640625 19.1875 45.40625 
Q 22.46875 42.1875 27.6875 42.1875 
Q 32.765625 42.1875 36.015625 45.375 
Q 39.265625 48.578125 39.265625 53.21875 
Q 39.265625 58.0625 35.90625 61.359375 
Q 32.5625 64.65625 27.59375 64.65625 
Q 22.5625 64.65625 19.234375 61.421875 
Q 15.921875 58.203125 15.921875 53.71875 
z
M 13.09375 20.65625 
Q 13.09375 16.890625 14.875 13.375 
Q 16.65625 9.859375 20.171875 7.921875 
Q 23.6875 6 27.734375 6 
Q 34.03125 6 38.125 10.046875 
Q 42.234375 14.109375 42.234375 20.359375 
Q 42.234375 26.703125 38.015625 30.859375 
Q 33.796875 35.015625 27.4375 35.015625 
Q 21.234375 35.015625 17.15625 30.90625 
Q 13.09375 26.8125 13.09375 20.65625 
z
" id="ArialMT-56"/>
      </defs>
      <g style="fill:#262626;" transform="translate(238.885741 200.277812)scale(0.1 -0.1)">
       <use xlink:href="#ArialMT-48"/>
       <use x="55.615234" xlink:href="#ArialMT-49"/>
       <use x="111.230469" xlink:href="#ArialMT-45"/>
       <use x="144.53125" xlink:href="#ArialMT-48"/>
       <use x="200.146484" xlink:href="#ArialMT-49"/>
       <use x="255.761719" xlink:href="#ArialMT-32"/>
       <use x="283.544922" xlink:href="#ArialMT-49"/>
       <use x="339.160156" xlink:href="#ArialMT-56"/>
      </g>
     </g>
    </g>
    <g id="xtick_5">
     <g id="line2d_9">
      <path clip-path="url(#p7657fe78b8)" d="M 314.06631 186.12 
L 314.06631 47.52 
" style="fill:none;stroke:#ffffff;stroke-linecap:round;"/>
     </g>
     <g id="line2d_10"/>
     <g id="text_5">
      <!-- 01-02 00 -->
      <g style="fill:#262626;" transform="translate(294.329591 200.277812)scale(0.1 -0.1)">
       <use xlink:href="#ArialMT-48"/>
       <use x="55.615234" xlink:href="#ArialMT-49"/>
       <use x="111.230469" xlink:href="#ArialMT-45"/>
       <use x="144.53125" xlink:href="#ArialMT-48"/>
       <use x="200.146484" xlink:href="#ArialMT-50"/>
       <use x="255.761719" xlink:href="#ArialMT-32"/>
       <use x="283.544922" xlink:href="#ArialMT-48"/>
       <use x="339.160156" xlink:href="#ArialMT-48"/>
      </g>
     </g>
    </g>
    <g id="xtick_6">
     <g id="line2d_11">
      <path clip-path="url(#p7657fe78b8)" d="M 369.51016 186.12 
L 369.51016 47.52 
" style="fill:none;stroke:#ffffff;stroke-linecap:round;"/>
     </g>
     <g id="line2d_12"/>
     <g id="text_6">
      <!-- 01-02 06 -->
      <g style="fill:#262626;" transform="translate(349.773442 200.277812)scale(0.1 -0.1)">
       <use xlink:href="#ArialMT-48"/>
       <use x="55.615234" xlink:href="#ArialMT-49"/>
       <use x="111.230469" xlink:href="#ArialMT-45"/>
       <use x="144.53125" xlink:href="#ArialMT-48"/>
       <use x="200.146484" xlink:href="#ArialMT-50"/>
       <use x="255.761719" xlink:href="#ArialMT-32"/>
       <use x="283.544922" xlink:href="#ArialMT-48"/>
       <use x="339.160156" xlink:href="#ArialMT-54"/>
      </g>
     </g>
    </g>
    <g id="xtick_7">
     <g id="line2d_13">
      <path clip-path="url(#p7657fe78b8)" d="M 424.954011 186.12 
L 424.954011 47.52 
" style="fill:none;stroke:#ffffff;stroke-linecap:round;"/>
     </g>
     <g id="line2d_14"/>
     <g id="text_7">
      <!-- 01-02 12 -->
      <g style="fill:#262626;" transform="translate(405.217292 200.277812)scale(0.1 -0.1)">
       <use xlink:href="#ArialMT-48"/>
       <use x="55.615234" xlink:href="#ArialMT-49"/>
       <use x="111.230469" xlink:href="#ArialMT-45"/>
       <use x="144.53125" xlink:href="#ArialMT-48"/>
       <use x="200.146484" xlink:href="#ArialMT-50"/>
       <use x="255.761719" xlink:href="#ArialMT-32"/>
       <use x="283.544922" xlink:href="#ArialMT-49"/>
       <use x="339.160156" xlink:href="#ArialMT-50"/>
      </g>
     </g>
    </g>
    <g id="xtick_8">
     <g id="line2d_15">
      <path clip-path="url(#p7657fe78b8)" d="M 480.397861 186.12 
L 480.397861 47.52 
" style="fill:none;stroke:#ffffff;stroke-linecap:round;"/>
     </g>
     <g id="line2d_16"/>
     <g id="text_8">
      <!-- 01-02 18 -->
      <g style="fill:#262626;" transform="translate(460.661142 200.277812)scale(0.1 -0.1)">
       <use xlink:href="#ArialMT-48"/>
       <use x="55.615234" xlink:href="#ArialMT-49"/>
       <use x="111.230469" xlink:href="#ArialMT-45"/>
       <use x="144.53125" xlink:href="#ArialMT-48"/>
       <use x="200.146484" xlink:href="#ArialMT-50"/>
       <use x="255.761719" xlink:href="#ArialMT-32"/>
       <use x="283.544922" xlink:href="#ArialMT-49"/>
       <use x="339.160156" xlink:href="#ArialMT-56"/>
      </g>
     </g>
    </g>
   </g>
   <g id="matplotlib.axis_2">
    <g id="ytick_1">
     <g id="line2d_17">
      <path clip-path="url(#p7657fe78b8)" d="M 72 147.677323 
L 518.4 147.677323 
" style="fill:none;stroke:#ffffff;stroke-linecap:round;"/>
     </g>
     <g id="line2d_18"/>
     <g id="text_9">
      <!-- 1 -->
      <g style="fill:#262626;" transform="translate(59.439062 151.256229)scale(0.1 -0.1)">
       <use xlink:href="#ArialMT-49"/>
      </g>
     </g>
    </g>
    <g id="ytick_2">
     <g id="line2d_19">
      <path clip-path="url(#p7657fe78b8)" d="M 72 104.964601 
L 518.4 104.964601 
" style="fill:none;stroke:#ffffff;stroke-linecap:round;"/>
     </g>
     <g id="line2d_20"/>
     <g id="text_10">
      <!-- 2 -->
      <g style="fill:#262626;" transform="translate(59.439062 108.543507)scale(0.1 -0.1)">
       <use xlink:href="#ArialMT-50"/>
      </g>
     </g>
    </g>
    <g id="ytick_3">
     <g id="line2d_21">
      <path clip-path="url(#p7657fe78b8)" d="M 72 62.25188 
L 518.4 62.25188 
" style="fill:none;stroke:#ffffff;stroke-linecap:round;"/>
     </g>
     <g id="line2d_22"/>
     <g id="text_11">
      <!-- 3 -->
      <defs>
       <path d="M 4.203125 18.890625 
L 12.984375 20.0625 
Q 14.5 12.59375 18.140625 9.296875 
Q 21.78125 6 27 6 
Q 33.203125 6 37.46875 10.296875 
Q 41.75 14.59375 41.75 20.953125 
Q 41.75 27 37.796875 30.921875 
Q 33.84375 34.859375 27.734375 34.859375 
Q 25.25 34.859375 21.53125 33.890625 
L 22.515625 41.609375 
Q 23.390625 41.5 23.921875 41.5 
Q 29.546875 41.5 34.03125 44.421875 
Q 38.53125 47.359375 38.53125 53.46875 
Q 38.53125 58.296875 35.25 61.46875 
Q 31.984375 64.65625 26.8125 64.65625 
Q 21.6875 64.65625 18.265625 61.421875 
Q 14.84375 58.203125 13.875 51.765625 
L 5.078125 53.328125 
Q 6.6875 62.15625 12.390625 67.015625 
Q 18.109375 71.875 26.609375 71.875 
Q 32.46875 71.875 37.390625 69.359375 
Q 42.328125 66.84375 44.9375 62.5 
Q 47.5625 58.15625 47.5625 53.265625 
Q 47.5625 48.640625 45.0625 44.828125 
Q 42.578125 41.015625 37.703125 38.765625 
Q 44.046875 37.3125 47.5625 32.6875 
Q 51.078125 28.078125 51.078125 21.140625 
Q 51.078125 11.765625 44.234375 5.25 
Q 37.40625 -1.265625 26.953125 -1.265625 
Q 17.53125 -1.265625 11.296875 4.34375 
Q 5.078125 9.96875 4.203125 18.890625 
z
" id="ArialMT-51"/>
      </defs>
      <g style="fill:#262626;" transform="translate(59.439062 65.830786)scale(0.1 -0.1)">
       <use xlink:href="#ArialMT-51"/>
      </g>
     </g>
    </g>
   </g>
   <g id="line2d_23">
    <path clip-path="url(#p7657fe78b8)" d="M 92.290909 116.189949 
L 93.831016 116.085828 
L 94.60107 118.373206 
L 96.141176 118.312492 
L 96.91123 119.897982 
L 98.451337 119.866393 
L 99.22139 125.242505 
L 100.761497 125.223223 
L 101.531551 126.616895 
L 103.071658 126.605707 
L 103.841711 128.715766 
L 105.381818 128.707787 
L 106.151872 131.03885 
L 107.691979 131.031971 
L 108.462032 133.001929 
L 110.002139 132.99575 
L 110.772193 133.272708 
L 112.312299 133.268687 
L 113.082353 134.390934 
L 114.62246 134.387014 
L 115.392513 137.21305 
L 116.93262 137.2073 
L 117.702674 138.93489 
L 123.863102 138.985685 
L 124.633155 138.217547 
L 126.173262 138.217204 
L 126.943316 157.931432 
L 128.483422 157.915131 
L 129.253476 154.896065 
L 130.793583 154.884897 
L 131.563636 152.518975 
L 133.103743 152.513026 
L 133.873797 150.305801 
L 135.413904 150.304791 
L 136.183957 144.614313 
L 137.724064 144.623226 
L 138.494118 143.250383 
L 140.034225 143.259725 
L 140.804278 141.23522 
L 142.344385 141.244446 
L 143.114438 139.645212 
L 144.654545 139.65372 
L 145.424599 132.297378 
L 146.964706 132.315974 
L 147.734759 125.143018 
L 149.274866 125.167039 
L 150.04492 116.959012 
L 151.585027 116.986015 
L 152.35508 107.989925 
L 153.895187 108.01762 
L 154.665241 100.42083 
L 156.205348 100.44495 
L 156.975401 92.620705 
L 158.515508 92.640936 
L 159.285562 92.848242 
L 160.825668 92.855934 
L 161.595722 85.65494 
L 163.135829 85.666117 
L 163.905882 79.881224 
L 165.445989 79.891538 
L 166.216043 69.935897 
L 167.75615 69.950783 
L 168.526203 78.529781 
L 170.06631 78.525944 
L 170.836364 77.904144 
L 172.376471 77.90296 
L 173.146524 76.153834 
L 174.686631 76.155559 
L 175.456684 74.173764 
L 176.996791 74.1763 
L 177.766845 75.911185 
L 179.306952 75.910227 
L 180.077005 78.751866 
L 181.617112 78.748865 
L 182.387166 77.47457 
L 183.927273 77.47461 
L 184.697326 77.27929 
L 186.237433 77.279454 
L 187.007487 79.766742 
L 188.547594 79.764479 
L 189.317647 80.252848 
L 190.857754 80.251561 
L 191.627807 81.436458 
L 193.167914 81.435075 
L 193.937968 82.09808 
L 195.478075 82.096797 
L 196.248128 85.631592 
L 197.788235 85.627549 
L 198.558289 85.482592 
L 200.098396 85.481017 
L 200.868449 84.99698 
L 202.408556 84.996993 
L 203.17861 86.14492 
L 204.718717 86.143704 
L 205.48877 88.593589 
L 207.028877 88.590425 
L 207.79893 88.151636 
L 209.339037 88.1508 
L 210.109091 90.972605 
L 211.649198 90.96948 
L 212.419251 91.337553 
L 213.959358 91.335789 
L 214.729412 92.390551 
L 216.269519 92.388886 
L 217.039572 92.863994 
L 218.579679 92.862875 
L 219.349733 94.549553 
L 220.88984 94.547235 
L 221.659893 94.240924 
L 223.2 94.240245 
L 223.970053 94.887284 
L 225.51016 94.886455 
L 226.280214 94.632756 
L 227.820321 94.632672 
L 228.590374 93.045237 
L 230.130481 93.047185 
L 230.900535 92.896714 
L 232.440642 92.897558 
L 233.210695 94.198847 
L 234.750802 94.197698 
L 235.520856 93.944322 
L 237.060963 93.944106 
L 237.831016 93.389986 
L 239.371123 93.390559 
L 240.141176 93.594764 
L 241.681283 93.594802 
L 242.451337 94.202449 
L 243.991444 94.201632 
L 244.761497 93.549858 
L 246.301604 93.550402 
L 247.071658 93.763513 
L 248.611765 93.763417 
L 249.381818 92.968985 
L 250.921925 92.969683 
L 251.691979 93.623263 
L 253.232086 93.622916 
L 254.002139 93.206919 
L 255.542246 93.207095 
L 256.312299 93.873723 
L 257.852406 93.873028 
L 258.62246 93.731847 
L 260.162567 93.731714 
L 260.93262 93.205031 
L 262.472727 93.205629 
L 263.242781 92.197315 
L 267.093048 92.182374 
L 267.863102 91.975257 
L 269.403209 91.975701 
L 270.173262 92.589653 
L 271.713369 92.589236 
L 272.483422 92.317053 
L 276.33369 92.269018 
L 277.103743 92.643426 
L 278.64385 92.643093 
L 279.413904 92.911912 
L 280.954011 92.911429 
L 281.724064 93.165362 
L 283.264171 93.164815 
L 284.034225 93.518623 
L 285.574332 93.518091 
L 286.344385 93.074857 
L 287.884492 93.075164 
L 288.654545 94.934637 
L 290.194652 94.932825 
L 290.964706 95.33569 
L 292.504813 95.334428 
L 293.274866 98.926736 
L 294.814973 98.922358 
L 295.585027 99.933592 
L 297.125134 99.930445 
L 297.895187 104.175482 
L 299.435294 104.169491 
L 300.205348 106.071796 
L 301.745455 106.066866 
L 302.515508 116.594642 
L 304.055615 116.581565 
L 304.825668 120.645912 
L 306.365775 120.634898 
L 307.135829 128.240032 
L 308.675936 128.226494 
L 309.445989 130.50363 
L 310.986096 130.4934 
L 311.75615 137.169249 
L 315.606417 137.243075 
L 316.376471 137.715101 
L 317.916578 137.709766 
L 318.686631 136.150682 
L 320.226738 136.149438 
L 320.996791 137.913228 
L 322.536898 137.910601 
L 323.306952 138.552852 
L 324.847059 138.550297 
L 325.617112 139.978452 
L 327.157219 139.975037 
L 327.927273 139.521689 
L 329.46738 139.520023 
L 330.237433 141.947979 
L 331.77754 141.943994 
L 332.547594 141.288188 
L 334.087701 141.286179 
L 334.857754 141.080581 
L 336.397861 141.079396 
L 337.167914 141.42691 
L 338.708021 141.425443 
L 339.478075 144.353057 
L 341.018182 144.348595 
L 341.788235 143.527144 
L 343.328342 143.524968 
L 344.098396 142.821945 
L 345.638503 142.821666 
L 346.408556 141.26334 
L 347.948663 141.265296 
L 348.718717 160.309327 
L 350.258824 160.294398 
L 351.028877 156.694526 
L 352.568984 156.684632 
L 353.339037 153.34021 
L 354.879144 153.336227 
L 355.649198 150.097801 
L 357.189305 150.099917 
L 357.959358 143.692614 
L 359.499465 143.705847 
L 360.269519 141.545981 
L 361.809626 141.559732 
L 362.579679 138.849481 
L 364.119786 138.862695 
L 364.88984 136.499483 
L 366.429947 136.511649 
L 367.2 128.435833 
L 368.740107 128.457957 
L 369.51016 120.309081 
L 371.050267 120.336245 
L 371.820321 111.139224 
L 373.360428 111.168476 
L 374.130481 101.451075 
L 375.670588 101.479577 
L 376.440642 92.95615 
L 377.980749 92.980572 
L 378.750802 84.446129 
L 380.290909 84.466201 
L 381.060963 83.703858 
L 382.60107 83.712076 
L 383.371123 75.467402 
L 384.91123 75.479317 
L 385.681283 68.704601 
L 387.22139 68.715659 
L 387.991444 59.165898 
L 389.531551 59.179584 
L 390.301604 66.691043 
L 391.841711 66.687802 
L 392.611765 64.578767 
L 394.151872 64.57944 
L 394.921925 61.851249 
L 396.462032 61.854438 
L 397.232086 59.710052 
L 398.772193 59.71298 
L 399.542246 59.940472 
L 401.082353 59.941058 
L 401.852406 62.143888 
L 403.392513 62.142194 
L 404.162567 59.93855 
L 405.702674 59.939901 
L 406.472727 59.194171 
L 408.012834 59.195301 
L 408.782888 60.872452 
L 412.633155 60.864922 
L 413.403209 61.041555 
L 417.253476 61.02259 
L 418.023529 63.771483 
L 419.563636 63.768881 
L 420.33369 61.799747 
L 421.873797 61.800631 
L 422.64385 61.108198 
L 424.183957 61.109212 
L 424.954011 61.822604 
L 426.494118 61.822153 
L 427.264171 63.43538 
L 428.804278 63.433606 
L 429.574332 62.810793 
L 431.114438 62.810819 
L 431.884492 64.98574 
L 433.424599 64.983769 
L 434.194652 64.715023 
L 435.734759 64.714599 
L 436.504813 65.268681 
L 438.04492 65.268141 
L 438.814973 65.485829 
L 440.35508 65.485441 
L 441.125134 66.985966 
L 442.665241 66.984347 
L 443.435294 66.53521 
L 444.975401 66.535118 
L 445.745455 66.761282 
L 447.285562 66.761147 
L 448.055615 66.189033 
L 449.595722 66.189532 
L 450.365775 64.095125 
L 451.905882 64.097489 
L 452.675936 64.274153 
L 454.216043 64.274617 
L 454.986096 65.347367 
L 456.526203 65.346415 
L 457.296257 64.459084 
L 458.836364 64.459647 
L 459.606417 64.265361 
L 461.146524 64.265773 
L 461.916578 64.440069 
L 463.456684 64.440025 
L 464.226738 64.576534 
L 465.766845 64.576268 
L 466.536898 63.968662 
L 468.077005 63.969337 
L 468.847059 63.43257 
L 470.387166 63.433122 
L 471.157219 62.788955 
L 472.697326 62.7897 
L 473.46738 63.789708 
L 475.007487 63.789036 
L 475.77754 63.333723 
L 477.317647 63.333855 
L 478.087701 63.735783 
L 479.627807 63.735401 
L 480.397861 63.210806 
L 481.937968 63.211181 
L 482.708021 62.494873 
L 483.478075 70.241419 
L 484.248128 79.76074 
L 485.018182 87.014652 
L 485.788235 93.178953 
L 486.558289 97.678251 
L 487.328342 100.936348 
L 488.098396 103.289215 
L 489.638503 106.435207 
L 490.408556 106.118231 
L 491.17861 103.862079 
L 491.948663 100.235217 
L 493.48877 89.24589 
L 495.028877 77.643627 
L 495.79893 73.035082 
L 496.568984 69.663119 
L 497.339037 67.080885 
L 498.109091 65.307184 
L 498.109091 65.307184 
" style="fill:none;stroke:#4c72b0;stroke-linecap:round;stroke-width:1.75;"/>
   </g>
   <g id="line2d_24">
    <path clip-path="url(#p7657fe78b8)" d="M 92.290909 111.141988 
L 93.831016 111.038331 
L 94.60107 112.156867 
L 96.141176 112.095847 
L 96.91123 114.064715 
L 98.451337 114.033874 
L 99.22139 119.590109 
L 100.761497 119.571713 
L 101.531551 121.036427 
L 103.071658 121.026002 
L 103.841711 123.086927 
L 105.381818 123.079648 
L 106.151872 125.513712 
L 107.691979 125.50732 
L 108.462032 127.484184 
L 112.312299 127.573767 
L 113.082353 127.935755 
L 114.62246 127.932943 
L 115.392513 130.744359 
L 116.93262 130.739346 
L 117.702674 132.987981 
L 119.242781 132.982489 
L 120.012834 132.738492 
L 121.552941 132.735305 
L 122.322995 133.187403 
L 123.863102 133.185235 
L 124.633155 132.026809 
L 126.173262 132.026882 
L 126.943316 154.848827 
L 128.483422 154.831521 
L 129.253476 151.929957 
L 130.793583 151.917752 
L 131.563636 149.010831 
L 133.103743 149.004646 
L 133.873797 146.409006 
L 135.413904 146.408304 
L 136.183957 140.629828 
L 137.724064 140.638646 
L 138.494118 139.423625 
L 140.034225 139.432547 
L 140.804278 136.600218 
L 142.344385 136.610187 
L 143.114438 135.159834 
L 144.654545 135.168238 
L 145.424599 128.777441 
L 146.964706 128.793025 
L 147.734759 121.772575 
L 149.274866 121.793523 
L 150.04492 113.237226 
L 151.585027 113.262025 
L 152.35508 103.861677 
L 153.895187 103.887648 
L 154.665241 97.094832 
L 156.205348 97.116076 
L 156.975401 88.74668 
L 158.515508 88.765575 
L 159.285562 89.711159 
L 160.825668 89.717557 
L 161.595722 82.643877 
L 163.135829 82.653903 
L 163.905882 75.255803 
L 165.445989 75.26665 
L 166.216043 65.145971 
L 167.75615 65.160327 
L 168.526203 74.069138 
L 170.06631 74.065308 
L 170.836364 73.375811 
L 172.376471 73.374654 
L 173.146524 72.42343 
L 174.686631 72.424496 
L 175.456684 69.804718 
L 176.996791 69.807418 
L 177.766845 71.360471 
L 179.306952 71.359748 
L 180.077005 75.148041 
L 181.617112 75.144631 
L 182.387166 73.361673 
L 183.927273 73.36192 
L 184.697326 72.710864 
L 186.237433 72.711387 
L 187.007487 75.906459 
L 188.547594 75.90394 
L 189.317647 76.685777 
L 190.857754 76.684276 
L 191.627807 78.775701 
L 193.167914 78.773726 
L 193.937968 79.177508 
L 195.478075 79.176321 
L 196.248128 82.922922 
L 197.788235 82.918991 
L 198.558289 82.304423 
L 200.098396 82.303231 
L 200.868449 81.815107 
L 202.408556 81.81521 
L 203.17861 82.787699 
L 204.718717 82.786705 
L 205.48877 84.9449 
L 207.028877 84.942156 
L 207.79893 84.391387 
L 209.339037 84.390749 
L 210.109091 87.626462 
L 211.649198 87.623278 
L 212.419251 87.772758 
L 213.959358 87.771192 
L 214.729412 89.214955 
L 216.269519 89.213142 
L 217.039572 89.863203 
L 218.579679 89.861962 
L 219.349733 91.398563 
L 220.88984 91.396447 
L 221.659893 90.952461 
L 223.2 90.951946 
L 223.970053 91.907646 
L 225.51016 91.906678 
L 226.280214 91.572706 
L 227.820321 91.572639 
L 228.590374 90.451767 
L 230.130481 90.453238 
L 230.900535 89.809798 
L 232.440642 89.810871 
L 233.210695 91.052389 
L 234.750802 91.051421 
L 235.520856 90.907203 
L 237.060963 90.906944 
L 237.831016 90.398332 
L 239.371123 90.398824 
L 240.141176 90.625524 
L 241.681283 90.625531 
L 242.451337 90.794513 
L 243.991444 90.79406 
L 244.761497 90.641565 
L 246.301604 90.641782 
L 247.071658 90.515718 
L 248.611765 90.515805 
L 249.381818 89.301283 
L 250.921925 89.302308 
L 251.691979 90.165851 
L 253.232086 90.165468 
L 254.002139 89.417678 
L 255.542246 89.418077 
L 256.312299 89.955916 
L 260.162567 89.860718 
L 260.93262 89.461264 
L 262.472727 89.461734 
L 263.242781 88.177911 
L 267.093048 88.213361 
L 267.863102 88.030963 
L 269.403209 88.031359 
L 270.173262 88.921157 
L 271.713369 88.920547 
L 272.483422 88.600149 
L 276.33369 88.614368 
L 277.103743 89.075637 
L 278.64385 89.075243 
L 279.413904 89.236483 
L 283.264171 89.28382 
L 284.034225 89.864321 
L 285.574332 89.863699 
L 286.344385 89.50061 
L 287.884492 89.500805 
L 288.654545 91.61484 
L 290.194652 91.612922 
L 290.964706 91.997952 
L 292.504813 91.996716 
L 293.274866 95.693942 
L 294.814973 95.689737 
L 295.585027 96.477848 
L 297.125134 96.475026 
L 297.895187 100.517728 
L 299.435294 100.512277 
L 300.205348 102.223267 
L 301.745455 102.218828 
L 302.515508 112.77446 
L 304.055615 112.762124 
L 304.825668 117.279121 
L 306.365775 117.268385 
L 307.135829 124.506511 
L 308.675936 124.493807 
L 309.445989 126.697019 
L 310.986096 126.68743 
L 311.75615 133.51349 
L 313.296257 133.501568 
L 314.06631 133.694126 
L 317.916578 133.725865 
L 318.686631 131.747612 
L 320.226738 131.74716 
L 320.996791 133.589198 
L 322.536898 133.587054 
L 323.306952 133.960887 
L 324.847059 133.958927 
L 325.617112 135.334517 
L 327.157219 135.331577 
L 327.927273 134.84474 
L 329.46738 134.843373 
L 330.237433 137.28362 
L 331.77754 137.27996 
L 332.547594 136.325301 
L 334.087701 136.323789 
L 334.857754 135.530817 
L 336.397861 135.530588 
L 337.167914 135.102825 
L 338.708021 135.102763 
L 339.478075 138.582284 
L 341.018182 138.578186 
L 341.788235 137.685501 
L 343.328342 137.683619 
L 344.098396 137.187181 
L 345.638503 137.186839 
L 346.408556 135.199042 
L 347.948663 135.201437 
L 348.718717 157.224998 
L 350.258824 157.209036 
L 351.028877 153.688105 
L 352.568984 153.677065 
L 353.339037 149.741925 
L 354.879144 149.73759 
L 355.649198 146.088043 
L 357.189305 146.090356 
L 357.959358 139.55874 
L 359.499465 139.571666 
L 360.269519 137.513084 
L 361.809626 137.526187 
L 362.579679 133.960095 
L 364.119786 133.973936 
L 364.88984 131.753457 
L 366.429947 131.765246 
L 367.2 124.616244 
L 368.740107 124.634977 
L 369.51016 116.622533 
L 371.050267 116.646297 
L 371.820321 107.048709 
L 373.360428 107.075579 
L 374.130481 96.926205 
L 375.670588 96.952891 
L 376.440642 89.202301 
L 377.980749 89.223887 
L 378.750802 80.085467 
L 382.60107 80.091055 
L 383.371123 71.662564 
L 384.91123 71.673592 
L 385.681283 63.475667 
L 387.22139 63.48706 
L 387.991444 53.858651 
L 389.531551 53.871727 
L 390.301604 61.589737 
L 391.841711 61.586513 
L 392.611765 59.377486 
L 394.151872 59.378127 
L 394.921925 57.283398 
L 396.462032 57.285993 
L 397.232086 54.499443 
L 401.082353 54.546057 
L 401.852406 57.724113 
L 403.392513 57.721951 
L 404.162567 54.763831 
L 405.702674 54.765458 
L 406.472727 53.82 
L 408.012834 53.82126 
L 408.782888 55.902004 
L 410.322995 55.900701 
L 411.093048 56.400964 
L 412.633155 56.400387 
L 413.403209 57.199513 
L 417.253476 57.090452 
L 418.023529 59.9397 
L 419.563636 59.937184 
L 420.33369 57.309802 
L 421.873797 57.311031 
L 422.64385 56.601528 
L 424.183957 56.602578 
L 424.954011 57.069965 
L 426.494118 57.069702 
L 427.264171 58.478409 
L 428.804278 58.476889 
L 429.574332 57.816238 
L 431.114438 57.816325 
L 431.884492 60.280982 
L 433.424599 60.278963 
L 434.194652 59.893196 
L 435.734759 59.892841 
L 436.504813 60.779782 
L 438.04492 60.779082 
L 438.814973 60.983904 
L 440.35508 60.983509 
L 441.125134 62.362803 
L 442.665241 62.361347 
L 443.435294 61.910339 
L 444.975401 61.910275 
L 445.745455 62.416059 
L 447.285562 62.415765 
L 448.055615 61.760617 
L 449.595722 61.761105 
L 450.365775 60.019443 
L 451.905882 60.021444 
L 452.675936 59.780736 
L 454.216043 59.78138 
L 454.986096 60.81899 
L 456.526203 60.818149 
L 457.296257 59.992293 
L 458.836364 59.992799 
L 459.606417 59.855504 
L 461.146524 59.855852 
L 461.916578 60.041141 
L 463.456684 60.041082 
L 464.226738 59.802575 
L 468.077005 59.737934 
L 468.847059 58.530166 
L 470.387166 58.531042 
L 471.157219 57.687796 
L 472.697326 57.688694 
L 473.46738 58.926257 
L 475.007487 58.925512 
L 475.77754 58.218026 
L 477.317647 58.218285 
L 478.087701 58.457933 
L 479.627807 58.457702 
L 480.397861 57.888542 
L 481.937968 57.888952 
L 482.708021 57.266829 
L 483.478075 65.67176 
L 484.248128 75.846687 
L 485.788235 89.786702 
L 486.558289 94.445273 
L 487.328342 97.840283 
L 488.098396 100.231699 
L 489.638503 103.430457 
L 490.408556 103.001118 
L 491.17861 100.492303 
L 491.948663 96.664959 
L 493.48877 84.815085 
L 495.028877 72.443395 
L 495.79893 67.6503 
L 496.568984 64.457596 
L 497.339037 61.875897 
L 498.109091 60.138506 
L 498.109091 60.138506 
" style="fill:none;stroke:#55a868;stroke-linecap:round;stroke-width:1.75;"/>
   </g>
   <g id="line2d_25">
    <path clip-path="url(#p7657fe78b8)" d="M 92.290909 159.926754 
L 93.831016 159.871063 
L 94.60107 163.081345 
L 96.141176 163.049861 
L 96.91123 163.228341 
L 98.451337 163.210403 
L 99.22139 165.735904 
L 100.761497 165.724219 
L 101.531551 166.337164 
L 103.071658 166.329956 
L 103.841711 167.526672 
L 105.381818 167.521266 
L 106.151872 168.573614 
L 107.691979 168.569153 
L 108.462032 169.595906 
L 110.002139 169.591914 
L 110.772193 170.043338 
L 112.312299 170.040364 
L 113.082353 171.93573 
L 114.62246 171.931763 
L 115.392513 173.446768 
L 119.242781 173.456799 
L 120.012834 173.650998 
L 121.552941 173.648744 
L 122.322995 173.23638 
L 123.863102 173.235429 
L 124.633155 173.499722 
L 126.173262 173.498826 
L 126.943316 178.563375 
L 128.483422 178.556505 
L 129.253476 176.763309 
L 130.793583 176.7592 
L 131.563636 176.439553 
L 133.103743 176.436819 
L 133.873797 175.93919 
L 135.413904 175.93813 
L 136.183957 173.088911 
L 137.724064 173.093773 
L 138.494118 172.099351 
L 140.034225 172.104997 
L 140.804278 172.422906 
L 142.344385 172.426497 
L 143.114438 171.32805 
L 144.654545 171.332714 
L 145.424599 165.798603 
L 146.964706 165.813573 
L 147.734759 161.770349 
L 149.274866 161.788282 
L 150.04492 158.058086 
L 151.585027 158.076102 
L 152.35508 154.026434 
L 153.895187 154.04399 
L 154.665241 148.660174 
L 156.205348 148.677823 
L 156.975401 145.487573 
L 158.515508 145.50053 
L 159.285562 144.343823 
L 160.825668 144.350099 
L 161.595722 140.335291 
L 163.135829 140.343158 
L 163.905882 140.0596 
L 165.445989 140.064123 
L 166.216043 135.098347 
L 167.75615 135.107104 
L 168.526203 139.064534 
L 170.06631 139.062499 
L 170.836364 138.850762 
L 172.376471 138.850092 
L 173.146524 136.559677 
L 176.996791 136.611951 
L 177.766845 137.838418 
L 179.306952 137.83751 
L 180.077005 137.712345 
L 181.617112 137.711465 
L 182.387166 137.911892 
L 183.927273 137.911557 
L 184.697326 138.59008 
L 188.547594 138.686424 
L 189.317647 138.440663 
L 190.857754 138.440352 
L 191.627807 137.51053 
L 193.167914 137.510816 
L 193.937968 138.304879 
L 195.478075 138.30404 
L 196.248128 139.804437 
L 197.788235 139.802115 
L 198.558289 140.530982 
L 200.098396 140.529493 
L 200.868449 140.28131 
L 202.408556 140.281162 
L 203.17861 141.187212 
L 204.718717 141.18619 
L 205.48877 142.978004 
L 209.339037 142.93552 
L 210.109091 143.713453 
L 211.649198 143.711907 
L 212.419251 144.280806 
L 216.269519 144.167938 
L 218.579679 144.118035 
L 219.349733 145.264631 
L 227.820321 145.152481 
L 228.590374 143.515493 
L 230.130481 143.517337 
L 230.900535 144.283352 
L 232.440642 144.283405 
L 233.210695 145.071962 
L 234.750802 145.071046 
L 235.520856 144.750277 
L 237.060963 144.750236 
L 237.831016 144.380059 
L 241.681283 144.449657 
L 242.451337 145.522246 
L 243.991444 145.521189 
L 244.761497 144.321399 
L 246.301604 144.322244 
L 247.071658 145.016221 
L 248.611765 145.015854 
L 249.381818 145.31739 
L 253.232086 145.301608 
L 254.002139 145.651248 
L 255.542246 145.650958 
L 256.312299 146.223264 
L 257.852406 146.222548 
L 258.62246 146.068225 
L 260.162567 146.068124 
L 260.93262 145.572275 
L 264.782888 145.514146 
L 266.322995 145.419218 
L 267.093048 145.419365 
L 267.863102 145.267781 
L 269.403209 145.268096 
L 270.173262 145.11876 
L 274.023529 145.058151 
L 274.793583 144.925805 
L 278.64385 144.974346 
L 279.413904 145.300549 
L 280.954011 145.300146 
L 281.724064 145.787028 
L 283.264171 145.786389 
L 284.034225 145.58419 
L 285.574332 145.584064 
L 286.344385 145.21295 
L 287.884492 145.213303 
L 288.654545 145.757126 
L 290.194652 145.756351 
L 290.964706 145.999332 
L 292.504813 145.998623 
L 293.274866 147.712634 
L 294.814973 147.71003 
L 295.585027 148.625783 
L 297.125134 148.623566 
L 297.895187 151.208588 
L 299.435294 151.204503 
L 300.205348 152.535498 
L 301.745455 152.532057 
L 302.515508 158.034714 
L 304.055615 158.02655 
L 304.825668 159.393135 
L 306.365775 159.386851 
L 307.135829 164.025755 
L 308.675936 164.017188 
L 309.445989 165.344499 
L 310.986096 165.338005 
L 311.75615 168.600044 
L 313.296257 168.592469 
L 314.06631 168.473653 
L 315.606417 168.468916 
L 316.376471 169.451705 
L 320.226738 169.342518 
L 320.996791 170.138238 
L 322.536898 170.136026 
L 323.306952 170.934915 
L 324.847059 170.932546 
L 325.617112 171.775634 
L 327.157219 171.773019 
L 327.927273 171.591435 
L 329.46738 171.590043 
L 330.237433 172.849026 
L 331.77754 172.846368 
L 332.547594 173.01309 
L 334.087701 173.01118 
L 334.857754 173.910015 
L 336.397861 173.907752 
L 337.167914 175.420416 
L 338.708021 175.417232 
L 339.478075 176.014309 
L 341.018182 176.011332 
L 341.788235 175.700401 
L 343.328342 175.698749 
L 344.098396 174.973852 
L 347.948663 174.888974 
L 348.718717 179.82 
L 350.258824 179.813899 
L 351.028877 177.780617 
L 352.568984 177.777366 
L 353.339037 177.027097 
L 354.879144 177.0256 
L 355.649198 176.023237 
L 357.189305 176.024016 
L 357.959358 172.859148 
L 359.499465 172.866652 
L 360.269519 171.55425 
L 364.119786 171.607214 
L 364.88984 170.116526 
L 366.429947 170.123589 
L 367.2 164.276576 
L 368.740107 164.294055 
L 369.51016 159.763874 
L 371.050267 159.784025 
L 371.820321 155.622091 
L 373.360428 155.641599 
L 374.130481 151.259168 
L 375.670588 151.277309 
L 376.440642 145.458349 
L 377.980749 145.476087 
L 378.750802 142.012287 
L 380.290909 142.025032 
L 381.060963 140.350406 
L 382.60107 140.35694 
L 383.371123 136.325417 
L 384.91123 136.33322 
L 385.681283 135.201999 
L 387.22139 135.207256 
L 387.991444 130.307325 
L 389.531551 130.315585 
L 390.301604 133.921561 
L 391.841711 133.919821 
L 392.611765 132.979369 
L 394.151872 132.979781 
L 394.921925 130.455168 
L 398.772193 130.429793 
L 399.542246 130.866388 
L 401.082353 130.866482 
L 401.852406 130.35553 
L 403.392513 130.35544 
L 404.162567 130.487419 
L 408.012834 130.437364 
L 408.782888 130.629504 
L 410.322995 130.629145 
L 411.093048 129.757541 
L 412.633155 129.757992 
L 413.403209 128.783663 
L 414.943316 128.784393 
L 415.713369 128.92812 
L 417.253476 128.92816 
L 418.023529 130.205333 
L 421.873797 130.294294 
L 422.64385 129.958505 
L 424.183957 129.958978 
L 424.954011 130.756941 
L 426.494118 130.756379 
L 427.264171 131.957614 
L 428.804278 131.956242 
L 429.574332 131.692769 
L 431.114438 131.692678 
L 431.884492 132.342494 
L 435.734759 132.400175 
L 436.504813 132.121508 
L 438.04492 132.121499 
L 438.814973 132.258329 
L 440.35508 132.258136 
L 441.125134 133.257127 
L 442.665241 133.255994 
L 443.435294 133.022408 
L 444.975401 133.022313 
L 445.745455 132.662055 
L 447.285562 132.662259 
L 448.055615 132.503017 
L 449.595722 132.503298 
L 450.365775 130.794204 
L 451.905882 130.796072 
L 452.675936 131.604924 
L 454.216043 131.604859 
L 454.986096 132.230691 
L 456.526203 132.229998 
L 457.296257 131.656762 
L 458.836364 131.657158 
L 459.606417 131.456999 
L 463.456684 131.530368 
L 464.226738 132.24542 
L 465.766845 132.244863 
L 466.536898 130.993992 
L 468.077005 130.994916 
L 468.847059 131.862559 
L 472.697326 131.864191 
L 473.46738 131.984053 
L 475.007487 131.983823 
L 475.77754 132.176201 
L 477.317647 132.176053 
L 478.087701 132.666235 
L 479.627807 132.665774 
L 480.397861 132.46562 
L 481.937968 132.465756 
L 482.708021 131.926599 
L 483.478075 134.881709 
L 485.018182 142.186742 
L 485.788235 144.955743 
L 486.558289 147.054727 
L 487.328342 148.537673 
L 488.098396 149.712041 
L 488.868449 150.586941 
L 489.638503 151.280179 
L 490.408556 151.305743 
L 491.17861 150.549529 
L 491.948663 148.981175 
L 492.718717 146.995488 
L 496.568984 135.667201 
L 497.339037 134.304887 
L 498.109091 133.307497 
L 498.109091 133.307497 
" style="fill:none;stroke:#c44e52;stroke-linecap:round;stroke-width:1.75;"/>
   </g>
   <g id="patch_3">
    <path d="M 72 186.12 
L 72 47.52 
" style="fill:none;"/>
   </g>
   <g id="patch_4">
    <path d="M 518.4 186.12 
L 518.4 47.52 
" style="fill:none;"/>
   </g>
   <g id="patch_5">
    <path d="M 72 186.12 
L 518.4 186.12 
" style="fill:none;"/>
   </g>
   <g id="patch_6">
    <path d="M 72 47.52 
L 518.4 47.52 
" style="fill:none;"/>
   </g>
   <g id="text_12">
    <!-- Water speed -->
    <defs>
     <path d="M 20.21875 0 
L 1.21875 71.578125 
L 10.9375 71.578125 
L 21.828125 24.65625 
Q 23.578125 17.28125 24.859375 10.015625 
Q 27.59375 21.484375 28.078125 23.25 
L 41.703125 71.578125 
L 53.125 71.578125 
L 63.375 35.359375 
Q 67.234375 21.875 68.953125 10.015625 
Q 70.3125 16.796875 72.515625 25.59375 
L 83.734375 71.578125 
L 93.265625 71.578125 
L 73.640625 0 
L 64.5 0 
L 49.421875 54.546875 
Q 47.515625 61.375 47.171875 62.9375 
Q 46.046875 58.015625 45.0625 54.546875 
L 29.890625 0 
z
" id="ArialMT-87"/>
     <path d="M 40.4375 6.390625 
Q 35.546875 2.25 31.03125 0.53125 
Q 26.515625 -1.171875 21.34375 -1.171875 
Q 12.796875 -1.171875 8.203125 3 
Q 3.609375 7.171875 3.609375 13.671875 
Q 3.609375 17.484375 5.34375 20.625 
Q 7.078125 23.78125 9.890625 25.6875 
Q 12.703125 27.59375 16.21875 28.5625 
Q 18.796875 29.25 24.03125 29.890625 
Q 34.671875 31.15625 39.703125 32.90625 
Q 39.75 34.71875 39.75 35.203125 
Q 39.75 40.578125 37.25 42.78125 
Q 33.890625 45.75 27.25 45.75 
Q 21.046875 45.75 18.09375 43.578125 
Q 15.140625 41.40625 13.71875 35.890625 
L 5.125 37.0625 
Q 6.296875 42.578125 8.984375 45.96875 
Q 11.671875 49.359375 16.75 51.1875 
Q 21.828125 53.03125 28.515625 53.03125 
Q 35.15625 53.03125 39.296875 51.46875 
Q 43.453125 49.90625 45.40625 47.53125 
Q 47.359375 45.171875 48.140625 41.546875 
Q 48.578125 39.3125 48.578125 33.453125 
L 48.578125 21.734375 
Q 48.578125 9.46875 49.140625 6.21875 
Q 49.703125 2.984375 51.375 0 
L 42.1875 0 
Q 40.828125 2.734375 40.4375 6.390625 
z
M 39.703125 26.03125 
Q 34.90625 24.078125 25.34375 22.703125 
Q 19.921875 21.921875 17.671875 20.9375 
Q 15.4375 19.96875 14.203125 18.09375 
Q 12.984375 16.21875 12.984375 13.921875 
Q 12.984375 10.40625 15.640625 8.0625 
Q 18.3125 5.71875 23.4375 5.71875 
Q 28.515625 5.71875 32.46875 7.9375 
Q 36.421875 10.15625 38.28125 14.015625 
Q 39.703125 17 39.703125 22.796875 
z
" id="ArialMT-97"/>
     <path d="M 25.78125 7.859375 
L 27.046875 0.09375 
Q 23.34375 -0.6875 20.40625 -0.6875 
Q 15.625 -0.6875 12.984375 0.828125 
Q 10.359375 2.34375 9.28125 4.8125 
Q 8.203125 7.28125 8.203125 15.1875 
L 8.203125 45.015625 
L 1.765625 45.015625 
L 1.765625 51.859375 
L 8.203125 51.859375 
L 8.203125 64.703125 
L 16.9375 69.96875 
L 16.9375 51.859375 
L 25.78125 51.859375 
L 25.78125 45.015625 
L 16.9375 45.015625 
L 16.9375 14.703125 
Q 16.9375 10.9375 17.40625 9.859375 
Q 17.875 8.796875 18.921875 8.15625 
Q 19.96875 7.515625 21.921875 7.515625 
Q 23.390625 7.515625 25.78125 7.859375 
z
" id="ArialMT-116"/>
     <path d="M 42.09375 16.703125 
L 51.171875 15.578125 
Q 49.03125 7.625 43.21875 3.21875 
Q 37.40625 -1.171875 28.375 -1.171875 
Q 17 -1.171875 10.328125 5.828125 
Q 3.65625 12.84375 3.65625 25.484375 
Q 3.65625 38.578125 10.390625 45.796875 
Q 17.140625 53.03125 27.875 53.03125 
Q 38.28125 53.03125 44.875 45.953125 
Q 51.46875 38.875 51.46875 26.03125 
Q 51.46875 25.25 51.421875 23.6875 
L 12.75 23.6875 
Q 13.234375 15.140625 17.578125 10.59375 
Q 21.921875 6.0625 28.421875 6.0625 
Q 33.25 6.0625 36.671875 8.59375 
Q 40.09375 11.140625 42.09375 16.703125 
z
M 13.234375 30.90625 
L 42.1875 30.90625 
Q 41.609375 37.453125 38.875 40.71875 
Q 34.671875 45.796875 27.984375 45.796875 
Q 21.921875 45.796875 17.796875 41.75 
Q 13.671875 37.703125 13.234375 30.90625 
z
" id="ArialMT-101"/>
     <path d="M 6.5 0 
L 6.5 51.859375 
L 14.40625 51.859375 
L 14.40625 44 
Q 17.4375 49.515625 20 51.265625 
Q 22.5625 53.03125 25.640625 53.03125 
Q 30.078125 53.03125 34.671875 50.203125 
L 31.640625 42.046875 
Q 28.421875 43.953125 25.203125 43.953125 
Q 22.3125 43.953125 20.015625 42.21875 
Q 17.71875 40.484375 16.75 37.40625 
Q 15.28125 32.71875 15.28125 27.15625 
L 15.28125 0 
z
" id="ArialMT-114"/>
     <path d="M 3.078125 15.484375 
L 11.765625 16.84375 
Q 12.5 11.625 15.84375 8.84375 
Q 19.1875 6.0625 25.203125 6.0625 
Q 31.25 6.0625 34.171875 8.515625 
Q 37.109375 10.984375 37.109375 14.3125 
Q 37.109375 17.28125 34.515625 19 
Q 32.71875 20.171875 25.53125 21.96875 
Q 15.875 24.421875 12.140625 26.203125 
Q 8.40625 27.984375 6.46875 31.125 
Q 4.546875 34.28125 4.546875 38.09375 
Q 4.546875 41.546875 6.125 44.5 
Q 7.71875 47.46875 10.453125 49.421875 
Q 12.5 50.921875 16.03125 51.96875 
Q 19.578125 53.03125 23.640625 53.03125 
Q 29.734375 53.03125 34.34375 51.265625 
Q 38.96875 49.515625 41.15625 46.5 
Q 43.359375 43.5 44.1875 38.484375 
L 35.59375 37.3125 
Q 35.015625 41.3125 32.203125 43.546875 
Q 29.390625 45.796875 24.265625 45.796875 
Q 18.21875 45.796875 15.625 43.796875 
Q 13.03125 41.796875 13.03125 39.109375 
Q 13.03125 37.40625 14.109375 36.03125 
Q 15.1875 34.625 17.484375 33.6875 
Q 18.796875 33.203125 25.25 31.453125 
Q 34.578125 28.953125 38.25 27.359375 
Q 41.9375 25.78125 44.03125 22.75 
Q 46.140625 19.734375 46.140625 15.234375 
Q 46.140625 10.84375 43.578125 6.953125 
Q 41.015625 3.078125 36.171875 0.953125 
Q 31.34375 -1.171875 25.25 -1.171875 
Q 15.140625 -1.171875 9.84375 3.03125 
Q 4.546875 7.234375 3.078125 15.484375 
z
" id="ArialMT-115"/>
     <path d="M 6.59375 -19.875 
L 6.59375 51.859375 
L 14.59375 51.859375 
L 14.59375 45.125 
Q 17.4375 49.078125 21 51.046875 
Q 24.5625 53.03125 29.640625 53.03125 
Q 36.28125 53.03125 41.359375 49.609375 
Q 46.4375 46.1875 49.015625 39.953125 
Q 51.609375 33.734375 51.609375 26.3125 
Q 51.609375 18.359375 48.75 11.984375 
Q 45.90625 5.609375 40.453125 2.21875 
Q 35.015625 -1.171875 29 -1.171875 
Q 24.609375 -1.171875 21.109375 0.6875 
Q 17.625 2.546875 15.375 5.375 
L 15.375 -19.875 
z
M 14.546875 25.640625 
Q 14.546875 15.625 18.59375 10.84375 
Q 22.65625 6.0625 28.421875 6.0625 
Q 34.28125 6.0625 38.453125 11.015625 
Q 42.625 15.96875 42.625 26.375 
Q 42.625 36.28125 38.546875 41.203125 
Q 34.46875 46.140625 28.8125 46.140625 
Q 23.1875 46.140625 18.859375 40.890625 
Q 14.546875 35.640625 14.546875 25.640625 
z
" id="ArialMT-112"/>
     <path d="M 40.234375 0 
L 40.234375 6.546875 
Q 35.296875 -1.171875 25.734375 -1.171875 
Q 19.53125 -1.171875 14.328125 2.25 
Q 9.125 5.671875 6.265625 11.796875 
Q 3.421875 17.921875 3.421875 25.875 
Q 3.421875 33.640625 6 39.96875 
Q 8.59375 46.296875 13.765625 49.65625 
Q 18.953125 53.03125 25.34375 53.03125 
Q 30.03125 53.03125 33.6875 51.046875 
Q 37.359375 49.078125 39.65625 45.90625 
L 39.65625 71.578125 
L 48.390625 71.578125 
L 48.390625 0 
z
M 12.453125 25.875 
Q 12.453125 15.921875 16.640625 10.984375 
Q 20.84375 6.0625 26.5625 6.0625 
Q 32.328125 6.0625 36.34375 10.765625 
Q 40.375 15.484375 40.375 25.140625 
Q 40.375 35.796875 36.265625 40.765625 
Q 32.171875 45.75 26.171875 45.75 
Q 20.3125 45.75 16.375 40.96875 
Q 12.453125 36.1875 12.453125 25.875 
z
" id="ArialMT-100"/>
    </defs>
    <g style="fill:#262626;" transform="translate(261.188437 41.52)scale(0.12 -0.12)">
     <use xlink:href="#ArialMT-87"/>
     <use x="94.337891" xlink:href="#ArialMT-97"/>
     <use x="149.953125" xlink:href="#ArialMT-116"/>
     <use x="177.736328" xlink:href="#ArialMT-101"/>
     <use x="233.351562" xlink:href="#ArialMT-114"/>
     <use x="266.652344" xlink:href="#ArialMT-32"/>
     <use x="294.435547" xlink:href="#ArialMT-115"/>
     <use x="344.435547" xlink:href="#ArialMT-112"/>
     <use x="400.050781" xlink:href="#ArialMT-101"/>
     <use x="455.666016" xlink:href="#ArialMT-101"/>
     <use x="511.28125" xlink:href="#ArialMT-100"/>
    </g>
   </g>
   <g id="legend_1">
    <g id="line2d_26">
     <path d="M 81 60.2075 
L 101 60.2075 
" style="fill:none;stroke:#4c72b0;stroke-linecap:round;stroke-width:1.75;"/>
    </g>
    <g id="line2d_27"/>
    <g id="text_13">
     <!-- dist_pipe0 -->
     <defs>
      <path d="M 6.640625 61.46875 
L 6.640625 71.578125 
L 15.4375 71.578125 
L 15.4375 61.46875 
z
M 6.640625 0 
L 6.640625 51.859375 
L 15.4375 51.859375 
L 15.4375 0 
z
" id="ArialMT-105"/>
      <path d="M -1.515625 -19.875 
L -1.515625 -13.53125 
L 56.734375 -13.53125 
L 56.734375 -19.875 
z
" id="ArialMT-95"/>
     </defs>
     <g style="fill:#262626;" transform="translate(109 63.7075)scale(0.1 -0.1)">
      <use xlink:href="#ArialMT-100"/>
      <use x="55.615234" xlink:href="#ArialMT-105"/>
      <use x="77.832031" xlink:href="#ArialMT-115"/>
      <use x="127.832031" xlink:href="#ArialMT-116"/>
      <use x="155.615234" xlink:href="#ArialMT-95"/>
      <use x="211.230469" xlink:href="#ArialMT-112"/>
      <use x="266.845703" xlink:href="#ArialMT-105"/>
      <use x="289.0625" xlink:href="#ArialMT-112"/>
      <use x="344.677734" xlink:href="#ArialMT-101"/>
      <use x="400.292969" xlink:href="#ArialMT-48"/>
     </g>
    </g>
    <g id="line2d_28">
     <path d="M 81 74.3825 
L 101 74.3825 
" style="fill:none;stroke:#55a868;stroke-linecap:round;stroke-width:1.75;"/>
    </g>
    <g id="line2d_29"/>
    <g id="text_14">
     <!-- dist_pipe2 -->
     <g style="fill:#262626;" transform="translate(109 77.8825)scale(0.1 -0.1)">
      <use xlink:href="#ArialMT-100"/>
      <use x="55.615234" xlink:href="#ArialMT-105"/>
      <use x="77.832031" xlink:href="#ArialMT-115"/>
      <use x="127.832031" xlink:href="#ArialMT-116"/>
      <use x="155.615234" xlink:href="#ArialMT-95"/>
      <use x="211.230469" xlink:href="#ArialMT-112"/>
      <use x="266.845703" xlink:href="#ArialMT-105"/>
      <use x="289.0625" xlink:href="#ArialMT-112"/>
      <use x="344.677734" xlink:href="#ArialMT-101"/>
      <use x="400.292969" xlink:href="#ArialMT-50"/>
     </g>
    </g>
    <g id="line2d_30">
     <path d="M 81 88.5575 
L 101 88.5575 
" style="fill:none;stroke:#c44e52;stroke-linecap:round;stroke-width:1.75;"/>
    </g>
    <g id="line2d_31"/>
    <g id="text_15">
     <!-- dist_pipe1 -->
     <g style="fill:#262626;" transform="translate(109 92.0575)scale(0.1 -0.1)">
      <use xlink:href="#ArialMT-100"/>
      <use x="55.615234" xlink:href="#ArialMT-105"/>
      <use x="77.832031" xlink:href="#ArialMT-115"/>
      <use x="127.832031" xlink:href="#ArialMT-116"/>
      <use x="155.615234" xlink:href="#ArialMT-95"/>
      <use x="211.230469" xlink:href="#ArialMT-112"/>
      <use x="266.845703" xlink:href="#ArialMT-105"/>
      <use x="289.0625" xlink:href="#ArialMT-112"/>
      <use x="344.677734" xlink:href="#ArialMT-101"/>
      <use x="400.292969" xlink:href="#ArialMT-49"/>
     </g>
    </g>
   </g>
  </g>
  <g id="axes_2">
   <g id="patch_7">
    <path d="M 72 352.44 
L 518.4 352.44 
L 518.4 213.84 
L 72 213.84 
z
" style="fill:#eaeaf2;"/>
   </g>
   <g id="matplotlib.axis_3">
    <g id="xtick_9">
     <g id="line2d_32">
      <path clip-path="url(#p3c81646a90)" d="M 92.290909 352.44 
L 92.290909 213.84 
" style="fill:none;stroke:#ffffff;stroke-linecap:round;"/>
     </g>
     <g id="line2d_33"/>
     <g id="text_16">
      <!-- 01-01 00 -->
      <g style="fill:#262626;" transform="translate(72.55419 366.597813)scale(0.1 -0.1)">
       <use xlink:href="#ArialMT-48"/>
       <use x="55.615234" xlink:href="#ArialMT-49"/>
       <use x="111.230469" xlink:href="#ArialMT-45"/>
       <use x="144.53125" xlink:href="#ArialMT-48"/>
       <use x="200.146484" xlink:href="#ArialMT-49"/>
       <use x="255.761719" xlink:href="#ArialMT-32"/>
       <use x="283.544922" xlink:href="#ArialMT-48"/>
       <use x="339.160156" xlink:href="#ArialMT-48"/>
      </g>
     </g>
    </g>
    <g id="xtick_10">
     <g id="line2d_34">
      <path clip-path="url(#p3c81646a90)" d="M 147.734759 352.44 
L 147.734759 213.84 
" style="fill:none;stroke:#ffffff;stroke-linecap:round;"/>
     </g>
     <g id="line2d_35"/>
     <g id="text_17">
      <!-- 01-01 06 -->
      <g style="fill:#262626;" transform="translate(127.998041 366.597813)scale(0.1 -0.1)">
       <use xlink:href="#ArialMT-48"/>
       <use x="55.615234" xlink:href="#ArialMT-49"/>
       <use x="111.230469" xlink:href="#ArialMT-45"/>
       <use x="144.53125" xlink:href="#ArialMT-48"/>
       <use x="200.146484" xlink:href="#ArialMT-49"/>
       <use x="255.761719" xlink:href="#ArialMT-32"/>
       <use x="283.544922" xlink:href="#ArialMT-48"/>
       <use x="339.160156" xlink:href="#ArialMT-54"/>
      </g>
     </g>
    </g>
    <g id="xtick_11">
     <g id="line2d_36">
      <path clip-path="url(#p3c81646a90)" d="M 203.17861 352.44 
L 203.17861 213.84 
" style="fill:none;stroke:#ffffff;stroke-linecap:round;"/>
     </g>
     <g id="line2d_37"/>
     <g id="text_18">
      <!-- 01-01 12 -->
      <g style="fill:#262626;" transform="translate(183.441891 366.597813)scale(0.1 -0.1)">
       <use xlink:href="#ArialMT-48"/>
       <use x="55.615234" xlink:href="#ArialMT-49"/>
       <use x="111.230469" xlink:href="#ArialMT-45"/>
       <use x="144.53125" xlink:href="#ArialMT-48"/>
       <use x="200.146484" xlink:href="#ArialMT-49"/>
       <use x="255.761719" xlink:href="#ArialMT-32"/>
       <use x="283.544922" xlink:href="#ArialMT-49"/>
       <use x="339.160156" xlink:href="#ArialMT-50"/>
      </g>
     </g>
    </g>
    <g id="xtick_12">
     <g id="line2d_38">
      <path clip-path="url(#p3c81646a90)" d="M 258.62246 352.44 
L 258.62246 213.84 
" style="fill:none;stroke:#ffffff;stroke-linecap:round;"/>
     </g>
     <g id="line2d_39"/>
     <g id="text_19">
      <!-- 01-01 18 -->
      <g style="fill:#262626;" transform="translate(238.885741 366.597813)scale(0.1 -0.1)">
       <use xlink:href="#ArialMT-48"/>
       <use x="55.615234" xlink:href="#ArialMT-49"/>
       <use x="111.230469" xlink:href="#ArialMT-45"/>
       <use x="144.53125" xlink:href="#ArialMT-48"/>
       <use x="200.146484" xlink:href="#ArialMT-49"/>
       <use x="255.761719" xlink:href="#ArialMT-32"/>
       <use x="283.544922" xlink:href="#ArialMT-49"/>
       <use x="339.160156" xlink:href="#ArialMT-56"/>
      </g>
     </g>
    </g>
    <g id="xtick_13">
     <g id="line2d_40">
      <path clip-path="url(#p3c81646a90)" d="M 314.06631 352.44 
L 314.06631 213.84 
" style="fill:none;stroke:#ffffff;stroke-linecap:round;"/>
     </g>
     <g id="line2d_41"/>
     <g id="text_20">
      <!-- 01-02 00 -->
      <g style="fill:#262626;" transform="translate(294.329591 366.597813)scale(0.1 -0.1)">
       <use xlink:href="#ArialMT-48"/>
       <use x="55.615234" xlink:href="#ArialMT-49"/>
       <use x="111.230469" xlink:href="#ArialMT-45"/>
       <use x="144.53125" xlink:href="#ArialMT-48"/>
       <use x="200.146484" xlink:href="#ArialMT-50"/>
       <use x="255.761719" xlink:href="#ArialMT-32"/>
       <use x="283.544922" xlink:href="#ArialMT-48"/>
       <use x="339.160156" xlink:href="#ArialMT-48"/>
      </g>
     </g>
    </g>
    <g id="xtick_14">
     <g id="line2d_42">
      <path clip-path="url(#p3c81646a90)" d="M 369.51016 352.44 
L 369.51016 213.84 
" style="fill:none;stroke:#ffffff;stroke-linecap:round;"/>
     </g>
     <g id="line2d_43"/>
     <g id="text_21">
      <!-- 01-02 06 -->
      <g style="fill:#262626;" transform="translate(349.773442 366.597813)scale(0.1 -0.1)">
       <use xlink:href="#ArialMT-48"/>
       <use x="55.615234" xlink:href="#ArialMT-49"/>
       <use x="111.230469" xlink:href="#ArialMT-45"/>
       <use x="144.53125" xlink:href="#ArialMT-48"/>
       <use x="200.146484" xlink:href="#ArialMT-50"/>
       <use x="255.761719" xlink:href="#ArialMT-32"/>
       <use x="283.544922" xlink:href="#ArialMT-48"/>
       <use x="339.160156" xlink:href="#ArialMT-54"/>
      </g>
     </g>
    </g>
    <g id="xtick_15">
     <g id="line2d_44">
      <path clip-path="url(#p3c81646a90)" d="M 424.954011 352.44 
L 424.954011 213.84 
" style="fill:none;stroke:#ffffff;stroke-linecap:round;"/>
     </g>
     <g id="line2d_45"/>
     <g id="text_22">
      <!-- 01-02 12 -->
      <g style="fill:#262626;" transform="translate(405.217292 366.597813)scale(0.1 -0.1)">
       <use xlink:href="#ArialMT-48"/>
       <use x="55.615234" xlink:href="#ArialMT-49"/>
       <use x="111.230469" xlink:href="#ArialMT-45"/>
       <use x="144.53125" xlink:href="#ArialMT-48"/>
       <use x="200.146484" xlink:href="#ArialMT-50"/>
       <use x="255.761719" xlink:href="#ArialMT-32"/>
       <use x="283.544922" xlink:href="#ArialMT-49"/>
       <use x="339.160156" xlink:href="#ArialMT-50"/>
      </g>
     </g>
    </g>
    <g id="xtick_16">
     <g id="line2d_46">
      <path clip-path="url(#p3c81646a90)" d="M 480.397861 352.44 
L 480.397861 213.84 
" style="fill:none;stroke:#ffffff;stroke-linecap:round;"/>
     </g>
     <g id="line2d_47"/>
     <g id="text_23">
      <!-- 01-02 18 -->
      <g style="fill:#262626;" transform="translate(460.661142 366.597813)scale(0.1 -0.1)">
       <use xlink:href="#ArialMT-48"/>
       <use x="55.615234" xlink:href="#ArialMT-49"/>
       <use x="111.230469" xlink:href="#ArialMT-45"/>
       <use x="144.53125" xlink:href="#ArialMT-48"/>
       <use x="200.146484" xlink:href="#ArialMT-50"/>
       <use x="255.761719" xlink:href="#ArialMT-32"/>
       <use x="283.544922" xlink:href="#ArialMT-49"/>
       <use x="339.160156" xlink:href="#ArialMT-56"/>
      </g>
     </g>
    </g>
   </g>
   <g id="matplotlib.axis_4">
    <g id="ytick_4">
     <g id="line2d_48">
      <path clip-path="url(#p3c81646a90)" d="M 72 334.346018 
L 518.4 334.346018 
" style="fill:none;stroke:#ffffff;stroke-linecap:round;"/>
     </g>
     <g id="line2d_49"/>
     <g id="text_24">
      <!-- 0.2 -->
      <defs>
       <path d="M 9.078125 0 
L 9.078125 10.015625 
L 19.09375 10.015625 
L 19.09375 0 
z
" id="ArialMT-46"/>
      </defs>
      <g style="fill:#262626;" transform="translate(51.1 337.924924)scale(0.1 -0.1)">
       <use xlink:href="#ArialMT-48"/>
       <use x="55.615234" xlink:href="#ArialMT-46"/>
       <use x="83.398438" xlink:href="#ArialMT-50"/>
      </g>
     </g>
    </g>
    <g id="ytick_5">
     <g id="line2d_50">
      <path clip-path="url(#p3c81646a90)" d="M 72 305.794513 
L 518.4 305.794513 
" style="fill:none;stroke:#ffffff;stroke-linecap:round;"/>
     </g>
     <g id="line2d_51"/>
     <g id="text_25">
      <!-- 0.4 -->
      <defs>
       <path d="M 32.328125 0 
L 32.328125 17.140625 
L 1.265625 17.140625 
L 1.265625 25.203125 
L 33.9375 71.578125 
L 41.109375 71.578125 
L 41.109375 25.203125 
L 50.78125 25.203125 
L 50.78125 17.140625 
L 41.109375 17.140625 
L 41.109375 0 
z
M 32.328125 25.203125 
L 32.328125 57.46875 
L 9.90625 25.203125 
z
" id="ArialMT-52"/>
      </defs>
      <g style="fill:#262626;" transform="translate(51.1 309.37342)scale(0.1 -0.1)">
       <use xlink:href="#ArialMT-48"/>
       <use x="55.615234" xlink:href="#ArialMT-46"/>
       <use x="83.398438" xlink:href="#ArialMT-52"/>
      </g>
     </g>
    </g>
    <g id="ytick_6">
     <g id="line2d_52">
      <path clip-path="url(#p3c81646a90)" d="M 72 277.243009 
L 518.4 277.243009 
" style="fill:none;stroke:#ffffff;stroke-linecap:round;"/>
     </g>
     <g id="line2d_53"/>
     <g id="text_26">
      <!-- 0.6 -->
      <g style="fill:#262626;" transform="translate(51.1 280.821915)scale(0.1 -0.1)">
       <use xlink:href="#ArialMT-48"/>
       <use x="55.615234" xlink:href="#ArialMT-46"/>
       <use x="83.398438" xlink:href="#ArialMT-54"/>
      </g>
     </g>
    </g>
    <g id="ytick_7">
     <g id="line2d_54">
      <path clip-path="url(#p3c81646a90)" d="M 72 248.691504 
L 518.4 248.691504 
" style="fill:none;stroke:#ffffff;stroke-linecap:round;"/>
     </g>
     <g id="line2d_55"/>
     <g id="text_27">
      <!-- 0.8 -->
      <g style="fill:#262626;" transform="translate(51.1 252.270411)scale(0.1 -0.1)">
       <use xlink:href="#ArialMT-48"/>
       <use x="55.615234" xlink:href="#ArialMT-46"/>
       <use x="83.398438" xlink:href="#ArialMT-56"/>
      </g>
     </g>
    </g>
    <g id="ytick_8">
     <g id="line2d_56">
      <path clip-path="url(#p3c81646a90)" d="M 72 220.14 
L 518.4 220.14 
" style="fill:none;stroke:#ffffff;stroke-linecap:round;"/>
     </g>
     <g id="line2d_57"/>
     <g id="text_28">
      <!-- 1.0 -->
      <g style="fill:#262626;" transform="translate(51.1 223.718906)scale(0.1 -0.1)">
       <use xlink:href="#ArialMT-49"/>
       <use x="55.615234" xlink:href="#ArialMT-46"/>
       <use x="83.398438" xlink:href="#ArialMT-48"/>
      </g>
     </g>
    </g>
   </g>
   <g id="line2d_58">
    <path clip-path="url(#p3c81646a90)" d="M 92.290909 220.14 
L 498.109091 220.14 
" style="fill:none;stroke:#000000;stroke-dasharray:1.75,2.8875;stroke-dashoffset:0;stroke-width:1.75;"/>
    <defs>
     <path d="M 0 3.5 
C 0.928211 3.5 1.81853 3.131218 2.474874 2.474874 
C 3.131218 1.81853 3.5 0.928211 3.5 0 
C 3.5 -0.928211 3.131218 -1.81853 2.474874 -2.474874 
C 1.81853 -3.131218 0.928211 -3.5 0 -3.5 
C -0.928211 -3.5 -1.81853 -3.131218 -2.474874 -2.474874 
C -3.131218 -1.81853 -3.5 -0.928211 -3.5 0 
C -3.5 0.928211 -3.131218 1.81853 -2.474874 2.474874 
C -1.81853 3.131218 -0.928211 3.5 0 3.5 
z
" id="mabf75d4493"/>
    </defs>
    <g clip-path="url(#p3c81646a90)">
     <use x="92.290909" xlink:href="#mabf75d4493" y="220.14"/>
     <use x="498.109091" xlink:href="#mabf75d4493" y="220.14"/>
    </g>
   </g>
   <g id="line2d_59">
    <path clip-path="url(#p3c81646a90)" d="M 92.290909 282.903153 
L 93.831016 282.7909 
L 94.60107 285.2569 
L 96.141176 285.191445 
L 96.91123 286.900746 
L 98.451337 286.86669 
L 99.22139 292.662621 
L 100.761497 292.641833 
L 101.531551 294.144338 
L 103.071658 294.132275 
L 103.841711 296.407109 
L 105.381818 296.398507 
L 106.151872 298.911602 
L 107.691979 298.904186 
L 108.462032 301.027977 
L 110.002139 301.021316 
L 110.772193 301.319902 
L 112.312299 301.315566 
L 113.082353 302.52545 
L 114.62246 302.521224 
L 115.392513 305.567945 
L 116.93262 305.561745 
L 117.702674 307.424243 
L 123.863102 307.479004 
L 124.633155 306.650883 
L 126.173262 306.650513 
L 126.943316 327.904222 
L 128.483422 327.886648 
L 129.253476 324.631824 
L 130.793583 324.619784 
L 131.563636 322.069107 
L 133.103743 322.062693 
L 133.873797 319.683106 
L 135.413904 319.682018 
L 136.183957 313.547171 
L 137.724064 313.55678 
L 138.494118 312.076732 
L 140.034225 312.086803 
L 140.804278 309.904206 
L 142.344385 309.914152 
L 143.114438 308.190034 
L 144.654545 308.199206 
L 145.424599 300.268409 
L 146.964706 300.288457 
L 147.734759 292.555366 
L 149.274866 292.581262 
L 150.04492 283.732272 
L 151.585027 283.761384 
L 152.35508 274.06279 
L 153.895187 274.092647 
L 154.665241 265.902625 
L 156.205348 265.928629 
L 156.975401 257.49339 
L 158.515508 257.5152 
L 159.285562 257.738695 
L 160.825668 257.746988 
L 161.595722 249.983669 
L 163.135829 249.995719 
L 163.905882 243.759084 
L 165.445989 243.770204 
L 166.216043 233.037128 
L 167.75615 233.053177 
L 168.526203 242.302108 
L 170.06631 242.297971 
L 170.836364 241.627615 
L 172.376471 241.626338 
L 173.146524 239.740624 
L 174.686631 239.742483 
L 175.456684 237.60593 
L 176.996791 237.608664 
L 177.766845 239.479025 
L 179.306952 239.477992 
L 180.077005 242.541535 
L 181.617112 242.5383 
L 182.387166 241.164495 
L 183.927273 241.164538 
L 184.697326 240.953966 
L 186.237433 240.954142 
L 187.007487 243.635662 
L 188.547594 243.633222 
L 189.317647 244.159729 
L 190.857754 244.158341 
L 191.627807 245.435767 
L 193.167914 245.434275 
L 193.937968 246.149054 
L 195.478075 246.147672 
L 196.248128 249.958498 
L 197.788235 249.954139 
L 198.558289 249.797862 
L 200.098396 249.796164 
L 200.868449 249.274329 
L 202.408556 249.274343 
L 203.17861 250.511912 
L 204.718717 250.510601 
L 205.48877 253.151797 
L 207.028877 253.148386 
L 207.79893 252.675331 
L 209.339037 252.674431 
L 210.109091 255.71659 
L 211.649198 255.713221 
L 212.419251 256.110036 
L 213.959358 256.108134 
L 214.729412 257.245263 
L 216.269519 257.243467 
L 217.039572 257.755677 
L 218.579679 257.754471 
L 219.349733 259.572861 
L 220.88984 259.570362 
L 221.659893 259.240131 
L 223.2 259.239399 
L 223.970053 259.936965 
L 225.51016 259.936072 
L 226.280214 259.662561 
L 227.820321 259.662471 
L 228.590374 257.951073 
L 230.130481 257.953173 
L 230.900535 257.790952 
L 232.440642 257.791862 
L 233.210695 259.194768 
L 234.750802 259.19353 
L 235.520856 258.920368 
L 237.060963 258.920135 
L 237.831016 258.322744 
L 239.371123 258.323361 
L 240.141176 258.543513 
L 241.681283 258.543554 
L 242.451337 259.198652 
L 243.991444 259.197771 
L 244.761497 258.4951 
L 246.301604 258.495686 
L 247.071658 258.72544 
L 248.611765 258.725335 
L 249.381818 257.868867 
L 250.921925 257.869619 
L 251.691979 258.574237 
L 253.232086 258.573863 
L 254.002139 258.125381 
L 255.542246 258.12557 
L 256.312299 258.844256 
L 257.852406 258.843506 
L 258.62246 258.6913 
L 260.162567 258.691157 
L 260.93262 258.123346 
L 262.472727 258.12399 
L 263.242781 257.036937 
L 267.093048 257.020829 
L 267.863102 256.797539 
L 269.403209 256.798017 
L 270.173262 257.459913 
L 271.713369 257.459464 
L 272.483422 257.166026 
L 276.33369 257.114239 
L 277.103743 257.517885 
L 278.64385 257.517526 
L 279.413904 257.807337 
L 280.954011 257.806816 
L 281.724064 258.080579 
L 283.264171 258.079989 
L 284.034225 258.461426 
L 285.574332 258.460853 
L 286.344385 257.983006 
L 287.884492 257.983337 
L 288.654545 259.988017 
L 290.194652 259.986062 
L 290.964706 260.420387 
L 292.504813 260.419026 
L 293.274866 264.291857 
L 294.814973 264.287138 
L 295.585027 265.377339 
L 297.125134 265.373946 
L 297.895187 269.950477 
L 299.435294 269.944018 
L 300.205348 271.994874 
L 301.745455 271.989559 
L 302.515508 283.339448 
L 304.055615 283.32535 
L 304.825668 287.707081 
L 306.365775 287.695207 
L 307.135829 295.894225 
L 308.675936 295.87963 
L 309.445989 298.334587 
L 310.986096 298.323558 
L 311.75615 305.520723 
L 314.06631 305.608895 
L 315.606417 305.600314 
L 316.376471 306.109201 
L 317.916578 306.103449 
L 318.686631 304.422617 
L 320.226738 304.421276 
L 320.996791 306.322799 
L 322.536898 306.319968 
L 323.306952 307.012372 
L 324.847059 307.009617 
L 325.617112 308.549296 
L 327.157219 308.545615 
L 327.927273 308.056865 
L 329.46738 308.055069 
L 330.237433 310.672624 
L 331.77754 310.668327 
L 332.547594 309.96131 
L 334.087701 309.959144 
L 334.857754 309.737491 
L 336.397861 309.736213 
L 337.167914 310.110865 
L 338.708021 310.109282 
L 339.478075 313.265514 
L 341.018182 313.260703 
L 341.788235 312.375105 
L 343.328342 312.372759 
L 344.098396 311.614837 
L 345.638503 311.614537 
L 346.408556 309.934521 
L 347.948663 309.93663 
L 348.718717 330.467807 
L 350.258824 330.451712 
L 351.028877 326.570726 
L 352.568984 326.56006 
L 353.339037 322.954473 
L 354.879144 322.950178 
L 355.649198 319.458864 
L 357.189305 319.461145 
L 357.959358 312.553496 
L 359.499465 312.567764 
L 360.269519 310.239233 
L 361.809626 310.254059 
L 362.579679 307.332164 
L 364.119786 307.34641 
L 364.88984 304.798655 
L 366.429947 304.811771 
L 367.2 296.105316 
L 368.740107 296.129168 
L 369.51016 287.343947 
L 371.050267 287.373232 
L 371.820321 277.458017 
L 373.360428 277.489553 
L 374.130481 267.013322 
L 375.670588 267.04405 
L 376.440642 257.855029 
L 377.980749 257.881358 
L 378.750802 248.680463 
L 380.290909 248.702102 
L 381.060963 247.880227 
L 382.60107 247.889087 
L 383.371123 239.000588 
L 384.91123 239.013433 
L 385.681283 231.70968 
L 387.22139 231.721602 
L 387.991444 221.426102 
L 389.531551 221.440856 
L 390.301604 229.538884 
L 391.841711 229.53539 
L 392.611765 227.26166 
L 394.151872 227.262387 
L 394.921925 224.321152 
L 396.462032 224.324589 
L 397.232086 222.012749 
L 398.772193 222.015905 
L 399.542246 222.261162 
L 401.082353 222.261793 
L 401.852406 224.636642 
L 403.392513 224.634816 
L 404.162567 222.259089 
L 405.702674 222.260546 
L 406.472727 221.456582 
L 408.012834 221.457801 
L 408.782888 223.26592 
L 412.633155 223.257802 
L 413.403209 223.448229 
L 417.253476 223.427783 
L 418.023529 226.391336 
L 419.563636 226.38853 
L 420.33369 224.265627 
L 421.873797 224.26658 
L 422.64385 223.520075 
L 424.183957 223.521168 
L 424.954011 224.290269 
L 426.494118 224.289783 
L 427.264171 226.028987 
L 428.804278 226.027074 
L 429.574332 225.355625 
L 431.114438 225.355654 
L 431.884492 227.700414 
L 433.424599 227.698289 
L 434.194652 227.408557 
L 435.734759 227.4081 
L 436.504813 228.00545 
L 438.04492 228.004868 
L 438.814973 228.239555 
L 440.35508 228.239136 
L 441.125134 229.856837 
L 442.665241 229.855092 
L 443.435294 229.370882 
L 444.975401 229.370783 
L 445.745455 229.614607 
L 447.285562 229.614463 
L 448.055615 228.997672 
L 449.595722 228.99821 
L 450.365775 226.740252 
L 451.905882 226.7428 
L 452.675936 226.93326 
L 454.216043 226.933759 
L 454.986096 228.090281 
L 456.526203 228.089254 
L 457.296257 227.132631 
L 458.836364 227.133238 
L 459.606417 226.923781 
L 461.146524 226.924225 
L 461.916578 227.112131 
L 463.456684 227.112084 
L 464.226738 227.259253 
L 465.766845 227.258966 
L 466.536898 226.603913 
L 468.077005 226.60464 
L 468.847059 226.025957 
L 470.387166 226.026553 
L 471.157219 225.332083 
L 472.697326 225.332885 
L 473.46738 226.410984 
L 475.007487 226.410259 
L 475.77754 225.919391 
L 477.317647 225.919533 
L 478.087701 226.352848 
L 479.627807 226.352436 
L 480.397861 225.786876 
L 481.937968 225.78728 
L 482.708021 225.015036 
L 483.478075 233.366508 
L 484.248128 243.629192 
L 485.018182 251.449561 
L 485.788235 258.095231 
L 486.558289 262.945878 
L 487.328342 266.4584 
L 488.098396 268.995002 
L 489.638503 272.386664 
L 490.408556 272.044936 
L 491.17861 269.6126 
L 491.948663 265.702518 
L 493.48877 253.855036 
L 495.028877 241.346754 
L 495.79893 236.378328 
L 496.568984 232.743049 
L 497.339037 229.959169 
L 498.109091 228.04696 
L 498.109091 228.04696 
" style="fill:none;stroke:#4c72b0;stroke-linecap:round;stroke-width:1.75;"/>
   </g>
   <g id="line2d_60">
    <path clip-path="url(#p3c81646a90)" d="M 92.290909 283.436961 
L 93.831016 283.333026 
L 94.60107 284.454561 
L 96.141176 284.393377 
L 96.91123 286.367525 
L 98.451337 286.336601 
L 99.22139 291.907736 
L 100.761497 291.88929 
L 101.531551 293.357932 
L 103.071658 293.347479 
L 103.841711 295.413931 
L 105.381818 295.406631 
L 106.151872 297.847222 
L 107.691979 297.840814 
L 108.462032 299.822978 
L 112.312299 299.912802 
L 113.082353 300.275761 
L 114.62246 300.272941 
L 115.392513 303.091896 
L 116.93262 303.08687 
L 117.702674 305.341534 
L 119.242781 305.336027 
L 120.012834 305.091376 
L 121.552941 305.08818 
L 122.322995 305.541491 
L 123.863102 305.539317 
L 124.633155 304.377785 
L 126.173262 304.377858 
L 126.943316 327.261001 
L 128.483422 327.243648 
L 129.253476 324.334304 
L 130.793583 324.322066 
L 131.563636 321.40735 
L 133.103743 321.401148 
L 133.873797 318.798548 
L 135.413904 318.797844 
L 136.183957 313.003873 
L 137.724064 313.012715 
L 138.494118 311.794436 
L 140.034225 311.803382 
L 140.804278 308.963458 
L 142.344385 308.973453 
L 143.114438 307.519211 
L 144.654545 307.527637 
L 145.424599 301.119703 
L 146.964706 301.135329 
L 147.734759 294.096054 
L 149.274866 294.117058 
L 150.04492 285.537817 
L 151.585027 285.562683 
L 152.35508 276.137127 
L 153.895187 276.163168 
L 154.665241 269.352136 
L 156.205348 269.373438 
L 156.975401 260.981599 
L 158.515508 261.000545 
L 159.285562 261.948664 
L 160.825668 261.955079 
L 161.595722 254.862431 
L 163.135829 254.872484 
L 163.905882 247.454545 
L 165.445989 247.465422 
L 166.216043 237.317603 
L 167.75615 237.331998 
L 168.526203 246.264699 
L 170.06631 246.260858 
L 170.836364 245.569513 
L 172.376471 245.568352 
L 173.146524 244.614577 
L 174.686631 244.615647 
L 175.456684 241.988843 
L 176.996791 241.991551 
L 177.766845 243.548768 
L 179.306952 243.548043 
L 180.077005 247.346494 
L 181.617112 247.343075 
L 182.387166 245.555337 
L 183.927273 245.555585 
L 184.697326 244.902782 
L 186.237433 244.903307 
L 187.007487 248.106946 
L 188.547594 248.104421 
L 189.317647 248.888354 
L 190.857754 248.886849 
L 191.627807 250.983882 
L 193.167914 250.981902 
L 193.937968 251.386767 
L 195.478075 251.385577 
L 196.248128 255.142224 
L 197.788235 255.138282 
L 198.558289 254.522066 
L 200.098396 254.520872 
L 200.868449 254.031439 
L 202.408556 254.031542 
L 203.17861 255.006639 
L 204.718717 255.005642 
L 205.48877 257.169624 
L 207.028877 257.166873 
L 207.79893 256.614627 
L 209.339037 256.613988 
L 210.109091 259.858377 
L 211.649198 259.855185 
L 212.419251 260.005065 
L 213.959358 260.003495 
L 214.729412 261.45113 
L 216.269519 261.449312 
L 217.039572 262.101116 
L 218.579679 262.099871 
L 219.349733 263.640593 
L 220.88984 263.638471 
L 221.659893 263.193295 
L 223.2 263.192778 
L 223.970053 264.151041 
L 225.51016 264.150071 
L 226.280214 263.815203 
L 227.820321 263.815135 
L 228.590374 262.691258 
L 230.130481 262.692733 
L 230.900535 262.047568 
L 232.440642 262.048644 
L 233.210695 263.29349 
L 234.750802 263.292521 
L 235.520856 263.147916 
L 237.060963 263.147656 
L 237.831016 262.63768 
L 239.371123 262.638173 
L 240.141176 262.865481 
L 241.681283 262.865489 
L 242.451337 263.034923 
L 243.991444 263.034469 
L 244.761497 262.881565 
L 246.301604 262.881783 
L 247.071658 262.75538 
L 248.611765 262.755468 
L 249.381818 261.537689 
L 250.921925 261.538717 
L 251.691979 262.404575 
L 253.232086 262.404191 
L 254.002139 261.654396 
L 255.542246 261.654796 
L 256.312299 262.194078 
L 260.162567 262.098624 
L 260.93262 261.698099 
L 262.472727 261.69857 
L 263.242781 260.411304 
L 267.093048 260.446849 
L 267.863102 260.263963 
L 269.403209 260.26436 
L 270.173262 261.156544 
L 271.713369 261.155932 
L 272.483422 260.834675 
L 276.33369 260.848932 
L 277.103743 261.311438 
L 278.64385 261.311043 
L 279.413904 261.472716 
L 283.264171 261.520179 
L 284.034225 262.102237 
L 285.574332 262.101613 
L 286.344385 261.737551 
L 287.884492 261.737746 
L 288.654545 263.85745 
L 290.194652 263.855527 
L 290.964706 264.241589 
L 292.504813 264.24035 
L 293.274866 267.947491 
L 294.814973 267.943274 
L 295.585027 268.733498 
L 297.125134 268.730669 
L 297.895187 272.784211 
L 299.435294 272.778745 
L 300.205348 274.494323 
L 301.745455 274.489873 
L 302.515508 285.07381 
L 304.055615 285.061441 
L 304.825668 289.590551 
L 306.365775 289.579786 
L 307.135829 296.837321 
L 308.675936 296.824583 
L 309.445989 299.033703 
L 310.986096 299.024088 
L 311.75615 305.868453 
L 313.296257 305.856498 
L 314.06631 306.049573 
L 317.916578 306.081397 
L 318.686631 304.097839 
L 320.226738 304.097386 
L 320.996791 305.944363 
L 322.536898 305.942213 
L 323.306952 306.317049 
L 324.847059 306.315084 
L 325.617112 307.694363 
L 327.157219 307.691414 
L 327.927273 307.203272 
L 329.46738 307.201901 
L 330.237433 309.648692 
L 331.77754 309.645022 
L 332.547594 308.687804 
L 334.087701 308.686287 
L 334.857754 307.891189 
L 336.397861 307.890959 
L 337.167914 307.46205 
L 338.708021 307.461987 
L 339.478075 310.950838 
L 341.018182 310.946729 
L 341.788235 310.05165 
L 343.328342 310.049764 
L 344.098396 309.551994 
L 345.638503 309.551651 
L 346.408556 307.558524 
L 347.948663 307.560925 
L 348.718717 329.643543 
L 350.258824 329.627539 
L 351.028877 326.097166 
L 352.568984 326.086096 
L 353.339037 322.140404 
L 354.879144 322.136057 
L 355.649198 318.476725 
L 357.189305 318.479043 
L 357.959358 311.929913 
L 359.499465 311.942874 
L 360.269519 309.878772 
L 361.809626 309.89191 
L 362.579679 306.316255 
L 364.119786 306.330133 
L 364.88984 304.1037 
L 366.429947 304.115521 
L 367.2 296.947348 
L 368.740107 296.966131 
L 369.51016 288.932201 
L 371.050267 288.956029 
L 371.820321 279.332706 
L 373.360428 279.359647 
L 374.130481 269.183058 
L 375.670588 269.209815 
L 376.440642 261.438441 
L 377.980749 261.460086 
L 378.750802 252.29716 
L 382.60107 252.302764 
L 383.371123 243.851672 
L 384.91123 243.862728 
L 385.681283 235.642821 
L 387.22139 235.654245 
L 387.991444 226.000017 
L 389.531551 226.013128 
L 390.301604 233.751834 
L 391.841711 233.748602 
L 392.611765 231.533651 
L 394.151872 231.534293 
L 394.921925 229.433947 
L 396.462032 229.43655 
L 397.232086 226.642527 
L 401.082353 226.689266 
L 401.852406 229.875844 
L 403.392513 229.873676 
L 404.162567 226.907624 
L 405.702674 226.909255 
L 406.472727 225.961262 
L 408.012834 225.962526 
L 408.782888 228.048848 
L 410.322995 228.047543 
L 411.093048 228.549147 
L 412.633155 228.548568 
L 413.403209 229.349837 
L 417.253476 229.240484 
L 418.023529 232.097372 
L 419.563636 232.094849 
L 420.33369 229.460422 
L 421.873797 229.461654 
L 422.64385 228.750248 
L 424.183957 228.751301 
L 424.954011 229.219942 
L 426.494118 229.219678 
L 427.264171 230.632163 
L 428.804278 230.630639 
L 429.574332 229.968216 
L 431.114438 229.968304 
L 431.884492 232.439569 
L 433.424599 232.437545 
L 434.194652 232.050744 
L 435.734759 232.050388 
L 436.504813 232.939707 
L 438.04492 232.939004 
L 438.814973 233.144376 
L 440.35508 233.14398 
L 441.125134 234.526972 
L 442.665241 234.525512 
L 443.435294 234.073296 
L 444.975401 234.073231 
L 445.745455 234.580372 
L 447.285562 234.580077 
L 448.055615 233.923172 
L 449.595722 233.923661 
L 450.365775 232.177329 
L 451.905882 232.179335 
L 452.675936 231.937982 
L 454.216043 231.938627 
L 454.986096 232.97902 
L 456.526203 232.978177 
L 457.296257 232.150106 
L 458.836364 232.150613 
L 459.606417 232.012951 
L 461.146524 232.0133 
L 461.916578 232.199085 
L 463.456684 232.199026 
L 464.226738 231.959879 
L 468.077005 231.895065 
L 468.847059 230.684058 
L 470.387166 230.684937 
L 471.157219 229.83943 
L 472.697326 229.84033 
L 473.46738 231.081211 
L 475.007487 231.080464 
L 475.77754 230.371082 
L 477.317647 230.371341 
L 478.087701 230.611631 
L 479.627807 230.6114 
L 480.397861 230.040714 
L 481.937968 230.041125 
L 482.708021 229.417334 
L 483.478075 237.844803 
L 484.248128 248.047014 
L 485.788235 262.02441 
L 486.558289 266.695473 
L 487.328342 270.099586 
L 488.098396 272.497415 
L 489.638503 275.704751 
L 490.408556 275.274261 
L 491.17861 272.758718 
L 491.948663 268.921111 
L 493.48877 257.039462 
L 495.028877 244.634596 
L 495.79893 239.828649 
L 496.568984 236.627383 
L 497.339037 234.038761 
L 498.109091 232.296711 
L 498.109091 232.296711 
" style="fill:none;stroke:#55a868;stroke-linecap:round;stroke-width:1.75;"/>
   </g>
   <g id="line2d_61">
    <path clip-path="url(#p3c81646a90)" d="M 92.290909 314.601672 
L 93.831016 314.51338 
L 94.60107 319.602893 
L 96.141176 319.552979 
L 96.91123 319.835937 
L 98.451337 319.807499 
L 99.22139 323.811374 
L 100.761497 323.79285 
L 101.531551 324.764599 
L 103.071658 324.753172 
L 103.841711 326.65042 
L 105.381818 326.641848 
L 106.151872 328.31022 
L 107.691979 328.303147 
L 108.462032 329.930938 
L 110.002139 329.924611 
L 110.772193 330.640288 
L 112.312299 330.635574 
L 113.082353 333.640446 
L 114.62246 333.634157 
L 115.392513 336.036014 
L 119.242781 336.051917 
L 120.012834 336.359796 
L 121.552941 336.356222 
L 122.322995 335.702468 
L 123.863102 335.700961 
L 124.633155 336.119966 
L 126.173262 336.118545 
L 126.943316 344.147773 
L 128.483422 344.136882 
L 129.253476 341.293987 
L 130.793583 341.287472 
L 131.563636 340.780711 
L 133.103743 340.776378 
L 133.873797 339.987446 
L 135.413904 339.985766 
L 136.183957 335.468676 
L 137.724064 335.476383 
L 138.494118 333.899848 
L 140.034225 333.908799 
L 140.804278 334.412805 
L 142.344385 334.418497 
L 143.114438 332.677043 
L 144.654545 332.684438 
L 145.424599 323.910777 
L 146.964706 323.934509 
L 147.734759 317.524468 
L 149.274866 317.552898 
L 150.04492 311.639125 
L 151.585027 311.667688 
L 152.35508 305.24743 
L 153.895187 305.275262 
L 154.665241 296.739876 
L 156.205348 296.767855 
L 156.975401 291.710102 
L 158.515508 291.730644 
L 159.285562 289.896825 
L 160.825668 289.906774 
L 161.595722 283.541784 
L 163.135829 283.554255 
L 163.905882 283.104708 
L 165.445989 283.111879 
L 166.216043 275.239244 
L 167.75615 275.253128 
L 168.526203 281.527152 
L 170.06631 281.523925 
L 170.836364 281.188243 
L 172.376471 281.187181 
L 173.146524 277.556006 
L 176.996791 277.63888 
L 177.766845 279.583295 
L 179.306952 279.581855 
L 180.077005 279.383421 
L 181.617112 279.382025 
L 182.387166 279.699778 
L 183.927273 279.699247 
L 184.697326 280.774964 
L 186.237433 280.774122 
L 187.007487 280.928903 
L 188.547594 280.927706 
L 189.317647 280.53808 
L 190.857754 280.537587 
L 191.627807 279.063468 
L 193.167914 279.06392 
L 193.937968 280.322812 
L 195.478075 280.321481 
L 196.248128 282.700179 
L 197.788235 282.696497 
L 198.558289 283.852028 
L 200.098396 283.849667 
L 200.868449 283.456203 
L 202.408556 283.455969 
L 203.17861 284.892401 
L 204.718717 284.890781 
L 205.48877 287.731484 
L 209.339037 287.664132 
L 210.109091 288.89745 
L 211.649198 288.894998 
L 212.419251 289.796918 
L 213.959358 289.794903 
L 214.729412 289.618971 
L 218.579679 289.538865 
L 219.349733 291.356655 
L 220.88984 291.354171 
L 221.659893 291.472428 
L 223.2 291.471412 
L 223.970053 291.173103 
L 227.820321 291.178854 
L 228.590374 288.583608 
L 230.130481 288.586531 
L 230.900535 289.800954 
L 232.440642 289.801039 
L 233.210695 291.0512 
L 234.750802 291.049748 
L 235.520856 290.541209 
L 237.060963 290.541144 
L 237.831016 289.954272 
L 241.681283 290.064612 
L 242.451337 291.765071 
L 243.991444 291.763396 
L 244.761497 289.861273 
L 246.301604 289.862613 
L 247.071658 290.96283 
L 248.611765 290.962248 
L 249.381818 291.440296 
L 253.232086 291.415277 
L 254.002139 291.969589 
L 255.542246 291.969128 
L 256.312299 292.87645 
L 257.852406 292.875316 
L 258.62246 292.630655 
L 260.162567 292.630495 
L 260.93262 291.844386 
L 264.782888 291.752229 
L 265.552941 291.60142 
L 267.093048 291.601965 
L 267.863102 291.361647 
L 269.403209 291.362148 
L 270.173262 291.125394 
L 274.023529 291.029305 
L 274.793583 290.819486 
L 278.64385 290.896443 
L 279.413904 291.413597 
L 280.954011 291.412959 
L 281.724064 292.184851 
L 283.264171 292.183838 
L 284.034225 291.863276 
L 285.574332 291.863077 
L 286.344385 291.27472 
L 287.884492 291.27528 
L 288.654545 292.137445 
L 290.194652 292.136217 
L 290.964706 292.521434 
L 292.504813 292.520309 
L 293.274866 295.237666 
L 294.814973 295.233537 
L 295.585027 296.685353 
L 297.125134 296.681838 
L 297.895187 300.780077 
L 299.435294 300.7736 
L 300.205348 302.883732 
L 301.745455 302.878276 
L 302.515508 311.602071 
L 304.055615 311.589129 
L 304.825668 313.755683 
L 306.365775 313.74572 
L 307.135829 321.10014 
L 308.675936 321.086558 
L 309.445989 323.190848 
L 310.986096 323.180553 
L 311.75615 328.352121 
L 313.296257 328.340111 
L 314.06631 328.151744 
L 315.606417 328.144232 
L 316.376471 329.702326 
L 317.916578 329.696 
L 318.686631 329.532418 
L 320.226738 329.529224 
L 320.996791 330.790741 
L 322.536898 330.787234 
L 323.306952 332.053776 
L 324.847059 332.05002 
L 325.617112 333.386633 
L 327.157219 333.382488 
L 327.927273 333.094608 
L 329.46738 333.092401 
L 330.237433 335.088367 
L 331.77754 335.084152 
L 332.547594 335.348469 
L 334.087701 335.345441 
L 334.857754 336.770436 
L 336.397861 336.766848 
L 337.167914 339.164993 
L 338.708021 339.159946 
L 339.478075 340.106538 
L 341.018182 340.101818 
L 341.788235 339.608875 
L 343.328342 339.606257 
L 344.098396 338.45702 
L 345.638503 338.456959 
L 346.408556 338.322014 
L 347.948663 338.322456 
L 348.718717 346.14 
L 350.258824 346.130328 
L 351.028877 342.906805 
L 352.568984 342.901652 
L 353.339037 341.712191 
L 354.879144 341.709817 
L 355.649198 340.120693 
L 357.189305 340.121928 
L 357.959358 335.104414 
L 359.499465 335.116311 
L 360.269519 333.035656 
L 364.119786 333.119624 
L 364.88984 330.75632 
L 366.429947 330.767516 
L 367.2 321.497786 
L 368.740107 321.525497 
L 369.51016 314.343444 
L 371.050267 314.375392 
L 371.820321 307.77715 
L 373.360428 307.808078 
L 374.130481 300.860265 
L 375.670588 300.889026 
L 376.440642 291.66377 
L 377.980749 291.691891 
L 378.750802 286.200457 
L 380.290909 286.220663 
L 381.060963 283.565747 
L 382.60107 283.576105 
L 383.371123 277.184615 
L 384.91123 277.196985 
L 385.681283 275.403572 
L 387.22139 275.411906 
L 387.991444 267.643659 
L 389.531551 267.656755 
L 390.301604 273.373592 
L 391.841711 273.370834 
L 392.611765 271.879862 
L 394.151872 271.880515 
L 394.921925 267.878047 
L 398.772193 267.837817 
L 399.542246 268.529986 
L 401.082353 268.530135 
L 401.852406 267.720082 
L 403.392513 267.71994 
L 404.162567 267.929177 
L 408.012834 267.849821 
L 408.782888 268.154435 
L 410.322995 268.153867 
L 411.093048 266.772045 
L 412.633155 266.772759 
L 413.403209 265.228078 
L 414.943316 265.229235 
L 415.713369 265.457098 
L 417.253476 265.457162 
L 418.023529 267.481964 
L 419.563636 267.479555 
L 420.33369 267.6232 
L 421.873797 267.623001 
L 422.64385 267.090648 
L 424.183957 267.091397 
L 424.954011 268.356471 
L 426.494118 268.35558 
L 427.264171 270.259992 
L 428.804278 270.257817 
L 429.574332 269.840113 
L 431.114438 269.839969 
L 431.884492 270.870173 
L 435.734759 270.96162 
L 436.504813 270.519827 
L 438.04492 270.519812 
L 438.814973 270.736739 
L 440.35508 270.736434 
L 441.125134 272.320213 
L 442.665241 272.318416 
L 443.435294 271.948094 
L 444.975401 271.947944 
L 445.745455 271.376799 
L 447.285562 271.377121 
L 448.055615 271.124663 
L 449.595722 271.125109 
L 450.365775 268.415547 
L 451.905882 268.418508 
L 452.675936 269.700846 
L 454.216043 269.700743 
L 454.986096 270.692923 
L 456.526203 270.691824 
L 457.296257 269.783029 
L 458.836364 269.783657 
L 459.606417 269.466328 
L 461.146524 269.466846 
L 461.916578 269.582643 
L 463.456684 269.582646 
L 464.226738 270.716274 
L 465.766845 270.715392 
L 466.536898 268.732287 
L 468.077005 268.733752 
L 468.847059 270.109295 
L 472.697326 270.111882 
L 473.46738 270.301909 
L 475.007487 270.301544 
L 475.77754 270.606536 
L 477.317647 270.606302 
L 478.087701 271.383426 
L 479.627807 271.382695 
L 480.397861 271.065374 
L 481.937968 271.065591 
L 482.708021 270.210823 
L 483.478075 274.895791 
L 485.018182 286.477034 
L 485.788235 290.866949 
L 486.558289 294.194635 
L 487.328342 296.545666 
L 488.098396 298.407484 
L 488.868449 299.794531 
L 489.638503 300.893576 
L 490.408556 300.934105 
L 491.17861 299.735218 
L 491.948663 297.248783 
L 492.718717 294.100718 
L 496.568984 276.141093 
L 497.339037 273.98131 
L 498.109091 272.400068 
L 498.109091 272.400068 
" style="fill:none;stroke:#c44e52;stroke-linecap:round;stroke-width:1.75;"/>
   </g>
   <g id="patch_8">
    <path d="M 72 352.44 
L 72 213.84 
" style="fill:none;"/>
   </g>
   <g id="patch_9">
    <path d="M 518.4 352.44 
L 518.4 213.84 
" style="fill:none;"/>
   </g>
   <g id="patch_10">
    <path d="M 72 352.44 
L 518.4 352.44 
" style="fill:none;"/>
   </g>
   <g id="patch_11">
    <path d="M 72 213.84 
L 518.4 213.84 
" style="fill:none;"/>
   </g>
   <g id="text_29">
    <!-- Courant numbers -->
    <defs>
     <path d="M 58.796875 25.09375 
L 68.265625 22.703125 
Q 65.28125 11.03125 57.546875 4.90625 
Q 49.8125 -1.21875 38.625 -1.21875 
Q 27.046875 -1.21875 19.796875 3.484375 
Q 12.546875 8.203125 8.765625 17.140625 
Q 4.984375 26.078125 4.984375 36.328125 
Q 4.984375 47.515625 9.25 55.828125 
Q 13.53125 64.15625 21.40625 68.46875 
Q 29.296875 72.796875 38.765625 72.796875 
Q 49.515625 72.796875 56.828125 67.328125 
Q 64.15625 61.859375 67.046875 51.953125 
L 57.71875 49.75 
Q 55.21875 57.5625 50.484375 61.125 
Q 45.75 64.703125 38.578125 64.703125 
Q 30.328125 64.703125 24.78125 60.734375 
Q 19.234375 56.78125 16.984375 50.109375 
Q 14.75 43.453125 14.75 36.375 
Q 14.75 27.25 17.40625 20.4375 
Q 20.0625 13.625 25.671875 10.25 
Q 31.296875 6.890625 37.84375 6.890625 
Q 45.796875 6.890625 51.3125 11.46875 
Q 56.84375 16.0625 58.796875 25.09375 
z
" id="ArialMT-67"/>
     <path d="M 3.328125 25.921875 
Q 3.328125 40.328125 11.328125 47.265625 
Q 18.015625 53.03125 27.640625 53.03125 
Q 38.328125 53.03125 45.109375 46.015625 
Q 51.90625 39.015625 51.90625 26.65625 
Q 51.90625 16.65625 48.90625 10.90625 
Q 45.90625 5.171875 40.15625 2 
Q 34.421875 -1.171875 27.640625 -1.171875 
Q 16.75 -1.171875 10.03125 5.8125 
Q 3.328125 12.796875 3.328125 25.921875 
z
M 12.359375 25.921875 
Q 12.359375 15.96875 16.703125 11.015625 
Q 21.046875 6.0625 27.640625 6.0625 
Q 34.1875 6.0625 38.53125 11.03125 
Q 42.875 16.015625 42.875 26.21875 
Q 42.875 35.84375 38.5 40.796875 
Q 34.125 45.75 27.640625 45.75 
Q 21.046875 45.75 16.703125 40.8125 
Q 12.359375 35.890625 12.359375 25.921875 
z
" id="ArialMT-111"/>
     <path d="M 40.578125 0 
L 40.578125 7.625 
Q 34.515625 -1.171875 24.125 -1.171875 
Q 19.53125 -1.171875 15.546875 0.578125 
Q 11.578125 2.34375 9.640625 5 
Q 7.71875 7.671875 6.9375 11.53125 
Q 6.390625 14.109375 6.390625 19.734375 
L 6.390625 51.859375 
L 15.1875 51.859375 
L 15.1875 23.09375 
Q 15.1875 16.21875 15.71875 13.8125 
Q 16.546875 10.359375 19.234375 8.375 
Q 21.921875 6.390625 25.875 6.390625 
Q 29.828125 6.390625 33.296875 8.421875 
Q 36.765625 10.453125 38.203125 13.9375 
Q 39.65625 17.4375 39.65625 24.078125 
L 39.65625 51.859375 
L 48.4375 51.859375 
L 48.4375 0 
z
" id="ArialMT-117"/>
     <path d="M 6.59375 0 
L 6.59375 51.859375 
L 14.5 51.859375 
L 14.5 44.484375 
Q 20.21875 53.03125 31 53.03125 
Q 35.6875 53.03125 39.625 51.34375 
Q 43.5625 49.65625 45.515625 46.921875 
Q 47.46875 44.1875 48.25 40.4375 
Q 48.734375 37.984375 48.734375 31.890625 
L 48.734375 0 
L 39.9375 0 
L 39.9375 31.546875 
Q 39.9375 36.921875 38.90625 39.578125 
Q 37.890625 42.234375 35.28125 43.8125 
Q 32.671875 45.40625 29.15625 45.40625 
Q 23.53125 45.40625 19.453125 41.84375 
Q 15.375 38.28125 15.375 28.328125 
L 15.375 0 
z
" id="ArialMT-110"/>
     <path d="M 6.59375 0 
L 6.59375 51.859375 
L 14.453125 51.859375 
L 14.453125 44.578125 
Q 16.890625 48.390625 20.9375 50.703125 
Q 25 53.03125 30.171875 53.03125 
Q 35.9375 53.03125 39.625 50.640625 
Q 43.3125 48.25 44.828125 43.953125 
Q 50.984375 53.03125 60.84375 53.03125 
Q 68.5625 53.03125 72.703125 48.75 
Q 76.859375 44.484375 76.859375 35.59375 
L 76.859375 0 
L 68.109375 0 
L 68.109375 32.671875 
Q 68.109375 37.9375 67.25 40.25 
Q 66.40625 42.578125 64.15625 43.984375 
Q 61.921875 45.40625 58.890625 45.40625 
Q 53.421875 45.40625 49.796875 41.765625 
Q 46.1875 38.140625 46.1875 30.125 
L 46.1875 0 
L 37.40625 0 
L 37.40625 33.6875 
Q 37.40625 39.546875 35.25 42.46875 
Q 33.109375 45.40625 28.21875 45.40625 
Q 24.515625 45.40625 21.359375 43.453125 
Q 18.21875 41.5 16.796875 37.734375 
Q 15.375 33.984375 15.375 26.90625 
L 15.375 0 
z
" id="ArialMT-109"/>
     <path d="M 14.703125 0 
L 6.546875 0 
L 6.546875 71.578125 
L 15.328125 71.578125 
L 15.328125 46.046875 
Q 20.90625 53.03125 29.546875 53.03125 
Q 34.328125 53.03125 38.59375 51.09375 
Q 42.875 49.171875 45.625 45.671875 
Q 48.390625 42.1875 49.953125 37.25 
Q 51.515625 32.328125 51.515625 26.703125 
Q 51.515625 13.375 44.921875 6.09375 
Q 38.328125 -1.171875 29.109375 -1.171875 
Q 19.921875 -1.171875 14.703125 6.5 
z
M 14.59375 26.3125 
Q 14.59375 17 17.140625 12.84375 
Q 21.296875 6.0625 28.375 6.0625 
Q 34.125 6.0625 38.328125 11.0625 
Q 42.53125 16.0625 42.53125 25.984375 
Q 42.53125 36.140625 38.5 40.96875 
Q 34.46875 45.796875 28.765625 45.796875 
Q 23 45.796875 18.796875 40.796875 
Q 14.59375 35.796875 14.59375 26.3125 
z
" id="ArialMT-98"/>
    </defs>
    <g style="fill:#262626;" transform="translate(248.847187 207.84)scale(0.12 -0.12)">
     <use xlink:href="#ArialMT-67"/>
     <use x="72.216797" xlink:href="#ArialMT-111"/>
     <use x="127.832031" xlink:href="#ArialMT-117"/>
     <use x="183.447266" xlink:href="#ArialMT-114"/>
     <use x="216.748047" xlink:href="#ArialMT-97"/>
     <use x="272.363281" xlink:href="#ArialMT-110"/>
     <use x="327.978516" xlink:href="#ArialMT-116"/>
     <use x="355.761719" xlink:href="#ArialMT-32"/>
     <use x="383.544922" xlink:href="#ArialMT-110"/>
     <use x="439.160156" xlink:href="#ArialMT-117"/>
     <use x="494.775391" xlink:href="#ArialMT-109"/>
     <use x="578.076172" xlink:href="#ArialMT-98"/>
     <use x="633.691406" xlink:href="#ArialMT-101"/>
     <use x="689.306641" xlink:href="#ArialMT-114"/>
     <use x="722.607422" xlink:href="#ArialMT-115"/>
    </g>
   </g>
  </g>
  <g id="text_30">
   <!-- Horizon: 44.0h, Time step: 300, Neighbourhoods: 2, case: energy -->
   <defs>
    <path d="M 8.015625 0 
L 8.015625 71.578125 
L 17.484375 71.578125 
L 17.484375 42.1875 
L 54.6875 42.1875 
L 54.6875 71.578125 
L 64.15625 71.578125 
L 64.15625 0 
L 54.6875 0 
L 54.6875 33.734375 
L 17.484375 33.734375 
L 17.484375 0 
z
" id="ArialMT-72"/>
    <path d="M 1.953125 0 
L 1.953125 7.125 
L 34.96875 45.015625 
Q 29.34375 44.734375 25.046875 44.734375 
L 3.90625 44.734375 
L 3.90625 51.859375 
L 46.296875 51.859375 
L 46.296875 46.046875 
L 18.21875 13.140625 
L 12.796875 7.125 
Q 18.703125 7.5625 23.875 7.5625 
L 47.859375 7.5625 
L 47.859375 0 
z
" id="ArialMT-122"/>
    <path d="M 9.03125 41.84375 
L 9.03125 51.859375 
L 19.046875 51.859375 
L 19.046875 41.84375 
z
M 9.03125 0 
L 9.03125 10.015625 
L 19.046875 10.015625 
L 19.046875 0 
z
" id="ArialMT-58"/>
    <path d="M 6.59375 0 
L 6.59375 71.578125 
L 15.375 71.578125 
L 15.375 45.90625 
Q 21.53125 53.03125 30.90625 53.03125 
Q 36.671875 53.03125 40.921875 50.75 
Q 45.171875 48.484375 47 44.484375 
Q 48.828125 40.484375 48.828125 32.859375 
L 48.828125 0 
L 40.046875 0 
L 40.046875 32.859375 
Q 40.046875 39.453125 37.1875 42.453125 
Q 34.328125 45.453125 29.109375 45.453125 
Q 25.203125 45.453125 21.75 43.421875 
Q 18.3125 41.40625 16.84375 37.9375 
Q 15.375 34.46875 15.375 28.375 
L 15.375 0 
z
" id="ArialMT-104"/>
    <path d="M 8.890625 0 
L 8.890625 10.015625 
L 18.890625 10.015625 
L 18.890625 0 
Q 18.890625 -5.515625 16.9375 -8.90625 
Q 14.984375 -12.3125 10.75 -14.15625 
L 8.296875 -10.40625 
Q 11.078125 -9.1875 12.390625 -6.8125 
Q 13.71875 -4.4375 13.875 0 
z
" id="ArialMT-44"/>
    <path d="M 25.921875 0 
L 25.921875 63.140625 
L 2.34375 63.140625 
L 2.34375 71.578125 
L 59.078125 71.578125 
L 59.078125 63.140625 
L 35.40625 63.140625 
L 35.40625 0 
z
" id="ArialMT-84"/>
    <path d="M 7.625 0 
L 7.625 71.578125 
L 17.328125 71.578125 
L 54.9375 15.375 
L 54.9375 71.578125 
L 64.015625 71.578125 
L 64.015625 0 
L 54.296875 0 
L 16.703125 56.25 
L 16.703125 0 
z
" id="ArialMT-78"/>
    <path d="M 4.984375 -4.296875 
L 13.53125 -5.5625 
Q 14.0625 -9.515625 16.5 -11.328125 
Q 19.78125 -13.765625 25.4375 -13.765625 
Q 31.546875 -13.765625 34.859375 -11.328125 
Q 38.1875 -8.890625 39.359375 -4.5 
Q 40.046875 -1.8125 39.984375 6.78125 
Q 34.234375 0 25.640625 0 
Q 14.9375 0 9.078125 7.71875 
Q 3.21875 15.4375 3.21875 26.21875 
Q 3.21875 33.640625 5.90625 39.90625 
Q 8.59375 46.1875 13.6875 49.609375 
Q 18.796875 53.03125 25.6875 53.03125 
Q 34.859375 53.03125 40.828125 45.609375 
L 40.828125 51.859375 
L 48.921875 51.859375 
L 48.921875 7.03125 
Q 48.921875 -5.078125 46.453125 -10.125 
Q 44 -15.1875 38.640625 -18.109375 
Q 33.296875 -21.046875 25.484375 -21.046875 
Q 16.21875 -21.046875 10.5 -16.875 
Q 4.78125 -12.703125 4.984375 -4.296875 
z
M 12.25 26.859375 
Q 12.25 16.65625 16.296875 11.96875 
Q 20.359375 7.28125 26.46875 7.28125 
Q 32.515625 7.28125 36.609375 11.9375 
Q 40.71875 16.609375 40.71875 26.5625 
Q 40.71875 36.078125 36.5 40.90625 
Q 32.28125 45.75 26.3125 45.75 
Q 20.453125 45.75 16.34375 40.984375 
Q 12.25 36.234375 12.25 26.859375 
z
" id="ArialMT-103"/>
    <path d="M 40.4375 19 
L 49.078125 17.875 
Q 47.65625 8.9375 41.8125 3.875 
Q 35.984375 -1.171875 27.484375 -1.171875 
Q 16.84375 -1.171875 10.375 5.78125 
Q 3.90625 12.75 3.90625 25.734375 
Q 3.90625 34.125 6.6875 40.421875 
Q 9.46875 46.734375 15.15625 49.875 
Q 20.84375 53.03125 27.546875 53.03125 
Q 35.984375 53.03125 41.359375 48.75 
Q 46.734375 44.484375 48.25 36.625 
L 39.703125 35.296875 
Q 38.484375 40.53125 35.375 43.15625 
Q 32.28125 45.796875 27.875 45.796875 
Q 21.234375 45.796875 17.078125 41.03125 
Q 12.9375 36.28125 12.9375 25.984375 
Q 12.9375 15.53125 16.9375 10.796875 
Q 20.953125 6.0625 27.390625 6.0625 
Q 32.5625 6.0625 36.03125 9.234375 
Q 39.5 12.40625 40.4375 19 
z
" id="ArialMT-99"/>
    <path d="M 6.203125 -19.96875 
L 5.21875 -11.71875 
Q 8.109375 -12.5 10.25 -12.5 
Q 13.1875 -12.5 14.9375 -11.515625 
Q 16.703125 -10.546875 17.828125 -8.796875 
Q 18.65625 -7.46875 20.515625 -2.25 
Q 20.75 -1.515625 21.296875 -0.09375 
L 1.609375 51.859375 
L 11.078125 51.859375 
L 21.875 21.828125 
Q 23.96875 16.109375 25.640625 9.8125 
Q 27.15625 15.875 29.25 21.625 
L 40.328125 51.859375 
L 49.125 51.859375 
L 29.390625 -0.875 
Q 26.21875 -9.421875 24.46875 -12.640625 
Q 22.125 -17 19.09375 -19.015625 
Q 16.0625 -21.046875 11.859375 -21.046875 
Q 9.328125 -21.046875 6.203125 -19.96875 
z
" id="ArialMT-121"/>
   </defs>
   <g style="fill:#262626;" transform="translate(114.248437 16.545)scale(0.12 -0.12)">
    <use xlink:href="#ArialMT-72"/>
    <use x="72.216797" xlink:href="#ArialMT-111"/>
    <use x="127.832031" xlink:href="#ArialMT-114"/>
    <use x="161.132812" xlink:href="#ArialMT-105"/>
    <use x="183.349609" xlink:href="#ArialMT-122"/>
    <use x="233.349609" xlink:href="#ArialMT-111"/>
    <use x="288.964844" xlink:href="#ArialMT-110"/>
    <use x="344.580078" xlink:href="#ArialMT-58"/>
    <use x="372.363281" xlink:href="#ArialMT-32"/>
    <use x="400.146484" xlink:href="#ArialMT-52"/>
    <use x="455.761719" xlink:href="#ArialMT-52"/>
    <use x="511.376953" xlink:href="#ArialMT-46"/>
    <use x="539.160156" xlink:href="#ArialMT-48"/>
    <use x="594.775391" xlink:href="#ArialMT-104"/>
    <use x="650.390625" xlink:href="#ArialMT-44"/>
    <use x="678.173828" xlink:href="#ArialMT-32"/>
    <use x="705.941406" xlink:href="#ArialMT-84"/>
    <use x="766.978516" xlink:href="#ArialMT-105"/>
    <use x="789.195312" xlink:href="#ArialMT-109"/>
    <use x="872.496094" xlink:href="#ArialMT-101"/>
    <use x="928.111328" xlink:href="#ArialMT-32"/>
    <use x="955.894531" xlink:href="#ArialMT-115"/>
    <use x="1005.894531" xlink:href="#ArialMT-116"/>
    <use x="1033.677734" xlink:href="#ArialMT-101"/>
    <use x="1089.292969" xlink:href="#ArialMT-112"/>
    <use x="1144.908203" xlink:href="#ArialMT-58"/>
    <use x="1172.691406" xlink:href="#ArialMT-32"/>
    <use x="1200.474609" xlink:href="#ArialMT-51"/>
    <use x="1256.089844" xlink:href="#ArialMT-48"/>
    <use x="1311.705078" xlink:href="#ArialMT-48"/>
    <use x="1367.320312" xlink:href="#ArialMT-44"/>
    <use x="1395.103516" xlink:href="#ArialMT-32"/>
    <use x="1422.886719" xlink:href="#ArialMT-78"/>
    <use x="1495.103516" xlink:href="#ArialMT-101"/>
    <use x="1550.71875" xlink:href="#ArialMT-105"/>
    <use x="1572.935547" xlink:href="#ArialMT-103"/>
    <use x="1628.550781" xlink:href="#ArialMT-104"/>
    <use x="1684.166016" xlink:href="#ArialMT-98"/>
    <use x="1739.78125" xlink:href="#ArialMT-111"/>
    <use x="1795.396484" xlink:href="#ArialMT-117"/>
    <use x="1851.011719" xlink:href="#ArialMT-114"/>
    <use x="1884.3125" xlink:href="#ArialMT-104"/>
    <use x="1939.927734" xlink:href="#ArialMT-111"/>
    <use x="1995.542969" xlink:href="#ArialMT-111"/>
    <use x="2051.158203" xlink:href="#ArialMT-100"/>
    <use x="2106.773438" xlink:href="#ArialMT-115"/>
    <use x="2156.773438" xlink:href="#ArialMT-58"/>
    <use x="2184.556641" xlink:href="#ArialMT-32"/>
    <use x="2212.339844" xlink:href="#ArialMT-50"/>
    <use x="2267.955078" xlink:href="#ArialMT-44"/>
    <use x="2295.738281" xlink:href="#ArialMT-32"/>
    <use x="2323.521484" xlink:href="#ArialMT-99"/>
    <use x="2373.521484" xlink:href="#ArialMT-97"/>
    <use x="2429.136719" xlink:href="#ArialMT-115"/>
    <use x="2479.136719" xlink:href="#ArialMT-101"/>
    <use x="2534.751953" xlink:href="#ArialMT-58"/>
    <use x="2562.535156" xlink:href="#ArialMT-32"/>
    <use x="2590.318359" xlink:href="#ArialMT-101"/>
    <use x="2645.933594" xlink:href="#ArialMT-110"/>
    <use x="2701.548828" xlink:href="#ArialMT-101"/>
    <use x="2757.164062" xlink:href="#ArialMT-114"/>
    <use x="2790.464844" xlink:href="#ArialMT-103"/>
    <use x="2846.080078" xlink:href="#ArialMT-121"/>
   </g>
  </g>
 </g>
 <defs>
  <clipPath id="p7657fe78b8">
   <rect height="138.6" width="446.4" x="72" y="47.52"/>
  </clipPath>
  <clipPath id="p3c81646a90">
   <rect height="138.6" width="446.4" x="72" y="213.84"/>
  </clipPath>
 </defs>
</svg>
