<?xml version="1.0" encoding="utf-8" standalone="no"?>
<!DOCTYPE svg PUBLIC "-//W3C//DTD SVG 1.1//EN"
  "http://www.w3.org/Graphics/SVG/1.1/DTD/svg11.dtd">
<!-- Created with matplotlib (https://matplotlib.org/) -->
<svg height="396pt" version="1.1" viewBox="0 0 576 396" width="576pt" xmlns="http://www.w3.org/2000/svg" xmlns:xlink="http://www.w3.org/1999/xlink">
 <defs>
  <style type="text/css">
*{stroke-linecap:butt;stroke-linejoin:round;}
  </style>
 </defs>
 <g id="figure_1">
  <g id="patch_1">
   <path d="M 0 396 
L 576 396 
L 576 0 
L 0 0 
z
" style="fill:#ffffff;"/>
  </g>
  <g id="axes_1">
   <g id="patch_2">
    <path d="M 72 186.12 
L 518.4 186.12 
L 518.4 47.52 
L 72 47.52 
z
" style="fill:#eaeaf2;"/>
   </g>
   <g id="matplotlib.axis_1">
    <g id="xtick_1">
     <g id="line2d_1">
      <path clip-path="url(#p67e853e68d)" d="M 92.290909 186.12 
L 92.290909 47.52 
" style="fill:none;stroke:#ffffff;stroke-linecap:round;"/>
     </g>
     <g id="line2d_2"/>
     <g id="text_1">
      <!-- 01-01 00 -->
      <defs>
       <path d="M 4.15625 35.296875 
Q 4.15625 48 6.765625 55.734375 
Q 9.375 63.484375 14.515625 67.671875 
Q 19.671875 71.875 27.484375 71.875 
Q 33.25 71.875 37.59375 69.546875 
Q 41.9375 67.234375 44.765625 62.859375 
Q 47.609375 58.5 49.21875 52.21875 
Q 50.828125 45.953125 50.828125 35.296875 
Q 50.828125 22.703125 48.234375 14.96875 
Q 45.65625 7.234375 40.5 3 
Q 35.359375 -1.21875 27.484375 -1.21875 
Q 17.140625 -1.21875 11.234375 6.203125 
Q 4.15625 15.140625 4.15625 35.296875 
z
M 13.1875 35.296875 
Q 13.1875 17.671875 17.3125 11.828125 
Q 21.4375 6 27.484375 6 
Q 33.546875 6 37.671875 11.859375 
Q 41.796875 17.71875 41.796875 35.296875 
Q 41.796875 52.984375 37.671875 58.78125 
Q 33.546875 64.59375 27.390625 64.59375 
Q 21.34375 64.59375 17.71875 59.46875 
Q 13.1875 52.9375 13.1875 35.296875 
z
" id="ArialMT-48"/>
       <path d="M 37.25 0 
L 28.46875 0 
L 28.46875 56 
Q 25.296875 52.984375 20.140625 49.953125 
Q 14.984375 46.921875 10.890625 45.40625 
L 10.890625 53.90625 
Q 18.265625 57.375 23.78125 62.296875 
Q 29.296875 67.234375 31.59375 71.875 
L 37.25 71.875 
z
" id="ArialMT-49"/>
       <path d="M 3.171875 21.484375 
L 3.171875 30.328125 
L 30.171875 30.328125 
L 30.171875 21.484375 
z
" id="ArialMT-45"/>
       <path id="ArialMT-32"/>
      </defs>
      <g style="fill:#262626;" transform="translate(72.55419 200.277812)scale(0.1 -0.1)">
       <use xlink:href="#ArialMT-48"/>
       <use x="55.615234" xlink:href="#ArialMT-49"/>
       <use x="111.230469" xlink:href="#ArialMT-45"/>
       <use x="144.53125" xlink:href="#ArialMT-48"/>
       <use x="200.146484" xlink:href="#ArialMT-49"/>
       <use x="255.761719" xlink:href="#ArialMT-32"/>
       <use x="283.544922" xlink:href="#ArialMT-48"/>
       <use x="339.160156" xlink:href="#ArialMT-48"/>
      </g>
     </g>
    </g>
    <g id="xtick_2">
     <g id="line2d_3">
      <path clip-path="url(#p67e853e68d)" d="M 143.035802 186.12 
L 143.035802 47.52 
" style="fill:none;stroke:#ffffff;stroke-linecap:round;"/>
     </g>
     <g id="line2d_4"/>
     <g id="text_2">
      <!-- 01-01 06 -->
      <defs>
       <path d="M 49.75 54.046875 
L 41.015625 53.375 
Q 39.84375 58.546875 37.703125 60.890625 
Q 34.125 64.65625 28.90625 64.65625 
Q 24.703125 64.65625 21.53125 62.3125 
Q 17.390625 59.28125 14.984375 53.46875 
Q 12.59375 47.65625 12.5 36.921875 
Q 15.671875 41.75 20.265625 44.09375 
Q 24.859375 46.4375 29.890625 46.4375 
Q 38.671875 46.4375 44.84375 39.96875 
Q 51.03125 33.5 51.03125 23.25 
Q 51.03125 16.5 48.125 10.71875 
Q 45.21875 4.9375 40.140625 1.859375 
Q 35.0625 -1.21875 28.609375 -1.21875 
Q 17.625 -1.21875 10.6875 6.859375 
Q 3.765625 14.9375 3.765625 33.5 
Q 3.765625 54.25 11.421875 63.671875 
Q 18.109375 71.875 29.4375 71.875 
Q 37.890625 71.875 43.28125 67.140625 
Q 48.6875 62.40625 49.75 54.046875 
z
M 13.875 23.1875 
Q 13.875 18.65625 15.796875 14.5 
Q 17.71875 10.359375 21.1875 8.171875 
Q 24.65625 6 28.46875 6 
Q 34.03125 6 38.03125 10.484375 
Q 42.046875 14.984375 42.046875 22.703125 
Q 42.046875 30.125 38.078125 34.390625 
Q 34.125 38.671875 28.125 38.671875 
Q 22.171875 38.671875 18.015625 34.390625 
Q 13.875 30.125 13.875 23.1875 
z
" id="ArialMT-54"/>
      </defs>
      <g style="fill:#262626;" transform="translate(123.299083 200.277812)scale(0.1 -0.1)">
       <use xlink:href="#ArialMT-48"/>
       <use x="55.615234" xlink:href="#ArialMT-49"/>
       <use x="111.230469" xlink:href="#ArialMT-45"/>
       <use x="144.53125" xlink:href="#ArialMT-48"/>
       <use x="200.146484" xlink:href="#ArialMT-49"/>
       <use x="255.761719" xlink:href="#ArialMT-32"/>
       <use x="283.544922" xlink:href="#ArialMT-48"/>
       <use x="339.160156" xlink:href="#ArialMT-54"/>
      </g>
     </g>
    </g>
    <g id="xtick_3">
     <g id="line2d_5">
      <path clip-path="url(#p67e853e68d)" d="M 193.780694 186.12 
L 193.780694 47.52 
" style="fill:none;stroke:#ffffff;stroke-linecap:round;"/>
     </g>
     <g id="line2d_6"/>
     <g id="text_3">
      <!-- 01-01 12 -->
      <defs>
       <path d="M 50.34375 8.453125 
L 50.34375 0 
L 3.03125 0 
Q 2.9375 3.171875 4.046875 6.109375 
Q 5.859375 10.9375 9.828125 15.625 
Q 13.8125 20.3125 21.34375 26.46875 
Q 33.015625 36.03125 37.109375 41.625 
Q 41.21875 47.21875 41.21875 52.203125 
Q 41.21875 57.421875 37.46875 61 
Q 33.734375 64.59375 27.734375 64.59375 
Q 21.390625 64.59375 17.578125 60.78125 
Q 13.765625 56.984375 13.71875 50.25 
L 4.6875 51.171875 
Q 5.609375 61.28125 11.65625 66.578125 
Q 17.71875 71.875 27.9375 71.875 
Q 38.234375 71.875 44.234375 66.15625 
Q 50.25 60.453125 50.25 52 
Q 50.25 47.703125 48.484375 43.546875 
Q 46.734375 39.40625 42.65625 34.8125 
Q 38.578125 30.21875 29.109375 22.21875 
Q 21.1875 15.578125 18.9375 13.203125 
Q 16.703125 10.84375 15.234375 8.453125 
z
" id="ArialMT-50"/>
      </defs>
      <g style="fill:#262626;" transform="translate(174.043975 200.277812)scale(0.1 -0.1)">
       <use xlink:href="#ArialMT-48"/>
       <use x="55.615234" xlink:href="#ArialMT-49"/>
       <use x="111.230469" xlink:href="#ArialMT-45"/>
       <use x="144.53125" xlink:href="#ArialMT-48"/>
       <use x="200.146484" xlink:href="#ArialMT-49"/>
       <use x="255.761719" xlink:href="#ArialMT-32"/>
       <use x="283.544922" xlink:href="#ArialMT-49"/>
       <use x="339.160156" xlink:href="#ArialMT-50"/>
      </g>
     </g>
    </g>
    <g id="xtick_4">
     <g id="line2d_7">
      <path clip-path="url(#p67e853e68d)" d="M 244.525587 186.12 
L 244.525587 47.52 
" style="fill:none;stroke:#ffffff;stroke-linecap:round;"/>
     </g>
     <g id="line2d_8"/>
     <g id="text_4">
      <!-- 01-01 18 -->
      <defs>
       <path d="M 17.671875 38.8125 
Q 12.203125 40.828125 9.5625 44.53125 
Q 6.9375 48.25 6.9375 53.421875 
Q 6.9375 61.234375 12.546875 66.546875 
Q 18.171875 71.875 27.484375 71.875 
Q 36.859375 71.875 42.578125 66.421875 
Q 48.296875 60.984375 48.296875 53.171875 
Q 48.296875 48.1875 45.671875 44.5 
Q 43.0625 40.828125 37.75 38.8125 
Q 44.34375 36.671875 47.78125 31.875 
Q 51.21875 27.09375 51.21875 20.453125 
Q 51.21875 11.28125 44.71875 5.03125 
Q 38.234375 -1.21875 27.640625 -1.21875 
Q 17.046875 -1.21875 10.546875 5.046875 
Q 4.046875 11.328125 4.046875 20.703125 
Q 4.046875 27.6875 7.59375 32.390625 
Q 11.140625 37.109375 17.671875 38.8125 
z
M 15.921875 53.71875 
Q 15.921875 48.640625 19.1875 45.40625 
Q 22.46875 42.1875 27.6875 42.1875 
Q 32.765625 42.1875 36.015625 45.375 
Q 39.265625 48.578125 39.265625 53.21875 
Q 39.265625 58.0625 35.90625 61.359375 
Q 32.5625 64.65625 27.59375 64.65625 
Q 22.5625 64.65625 19.234375 61.421875 
Q 15.921875 58.203125 15.921875 53.71875 
z
M 13.09375 20.65625 
Q 13.09375 16.890625 14.875 13.375 
Q 16.65625 9.859375 20.171875 7.921875 
Q 23.6875 6 27.734375 6 
Q 34.03125 6 38.125 10.046875 
Q 42.234375 14.109375 42.234375 20.359375 
Q 42.234375 26.703125 38.015625 30.859375 
Q 33.796875 35.015625 27.4375 35.015625 
Q 21.234375 35.015625 17.15625 30.90625 
Q 13.09375 26.8125 13.09375 20.65625 
z
" id="ArialMT-56"/>
      </defs>
      <g style="fill:#262626;" transform="translate(224.788868 200.277812)scale(0.1 -0.1)">
       <use xlink:href="#ArialMT-48"/>
       <use x="55.615234" xlink:href="#ArialMT-49"/>
       <use x="111.230469" xlink:href="#ArialMT-45"/>
       <use x="144.53125" xlink:href="#ArialMT-48"/>
       <use x="200.146484" xlink:href="#ArialMT-49"/>
       <use x="255.761719" xlink:href="#ArialMT-32"/>
       <use x="283.544922" xlink:href="#ArialMT-49"/>
       <use x="339.160156" xlink:href="#ArialMT-56"/>
      </g>
     </g>
    </g>
    <g id="xtick_5">
     <g id="line2d_9">
      <path clip-path="url(#p67e853e68d)" d="M 295.270479 186.12 
L 295.270479 47.52 
" style="fill:none;stroke:#ffffff;stroke-linecap:round;"/>
     </g>
     <g id="line2d_10"/>
     <g id="text_5">
      <!-- 01-02 00 -->
      <g style="fill:#262626;" transform="translate(275.53376 200.277812)scale(0.1 -0.1)">
       <use xlink:href="#ArialMT-48"/>
       <use x="55.615234" xlink:href="#ArialMT-49"/>
       <use x="111.230469" xlink:href="#ArialMT-45"/>
       <use x="144.53125" xlink:href="#ArialMT-48"/>
       <use x="200.146484" xlink:href="#ArialMT-50"/>
       <use x="255.761719" xlink:href="#ArialMT-32"/>
       <use x="283.544922" xlink:href="#ArialMT-48"/>
       <use x="339.160156" xlink:href="#ArialMT-48"/>
      </g>
     </g>
    </g>
    <g id="xtick_6">
     <g id="line2d_11">
      <path clip-path="url(#p67e853e68d)" d="M 346.015371 186.12 
L 346.015371 47.52 
" style="fill:none;stroke:#ffffff;stroke-linecap:round;"/>
     </g>
     <g id="line2d_12"/>
     <g id="text_6">
      <!-- 01-02 06 -->
      <g style="fill:#262626;" transform="translate(326.278653 200.277812)scale(0.1 -0.1)">
       <use xlink:href="#ArialMT-48"/>
       <use x="55.615234" xlink:href="#ArialMT-49"/>
       <use x="111.230469" xlink:href="#ArialMT-45"/>
       <use x="144.53125" xlink:href="#ArialMT-48"/>
       <use x="200.146484" xlink:href="#ArialMT-50"/>
       <use x="255.761719" xlink:href="#ArialMT-32"/>
       <use x="283.544922" xlink:href="#ArialMT-48"/>
       <use x="339.160156" xlink:href="#ArialMT-54"/>
      </g>
     </g>
    </g>
    <g id="xtick_7">
     <g id="line2d_13">
      <path clip-path="url(#p67e853e68d)" d="M 396.760264 186.12 
L 396.760264 47.52 
" style="fill:none;stroke:#ffffff;stroke-linecap:round;"/>
     </g>
     <g id="line2d_14"/>
     <g id="text_7">
      <!-- 01-02 12 -->
      <g style="fill:#262626;" transform="translate(377.023545 200.277812)scale(0.1 -0.1)">
       <use xlink:href="#ArialMT-48"/>
       <use x="55.615234" xlink:href="#ArialMT-49"/>
       <use x="111.230469" xlink:href="#ArialMT-45"/>
       <use x="144.53125" xlink:href="#ArialMT-48"/>
       <use x="200.146484" xlink:href="#ArialMT-50"/>
       <use x="255.761719" xlink:href="#ArialMT-32"/>
       <use x="283.544922" xlink:href="#ArialMT-49"/>
       <use x="339.160156" xlink:href="#ArialMT-50"/>
      </g>
     </g>
    </g>
    <g id="xtick_8">
     <g id="line2d_15">
      <path clip-path="url(#p67e853e68d)" d="M 447.505156 186.12 
L 447.505156 47.52 
" style="fill:none;stroke:#ffffff;stroke-linecap:round;"/>
     </g>
     <g id="line2d_16"/>
     <g id="text_8">
      <!-- 01-02 18 -->
      <g style="fill:#262626;" transform="translate(427.768438 200.277812)scale(0.1 -0.1)">
       <use xlink:href="#ArialMT-48"/>
       <use x="55.615234" xlink:href="#ArialMT-49"/>
       <use x="111.230469" xlink:href="#ArialMT-45"/>
       <use x="144.53125" xlink:href="#ArialMT-48"/>
       <use x="200.146484" xlink:href="#ArialMT-50"/>
       <use x="255.761719" xlink:href="#ArialMT-32"/>
       <use x="283.544922" xlink:href="#ArialMT-49"/>
       <use x="339.160156" xlink:href="#ArialMT-56"/>
      </g>
     </g>
    </g>
    <g id="xtick_9">
     <g id="line2d_17">
      <path clip-path="url(#p67e853e68d)" d="M 498.250049 186.12 
L 498.250049 47.52 
" style="fill:none;stroke:#ffffff;stroke-linecap:round;"/>
     </g>
     <g id="line2d_18"/>
     <g id="text_9">
      <!-- 01-03 00 -->
      <defs>
       <path d="M 4.203125 18.890625 
L 12.984375 20.0625 
Q 14.5 12.59375 18.140625 9.296875 
Q 21.78125 6 27 6 
Q 33.203125 6 37.46875 10.296875 
Q 41.75 14.59375 41.75 20.953125 
Q 41.75 27 37.796875 30.921875 
Q 33.84375 34.859375 27.734375 34.859375 
Q 25.25 34.859375 21.53125 33.890625 
L 22.515625 41.609375 
Q 23.390625 41.5 23.921875 41.5 
Q 29.546875 41.5 34.03125 44.421875 
Q 38.53125 47.359375 38.53125 53.46875 
Q 38.53125 58.296875 35.25 61.46875 
Q 31.984375 64.65625 26.8125 64.65625 
Q 21.6875 64.65625 18.265625 61.421875 
Q 14.84375 58.203125 13.875 51.765625 
L 5.078125 53.328125 
Q 6.6875 62.15625 12.390625 67.015625 
Q 18.109375 71.875 26.609375 71.875 
Q 32.46875 71.875 37.390625 69.359375 
Q 42.328125 66.84375 44.9375 62.5 
Q 47.5625 58.15625 47.5625 53.265625 
Q 47.5625 48.640625 45.0625 44.828125 
Q 42.578125 41.015625 37.703125 38.765625 
Q 44.046875 37.3125 47.5625 32.6875 
Q 51.078125 28.078125 51.078125 21.140625 
Q 51.078125 11.765625 44.234375 5.25 
Q 37.40625 -1.265625 26.953125 -1.265625 
Q 17.53125 -1.265625 11.296875 4.34375 
Q 5.078125 9.96875 4.203125 18.890625 
z
" id="ArialMT-51"/>
      </defs>
      <g style="fill:#262626;" transform="translate(478.51333 200.277812)scale(0.1 -0.1)">
       <use xlink:href="#ArialMT-48"/>
       <use x="55.615234" xlink:href="#ArialMT-49"/>
       <use x="111.230469" xlink:href="#ArialMT-45"/>
       <use x="144.53125" xlink:href="#ArialMT-48"/>
       <use x="200.146484" xlink:href="#ArialMT-51"/>
       <use x="255.761719" xlink:href="#ArialMT-32"/>
       <use x="283.544922" xlink:href="#ArialMT-48"/>
       <use x="339.160156" xlink:href="#ArialMT-48"/>
      </g>
     </g>
    </g>
   </g>
   <g id="matplotlib.axis_2">
    <g id="ytick_1">
     <g id="line2d_19">
      <path clip-path="url(#p67e853e68d)" d="M 72 156.609341 
L 518.4 156.609341 
" style="fill:none;stroke:#ffffff;stroke-linecap:round;"/>
     </g>
     <g id="line2d_20"/>
     <g id="text_10">
      <!-- 0.5 -->
      <defs>
       <path d="M 9.078125 0 
L 9.078125 10.015625 
L 19.09375 10.015625 
L 19.09375 0 
z
" id="ArialMT-46"/>
       <path d="M 4.15625 18.75 
L 13.375 19.53125 
Q 14.40625 12.796875 18.140625 9.390625 
Q 21.875 6 27.15625 6 
Q 33.5 6 37.890625 10.78125 
Q 42.28125 15.578125 42.28125 23.484375 
Q 42.28125 31 38.0625 35.34375 
Q 33.84375 39.703125 27 39.703125 
Q 22.75 39.703125 19.328125 37.765625 
Q 15.921875 35.84375 13.96875 32.765625 
L 5.71875 33.84375 
L 12.640625 70.609375 
L 48.25 70.609375 
L 48.25 62.203125 
L 19.671875 62.203125 
L 15.828125 42.96875 
Q 22.265625 47.46875 29.34375 47.46875 
Q 38.71875 47.46875 45.15625 40.96875 
Q 51.609375 34.46875 51.609375 24.265625 
Q 51.609375 14.546875 45.953125 7.46875 
Q 39.0625 -1.21875 27.15625 -1.21875 
Q 17.390625 -1.21875 11.203125 4.25 
Q 5.03125 9.71875 4.15625 18.75 
z
" id="ArialMT-53"/>
      </defs>
      <g style="fill:#262626;" transform="translate(51.1 160.188247)scale(0.1 -0.1)">
       <use xlink:href="#ArialMT-48"/>
       <use x="55.615234" xlink:href="#ArialMT-46"/>
       <use x="83.398438" xlink:href="#ArialMT-53"/>
      </g>
     </g>
    </g>
    <g id="ytick_2">
     <g id="line2d_21">
      <path clip-path="url(#p67e853e68d)" d="M 72 117.114301 
L 518.4 117.114301 
" style="fill:none;stroke:#ffffff;stroke-linecap:round;"/>
     </g>
     <g id="line2d_22"/>
     <g id="text_11">
      <!-- 1.0 -->
      <g style="fill:#262626;" transform="translate(51.1 120.693208)scale(0.1 -0.1)">
       <use xlink:href="#ArialMT-49"/>
       <use x="55.615234" xlink:href="#ArialMT-46"/>
       <use x="83.398438" xlink:href="#ArialMT-48"/>
      </g>
     </g>
    </g>
    <g id="ytick_3">
     <g id="line2d_23">
      <path clip-path="url(#p67e853e68d)" d="M 72 77.619262 
L 518.4 77.619262 
" style="fill:none;stroke:#ffffff;stroke-linecap:round;"/>
     </g>
     <g id="line2d_24"/>
     <g id="text_12">
      <!-- 1.5 -->
      <g style="fill:#262626;" transform="translate(51.1 81.198168)scale(0.1 -0.1)">
       <use xlink:href="#ArialMT-49"/>
       <use x="55.615234" xlink:href="#ArialMT-46"/>
       <use x="83.398438" xlink:href="#ArialMT-53"/>
      </g>
     </g>
    </g>
   </g>
   <g id="line2d_25">
    <path clip-path="url(#p67e853e68d)" d="M 92.290909 88.352939 
L 94.264322 91.471548 
L 95.11007 93.405002 
L 95.673902 95.503116 
L 96.51965 99.710486 
L 97.92923 109.917212 
L 98.634021 114.047602 
L 99.479769 116.266625 
L 100.325517 117.880529 
L 102.580846 121.285713 
L 106.104796 125.682594 
L 107.232461 126.786418 
L 109.346831 127.195085 
L 111.461202 128.680871 
L 113.71653 132.066763 
L 115.689943 133.797175 
L 118.509104 133.688906 
L 119.918684 133.681652 
L 121.892096 132.704673 
L 124.006467 156.255206 
L 126.68467 151.728271 
L 129.644788 147.774895 
L 130.349578 146.908169 
L 132.463949 140.321276 
L 135.001194 138.76089 
L 138.243228 135.904203 
L 138.807061 135.437111 
L 145.150172 109.594832 
L 147.828375 97.455138 
L 151.493284 83.018701 
L 151.634242 83.064863 
L 153.607654 83.683934 
L 155.862983 75.890502 
L 157.977353 70.336686 
L 159.950766 61.34594 
L 161.360346 67.519547 
L 162.065136 70.36216 
L 163.474717 69.479042 
L 164.602381 68.85609 
L 168.549206 65.871232 
L 169.958786 67.022331 
L 170.663576 67.593624 
L 172.636989 70.099648 
L 174.328485 68.911003 
L 174.892317 68.631106 
L 177.006688 68.575717 
L 178.9801 70.886367 
L 181.094471 71.221145 
L 183.490758 72.44667 
L 185.323212 72.848432 
L 187.437582 76.416137 
L 189.270037 76.129419 
L 190.115785 75.959545 
L 191.807282 75.641807 
L 194.06261 77.000044 
L 195.895065 79.140506 
L 198.009435 78.469799 
L 200.264764 81.607964 
L 201.533386 82.192932 
L 203.36584 82.909644 
L 204.493505 83.075691 
L 205.621169 83.075878 
L 206.466917 83.227782 
L 208.722246 85.094573 
L 210.836616 84.749141 
L 213.091945 85.411935 
L 215.065357 85.098064 
L 217.179728 83.514845 
L 219.294098 83.465309 
L 221.408469 84.74175 
L 224.650504 84.114478 
L 225.778168 83.910065 
L 228.174455 84.266731 
L 229.865951 84.700743 
L 231.980321 84.04888 
L 234.094692 84.230537 
L 236.209062 83.450474 
L 238.323433 84.098682 
L 240.437804 83.684415 
L 242.693132 84.342173 
L 245.230377 84.033972 
L 247.062831 83.474249 
L 248.895286 82.626809 
L 251.573488 82.569551 
L 253.124027 82.457338 
L 255.238397 83.063345 
L 257.9166 82.756616 
L 259.749054 82.801443 
L 262.850131 83.282755 
L 267.501746 83.952133 
L 267.92462 83.969601 
L 269.898033 83.472864 
L 272.012403 85.456532 
L 274.126774 85.72098 
L 276.382102 89.599703 
L 278.355515 90.401545 
L 280.610843 95.041461 
L 282.584256 96.644582 
L 284.839584 108.58055 
L 286.812997 112.561365 
L 289.068325 121.349951 
L 291.041738 123.684968 
L 293.156108 131.525239 
L 295.411437 131.678926 
L 297.38485 132.285364 
L 299.49922 130.567193 
L 301.754549 132.810491 
L 304.009877 133.756135 
L 305.842332 135.186125 
L 307.956702 134.602777 
L 310.071073 137.464688 
L 312.608317 136.630844 
L 314.58173 136.512432 
L 316.414184 136.934545 
L 318.528555 140.529651 
L 320.924841 139.721872 
L 323.039212 139.139296 
L 324.730708 137.858327 
L 324.871666 137.733997 
L 326.986037 159.835867 
L 333.470106 145.782713 
L 335.443519 138.986291 
L 338.26268 136.635987 
L 339.954176 134.511673 
L 341.78663 132.045349 
L 345.451539 115.927191 
L 346.86112 109.6384 
L 348.834532 99.755921 
L 350.807945 89.899696 
L 354.190937 74.489653 
L 354.613812 72.80345 
L 355.036686 71.925438 
L 355.600518 70.037556 
L 356.86914 64.427519 
L 357.292014 62.626672 
L 357.714888 61.783753 
L 358.137762 61.556188 
L 358.842553 61.572026 
L 359.265427 61.631532 
L 359.688301 61.460063 
L 360.534049 60.751986 
L 360.815965 60.503398 
L 362.789378 55.870937 
L 362.930336 55.414281 
L 363.776084 59.015007 
L 364.621832 61.617716 
L 365.044706 62.768406 
L 366.17237 60.758955 
L 366.877161 59.963734 
L 368.286741 58.968215 
L 369.273447 58.613476 
L 371.528776 58.764308 
L 372.233566 59.209949 
L 372.797398 59.325587 
L 373.36123 59.222171 
L 373.502188 59.165151 
L 374.347936 59.436959 
L 375.475601 59.756508 
L 375.616559 59.833184 
L 376.321349 58.929962 
L 377.026139 58.398262 
L 377.730929 58.12558 
L 378.999552 58.556008 
L 379.704342 58.548641 
L 379.8453 58.515318 
L 380.55009 58.993628 
L 381.395838 59.256242 
L 381.95967 59.343835 
L 383.087335 58.724409 
L 384.074041 58.473285 
L 385.483621 58.529096 
L 386.893202 58.543592 
L 387.879908 58.333097 
L 388.302782 58.1532 
L 389.430446 58.961365 
L 390.417152 59.72705 
L 391.262901 58.804788 
L 391.967691 58.352108 
L 392.531523 58.119727 
L 394.082061 58.419043 
L 394.92781 58.533786 
L 395.773558 58.791859 
L 396.619306 58.805856 
L 397.04218 58.863158 
L 399.015593 59.214181 
L 400.143257 58.612249 
L 400.989005 58.233716 
L 402.257627 59.224311 
L 403.103376 59.820533 
L 404.23104 59.425768 
L 405.217746 59.268821 
L 407.473075 59.820387 
L 409.728403 59.977859 
L 411.560858 60.955576 
L 412.82948 60.576985 
L 413.816186 60.453527 
L 416.071515 60.773394 
L 417.481095 60.632928 
L 418.044927 60.546731 
L 420.01834 59.306537 
L 421.005046 59.622443 
L 421.991752 59.686829 
L 422.273668 59.729375 
L 424.247081 60.351809 
L 425.515703 59.7535 
L 426.502409 59.486745 
L 432.704563 59.710166 
L 434.255101 59.428043 
L 439.32959 58.943823 
L 440.598213 59.379299 
L 441.303003 59.485666 
L 442.853541 58.989497 
L 443.417373 58.909913 
L 445.531744 59.22027 
L 446.941324 59.007382 
L 451.451981 58.627511 
L 451.874856 58.613185 
L 453.00252 58.817923 
L 454.975932 58.826538 
L 461.741918 58.60239 
L 466.252575 58.677262 
L 467.662155 58.758319 
L 471.327064 58.94439 
L 473.018561 58.631104 
L 474.146225 59.449955 
L 474.991973 59.954196 
L 477.106344 59.532959 
L 479.220714 62.830445 
L 480.348379 63.12188 
L 481.335085 63.502663 
L 483.590413 67.63942 
L 485.563826 69.179894 
L 487.819154 82.031138 
L 489.792567 86.534835 
L 492.047895 96.029894 
L 494.021308 98.764841 
L 496.276636 107.197042 
L 497.686217 107.437834 
L 498.109091 107.543713 
L 498.109091 107.543713 
" style="fill:none;stroke:#4c72b0;stroke-linecap:round;stroke-width:1.75;"/>
   </g>
   <g id="line2d_26">
    <path clip-path="url(#p67e853e68d)" d="M 92.290909 84.011305 
L 93.982405 85.240953 
L 94.40528 85.751791 
L 94.969112 87.2316 
L 95.532944 89.489516 
L 96.378692 94.109605 
L 96.801566 97.241786 
L 97.92923 105.50262 
L 98.634021 109.68334 
L 99.479769 111.923831 
L 100.325517 113.532966 
L 102.157972 116.244127 
L 106.104796 121.137323 
L 107.232461 122.199886 
L 109.769705 122.435869 
L 111.320244 122.748519 
L 113.998446 126.653718 
L 115.548985 128.524653 
L 117.945271 128.246198 
L 119.777726 128.617799 
L 121.892096 127.123375 
L 124.006467 153.645138 
L 129.362872 144.993021 
L 130.349578 143.604157 
L 132.463949 137.159554 
L 134.719278 136.068412 
L 136.974606 133.192368 
L 138.807061 131.901199 
L 142.190053 120.095799 
L 143.458676 115.140113 
L 146.559752 100.956564 
L 147.546459 96.648042 
L 149.801787 88.750071 
L 151.493284 81.749431 
L 153.607654 83.224633 
L 157.131605 71.550273 
L 158.118311 68.08593 
L 159.950766 59.851292 
L 161.360346 66.064182 
L 162.065136 68.93097 
L 163.474717 68.016019 
L 164.884297 67.4658 
L 166.434835 66.895129 
L 168.549206 64.669319 
L 169.958786 65.649618 
L 170.522618 65.976321 
L 172.636989 69.583707 
L 174.469443 67.867712 
L 174.892317 67.578179 
L 176.86573 66.897732 
L 178.9801 70.059211 
L 181.094471 70.694722 
L 183.349799 72.804307 
L 185.323212 72.960175 
L 187.437582 76.649794 
L 189.410995 75.878481 
L 190.961533 75.483848 
L 191.807282 75.364088 
L 194.06261 76.455075 
L 195.895065 78.252086 
L 198.009435 77.470622 
L 200.264764 80.964656 
L 201.533386 81.404402 
L 202.66105 81.873873 
L 203.647756 82.336395 
L 204.634463 82.589037 
L 205.762127 82.719483 
L 206.607875 83.024647 
L 208.581288 84.587185 
L 210.836616 84.093806 
L 212.950987 85.067346 
L 215.206315 84.624136 
L 217.461644 83.521993 
L 219.294098 83.046148 
L 221.408469 84.232239 
L 224.368588 83.834863 
L 225.778168 83.590522 
L 229.302119 83.909443 
L 230.429783 83.889815 
L 234.094692 83.585313 
L 236.068104 82.347253 
L 238.182475 83.288132 
L 240.437804 82.477083 
L 242.693132 82.990261 
L 245.512293 82.734588 
L 246.780915 82.45268 
L 248.895286 81.215213 
L 251.43253 81.234272 
L 253.124027 81.15038 
L 255.238397 82.018598 
L 257.634684 81.690879 
L 259.749054 81.801721 
L 262.004383 82.212913 
L 266.51504 82.572295 
L 267.92462 82.919486 
L 269.898033 82.516802 
L 272.012403 84.720632 
L 274.126774 84.949901 
L 276.241144 88.770261 
L 278.355515 89.345808 
L 280.610843 93.597774 
L 282.584256 94.930286 
L 284.839584 106.566178 
L 286.953955 111.421176 
L 289.068325 118.995792 
L 291.041738 121.176614 
L 293.156108 128.969621 
L 297.38485 129.342014 
L 299.49922 127.199503 
L 301.754549 129.454014 
L 304.009877 130.068074 
L 305.842332 131.39808 
L 307.956702 130.789409 
L 310.071073 133.582927 
L 313.313107 131.986477 
L 314.722688 131.480055 
L 316.414184 131.148873 
L 318.528555 135.310026 
L 320.642925 134.558703 
L 322.898254 134.298382 
L 324.58975 132.691581 
L 324.871666 132.379491 
L 326.986037 157.179925 
L 329.382323 151.921671 
L 332.4834 144.555328 
L 333.470106 142.292226 
L 335.443519 135.6956 
L 337.698847 134.194002 
L 339.249386 131.68826 
L 339.954176 130.61234 
L 341.645672 128.490454 
L 341.78663 128.305004 
L 346.438246 109.650266 
L 348.552616 99.079067 
L 350.526029 89.011336 
L 352.781357 79.819038 
L 354.613812 71.251309 
L 355.036686 70.495868 
L 355.600518 68.767774 
L 356.86914 63.645129 
L 357.292014 61.928061 
L 357.714888 61.14545 
L 358.137762 60.946053 
L 358.983511 60.828973 
L 359.406385 60.538752 
L 360.111175 59.659596 
L 361.097881 58.070076 
L 362.507462 55.068168 
L 362.930336 53.82 
L 363.776084 57.382487 
L 364.621832 59.952957 
L 365.044706 61.095498 
L 366.031412 59.282383 
L 366.736203 58.409986 
L 367.440993 57.92197 
L 368.145783 57.716803 
L 369.132489 57.682642 
L 369.555363 57.63088 
L 371.528776 57.272028 
L 372.233566 57.649616 
L 372.797398 57.705654 
L 373.36123 57.539725 
L 373.502188 57.466852 
L 374.347936 58.085656 
L 375.475601 58.893425 
L 375.616559 59.033129 
L 376.462307 57.732763 
L 377.167097 57.04799 
L 377.730929 56.668222 
L 378.999552 56.997491 
L 379.704342 56.925616 
L 379.8453 56.87869 
L 380.55009 57.462505 
L 381.395838 57.852968 
L 382.100628 57.972212 
L 383.087335 57.683278 
L 383.933083 57.659365 
L 384.496915 57.793141 
L 386.611285 58.365304 
L 387.73895 58.125075 
L 388.302782 57.870139 
L 389.430446 58.684335 
L 390.417152 59.465666 
L 391.262901 58.307112 
L 392.108649 57.551517 
L 392.531523 57.264394 
L 393.941103 57.559406 
L 395.350684 57.747939 
L 396.196432 57.765534 
L 397.324096 57.712993 
L 399.015593 57.807613 
L 400.143257 57.19638 
L 400.989005 56.805018 
L 402.398585 58.035642 
L 403.103376 58.610864 
L 404.23104 58.159614 
L 405.217746 57.951478 
L 407.332117 58.81991 
L 409.869361 58.999372 
L 411.701816 59.708566 
L 412.970438 59.365036 
L 413.816186 59.294129 
L 415.930557 59.901185 
L 417.340137 59.697885 
L 418.185885 59.558947 
L 420.01834 58.785658 
L 421.005046 58.895785 
L 421.991752 58.754508 
L 422.273668 58.762646 
L 424.247081 59.320125 
L 425.374745 58.826634 
L 426.502409 58.55529 
L 430.590192 58.771619 
L 432.845521 58.457985 
L 434.396059 58.621233 
L 434.959891 58.636896 
L 437.638094 57.721743 
L 439.188632 57.369609 
L 440.457255 57.948599 
L 441.162045 58.222771 
L 442.712583 57.528417 
L 443.417373 57.335278 
L 445.672702 57.444464 
L 447.082282 57.242911 
L 449.196653 57.234378 
L 449.901443 57.190889 
L 451.874856 56.760133 
L 453.00252 57.003948 
L 454.975932 57.06564 
L 457.231261 57.111271 
L 458.358925 57.161489 
L 460.050422 56.887351 
L 460.473296 56.938788 
L 462.446708 57.295013 
L 464.842995 57.251325 
L 467.521197 57.084734 
L 469.212694 57.199888 
L 471.186106 57.504347 
L 472.736645 57.113536 
L 472.877603 57.057901 
L 474.005267 58.073777 
L 474.991973 58.814865 
L 477.106344 58.275611 
L 479.220714 61.51252 
L 480.348379 61.714405 
L 481.335085 62.0139 
L 483.449455 65.222488 
L 485.563826 66.390007 
L 487.819154 79.094187 
L 489.792567 84.037606 
L 492.047895 92.627806 
L 494.021308 95.370499 
L 496.276636 103.960589 
L 497.686217 104.192704 
L 498.109091 104.295599 
L 498.109091 104.295599 
" style="fill:none;stroke:#55a868;stroke-linecap:round;stroke-width:1.75;"/>
   </g>
   <g id="line2d_27">
    <path clip-path="url(#p67e853e68d)" d="M 92.290909 139.767589 
L 94.546238 145.64482 
L 95.11007 145.879363 
L 95.673902 146.360764 
L 96.237734 147.161916 
L 96.51965 147.672965 
L 98.634021 155.573729 
L 99.620727 157.073076 
L 100.607433 158.162295 
L 101.171265 158.824398 
L 102.580846 160.339118 
L 103.849468 161.413327 
L 107.091503 163.838075 
L 109.205873 164.522806 
L 111.884076 168.041739 
L 113.575572 169.738466 
L 116.394733 169.863373 
L 117.804313 169.987872 
L 119.918684 169.399914 
L 121.892096 169.742458 
L 124.006467 177.521566 
L 126.261795 174.657691 
L 129.080956 173.823265 
L 130.349578 173.346007 
L 132.604907 168.895928 
L 134.578319 167.671139 
L 136.69269 168.372661 
L 138.807061 166.832131 
L 141.344305 157.405107 
L 144.163466 149.817426 
L 146.70071 143.104456 
L 147.546459 140.558888 
L 149.519871 133.675499 
L 151.634242 129.515202 
L 153.607654 128.200379 
L 155.722025 122.823322 
L 157.836395 123.051085 
L 159.950766 116.824481 
L 161.360346 120.52193 
L 162.065136 122.210755 
L 163.756633 121.6775 
L 164.179507 121.606048 
L 166.293877 118.582075 
L 168.549206 118.942974 
L 170.522618 120.427844 
L 172.918905 120.015262 
L 174.751359 120.235316 
L 177.006688 121.184497 
L 179.121058 121.144215 
L 181.376387 120.52303 
L 183.208841 119.308742 
L 185.605128 120.531907 
L 187.719499 122.305165 
L 189.833869 123.082965 
L 191.807282 122.862012 
L 194.06261 124.294035 
L 195.895065 126.376544 
L 198.150393 126.281745 
L 201.674344 128.103145 
L 202.379134 128.384975 
L 203.36584 128.225519 
L 205.903085 127.632335 
L 206.466917 127.594053 
L 208.722246 129.256986 
L 211.25949 129.236644 
L 213.514819 129.058024 
L 214.924399 129.084446 
L 217.03877 126.783626 
L 221.267511 128.995033 
L 225.778168 128.025701 
L 227.75158 128.205859 
L 229.724993 129.632555 
L 231.839363 127.909757 
L 234.23565 128.981456 
L 236.490979 129.355783 
L 238.605349 129.433626 
L 241.001636 130.093842 
L 242.552174 130.620691 
L 245.089419 130.232399 
L 246.921873 129.731428 
L 251.150614 129.55225 
L 258.198516 128.959856 
L 260.171928 128.882501 
L 262.004383 129.030524 
L 264.541627 129.672771 
L 265.81025 130.017275 
L 268.770368 129.482477 
L 270.038991 129.234761 
L 272.294319 129.941831 
L 274.126774 130.148465 
L 276.382102 132.569493 
L 278.355515 133.656695 
L 280.610843 137.371584 
L 282.584256 138.961296 
L 284.839584 146.952947 
L 286.812997 148.60971 
L 289.068325 155.544673 
L 291.041738 157.322164 
L 293.156108 162.235615 
L 295.270479 162.039266 
L 297.525808 163.563403 
L 299.640178 163.554067 
L 305.842332 167.243518 
L 307.956702 166.942597 
L 310.212031 168.866944 
L 312.326401 169.187986 
L 314.58173 170.779767 
L 316.555142 172.856154 
L 318.669513 173.699908 
L 321.065799 173.095996 
L 322.898254 172.302812 
L 324.871666 172.317859 
L 326.986037 179.82 
L 329.382323 176.450003 
L 331.496694 174.987246 
L 333.329148 173.413797 
L 335.443519 168.458619 
L 337.135015 167.158071 
L 337.557889 166.862052 
L 339.67226 167.345669 
L 341.78663 165.210719 
L 344.464833 154.600548 
L 346.579204 148.363844 
L 348.693574 142.352158 
L 350.526029 136.536416 
L 352.640399 128.674842 
L 355.741476 121.192469 
L 357.57393 115.327251 
L 357.996804 115.005529 
L 358.701595 114.920185 
L 359.406385 116.001282 
L 360.111175 116.648906 
L 360.815965 117.131576 
L 362.930336 113.410698 
L 363.776084 115.704317 
L 364.621832 117.372523 
L 365.044706 118.096371 
L 366.313328 116.770124 
L 367.018119 116.324089 
L 367.159077 116.261598 
L 368.286741 114.864816 
L 369.273447 113.86104 
L 372.515482 115.780406 
L 373.220272 115.935582 
L 373.643146 115.855594 
L 374.770811 114.982859 
L 375.757517 114.309322 
L 376.462307 114.291525 
L 377.167097 114.495384 
L 379.281468 115.329754 
L 380.409132 115.46565 
L 381.25488 115.370226 
L 381.95967 115.190271 
L 383.510209 113.882457 
L 385.624579 112.52991 
L 386.329369 112.199126 
L 387.879908 112.212772 
L 388.44374 112.221318 
L 390.417152 113.06681 
L 391.262901 113.031071 
L 392.108649 113.246649 
L 392.954397 113.476974 
L 394.363977 113.588754 
L 394.786851 113.66174 
L 395.914516 114.212142 
L 399.156551 115.265992 
L 400.566131 114.871666 
L 401.129963 114.812601 
L 402.680501 115.16802 
L 403.385292 115.206439 
L 404.653914 115.133075 
L 405.781578 115.060014 
L 407.895949 114.789967 
L 409.728403 114.973494 
L 411.560858 115.912074 
L 413.252354 115.600483 
L 415.225767 115.26241 
L 416.494389 115.131038 
L 418.044927 115.051242 
L 420.01834 113.390753 
L 421.286962 114.203955 
L 422.414626 114.69026 
L 424.247081 115.176929 
L 425.797619 114.590572 
L 426.784325 114.410769 
L 430.308276 114.372569 
L 430.73115 114.433694 
L 432.704563 115.284736 
L 434.818933 113.772676 
L 437.074262 115.1892 
L 439.752465 115.371862 
L 443.276415 115.467711 
L 445.531744 116.076627 
L 447.364198 115.968647 
L 447.928031 115.885468 
L 449.760485 115.638495 
L 452.861562 115.993437 
L 455.539764 115.825719 
L 456.526471 115.634098 
L 458.358925 115.25698 
L 461.037128 115.100261 
L 462.587666 114.814441 
L 466.534491 115.40648 
L 468.78982 115.806629 
L 471.327064 115.29031 
L 473.300477 115.065182 
L 474.710057 115.168725 
L 477.247302 115.330496 
L 479.220714 117.338532 
L 480.771253 117.891 
L 481.335085 118.133745 
L 483.590413 122.558944 
L 485.563826 124.532046 
L 487.819154 132.741868 
L 489.792567 134.517571 
L 492.047895 142.368447 
L 494.021308 144.02809 
L 496.276636 148.844542 
L 498.109091 149.083259 
L 498.109091 149.083259 
" style="fill:none;stroke:#c44e52;stroke-linecap:round;stroke-width:1.75;"/>
   </g>
   <g id="patch_3">
    <path d="M 72 186.12 
L 72 47.52 
" style="fill:none;"/>
   </g>
   <g id="patch_4">
    <path d="M 518.4 186.12 
L 518.4 47.52 
" style="fill:none;"/>
   </g>
   <g id="patch_5">
    <path d="M 72 186.12 
L 518.4 186.12 
" style="fill:none;"/>
   </g>
   <g id="patch_6">
    <path d="M 72 47.52 
L 518.4 47.52 
" style="fill:none;"/>
   </g>
   <g id="text_13">
    <!-- Water speed -->
    <defs>
     <path d="M 20.21875 0 
L 1.21875 71.578125 
L 10.9375 71.578125 
L 21.828125 24.65625 
Q 23.578125 17.28125 24.859375 10.015625 
Q 27.59375 21.484375 28.078125 23.25 
L 41.703125 71.578125 
L 53.125 71.578125 
L 63.375 35.359375 
Q 67.234375 21.875 68.953125 10.015625 
Q 70.3125 16.796875 72.515625 25.59375 
L 83.734375 71.578125 
L 93.265625 71.578125 
L 73.640625 0 
L 64.5 0 
L 49.421875 54.546875 
Q 47.515625 61.375 47.171875 62.9375 
Q 46.046875 58.015625 45.0625 54.546875 
L 29.890625 0 
z
" id="ArialMT-87"/>
     <path d="M 40.4375 6.390625 
Q 35.546875 2.25 31.03125 0.53125 
Q 26.515625 -1.171875 21.34375 -1.171875 
Q 12.796875 -1.171875 8.203125 3 
Q 3.609375 7.171875 3.609375 13.671875 
Q 3.609375 17.484375 5.34375 20.625 
Q 7.078125 23.78125 9.890625 25.6875 
Q 12.703125 27.59375 16.21875 28.5625 
Q 18.796875 29.25 24.03125 29.890625 
Q 34.671875 31.15625 39.703125 32.90625 
Q 39.75 34.71875 39.75 35.203125 
Q 39.75 40.578125 37.25 42.78125 
Q 33.890625 45.75 27.25 45.75 
Q 21.046875 45.75 18.09375 43.578125 
Q 15.140625 41.40625 13.71875 35.890625 
L 5.125 37.0625 
Q 6.296875 42.578125 8.984375 45.96875 
Q 11.671875 49.359375 16.75 51.1875 
Q 21.828125 53.03125 28.515625 53.03125 
Q 35.15625 53.03125 39.296875 51.46875 
Q 43.453125 49.90625 45.40625 47.53125 
Q 47.359375 45.171875 48.140625 41.546875 
Q 48.578125 39.3125 48.578125 33.453125 
L 48.578125 21.734375 
Q 48.578125 9.46875 49.140625 6.21875 
Q 49.703125 2.984375 51.375 0 
L 42.1875 0 
Q 40.828125 2.734375 40.4375 6.390625 
z
M 39.703125 26.03125 
Q 34.90625 24.078125 25.34375 22.703125 
Q 19.921875 21.921875 17.671875 20.9375 
Q 15.4375 19.96875 14.203125 18.09375 
Q 12.984375 16.21875 12.984375 13.921875 
Q 12.984375 10.40625 15.640625 8.0625 
Q 18.3125 5.71875 23.4375 5.71875 
Q 28.515625 5.71875 32.46875 7.9375 
Q 36.421875 10.15625 38.28125 14.015625 
Q 39.703125 17 39.703125 22.796875 
z
" id="ArialMT-97"/>
     <path d="M 25.78125 7.859375 
L 27.046875 0.09375 
Q 23.34375 -0.6875 20.40625 -0.6875 
Q 15.625 -0.6875 12.984375 0.828125 
Q 10.359375 2.34375 9.28125 4.8125 
Q 8.203125 7.28125 8.203125 15.1875 
L 8.203125 45.015625 
L 1.765625 45.015625 
L 1.765625 51.859375 
L 8.203125 51.859375 
L 8.203125 64.703125 
L 16.9375 69.96875 
L 16.9375 51.859375 
L 25.78125 51.859375 
L 25.78125 45.015625 
L 16.9375 45.015625 
L 16.9375 14.703125 
Q 16.9375 10.9375 17.40625 9.859375 
Q 17.875 8.796875 18.921875 8.15625 
Q 19.96875 7.515625 21.921875 7.515625 
Q 23.390625 7.515625 25.78125 7.859375 
z
" id="ArialMT-116"/>
     <path d="M 42.09375 16.703125 
L 51.171875 15.578125 
Q 49.03125 7.625 43.21875 3.21875 
Q 37.40625 -1.171875 28.375 -1.171875 
Q 17 -1.171875 10.328125 5.828125 
Q 3.65625 12.84375 3.65625 25.484375 
Q 3.65625 38.578125 10.390625 45.796875 
Q 17.140625 53.03125 27.875 53.03125 
Q 38.28125 53.03125 44.875 45.953125 
Q 51.46875 38.875 51.46875 26.03125 
Q 51.46875 25.25 51.421875 23.6875 
L 12.75 23.6875 
Q 13.234375 15.140625 17.578125 10.59375 
Q 21.921875 6.0625 28.421875 6.0625 
Q 33.25 6.0625 36.671875 8.59375 
Q 40.09375 11.140625 42.09375 16.703125 
z
M 13.234375 30.90625 
L 42.1875 30.90625 
Q 41.609375 37.453125 38.875 40.71875 
Q 34.671875 45.796875 27.984375 45.796875 
Q 21.921875 45.796875 17.796875 41.75 
Q 13.671875 37.703125 13.234375 30.90625 
z
" id="ArialMT-101"/>
     <path d="M 6.5 0 
L 6.5 51.859375 
L 14.40625 51.859375 
L 14.40625 44 
Q 17.4375 49.515625 20 51.265625 
Q 22.5625 53.03125 25.640625 53.03125 
Q 30.078125 53.03125 34.671875 50.203125 
L 31.640625 42.046875 
Q 28.421875 43.953125 25.203125 43.953125 
Q 22.3125 43.953125 20.015625 42.21875 
Q 17.71875 40.484375 16.75 37.40625 
Q 15.28125 32.71875 15.28125 27.15625 
L 15.28125 0 
z
" id="ArialMT-114"/>
     <path d="M 3.078125 15.484375 
L 11.765625 16.84375 
Q 12.5 11.625 15.84375 8.84375 
Q 19.1875 6.0625 25.203125 6.0625 
Q 31.25 6.0625 34.171875 8.515625 
Q 37.109375 10.984375 37.109375 14.3125 
Q 37.109375 17.28125 34.515625 19 
Q 32.71875 20.171875 25.53125 21.96875 
Q 15.875 24.421875 12.140625 26.203125 
Q 8.40625 27.984375 6.46875 31.125 
Q 4.546875 34.28125 4.546875 38.09375 
Q 4.546875 41.546875 6.125 44.5 
Q 7.71875 47.46875 10.453125 49.421875 
Q 12.5 50.921875 16.03125 51.96875 
Q 19.578125 53.03125 23.640625 53.03125 
Q 29.734375 53.03125 34.34375 51.265625 
Q 38.96875 49.515625 41.15625 46.5 
Q 43.359375 43.5 44.1875 38.484375 
L 35.59375 37.3125 
Q 35.015625 41.3125 32.203125 43.546875 
Q 29.390625 45.796875 24.265625 45.796875 
Q 18.21875 45.796875 15.625 43.796875 
Q 13.03125 41.796875 13.03125 39.109375 
Q 13.03125 37.40625 14.109375 36.03125 
Q 15.1875 34.625 17.484375 33.6875 
Q 18.796875 33.203125 25.25 31.453125 
Q 34.578125 28.953125 38.25 27.359375 
Q 41.9375 25.78125 44.03125 22.75 
Q 46.140625 19.734375 46.140625 15.234375 
Q 46.140625 10.84375 43.578125 6.953125 
Q 41.015625 3.078125 36.171875 0.953125 
Q 31.34375 -1.171875 25.25 -1.171875 
Q 15.140625 -1.171875 9.84375 3.03125 
Q 4.546875 7.234375 3.078125 15.484375 
z
" id="ArialMT-115"/>
     <path d="M 6.59375 -19.875 
L 6.59375 51.859375 
L 14.59375 51.859375 
L 14.59375 45.125 
Q 17.4375 49.078125 21 51.046875 
Q 24.5625 53.03125 29.640625 53.03125 
Q 36.28125 53.03125 41.359375 49.609375 
Q 46.4375 46.1875 49.015625 39.953125 
Q 51.609375 33.734375 51.609375 26.3125 
Q 51.609375 18.359375 48.75 11.984375 
Q 45.90625 5.609375 40.453125 2.21875 
Q 35.015625 -1.171875 29 -1.171875 
Q 24.609375 -1.171875 21.109375 0.6875 
Q 17.625 2.546875 15.375 5.375 
L 15.375 -19.875 
z
M 14.546875 25.640625 
Q 14.546875 15.625 18.59375 10.84375 
Q 22.65625 6.0625 28.421875 6.0625 
Q 34.28125 6.0625 38.453125 11.015625 
Q 42.625 15.96875 42.625 26.375 
Q 42.625 36.28125 38.546875 41.203125 
Q 34.46875 46.140625 28.8125 46.140625 
Q 23.1875 46.140625 18.859375 40.890625 
Q 14.546875 35.640625 14.546875 25.640625 
z
" id="ArialMT-112"/>
     <path d="M 40.234375 0 
L 40.234375 6.546875 
Q 35.296875 -1.171875 25.734375 -1.171875 
Q 19.53125 -1.171875 14.328125 2.25 
Q 9.125 5.671875 6.265625 11.796875 
Q 3.421875 17.921875 3.421875 25.875 
Q 3.421875 33.640625 6 39.96875 
Q 8.59375 46.296875 13.765625 49.65625 
Q 18.953125 53.03125 25.34375 53.03125 
Q 30.03125 53.03125 33.6875 51.046875 
Q 37.359375 49.078125 39.65625 45.90625 
L 39.65625 71.578125 
L 48.390625 71.578125 
L 48.390625 0 
z
M 12.453125 25.875 
Q 12.453125 15.921875 16.640625 10.984375 
Q 20.84375 6.0625 26.5625 6.0625 
Q 32.328125 6.0625 36.34375 10.765625 
Q 40.375 15.484375 40.375 25.140625 
Q 40.375 35.796875 36.265625 40.765625 
Q 32.171875 45.75 26.171875 45.75 
Q 20.3125 45.75 16.375 40.96875 
Q 12.453125 36.1875 12.453125 25.875 
z
" id="ArialMT-100"/>
    </defs>
    <g style="fill:#262626;" transform="translate(261.188437 41.52)scale(0.12 -0.12)">
     <use xlink:href="#ArialMT-87"/>
     <use x="94.337891" xlink:href="#ArialMT-97"/>
     <use x="149.953125" xlink:href="#ArialMT-116"/>
     <use x="177.736328" xlink:href="#ArialMT-101"/>
     <use x="233.351562" xlink:href="#ArialMT-114"/>
     <use x="266.652344" xlink:href="#ArialMT-32"/>
     <use x="294.435547" xlink:href="#ArialMT-115"/>
     <use x="344.435547" xlink:href="#ArialMT-112"/>
     <use x="400.050781" xlink:href="#ArialMT-101"/>
     <use x="455.666016" xlink:href="#ArialMT-101"/>
     <use x="511.28125" xlink:href="#ArialMT-100"/>
    </g>
   </g>
   <g id="legend_1">
    <g id="line2d_28">
     <path d="M 435.8125 143.2825 
L 455.8125 143.2825 
" style="fill:none;stroke:#4c72b0;stroke-linecap:round;stroke-width:1.75;"/>
    </g>
    <g id="line2d_29"/>
    <g id="text_14">
     <!-- dist_pipe0 -->
     <defs>
      <path d="M 6.640625 61.46875 
L 6.640625 71.578125 
L 15.4375 71.578125 
L 15.4375 61.46875 
z
M 6.640625 0 
L 6.640625 51.859375 
L 15.4375 51.859375 
L 15.4375 0 
z
" id="ArialMT-105"/>
      <path d="M -1.515625 -19.875 
L -1.515625 -13.53125 
L 56.734375 -13.53125 
L 56.734375 -19.875 
z
" id="ArialMT-95"/>
     </defs>
     <g style="fill:#262626;" transform="translate(463.8125 146.7825)scale(0.1 -0.1)">
      <use xlink:href="#ArialMT-100"/>
      <use x="55.615234" xlink:href="#ArialMT-105"/>
      <use x="77.832031" xlink:href="#ArialMT-115"/>
      <use x="127.832031" xlink:href="#ArialMT-116"/>
      <use x="155.615234" xlink:href="#ArialMT-95"/>
      <use x="211.230469" xlink:href="#ArialMT-112"/>
      <use x="266.845703" xlink:href="#ArialMT-105"/>
      <use x="289.0625" xlink:href="#ArialMT-112"/>
      <use x="344.677734" xlink:href="#ArialMT-101"/>
      <use x="400.292969" xlink:href="#ArialMT-48"/>
     </g>
    </g>
    <g id="line2d_30">
     <path d="M 435.8125 157.4575 
L 455.8125 157.4575 
" style="fill:none;stroke:#55a868;stroke-linecap:round;stroke-width:1.75;"/>
    </g>
    <g id="line2d_31"/>
    <g id="text_15">
     <!-- dist_pipe2 -->
     <g style="fill:#262626;" transform="translate(463.8125 160.9575)scale(0.1 -0.1)">
      <use xlink:href="#ArialMT-100"/>
      <use x="55.615234" xlink:href="#ArialMT-105"/>
      <use x="77.832031" xlink:href="#ArialMT-115"/>
      <use x="127.832031" xlink:href="#ArialMT-116"/>
      <use x="155.615234" xlink:href="#ArialMT-95"/>
      <use x="211.230469" xlink:href="#ArialMT-112"/>
      <use x="266.845703" xlink:href="#ArialMT-105"/>
      <use x="289.0625" xlink:href="#ArialMT-112"/>
      <use x="344.677734" xlink:href="#ArialMT-101"/>
      <use x="400.292969" xlink:href="#ArialMT-50"/>
     </g>
    </g>
    <g id="line2d_32">
     <path d="M 435.8125 171.6325 
L 455.8125 171.6325 
" style="fill:none;stroke:#c44e52;stroke-linecap:round;stroke-width:1.75;"/>
    </g>
    <g id="line2d_33"/>
    <g id="text_16">
     <!-- dist_pipe1 -->
     <g style="fill:#262626;" transform="translate(463.8125 175.1325)scale(0.1 -0.1)">
      <use xlink:href="#ArialMT-100"/>
      <use x="55.615234" xlink:href="#ArialMT-105"/>
      <use x="77.832031" xlink:href="#ArialMT-115"/>
      <use x="127.832031" xlink:href="#ArialMT-116"/>
      <use x="155.615234" xlink:href="#ArialMT-95"/>
      <use x="211.230469" xlink:href="#ArialMT-112"/>
      <use x="266.845703" xlink:href="#ArialMT-105"/>
      <use x="289.0625" xlink:href="#ArialMT-112"/>
      <use x="344.677734" xlink:href="#ArialMT-101"/>
      <use x="400.292969" xlink:href="#ArialMT-49"/>
     </g>
    </g>
   </g>
  </g>
  <g id="axes_2">
   <g id="patch_7">
    <path d="M 72 352.44 
L 518.4 352.44 
L 518.4 213.84 
L 72 213.84 
z
" style="fill:#eaeaf2;"/>
   </g>
   <g id="matplotlib.axis_3">
    <g id="xtick_10">
     <g id="line2d_34">
      <path clip-path="url(#p0f2d3aeaa7)" d="M 92.290909 352.44 
L 92.290909 213.84 
" style="fill:none;stroke:#ffffff;stroke-linecap:round;"/>
     </g>
     <g id="line2d_35"/>
     <g id="text_17">
      <!-- 01-01 00 -->
      <g style="fill:#262626;" transform="translate(72.55419 366.597813)scale(0.1 -0.1)">
       <use xlink:href="#ArialMT-48"/>
       <use x="55.615234" xlink:href="#ArialMT-49"/>
       <use x="111.230469" xlink:href="#ArialMT-45"/>
       <use x="144.53125" xlink:href="#ArialMT-48"/>
       <use x="200.146484" xlink:href="#ArialMT-49"/>
       <use x="255.761719" xlink:href="#ArialMT-32"/>
       <use x="283.544922" xlink:href="#ArialMT-48"/>
       <use x="339.160156" xlink:href="#ArialMT-48"/>
      </g>
     </g>
    </g>
    <g id="xtick_11">
     <g id="line2d_36">
      <path clip-path="url(#p0f2d3aeaa7)" d="M 143.035802 352.44 
L 143.035802 213.84 
" style="fill:none;stroke:#ffffff;stroke-linecap:round;"/>
     </g>
     <g id="line2d_37"/>
     <g id="text_18">
      <!-- 01-01 06 -->
      <g style="fill:#262626;" transform="translate(123.299083 366.597813)scale(0.1 -0.1)">
       <use xlink:href="#ArialMT-48"/>
       <use x="55.615234" xlink:href="#ArialMT-49"/>
       <use x="111.230469" xlink:href="#ArialMT-45"/>
       <use x="144.53125" xlink:href="#ArialMT-48"/>
       <use x="200.146484" xlink:href="#ArialMT-49"/>
       <use x="255.761719" xlink:href="#ArialMT-32"/>
       <use x="283.544922" xlink:href="#ArialMT-48"/>
       <use x="339.160156" xlink:href="#ArialMT-54"/>
      </g>
     </g>
    </g>
    <g id="xtick_12">
     <g id="line2d_38">
      <path clip-path="url(#p0f2d3aeaa7)" d="M 193.780694 352.44 
L 193.780694 213.84 
" style="fill:none;stroke:#ffffff;stroke-linecap:round;"/>
     </g>
     <g id="line2d_39"/>
     <g id="text_19">
      <!-- 01-01 12 -->
      <g style="fill:#262626;" transform="translate(174.043975 366.597813)scale(0.1 -0.1)">
       <use xlink:href="#ArialMT-48"/>
       <use x="55.615234" xlink:href="#ArialMT-49"/>
       <use x="111.230469" xlink:href="#ArialMT-45"/>
       <use x="144.53125" xlink:href="#ArialMT-48"/>
       <use x="200.146484" xlink:href="#ArialMT-49"/>
       <use x="255.761719" xlink:href="#ArialMT-32"/>
       <use x="283.544922" xlink:href="#ArialMT-49"/>
       <use x="339.160156" xlink:href="#ArialMT-50"/>
      </g>
     </g>
    </g>
    <g id="xtick_13">
     <g id="line2d_40">
      <path clip-path="url(#p0f2d3aeaa7)" d="M 244.525587 352.44 
L 244.525587 213.84 
" style="fill:none;stroke:#ffffff;stroke-linecap:round;"/>
     </g>
     <g id="line2d_41"/>
     <g id="text_20">
      <!-- 01-01 18 -->
      <g style="fill:#262626;" transform="translate(224.788868 366.597813)scale(0.1 -0.1)">
       <use xlink:href="#ArialMT-48"/>
       <use x="55.615234" xlink:href="#ArialMT-49"/>
       <use x="111.230469" xlink:href="#ArialMT-45"/>
       <use x="144.53125" xlink:href="#ArialMT-48"/>
       <use x="200.146484" xlink:href="#ArialMT-49"/>
       <use x="255.761719" xlink:href="#ArialMT-32"/>
       <use x="283.544922" xlink:href="#ArialMT-49"/>
       <use x="339.160156" xlink:href="#ArialMT-56"/>
      </g>
     </g>
    </g>
    <g id="xtick_14">
     <g id="line2d_42">
      <path clip-path="url(#p0f2d3aeaa7)" d="M 295.270479 352.44 
L 295.270479 213.84 
" style="fill:none;stroke:#ffffff;stroke-linecap:round;"/>
     </g>
     <g id="line2d_43"/>
     <g id="text_21">
      <!-- 01-02 00 -->
      <g style="fill:#262626;" transform="translate(275.53376 366.597813)scale(0.1 -0.1)">
       <use xlink:href="#ArialMT-48"/>
       <use x="55.615234" xlink:href="#ArialMT-49"/>
       <use x="111.230469" xlink:href="#ArialMT-45"/>
       <use x="144.53125" xlink:href="#ArialMT-48"/>
       <use x="200.146484" xlink:href="#ArialMT-50"/>
       <use x="255.761719" xlink:href="#ArialMT-32"/>
       <use x="283.544922" xlink:href="#ArialMT-48"/>
       <use x="339.160156" xlink:href="#ArialMT-48"/>
      </g>
     </g>
    </g>
    <g id="xtick_15">
     <g id="line2d_44">
      <path clip-path="url(#p0f2d3aeaa7)" d="M 346.015371 352.44 
L 346.015371 213.84 
" style="fill:none;stroke:#ffffff;stroke-linecap:round;"/>
     </g>
     <g id="line2d_45"/>
     <g id="text_22">
      <!-- 01-02 06 -->
      <g style="fill:#262626;" transform="translate(326.278653 366.597813)scale(0.1 -0.1)">
       <use xlink:href="#ArialMT-48"/>
       <use x="55.615234" xlink:href="#ArialMT-49"/>
       <use x="111.230469" xlink:href="#ArialMT-45"/>
       <use x="144.53125" xlink:href="#ArialMT-48"/>
       <use x="200.146484" xlink:href="#ArialMT-50"/>
       <use x="255.761719" xlink:href="#ArialMT-32"/>
       <use x="283.544922" xlink:href="#ArialMT-48"/>
       <use x="339.160156" xlink:href="#ArialMT-54"/>
      </g>
     </g>
    </g>
    <g id="xtick_16">
     <g id="line2d_46">
      <path clip-path="url(#p0f2d3aeaa7)" d="M 396.760264 352.44 
L 396.760264 213.84 
" style="fill:none;stroke:#ffffff;stroke-linecap:round;"/>
     </g>
     <g id="line2d_47"/>
     <g id="text_23">
      <!-- 01-02 12 -->
      <g style="fill:#262626;" transform="translate(377.023545 366.597813)scale(0.1 -0.1)">
       <use xlink:href="#ArialMT-48"/>
       <use x="55.615234" xlink:href="#ArialMT-49"/>
       <use x="111.230469" xlink:href="#ArialMT-45"/>
       <use x="144.53125" xlink:href="#ArialMT-48"/>
       <use x="200.146484" xlink:href="#ArialMT-50"/>
       <use x="255.761719" xlink:href="#ArialMT-32"/>
       <use x="283.544922" xlink:href="#ArialMT-49"/>
       <use x="339.160156" xlink:href="#ArialMT-50"/>
      </g>
     </g>
    </g>
    <g id="xtick_17">
     <g id="line2d_48">
      <path clip-path="url(#p0f2d3aeaa7)" d="M 447.505156 352.44 
L 447.505156 213.84 
" style="fill:none;stroke:#ffffff;stroke-linecap:round;"/>
     </g>
     <g id="line2d_49"/>
     <g id="text_24">
      <!-- 01-02 18 -->
      <g style="fill:#262626;" transform="translate(427.768438 366.597813)scale(0.1 -0.1)">
       <use xlink:href="#ArialMT-48"/>
       <use x="55.615234" xlink:href="#ArialMT-49"/>
       <use x="111.230469" xlink:href="#ArialMT-45"/>
       <use x="144.53125" xlink:href="#ArialMT-48"/>
       <use x="200.146484" xlink:href="#ArialMT-50"/>
       <use x="255.761719" xlink:href="#ArialMT-32"/>
       <use x="283.544922" xlink:href="#ArialMT-49"/>
       <use x="339.160156" xlink:href="#ArialMT-56"/>
      </g>
     </g>
    </g>
    <g id="xtick_18">
     <g id="line2d_50">
      <path clip-path="url(#p0f2d3aeaa7)" d="M 498.250049 352.44 
L 498.250049 213.84 
" style="fill:none;stroke:#ffffff;stroke-linecap:round;"/>
     </g>
     <g id="line2d_51"/>
     <g id="text_25">
      <!-- 01-03 00 -->
      <g style="fill:#262626;" transform="translate(478.51333 366.597813)scale(0.1 -0.1)">
       <use xlink:href="#ArialMT-48"/>
       <use x="55.615234" xlink:href="#ArialMT-49"/>
       <use x="111.230469" xlink:href="#ArialMT-45"/>
       <use x="144.53125" xlink:href="#ArialMT-48"/>
       <use x="200.146484" xlink:href="#ArialMT-51"/>
       <use x="255.761719" xlink:href="#ArialMT-32"/>
       <use x="283.544922" xlink:href="#ArialMT-48"/>
       <use x="339.160156" xlink:href="#ArialMT-48"/>
      </g>
     </g>
    </g>
   </g>
   <g id="matplotlib.axis_4">
    <g id="ytick_4">
     <g id="line2d_52">
      <path clip-path="url(#p0f2d3aeaa7)" d="M 72 338.426667 
L 518.4 338.426667 
" style="fill:none;stroke:#ffffff;stroke-linecap:round;"/>
     </g>
     <g id="line2d_53"/>
     <g id="text_26">
      <!-- 0.2 -->
      <g style="fill:#262626;" transform="translate(51.1 342.005574)scale(0.1 -0.1)">
       <use xlink:href="#ArialMT-48"/>
       <use x="55.615234" xlink:href="#ArialMT-46"/>
       <use x="83.398438" xlink:href="#ArialMT-50"/>
      </g>
     </g>
    </g>
    <g id="ytick_5">
     <g id="line2d_54">
      <path clip-path="url(#p0f2d3aeaa7)" d="M 72 308.855 
L 518.4 308.855 
" style="fill:none;stroke:#ffffff;stroke-linecap:round;"/>
     </g>
     <g id="line2d_55"/>
     <g id="text_27">
      <!-- 0.4 -->
      <defs>
       <path d="M 32.328125 0 
L 32.328125 17.140625 
L 1.265625 17.140625 
L 1.265625 25.203125 
L 33.9375 71.578125 
L 41.109375 71.578125 
L 41.109375 25.203125 
L 50.78125 25.203125 
L 50.78125 17.140625 
L 41.109375 17.140625 
L 41.109375 0 
z
M 32.328125 25.203125 
L 32.328125 57.46875 
L 9.90625 25.203125 
z
" id="ArialMT-52"/>
      </defs>
      <g style="fill:#262626;" transform="translate(51.1 312.433907)scale(0.1 -0.1)">
       <use xlink:href="#ArialMT-48"/>
       <use x="55.615234" xlink:href="#ArialMT-46"/>
       <use x="83.398438" xlink:href="#ArialMT-52"/>
      </g>
     </g>
    </g>
    <g id="ytick_6">
     <g id="line2d_56">
      <path clip-path="url(#p0f2d3aeaa7)" d="M 72 279.283334 
L 518.4 279.283334 
" style="fill:none;stroke:#ffffff;stroke-linecap:round;"/>
     </g>
     <g id="line2d_57"/>
     <g id="text_28">
      <!-- 0.6 -->
      <g style="fill:#262626;" transform="translate(51.1 282.86224)scale(0.1 -0.1)">
       <use xlink:href="#ArialMT-48"/>
       <use x="55.615234" xlink:href="#ArialMT-46"/>
       <use x="83.398438" xlink:href="#ArialMT-54"/>
      </g>
     </g>
    </g>
    <g id="ytick_7">
     <g id="line2d_58">
      <path clip-path="url(#p0f2d3aeaa7)" d="M 72 249.711667 
L 518.4 249.711667 
" style="fill:none;stroke:#ffffff;stroke-linecap:round;"/>
     </g>
     <g id="line2d_59"/>
     <g id="text_29">
      <!-- 0.8 -->
      <g style="fill:#262626;" transform="translate(51.1 253.290573)scale(0.1 -0.1)">
       <use xlink:href="#ArialMT-48"/>
       <use x="55.615234" xlink:href="#ArialMT-46"/>
       <use x="83.398438" xlink:href="#ArialMT-56"/>
      </g>
     </g>
    </g>
    <g id="ytick_8">
     <g id="line2d_60">
      <path clip-path="url(#p0f2d3aeaa7)" d="M 72 220.14 
L 518.4 220.14 
" style="fill:none;stroke:#ffffff;stroke-linecap:round;"/>
     </g>
     <g id="line2d_61"/>
     <g id="text_30">
      <!-- 1.0 -->
      <g style="fill:#262626;" transform="translate(51.1 223.718906)scale(0.1 -0.1)">
       <use xlink:href="#ArialMT-49"/>
       <use x="55.615234" xlink:href="#ArialMT-46"/>
       <use x="83.398438" xlink:href="#ArialMT-48"/>
      </g>
     </g>
    </g>
   </g>
   <g id="line2d_62">
    <path clip-path="url(#p0f2d3aeaa7)" d="M 92.290909 220.14 
L 498.109091 220.14 
" style="fill:none;stroke:#000000;stroke-dasharray:1.75,2.8875;stroke-dashoffset:0;stroke-width:1.75;"/>
    <defs>
     <path d="M 0 3.5 
C 0.928211 3.5 1.81853 3.131218 2.474874 2.474874 
C 3.131218 1.81853 3.5 0.928211 3.5 0 
C 3.5 -0.928211 3.131218 -1.81853 2.474874 -2.474874 
C 1.81853 -3.131218 0.928211 -3.5 0 -3.5 
C -0.928211 -3.5 -1.81853 -3.131218 -2.474874 -2.474874 
C -3.131218 -1.81853 -3.5 -0.928211 -3.5 0 
C -3.5 0.928211 -3.131218 1.81853 -2.474874 2.474874 
C -1.81853 3.131218 -0.928211 3.5 0 3.5 
z
" id="mb92571e95a"/>
    </defs>
    <g clip-path="url(#p0f2d3aeaa7)">
     <use x="92.290909" xlink:href="#mb92571e95a" y="220.14"/>
     <use x="498.109091" xlink:href="#mb92571e95a" y="220.14"/>
    </g>
   </g>
   <g id="line2d_63">
    <path clip-path="url(#p0f2d3aeaa7)" d="M 92.290909 302.93901 
L 94.264322 304.821997 
L 95.11007 305.989399 
L 95.673902 307.25622 
L 96.51965 309.796592 
L 97.92923 315.959318 
L 98.634021 318.45321 
L 99.479769 319.793035 
L 100.466475 320.902574 
L 103.849468 323.848145 
L 105.82288 325.29236 
L 107.232461 326.144789 
L 109.487789 326.446332 
L 111.461202 327.288642 
L 113.71653 329.333013 
L 115.689943 330.377819 
L 119.072936 330.32997 
L 120.059642 330.266996 
L 121.892096 329.718176 
L 124.006467 343.937771 
L 126.825628 341.085731 
L 129.926704 338.606261 
L 130.349578 338.294116 
L 132.463949 334.317011 
L 135.142152 333.295917 
L 138.666102 331.438881 
L 138.807061 331.367998 
L 145.150172 315.764668 
L 147.828375 308.434833 
L 151.634242 299.746118 
L 153.607654 300.119907 
L 155.862983 295.414305 
L 158.118311 291.677902 
L 159.950766 286.632433 
L 161.501304 290.706559 
L 162.065136 292.076343 
L 163.615675 291.504635 
L 164.602381 291.166992 
L 168.549206 289.364763 
L 170.38166 290.240158 
L 170.804534 290.510553 
L 172.777947 291.851833 
L 174.751359 291.037474 
L 177.006688 290.997706 
L 179.121058 292.403847 
L 181.376387 292.688609 
L 183.772674 293.377025 
L 185.46417 293.721377 
L 187.437582 295.731679 
L 191.807282 295.264145 
L 194.203568 296.18322 
L 196.036023 297.347895 
L 198.009435 296.971661 
L 200.405722 298.898022 
L 204.352547 299.761917 
L 205.762127 299.763349 
L 206.607875 299.920042 
L 208.722246 300.971638 
L 210.977574 300.791646 
L 213.232903 301.153308 
L 215.206315 300.90517 
L 217.179728 300.017813 
L 219.435056 300.044413 
L 221.408469 300.758607 
L 225.214336 300.284877 
L 225.919126 300.26609 
L 228.597329 300.550045 
L 230.006909 300.704092 
L 232.121279 300.351187 
L 234.23565 300.414133 
L 236.209062 299.978947 
L 238.464391 300.350637 
L 240.578762 300.149329 
L 242.83409 300.510604 
L 245.653251 300.267162 
L 247.344747 299.908322 
L 249.036244 299.483092 
L 252.13732 299.409859 
L 253.405943 299.433752 
L 255.379355 299.732266 
L 258.480432 299.552003 
L 260.171928 299.635141 
L 264.118753 299.96931 
L 268.62941 300.188546 
L 270.038991 300.074171 
L 272.153361 301.202099 
L 274.126774 301.349857 
L 276.382102 303.691794 
L 278.355515 304.175939 
L 280.610843 306.977477 
L 282.584256 307.945427 
L 284.839584 315.152254 
L 286.812997 317.555833 
L 289.068325 322.8623 
L 291.041738 324.272162 
L 293.156108 329.006045 
L 295.693353 329.148927 
L 297.525808 329.395133 
L 299.49922 328.427586 
L 301.754549 329.782069 
L 304.150835 330.419984 
L 305.98329 331.192728 
L 307.956702 330.864234 
L 310.212031 332.560326 
L 312.749275 332.079304 
L 314.722688 332.035907 
L 316.414184 332.272134 
L 318.528555 334.442826 
L 321.347715 333.896823 
L 323.18017 333.544763 
L 324.871666 332.754836 
L 326.986037 346.099741 
L 333.611064 337.305738 
L 335.443519 333.51096 
L 338.403638 331.993251 
L 340.658966 330.260804 
L 341.78663 329.320083 
L 345.451539 319.588088 
L 346.86112 315.790974 
L 348.834532 309.824025 
L 350.807945 303.872927 
L 354.190937 294.568486 
L 354.613812 293.550372 
L 355.036686 293.020237 
L 355.600518 291.880351 
L 356.86914 288.493062 
L 357.292014 287.405727 
L 357.714888 286.896781 
L 358.137762 286.759379 
L 359.124469 286.809501 
L 359.688301 286.70134 
L 360.815965 286.123714 
L 362.789378 283.326677 
L 362.930336 283.050953 
L 363.776084 285.225038 
L 364.76279 287.029674 
L 365.044706 287.491305 
L 366.17237 286.278017 
L 367.018119 285.729281 
L 368.850573 285.059452 
L 369.696321 284.99583 
L 371.669734 285.142137 
L 372.515482 285.394587 
L 373.220272 285.377416 
L 373.643146 285.354936 
L 374.911769 285.550861 
L 375.757517 285.592253 
L 376.603265 285.020099 
L 377.449013 284.742492 
L 377.871887 284.723068 
L 379.281468 284.964209 
L 380.127216 285.059157 
L 380.972964 285.311099 
L 381.95967 285.423581 
L 383.369251 284.989576 
L 384.496915 284.895592 
L 387.597992 284.865817 
L 388.44374 284.775226 
L 390.417152 285.654963 
L 391.262901 285.098109 
L 392.249607 284.749484 
L 392.813439 284.72971 
L 394.363977 284.864409 
L 394.92781 284.93448 
L 395.914516 285.101439 
L 398.592718 285.343327 
L 399.015593 285.345297 
L 400.425173 284.908044 
L 401.129963 284.8282 
L 402.821459 285.58775 
L 403.244334 285.672862 
L 404.653914 285.42398 
L 405.499662 285.427992 
L 407.754991 285.71791 
L 409.869361 285.852712 
L 411.701816 286.364374 
L 413.393312 286.104904 
L 414.098102 286.125629 
L 416.212473 286.272193 
L 418.467801 285.982631 
L 420.159298 285.437116 
L 421.42792 285.625992 
L 422.978458 285.788975 
L 424.388039 285.983472 
L 425.938577 285.584015 
L 426.784325 285.518078 
L 433.127437 285.583985 
L 435.241807 285.420469 
L 438.483842 285.196156 
L 439.32959 285.182057 
L 441.162045 285.543815 
L 443.135457 285.167271 
L 443.69929 285.191535 
L 445.81366 285.311727 
L 447.787073 285.188832 
L 452.29773 285.046351 
L 453.70731 285.107183 
L 457.654135 285.047683 
L 458.922757 284.968867 
L 460.755212 284.93183 
L 464.420121 285.037634 
L 468.366946 285.103036 
L 471.468022 285.164569 
L 473.018561 284.993241 
L 474.428141 285.591499 
L 475.132931 285.775445 
L 477.106344 285.537772 
L 479.220714 287.528764 
L 480.771253 287.799346 
L 481.335085 287.934643 
L 483.590413 290.432378 
L 485.563826 291.362503 
L 487.819154 299.121964 
L 489.792567 301.841255 
L 492.047895 307.574284 
L 494.021308 309.22562 
L 496.276636 314.316905 
L 498.109091 314.526222 
L 498.109091 314.526222 
" style="fill:none;stroke:#4c72b0;stroke-linecap:round;stroke-width:1.75;"/>
   </g>
   <g id="line2d_64">
    <path clip-path="url(#p0f2d3aeaa7)" d="M 92.290909 305.051586 
L 94.123364 305.82438 
L 94.546238 306.201567 
L 95.11007 307.133708 
L 95.673902 308.513577 
L 96.51965 311.19377 
L 97.788272 316.598768 
L 98.634021 319.467919 
L 99.479769 320.726084 
L 100.466475 321.754368 
L 103.00372 323.752122 
L 105.400006 325.479566 
L 107.232461 326.496684 
L 110.333538 326.693967 
L 111.461202 326.926153 
L 114.139404 329.09353 
L 115.689943 330.036016 
L 118.086229 329.908806 
L 119.918684 330.045982 
L 121.892096 329.261508 
L 124.006467 344.155013 
L 129.644788 339.070402 
L 130.490536 338.269223 
L 132.463949 334.897403 
L 134.719278 334.284664 
L 137.115564 332.616307 
L 138.807061 331.944532 
L 142.331011 325.025583 
L 143.599634 322.182959 
L 146.559752 314.567329 
L 147.546459 312.147845 
L 149.801787 307.712677 
L 151.493284 303.781413 
L 153.607654 304.609824 
L 157.272563 297.802461 
L 158.118311 296.108567 
L 159.950766 291.484341 
L 161.501304 295.298035 
L 162.065136 296.583106 
L 163.615675 296.032024 
L 165.871003 295.596165 
L 166.434835 295.439863 
L 168.549206 294.189942 
L 170.38166 294.879295 
L 170.663576 295.057098 
L 172.636989 296.949655 
L 174.751359 295.847438 
L 177.006688 295.562595 
L 179.121058 297.238142 
L 181.235429 297.652224 
L 183.349799 298.758208 
L 185.46417 298.984018 
L 187.437582 300.917672 
L 189.833869 300.418334 
L 191.94824 300.232015 
L 194.203568 300.885506 
L 196.036023 301.78664 
L 198.009435 301.378614 
L 200.264764 303.340716 
L 202.379134 303.744839 
L 203.506798 304.081201 
L 204.775421 304.254562 
L 206.185001 304.387404 
L 206.748833 304.560294 
L 208.722246 305.353981 
L 210.836616 305.097915 
L 213.091945 305.632284 
L 215.347273 305.353275 
L 217.884518 304.702952 
L 219.294098 304.509595 
L 221.408469 305.175653 
L 224.93242 304.874836 
L 225.919126 304.824917 
L 230.006909 305.001093 
L 234.376608 304.712974 
L 236.209062 304.152787 
L 238.323433 304.613989 
L 240.578762 304.211012 
L 242.975048 304.470033 
L 246.076125 304.279833 
L 247.062831 304.077033 
L 249.036244 303.484901 
L 252.13732 303.455314 
L 253.264985 303.480994 
L 255.379355 303.91886 
L 258.198516 303.751794 
L 260.171928 303.864808 
L 262.568215 304.060948 
L 266.937914 304.313396 
L 268.065578 304.423081 
L 270.038991 304.296573 
L 272.153361 305.459693 
L 274.126774 305.578662 
L 276.382102 307.7461 
L 278.355515 308.047218 
L 280.610843 310.434943 
L 282.584256 311.183225 
L 284.839584 317.717452 
L 286.953955 320.443815 
L 289.068325 324.6974 
L 291.041738 325.922058 
L 293.156108 330.298282 
L 297.525808 330.426554 
L 299.49922 329.304258 
L 301.754549 330.570297 
L 304.150835 330.973033 
L 305.98329 331.638921 
L 307.956702 331.320198 
L 310.071073 332.88892 
L 314.017898 331.824874 
L 315.145562 331.658857 
L 316.414184 331.522058 
L 318.528555 333.858786 
L 320.924841 333.422712 
L 323.039212 333.221602 
L 324.871666 332.213121 
L 326.986037 346.14 
L 329.382323 343.187186 
L 332.624358 338.881094 
L 333.470106 337.779695 
L 335.443519 334.075308 
L 337.839805 333.113027 
L 339.531302 331.54324 
L 339.954176 331.220764 
L 341.78663 329.925061 
L 346.579204 319.072075 
L 348.693574 313.089841 
L 350.526029 307.859393 
L 352.781357 302.697385 
L 354.75477 297.772597 
L 355.177644 297.261517 
L 355.741476 296.192318 
L 357.57393 292.309375 
L 357.996804 292.115057 
L 359.406385 291.87039 
L 360.252133 291.2617 
L 361.238839 290.327487 
L 362.507462 288.79834 
L 362.930336 288.097421 
L 363.776084 290.097964 
L 364.76279 291.756365 
L 365.044706 292.183034 
L 366.17237 291.048657 
L 367.018119 290.539965 
L 367.863867 290.318435 
L 368.991531 290.26228 
L 369.978237 290.192401 
L 371.669734 290.092341 
L 372.515482 290.279723 
L 373.220272 290.220519 
L 373.643146 290.213927 
L 375.616559 291.024895 
L 376.462307 290.294664 
L 377.308055 289.851617 
L 377.871887 289.723683 
L 379.281468 289.88285 
L 379.986258 289.893435 
L 380.832006 290.232718 
L 381.95967 290.461875 
L 383.228293 290.256628 
L 384.355957 290.304358 
L 386.893202 290.62989 
L 388.161824 290.413298 
L 388.44374 290.437583 
L 390.417152 291.267789 
L 391.403859 290.532634 
L 392.531523 290.031648 
L 394.363977 290.200713 
L 395.068768 290.268091 
L 396.196432 290.313067 
L 397.606012 290.294165 
L 399.156551 290.28469 
L 400.848047 289.81302 
L 400.989005 289.773682 
L 402.680501 290.591084 
L 403.244334 290.74785 
L 404.653914 290.476673 
L 405.499662 290.488032 
L 407.614033 290.91024 
L 410.010319 291.041523 
L 411.701816 291.404192 
L 413.393312 291.170303 
L 413.957144 291.196954 
L 416.071515 291.495639 
L 419.595466 290.994425 
L 420.300256 290.917512 
L 421.568878 290.918445 
L 422.555584 290.919797 
L 424.388039 291.144352 
L 425.938577 290.812675 
L 426.925283 290.774965 
L 431.013066 290.834499 
L 433.268395 290.714577 
L 435.382765 290.712056 
L 438.483842 290.160464 
L 439.188632 290.090732 
L 441.021087 290.538255 
L 441.303003 290.528561 
L 443.276415 290.064111 
L 445.954618 290.099202 
L 447.928031 290.000955 
L 450.747191 289.87529 
L 452.015814 289.773247 
L 453.425394 289.899755 
L 460.050422 289.819916 
L 460.614254 289.867564 
L 462.869582 290.053796 
L 465.970659 289.960305 
L 468.366946 289.93392 
L 469.635568 290.045824 
L 471.186106 290.166395 
L 473.018561 289.995982 
L 474.569099 290.72692 
L 475.132931 290.882679 
L 477.106344 290.599504 
L 479.220714 292.417216 
L 480.771253 292.599323 
L 481.476043 292.822195 
L 483.590413 294.548754 
L 485.563826 295.156208 
L 487.819154 302.29034 
L 489.792567 305.066355 
L 492.047895 309.89025 
L 494.021308 311.430431 
L 496.276636 316.254263 
L 498.109091 316.442391 
L 498.109091 316.442391 
" style="fill:none;stroke:#55a868;stroke-linecap:round;stroke-width:1.75;"/>
   </g>
   <g id="line2d_65">
    <path clip-path="url(#p0f2d3aeaa7)" d="M 92.290909 287.963949 
L 94.546238 296.313388 
L 95.11007 296.646589 
L 95.532944 297.118527 
L 96.096776 298.141917 
L 96.51965 299.194654 
L 98.634021 310.418808 
L 99.620727 312.548842 
L 100.607433 314.096232 
L 101.030307 314.791766 
L 102.29893 316.792011 
L 103.426594 318.235685 
L 106.104796 321.130656 
L 107.232461 322.223626 
L 109.205873 323.132238 
L 111.884076 328.13138 
L 113.434614 330.540384 
L 116.112817 330.666005 
L 117.804313 330.896138 
L 119.918684 330.060861 
L 121.892096 330.547492 
L 124.006467 341.598817 
L 126.261795 337.530276 
L 128.79904 336.498434 
L 130.349578 335.666843 
L 132.463949 329.475752 
L 134.578319 327.60489 
L 136.69269 328.601502 
L 138.807061 326.412961 
L 141.344305 313.02054 
L 144.163466 302.241165 
L 146.70071 292.704441 
L 147.546459 289.088102 
L 149.519871 279.309273 
L 151.634242 273.398983 
L 153.607654 271.531091 
L 155.722025 263.89222 
L 157.554479 264.155199 
L 157.836395 264.21579 
L 159.950766 255.370018 
L 161.360346 260.622767 
L 162.065136 263.021983 
L 163.615675 262.306986 
L 164.179507 262.16291 
L 166.293877 257.866928 
L 168.549206 258.379637 
L 170.240702 260.210667 
L 170.522618 260.489105 
L 172.777947 259.889633 
L 174.469443 260.156387 
L 174.892317 260.309244 
L 176.86573 261.559379 
L 178.9801 261.554707 
L 181.376387 260.62433 
L 183.208841 258.899262 
L 185.605128 260.636941 
L 187.578541 263.074011 
L 189.833869 264.261081 
L 191.666324 263.827774 
L 194.06261 265.981575 
L 195.895065 268.940075 
L 198.009435 268.708593 
L 201.25147 271.051816 
L 202.238176 271.798795 
L 203.083924 271.662529 
L 204.352547 271.140719 
L 205.621169 270.768698 
L 206.466917 270.669718 
L 208.722246 273.032151 
L 211.118532 273.029457 
L 213.232903 272.743743 
L 214.924399 272.787033 
L 217.03877 269.518392 
L 220.562721 272.142708 
L 221.267511 272.660009 
L 225.63721 271.27244 
L 227.75158 271.538876 
L 229.724993 273.5657 
L 231.839363 271.118222 
L 234.23565 272.640721 
L 236.35002 273.174468 
L 238.464391 273.236492 
L 240.860678 274.144243 
L 242.552174 274.969487 
L 244.807503 274.548266 
L 246.780915 273.7098 
L 250.72774 273.503006 
L 252.701153 273.225739 
L 256.366061 272.783866 
L 258.903306 272.520627 
L 259.890012 272.48931 
L 261.863425 272.668412 
L 264.259711 273.493864 
L 265.81025 274.112248 
L 268.488452 273.456 
L 270.038991 273.000576 
L 272.153361 273.980777 
L 274.126774 274.298623 
L 276.382102 277.738035 
L 278.355515 279.28256 
L 280.610843 284.560085 
L 282.584256 286.818495 
L 284.698626 298.004959 
L 286.812997 300.525434 
L 289.068325 310.37753 
L 291.041738 312.902707 
L 293.156108 319.88296 
L 295.270479 319.604018 
L 297.525808 321.76927 
L 299.49922 321.634939 
L 305.842332 326.997395 
L 307.956702 326.569894 
L 310.212031 329.303701 
L 312.326401 329.759787 
L 314.440772 331.80095 
L 316.555142 334.970938 
L 318.669513 336.16961 
L 320.924841 335.408764 
L 322.757296 334.183561 
L 324.871666 334.206214 
L 326.986037 344.864067 
L 329.382323 340.076509 
L 331.355736 338.172316 
L 333.329148 335.763149 
L 335.443519 328.723618 
L 336.994057 327.018006 
L 337.557889 326.455468 
L 339.390344 327.077034 
L 339.67226 327.142514 
L 341.645672 324.324753 
L 341.78663 324.109516 
L 344.464833 309.036266 
L 346.438246 300.71608 
L 348.552616 292.244097 
L 350.526029 283.373611 
L 352.640399 272.205132 
L 355.741476 261.575363 
L 357.57393 253.242991 
L 357.996804 252.785939 
L 358.560637 252.686445 
L 358.701595 252.664695 
L 359.406385 254.200547 
L 360.111175 255.120588 
L 360.815965 255.806289 
L 362.930336 250.520256 
L 363.776084 253.778667 
L 364.621832 256.148589 
L 365.044706 257.176917 
L 366.17237 255.46024 
L 366.877161 254.759721 
L 367.159077 254.570363 
L 368.145783 252.80827 
L 369.273447 251.16003 
L 372.515482 253.886761 
L 373.220272 254.107211 
L 373.502188 254.11897 
L 374.347936 253.250524 
L 375.616559 251.839893 
L 376.180391 251.741915 
L 376.744223 251.853449 
L 377.449013 252.242827 
L 378.717636 253.013226 
L 379.563384 253.318846 
L 380.691048 253.425742 
L 381.536796 253.209242 
L 381.95967 253.048391 
L 383.369251 251.335655 
L 384.919789 249.87885 
L 386.188411 248.782703 
L 387.597992 248.849433 
L 388.44374 248.830574 
L 389.85332 249.64989 
L 390.55811 249.997353 
L 391.262901 249.980942 
L 391.967691 250.21712 
L 392.954397 250.614411 
L 394.223019 250.77562 
L 394.786851 250.876897 
L 395.773558 251.581627 
L 399.015593 253.232486 
L 400.143257 252.737764 
L 401.129963 252.511858 
L 402.398585 252.942695 
L 403.244334 253.101013 
L 404.371998 252.965652 
L 405.781578 252.863342 
L 407.754991 252.470861 
L 409.587445 252.634092 
L 411.560858 254.073814 
L 412.970438 253.682999 
L 415.225767 253.150874 
L 416.212473 252.975755 
L 417.763011 253.01218 
L 417.903969 253.029525 
L 420.01834 250.491921 
L 421.286962 251.647189 
L 422.273668 252.280339 
L 424.247081 253.029436 
L 425.515703 252.322393 
L 426.502409 251.95663 
L 429.885402 251.876863 
L 430.73115 251.973567 
L 432.704563 253.182592 
L 434.677975 251.169735 
L 434.818933 251.034497 
L 437.074262 253.04687 
L 439.470548 253.296332 
L 440.880129 253.261479 
L 442.148751 253.290237 
L 443.417373 253.502749 
L 445.531744 254.307585 
L 447.082282 254.157176 
L 447.928031 254.036017 
L 449.619527 253.655845 
L 452.720604 254.19055 
L 454.4121 254.073755 
L 455.962638 253.888767 
L 458.217967 253.15052 
L 459.909463 253.170142 
L 460.473296 253.100435 
L 462.587666 252.514472 
L 466.111617 253.244216 
L 468.930778 253.8751 
L 471.045148 253.255803 
L 473.159519 252.837346 
L 474.287183 252.999908 
L 477.247302 253.2476 
L 479.220714 256.1003 
L 480.489337 256.719347 
L 481.335085 257.230012 
L 483.590413 263.516634 
L 485.563826 266.319705 
L 487.678196 277.815401 
L 489.651609 280.313166 
L 489.792567 280.505556 
L 492.047895 291.658836 
L 494.021308 294.016593 
L 496.276636 300.859045 
L 497.827175 301.129164 
L 498.109091 301.198176 
L 498.109091 301.198176 
" style="fill:none;stroke:#c44e52;stroke-linecap:round;stroke-width:1.75;"/>
   </g>
   <g id="patch_8">
    <path d="M 72 352.44 
L 72 213.84 
" style="fill:none;"/>
   </g>
   <g id="patch_9">
    <path d="M 518.4 352.44 
L 518.4 213.84 
" style="fill:none;"/>
   </g>
   <g id="patch_10">
    <path d="M 72 352.44 
L 518.4 352.44 
" style="fill:none;"/>
   </g>
   <g id="patch_11">
    <path d="M 72 213.84 
L 518.4 213.84 
" style="fill:none;"/>
   </g>
   <g id="text_31">
    <!-- Courant numbers -->
    <defs>
     <path d="M 58.796875 25.09375 
L 68.265625 22.703125 
Q 65.28125 11.03125 57.546875 4.90625 
Q 49.8125 -1.21875 38.625 -1.21875 
Q 27.046875 -1.21875 19.796875 3.484375 
Q 12.546875 8.203125 8.765625 17.140625 
Q 4.984375 26.078125 4.984375 36.328125 
Q 4.984375 47.515625 9.25 55.828125 
Q 13.53125 64.15625 21.40625 68.46875 
Q 29.296875 72.796875 38.765625 72.796875 
Q 49.515625 72.796875 56.828125 67.328125 
Q 64.15625 61.859375 67.046875 51.953125 
L 57.71875 49.75 
Q 55.21875 57.5625 50.484375 61.125 
Q 45.75 64.703125 38.578125 64.703125 
Q 30.328125 64.703125 24.78125 60.734375 
Q 19.234375 56.78125 16.984375 50.109375 
Q 14.75 43.453125 14.75 36.375 
Q 14.75 27.25 17.40625 20.4375 
Q 20.0625 13.625 25.671875 10.25 
Q 31.296875 6.890625 37.84375 6.890625 
Q 45.796875 6.890625 51.3125 11.46875 
Q 56.84375 16.0625 58.796875 25.09375 
z
" id="ArialMT-67"/>
     <path d="M 3.328125 25.921875 
Q 3.328125 40.328125 11.328125 47.265625 
Q 18.015625 53.03125 27.640625 53.03125 
Q 38.328125 53.03125 45.109375 46.015625 
Q 51.90625 39.015625 51.90625 26.65625 
Q 51.90625 16.65625 48.90625 10.90625 
Q 45.90625 5.171875 40.15625 2 
Q 34.421875 -1.171875 27.640625 -1.171875 
Q 16.75 -1.171875 10.03125 5.8125 
Q 3.328125 12.796875 3.328125 25.921875 
z
M 12.359375 25.921875 
Q 12.359375 15.96875 16.703125 11.015625 
Q 21.046875 6.0625 27.640625 6.0625 
Q 34.1875 6.0625 38.53125 11.03125 
Q 42.875 16.015625 42.875 26.21875 
Q 42.875 35.84375 38.5 40.796875 
Q 34.125 45.75 27.640625 45.75 
Q 21.046875 45.75 16.703125 40.8125 
Q 12.359375 35.890625 12.359375 25.921875 
z
" id="ArialMT-111"/>
     <path d="M 40.578125 0 
L 40.578125 7.625 
Q 34.515625 -1.171875 24.125 -1.171875 
Q 19.53125 -1.171875 15.546875 0.578125 
Q 11.578125 2.34375 9.640625 5 
Q 7.71875 7.671875 6.9375 11.53125 
Q 6.390625 14.109375 6.390625 19.734375 
L 6.390625 51.859375 
L 15.1875 51.859375 
L 15.1875 23.09375 
Q 15.1875 16.21875 15.71875 13.8125 
Q 16.546875 10.359375 19.234375 8.375 
Q 21.921875 6.390625 25.875 6.390625 
Q 29.828125 6.390625 33.296875 8.421875 
Q 36.765625 10.453125 38.203125 13.9375 
Q 39.65625 17.4375 39.65625 24.078125 
L 39.65625 51.859375 
L 48.4375 51.859375 
L 48.4375 0 
z
" id="ArialMT-117"/>
     <path d="M 6.59375 0 
L 6.59375 51.859375 
L 14.5 51.859375 
L 14.5 44.484375 
Q 20.21875 53.03125 31 53.03125 
Q 35.6875 53.03125 39.625 51.34375 
Q 43.5625 49.65625 45.515625 46.921875 
Q 47.46875 44.1875 48.25 40.4375 
Q 48.734375 37.984375 48.734375 31.890625 
L 48.734375 0 
L 39.9375 0 
L 39.9375 31.546875 
Q 39.9375 36.921875 38.90625 39.578125 
Q 37.890625 42.234375 35.28125 43.8125 
Q 32.671875 45.40625 29.15625 45.40625 
Q 23.53125 45.40625 19.453125 41.84375 
Q 15.375 38.28125 15.375 28.328125 
L 15.375 0 
z
" id="ArialMT-110"/>
     <path d="M 6.59375 0 
L 6.59375 51.859375 
L 14.453125 51.859375 
L 14.453125 44.578125 
Q 16.890625 48.390625 20.9375 50.703125 
Q 25 53.03125 30.171875 53.03125 
Q 35.9375 53.03125 39.625 50.640625 
Q 43.3125 48.25 44.828125 43.953125 
Q 50.984375 53.03125 60.84375 53.03125 
Q 68.5625 53.03125 72.703125 48.75 
Q 76.859375 44.484375 76.859375 35.59375 
L 76.859375 0 
L 68.109375 0 
L 68.109375 32.671875 
Q 68.109375 37.9375 67.25 40.25 
Q 66.40625 42.578125 64.15625 43.984375 
Q 61.921875 45.40625 58.890625 45.40625 
Q 53.421875 45.40625 49.796875 41.765625 
Q 46.1875 38.140625 46.1875 30.125 
L 46.1875 0 
L 37.40625 0 
L 37.40625 33.6875 
Q 37.40625 39.546875 35.25 42.46875 
Q 33.109375 45.40625 28.21875 45.40625 
Q 24.515625 45.40625 21.359375 43.453125 
Q 18.21875 41.5 16.796875 37.734375 
Q 15.375 33.984375 15.375 26.90625 
L 15.375 0 
z
" id="ArialMT-109"/>
     <path d="M 14.703125 0 
L 6.546875 0 
L 6.546875 71.578125 
L 15.328125 71.578125 
L 15.328125 46.046875 
Q 20.90625 53.03125 29.546875 53.03125 
Q 34.328125 53.03125 38.59375 51.09375 
Q 42.875 49.171875 45.625 45.671875 
Q 48.390625 42.1875 49.953125 37.25 
Q 51.515625 32.328125 51.515625 26.703125 
Q 51.515625 13.375 44.921875 6.09375 
Q 38.328125 -1.171875 29.109375 -1.171875 
Q 19.921875 -1.171875 14.703125 6.5 
z
M 14.59375 26.3125 
Q 14.59375 17 17.140625 12.84375 
Q 21.296875 6.0625 28.375 6.0625 
Q 34.125 6.0625 38.328125 11.0625 
Q 42.53125 16.0625 42.53125 25.984375 
Q 42.53125 36.140625 38.5 40.96875 
Q 34.46875 45.796875 28.765625 45.796875 
Q 23 45.796875 18.796875 40.796875 
Q 14.59375 35.796875 14.59375 26.3125 
z
" id="ArialMT-98"/>
    </defs>
    <g style="fill:#262626;" transform="translate(248.847187 207.84)scale(0.12 -0.12)">
     <use xlink:href="#ArialMT-67"/>
     <use x="72.216797" xlink:href="#ArialMT-111"/>
     <use x="127.832031" xlink:href="#ArialMT-117"/>
     <use x="183.447266" xlink:href="#ArialMT-114"/>
     <use x="216.748047" xlink:href="#ArialMT-97"/>
     <use x="272.363281" xlink:href="#ArialMT-110"/>
     <use x="327.978516" xlink:href="#ArialMT-116"/>
     <use x="355.761719" xlink:href="#ArialMT-32"/>
     <use x="383.544922" xlink:href="#ArialMT-110"/>
     <use x="439.160156" xlink:href="#ArialMT-117"/>
     <use x="494.775391" xlink:href="#ArialMT-109"/>
     <use x="578.076172" xlink:href="#ArialMT-98"/>
     <use x="633.691406" xlink:href="#ArialMT-101"/>
     <use x="689.306641" xlink:href="#ArialMT-114"/>
     <use x="722.607422" xlink:href="#ArialMT-115"/>
    </g>
   </g>
  </g>
  <g id="text_32">
   <!-- Horizon: 48.0h, Time step: 60, Neighbourhoods: 2, case: cost -->
   <defs>
    <path d="M 8.015625 0 
L 8.015625 71.578125 
L 17.484375 71.578125 
L 17.484375 42.1875 
L 54.6875 42.1875 
L 54.6875 71.578125 
L 64.15625 71.578125 
L 64.15625 0 
L 54.6875 0 
L 54.6875 33.734375 
L 17.484375 33.734375 
L 17.484375 0 
z
" id="ArialMT-72"/>
    <path d="M 1.953125 0 
L 1.953125 7.125 
L 34.96875 45.015625 
Q 29.34375 44.734375 25.046875 44.734375 
L 3.90625 44.734375 
L 3.90625 51.859375 
L 46.296875 51.859375 
L 46.296875 46.046875 
L 18.21875 13.140625 
L 12.796875 7.125 
Q 18.703125 7.5625 23.875 7.5625 
L 47.859375 7.5625 
L 47.859375 0 
z
" id="ArialMT-122"/>
    <path d="M 9.03125 41.84375 
L 9.03125 51.859375 
L 19.046875 51.859375 
L 19.046875 41.84375 
z
M 9.03125 0 
L 9.03125 10.015625 
L 19.046875 10.015625 
L 19.046875 0 
z
" id="ArialMT-58"/>
    <path d="M 6.59375 0 
L 6.59375 71.578125 
L 15.375 71.578125 
L 15.375 45.90625 
Q 21.53125 53.03125 30.90625 53.03125 
Q 36.671875 53.03125 40.921875 50.75 
Q 45.171875 48.484375 47 44.484375 
Q 48.828125 40.484375 48.828125 32.859375 
L 48.828125 0 
L 40.046875 0 
L 40.046875 32.859375 
Q 40.046875 39.453125 37.1875 42.453125 
Q 34.328125 45.453125 29.109375 45.453125 
Q 25.203125 45.453125 21.75 43.421875 
Q 18.3125 41.40625 16.84375 37.9375 
Q 15.375 34.46875 15.375 28.375 
L 15.375 0 
z
" id="ArialMT-104"/>
    <path d="M 8.890625 0 
L 8.890625 10.015625 
L 18.890625 10.015625 
L 18.890625 0 
Q 18.890625 -5.515625 16.9375 -8.90625 
Q 14.984375 -12.3125 10.75 -14.15625 
L 8.296875 -10.40625 
Q 11.078125 -9.1875 12.390625 -6.8125 
Q 13.71875 -4.4375 13.875 0 
z
" id="ArialMT-44"/>
    <path d="M 25.921875 0 
L 25.921875 63.140625 
L 2.34375 63.140625 
L 2.34375 71.578125 
L 59.078125 71.578125 
L 59.078125 63.140625 
L 35.40625 63.140625 
L 35.40625 0 
z
" id="ArialMT-84"/>
    <path d="M 7.625 0 
L 7.625 71.578125 
L 17.328125 71.578125 
L 54.9375 15.375 
L 54.9375 71.578125 
L 64.015625 71.578125 
L 64.015625 0 
L 54.296875 0 
L 16.703125 56.25 
L 16.703125 0 
z
" id="ArialMT-78"/>
    <path d="M 4.984375 -4.296875 
L 13.53125 -5.5625 
Q 14.0625 -9.515625 16.5 -11.328125 
Q 19.78125 -13.765625 25.4375 -13.765625 
Q 31.546875 -13.765625 34.859375 -11.328125 
Q 38.1875 -8.890625 39.359375 -4.5 
Q 40.046875 -1.8125 39.984375 6.78125 
Q 34.234375 0 25.640625 0 
Q 14.9375 0 9.078125 7.71875 
Q 3.21875 15.4375 3.21875 26.21875 
Q 3.21875 33.640625 5.90625 39.90625 
Q 8.59375 46.1875 13.6875 49.609375 
Q 18.796875 53.03125 25.6875 53.03125 
Q 34.859375 53.03125 40.828125 45.609375 
L 40.828125 51.859375 
L 48.921875 51.859375 
L 48.921875 7.03125 
Q 48.921875 -5.078125 46.453125 -10.125 
Q 44 -15.1875 38.640625 -18.109375 
Q 33.296875 -21.046875 25.484375 -21.046875 
Q 16.21875 -21.046875 10.5 -16.875 
Q 4.78125 -12.703125 4.984375 -4.296875 
z
M 12.25 26.859375 
Q 12.25 16.65625 16.296875 11.96875 
Q 20.359375 7.28125 26.46875 7.28125 
Q 32.515625 7.28125 36.609375 11.9375 
Q 40.71875 16.609375 40.71875 26.5625 
Q 40.71875 36.078125 36.5 40.90625 
Q 32.28125 45.75 26.3125 45.75 
Q 20.453125 45.75 16.34375 40.984375 
Q 12.25 36.234375 12.25 26.859375 
z
" id="ArialMT-103"/>
    <path d="M 40.4375 19 
L 49.078125 17.875 
Q 47.65625 8.9375 41.8125 3.875 
Q 35.984375 -1.171875 27.484375 -1.171875 
Q 16.84375 -1.171875 10.375 5.78125 
Q 3.90625 12.75 3.90625 25.734375 
Q 3.90625 34.125 6.6875 40.421875 
Q 9.46875 46.734375 15.15625 49.875 
Q 20.84375 53.03125 27.546875 53.03125 
Q 35.984375 53.03125 41.359375 48.75 
Q 46.734375 44.484375 48.25 36.625 
L 39.703125 35.296875 
Q 38.484375 40.53125 35.375 43.15625 
Q 32.28125 45.796875 27.875 45.796875 
Q 21.234375 45.796875 17.078125 41.03125 
Q 12.9375 36.28125 12.9375 25.984375 
Q 12.9375 15.53125 16.9375 10.796875 
Q 20.953125 6.0625 27.390625 6.0625 
Q 32.5625 6.0625 36.03125 9.234375 
Q 39.5 12.40625 40.4375 19 
z
" id="ArialMT-99"/>
   </defs>
   <g style="fill:#262626;" transform="translate(124.925625 16.545)scale(0.12 -0.12)">
    <use xlink:href="#ArialMT-72"/>
    <use x="72.216797" xlink:href="#ArialMT-111"/>
    <use x="127.832031" xlink:href="#ArialMT-114"/>
    <use x="161.132812" xlink:href="#ArialMT-105"/>
    <use x="183.349609" xlink:href="#ArialMT-122"/>
    <use x="233.349609" xlink:href="#ArialMT-111"/>
    <use x="288.964844" xlink:href="#ArialMT-110"/>
    <use x="344.580078" xlink:href="#ArialMT-58"/>
    <use x="372.363281" xlink:href="#ArialMT-32"/>
    <use x="400.146484" xlink:href="#ArialMT-52"/>
    <use x="455.761719" xlink:href="#ArialMT-56"/>
    <use x="511.376953" xlink:href="#ArialMT-46"/>
    <use x="539.160156" xlink:href="#ArialMT-48"/>
    <use x="594.775391" xlink:href="#ArialMT-104"/>
    <use x="650.390625" xlink:href="#ArialMT-44"/>
    <use x="678.173828" xlink:href="#ArialMT-32"/>
    <use x="705.941406" xlink:href="#ArialMT-84"/>
    <use x="766.978516" xlink:href="#ArialMT-105"/>
    <use x="789.195312" xlink:href="#ArialMT-109"/>
    <use x="872.496094" xlink:href="#ArialMT-101"/>
    <use x="928.111328" xlink:href="#ArialMT-32"/>
    <use x="955.894531" xlink:href="#ArialMT-115"/>
    <use x="1005.894531" xlink:href="#ArialMT-116"/>
    <use x="1033.677734" xlink:href="#ArialMT-101"/>
    <use x="1089.292969" xlink:href="#ArialMT-112"/>
    <use x="1144.908203" xlink:href="#ArialMT-58"/>
    <use x="1172.691406" xlink:href="#ArialMT-32"/>
    <use x="1200.474609" xlink:href="#ArialMT-54"/>
    <use x="1256.089844" xlink:href="#ArialMT-48"/>
    <use x="1311.705078" xlink:href="#ArialMT-44"/>
    <use x="1339.488281" xlink:href="#ArialMT-32"/>
    <use x="1367.271484" xlink:href="#ArialMT-78"/>
    <use x="1439.488281" xlink:href="#ArialMT-101"/>
    <use x="1495.103516" xlink:href="#ArialMT-105"/>
    <use x="1517.320312" xlink:href="#ArialMT-103"/>
    <use x="1572.935547" xlink:href="#ArialMT-104"/>
    <use x="1628.550781" xlink:href="#ArialMT-98"/>
    <use x="1684.166016" xlink:href="#ArialMT-111"/>
    <use x="1739.78125" xlink:href="#ArialMT-117"/>
    <use x="1795.396484" xlink:href="#ArialMT-114"/>
    <use x="1828.697266" xlink:href="#ArialMT-104"/>
    <use x="1884.3125" xlink:href="#ArialMT-111"/>
    <use x="1939.927734" xlink:href="#ArialMT-111"/>
    <use x="1995.542969" xlink:href="#ArialMT-100"/>
    <use x="2051.158203" xlink:href="#ArialMT-115"/>
    <use x="2101.158203" xlink:href="#ArialMT-58"/>
    <use x="2128.941406" xlink:href="#ArialMT-32"/>
    <use x="2156.724609" xlink:href="#ArialMT-50"/>
    <use x="2212.339844" xlink:href="#ArialMT-44"/>
    <use x="2240.123047" xlink:href="#ArialMT-32"/>
    <use x="2267.90625" xlink:href="#ArialMT-99"/>
    <use x="2317.90625" xlink:href="#ArialMT-97"/>
    <use x="2373.521484" xlink:href="#ArialMT-115"/>
    <use x="2423.521484" xlink:href="#ArialMT-101"/>
    <use x="2479.136719" xlink:href="#ArialMT-58"/>
    <use x="2506.919922" xlink:href="#ArialMT-32"/>
    <use x="2534.703125" xlink:href="#ArialMT-99"/>
    <use x="2584.703125" xlink:href="#ArialMT-111"/>
    <use x="2640.318359" xlink:href="#ArialMT-115"/>
    <use x="2690.318359" xlink:href="#ArialMT-116"/>
   </g>
  </g>
 </g>
 <defs>
  <clipPath id="p67e853e68d">
   <rect height="138.6" width="446.4" x="72" y="47.52"/>
  </clipPath>
  <clipPath id="p0f2d3aeaa7">
   <rect height="138.6" width="446.4" x="72" y="213.84"/>
  </clipPath>
 </defs>
</svg>
