<?xml version="1.0" encoding="utf-8" standalone="no"?>
<!DOCTYPE svg PUBLIC "-//W3C//DTD SVG 1.1//EN"
  "http://www.w3.org/Graphics/SVG/1.1/DTD/svg11.dtd">
<!-- Created with matplotlib (https://matplotlib.org/) -->
<svg height="396pt" version="1.1" viewBox="0 0 576 396" width="576pt" xmlns="http://www.w3.org/2000/svg" xmlns:xlink="http://www.w3.org/1999/xlink">
 <defs>
  <style type="text/css">
*{stroke-linecap:butt;stroke-linejoin:round;}
  </style>
 </defs>
 <g id="figure_1">
  <g id="patch_1">
   <path d="M 0 396 
L 576 396 
L 576 0 
L 0 0 
z
" style="fill:#ffffff;"/>
  </g>
  <g id="axes_1">
   <g id="patch_2">
    <path d="M 72 186.12 
L 518.4 186.12 
L 518.4 47.52 
L 72 47.52 
z
" style="fill:#eaeaf2;"/>
   </g>
   <g id="matplotlib.axis_1">
    <g id="xtick_1">
     <g id="line2d_1">
      <path clip-path="url(#pe704458a5b)" d="M 92.290909 186.12 
L 92.290909 47.52 
" style="fill:none;stroke:#ffffff;stroke-linecap:round;"/>
     </g>
     <g id="line2d_2"/>
     <g id="text_1">
      <!-- 01-01 00 -->
      <defs>
       <path d="M 4.15625 35.296875 
Q 4.15625 48 6.765625 55.734375 
Q 9.375 63.484375 14.515625 67.671875 
Q 19.671875 71.875 27.484375 71.875 
Q 33.25 71.875 37.59375 69.546875 
Q 41.9375 67.234375 44.765625 62.859375 
Q 47.609375 58.5 49.21875 52.21875 
Q 50.828125 45.953125 50.828125 35.296875 
Q 50.828125 22.703125 48.234375 14.96875 
Q 45.65625 7.234375 40.5 3 
Q 35.359375 -1.21875 27.484375 -1.21875 
Q 17.140625 -1.21875 11.234375 6.203125 
Q 4.15625 15.140625 4.15625 35.296875 
z
M 13.1875 35.296875 
Q 13.1875 17.671875 17.3125 11.828125 
Q 21.4375 6 27.484375 6 
Q 33.546875 6 37.671875 11.859375 
Q 41.796875 17.71875 41.796875 35.296875 
Q 41.796875 52.984375 37.671875 58.78125 
Q 33.546875 64.59375 27.390625 64.59375 
Q 21.34375 64.59375 17.71875 59.46875 
Q 13.1875 52.9375 13.1875 35.296875 
z
" id="ArialMT-48"/>
       <path d="M 37.25 0 
L 28.46875 0 
L 28.46875 56 
Q 25.296875 52.984375 20.140625 49.953125 
Q 14.984375 46.921875 10.890625 45.40625 
L 10.890625 53.90625 
Q 18.265625 57.375 23.78125 62.296875 
Q 29.296875 67.234375 31.59375 71.875 
L 37.25 71.875 
z
" id="ArialMT-49"/>
       <path d="M 3.171875 21.484375 
L 3.171875 30.328125 
L 30.171875 30.328125 
L 30.171875 21.484375 
z
" id="ArialMT-45"/>
       <path id="ArialMT-32"/>
      </defs>
      <g style="fill:#262626;" transform="translate(72.55419 200.277812)scale(0.1 -0.1)">
       <use xlink:href="#ArialMT-48"/>
       <use x="55.615234" xlink:href="#ArialMT-49"/>
       <use x="111.230469" xlink:href="#ArialMT-45"/>
       <use x="144.53125" xlink:href="#ArialMT-48"/>
       <use x="200.146484" xlink:href="#ArialMT-49"/>
       <use x="255.761719" xlink:href="#ArialMT-32"/>
       <use x="283.544922" xlink:href="#ArialMT-48"/>
       <use x="339.160156" xlink:href="#ArialMT-48"/>
      </g>
     </g>
    </g>
    <g id="xtick_2">
     <g id="line2d_3">
      <path clip-path="url(#pe704458a5b)" d="M 143.053434 186.12 
L 143.053434 47.52 
" style="fill:none;stroke:#ffffff;stroke-linecap:round;"/>
     </g>
     <g id="line2d_4"/>
     <g id="text_2">
      <!-- 01-01 03 -->
      <defs>
       <path d="M 4.203125 18.890625 
L 12.984375 20.0625 
Q 14.5 12.59375 18.140625 9.296875 
Q 21.78125 6 27 6 
Q 33.203125 6 37.46875 10.296875 
Q 41.75 14.59375 41.75 20.953125 
Q 41.75 27 37.796875 30.921875 
Q 33.84375 34.859375 27.734375 34.859375 
Q 25.25 34.859375 21.53125 33.890625 
L 22.515625 41.609375 
Q 23.390625 41.5 23.921875 41.5 
Q 29.546875 41.5 34.03125 44.421875 
Q 38.53125 47.359375 38.53125 53.46875 
Q 38.53125 58.296875 35.25 61.46875 
Q 31.984375 64.65625 26.8125 64.65625 
Q 21.6875 64.65625 18.265625 61.421875 
Q 14.84375 58.203125 13.875 51.765625 
L 5.078125 53.328125 
Q 6.6875 62.15625 12.390625 67.015625 
Q 18.109375 71.875 26.609375 71.875 
Q 32.46875 71.875 37.390625 69.359375 
Q 42.328125 66.84375 44.9375 62.5 
Q 47.5625 58.15625 47.5625 53.265625 
Q 47.5625 48.640625 45.0625 44.828125 
Q 42.578125 41.015625 37.703125 38.765625 
Q 44.046875 37.3125 47.5625 32.6875 
Q 51.078125 28.078125 51.078125 21.140625 
Q 51.078125 11.765625 44.234375 5.25 
Q 37.40625 -1.265625 26.953125 -1.265625 
Q 17.53125 -1.265625 11.296875 4.34375 
Q 5.078125 9.96875 4.203125 18.890625 
z
" id="ArialMT-51"/>
      </defs>
      <g style="fill:#262626;" transform="translate(123.316715 200.277812)scale(0.1 -0.1)">
       <use xlink:href="#ArialMT-48"/>
       <use x="55.615234" xlink:href="#ArialMT-49"/>
       <use x="111.230469" xlink:href="#ArialMT-45"/>
       <use x="144.53125" xlink:href="#ArialMT-48"/>
       <use x="200.146484" xlink:href="#ArialMT-49"/>
       <use x="255.761719" xlink:href="#ArialMT-32"/>
       <use x="283.544922" xlink:href="#ArialMT-48"/>
       <use x="339.160156" xlink:href="#ArialMT-51"/>
      </g>
     </g>
    </g>
    <g id="xtick_3">
     <g id="line2d_5">
      <path clip-path="url(#pe704458a5b)" d="M 193.815958 186.12 
L 193.815958 47.52 
" style="fill:none;stroke:#ffffff;stroke-linecap:round;"/>
     </g>
     <g id="line2d_6"/>
     <g id="text_3">
      <!-- 01-01 06 -->
      <defs>
       <path d="M 49.75 54.046875 
L 41.015625 53.375 
Q 39.84375 58.546875 37.703125 60.890625 
Q 34.125 64.65625 28.90625 64.65625 
Q 24.703125 64.65625 21.53125 62.3125 
Q 17.390625 59.28125 14.984375 53.46875 
Q 12.59375 47.65625 12.5 36.921875 
Q 15.671875 41.75 20.265625 44.09375 
Q 24.859375 46.4375 29.890625 46.4375 
Q 38.671875 46.4375 44.84375 39.96875 
Q 51.03125 33.5 51.03125 23.25 
Q 51.03125 16.5 48.125 10.71875 
Q 45.21875 4.9375 40.140625 1.859375 
Q 35.0625 -1.21875 28.609375 -1.21875 
Q 17.625 -1.21875 10.6875 6.859375 
Q 3.765625 14.9375 3.765625 33.5 
Q 3.765625 54.25 11.421875 63.671875 
Q 18.109375 71.875 29.4375 71.875 
Q 37.890625 71.875 43.28125 67.140625 
Q 48.6875 62.40625 49.75 54.046875 
z
M 13.875 23.1875 
Q 13.875 18.65625 15.796875 14.5 
Q 17.71875 10.359375 21.1875 8.171875 
Q 24.65625 6 28.46875 6 
Q 34.03125 6 38.03125 10.484375 
Q 42.046875 14.984375 42.046875 22.703125 
Q 42.046875 30.125 38.078125 34.390625 
Q 34.125 38.671875 28.125 38.671875 
Q 22.171875 38.671875 18.015625 34.390625 
Q 13.875 30.125 13.875 23.1875 
z
" id="ArialMT-54"/>
      </defs>
      <g style="fill:#262626;" transform="translate(174.079239 200.277812)scale(0.1 -0.1)">
       <use xlink:href="#ArialMT-48"/>
       <use x="55.615234" xlink:href="#ArialMT-49"/>
       <use x="111.230469" xlink:href="#ArialMT-45"/>
       <use x="144.53125" xlink:href="#ArialMT-48"/>
       <use x="200.146484" xlink:href="#ArialMT-49"/>
       <use x="255.761719" xlink:href="#ArialMT-32"/>
       <use x="283.544922" xlink:href="#ArialMT-48"/>
       <use x="339.160156" xlink:href="#ArialMT-54"/>
      </g>
     </g>
    </g>
    <g id="xtick_4">
     <g id="line2d_7">
      <path clip-path="url(#pe704458a5b)" d="M 244.578483 186.12 
L 244.578483 47.52 
" style="fill:none;stroke:#ffffff;stroke-linecap:round;"/>
     </g>
     <g id="line2d_8"/>
     <g id="text_4">
      <!-- 01-01 09 -->
      <defs>
       <path d="M 5.46875 16.546875 
L 13.921875 17.328125 
Q 14.984375 11.375 18.015625 8.6875 
Q 21.046875 6 25.78125 6 
Q 29.828125 6 32.875 7.859375 
Q 35.9375 9.71875 37.890625 12.8125 
Q 39.84375 15.921875 41.15625 21.1875 
Q 42.484375 26.46875 42.484375 31.9375 
Q 42.484375 32.515625 42.4375 33.6875 
Q 39.796875 29.5 35.234375 26.875 
Q 30.671875 24.265625 25.34375 24.265625 
Q 16.453125 24.265625 10.296875 30.703125 
Q 4.15625 37.15625 4.15625 47.703125 
Q 4.15625 58.59375 10.578125 65.234375 
Q 17 71.875 26.65625 71.875 
Q 33.640625 71.875 39.421875 68.109375 
Q 45.21875 64.359375 48.21875 57.390625 
Q 51.21875 50.4375 51.21875 37.25 
Q 51.21875 23.53125 48.234375 15.40625 
Q 45.265625 7.28125 39.375 3.03125 
Q 33.5 -1.21875 25.59375 -1.21875 
Q 17.1875 -1.21875 11.859375 3.4375 
Q 6.546875 8.109375 5.46875 16.546875 
z
M 41.453125 48.140625 
Q 41.453125 55.71875 37.421875 60.15625 
Q 33.40625 64.59375 27.734375 64.59375 
Q 21.875 64.59375 17.53125 59.8125 
Q 13.1875 55.03125 13.1875 47.40625 
Q 13.1875 40.578125 17.3125 36.296875 
Q 21.4375 32.03125 27.484375 32.03125 
Q 33.59375 32.03125 37.515625 36.296875 
Q 41.453125 40.578125 41.453125 48.140625 
z
" id="ArialMT-57"/>
      </defs>
      <g style="fill:#262626;" transform="translate(224.841764 200.277812)scale(0.1 -0.1)">
       <use xlink:href="#ArialMT-48"/>
       <use x="55.615234" xlink:href="#ArialMT-49"/>
       <use x="111.230469" xlink:href="#ArialMT-45"/>
       <use x="144.53125" xlink:href="#ArialMT-48"/>
       <use x="200.146484" xlink:href="#ArialMT-49"/>
       <use x="255.761719" xlink:href="#ArialMT-32"/>
       <use x="283.544922" xlink:href="#ArialMT-48"/>
       <use x="339.160156" xlink:href="#ArialMT-57"/>
      </g>
     </g>
    </g>
    <g id="xtick_5">
     <g id="line2d_9">
      <path clip-path="url(#pe704458a5b)" d="M 295.341007 186.12 
L 295.341007 47.52 
" style="fill:none;stroke:#ffffff;stroke-linecap:round;"/>
     </g>
     <g id="line2d_10"/>
     <g id="text_5">
      <!-- 01-01 12 -->
      <defs>
       <path d="M 50.34375 8.453125 
L 50.34375 0 
L 3.03125 0 
Q 2.9375 3.171875 4.046875 6.109375 
Q 5.859375 10.9375 9.828125 15.625 
Q 13.8125 20.3125 21.34375 26.46875 
Q 33.015625 36.03125 37.109375 41.625 
Q 41.21875 47.21875 41.21875 52.203125 
Q 41.21875 57.421875 37.46875 61 
Q 33.734375 64.59375 27.734375 64.59375 
Q 21.390625 64.59375 17.578125 60.78125 
Q 13.765625 56.984375 13.71875 50.25 
L 4.6875 51.171875 
Q 5.609375 61.28125 11.65625 66.578125 
Q 17.71875 71.875 27.9375 71.875 
Q 38.234375 71.875 44.234375 66.15625 
Q 50.25 60.453125 50.25 52 
Q 50.25 47.703125 48.484375 43.546875 
Q 46.734375 39.40625 42.65625 34.8125 
Q 38.578125 30.21875 29.109375 22.21875 
Q 21.1875 15.578125 18.9375 13.203125 
Q 16.703125 10.84375 15.234375 8.453125 
z
" id="ArialMT-50"/>
      </defs>
      <g style="fill:#262626;" transform="translate(275.604288 200.277812)scale(0.1 -0.1)">
       <use xlink:href="#ArialMT-48"/>
       <use x="55.615234" xlink:href="#ArialMT-49"/>
       <use x="111.230469" xlink:href="#ArialMT-45"/>
       <use x="144.53125" xlink:href="#ArialMT-48"/>
       <use x="200.146484" xlink:href="#ArialMT-49"/>
       <use x="255.761719" xlink:href="#ArialMT-32"/>
       <use x="283.544922" xlink:href="#ArialMT-49"/>
       <use x="339.160156" xlink:href="#ArialMT-50"/>
      </g>
     </g>
    </g>
    <g id="xtick_6">
     <g id="line2d_11">
      <path clip-path="url(#pe704458a5b)" d="M 346.103531 186.12 
L 346.103531 47.52 
" style="fill:none;stroke:#ffffff;stroke-linecap:round;"/>
     </g>
     <g id="line2d_12"/>
     <g id="text_6">
      <!-- 01-01 15 -->
      <defs>
       <path d="M 4.15625 18.75 
L 13.375 19.53125 
Q 14.40625 12.796875 18.140625 9.390625 
Q 21.875 6 27.15625 6 
Q 33.5 6 37.890625 10.78125 
Q 42.28125 15.578125 42.28125 23.484375 
Q 42.28125 31 38.0625 35.34375 
Q 33.84375 39.703125 27 39.703125 
Q 22.75 39.703125 19.328125 37.765625 
Q 15.921875 35.84375 13.96875 32.765625 
L 5.71875 33.84375 
L 12.640625 70.609375 
L 48.25 70.609375 
L 48.25 62.203125 
L 19.671875 62.203125 
L 15.828125 42.96875 
Q 22.265625 47.46875 29.34375 47.46875 
Q 38.71875 47.46875 45.15625 40.96875 
Q 51.609375 34.46875 51.609375 24.265625 
Q 51.609375 14.546875 45.953125 7.46875 
Q 39.0625 -1.21875 27.15625 -1.21875 
Q 17.390625 -1.21875 11.203125 4.25 
Q 5.03125 9.71875 4.15625 18.75 
z
" id="ArialMT-53"/>
      </defs>
      <g style="fill:#262626;" transform="translate(326.366813 200.277812)scale(0.1 -0.1)">
       <use xlink:href="#ArialMT-48"/>
       <use x="55.615234" xlink:href="#ArialMT-49"/>
       <use x="111.230469" xlink:href="#ArialMT-45"/>
       <use x="144.53125" xlink:href="#ArialMT-48"/>
       <use x="200.146484" xlink:href="#ArialMT-49"/>
       <use x="255.761719" xlink:href="#ArialMT-32"/>
       <use x="283.544922" xlink:href="#ArialMT-49"/>
       <use x="339.160156" xlink:href="#ArialMT-53"/>
      </g>
     </g>
    </g>
    <g id="xtick_7">
     <g id="line2d_13">
      <path clip-path="url(#pe704458a5b)" d="M 396.866056 186.12 
L 396.866056 47.52 
" style="fill:none;stroke:#ffffff;stroke-linecap:round;"/>
     </g>
     <g id="line2d_14"/>
     <g id="text_7">
      <!-- 01-01 18 -->
      <defs>
       <path d="M 17.671875 38.8125 
Q 12.203125 40.828125 9.5625 44.53125 
Q 6.9375 48.25 6.9375 53.421875 
Q 6.9375 61.234375 12.546875 66.546875 
Q 18.171875 71.875 27.484375 71.875 
Q 36.859375 71.875 42.578125 66.421875 
Q 48.296875 60.984375 48.296875 53.171875 
Q 48.296875 48.1875 45.671875 44.5 
Q 43.0625 40.828125 37.75 38.8125 
Q 44.34375 36.671875 47.78125 31.875 
Q 51.21875 27.09375 51.21875 20.453125 
Q 51.21875 11.28125 44.71875 5.03125 
Q 38.234375 -1.21875 27.640625 -1.21875 
Q 17.046875 -1.21875 10.546875 5.046875 
Q 4.046875 11.328125 4.046875 20.703125 
Q 4.046875 27.6875 7.59375 32.390625 
Q 11.140625 37.109375 17.671875 38.8125 
z
M 15.921875 53.71875 
Q 15.921875 48.640625 19.1875 45.40625 
Q 22.46875 42.1875 27.6875 42.1875 
Q 32.765625 42.1875 36.015625 45.375 
Q 39.265625 48.578125 39.265625 53.21875 
Q 39.265625 58.0625 35.90625 61.359375 
Q 32.5625 64.65625 27.59375 64.65625 
Q 22.5625 64.65625 19.234375 61.421875 
Q 15.921875 58.203125 15.921875 53.71875 
z
M 13.09375 20.65625 
Q 13.09375 16.890625 14.875 13.375 
Q 16.65625 9.859375 20.171875 7.921875 
Q 23.6875 6 27.734375 6 
Q 34.03125 6 38.125 10.046875 
Q 42.234375 14.109375 42.234375 20.359375 
Q 42.234375 26.703125 38.015625 30.859375 
Q 33.796875 35.015625 27.4375 35.015625 
Q 21.234375 35.015625 17.15625 30.90625 
Q 13.09375 26.8125 13.09375 20.65625 
z
" id="ArialMT-56"/>
      </defs>
      <g style="fill:#262626;" transform="translate(377.129337 200.277812)scale(0.1 -0.1)">
       <use xlink:href="#ArialMT-48"/>
       <use x="55.615234" xlink:href="#ArialMT-49"/>
       <use x="111.230469" xlink:href="#ArialMT-45"/>
       <use x="144.53125" xlink:href="#ArialMT-48"/>
       <use x="200.146484" xlink:href="#ArialMT-49"/>
       <use x="255.761719" xlink:href="#ArialMT-32"/>
       <use x="283.544922" xlink:href="#ArialMT-49"/>
       <use x="339.160156" xlink:href="#ArialMT-56"/>
      </g>
     </g>
    </g>
    <g id="xtick_8">
     <g id="line2d_15">
      <path clip-path="url(#pe704458a5b)" d="M 447.62858 186.12 
L 447.62858 47.52 
" style="fill:none;stroke:#ffffff;stroke-linecap:round;"/>
     </g>
     <g id="line2d_16"/>
     <g id="text_8">
      <!-- 01-01 21 -->
      <g style="fill:#262626;" transform="translate(427.891862 200.277812)scale(0.1 -0.1)">
       <use xlink:href="#ArialMT-48"/>
       <use x="55.615234" xlink:href="#ArialMT-49"/>
       <use x="111.230469" xlink:href="#ArialMT-45"/>
       <use x="144.53125" xlink:href="#ArialMT-48"/>
       <use x="200.146484" xlink:href="#ArialMT-49"/>
       <use x="255.761719" xlink:href="#ArialMT-32"/>
       <use x="283.544922" xlink:href="#ArialMT-50"/>
       <use x="339.160156" xlink:href="#ArialMT-49"/>
      </g>
     </g>
    </g>
    <g id="xtick_9">
     <g id="line2d_17">
      <path clip-path="url(#pe704458a5b)" d="M 498.391105 186.12 
L 498.391105 47.52 
" style="fill:none;stroke:#ffffff;stroke-linecap:round;"/>
     </g>
     <g id="line2d_18"/>
     <g id="text_9">
      <!-- 01-02 00 -->
      <g style="fill:#262626;" transform="translate(478.654386 200.277812)scale(0.1 -0.1)">
       <use xlink:href="#ArialMT-48"/>
       <use x="55.615234" xlink:href="#ArialMT-49"/>
       <use x="111.230469" xlink:href="#ArialMT-45"/>
       <use x="144.53125" xlink:href="#ArialMT-48"/>
       <use x="200.146484" xlink:href="#ArialMT-50"/>
       <use x="255.761719" xlink:href="#ArialMT-32"/>
       <use x="283.544922" xlink:href="#ArialMT-48"/>
       <use x="339.160156" xlink:href="#ArialMT-48"/>
      </g>
     </g>
    </g>
   </g>
   <g id="matplotlib.axis_2">
    <g id="ytick_1">
     <g id="line2d_19">
      <path clip-path="url(#pe704458a5b)" d="M 72 165.230957 
L 518.4 165.230957 
" style="fill:none;stroke:#ffffff;stroke-linecap:round;"/>
     </g>
     <g id="line2d_20"/>
     <g id="text_10">
      <!-- 0.5 -->
      <defs>
       <path d="M 9.078125 0 
L 9.078125 10.015625 
L 19.09375 10.015625 
L 19.09375 0 
z
" id="ArialMT-46"/>
      </defs>
      <g style="fill:#262626;" transform="translate(51.1 168.809863)scale(0.1 -0.1)">
       <use xlink:href="#ArialMT-48"/>
       <use x="55.615234" xlink:href="#ArialMT-46"/>
       <use x="83.398438" xlink:href="#ArialMT-53"/>
      </g>
     </g>
    </g>
    <g id="ytick_2">
     <g id="line2d_21">
      <path clip-path="url(#pe704458a5b)" d="M 72 132.730923 
L 518.4 132.730923 
" style="fill:none;stroke:#ffffff;stroke-linecap:round;"/>
     </g>
     <g id="line2d_22"/>
     <g id="text_11">
      <!-- 1.0 -->
      <g style="fill:#262626;" transform="translate(51.1 136.309829)scale(0.1 -0.1)">
       <use xlink:href="#ArialMT-49"/>
       <use x="55.615234" xlink:href="#ArialMT-46"/>
       <use x="83.398438" xlink:href="#ArialMT-48"/>
      </g>
     </g>
    </g>
    <g id="ytick_3">
     <g id="line2d_23">
      <path clip-path="url(#pe704458a5b)" d="M 72 100.230888 
L 518.4 100.230888 
" style="fill:none;stroke:#ffffff;stroke-linecap:round;"/>
     </g>
     <g id="line2d_24"/>
     <g id="text_12">
      <!-- 1.5 -->
      <g style="fill:#262626;" transform="translate(51.1 103.809794)scale(0.1 -0.1)">
       <use xlink:href="#ArialMT-49"/>
       <use x="55.615234" xlink:href="#ArialMT-46"/>
       <use x="83.398438" xlink:href="#ArialMT-53"/>
      </g>
     </g>
    </g>
    <g id="ytick_4">
     <g id="line2d_25">
      <path clip-path="url(#pe704458a5b)" d="M 72 67.730854 
L 518.4 67.730854 
" style="fill:none;stroke:#ffffff;stroke-linecap:round;"/>
     </g>
     <g id="line2d_26"/>
     <g id="text_13">
      <!-- 2.0 -->
      <g style="fill:#262626;" transform="translate(51.1 71.30976)scale(0.1 -0.1)">
       <use xlink:href="#ArialMT-50"/>
       <use x="55.615234" xlink:href="#ArialMT-46"/>
       <use x="83.398438" xlink:href="#ArialMT-48"/>
      </g>
     </g>
    </g>
   </g>
   <g id="line2d_27">
    <path clip-path="url(#pe704458a5b)" d="M 92.290909 109.063513 
L 96.239105 108.979824 
L 96.521119 111.791922 
L 97.649176 112.077092 
L 98.495218 112.519057 
L 99.34126 113.177671 
L 100.469316 114.329132 
L 100.75133 116.481345 
L 103.57147 119.41832 
L 104.699526 120.282048 
L 104.98154 126.29839 
L 106.109596 126.768509 
L 107.237652 127.041635 
L 108.647723 127.130144 
L 108.929737 127.117283 
L 109.211751 128.59799 
L 110.621821 128.371906 
L 112.313905 127.88797 
L 113.159947 127.585311 
L 113.441961 129.789545 
L 117.390157 128.331584 
L 117.672171 130.851013 
L 121.05634 129.906801 
L 121.620368 129.770906 
L 121.902382 131.957204 
L 125.850578 131.153024 
L 126.132592 131.421028 
L 130.080788 130.683256 
L 130.362802 131.949815 
L 134.028985 131.44011 
L 134.310999 131.412891 
L 134.593013 134.736073 
L 137.413153 134.627876 
L 138.541209 134.649178 
L 138.823223 136.709902 
L 146.719616 136.914632 
L 147.00163 136.903416 
L 147.283644 137.082251 
L 151.23184 136.76502 
L 151.513854 135.827789 
L 155.462051 135.537384 
L 155.744065 159.038971 
L 159.692261 158.960085 
L 159.974275 155.359529 
L 163.922471 155.312294 
L 164.204485 152.487785 
L 168.152682 152.467751 
L 168.434696 149.830962 
L 172.382892 149.846886 
L 172.664906 143.048136 
L 176.613102 143.116137 
L 176.895117 141.475953 
L 180.843313 141.500264 
L 181.125327 139.077857 
L 185.073523 139.054707 
L 185.355537 137.137706 
L 189.303734 137.121943 
L 189.585748 128.322508 
L 193.533944 128.343453 
L 193.815958 119.758614 
L 197.764154 119.803238 
L 198.046168 109.979781 
L 201.994365 110.035078 
L 202.276379 99.26981 
L 206.224575 99.324342 
L 206.506589 90.232943 
L 210.454786 90.276568 
L 210.7368 80.914646 
L 214.684996 80.943915 
L 214.96701 81.185176 
L 218.915206 81.192911 
L 219.19722 72.581544 
L 222.017361 72.712411 
L 223.145417 72.902021 
L 223.427431 66.075859 
L 224.837501 66.584697 
L 227.375627 67.72861 
L 227.657641 56.155969 
L 228.503683 56.435793 
L 229.349725 56.503951 
L 230.195767 56.334051 
L 231.323823 55.812581 
L 231.605837 55.652126 
L 231.887851 65.616298 
L 233.86195 64.72487 
L 235.27202 64.345484 
L 235.836048 64.253172 
L 236.118062 63.476147 
L 238.374174 63.340603 
L 240.066258 63.330866 
L 240.348272 61.243726 
L 243.168412 61.403686 
L 244.296468 61.51 
L 244.578483 59.17079 
L 246.552581 59.247803 
L 248.526679 59.127226 
L 248.808693 61.172694 
L 252.474875 60.968147 
L 252.756889 60.96228 
L 253.038903 64.354619 
L 256.9871 64.336089 
L 257.269114 62.815412 
L 261.21731 62.885564 
L 261.499324 62.654417 
L 265.44752 62.60762 
L 265.729534 65.576618 
L 269.677731 65.54841 
L 269.959745 66.132667 
L 273.907941 66.138332 
L 274.189955 67.556275 
L 278.138151 67.561662 
L 278.420166 68.353979 
L 282.368362 68.338627 
L 282.650376 72.564169 
L 286.598572 72.552927 
L 286.880586 72.381032 
L 290.828783 72.392732 
L 291.110797 71.816382 
L 295.058993 71.819902 
L 295.341007 73.19083 
L 299.289203 73.173891 
L 299.571217 76.102685 
L 303.519414 76.095323 
L 303.801428 75.571821 
L 307.749624 75.572206 
L 308.031638 78.945953 
L 311.979834 78.940256 
L 312.261848 79.381203 
L 316.210045 79.377197 
L 316.492059 80.638641 
L 320.440255 80.635791 
L 320.722269 81.204261 
L 324.670466 81.202176 
L 324.95248 83.218977 
L 328.900676 83.214389 
L 329.18269 82.848879 
L 333.130886 82.847061 
L 333.4129 83.620736 
L 337.361097 83.619287 
L 337.643111 83.316271 
L 341.591307 83.317443 
L 341.873321 81.419695 
L 345.821517 81.424699 
L 346.103531 81.24423 
L 350.051728 81.244315 
L 350.333742 82.799697 
L 354.281938 82.796538 
L 354.563952 82.493949 
L 358.512149 82.49382 
L 358.794163 81.831441 
L 362.742359 81.833133 
L 363.024373 82.077112 
L 366.972569 82.077642 
L 367.254583 82.804199 
L 371.20278 82.804194 
L 371.484794 82.02539 
L 375.43299 82.031271 
L 375.715004 82.286308 
L 379.6632 82.290621 
L 379.945214 81.341211 
L 383.893411 81.338815 
L 384.175425 82.119103 
L 388.123621 82.103375 
L 388.405635 81.605089 
L 392.353832 81.596405 
L 392.635846 82.393466 
L 396.584042 82.407783 
L 396.866056 82.242209 
L 399.96821 82.376163 
L 400.814252 82.462783 
L 401.096266 81.868606 
L 405.044463 82.489129 
L 405.326477 81.345963 
L 408.146617 81.989363 
L 413.504883 83.407296 
L 413.786897 83.236294 
L 416.04301 83.932669 
L 417.735094 84.558201 
L 418.017108 85.363021 
L 421.965304 86.795914 
L 422.247318 86.604207 
L 424.50343 87.649984 
L 427.323571 89.244055 
L 430.425725 91.196793 
L 430.707739 91.759323 
L 434.373921 93.907944 
L 434.655935 94.106724 
L 434.937949 94.593492 
L 439.732188 98.115237 
L 443.116356 99.374456 
L 443.39837 99.849649 
L 445.654482 101.010642 
L 447.346566 101.937353 
L 447.62858 101.659588 
L 451.576777 103.659508 
L 451.858791 105.550844 
L 455.806987 107.568873 
L 456.089001 108.088133 
L 460.037198 110.117309 
L 460.319212 113.463551 
L 464.267408 115.167712 
L 464.549422 116.183485 
L 466.805534 117.31609 
L 468.497618 118.28003 
L 468.779632 122.042627 
L 471.035745 123.08904 
L 472.727829 123.602991 
L 473.009843 125.244442 
L 474.983941 125.49454 
L 476.958039 125.788277 
L 477.240053 134.551875 
L 478.650123 134.955855 
L 480.060193 135.579957 
L 481.188249 136.187568 
L 481.470263 139.603306 
L 483.162348 140.34171 
L 484.290404 140.602584 
L 485.136446 140.586165 
L 485.41846 140.530291 
L 485.700474 146.5068 
L 486.546516 146.179544 
L 487.392558 145.640507 
L 488.2386 144.871998 
L 489.366656 143.473384 
L 489.64867 143.05656 
L 489.930684 144.593801 
L 491.05874 142.724836 
L 492.46881 139.962388 
L 493.878881 136.931493 
L 494.160895 143.117536 
L 496.134993 139.926074 
L 497.545063 138.029101 
L 498.109091 137.391683 
L 498.109091 137.391683 
" style="fill:none;stroke:#4c72b0;stroke-linecap:round;stroke-width:1.75;"/>
   </g>
   <g id="line2d_28">
    <path clip-path="url(#pe704458a5b)" d="M 92.290909 105.490831 
L 96.239105 105.4371 
L 96.521119 106.823514 
L 97.367162 107.047977 
L 98.213204 107.486901 
L 99.059246 108.168475 
L 100.187302 109.396899 
L 100.469316 109.742018 
L 100.75133 112.30388 
L 103.007442 114.887741 
L 104.135498 115.898529 
L 104.699526 116.302217 
L 104.98154 122.332243 
L 106.109596 122.794663 
L 107.237652 123.045399 
L 108.365708 123.103711 
L 108.929737 123.067915 
L 109.211751 124.570771 
L 110.621821 124.289842 
L 112.313905 123.735422 
L 113.159947 123.398403 
L 113.441961 125.480209 
L 117.390157 123.903267 
L 117.672171 126.463711 
L 120.774326 125.543459 
L 121.620368 125.327622 
L 121.902382 127.461354 
L 125.850578 126.60573 
L 126.132592 126.660927 
L 130.080788 125.865918 
L 130.362802 126.229001 
L 133.746971 125.711289 
L 134.310999 125.652925 
L 134.593013 128.874161 
L 137.131139 128.778263 
L 138.541209 128.81817 
L 138.823223 131.431262 
L 142.77142 131.730827 
L 143.053434 131.472637 
L 145.873574 131.544201 
L 147.00163 131.497379 
L 147.283644 131.9999 
L 151.23184 131.61691 
L 151.513854 130.249157 
L 155.462051 129.936066 
L 155.744065 156.445728 
L 159.692261 156.372193 
L 159.974275 153.001589 
L 163.922471 152.958929 
L 164.204485 149.578497 
L 168.152682 149.559866 
L 168.434696 146.539464 
L 172.382892 146.560052 
L 172.664906 139.836831 
L 176.613102 139.907377 
L 176.895117 138.493558 
L 180.843313 138.509947 
L 181.125327 135.210744 
L 185.073523 135.183135 
L 185.355537 133.488478 
L 189.303734 133.471797 
L 189.585748 126.024849 
L 193.533944 126.038397 
L 193.815958 117.854666 
L 197.764154 117.892863 
L 198.046168 107.919617 
L 201.994365 107.971841 
L 202.276379 97.015999 
L 206.224575 97.06802 
L 206.506589 89.149448 
L 210.454786 89.187519 
L 210.7368 79.434899 
L 214.684996 79.462634 
L 214.96701 80.55775 
L 218.915206 80.563982 
L 219.19722 72.325137 
L 222.017361 72.458763 
L 223.145417 72.653019 
L 223.427431 64.136933 
L 224.837501 64.667367 
L 227.375627 65.837312 
L 227.657641 54.383516 
L 228.503683 54.656701 
L 229.349725 54.711618 
L 230.195767 54.525116 
L 231.323823 53.984051 
L 231.605837 53.82 
L 231.887851 63.898843 
L 233.86195 63.001932 
L 235.27202 62.623661 
L 235.836048 62.531745 
L 236.118062 61.695377 
L 238.374174 61.560072 
L 240.066258 61.551023 
L 240.348272 60.447493 
L 243.168412 60.609835 
L 244.296468 60.716737 
L 244.578483 57.698183 
L 246.552581 57.772647 
L 248.526679 57.647929 
L 248.808693 59.428003 
L 252.474875 59.223431 
L 252.756889 59.21759 
L 253.038903 63.623703 
L 256.9871 63.604619 
L 257.269114 61.531454 
L 261.21731 61.603245 
L 261.499324 60.84764 
L 265.44752 60.799979 
L 265.729534 64.515563 
L 269.677731 64.48695 
L 269.959745 65.397769 
L 273.907941 65.403211 
L 274.189955 67.839804 
L 278.138151 67.843566 
L 278.420166 68.313637 
L 282.368362 68.298916 
L 282.650376 72.661198 
L 286.598572 72.650539 
L 286.880586 71.936283 
L 290.828783 71.949157 
L 291.110797 71.382962 
L 295.058993 71.386017 
L 295.341007 72.517014 
L 299.289203 72.500717 
L 299.571217 75.013706 
L 303.519414 75.007606 
L 303.801428 74.367206 
L 307.749624 74.367736 
L 308.031638 78.135651 
L 311.979834 78.129907 
L 312.261848 78.304878 
L 316.210045 78.301408 
L 316.492059 79.982924 
L 320.440255 79.979593 
L 320.722269 80.737014 
L 324.670466 80.734684 
L 324.95248 82.524361 
L 328.900676 82.520545 
L 329.18269 82.00417 
L 333.130886 82.002569 
L 333.4129 83.115468 
L 337.361097 83.113574 
L 337.643111 82.724999 
L 341.591307 82.726272 
L 341.873321 81.421087 
L 345.821517 81.424592 
L 346.103531 80.67498 
L 350.051728 80.675981 
L 350.333742 82.121299 
L 354.281938 82.11868 
L 354.563952 81.951 
L 358.512149 81.950591 
L 358.794163 81.358421 
L 362.742359 81.359841 
L 363.024373 81.623695 
L 366.972569 81.624239 
L 367.254583 81.821185 
L 371.20278 81.822318 
L 371.484794 81.644987 
L 375.43299 81.6497 
L 375.715004 81.503325 
L 379.6632 81.508388 
L 379.945214 80.094543 
L 383.893411 80.092618 
L 384.175425 81.096946 
L 388.123621 81.080765 
L 388.405635 80.209051 
L 392.353832 80.200921 
L 392.635846 80.827258 
L 400.532238 80.934487 
L 400.814252 80.967002 
L 401.096266 80.538064 
L 405.044463 81.171041 
L 405.326477 79.742427 
L 408.146617 80.405671 
L 413.504883 81.907574 
L 413.786897 81.772989 
L 416.04301 82.490092 
L 417.735094 83.127701 
L 418.017108 84.223074 
L 421.965304 85.679481 
L 422.247318 85.445623 
L 424.50343 86.514951 
L 426.477529 87.668055 
L 430.425725 90.188837 
L 430.707739 90.833262 
L 434.373921 93.021992 
L 434.655935 93.22536 
L 435.219963 93.816465 
L 438.322118 96.179137 
L 440.014202 97.056099 
L 443.116356 98.234158 
L 443.39837 98.923018 
L 445.654482 100.105688 
L 447.346566 101.043011 
L 447.62858 100.854504 
L 451.576777 102.879404 
L 451.858791 104.958336 
L 455.806987 106.999618 
L 456.089001 107.494095 
L 460.037198 109.544459 
L 460.319212 112.892579 
L 464.267408 114.619817 
L 464.549422 115.421568 
L 466.805534 116.581145 
L 468.497618 117.561337 
L 468.779632 121.052184 
L 471.035745 122.109637 
L 472.445815 122.554091 
L 472.727829 122.618976 
L 473.009843 124.057276 
L 475.265955 124.336439 
L 476.958039 124.626578 
L 477.240053 133.161117 
L 478.650123 133.601413 
L 480.060193 134.267428 
L 481.188249 134.902285 
L 481.470263 138.579326 
L 483.162348 139.313951 
L 484.290404 139.544315 
L 485.136446 139.488565 
L 485.41846 139.416439 
L 485.700474 144.917948 
L 486.546516 144.536206 
L 487.392558 143.927029 
L 488.2386 143.073458 
L 489.366656 141.541465 
L 489.64867 141.088463 
L 489.930684 142.484039 
L 491.05874 140.461603 
L 492.750824 136.878874 
L 493.878881 134.316507 
L 494.160895 140.504744 
L 496.134993 137.195147 
L 497.545063 135.276295 
L 498.109091 134.642051 
L 498.109091 134.642051 
" style="fill:none;stroke:#55a868;stroke-linecap:round;stroke-width:1.75;"/>
   </g>
   <g id="line2d_29">
    <path clip-path="url(#pe704458a5b)" d="M 92.290909 151.372064 
L 96.239105 151.253579 
L 96.521119 156.174312 
L 98.213204 156.273068 
L 99.623274 156.573252 
L 100.469316 156.875206 
L 100.75133 157.276452 
L 103.007442 158.384589 
L 104.699526 159.163862 
L 104.98154 162.82227 
L 106.955638 163.299338 
L 108.929737 163.510982 
L 109.211751 164.369259 
L 111.467863 164.298803 
L 113.159947 164.106334 
L 113.441961 165.73241 
L 117.390157 165.105176 
L 117.672171 166.558077 
L 121.620368 166.021293 
L 121.902382 167.479736 
L 125.850578 167.101971 
L 126.132592 167.743422 
L 130.080788 167.419364 
L 130.362802 170.221604 
L 134.310999 169.980152 
L 134.593013 172.246422 
L 139.387251 172.143974 
L 142.77142 172.175098 
L 143.053434 172.476001 
L 147.00163 172.553307 
L 147.283644 171.937253 
L 151.23184 171.890167 
L 151.513854 172.280717 
L 155.462051 172.153509 
L 155.744065 179.82 
L 159.692261 179.759629 
L 159.974275 177.03629 
L 163.922471 176.997068 
L 164.204485 176.511533 
L 168.152682 176.496104 
L 168.434696 175.73935 
L 172.382892 175.738658 
L 172.664906 171.400474 
L 176.613102 171.436466 
L 176.895117 169.923227 
L 180.843313 169.955895 
L 181.125327 170.436323 
L 185.073523 170.432125 
L 185.355537 168.758163 
L 189.303734 168.750555 
L 189.585748 160.322628 
L 193.533944 160.352054 
L 193.815958 154.188725 
L 197.764154 154.230496 
L 198.046168 148.5428 
L 201.994365 148.583596 
L 202.276379 142.40984 
L 206.224575 142.448908 
L 206.506589 134.244756 
L 210.454786 134.28396 
L 210.7368 129.419388 
L 214.684996 129.44077 
L 214.96701 127.674346 
L 218.915206 127.682459 
L 219.19722 121.566954 
L 222.581389 121.685357 
L 223.145417 121.746861 
L 223.427431 121.350055 
L 225.401529 121.74814 
L 227.375627 122.256704 
L 227.657641 114.894159 
L 229.067711 115.143173 
L 230.195767 115.085148 
L 231.605837 114.719 
L 231.887851 120.571719 
L 234.425978 119.926267 
L 235.836048 119.744784 
L 236.118062 119.401378 
L 238.938202 119.312081 
L 240.066258 119.310217 
L 240.348272 115.825153 
L 244.296468 115.981769 
L 244.860497 116.084498 
L 247.398623 116.107133 
L 248.526679 116.058805 
L 248.808693 117.908062 
L 256.9871 117.576122 
L 257.269114 117.882369 
L 261.21731 117.921707 
L 261.499324 118.955821 
L 269.677731 119.059335 
L 269.959745 118.685433 
L 273.907941 118.689405 
L 274.189955 117.275021 
L 278.138151 117.281965 
L 278.420166 118.49028 
L 282.368362 118.479451 
L 282.650376 120.763888 
L 286.598572 120.755687 
L 286.880586 121.86627 
L 290.828783 121.870812 
L 291.110797 121.49464 
L 295.058993 121.497841 
L 295.341007 122.876395 
L 299.289203 122.86457 
L 299.571217 125.592683 
L 307.749624 125.526341 
L 308.031638 126.711317 
L 311.979834 126.707928 
L 312.261848 127.574631 
L 316.210045 127.570972 
L 316.492059 127.402653 
L 324.670466 127.326195 
L 324.95248 129.072069 
L 328.900676 129.067527 
L 329.464704 129.181464 
L 333.130886 129.180045 
L 333.4129 128.893899 
L 341.591307 128.900522 
L 341.873321 126.408324 
L 345.821517 126.414754 
L 346.103531 127.580126 
L 350.051728 127.578123 
L 350.333742 128.778615 
L 354.281938 128.775465 
L 354.563952 128.287458 
L 358.512149 128.288006 
L 358.794163 127.724442 
L 366.972569 127.831423 
L 367.254583 129.46433 
L 371.20278 129.461777 
L 371.484794 127.635717 
L 375.43299 127.641941 
L 375.715004 128.698298 
L 379.6632 128.69926 
L 379.945214 129.158378 
L 388.123621 129.123377 
L 388.405635 129.655074 
L 392.353832 129.648504 
L 392.635846 130.520014 
L 396.584042 130.525875 
L 396.866056 130.292622 
L 400.814252 130.404618 
L 401.096266 129.669811 
L 407.582589 130.229128 
L 413.504883 130.992609 
L 413.786897 130.806104 
L 416.607038 131.302801 
L 417.735094 131.543121 
L 418.017108 131.385193 
L 425.349472 133.032594 
L 426.195515 133.309282 
L 426.477529 133.220097 
L 434.655935 136.166892 
L 434.937949 136.717753 
L 438.886146 138.409109 
L 439.16816 139.125979 
L 441.142258 139.576011 
L 443.116356 139.977485 
L 443.39837 139.789818 
L 445.936496 140.544119 
L 447.346566 140.997559 
L 447.62858 140.627122 
L 451.576777 141.797422 
L 451.858791 142.536555 
L 455.806987 143.72183 
L 456.089001 144.095794 
L 460.037198 145.292535 
L 460.319212 147.340171 
L 464.267408 148.333385 
L 464.549422 149.436076 
L 467.651576 150.341681 
L 468.497618 150.624723 
L 468.779632 153.541134 
L 471.881787 154.340429 
L 472.727829 154.483504 
L 473.009843 155.945476 
L 475.547969 156.126794 
L 476.958039 156.221846 
L 477.240053 162.109046 
L 479.214151 162.375595 
L 481.188249 162.875541 
L 481.470263 164.384152 
L 484.290404 165.073763 
L 485.41846 165.154052 
L 485.700474 169.883677 
L 487.110544 169.700993 
L 488.2386 169.351378 
L 489.366656 168.792817 
L 489.64867 168.618342 
L 489.930684 169.878561 
L 491.340754 168.845943 
L 492.750824 167.527055 
L 493.878881 166.312924 
L 494.160895 170.101152 
L 497.827077 167.091942 
L 498.109091 166.896983 
L 498.109091 166.896983 
" style="fill:none;stroke:#c44e52;stroke-linecap:round;stroke-width:1.75;"/>
   </g>
   <g id="patch_3">
    <path d="M 72 186.12 
L 72 47.52 
" style="fill:none;"/>
   </g>
   <g id="patch_4">
    <path d="M 518.4 186.12 
L 518.4 47.52 
" style="fill:none;"/>
   </g>
   <g id="patch_5">
    <path d="M 72 186.12 
L 518.4 186.12 
" style="fill:none;"/>
   </g>
   <g id="patch_6">
    <path d="M 72 47.52 
L 518.4 47.52 
" style="fill:none;"/>
   </g>
   <g id="text_14">
    <!-- Water speed -->
    <defs>
     <path d="M 20.21875 0 
L 1.21875 71.578125 
L 10.9375 71.578125 
L 21.828125 24.65625 
Q 23.578125 17.28125 24.859375 10.015625 
Q 27.59375 21.484375 28.078125 23.25 
L 41.703125 71.578125 
L 53.125 71.578125 
L 63.375 35.359375 
Q 67.234375 21.875 68.953125 10.015625 
Q 70.3125 16.796875 72.515625 25.59375 
L 83.734375 71.578125 
L 93.265625 71.578125 
L 73.640625 0 
L 64.5 0 
L 49.421875 54.546875 
Q 47.515625 61.375 47.171875 62.9375 
Q 46.046875 58.015625 45.0625 54.546875 
L 29.890625 0 
z
" id="ArialMT-87"/>
     <path d="M 40.4375 6.390625 
Q 35.546875 2.25 31.03125 0.53125 
Q 26.515625 -1.171875 21.34375 -1.171875 
Q 12.796875 -1.171875 8.203125 3 
Q 3.609375 7.171875 3.609375 13.671875 
Q 3.609375 17.484375 5.34375 20.625 
Q 7.078125 23.78125 9.890625 25.6875 
Q 12.703125 27.59375 16.21875 28.5625 
Q 18.796875 29.25 24.03125 29.890625 
Q 34.671875 31.15625 39.703125 32.90625 
Q 39.75 34.71875 39.75 35.203125 
Q 39.75 40.578125 37.25 42.78125 
Q 33.890625 45.75 27.25 45.75 
Q 21.046875 45.75 18.09375 43.578125 
Q 15.140625 41.40625 13.71875 35.890625 
L 5.125 37.0625 
Q 6.296875 42.578125 8.984375 45.96875 
Q 11.671875 49.359375 16.75 51.1875 
Q 21.828125 53.03125 28.515625 53.03125 
Q 35.15625 53.03125 39.296875 51.46875 
Q 43.453125 49.90625 45.40625 47.53125 
Q 47.359375 45.171875 48.140625 41.546875 
Q 48.578125 39.3125 48.578125 33.453125 
L 48.578125 21.734375 
Q 48.578125 9.46875 49.140625 6.21875 
Q 49.703125 2.984375 51.375 0 
L 42.1875 0 
Q 40.828125 2.734375 40.4375 6.390625 
z
M 39.703125 26.03125 
Q 34.90625 24.078125 25.34375 22.703125 
Q 19.921875 21.921875 17.671875 20.9375 
Q 15.4375 19.96875 14.203125 18.09375 
Q 12.984375 16.21875 12.984375 13.921875 
Q 12.984375 10.40625 15.640625 8.0625 
Q 18.3125 5.71875 23.4375 5.71875 
Q 28.515625 5.71875 32.46875 7.9375 
Q 36.421875 10.15625 38.28125 14.015625 
Q 39.703125 17 39.703125 22.796875 
z
" id="ArialMT-97"/>
     <path d="M 25.78125 7.859375 
L 27.046875 0.09375 
Q 23.34375 -0.6875 20.40625 -0.6875 
Q 15.625 -0.6875 12.984375 0.828125 
Q 10.359375 2.34375 9.28125 4.8125 
Q 8.203125 7.28125 8.203125 15.1875 
L 8.203125 45.015625 
L 1.765625 45.015625 
L 1.765625 51.859375 
L 8.203125 51.859375 
L 8.203125 64.703125 
L 16.9375 69.96875 
L 16.9375 51.859375 
L 25.78125 51.859375 
L 25.78125 45.015625 
L 16.9375 45.015625 
L 16.9375 14.703125 
Q 16.9375 10.9375 17.40625 9.859375 
Q 17.875 8.796875 18.921875 8.15625 
Q 19.96875 7.515625 21.921875 7.515625 
Q 23.390625 7.515625 25.78125 7.859375 
z
" id="ArialMT-116"/>
     <path d="M 42.09375 16.703125 
L 51.171875 15.578125 
Q 49.03125 7.625 43.21875 3.21875 
Q 37.40625 -1.171875 28.375 -1.171875 
Q 17 -1.171875 10.328125 5.828125 
Q 3.65625 12.84375 3.65625 25.484375 
Q 3.65625 38.578125 10.390625 45.796875 
Q 17.140625 53.03125 27.875 53.03125 
Q 38.28125 53.03125 44.875 45.953125 
Q 51.46875 38.875 51.46875 26.03125 
Q 51.46875 25.25 51.421875 23.6875 
L 12.75 23.6875 
Q 13.234375 15.140625 17.578125 10.59375 
Q 21.921875 6.0625 28.421875 6.0625 
Q 33.25 6.0625 36.671875 8.59375 
Q 40.09375 11.140625 42.09375 16.703125 
z
M 13.234375 30.90625 
L 42.1875 30.90625 
Q 41.609375 37.453125 38.875 40.71875 
Q 34.671875 45.796875 27.984375 45.796875 
Q 21.921875 45.796875 17.796875 41.75 
Q 13.671875 37.703125 13.234375 30.90625 
z
" id="ArialMT-101"/>
     <path d="M 6.5 0 
L 6.5 51.859375 
L 14.40625 51.859375 
L 14.40625 44 
Q 17.4375 49.515625 20 51.265625 
Q 22.5625 53.03125 25.640625 53.03125 
Q 30.078125 53.03125 34.671875 50.203125 
L 31.640625 42.046875 
Q 28.421875 43.953125 25.203125 43.953125 
Q 22.3125 43.953125 20.015625 42.21875 
Q 17.71875 40.484375 16.75 37.40625 
Q 15.28125 32.71875 15.28125 27.15625 
L 15.28125 0 
z
" id="ArialMT-114"/>
     <path d="M 3.078125 15.484375 
L 11.765625 16.84375 
Q 12.5 11.625 15.84375 8.84375 
Q 19.1875 6.0625 25.203125 6.0625 
Q 31.25 6.0625 34.171875 8.515625 
Q 37.109375 10.984375 37.109375 14.3125 
Q 37.109375 17.28125 34.515625 19 
Q 32.71875 20.171875 25.53125 21.96875 
Q 15.875 24.421875 12.140625 26.203125 
Q 8.40625 27.984375 6.46875 31.125 
Q 4.546875 34.28125 4.546875 38.09375 
Q 4.546875 41.546875 6.125 44.5 
Q 7.71875 47.46875 10.453125 49.421875 
Q 12.5 50.921875 16.03125 51.96875 
Q 19.578125 53.03125 23.640625 53.03125 
Q 29.734375 53.03125 34.34375 51.265625 
Q 38.96875 49.515625 41.15625 46.5 
Q 43.359375 43.5 44.1875 38.484375 
L 35.59375 37.3125 
Q 35.015625 41.3125 32.203125 43.546875 
Q 29.390625 45.796875 24.265625 45.796875 
Q 18.21875 45.796875 15.625 43.796875 
Q 13.03125 41.796875 13.03125 39.109375 
Q 13.03125 37.40625 14.109375 36.03125 
Q 15.1875 34.625 17.484375 33.6875 
Q 18.796875 33.203125 25.25 31.453125 
Q 34.578125 28.953125 38.25 27.359375 
Q 41.9375 25.78125 44.03125 22.75 
Q 46.140625 19.734375 46.140625 15.234375 
Q 46.140625 10.84375 43.578125 6.953125 
Q 41.015625 3.078125 36.171875 0.953125 
Q 31.34375 -1.171875 25.25 -1.171875 
Q 15.140625 -1.171875 9.84375 3.03125 
Q 4.546875 7.234375 3.078125 15.484375 
z
" id="ArialMT-115"/>
     <path d="M 6.59375 -19.875 
L 6.59375 51.859375 
L 14.59375 51.859375 
L 14.59375 45.125 
Q 17.4375 49.078125 21 51.046875 
Q 24.5625 53.03125 29.640625 53.03125 
Q 36.28125 53.03125 41.359375 49.609375 
Q 46.4375 46.1875 49.015625 39.953125 
Q 51.609375 33.734375 51.609375 26.3125 
Q 51.609375 18.359375 48.75 11.984375 
Q 45.90625 5.609375 40.453125 2.21875 
Q 35.015625 -1.171875 29 -1.171875 
Q 24.609375 -1.171875 21.109375 0.6875 
Q 17.625 2.546875 15.375 5.375 
L 15.375 -19.875 
z
M 14.546875 25.640625 
Q 14.546875 15.625 18.59375 10.84375 
Q 22.65625 6.0625 28.421875 6.0625 
Q 34.28125 6.0625 38.453125 11.015625 
Q 42.625 15.96875 42.625 26.375 
Q 42.625 36.28125 38.546875 41.203125 
Q 34.46875 46.140625 28.8125 46.140625 
Q 23.1875 46.140625 18.859375 40.890625 
Q 14.546875 35.640625 14.546875 25.640625 
z
" id="ArialMT-112"/>
     <path d="M 40.234375 0 
L 40.234375 6.546875 
Q 35.296875 -1.171875 25.734375 -1.171875 
Q 19.53125 -1.171875 14.328125 2.25 
Q 9.125 5.671875 6.265625 11.796875 
Q 3.421875 17.921875 3.421875 25.875 
Q 3.421875 33.640625 6 39.96875 
Q 8.59375 46.296875 13.765625 49.65625 
Q 18.953125 53.03125 25.34375 53.03125 
Q 30.03125 53.03125 33.6875 51.046875 
Q 37.359375 49.078125 39.65625 45.90625 
L 39.65625 71.578125 
L 48.390625 71.578125 
L 48.390625 0 
z
M 12.453125 25.875 
Q 12.453125 15.921875 16.640625 10.984375 
Q 20.84375 6.0625 26.5625 6.0625 
Q 32.328125 6.0625 36.34375 10.765625 
Q 40.375 15.484375 40.375 25.140625 
Q 40.375 35.796875 36.265625 40.765625 
Q 32.171875 45.75 26.171875 45.75 
Q 20.3125 45.75 16.375 40.96875 
Q 12.453125 36.1875 12.453125 25.875 
z
" id="ArialMT-100"/>
    </defs>
    <g style="fill:#262626;" transform="translate(261.188437 41.52)scale(0.12 -0.12)">
     <use xlink:href="#ArialMT-87"/>
     <use x="94.337891" xlink:href="#ArialMT-97"/>
     <use x="149.953125" xlink:href="#ArialMT-116"/>
     <use x="177.736328" xlink:href="#ArialMT-101"/>
     <use x="233.351562" xlink:href="#ArialMT-114"/>
     <use x="266.652344" xlink:href="#ArialMT-32"/>
     <use x="294.435547" xlink:href="#ArialMT-115"/>
     <use x="344.435547" xlink:href="#ArialMT-112"/>
     <use x="400.050781" xlink:href="#ArialMT-101"/>
     <use x="455.666016" xlink:href="#ArialMT-101"/>
     <use x="511.28125" xlink:href="#ArialMT-100"/>
    </g>
   </g>
   <g id="legend_1">
    <g id="line2d_30">
     <path d="M 81 60.2075 
L 101 60.2075 
" style="fill:none;stroke:#4c72b0;stroke-linecap:round;stroke-width:1.75;"/>
    </g>
    <g id="line2d_31"/>
    <g id="text_15">
     <!-- dist_pipe0 -->
     <defs>
      <path d="M 6.640625 61.46875 
L 6.640625 71.578125 
L 15.4375 71.578125 
L 15.4375 61.46875 
z
M 6.640625 0 
L 6.640625 51.859375 
L 15.4375 51.859375 
L 15.4375 0 
z
" id="ArialMT-105"/>
      <path d="M -1.515625 -19.875 
L -1.515625 -13.53125 
L 56.734375 -13.53125 
L 56.734375 -19.875 
z
" id="ArialMT-95"/>
     </defs>
     <g style="fill:#262626;" transform="translate(109 63.7075)scale(0.1 -0.1)">
      <use xlink:href="#ArialMT-100"/>
      <use x="55.615234" xlink:href="#ArialMT-105"/>
      <use x="77.832031" xlink:href="#ArialMT-115"/>
      <use x="127.832031" xlink:href="#ArialMT-116"/>
      <use x="155.615234" xlink:href="#ArialMT-95"/>
      <use x="211.230469" xlink:href="#ArialMT-112"/>
      <use x="266.845703" xlink:href="#ArialMT-105"/>
      <use x="289.0625" xlink:href="#ArialMT-112"/>
      <use x="344.677734" xlink:href="#ArialMT-101"/>
      <use x="400.292969" xlink:href="#ArialMT-48"/>
     </g>
    </g>
    <g id="line2d_32">
     <path d="M 81 74.3825 
L 101 74.3825 
" style="fill:none;stroke:#55a868;stroke-linecap:round;stroke-width:1.75;"/>
    </g>
    <g id="line2d_33"/>
    <g id="text_16">
     <!-- dist_pipe2 -->
     <g style="fill:#262626;" transform="translate(109 77.8825)scale(0.1 -0.1)">
      <use xlink:href="#ArialMT-100"/>
      <use x="55.615234" xlink:href="#ArialMT-105"/>
      <use x="77.832031" xlink:href="#ArialMT-115"/>
      <use x="127.832031" xlink:href="#ArialMT-116"/>
      <use x="155.615234" xlink:href="#ArialMT-95"/>
      <use x="211.230469" xlink:href="#ArialMT-112"/>
      <use x="266.845703" xlink:href="#ArialMT-105"/>
      <use x="289.0625" xlink:href="#ArialMT-112"/>
      <use x="344.677734" xlink:href="#ArialMT-101"/>
      <use x="400.292969" xlink:href="#ArialMT-50"/>
     </g>
    </g>
    <g id="line2d_34">
     <path d="M 81 88.5575 
L 101 88.5575 
" style="fill:none;stroke:#c44e52;stroke-linecap:round;stroke-width:1.75;"/>
    </g>
    <g id="line2d_35"/>
    <g id="text_17">
     <!-- dist_pipe1 -->
     <g style="fill:#262626;" transform="translate(109 92.0575)scale(0.1 -0.1)">
      <use xlink:href="#ArialMT-100"/>
      <use x="55.615234" xlink:href="#ArialMT-105"/>
      <use x="77.832031" xlink:href="#ArialMT-115"/>
      <use x="127.832031" xlink:href="#ArialMT-116"/>
      <use x="155.615234" xlink:href="#ArialMT-95"/>
      <use x="211.230469" xlink:href="#ArialMT-112"/>
      <use x="266.845703" xlink:href="#ArialMT-105"/>
      <use x="289.0625" xlink:href="#ArialMT-112"/>
      <use x="344.677734" xlink:href="#ArialMT-101"/>
      <use x="400.292969" xlink:href="#ArialMT-49"/>
     </g>
    </g>
   </g>
  </g>
  <g id="axes_2">
   <g id="patch_7">
    <path d="M 72 352.44 
L 518.4 352.44 
L 518.4 213.84 
L 72 213.84 
z
" style="fill:#eaeaf2;"/>
   </g>
   <g id="matplotlib.axis_3">
    <g id="xtick_10">
     <g id="line2d_36">
      <path clip-path="url(#p94d87d9cd4)" d="M 92.290909 352.44 
L 92.290909 213.84 
" style="fill:none;stroke:#ffffff;stroke-linecap:round;"/>
     </g>
     <g id="line2d_37"/>
     <g id="text_18">
      <!-- 01-01 00 -->
      <g style="fill:#262626;" transform="translate(72.55419 366.597813)scale(0.1 -0.1)">
       <use xlink:href="#ArialMT-48"/>
       <use x="55.615234" xlink:href="#ArialMT-49"/>
       <use x="111.230469" xlink:href="#ArialMT-45"/>
       <use x="144.53125" xlink:href="#ArialMT-48"/>
       <use x="200.146484" xlink:href="#ArialMT-49"/>
       <use x="255.761719" xlink:href="#ArialMT-32"/>
       <use x="283.544922" xlink:href="#ArialMT-48"/>
       <use x="339.160156" xlink:href="#ArialMT-48"/>
      </g>
     </g>
    </g>
    <g id="xtick_11">
     <g id="line2d_38">
      <path clip-path="url(#p94d87d9cd4)" d="M 143.053434 352.44 
L 143.053434 213.84 
" style="fill:none;stroke:#ffffff;stroke-linecap:round;"/>
     </g>
     <g id="line2d_39"/>
     <g id="text_19">
      <!-- 01-01 03 -->
      <g style="fill:#262626;" transform="translate(123.316715 366.597813)scale(0.1 -0.1)">
       <use xlink:href="#ArialMT-48"/>
       <use x="55.615234" xlink:href="#ArialMT-49"/>
       <use x="111.230469" xlink:href="#ArialMT-45"/>
       <use x="144.53125" xlink:href="#ArialMT-48"/>
       <use x="200.146484" xlink:href="#ArialMT-49"/>
       <use x="255.761719" xlink:href="#ArialMT-32"/>
       <use x="283.544922" xlink:href="#ArialMT-48"/>
       <use x="339.160156" xlink:href="#ArialMT-51"/>
      </g>
     </g>
    </g>
    <g id="xtick_12">
     <g id="line2d_40">
      <path clip-path="url(#p94d87d9cd4)" d="M 193.815958 352.44 
L 193.815958 213.84 
" style="fill:none;stroke:#ffffff;stroke-linecap:round;"/>
     </g>
     <g id="line2d_41"/>
     <g id="text_20">
      <!-- 01-01 06 -->
      <g style="fill:#262626;" transform="translate(174.079239 366.597813)scale(0.1 -0.1)">
       <use xlink:href="#ArialMT-48"/>
       <use x="55.615234" xlink:href="#ArialMT-49"/>
       <use x="111.230469" xlink:href="#ArialMT-45"/>
       <use x="144.53125" xlink:href="#ArialMT-48"/>
       <use x="200.146484" xlink:href="#ArialMT-49"/>
       <use x="255.761719" xlink:href="#ArialMT-32"/>
       <use x="283.544922" xlink:href="#ArialMT-48"/>
       <use x="339.160156" xlink:href="#ArialMT-54"/>
      </g>
     </g>
    </g>
    <g id="xtick_13">
     <g id="line2d_42">
      <path clip-path="url(#p94d87d9cd4)" d="M 244.578483 352.44 
L 244.578483 213.84 
" style="fill:none;stroke:#ffffff;stroke-linecap:round;"/>
     </g>
     <g id="line2d_43"/>
     <g id="text_21">
      <!-- 01-01 09 -->
      <g style="fill:#262626;" transform="translate(224.841764 366.597813)scale(0.1 -0.1)">
       <use xlink:href="#ArialMT-48"/>
       <use x="55.615234" xlink:href="#ArialMT-49"/>
       <use x="111.230469" xlink:href="#ArialMT-45"/>
       <use x="144.53125" xlink:href="#ArialMT-48"/>
       <use x="200.146484" xlink:href="#ArialMT-49"/>
       <use x="255.761719" xlink:href="#ArialMT-32"/>
       <use x="283.544922" xlink:href="#ArialMT-48"/>
       <use x="339.160156" xlink:href="#ArialMT-57"/>
      </g>
     </g>
    </g>
    <g id="xtick_14">
     <g id="line2d_44">
      <path clip-path="url(#p94d87d9cd4)" d="M 295.341007 352.44 
L 295.341007 213.84 
" style="fill:none;stroke:#ffffff;stroke-linecap:round;"/>
     </g>
     <g id="line2d_45"/>
     <g id="text_22">
      <!-- 01-01 12 -->
      <g style="fill:#262626;" transform="translate(275.604288 366.597813)scale(0.1 -0.1)">
       <use xlink:href="#ArialMT-48"/>
       <use x="55.615234" xlink:href="#ArialMT-49"/>
       <use x="111.230469" xlink:href="#ArialMT-45"/>
       <use x="144.53125" xlink:href="#ArialMT-48"/>
       <use x="200.146484" xlink:href="#ArialMT-49"/>
       <use x="255.761719" xlink:href="#ArialMT-32"/>
       <use x="283.544922" xlink:href="#ArialMT-49"/>
       <use x="339.160156" xlink:href="#ArialMT-50"/>
      </g>
     </g>
    </g>
    <g id="xtick_15">
     <g id="line2d_46">
      <path clip-path="url(#p94d87d9cd4)" d="M 346.103531 352.44 
L 346.103531 213.84 
" style="fill:none;stroke:#ffffff;stroke-linecap:round;"/>
     </g>
     <g id="line2d_47"/>
     <g id="text_23">
      <!-- 01-01 15 -->
      <g style="fill:#262626;" transform="translate(326.366813 366.597813)scale(0.1 -0.1)">
       <use xlink:href="#ArialMT-48"/>
       <use x="55.615234" xlink:href="#ArialMT-49"/>
       <use x="111.230469" xlink:href="#ArialMT-45"/>
       <use x="144.53125" xlink:href="#ArialMT-48"/>
       <use x="200.146484" xlink:href="#ArialMT-49"/>
       <use x="255.761719" xlink:href="#ArialMT-32"/>
       <use x="283.544922" xlink:href="#ArialMT-49"/>
       <use x="339.160156" xlink:href="#ArialMT-53"/>
      </g>
     </g>
    </g>
    <g id="xtick_16">
     <g id="line2d_48">
      <path clip-path="url(#p94d87d9cd4)" d="M 396.866056 352.44 
L 396.866056 213.84 
" style="fill:none;stroke:#ffffff;stroke-linecap:round;"/>
     </g>
     <g id="line2d_49"/>
     <g id="text_24">
      <!-- 01-01 18 -->
      <g style="fill:#262626;" transform="translate(377.129337 366.597813)scale(0.1 -0.1)">
       <use xlink:href="#ArialMT-48"/>
       <use x="55.615234" xlink:href="#ArialMT-49"/>
       <use x="111.230469" xlink:href="#ArialMT-45"/>
       <use x="144.53125" xlink:href="#ArialMT-48"/>
       <use x="200.146484" xlink:href="#ArialMT-49"/>
       <use x="255.761719" xlink:href="#ArialMT-32"/>
       <use x="283.544922" xlink:href="#ArialMT-49"/>
       <use x="339.160156" xlink:href="#ArialMT-56"/>
      </g>
     </g>
    </g>
    <g id="xtick_17">
     <g id="line2d_50">
      <path clip-path="url(#p94d87d9cd4)" d="M 447.62858 352.44 
L 447.62858 213.84 
" style="fill:none;stroke:#ffffff;stroke-linecap:round;"/>
     </g>
     <g id="line2d_51"/>
     <g id="text_25">
      <!-- 01-01 21 -->
      <g style="fill:#262626;" transform="translate(427.891862 366.597813)scale(0.1 -0.1)">
       <use xlink:href="#ArialMT-48"/>
       <use x="55.615234" xlink:href="#ArialMT-49"/>
       <use x="111.230469" xlink:href="#ArialMT-45"/>
       <use x="144.53125" xlink:href="#ArialMT-48"/>
       <use x="200.146484" xlink:href="#ArialMT-49"/>
       <use x="255.761719" xlink:href="#ArialMT-32"/>
       <use x="283.544922" xlink:href="#ArialMT-50"/>
       <use x="339.160156" xlink:href="#ArialMT-49"/>
      </g>
     </g>
    </g>
    <g id="xtick_18">
     <g id="line2d_52">
      <path clip-path="url(#p94d87d9cd4)" d="M 498.391105 352.44 
L 498.391105 213.84 
" style="fill:none;stroke:#ffffff;stroke-linecap:round;"/>
     </g>
     <g id="line2d_53"/>
     <g id="text_26">
      <!-- 01-02 00 -->
      <g style="fill:#262626;" transform="translate(478.654386 366.597813)scale(0.1 -0.1)">
       <use xlink:href="#ArialMT-48"/>
       <use x="55.615234" xlink:href="#ArialMT-49"/>
       <use x="111.230469" xlink:href="#ArialMT-45"/>
       <use x="144.53125" xlink:href="#ArialMT-48"/>
       <use x="200.146484" xlink:href="#ArialMT-50"/>
       <use x="255.761719" xlink:href="#ArialMT-32"/>
       <use x="283.544922" xlink:href="#ArialMT-48"/>
       <use x="339.160156" xlink:href="#ArialMT-48"/>
      </g>
     </g>
    </g>
   </g>
   <g id="matplotlib.axis_4">
    <g id="ytick_5">
     <g id="line2d_54">
      <path clip-path="url(#p94d87d9cd4)" d="M 72 344.668566 
L 518.4 344.668566 
" style="fill:none;stroke:#ffffff;stroke-linecap:round;"/>
     </g>
     <g id="line2d_55"/>
     <g id="text_27">
      <!-- 0.2 -->
      <g style="fill:#262626;" transform="translate(51.1 348.247472)scale(0.1 -0.1)">
       <use xlink:href="#ArialMT-48"/>
       <use x="55.615234" xlink:href="#ArialMT-46"/>
       <use x="83.398438" xlink:href="#ArialMT-50"/>
      </g>
     </g>
    </g>
    <g id="ytick_6">
     <g id="line2d_56">
      <path clip-path="url(#p94d87d9cd4)" d="M 72 313.536424 
L 518.4 313.536424 
" style="fill:none;stroke:#ffffff;stroke-linecap:round;"/>
     </g>
     <g id="line2d_57"/>
     <g id="text_28">
      <!-- 0.4 -->
      <defs>
       <path d="M 32.328125 0 
L 32.328125 17.140625 
L 1.265625 17.140625 
L 1.265625 25.203125 
L 33.9375 71.578125 
L 41.109375 71.578125 
L 41.109375 25.203125 
L 50.78125 25.203125 
L 50.78125 17.140625 
L 41.109375 17.140625 
L 41.109375 0 
z
M 32.328125 25.203125 
L 32.328125 57.46875 
L 9.90625 25.203125 
z
" id="ArialMT-52"/>
      </defs>
      <g style="fill:#262626;" transform="translate(51.1 317.11533)scale(0.1 -0.1)">
       <use xlink:href="#ArialMT-48"/>
       <use x="55.615234" xlink:href="#ArialMT-46"/>
       <use x="83.398438" xlink:href="#ArialMT-52"/>
      </g>
     </g>
    </g>
    <g id="ytick_7">
     <g id="line2d_58">
      <path clip-path="url(#p94d87d9cd4)" d="M 72 282.404283 
L 518.4 282.404283 
" style="fill:none;stroke:#ffffff;stroke-linecap:round;"/>
     </g>
     <g id="line2d_59"/>
     <g id="text_29">
      <!-- 0.6 -->
      <g style="fill:#262626;" transform="translate(51.1 285.983189)scale(0.1 -0.1)">
       <use xlink:href="#ArialMT-48"/>
       <use x="55.615234" xlink:href="#ArialMT-46"/>
       <use x="83.398438" xlink:href="#ArialMT-54"/>
      </g>
     </g>
    </g>
    <g id="ytick_8">
     <g id="line2d_60">
      <path clip-path="url(#p94d87d9cd4)" d="M 72 251.272141 
L 518.4 251.272141 
" style="fill:none;stroke:#ffffff;stroke-linecap:round;"/>
     </g>
     <g id="line2d_61"/>
     <g id="text_30">
      <!-- 0.8 -->
      <g style="fill:#262626;" transform="translate(51.1 254.851048)scale(0.1 -0.1)">
       <use xlink:href="#ArialMT-48"/>
       <use x="55.615234" xlink:href="#ArialMT-46"/>
       <use x="83.398438" xlink:href="#ArialMT-56"/>
      </g>
     </g>
    </g>
    <g id="ytick_9">
     <g id="line2d_62">
      <path clip-path="url(#p94d87d9cd4)" d="M 72 220.14 
L 518.4 220.14 
" style="fill:none;stroke:#ffffff;stroke-linecap:round;"/>
     </g>
     <g id="line2d_63"/>
     <g id="text_31">
      <!-- 1.0 -->
      <g style="fill:#262626;" transform="translate(51.1 223.718906)scale(0.1 -0.1)">
       <use xlink:href="#ArialMT-49"/>
       <use x="55.615234" xlink:href="#ArialMT-46"/>
       <use x="83.398438" xlink:href="#ArialMT-48"/>
      </g>
     </g>
    </g>
   </g>
   <g id="line2d_64">
    <path clip-path="url(#p94d87d9cd4)" d="M 92.290909 220.14 
L 498.109091 220.14 
" style="fill:none;stroke:#000000;stroke-dasharray:1.75,2.8875;stroke-dashoffset:0;stroke-width:1.75;"/>
    <defs>
     <path d="M 0 3.5 
C 0.928211 3.5 1.81853 3.131218 2.474874 2.474874 
C 3.131218 1.81853 3.5 0.928211 3.5 0 
C 3.5 -0.928211 3.131218 -1.81853 2.474874 -2.474874 
C 1.81853 -3.131218 0.928211 -3.5 0 -3.5 
C -0.928211 -3.5 -1.81853 -3.131218 -2.474874 -2.474874 
C -3.131218 -1.81853 -3.5 -0.928211 -3.5 0 
C -3.5 0.928211 -3.131218 1.81853 -2.474874 2.474874 
C -1.81853 3.131218 -0.928211 3.5 0 3.5 
z
" id="m24cc4e4657"/>
    </defs>
    <g clip-path="url(#p94d87d9cd4)">
     <use x="92.290909" xlink:href="#m24cc4e4657" y="220.14"/>
     <use x="498.109091" xlink:href="#m24cc4e4657" y="220.14"/>
    </g>
   </g>
   <g id="line2d_65">
    <path clip-path="url(#p94d87d9cd4)" d="M 92.290909 307.308251 
L 96.239105 307.243604 
L 96.521119 309.415849 
L 97.649176 309.636132 
L 98.777232 310.129039 
L 99.905288 310.907058 
L 100.469316 311.375753 
L 100.75133 313.03826 
L 103.57147 315.306969 
L 104.699526 315.974168 
L 104.98154 320.621577 
L 106.39161 321.051363 
L 107.801681 321.2477 
L 108.929737 321.254143 
L 109.211751 322.397936 
L 110.903835 322.171893 
L 113.159947 321.615677 
L 113.441961 323.31837 
L 117.390157 322.192147 
L 117.672171 324.138315 
L 121.338354 323.355994 
L 121.620368 323.303971 
L 121.902382 324.992808 
L 125.850578 324.371608 
L 126.132592 324.578631 
L 130.080788 324.008729 
L 130.362802 324.987101 
L 134.310999 324.572346 
L 134.593013 327.139385 
L 137.695167 327.057314 
L 138.541209 327.072262 
L 138.823223 328.664097 
L 148.693714 328.880806 
L 151.23184 328.706674 
L 151.513854 327.982697 
L 155.462051 327.758369 
L 155.744065 345.912505 
L 159.692261 345.851568 
L 159.974275 343.070267 
L 163.922471 343.03378 
L 164.204485 340.851948 
L 168.152682 340.836473 
L 168.434696 338.799647 
L 172.382892 338.811948 
L 172.664906 333.560157 
L 176.613102 333.612685 
L 176.895117 332.345702 
L 180.843313 332.364481 
L 181.125327 330.493258 
L 185.073523 330.475375 
L 185.355537 328.994561 
L 189.303734 328.982385 
L 189.585748 322.185136 
L 193.533944 322.201315 
L 193.815958 315.569834 
L 197.764154 315.604304 
L 198.046168 308.016035 
L 201.994365 308.05875 
L 202.276379 299.742965 
L 206.224575 299.78509 
L 206.506589 292.762309 
L 210.454786 292.796008 
L 210.7368 285.564258 
L 214.684996 285.586866 
L 214.96701 285.773232 
L 218.915206 285.779207 
L 219.19722 279.127234 
L 222.299375 279.256637 
L 223.145417 279.374791 
L 223.427431 274.101825 
L 225.119515 274.58961 
L 227.375627 275.378517 
L 227.657641 266.439065 
L 228.785697 266.692896 
L 229.631739 266.684133 
L 230.759795 266.399849 
L 231.605837 266.049864 
L 231.887851 273.746831 
L 233.86195 273.058234 
L 235.554034 272.726733 
L 235.836048 272.693864 
L 236.118062 272.09364 
L 238.656188 271.984887 
L 240.066258 271.981416 
L 240.348272 270.369175 
L 243.73244 270.534059 
L 244.296468 270.574863 
L 244.578483 268.767906 
L 246.834595 268.821682 
L 248.526679 268.734254 
L 248.808693 270.314306 
L 252.756889 270.151769 
L 253.038903 272.772229 
L 256.9871 272.757915 
L 257.269114 271.583247 
L 261.21731 271.637436 
L 261.499324 271.458884 
L 265.44752 271.422734 
L 265.729534 273.716179 
L 269.677731 273.694389 
L 269.959745 274.145708 
L 273.907941 274.150083 
L 274.189955 275.245394 
L 278.138151 275.249555 
L 278.420166 275.861591 
L 282.368362 275.849732 
L 282.650376 279.113812 
L 286.598572 279.105128 
L 286.880586 278.972346 
L 290.828783 278.981383 
L 291.110797 278.536174 
L 295.058993 278.538893 
L 295.341007 279.597886 
L 299.289203 279.584801 
L 299.571217 281.847189 
L 303.519414 281.841503 
L 303.801428 281.437116 
L 307.749624 281.437414 
L 308.031638 284.043513 
L 311.979834 284.039112 
L 312.261848 284.379728 
L 316.210045 284.376633 
L 316.492059 285.351054 
L 320.440255 285.348852 
L 320.722269 285.787975 
L 324.670466 285.786365 
L 324.95248 287.344271 
L 328.900676 287.340727 
L 329.18269 287.058383 
L 333.130886 287.056979 
L 333.4129 287.654616 
L 337.361097 287.653496 
L 337.643111 287.419427 
L 341.591307 287.420332 
L 341.873321 285.95439 
L 345.821517 285.958256 
L 346.103531 285.81885 
L 350.051728 285.818915 
L 350.333742 287.020392 
L 354.281938 287.017951 
L 354.563952 286.784213 
L 358.512149 286.784113 
L 358.794163 286.272449 
L 362.742359 286.273756 
L 363.024373 286.462221 
L 366.972569 286.46263 
L 367.254583 287.023869 
L 371.20278 287.023866 
L 371.484794 286.422268 
L 375.43299 286.426811 
L 375.715004 286.623817 
L 379.6632 286.627149 
L 379.945214 285.893764 
L 383.893411 285.891913 
L 384.175425 286.494658 
L 388.123621 286.482508 
L 388.405635 286.0976 
L 392.353832 286.090892 
L 392.635846 286.706593 
L 396.584042 286.717652 
L 396.866056 286.589752 
L 400.532238 286.735873 
L 400.814252 286.760138 
L 401.096266 286.301157 
L 405.044463 286.780489 
L 405.326477 285.897434 
L 408.428631 286.455632 
L 413.504883 287.489741 
L 413.786897 287.357647 
L 416.325024 287.974518 
L 417.735094 288.378774 
L 418.017108 289.000468 
L 421.965304 290.107327 
L 422.247318 289.95924 
L 424.785444 290.880825 
L 427.887599 292.28112 
L 430.425725 293.506848 
L 430.707739 293.941383 
L 434.655935 295.754666 
L 434.937949 296.130677 
L 439.732188 298.851099 
L 443.116356 299.823801 
L 443.39837 300.19087 
L 445.936496 301.20796 
L 447.346566 301.803547 
L 447.62858 301.588983 
L 451.576777 303.13385 
L 451.858791 304.594839 
L 455.806987 306.153695 
L 456.089001 306.554804 
L 460.037198 308.12227 
L 460.319212 310.707123 
L 464.267408 312.023526 
L 464.549422 312.808174 
L 467.369562 313.926795 
L 468.497618 314.427681 
L 468.779632 317.334152 
L 471.317759 318.223597 
L 472.727829 318.539477 
L 473.009843 319.80744 
L 475.547969 320.045377 
L 476.958039 320.227533 
L 477.240053 326.997099 
L 478.932137 327.392638 
L 480.906235 328.140114 
L 481.188249 328.260613 
L 481.470263 330.899149 
L 483.444362 331.53875 
L 484.572418 331.684908 
L 485.41846 331.615211 
L 485.700474 336.231851 
L 486.82853 335.859216 
L 487.956586 335.187231 
L 489.084642 334.189976 
L 489.64867 333.566664 
L 489.930684 334.754128 
L 491.340754 332.909479 
L 493.032838 330.252683 
L 493.878881 328.835269 
L 494.160895 333.613766 
L 496.417007 330.830687 
L 497.827077 329.429896 
L 498.109091 329.190749 
L 498.109091 329.190749 
" style="fill:none;stroke:#4c72b0;stroke-linecap:round;stroke-width:1.75;"/>
   </g>
   <g id="line2d_66">
    <path clip-path="url(#p94d87d9cd4)" d="M 92.290909 309.532307 
L 96.239105 309.493705 
L 96.521119 310.489751 
L 97.649176 310.73722 
L 98.777232 311.273863 
L 99.905288 312.09905 
L 100.469316 312.586501 
L 100.75133 314.427028 
L 103.289456 316.482165 
L 104.699526 317.299566 
L 104.98154 321.631737 
L 106.39161 322.022781 
L 107.801681 322.181316 
L 108.929737 322.160269 
L 109.211751 323.239971 
L 110.903835 322.981993 
L 113.159947 322.397702 
L 113.441961 323.893341 
L 117.390157 322.760414 
L 117.672171 324.599922 
L 121.338354 323.834503 
L 121.620368 323.783717 
L 121.902382 325.316662 
L 125.850578 324.701953 
L 126.414606 324.699491 
L 130.080788 324.170447 
L 130.362802 324.431298 
L 134.310999 324.017426 
L 134.593013 326.331669 
L 137.695167 326.268714 
L 138.541209 326.291444 
L 138.823223 328.168775 
L 142.77142 328.383993 
L 143.053434 328.198501 
L 146.155588 328.244379 
L 147.00163 328.216276 
L 147.283644 328.577304 
L 151.23184 328.302151 
L 151.513854 327.319512 
L 155.462051 327.094577 
L 155.744065 346.14 
L 159.692261 346.087171 
L 159.974275 343.665616 
L 163.922471 343.634968 
L 164.204485 341.206353 
L 168.152682 341.192968 
L 168.434696 339.023011 
L 172.382892 339.037802 
L 172.664906 334.207616 
L 176.613102 334.258299 
L 176.895117 333.242564 
L 180.843313 333.254339 
L 181.125327 330.884081 
L 185.073523 330.864246 
L 185.355537 329.646748 
L 189.303734 329.634764 
L 189.585748 324.284629 
L 193.533944 324.294362 
L 193.815958 318.414898 
L 197.764154 318.44234 
L 198.046168 311.277227 
L 201.994365 311.314747 
L 202.276379 303.443706 
L 206.224575 303.481079 
L 206.506589 297.792113 
L 210.454786 297.819465 
L 210.7368 290.812858 
L 214.684996 290.832784 
L 214.96701 291.619552 
L 218.915206 291.624029 
L 219.19722 285.704969 
L 222.299375 285.828037 
L 223.145417 285.94053 
L 223.427431 279.822291 
L 225.119515 280.294545 
L 227.375627 281.043899 
L 227.657641 272.815111 
L 228.785697 273.043695 
L 229.631739 273.02489 
L 230.759795 272.74477 
L 231.605837 272.410262 
L 231.887851 279.651239 
L 234.143964 278.938828 
L 235.836048 278.66907 
L 236.118062 278.068196 
L 238.656188 277.967238 
L 240.066258 277.964487 
L 240.348272 277.171674 
L 243.73244 277.327072 
L 244.296468 277.365108 
L 244.578483 275.196478 
L 247.116609 275.235234 
L 248.526679 275.160374 
L 248.808693 276.439238 
L 252.756889 276.288071 
L 253.038903 279.453569 
L 256.9871 279.439859 
L 257.269114 277.950427 
L 261.21731 278.002005 
L 261.499324 277.459153 
L 265.44752 277.424912 
L 265.729534 280.094311 
L 269.677731 280.073754 
L 269.959745 280.728117 
L 273.907941 280.732026 
L 274.189955 282.482556 
L 278.138151 282.485259 
L 278.420166 282.822973 
L 282.368362 282.812398 
L 282.650376 285.946406 
L 286.598572 285.938748 
L 286.880586 285.425603 
L 290.828783 285.434852 
L 291.110797 285.028079 
L 295.058993 285.030274 
L 295.341007 285.842819 
L 299.289203 285.831111 
L 299.571217 287.636526 
L 303.519414 287.632144 
L 303.801428 287.172059 
L 307.749624 287.17244 
L 308.031638 289.879435 
L 311.979834 289.875308 
L 312.261848 290.001014 
L 316.210045 289.998521 
L 316.492059 291.206577 
L 320.440255 291.204185 
L 320.722269 291.748341 
L 324.670466 291.746667 
L 324.95248 293.03243 
L 328.900676 293.029689 
L 329.18269 292.658708 
L 333.130886 292.657557 
L 333.4129 293.457101 
L 337.361097 293.455741 
L 337.643111 293.176576 
L 341.591307 293.17749 
L 341.873321 292.239802 
L 345.821517 292.24232 
L 346.103531 291.703774 
L 350.051728 291.704493 
L 350.333742 292.742857 
L 354.281938 292.740976 
L 354.845966 292.62044 
L 358.512149 292.620215 
L 358.794163 292.19478 
L 362.742359 292.195801 
L 363.024373 292.385362 
L 366.972569 292.385753 
L 367.254583 292.527246 
L 371.20278 292.52806 
L 371.484794 292.400659 
L 379.6632 292.302522 
L 379.945214 291.286769 
L 383.893411 291.285386 
L 384.175425 292.006928 
L 388.123621 291.995303 
L 388.405635 291.369034 
L 392.353832 291.363194 
L 392.635846 291.813175 
L 400.814252 291.913572 
L 401.096266 291.605409 
L 405.044463 292.06016 
L 405.326477 291.033796 
L 408.428631 291.568792 
L 413.504883 292.58931 
L 413.786897 292.49262 
L 416.325024 293.082911 
L 417.735094 293.46589 
L 418.017108 294.252842 
L 421.965304 295.299174 
L 422.247318 295.131162 
L 424.785444 296.007497 
L 427.323571 297.117911 
L 430.425725 298.538845 
L 430.707739 299.001821 
L 434.655935 300.720384 
L 435.219963 301.145054 
L 438.604132 302.961859 
L 440.57823 303.623434 
L 443.116356 304.318872 
L 443.39837 304.813771 
L 446.21851 305.890021 
L 447.346566 306.336845 
L 447.62858 306.201415 
L 451.576777 307.656171 
L 451.858791 309.149744 
L 455.806987 310.61627 
L 456.089001 310.971518 
L 460.037198 312.444568 
L 460.319212 314.849969 
L 464.267408 316.090874 
L 464.549422 316.666878 
L 467.369562 317.731156 
L 468.497618 318.20416 
L 468.779632 320.7121 
L 471.317759 321.54712 
L 472.727829 321.837736 
L 473.009843 322.871059 
L 476.958039 323.280064 
L 477.240053 329.411561 
L 478.932137 329.811519 
L 480.906235 330.546315 
L 481.188249 330.662474 
L 481.470263 333.304182 
L 483.444362 333.892497 
L 484.572418 334.002064 
L 485.41846 333.905592 
L 485.700474 337.858059 
L 486.82853 337.456786 
L 487.956586 336.757359 
L 489.084642 335.737808 
L 489.64867 335.10683 
L 489.930684 336.109458 
L 491.340754 334.255516 
L 493.314852 331.164599 
L 493.878881 330.241631 
L 494.160895 334.687467 
L 496.134993 332.309742 
L 497.545063 330.931175 
L 498.109091 330.475513 
L 498.109091 330.475513 
" style="fill:none;stroke:#55a868;stroke-linecap:round;stroke-width:1.75;"/>
   </g>
   <g id="line2d_67">
    <path clip-path="url(#p94d87d9cd4)" d="M 92.290909 291.542968 
L 96.239105 291.32762 
L 96.521119 300.271094 
L 97.93119 300.392111 
L 99.059246 300.72317 
L 100.187302 301.344374 
L 100.469316 301.544975 
L 100.75133 302.274242 
L 102.443414 303.765717 
L 104.417512 305.492818 
L 104.699526 305.704626 
L 104.98154 312.353814 
L 106.39161 313.023118 
L 107.801681 313.442891 
L 108.929737 313.605553 
L 109.211751 315.165478 
L 110.903835 315.110168 
L 112.595919 314.823682 
L 113.159947 314.68761 
L 113.441961 317.643017 
L 116.544115 316.760429 
L 117.390157 316.503015 
L 117.672171 319.143673 
L 121.620368 318.168064 
L 121.902382 320.818797 
L 125.850578 320.132206 
L 126.132592 321.298048 
L 130.080788 320.70907 
L 130.362802 325.802165 
L 134.310999 325.363325 
L 134.593013 329.482288 
L 138.541209 329.259513 
L 139.387251 329.296089 
L 142.77142 329.352657 
L 143.053434 329.899551 
L 147.00163 330.040055 
L 147.283644 328.920371 
L 150.667812 328.862169 
L 151.23184 328.834792 
L 151.513854 329.544621 
L 155.462051 329.313419 
L 155.744065 343.24733 
L 159.692261 343.137605 
L 159.974275 338.187914 
L 163.922471 338.116628 
L 164.204485 337.234164 
L 168.152682 337.206121 
L 168.434696 335.830715 
L 172.382892 335.829457 
L 172.664906 327.944772 
L 176.613102 328.010186 
L 176.895117 325.259861 
L 180.843313 325.319236 
L 181.125327 326.192419 
L 185.073523 326.184789 
L 185.355537 323.142349 
L 189.303734 323.128521 
L 189.585748 307.810692 
L 193.533944 307.864175 
L 193.815958 296.662273 
L 197.764154 296.738193 
L 198.046168 286.400757 
L 201.994365 286.474904 
L 202.276379 275.25405 
L 206.224575 275.325057 
L 206.506589 260.413942 
L 210.454786 260.485195 
L 210.7368 251.643794 
L 214.684996 251.682657 
L 214.96701 248.472166 
L 218.915206 248.486913 
L 219.19722 237.371931 
L 222.017361 237.506531 
L 223.145417 237.698912 
L 223.427431 236.977715 
L 224.837501 237.456789 
L 227.375627 238.625556 
L 227.657641 225.244069 
L 228.785697 225.65278 
L 229.631739 225.70057 
L 230.477781 225.496925 
L 231.605837 224.925717 
L 231.887851 235.563082 
L 233.86195 234.591967 
L 235.27202 234.164616 
L 235.836048 234.060121 
L 236.118062 233.435977 
L 238.09216 233.291751 
L 240.066258 233.270293 
L 240.348272 226.936159 
L 243.168412 227.104721 
L 244.296468 227.22081 
L 244.578483 227.382116 
L 246.552581 227.478333 
L 248.526679 227.360823 
L 248.808693 230.721864 
L 252.474875 230.494008 
L 252.756889 230.487363 
L 253.038903 230.136955 
L 256.9871 230.118559 
L 257.269114 230.675166 
L 261.21731 230.746664 
L 261.499324 232.626174 
L 265.44752 232.577539 
L 265.729534 232.844097 
L 269.677731 232.814312 
L 269.959745 232.134741 
L 273.907941 232.14196 
L 274.189955 229.571305 
L 278.138151 229.583926 
L 278.420166 231.780049 
L 282.368362 231.760367 
L 282.650376 235.912351 
L 286.598572 235.897446 
L 286.880586 237.91594 
L 290.828783 237.924194 
L 291.110797 237.2405 
L 295.058993 237.246317 
L 295.341007 239.75185 
L 299.289203 239.730358 
L 299.571217 244.688727 
L 307.749624 244.568149 
L 308.031638 246.721854 
L 311.979834 246.715693 
L 312.261848 248.290934 
L 316.210045 248.284282 
L 316.492059 247.978362 
L 320.440255 247.977143 
L 320.722269 247.840726 
L 324.670466 247.8394 
L 324.95248 251.012539 
L 328.900676 251.004284 
L 329.18269 251.211698 
L 333.130886 251.208787 
L 333.4129 250.688714 
L 341.591307 250.700751 
L 341.873321 246.171162 
L 345.821517 246.182848 
L 346.103531 248.30092 
L 350.051728 248.29728 
L 350.333742 250.479184 
L 354.281938 250.47346 
L 354.563952 249.586503 
L 358.512149 249.587498 
L 358.794163 248.563216 
L 362.742359 248.566205 
L 363.024373 248.757119 
L 366.972569 248.757655 
L 367.254583 251.725478 
L 371.20278 251.720837 
L 371.484794 248.401959 
L 375.43299 248.41327 
L 375.715004 250.333208 
L 379.6632 250.334956 
L 379.945214 251.169406 
L 388.123621 251.105792 
L 388.405635 252.072157 
L 392.353832 252.060215 
L 392.635846 253.644191 
L 396.584042 253.654844 
L 396.866056 253.230905 
L 400.250224 253.376176 
L 400.814252 253.434459 
L 401.096266 252.09894 
L 404.762449 252.688636 
L 405.044463 252.739739 
L 405.326477 252.628902 
L 408.146617 253.265083 
L 409.274673 253.596575 
L 409.556687 253.424975 
L 412.940855 254.369681 
L 413.504883 254.503138 
L 413.786897 254.164163 
L 415.760996 254.754485 
L 417.735094 255.503698 
L 418.017108 255.216662 
L 421.965304 256.717744 
L 422.247318 256.675853 
L 424.50343 257.745356 
L 426.195515 258.713709 
L 426.477529 258.551616 
L 430.425725 261.180296 
L 430.989753 261.642726 
L 434.655935 263.90744 
L 434.937949 264.908634 
L 437.194062 266.761373 
L 438.604132 267.808855 
L 438.886146 267.982688 
L 439.16816 269.285606 
L 440.57823 269.904996 
L 443.116356 270.833224 
L 443.39837 270.492138 
L 445.372468 271.533668 
L 447.346566 272.687218 
L 447.62858 272.013945 
L 451.294763 273.991571 
L 451.576777 274.140976 
L 451.858791 275.484356 
L 455.806987 277.638604 
L 456.089001 278.318285 
L 460.037198 280.493374 
L 460.319212 284.214968 
L 464.267408 286.020143 
L 464.549422 288.024294 
L 466.805534 289.176625 
L 468.497618 290.184669 
L 468.779632 295.485271 
L 471.317759 296.724323 
L 472.727829 297.198036 
L 473.009843 299.855183 
L 474.701927 300.10932 
L 476.958039 300.357488 
L 477.240053 311.057523 
L 478.650123 311.359758 
L 480.060193 311.884499 
L 481.188249 312.450634 
L 481.470263 315.192547 
L 484.00839 316.362111 
L 485.136446 316.587892 
L 485.41846 316.591847 
L 485.700474 325.18798 
L 486.82853 324.960642 
L 487.674572 324.583106 
L 488.520614 324.003836 
L 489.366656 323.205332 
L 489.64867 322.888224 
L 489.930684 325.178681 
L 491.05874 323.721178 
L 492.186796 321.920131 
L 493.596866 319.267315 
L 493.878881 318.698107 
L 494.160895 325.583243 
L 497.545063 320.482947 
L 498.109091 319.759639 
L 498.109091 319.759639 
" style="fill:none;stroke:#c44e52;stroke-linecap:round;stroke-width:1.75;"/>
   </g>
   <g id="patch_8">
    <path d="M 72 352.44 
L 72 213.84 
" style="fill:none;"/>
   </g>
   <g id="patch_9">
    <path d="M 518.4 352.44 
L 518.4 213.84 
" style="fill:none;"/>
   </g>
   <g id="patch_10">
    <path d="M 72 352.44 
L 518.4 352.44 
" style="fill:none;"/>
   </g>
   <g id="patch_11">
    <path d="M 72 213.84 
L 518.4 213.84 
" style="fill:none;"/>
   </g>
   <g id="text_32">
    <!-- Courant numbers -->
    <defs>
     <path d="M 58.796875 25.09375 
L 68.265625 22.703125 
Q 65.28125 11.03125 57.546875 4.90625 
Q 49.8125 -1.21875 38.625 -1.21875 
Q 27.046875 -1.21875 19.796875 3.484375 
Q 12.546875 8.203125 8.765625 17.140625 
Q 4.984375 26.078125 4.984375 36.328125 
Q 4.984375 47.515625 9.25 55.828125 
Q 13.53125 64.15625 21.40625 68.46875 
Q 29.296875 72.796875 38.765625 72.796875 
Q 49.515625 72.796875 56.828125 67.328125 
Q 64.15625 61.859375 67.046875 51.953125 
L 57.71875 49.75 
Q 55.21875 57.5625 50.484375 61.125 
Q 45.75 64.703125 38.578125 64.703125 
Q 30.328125 64.703125 24.78125 60.734375 
Q 19.234375 56.78125 16.984375 50.109375 
Q 14.75 43.453125 14.75 36.375 
Q 14.75 27.25 17.40625 20.4375 
Q 20.0625 13.625 25.671875 10.25 
Q 31.296875 6.890625 37.84375 6.890625 
Q 45.796875 6.890625 51.3125 11.46875 
Q 56.84375 16.0625 58.796875 25.09375 
z
" id="ArialMT-67"/>
     <path d="M 3.328125 25.921875 
Q 3.328125 40.328125 11.328125 47.265625 
Q 18.015625 53.03125 27.640625 53.03125 
Q 38.328125 53.03125 45.109375 46.015625 
Q 51.90625 39.015625 51.90625 26.65625 
Q 51.90625 16.65625 48.90625 10.90625 
Q 45.90625 5.171875 40.15625 2 
Q 34.421875 -1.171875 27.640625 -1.171875 
Q 16.75 -1.171875 10.03125 5.8125 
Q 3.328125 12.796875 3.328125 25.921875 
z
M 12.359375 25.921875 
Q 12.359375 15.96875 16.703125 11.015625 
Q 21.046875 6.0625 27.640625 6.0625 
Q 34.1875 6.0625 38.53125 11.03125 
Q 42.875 16.015625 42.875 26.21875 
Q 42.875 35.84375 38.5 40.796875 
Q 34.125 45.75 27.640625 45.75 
Q 21.046875 45.75 16.703125 40.8125 
Q 12.359375 35.890625 12.359375 25.921875 
z
" id="ArialMT-111"/>
     <path d="M 40.578125 0 
L 40.578125 7.625 
Q 34.515625 -1.171875 24.125 -1.171875 
Q 19.53125 -1.171875 15.546875 0.578125 
Q 11.578125 2.34375 9.640625 5 
Q 7.71875 7.671875 6.9375 11.53125 
Q 6.390625 14.109375 6.390625 19.734375 
L 6.390625 51.859375 
L 15.1875 51.859375 
L 15.1875 23.09375 
Q 15.1875 16.21875 15.71875 13.8125 
Q 16.546875 10.359375 19.234375 8.375 
Q 21.921875 6.390625 25.875 6.390625 
Q 29.828125 6.390625 33.296875 8.421875 
Q 36.765625 10.453125 38.203125 13.9375 
Q 39.65625 17.4375 39.65625 24.078125 
L 39.65625 51.859375 
L 48.4375 51.859375 
L 48.4375 0 
z
" id="ArialMT-117"/>
     <path d="M 6.59375 0 
L 6.59375 51.859375 
L 14.5 51.859375 
L 14.5 44.484375 
Q 20.21875 53.03125 31 53.03125 
Q 35.6875 53.03125 39.625 51.34375 
Q 43.5625 49.65625 45.515625 46.921875 
Q 47.46875 44.1875 48.25 40.4375 
Q 48.734375 37.984375 48.734375 31.890625 
L 48.734375 0 
L 39.9375 0 
L 39.9375 31.546875 
Q 39.9375 36.921875 38.90625 39.578125 
Q 37.890625 42.234375 35.28125 43.8125 
Q 32.671875 45.40625 29.15625 45.40625 
Q 23.53125 45.40625 19.453125 41.84375 
Q 15.375 38.28125 15.375 28.328125 
L 15.375 0 
z
" id="ArialMT-110"/>
     <path d="M 6.59375 0 
L 6.59375 51.859375 
L 14.453125 51.859375 
L 14.453125 44.578125 
Q 16.890625 48.390625 20.9375 50.703125 
Q 25 53.03125 30.171875 53.03125 
Q 35.9375 53.03125 39.625 50.640625 
Q 43.3125 48.25 44.828125 43.953125 
Q 50.984375 53.03125 60.84375 53.03125 
Q 68.5625 53.03125 72.703125 48.75 
Q 76.859375 44.484375 76.859375 35.59375 
L 76.859375 0 
L 68.109375 0 
L 68.109375 32.671875 
Q 68.109375 37.9375 67.25 40.25 
Q 66.40625 42.578125 64.15625 43.984375 
Q 61.921875 45.40625 58.890625 45.40625 
Q 53.421875 45.40625 49.796875 41.765625 
Q 46.1875 38.140625 46.1875 30.125 
L 46.1875 0 
L 37.40625 0 
L 37.40625 33.6875 
Q 37.40625 39.546875 35.25 42.46875 
Q 33.109375 45.40625 28.21875 45.40625 
Q 24.515625 45.40625 21.359375 43.453125 
Q 18.21875 41.5 16.796875 37.734375 
Q 15.375 33.984375 15.375 26.90625 
L 15.375 0 
z
" id="ArialMT-109"/>
     <path d="M 14.703125 0 
L 6.546875 0 
L 6.546875 71.578125 
L 15.328125 71.578125 
L 15.328125 46.046875 
Q 20.90625 53.03125 29.546875 53.03125 
Q 34.328125 53.03125 38.59375 51.09375 
Q 42.875 49.171875 45.625 45.671875 
Q 48.390625 42.1875 49.953125 37.25 
Q 51.515625 32.328125 51.515625 26.703125 
Q 51.515625 13.375 44.921875 6.09375 
Q 38.328125 -1.171875 29.109375 -1.171875 
Q 19.921875 -1.171875 14.703125 6.5 
z
M 14.59375 26.3125 
Q 14.59375 17 17.140625 12.84375 
Q 21.296875 6.0625 28.375 6.0625 
Q 34.125 6.0625 38.328125 11.0625 
Q 42.53125 16.0625 42.53125 25.984375 
Q 42.53125 36.140625 38.5 40.96875 
Q 34.46875 45.796875 28.765625 45.796875 
Q 23 45.796875 18.796875 40.796875 
Q 14.59375 35.796875 14.59375 26.3125 
z
" id="ArialMT-98"/>
    </defs>
    <g style="fill:#262626;" transform="translate(248.847187 207.84)scale(0.12 -0.12)">
     <use xlink:href="#ArialMT-67"/>
     <use x="72.216797" xlink:href="#ArialMT-111"/>
     <use x="127.832031" xlink:href="#ArialMT-117"/>
     <use x="183.447266" xlink:href="#ArialMT-114"/>
     <use x="216.748047" xlink:href="#ArialMT-97"/>
     <use x="272.363281" xlink:href="#ArialMT-110"/>
     <use x="327.978516" xlink:href="#ArialMT-116"/>
     <use x="355.761719" xlink:href="#ArialMT-32"/>
     <use x="383.544922" xlink:href="#ArialMT-110"/>
     <use x="439.160156" xlink:href="#ArialMT-117"/>
     <use x="494.775391" xlink:href="#ArialMT-109"/>
     <use x="578.076172" xlink:href="#ArialMT-98"/>
     <use x="633.691406" xlink:href="#ArialMT-101"/>
     <use x="689.306641" xlink:href="#ArialMT-114"/>
     <use x="722.607422" xlink:href="#ArialMT-115"/>
    </g>
   </g>
  </g>
  <g id="text_33">
   <!-- Horizon: 24.0h, Time step: 60, Neighbourhoods: 2, case: energy -->
   <defs>
    <path d="M 8.015625 0 
L 8.015625 71.578125 
L 17.484375 71.578125 
L 17.484375 42.1875 
L 54.6875 42.1875 
L 54.6875 71.578125 
L 64.15625 71.578125 
L 64.15625 0 
L 54.6875 0 
L 54.6875 33.734375 
L 17.484375 33.734375 
L 17.484375 0 
z
" id="ArialMT-72"/>
    <path d="M 1.953125 0 
L 1.953125 7.125 
L 34.96875 45.015625 
Q 29.34375 44.734375 25.046875 44.734375 
L 3.90625 44.734375 
L 3.90625 51.859375 
L 46.296875 51.859375 
L 46.296875 46.046875 
L 18.21875 13.140625 
L 12.796875 7.125 
Q 18.703125 7.5625 23.875 7.5625 
L 47.859375 7.5625 
L 47.859375 0 
z
" id="ArialMT-122"/>
    <path d="M 9.03125 41.84375 
L 9.03125 51.859375 
L 19.046875 51.859375 
L 19.046875 41.84375 
z
M 9.03125 0 
L 9.03125 10.015625 
L 19.046875 10.015625 
L 19.046875 0 
z
" id="ArialMT-58"/>
    <path d="M 6.59375 0 
L 6.59375 71.578125 
L 15.375 71.578125 
L 15.375 45.90625 
Q 21.53125 53.03125 30.90625 53.03125 
Q 36.671875 53.03125 40.921875 50.75 
Q 45.171875 48.484375 47 44.484375 
Q 48.828125 40.484375 48.828125 32.859375 
L 48.828125 0 
L 40.046875 0 
L 40.046875 32.859375 
Q 40.046875 39.453125 37.1875 42.453125 
Q 34.328125 45.453125 29.109375 45.453125 
Q 25.203125 45.453125 21.75 43.421875 
Q 18.3125 41.40625 16.84375 37.9375 
Q 15.375 34.46875 15.375 28.375 
L 15.375 0 
z
" id="ArialMT-104"/>
    <path d="M 8.890625 0 
L 8.890625 10.015625 
L 18.890625 10.015625 
L 18.890625 0 
Q 18.890625 -5.515625 16.9375 -8.90625 
Q 14.984375 -12.3125 10.75 -14.15625 
L 8.296875 -10.40625 
Q 11.078125 -9.1875 12.390625 -6.8125 
Q 13.71875 -4.4375 13.875 0 
z
" id="ArialMT-44"/>
    <path d="M 25.921875 0 
L 25.921875 63.140625 
L 2.34375 63.140625 
L 2.34375 71.578125 
L 59.078125 71.578125 
L 59.078125 63.140625 
L 35.40625 63.140625 
L 35.40625 0 
z
" id="ArialMT-84"/>
    <path d="M 7.625 0 
L 7.625 71.578125 
L 17.328125 71.578125 
L 54.9375 15.375 
L 54.9375 71.578125 
L 64.015625 71.578125 
L 64.015625 0 
L 54.296875 0 
L 16.703125 56.25 
L 16.703125 0 
z
" id="ArialMT-78"/>
    <path d="M 4.984375 -4.296875 
L 13.53125 -5.5625 
Q 14.0625 -9.515625 16.5 -11.328125 
Q 19.78125 -13.765625 25.4375 -13.765625 
Q 31.546875 -13.765625 34.859375 -11.328125 
Q 38.1875 -8.890625 39.359375 -4.5 
Q 40.046875 -1.8125 39.984375 6.78125 
Q 34.234375 0 25.640625 0 
Q 14.9375 0 9.078125 7.71875 
Q 3.21875 15.4375 3.21875 26.21875 
Q 3.21875 33.640625 5.90625 39.90625 
Q 8.59375 46.1875 13.6875 49.609375 
Q 18.796875 53.03125 25.6875 53.03125 
Q 34.859375 53.03125 40.828125 45.609375 
L 40.828125 51.859375 
L 48.921875 51.859375 
L 48.921875 7.03125 
Q 48.921875 -5.078125 46.453125 -10.125 
Q 44 -15.1875 38.640625 -18.109375 
Q 33.296875 -21.046875 25.484375 -21.046875 
Q 16.21875 -21.046875 10.5 -16.875 
Q 4.78125 -12.703125 4.984375 -4.296875 
z
M 12.25 26.859375 
Q 12.25 16.65625 16.296875 11.96875 
Q 20.359375 7.28125 26.46875 7.28125 
Q 32.515625 7.28125 36.609375 11.9375 
Q 40.71875 16.609375 40.71875 26.5625 
Q 40.71875 36.078125 36.5 40.90625 
Q 32.28125 45.75 26.3125 45.75 
Q 20.453125 45.75 16.34375 40.984375 
Q 12.25 36.234375 12.25 26.859375 
z
" id="ArialMT-103"/>
    <path d="M 40.4375 19 
L 49.078125 17.875 
Q 47.65625 8.9375 41.8125 3.875 
Q 35.984375 -1.171875 27.484375 -1.171875 
Q 16.84375 -1.171875 10.375 5.78125 
Q 3.90625 12.75 3.90625 25.734375 
Q 3.90625 34.125 6.6875 40.421875 
Q 9.46875 46.734375 15.15625 49.875 
Q 20.84375 53.03125 27.546875 53.03125 
Q 35.984375 53.03125 41.359375 48.75 
Q 46.734375 44.484375 48.25 36.625 
L 39.703125 35.296875 
Q 38.484375 40.53125 35.375 43.15625 
Q 32.28125 45.796875 27.875 45.796875 
Q 21.234375 45.796875 17.078125 41.03125 
Q 12.9375 36.28125 12.9375 25.984375 
Q 12.9375 15.53125 16.9375 10.796875 
Q 20.953125 6.0625 27.390625 6.0625 
Q 32.5625 6.0625 36.03125 9.234375 
Q 39.5 12.40625 40.4375 19 
z
" id="ArialMT-99"/>
    <path d="M 6.203125 -19.96875 
L 5.21875 -11.71875 
Q 8.109375 -12.5 10.25 -12.5 
Q 13.1875 -12.5 14.9375 -11.515625 
Q 16.703125 -10.546875 17.828125 -8.796875 
Q 18.65625 -7.46875 20.515625 -2.25 
Q 20.75 -1.515625 21.296875 -0.09375 
L 1.609375 51.859375 
L 11.078125 51.859375 
L 21.875 21.828125 
Q 23.96875 16.109375 25.640625 9.8125 
Q 27.15625 15.875 29.25 21.625 
L 40.328125 51.859375 
L 49.125 51.859375 
L 29.390625 -0.875 
Q 26.21875 -9.421875 24.46875 -12.640625 
Q 22.125 -17 19.09375 -19.015625 
Q 16.0625 -21.046875 11.859375 -21.046875 
Q 9.328125 -21.046875 6.203125 -19.96875 
z
" id="ArialMT-121"/>
   </defs>
   <g style="fill:#262626;" transform="translate(117.585 16.545)scale(0.12 -0.12)">
    <use xlink:href="#ArialMT-72"/>
    <use x="72.216797" xlink:href="#ArialMT-111"/>
    <use x="127.832031" xlink:href="#ArialMT-114"/>
    <use x="161.132812" xlink:href="#ArialMT-105"/>
    <use x="183.349609" xlink:href="#ArialMT-122"/>
    <use x="233.349609" xlink:href="#ArialMT-111"/>
    <use x="288.964844" xlink:href="#ArialMT-110"/>
    <use x="344.580078" xlink:href="#ArialMT-58"/>
    <use x="372.363281" xlink:href="#ArialMT-32"/>
    <use x="400.146484" xlink:href="#ArialMT-50"/>
    <use x="455.761719" xlink:href="#ArialMT-52"/>
    <use x="511.376953" xlink:href="#ArialMT-46"/>
    <use x="539.160156" xlink:href="#ArialMT-48"/>
    <use x="594.775391" xlink:href="#ArialMT-104"/>
    <use x="650.390625" xlink:href="#ArialMT-44"/>
    <use x="678.173828" xlink:href="#ArialMT-32"/>
    <use x="705.941406" xlink:href="#ArialMT-84"/>
    <use x="766.978516" xlink:href="#ArialMT-105"/>
    <use x="789.195312" xlink:href="#ArialMT-109"/>
    <use x="872.496094" xlink:href="#ArialMT-101"/>
    <use x="928.111328" xlink:href="#ArialMT-32"/>
    <use x="955.894531" xlink:href="#ArialMT-115"/>
    <use x="1005.894531" xlink:href="#ArialMT-116"/>
    <use x="1033.677734" xlink:href="#ArialMT-101"/>
    <use x="1089.292969" xlink:href="#ArialMT-112"/>
    <use x="1144.908203" xlink:href="#ArialMT-58"/>
    <use x="1172.691406" xlink:href="#ArialMT-32"/>
    <use x="1200.474609" xlink:href="#ArialMT-54"/>
    <use x="1256.089844" xlink:href="#ArialMT-48"/>
    <use x="1311.705078" xlink:href="#ArialMT-44"/>
    <use x="1339.488281" xlink:href="#ArialMT-32"/>
    <use x="1367.271484" xlink:href="#ArialMT-78"/>
    <use x="1439.488281" xlink:href="#ArialMT-101"/>
    <use x="1495.103516" xlink:href="#ArialMT-105"/>
    <use x="1517.320312" xlink:href="#ArialMT-103"/>
    <use x="1572.935547" xlink:href="#ArialMT-104"/>
    <use x="1628.550781" xlink:href="#ArialMT-98"/>
    <use x="1684.166016" xlink:href="#ArialMT-111"/>
    <use x="1739.78125" xlink:href="#ArialMT-117"/>
    <use x="1795.396484" xlink:href="#ArialMT-114"/>
    <use x="1828.697266" xlink:href="#ArialMT-104"/>
    <use x="1884.3125" xlink:href="#ArialMT-111"/>
    <use x="1939.927734" xlink:href="#ArialMT-111"/>
    <use x="1995.542969" xlink:href="#ArialMT-100"/>
    <use x="2051.158203" xlink:href="#ArialMT-115"/>
    <use x="2101.158203" xlink:href="#ArialMT-58"/>
    <use x="2128.941406" xlink:href="#ArialMT-32"/>
    <use x="2156.724609" xlink:href="#ArialMT-50"/>
    <use x="2212.339844" xlink:href="#ArialMT-44"/>
    <use x="2240.123047" xlink:href="#ArialMT-32"/>
    <use x="2267.90625" xlink:href="#ArialMT-99"/>
    <use x="2317.90625" xlink:href="#ArialMT-97"/>
    <use x="2373.521484" xlink:href="#ArialMT-115"/>
    <use x="2423.521484" xlink:href="#ArialMT-101"/>
    <use x="2479.136719" xlink:href="#ArialMT-58"/>
    <use x="2506.919922" xlink:href="#ArialMT-32"/>
    <use x="2534.703125" xlink:href="#ArialMT-101"/>
    <use x="2590.318359" xlink:href="#ArialMT-110"/>
    <use x="2645.933594" xlink:href="#ArialMT-101"/>
    <use x="2701.548828" xlink:href="#ArialMT-114"/>
    <use x="2734.849609" xlink:href="#ArialMT-103"/>
    <use x="2790.464844" xlink:href="#ArialMT-121"/>
   </g>
  </g>
 </g>
 <defs>
  <clipPath id="pe704458a5b">
   <rect height="138.6" width="446.4" x="72" y="47.52"/>
  </clipPath>
  <clipPath id="p94d87d9cd4">
   <rect height="138.6" width="446.4" x="72" y="213.84"/>
  </clipPath>
 </defs>
</svg>
