<?xml version="1.0" encoding="utf-8" standalone="no"?>
<!DOCTYPE svg PUBLIC "-//W3C//DTD SVG 1.1//EN"
  "http://www.w3.org/Graphics/SVG/1.1/DTD/svg11.dtd">
<!-- Created with matplotlib (https://matplotlib.org/) -->
<svg height="396pt" version="1.1" viewBox="0 0 576 396" width="576pt" xmlns="http://www.w3.org/2000/svg" xmlns:xlink="http://www.w3.org/1999/xlink">
 <defs>
  <style type="text/css">
*{stroke-linecap:butt;stroke-linejoin:round;}
  </style>
 </defs>
 <g id="figure_1">
  <g id="patch_1">
   <path d="M 0 396 
L 576 396 
L 576 0 
L 0 0 
z
" style="fill:#ffffff;"/>
  </g>
  <g id="axes_1">
   <g id="patch_2">
    <path d="M 72 186.12 
L 518.4 186.12 
L 518.4 47.52 
L 72 47.52 
z
" style="fill:#eaeaf2;"/>
   </g>
   <g id="matplotlib.axis_1">
    <g id="xtick_1">
     <g id="line2d_1">
      <path clip-path="url(#p9daca33e87)" d="M 92.290909 186.12 
L 92.290909 47.52 
" style="fill:none;stroke:#ffffff;stroke-linecap:round;"/>
     </g>
     <g id="line2d_2"/>
     <g id="text_1">
      <!-- 01-01 00 -->
      <defs>
       <path d="M 4.15625 35.296875 
Q 4.15625 48 6.765625 55.734375 
Q 9.375 63.484375 14.515625 67.671875 
Q 19.671875 71.875 27.484375 71.875 
Q 33.25 71.875 37.59375 69.546875 
Q 41.9375 67.234375 44.765625 62.859375 
Q 47.609375 58.5 49.21875 52.21875 
Q 50.828125 45.953125 50.828125 35.296875 
Q 50.828125 22.703125 48.234375 14.96875 
Q 45.65625 7.234375 40.5 3 
Q 35.359375 -1.21875 27.484375 -1.21875 
Q 17.140625 -1.21875 11.234375 6.203125 
Q 4.15625 15.140625 4.15625 35.296875 
z
M 13.1875 35.296875 
Q 13.1875 17.671875 17.3125 11.828125 
Q 21.4375 6 27.484375 6 
Q 33.546875 6 37.671875 11.859375 
Q 41.796875 17.71875 41.796875 35.296875 
Q 41.796875 52.984375 37.671875 58.78125 
Q 33.546875 64.59375 27.390625 64.59375 
Q 21.34375 64.59375 17.71875 59.46875 
Q 13.1875 52.9375 13.1875 35.296875 
z
" id="ArialMT-48"/>
       <path d="M 37.25 0 
L 28.46875 0 
L 28.46875 56 
Q 25.296875 52.984375 20.140625 49.953125 
Q 14.984375 46.921875 10.890625 45.40625 
L 10.890625 53.90625 
Q 18.265625 57.375 23.78125 62.296875 
Q 29.296875 67.234375 31.59375 71.875 
L 37.25 71.875 
z
" id="ArialMT-49"/>
       <path d="M 3.171875 21.484375 
L 3.171875 30.328125 
L 30.171875 30.328125 
L 30.171875 21.484375 
z
" id="ArialMT-45"/>
       <path id="ArialMT-32"/>
      </defs>
      <g style="fill:#262626;" transform="translate(72.55419 200.277812)scale(0.1 -0.1)">
       <use xlink:href="#ArialMT-48"/>
       <use x="55.615234" xlink:href="#ArialMT-49"/>
       <use x="111.230469" xlink:href="#ArialMT-45"/>
       <use x="144.53125" xlink:href="#ArialMT-48"/>
       <use x="200.146484" xlink:href="#ArialMT-49"/>
       <use x="255.761719" xlink:href="#ArialMT-32"/>
       <use x="283.544922" xlink:href="#ArialMT-48"/>
       <use x="339.160156" xlink:href="#ArialMT-48"/>
      </g>
     </g>
    </g>
    <g id="xtick_2">
     <g id="line2d_3">
      <path clip-path="url(#p9daca33e87)" d="M 173.725996 186.12 
L 173.725996 47.52 
" style="fill:none;stroke:#ffffff;stroke-linecap:round;"/>
     </g>
     <g id="line2d_4"/>
     <g id="text_2">
      <!-- 01-01 01 -->
      <g style="fill:#262626;" transform="translate(153.989277 200.277812)scale(0.1 -0.1)">
       <use xlink:href="#ArialMT-48"/>
       <use x="55.615234" xlink:href="#ArialMT-49"/>
       <use x="111.230469" xlink:href="#ArialMT-45"/>
       <use x="144.53125" xlink:href="#ArialMT-48"/>
       <use x="200.146484" xlink:href="#ArialMT-49"/>
       <use x="255.761719" xlink:href="#ArialMT-32"/>
       <use x="283.544922" xlink:href="#ArialMT-48"/>
       <use x="339.160156" xlink:href="#ArialMT-49"/>
      </g>
     </g>
    </g>
    <g id="xtick_3">
     <g id="line2d_5">
      <path clip-path="url(#p9daca33e87)" d="M 255.161083 186.12 
L 255.161083 47.52 
" style="fill:none;stroke:#ffffff;stroke-linecap:round;"/>
     </g>
     <g id="line2d_6"/>
     <g id="text_3">
      <!-- 01-01 02 -->
      <defs>
       <path d="M 50.34375 8.453125 
L 50.34375 0 
L 3.03125 0 
Q 2.9375 3.171875 4.046875 6.109375 
Q 5.859375 10.9375 9.828125 15.625 
Q 13.8125 20.3125 21.34375 26.46875 
Q 33.015625 36.03125 37.109375 41.625 
Q 41.21875 47.21875 41.21875 52.203125 
Q 41.21875 57.421875 37.46875 61 
Q 33.734375 64.59375 27.734375 64.59375 
Q 21.390625 64.59375 17.578125 60.78125 
Q 13.765625 56.984375 13.71875 50.25 
L 4.6875 51.171875 
Q 5.609375 61.28125 11.65625 66.578125 
Q 17.71875 71.875 27.9375 71.875 
Q 38.234375 71.875 44.234375 66.15625 
Q 50.25 60.453125 50.25 52 
Q 50.25 47.703125 48.484375 43.546875 
Q 46.734375 39.40625 42.65625 34.8125 
Q 38.578125 30.21875 29.109375 22.21875 
Q 21.1875 15.578125 18.9375 13.203125 
Q 16.703125 10.84375 15.234375 8.453125 
z
" id="ArialMT-50"/>
      </defs>
      <g style="fill:#262626;" transform="translate(235.424364 200.277812)scale(0.1 -0.1)">
       <use xlink:href="#ArialMT-48"/>
       <use x="55.615234" xlink:href="#ArialMT-49"/>
       <use x="111.230469" xlink:href="#ArialMT-45"/>
       <use x="144.53125" xlink:href="#ArialMT-48"/>
       <use x="200.146484" xlink:href="#ArialMT-49"/>
       <use x="255.761719" xlink:href="#ArialMT-32"/>
       <use x="283.544922" xlink:href="#ArialMT-48"/>
       <use x="339.160156" xlink:href="#ArialMT-50"/>
      </g>
     </g>
    </g>
    <g id="xtick_4">
     <g id="line2d_7">
      <path clip-path="url(#p9daca33e87)" d="M 336.596169 186.12 
L 336.596169 47.52 
" style="fill:none;stroke:#ffffff;stroke-linecap:round;"/>
     </g>
     <g id="line2d_8"/>
     <g id="text_4">
      <!-- 01-01 03 -->
      <defs>
       <path d="M 4.203125 18.890625 
L 12.984375 20.0625 
Q 14.5 12.59375 18.140625 9.296875 
Q 21.78125 6 27 6 
Q 33.203125 6 37.46875 10.296875 
Q 41.75 14.59375 41.75 20.953125 
Q 41.75 27 37.796875 30.921875 
Q 33.84375 34.859375 27.734375 34.859375 
Q 25.25 34.859375 21.53125 33.890625 
L 22.515625 41.609375 
Q 23.390625 41.5 23.921875 41.5 
Q 29.546875 41.5 34.03125 44.421875 
Q 38.53125 47.359375 38.53125 53.46875 
Q 38.53125 58.296875 35.25 61.46875 
Q 31.984375 64.65625 26.8125 64.65625 
Q 21.6875 64.65625 18.265625 61.421875 
Q 14.84375 58.203125 13.875 51.765625 
L 5.078125 53.328125 
Q 6.6875 62.15625 12.390625 67.015625 
Q 18.109375 71.875 26.609375 71.875 
Q 32.46875 71.875 37.390625 69.359375 
Q 42.328125 66.84375 44.9375 62.5 
Q 47.5625 58.15625 47.5625 53.265625 
Q 47.5625 48.640625 45.0625 44.828125 
Q 42.578125 41.015625 37.703125 38.765625 
Q 44.046875 37.3125 47.5625 32.6875 
Q 51.078125 28.078125 51.078125 21.140625 
Q 51.078125 11.765625 44.234375 5.25 
Q 37.40625 -1.265625 26.953125 -1.265625 
Q 17.53125 -1.265625 11.296875 4.34375 
Q 5.078125 9.96875 4.203125 18.890625 
z
" id="ArialMT-51"/>
      </defs>
      <g style="fill:#262626;" transform="translate(316.85945 200.277812)scale(0.1 -0.1)">
       <use xlink:href="#ArialMT-48"/>
       <use x="55.615234" xlink:href="#ArialMT-49"/>
       <use x="111.230469" xlink:href="#ArialMT-45"/>
       <use x="144.53125" xlink:href="#ArialMT-48"/>
       <use x="200.146484" xlink:href="#ArialMT-49"/>
       <use x="255.761719" xlink:href="#ArialMT-32"/>
       <use x="283.544922" xlink:href="#ArialMT-48"/>
       <use x="339.160156" xlink:href="#ArialMT-51"/>
      </g>
     </g>
    </g>
    <g id="xtick_5">
     <g id="line2d_9">
      <path clip-path="url(#p9daca33e87)" d="M 418.031256 186.12 
L 418.031256 47.52 
" style="fill:none;stroke:#ffffff;stroke-linecap:round;"/>
     </g>
     <g id="line2d_10"/>
     <g id="text_5">
      <!-- 01-01 04 -->
      <defs>
       <path d="M 32.328125 0 
L 32.328125 17.140625 
L 1.265625 17.140625 
L 1.265625 25.203125 
L 33.9375 71.578125 
L 41.109375 71.578125 
L 41.109375 25.203125 
L 50.78125 25.203125 
L 50.78125 17.140625 
L 41.109375 17.140625 
L 41.109375 0 
z
M 32.328125 25.203125 
L 32.328125 57.46875 
L 9.90625 25.203125 
z
" id="ArialMT-52"/>
      </defs>
      <g style="fill:#262626;" transform="translate(398.294537 200.277812)scale(0.1 -0.1)">
       <use xlink:href="#ArialMT-48"/>
       <use x="55.615234" xlink:href="#ArialMT-49"/>
       <use x="111.230469" xlink:href="#ArialMT-45"/>
       <use x="144.53125" xlink:href="#ArialMT-48"/>
       <use x="200.146484" xlink:href="#ArialMT-49"/>
       <use x="255.761719" xlink:href="#ArialMT-32"/>
       <use x="283.544922" xlink:href="#ArialMT-48"/>
       <use x="339.160156" xlink:href="#ArialMT-52"/>
      </g>
     </g>
    </g>
    <g id="xtick_6">
     <g id="line2d_11">
      <path clip-path="url(#p9daca33e87)" d="M 499.466342 186.12 
L 499.466342 47.52 
" style="fill:none;stroke:#ffffff;stroke-linecap:round;"/>
     </g>
     <g id="line2d_12"/>
     <g id="text_6">
      <!-- 01-01 05 -->
      <defs>
       <path d="M 4.15625 18.75 
L 13.375 19.53125 
Q 14.40625 12.796875 18.140625 9.390625 
Q 21.875 6 27.15625 6 
Q 33.5 6 37.890625 10.78125 
Q 42.28125 15.578125 42.28125 23.484375 
Q 42.28125 31 38.0625 35.34375 
Q 33.84375 39.703125 27 39.703125 
Q 22.75 39.703125 19.328125 37.765625 
Q 15.921875 35.84375 13.96875 32.765625 
L 5.71875 33.84375 
L 12.640625 70.609375 
L 48.25 70.609375 
L 48.25 62.203125 
L 19.671875 62.203125 
L 15.828125 42.96875 
Q 22.265625 47.46875 29.34375 47.46875 
Q 38.71875 47.46875 45.15625 40.96875 
Q 51.609375 34.46875 51.609375 24.265625 
Q 51.609375 14.546875 45.953125 7.46875 
Q 39.0625 -1.21875 27.15625 -1.21875 
Q 17.390625 -1.21875 11.203125 4.25 
Q 5.03125 9.71875 4.15625 18.75 
z
" id="ArialMT-53"/>
      </defs>
      <g style="fill:#262626;" transform="translate(479.729624 200.277812)scale(0.1 -0.1)">
       <use xlink:href="#ArialMT-48"/>
       <use x="55.615234" xlink:href="#ArialMT-49"/>
       <use x="111.230469" xlink:href="#ArialMT-45"/>
       <use x="144.53125" xlink:href="#ArialMT-48"/>
       <use x="200.146484" xlink:href="#ArialMT-49"/>
       <use x="255.761719" xlink:href="#ArialMT-32"/>
       <use x="283.544922" xlink:href="#ArialMT-48"/>
       <use x="339.160156" xlink:href="#ArialMT-53"/>
      </g>
     </g>
    </g>
   </g>
   <g id="matplotlib.axis_2">
    <g id="ytick_1">
     <g id="line2d_13">
      <path clip-path="url(#p9daca33e87)" d="M 72 185.158304 
L 518.4 185.158304 
" style="fill:none;stroke:#ffffff;stroke-linecap:round;"/>
     </g>
     <g id="line2d_14"/>
     <g id="text_7">
      <!-- 0.00 -->
      <defs>
       <path d="M 9.078125 0 
L 9.078125 10.015625 
L 19.09375 10.015625 
L 19.09375 0 
z
" id="ArialMT-46"/>
      </defs>
      <g style="fill:#262626;" transform="translate(45.539062 188.73721)scale(0.1 -0.1)">
       <use xlink:href="#ArialMT-48"/>
       <use x="55.615234" xlink:href="#ArialMT-46"/>
       <use x="83.398438" xlink:href="#ArialMT-48"/>
       <use x="139.013672" xlink:href="#ArialMT-48"/>
      </g>
     </g>
    </g>
    <g id="ytick_2">
     <g id="line2d_15">
      <path clip-path="url(#p9daca33e87)" d="M 72 162.043487 
L 518.4 162.043487 
" style="fill:none;stroke:#ffffff;stroke-linecap:round;"/>
     </g>
     <g id="line2d_16"/>
     <g id="text_8">
      <!-- 0.25 -->
      <g style="fill:#262626;" transform="translate(45.539062 165.622393)scale(0.1 -0.1)">
       <use xlink:href="#ArialMT-48"/>
       <use x="55.615234" xlink:href="#ArialMT-46"/>
       <use x="83.398438" xlink:href="#ArialMT-50"/>
       <use x="139.013672" xlink:href="#ArialMT-53"/>
      </g>
     </g>
    </g>
    <g id="ytick_3">
     <g id="line2d_17">
      <path clip-path="url(#p9daca33e87)" d="M 72 138.928669 
L 518.4 138.928669 
" style="fill:none;stroke:#ffffff;stroke-linecap:round;"/>
     </g>
     <g id="line2d_18"/>
     <g id="text_9">
      <!-- 0.50 -->
      <g style="fill:#262626;" transform="translate(45.539062 142.507576)scale(0.1 -0.1)">
       <use xlink:href="#ArialMT-48"/>
       <use x="55.615234" xlink:href="#ArialMT-46"/>
       <use x="83.398438" xlink:href="#ArialMT-53"/>
       <use x="139.013672" xlink:href="#ArialMT-48"/>
      </g>
     </g>
    </g>
    <g id="ytick_4">
     <g id="line2d_19">
      <path clip-path="url(#p9daca33e87)" d="M 72 115.813852 
L 518.4 115.813852 
" style="fill:none;stroke:#ffffff;stroke-linecap:round;"/>
     </g>
     <g id="line2d_20"/>
     <g id="text_10">
      <!-- 0.75 -->
      <defs>
       <path d="M 4.734375 62.203125 
L 4.734375 70.65625 
L 51.078125 70.65625 
L 51.078125 63.8125 
Q 44.234375 56.546875 37.515625 44.484375 
Q 30.8125 32.421875 27.15625 19.671875 
Q 24.515625 10.6875 23.78125 0 
L 14.75 0 
Q 14.890625 8.453125 18.0625 20.40625 
Q 21.234375 32.375 27.171875 43.484375 
Q 33.109375 54.59375 39.796875 62.203125 
z
" id="ArialMT-55"/>
      </defs>
      <g style="fill:#262626;" transform="translate(45.539062 119.392759)scale(0.1 -0.1)">
       <use xlink:href="#ArialMT-48"/>
       <use x="55.615234" xlink:href="#ArialMT-46"/>
       <use x="83.398438" xlink:href="#ArialMT-55"/>
       <use x="139.013672" xlink:href="#ArialMT-53"/>
      </g>
     </g>
    </g>
    <g id="ytick_5">
     <g id="line2d_21">
      <path clip-path="url(#p9daca33e87)" d="M 72 92.699035 
L 518.4 92.699035 
" style="fill:none;stroke:#ffffff;stroke-linecap:round;"/>
     </g>
     <g id="line2d_22"/>
     <g id="text_11">
      <!-- 1.00 -->
      <g style="fill:#262626;" transform="translate(45.539062 96.277942)scale(0.1 -0.1)">
       <use xlink:href="#ArialMT-49"/>
       <use x="55.615234" xlink:href="#ArialMT-46"/>
       <use x="83.398438" xlink:href="#ArialMT-48"/>
       <use x="139.013672" xlink:href="#ArialMT-48"/>
      </g>
     </g>
    </g>
    <g id="ytick_6">
     <g id="line2d_23">
      <path clip-path="url(#p9daca33e87)" d="M 72 69.584218 
L 518.4 69.584218 
" style="fill:none;stroke:#ffffff;stroke-linecap:round;"/>
     </g>
     <g id="line2d_24"/>
     <g id="text_12">
      <!-- 1.25 -->
      <g style="fill:#262626;" transform="translate(45.539062 73.163124)scale(0.1 -0.1)">
       <use xlink:href="#ArialMT-49"/>
       <use x="55.615234" xlink:href="#ArialMT-46"/>
       <use x="83.398438" xlink:href="#ArialMT-50"/>
       <use x="139.013672" xlink:href="#ArialMT-53"/>
      </g>
     </g>
    </g>
   </g>
   <g id="line2d_25">
    <path clip-path="url(#p9daca33e87)" d="M 92.290909 74.005642 
L 108.577926 73.878048 
L 111.292429 73.966859 
L 112.649681 78.236654 
L 115.364184 78.538462 
L 118.078687 79.076712 
L 120.793189 79.914341 
L 123.507692 81.079094 
L 126.222195 82.547904 
L 130.29395 85.15139 
L 131.651201 86.07148 
L 133.008453 89.113513 
L 137.080207 91.637797 
L 139.79471 93.124836 
L 142.509212 94.383605 
L 145.223716 95.376336 
L 147.938218 96.082754 
L 150.652721 96.496221 
L 152.009973 96.593922 
L 153.367224 103.201198 
L 156.081727 103.086738 
L 158.79623 102.765711 
L 161.510733 102.254898 
L 164.225236 101.574888 
L 168.29699 100.291527 
L 172.368744 98.778001 
L 173.725996 99.930508 
L 185.941259 95.324474 
L 190.013013 94.032691 
L 192.727516 93.284417 
L 194.084768 96.496829 
L 198.156522 95.678702 
L 202.228276 95.043994 
L 207.657282 94.443425 
L 213.086288 94.062923 
L 214.443539 97.215896 
L 222.587048 96.978152 
L 233.445059 96.894033 
L 234.802311 100.307071 
L 253.803831 100.371326 
L 256.518334 100.450039 
L 274.162603 100.56276 
L 275.519854 103.043454 
L 294.521374 103.095918 
L 295.878626 107.189573 
L 314.880146 107.190579 
L 316.237397 110.042689 
L 335.238918 110.00745 
L 336.596169 109.750012 
L 355.597689 109.700865 
L 356.954941 110.308773 
L 365.098449 110.436022 
L 370.527455 110.762516 
L 374.59921 111.228438 
L 375.956461 111.433418 
L 377.313712 110.574871 
L 381.385467 111.44635 
L 386.814472 112.872803 
L 396.315233 115.472192 
L 397.672484 143.15439 
L 407.173244 143.900719 
L 415.316753 144.328124 
L 416.674004 144.377656 
L 418.031256 140.422437 
L 424.817513 140.562239 
L 431.60377 140.497179 
L 437.032776 140.309405 
L 438.390028 136.859553 
L 446.533536 136.263386 
L 457.391548 135.197935 
L 458.748799 131.939544 
L 476.393068 129.890535 
L 477.750319 129.752676 
L 479.107571 121.831262 
L 487.251079 120.927277 
L 495.394588 120.274974 
L 498.109091 120.109084 
L 498.109091 120.109084 
" style="fill:none;stroke:#4c72b0;stroke-linecap:round;stroke-width:1.75;"/>
   </g>
   <g id="line2d_26">
    <path clip-path="url(#p9daca33e87)" d="M 92.290909 53.9514 
L 108.577926 53.858942 
L 111.292429 54.003436 
L 112.649681 56.052619 
L 115.364184 56.511868 
L 118.078687 57.316013 
L 120.793189 58.549659 
L 123.507692 60.241051 
L 126.222195 62.341784 
L 130.29395 65.987134 
L 131.651201 67.252388 
L 133.008453 71.406688 
L 137.080207 74.757426 
L 139.79471 76.677364 
L 142.509212 78.260552 
L 145.223716 79.466073 
L 147.938218 80.275436 
L 150.652721 80.686861 
L 152.009973 80.746253 
L 153.367224 88.181779 
L 156.081727 87.912937 
L 158.79623 87.370425 
L 161.510733 86.579446 
L 164.225236 85.570266 
L 168.29699 83.725463 
L 172.368744 81.606254 
L 173.725996 83.018315 
L 183.226756 78.110801 
L 187.29851 76.278864 
L 191.370265 74.72131 
L 192.727516 74.26829 
L 194.084768 77.161988 
L 198.156522 76.153581 
L 202.228276 75.388673 
L 206.30003 74.829256 
L 211.729036 74.3305 
L 213.086288 74.240132 
L 214.443539 78.181525 
L 222.587048 77.893957 
L 233.445059 77.748328 
L 234.802311 81.018348 
L 253.803831 80.970065 
L 255.161083 81.136425 
L 274.162603 81.126528 
L 275.519854 81.728296 
L 294.521374 81.721558 
L 295.878626 86.381711 
L 314.880146 86.369251 
L 316.237397 90.097792 
L 335.238918 90.082877 
L 336.596169 89.681267 
L 355.597689 89.688052 
L 356.954941 90.448784 
L 363.741198 90.611659 
L 367.812952 90.894225 
L 371.884706 91.420503 
L 375.956461 92.260513 
L 377.313712 90.754541 
L 381.385467 92.085476 
L 386.814472 94.221724 
L 394.957981 97.486344 
L 396.315233 97.968984 
L 397.672484 131.963395 
L 405.815993 132.801127 
L 412.60225 133.276424 
L 416.674004 133.455241 
L 418.031256 129.350021 
L 423.460262 129.430919 
L 430.246519 129.288658 
L 437.032776 128.903293 
L 438.390028 124.593226 
L 445.176285 123.862335 
L 454.677045 122.575125 
L 457.391548 122.177034 
L 458.748799 118.03659 
L 472.321314 115.847788 
L 477.750319 115.095147 
L 479.107571 105.703891 
L 485.893828 104.748487 
L 492.680085 104.038515 
L 498.109091 103.627552 
L 498.109091 103.627552 
" style="fill:none;stroke:#55a868;stroke-linecap:round;stroke-width:1.75;"/>
   </g>
   <g id="line2d_27">
    <path clip-path="url(#p9daca33e87)" d="M 92.290909 119.215104 
L 111.292429 119.065051 
L 112.649681 126.072652 
L 118.078687 126.247246 
L 122.150441 126.624805 
L 124.864944 127.056836 
L 127.579447 127.656729 
L 131.651201 128.854551 
L 133.008453 129.700138 
L 145.223716 133.910896 
L 149.29547 134.913914 
L 152.009973 135.393533 
L 153.367224 140.108097 
L 157.438978 140.376241 
L 161.510733 140.379047 
L 165.582487 140.132077 
L 169.654241 139.660839 
L 172.368744 139.238974 
L 173.725996 140.145636 
L 179.155002 139.10677 
L 192.727516 136.232519 
L 194.084768 138.423615 
L 200.871025 137.405642 
L 206.30003 136.794039 
L 213.086288 136.269684 
L 214.443539 138.451663 
L 222.587048 138.153905 
L 233.445059 137.978447 
L 234.802311 140.192591 
L 253.803831 140.125833 
L 255.161083 141.10568 
L 274.162603 141.092915 
L 275.519854 145.201572 
L 294.521374 145.187097 
L 295.878626 148.4723 
L 335.238918 148.487912 
L 336.596169 148.91095 
L 355.597689 148.905306 
L 356.954941 148.013667 
L 374.59921 148.120423 
L 375.956461 148.152309 
L 377.313712 148.760762 
L 384.09997 149.068776 
L 390.886227 149.613092 
L 396.315233 150.196837 
L 397.672484 160.725092 
L 416.674004 161.751941 
L 418.031256 158.321979 
L 427.532016 158.773141 
L 435.675524 158.955536 
L 437.032776 158.967223 
L 438.390028 158.369175 
L 447.890787 158.270625 
L 457.391548 157.956162 
L 458.748799 156.933454 
L 472.321314 156.176074 
L 477.750319 155.844344 
L 479.107571 149.980422 
L 491.322834 149.017498 
L 498.109091 148.605051 
L 498.109091 148.605051 
" style="fill:none;stroke:#c44e52;stroke-linecap:round;stroke-width:1.75;"/>
   </g>
   <g id="line2d_28">
    <path clip-path="url(#p9daca33e87)" d="M 92.290909 150.885319 
L 111.292429 150.7811 
L 112.649681 154.329007 
L 131.651201 154.236018 
L 133.008453 154.869951 
L 152.009973 154.778569 
L 153.367224 156.836917 
L 192.727516 156.720739 
L 194.084768 159.439988 
L 213.086288 159.508953 
L 214.443539 159.677465 
L 232.087808 159.950149 
L 233.445059 159.979903 
L 234.802311 162.544234 
L 253.803831 162.947227 
L 255.161083 161.842395 
L 274.162603 162.308587 
L 275.519854 165.652594 
L 294.521374 165.868328 
L 295.878626 166.659811 
L 314.880146 166.707121 
L 316.237397 168.42681 
L 335.238918 168.344318 
L 336.596169 167.908275 
L 355.597689 167.724323 
L 356.954941 169.067329 
L 375.956461 168.857145 
L 377.313712 168.578873 
L 396.315233 168.344225 
L 397.672484 179.82 
L 416.674004 179.788717 
L 418.031256 178.389012 
L 437.032776 178.344289 
L 438.390028 176.365053 
L 457.391548 176.299572 
L 458.748799 175.044027 
L 477.750319 174.968606 
L 479.107571 173.781664 
L 498.109091 173.701708 
L 498.109091 173.701708 
" style="fill:none;stroke:#8172b2;stroke-linecap:round;stroke-width:1.75;"/>
   </g>
   <g id="line2d_29">
    <path clip-path="url(#p9daca33e87)" d="M 92.290909 150.885319 
L 111.292429 150.7811 
L 112.649681 154.329007 
L 131.651201 154.236018 
L 133.008453 154.869951 
L 152.009973 154.778569 
L 153.367224 156.836917 
L 192.727516 156.720739 
L 194.084768 159.439988 
L 213.086288 159.508953 
L 214.443539 159.677465 
L 232.087808 159.950149 
L 233.445059 159.979903 
L 234.802311 162.544234 
L 253.803831 162.947227 
L 255.161083 161.842395 
L 274.162603 162.308587 
L 275.519854 165.652594 
L 294.521374 165.868328 
L 295.878626 166.659811 
L 314.880146 166.707121 
L 316.237397 168.42681 
L 335.238918 168.344318 
L 336.596169 167.908275 
L 355.597689 167.724323 
L 356.954941 169.067329 
L 375.956461 168.857145 
L 377.313712 168.578873 
L 396.315233 168.344225 
L 397.672484 179.82 
L 416.674004 179.788717 
L 418.031256 178.389012 
L 437.032776 178.344289 
L 438.390028 176.365053 
L 457.391548 176.299572 
L 458.748799 175.044027 
L 477.750319 174.968606 
L 479.107571 173.781664 
L 498.109091 173.701708 
L 498.109091 173.701708 
" style="fill:none;stroke:#ccb974;stroke-linecap:round;stroke-width:1.75;"/>
   </g>
   <g id="patch_3">
    <path d="M 72 186.12 
L 72 47.52 
" style="fill:none;"/>
   </g>
   <g id="patch_4">
    <path d="M 518.4 186.12 
L 518.4 47.52 
" style="fill:none;"/>
   </g>
   <g id="patch_5">
    <path d="M 72 186.12 
L 518.4 186.12 
" style="fill:none;"/>
   </g>
   <g id="patch_6">
    <path d="M 72 47.52 
L 518.4 47.52 
" style="fill:none;"/>
   </g>
   <g id="text_13">
    <!-- Water speed -->
    <defs>
     <path d="M 20.21875 0 
L 1.21875 71.578125 
L 10.9375 71.578125 
L 21.828125 24.65625 
Q 23.578125 17.28125 24.859375 10.015625 
Q 27.59375 21.484375 28.078125 23.25 
L 41.703125 71.578125 
L 53.125 71.578125 
L 63.375 35.359375 
Q 67.234375 21.875 68.953125 10.015625 
Q 70.3125 16.796875 72.515625 25.59375 
L 83.734375 71.578125 
L 93.265625 71.578125 
L 73.640625 0 
L 64.5 0 
L 49.421875 54.546875 
Q 47.515625 61.375 47.171875 62.9375 
Q 46.046875 58.015625 45.0625 54.546875 
L 29.890625 0 
z
" id="ArialMT-87"/>
     <path d="M 40.4375 6.390625 
Q 35.546875 2.25 31.03125 0.53125 
Q 26.515625 -1.171875 21.34375 -1.171875 
Q 12.796875 -1.171875 8.203125 3 
Q 3.609375 7.171875 3.609375 13.671875 
Q 3.609375 17.484375 5.34375 20.625 
Q 7.078125 23.78125 9.890625 25.6875 
Q 12.703125 27.59375 16.21875 28.5625 
Q 18.796875 29.25 24.03125 29.890625 
Q 34.671875 31.15625 39.703125 32.90625 
Q 39.75 34.71875 39.75 35.203125 
Q 39.75 40.578125 37.25 42.78125 
Q 33.890625 45.75 27.25 45.75 
Q 21.046875 45.75 18.09375 43.578125 
Q 15.140625 41.40625 13.71875 35.890625 
L 5.125 37.0625 
Q 6.296875 42.578125 8.984375 45.96875 
Q 11.671875 49.359375 16.75 51.1875 
Q 21.828125 53.03125 28.515625 53.03125 
Q 35.15625 53.03125 39.296875 51.46875 
Q 43.453125 49.90625 45.40625 47.53125 
Q 47.359375 45.171875 48.140625 41.546875 
Q 48.578125 39.3125 48.578125 33.453125 
L 48.578125 21.734375 
Q 48.578125 9.46875 49.140625 6.21875 
Q 49.703125 2.984375 51.375 0 
L 42.1875 0 
Q 40.828125 2.734375 40.4375 6.390625 
z
M 39.703125 26.03125 
Q 34.90625 24.078125 25.34375 22.703125 
Q 19.921875 21.921875 17.671875 20.9375 
Q 15.4375 19.96875 14.203125 18.09375 
Q 12.984375 16.21875 12.984375 13.921875 
Q 12.984375 10.40625 15.640625 8.0625 
Q 18.3125 5.71875 23.4375 5.71875 
Q 28.515625 5.71875 32.46875 7.9375 
Q 36.421875 10.15625 38.28125 14.015625 
Q 39.703125 17 39.703125 22.796875 
z
" id="ArialMT-97"/>
     <path d="M 25.78125 7.859375 
L 27.046875 0.09375 
Q 23.34375 -0.6875 20.40625 -0.6875 
Q 15.625 -0.6875 12.984375 0.828125 
Q 10.359375 2.34375 9.28125 4.8125 
Q 8.203125 7.28125 8.203125 15.1875 
L 8.203125 45.015625 
L 1.765625 45.015625 
L 1.765625 51.859375 
L 8.203125 51.859375 
L 8.203125 64.703125 
L 16.9375 69.96875 
L 16.9375 51.859375 
L 25.78125 51.859375 
L 25.78125 45.015625 
L 16.9375 45.015625 
L 16.9375 14.703125 
Q 16.9375 10.9375 17.40625 9.859375 
Q 17.875 8.796875 18.921875 8.15625 
Q 19.96875 7.515625 21.921875 7.515625 
Q 23.390625 7.515625 25.78125 7.859375 
z
" id="ArialMT-116"/>
     <path d="M 42.09375 16.703125 
L 51.171875 15.578125 
Q 49.03125 7.625 43.21875 3.21875 
Q 37.40625 -1.171875 28.375 -1.171875 
Q 17 -1.171875 10.328125 5.828125 
Q 3.65625 12.84375 3.65625 25.484375 
Q 3.65625 38.578125 10.390625 45.796875 
Q 17.140625 53.03125 27.875 53.03125 
Q 38.28125 53.03125 44.875 45.953125 
Q 51.46875 38.875 51.46875 26.03125 
Q 51.46875 25.25 51.421875 23.6875 
L 12.75 23.6875 
Q 13.234375 15.140625 17.578125 10.59375 
Q 21.921875 6.0625 28.421875 6.0625 
Q 33.25 6.0625 36.671875 8.59375 
Q 40.09375 11.140625 42.09375 16.703125 
z
M 13.234375 30.90625 
L 42.1875 30.90625 
Q 41.609375 37.453125 38.875 40.71875 
Q 34.671875 45.796875 27.984375 45.796875 
Q 21.921875 45.796875 17.796875 41.75 
Q 13.671875 37.703125 13.234375 30.90625 
z
" id="ArialMT-101"/>
     <path d="M 6.5 0 
L 6.5 51.859375 
L 14.40625 51.859375 
L 14.40625 44 
Q 17.4375 49.515625 20 51.265625 
Q 22.5625 53.03125 25.640625 53.03125 
Q 30.078125 53.03125 34.671875 50.203125 
L 31.640625 42.046875 
Q 28.421875 43.953125 25.203125 43.953125 
Q 22.3125 43.953125 20.015625 42.21875 
Q 17.71875 40.484375 16.75 37.40625 
Q 15.28125 32.71875 15.28125 27.15625 
L 15.28125 0 
z
" id="ArialMT-114"/>
     <path d="M 3.078125 15.484375 
L 11.765625 16.84375 
Q 12.5 11.625 15.84375 8.84375 
Q 19.1875 6.0625 25.203125 6.0625 
Q 31.25 6.0625 34.171875 8.515625 
Q 37.109375 10.984375 37.109375 14.3125 
Q 37.109375 17.28125 34.515625 19 
Q 32.71875 20.171875 25.53125 21.96875 
Q 15.875 24.421875 12.140625 26.203125 
Q 8.40625 27.984375 6.46875 31.125 
Q 4.546875 34.28125 4.546875 38.09375 
Q 4.546875 41.546875 6.125 44.5 
Q 7.71875 47.46875 10.453125 49.421875 
Q 12.5 50.921875 16.03125 51.96875 
Q 19.578125 53.03125 23.640625 53.03125 
Q 29.734375 53.03125 34.34375 51.265625 
Q 38.96875 49.515625 41.15625 46.5 
Q 43.359375 43.5 44.1875 38.484375 
L 35.59375 37.3125 
Q 35.015625 41.3125 32.203125 43.546875 
Q 29.390625 45.796875 24.265625 45.796875 
Q 18.21875 45.796875 15.625 43.796875 
Q 13.03125 41.796875 13.03125 39.109375 
Q 13.03125 37.40625 14.109375 36.03125 
Q 15.1875 34.625 17.484375 33.6875 
Q 18.796875 33.203125 25.25 31.453125 
Q 34.578125 28.953125 38.25 27.359375 
Q 41.9375 25.78125 44.03125 22.75 
Q 46.140625 19.734375 46.140625 15.234375 
Q 46.140625 10.84375 43.578125 6.953125 
Q 41.015625 3.078125 36.171875 0.953125 
Q 31.34375 -1.171875 25.25 -1.171875 
Q 15.140625 -1.171875 9.84375 3.03125 
Q 4.546875 7.234375 3.078125 15.484375 
z
" id="ArialMT-115"/>
     <path d="M 6.59375 -19.875 
L 6.59375 51.859375 
L 14.59375 51.859375 
L 14.59375 45.125 
Q 17.4375 49.078125 21 51.046875 
Q 24.5625 53.03125 29.640625 53.03125 
Q 36.28125 53.03125 41.359375 49.609375 
Q 46.4375 46.1875 49.015625 39.953125 
Q 51.609375 33.734375 51.609375 26.3125 
Q 51.609375 18.359375 48.75 11.984375 
Q 45.90625 5.609375 40.453125 2.21875 
Q 35.015625 -1.171875 29 -1.171875 
Q 24.609375 -1.171875 21.109375 0.6875 
Q 17.625 2.546875 15.375 5.375 
L 15.375 -19.875 
z
M 14.546875 25.640625 
Q 14.546875 15.625 18.59375 10.84375 
Q 22.65625 6.0625 28.421875 6.0625 
Q 34.28125 6.0625 38.453125 11.015625 
Q 42.625 15.96875 42.625 26.375 
Q 42.625 36.28125 38.546875 41.203125 
Q 34.46875 46.140625 28.8125 46.140625 
Q 23.1875 46.140625 18.859375 40.890625 
Q 14.546875 35.640625 14.546875 25.640625 
z
" id="ArialMT-112"/>
     <path d="M 40.234375 0 
L 40.234375 6.546875 
Q 35.296875 -1.171875 25.734375 -1.171875 
Q 19.53125 -1.171875 14.328125 2.25 
Q 9.125 5.671875 6.265625 11.796875 
Q 3.421875 17.921875 3.421875 25.875 
Q 3.421875 33.640625 6 39.96875 
Q 8.59375 46.296875 13.765625 49.65625 
Q 18.953125 53.03125 25.34375 53.03125 
Q 30.03125 53.03125 33.6875 51.046875 
Q 37.359375 49.078125 39.65625 45.90625 
L 39.65625 71.578125 
L 48.390625 71.578125 
L 48.390625 0 
z
M 12.453125 25.875 
Q 12.453125 15.921875 16.640625 10.984375 
Q 20.84375 6.0625 26.5625 6.0625 
Q 32.328125 6.0625 36.34375 10.765625 
Q 40.375 15.484375 40.375 25.140625 
Q 40.375 35.796875 36.265625 40.765625 
Q 32.171875 45.75 26.171875 45.75 
Q 20.3125 45.75 16.375 40.96875 
Q 12.453125 36.1875 12.453125 25.875 
z
" id="ArialMT-100"/>
    </defs>
    <g style="fill:#262626;" transform="translate(261.188437 41.52)scale(0.12 -0.12)">
     <use xlink:href="#ArialMT-87"/>
     <use x="94.337891" xlink:href="#ArialMT-97"/>
     <use x="149.953125" xlink:href="#ArialMT-116"/>
     <use x="177.736328" xlink:href="#ArialMT-101"/>
     <use x="233.351562" xlink:href="#ArialMT-114"/>
     <use x="266.652344" xlink:href="#ArialMT-32"/>
     <use x="294.435547" xlink:href="#ArialMT-115"/>
     <use x="344.435547" xlink:href="#ArialMT-112"/>
     <use x="400.050781" xlink:href="#ArialMT-101"/>
     <use x="455.666016" xlink:href="#ArialMT-101"/>
     <use x="511.28125" xlink:href="#ArialMT-100"/>
    </g>
   </g>
   <g id="legend_1">
    <g id="line2d_30">
     <path d="M 435.8125 60.2075 
L 455.8125 60.2075 
" style="fill:none;stroke:#4c72b0;stroke-linecap:round;stroke-width:1.75;"/>
    </g>
    <g id="line2d_31"/>
    <g id="text_14">
     <!-- dist_pipe0 -->
     <defs>
      <path d="M 6.640625 61.46875 
L 6.640625 71.578125 
L 15.4375 71.578125 
L 15.4375 61.46875 
z
M 6.640625 0 
L 6.640625 51.859375 
L 15.4375 51.859375 
L 15.4375 0 
z
" id="ArialMT-105"/>
      <path d="M -1.515625 -19.875 
L -1.515625 -13.53125 
L 56.734375 -13.53125 
L 56.734375 -19.875 
z
" id="ArialMT-95"/>
     </defs>
     <g style="fill:#262626;" transform="translate(463.8125 63.7075)scale(0.1 -0.1)">
      <use xlink:href="#ArialMT-100"/>
      <use x="55.615234" xlink:href="#ArialMT-105"/>
      <use x="77.832031" xlink:href="#ArialMT-115"/>
      <use x="127.832031" xlink:href="#ArialMT-116"/>
      <use x="155.615234" xlink:href="#ArialMT-95"/>
      <use x="211.230469" xlink:href="#ArialMT-112"/>
      <use x="266.845703" xlink:href="#ArialMT-105"/>
      <use x="289.0625" xlink:href="#ArialMT-112"/>
      <use x="344.677734" xlink:href="#ArialMT-101"/>
      <use x="400.292969" xlink:href="#ArialMT-48"/>
     </g>
    </g>
    <g id="line2d_32">
     <path d="M 435.8125 74.3825 
L 455.8125 74.3825 
" style="fill:none;stroke:#55a868;stroke-linecap:round;stroke-width:1.75;"/>
    </g>
    <g id="line2d_33"/>
    <g id="text_15">
     <!-- dist_pipe2 -->
     <g style="fill:#262626;" transform="translate(463.8125 77.8825)scale(0.1 -0.1)">
      <use xlink:href="#ArialMT-100"/>
      <use x="55.615234" xlink:href="#ArialMT-105"/>
      <use x="77.832031" xlink:href="#ArialMT-115"/>
      <use x="127.832031" xlink:href="#ArialMT-116"/>
      <use x="155.615234" xlink:href="#ArialMT-95"/>
      <use x="211.230469" xlink:href="#ArialMT-112"/>
      <use x="266.845703" xlink:href="#ArialMT-105"/>
      <use x="289.0625" xlink:href="#ArialMT-112"/>
      <use x="344.677734" xlink:href="#ArialMT-101"/>
      <use x="400.292969" xlink:href="#ArialMT-50"/>
     </g>
    </g>
    <g id="line2d_34">
     <path d="M 435.8125 88.5575 
L 455.8125 88.5575 
" style="fill:none;stroke:#c44e52;stroke-linecap:round;stroke-width:1.75;"/>
    </g>
    <g id="line2d_35"/>
    <g id="text_16">
     <!-- dist_pipe1 -->
     <g style="fill:#262626;" transform="translate(463.8125 92.0575)scale(0.1 -0.1)">
      <use xlink:href="#ArialMT-100"/>
      <use x="55.615234" xlink:href="#ArialMT-105"/>
      <use x="77.832031" xlink:href="#ArialMT-115"/>
      <use x="127.832031" xlink:href="#ArialMT-116"/>
      <use x="155.615234" xlink:href="#ArialMT-95"/>
      <use x="211.230469" xlink:href="#ArialMT-112"/>
      <use x="266.845703" xlink:href="#ArialMT-105"/>
      <use x="289.0625" xlink:href="#ArialMT-112"/>
      <use x="344.677734" xlink:href="#ArialMT-101"/>
      <use x="400.292969" xlink:href="#ArialMT-49"/>
     </g>
    </g>
    <g id="line2d_36">
     <path d="M 435.8125 102.7325 
L 455.8125 102.7325 
" style="fill:none;stroke:#8172b2;stroke-linecap:round;stroke-width:1.75;"/>
    </g>
    <g id="line2d_37"/>
    <g id="text_17">
     <!-- dist_pipe3 -->
     <g style="fill:#262626;" transform="translate(463.8125 106.2325)scale(0.1 -0.1)">
      <use xlink:href="#ArialMT-100"/>
      <use x="55.615234" xlink:href="#ArialMT-105"/>
      <use x="77.832031" xlink:href="#ArialMT-115"/>
      <use x="127.832031" xlink:href="#ArialMT-116"/>
      <use x="155.615234" xlink:href="#ArialMT-95"/>
      <use x="211.230469" xlink:href="#ArialMT-112"/>
      <use x="266.845703" xlink:href="#ArialMT-105"/>
      <use x="289.0625" xlink:href="#ArialMT-112"/>
      <use x="344.677734" xlink:href="#ArialMT-101"/>
      <use x="400.292969" xlink:href="#ArialMT-51"/>
     </g>
    </g>
    <g id="line2d_38">
     <path d="M 435.8125 116.877813 
L 455.8125 116.877813 
" style="fill:none;stroke:#ccb974;stroke-linecap:round;stroke-width:1.75;"/>
    </g>
    <g id="line2d_39"/>
    <g id="text_18">
     <!-- dist_pipe4 -->
     <g style="fill:#262626;" transform="translate(463.8125 120.377813)scale(0.1 -0.1)">
      <use xlink:href="#ArialMT-100"/>
      <use x="55.615234" xlink:href="#ArialMT-105"/>
      <use x="77.832031" xlink:href="#ArialMT-115"/>
      <use x="127.832031" xlink:href="#ArialMT-116"/>
      <use x="155.615234" xlink:href="#ArialMT-95"/>
      <use x="211.230469" xlink:href="#ArialMT-112"/>
      <use x="266.845703" xlink:href="#ArialMT-105"/>
      <use x="289.0625" xlink:href="#ArialMT-112"/>
      <use x="344.677734" xlink:href="#ArialMT-101"/>
      <use x="400.292969" xlink:href="#ArialMT-52"/>
     </g>
    </g>
   </g>
  </g>
  <g id="axes_2">
   <g id="patch_7">
    <path d="M 72 352.44 
L 518.4 352.44 
L 518.4 213.84 
L 72 213.84 
z
" style="fill:#eaeaf2;"/>
   </g>
   <g id="matplotlib.axis_3">
    <g id="xtick_7">
     <g id="line2d_40">
      <path clip-path="url(#pba34583c8f)" d="M 92.290909 352.44 
L 92.290909 213.84 
" style="fill:none;stroke:#ffffff;stroke-linecap:round;"/>
     </g>
     <g id="line2d_41"/>
     <g id="text_19">
      <!-- 01-01 00 -->
      <g style="fill:#262626;" transform="translate(72.55419 366.597813)scale(0.1 -0.1)">
       <use xlink:href="#ArialMT-48"/>
       <use x="55.615234" xlink:href="#ArialMT-49"/>
       <use x="111.230469" xlink:href="#ArialMT-45"/>
       <use x="144.53125" xlink:href="#ArialMT-48"/>
       <use x="200.146484" xlink:href="#ArialMT-49"/>
       <use x="255.761719" xlink:href="#ArialMT-32"/>
       <use x="283.544922" xlink:href="#ArialMT-48"/>
       <use x="339.160156" xlink:href="#ArialMT-48"/>
      </g>
     </g>
    </g>
    <g id="xtick_8">
     <g id="line2d_42">
      <path clip-path="url(#pba34583c8f)" d="M 173.725996 352.44 
L 173.725996 213.84 
" style="fill:none;stroke:#ffffff;stroke-linecap:round;"/>
     </g>
     <g id="line2d_43"/>
     <g id="text_20">
      <!-- 01-01 01 -->
      <g style="fill:#262626;" transform="translate(153.989277 366.597813)scale(0.1 -0.1)">
       <use xlink:href="#ArialMT-48"/>
       <use x="55.615234" xlink:href="#ArialMT-49"/>
       <use x="111.230469" xlink:href="#ArialMT-45"/>
       <use x="144.53125" xlink:href="#ArialMT-48"/>
       <use x="200.146484" xlink:href="#ArialMT-49"/>
       <use x="255.761719" xlink:href="#ArialMT-32"/>
       <use x="283.544922" xlink:href="#ArialMT-48"/>
       <use x="339.160156" xlink:href="#ArialMT-49"/>
      </g>
     </g>
    </g>
    <g id="xtick_9">
     <g id="line2d_44">
      <path clip-path="url(#pba34583c8f)" d="M 255.161083 352.44 
L 255.161083 213.84 
" style="fill:none;stroke:#ffffff;stroke-linecap:round;"/>
     </g>
     <g id="line2d_45"/>
     <g id="text_21">
      <!-- 01-01 02 -->
      <g style="fill:#262626;" transform="translate(235.424364 366.597813)scale(0.1 -0.1)">
       <use xlink:href="#ArialMT-48"/>
       <use x="55.615234" xlink:href="#ArialMT-49"/>
       <use x="111.230469" xlink:href="#ArialMT-45"/>
       <use x="144.53125" xlink:href="#ArialMT-48"/>
       <use x="200.146484" xlink:href="#ArialMT-49"/>
       <use x="255.761719" xlink:href="#ArialMT-32"/>
       <use x="283.544922" xlink:href="#ArialMT-48"/>
       <use x="339.160156" xlink:href="#ArialMT-50"/>
      </g>
     </g>
    </g>
    <g id="xtick_10">
     <g id="line2d_46">
      <path clip-path="url(#pba34583c8f)" d="M 336.596169 352.44 
L 336.596169 213.84 
" style="fill:none;stroke:#ffffff;stroke-linecap:round;"/>
     </g>
     <g id="line2d_47"/>
     <g id="text_22">
      <!-- 01-01 03 -->
      <g style="fill:#262626;" transform="translate(316.85945 366.597813)scale(0.1 -0.1)">
       <use xlink:href="#ArialMT-48"/>
       <use x="55.615234" xlink:href="#ArialMT-49"/>
       <use x="111.230469" xlink:href="#ArialMT-45"/>
       <use x="144.53125" xlink:href="#ArialMT-48"/>
       <use x="200.146484" xlink:href="#ArialMT-49"/>
       <use x="255.761719" xlink:href="#ArialMT-32"/>
       <use x="283.544922" xlink:href="#ArialMT-48"/>
       <use x="339.160156" xlink:href="#ArialMT-51"/>
      </g>
     </g>
    </g>
    <g id="xtick_11">
     <g id="line2d_48">
      <path clip-path="url(#pba34583c8f)" d="M 418.031256 352.44 
L 418.031256 213.84 
" style="fill:none;stroke:#ffffff;stroke-linecap:round;"/>
     </g>
     <g id="line2d_49"/>
     <g id="text_23">
      <!-- 01-01 04 -->
      <g style="fill:#262626;" transform="translate(398.294537 366.597813)scale(0.1 -0.1)">
       <use xlink:href="#ArialMT-48"/>
       <use x="55.615234" xlink:href="#ArialMT-49"/>
       <use x="111.230469" xlink:href="#ArialMT-45"/>
       <use x="144.53125" xlink:href="#ArialMT-48"/>
       <use x="200.146484" xlink:href="#ArialMT-49"/>
       <use x="255.761719" xlink:href="#ArialMT-32"/>
       <use x="283.544922" xlink:href="#ArialMT-48"/>
       <use x="339.160156" xlink:href="#ArialMT-52"/>
      </g>
     </g>
    </g>
    <g id="xtick_12">
     <g id="line2d_50">
      <path clip-path="url(#pba34583c8f)" d="M 499.466342 352.44 
L 499.466342 213.84 
" style="fill:none;stroke:#ffffff;stroke-linecap:round;"/>
     </g>
     <g id="line2d_51"/>
     <g id="text_24">
      <!-- 01-01 05 -->
      <g style="fill:#262626;" transform="translate(479.729624 366.597813)scale(0.1 -0.1)">
       <use xlink:href="#ArialMT-48"/>
       <use x="55.615234" xlink:href="#ArialMT-49"/>
       <use x="111.230469" xlink:href="#ArialMT-45"/>
       <use x="144.53125" xlink:href="#ArialMT-48"/>
       <use x="200.146484" xlink:href="#ArialMT-49"/>
       <use x="255.761719" xlink:href="#ArialMT-32"/>
       <use x="283.544922" xlink:href="#ArialMT-48"/>
       <use x="339.160156" xlink:href="#ArialMT-53"/>
      </g>
     </g>
    </g>
   </g>
   <g id="matplotlib.axis_4">
    <g id="ytick_7">
     <g id="line2d_52">
      <path clip-path="url(#pba34583c8f)" d="M 72 349.879609 
L 518.4 349.879609 
" style="fill:none;stroke:#ffffff;stroke-linecap:round;"/>
     </g>
     <g id="line2d_53"/>
     <g id="text_25">
      <!-- 0.0 -->
      <g style="fill:#262626;" transform="translate(51.1 353.458516)scale(0.1 -0.1)">
       <use xlink:href="#ArialMT-48"/>
       <use x="55.615234" xlink:href="#ArialMT-46"/>
       <use x="83.398438" xlink:href="#ArialMT-48"/>
      </g>
     </g>
    </g>
    <g id="ytick_8">
     <g id="line2d_54">
      <path clip-path="url(#pba34583c8f)" d="M 72 323.931687 
L 518.4 323.931687 
" style="fill:none;stroke:#ffffff;stroke-linecap:round;"/>
     </g>
     <g id="line2d_55"/>
     <g id="text_26">
      <!-- 0.2 -->
      <g style="fill:#262626;" transform="translate(51.1 327.510594)scale(0.1 -0.1)">
       <use xlink:href="#ArialMT-48"/>
       <use x="55.615234" xlink:href="#ArialMT-46"/>
       <use x="83.398438" xlink:href="#ArialMT-50"/>
      </g>
     </g>
    </g>
    <g id="ytick_9">
     <g id="line2d_56">
      <path clip-path="url(#pba34583c8f)" d="M 72 297.983766 
L 518.4 297.983766 
" style="fill:none;stroke:#ffffff;stroke-linecap:round;"/>
     </g>
     <g id="line2d_57"/>
     <g id="text_27">
      <!-- 0.4 -->
      <g style="fill:#262626;" transform="translate(51.1 301.562672)scale(0.1 -0.1)">
       <use xlink:href="#ArialMT-48"/>
       <use x="55.615234" xlink:href="#ArialMT-46"/>
       <use x="83.398438" xlink:href="#ArialMT-52"/>
      </g>
     </g>
    </g>
    <g id="ytick_10">
     <g id="line2d_58">
      <path clip-path="url(#pba34583c8f)" d="M 72 272.035844 
L 518.4 272.035844 
" style="fill:none;stroke:#ffffff;stroke-linecap:round;"/>
     </g>
     <g id="line2d_59"/>
     <g id="text_28">
      <!-- 0.6 -->
      <defs>
       <path d="M 49.75 54.046875 
L 41.015625 53.375 
Q 39.84375 58.546875 37.703125 60.890625 
Q 34.125 64.65625 28.90625 64.65625 
Q 24.703125 64.65625 21.53125 62.3125 
Q 17.390625 59.28125 14.984375 53.46875 
Q 12.59375 47.65625 12.5 36.921875 
Q 15.671875 41.75 20.265625 44.09375 
Q 24.859375 46.4375 29.890625 46.4375 
Q 38.671875 46.4375 44.84375 39.96875 
Q 51.03125 33.5 51.03125 23.25 
Q 51.03125 16.5 48.125 10.71875 
Q 45.21875 4.9375 40.140625 1.859375 
Q 35.0625 -1.21875 28.609375 -1.21875 
Q 17.625 -1.21875 10.6875 6.859375 
Q 3.765625 14.9375 3.765625 33.5 
Q 3.765625 54.25 11.421875 63.671875 
Q 18.109375 71.875 29.4375 71.875 
Q 37.890625 71.875 43.28125 67.140625 
Q 48.6875 62.40625 49.75 54.046875 
z
M 13.875 23.1875 
Q 13.875 18.65625 15.796875 14.5 
Q 17.71875 10.359375 21.1875 8.171875 
Q 24.65625 6 28.46875 6 
Q 34.03125 6 38.03125 10.484375 
Q 42.046875 14.984375 42.046875 22.703125 
Q 42.046875 30.125 38.078125 34.390625 
Q 34.125 38.671875 28.125 38.671875 
Q 22.171875 38.671875 18.015625 34.390625 
Q 13.875 30.125 13.875 23.1875 
z
" id="ArialMT-54"/>
      </defs>
      <g style="fill:#262626;" transform="translate(51.1 275.61475)scale(0.1 -0.1)">
       <use xlink:href="#ArialMT-48"/>
       <use x="55.615234" xlink:href="#ArialMT-46"/>
       <use x="83.398438" xlink:href="#ArialMT-54"/>
      </g>
     </g>
    </g>
    <g id="ytick_11">
     <g id="line2d_60">
      <path clip-path="url(#pba34583c8f)" d="M 72 246.087922 
L 518.4 246.087922 
" style="fill:none;stroke:#ffffff;stroke-linecap:round;"/>
     </g>
     <g id="line2d_61"/>
     <g id="text_29">
      <!-- 0.8 -->
      <defs>
       <path d="M 17.671875 38.8125 
Q 12.203125 40.828125 9.5625 44.53125 
Q 6.9375 48.25 6.9375 53.421875 
Q 6.9375 61.234375 12.546875 66.546875 
Q 18.171875 71.875 27.484375 71.875 
Q 36.859375 71.875 42.578125 66.421875 
Q 48.296875 60.984375 48.296875 53.171875 
Q 48.296875 48.1875 45.671875 44.5 
Q 43.0625 40.828125 37.75 38.8125 
Q 44.34375 36.671875 47.78125 31.875 
Q 51.21875 27.09375 51.21875 20.453125 
Q 51.21875 11.28125 44.71875 5.03125 
Q 38.234375 -1.21875 27.640625 -1.21875 
Q 17.046875 -1.21875 10.546875 5.046875 
Q 4.046875 11.328125 4.046875 20.703125 
Q 4.046875 27.6875 7.59375 32.390625 
Q 11.140625 37.109375 17.671875 38.8125 
z
M 15.921875 53.71875 
Q 15.921875 48.640625 19.1875 45.40625 
Q 22.46875 42.1875 27.6875 42.1875 
Q 32.765625 42.1875 36.015625 45.375 
Q 39.265625 48.578125 39.265625 53.21875 
Q 39.265625 58.0625 35.90625 61.359375 
Q 32.5625 64.65625 27.59375 64.65625 
Q 22.5625 64.65625 19.234375 61.421875 
Q 15.921875 58.203125 15.921875 53.71875 
z
M 13.09375 20.65625 
Q 13.09375 16.890625 14.875 13.375 
Q 16.65625 9.859375 20.171875 7.921875 
Q 23.6875 6 27.734375 6 
Q 34.03125 6 38.125 10.046875 
Q 42.234375 14.109375 42.234375 20.359375 
Q 42.234375 26.703125 38.015625 30.859375 
Q 33.796875 35.015625 27.4375 35.015625 
Q 21.234375 35.015625 17.15625 30.90625 
Q 13.09375 26.8125 13.09375 20.65625 
z
" id="ArialMT-56"/>
      </defs>
      <g style="fill:#262626;" transform="translate(51.1 249.666828)scale(0.1 -0.1)">
       <use xlink:href="#ArialMT-48"/>
       <use x="55.615234" xlink:href="#ArialMT-46"/>
       <use x="83.398438" xlink:href="#ArialMT-56"/>
      </g>
     </g>
    </g>
    <g id="ytick_12">
     <g id="line2d_62">
      <path clip-path="url(#pba34583c8f)" d="M 72 220.14 
L 518.4 220.14 
" style="fill:none;stroke:#ffffff;stroke-linecap:round;"/>
     </g>
     <g id="line2d_63"/>
     <g id="text_30">
      <!-- 1.0 -->
      <g style="fill:#262626;" transform="translate(51.1 223.718906)scale(0.1 -0.1)">
       <use xlink:href="#ArialMT-49"/>
       <use x="55.615234" xlink:href="#ArialMT-46"/>
       <use x="83.398438" xlink:href="#ArialMT-48"/>
      </g>
     </g>
    </g>
   </g>
   <g id="line2d_64">
    <path clip-path="url(#pba34583c8f)" d="M 92.290909 220.14 
L 498.109091 220.14 
" style="fill:none;stroke:#000000;stroke-dasharray:1.75,2.8875;stroke-dashoffset:0;stroke-width:1.75;"/>
    <defs>
     <path d="M 0 3.5 
C 0.928211 3.5 1.81853 3.131218 2.474874 2.474874 
C 3.131218 1.81853 3.5 0.928211 3.5 0 
C 3.5 -0.928211 3.131218 -1.81853 2.474874 -2.474874 
C 1.81853 -3.131218 0.928211 -3.5 0 -3.5 
C -0.928211 -3.5 -1.81853 -3.131218 -2.474874 -2.474874 
C -3.131218 -1.81853 -3.5 -0.928211 -3.5 0 
C -3.5 0.928211 -3.131218 1.81853 -2.474874 2.474874 
C -1.81853 3.131218 -0.928211 3.5 0 3.5 
z
" id="m22ed3230e2"/>
    </defs>
    <g clip-path="url(#pba34583c8f)">
     <use x="92.290909" xlink:href="#m22ed3230e2" y="220.14"/>
     <use x="498.109091" xlink:href="#m22ed3230e2" y="220.14"/>
    </g>
   </g>
   <g id="line2d_65">
    <path clip-path="url(#pba34583c8f)" d="M 92.290909 289.507486 
L 111.292429 289.486422 
L 112.649681 291.805544 
L 116.721435 292.09715 
L 119.435938 292.467444 
L 122.150441 293.01097 
L 124.864944 293.729567 
L 128.936698 295.07038 
L 131.651201 296.060998 
L 133.008453 297.713266 
L 138.437458 299.50195 
L 142.509212 300.575695 
L 145.223716 301.114893 
L 147.938218 301.498581 
L 150.652721 301.723154 
L 152.009973 301.77622 
L 153.367224 305.364936 
L 157.438978 305.229089 
L 161.510733 304.850957 
L 165.582487 304.266514 
L 171.011493 303.246907 
L 172.368744 302.962494 
L 173.725996 303.588473 
L 187.29851 300.841375 
L 192.727516 299.978676 
L 194.084768 301.723484 
L 199.513773 301.153645 
L 206.30003 300.677095 
L 213.086288 300.401519 
L 214.443539 302.114043 
L 225.301551 301.963663 
L 233.445059 301.939224 
L 234.802311 303.793002 
L 263.304591 303.895032 
L 274.162603 303.931879 
L 275.519854 305.279258 
L 294.521374 305.307753 
L 295.878626 307.531206 
L 314.880146 307.531752 
L 316.237397 309.080864 
L 335.238918 309.061724 
L 336.596169 308.921898 
L 355.597689 308.895204 
L 356.954941 309.225387 
L 366.455701 309.324925 
L 373.241958 309.627336 
L 375.956461 309.836233 
L 377.313712 309.369917 
L 382.742718 310.024803 
L 396.315233 312.029877 
L 397.672484 327.065352 
L 409.887747 327.561174 
L 416.674004 327.729764 
L 418.031256 325.581503 
L 427.532016 325.656258 
L 437.032776 325.52011 
L 438.390028 323.646337 
L 449.248039 323.189745 
L 457.391548 322.743835 
L 458.748799 320.974053 
L 477.750319 319.786264 
L 479.107571 315.48378 
L 489.965582 314.859897 
L 498.109091 314.548386 
L 498.109091 314.548386 
" style="fill:none;stroke:#4c72b0;stroke-linecap:round;stroke-width:1.75;"/>
   </g>
   <g id="line2d_66">
    <path clip-path="url(#pba34583c8f)" d="M 92.290909 294.646426 
L 109.935178 294.630277 
L 111.292429 294.668331 
L 112.649681 295.53096 
L 116.721435 295.872773 
L 119.435938 296.298414 
L 122.150441 296.914528 
L 124.864944 297.717304 
L 128.936698 299.184932 
L 131.651201 300.245643 
L 133.008453 301.994447 
L 137.080207 303.404982 
L 141.151961 304.565484 
L 143.866464 305.153957 
L 146.580967 305.578534 
L 149.29547 305.835221 
L 152.009973 305.926053 
L 153.367224 309.056131 
L 157.438978 308.842558 
L 161.510733 308.381609 
L 165.582487 307.714469 
L 171.011493 306.59444 
L 172.368744 306.288082 
L 173.725996 306.882507 
L 184.584007 304.548056 
L 190.013013 303.594546 
L 192.727516 303.199075 
L 194.084768 304.417213 
L 199.513773 303.874705 
L 206.30003 303.43522 
L 213.086288 303.187221 
L 214.443539 304.8464 
L 226.658802 304.693653 
L 233.445059 304.66404 
L 234.802311 306.040595 
L 261.94734 306.088395 
L 274.162603 306.086135 
L 275.519854 306.339457 
L 294.521374 306.33662 
L 295.878626 308.29837 
L 314.880146 308.293125 
L 316.237397 309.862701 
L 335.238918 309.856422 
L 336.596169 309.687359 
L 355.597689 309.690216 
L 356.954941 310.010455 
L 366.455701 310.148749 
L 371.884706 310.419512 
L 375.956461 310.773125 
L 377.313712 310.139167 
L 382.742718 310.91208 
L 396.315233 313.176177 
L 397.672484 327.486549 
L 408.530496 327.930182 
L 416.674004 328.11456 
L 418.031256 326.386416 
L 427.532016 326.397623 
L 437.032776 326.198361 
L 438.390028 324.383984 
L 449.248039 323.855793 
L 457.391548 323.366858 
L 458.748799 321.623886 
L 477.750319 320.385649 
L 479.107571 316.432283 
L 488.608331 315.898628 
L 498.109091 315.558222 
L 498.109091 315.558222 
" style="fill:none;stroke:#55a868;stroke-linecap:round;stroke-width:1.75;"/>
   </g>
   <g id="line2d_67">
    <path clip-path="url(#pba34583c8f)" d="M 92.290909 279.652727 
L 111.292429 279.492926 
L 112.649681 286.955743 
L 118.078687 287.141678 
L 122.150441 287.543763 
L 124.864944 288.003859 
L 127.579447 288.642721 
L 130.29395 289.455588 
L 131.651201 289.918354 
L 133.008453 290.81887 
L 145.223716 295.30316 
L 149.29547 296.371334 
L 152.009973 296.882109 
L 153.367224 301.902932 
L 157.438978 302.188495 
L 161.510733 302.191484 
L 165.582487 301.92847 
L 169.654241 301.42662 
L 172.368744 300.977351 
L 173.725996 301.94291 
L 179.155002 300.836559 
L 192.727516 297.775596 
L 194.084768 300.109026 
L 200.871025 299.024925 
L 206.30003 298.373593 
L 213.086288 297.815175 
L 214.443539 300.138896 
L 222.587048 299.821795 
L 233.445059 299.63494 
L 234.802311 301.992916 
L 253.803831 301.92182 
L 255.161083 302.965319 
L 274.162603 302.951725 
L 275.519854 307.327281 
L 294.521374 307.311866 
L 295.878626 310.810476 
L 335.238918 310.827102 
L 336.596169 311.277621 
L 355.597689 311.27161 
L 356.954941 310.322049 
L 374.59921 310.43574 
L 375.956461 310.469698 
L 377.313712 311.117676 
L 384.09997 311.445699 
L 390.886227 312.025374 
L 396.315233 312.64704 
L 397.672484 323.859212 
L 416.674004 324.952765 
L 418.031256 321.299992 
L 427.532016 321.780462 
L 435.675524 321.974705 
L 437.032776 321.987151 
L 438.390028 321.350254 
L 446.533536 321.275891 
L 456.034296 320.9697 
L 457.391548 320.910411 
L 458.748799 319.821268 
L 472.321314 319.014688 
L 477.750319 318.661409 
L 479.107571 312.416566 
L 491.322834 311.39109 
L 498.109091 310.951851 
L 498.109091 310.951851 
" style="fill:none;stroke:#c44e52;stroke-linecap:round;stroke-width:1.75;"/>
   </g>
   <g id="line2d_68">
    <path clip-path="url(#pba34583c8f)" d="M 92.290909 319.607548 
L 111.292429 319.515496 
L 112.649681 322.649231 
L 131.651201 322.567097 
L 133.008453 323.127027 
L 152.009973 323.046313 
L 153.367224 324.864375 
L 192.727516 324.761759 
L 194.084768 327.163571 
L 213.086288 327.224486 
L 214.443539 327.373326 
L 233.445059 327.640458 
L 234.802311 329.905437 
L 253.803831 330.261386 
L 255.161083 329.285529 
L 274.162603 329.697299 
L 275.519854 332.650937 
L 294.521374 332.841487 
L 295.878626 333.540575 
L 314.880146 333.582362 
L 316.237397 335.101299 
L 335.238918 335.028437 
L 336.596169 334.643297 
L 355.597689 334.480819 
L 356.954941 335.667046 
L 375.956461 335.481398 
L 377.313712 335.235611 
L 396.315233 335.028355 
L 397.672484 345.164483 
L 416.674004 345.136852 
L 418.031256 343.900545 
L 437.032776 343.861042 
L 438.390028 342.112856 
L 457.391548 342.055019 
L 458.748799 340.946042 
L 477.750319 340.879426 
L 479.107571 339.831044 
L 498.109091 339.760422 
L 498.109091 339.760422 
" style="fill:none;stroke:#8172b2;stroke-linecap:round;stroke-width:1.75;"/>
   </g>
   <g id="line2d_69">
    <path clip-path="url(#pba34583c8f)" d="M 92.290909 325.870564 
L 111.292429 325.797557 
L 112.649681 328.28295 
L 131.651201 328.217809 
L 133.008453 328.661894 
L 152.009973 328.597879 
L 153.367224 330.039801 
L 192.727516 329.958415 
L 194.084768 331.863314 
L 213.086288 331.911626 
L 215.800791 332.039037 
L 233.445059 332.241538 
L 234.802311 334.037913 
L 253.803831 334.320219 
L 255.161083 333.546258 
L 274.162603 333.872836 
L 275.519854 336.215394 
L 294.521374 336.36652 
L 295.878626 336.920973 
L 314.880146 336.954115 
L 316.237397 338.158798 
L 335.238918 338.10101 
L 336.596169 337.795552 
L 355.597689 337.666689 
L 356.954941 338.607497 
L 375.956461 338.460258 
L 377.313712 338.265322 
L 396.315233 338.100945 
L 397.672484 346.14 
L 416.674004 346.118086 
L 418.031256 345.137559 
L 437.032776 345.106229 
L 438.390028 343.719727 
L 457.391548 343.673856 
L 458.748799 342.794317 
L 477.750319 342.741483 
L 479.107571 341.910001 
L 498.109091 341.85399 
L 498.109091 341.85399 
" style="fill:none;stroke:#ccb974;stroke-linecap:round;stroke-width:1.75;"/>
   </g>
   <g id="patch_8">
    <path d="M 72 352.44 
L 72 213.84 
" style="fill:none;"/>
   </g>
   <g id="patch_9">
    <path d="M 518.4 352.44 
L 518.4 213.84 
" style="fill:none;"/>
   </g>
   <g id="patch_10">
    <path d="M 72 352.44 
L 518.4 352.44 
" style="fill:none;"/>
   </g>
   <g id="patch_11">
    <path d="M 72 213.84 
L 518.4 213.84 
" style="fill:none;"/>
   </g>
   <g id="text_31">
    <!-- Courant numbers -->
    <defs>
     <path d="M 58.796875 25.09375 
L 68.265625 22.703125 
Q 65.28125 11.03125 57.546875 4.90625 
Q 49.8125 -1.21875 38.625 -1.21875 
Q 27.046875 -1.21875 19.796875 3.484375 
Q 12.546875 8.203125 8.765625 17.140625 
Q 4.984375 26.078125 4.984375 36.328125 
Q 4.984375 47.515625 9.25 55.828125 
Q 13.53125 64.15625 21.40625 68.46875 
Q 29.296875 72.796875 38.765625 72.796875 
Q 49.515625 72.796875 56.828125 67.328125 
Q 64.15625 61.859375 67.046875 51.953125 
L 57.71875 49.75 
Q 55.21875 57.5625 50.484375 61.125 
Q 45.75 64.703125 38.578125 64.703125 
Q 30.328125 64.703125 24.78125 60.734375 
Q 19.234375 56.78125 16.984375 50.109375 
Q 14.75 43.453125 14.75 36.375 
Q 14.75 27.25 17.40625 20.4375 
Q 20.0625 13.625 25.671875 10.25 
Q 31.296875 6.890625 37.84375 6.890625 
Q 45.796875 6.890625 51.3125 11.46875 
Q 56.84375 16.0625 58.796875 25.09375 
z
" id="ArialMT-67"/>
     <path d="M 3.328125 25.921875 
Q 3.328125 40.328125 11.328125 47.265625 
Q 18.015625 53.03125 27.640625 53.03125 
Q 38.328125 53.03125 45.109375 46.015625 
Q 51.90625 39.015625 51.90625 26.65625 
Q 51.90625 16.65625 48.90625 10.90625 
Q 45.90625 5.171875 40.15625 2 
Q 34.421875 -1.171875 27.640625 -1.171875 
Q 16.75 -1.171875 10.03125 5.8125 
Q 3.328125 12.796875 3.328125 25.921875 
z
M 12.359375 25.921875 
Q 12.359375 15.96875 16.703125 11.015625 
Q 21.046875 6.0625 27.640625 6.0625 
Q 34.1875 6.0625 38.53125 11.03125 
Q 42.875 16.015625 42.875 26.21875 
Q 42.875 35.84375 38.5 40.796875 
Q 34.125 45.75 27.640625 45.75 
Q 21.046875 45.75 16.703125 40.8125 
Q 12.359375 35.890625 12.359375 25.921875 
z
" id="ArialMT-111"/>
     <path d="M 40.578125 0 
L 40.578125 7.625 
Q 34.515625 -1.171875 24.125 -1.171875 
Q 19.53125 -1.171875 15.546875 0.578125 
Q 11.578125 2.34375 9.640625 5 
Q 7.71875 7.671875 6.9375 11.53125 
Q 6.390625 14.109375 6.390625 19.734375 
L 6.390625 51.859375 
L 15.1875 51.859375 
L 15.1875 23.09375 
Q 15.1875 16.21875 15.71875 13.8125 
Q 16.546875 10.359375 19.234375 8.375 
Q 21.921875 6.390625 25.875 6.390625 
Q 29.828125 6.390625 33.296875 8.421875 
Q 36.765625 10.453125 38.203125 13.9375 
Q 39.65625 17.4375 39.65625 24.078125 
L 39.65625 51.859375 
L 48.4375 51.859375 
L 48.4375 0 
z
" id="ArialMT-117"/>
     <path d="M 6.59375 0 
L 6.59375 51.859375 
L 14.5 51.859375 
L 14.5 44.484375 
Q 20.21875 53.03125 31 53.03125 
Q 35.6875 53.03125 39.625 51.34375 
Q 43.5625 49.65625 45.515625 46.921875 
Q 47.46875 44.1875 48.25 40.4375 
Q 48.734375 37.984375 48.734375 31.890625 
L 48.734375 0 
L 39.9375 0 
L 39.9375 31.546875 
Q 39.9375 36.921875 38.90625 39.578125 
Q 37.890625 42.234375 35.28125 43.8125 
Q 32.671875 45.40625 29.15625 45.40625 
Q 23.53125 45.40625 19.453125 41.84375 
Q 15.375 38.28125 15.375 28.328125 
L 15.375 0 
z
" id="ArialMT-110"/>
     <path d="M 6.59375 0 
L 6.59375 51.859375 
L 14.453125 51.859375 
L 14.453125 44.578125 
Q 16.890625 48.390625 20.9375 50.703125 
Q 25 53.03125 30.171875 53.03125 
Q 35.9375 53.03125 39.625 50.640625 
Q 43.3125 48.25 44.828125 43.953125 
Q 50.984375 53.03125 60.84375 53.03125 
Q 68.5625 53.03125 72.703125 48.75 
Q 76.859375 44.484375 76.859375 35.59375 
L 76.859375 0 
L 68.109375 0 
L 68.109375 32.671875 
Q 68.109375 37.9375 67.25 40.25 
Q 66.40625 42.578125 64.15625 43.984375 
Q 61.921875 45.40625 58.890625 45.40625 
Q 53.421875 45.40625 49.796875 41.765625 
Q 46.1875 38.140625 46.1875 30.125 
L 46.1875 0 
L 37.40625 0 
L 37.40625 33.6875 
Q 37.40625 39.546875 35.25 42.46875 
Q 33.109375 45.40625 28.21875 45.40625 
Q 24.515625 45.40625 21.359375 43.453125 
Q 18.21875 41.5 16.796875 37.734375 
Q 15.375 33.984375 15.375 26.90625 
L 15.375 0 
z
" id="ArialMT-109"/>
     <path d="M 14.703125 0 
L 6.546875 0 
L 6.546875 71.578125 
L 15.328125 71.578125 
L 15.328125 46.046875 
Q 20.90625 53.03125 29.546875 53.03125 
Q 34.328125 53.03125 38.59375 51.09375 
Q 42.875 49.171875 45.625 45.671875 
Q 48.390625 42.1875 49.953125 37.25 
Q 51.515625 32.328125 51.515625 26.703125 
Q 51.515625 13.375 44.921875 6.09375 
Q 38.328125 -1.171875 29.109375 -1.171875 
Q 19.921875 -1.171875 14.703125 6.5 
z
M 14.59375 26.3125 
Q 14.59375 17 17.140625 12.84375 
Q 21.296875 6.0625 28.375 6.0625 
Q 34.125 6.0625 38.328125 11.0625 
Q 42.53125 16.0625 42.53125 25.984375 
Q 42.53125 36.140625 38.5 40.96875 
Q 34.46875 45.796875 28.765625 45.796875 
Q 23 45.796875 18.796875 40.796875 
Q 14.59375 35.796875 14.59375 26.3125 
z
" id="ArialMT-98"/>
    </defs>
    <g style="fill:#262626;" transform="translate(248.847187 207.84)scale(0.12 -0.12)">
     <use xlink:href="#ArialMT-67"/>
     <use x="72.216797" xlink:href="#ArialMT-111"/>
     <use x="127.832031" xlink:href="#ArialMT-117"/>
     <use x="183.447266" xlink:href="#ArialMT-114"/>
     <use x="216.748047" xlink:href="#ArialMT-97"/>
     <use x="272.363281" xlink:href="#ArialMT-110"/>
     <use x="327.978516" xlink:href="#ArialMT-116"/>
     <use x="355.761719" xlink:href="#ArialMT-32"/>
     <use x="383.544922" xlink:href="#ArialMT-110"/>
     <use x="439.160156" xlink:href="#ArialMT-117"/>
     <use x="494.775391" xlink:href="#ArialMT-109"/>
     <use x="578.076172" xlink:href="#ArialMT-98"/>
     <use x="633.691406" xlink:href="#ArialMT-101"/>
     <use x="689.306641" xlink:href="#ArialMT-114"/>
     <use x="722.607422" xlink:href="#ArialMT-115"/>
    </g>
   </g>
  </g>
  <g id="text_32">
   <!-- Horizon: 5.0h, Time step: 60, Neighbourhoods: 3, case: energy -->
   <defs>
    <path d="M 8.015625 0 
L 8.015625 71.578125 
L 17.484375 71.578125 
L 17.484375 42.1875 
L 54.6875 42.1875 
L 54.6875 71.578125 
L 64.15625 71.578125 
L 64.15625 0 
L 54.6875 0 
L 54.6875 33.734375 
L 17.484375 33.734375 
L 17.484375 0 
z
" id="ArialMT-72"/>
    <path d="M 1.953125 0 
L 1.953125 7.125 
L 34.96875 45.015625 
Q 29.34375 44.734375 25.046875 44.734375 
L 3.90625 44.734375 
L 3.90625 51.859375 
L 46.296875 51.859375 
L 46.296875 46.046875 
L 18.21875 13.140625 
L 12.796875 7.125 
Q 18.703125 7.5625 23.875 7.5625 
L 47.859375 7.5625 
L 47.859375 0 
z
" id="ArialMT-122"/>
    <path d="M 9.03125 41.84375 
L 9.03125 51.859375 
L 19.046875 51.859375 
L 19.046875 41.84375 
z
M 9.03125 0 
L 9.03125 10.015625 
L 19.046875 10.015625 
L 19.046875 0 
z
" id="ArialMT-58"/>
    <path d="M 6.59375 0 
L 6.59375 71.578125 
L 15.375 71.578125 
L 15.375 45.90625 
Q 21.53125 53.03125 30.90625 53.03125 
Q 36.671875 53.03125 40.921875 50.75 
Q 45.171875 48.484375 47 44.484375 
Q 48.828125 40.484375 48.828125 32.859375 
L 48.828125 0 
L 40.046875 0 
L 40.046875 32.859375 
Q 40.046875 39.453125 37.1875 42.453125 
Q 34.328125 45.453125 29.109375 45.453125 
Q 25.203125 45.453125 21.75 43.421875 
Q 18.3125 41.40625 16.84375 37.9375 
Q 15.375 34.46875 15.375 28.375 
L 15.375 0 
z
" id="ArialMT-104"/>
    <path d="M 8.890625 0 
L 8.890625 10.015625 
L 18.890625 10.015625 
L 18.890625 0 
Q 18.890625 -5.515625 16.9375 -8.90625 
Q 14.984375 -12.3125 10.75 -14.15625 
L 8.296875 -10.40625 
Q 11.078125 -9.1875 12.390625 -6.8125 
Q 13.71875 -4.4375 13.875 0 
z
" id="ArialMT-44"/>
    <path d="M 25.921875 0 
L 25.921875 63.140625 
L 2.34375 63.140625 
L 2.34375 71.578125 
L 59.078125 71.578125 
L 59.078125 63.140625 
L 35.40625 63.140625 
L 35.40625 0 
z
" id="ArialMT-84"/>
    <path d="M 7.625 0 
L 7.625 71.578125 
L 17.328125 71.578125 
L 54.9375 15.375 
L 54.9375 71.578125 
L 64.015625 71.578125 
L 64.015625 0 
L 54.296875 0 
L 16.703125 56.25 
L 16.703125 0 
z
" id="ArialMT-78"/>
    <path d="M 4.984375 -4.296875 
L 13.53125 -5.5625 
Q 14.0625 -9.515625 16.5 -11.328125 
Q 19.78125 -13.765625 25.4375 -13.765625 
Q 31.546875 -13.765625 34.859375 -11.328125 
Q 38.1875 -8.890625 39.359375 -4.5 
Q 40.046875 -1.8125 39.984375 6.78125 
Q 34.234375 0 25.640625 0 
Q 14.9375 0 9.078125 7.71875 
Q 3.21875 15.4375 3.21875 26.21875 
Q 3.21875 33.640625 5.90625 39.90625 
Q 8.59375 46.1875 13.6875 49.609375 
Q 18.796875 53.03125 25.6875 53.03125 
Q 34.859375 53.03125 40.828125 45.609375 
L 40.828125 51.859375 
L 48.921875 51.859375 
L 48.921875 7.03125 
Q 48.921875 -5.078125 46.453125 -10.125 
Q 44 -15.1875 38.640625 -18.109375 
Q 33.296875 -21.046875 25.484375 -21.046875 
Q 16.21875 -21.046875 10.5 -16.875 
Q 4.78125 -12.703125 4.984375 -4.296875 
z
M 12.25 26.859375 
Q 12.25 16.65625 16.296875 11.96875 
Q 20.359375 7.28125 26.46875 7.28125 
Q 32.515625 7.28125 36.609375 11.9375 
Q 40.71875 16.609375 40.71875 26.5625 
Q 40.71875 36.078125 36.5 40.90625 
Q 32.28125 45.75 26.3125 45.75 
Q 20.453125 45.75 16.34375 40.984375 
Q 12.25 36.234375 12.25 26.859375 
z
" id="ArialMT-103"/>
    <path d="M 40.4375 19 
L 49.078125 17.875 
Q 47.65625 8.9375 41.8125 3.875 
Q 35.984375 -1.171875 27.484375 -1.171875 
Q 16.84375 -1.171875 10.375 5.78125 
Q 3.90625 12.75 3.90625 25.734375 
Q 3.90625 34.125 6.6875 40.421875 
Q 9.46875 46.734375 15.15625 49.875 
Q 20.84375 53.03125 27.546875 53.03125 
Q 35.984375 53.03125 41.359375 48.75 
Q 46.734375 44.484375 48.25 36.625 
L 39.703125 35.296875 
Q 38.484375 40.53125 35.375 43.15625 
Q 32.28125 45.796875 27.875 45.796875 
Q 21.234375 45.796875 17.078125 41.03125 
Q 12.9375 36.28125 12.9375 25.984375 
Q 12.9375 15.53125 16.9375 10.796875 
Q 20.953125 6.0625 27.390625 6.0625 
Q 32.5625 6.0625 36.03125 9.234375 
Q 39.5 12.40625 40.4375 19 
z
" id="ArialMT-99"/>
    <path d="M 6.203125 -19.96875 
L 5.21875 -11.71875 
Q 8.109375 -12.5 10.25 -12.5 
Q 13.1875 -12.5 14.9375 -11.515625 
Q 16.703125 -10.546875 17.828125 -8.796875 
Q 18.65625 -7.46875 20.515625 -2.25 
Q 20.75 -1.515625 21.296875 -0.09375 
L 1.609375 51.859375 
L 11.078125 51.859375 
L 21.875 21.828125 
Q 23.96875 16.109375 25.640625 9.8125 
Q 27.15625 15.875 29.25 21.625 
L 40.328125 51.859375 
L 49.125 51.859375 
L 29.390625 -0.875 
Q 26.21875 -9.421875 24.46875 -12.640625 
Q 22.125 -17 19.09375 -19.015625 
Q 16.0625 -21.046875 11.859375 -21.046875 
Q 9.328125 -21.046875 6.203125 -19.96875 
z
" id="ArialMT-121"/>
   </defs>
   <g style="fill:#262626;" transform="translate(120.921562 16.545)scale(0.12 -0.12)">
    <use xlink:href="#ArialMT-72"/>
    <use x="72.216797" xlink:href="#ArialMT-111"/>
    <use x="127.832031" xlink:href="#ArialMT-114"/>
    <use x="161.132812" xlink:href="#ArialMT-105"/>
    <use x="183.349609" xlink:href="#ArialMT-122"/>
    <use x="233.349609" xlink:href="#ArialMT-111"/>
    <use x="288.964844" xlink:href="#ArialMT-110"/>
    <use x="344.580078" xlink:href="#ArialMT-58"/>
    <use x="372.363281" xlink:href="#ArialMT-32"/>
    <use x="400.146484" xlink:href="#ArialMT-53"/>
    <use x="455.761719" xlink:href="#ArialMT-46"/>
    <use x="483.544922" xlink:href="#ArialMT-48"/>
    <use x="539.160156" xlink:href="#ArialMT-104"/>
    <use x="594.775391" xlink:href="#ArialMT-44"/>
    <use x="622.558594" xlink:href="#ArialMT-32"/>
    <use x="650.326172" xlink:href="#ArialMT-84"/>
    <use x="711.363281" xlink:href="#ArialMT-105"/>
    <use x="733.580078" xlink:href="#ArialMT-109"/>
    <use x="816.880859" xlink:href="#ArialMT-101"/>
    <use x="872.496094" xlink:href="#ArialMT-32"/>
    <use x="900.279297" xlink:href="#ArialMT-115"/>
    <use x="950.279297" xlink:href="#ArialMT-116"/>
    <use x="978.0625" xlink:href="#ArialMT-101"/>
    <use x="1033.677734" xlink:href="#ArialMT-112"/>
    <use x="1089.292969" xlink:href="#ArialMT-58"/>
    <use x="1117.076172" xlink:href="#ArialMT-32"/>
    <use x="1144.859375" xlink:href="#ArialMT-54"/>
    <use x="1200.474609" xlink:href="#ArialMT-48"/>
    <use x="1256.089844" xlink:href="#ArialMT-44"/>
    <use x="1283.873047" xlink:href="#ArialMT-32"/>
    <use x="1311.65625" xlink:href="#ArialMT-78"/>
    <use x="1383.873047" xlink:href="#ArialMT-101"/>
    <use x="1439.488281" xlink:href="#ArialMT-105"/>
    <use x="1461.705078" xlink:href="#ArialMT-103"/>
    <use x="1517.320312" xlink:href="#ArialMT-104"/>
    <use x="1572.935547" xlink:href="#ArialMT-98"/>
    <use x="1628.550781" xlink:href="#ArialMT-111"/>
    <use x="1684.166016" xlink:href="#ArialMT-117"/>
    <use x="1739.78125" xlink:href="#ArialMT-114"/>
    <use x="1773.082031" xlink:href="#ArialMT-104"/>
    <use x="1828.697266" xlink:href="#ArialMT-111"/>
    <use x="1884.3125" xlink:href="#ArialMT-111"/>
    <use x="1939.927734" xlink:href="#ArialMT-100"/>
    <use x="1995.542969" xlink:href="#ArialMT-115"/>
    <use x="2045.542969" xlink:href="#ArialMT-58"/>
    <use x="2073.326172" xlink:href="#ArialMT-32"/>
    <use x="2101.109375" xlink:href="#ArialMT-51"/>
    <use x="2156.724609" xlink:href="#ArialMT-44"/>
    <use x="2184.507812" xlink:href="#ArialMT-32"/>
    <use x="2212.291016" xlink:href="#ArialMT-99"/>
    <use x="2262.291016" xlink:href="#ArialMT-97"/>
    <use x="2317.90625" xlink:href="#ArialMT-115"/>
    <use x="2367.90625" xlink:href="#ArialMT-101"/>
    <use x="2423.521484" xlink:href="#ArialMT-58"/>
    <use x="2451.304688" xlink:href="#ArialMT-32"/>
    <use x="2479.087891" xlink:href="#ArialMT-101"/>
    <use x="2534.703125" xlink:href="#ArialMT-110"/>
    <use x="2590.318359" xlink:href="#ArialMT-101"/>
    <use x="2645.933594" xlink:href="#ArialMT-114"/>
    <use x="2679.234375" xlink:href="#ArialMT-103"/>
    <use x="2734.849609" xlink:href="#ArialMT-121"/>
   </g>
  </g>
 </g>
 <defs>
  <clipPath id="p9daca33e87">
   <rect height="138.6" width="446.4" x="72" y="47.52"/>
  </clipPath>
  <clipPath id="pba34583c8f">
   <rect height="138.6" width="446.4" x="72" y="213.84"/>
  </clipPath>
 </defs>
</svg>
