<?xml version="1.0" encoding="utf-8" standalone="no"?>
<!DOCTYPE svg PUBLIC "-//W3C//DTD SVG 1.1//EN"
  "http://www.w3.org/Graphics/SVG/1.1/DTD/svg11.dtd">
<!-- Created with matplotlib (https://matplotlib.org/) -->
<svg height="396pt" version="1.1" viewBox="0 0 576 396" width="576pt" xmlns="http://www.w3.org/2000/svg" xmlns:xlink="http://www.w3.org/1999/xlink">
 <defs>
  <style type="text/css">
*{stroke-linecap:butt;stroke-linejoin:round;}
  </style>
 </defs>
 <g id="figure_1">
  <g id="patch_1">
   <path d="M 0 396 
L 576 396 
L 576 0 
L 0 0 
z
" style="fill:#ffffff;"/>
  </g>
  <g id="axes_1">
   <g id="patch_2">
    <path d="M 72 137.202353 
L 518.4 137.202353 
L 518.4 47.52 
L 72 47.52 
z
" style="fill:#eaeaf2;"/>
   </g>
   <g id="matplotlib.axis_1">
    <g id="xtick_1">
     <g id="line2d_1">
      <path clip-path="url(#p56086bd168)" d="M 92.290909 137.202353 
L 92.290909 47.52 
" style="fill:none;stroke:#ffffff;stroke-linecap:round;"/>
     </g>
     <g id="line2d_2"/>
    </g>
    <g id="xtick_2">
     <g id="line2d_3">
      <path clip-path="url(#p56086bd168)" d="M 173.725996 137.202353 
L 173.725996 47.52 
" style="fill:none;stroke:#ffffff;stroke-linecap:round;"/>
     </g>
     <g id="line2d_4"/>
    </g>
    <g id="xtick_3">
     <g id="line2d_5">
      <path clip-path="url(#p56086bd168)" d="M 255.161083 137.202353 
L 255.161083 47.52 
" style="fill:none;stroke:#ffffff;stroke-linecap:round;"/>
     </g>
     <g id="line2d_6"/>
    </g>
    <g id="xtick_4">
     <g id="line2d_7">
      <path clip-path="url(#p56086bd168)" d="M 336.596169 137.202353 
L 336.596169 47.52 
" style="fill:none;stroke:#ffffff;stroke-linecap:round;"/>
     </g>
     <g id="line2d_8"/>
    </g>
    <g id="xtick_5">
     <g id="line2d_9">
      <path clip-path="url(#p56086bd168)" d="M 418.031256 137.202353 
L 418.031256 47.52 
" style="fill:none;stroke:#ffffff;stroke-linecap:round;"/>
     </g>
     <g id="line2d_10"/>
    </g>
    <g id="xtick_6">
     <g id="line2d_11">
      <path clip-path="url(#p56086bd168)" d="M 499.466342 137.202353 
L 499.466342 47.52 
" style="fill:none;stroke:#ffffff;stroke-linecap:round;"/>
     </g>
     <g id="line2d_12"/>
    </g>
   </g>
   <g id="matplotlib.axis_2">
    <g id="ytick_1">
     <g id="line2d_13">
      <path clip-path="url(#p56086bd168)" d="M 72 133.945085 
L 518.4 133.945085 
" style="fill:none;stroke:#ffffff;stroke-linecap:round;"/>
     </g>
     <g id="line2d_14"/>
     <g id="text_1">
      <!-- 0 -->
      <defs>
       <path d="M 4.15625 35.296875 
Q 4.15625 48 6.765625 55.734375 
Q 9.375 63.484375 14.515625 67.671875 
Q 19.671875 71.875 27.484375 71.875 
Q 33.25 71.875 37.59375 69.546875 
Q 41.9375 67.234375 44.765625 62.859375 
Q 47.609375 58.5 49.21875 52.21875 
Q 50.828125 45.953125 50.828125 35.296875 
Q 50.828125 22.703125 48.234375 14.96875 
Q 45.65625 7.234375 40.5 3 
Q 35.359375 -1.21875 27.484375 -1.21875 
Q 17.140625 -1.21875 11.234375 6.203125 
Q 4.15625 15.140625 4.15625 35.296875 
z
M 13.1875 35.296875 
Q 13.1875 17.671875 17.3125 11.828125 
Q 21.4375 6 27.484375 6 
Q 33.546875 6 37.671875 11.859375 
Q 41.796875 17.71875 41.796875 35.296875 
Q 41.796875 52.984375 37.671875 58.78125 
Q 33.546875 64.59375 27.390625 64.59375 
Q 21.34375 64.59375 17.71875 59.46875 
Q 13.1875 52.9375 13.1875 35.296875 
z
" id="ArialMT-48"/>
      </defs>
      <g style="fill:#262626;" transform="translate(59.439062 137.523992)scale(0.1 -0.1)">
       <use xlink:href="#ArialMT-48"/>
      </g>
     </g>
    </g>
    <g id="ytick_2">
     <g id="line2d_15">
      <path clip-path="url(#p56086bd168)" d="M 72 105.650535 
L 518.4 105.650535 
" style="fill:none;stroke:#ffffff;stroke-linecap:round;"/>
     </g>
     <g id="line2d_16"/>
     <g id="text_2">
      <!-- 1 -->
      <defs>
       <path d="M 37.25 0 
L 28.46875 0 
L 28.46875 56 
Q 25.296875 52.984375 20.140625 49.953125 
Q 14.984375 46.921875 10.890625 45.40625 
L 10.890625 53.90625 
Q 18.265625 57.375 23.78125 62.296875 
Q 29.296875 67.234375 31.59375 71.875 
L 37.25 71.875 
z
" id="ArialMT-49"/>
      </defs>
      <g style="fill:#262626;" transform="translate(59.439062 109.229441)scale(0.1 -0.1)">
       <use xlink:href="#ArialMT-49"/>
      </g>
     </g>
    </g>
    <g id="ytick_3">
     <g id="line2d_17">
      <path clip-path="url(#p56086bd168)" d="M 72 77.355984 
L 518.4 77.355984 
" style="fill:none;stroke:#ffffff;stroke-linecap:round;"/>
     </g>
     <g id="line2d_18"/>
     <g id="text_3">
      <!-- 2 -->
      <defs>
       <path d="M 50.34375 8.453125 
L 50.34375 0 
L 3.03125 0 
Q 2.9375 3.171875 4.046875 6.109375 
Q 5.859375 10.9375 9.828125 15.625 
Q 13.8125 20.3125 21.34375 26.46875 
Q 33.015625 36.03125 37.109375 41.625 
Q 41.21875 47.21875 41.21875 52.203125 
Q 41.21875 57.421875 37.46875 61 
Q 33.734375 64.59375 27.734375 64.59375 
Q 21.390625 64.59375 17.578125 60.78125 
Q 13.765625 56.984375 13.71875 50.25 
L 4.6875 51.171875 
Q 5.609375 61.28125 11.65625 66.578125 
Q 17.71875 71.875 27.9375 71.875 
Q 38.234375 71.875 44.234375 66.15625 
Q 50.25 60.453125 50.25 52 
Q 50.25 47.703125 48.484375 43.546875 
Q 46.734375 39.40625 42.65625 34.8125 
Q 38.578125 30.21875 29.109375 22.21875 
Q 21.1875 15.578125 18.9375 13.203125 
Q 16.703125 10.84375 15.234375 8.453125 
z
" id="ArialMT-50"/>
      </defs>
      <g style="fill:#262626;" transform="translate(59.439062 80.93489)scale(0.1 -0.1)">
       <use xlink:href="#ArialMT-50"/>
      </g>
     </g>
    </g>
    <g id="ytick_4">
     <g id="line2d_19">
      <path clip-path="url(#p56086bd168)" d="M 72 49.061433 
L 518.4 49.061433 
" style="fill:none;stroke:#ffffff;stroke-linecap:round;"/>
     </g>
     <g id="line2d_20"/>
     <g id="text_4">
      <!-- 3 -->
      <defs>
       <path d="M 4.203125 18.890625 
L 12.984375 20.0625 
Q 14.5 12.59375 18.140625 9.296875 
Q 21.78125 6 27 6 
Q 33.203125 6 37.46875 10.296875 
Q 41.75 14.59375 41.75 20.953125 
Q 41.75 27 37.796875 30.921875 
Q 33.84375 34.859375 27.734375 34.859375 
Q 25.25 34.859375 21.53125 33.890625 
L 22.515625 41.609375 
Q 23.390625 41.5 23.921875 41.5 
Q 29.546875 41.5 34.03125 44.421875 
Q 38.53125 47.359375 38.53125 53.46875 
Q 38.53125 58.296875 35.25 61.46875 
Q 31.984375 64.65625 26.8125 64.65625 
Q 21.6875 64.65625 18.265625 61.421875 
Q 14.84375 58.203125 13.875 51.765625 
L 5.078125 53.328125 
Q 6.6875 62.15625 12.390625 67.015625 
Q 18.109375 71.875 26.609375 71.875 
Q 32.46875 71.875 37.390625 69.359375 
Q 42.328125 66.84375 44.9375 62.5 
Q 47.5625 58.15625 47.5625 53.265625 
Q 47.5625 48.640625 45.0625 44.828125 
Q 42.578125 41.015625 37.703125 38.765625 
Q 44.046875 37.3125 47.5625 32.6875 
Q 51.078125 28.078125 51.078125 21.140625 
Q 51.078125 11.765625 44.234375 5.25 
Q 37.40625 -1.265625 26.953125 -1.265625 
Q 17.53125 -1.265625 11.296875 4.34375 
Q 5.078125 9.96875 4.203125 18.890625 
z
" id="ArialMT-51"/>
      </defs>
      <g style="fill:#262626;" transform="translate(59.439062 52.64034)scale(0.1 -0.1)">
       <use xlink:href="#ArialMT-51"/>
      </g>
     </g>
    </g>
    <g id="text_5">
     <!-- 1e7 -->
     <defs>
      <path d="M 42.09375 16.703125 
L 51.171875 15.578125 
Q 49.03125 7.625 43.21875 3.21875 
Q 37.40625 -1.171875 28.375 -1.171875 
Q 17 -1.171875 10.328125 5.828125 
Q 3.65625 12.84375 3.65625 25.484375 
Q 3.65625 38.578125 10.390625 45.796875 
Q 17.140625 53.03125 27.875 53.03125 
Q 38.28125 53.03125 44.875 45.953125 
Q 51.46875 38.875 51.46875 26.03125 
Q 51.46875 25.25 51.421875 23.6875 
L 12.75 23.6875 
Q 13.234375 15.140625 17.578125 10.59375 
Q 21.921875 6.0625 28.421875 6.0625 
Q 33.25 6.0625 36.671875 8.59375 
Q 40.09375 11.140625 42.09375 16.703125 
z
M 13.234375 30.90625 
L 42.1875 30.90625 
Q 41.609375 37.453125 38.875 40.71875 
Q 34.671875 45.796875 27.984375 45.796875 
Q 21.921875 45.796875 17.796875 41.75 
Q 13.671875 37.703125 13.234375 30.90625 
z
" id="ArialMT-101"/>
      <path d="M 4.734375 62.203125 
L 4.734375 70.65625 
L 51.078125 70.65625 
L 51.078125 63.8125 
Q 44.234375 56.546875 37.515625 44.484375 
Q 30.8125 32.421875 27.15625 19.671875 
Q 24.515625 10.6875 23.78125 0 
L 14.75 0 
Q 14.890625 8.453125 18.0625 20.40625 
Q 21.234375 32.375 27.171875 43.484375 
Q 33.109375 54.59375 39.796875 62.203125 
z
" id="ArialMT-55"/>
     </defs>
     <g style="fill:#262626;" transform="translate(72 44.52)scale(0.1 -0.1)">
      <use xlink:href="#ArialMT-49"/>
      <use x="55.615234" xlink:href="#ArialMT-101"/>
      <use x="111.230469" xlink:href="#ArialMT-55"/>
     </g>
    </g>
   </g>
   <g id="line2d_21">
    <path clip-path="url(#p56086bd168)" d="M 92.290909 79.132497 
L 93.64816 51.711432 
L 105.863424 51.596471 
L 107.220675 79.036865 
L 111.292429 79.080119 
L 112.649681 81.184366 
L 116.721435 81.440578 
L 119.435938 81.77006 
L 122.150441 82.255733 
L 126.222195 83.27325 
L 131.651201 84.987602 
L 133.008453 86.483486 
L 138.437458 88.079731 
L 142.509212 89.031121 
L 146.580967 89.686575 
L 150.652721 90.016675 
L 152.009973 90.053799 
L 153.367224 93.318107 
L 157.438978 93.1609 
L 161.510733 92.777077 
L 165.582487 92.197402 
L 171.011493 91.189582 
L 172.368744 90.907412 
L 173.725996 91.459813 
L 190.013013 88.154304 
L 192.727516 87.706257 
L 194.084768 89.289379 
L 200.871025 88.489201 
L 207.657282 87.946248 
L 213.086288 87.669737 
L 214.443539 89.256591 
L 223.944299 89.075693 
L 233.445059 89.0804 
L 234.802311 90.824817 
L 256.518334 91.098739 
L 274.162603 91.2558 
L 275.519854 92.510802 
L 294.521374 92.536615 
L 295.878626 94.600232 
L 314.880146 94.568975 
L 316.237397 96.007368 
L 333.881666 95.964929 
L 335.238918 81.188499 
L 336.596169 77.235298 
L 347.454181 77.187048 
L 348.811432 95.782131 
L 355.597689 95.754938 
L 356.954941 96.058156 
L 367.812952 96.148267 
L 374.59921 96.459888 
L 375.956461 96.558883 
L 377.313712 96.11853 
L 382.742718 96.711348 
L 396.315233 98.548268 
L 397.672484 112.607902 
L 411.244999 113.096392 
L 416.674004 113.211486 
L 418.031256 111.199229 
L 427.532016 111.259647 
L 437.032776 111.121544 
L 438.390028 109.364049 
L 449.248039 108.917481 
L 457.391548 108.477888 
L 458.748799 106.811893 
L 477.750319 105.570928 
L 479.107571 101.497006 
L 491.322834 100.662805 
L 498.109091 100.310539 
L 498.109091 100.310539 
" style="fill:none;stroke:#1f77b4;stroke-linecap:round;stroke-width:1.75;"/>
   </g>
   <g id="line2d_22">
    <path clip-path="url(#p56086bd168)" d="M 92.290909 78.610592 
L 111.292429 78.610592 
L 112.649681 80.610203 
L 131.651201 80.610203 
L 133.008453 81.714019 
L 152.009973 81.714019 
L 153.367224 85.440846 
L 172.368744 85.440846 
L 173.725996 86.341399 
L 192.727516 86.341399 
L 194.084768 88.082688 
L 213.086288 88.082688 
L 214.443539 89.608852 
L 233.445059 89.608852 
L 234.802311 91.249092 
L 274.162603 91.267477 
L 275.519854 92.514384 
L 294.521374 92.514384 
L 295.878626 94.476073 
L 314.880146 94.476073 
L 316.237397 95.858275 
L 335.238918 95.858275 
L 336.596169 95.732587 
L 355.597689 95.732587 
L 356.954941 96.037851 
L 375.956461 96.037851 
L 377.313712 95.506509 
L 396.315233 95.506509 
L 397.672484 110.262564 
L 416.674004 110.262564 
L 418.031256 108.019088 
L 437.032776 108.019088 
L 438.390028 106.150376 
L 457.391548 106.150376 
L 458.748799 104.50176 
L 477.750319 104.50176 
L 479.107571 100.561095 
L 498.109091 100.561095 
L 498.109091 100.561095 
" style="fill:none;stroke:#000000;stroke-dasharray:1.75,2.8875;stroke-dashoffset:0;stroke-width:1.75;"/>
   </g>
   <g id="line2d_23">
    <path clip-path="url(#p56086bd168)" d="M 92.290909 93.012105 
L 111.292429 93.012105 
L 112.649681 93.569736 
L 131.651201 93.569736 
L 133.008453 94.528089 
L 152.009973 94.528089 
L 153.367224 97.22069 
L 172.368744 97.22069 
L 173.725996 97.935565 
L 192.727516 97.935565 
L 194.084768 98.941119 
L 213.086288 98.941119 
L 214.443539 100.131604 
L 233.445059 100.131604 
L 234.802311 101.101623 
L 274.162603 101.151239 
L 275.519854 101.329657 
L 294.521374 101.329657 
L 295.878626 102.713622 
L 314.880146 102.713622 
L 316.237397 103.825247 
L 335.238918 103.825247 
L 336.596169 103.705648 
L 355.597689 103.705648 
L 356.954941 103.929862 
L 375.956461 103.929862 
L 377.313712 103.357579 
L 396.315233 103.357579 
L 397.672484 114.848726 
L 416.674004 114.848726 
L 418.031256 113.366445 
L 437.032776 113.366445 
L 438.390028 111.88901 
L 457.391548 111.88901 
L 458.748799 110.575605 
L 477.750319 110.575605 
L 479.107571 107.67058 
L 498.109091 107.67058 
L 498.109091 107.67058 
" style="fill:none;stroke:#ff7f0e;stroke-linecap:round;stroke-width:1.75;"/>
   </g>
   <g id="line2d_24">
    <path clip-path="url(#p56086bd168)" d="M 92.290909 124.540067 
L 111.292429 124.540067 
L 112.649681 125.485335 
L 152.009973 125.541225 
L 153.367224 126.286904 
L 172.368744 126.286904 
L 173.725996 126.469485 
L 192.727516 126.469485 
L 194.084768 126.825113 
L 213.086288 126.825113 
L 214.443539 127.138807 
L 233.445059 127.138807 
L 234.802311 127.44577 
L 253.803831 127.44577 
L 255.161083 127.58127 
L 274.162603 127.58127 
L 275.519854 128.150792 
L 294.521374 128.150792 
L 295.878626 128.608906 
L 396.315233 128.629422 
L 397.672484 130.178127 
L 416.674004 130.178127 
L 418.031256 129.62765 
L 457.391548 129.530385 
L 458.748799 129.378731 
L 477.750319 129.378731 
L 479.107571 128.514339 
L 498.109091 128.514339 
L 498.109091 128.514339 
" style="fill:none;stroke:#2ca02c;stroke-linecap:round;stroke-width:1.75;"/>
   </g>
   <g id="line2d_25">
    <path clip-path="url(#p56086bd168)" d="M 92.290909 128.94859 
L 111.292429 128.94859 
L 112.649681 129.445303 
L 152.009973 129.534875 
L 153.367224 129.823423 
L 192.727516 129.826521 
L 194.084768 130.206628 
L 233.445059 130.228612 
L 234.802311 130.59187 
L 253.803831 130.59187 
L 255.161083 130.42514 
L 274.162603 130.42514 
L 275.519854 130.924106 
L 294.521374 130.924106 
L 295.878626 131.043716 
L 314.880146 131.043716 
L 316.237397 131.308508 
L 355.597689 131.243228 
L 356.954941 131.448819 
L 396.315233 131.409679 
L 397.672484 133.125882 
L 416.674004 133.125882 
L 418.031256 132.915164 
L 437.032776 132.915164 
L 438.390028 132.621151 
L 457.391548 132.621151 
L 458.748799 132.437595 
L 477.750319 132.437595 
L 479.107571 132.266347 
L 498.109091 132.266347 
L 498.109091 132.266347 
" style="fill:none;stroke:#d62728;stroke-linecap:round;stroke-width:1.75;"/>
   </g>
   <g id="line2d_26">
    <path clip-path="url(#p56086bd168)" d="M 72 133.945085 
L 518.4 133.945085 
" style="fill:none;stroke:#000000;stroke-dasharray:2,3.3;stroke-dashoffset:0;stroke-width:2;"/>
   </g>
   <g id="patch_3">
    <path d="M 72 137.202353 
L 72 47.52 
" style="fill:none;"/>
   </g>
   <g id="patch_4">
    <path d="M 518.4 137.202353 
L 518.4 47.52 
" style="fill:none;"/>
   </g>
   <g id="patch_5">
    <path d="M 72 137.202353 
L 518.4 137.202353 
" style="fill:none;"/>
   </g>
   <g id="patch_6">
    <path d="M 72 47.52 
L 518.4 47.52 
" style="fill:none;"/>
   </g>
   <g id="text_6">
    <!-- Heat flows [W] -->
    <defs>
     <path d="M 8.015625 0 
L 8.015625 71.578125 
L 17.484375 71.578125 
L 17.484375 42.1875 
L 54.6875 42.1875 
L 54.6875 71.578125 
L 64.15625 71.578125 
L 64.15625 0 
L 54.6875 0 
L 54.6875 33.734375 
L 17.484375 33.734375 
L 17.484375 0 
z
" id="ArialMT-72"/>
     <path d="M 40.4375 6.390625 
Q 35.546875 2.25 31.03125 0.53125 
Q 26.515625 -1.171875 21.34375 -1.171875 
Q 12.796875 -1.171875 8.203125 3 
Q 3.609375 7.171875 3.609375 13.671875 
Q 3.609375 17.484375 5.34375 20.625 
Q 7.078125 23.78125 9.890625 25.6875 
Q 12.703125 27.59375 16.21875 28.5625 
Q 18.796875 29.25 24.03125 29.890625 
Q 34.671875 31.15625 39.703125 32.90625 
Q 39.75 34.71875 39.75 35.203125 
Q 39.75 40.578125 37.25 42.78125 
Q 33.890625 45.75 27.25 45.75 
Q 21.046875 45.75 18.09375 43.578125 
Q 15.140625 41.40625 13.71875 35.890625 
L 5.125 37.0625 
Q 6.296875 42.578125 8.984375 45.96875 
Q 11.671875 49.359375 16.75 51.1875 
Q 21.828125 53.03125 28.515625 53.03125 
Q 35.15625 53.03125 39.296875 51.46875 
Q 43.453125 49.90625 45.40625 47.53125 
Q 47.359375 45.171875 48.140625 41.546875 
Q 48.578125 39.3125 48.578125 33.453125 
L 48.578125 21.734375 
Q 48.578125 9.46875 49.140625 6.21875 
Q 49.703125 2.984375 51.375 0 
L 42.1875 0 
Q 40.828125 2.734375 40.4375 6.390625 
z
M 39.703125 26.03125 
Q 34.90625 24.078125 25.34375 22.703125 
Q 19.921875 21.921875 17.671875 20.9375 
Q 15.4375 19.96875 14.203125 18.09375 
Q 12.984375 16.21875 12.984375 13.921875 
Q 12.984375 10.40625 15.640625 8.0625 
Q 18.3125 5.71875 23.4375 5.71875 
Q 28.515625 5.71875 32.46875 7.9375 
Q 36.421875 10.15625 38.28125 14.015625 
Q 39.703125 17 39.703125 22.796875 
z
" id="ArialMT-97"/>
     <path d="M 25.78125 7.859375 
L 27.046875 0.09375 
Q 23.34375 -0.6875 20.40625 -0.6875 
Q 15.625 -0.6875 12.984375 0.828125 
Q 10.359375 2.34375 9.28125 4.8125 
Q 8.203125 7.28125 8.203125 15.1875 
L 8.203125 45.015625 
L 1.765625 45.015625 
L 1.765625 51.859375 
L 8.203125 51.859375 
L 8.203125 64.703125 
L 16.9375 69.96875 
L 16.9375 51.859375 
L 25.78125 51.859375 
L 25.78125 45.015625 
L 16.9375 45.015625 
L 16.9375 14.703125 
Q 16.9375 10.9375 17.40625 9.859375 
Q 17.875 8.796875 18.921875 8.15625 
Q 19.96875 7.515625 21.921875 7.515625 
Q 23.390625 7.515625 25.78125 7.859375 
z
" id="ArialMT-116"/>
     <path id="ArialMT-32"/>
     <path d="M 8.6875 0 
L 8.6875 45.015625 
L 0.921875 45.015625 
L 0.921875 51.859375 
L 8.6875 51.859375 
L 8.6875 57.375 
Q 8.6875 62.59375 9.625 65.140625 
Q 10.890625 68.5625 14.078125 70.671875 
Q 17.28125 72.796875 23.046875 72.796875 
Q 26.765625 72.796875 31.25 71.921875 
L 29.9375 64.265625 
Q 27.203125 64.75 24.75 64.75 
Q 20.75 64.75 19.09375 63.03125 
Q 17.4375 61.328125 17.4375 56.640625 
L 17.4375 51.859375 
L 27.546875 51.859375 
L 27.546875 45.015625 
L 17.4375 45.015625 
L 17.4375 0 
z
" id="ArialMT-102"/>
     <path d="M 6.390625 0 
L 6.390625 71.578125 
L 15.1875 71.578125 
L 15.1875 0 
z
" id="ArialMT-108"/>
     <path d="M 3.328125 25.921875 
Q 3.328125 40.328125 11.328125 47.265625 
Q 18.015625 53.03125 27.640625 53.03125 
Q 38.328125 53.03125 45.109375 46.015625 
Q 51.90625 39.015625 51.90625 26.65625 
Q 51.90625 16.65625 48.90625 10.90625 
Q 45.90625 5.171875 40.15625 2 
Q 34.421875 -1.171875 27.640625 -1.171875 
Q 16.75 -1.171875 10.03125 5.8125 
Q 3.328125 12.796875 3.328125 25.921875 
z
M 12.359375 25.921875 
Q 12.359375 15.96875 16.703125 11.015625 
Q 21.046875 6.0625 27.640625 6.0625 
Q 34.1875 6.0625 38.53125 11.03125 
Q 42.875 16.015625 42.875 26.21875 
Q 42.875 35.84375 38.5 40.796875 
Q 34.125 45.75 27.640625 45.75 
Q 21.046875 45.75 16.703125 40.8125 
Q 12.359375 35.890625 12.359375 25.921875 
z
" id="ArialMT-111"/>
     <path d="M 16.15625 0 
L 0.296875 51.859375 
L 9.375 51.859375 
L 17.625 21.921875 
L 20.703125 10.796875 
Q 20.90625 11.625 23.390625 21.484375 
L 31.640625 51.859375 
L 40.671875 51.859375 
L 48.4375 21.78125 
L 51.03125 11.859375 
L 54 21.875 
L 62.890625 51.859375 
L 71.4375 51.859375 
L 55.21875 0 
L 46.09375 0 
L 37.84375 31.0625 
L 35.84375 39.890625 
L 25.34375 0 
z
" id="ArialMT-119"/>
     <path d="M 3.078125 15.484375 
L 11.765625 16.84375 
Q 12.5 11.625 15.84375 8.84375 
Q 19.1875 6.0625 25.203125 6.0625 
Q 31.25 6.0625 34.171875 8.515625 
Q 37.109375 10.984375 37.109375 14.3125 
Q 37.109375 17.28125 34.515625 19 
Q 32.71875 20.171875 25.53125 21.96875 
Q 15.875 24.421875 12.140625 26.203125 
Q 8.40625 27.984375 6.46875 31.125 
Q 4.546875 34.28125 4.546875 38.09375 
Q 4.546875 41.546875 6.125 44.5 
Q 7.71875 47.46875 10.453125 49.421875 
Q 12.5 50.921875 16.03125 51.96875 
Q 19.578125 53.03125 23.640625 53.03125 
Q 29.734375 53.03125 34.34375 51.265625 
Q 38.96875 49.515625 41.15625 46.5 
Q 43.359375 43.5 44.1875 38.484375 
L 35.59375 37.3125 
Q 35.015625 41.3125 32.203125 43.546875 
Q 29.390625 45.796875 24.265625 45.796875 
Q 18.21875 45.796875 15.625 43.796875 
Q 13.03125 41.796875 13.03125 39.109375 
Q 13.03125 37.40625 14.109375 36.03125 
Q 15.1875 34.625 17.484375 33.6875 
Q 18.796875 33.203125 25.25 31.453125 
Q 34.578125 28.953125 38.25 27.359375 
Q 41.9375 25.78125 44.03125 22.75 
Q 46.140625 19.734375 46.140625 15.234375 
Q 46.140625 10.84375 43.578125 6.953125 
Q 41.015625 3.078125 36.171875 0.953125 
Q 31.34375 -1.171875 25.25 -1.171875 
Q 15.140625 -1.171875 9.84375 3.03125 
Q 4.546875 7.234375 3.078125 15.484375 
z
" id="ArialMT-115"/>
     <path d="M 6.78125 -19.875 
L 6.78125 71.578125 
L 26.171875 71.578125 
L 26.171875 64.3125 
L 15.578125 64.3125 
L 15.578125 -12.59375 
L 26.171875 -12.59375 
L 26.171875 -19.875 
z
" id="ArialMT-91"/>
     <path d="M 20.21875 0 
L 1.21875 71.578125 
L 10.9375 71.578125 
L 21.828125 24.65625 
Q 23.578125 17.28125 24.859375 10.015625 
Q 27.59375 21.484375 28.078125 23.25 
L 41.703125 71.578125 
L 53.125 71.578125 
L 63.375 35.359375 
Q 67.234375 21.875 68.953125 10.015625 
Q 70.3125 16.796875 72.515625 25.59375 
L 83.734375 71.578125 
L 93.265625 71.578125 
L 73.640625 0 
L 64.5 0 
L 49.421875 54.546875 
Q 47.515625 61.375 47.171875 62.9375 
Q 46.046875 58.015625 45.0625 54.546875 
L 29.890625 0 
z
" id="ArialMT-87"/>
     <path d="M 21.296875 -19.875 
L 1.90625 -19.875 
L 1.90625 -12.59375 
L 12.5 -12.59375 
L 12.5 64.3125 
L 1.90625 64.3125 
L 1.90625 71.578125 
L 21.296875 71.578125 
z
" id="ArialMT-93"/>
    </defs>
    <g style="fill:#262626;" transform="translate(256.52625 41.52)scale(0.12 -0.12)">
     <use xlink:href="#ArialMT-72"/>
     <use x="72.216797" xlink:href="#ArialMT-101"/>
     <use x="127.832031" xlink:href="#ArialMT-97"/>
     <use x="183.447266" xlink:href="#ArialMT-116"/>
     <use x="211.230469" xlink:href="#ArialMT-32"/>
     <use x="239.013672" xlink:href="#ArialMT-102"/>
     <use x="266.796875" xlink:href="#ArialMT-108"/>
     <use x="289.013672" xlink:href="#ArialMT-111"/>
     <use x="344.628906" xlink:href="#ArialMT-119"/>
     <use x="416.845703" xlink:href="#ArialMT-115"/>
     <use x="466.845703" xlink:href="#ArialMT-32"/>
     <use x="494.628906" xlink:href="#ArialMT-91"/>
     <use x="522.412109" xlink:href="#ArialMT-87"/>
     <use x="616.796875" xlink:href="#ArialMT-93"/>
    </g>
   </g>
   <g id="legend_1">
    <g id="line2d_27">
     <path d="M 398.040625 60.177812 
L 418.040625 60.177812 
" style="fill:none;stroke:#1f77b4;stroke-linecap:round;stroke-width:1.75;"/>
    </g>
    <g id="line2d_28"/>
    <g id="text_7">
     <!-- Producer -->
     <defs>
      <path d="M 7.71875 0 
L 7.71875 71.578125 
L 34.71875 71.578125 
Q 41.84375 71.578125 45.609375 70.90625 
Q 50.875 70.015625 54.4375 67.546875 
Q 58.015625 65.09375 60.1875 60.640625 
Q 62.359375 56.203125 62.359375 50.875 
Q 62.359375 41.75 56.546875 35.421875 
Q 50.734375 29.109375 35.546875 29.109375 
L 17.1875 29.109375 
L 17.1875 0 
z
M 17.1875 37.546875 
L 35.6875 37.546875 
Q 44.875 37.546875 48.734375 40.96875 
Q 52.59375 44.390625 52.59375 50.59375 
Q 52.59375 55.078125 50.3125 58.265625 
Q 48.046875 61.46875 44.34375 62.5 
Q 41.9375 63.140625 35.5 63.140625 
L 17.1875 63.140625 
z
" id="ArialMT-80"/>
      <path d="M 6.5 0 
L 6.5 51.859375 
L 14.40625 51.859375 
L 14.40625 44 
Q 17.4375 49.515625 20 51.265625 
Q 22.5625 53.03125 25.640625 53.03125 
Q 30.078125 53.03125 34.671875 50.203125 
L 31.640625 42.046875 
Q 28.421875 43.953125 25.203125 43.953125 
Q 22.3125 43.953125 20.015625 42.21875 
Q 17.71875 40.484375 16.75 37.40625 
Q 15.28125 32.71875 15.28125 27.15625 
L 15.28125 0 
z
" id="ArialMT-114"/>
      <path d="M 40.234375 0 
L 40.234375 6.546875 
Q 35.296875 -1.171875 25.734375 -1.171875 
Q 19.53125 -1.171875 14.328125 2.25 
Q 9.125 5.671875 6.265625 11.796875 
Q 3.421875 17.921875 3.421875 25.875 
Q 3.421875 33.640625 6 39.96875 
Q 8.59375 46.296875 13.765625 49.65625 
Q 18.953125 53.03125 25.34375 53.03125 
Q 30.03125 53.03125 33.6875 51.046875 
Q 37.359375 49.078125 39.65625 45.90625 
L 39.65625 71.578125 
L 48.390625 71.578125 
L 48.390625 0 
z
M 12.453125 25.875 
Q 12.453125 15.921875 16.640625 10.984375 
Q 20.84375 6.0625 26.5625 6.0625 
Q 32.328125 6.0625 36.34375 10.765625 
Q 40.375 15.484375 40.375 25.140625 
Q 40.375 35.796875 36.265625 40.765625 
Q 32.171875 45.75 26.171875 45.75 
Q 20.3125 45.75 16.375 40.96875 
Q 12.453125 36.1875 12.453125 25.875 
z
" id="ArialMT-100"/>
      <path d="M 40.578125 0 
L 40.578125 7.625 
Q 34.515625 -1.171875 24.125 -1.171875 
Q 19.53125 -1.171875 15.546875 0.578125 
Q 11.578125 2.34375 9.640625 5 
Q 7.71875 7.671875 6.9375 11.53125 
Q 6.390625 14.109375 6.390625 19.734375 
L 6.390625 51.859375 
L 15.1875 51.859375 
L 15.1875 23.09375 
Q 15.1875 16.21875 15.71875 13.8125 
Q 16.546875 10.359375 19.234375 8.375 
Q 21.921875 6.390625 25.875 6.390625 
Q 29.828125 6.390625 33.296875 8.421875 
Q 36.765625 10.453125 38.203125 13.9375 
Q 39.65625 17.4375 39.65625 24.078125 
L 39.65625 51.859375 
L 48.4375 51.859375 
L 48.4375 0 
z
" id="ArialMT-117"/>
      <path d="M 40.4375 19 
L 49.078125 17.875 
Q 47.65625 8.9375 41.8125 3.875 
Q 35.984375 -1.171875 27.484375 -1.171875 
Q 16.84375 -1.171875 10.375 5.78125 
Q 3.90625 12.75 3.90625 25.734375 
Q 3.90625 34.125 6.6875 40.421875 
Q 9.46875 46.734375 15.15625 49.875 
Q 20.84375 53.03125 27.546875 53.03125 
Q 35.984375 53.03125 41.359375 48.75 
Q 46.734375 44.484375 48.25 36.625 
L 39.703125 35.296875 
Q 38.484375 40.53125 35.375 43.15625 
Q 32.28125 45.796875 27.875 45.796875 
Q 21.234375 45.796875 17.078125 41.03125 
Q 12.9375 36.28125 12.9375 25.984375 
Q 12.9375 15.53125 16.9375 10.796875 
Q 20.953125 6.0625 27.390625 6.0625 
Q 32.5625 6.0625 36.03125 9.234375 
Q 39.5 12.40625 40.4375 19 
z
" id="ArialMT-99"/>
     </defs>
     <g style="fill:#262626;" transform="translate(426.040625 63.677812)scale(0.1 -0.1)">
      <use xlink:href="#ArialMT-80"/>
      <use x="66.699219" xlink:href="#ArialMT-114"/>
      <use x="100" xlink:href="#ArialMT-111"/>
      <use x="155.615234" xlink:href="#ArialMT-100"/>
      <use x="211.230469" xlink:href="#ArialMT-117"/>
      <use x="266.845703" xlink:href="#ArialMT-99"/>
      <use x="316.845703" xlink:href="#ArialMT-101"/>
      <use x="372.460938" xlink:href="#ArialMT-114"/>
     </g>
    </g>
    <g id="line2d_29">
     <path d="M 398.040625 74.323125 
L 418.040625 74.323125 
" style="fill:none;stroke:#000000;stroke-dasharray:1.75,2.8875;stroke-dashoffset:0;stroke-width:1.75;"/>
    </g>
    <g id="line2d_30"/>
    <g id="text_8">
     <!-- All users -->
     <defs>
      <path d="M -0.140625 0 
L 27.34375 71.578125 
L 37.546875 71.578125 
L 66.84375 0 
L 56.0625 0 
L 47.703125 21.6875 
L 17.78125 21.6875 
L 9.90625 0 
z
M 20.515625 29.390625 
L 44.78125 29.390625 
L 37.3125 49.21875 
Q 33.890625 58.25 32.234375 64.0625 
Q 30.859375 57.171875 28.375 50.390625 
z
" id="ArialMT-65"/>
     </defs>
     <g style="fill:#262626;" transform="translate(426.040625 77.823125)scale(0.1 -0.1)">
      <use xlink:href="#ArialMT-65"/>
      <use x="66.699219" xlink:href="#ArialMT-108"/>
      <use x="88.916016" xlink:href="#ArialMT-108"/>
      <use x="111.132812" xlink:href="#ArialMT-32"/>
      <use x="138.916016" xlink:href="#ArialMT-117"/>
      <use x="194.53125" xlink:href="#ArialMT-115"/>
      <use x="244.53125" xlink:href="#ArialMT-101"/>
      <use x="300.146484" xlink:href="#ArialMT-114"/>
      <use x="333.447266" xlink:href="#ArialMT-115"/>
     </g>
    </g>
    <g id="line2d_31">
     <path d="M 398.040625 88.468437 
L 418.040625 88.468437 
" style="fill:none;stroke:#ff7f0e;stroke-linecap:round;stroke-width:1.75;"/>
    </g>
    <g id="line2d_32"/>
    <g id="text_9">
     <!-- WaterscheiGarden -->
     <defs>
      <path d="M 6.59375 0 
L 6.59375 71.578125 
L 15.375 71.578125 
L 15.375 45.90625 
Q 21.53125 53.03125 30.90625 53.03125 
Q 36.671875 53.03125 40.921875 50.75 
Q 45.171875 48.484375 47 44.484375 
Q 48.828125 40.484375 48.828125 32.859375 
L 48.828125 0 
L 40.046875 0 
L 40.046875 32.859375 
Q 40.046875 39.453125 37.1875 42.453125 
Q 34.328125 45.453125 29.109375 45.453125 
Q 25.203125 45.453125 21.75 43.421875 
Q 18.3125 41.40625 16.84375 37.9375 
Q 15.375 34.46875 15.375 28.375 
L 15.375 0 
z
" id="ArialMT-104"/>
      <path d="M 6.640625 61.46875 
L 6.640625 71.578125 
L 15.4375 71.578125 
L 15.4375 61.46875 
z
M 6.640625 0 
L 6.640625 51.859375 
L 15.4375 51.859375 
L 15.4375 0 
z
" id="ArialMT-105"/>
      <path d="M 41.21875 28.078125 
L 41.21875 36.46875 
L 71.53125 36.53125 
L 71.53125 9.96875 
Q 64.546875 4.390625 57.125 1.578125 
Q 49.703125 -1.21875 41.890625 -1.21875 
Q 31.34375 -1.21875 22.71875 3.296875 
Q 14.109375 7.8125 9.71875 16.359375 
Q 5.328125 24.90625 5.328125 35.453125 
Q 5.328125 45.90625 9.6875 54.953125 
Q 14.0625 64.015625 22.265625 68.40625 
Q 30.46875 72.796875 41.15625 72.796875 
Q 48.921875 72.796875 55.1875 70.28125 
Q 61.46875 67.78125 65.03125 63.28125 
Q 68.609375 58.796875 70.453125 51.5625 
L 61.921875 49.21875 
Q 60.296875 54.6875 57.90625 57.8125 
Q 55.515625 60.9375 51.0625 62.8125 
Q 46.625 64.703125 41.21875 64.703125 
Q 34.71875 64.703125 29.984375 62.71875 
Q 25.25 60.75 22.34375 57.515625 
Q 19.4375 54.296875 17.828125 50.4375 
Q 15.09375 43.796875 15.09375 36.03125 
Q 15.09375 26.46875 18.390625 20.015625 
Q 21.6875 13.578125 27.984375 10.453125 
Q 34.28125 7.328125 41.359375 7.328125 
Q 47.515625 7.328125 53.375 9.6875 
Q 59.234375 12.0625 62.25 14.75 
L 62.25 28.078125 
z
" id="ArialMT-71"/>
      <path d="M 6.59375 0 
L 6.59375 51.859375 
L 14.5 51.859375 
L 14.5 44.484375 
Q 20.21875 53.03125 31 53.03125 
Q 35.6875 53.03125 39.625 51.34375 
Q 43.5625 49.65625 45.515625 46.921875 
Q 47.46875 44.1875 48.25 40.4375 
Q 48.734375 37.984375 48.734375 31.890625 
L 48.734375 0 
L 39.9375 0 
L 39.9375 31.546875 
Q 39.9375 36.921875 38.90625 39.578125 
Q 37.890625 42.234375 35.28125 43.8125 
Q 32.671875 45.40625 29.15625 45.40625 
Q 23.53125 45.40625 19.453125 41.84375 
Q 15.375 38.28125 15.375 28.328125 
L 15.375 0 
z
" id="ArialMT-110"/>
     </defs>
     <g style="fill:#262626;" transform="translate(426.040625 91.968437)scale(0.1 -0.1)">
      <use xlink:href="#ArialMT-87"/>
      <use x="94.337891" xlink:href="#ArialMT-97"/>
      <use x="149.953125" xlink:href="#ArialMT-116"/>
      <use x="177.736328" xlink:href="#ArialMT-101"/>
      <use x="233.351562" xlink:href="#ArialMT-114"/>
      <use x="266.652344" xlink:href="#ArialMT-115"/>
      <use x="316.652344" xlink:href="#ArialMT-99"/>
      <use x="366.652344" xlink:href="#ArialMT-104"/>
      <use x="422.267578" xlink:href="#ArialMT-101"/>
      <use x="477.882812" xlink:href="#ArialMT-105"/>
      <use x="500.099609" xlink:href="#ArialMT-71"/>
      <use x="577.882812" xlink:href="#ArialMT-97"/>
      <use x="633.498047" xlink:href="#ArialMT-114"/>
      <use x="666.798828" xlink:href="#ArialMT-100"/>
      <use x="722.414062" xlink:href="#ArialMT-101"/>
      <use x="778.029297" xlink:href="#ArialMT-110"/>
     </g>
    </g>
    <g id="line2d_33">
     <path d="M 398.040625 102.61375 
L 418.040625 102.61375 
" style="fill:none;stroke:#2ca02c;stroke-linecap:round;stroke-width:1.75;"/>
    </g>
    <g id="line2d_34"/>
    <g id="text_10">
     <!-- ZwartbergNEast -->
     <defs>
      <path d="M 2 0 
L 2 8.796875 
L 38.671875 54.640625 
Q 42.578125 59.515625 46.09375 63.140625 
L 6.15625 63.140625 
L 6.15625 71.578125 
L 57.421875 71.578125 
L 57.421875 63.140625 
L 17.234375 13.484375 
L 12.890625 8.453125 
L 58.59375 8.453125 
L 58.59375 0 
z
" id="ArialMT-90"/>
      <path d="M 14.703125 0 
L 6.546875 0 
L 6.546875 71.578125 
L 15.328125 71.578125 
L 15.328125 46.046875 
Q 20.90625 53.03125 29.546875 53.03125 
Q 34.328125 53.03125 38.59375 51.09375 
Q 42.875 49.171875 45.625 45.671875 
Q 48.390625 42.1875 49.953125 37.25 
Q 51.515625 32.328125 51.515625 26.703125 
Q 51.515625 13.375 44.921875 6.09375 
Q 38.328125 -1.171875 29.109375 -1.171875 
Q 19.921875 -1.171875 14.703125 6.5 
z
M 14.59375 26.3125 
Q 14.59375 17 17.140625 12.84375 
Q 21.296875 6.0625 28.375 6.0625 
Q 34.125 6.0625 38.328125 11.0625 
Q 42.53125 16.0625 42.53125 25.984375 
Q 42.53125 36.140625 38.5 40.96875 
Q 34.46875 45.796875 28.765625 45.796875 
Q 23 45.796875 18.796875 40.796875 
Q 14.59375 35.796875 14.59375 26.3125 
z
" id="ArialMT-98"/>
      <path d="M 4.984375 -4.296875 
L 13.53125 -5.5625 
Q 14.0625 -9.515625 16.5 -11.328125 
Q 19.78125 -13.765625 25.4375 -13.765625 
Q 31.546875 -13.765625 34.859375 -11.328125 
Q 38.1875 -8.890625 39.359375 -4.5 
Q 40.046875 -1.8125 39.984375 6.78125 
Q 34.234375 0 25.640625 0 
Q 14.9375 0 9.078125 7.71875 
Q 3.21875 15.4375 3.21875 26.21875 
Q 3.21875 33.640625 5.90625 39.90625 
Q 8.59375 46.1875 13.6875 49.609375 
Q 18.796875 53.03125 25.6875 53.03125 
Q 34.859375 53.03125 40.828125 45.609375 
L 40.828125 51.859375 
L 48.921875 51.859375 
L 48.921875 7.03125 
Q 48.921875 -5.078125 46.453125 -10.125 
Q 44 -15.1875 38.640625 -18.109375 
Q 33.296875 -21.046875 25.484375 -21.046875 
Q 16.21875 -21.046875 10.5 -16.875 
Q 4.78125 -12.703125 4.984375 -4.296875 
z
M 12.25 26.859375 
Q 12.25 16.65625 16.296875 11.96875 
Q 20.359375 7.28125 26.46875 7.28125 
Q 32.515625 7.28125 36.609375 11.9375 
Q 40.71875 16.609375 40.71875 26.5625 
Q 40.71875 36.078125 36.5 40.90625 
Q 32.28125 45.75 26.3125 45.75 
Q 20.453125 45.75 16.34375 40.984375 
Q 12.25 36.234375 12.25 26.859375 
z
" id="ArialMT-103"/>
      <path d="M 7.625 0 
L 7.625 71.578125 
L 17.328125 71.578125 
L 54.9375 15.375 
L 54.9375 71.578125 
L 64.015625 71.578125 
L 64.015625 0 
L 54.296875 0 
L 16.703125 56.25 
L 16.703125 0 
z
" id="ArialMT-78"/>
      <path d="M 7.90625 0 
L 7.90625 71.578125 
L 59.671875 71.578125 
L 59.671875 63.140625 
L 17.390625 63.140625 
L 17.390625 41.21875 
L 56.984375 41.21875 
L 56.984375 32.8125 
L 17.390625 32.8125 
L 17.390625 8.453125 
L 61.328125 8.453125 
L 61.328125 0 
z
" id="ArialMT-69"/>
     </defs>
     <g style="fill:#262626;" transform="translate(426.040625 106.11375)scale(0.1 -0.1)">
      <use xlink:href="#ArialMT-90"/>
      <use x="61.083984" xlink:href="#ArialMT-119"/>
      <use x="133.300781" xlink:href="#ArialMT-97"/>
      <use x="188.916016" xlink:href="#ArialMT-114"/>
      <use x="222.216797" xlink:href="#ArialMT-116"/>
      <use x="250" xlink:href="#ArialMT-98"/>
      <use x="305.615234" xlink:href="#ArialMT-101"/>
      <use x="361.230469" xlink:href="#ArialMT-114"/>
      <use x="394.53125" xlink:href="#ArialMT-103"/>
      <use x="450.146484" xlink:href="#ArialMT-78"/>
      <use x="522.363281" xlink:href="#ArialMT-69"/>
      <use x="589.0625" xlink:href="#ArialMT-97"/>
      <use x="644.677734" xlink:href="#ArialMT-115"/>
      <use x="694.677734" xlink:href="#ArialMT-116"/>
     </g>
    </g>
    <g id="line2d_35">
     <path d="M 398.040625 116.87625 
L 418.040625 116.87625 
" style="fill:none;stroke:#d62728;stroke-linecap:round;stroke-width:1.75;"/>
    </g>
    <g id="line2d_36"/>
    <g id="text_11">
     <!-- ZwartbergNWest -->
     <g style="fill:#262626;" transform="translate(426.040625 120.37625)scale(0.1 -0.1)">
      <use xlink:href="#ArialMT-90"/>
      <use x="61.083984" xlink:href="#ArialMT-119"/>
      <use x="133.300781" xlink:href="#ArialMT-97"/>
      <use x="188.916016" xlink:href="#ArialMT-114"/>
      <use x="222.216797" xlink:href="#ArialMT-116"/>
      <use x="250" xlink:href="#ArialMT-98"/>
      <use x="305.615234" xlink:href="#ArialMT-101"/>
      <use x="361.230469" xlink:href="#ArialMT-114"/>
      <use x="394.53125" xlink:href="#ArialMT-103"/>
      <use x="450.146484" xlink:href="#ArialMT-78"/>
      <use x="522.363281" xlink:href="#ArialMT-87"/>
      <use x="616.732422" xlink:href="#ArialMT-101"/>
      <use x="672.347656" xlink:href="#ArialMT-115"/>
      <use x="722.347656" xlink:href="#ArialMT-116"/>
     </g>
    </g>
   </g>
  </g>
  <g id="axes_2">
   <g id="patch_7">
    <path d="M 72 244.821176 
L 518.4 244.821176 
L 518.4 155.138824 
L 72 155.138824 
z
" style="fill:#eaeaf2;"/>
   </g>
   <g id="matplotlib.axis_3">
    <g id="xtick_7">
     <g id="line2d_37">
      <path clip-path="url(#p28298e05a4)" d="M 92.290909 244.821176 
L 92.290909 155.138824 
" style="fill:none;stroke:#ffffff;stroke-linecap:round;"/>
     </g>
     <g id="line2d_38"/>
    </g>
    <g id="xtick_8">
     <g id="line2d_39">
      <path clip-path="url(#p28298e05a4)" d="M 173.725996 244.821176 
L 173.725996 155.138824 
" style="fill:none;stroke:#ffffff;stroke-linecap:round;"/>
     </g>
     <g id="line2d_40"/>
    </g>
    <g id="xtick_9">
     <g id="line2d_41">
      <path clip-path="url(#p28298e05a4)" d="M 255.161083 244.821176 
L 255.161083 155.138824 
" style="fill:none;stroke:#ffffff;stroke-linecap:round;"/>
     </g>
     <g id="line2d_42"/>
    </g>
    <g id="xtick_10">
     <g id="line2d_43">
      <path clip-path="url(#p28298e05a4)" d="M 336.596169 244.821176 
L 336.596169 155.138824 
" style="fill:none;stroke:#ffffff;stroke-linecap:round;"/>
     </g>
     <g id="line2d_44"/>
    </g>
    <g id="xtick_11">
     <g id="line2d_45">
      <path clip-path="url(#p28298e05a4)" d="M 418.031256 244.821176 
L 418.031256 155.138824 
" style="fill:none;stroke:#ffffff;stroke-linecap:round;"/>
     </g>
     <g id="line2d_46"/>
    </g>
    <g id="xtick_12">
     <g id="line2d_47">
      <path clip-path="url(#p28298e05a4)" d="M 499.466342 244.821176 
L 499.466342 155.138824 
" style="fill:none;stroke:#ffffff;stroke-linecap:round;"/>
     </g>
     <g id="line2d_48"/>
    </g>
   </g>
   <g id="matplotlib.axis_4">
    <g id="ytick_5">
     <g id="line2d_49">
      <path clip-path="url(#p28298e05a4)" d="M 72 241.861946 
L 518.4 241.861946 
" style="fill:none;stroke:#ffffff;stroke-linecap:round;"/>
     </g>
     <g id="line2d_50"/>
     <g id="text_12">
      <!-- 0 -->
      <g style="fill:#262626;" transform="translate(59.439062 245.440853)scale(0.1 -0.1)">
       <use xlink:href="#ArialMT-48"/>
      </g>
     </g>
    </g>
    <g id="ytick_6">
     <g id="line2d_51">
      <path clip-path="url(#p28298e05a4)" d="M 72 206.242061 
L 518.4 206.242061 
" style="fill:none;stroke:#ffffff;stroke-linecap:round;"/>
     </g>
     <g id="line2d_52"/>
     <g id="text_13">
      <!-- 100 -->
      <g style="fill:#262626;" transform="translate(48.317188 209.820968)scale(0.1 -0.1)">
       <use xlink:href="#ArialMT-49"/>
       <use x="55.615234" xlink:href="#ArialMT-48"/>
       <use x="111.230469" xlink:href="#ArialMT-48"/>
      </g>
     </g>
    </g>
    <g id="ytick_7">
     <g id="line2d_53">
      <path clip-path="url(#p28298e05a4)" d="M 72 170.622176 
L 518.4 170.622176 
" style="fill:none;stroke:#ffffff;stroke-linecap:round;"/>
     </g>
     <g id="line2d_54"/>
     <g id="text_14">
      <!-- 200 -->
      <g style="fill:#262626;" transform="translate(48.317188 174.201083)scale(0.1 -0.1)">
       <use xlink:href="#ArialMT-50"/>
       <use x="55.615234" xlink:href="#ArialMT-48"/>
       <use x="111.230469" xlink:href="#ArialMT-48"/>
      </g>
     </g>
    </g>
   </g>
   <g id="line2d_55">
    <path clip-path="url(#p28298e05a4)" d="M 92.290909 159.32207 
L 109.935178 159.250998 
L 111.292429 159.293271 
L 112.649681 162.46394 
L 115.364184 162.688057 
L 118.078687 163.087751 
L 120.793189 163.709759 
L 123.507692 164.574682 
L 126.222195 165.665393 
L 130.29395 167.598693 
L 131.651201 168.281934 
L 133.008453 170.540891 
L 137.080207 172.415377 
L 141.151961 174.010273 
L 143.866464 174.848859 
L 146.580967 175.480922 
L 149.29547 175.896811 
L 152.009973 176.095702 
L 153.367224 181.002141 
L 156.081727 180.917145 
L 160.153481 180.505822 
L 164.225236 179.794474 
L 168.29699 178.841474 
L 172.368744 177.717558 
L 173.725996 178.573388 
L 185.941259 175.153034 
L 191.370265 173.907157 
L 192.727516 173.638126 
L 194.084768 176.023602 
L 199.513773 175.244526 
L 204.942779 174.698201 
L 211.729036 174.274244 
L 213.086288 174.21623 
L 214.443539 176.557568 
L 223.944299 176.365066 
L 233.445059 176.318559 
L 234.802311 178.853017 
L 256.518334 178.959182 
L 274.162603 179.042887 
L 275.519854 180.885003 
L 294.521374 180.923962 
L 295.878626 183.963833 
L 314.880146 183.96458 
L 316.237397 186.082503 
L 335.238918 186.056336 
L 336.596169 185.865167 
L 355.597689 185.828671 
L 356.954941 186.280093 
L 366.455701 186.41618 
L 371.884706 186.714593 
L 375.956461 187.115232 
L 377.313712 186.477692 
L 382.742718 187.373043 
L 390.886227 189.037413 
L 396.315233 190.11435 
L 397.672484 210.67063 
L 408.530496 211.288822 
L 416.674004 211.579004 
L 418.031256 208.641933 
L 426.174764 208.747963 
L 434.318273 208.638225 
L 437.032776 208.557998 
L 438.390028 205.996203 
L 447.890787 205.464478 
L 457.391548 204.762316 
L 458.748799 202.342696 
L 477.750319 200.718769 
L 479.107571 194.836476 
L 488.608331 194.071742 
L 498.109091 193.557619 
L 498.109091 193.557619 
" style="fill:none;stroke:#1f77b4;stroke-linecap:round;stroke-width:1.75;"/>
   </g>
   <g id="line2d_56">
    <path clip-path="url(#p28298e05a4)" d="M 92.290909 180.296072 
L 109.935178 180.278072 
L 111.292429 180.320488 
L 112.649681 181.282022 
L 116.721435 181.663024 
L 119.435938 182.137467 
L 122.150441 182.82422 
L 124.864944 183.719037 
L 128.936698 185.354935 
L 131.651201 186.53726 
L 133.008453 188.486572 
L 137.080207 190.058829 
L 141.151961 191.352387 
L 143.866464 192.00833 
L 146.580967 192.481588 
L 149.29547 192.767704 
L 152.009973 192.868951 
L 153.367224 196.357904 
L 157.438978 196.119844 
L 161.510733 195.606045 
L 165.582487 194.862415 
L 171.011493 193.61397 
L 172.368744 193.272487 
L 173.725996 193.935065 
L 184.584007 191.332961 
L 190.013013 190.270128 
L 192.727516 189.829314 
L 194.084768 191.187116 
L 199.513773 190.582408 
L 206.30003 190.092534 
L 213.086288 189.816101 
L 214.443539 191.665511 
L 226.658802 191.495251 
L 233.445059 191.462243 
L 234.802311 192.996625 
L 256.518334 193.051531 
L 274.162603 193.047387 
L 275.519854 193.329753 
L 294.521374 193.326591 
L 295.878626 195.513263 
L 314.880146 195.507416 
L 316.237397 197.25695 
L 335.238918 197.249951 
L 336.596169 197.061504 
L 355.597689 197.064688 
L 356.954941 197.421645 
L 366.455701 197.575794 
L 371.884706 197.877602 
L 375.956461 198.271757 
L 377.313712 197.565114 
L 382.742718 198.426644 
L 396.315233 200.950328 
L 397.672484 216.901438 
L 408.530496 217.395935 
L 416.674004 217.601453 
L 418.031256 215.675171 
L 427.532016 215.687662 
L 437.032776 215.465554 
L 438.390028 213.443153 
L 449.248039 212.854403 
L 457.391548 212.309409 
L 458.748799 210.366599 
L 476.393068 209.070349 
L 477.750319 208.986393 
L 479.107571 204.579759 
L 488.608331 203.984919 
L 498.109091 203.605484 
L 498.109091 203.605484 
" style="fill:none;stroke:#ff7f0e;stroke-linecap:round;stroke-width:1.75;"/>
   </g>
   <g id="line2d_57">
    <path clip-path="url(#p28298e05a4)" d="M 92.290909 228.060854 
L 111.292429 228.02945 
L 112.649681 229.496054 
L 122.150441 229.611613 
L 128.936698 229.90345 
L 133.008453 230.255242 
L 149.29547 231.34642 
L 152.009973 231.446798 
L 153.367224 232.433498 
L 161.510733 232.490205 
L 171.011493 232.297796 
L 172.368744 232.251602 
L 173.725996 232.441354 
L 191.370265 231.678682 
L 192.727516 231.622388 
L 194.084768 232.080957 
L 207.657282 231.713754 
L 213.086288 231.630166 
L 214.443539 232.086827 
L 233.445059 231.987789 
L 234.802311 232.451182 
L 253.803831 232.43721 
L 255.161083 232.64228 
L 274.162603 232.639608 
L 275.519854 233.499499 
L 294.521374 233.49647 
L 295.878626 234.184022 
L 381.385467 234.277471 
L 396.315233 234.544946 
L 397.672484 236.748379 
L 416.674004 236.963286 
L 418.031256 236.245437 
L 437.032776 236.380479 
L 438.390028 236.255315 
L 457.391548 236.168876 
L 458.748799 235.954836 
L 477.750319 235.726899 
L 479.107571 234.499653 
L 498.109091 234.211805 
L 498.109091 234.211805 
" style="fill:none;stroke:#2ca02c;stroke-linecap:round;stroke-width:1.75;"/>
   </g>
   <g id="line2d_58">
    <path clip-path="url(#p28298e05a4)" d="M 92.290909 234.689037 
L 111.292429 234.667225 
L 112.649681 235.409758 
L 131.651201 235.390296 
L 133.008453 235.522971 
L 152.009973 235.503846 
L 153.367224 235.934632 
L 192.727516 235.910318 
L 194.084768 236.479423 
L 232.087808 236.586193 
L 233.445059 236.59242 
L 234.802311 237.129103 
L 253.803831 237.213444 
L 255.161083 236.982217 
L 274.162603 237.079785 
L 275.519854 237.779644 
L 294.521374 237.824794 
L 295.878626 237.990442 
L 314.880146 238.000343 
L 316.237397 238.360253 
L 343.382426 238.239877 
L 355.597689 238.213231 
L 356.954941 238.494305 
L 396.315233 238.342969 
L 397.672484 240.744706 
L 416.674004 240.738159 
L 418.031256 240.445218 
L 437.032776 240.435858 
L 438.390028 240.021628 
L 457.391548 240.007924 
L 458.748799 239.745154 
L 477.750319 239.729369 
L 479.107571 239.480957 
L 498.109091 239.464223 
L 498.109091 239.464223 
" style="fill:none;stroke:#d62728;stroke-linecap:round;stroke-width:1.75;"/>
   </g>
   <g id="line2d_59">
    <path clip-path="url(#p28298e05a4)" d="M 92.290909 159.32207 
L 109.935178 159.250998 
L 111.292429 159.293271 
L 112.649681 162.46394 
L 115.364184 162.688057 
L 118.078687 163.087751 
L 120.793189 163.709759 
L 123.507692 164.574682 
L 126.222195 165.665393 
L 130.29395 167.598693 
L 131.651201 168.281934 
L 133.008453 170.540891 
L 137.080207 172.415377 
L 141.151961 174.010273 
L 143.866464 174.848859 
L 146.580967 175.480922 
L 149.29547 175.896811 
L 152.009973 176.095702 
L 153.367224 181.002141 
L 156.081727 180.917145 
L 160.153481 180.505822 
L 164.225236 179.794474 
L 168.29699 178.841474 
L 172.368744 177.717558 
L 173.725996 178.573388 
L 185.941259 175.153034 
L 191.370265 173.907157 
L 192.727516 173.638126 
L 194.084768 176.023602 
L 199.513773 175.244526 
L 204.942779 174.698201 
L 211.729036 174.274244 
L 213.086288 174.21623 
L 214.443539 176.557568 
L 223.944299 176.365066 
L 233.445059 176.318559 
L 234.802311 178.853017 
L 256.518334 178.959182 
L 274.162603 179.042887 
L 275.519854 180.885003 
L 294.521374 180.923962 
L 295.878626 183.963833 
L 314.880146 183.96458 
L 316.237397 186.082503 
L 335.238918 186.056336 
L 336.596169 185.865167 
L 355.597689 185.828671 
L 356.954941 186.280093 
L 366.455701 186.41618 
L 371.884706 186.714593 
L 375.956461 187.115232 
L 377.313712 186.477692 
L 382.742718 187.373043 
L 390.886227 189.037413 
L 396.315233 190.11435 
L 397.672484 210.67063 
L 408.530496 211.288822 
L 416.674004 211.579004 
L 418.031256 208.641933 
L 426.174764 208.747963 
L 434.318273 208.638225 
L 437.032776 208.557998 
L 438.390028 205.996203 
L 447.890787 205.464478 
L 457.391548 204.762316 
L 458.748799 202.342696 
L 477.750319 200.718769 
L 479.107571 194.836476 
L 488.608331 194.071742 
L 498.109091 193.557619 
L 498.109091 193.557619 
" style="fill:none;stroke:#000000;stroke-dasharray:1.75,2.8875;stroke-dashoffset:0;stroke-width:1.75;"/>
   </g>
   <g id="patch_8">
    <path d="M 72 244.821176 
L 72 155.138824 
" style="fill:none;"/>
   </g>
   <g id="patch_9">
    <path d="M 518.4 244.821176 
L 518.4 155.138824 
" style="fill:none;"/>
   </g>
   <g id="patch_10">
    <path d="M 72 244.821176 
L 518.4 244.821176 
" style="fill:none;"/>
   </g>
   <g id="patch_11">
    <path d="M 72 155.138824 
L 518.4 155.138824 
" style="fill:none;"/>
   </g>
   <g id="text_15">
    <!-- Mass flows network -->
    <defs>
     <path d="M 7.421875 0 
L 7.421875 71.578125 
L 21.6875 71.578125 
L 38.625 20.90625 
Q 40.96875 13.8125 42.046875 10.296875 
Q 43.265625 14.203125 45.84375 21.78125 
L 62.984375 71.578125 
L 75.734375 71.578125 
L 75.734375 0 
L 66.609375 0 
L 66.609375 59.90625 
L 45.796875 0 
L 37.25 0 
L 16.546875 60.9375 
L 16.546875 0 
z
" id="ArialMT-77"/>
     <path d="M 6.640625 0 
L 6.640625 71.578125 
L 15.4375 71.578125 
L 15.4375 30.765625 
L 36.234375 51.859375 
L 47.609375 51.859375 
L 27.78125 32.625 
L 49.609375 0 
L 38.765625 0 
L 21.625 26.515625 
L 15.4375 20.5625 
L 15.4375 0 
z
" id="ArialMT-107"/>
    </defs>
    <g style="fill:#262626;" transform="translate(242.854687 149.138824)scale(0.12 -0.12)">
     <use xlink:href="#ArialMT-77"/>
     <use x="83.300781" xlink:href="#ArialMT-97"/>
     <use x="138.916016" xlink:href="#ArialMT-115"/>
     <use x="188.916016" xlink:href="#ArialMT-115"/>
     <use x="238.916016" xlink:href="#ArialMT-32"/>
     <use x="266.699219" xlink:href="#ArialMT-102"/>
     <use x="294.482422" xlink:href="#ArialMT-108"/>
     <use x="316.699219" xlink:href="#ArialMT-111"/>
     <use x="372.314453" xlink:href="#ArialMT-119"/>
     <use x="444.53125" xlink:href="#ArialMT-115"/>
     <use x="494.53125" xlink:href="#ArialMT-32"/>
     <use x="522.314453" xlink:href="#ArialMT-110"/>
     <use x="577.929688" xlink:href="#ArialMT-101"/>
     <use x="633.544922" xlink:href="#ArialMT-116"/>
     <use x="661.328125" xlink:href="#ArialMT-119"/>
     <use x="733.544922" xlink:href="#ArialMT-111"/>
     <use x="789.160156" xlink:href="#ArialMT-114"/>
     <use x="822.460938" xlink:href="#ArialMT-107"/>
    </g>
   </g>
  </g>
  <g id="axes_3">
   <g id="patch_12">
    <path d="M 72 352.44 
L 518.4 352.44 
L 518.4 262.757647 
L 72 262.757647 
z
" style="fill:#eaeaf2;"/>
   </g>
   <g id="matplotlib.axis_5">
    <g id="xtick_13">
     <g id="line2d_60">
      <path clip-path="url(#p41ee6e8174)" d="M 92.290909 352.44 
L 92.290909 262.757647 
" style="fill:none;stroke:#ffffff;stroke-linecap:round;"/>
     </g>
     <g id="line2d_61"/>
     <g id="text_16">
      <!-- 01-01 00 -->
      <defs>
       <path d="M 3.171875 21.484375 
L 3.171875 30.328125 
L 30.171875 30.328125 
L 30.171875 21.484375 
z
" id="ArialMT-45"/>
      </defs>
      <g style="fill:#262626;" transform="translate(72.55419 366.597813)scale(0.1 -0.1)">
       <use xlink:href="#ArialMT-48"/>
       <use x="55.615234" xlink:href="#ArialMT-49"/>
       <use x="111.230469" xlink:href="#ArialMT-45"/>
       <use x="144.53125" xlink:href="#ArialMT-48"/>
       <use x="200.146484" xlink:href="#ArialMT-49"/>
       <use x="255.761719" xlink:href="#ArialMT-32"/>
       <use x="283.544922" xlink:href="#ArialMT-48"/>
       <use x="339.160156" xlink:href="#ArialMT-48"/>
      </g>
     </g>
    </g>
    <g id="xtick_14">
     <g id="line2d_62">
      <path clip-path="url(#p41ee6e8174)" d="M 173.725996 352.44 
L 173.725996 262.757647 
" style="fill:none;stroke:#ffffff;stroke-linecap:round;"/>
     </g>
     <g id="line2d_63"/>
     <g id="text_17">
      <!-- 01-01 01 -->
      <g style="fill:#262626;" transform="translate(153.989277 366.597813)scale(0.1 -0.1)">
       <use xlink:href="#ArialMT-48"/>
       <use x="55.615234" xlink:href="#ArialMT-49"/>
       <use x="111.230469" xlink:href="#ArialMT-45"/>
       <use x="144.53125" xlink:href="#ArialMT-48"/>
       <use x="200.146484" xlink:href="#ArialMT-49"/>
       <use x="255.761719" xlink:href="#ArialMT-32"/>
       <use x="283.544922" xlink:href="#ArialMT-48"/>
       <use x="339.160156" xlink:href="#ArialMT-49"/>
      </g>
     </g>
    </g>
    <g id="xtick_15">
     <g id="line2d_64">
      <path clip-path="url(#p41ee6e8174)" d="M 255.161083 352.44 
L 255.161083 262.757647 
" style="fill:none;stroke:#ffffff;stroke-linecap:round;"/>
     </g>
     <g id="line2d_65"/>
     <g id="text_18">
      <!-- 01-01 02 -->
      <g style="fill:#262626;" transform="translate(235.424364 366.597813)scale(0.1 -0.1)">
       <use xlink:href="#ArialMT-48"/>
       <use x="55.615234" xlink:href="#ArialMT-49"/>
       <use x="111.230469" xlink:href="#ArialMT-45"/>
       <use x="144.53125" xlink:href="#ArialMT-48"/>
       <use x="200.146484" xlink:href="#ArialMT-49"/>
       <use x="255.761719" xlink:href="#ArialMT-32"/>
       <use x="283.544922" xlink:href="#ArialMT-48"/>
       <use x="339.160156" xlink:href="#ArialMT-50"/>
      </g>
     </g>
    </g>
    <g id="xtick_16">
     <g id="line2d_66">
      <path clip-path="url(#p41ee6e8174)" d="M 336.596169 352.44 
L 336.596169 262.757647 
" style="fill:none;stroke:#ffffff;stroke-linecap:round;"/>
     </g>
     <g id="line2d_67"/>
     <g id="text_19">
      <!-- 01-01 03 -->
      <g style="fill:#262626;" transform="translate(316.85945 366.597813)scale(0.1 -0.1)">
       <use xlink:href="#ArialMT-48"/>
       <use x="55.615234" xlink:href="#ArialMT-49"/>
       <use x="111.230469" xlink:href="#ArialMT-45"/>
       <use x="144.53125" xlink:href="#ArialMT-48"/>
       <use x="200.146484" xlink:href="#ArialMT-49"/>
       <use x="255.761719" xlink:href="#ArialMT-32"/>
       <use x="283.544922" xlink:href="#ArialMT-48"/>
       <use x="339.160156" xlink:href="#ArialMT-51"/>
      </g>
     </g>
    </g>
    <g id="xtick_17">
     <g id="line2d_68">
      <path clip-path="url(#p41ee6e8174)" d="M 418.031256 352.44 
L 418.031256 262.757647 
" style="fill:none;stroke:#ffffff;stroke-linecap:round;"/>
     </g>
     <g id="line2d_69"/>
     <g id="text_20">
      <!-- 01-01 04 -->
      <defs>
       <path d="M 32.328125 0 
L 32.328125 17.140625 
L 1.265625 17.140625 
L 1.265625 25.203125 
L 33.9375 71.578125 
L 41.109375 71.578125 
L 41.109375 25.203125 
L 50.78125 25.203125 
L 50.78125 17.140625 
L 41.109375 17.140625 
L 41.109375 0 
z
M 32.328125 25.203125 
L 32.328125 57.46875 
L 9.90625 25.203125 
z
" id="ArialMT-52"/>
      </defs>
      <g style="fill:#262626;" transform="translate(398.294537 366.597813)scale(0.1 -0.1)">
       <use xlink:href="#ArialMT-48"/>
       <use x="55.615234" xlink:href="#ArialMT-49"/>
       <use x="111.230469" xlink:href="#ArialMT-45"/>
       <use x="144.53125" xlink:href="#ArialMT-48"/>
       <use x="200.146484" xlink:href="#ArialMT-49"/>
       <use x="255.761719" xlink:href="#ArialMT-32"/>
       <use x="283.544922" xlink:href="#ArialMT-48"/>
       <use x="339.160156" xlink:href="#ArialMT-52"/>
      </g>
     </g>
    </g>
    <g id="xtick_18">
     <g id="line2d_70">
      <path clip-path="url(#p41ee6e8174)" d="M 499.466342 352.44 
L 499.466342 262.757647 
" style="fill:none;stroke:#ffffff;stroke-linecap:round;"/>
     </g>
     <g id="line2d_71"/>
     <g id="text_21">
      <!-- 01-01 05 -->
      <defs>
       <path d="M 4.15625 18.75 
L 13.375 19.53125 
Q 14.40625 12.796875 18.140625 9.390625 
Q 21.875 6 27.15625 6 
Q 33.5 6 37.890625 10.78125 
Q 42.28125 15.578125 42.28125 23.484375 
Q 42.28125 31 38.0625 35.34375 
Q 33.84375 39.703125 27 39.703125 
Q 22.75 39.703125 19.328125 37.765625 
Q 15.921875 35.84375 13.96875 32.765625 
L 5.71875 33.84375 
L 12.640625 70.609375 
L 48.25 70.609375 
L 48.25 62.203125 
L 19.671875 62.203125 
L 15.828125 42.96875 
Q 22.265625 47.46875 29.34375 47.46875 
Q 38.71875 47.46875 45.15625 40.96875 
Q 51.609375 34.46875 51.609375 24.265625 
Q 51.609375 14.546875 45.953125 7.46875 
Q 39.0625 -1.21875 27.15625 -1.21875 
Q 17.390625 -1.21875 11.203125 4.25 
Q 5.03125 9.71875 4.15625 18.75 
z
" id="ArialMT-53"/>
      </defs>
      <g style="fill:#262626;" transform="translate(479.729624 366.597813)scale(0.1 -0.1)">
       <use xlink:href="#ArialMT-48"/>
       <use x="55.615234" xlink:href="#ArialMT-49"/>
       <use x="111.230469" xlink:href="#ArialMT-45"/>
       <use x="144.53125" xlink:href="#ArialMT-48"/>
       <use x="200.146484" xlink:href="#ArialMT-49"/>
       <use x="255.761719" xlink:href="#ArialMT-32"/>
       <use x="283.544922" xlink:href="#ArialMT-48"/>
       <use x="339.160156" xlink:href="#ArialMT-53"/>
      </g>
     </g>
    </g>
   </g>
   <g id="matplotlib.axis_6">
    <g id="ytick_8">
     <g id="line2d_72">
      <path clip-path="url(#p41ee6e8174)" d="M 72 335.868417 
L 518.4 335.868417 
" style="fill:none;stroke:#ffffff;stroke-linecap:round;"/>
     </g>
     <g id="line2d_73"/>
     <g id="text_22">
      <!-- 40 -->
      <g style="fill:#262626;" transform="translate(53.878125 339.447323)scale(0.1 -0.1)">
       <use xlink:href="#ArialMT-52"/>
       <use x="55.615234" xlink:href="#ArialMT-48"/>
      </g>
     </g>
    </g>
    <g id="ytick_9">
     <g id="line2d_74">
      <path clip-path="url(#p41ee6e8174)" d="M 72 310.300161 
L 518.4 310.300161 
" style="fill:none;stroke:#ffffff;stroke-linecap:round;"/>
     </g>
     <g id="line2d_75"/>
     <g id="text_23">
      <!-- 50 -->
      <g style="fill:#262626;" transform="translate(53.878125 313.879067)scale(0.1 -0.1)">
       <use xlink:href="#ArialMT-53"/>
       <use x="55.615234" xlink:href="#ArialMT-48"/>
      </g>
     </g>
    </g>
    <g id="ytick_10">
     <g id="line2d_76">
      <path clip-path="url(#p41ee6e8174)" d="M 72 284.731905 
L 518.4 284.731905 
" style="fill:none;stroke:#ffffff;stroke-linecap:round;"/>
     </g>
     <g id="line2d_77"/>
     <g id="text_24">
      <!-- 60 -->
      <defs>
       <path d="M 49.75 54.046875 
L 41.015625 53.375 
Q 39.84375 58.546875 37.703125 60.890625 
Q 34.125 64.65625 28.90625 64.65625 
Q 24.703125 64.65625 21.53125 62.3125 
Q 17.390625 59.28125 14.984375 53.46875 
Q 12.59375 47.65625 12.5 36.921875 
Q 15.671875 41.75 20.265625 44.09375 
Q 24.859375 46.4375 29.890625 46.4375 
Q 38.671875 46.4375 44.84375 39.96875 
Q 51.03125 33.5 51.03125 23.25 
Q 51.03125 16.5 48.125 10.71875 
Q 45.21875 4.9375 40.140625 1.859375 
Q 35.0625 -1.21875 28.609375 -1.21875 
Q 17.625 -1.21875 10.6875 6.859375 
Q 3.765625 14.9375 3.765625 33.5 
Q 3.765625 54.25 11.421875 63.671875 
Q 18.109375 71.875 29.4375 71.875 
Q 37.890625 71.875 43.28125 67.140625 
Q 48.6875 62.40625 49.75 54.046875 
z
M 13.875 23.1875 
Q 13.875 18.65625 15.796875 14.5 
Q 17.71875 10.359375 21.1875 8.171875 
Q 24.65625 6 28.46875 6 
Q 34.03125 6 38.03125 10.484375 
Q 42.046875 14.984375 42.046875 22.703125 
Q 42.046875 30.125 38.078125 34.390625 
Q 34.125 38.671875 28.125 38.671875 
Q 22.171875 38.671875 18.015625 34.390625 
Q 13.875 30.125 13.875 23.1875 
z
" id="ArialMT-54"/>
      </defs>
      <g style="fill:#262626;" transform="translate(53.878125 288.310812)scale(0.1 -0.1)">
       <use xlink:href="#ArialMT-54"/>
       <use x="55.615234" xlink:href="#ArialMT-48"/>
      </g>
     </g>
    </g>
   </g>
   <g id="line2d_78">
    <path clip-path="url(#p41ee6e8174)" d="M 92.290909 292.40239 
L 93.64816 266.834118 
L 105.863424 266.834118 
L 107.220675 292.402389 
L 333.881666 292.40239 
L 335.238918 272.018459 
L 336.596169 266.834118 
L 347.454181 266.834118 
L 348.811432 292.40239 
L 498.109091 292.40239 
L 498.109091 292.40239 
" style="fill:none;stroke:#1f77b4;stroke-linecap:round;stroke-width:1.75;"/>
   </g>
   <g id="line2d_79">
    <path clip-path="url(#p41ee6e8174)" d="M 92.290909 343.538893 
L 145.223716 343.73234 
L 172.368744 344.068368 
L 190.013013 344.510843 
L 211.729036 345.059377 
L 225.301551 345.15438 
L 242.945819 345.012666 
L 275.519854 344.727327 
L 306.736637 344.755301 
L 390.886227 345.056026 
L 476.393068 345.484113 
L 492.680085 345.875162 
L 498.109091 346.020817 
L 498.109091 346.020817 
" style="fill:none;stroke:#1f77b4;stroke-dasharray:6.475,2.8;stroke-dashoffset:0;stroke-width:1.75;"/>
   </g>
   <g id="line2d_80">
    <path clip-path="url(#p41ee6e8174)" d="M 92.290909 292.402382 
L 111.292429 292.385524 
L 115.364184 292.189033 
L 119.435938 291.728718 
L 122.150441 291.221393 
L 124.864944 290.538805 
L 128.936698 289.22409 
L 139.79471 285.300336 
L 142.509212 284.522888 
L 145.223716 283.91283 
L 147.938218 283.494177 
L 150.652721 283.278503 
L 153.367224 283.261703 
L 156.081727 283.414896 
L 160.153481 283.925583 
L 164.225236 284.709673 
L 169.654241 286.030204 
L 180.512253 288.793806 
L 185.941259 289.943205 
L 191.370265 290.843808 
L 196.79927 291.485082 
L 203.585527 292.003648 
L 211.729036 292.340534 
L 222.587048 292.522915 
L 244.303071 292.599903 
L 361.026695 292.588648 
L 367.812952 292.411485 
L 373.241958 292.04692 
L 377.313712 291.581842 
L 381.385467 290.932279 
L 386.814472 289.842066 
L 396.315233 287.775917 
L 404.458741 286.884012 
L 411.244999 286.342939 
L 418.031256 286.023023 
L 424.817513 285.950623 
L 431.60377 286.140946 
L 438.390028 286.565225 
L 446.533536 287.351646 
L 458.748799 288.790673 
L 470.964062 290.237359 
L 481.822073 291.271442 
L 489.965582 291.844239 
L 498.109091 292.217991 
L 498.109091 292.217991 
" style="fill:none;stroke:#ff7f0e;stroke-linecap:round;stroke-width:1.75;"/>
   </g>
   <g id="line2d_81">
    <path clip-path="url(#p41ee6e8174)" d="M 92.290909 343.599774 
L 114.006932 343.676196 
L 122.150441 343.88386 
L 131.651201 344.413212 
L 134.365704 344.6537 
L 143.866464 345.078886 
L 157.438978 345.373416 
L 168.29699 345.097378 
L 192.727516 344.320418 
L 195.442019 344.358503 
L 210.371785 344.180489 
L 213.086288 344.165922 
L 214.443539 344.277986 
L 233.445059 344.244374 
L 236.159562 344.340973 
L 294.521374 344.359474 
L 295.878626 344.501885 
L 314.880146 344.500856 
L 316.237397 344.617285 
L 371.884706 344.711061 
L 386.814472 345.041755 
L 396.315233 345.348001 
L 397.672484 346.525708 
L 416.674004 346.68364 
L 418.031256 346.536094 
L 437.032776 346.491111 
L 438.390028 346.328876 
L 457.391548 346.089343 
L 458.748799 345.927641 
L 477.750319 345.636812 
L 479.107571 345.297999 
L 498.109091 345.104423 
L 498.109091 345.104423 
" style="fill:none;stroke:#ff7f0e;stroke-dasharray:6.475,2.8;stroke-dashoffset:0;stroke-width:1.75;"/>
   </g>
   <g id="line2d_82">
    <path clip-path="url(#p41ee6e8174)" d="M 92.290909 292.402382 
L 114.006932 292.4792 
L 119.435938 292.288297 
L 123.507692 291.915781 
L 127.579447 291.246527 
L 131.651201 290.246323 
L 135.722955 288.981101 
L 146.580967 285.390019 
L 150.652721 284.409781 
L 153.367224 283.973563 
L 156.081727 283.707899 
L 158.79623 283.59334 
L 162.867984 283.699427 
L 166.939739 284.112101 
L 171.011493 284.781303 
L 176.440499 285.933949 
L 194.084768 289.954684 
L 199.513773 290.822452 
L 204.942779 291.479425 
L 211.729036 292.036284 
L 218.515293 292.361371 
L 228.016054 292.591875 
L 244.303071 292.716249 
L 302.664883 292.779289 
L 370.527455 292.756414 
L 378.670964 292.529579 
L 384.09997 292.182614 
L 389.528975 291.621356 
L 394.957981 290.847325 
L 397.672484 290.470525 
L 426.174764 287.178913 
L 432.961022 286.770905 
L 438.390028 286.647443 
L 445.176285 286.743149 
L 451.962542 287.085213 
L 460.10605 287.749204 
L 472.321314 289.047158 
L 495.394588 291.521893 
L 498.109091 291.725427 
L 498.109091 291.725427 
" style="fill:none;stroke:#2ca02c;stroke-linecap:round;stroke-width:1.75;"/>
   </g>
   <g id="line2d_83">
    <path clip-path="url(#p41ee6e8174)" d="M 92.290909 344.878381 
L 111.292429 344.860508 
L 112.649681 345.175233 
L 124.864944 345.30145 
L 133.008453 345.604521 
L 150.652721 346.27007 
L 152.009973 346.295772 
L 153.367224 346.519622 
L 164.225236 346.535802 
L 180.512253 346.267051 
L 192.727516 345.92385 
L 194.084768 346.009128 
L 210.371785 345.728939 
L 213.086288 345.7029 
L 214.443539 345.805944 
L 233.445059 345.735256 
L 234.802311 345.848479 
L 274.162603 345.887385 
L 275.519854 346.108313 
L 294.521374 346.105903 
L 295.878626 346.28931 
L 384.09997 346.376135 
L 396.315233 346.568636 
L 397.672484 347.196415 
L 416.674004 347.392714 
L 418.031256 347.203355 
L 437.032776 347.31346 
L 442.461782 347.279097 
L 458.748799 347.147605 
L 477.750319 346.959588 
L 479.107571 346.618669 
L 498.109091 346.389828 
L 498.109091 346.389828 
" style="fill:none;stroke:#2ca02c;stroke-dasharray:6.475,2.8;stroke-dashoffset:0;stroke-width:1.75;"/>
   </g>
   <g id="line2d_84">
    <path clip-path="url(#p41ee6e8174)" d="M 92.290909 292.402382 
L 198.156522 293.086951 
L 214.443539 292.939265 
L 228.016054 292.579492 
L 245.660322 291.833424 
L 268.733597 290.594999 
L 280.94886 290.062071 
L 295.878626 289.653675 
L 309.45114 289.513255 
L 324.380906 289.598299 
L 340.667923 289.918877 
L 361.026695 290.562934 
L 407.173244 292.06118 
L 457.391548 293.012436 
L 498.109091 293.799749 
L 498.109091 293.799749 
" style="fill:none;stroke:#d62728;stroke-linecap:round;stroke-width:1.75;"/>
   </g>
   <g id="line2d_85">
    <path clip-path="url(#p41ee6e8174)" d="M 92.290909 346.041877 
L 111.292429 346.021474 
L 112.649681 346.2578 
L 152.009973 346.261556 
L 153.367224 346.404957 
L 192.727516 346.375779 
L 194.084768 346.573256 
L 233.445059 346.67469 
L 234.802311 346.870542 
L 274.162603 346.99857 
L 275.519854 347.249348 
L 351.525935 347.412798 
L 396.315233 347.359289 
L 397.672484 348.363529 
L 416.674004 348.35301 
L 418.031256 348.225078 
L 437.032776 348.209487 
L 438.390028 348.022981 
L 457.391548 348.000204 
L 458.748799 347.880351 
L 483.179325 347.734596 
L 498.109091 347.713369 
L 498.109091 347.713369 
" style="fill:none;stroke:#d62728;stroke-dasharray:6.475,2.8;stroke-dashoffset:0;stroke-width:1.75;"/>
   </g>
   <g id="patch_13">
    <path d="M 72 352.44 
L 72 262.757647 
" style="fill:none;"/>
   </g>
   <g id="patch_14">
    <path d="M 518.4 352.44 
L 518.4 262.757647 
" style="fill:none;"/>
   </g>
   <g id="patch_15">
    <path d="M 72 352.44 
L 518.4 352.44 
" style="fill:none;"/>
   </g>
   <g id="patch_16">
    <path d="M 72 262.757647 
L 518.4 262.757647 
" style="fill:none;"/>
   </g>
   <g id="text_25">
    <!-- Network temperatures -->
    <defs>
     <path d="M 6.59375 0 
L 6.59375 51.859375 
L 14.453125 51.859375 
L 14.453125 44.578125 
Q 16.890625 48.390625 20.9375 50.703125 
Q 25 53.03125 30.171875 53.03125 
Q 35.9375 53.03125 39.625 50.640625 
Q 43.3125 48.25 44.828125 43.953125 
Q 50.984375 53.03125 60.84375 53.03125 
Q 68.5625 53.03125 72.703125 48.75 
Q 76.859375 44.484375 76.859375 35.59375 
L 76.859375 0 
L 68.109375 0 
L 68.109375 32.671875 
Q 68.109375 37.9375 67.25 40.25 
Q 66.40625 42.578125 64.15625 43.984375 
Q 61.921875 45.40625 58.890625 45.40625 
Q 53.421875 45.40625 49.796875 41.765625 
Q 46.1875 38.140625 46.1875 30.125 
L 46.1875 0 
L 37.40625 0 
L 37.40625 33.6875 
Q 37.40625 39.546875 35.25 42.46875 
Q 33.109375 45.40625 28.21875 45.40625 
Q 24.515625 45.40625 21.359375 43.453125 
Q 18.21875 41.5 16.796875 37.734375 
Q 15.375 33.984375 15.375 26.90625 
L 15.375 0 
z
" id="ArialMT-109"/>
     <path d="M 6.59375 -19.875 
L 6.59375 51.859375 
L 14.59375 51.859375 
L 14.59375 45.125 
Q 17.4375 49.078125 21 51.046875 
Q 24.5625 53.03125 29.640625 53.03125 
Q 36.28125 53.03125 41.359375 49.609375 
Q 46.4375 46.1875 49.015625 39.953125 
Q 51.609375 33.734375 51.609375 26.3125 
Q 51.609375 18.359375 48.75 11.984375 
Q 45.90625 5.609375 40.453125 2.21875 
Q 35.015625 -1.171875 29 -1.171875 
Q 24.609375 -1.171875 21.109375 0.6875 
Q 17.625 2.546875 15.375 5.375 
L 15.375 -19.875 
z
M 14.546875 25.640625 
Q 14.546875 15.625 18.59375 10.84375 
Q 22.65625 6.0625 28.421875 6.0625 
Q 34.28125 6.0625 38.453125 11.015625 
Q 42.625 15.96875 42.625 26.375 
Q 42.625 36.28125 38.546875 41.203125 
Q 34.46875 46.140625 28.8125 46.140625 
Q 23.1875 46.140625 18.859375 40.890625 
Q 14.546875 35.640625 14.546875 25.640625 
z
" id="ArialMT-112"/>
    </defs>
    <g style="fill:#262626;" transform="translate(236.1825 256.757647)scale(0.12 -0.12)">
     <use xlink:href="#ArialMT-78"/>
     <use x="72.216797" xlink:href="#ArialMT-101"/>
     <use x="127.832031" xlink:href="#ArialMT-116"/>
     <use x="155.615234" xlink:href="#ArialMT-119"/>
     <use x="227.832031" xlink:href="#ArialMT-111"/>
     <use x="283.447266" xlink:href="#ArialMT-114"/>
     <use x="316.748047" xlink:href="#ArialMT-107"/>
     <use x="366.748047" xlink:href="#ArialMT-32"/>
     <use x="394.53125" xlink:href="#ArialMT-116"/>
     <use x="422.314453" xlink:href="#ArialMT-101"/>
     <use x="477.929688" xlink:href="#ArialMT-109"/>
     <use x="561.230469" xlink:href="#ArialMT-112"/>
     <use x="616.845703" xlink:href="#ArialMT-101"/>
     <use x="672.460938" xlink:href="#ArialMT-114"/>
     <use x="705.761719" xlink:href="#ArialMT-97"/>
     <use x="761.376953" xlink:href="#ArialMT-116"/>
     <use x="789.160156" xlink:href="#ArialMT-117"/>
     <use x="844.775391" xlink:href="#ArialMT-114"/>
     <use x="878.076172" xlink:href="#ArialMT-101"/>
     <use x="933.691406" xlink:href="#ArialMT-115"/>
    </g>
   </g>
  </g>
  <g id="text_26">
   <!-- Horizon: 5.0h, Time step: 60, Neighbourhoods: 3, case: energy -->
   <defs>
    <path d="M 1.953125 0 
L 1.953125 7.125 
L 34.96875 45.015625 
Q 29.34375 44.734375 25.046875 44.734375 
L 3.90625 44.734375 
L 3.90625 51.859375 
L 46.296875 51.859375 
L 46.296875 46.046875 
L 18.21875 13.140625 
L 12.796875 7.125 
Q 18.703125 7.5625 23.875 7.5625 
L 47.859375 7.5625 
L 47.859375 0 
z
" id="ArialMT-122"/>
    <path d="M 9.03125 41.84375 
L 9.03125 51.859375 
L 19.046875 51.859375 
L 19.046875 41.84375 
z
M 9.03125 0 
L 9.03125 10.015625 
L 19.046875 10.015625 
L 19.046875 0 
z
" id="ArialMT-58"/>
    <path d="M 9.078125 0 
L 9.078125 10.015625 
L 19.09375 10.015625 
L 19.09375 0 
z
" id="ArialMT-46"/>
    <path d="M 8.890625 0 
L 8.890625 10.015625 
L 18.890625 10.015625 
L 18.890625 0 
Q 18.890625 -5.515625 16.9375 -8.90625 
Q 14.984375 -12.3125 10.75 -14.15625 
L 8.296875 -10.40625 
Q 11.078125 -9.1875 12.390625 -6.8125 
Q 13.71875 -4.4375 13.875 0 
z
" id="ArialMT-44"/>
    <path d="M 25.921875 0 
L 25.921875 63.140625 
L 2.34375 63.140625 
L 2.34375 71.578125 
L 59.078125 71.578125 
L 59.078125 63.140625 
L 35.40625 63.140625 
L 35.40625 0 
z
" id="ArialMT-84"/>
    <path d="M 6.203125 -19.96875 
L 5.21875 -11.71875 
Q 8.109375 -12.5 10.25 -12.5 
Q 13.1875 -12.5 14.9375 -11.515625 
Q 16.703125 -10.546875 17.828125 -8.796875 
Q 18.65625 -7.46875 20.515625 -2.25 
Q 20.75 -1.515625 21.296875 -0.09375 
L 1.609375 51.859375 
L 11.078125 51.859375 
L 21.875 21.828125 
Q 23.96875 16.109375 25.640625 9.8125 
Q 27.15625 15.875 29.25 21.625 
L 40.328125 51.859375 
L 49.125 51.859375 
L 29.390625 -0.875 
Q 26.21875 -9.421875 24.46875 -12.640625 
Q 22.125 -17 19.09375 -19.015625 
Q 16.0625 -21.046875 11.859375 -21.046875 
Q 9.328125 -21.046875 6.203125 -19.96875 
z
" id="ArialMT-121"/>
   </defs>
   <g style="fill:#262626;" transform="translate(120.921562 16.545)scale(0.12 -0.12)">
    <use xlink:href="#ArialMT-72"/>
    <use x="72.216797" xlink:href="#ArialMT-111"/>
    <use x="127.832031" xlink:href="#ArialMT-114"/>
    <use x="161.132812" xlink:href="#ArialMT-105"/>
    <use x="183.349609" xlink:href="#ArialMT-122"/>
    <use x="233.349609" xlink:href="#ArialMT-111"/>
    <use x="288.964844" xlink:href="#ArialMT-110"/>
    <use x="344.580078" xlink:href="#ArialMT-58"/>
    <use x="372.363281" xlink:href="#ArialMT-32"/>
    <use x="400.146484" xlink:href="#ArialMT-53"/>
    <use x="455.761719" xlink:href="#ArialMT-46"/>
    <use x="483.544922" xlink:href="#ArialMT-48"/>
    <use x="539.160156" xlink:href="#ArialMT-104"/>
    <use x="594.775391" xlink:href="#ArialMT-44"/>
    <use x="622.558594" xlink:href="#ArialMT-32"/>
    <use x="650.326172" xlink:href="#ArialMT-84"/>
    <use x="711.363281" xlink:href="#ArialMT-105"/>
    <use x="733.580078" xlink:href="#ArialMT-109"/>
    <use x="816.880859" xlink:href="#ArialMT-101"/>
    <use x="872.496094" xlink:href="#ArialMT-32"/>
    <use x="900.279297" xlink:href="#ArialMT-115"/>
    <use x="950.279297" xlink:href="#ArialMT-116"/>
    <use x="978.0625" xlink:href="#ArialMT-101"/>
    <use x="1033.677734" xlink:href="#ArialMT-112"/>
    <use x="1089.292969" xlink:href="#ArialMT-58"/>
    <use x="1117.076172" xlink:href="#ArialMT-32"/>
    <use x="1144.859375" xlink:href="#ArialMT-54"/>
    <use x="1200.474609" xlink:href="#ArialMT-48"/>
    <use x="1256.089844" xlink:href="#ArialMT-44"/>
    <use x="1283.873047" xlink:href="#ArialMT-32"/>
    <use x="1311.65625" xlink:href="#ArialMT-78"/>
    <use x="1383.873047" xlink:href="#ArialMT-101"/>
    <use x="1439.488281" xlink:href="#ArialMT-105"/>
    <use x="1461.705078" xlink:href="#ArialMT-103"/>
    <use x="1517.320312" xlink:href="#ArialMT-104"/>
    <use x="1572.935547" xlink:href="#ArialMT-98"/>
    <use x="1628.550781" xlink:href="#ArialMT-111"/>
    <use x="1684.166016" xlink:href="#ArialMT-117"/>
    <use x="1739.78125" xlink:href="#ArialMT-114"/>
    <use x="1773.082031" xlink:href="#ArialMT-104"/>
    <use x="1828.697266" xlink:href="#ArialMT-111"/>
    <use x="1884.3125" xlink:href="#ArialMT-111"/>
    <use x="1939.927734" xlink:href="#ArialMT-100"/>
    <use x="1995.542969" xlink:href="#ArialMT-115"/>
    <use x="2045.542969" xlink:href="#ArialMT-58"/>
    <use x="2073.326172" xlink:href="#ArialMT-32"/>
    <use x="2101.109375" xlink:href="#ArialMT-51"/>
    <use x="2156.724609" xlink:href="#ArialMT-44"/>
    <use x="2184.507812" xlink:href="#ArialMT-32"/>
    <use x="2212.291016" xlink:href="#ArialMT-99"/>
    <use x="2262.291016" xlink:href="#ArialMT-97"/>
    <use x="2317.90625" xlink:href="#ArialMT-115"/>
    <use x="2367.90625" xlink:href="#ArialMT-101"/>
    <use x="2423.521484" xlink:href="#ArialMT-58"/>
    <use x="2451.304688" xlink:href="#ArialMT-32"/>
    <use x="2479.087891" xlink:href="#ArialMT-101"/>
    <use x="2534.703125" xlink:href="#ArialMT-110"/>
    <use x="2590.318359" xlink:href="#ArialMT-101"/>
    <use x="2645.933594" xlink:href="#ArialMT-114"/>
    <use x="2679.234375" xlink:href="#ArialMT-103"/>
    <use x="2734.849609" xlink:href="#ArialMT-121"/>
   </g>
  </g>
 </g>
 <defs>
  <clipPath id="p56086bd168">
   <rect height="89.682353" width="446.4" x="72" y="47.52"/>
  </clipPath>
  <clipPath id="p28298e05a4">
   <rect height="89.682353" width="446.4" x="72" y="155.138824"/>
  </clipPath>
  <clipPath id="p41ee6e8174">
   <rect height="89.682353" width="446.4" x="72" y="262.757647"/>
  </clipPath>
 </defs>
</svg>
